<?xml version="1.0" encoding="UTF-8"?>
<!DOCTYPE svg PUBLIC "-//W3C//DTD SVG 1.1//EN" "http://www.w3.org/Graphics/SVG/1.1/DTD/svg11.dtd">
<!-- Creator: CorelDRAW 2020 -->
<svg xmlns="http://www.w3.org/2000/svg" xml:space="preserve" width="27.2712mm" height="10mm" version="1.1" style="shape-rendering:geometricPrecision; text-rendering:geometricPrecision; image-rendering:optimizeQuality; fill-rule:evenodd; clip-rule:evenodd"
viewBox="0 0 465.64 170.74"
 xmlns:xlink="http://www.w3.org/1999/xlink"
 xmlns:xodm="http://www.corel.com/coreldraw/odm/2003">
 <defs>
  <style type="text/css">
   <![CDATA[
    .str0 {stroke:#6B470F;stroke-width:8.54;stroke-miterlimit:22.9256}
    .fil0 {fill:none}
    .fil2 {fill:#6B470F}
    .fil1 {fill:#6B470F;fill-rule:nonzero}
   ]]>
  </style>
 </defs>
 <g id="Layer_x0020_1">
  <metadata id="CorelCorpID_0Corel-Layer"/>
  <g id="_1233295656">
   <polygon class="fil0" points="-0,0 465.64,0 465.64,170.74 -0,170.74 "/>
   <path class="fil1" d="M24.88 137.81c3.72,-0.64 7.05,-3.04 10,-7.21 1.38,-1.93 2.6,-3.29 3.64,-4.1 1.04,-0.8 2.15,-1.21 3.33,-1.21 0.47,0 0.94,0.22 1.41,0.63 0.47,0.43 0.71,0.93 0.71,1.51 0,0.77 -0.72,1.37 -2.18,1.81 -0.77,0.23 -1.49,0.63 -2.17,1.2 -0.67,0.56 -1.95,1.91 -3.83,4.05 -1.48,1.66 -2.8,2.83 -3.97,3.5 -0.11,0.06 -0.17,0.12 -0.17,0.17 0,0.06 0.07,0.13 0.22,0.18 1.14,0.62 2.35,1.8 3.62,3.56 1.85,2.55 3.24,4.17 4.16,4.83 0.93,0.67 1.98,1 3.18,1l0.78 -0.02c0.55,-0.03 0.82,0.22 0.82,0.73 0,0.59 -0.34,1.22 -1.01,1.86 -0.67,0.64 -1.79,0.96 -3.34,0.96 -1.19,0 -2.34,-0.51 -3.47,-1.54 -1.12,-1.03 -2.4,-2.7 -3.85,-5 -0.83,-1.37 -1.6,-2.4 -2.33,-3.1 -0.72,-0.71 -1.52,-1.06 -2.4,-1.06 -0.18,0 -0.77,0.15 -1.74,0.47 -0.97,0.31 -1.52,0.62 -1.63,0.91 -0.12,0.29 -0.21,1.33 -0.26,3.13 -0.05,1.79 -0.08,3.24 -0.08,4.34 0,0.59 -0.27,1.1 -0.82,1.56 -0.55,0.45 -1.15,0.68 -1.79,0.68 -0.66,0 -1.17,-0.19 -1.55,-0.58 -0.38,-0.38 -0.57,-0.78 -0.57,-1.19 0,-0.56 0.22,-1.9 0.63,-4 0.75,-3.83 1.51,-10.14 2.27,-18.95 0.06,-0.84 0.38,-1.61 0.96,-2.29 0.58,-0.68 1.24,-1.03 1.98,-1.03 0.41,0 0.75,0.23 1.02,0.66 0.27,0.44 0.42,1 0.42,1.69 0,0.55 -0.1,1.18 -0.29,1.89 -0.89,3.24 -1.45,6.56 -1.67,9.95zm44.7 -0.48c0,5.82 -1.88,9.78 -5.64,11.86 -1.83,1.02 -3.85,1.52 -6.03,1.52 -3.79,0 -6.73,-1.24 -8.81,-3.73 -1.93,-2.32 -2.89,-5.42 -2.89,-9.3 0,-4.62 1.29,-8.04 3.86,-10.26 2.14,-1.85 4.76,-2.77 7.85,-2.77 3.68,0 6.56,1.21 8.67,3.64 2,2.31 3,5.32 3,9.04zm-4.43 -2.03c-0.27,-2.01 -0.92,-3.61 -1.96,-4.76 -1.41,-1.58 -3.16,-2.37 -5.28,-2.37 -2.14,0 -3.9,0.79 -5.3,2.37 -1.04,1.16 -1.7,2.75 -1.97,4.76l14.5 0zm0.1 3.47l-14.7 0c0.13,2.41 0.76,4.38 1.91,5.9 1.32,1.73 3.14,2.59 5.45,2.59 2.31,0 4.12,-0.87 5.42,-2.61 1.13,-1.5 1.77,-3.46 1.91,-5.87zm13.85 8.69c-0.77,2.83 -1.49,6.79 -2.16,11.89l-0.66 4.44c-0.11,0.63 -0.4,1.25 -0.88,1.87 -0.46,0.62 -0.9,0.93 -1.29,0.93 -0.49,0 -1.04,-0.25 -1.66,-0.74 -0.62,-0.5 -0.92,-0.89 -0.92,-1.19 0,-0.87 0.19,-2.06 0.59,-3.58 2.87,-11.59 4.3,-21.77 4.3,-30.53l-0.02 -1.98c-0.03,-1.7 0.26,-2.93 0.89,-3.69 0.64,-0.77 1.35,-1.16 2.17,-1.16 0.38,0 0.74,0.3 1.08,0.88 0.34,0.59 0.51,1.42 0.51,2.51 0,1.52 -0.15,3.36 -0.47,5.53 -0.41,2.73 -0.62,4.3 -0.63,4.71 2.34,-4.07 4.81,-7.26 7.43,-9.55 2.62,-2.29 5.05,-3.44 7.3,-3.44 1.58,0 2.92,0.59 4.01,1.78 1.09,1.19 1.64,2.66 1.64,4.42 0,5.11 -1.96,9.76 -5.89,13.93 -3.92,4.18 -7.74,6.26 -11.45,6.26 -0.93,0 -1.66,-0.23 -2.2,-0.7 -0.55,-0.47 -1.11,-1.33 -1.69,-2.57zm14.61 -18.94c-2.21,0 -4.95,2.07 -8.21,6.21 -3.26,4.15 -4.89,7.37 -4.89,9.67 0,0.57 0.32,1.11 0.96,1.65 0.64,0.54 1.45,0.8 2.44,0.8 2.25,0 4.83,-1.66 7.74,-4.98 2.92,-3.32 4.38,-6.57 4.38,-9.77 0,-1.15 -0.23,-2.03 -0.69,-2.65 -0.47,-0.62 -1.04,-0.92 -1.73,-0.92zm42.03 1.06c-1.27,2.03 -3.06,5.49 -5.36,10.35 -0.51,1.09 -1.04,2.15 -1.57,3.17 -0.18,0.33 -0.51,1.06 -0.99,2.19 -1.65,3.82 -3.08,5.74 -4.31,5.74 -0.97,0 -1.68,-0.11 -2.13,-0.35 -0.44,-0.23 -0.87,-0.88 -1.28,-1.93 -0.41,-1.05 -1.01,-3.52 -1.81,-7.41 -0.92,-4.4 -1.55,-7.12 -1.88,-8.14 -1.07,2.4 -2.01,4.71 -2.85,6.94 -1.25,3.28 -2.47,5.95 -3.65,8.01 -1.17,2.06 -2.02,3.3 -2.54,3.71 -0.52,0.42 -1.01,0.63 -1.49,0.63 -0.48,0 -0.92,-0.18 -1.32,-0.56 -0.39,-0.38 -0.59,-0.75 -0.59,-1.11 0.1,-0.64 0.2,-1.04 0.33,-1.2 1.36,-1.68 2.54,-3.47 3.52,-5.36 0.99,-1.9 2.25,-4.75 3.78,-8.55 1.53,-3.79 2.5,-6.91 2.92,-9.34 0.21,-1.04 0.96,-1.55 2.28,-1.55 0.77,0 1.3,0.11 1.58,0.35 0.28,0.23 0.56,0.71 0.83,1.43 0.27,0.72 0.43,1.37 0.48,1.94 0.1,0.67 0.36,2.17 0.8,4.49 0.39,2.18 0.66,3.73 0.78,4.63 0.22,1.31 0.61,3.01 1.16,5.13 0.55,2.12 1,3.18 1.31,3.18 0.22,0 0.53,-0.48 0.94,-1.44l1.98 -4.57c0.36,-0.83 0.75,-1.65 1.16,-2.44l2.7 -5.53c1.48,-3.04 2.61,-5.24 3.4,-6.62 0.79,-1.37 1.32,-2.2 1.6,-2.48 0.27,-0.29 0.59,-0.43 0.93,-0.43 0.59,0 1.26,0.16 2,0.48 0.74,0.32 1.12,0.67 1.15,1.07 0.03,0.39 0.1,2.03 0.22,4.92l0.3 7.35c0.1,2.34 0.23,4.32 0.43,5.96 0.18,1.64 0.51,2.96 0.99,3.97 0.73,1.6 1.1,2.83 1.1,3.72 0,0.75 -0.31,1.27 -0.92,1.55 -0.63,0.28 -1.2,0.43 -1.73,0.43 -1.09,0 -1.94,-0.88 -2.53,-2.63 -0.59,-1.76 -1.01,-6.8 -1.28,-15.11 -0.1,-2.5 -0.25,-4.02 -0.45,-4.59zm32.25 12.63c0,1.6 -1.41,3.53 -4.24,5.79 -2.83,2.26 -5.76,3.38 -8.77,3.38 -2.52,0 -4.47,-0.74 -5.85,-2.23 -1.37,-1.49 -2.06,-3.57 -2.06,-6.23 0,-4.49 1.51,-8.75 4.54,-12.8 3.03,-4.05 6.34,-6.07 9.93,-6.07 1.17,0 2.14,0.38 2.88,1.16 0.74,0.76 1.12,1.69 1.12,2.77 0,2.42 -1.19,4.73 -3.56,6.95 -2.37,2.21 -5.53,4.39 -9.5,6.51 -0.82,0.43 -1.22,0.97 -1.22,1.65 0,1.3 0.37,2.35 1.13,3.13 0.75,0.79 1.87,1.17 3.34,1.17 3.37,0 6.82,-1.86 10.33,-5.6 0.52,-0.51 0.92,-0.78 1.18,-0.78 0.5,0 0.75,0.4 0.75,1.2zm-16.35 -3.67c6.66,-3.95 9.98,-7.13 9.98,-9.53 0,-0.94 -0.43,-1.41 -1.28,-1.41 -1.44,0 -3.07,1.06 -4.88,3.18 -1.81,2.12 -3.08,4.71 -3.82,7.77zm106.56 3.08c-2.19,2.95 -4.37,5.16 -6.51,6.63 -2.15,1.47 -4.12,2.21 -5.91,2.21 -1.21,0 -2.25,-0.51 -3.12,-1.53 -0.88,-1.02 -1.32,-2.33 -1.32,-3.94 0,-4.12 1.84,-8.56 5.53,-13.32 3.69,-4.76 7.35,-7.14 10.99,-7.14 1.32,0 2.3,0.75 2.95,2.26 0.2,0.5 0.52,0.75 0.96,0.75 1.25,0 1.88,0.48 1.88,1.45 0,0.49 -0.08,1.16 -0.23,2 -0.85,4.63 -1.27,7.89 -1.27,9.79 0,3.8 0.72,6.07 2.16,6.83 0.69,0.38 1.03,0.83 1.03,1.38 0,0.49 -0.34,0.98 -1.01,1.48 -0.67,0.49 -1.32,0.74 -1.95,0.74 -1.21,0 -2.21,-0.83 -2.99,-2.5 -0.79,-1.66 -1.18,-4.03 -1.18,-7.1zm-1.43 -13.25c-2.07,0 -4.48,1.94 -7.23,5.82 -2.75,3.89 -4.12,7.11 -4.12,9.66 0,1.8 0.6,2.71 1.79,2.71 1.73,0 4.12,-1.74 7.18,-5.23 3.06,-3.48 4.59,-6.68 4.59,-9.6 0,-2.24 -0.74,-3.37 -2.21,-3.37zm31.76 -5.57c-0.56,-2.45 -1.26,-4.16 -2.1,-5.13 -0.83,-0.97 -1.93,-1.73 -3.29,-2.26 -1.37,-0.53 -2.6,-0.8 -3.69,-0.8 -0.42,0 -1.04,0.16 -1.87,0.48 -0.82,0.32 -1.45,0.62 -1.89,0.88 -0.62,0.36 -1.18,0.55 -1.7,0.55 -0.6,0 -0.9,-0.31 -0.9,-0.95 0,-0.67 0.51,-1.61 1.53,-2.8 1.02,-1.2 2.81,-1.79 5.39,-1.79l1.01 0c2.55,0 4.81,0.68 6.77,2.02 1.96,1.34 3.36,3.25 4.18,5.75 0.83,2.49 1.24,5.84 1.24,10.05 0,2.85 -0.9,6.31 -2.71,10.38 -1.8,4.06 -4.1,7.14 -6.88,9.22 -2.78,2.09 -5.74,3.13 -8.88,3.13 -1.13,0 -2.19,-0.65 -3.17,-1.95 -0.99,-1.3 -1.49,-2.92 -1.49,-4.85 0,-3.56 0.78,-6.7 2.34,-9.42 1.56,-2.72 3.31,-4.93 5.25,-6.62 1.93,-1.7 4.62,-3.06 8.04,-4.1 1.12,-0.33 1.9,-0.59 2.31,-0.77 0.41,-0.19 0.58,-0.53 0.51,-1.01zm0.63 4.8c-3.62,0.74 -6.4,1.91 -8.33,3.51 -4.36,4.08 -6.54,8.65 -6.54,13.72 0,0.67 0.11,1.31 0.35,1.9 0.23,0.59 0.5,0.88 0.8,0.88 1.16,0 2.22,-0.21 3.18,-0.61 0.96,-0.41 2.12,-1.26 3.5,-2.55 1.38,-1.29 2.63,-2.9 3.76,-4.81 1.12,-1.92 1.94,-3.76 2.44,-5.53 0.51,-1.78 0.78,-3.13 0.81,-4.08 0.03,-0.95 0.04,-1.76 0.02,-2.42zm22.73 14.03c-2.19,2.95 -4.37,5.16 -6.51,6.63 -2.15,1.47 -4.12,2.21 -5.91,2.21 -1.21,0 -2.25,-0.51 -3.12,-1.53 -0.88,-1.02 -1.32,-2.33 -1.32,-3.94 0,-4.12 1.84,-8.56 5.53,-13.32 3.69,-4.76 7.35,-7.14 10.99,-7.14 1.32,0 2.3,0.75 2.95,2.26 0.2,0.5 0.52,0.75 0.96,0.75 1.25,0 1.88,0.48 1.88,1.45 0,0.49 -0.08,1.16 -0.23,2 -0.85,4.63 -1.27,7.89 -1.27,9.79 0,3.8 0.72,6.07 2.16,6.83 0.69,0.38 1.03,0.83 1.03,1.38 0,0.49 -0.34,0.98 -1.01,1.48 -0.67,0.49 -1.32,0.74 -1.95,0.74 -1.21,0 -2.21,-0.83 -2.99,-2.5 -0.79,-1.66 -1.18,-4.03 -1.18,-7.1zm-1.43 -13.25c-2.07,0 -4.48,1.94 -7.23,5.82 -2.75,3.89 -4.12,7.11 -4.12,9.66 0,1.8 0.6,2.71 1.79,2.71 1.73,0 4.12,-1.74 7.18,-5.23 3.06,-3.48 4.59,-6.68 4.59,-9.6 0,-2.24 -0.74,-3.37 -2.21,-3.37zm43.88 1.2c-1.27,2.03 -3.06,5.49 -5.36,10.35 -0.51,1.09 -1.04,2.15 -1.57,3.17 -0.18,0.33 -0.51,1.06 -0.99,2.19 -1.65,3.82 -3.08,5.74 -4.31,5.74 -0.97,0 -1.68,-0.11 -2.13,-0.35 -0.44,-0.23 -0.87,-0.88 -1.28,-1.93 -0.41,-1.05 -1.01,-3.52 -1.81,-7.41 -0.92,-4.4 -1.55,-7.12 -1.88,-8.14 -1.07,2.4 -2.01,4.71 -2.85,6.94 -1.25,3.28 -2.47,5.95 -3.65,8.01 -1.17,2.06 -2.02,3.3 -2.54,3.71 -0.52,0.42 -1.01,0.63 -1.49,0.63 -0.48,0 -0.92,-0.18 -1.32,-0.56 -0.39,-0.38 -0.59,-0.75 -0.59,-1.11 0.1,-0.64 0.2,-1.04 0.33,-1.2 1.36,-1.68 2.54,-3.47 3.52,-5.36 0.99,-1.9 2.25,-4.75 3.78,-8.55 1.53,-3.79 2.5,-6.91 2.92,-9.34 0.21,-1.04 0.96,-1.55 2.28,-1.55 0.77,0 1.3,0.11 1.58,0.35 0.28,0.23 0.56,0.71 0.83,1.43 0.27,0.72 0.43,1.37 0.48,1.94 0.1,0.67 0.36,2.17 0.8,4.49 0.39,2.18 0.66,3.73 0.78,4.63 0.22,1.31 0.61,3.01 1.16,5.13 0.55,2.12 1,3.18 1.31,3.18 0.22,0 0.53,-0.48 0.94,-1.44l1.98 -4.57c0.36,-0.83 0.75,-1.65 1.16,-2.44l2.7 -5.53c1.48,-3.04 2.61,-5.24 3.4,-6.62 0.79,-1.37 1.32,-2.2 1.6,-2.48 0.27,-0.29 0.59,-0.43 0.93,-0.43 0.59,0 1.26,0.16 2,0.48 0.74,0.32 1.12,0.67 1.15,1.07 0.03,0.39 0.1,2.03 0.22,4.92l0.3 7.35c0.1,2.34 0.23,4.32 0.43,5.96 0.18,1.64 0.51,2.96 0.99,3.97 0.73,1.6 1.1,2.83 1.1,3.72 0,0.75 -0.31,1.27 -0.92,1.55 -0.63,0.28 -1.2,0.43 -1.73,0.43 -1.09,0 -1.94,-0.88 -2.53,-2.63 -0.59,-1.76 -1.01,-6.8 -1.28,-15.11 -0.1,-2.5 -0.25,-4.02 -0.45,-4.59zm30.02 -6.78c-0.56,-2.45 -1.26,-4.16 -2.1,-5.13 -0.83,-0.97 -1.93,-1.73 -3.29,-2.26 -1.37,-0.53 -2.6,-0.8 -3.69,-0.8 -0.42,0 -1.04,0.16 -1.87,0.48 -0.82,0.32 -1.45,0.62 -1.89,0.88 -0.62,0.36 -1.18,0.55 -1.7,0.55 -0.6,0 -0.9,-0.31 -0.9,-0.95 0,-0.67 0.51,-1.61 1.53,-2.8 1.02,-1.2 2.81,-1.79 5.39,-1.79l1.01 0c2.55,0 4.81,0.68 6.77,2.02 1.96,1.34 3.36,3.25 4.18,5.75 0.83,2.49 1.24,5.84 1.24,10.05 0,2.85 -0.9,6.31 -2.71,10.38 -1.8,4.06 -4.1,7.14 -6.88,9.22 -2.78,2.09 -5.74,3.13 -8.88,3.13 -1.13,0 -2.19,-0.65 -3.17,-1.95 -0.99,-1.3 -1.49,-2.92 -1.49,-4.85 0,-3.56 0.78,-6.7 2.34,-9.42 1.56,-2.72 3.31,-4.93 5.25,-6.62 1.93,-1.7 4.62,-3.06 8.04,-4.1 1.12,-0.33 1.9,-0.59 2.31,-0.77 0.41,-0.19 0.58,-0.53 0.51,-1.01zm0.63 4.8c-3.62,0.74 -6.4,1.91 -8.33,3.51 -4.36,4.08 -6.54,8.65 -6.54,13.72 0,0.67 0.11,1.31 0.35,1.9 0.23,0.59 0.5,0.88 0.8,0.88 1.16,0 2.22,-0.21 3.18,-0.61 0.96,-0.41 2.12,-1.26 3.5,-2.55 1.38,-1.29 2.63,-2.9 3.76,-4.81 1.12,-1.92 1.94,-3.76 2.44,-5.53 0.51,-1.78 0.78,-3.13 0.81,-4.08 0.03,-0.95 0.04,-1.76 0.02,-2.42zm22.73 14.03c-2.19,2.95 -4.37,5.16 -6.51,6.63 -2.15,1.47 -4.12,2.21 -5.91,2.21 -1.21,0 -2.25,-0.51 -3.12,-1.53 -0.88,-1.02 -1.32,-2.33 -1.32,-3.94 0,-4.12 1.84,-8.56 5.53,-13.32 3.69,-4.76 7.35,-7.14 10.99,-7.14 1.32,0 2.3,0.75 2.95,2.26 0.2,0.5 0.52,0.75 0.96,0.75 1.25,0 1.88,0.48 1.88,1.45 0,0.49 -0.08,1.16 -0.23,2 -0.85,4.63 -1.27,7.89 -1.27,9.79 0,3.8 0.72,6.07 2.16,6.83 0.69,0.38 1.03,0.83 1.03,1.38 0,0.49 -0.34,0.98 -1.01,1.48 -0.67,0.49 -1.32,0.74 -1.95,0.74 -1.21,0 -2.21,-0.83 -2.99,-2.5 -0.79,-1.66 -1.18,-4.03 -1.18,-7.1zm-1.43 -13.25c-2.07,0 -4.48,1.94 -7.23,5.82 -2.75,3.89 -4.12,7.11 -4.12,9.66 0,1.8 0.6,2.71 1.79,2.71 1.73,0 4.12,-1.74 7.18,-5.23 3.06,-3.48 4.59,-6.68 4.59,-9.6 0,-2.24 -0.74,-3.37 -2.21,-3.37zm18.39 19.08c-0.77,2.83 -1.49,6.79 -2.16,11.89l-0.66 4.44c-0.11,0.63 -0.4,1.25 -0.88,1.87 -0.46,0.62 -0.9,0.93 -1.29,0.93 -0.49,0 -1.04,-0.25 -1.66,-0.74 -0.62,-0.5 -0.92,-0.89 -0.92,-1.19 0,-0.87 0.19,-2.06 0.59,-3.58 2.87,-11.59 4.3,-21.77 4.3,-30.53l-0.02 -1.98c-0.03,-1.7 0.26,-2.93 0.89,-3.69 0.64,-0.77 1.35,-1.16 2.17,-1.16 0.38,0 0.74,0.3 1.08,0.88 0.34,0.59 0.51,1.42 0.51,2.51 0,1.52 -0.15,3.36 -0.47,5.53 -0.41,2.73 -0.62,4.3 -0.63,4.71 2.34,-4.07 4.81,-7.26 7.43,-9.55 2.62,-2.29 5.05,-3.44 7.3,-3.44 1.58,0 2.92,0.59 4.01,1.78 1.09,1.19 1.64,2.66 1.64,4.42 0,5.11 -1.96,9.76 -5.89,13.93 -3.92,4.18 -7.74,6.26 -11.45,6.26 -0.93,0 -1.66,-0.23 -2.2,-0.7 -0.55,-0.47 -1.11,-1.33 -1.69,-2.57zm14.61 -18.94c-2.21,0 -4.95,2.07 -8.21,6.21 -3.26,4.15 -4.89,7.37 -4.89,9.67 0,0.57 0.32,1.11 0.96,1.65 0.64,0.54 1.45,0.8 2.44,0.8 2.25,0 4.83,-1.66 7.74,-4.98 2.92,-3.32 4.38,-6.57 4.38,-9.77 0,-1.15 -0.23,-2.03 -0.69,-2.65 -0.47,-0.62 -1.04,-0.92 -1.73,-0.92zm-235.06 6.35l1.72 0c2.91,0 5.08,-0.1 6.51,-0.31 0.69,-0.1 1.38,-0.14 2.07,-0.14 0.3,0 0.91,0.18 1.82,0.54 0.92,0.36 1.46,0.67 1.64,0.91 0.17,0.25 0.26,0.57 0.26,0.98 0,0.58 -0.12,0.99 -0.35,1.22 -0.23,0.23 -0.75,0.35 -1.53,0.35 -0.34,0 -0.83,-0.1 -1.45,-0.31 -0.63,-0.2 -1.16,-0.3 -1.58,-0.3 -0.17,0 -0.74,0.04 -1.71,0.12 -0.52,0.04 -1.46,0.01 -2.83,-0.12 -1.05,-0.1 -1.83,-0.15 -2.35,-0.15 -0.72,0 -1.81,0.05 -3.27,0.15 -1.46,0.1 -2.56,0.14 -3.32,0.14 -0.75,0 -1.36,-0.09 -1.82,-0.25 -0.47,-0.17 -0.7,-0.54 -0.7,-1.12 0,-0.26 0.11,-0.55 0.32,-0.88 0.21,-0.34 0.93,-0.6 2.15,-0.8 1.22,-0.19 2.11,-0.3 2.63,-0.3l1.79 0.26z"/>
   <g id="atau-belgi.svg">
    <path class="fil0 str0" d="M89.95 49.46c-25.25,3.99 -33.66,19.84 -36.14,29.14 -2.17,8.06 -1.55,21.3 16.48,21.75 5.85,0 22.85,-0.04 36.8,0 17.32,0.04 22.15,-13.82 21.75,-25.73 -0.76,-21.63 -20.23,-28.07 -38.89,-25.15z"/>
    <path class="fil2" d="M67.27 80.11c0,-5.02 4.1,-9.13 9.13,-9.13 5.02,0 9.13,4.1 9.13,9.13 0,5.02 -4.1,9.13 -9.13,9.13 -5.02,0 -9.13,-4.1 -9.13,-9.13z"/>
   </g>
  </g>
 </g>
</svg>
