<?xml version="1.0" encoding="UTF-8"?>
<!DOCTYPE svg PUBLIC "-//W3C//DTD SVG 1.1//EN" "http://www.w3.org/Graphics/SVG/1.1/DTD/svg11.dtd">

<svg xmlns="http://www.w3.org/2000/svg" xml:space="preserve" width="100%" height="100%" version="1.1" style="shape-rendering:geometricPrecision; text-rendering:geometricPrecision; image-rendering:optimizeQuality; fill-rule:evenodd; clip-rule:evenodd"
viewBox="0 0 42701.92 21084.09"
xmlns:xlink="http://www.w3.org/1999/xlink"
xmlns:xodm="http://www.corel.com/coreldraw/odm/2003">

  <style type="text/css">
   <![CDATA[
    .str1 {stroke:white;stroke-width:26.69;stroke-miterlimit:22.9256}
    .str6 {stroke:#ACA77B;stroke-width:40.35;stroke-miterlimit:22.9256}
    .str0 {stroke:#FEFEFE;stroke-width:53.38;stroke-miterlimit:22.9256}
    .str8 {stroke:#755C36;stroke-width:53.38;stroke-miterlimit:22.9256}
    .str7 {stroke:#ACA77B;stroke-width:35.59;stroke-miterlimit:22.9256}
    .str5 {stroke:#fefefe;stroke-width:35.59;stroke-miterlimit:22.9256}
    .str4 {stroke:#F7ADAF;stroke-width:35.59;stroke-miterlimit:22.9256}
    .str3 {stroke:#F5874F;stroke-width:35.59;stroke-miterlimit:22.9256}
    .str2 {stroke:white;stroke-width:35.59;stroke-miterlimit:22.9256}
    .fil8 {fill:none}
    .fil3 {fill:none;fill-rule:nonzero}
    .fil7 {fill:#FFF8AF}
    .fil0 {fill:#6B470F}
    .fil6 {fill:#FFED00}
    .fil5 {fill:#ABA994;fill-rule:nonzero}
    .fil4 {fill:#858474;fill-rule:nonzero}
    .fil9 {fill:#ACA77B;fill-rule:nonzero}
    .fil1 {fill:#D7CC75;fill-rule:nonzero}
    .fil10 {fill:#FBE18C;fill-rule:nonzero}
    .fil2 {fill:#FFC107;fill-opacity:0.501961}
   ]]>
  </style>
   <mask id="id0">
  <linearGradient id="id1" gradientUnits="userSpaceOnUse" x1="18287.28" y1="17993.08" x2="28118.28" y2="1734.98">
   <stop offset="0" style="stop-opacity:0; stop-color:white"/>
   <stop offset="1" style="stop-opacity:0.576471; stop-color:white"/>
  </linearGradient>
    <rect style="fill:url(#id1)" x="15120.32" y="4489.97" width="12099.58" height="12099.57"/>
   </mask>

 <g id="Layer_x0020_1">
  <metadata id="CorelCorpID_0Corel-Layer"/>
  <filter id="innerShadow" x="-20%" y="-20%" width="140%" height="140%">
   <feGaussianBlur in="SourceGraphic" stdDeviation="3" result="blur"/>
   <feOffset in="blur" dx="2.5" dy="2.5"/>
  </filter>
  <rect class="fil0" x="-0.01" y="10542.03" width="42701.92" height="10542.05"/>
  <path id="shadow" class="fil1" style="mask:url(#id0)" d="M27216.06 10539.75c0,-3339.07 -2706.88,-6045.94 -6045.95,-6045.94 -3339.08,0 -6045.95,2706.87 -6045.95,6045.94 0,3339.08 2706.87,6045.95 6045.95,6045.95 3339.07,0 6045.95,-2706.87 6045.95,-6045.95z" filter="url(#innerShadow)"/>
  <path class="fil2" d="M21267.11 10442.76c53.56,0 96.99,43.43 96.99,96.99l5722.64 0c0,-3214.09 -2605.53,-5819.62 -5819.62,-5819.62 -3214.09,0 -5819.62,2605.53 -5819.62,5819.62l5722.64 0c0,-53.55 43.43,-96.99 96.99,-96.99z"/>
  <circle id="circle" class="fil3 str0" cx="21267.11" cy="10539.75" r="5819.63"/>
  <line class="fil3 str1" x1="24497.76" y1="6093.15" x2="24307.72" y2= "6354.7" />
  <line class="fil3 str1" x1="26494.41" y1="8841.3" x2="26186.92" y2= "8941.21" />
  <line class="fil3 str1" x1="26494.41" y1="12238.2" x2="26186.92" y2= "12138.3" />
  <line class="fil3 str1" x1="24497.76" y1="14986.36" x2="24307.72" y2= "14724.8" />
  <line class="fil3 str2" x1="21267.11" y1="16118.81" x2="21267.11" y2= "15630.02" />
  <line class="fil3 str1" x1="18036.46" y1="14986.36" x2="18226.5" y2= "14724.8" />
  <line class="fil3 str1" x1="16039.81" y1="12238.2" x2="16347.29" y2= "12138.3" />
  <line class="fil3 str1" x1="16039.81" y1="8841.3" x2="16347.29" y2= "8941.21" />
  <line class="fil3 str1" x1="18036.46" y1="6093.15" x2="18226.5" y2= "6354.7" />
  <line class="fil3 str1" x1="21267.11" y1="5043.43" x2="21267.11" y2= "5366.76" />
  <path class="fil4" d="M16798.79 10249.58c33.26,-5.74 63.07,-27.23 89.45,-64.45 12.35,-17.24 23.2,-29.45 32.54,-36.71 9.34,-7.18 19.26,-10.85 29.81,-10.85 4.17,0 8.41,1.95 12.58,5.68 4.24,3.8 6.32,8.34 6.32,13.51 0,6.89 -6.46,12.29 -19.55,16.24 -6.89,2.08 -13.36,5.67 -19.39,10.7 -6.04,5.02 -17.46,17.1 -34.28,36.21 -13.22,14.87 -25.08,25.29 -35.57,31.33 -1,0.57 -1.51,1.07 -1.51,1.5 0,0.57 0.65,1.15 1.95,1.64 10.2,5.54 21.05,16.1 32.4,31.83 16.52,22.85 28.95,37.29 37.22,43.26 8.34,5.96 17.74,8.91 28.46,8.91l6.96 -0.22c4.89,-0.28 7.33,1.94 7.33,6.54 0,5.32 -3.02,10.92 -9.06,16.66 -6.03,5.76 -16.02,8.63 -29.89,8.63 -10.63,0 -20.98,-4.61 -31.04,-13.8 -10.06,-9.2 -21.48,-24.15 -34.41,-44.77 -7.48,-12.22 -14.37,-21.48 -20.84,-27.73 -6.46,-6.32 -13.65,-9.49 -21.48,-9.49 -1.66,0 -6.91,1.37 -15.59,4.18 -8.71,2.79 -13.58,5.53 -14.6,8.12 -1.07,2.58 -1.87,11.93 -2.37,28.02 -0.42,16.02 -0.72,29.02 -0.72,38.79 0,5.25 -2.44,9.83 -7.32,13.93 -4.95,4.03 -10.27,6.11 -16.03,6.11 -5.89,0 -10.48,-1.72 -13.86,-5.16 -3.38,-3.45 -5.1,-6.98 -5.1,-10.63 0,-5.04 1.94,-16.97 5.68,-35.8 6.75,-34.26 13.51,-90.74 20.26,-169.48 0.49,-7.55 3.37,-14.37 8.61,-20.47 5.17,-6.11 11.07,-9.2 17.68,-9.2 3.66,0 6.68,2.01 9.11,5.88 2.45,3.96 3.74,8.99 3.74,15.17 0,4.96 -0.86,10.56 -2.58,16.89 -7.98,29.02 -12.93,58.7 -14.94,89.01zm575.07 -26.72c1.5,-2.95 4.01,-20.55 7.31,-52.81 2.59,-25.86 10.78,-38.79 24.65,-38.79 11.35,0 17.09,5.74 17.09,17.1 0,2.66 -1,8.05 -2.95,16.16 -10.83,44.77 -16.22,82.34 -16.22,112.65 0,32.84 5.39,54.12 16.22,63.73 5.62,5.26 8.41,9.42 8.41,12.65 0,3.95 -2.87,7.55 -8.54,10.77 -5.68,3.24 -10.85,4.82 -15.45,4.82 -21.91,0 -32.83,-33.84 -32.83,-101.46 0,-4.52 -1.72,-6.76 -5.1,-6.76 -13.14,0 -29.31,0.8 -48.35,2.31 -19.12,1.58 -32.76,3.52 -40.95,5.89 -8.27,2.45 -13.29,4.6 -15.16,6.69 -1.95,2.01 -3.59,7.39 -5.09,16.15 -1.44,8.78 -2.17,17.89 -2.17,27.32l0 25.85c0,15.02 -6.89,22.57 -20.61,22.57 -11.57,0 -17.32,-7.56 -17.32,-22.57 0,-9.83 1.3,-22.33 3.8,-37.42 4.67,-27.8 9.27,-75.65 13.87,-143.55 0.57,-8.92 1.37,-14.52 2.37,-16.89 0.94,-2.37 3.52,-5.03 7.69,-7.91 4.1,-2.86 8.62,-4.31 13.58,-4.31 10.07,0 15.16,4.17 15.16,12.43 0,1.29 -1.64,11.79 -4.88,31.61 -3.38,19.75 -5.02,35.14 -5.02,46.05 0,7.77 2.65,11.58 7.97,11.58 10.7,0 30.18,-1.8 58.56,-5.32 28.31,-3.6 42.96,-6.47 43.98,-8.55zm-186.82 -86.28l-84.48 223.73 0 85.78 -37.94 0 0 -85.78 -84.92 -223.73 40.52 0 46.99 129.54c6.54,17.89 12,35.13 16.38,51.88 4.02,-15.3 9.56,-32.62 16.38,-51.88l46.55 -129.54 40.52 0z"/>
  <path class="fil1" d="M16817.14 10794.83c-13.07,0.27 -41.01,38.94 -83.77,115.96 -14.51,25.93 -22.91,40.08 -25.28,42.39 -2.37,2.3 -6.76,4.38 -13.15,6.24 -6.41,1.81 -11.72,2.74 -15.89,2.74 -9.41,0 -14.15,-18.33 -14.15,-54.96 0,-20.63 4.45,-57.98 13.29,-112.02 3.66,-21.84 5.46,-37.5 5.46,-46.91 0,-9.27 4.17,-13.87 12.44,-13.87 15.59,0 23.35,11.21 23.35,33.63 0,10.56 -2.59,31.17 -7.76,61.92 -6.04,35.06 -9.13,56.41 -9.28,63.95 8.71,-8.41 21.49,-26.87 38.3,-55.32 23.86,-39.02 41.45,-63.74 52.74,-74.22 11.28,-10.43 22.99,-15.67 35.06,-15.67 9.13,0 16.37,6.1 21.76,18.31 5.4,12.23 8.71,41.32 9.78,87.37 0.29,11.5 1.36,20.04 3.16,25.65 1.88,5.61 3.16,8.4 4.02,8.4 6.61,0 20.91,-22.4 42.96,-67.31 11.78,-23.72 23.21,-41.75 34.42,-54.12 11.14,-12.35 23.49,-18.53 37.14,-18.53 11.36,0 19.62,5.9 24.79,17.6 5.25,11.71 8.91,29.02 11.21,52.1 2.08,23.27 5.32,44.62 9.77,63.94 4.38,19.4 12.51,31.82 24.28,37.28 8.04,3.81 12,8.19 12,13.29 0,4.89 -3.39,9.92 -10.06,15.09 -6.76,5.25 -12.94,7.84 -18.54,7.84 -11.28,0 -21.27,-6.91 -30.11,-20.63 -8.84,-13.8 -15.51,-43.54 -19.96,-89.24 -2.02,-18.39 -3.88,-31.47 -5.76,-39.16 -1.8,-7.76 -4.66,-11.63 -8.61,-11.63 -5.9,0 -12.86,5.67 -20.9,16.88 -8.13,11.22 -21.13,34.05 -39.1,68.41 -14,26.79 -24.64,44.69 -31.9,53.59 -7.18,8.91 -14.16,13.37 -20.9,13.37 -6.04,0 -11.43,-2.44 -16.24,-7.25 -4.74,-4.89 -7.77,-10.71 -9.06,-17.54 -1.22,-6.76 -2.59,-23.49 -3.94,-50.14 -2.17,-44.33 -5.96,-70.2 -11.58,-77.45zm654.61 29.02c1.5,-2.95 4.02,-20.55 7.32,-52.81 2.59,-25.86 10.77,-38.79 24.64,-38.79 11.36,0 17.1,5.74 17.1,17.1 0,2.66 -1,8.05 -2.95,16.16 -10.83,44.77 -16.23,82.34 -16.23,112.66 0,32.83 5.4,54.11 16.23,63.72 5.61,5.26 8.41,9.42 8.41,12.65 0,3.95 -2.87,7.56 -8.54,10.77 -5.68,3.24 -10.85,4.82 -15.46,4.82 -21.91,0 -32.83,-33.84 -32.83,-101.46 0,-4.52 -1.71,-6.75 -5.09,-6.75 -13.14,0 -29.31,0.79 -48.35,2.31 -19.12,1.57 -32.76,3.51 -40.95,5.88 -8.27,2.45 -13.29,4.6 -15.16,6.69 -1.95,2.01 -3.59,7.39 -5.09,16.16 -1.44,8.77 -2.17,17.88 -2.17,27.31l0 25.85c0,15.02 -6.89,22.57 -20.62,22.57 -11.57,0 -17.31,-7.56 -17.31,-22.57 0,-9.83 1.29,-22.33 3.8,-37.42 4.66,-27.8 9.27,-75.65 13.87,-143.55 0.57,-8.92 1.36,-14.52 2.37,-16.89 0.94,-2.37 3.52,-5.03 7.69,-7.91 4.09,-2.86 8.62,-4.31 13.57,-4.31 10.08,0 15.17,4.17 15.17,12.43 0,1.29 -1.65,11.79 -4.89,31.61 -3.37,19.76 -5.02,35.14 -5.02,46.06 0,7.76 2.65,11.57 7.97,11.57 10.7,0 30.18,-1.8 58.56,-5.32 28.31,-3.59 42.97,-6.47 43.98,-8.55zm-186.81 -86.28l-84.49 223.73 0 85.78 -37.93 0 0 -85.78 -84.92 -223.73 40.52 0 46.99 129.54c6.54,17.89 11.99,35.13 16.38,51.88 4.02,-15.3 9.56,-32.62 16.37,-51.88l46.56 -129.54 40.52 0z"/>
  <path class="fil4" d="M21077.18 4223.54l68.56 -5.22c5.09,33.41 16.89,58.51 35.27,75.4 18.38,16.75 40.86,25.21 67.32,25.21 31.92,0 58.62,-11.92 80.35,-35.64 21.62,-23.86 32.42,-55.41 32.42,-94.66 0,-37.38 -10.31,-66.82 -31.05,-88.42 -20.75,-21.62 -48.2,-32.43 -82.35,-32.43 -21.24,0 -40.25,4.85 -57.13,14.55 -16.76,9.68 -29.94,22.22 -39.62,37.62l-61.85 -8.95 51.42 -274.24 264.55 0 0 62.6 -212.27 0 -28.44 143.96c31.92,-22.49 65.46,-33.67 100.48,-33.67 46.46,0 85.7,16.15 117.63,48.44 31.92,32.3 47.93,73.78 47.93,124.45 0,48.31 -14.03,90.05 -42.1,125.19 -34.15,43.22 -80.85,64.84 -139.97,64.84 -48.45,0 -87.94,-13.66 -118.61,-40.86 -30.68,-27.2 -48.21,-63.22 -52.54,-108.18z"/>
  <path class="fil5" d="M21125.59 17249.81l-65.58 0 0 -417.57c-15.78,15.15 -36.52,30.18 -62.11,45.21 -25.59,15.03 -48.68,26.33 -69.06,33.78l0 -63.35c36.64,-17.14 68.69,-38 96.14,-62.6 27.44,-24.47 46.95,-48.19 58.37,-71.3l42.22 0 0 535.83zm168.54 -263.32c0,-62.96 6.46,-113.89 19.38,-152.39 13.04,-38.63 32.3,-68.32 57.88,-89.07 25.46,-20.73 57.64,-31.05 96.39,-31.05 28.57,0 53.65,5.72 75.39,17.28 21.61,11.54 39.49,28.18 53.4,49.92 13.91,21.62 24.84,48.06 32.78,79.24 8.08,31.18 12.05,73.27 12.05,126.06 0,62.6 -6.46,113.28 -19.25,151.78 -12.79,38.63 -32.05,68.32 -57.64,89.18 -25.46,20.87 -57.75,31.3 -96.75,31.3 -51.3,0 -91.67,-18.26 -120.98,-54.89 -35.15,-44.72 -52.66,-117.13 -52.66,-217.37zm67.08 0.25c0,87.82 10.18,146.19 30.67,175 20.49,28.94 45.83,43.35 75.9,43.35 30.05,0 55.39,-14.54 75.89,-43.48 20.49,-29.06 30.67,-87.31 30.67,-174.88 0,-87.81 -10.19,-146.18 -30.67,-174.99 -20.38,-28.95 -45.96,-43.35 -76.64,-43.35 -30.05,0 -54.15,12.79 -72.16,38.26 -22.47,32.41 -33.65,92.52 -33.65,180.08z"/>
  <path class="fil4" d="M17663.48 5179.23l-64.84 5.22c-5.83,-25.71 -14.15,-44.46 -24.96,-56.14 -17.77,-18.75 -39.75,-28.07 -65.83,-28.07 -21,0 -39.62,5.85 -55.65,17.52 -20.62,15.03 -36.76,36.89 -48.81,65.7 -11.92,28.94 -18.13,70.05 -18.62,123.34 15.77,-23.98 35.14,-41.86 57.99,-53.41 22.86,-11.67 46.7,-17.52 71.79,-17.52 43.72,0 80.98,16.15 111.78,48.32 30.67,32.17 46.09,73.66 46.09,124.71 0,33.54 -7.2,64.59 -21.62,93.41 -14.54,28.81 -34.29,50.79 -59.61,66.07 -25.22,15.28 -53.91,22.98 -85.96,22.98 -54.52,0 -99.11,-20.12 -133.63,-60.24 -34.41,-40.11 -51.67,-106.31 -51.67,-198.47 0,-103.09 19.13,-178.12 57.25,-224.94 33.29,-40.73 78.12,-61.11 134.63,-61.11 41.98,0 76.52,11.81 103.34,35.27 26.83,23.47 42.97,55.9 48.32,97.38zm-268.28 230.28c0,22.61 4.83,44.22 14.4,64.83 9.56,20.62 22.98,36.27 40,47.08 17.14,10.8 35.27,16.27 54.52,16.27 27.94,0 51.79,-11.19 71.54,-33.54 19.75,-22.36 29.7,-52.66 29.7,-91.04 0,-36.89 -9.82,-65.96 -29.31,-87.2 -19.51,-21.22 -44.34,-31.92 -74.52,-31.92 -29.57,0 -54.77,10.69 -75.39,31.92 -20.63,21.24 -30.93,49.07 -30.93,83.6z"/>
  <path class="fil4" d="M15115.52 8416l0 -62.6 345.03 0 0 50.68c-33.9,36.15 -67.68,84.22 -100.97,144.21 -33.41,59.98 -59.12,121.71 -77.39,185.18 -13.03,44.59 -21.49,93.65 -25.08,146.81l-67.07 0c0.74,-41.97 8.95,-92.78 24.71,-152.26 15.78,-59.62 38.25,-117.01 67.69,-172.28 29.43,-55.27 60.73,-101.85 93.9,-139.74l-260.83 0z"/>
  <path class="fil5" d="M25088.77 15985.78l-65.58 0 0 -417.57c-15.78,15.15 -36.51,30.19 -62.11,45.21 -25.58,15.03 -48.68,26.34 -69.06,33.79l0 -63.36c36.65,-17.13 68.69,-38 96.14,-62.6 27.45,-24.46 46.95,-48.19 58.37,-71.29l42.22 0 0 535.82z"/>
  <path class="fil5" d="M27509.02 12731.14l0 62.59 -353.24 0c-0.5,-15.77 2.11,-30.92 7.71,-45.57 9.06,-23.98 23.59,-47.7 43.59,-70.92 19.99,-23.23 48.57,-50.05 85.7,-80.48 57.76,-47.58 97.01,-85.21 117.5,-113.03 20.62,-27.83 30.92,-54.15 30.92,-78.99 0,-25.96 -9.31,-47.82 -27.94,-65.71 -18.63,-17.76 -42.97,-26.7 -72.91,-26.7 -31.66,0 -57,9.43 -76.02,28.31 -19,18.75 -28.57,44.85 -28.81,78.25l-67.07 -6.71c4.6,-50.17 21.98,-88.42 52.03,-114.76 30.19,-26.34 70.56,-39.5 121.35,-39.5 51.18,0 91.79,14.16 121.6,42.61 29.94,28.44 44.84,63.72 44.84,105.69 0,21.36 -4.34,42.36 -13.16,62.97 -8.7,20.74 -23.22,42.48 -43.47,65.33 -20.38,22.73 -54.04,54.16 -100.98,93.9 -39.37,33.04 -64.71,55.4 -75.9,67.19 -11.17,11.8 -20.36,23.6 -27.69,35.53l261.95 0z"/>
  <path class="fil4" d="M27180.99 8702.47l65.59 -8.95c7.58,37.26 20.24,64.09 38.26,80.48 18,16.4 40.11,24.59 66.31,24.59 31.06,0 57.26,-10.68 78.38,-32.04 21.11,-21.36 31.67,-47.82 31.67,-79.38 0,-30.05 -9.81,-54.89 -29.57,-74.52 -19.62,-19.49 -44.58,-29.3 -75.02,-29.3 -12.42,0 -27.82,2.48 -46.33,7.32l7.33 -57.39c4.35,0.5 7.95,0.75 10.55,0.75 28.07,0 53.17,-7.32 75.65,-21.86 22.35,-14.54 33.53,-36.89 33.53,-67.07 0,-23.97 -8.19,-43.85 -24.47,-59.62 -16.27,-15.77 -37.26,-23.59 -62.97,-23.59 -25.58,0 -46.82,8.07 -63.83,24.22 -17.02,16.15 -27.95,40.37 -32.79,72.66l-65.58 -11.92c8.06,-43.96 26.21,-78.11 54.64,-102.33 28.31,-24.23 63.71,-36.28 105.95,-36.28 29.05,0 55.88,6.22 80.35,18.77 24.59,12.42 43.34,29.43 56.26,50.92 13.05,21.61 19.51,44.46 19.51,68.67 0,22.99 -6.21,43.85 -18.51,62.73 -12.42,18.88 -30.81,33.9 -55.01,45.09 31.54,7.19 56.01,22.35 73.52,45.33 17.39,22.86 26.09,51.67 26.09,86.07 0,46.58 -17.02,86.2 -50.93,118.61 -34.02,32.42 -77,48.57 -128.92,48.57 -46.82,0 -85.7,-14.04 -116.63,-41.98 -31.05,-27.94 -48.69,-64.09 -53.04,-108.56z"/>
  <path class="fil4" d="M25046.06 5602.33l0 -127.44 -231.77 0 0 -60.35 243.69 -345.78 53.65 0 0 345.78 72.28 0 0 60.35 -72.28 0 0 127.44 -65.58 0zm0 -187.79l0 -240.09 -167.31 240.09 167.31 0z"/>
  <path class="fil5" d="M15132.02 12497.24c-27.19,-9.93 -47.32,-24.21 -60.48,-42.6 -13.04,-18.51 -19.63,-40.61 -19.63,-66.32 0,-38.89 13.91,-71.43 41.73,-97.87 27.95,-26.46 64.96,-39.75 111.29,-39.75 46.45,0 83.96,13.55 112.28,40.62 28.32,27.07 42.49,59.99 42.49,98.87 0,24.71 -6.47,46.32 -19.38,64.58 -12.92,18.38 -32.54,32.55 -59.01,42.48 32.67,10.69 57.39,27.82 74.4,51.68 17.02,23.71 25.59,52.03 25.59,85.08 0,45.57 -16.15,83.82 -48.32,114.88 -32.3,31.05 -74.64,46.57 -127.18,46.57 -52.54,0 -94.9,-15.52 -127.2,-46.69 -32.17,-31.18 -48.31,-70.05 -48.31,-116.63 0,-34.66 8.82,-63.72 26.46,-87.07 17.63,-23.47 42.72,-39.37 75.26,-47.82zm-13.04 -111.28c0,25.34 8.08,45.96 24.1,61.97 16.15,16.02 37.26,24.1 63.47,24.1 25.46,0 46.09,-7.95 62.11,-23.85 16.02,-15.91 23.98,-35.4 23.98,-58.51 0,-24.1 -8.21,-44.34 -24.73,-60.73 -16.39,-16.39 -37.13,-24.59 -62.09,-24.59 -25.23,0 -45.97,8.07 -62.36,24.1 -16.26,16.02 -24.47,35.15 -24.47,57.51zm-21.61 246.66c0,18.76 4.35,36.78 13.04,54.28 8.7,17.4 21.85,30.93 39.49,40.49 17.52,9.57 36.39,14.41 56.39,14.41 31.55,0 57.4,-10.06 77.64,-30.18 20.24,-20.11 30.3,-45.7 30.3,-76.75 0,-31.55 -10.44,-57.64 -31.18,-78.26 -20.86,-20.62 -47.2,-30.93 -78.87,-30.93 -31.06,0 -56.51,10.19 -76.63,30.55 -20.12,20.37 -30.18,45.84 -30.18,76.38z"/>
  <path class="fil5" d="M17332.01 15895.23l62.6 -5.23c5.34,29.57 15.51,50.94 30.54,64.22 15.03,13.28 34.29,19.99 57.88,19.99 20.11,0 37.76,-4.6 53.04,-13.91 15.28,-9.2 27.7,-21.49 37.26,-37.01 9.56,-15.41 17.63,-36.27 24.22,-62.48 6.59,-26.21 9.81,-52.91 9.81,-80.11 0,-2.85 -0.13,-7.32 -0.37,-13.16 -13.04,20.86 -30.93,37.88 -53.53,50.8 -22.62,13.04 -47.2,19.5 -73.53,19.5 -44.09,0 -81.35,-16.02 -111.91,-48.06 -30.42,-31.92 -45.7,-74.16 -45.7,-126.56 0,-54.16 15.9,-97.62 47.82,-130.66 31.79,-32.92 71.66,-49.45 119.72,-49.45 34.53,0 66.2,9.32 95.02,28.07 28.69,18.64 50.43,45.22 65.33,79.86 14.9,34.55 22.35,84.6 22.35,150.05 0,68.19 -7.32,122.47 -22.11,162.84 -14.78,40.49 -36.89,71.16 -66.07,92.28 -29.19,21.11 -63.36,31.67 -102.6,31.67 -41.73,0 -75.76,-11.54 -102.22,-34.77 -26.34,-23.22 -42.22,-55.89 -47.56,-97.87zm267.53 -235.36c0,-37.52 -9.95,-67.33 -29.81,-89.31 -19.75,-21.98 -43.85,-33.04 -72.16,-33.04 -29.32,0 -54.66,11.79 -76.02,35.53 -21.49,23.71 -32.17,54.52 -32.17,92.28 0,33.9 10.19,61.48 30.43,82.59 20.37,21.24 45.7,31.79 75.89,31.79 30.31,0 55.15,-10.55 74.64,-31.79 19.51,-21.11 29.19,-50.55 29.19,-88.05z"/>
  <path class="fil6" d="M21267.11 5813.46c182.22,0 329.94,147.7 329.94,329.93 0,182.22 -147.72,329.93 -329.94,329.93 -182.21,0 -329.93,-147.7 -329.93,-329.93 0,-182.22 147.72,-329.93 329.93,-329.93z"/>
  <path class="fil7" d="M21286.34 14684.42c171.23,62.33 259.52,251.65 197.19,422.88 -62.33,171.24 -251.65,259.52 -422.89,197.19 -171.23,-62.32 165.75,13.7 281.44,-252.92 110.33,-233.37 -226.98,-429.48 -55.74,-367.15z"/>

<circle id="center" class="fil10 str8" cx="21267.11" cy="10539.75" r="112.08"/>
<path id="hourhand" class="fil8 str3" d="M21267.11 6260.58l0 -580.24m0 -438.62l0 -264.22m0 264.22c3.36,0 6.71,0.1 10.03,0.24 116.82,5.25 209.93,101.3 209.93,219.07 0,121.13 -98.49,219.3 -219.96,219.3 -121.47,0 -219.95,-98.18 -219.95,-219.3 0,-121.14 98.48,-219.31 219.95,-219.31z">
<animateTransform attributeName="transform" attributeType="XML" type="rotate" dur="43200s" repeatCount="indefinite" from="463 21267.11 10539.75" to="103 21267.11 10539.75"/></path>
<path id="minutehand" class="fil8 str4" d="M21267.11 6132.27l0 -464.2m0 -350.88l0 -211.38m0 211.38c2.68,0 5.37,0.07 8.02,0.18 93.46,4.2 167.95,81.05 167.95,175.26 0,96.9 -78.79,175.43 -175.97,175.43 -97.17,0 -175.96,-78.54 -175.96,-175.43 0,-96.91 78.79,-175.44 175.96,-175.44z">
<animateTransform attributeName="transform" attributeType="XML" type="rotate" dur="3600s" repeatCount="indefinite" from="60 21267.11 10539.75" to="-300 21267.11 10539.75"/></path>
<path id="secondhand" class="fil8 str5" d="M21267.11 5961.2l0 -309.46m0 -233.93l0 -140.92m0 140.92c1.8,0 3.58,0.05 5.35,0.13 62.31,2.79 111.97,54.03 111.97,116.84 0,64.6 -52.52,116.96 -117.31,116.96 -64.78,0 -117.3,-52.36 -117.3,-116.96 0,-64.61 52.52,-116.97 117.3,-116.97z">
<animateTransform attributeName="transform" attributeType="XML" type="rotate" dur="60s" repeatCount="indefinite" from="96 21267.11 10539.75" to="-264 21267.11 10539.75"/></path>

<g id="_1133357248">
      <g>
       <path class="fil9" d="M25884.39 20495.92c38.8,-71.64 70.72,-107.46 95.87,-107.46 6.67,0 12.11,3.84 16.28,11.43 4.16,7.64 7.52,24.5 10.14,50.66 2.61,27.86 8.48,47.98 17.67,60.37 4.69,6.34 7.04,11.05 7.04,14.09 0,2.71 -1.54,5.23 -4.7,7.52 -3.1,2.29 -6.46,3.41 -9.98,3.41 -8.17,0 -15.32,-4.53 -21.62,-13.66 -6.24,-9.13 -10.25,-25.15 -12.01,-48.1 -1.77,-21.68 -3.68,-35.87 -5.66,-42.55 -1.98,-6.67 -5.23,-10.03 -9.82,-10.03 -10.93,0 -32.98,28.66 -66.13,85.88 -9.93,17.08 -17.24,28.28 -21.94,33.52 -4.69,5.29 -8.97,7.9 -12.81,7.9 -4.59,0 -8.43,-1.33 -11.58,-4.06 -3.1,-2.72 -4.7,-6.03 -4.7,-9.98 0,-2.95 0.86,-8.59 2.51,-16.93 12.86,-66.19 22.95,-131.68 30.37,-196.43 1.65,-15.11 4.33,-25.15 8.06,-30.16 3.68,-5.01 6.78,-7.52 9.29,-7.52 4.48,0 8.53,1.87 12.17,5.5 3.68,3.63 5.5,8.7 5.5,15.16 0,19.22 -4.69,45.52 -14.09,78.99 -4.59,16.55 -9.44,37.63 -14.52,63.15 -5.12,25.57 -7.69,41.37 -7.69,47.4 0,1.23 0.59,1.88 1.7,1.88l0.65 0zm238.49 -110.87c10.73,-0.86 20.87,-1.82 30.32,-3 9.39,-1.01 17.24,-1.54 23.48,-1.54 7.91,0 12.92,0.75 15,2.19 2.09,1.44 3.16,4 3.16,7.69 0,8.43 -5.93,13.02 -17.67,13.72 -15.16,0.96 -29.04,2.24 -41.79,3.95 -12.71,1.65 -19.54,3.04 -20.56,4.11 -0.96,1.12 -4.11,13.51 -9.44,37.2 -5.34,23.76 -8.01,39.13 -8.01,46.23 0,11.48 1.54,19.1 4.54,22.9 3.04,3.84 7.58,5.71 13.61,5.71 8.97,0 21.46,-6.73 37.42,-20.17 6.13,-5.5 10.88,-8.27 14.19,-8.27 4.49,0 6.73,2.4 6.73,7.2 0,7.52 -7.2,17.24 -21.67,29.14 -14.41,11.96 -29.2,17.93 -44.31,17.93 -25.24,0 -37.84,-14.89 -37.84,-44.56 0,-10.73 2.61,-27.39 7.79,-49.91 5.12,-22.41 7.69,-35.87 7.69,-40.35 0,-1.55 -1.28,-2.35 -3.73,-2.35l-16.28 1.44c-13.35,0 -20.01,-5.35 -20.01,-15.97 0,-6.03 3.04,-9.07 9.23,-9.07l32.19 0c2.19,0 4.11,-1.02 5.82,-2.99 1.65,-1.98 4.11,-8.59 7.31,-19.91 3.25,-11.32 6.13,-22.52 8.59,-33.58 2.5,-10.94 7.41,-16.38 14.73,-16.38 4.49,0 7.96,1.54 10.46,4.69 2.51,3.1 3.74,6.03 3.74,8.76 0,1.44 -1.88,8.92 -5.61,22.36l-9.08 32.83zm150.15 0c10.73,-0.86 20.87,-1.82 30.32,-3 9.39,-1.01 17.24,-1.54 23.48,-1.54 7.91,0 12.92,0.75 15,2.19 2.09,1.44 3.16,4 3.16,7.69 0,8.43 -5.93,13.02 -17.67,13.72 -15.16,0.96 -29.04,2.24 -41.79,3.95 -12.71,1.65 -19.54,3.04 -20.56,4.11 -0.96,1.12 -4.11,13.51 -9.44,37.2 -5.34,23.76 -8.01,39.13 -8.01,46.23 0,11.48 1.54,19.1 4.54,22.9 3.04,3.84 7.58,5.71 13.61,5.71 8.97,0 21.46,-6.73 37.42,-20.17 6.13,-5.5 10.88,-8.27 14.19,-8.27 4.49,0 6.73,2.4 6.73,7.2 0,7.52 -7.2,17.24 -21.67,29.14 -14.41,11.96 -29.2,17.93 -44.31,17.93 -25.24,0 -37.84,-14.89 -37.84,-44.56 0,-10.73 2.61,-27.39 7.79,-49.91 5.12,-22.41 7.69,-35.87 7.69,-40.35 0,-1.55 -1.28,-2.35 -3.73,-2.35l-16.28 1.44c-13.35,0 -20.01,-5.35 -20.01,-15.97 0,-6.03 3.04,-9.07 9.23,-9.07l32.19 0c2.19,0 4.11,-1.02 5.82,-2.99 1.65,-1.98 4.11,-8.59 7.31,-19.91 3.25,-11.32 6.13,-22.52 8.59,-33.58 2.5,-10.94 7.41,-16.38 14.73,-16.38 4.49,0 7.96,1.54 10.46,4.69 2.51,3.1 3.74,6.03 3.74,8.76 0,1.44 -1.88,8.92 -5.61,22.36l-9.08 32.83zm116.69 139.64c-5.12,18.79 -9.88,45.1 -14.36,79l-4.38 29.51c-0.75,4.17 -2.66,8.32 -5.82,12.44 -3.1,4.11 -5.97,6.19 -8.59,6.19 -3.25,0 -6.88,-1.65 -11.05,-4.91 -4.11,-3.31 -6.13,-5.93 -6.13,-7.9 0,-5.77 1.28,-13.67 3.89,-23.81 19.05,-77.02 28.61,-144.71 28.61,-202.94l-0.16 -13.13c-0.21,-11.27 1.77,-19.49 5.93,-24.55 4.22,-5.12 8.97,-7.69 14.4,-7.69 2.51,0 4.91,1.97 7.21,5.87 2.29,3.89 3.41,9.44 3.41,16.65 0,10.09 -1.01,22.36 -3.09,36.72 -2.72,18.16 -4.12,28.62 -4.23,31.28 15.53,-27.06 31.98,-48.25 49.38,-63.46 17.4,-15.22 33.58,-22.85 48.52,-22.85 10.52,0 19.38,3.94 26.64,11.79 7.26,7.9 10.88,17.67 10.88,29.36 0,33.94 -13.02,64.85 -39.12,92.55 -26.05,27.76 -51.46,41.59 -76.12,41.59 -6.19,0 -11.06,-1.55 -14.63,-4.65 -3.63,-3.15 -7.36,-8.86 -11.21,-17.08zm97.09 -125.87c-14.68,0 -32.88,13.77 -54.55,41.27 -21.67,27.54 -32.51,48.94 -32.51,64.26 0,3.78 2.14,7.41 6.41,10.93 4.28,3.58 9.66,5.35 16.23,5.35 14.95,0 32.08,-11.06 51.45,-33.1 19.43,-22.05 29.09,-43.67 29.09,-64.96 0,-7.64 -1.54,-13.46 -4.59,-17.61 -3.1,-4.12 -6.94,-6.14 -11.53,-6.14zm158.42 108.19c0,-6.78 -8.32,-14.46 -24.98,-23.11 -21.19,-10.89 -35.5,-19.54 -42.97,-26.04 -7.41,-6.52 -11.16,-13.83 -11.16,-21.84 0,-20.76 10.41,-37.95 31.17,-51.62 20.82,-13.66 37.8,-20.5 50.93,-20.5 8.43,0 14.57,1.49 18.36,4.38 3.79,2.94 5.71,8.01 5.71,15.21 0,3.21 -1.38,5.98 -4.16,8.28 -2.72,2.29 -4.91,3.41 -6.47,3.41 -1.17,0 -3.41,-0.75 -6.73,-2.35 -3.36,-1.43 -5.55,-2.19 -6.56,-2.19 -5.24,0 -15.81,3.84 -31.76,11.43 -15.96,7.64 -23.92,16.23 -23.92,25.83 0,5.82 2.83,11.11 8.43,15.86 5.66,4.75 15.76,10.56 30.32,17.45 11.8,5.61 21.19,11.64 28.23,18.05 7.05,6.41 10.57,13.93 10.57,22.57 0,15.96 -10.99,28.45 -32.98,37.47 -21.99,9.02 -43.02,13.51 -63.04,13.56 -16.87,-0.05 -25.3,-5.77 -25.3,-17.24 0,-3.95 1.87,-6.89 5.71,-8.76 3.79,-1.87 7.64,-2.83 11.48,-2.83 1.55,0 4.54,0.53 8.92,1.6 4.27,1.02 7.1,1.55 8.43,1.55 11.58,0 23.97,-1.93 37.2,-5.77 13.24,-3.89 21.46,-8.71 24.55,-14.41zm81.68 -83.32c-2.61,0 -5.39,-2.45 -8.38,-7.36 -2.99,-4.91 -4.48,-8.97 -4.48,-12.23 0,-1.44 1.65,-5.07 4.96,-10.83 3.26,-5.82 8.43,-8.71 15.53,-8.71 0.75,0 3.41,1.33 8.01,4 4.59,2.67 7.25,4.8 8.11,6.41 0.86,1.6 1.23,4.54 1.23,8.86 0,3.74 -2.14,7.96 -6.41,12.71 -4.28,4.75 -10.47,7.15 -18.58,7.15zm-0.64 115.99c-6.03,0 -10.1,-1.49 -12.12,-4.59 -2.03,-3.1 -3.04,-7.75 -3.04,-13.99 0,-5.12 0.21,-8.91 0.64,-11.42 0.37,-2.51 2.46,-5.12 6.24,-7.9 3.74,-2.77 6.94,-4.17 9.5,-4.17 4.91,0 9.55,1.07 13.93,3.2 4.38,2.14 6.57,5.29 6.57,9.34 0,8.65 -3.26,15.76 -9.76,21.25 -6.52,5.55 -10.52,8.27 -11.95,8.27zm60.36 23.64c-2.61,0 -5.29,-1.39 -8.01,-4.06 -2.66,-2.72 -4.06,-5.45 -4.06,-8.17 0,-1.87 2.56,-8.22 7.75,-19.05 5.17,-10.83 13.35,-24.82 24.55,-42 11.21,-17.14 21.4,-31.81 30.58,-44.04 0.91,-1.23 1.7,-2.35 2.35,-3.42 6.67,-10.83 16.44,-25.62 29.4,-44.4 13.94,-19.91 26.32,-38.8 37.05,-56.64 5.01,-8.22 11.69,-17.82 20.01,-28.82 8.33,-10.99 14.36,-16.5 18,-16.5 2.08,0 4.69,1.88 7.79,5.61 3.15,3.79 4.7,6.78 4.7,9.08 0,4.06 -7.1,15.85 -21.24,35.34 -30.64,41.84 -60.05,83.74 -88.23,125.76 -3.42,5.12 -8.28,12.11 -14.53,21.08 -10.41,15.42 -16.75,25.89 -19.05,31.28 -2.29,5.45 -6.99,13.29 -14.04,23.54 -7.04,10.3 -11.37,15.42 -13.02,15.42zm184.21 0c-2.61,0 -5.29,-1.39 -8.01,-4.06 -2.66,-2.72 -4.06,-5.45 -4.06,-8.17 0,-1.87 2.56,-8.22 7.75,-19.05 5.17,-10.83 13.35,-24.82 24.55,-42 11.21,-17.14 21.4,-31.81 30.58,-44.04 0.91,-1.23 1.7,-2.35 2.35,-3.42 6.67,-10.83 16.44,-25.62 29.4,-44.4 13.94,-19.91 26.32,-38.8 37.05,-56.64 5.01,-8.22 11.69,-17.82 20.01,-28.82 8.33,-10.99 14.36,-16.5 18,-16.5 2.08,0 4.69,1.88 7.79,5.61 3.15,3.79 4.7,6.78 4.7,9.08 0,4.06 -7.1,15.85 -21.24,35.34 -30.64,41.84 -60.05,83.74 -88.23,125.76 -3.42,5.12 -8.28,12.11 -14.53,21.08 -10.41,15.42 -16.75,25.89 -19.05,31.28 -2.29,5.45 -6.99,13.29 -14.04,23.54 -7.04,10.3 -11.37,15.42 -13.02,15.42zm303.03 -71.48c-0.47,-0.21 -1.87,0.91 -4.06,3.42 -14.57,16.17 -28.5,28.34 -41.74,36.52 -13.23,8.22 -25.83,12.28 -37.85,12.28 -9.6,0 -17.24,-4 -23,-12.12 -5.71,-8.06 -8.59,-18.36 -8.59,-30.85 0,-28.4 13.02,-58.07 39.13,-89.09 26.04,-31.01 52.36,-46.49 78.94,-46.49 9.82,0 16.07,5.61 18.79,16.87 0.91,3.37 2.94,5.29 6.08,5.82 9.71,2.24 14.52,7.58 14.52,15.91 0,5.98 -2.45,18.73 -7.31,38.32 -3.47,13.67 -8.7,39.29 -15.8,76.97 -7.1,37.63 -10.89,65.55 -11.43,83.8 -0.42,12.06 -0.8,20.29 -1.12,24.55 -0.31,4.27 -2.08,7.64 -5.39,10.14 -3.26,2.51 -7.2,3.79 -11.8,3.79 -4.37,0 -7.79,-1.7 -10.3,-5.12 -2.51,-3.36 -3.79,-7.64 -3.79,-12.7 0,-3.26 1.71,-14.3 5.02,-33.26 3.36,-18.89 6.94,-36.88 10.78,-53.85 4.48,-20.56 7.47,-35.5 8.91,-44.9zm12.06 -74.89c0,-16.28 -6.18,-24.39 -18.62,-24.39 -15.22,0 -32.83,12.44 -52.85,37.41 -20.02,24.99 -30.05,47.88 -30.05,68.75 0,12.81 4.27,19.22 12.7,19.22 15.75,0 34.48,-11.69 56.21,-35.12 21.73,-23.38 32.61,-45.37 32.61,-65.87zm169.32 68.97c-14.58,19.59 -29.04,34.27 -43.29,44.09 -14.3,9.76 -27.39,14.68 -39.29,14.68 -8,0 -14.94,-3.36 -20.76,-10.14 -5.87,-6.78 -8.76,-15.48 -8.76,-26.16 0,-27.39 12.23,-56.9 36.73,-88.55 24.5,-31.65 48.84,-47.45 73.02,-47.45 8.76,0 15.26,4.96 19.59,15 1.33,3.31 3.47,5.01 6.41,5.01 8.32,0 12.49,3.21 12.49,9.66 0,3.26 -0.53,7.69 -1.54,13.28 -5.66,30.75 -8.44,52.47 -8.44,65.07 0,25.25 4.75,40.36 14.36,45.37 4.59,2.51 6.89,5.55 6.89,9.18 0,3.26 -2.25,6.52 -6.73,9.82 -4.49,3.26 -8.81,4.91 -12.97,4.91 -8.06,0 -14.68,-5.56 -19.86,-16.6 -5.23,-11.05 -7.84,-26.8 -7.84,-47.19zm-9.5 -88.07c-13.78,0 -29.79,12.91 -48.04,38.69 -18.26,25.83 -27.39,47.24 -27.39,64.21 0,11.95 4,17.99 11.91,17.99 11.47,0 27.38,-11.58 47.71,-34.74 20.34,-23.12 30.48,-44.41 30.48,-63.79 0,-14.89 -4.91,-22.36 -14.68,-22.36zm146.79 -119.78c7.52,0 11.26,4.81 11.26,14.41 0,8.54 -4.54,28.88 -13.61,60.96 -5.71,20.23 -10.15,42.55 -13.29,66.94 -3.15,24.39 -4.69,43.51 -4.69,57.38 0,17.19 1.12,34.33 3.31,51.3 0.42,3.26 0.59,5.6 0.59,7.04 0,5.24 -1.77,9.71 -5.29,13.46 -3.58,3.73 -7.31,5.6 -11.27,5.6 -5.55,0 -9.34,-3.41 -11.47,-10.3 -2.14,-6.89 -3.21,-17.99 -3.21,-33.31 0,-34.91 4.17,-78.19 12.55,-129.81 8.43,-51.57 15.1,-81.78 20.01,-90.53 4.96,-8.76 9.99,-13.13 15.11,-13.13zm67.1 246.61c-5.12,18.79 -9.88,45.1 -14.36,79l-4.38 29.51c-0.75,4.17 -2.66,8.32 -5.82,12.44 -3.1,4.11 -5.97,6.19 -8.59,6.19 -3.25,0 -6.88,-1.65 -11.05,-4.91 -4.11,-3.31 -6.13,-5.93 -6.13,-7.9 0,-5.77 1.28,-13.67 3.89,-23.81 19.05,-77.02 28.61,-144.71 28.61,-202.94l-0.16 -13.13c-0.21,-11.27 1.77,-19.49 5.93,-24.55 4.22,-5.12 8.97,-7.69 14.4,-7.69 2.51,0 4.91,1.97 7.21,5.87 2.29,3.89 3.41,9.44 3.41,16.65 0,10.09 -1.01,22.36 -3.09,36.72 -2.72,18.16 -4.12,28.62 -4.23,31.28 15.53,-27.06 31.98,-48.25 49.38,-63.46 17.4,-15.22 33.58,-22.85 48.52,-22.85 10.52,0 19.38,3.94 26.64,11.79 7.26,7.9 10.88,17.67 10.88,29.36 0,33.94 -13.02,64.85 -39.12,92.55 -26.05,27.76 -51.46,41.59 -76.12,41.59 -6.19,0 -11.06,-1.55 -14.63,-4.65 -3.63,-3.15 -7.36,-8.86 -11.21,-17.08zm97.09 -125.87c-14.68,0 -32.88,13.77 -54.55,41.27 -21.67,27.54 -32.51,48.94 -32.51,64.26 0,3.78 2.14,7.41 6.41,10.93 4.28,3.58 9.66,5.35 16.23,5.35 14.95,0 32.08,-11.06 51.45,-33.1 19.43,-22.05 29.09,-43.67 29.09,-64.96 0,-7.64 -1.54,-13.46 -4.59,-17.61 -3.1,-4.12 -6.94,-6.14 -11.53,-6.14zm185.17 87.11c-14.58,19.59 -29.04,34.27 -43.29,44.09 -14.3,9.76 -27.39,14.68 -39.29,14.68 -8,0 -14.94,-3.36 -20.76,-10.14 -5.87,-6.78 -8.76,-15.48 -8.76,-26.16 0,-27.39 12.23,-56.9 36.73,-88.55 24.5,-31.65 48.84,-47.45 73.02,-47.45 8.76,0 15.26,4.96 19.59,15 1.33,3.31 3.47,5.01 6.41,5.01 8.32,0 12.49,3.21 12.49,9.66 0,3.26 -0.53,7.69 -1.54,13.28 -5.66,30.75 -8.44,52.47 -8.44,65.07 0,25.25 4.75,40.36 14.36,45.37 4.59,2.51 6.89,5.55 6.89,9.18 0,3.26 -2.25,6.52 -6.73,9.82 -4.49,3.26 -8.81,4.91 -12.97,4.91 -8.06,0 -14.68,-5.56 -19.86,-16.6 -5.23,-11.05 -7.84,-26.8 -7.84,-47.19zm-9.5 -88.07c-13.78,0 -29.79,12.91 -48.04,38.69 -18.26,25.83 -27.39,47.24 -27.39,64.21 0,11.95 4,17.99 11.91,17.99 11.47,0 27.38,-11.58 47.71,-34.74 20.34,-23.12 30.48,-44.41 30.48,-63.79 0,-14.89 -4.91,-22.36 -14.68,-22.36zm198.56 24.71c-5.45,0 -11.37,3.52 -17.77,10.62 -6.41,7.1 -16.18,23.01 -29.31,47.72 -17.29,33.15 -28.5,51.99 -33.52,56.58 -5.06,4.59 -9.29,6.88 -12.6,6.88 -12.33,0 -18.47,-5.92 -18.47,-17.82 0,-4.96 0.86,-12.06 2.51,-21.24 5.71,-31.49 8.59,-64.7 8.59,-99.6 0,-4 1.7,-8.38 5.07,-13.24 3.42,-4.85 6.62,-7.25 9.6,-7.25 5.45,0 9.29,1.65 11.59,5.01 2.29,3.31 3.47,10.04 3.47,20.17 0,10.52 -3.16,32.19 -9.4,65.02 -2.08,10.83 -3.15,17.71 -3.15,20.65 0,1.66 0.42,2.51 1.28,2.51 1.55,0 8.81,-12.49 21.73,-37.36 13.02,-25.36 24.44,-43.18 34.22,-53.48 9.81,-10.36 20.6,-15.48 32.4,-15.48 9.39,0 17.03,4.28 22.9,12.81 5.87,8.54 10.2,24.13 12.91,46.76 2.95,25.72 5.56,41.79 7.91,48.09 2.34,6.3 6.08,9.45 11.16,9.45 3.25,0 7.31,-1.12 12.22,-3.42 0.81,-0.42 1.44,-0.64 1.88,-0.64 4.48,0 6.72,2.61 6.72,7.8 0,4.59 -3.1,9.49 -9.23,14.62 -6.14,5.18 -13.56,7.75 -22.2,7.75 -8.87,0 -15.7,-3.53 -20.56,-10.52 -4.85,-7.04 -8.7,-25.83 -11.53,-56.42 -2.87,-30.63 -9.02,-45.96 -18.41,-45.96zm128.43 77.08l3.42 0c1.87,0 4.11,0.91 6.72,2.77 2.62,1.82 3.9,4.28 3.9,7.42 0,6.24 -1.07,10.83 -3.26,13.77 -2.19,2.88 -5.71,6.14 -10.57,9.66 -4.86,3.57 -8.27,5.34 -10.25,5.34 -4.38,0 -7.64,-1.02 -9.71,-2.99 -2.08,-1.98 -3.1,-7.37 -3.1,-16.28 0,-8.22 0.48,-13.13 1.39,-14.69 0.96,-1.54 3.2,-2.77 6.83,-3.68 3.57,-0.85 8.43,-1.33 14.63,-1.33zm168.4 -13.45c-1.23,-0.91 -4.75,2.03 -10.46,8.75 -9.5,11.16 -21.62,21.09 -36.35,29.74 -14.79,8.64 -28.45,12.97 -41.04,12.97 -9.4,0 -16.76,-2.94 -22.1,-8.81 -5.29,-5.93 -7.95,-14.04 -7.95,-24.5 0,-16.12 6.08,-34.16 18.31,-54.02 12.17,-19.86 29.24,-37.21 51.18,-52 21.94,-14.78 41.16,-22.2 57.65,-22.2 8.65,0 16.28,2.51 22.85,7.52 1.55,1.23 2.88,2.24 4.06,3.1 1.87,1.39 3.63,4.12 5.29,8.22 1.7,4.12 2.51,7.42 2.51,9.93 0,1.55 -0.59,3.95 -1.7,7.21 -6.35,17.29 -10.68,31.65 -12.97,42.96 -2.3,11.38 -4.81,30.53 -7.52,57.44 -2.51,24.18 -5.18,42.76 -8.12,55.83 -2.94,13.03 -8.16,25.62 -15.8,37.8 -7.64,12.23 -16.76,21.35 -27.39,27.49 -10.62,6.08 -21.57,9.13 -32.82,9.13 -19.49,0 -38.75,-6.73 -57.7,-20.17 -18.95,-13.46 -28.46,-24.24 -28.46,-32.35 0,-5.12 1.93,-7.69 5.77,-7.69 1.87,0 7.46,3.1 16.75,9.23 24.5,16.39 46.55,24.56 66.14,24.56 17.08,0 30.1,-9.13 39.02,-27.39 8.91,-18.26 15,-45.47 18.2,-81.78 0.75,-8.22 1.6,-15.21 2.67,-20.97zm-0.32 -85.83c-8.86,0 -19.91,4.59 -33.2,13.77 -13.29,9.18 -26.22,22.63 -38.75,40.35 -12.49,17.72 -18.73,32.56 -18.73,44.57 0,4.06 1.28,7.25 3.84,9.6 2.56,2.35 5.39,3.53 8.48,3.53 9.29,0 21.4,-4.81 36.35,-14.41 14.99,-9.55 27.86,-22.9 38.64,-39.92 10.78,-17.09 16.17,-30.43 16.17,-40.15 0,-11.58 -4.27,-17.34 -12.81,-17.34zm124 -66.94c-2.19,0 -3.84,-2.35 -5.02,-7.05 -0.42,-1.44 -0.96,-3.04 -1.7,-4.85 -2.82,-6.73 -4.22,-12.65 -4.22,-17.67 0,-4.17 2.45,-8.38 7.42,-12.7 4.96,-4.33 10.46,-6.52 16.49,-6.52 3.04,0 6.41,1.18 10.19,3.52 3.74,2.35 5.61,4.6 5.61,6.78 0,3.47 -1.28,9.29 -3.84,17.56 -2.56,8.22 -6.62,13.78 -12.17,16.65 -5.61,2.83 -9.82,4.28 -12.76,4.28zm-20.5 174.7c0,7.91 1.12,16.82 3.31,26.75 0.42,1.87 0.59,3.41 0.59,4.64 0,1.92 -1.7,4.33 -5.12,7.31 -3.47,2.94 -7.1,4.43 -10.94,4.43 -10.14,0 -15.16,-9.29 -15.16,-27.81 0,-19.22 3.95,-49.54 11.85,-91.01 2.72,-14.53 4.06,-23.43 4.06,-26.74 0,-6.57 1.23,-12.18 3.63,-16.82 2.4,-4.65 5.77,-6.99 10.15,-6.99 5.34,0 9.5,1.28 12.59,3.84 3.1,2.56 4.6,5.39 4.6,8.53 0,3.1 -0.7,7.26 -2.19,12.34 -7.8,27.54 -12.66,47.24 -14.53,59.14 -1.87,11.85 -2.82,25.99 -2.82,42.38zm126.34 -123.08c10.73,-0.86 20.87,-1.82 30.32,-3 9.39,-1.01 17.24,-1.54 23.48,-1.54 7.91,0 12.92,0.75 15,2.19 2.09,1.44 3.16,4 3.16,7.69 0,8.43 -5.93,13.02 -17.67,13.72 -15.16,0.96 -29.04,2.24 -41.79,3.95 -12.71,1.65 -19.54,3.04 -20.56,4.11 -0.96,1.12 -4.11,13.51 -9.44,37.2 -5.34,23.76 -8.01,39.13 -8.01,46.23 0,11.48 1.54,19.1 4.54,22.9 3.04,3.84 7.58,5.71 13.61,5.71 8.97,0 21.46,-6.73 37.42,-20.17 6.13,-5.5 10.88,-8.27 14.19,-8.27 4.49,0 6.73,2.4 6.73,7.2 0,7.52 -7.2,17.24 -21.67,29.14 -14.41,11.96 -29.2,17.93 -44.31,17.93 -25.24,0 -37.84,-14.89 -37.84,-44.56 0,-10.73 2.61,-27.39 7.79,-49.91 5.12,-22.41 7.69,-35.87 7.69,-40.35 0,-1.55 -1.28,-2.35 -3.73,-2.35l-16.28 1.44c-13.35,0 -20.01,-5.35 -20.01,-15.97 0,-6.03 3.04,-9.07 9.23,-9.07l32.19 0c2.19,0 4.11,-1.02 5.82,-2.99 1.65,-1.98 4.11,-8.59 7.31,-19.91 3.25,-11.32 6.13,-22.52 8.59,-33.58 2.5,-10.94 7.41,-16.38 14.73,-16.38 4.49,0 7.96,1.54 10.46,4.69 2.51,3.1 3.74,6.03 3.74,8.76 0,1.44 -1.88,8.92 -5.61,22.36l-9.08 32.83zm112.15 110.87c38.8,-71.64 70.72,-107.46 95.87,-107.46 6.67,0 12.11,3.84 16.28,11.43 4.16,7.64 7.52,24.5 10.14,50.66 2.61,27.86 8.48,47.98 17.67,60.37 4.69,6.34 7.04,11.05 7.04,14.09 0,2.71 -1.54,5.23 -4.7,7.52 -3.1,2.29 -6.46,3.41 -9.98,3.41 -8.17,0 -15.32,-4.53 -21.62,-13.66 -6.24,-9.13 -10.25,-25.15 -12.01,-48.1 -1.77,-21.68 -3.68,-35.87 -5.66,-42.55 -1.98,-6.67 -5.23,-10.03 -9.82,-10.03 -10.93,0 -32.98,28.66 -66.13,85.88 -9.93,17.08 -17.24,28.28 -21.94,33.52 -4.69,5.29 -8.97,7.9 -12.81,7.9 -4.59,0 -8.43,-1.33 -11.58,-4.06 -3.1,-2.72 -4.7,-6.03 -4.7,-9.98 0,-2.95 0.86,-8.59 2.51,-16.93 12.86,-66.19 22.95,-131.68 30.37,-196.43 1.65,-15.11 4.33,-25.15 8.06,-30.16 3.68,-5.01 6.78,-7.52 9.29,-7.52 4.48,0 8.53,1.87 12.17,5.5 3.68,3.63 5.5,8.7 5.5,15.16 0,19.22 -4.69,45.52 -14.09,78.99 -4.59,16.55 -9.44,37.63 -14.52,63.15 -5.12,25.57 -7.69,41.37 -7.69,47.4 0,1.23 0.59,1.88 1.7,1.88l0.65 0zm285.25 -21.09c-13.35,22.37 -27.01,39.77 -40.99,52.05 -13.93,12.33 -26.9,18.47 -38.92,18.47 -6.88,0 -13.88,-4 -21.03,-12.06 -7.15,-8.01 -10.72,-20.4 -10.72,-37.05 0,-13.66 3.31,-33.78 9.88,-60.37 5.5,-22.2 8.27,-37.79 8.27,-46.75 3.05,-6.24 7.8,-9.39 14.25,-9.39 4.38,0 7.85,1.54 10.46,4.64 2.61,3.05 3.89,6.24 3.89,9.61 0,7.3 -2.56,17.66 -7.63,31.12 -9.72,26.15 -14.58,48.62 -14.58,67.41 0,17.08 3.95,25.62 11.9,25.62 10.09,0 23.01,-8.59 38.59,-25.78 15.63,-17.24 29.04,-41.21 40.19,-71.95 4.38,-12.28 7.96,-20.29 10.73,-24.02 2.77,-3.68 6.52,-5.56 11.21,-5.56 7.05,0 10.62,4.7 10.62,14.09 0,1.12 -1.01,4.96 -2.99,11.43 -6.24,22.85 -9.39,44.4 -9.39,64.75 0,24.39 4.06,40.19 12.06,47.34 4.16,3.9 6.24,6.99 6.24,9.4 0,2.94 -2.09,5.6 -6.35,8 -4.22,2.4 -8.01,3.58 -11.48,3.58 -7.31,0 -13.18,-5.45 -17.66,-16.28 -4.49,-10.83 -6.73,-26.85 -6.73,-47.98l0 -5.18c0,-1.65 0.05,-3.36 0.16,-5.12z"/>
       <path class="fil9" d="M29168.23 20453.86c13.35,-24.29 29.3,-43.99 47.82,-59.04 18.58,-15.05 35.28,-22.57 50.23,-22.57 8.22,0 15.21,3.79 20.92,11.42 5.77,7.59 8.59,16.87 8.59,27.81 0,32.4 -12.23,62.82 -36.67,91.28 -24.45,28.4 -50.23,42.6 -77.45,42.6 -7.42,0 -14.2,-2.03 -20.45,-6.03 -6.19,-4 -9.66,-9.03 -10.36,-15.11 -0.42,-4.85 -1.87,-8.53 -4.22,-10.94 -4.48,-4.48 -6.72,-9.28 -6.72,-14.35 0,-9.5 2.56,-29.79 7.79,-60.86l16.12 -93.52c5.5,-31.38 9.55,-50.76 12.11,-58.17 2.56,-7.37 5.4,-12.34 8.54,-14.85 3.1,-2.5 6.94,-3.73 11.53,-3.73 7.31,0 10.94,6.29 10.94,18.89 0,12.01 -4,28.77 -12.01,50.4 -7.74,20.71 -16.65,59.68 -26.74,116.79zm-3.79 52.09c5.45,10.1 12.01,15.16 19.75,15.16 11.85,0 24.45,-4.96 37.69,-14.79 13.24,-9.87 24.66,-23.69 34.33,-41.58 9.6,-17.87 14.46,-32.98 14.46,-45.31 0,-5.5 -1.02,-10.25 -3,-14.2 -1.97,-3.95 -4.48,-5.98 -7.52,-5.98 -14.46,0 -32.19,11.9 -53.06,35.61 -20.92,23.69 -35.11,47.4 -42.65,71.09zm184.11 -6.29l3.42 0c1.87,0 4.11,0.91 6.72,2.77 2.62,1.82 3.9,4.28 3.9,7.42 0,6.24 -1.07,10.83 -3.26,13.77 -2.19,2.88 -5.71,6.14 -10.57,9.66 -4.86,3.57 -8.27,5.34 -10.25,5.34 -4.38,0 -7.64,-1.02 -9.71,-2.99 -2.08,-1.98 -3.1,-7.37 -3.1,-16.28 0,-8.22 0.48,-13.13 1.39,-14.69 0.96,-1.54 3.2,-2.77 6.83,-3.68 3.57,-0.85 8.43,-1.33 14.63,-1.33zm108.19 -166.21c-2.19,0 -3.84,-2.35 -5.02,-7.05 -0.42,-1.44 -0.96,-3.04 -1.7,-4.85 -2.82,-6.73 -4.22,-12.65 -4.22,-17.67 0,-4.17 2.45,-8.38 7.42,-12.7 4.96,-4.33 10.46,-6.52 16.49,-6.52 3.04,0 6.41,1.18 10.19,3.52 3.74,2.35 5.61,4.6 5.61,6.78 0,3.47 -1.28,9.29 -3.84,17.56 -2.56,8.22 -6.62,13.78 -12.17,16.65 -5.61,2.83 -9.82,4.28 -12.76,4.28zm-20.5 174.7c0,7.91 1.12,16.82 3.31,26.75 0.42,1.87 0.59,3.41 0.59,4.64 0,1.92 -1.7,4.33 -5.12,7.31 -3.47,2.94 -7.1,4.43 -10.94,4.43 -10.14,0 -15.16,-9.29 -15.16,-27.81 0,-19.22 3.95,-49.54 11.85,-91.01 2.72,-14.53 4.06,-23.43 4.06,-26.74 0,-6.57 1.23,-12.18 3.63,-16.82 2.4,-4.65 5.77,-6.99 10.15,-6.99 5.34,0 9.5,1.28 12.59,3.84 3.1,2.56 4.6,5.39 4.6,8.53 0,3.1 -0.7,7.26 -2.19,12.34 -7.8,27.54 -12.66,47.24 -14.53,59.14 -1.87,11.85 -2.82,25.99 -2.82,42.38zm108.36 42.5c-14.25,0 -26.04,-5.4 -35.34,-16.23 -9.29,-10.83 -13.93,-24.24 -13.93,-40.2 0,-26.9 9.08,-53.43 27.16,-79.53 18.05,-26.11 39.71,-39.18 64.96,-39.18 16.65,0 30.21,6.41 40.57,19.27 10.36,12.81 15.58,28.07 15.58,45.8 0,27.11 -10.72,52.2 -32.13,75.37 -21.47,23.17 -43.72,34.7 -66.89,34.7zm-21.73 -60.48c0,10.52 2.19,19.12 6.63,25.78 4.43,6.67 10.3,10.04 17.61,10.04 15.53,0 31.12,-8.54 46.75,-25.57 15.65,-17.08 23.43,-36.03 23.43,-56.85 0,-12.86 -2.99,-23.21 -8.97,-31.22 -5.97,-7.96 -14.03,-11.95 -24.18,-11.95 -16.75,0 -31.17,10.3 -43.23,30.9 -12.01,20.56 -18.05,40.2 -18.05,58.88zm145.94 73.18c-2.61,0 -5.29,-1.39 -8.01,-4.06 -2.66,-2.72 -4.06,-5.45 -4.06,-8.17 0,-1.87 2.56,-8.22 7.75,-19.05 5.17,-10.83 13.35,-24.82 24.55,-42 11.21,-17.14 21.4,-31.81 30.58,-44.04 0.91,-1.23 1.7,-2.35 2.35,-3.42 6.67,-10.83 16.44,-25.62 29.4,-44.4 13.94,-19.91 26.32,-38.8 37.05,-56.64 5.01,-8.22 11.69,-17.82 20.01,-28.82 8.33,-10.99 14.36,-16.5 18,-16.5 2.08,0 4.69,1.88 7.79,5.61 3.15,3.79 4.7,6.78 4.7,9.08 0,4.06 -7.1,15.85 -21.24,35.34 -30.64,41.84 -60.05,83.74 -88.23,125.76 -3.42,5.12 -8.28,12.11 -14.53,21.08 -10.41,15.42 -16.75,25.89 -19.05,31.28 -2.29,5.45 -6.99,13.29 -14.04,23.54 -7.04,10.3 -11.37,15.42 -13.02,15.42zm225.79 -93.52c1.34,-1.77 10.68,-10.2 27.97,-25.2 16.39,-14.25 27.81,-24.65 34.28,-31.12 24.07,-24.07 41.37,-36.13 51.93,-36.13 8.12,0 12.18,3.94 12.18,11.74 0,8.86 -4,15.37 -12.01,19.54 -10.46,5.34 -24.34,14.14 -41.79,26.53 -17.4,12.33 -26.11,21.08 -26.11,26.21 0,2.08 6.14,9.88 18.47,23.38 12.28,13.5 22.96,23.43 31.87,29.84 8.97,6.41 17.72,9.6 26.16,9.6l5.12 -0.16c3.68,-0.21 5.5,1.44 5.5,4.86 0,4.59 -2.88,9.29 -8.59,13.98 -5.76,4.75 -13.28,7.15 -22.69,7.15 -6.03,0 -12.17,-2.13 -18.36,-6.34 -6.19,-4.22 -17.24,-15.59 -33.1,-34.16 -12.6,-15.32 -20.5,-24.5 -23.59,-27.44 -3.15,-2.99 -5.76,-4.48 -7.85,-4.48 -1.12,0 -4.8,2.71 -10.93,8.16 -6.14,5.4 -9.5,9.5 -10.1,12.34 -0.53,2.82 -0.85,13.56 -0.85,32.24l0 7.31c0,3.89 -1.82,7.31 -5.45,10.35 -3.68,3 -7.64,4.54 -11.9,4.54 -4.38,0 -7.8,-1.28 -10.3,-3.84 -2.51,-2.56 -3.79,-5.17 -3.79,-7.9 0,-3.74 1.44,-12.6 4.22,-26.58 4,-20.12 7.64,-47.09 10.94,-80.87 7.74,-79.75 13.66,-124.85 17.82,-135.32 4.22,-10.51 10.15,-15.75 17.83,-15.75 2.71,0 5.01,1.44 6.83,4.38 1.82,2.94 2.72,6.68 2.72,11.27 0,8.32 -3.58,30.47 -10.78,66.45 -7.2,36.08 -12.39,71.2 -15.65,105.42zm204.71 80.82c-14.25,0 -26.04,-5.4 -35.34,-16.23 -9.29,-10.83 -13.93,-24.24 -13.93,-40.2 0,-26.9 9.08,-53.43 27.16,-79.53 18.05,-26.11 39.71,-39.18 64.96,-39.18 16.65,0 30.21,6.41 40.57,19.27 10.36,12.81 15.58,28.07 15.58,45.8 0,27.11 -10.72,52.2 -32.13,75.37 -21.47,23.17 -43.72,34.7 -66.89,34.7zm-21.73 -60.48c0,10.52 2.19,19.12 6.63,25.78 4.43,6.67 10.3,10.04 17.61,10.04 15.53,0 31.12,-8.54 46.75,-25.57 15.65,-17.08 23.43,-36.03 23.43,-56.85 0,-12.86 -2.99,-23.21 -8.97,-31.22 -5.97,-7.96 -14.03,-11.95 -24.18,-11.95 -16.75,0 -31.17,10.3 -43.23,30.9 -12.01,20.56 -18.05,40.2 -18.05,58.88zm188.75 -9.39c1.07,-1.87 2.3,-4.49 3.79,-7.85 7.1,-16.23 13.61,-28.98 19.54,-38.22 5.92,-9.23 12.49,-18.05 19.64,-26.48 7.1,-8.48 13.67,-14.89 19.54,-19.27 5.87,-4.38 11.21,-7.41 16.01,-9.13 4.8,-1.7 9.45,-2.61 13.93,-2.61 9.08,0 16.44,2.77 22.21,8.22 5.71,5.5 8.59,11.85 8.59,19.17 0,3.25 -1.02,6.13 -3.05,8.75 -2.03,2.62 -5.12,3.9 -9.29,3.9 -4.38,0 -8.43,-1.93 -12.06,-5.77 -3.73,-3.84 -7.69,-5.76 -11.74,-5.76 -10.83,0 -25.83,13.12 -45,39.39 -19.22,26.26 -30.91,55.2 -35.06,86.79 -1.02,8.12 -3,13.51 -5.93,16.12 -2.94,2.56 -7.04,3.9 -12.33,3.9 -5.12,0 -8.81,-3.79 -11.11,-11.43 -2.29,-7.64 -3.47,-20.45 -3.47,-38.48 0,-4.86 0.27,-15.7 0.81,-32.35 0.59,-19.7 1.87,-35.6 3.73,-47.72 0.32,-1.97 0.86,-6.62 1.55,-13.87 0.75,-8.07 1.65,-13.62 2.77,-16.76 1.07,-3.1 3.31,-6.03 6.72,-8.76 3.37,-2.72 7.05,-4.06 11,-4.06 3.84,0 6.78,1.23 8.7,3.68 1.93,2.45 2.88,5.07 2.88,7.9 0,4.06 -1.07,9.77 -3.15,17.19 -2.41,8.22 -3.79,13.93 -4.22,17.03 -0.32,3.58 -0.86,7.26 -1.71,11.11 -1.07,4.48 -2.08,16.28 -3.15,35.34l-0.16 5.82 0 4.22zm252.74 -61.6c-9.71,0.21 -30.48,28.93 -62.24,86.15 -10.78,19.27 -17.03,29.79 -18.79,31.49 -1.76,1.7 -5.01,3.26 -9.76,4.64 -4.75,1.34 -8.71,2.04 -11.8,2.04 -6.99,0 -10.51,-13.62 -10.51,-40.84 0,-15.31 3.31,-43.07 9.88,-83.21 2.72,-16.23 4.06,-27.87 4.06,-34.86 0,-6.88 3.1,-10.3 9.23,-10.3 11.59,0 17.35,8.32 17.35,24.98 0,7.85 -1.92,23.17 -5.76,46.02 -4.49,26.04 -6.78,41.9 -6.89,47.5 6.46,-6.24 15.96,-19.96 28.46,-41.09 17.71,-28.99 30.8,-47.35 39.18,-55.14 8.37,-7.75 17.08,-11.64 26.04,-11.64 6.78,0 12.18,4.54 16.17,13.61 4,9.08 6.47,30.69 7.26,64.91 0.21,8.54 1.02,14.89 2.35,19.05 1.38,4.17 2.35,6.24 2.99,6.24 4.91,0 15.53,-16.65 31.93,-50.01 8.75,-17.61 17.24,-31.02 25.56,-40.2 8.28,-9.18 17.46,-13.77 27.6,-13.77 8.43,0 14.58,4.38 18.42,13.08 3.89,8.7 6.62,21.56 8.32,38.69 1.55,17.29 3.95,33.15 7.26,47.51 3.26,14.4 9.29,23.64 18.05,27.7 5.97,2.82 8.91,6.08 8.91,9.88 0,3.63 -2.5,7.36 -7.47,11.21 -5.01,3.89 -9.6,5.82 -13.77,5.82 -8.38,0 -15.8,-5.12 -22.36,-15.32 -6.57,-10.25 -11.53,-32.35 -14.84,-66.29 -1.49,-13.67 -2.88,-23.38 -4.27,-29.09 -1.34,-5.76 -3.47,-8.64 -6.41,-8.64 -4.38,0 -9.56,4.22 -15.53,12.54 -6.03,8.33 -15.7,25.31 -29.04,50.82 -10.41,19.91 -18.31,33.2 -23.7,39.82 -5.34,6.62 -10.51,9.93 -15.52,9.93 -4.49,0 -8.49,-1.82 -12.06,-5.4 -3.53,-3.62 -5.77,-7.95 -6.73,-13.02 -0.91,-5.01 -1.93,-17.45 -2.94,-37.25 -1.6,-32.93 -4.43,-52.15 -8.59,-57.55zm344.93 70.67c0,10.62 -9.39,23.43 -28.18,38.49 -18.84,15 -38.27,22.46 -58.29,22.46 -16.75,0 -29.73,-4.9 -38.86,-14.84 -9.13,-9.88 -13.67,-23.69 -13.67,-41.42 0,-29.84 10.04,-58.18 30.16,-85.08 20.12,-26.9 42.17,-40.35 66.03,-40.35 7.8,0 14.2,2.56 19.17,7.69 4.91,5.06 7.41,11.26 7.41,18.41 0,16.07 -7.9,31.44 -23.64,46.18 -15.75,14.68 -36.78,29.14 -63.15,43.28 -5.45,2.83 -8.11,6.46 -8.11,10.94 0,8.64 2.45,15.58 7.47,20.82 5.01,5.23 12.44,7.79 22.2,7.79 22.41,0 45.32,-12.38 68.64,-37.2 3.47,-3.42 6.08,-5.17 7.85,-5.17 3.31,0 4.96,2.66 4.96,8zm-108.68 -24.39c44.25,-26.26 66.35,-47.4 66.35,-63.36 0,-6.24 -2.83,-9.39 -8.49,-9.39 -9.55,0 -20.39,7.04 -32.45,21.13 -12.01,14.09 -20.5,31.28 -25.41,51.62zm130.13 97.9c-2.61,0 -5.29,-1.39 -8.01,-4.06 -2.66,-2.72 -4.06,-5.45 -4.06,-8.17 0,-1.87 2.56,-8.22 7.75,-19.05 5.17,-10.83 13.35,-24.82 24.55,-42 11.21,-17.14 21.4,-31.81 30.58,-44.04 0.91,-1.23 1.7,-2.35 2.35,-3.42 6.67,-10.83 16.44,-25.62 29.4,-44.4 13.94,-19.91 26.32,-38.8 37.05,-56.64 5.01,-8.22 11.69,-17.82 20.01,-28.82 8.33,-10.99 14.36,-16.5 18,-16.5 2.08,0 4.69,1.88 7.79,5.61 3.15,3.79 4.7,6.78 4.7,9.08 0,4.06 -7.1,15.85 -21.24,35.34 -30.64,41.84 -60.05,83.74 -88.23,125.76 -3.42,5.12 -8.28,12.11 -14.53,21.08 -10.41,15.42 -16.75,25.89 -19.05,31.28 -2.29,5.45 -6.99,13.29 -14.04,23.54 -7.04,10.3 -11.37,15.42 -13.02,15.42zm-2690.68 -1770.83c-22.17,0 -40.52,-8.39 -54.96,-25.25 -14.44,-16.86 -21.67,-37.7 -21.67,-62.52 0,-41.85 14.11,-83.12 42.25,-123.72 28.07,-40.6 61.78,-60.95 101.05,-60.95 25.9,0 47,9.97 63.1,29.98 16.11,19.92 24.25,43.68 24.25,71.23 0,42.18 -16.69,81.21 -49.99,117.24 -33.38,36.04 -68,53.98 -104.04,53.98zm-33.79 -94.07c0,16.35 3.4,29.72 10.3,40.1 6.89,10.38 16.02,15.61 27.4,15.61 24.16,0 48.41,-13.28 72.74,-39.77 24.33,-26.57 36.45,-56.04 36.45,-88.43 0,-20 -4.65,-36.11 -13.95,-48.57 -9.3,-12.38 -21.84,-18.6 -37.61,-18.6 -26.08,0 -48.49,16.03 -67.26,48.07 -18.68,31.97 -28.06,62.52 -28.06,91.59zm410.17 -105.13c-8.46,0 -17.68,5.49 -27.65,16.52 -9.97,11.05 -25.16,35.79 -45.58,74.23 -26.9,51.57 -44.34,80.88 -52.14,88.02 -7.89,7.14 -14.45,10.71 -19.6,10.71 -19.19,0 -28.73,-9.22 -28.73,-27.74 0,-7.72 1.33,-18.76 3.9,-33.05 8.88,-48.98 13.37,-100.63 13.37,-154.94 0,-6.22 2.65,-13.03 7.89,-20.59 5.32,-7.56 10.3,-11.3 14.95,-11.3 8.46,0 14.44,2.58 18.02,7.81 3.57,5.14 5.4,15.61 5.4,31.39 0,16.35 -4.9,50.06 -14.62,101.13 -3.24,16.86 -4.89,27.56 -4.89,32.13 0,2.57 0.66,3.9 1.99,3.9 2.41,0 13.7,-19.43 33.79,-58.12 20.26,-39.44 38.03,-67.17 53.23,-83.2 15.27,-16.11 32.05,-24.08 50.4,-24.08 14.62,0 26.49,6.64 35.63,19.92 9.13,13.29 15.86,37.53 20.09,72.74 4.56,40.03 8.63,65.02 12.29,74.82 3.65,9.79 9.46,14.7 17.35,14.7 5.06,0 11.38,-1.75 19.01,-5.32 1.25,-0.67 2.24,-1 2.91,-1 6.98,0 10.46,4.08 10.46,12.12 0,7.14 -4.81,14.78 -14.36,22.75 -9.54,8.06 -21.08,12.04 -34.54,12.04 -13.78,0 -24.41,-5.48 -31.97,-16.36 -7.56,-10.95 -13.54,-40.19 -17.93,-87.76 -4.49,-47.66 -14.03,-71.5 -28.65,-71.5zm339.1 86.36c-21.67,34.87 -44.75,61.77 -69.08,80.63 -24.33,18.93 -46.66,28.4 -67.09,28.4 -15.78,0 -28.23,-6.06 -37.36,-18.19 -9.14,-12.03 -13.79,-28.14 -13.79,-48.24 0,-41.01 16.69,-83.12 49.99,-126.29 33.38,-43.09 69.33,-64.69 107.93,-64.69 16.86,0 32.47,7.23 46.91,21.68l34.04 -159.09c2.49,-10.87 6.98,-18.18 13.54,-21.92 6.56,-3.73 11.71,-5.56 15.44,-5.56 11.38,0 17.02,10.05 17.02,30.14 0,3.57 -3.73,16.86 -11.21,39.85 -11.79,35.7 -23.08,79.55 -33.63,131.53 -10.62,51.98 -15.94,93.66 -15.94,125.12 0,32.47 7.06,48.66 21.17,48.66 9.05,0 18.43,-2.99 28.15,-8.97 4.07,-2.91 7.88,-4.4 11.45,-4.4 5.24,0 7.81,3.4 7.81,10.21 0,8.3 -7.3,17.85 -21.75,28.73 -14.54,10.88 -29.39,16.28 -44.68,16.28 -26.74,0 -40.11,-25.74 -40.11,-77.39 0,-8.72 0.33,-17.6 1.16,-26.49zm-31.88 -113.83c-26.25,0 -52.23,17.76 -78.05,53.39 -25.82,35.62 -38.69,68.5 -38.69,98.64 0,20.25 6.73,30.38 20.17,30.38 12.71,0 28.07,-6.64 46.17,-19.92 18.02,-13.28 36.62,-34.46 55.8,-63.6 19.09,-29.15 28.73,-50.99 28.73,-65.6 0,-7.14 -3.33,-14.45 -9.89,-22.01 -6.56,-7.56 -14.62,-11.29 -24.24,-11.29zm366.65 128.7c-29.89,25.9 -56.12,44.75 -78.71,56.54 -22.67,11.79 -39.93,17.6 -51.98,17.6 -16.03,0 -28.31,-6.64 -36.78,-20 -8.55,-13.38 -12.79,-28.98 -12.79,-46.83 0,-25 5.06,-55.88 15.19,-92.58 10.14,-36.7 17.69,-58.54 22.58,-65.43 4.98,-6.89 12.87,-10.37 23.74,-10.37 4.57,0 8.31,2.73 11.22,8.05 2.91,5.4 4.4,11.46 4.4,18.27 0,4.07 -1.91,9.3 -5.65,15.78 -8.72,15.27 -13.28,23.66 -13.7,25.32 -0.41,1.58 -3.57,11.38 -9.38,29.31 -5.81,17.93 -8.81,34.71 -8.81,50.49 0,5.48 1.33,14.11 4.08,25.74 2.65,11.7 8.22,17.52 16.6,17.52 8.97,0 19.93,-2.66 32.96,-8.14 13.11,-5.4 27.81,-14.28 44.17,-26.65 16.36,-12.3 27.4,-22.25 33.13,-29.9 5.65,-7.64 9.63,-16.27 12.04,-25.98 2.32,-9.8 3.98,-30.89 4.98,-63.28 0.91,-32.46 8.8,-48.65 23.58,-48.65 8.72,0 14.44,2.32 17.02,6.89 2.57,4.65 3.9,13.45 3.9,26.41 0,10.7 -0.75,24.08 -2.24,40.19 -1.75,20.25 -2.91,34.7 -3.41,43.25 -2.24,44.59 -8.05,89.43 -17.35,134.43 -9.3,45 -22.92,82.61 -40.77,112.84 -17.85,30.22 -42.43,45.33 -73.73,45.41 -31.72,-0.08 -60.04,-8.38 -84.78,-24.99 -24.66,-16.61 -37.03,-30.64 -37.03,-42.18 0,-5.4 1.24,-10.63 3.73,-15.86 2.49,-5.15 5.73,-7.73 9.63,-7.73 1.92,0 4.08,1.49 6.31,4.57 21.25,32.63 54.63,48.9 100.22,48.9 23.5,0 43.26,-20.59 59.2,-61.85 16.03,-41.27 24.83,-80.04 26.41,-116.16 0.33,-6.97 1,-13.95 1.99,-20.92zm654.05 30.14c0,-10.55 -12.95,-22.5 -38.86,-35.96 -32.96,-16.94 -55.22,-30.38 -66.84,-40.52 -11.55,-10.13 -17.36,-21.51 -17.36,-33.95 0,-32.3 16.19,-59.04 48.49,-80.29 32.39,-21.25 58.79,-31.89 79.21,-31.89 13.12,0 22.67,2.32 28.57,6.81 5.89,4.57 8.89,12.46 8.89,23.66 0,4.98 -2.16,9.3 -6.48,12.87 -4.24,3.57 -7.65,5.32 -10.05,5.32 -1.84,0 -5.32,-1.17 -10.47,-3.66 -5.23,-2.24 -8.63,-3.4 -10.21,-3.4 -8.14,0 -24.58,5.98 -49.41,17.77 -24.82,11.87 -37.2,25.24 -37.2,40.19 0,9.05 4.41,17.27 13.12,24.65 8.81,7.39 24.49,16.44 47.17,27.15 18.35,8.72 32.95,18.11 43.92,28.06 10.96,9.97 16.44,21.68 16.44,35.12 0,24.82 -17.11,44.26 -51.31,58.29 -34.22,14.03 -66.93,21 -98.07,21.09 -26.24,-0.09 -39.35,-8.97 -39.35,-26.82 0,-6.14 2.91,-10.71 8.88,-13.62 5.9,-2.91 11.88,-4.4 17.85,-4.4 2.41,0 7.06,0.83 13.87,2.48 6.64,1.58 11.05,2.41 13.11,2.41 18.03,0 37.28,-2.99 57.88,-8.97 20.59,-6.06 33.38,-13.54 38.19,-22.41zm252.99 -32.8c-22.67,30.47 -45.17,53.31 -67.33,68.58 -22.26,15.2 -42.6,22.84 -61.12,22.84 -12.46,0 -23.25,-5.23 -32.3,-15.78 -9.13,-10.54 -13.62,-24.08 -13.62,-40.68 0,-42.6 19.01,-88.51 57.12,-137.75 38.12,-49.25 75.98,-73.82 113.59,-73.82 13.62,0 23.74,7.72 30.47,23.33 2.08,5.14 5.4,7.81 9.97,7.81 12.95,0 19.43,4.98 19.43,15.03 0,5.06 -0.83,11.95 -2.41,20.67 -8.8,47.83 -13.11,81.62 -13.11,101.21 0,39.28 7.38,62.77 22.33,70.58 7.14,3.9 10.71,8.63 10.71,14.28 0,5.06 -3.49,10.13 -10.46,15.28 -6.98,5.06 -13.71,7.64 -20.18,7.64 -12.54,0 -22.83,-8.63 -30.89,-25.82 -8.13,-17.19 -12.21,-41.68 -12.21,-73.4zm-14.78 -137c-21.42,0 -46.33,20.09 -74.73,60.2 -28.4,40.19 -42.6,73.48 -42.6,99.89 0,18.59 6.22,27.98 18.52,27.98 17.84,0 42.59,-18.03 74.23,-54.06 31.63,-35.95 47.41,-69.09 47.41,-99.23 0,-23.16 -7.65,-34.79 -22.84,-34.79zm315.19 137.42c-1.92,-1.41 -7.39,3.16 -16.28,13.62 -14.78,17.36 -33.62,32.8 -56.54,46.25 -23,13.46 -44.26,20.18 -63.85,20.18 -14.62,0 -26.08,-4.57 -34.38,-13.71 -8.22,-9.21 -12.38,-21.84 -12.38,-38.11 0,-25.08 9.47,-53.14 28.49,-84.03 18.93,-30.89 45.5,-57.88 79.63,-80.88 34.12,-23 64.01,-34.54 89.67,-34.54 13.45,0 25.32,3.9 35.54,11.71 2.41,1.91 4.48,3.48 6.3,4.81 2.92,2.16 5.65,6.4 8.22,12.79 2.66,6.4 3.9,11.54 3.9,15.44 0,2.41 -0.91,6.14 -2.65,11.21 -9.89,26.9 -16.6,49.23 -20.17,66.84 -3.57,17.69 -7.47,47.5 -11.71,89.35 -3.9,37.6 -8.06,66.5 -12.62,86.85 -4.57,20.25 -12.71,39.85 -24.58,58.79 -11.87,19.01 -26.06,33.21 -42.6,42.76 -16.52,9.46 -33.54,14.19 -51.06,14.19 -30.3,0 -60.28,-10.46 -89.75,-31.38 -29.47,-20.92 -44.26,-37.7 -44.26,-50.31 0,-7.98 3,-11.96 8.97,-11.96 2.92,0 11.63,4.82 26.08,14.36 38.11,25.49 72.4,38.2 102.88,38.2 26.57,0 46.83,-14.2 60.69,-42.6 13.87,-28.4 23.33,-70.74 28.31,-127.21 1.16,-12.78 2.49,-23.66 4.16,-32.63zm-0.5 -133.51c-13.78,0 -30.97,7.14 -51.65,21.42 -20.67,14.28 -40.76,35.2 -60.28,62.77 -19.43,27.57 -29.14,50.65 -29.14,69.33 0,6.31 2,11.3 5.98,14.95 3.98,3.65 8.38,5.48 13.19,5.48 14.45,0 33.3,-7.47 56.55,-22.41 23.33,-14.87 43.34,-35.63 60.12,-62.12 16.77,-26.57 25.16,-47.33 25.16,-62.44 0,-18.02 -6.65,-26.98 -19.93,-26.98zm278.49 133.1c-22.67,30.47 -45.17,53.31 -67.33,68.58 -22.26,15.2 -42.6,22.84 -61.12,22.84 -12.46,0 -23.25,-5.23 -32.3,-15.78 -9.13,-10.54 -13.62,-24.08 -13.62,-40.68 0,-42.6 19.01,-88.51 57.12,-137.75 38.12,-49.25 75.98,-73.82 113.59,-73.82 13.62,0 23.74,7.72 30.47,23.33 2.08,5.14 5.4,7.81 9.97,7.81 12.95,0 19.43,4.98 19.43,15.03 0,5.06 -0.83,11.95 -2.41,20.67 -8.8,47.83 -13.11,81.62 -13.11,101.21 0,39.28 7.38,62.77 22.33,70.58 7.14,3.9 10.71,8.63 10.71,14.28 0,5.06 -3.49,10.13 -10.46,15.28 -6.98,5.06 -13.71,7.64 -20.18,7.64 -12.54,0 -22.83,-8.63 -30.89,-25.82 -8.13,-17.19 -12.21,-41.68 -12.21,-73.4zm-14.78 -137c-21.42,0 -46.33,20.09 -74.73,60.2 -28.4,40.19 -42.6,73.48 -42.6,99.89 0,18.59 6.22,27.98 18.52,27.98 17.84,0 42.59,-18.03 74.23,-54.06 31.63,-35.95 47.41,-69.09 47.41,-99.23 0,-23.16 -7.65,-34.79 -22.84,-34.79zm242.2 -19.92c16.69,-1.33 32.47,-2.82 47.17,-4.65 14.61,-1.58 26.81,-2.41 36.54,-2.41 12.29,0 20.09,1.16 23.33,3.4 3.24,2.25 4.89,6.23 4.89,11.96 0,13.11 -9.21,20.25 -27.48,21.33 -23.58,1.49 -45.17,3.49 -65.02,6.14 -19.76,2.58 -30.38,4.74 -31.97,6.4 -1.49,1.75 -6.4,21.01 -14.7,57.88 -8.3,36.95 -12.45,60.86 -12.45,71.9 0,17.85 2.4,29.73 7.05,35.62 4.73,5.98 11.79,8.89 21.17,8.89 13.95,0 33.38,-10.46 58.21,-31.38 9.54,-8.55 16.94,-12.87 22.08,-12.87 6.98,0 10.46,3.73 10.46,11.21 0,11.71 -11.21,26.82 -33.71,45.33 -22.41,18.6 -45.41,27.9 -68.91,27.9 -39.27,0 -58.87,-23.16 -58.87,-69.33 0,-16.69 4.07,-42.6 12.12,-77.64 7.97,-34.87 11.95,-55.79 11.95,-62.77 0,-2.4 -1.99,-3.65 -5.81,-3.65l-25.33 2.25c-20.76,0 -31.13,-8.31 -31.13,-24.83 0,-9.38 4.73,-14.11 14.36,-14.11l50.06 0c3.41,0 6.4,-1.57 9.05,-4.65 2.58,-3.08 6.4,-13.37 11.38,-30.97 5.06,-17.6 9.55,-35.04 13.37,-52.23 3.9,-17.02 11.55,-25.49 22.92,-25.49 6.98,0 12.38,2.41 16.28,7.3 3.9,4.82 5.81,9.39 5.81,13.62 0,2.25 -2.91,13.87 -8.72,34.79l-14.12 51.07z"/>
       <path class="fil9" d="M29542.95 18853.61l-35.87 0 0 -73.23 -6.05 0 -47.25 -80.12c-7.73,-13.12 -14.36,-22.34 -20.01,-27.49 -8.47,-7.97 -18.6,-11.95 -30.3,-11.95l0 119.56 -43.85 0 0 -258.56 43.85 0 0 111.59c16.27,0 28.4,-5.23 36.19,-15.78 2.58,-3.4 8.55,-16.44 17.77,-38.94 6.4,-15.53 11.29,-25.91 14.54,-31.14 7.13,-11.79 15.44,-19.27 24.9,-22.33 7.06,-2.25 18.27,-3.41 33.79,-3.41l8.81 0 0 36.37 -12.21 -0.25c-12.21,-0.17 -20.76,2.99 -25.82,9.46 -1.66,2.16 -5.57,11.3 -11.96,27.49 -5.97,15.27 -11.29,25.9 -15.78,31.89 -6.22,8.05 -15.52,15.03 -28.06,20.84 19.01,4.98 37.53,22.58 55.63,52.73l26.57 44.17 15.11 0 0 109.1zm-955.95 537.17c0,-6.78 -8.32,-14.46 -24.98,-23.11 -21.19,-10.89 -35.5,-19.54 -42.97,-26.04 -7.41,-6.52 -11.16,-13.83 -11.16,-21.84 0,-20.76 10.41,-37.95 31.17,-51.62 20.82,-13.66 37.8,-20.5 50.93,-20.5 8.43,0 14.57,1.49 18.36,4.38 3.79,2.94 5.71,8.01 5.71,15.21 0,3.21 -1.38,5.98 -4.16,8.28 -2.72,2.29 -4.91,3.41 -6.47,3.41 -1.17,0 -3.41,-0.75 -6.73,-2.35 -3.36,-1.43 -5.55,-2.19 -6.56,-2.19 -5.24,0 -15.81,3.84 -31.76,11.43 -15.96,7.64 -23.92,16.23 -23.92,25.83 0,5.82 2.83,11.11 8.43,15.86 5.66,4.75 15.76,10.56 30.32,17.45 11.8,5.61 21.19,11.64 28.23,18.05 7.05,6.41 10.57,13.93 10.57,22.57 0,15.96 -10.99,28.45 -32.98,37.47 -21.99,9.02 -43.02,13.51 -63.04,13.56 -16.87,-0.05 -25.3,-5.77 -25.3,-17.24 0,-3.95 1.87,-6.89 5.71,-8.76 3.79,-1.87 7.64,-2.83 11.48,-2.83 1.55,0 4.54,0.53 8.92,1.6 4.27,1.02 7.1,1.55 8.43,1.55 11.58,0 23.97,-1.93 37.2,-5.77 13.24,-3.89 21.46,-8.71 24.55,-14.41zm1333.91 -37.2c1.34,-1.77 10.68,-10.2 27.97,-25.2 16.39,-14.25 27.81,-24.65 34.28,-31.12 24.07,-24.07 41.37,-36.13 51.93,-36.13 8.12,0 12.18,3.94 12.18,11.74 0,8.86 -4,15.37 -12.01,19.54 -10.46,5.34 -24.34,14.14 -41.79,26.53 -17.4,12.33 -26.11,21.08 -26.11,26.21 0,2.08 6.14,9.88 18.47,23.38 12.28,13.5 22.96,23.43 31.87,29.84 8.97,6.41 17.72,9.6 26.16,9.6l5.12 -0.16c3.68,-0.21 5.5,1.44 5.5,4.86 0,4.59 -2.88,9.29 -8.59,13.98 -5.76,4.75 -13.28,7.15 -22.69,7.15 -6.03,0 -12.17,-2.13 -18.36,-6.34 -6.19,-4.22 -17.24,-15.59 -33.1,-34.16 -12.6,-15.32 -20.5,-24.5 -23.59,-27.44 -3.15,-2.99 -5.76,-4.48 -7.85,-4.48 -1.12,0 -4.8,2.71 -10.93,8.16 -6.14,5.4 -9.5,9.5 -10.1,12.34 -0.53,2.82 -0.85,13.56 -0.85,32.24l0 7.31c0,3.89 -1.82,7.31 -5.45,10.35 -3.68,3 -7.64,4.54 -11.9,4.54 -4.38,0 -7.8,-1.28 -10.3,-3.84 -2.51,-2.56 -3.79,-5.17 -3.79,-7.9 0,-3.74 1.44,-12.6 4.22,-26.58 4,-20.12 7.64,-47.09 10.94,-80.87 7.74,-79.75 13.66,-124.85 17.82,-135.32 4.22,-10.51 10.15,-15.75 17.83,-15.75 2.71,0 5.01,1.44 6.83,4.38 1.82,2.94 2.72,6.68 2.72,11.27 0,8.32 -3.58,30.47 -10.78,66.45 -7.2,36.08 -12.39,71.2 -15.65,105.42zm-1142.81 20.01c0,10.62 -9.39,23.43 -28.18,38.49 -18.84,15 -38.27,22.46 -58.29,22.46 -16.75,0 -29.73,-4.9 -38.86,-14.84 -9.13,-9.88 -13.67,-23.69 -13.67,-41.42 0,-29.84 10.04,-58.18 30.16,-85.08 20.12,-26.9 42.17,-40.35 66.03,-40.35 7.8,0 14.2,2.56 19.17,7.69 4.91,5.06 7.41,11.26 7.41,18.41 0,16.07 -7.9,31.44 -23.64,46.18 -15.75,14.68 -36.78,29.14 -63.15,43.28 -5.45,2.83 -8.11,6.46 -8.11,10.94 0,8.64 2.45,15.58 7.47,20.82 5.01,5.23 12.44,7.79 22.2,7.79 22.41,0 45.32,-12.38 68.64,-37.2 3.47,-3.42 6.08,-5.17 7.85,-5.17 3.31,0 4.96,2.66 4.96,8zm-108.68 -24.39c44.25,-26.26 66.35,-47.4 66.35,-63.36 0,-6.24 -2.83,-9.39 -8.49,-9.39 -9.55,0 -20.39,7.04 -32.45,21.13 -12.01,14.09 -20.5,31.28 -25.41,51.62zm172.94 15.32c1.07,-1.87 2.3,-4.49 3.79,-7.85 7.1,-16.23 13.61,-28.98 19.54,-38.22 5.92,-9.23 12.49,-18.05 19.64,-26.48 7.1,-8.48 13.67,-14.89 19.54,-19.27 5.87,-4.38 11.21,-7.41 16.01,-9.13 4.8,-1.7 9.45,-2.61 13.93,-2.61 9.08,0 16.44,2.77 22.21,8.22 5.71,5.5 8.59,11.85 8.59,19.17 0,3.25 -1.02,6.13 -3.05,8.75 -2.03,2.62 -5.12,3.9 -9.29,3.9 -4.38,0 -8.43,-1.93 -12.06,-5.77 -3.73,-3.84 -7.69,-5.76 -11.74,-5.76 -10.83,0 -25.83,13.12 -45,39.39 -19.22,26.26 -30.91,55.2 -35.06,86.79 -1.02,8.12 -3,13.51 -5.93,16.12 -2.94,2.56 -7.04,3.9 -12.33,3.9 -5.12,0 -8.81,-3.79 -11.11,-11.43 -2.29,-7.64 -3.47,-20.45 -3.47,-38.48 0,-4.86 0.27,-15.7 0.81,-32.35 0.59,-19.7 1.87,-35.6 3.73,-47.72 0.32,-1.97 0.86,-6.62 1.55,-13.87 0.75,-8.07 1.65,-13.62 2.77,-16.76 1.07,-3.1 3.31,-6.03 6.72,-8.76 3.37,-2.72 7.05,-4.06 11,-4.06 3.84,0 6.78,1.23 8.7,3.68 1.93,2.45 2.88,5.07 2.88,7.9 0,4.06 -1.07,9.77 -3.15,17.19 -2.41,8.22 -3.79,13.93 -4.22,17.03 -0.32,3.58 -0.86,7.26 -1.71,11.11 -1.07,4.48 -2.08,16.28 -3.15,35.34l-0.16 5.82 0 4.22zm185.01 -147.32c-2.19,0 -3.84,-2.35 -5.02,-7.05 -0.42,-1.44 -0.96,-3.04 -1.7,-4.85 -2.82,-6.73 -4.22,-12.65 -4.22,-17.67 0,-4.17 2.45,-8.38 7.42,-12.7 4.96,-4.33 10.46,-6.52 16.49,-6.52 3.04,0 6.41,1.18 10.19,3.52 3.74,2.35 5.61,4.6 5.61,6.78 0,3.47 -1.28,9.29 -3.84,17.56 -2.56,8.22 -6.62,13.78 -12.17,16.65 -5.61,2.83 -9.82,4.28 -12.76,4.28zm-20.5 174.7c0,7.91 1.12,16.82 3.31,26.75 0.42,1.87 0.59,3.41 0.59,4.64 0,1.92 -1.7,4.33 -5.12,7.31 -3.47,2.94 -7.1,4.43 -10.94,4.43 -10.14,0 -15.16,-9.29 -15.16,-27.81 0,-19.22 3.95,-49.54 11.85,-91.01 2.72,-14.53 4.06,-23.43 4.06,-26.74 0,-6.57 1.23,-12.18 3.63,-16.82 2.4,-4.65 5.77,-6.99 10.15,-6.99 5.34,0 9.5,1.28 12.59,3.84 3.1,2.56 4.6,5.39 4.6,8.53 0,3.1 -0.7,7.26 -2.19,12.34 -7.8,27.54 -12.66,47.24 -14.53,59.14 -1.87,11.85 -2.82,25.99 -2.82,42.38zm93.03 -38.32c1.34,-1.77 10.68,-10.2 27.97,-25.2 16.39,-14.25 27.81,-24.65 34.28,-31.12 24.07,-24.07 41.37,-36.13 51.93,-36.13 8.12,0 12.18,3.94 12.18,11.74 0,8.86 -4,15.37 -12.01,19.54 -10.46,5.34 -24.34,14.14 -41.79,26.53 -17.4,12.33 -26.11,21.08 -26.11,26.21 0,2.08 6.14,9.88 18.47,23.38 12.28,13.5 22.96,23.43 31.87,29.84 8.97,6.41 17.72,9.6 26.16,9.6l5.12 -0.16c3.68,-0.21 5.5,1.44 5.5,4.86 0,4.59 -2.88,9.29 -8.59,13.98 -5.76,4.75 -13.28,7.15 -22.69,7.15 -6.03,0 -12.17,-2.13 -18.36,-6.34 -6.19,-4.22 -17.24,-15.59 -33.1,-34.16 -12.6,-15.32 -20.5,-24.5 -23.59,-27.44 -3.15,-2.99 -5.76,-4.48 -7.85,-4.48 -1.12,0 -4.8,2.71 -10.93,8.16 -6.14,5.4 -9.5,9.5 -10.1,12.34 -0.53,2.82 -0.85,13.56 -0.85,32.24l0 7.31c0,3.89 -1.82,7.31 -5.45,10.35 -3.68,3 -7.64,4.54 -11.9,4.54 -4.38,0 -7.8,-1.28 -10.3,-3.84 -2.51,-2.56 -3.79,-5.17 -3.79,-7.9 0,-3.74 1.44,-12.6 4.22,-26.58 4,-20.12 7.64,-47.09 10.94,-80.87 7.74,-79.75 13.66,-124.85 17.82,-135.32 4.22,-10.51 10.15,-15.75 17.83,-15.75 2.71,0 5.01,1.44 6.83,4.38 1.82,2.94 2.72,6.68 2.72,11.27 0,8.32 -3.58,30.47 -10.78,66.45 -7.2,36.08 -12.39,71.2 -15.65,105.42zm202.68 -179.83l0.48 0c2.94,0 7.31,1.02 13.12,3.1 5.82,2.09 9.66,3.84 11.48,5.24 1.82,1.44 2.77,3.79 2.77,7.15 0,6.46 -2.99,12.11 -8.91,16.98 -5.98,4.8 -10.41,7.25 -13.29,7.25 -5.01,0 -9.39,-2.19 -13.18,-6.57 -3.73,-4.37 -5.61,-8.75 -5.61,-13.12 0,-11.27 4.38,-17.93 13.13,-20.02zm-63.31 352.14c-12.44,0 -24.44,-5.18 -36.08,-15.53 -11.64,-10.36 -17.4,-19.33 -17.4,-26.85 0,-2.08 0.7,-4.12 2.19,-6.14 1.44,-2.03 2.51,-3.04 3.26,-3.04 0.75,0 2.34,1.01 4.85,3.1 16.39,14.4 29.58,21.57 39.55,21.57 8.22,0 15.32,-3.9 21.3,-11.8 5.92,-7.85 10.19,-22.47 12.81,-43.77 2.61,-21.3 5.06,-54.45 7.31,-99.39 1.59,-32.4 2.99,-53.01 4.16,-61.76 1.23,-8.76 3.69,-14.89 7.42,-18.36 3.79,-3.52 8.54,-5.29 14.41,-5.29 2.99,0 5.87,1.18 8.53,3.52 2.62,2.35 3.95,5.24 3.95,8.54 0,1.87 -0.37,4.43 -1.07,7.69 -7.64,32.93 -12.6,75.84 -14.89,128.69 -1.44,31.87 -4.43,55.52 -8.92,70.83 -4.48,15.32 -11.37,27.17 -20.71,35.5 -9.34,8.33 -19.54,12.5 -30.69,12.5zm228.3 -156.19c-14.58,19.59 -29.04,34.27 -43.29,44.09 -14.3,9.76 -27.39,14.68 -39.29,14.68 -8,0 -14.94,-3.36 -20.76,-10.14 -5.87,-6.78 -8.76,-15.48 -8.76,-26.16 0,-27.39 12.23,-56.9 36.73,-88.55 24.5,-31.65 48.84,-47.45 73.02,-47.45 8.76,0 15.26,4.96 19.59,15 1.33,3.31 3.47,5.01 6.41,5.01 8.32,0 12.49,3.21 12.49,9.66 0,3.26 -0.53,7.69 -1.54,13.28 -5.66,30.75 -8.44,52.47 -8.44,65.07 0,25.25 4.75,40.36 14.36,45.37 4.59,2.51 6.89,5.55 6.89,9.18 0,3.26 -2.25,6.52 -6.73,9.82 -4.49,3.26 -8.81,4.91 -12.97,4.91 -8.06,0 -14.68,-5.56 -19.86,-16.6 -5.23,-11.05 -7.84,-26.8 -7.84,-47.19zm-9.5 -88.07c-13.78,0 -29.79,12.91 -48.04,38.69 -18.26,25.83 -27.39,47.24 -27.39,64.21 0,11.95 4,17.99 11.91,17.99 11.47,0 27.38,-11.58 47.71,-34.74 20.34,-23.12 30.48,-44.41 30.48,-63.79 0,-14.89 -4.91,-22.36 -14.68,-22.36zm198.56 24.71c-5.45,0 -11.37,3.52 -17.77,10.62 -6.41,7.1 -16.18,23.01 -29.31,47.72 -17.29,33.15 -28.5,51.99 -33.52,56.58 -5.06,4.59 -9.29,6.88 -12.6,6.88 -12.33,0 -18.47,-5.92 -18.47,-17.82 0,-4.96 0.86,-12.06 2.51,-21.24 5.71,-31.49 8.59,-64.7 8.59,-99.6 0,-4 1.7,-8.38 5.07,-13.24 3.42,-4.85 6.62,-7.25 9.6,-7.25 5.45,0 9.29,1.65 11.59,5.01 2.29,3.31 3.47,10.04 3.47,20.17 0,10.52 -3.16,32.19 -9.4,65.02 -2.08,10.83 -3.15,17.71 -3.15,20.65 0,1.66 0.42,2.51 1.28,2.51 1.55,0 8.81,-12.49 21.73,-37.36 13.02,-25.36 24.44,-43.18 34.22,-53.48 9.81,-10.36 20.6,-15.48 32.4,-15.48 9.39,0 17.03,4.28 22.9,12.81 5.87,8.54 10.2,24.13 12.91,46.76 2.95,25.72 5.56,41.79 7.91,48.09 2.34,6.3 6.08,9.45 11.16,9.45 3.25,0 7.31,-1.12 12.22,-3.42 0.81,-0.42 1.44,-0.64 1.88,-0.64 4.48,0 6.72,2.61 6.72,7.8 0,4.59 -3.1,9.49 -9.23,14.62 -6.14,5.18 -13.56,7.75 -22.2,7.75 -8.87,0 -15.7,-3.53 -20.56,-10.52 -4.85,-7.04 -8.7,-25.83 -11.53,-56.42 -2.87,-30.63 -9.02,-45.96 -18.41,-45.96zm568.43 34.8c0,38.69 -12.5,65.01 -37.47,78.84 -12.18,6.78 -25.57,10.14 -40.09,10.14 -25.2,0 -44.74,-8.27 -58.56,-24.81 -12.81,-15.43 -19.22,-36.03 -19.22,-61.81 0,-30.69 8.53,-53.43 25.62,-68.22 14.25,-12.28 31.59,-18.42 52.15,-18.42 24.44,0 43.61,8.07 57.59,24.19 13.29,15.31 19.97,35.34 19.97,60.1zm-29.46 -13.51c-1.77,-13.4 -6.14,-23.97 -13.03,-31.65 -9.34,-10.51 -21.03,-15.75 -35.06,-15.75 -14.2,0 -25.94,5.24 -35.23,15.75 -6.94,7.69 -11.32,18.26 -13.07,31.65l96.4 0zm0.64 23.06l-97.68 0c0.86,16.02 5.07,29.09 12.71,39.18 8.76,11.48 20.87,17.19 36.24,17.19 15.31,0 27.38,-5.76 36.03,-17.35 7.52,-9.98 11.74,-23 12.7,-39.02zm92.18 2.88c1.34,-1.77 10.68,-10.2 27.97,-25.2 16.39,-14.25 27.81,-24.65 34.28,-31.12 24.07,-24.07 41.37,-36.13 51.93,-36.13 8.12,0 12.18,3.94 12.18,11.74 0,8.86 -4,15.37 -12.01,19.54 -10.46,5.34 -24.34,14.14 -41.79,26.53 -17.4,12.33 -26.11,21.08 -26.11,26.21 0,2.08 6.14,9.88 18.47,23.38 12.28,13.5 22.96,23.43 31.87,29.84 8.97,6.41 17.72,9.6 26.16,9.6l5.12 -0.16c3.68,-0.21 5.5,1.44 5.5,4.86 0,4.59 -2.88,9.29 -8.59,13.98 -5.76,4.75 -13.28,7.15 -22.69,7.15 -6.03,0 -12.17,-2.13 -18.36,-6.34 -6.19,-4.22 -17.24,-15.59 -33.1,-34.16 -12.6,-15.32 -20.5,-24.5 -23.59,-27.44 -3.15,-2.99 -5.76,-4.48 -7.85,-4.48 -1.12,0 -4.8,2.71 -10.93,8.16 -6.14,5.4 -9.5,9.5 -10.1,12.34 -0.53,2.82 -0.85,13.56 -0.85,32.24l0 7.31c0,3.89 -1.82,7.31 -5.45,10.35 -3.68,3 -7.64,4.54 -11.9,4.54 -4.38,0 -7.8,-1.28 -10.3,-3.84 -2.51,-2.56 -3.79,-5.17 -3.79,-7.9 0,-3.74 1.44,-12.6 4.22,-26.58 4,-20.12 7.64,-47.09 10.94,-80.87 7.74,-79.75 13.66,-124.85 17.82,-135.32 4.22,-10.51 10.15,-15.75 17.83,-15.75 2.71,0 5.01,1.44 6.83,4.38 1.82,2.94 2.72,6.68 2.72,11.27 0,8.32 -3.58,30.47 -10.78,66.45 -7.2,36.08 -12.39,71.2 -15.65,105.42zm292.89 20.01c0,10.62 -9.39,23.43 -28.18,38.49 -18.84,15 -38.27,22.46 -58.29,22.46 -16.75,0 -29.73,-4.9 -38.86,-14.84 -9.13,-9.88 -13.67,-23.69 -13.67,-41.42 0,-29.84 10.04,-58.18 30.16,-85.08 20.12,-26.9 42.17,-40.35 66.03,-40.35 7.8,0 14.2,2.56 19.17,7.69 4.91,5.06 7.41,11.26 7.41,18.41 0,16.07 -7.9,31.44 -23.64,46.18 -15.75,14.68 -36.78,29.14 -63.15,43.28 -5.45,2.83 -8.11,6.46 -8.11,10.94 0,8.64 2.45,15.58 7.47,20.82 5.01,5.23 12.44,7.79 22.2,7.79 22.41,0 45.32,-12.38 68.64,-37.2 3.47,-3.42 6.08,-5.17 7.85,-5.17 3.31,0 4.96,2.66 4.96,8zm-108.68 -24.39c44.25,-26.26 66.35,-47.4 66.35,-63.36 0,-6.24 -2.83,-9.39 -8.49,-9.39 -9.55,0 -20.39,7.04 -32.45,21.13 -12.01,14.09 -20.5,31.28 -25.41,51.62zm170.01 -11.58c13.35,-24.29 29.3,-43.99 47.82,-59.04 18.58,-15.05 35.28,-22.57 50.23,-22.57 8.22,0 15.21,3.79 20.92,11.42 5.77,7.59 8.59,16.87 8.59,27.81 0,32.4 -12.23,62.82 -36.67,91.28 -24.45,28.4 -50.23,42.6 -77.45,42.6 -7.42,0 -14.2,-2.03 -20.45,-6.03 -6.19,-4 -9.66,-9.03 -10.36,-15.11 -0.42,-4.85 -1.87,-8.53 -4.22,-10.94 -4.48,-4.48 -6.72,-9.28 -6.72,-14.35 0,-9.5 2.56,-29.79 7.79,-60.86l16.12 -93.52c5.5,-31.38 9.55,-50.76 12.11,-58.17 2.56,-7.37 5.4,-12.34 8.54,-14.85 3.1,-2.5 6.94,-3.73 11.53,-3.73 7.31,0 10.94,6.29 10.94,18.89 0,12.01 -4,28.77 -12.01,50.4 -7.74,20.71 -16.65,59.68 -26.74,116.79zm-3.79 52.09c5.45,10.1 12.01,15.16 19.75,15.16 11.85,0 24.45,-4.96 37.69,-14.79 13.24,-9.87 24.66,-23.69 34.33,-41.58 9.6,-17.87 14.46,-32.98 14.46,-45.31 0,-5.5 -1.02,-10.25 -3,-14.2 -1.97,-3.95 -4.48,-5.98 -7.52,-5.98 -14.46,0 -32.19,11.9 -53.06,35.61 -20.92,23.69 -35.11,47.4 -42.65,71.09zm266.95 -20.01c-14.58,19.59 -29.04,34.27 -43.29,44.09 -14.3,9.76 -27.39,14.68 -39.29,14.68 -8,0 -14.94,-3.36 -20.76,-10.14 -5.87,-6.78 -8.76,-15.48 -8.76,-26.16 0,-27.39 12.23,-56.9 36.73,-88.55 24.5,-31.65 48.84,-47.45 73.02,-47.45 8.76,0 15.26,4.96 19.59,15 1.33,3.31 3.47,5.01 6.41,5.01 8.32,0 12.49,3.21 12.49,9.66 0,3.26 -0.53,7.69 -1.54,13.28 -5.66,30.75 -8.44,52.47 -8.44,65.07 0,25.25 4.75,40.36 14.36,45.37 4.59,2.51 6.89,5.55 6.89,9.18 0,3.26 -2.25,6.52 -6.73,9.82 -4.49,3.26 -8.81,4.91 -12.97,4.91 -8.06,0 -14.68,-5.56 -19.86,-16.6 -5.23,-11.05 -7.84,-26.8 -7.84,-47.19zm-9.5 -88.07c-13.78,0 -29.79,12.91 -48.04,38.69 -18.26,25.83 -27.39,47.24 -27.39,64.21 0,11.95 4,17.99 11.91,17.99 11.47,0 27.38,-11.58 47.71,-34.74 20.34,-23.12 30.48,-44.41 30.48,-63.79 0,-14.89 -4.91,-22.36 -14.68,-22.36zm142.41 -64.43c-2.19,0 -3.84,-2.35 -5.02,-7.05 -0.42,-1.44 -0.96,-3.04 -1.7,-4.85 -2.82,-6.73 -4.22,-12.65 -4.22,-17.67 0,-4.17 2.45,-8.38 7.42,-12.7 4.96,-4.33 10.46,-6.52 16.49,-6.52 3.04,0 6.41,1.18 10.19,3.52 3.74,2.35 5.61,4.6 5.61,6.78 0,3.47 -1.28,9.29 -3.84,17.56 -2.56,8.22 -6.62,13.78 -12.17,16.65 -5.61,2.83 -9.82,4.28 -12.76,4.28zm-20.5 174.7c0,7.91 1.12,16.82 3.31,26.75 0.42,1.87 0.59,3.41 0.59,4.64 0,1.92 -1.7,4.33 -5.12,7.31 -3.47,2.94 -7.1,4.43 -10.94,4.43 -10.14,0 -15.16,-9.29 -15.16,-27.81 0,-19.22 3.95,-49.54 11.85,-91.01 2.72,-14.53 4.06,-23.43 4.06,-26.74 0,-6.57 1.23,-12.18 3.63,-16.82 2.4,-4.65 5.77,-6.99 10.15,-6.99 5.34,0 9.5,1.28 12.59,3.84 3.1,2.56 4.6,5.39 4.6,8.53 0,3.1 -0.7,7.26 -2.19,12.34 -7.8,27.54 -12.66,47.24 -14.53,59.14 -1.87,11.85 -2.82,25.99 -2.82,42.38zm-3498.98 557c0,-6.78 -8.32,-14.46 -24.98,-23.11 -21.19,-10.89 -35.5,-19.54 -42.97,-26.04 -7.41,-6.52 -11.16,-13.83 -11.16,-21.84 0,-20.76 10.41,-37.95 31.17,-51.62 20.82,-13.66 37.8,-20.5 50.93,-20.5 8.43,0 14.57,1.49 18.36,4.38 3.79,2.94 5.71,8.01 5.71,15.21 0,3.21 -1.38,5.98 -4.16,8.28 -2.72,2.29 -4.91,3.41 -6.47,3.41 -1.17,0 -3.41,-0.75 -6.73,-2.35 -3.36,-1.43 -5.55,-2.19 -6.56,-2.19 -5.24,0 -15.81,3.84 -31.76,11.43 -15.96,7.64 -23.92,16.23 -23.92,25.83 0,5.82 2.83,11.11 8.43,15.86 5.66,4.75 15.76,10.56 30.32,17.45 11.8,5.61 21.19,11.64 28.23,18.05 7.05,6.41 10.57,13.93 10.57,22.57 0,15.96 -10.99,28.45 -32.98,37.47 -21.99,9.02 -43.02,13.51 -63.04,13.56 -16.87,-0.05 -25.3,-5.77 -25.3,-17.24 0,-3.95 1.87,-6.89 5.71,-8.76 3.79,-1.87 7.64,-2.83 11.48,-2.83 1.55,0 4.54,0.53 8.92,1.6 4.27,1.02 7.1,1.55 8.43,1.55 11.58,0 23.97,-1.93 37.2,-5.77 13.24,-3.89 21.46,-8.71 24.55,-14.41zm87.6 -37.2c1.34,-1.77 10.68,-10.2 27.97,-25.2 16.39,-14.25 27.81,-24.65 34.28,-31.12 24.07,-24.07 41.37,-36.13 51.93,-36.13 8.12,0 12.18,3.94 12.18,11.74 0,8.86 -4,15.37 -12.01,19.54 -10.46,5.34 -24.34,14.14 -41.79,26.53 -17.4,12.33 -26.11,21.08 -26.11,26.21 0,2.08 6.14,9.88 18.47,23.38 12.28,13.5 22.96,23.43 31.87,29.84 8.97,6.41 17.72,9.6 26.16,9.6l5.12 -0.16c3.68,-0.21 5.5,1.44 5.5,4.86 0,4.59 -2.88,9.29 -8.59,13.98 -5.76,4.75 -13.28,7.15 -22.69,7.15 -6.03,0 -12.17,-2.13 -18.36,-6.34 -6.19,-4.22 -17.24,-15.59 -33.1,-34.16 -12.6,-15.32 -20.5,-24.5 -23.59,-27.44 -3.15,-2.99 -5.76,-4.48 -7.85,-4.48 -1.12,0 -4.8,2.71 -10.93,8.16 -6.14,5.4 -9.5,9.5 -10.1,12.34 -0.53,2.82 -0.85,13.56 -0.85,32.24l0 7.31c0,3.89 -1.82,7.31 -5.45,10.35 -3.68,3 -7.64,4.54 -11.9,4.54 -4.38,0 -7.8,-1.28 -10.3,-3.84 -2.51,-2.56 -3.79,-5.17 -3.79,-7.9 0,-3.74 1.44,-12.6 4.22,-26.58 4,-20.12 7.64,-47.09 10.94,-80.87 7.74,-79.75 13.66,-124.85 17.82,-135.32 4.22,-10.51 10.15,-15.75 17.83,-15.75 2.71,0 5.01,1.44 6.83,4.38 1.82,2.94 2.72,6.68 2.72,11.27 0,8.32 -3.58,30.47 -10.78,66.45 -7.2,36.08 -12.39,71.2 -15.65,105.42zm239.13 -28.77l11.43 0c19.38,0 33.78,-0.7 43.28,-2.03 4.59,-0.65 9.18,-0.97 13.77,-0.97 1.98,0 6.03,1.23 12.12,3.58 6.08,2.4 9.71,4.43 10.88,6.03 1.12,1.65 1.71,3.79 1.71,6.52 0,3.84 -0.81,6.56 -2.35,8.11 -1.55,1.54 -4.96,2.35 -10.2,2.35 -2.3,0 -5.5,-0.7 -9.66,-2.03 -4.17,-1.34 -7.69,-2.03 -10.51,-2.03 -1.12,0 -4.91,0.26 -11.37,0.8 -3.47,0.26 -9.71,0.05 -18.79,-0.8 -6.99,-0.65 -12.18,-0.97 -15.65,-0.97 -4.8,0 -12.05,0.32 -21.72,0.97 -9.71,0.64 -17.03,0.96 -22.05,0.96 -5.01,0 -9.07,-0.59 -12.11,-1.65 -3.1,-1.12 -4.64,-3.58 -4.64,-7.42 0,-1.7 0.7,-3.63 2.13,-5.87 1.39,-2.24 6.19,-4 14.31,-5.34 8.11,-1.28 13.98,-1.98 17.5,-1.98l11.9 1.77zm168.89 -151.06l0.48 0c2.94,0 7.31,1.02 13.12,3.1 5.82,2.09 9.66,3.84 11.48,5.24 1.82,1.44 2.77,3.79 2.77,7.15 0,6.46 -2.99,12.11 -8.91,16.98 -5.98,4.8 -10.41,7.25 -13.29,7.25 -5.01,0 -9.39,-2.19 -13.18,-6.57 -3.73,-4.37 -5.61,-8.75 -5.61,-13.12 0,-11.27 4.38,-17.93 13.13,-20.02zm-63.31 352.14c-12.44,0 -24.44,-5.18 -36.08,-15.53 -11.64,-10.36 -17.4,-19.33 -17.4,-26.85 0,-2.08 0.7,-4.12 2.19,-6.14 1.44,-2.03 2.51,-3.04 3.26,-3.04 0.75,0 2.34,1.01 4.85,3.1 16.39,14.4 29.58,21.57 39.55,21.57 8.22,0 15.32,-3.9 21.3,-11.8 5.92,-7.85 10.19,-22.47 12.81,-43.77 2.61,-21.3 5.06,-54.45 7.31,-99.39 1.59,-32.4 2.99,-53.01 4.16,-61.76 1.23,-8.76 3.69,-14.89 7.42,-18.36 3.79,-3.52 8.54,-5.29 14.41,-5.29 2.99,0 5.87,1.18 8.53,3.52 2.62,2.35 3.95,5.24 3.95,8.54 0,1.87 -0.37,4.43 -1.07,7.69 -7.64,32.93 -12.6,75.84 -14.89,128.69 -1.44,31.87 -4.43,55.52 -8.92,70.83 -4.48,15.32 -11.37,27.17 -20.71,35.5 -9.34,8.33 -19.54,12.5 -30.69,12.5z"/>
       <path class="fil9" d="M28120.1 19992.51c-14.25,0 -26.04,-5.4 -35.34,-16.23 -9.29,-10.83 -13.93,-24.24 -13.93,-40.2 0,-26.9 9.08,-53.43 27.16,-79.53 18.05,-26.11 39.71,-39.18 64.96,-39.18 16.65,0 30.21,6.41 40.57,19.27 10.36,12.81 15.58,28.07 15.58,45.8 0,27.11 -10.72,52.2 -32.13,75.37 -21.47,23.17 -43.72,34.7 -66.89,34.7zm-21.73 -60.48c0,10.52 2.19,19.12 6.63,25.78 4.43,6.67 10.3,10.04 17.61,10.04 15.53,0 31.12,-8.54 46.75,-25.57 15.65,-17.08 23.43,-36.03 23.43,-56.85 0,-12.86 -2.99,-23.21 -8.97,-31.22 -5.97,-7.96 -14.03,-11.95 -24.18,-11.95 -16.75,0 -31.17,10.3 -43.23,30.9 -12.01,20.56 -18.05,40.2 -18.05,58.88zm185.81 -36.29c13.35,-24.29 29.3,-43.99 47.82,-59.04 18.58,-15.05 35.28,-22.57 50.23,-22.57 8.22,0 15.21,3.79 20.92,11.42 5.77,7.59 8.59,16.87 8.59,27.81 0,32.4 -12.23,62.82 -36.67,91.28 -24.45,28.4 -50.23,42.6 -77.45,42.6 -7.42,0 -14.2,-2.03 -20.45,-6.03 -6.19,-4 -9.66,-9.03 -10.36,-15.11 -0.42,-4.85 -1.87,-8.53 -4.22,-10.94 -4.48,-4.48 -6.72,-9.28 -6.72,-14.35 0,-9.5 2.56,-29.79 7.79,-60.86l16.12 -93.52c5.5,-31.38 9.55,-50.76 12.11,-58.17 2.56,-7.37 5.4,-12.34 8.54,-14.85 3.1,-2.5 6.94,-3.73 11.53,-3.73 7.31,0 10.94,6.29 10.94,18.89 0,12.01 -4,28.77 -12.01,50.4 -7.74,20.71 -16.65,59.68 -26.74,116.79zm-3.79 52.09c5.45,10.1 12.01,15.16 19.75,15.16 11.85,0 24.45,-4.96 37.69,-14.79 13.24,-9.87 24.66,-23.69 34.33,-41.58 9.6,-17.87 14.46,-32.98 14.46,-45.31 0,-5.5 -1.02,-10.25 -3,-14.2 -1.97,-3.95 -4.48,-5.98 -7.52,-5.98 -14.46,0 -32.19,11.9 -53.06,35.61 -20.92,23.69 -35.11,47.4 -42.65,71.09zm266.95 -20.01c-14.58,19.59 -29.04,34.27 -43.29,44.09 -14.3,9.76 -27.39,14.68 -39.29,14.68 -8,0 -14.94,-3.36 -20.76,-10.14 -5.87,-6.78 -8.76,-15.48 -8.76,-26.16 0,-27.39 12.23,-56.9 36.73,-88.55 24.5,-31.65 48.84,-47.45 73.02,-47.45 8.76,0 15.26,4.96 19.59,15 1.33,3.31 3.47,5.01 6.41,5.01 8.32,0 12.49,3.21 12.49,9.66 0,3.26 -0.53,7.69 -1.54,13.28 -5.66,30.75 -8.44,52.47 -8.44,65.07 0,25.25 4.75,40.36 14.36,45.37 4.59,2.51 6.89,5.55 6.89,9.18 0,3.26 -2.25,6.52 -6.73,9.82 -4.49,3.26 -8.81,4.91 -12.97,4.91 -8.06,0 -14.68,-5.56 -19.86,-16.6 -5.23,-11.05 -7.84,-26.8 -7.84,-47.19zm-9.5 -88.07c-13.78,0 -29.79,12.91 -48.04,38.69 -18.26,25.83 -27.39,47.24 -27.39,64.21 0,11.95 4,17.99 11.91,17.99 11.47,0 27.38,-11.58 47.71,-34.74 20.34,-23.12 30.48,-44.41 30.48,-63.79 0,-14.89 -4.91,-22.36 -14.68,-22.36zm360.67 64.26c-7.15,5.55 -16.12,10.57 -26.85,15.16 -10.78,4.59 -19,6.88 -24.71,6.88 -7.74,0 -14.95,-2.94 -21.62,-8.81 -6.68,-5.92 -9.99,-12.11 -9.99,-18.68 0,-15.63 7.52,-33.04 22.69,-52.25 15.11,-19.17 28.24,-28.78 39.4,-28.78 13.77,0 23.64,3 29.73,8.92 1.33,0.96 2.03,2.56 2.03,4.86 0,1.54 -0.11,3.31 -0.26,5.34 -0.16,1.98 0.75,2.94 2.77,2.94 0.91,0 2.19,-0.42 3.73,-1.23 1.55,-0.85 2.88,-1.28 3.89,-1.28 5.82,0 8.76,2.77 8.76,8.33 0,1.33 -1.65,6.13 -5.01,14.35 -3.21,7.64 -5.24,12.76 -5.98,15.42 -0.8,2.67 -1.17,6.35 -1.17,11.16 0,4.7 3.47,7.05 10.46,7.05 9.5,0 18.26,-4.96 26.37,-14.84 8.06,-9.93 12.11,-19.64 12.11,-29.25 0,-9.5 -4,-22.1 -11.9,-37.85 -7.9,-15.75 -17.61,-26.79 -29.09,-33.1 -11.47,-6.29 -20.55,-9.44 -27.21,-9.44 -12.06,0 -28.03,8.11 -47.78,24.34 -19.74,16.17 -37.09,37.2 -52.04,63.09 -15,25.83 -22.47,44.3 -22.47,55.35 0,14.89 9.08,28.61 27.17,41.1 18.04,12.54 39.18,18.78 63.41,18.78 12.5,0 28.99,-2.94 49.49,-8.86 20.5,-5.87 36.56,-13.46 48.25,-22.74 4.28,-3.42 6.84,-5.18 7.64,-5.18 1.6,0 3.42,0.75 5.5,2.19 2.08,1.49 3.1,2.83 3.1,4.12 0,7.9 -1.98,13.98 -5.98,18.25 -4.06,4.28 -11.21,8.54 -21.51,12.76 -10.36,4.22 -25.25,8.33 -44.74,12.39 -19.48,4 -37.04,5.98 -52.57,5.98 -25.2,0 -48.41,-7.26 -69.55,-21.89 -21.19,-14.58 -31.76,-33.47 -31.76,-56.58 0,-16.39 8.71,-39.24 26.05,-68.54 17.35,-29.25 37.1,-52.15 59.19,-68.53 22.1,-16.44 41.1,-24.66 57.06,-24.66 25.62,0 46.7,10.78 63.26,32.29 16.54,21.57 24.76,43.34 24.76,65.44 0,13.88 -3.63,27.11 -10.94,39.76 -7.25,12.6 -16.7,20.87 -28.18,24.77 -11.53,3.89 -18.36,5.87 -20.44,5.87 -9.5,0 -17.83,-4.81 -25.04,-14.41zm-9.82 -65.66c-12.6,0.59 -23.97,8.38 -34,23.27 -10.09,14.95 -15.1,25.52 -15.1,31.76 0,4.17 1.07,7.1 3.2,8.76 2.14,1.65 6.73,2.5 13.83,2.5 4.8,0 11.9,-2.77 21.34,-8.37 9.45,-5.56 14.15,-10.46 14.15,-14.63 0,-1.12 -0.27,-5.24 -0.75,-12.34 -0.32,-4.69 0.75,-9.55 3.25,-14.57 2.41,-4.59 3.63,-6.94 3.63,-7.15 0,-1.28 -3.2,-4.33 -9.55,-9.24zm306.61 154.16c-14.25,0 -26.04,-5.4 -35.34,-16.23 -9.29,-10.83 -13.93,-24.24 -13.93,-40.2 0,-26.9 9.08,-53.43 27.16,-79.53 18.05,-26.11 39.71,-39.18 64.96,-39.18 16.65,0 30.21,6.41 40.57,19.27 10.36,12.81 15.58,28.07 15.58,45.8 0,27.11 -10.72,52.2 -32.13,75.37 -21.47,23.17 -43.72,34.7 -66.89,34.7zm-21.73 -60.48c0,10.52 2.19,19.12 6.63,25.78 4.43,6.67 10.3,10.04 17.61,10.04 15.53,0 31.12,-8.54 46.75,-25.57 15.65,-17.08 23.43,-36.03 23.43,-56.85 0,-12.86 -2.99,-23.21 -8.97,-31.22 -5.97,-7.96 -14.03,-11.95 -24.18,-11.95 -16.75,0 -31.17,10.3 -43.23,30.9 -12.01,20.56 -18.05,40.2 -18.05,58.88zm267.59 -15.32c-13.35,22.37 -27.01,39.77 -40.99,52.05 -13.93,12.33 -26.9,18.47 -38.92,18.47 -6.88,0 -13.88,-4 -21.03,-12.06 -7.15,-8.01 -10.72,-20.4 -10.72,-37.05 0,-13.66 3.31,-33.78 9.88,-60.37 5.5,-22.2 8.27,-37.79 8.27,-46.75 3.05,-6.24 7.8,-9.39 14.25,-9.39 4.38,0 7.85,1.54 10.46,4.64 2.61,3.05 3.89,6.24 3.89,9.61 0,7.3 -2.56,17.66 -7.63,31.12 -9.72,26.15 -14.58,48.62 -14.58,67.41 0,17.08 3.95,25.62 11.9,25.62 10.09,0 23.01,-8.59 38.59,-25.78 15.63,-17.24 29.04,-41.21 40.19,-71.95 4.38,-12.28 7.96,-20.29 10.73,-24.02 2.77,-3.68 6.52,-5.56 11.21,-5.56 7.05,0 10.62,4.7 10.62,14.09 0,1.12 -1.01,4.96 -2.99,11.43 -6.24,22.85 -9.39,44.4 -9.39,64.75 0,24.39 4.06,40.19 12.06,47.34 4.16,3.9 6.24,6.99 6.24,9.4 0,2.94 -2.09,5.6 -6.35,8 -4.22,2.4 -8.01,3.58 -11.48,3.58 -7.31,0 -13.18,-5.45 -17.66,-16.28 -4.49,-10.83 -6.73,-26.85 -6.73,-47.98l0 -5.18c0,-1.65 0.05,-3.36 0.16,-5.12zm148.54 -89.77c10.73,-0.86 20.87,-1.82 30.32,-3 9.39,-1.01 17.24,-1.54 23.48,-1.54 7.91,0 12.92,0.75 15,2.19 2.09,1.44 3.16,4 3.16,7.69 0,8.43 -5.93,13.02 -17.67,13.72 -15.16,0.96 -29.04,2.24 -41.79,3.95 -12.71,1.65 -19.54,3.04 -20.56,4.11 -0.96,1.12 -4.11,13.51 -9.44,37.2 -5.34,23.76 -8.01,39.13 -8.01,46.23 0,11.48 1.54,19.1 4.54,22.9 3.04,3.84 7.58,5.71 13.61,5.71 8.97,0 21.46,-6.73 37.42,-20.17 6.13,-5.5 10.88,-8.27 14.19,-8.27 4.49,0 6.73,2.4 6.73,7.2 0,7.52 -7.2,17.24 -21.67,29.14 -14.41,11.96 -29.2,17.93 -44.31,17.93 -25.24,0 -37.84,-14.89 -37.84,-44.56 0,-10.73 2.61,-27.39 7.79,-49.91 5.12,-22.41 7.69,-35.87 7.69,-40.35 0,-1.55 -1.28,-2.35 -3.73,-2.35l-16.28 1.44c-13.35,0 -20.01,-5.35 -20.01,-15.97 0,-6.03 3.04,-9.07 9.23,-9.07l32.19 0c2.19,0 4.11,-1.02 5.82,-2.99 1.65,-1.98 4.11,-8.59 7.31,-19.91 3.25,-11.32 6.13,-22.52 8.59,-33.58 2.5,-10.94 7.41,-16.38 14.73,-16.38 4.49,0 7.96,1.54 10.46,4.69 2.51,3.1 3.74,6.03 3.74,8.76 0,1.44 -1.88,8.92 -5.61,22.36l-9.08 32.83zm149.67 -106.97c7.52,0 11.26,4.81 11.26,14.41 0,8.54 -4.54,28.88 -13.61,60.96 -5.71,20.23 -10.15,42.55 -13.29,66.94 -3.15,24.39 -4.69,43.51 -4.69,57.38 0,17.19 1.12,34.33 3.31,51.3 0.42,3.26 0.59,5.6 0.59,7.04 0,5.24 -1.77,9.71 -5.29,13.46 -3.58,3.73 -7.31,5.6 -11.27,5.6 -5.55,0 -9.34,-3.41 -11.47,-10.3 -2.14,-6.89 -3.21,-17.99 -3.21,-33.31 0,-34.91 4.17,-78.19 12.55,-129.81 8.43,-51.57 15.1,-81.78 20.01,-90.53 4.96,-8.76 9.99,-13.13 15.11,-13.13zm82.57 272.55c-14.25,0 -26.04,-5.4 -35.34,-16.23 -9.29,-10.83 -13.93,-24.24 -13.93,-40.2 0,-26.9 9.08,-53.43 27.16,-79.53 18.05,-26.11 39.71,-39.18 64.96,-39.18 16.65,0 30.21,6.41 40.57,19.27 10.36,12.81 15.58,28.07 15.58,45.8 0,27.11 -10.72,52.2 -32.13,75.37 -21.47,23.17 -43.72,34.7 -66.89,34.7zm-21.73 -60.48c0,10.52 2.19,19.12 6.63,25.78 4.43,6.67 10.3,10.04 17.61,10.04 15.53,0 31.12,-8.54 46.75,-25.57 15.65,-17.08 23.43,-36.03 23.43,-56.85 0,-12.86 -2.99,-23.21 -8.97,-31.22 -5.97,-7.96 -14.03,-11.95 -24.18,-11.95 -16.75,0 -31.17,10.3 -43.23,30.9 -12.01,20.56 -18.05,40.2 -18.05,58.88zm202.84 60.48c-14.25,0 -26.04,-5.4 -35.34,-16.23 -9.29,-10.83 -13.93,-24.24 -13.93,-40.2 0,-26.9 9.08,-53.43 27.16,-79.53 18.05,-26.11 39.71,-39.18 64.96,-39.18 16.65,0 30.21,6.41 40.57,19.27 10.36,12.81 15.58,28.07 15.58,45.8 0,27.11 -10.72,52.2 -32.13,75.37 -21.47,23.17 -43.72,34.7 -66.89,34.7zm-21.73 -60.48c0,10.52 2.19,19.12 6.63,25.78 4.43,6.67 10.3,10.04 17.61,10.04 15.53,0 31.12,-8.54 46.75,-25.57 15.65,-17.08 23.43,-36.03 23.43,-56.85 0,-12.86 -2.99,-23.21 -8.97,-31.22 -5.97,-7.96 -14.03,-11.95 -24.18,-11.95 -16.75,0 -31.17,10.3 -43.23,30.9 -12.01,20.56 -18.05,40.2 -18.05,58.88zm187.52 -20.34c1.34,-1.77 10.68,-10.2 27.97,-25.2 16.39,-14.25 27.81,-24.65 34.28,-31.12 24.07,-24.07 41.37,-36.13 51.93,-36.13 8.12,0 12.18,3.94 12.18,11.74 0,8.86 -4,15.37 -12.01,19.54 -10.46,5.34 -24.34,14.14 -41.79,26.53 -17.4,12.33 -26.11,21.08 -26.11,26.21 0,2.08 6.14,9.88 18.47,23.38 12.28,13.5 22.96,23.43 31.87,29.84 8.97,6.41 17.72,9.6 26.16,9.6l5.12 -0.16c3.68,-0.21 5.5,1.44 5.5,4.86 0,4.59 -2.88,9.29 -8.59,13.98 -5.76,4.75 -13.28,7.15 -22.69,7.15 -6.03,0 -12.17,-2.13 -18.36,-6.34 -6.19,-4.22 -17.24,-15.59 -33.1,-34.16 -12.6,-15.32 -20.5,-24.5 -23.59,-27.44 -3.15,-2.99 -5.76,-4.48 -7.85,-4.48 -1.12,0 -4.8,2.71 -10.93,8.16 -6.14,5.4 -9.5,9.5 -10.1,12.34 -0.53,2.82 -0.85,13.56 -0.85,32.24l0 7.31c0,3.89 -1.82,7.31 -5.45,10.35 -3.68,3 -7.64,4.54 -11.9,4.54 -4.38,0 -7.8,-1.28 -10.3,-3.84 -2.51,-2.56 -3.79,-5.17 -3.79,-7.9 0,-3.74 1.44,-12.6 4.22,-26.58 4,-20.12 7.64,-47.09 10.94,-80.87 7.74,-79.75 13.66,-124.85 17.82,-135.32 4.22,-10.51 10.15,-15.75 17.83,-15.75 2.71,0 5.01,1.44 6.83,4.38 1.82,2.94 2.72,6.68 2.72,11.27 0,8.32 -3.58,30.47 -10.78,66.45 -7.2,36.08 -12.39,71.2 -15.65,105.42zm181.6 29.84l3.42 0c1.87,0 4.11,0.91 6.72,2.77 2.62,1.82 3.9,4.28 3.9,7.42 0,6.24 -1.07,10.83 -3.26,13.77 -2.19,2.88 -5.71,6.14 -10.57,9.66 -4.86,3.57 -8.27,5.34 -10.25,5.34 -4.38,0 -7.64,-1.02 -9.71,-2.99 -2.08,-1.98 -3.1,-7.37 -3.1,-16.28 0,-8.22 0.48,-13.13 1.39,-14.69 0.96,-1.54 3.2,-2.77 6.83,-3.68 3.57,-0.85 8.43,-1.33 14.63,-1.33zm100.56 52.1c-15.63,0 -27.7,-4.49 -36.08,-13.46 -8.38,-8.97 -12.6,-21.51 -12.6,-37.69 0,-27.21 10.78,-55.88 32.4,-86.09 21.57,-30.16 41.64,-45.27 60.21,-45.27 8.43,0 15.7,4.54 21.78,13.67 6.14,9.13 9.18,18.79 9.18,29.04 0,6.13 -1.33,11.42 -4,15.85 -2.66,4.44 -5.34,6.68 -8.06,6.68 -6.03,0 -10.3,-6.14 -12.81,-18.31 -2.82,-13.13 -6.88,-19.7 -12.22,-19.7 -10.84,0 -23.65,12.87 -38.43,38.59 -14.84,25.78 -22.21,47.51 -22.21,65.23 0,17.71 10.04,26.58 30.16,26.58 15.32,0 33.36,-7.21 54.13,-21.57 7.31,-5.12 12.65,-7.69 16.12,-7.69 3.52,0 5.29,2.03 5.29,6.13 0,7.91 -9.34,17.88 -27.97,29.95 -18.68,12.01 -36.99,18.05 -54.87,18.05zm165.26 -1.12c-14.25,0 -26.04,-5.4 -35.34,-16.23 -9.29,-10.83 -13.93,-24.24 -13.93,-40.2 0,-26.9 9.08,-53.43 27.16,-79.53 18.05,-26.11 39.71,-39.18 64.96,-39.18 16.65,0 30.21,6.41 40.57,19.27 10.36,12.81 15.58,28.07 15.58,45.8 0,27.11 -10.72,52.2 -32.13,75.37 -21.47,23.17 -43.72,34.7 -66.89,34.7zm-21.73 -60.48c0,10.52 2.19,19.12 6.63,25.78 4.43,6.67 10.3,10.04 17.61,10.04 15.53,0 31.12,-8.54 46.75,-25.57 15.65,-17.08 23.43,-36.03 23.43,-56.85 0,-12.86 -2.99,-23.21 -8.97,-31.22 -5.97,-7.96 -14.03,-11.95 -24.18,-11.95 -16.75,0 -31.17,10.3 -43.23,30.9 -12.01,20.56 -18.05,40.2 -18.05,58.88zm275.28 -70.99c-9.71,0.21 -30.48,28.93 -62.24,86.15 -10.78,19.27 -17.03,29.79 -18.79,31.49 -1.76,1.7 -5.01,3.26 -9.76,4.64 -4.75,1.34 -8.71,2.04 -11.8,2.04 -6.99,0 -10.51,-13.62 -10.51,-40.84 0,-15.31 3.31,-43.07 9.88,-83.21 2.72,-16.23 4.06,-27.87 4.06,-34.86 0,-6.88 3.1,-10.3 9.23,-10.3 11.59,0 17.35,8.32 17.35,24.98 0,7.85 -1.92,23.17 -5.76,46.02 -4.49,26.04 -6.78,41.9 -6.89,47.5 6.46,-6.24 15.96,-19.96 28.46,-41.09 17.71,-28.99 30.8,-47.35 39.18,-55.14 8.37,-7.75 17.08,-11.64 26.04,-11.64 6.78,0 12.18,4.54 16.17,13.61 4,9.08 6.47,30.69 7.26,64.91 0.21,8.54 1.02,14.89 2.35,19.05 1.38,4.17 2.35,6.24 2.99,6.24 4.91,0 15.53,-16.65 31.93,-50.01 8.75,-17.61 17.24,-31.02 25.56,-40.2 8.28,-9.18 17.46,-13.77 27.6,-13.77 8.43,0 14.58,4.38 18.42,13.08 3.89,8.7 6.62,21.56 8.32,38.69 1.55,17.29 3.95,33.15 7.26,47.51 3.26,14.4 9.29,23.64 18.05,27.7 5.97,2.82 8.91,6.08 8.91,9.88 0,3.63 -2.5,7.36 -7.47,11.21 -5.01,3.89 -9.6,5.82 -13.77,5.82 -8.38,0 -15.8,-5.12 -22.36,-15.32 -6.57,-10.25 -11.53,-32.35 -14.84,-66.29 -1.49,-13.67 -2.88,-23.38 -4.27,-29.09 -1.34,-5.76 -3.47,-8.64 -6.41,-8.64 -4.38,0 -9.56,4.22 -15.53,12.54 -6.03,8.33 -15.7,25.31 -29.04,50.82 -10.41,19.91 -18.31,33.2 -23.7,39.82 -5.34,6.62 -10.51,9.93 -15.52,9.93 -4.49,0 -8.49,-1.82 -12.06,-5.4 -3.53,-3.62 -5.77,-7.95 -6.73,-13.02 -0.91,-5.01 -1.93,-17.45 -2.94,-37.25 -1.6,-32.93 -4.43,-52.15 -8.59,-57.55z"/>
      </g>
      <path class="fil8 str6" d="M30302.92 18530.22c65.6,-60.74 161.15,-125.66 221.01,-80.66"/>
      <g>
       <polygon class="fil8 str7" points="26815.91,19774.63 27163.54,19774.63 27163.54,19988.65 26815.91,19988.65 "/>
       <polyline class="fil8 str7" points="26815.91,19774.63 26989.73,19903.03 27163.54,19774.63 "/>
      </g>
     </g>
     <polygon class="fil8" points="-0,0 42701.92,0 42701.92,21084.09 -0,21084.09 "/>
    </g>
</svg>
