<?xml version="1.0" encoding="UTF-8"?>
<!DOCTYPE svg PUBLIC "-//W3C//DTD SVG 1.1//EN" "http://www.w3.org/Graphics/SVG/1.1/DTD/svg11.dtd">
<!-- Creator: CorelDRAW 2020 -->
<svg xmlns="http://www.w3.org/2000/svg" xml:space="preserve" width="419.1mm" height="206.931mm" version="1.1" style="shape-rendering:geometricPrecision; text-rendering:geometricPrecision; image-rendering:optimizeQuality; fill-rule:evenodd; clip-rule:evenodd"
viewBox="0 0 43087.27 21274.35"
    xmlns:xlink="http://www.w3.org/1999/xlink"
    xmlns:xodm="http://www.corel.com/coreldraw/odm/2003">
 <defs>
  <style type="text/css">
   <![CDATA[
    .str4 {stroke:#FDFDFD;stroke-width:81.61;stroke-miterlimit:22.9256}
    .str1 {stroke:white;stroke-width:27.2;stroke-miterlimit:22.9256}
    .str3 {stroke:#FFFBF9;stroke-width:108.8;stroke-miterlimit:22.9256}
    .str6 {stroke:#ACA77B;stroke-width:41.12;stroke-miterlimit:22.9256}
    .str0 {stroke:#FEFEFE;stroke-width:54.41;stroke-miterlimit:22.9256}
    .str5 {stroke:#D2AE6D;stroke-width:54.41;stroke-miterlimit:22.9256}
    .str8 {stroke:#755C36;stroke-width:54.41;stroke-miterlimit:22.9256}
    .str7 {stroke:#ACA77B;stroke-width:36.27;stroke-miterlimit:22.9256}
    .str2 {stroke:white;stroke-width:36.27;stroke-miterlimit:22.9256}
    .fil7 {fill:none}
    .fil3 {fill:none;fill-rule:nonzero}
    .fil0 {fill:#6B470F}
    .fil5 {fill:#ABA994;fill-rule:nonzero}
    .fil4 {fill:#858474;fill-rule:nonzero}
    .fil6 {fill:#ACA77B;fill-rule:nonzero}
    .fil1 {fill:#D7CC75;fill-rule:nonzero}
    .fil8 {fill:#FBE18C;fill-rule:nonzero}
    .fil2 {fill:#FFC107;fill-opacity:0.501961}
   ]]>
  </style>
   <mask id="id0">
  <linearGradient id="id1" gradientUnits="userSpaceOnUse" x1="19374.3" y1="15714.69" x2="26531.38" y2="3878.6">
   <stop offset="0" style="stop-opacity:0; stop-color:white"/>
   <stop offset="1" style="stop-opacity:0.576471; stop-color:white"/>
  </linearGradient>
    <rect style="fill:url(#id1)" x="17067.59" y="5883.14" width="8810.87" height="8810.87"/>
   </mask>
 </defs>
 <g id="Layer_x0020_1">
  <metadata id="CorelCorpID_0Corel-Layer"/>
  <filter id="innerShadow" x="-20%" y="-20%" width="140%" height="140%">
   <feGaussianBlur in="SourceGraphic" stdDeviation="3" result="blur"/>
   <feOffset in="blur" dx="2.5" dy="2.5"/>
  </filter>
  <rect class="fil0" x="-0.01" y="10288.57" width="43087.26" height="10985.78"/>
  <path id="shadow" class="fil1" style="mask:url(#id0)" d="M25874.55 10288.58c0,-2430.89 -1970.63,-4401.52 -4401.52,-4401.52 -2430.89,0 -4401.51,1970.63 -4401.51,4401.52 0,2430.89 1970.62,4401.51 4401.51,4401.51 2430.89,0 4401.52,-1970.62 4401.52,-4401.51z" filter="url(#innerShadow)"/>
  <path class="fil2" d="M21543.64 10217.97c39,0 70.61,31.61 70.61,70.61l4166.14 0c0,-2339.9 -1896.85,-4236.75 -4236.75,-4236.75 -2339.89,0 -4236.75,1896.85 -4236.75,4236.75l4166.14 0c0,-39 31.61,-70.61 70.61,-70.61z"/>
  <circle id="circle" class="fil3 str0" cx="21543.64" cy="10288.58" r="4236.76"/>
  <line class="fil3 str1" x1="23895.6" y1="7051.4" x2="23757.25" y2= "7241.81" />
  <line class="fil3 str1" x1="25349.18" y1="9052.08" x2="25125.33" y2= "9124.82" />
  <line class="fil3 str1" x1="25349.18" y1="11525.07" x2="25125.33" y2= "11452.34" />
  <line class="fil3 str1" x1="23895.6" y1="13525.76" x2="23757.25" y2= "13335.34" />
  <line class="fil3 str2" x1="21543.64" y1="14350.2" x2="21543.64" y2= "13994.35" />
  <line class="fil3 str1" x1="19191.69" y1="13525.76" x2="19330.04" y2= "13335.34" />
  <line class="fil3 str1" x1="17738.1" y1="11525.07" x2="17961.96" y2= "11452.34" />
  <line class="fil3 str1" x1="17738.1" y1="9052.08" x2="17961.96" y2= "9124.82" />
  <line class="fil3 str1" x1="19191.69" y1="7051.4" x2="19330.04" y2= "7241.81" />
  <line class="fil3 str1" x1="21543.64" y1="6287.2" x2="21543.64" y2= "6522.58" />
  <path class="fil4" d="M18290.65 10077.33c24.21,-4.17 45.92,-19.81 65.12,-46.91 9,-12.55 16.89,-21.45 23.69,-26.72 6.81,-5.23 14.02,-7.91 21.71,-7.91 3.03,0 6.12,1.42 9.15,4.13 3.08,2.78 4.61,6.08 4.61,9.84 0,5.02 -4.7,8.93 -14.23,11.82 -5.02,1.51 -9.73,4.12 -14.12,7.79 -4.4,3.65 -12.72,12.44 -24.96,26.36 -9.62,10.83 -18.25,18.41 -25.89,22.8 -0.73,0.42 -1.1,0.78 -1.1,1.1 0,0.41 0.47,0.83 1.42,1.19 7.42,4.03 15.33,11.72 23.58,23.17 12.03,16.64 21.08,27.15 27.1,31.5 6.07,4.34 12.92,6.48 20.72,6.48l5.07 -0.15c3.56,-0.21 5.34,1.41 5.34,4.76 0,3.87 -2.2,7.95 -6.59,12.13 -4.4,4.19 -11.67,6.28 -21.76,6.28 -7.74,0 -15.27,-3.35 -22.6,-10.04 -7.32,-6.7 -15.64,-17.58 -25.04,-32.59 -5.45,-8.89 -10.47,-15.64 -15.17,-20.19 -4.7,-4.6 -9.93,-6.9 -15.64,-6.9 -1.2,0 -5.03,1 -11.35,3.03 -6.33,2.04 -9.88,4.03 -10.62,5.91 -0.78,1.88 -1.36,8.69 -1.73,20.4 -0.31,11.67 -0.52,21.13 -0.52,28.25 0,3.81 -1.78,7.16 -5.33,10.14 -3.62,2.94 -7.48,4.45 -11.68,4.45 -4.29,0 -7.63,-1.25 -10.09,-3.76 -2.47,-2.51 -3.72,-5.08 -3.72,-7.74 0,-3.67 1.42,-12.35 4.14,-26.05 4.9,-24.95 9.83,-66.07 14.74,-123.39 0.37,-5.49 2.46,-10.47 6.28,-14.91 3.76,-4.44 8.05,-6.69 12.87,-6.69 2.66,0 4.86,1.47 6.63,4.29 1.78,2.88 2.72,6.54 2.72,11.04 0,3.61 -0.63,7.68 -1.88,12.3 -5.81,21.13 -9.42,42.73 -10.88,64.79zm418.66 -19.45c1.09,-2.14 2.93,-14.96 5.33,-38.44 1.89,-18.83 7.84,-28.24 17.95,-28.24 8.26,0 12.44,4.17 12.44,12.44 0,1.94 -0.73,5.87 -2.14,11.77 -7.9,32.59 -11.81,59.94 -11.81,82.01 0,23.9 3.92,39.4 11.81,46.4 4.08,3.82 6.12,6.86 6.12,9.2 0,2.89 -2.09,5.5 -6.22,7.85 -4.13,2.35 -7.9,3.51 -11.25,3.51 -15.96,0 -23.91,-24.63 -23.91,-73.86 0,-3.29 -1.25,-4.92 -3.7,-4.92 -9.57,0 -21.34,0.59 -35.2,1.69 -13.92,1.14 -23.85,2.56 -29.81,4.29 -6.02,1.78 -9.67,3.34 -11.04,4.86 -1.41,1.46 -2.61,5.39 -3.71,11.76 -1.05,6.38 -1.57,13.03 -1.57,19.88l0 18.82c0,10.94 -5.02,16.43 -15.01,16.43 -8.42,0 -12.6,-5.49 -12.6,-16.43 0,-7.16 0.95,-16.26 2.77,-27.24 3.4,-20.24 6.75,-55.07 10.11,-104.51 0.41,-6.5 0.99,-10.57 1.72,-12.3 0.69,-1.73 2.57,-3.66 5.6,-5.76 2.98,-2.09 6.28,-3.14 9.88,-3.14 7.33,0 11.04,3.03 11.04,9.05 0,0.95 -1.2,8.58 -3.56,23.01 -2.46,14.39 -3.66,25.59 -3.66,33.54 0,5.64 1.93,8.42 5.8,8.42 7.79,0 21.98,-1.31 42.63,-3.87 20.61,-2.62 31.27,-4.71 32.01,-6.23zm-136.01 -62.82l-61.5 162.88 0 62.45 -27.61 0 0 -62.45 -61.83 -162.88 29.5 0 34.2 94.31c4.76,13.03 8.74,25.58 11.94,37.76 2.92,-11.13 6.95,-23.74 11.92,-37.76l33.9 -94.31 29.5 0z"/>
  <path class="fil1" d="M18304.02 10474.27c-9.52,0.21 -29.87,28.35 -61,84.43 -10.56,18.88 -16.68,29.18 -18.4,30.86 -1.73,1.67 -4.92,3.18 -9.57,4.54 -4.67,1.31 -8.53,1.99 -11.57,1.99 -6.85,0 -10.3,-13.34 -10.3,-40.02 0,-15.01 3.24,-42.2 9.67,-81.55 2.66,-15.89 3.97,-27.3 3.97,-34.15 0,-6.74 3.03,-10.1 9.06,-10.1 11.35,0 17,8.16 17,24.49 0,7.68 -1.89,22.69 -5.65,45.08 -4.39,25.52 -6.64,41.06 -6.74,46.55 6.33,-6.12 15.64,-19.56 27.87,-40.27 17.37,-28.41 30.18,-46.41 38.4,-54.04 8.21,-7.59 16.74,-11.4 25.53,-11.4 6.64,0 11.92,4.44 15.84,13.33 3.92,8.89 6.33,30.07 7.11,63.61 0.22,8.37 1,14.59 2.3,18.67 1.36,4.08 2.29,6.12 2.93,6.12 4.81,0 15.22,-16.32 31.27,-49.01 8.57,-17.26 16.89,-30.39 25.05,-39.39 8.11,-9 17.11,-13.5 27.04,-13.5 8.27,0 14.28,4.3 18.05,12.82 3.81,8.52 6.49,21.13 8.16,37.93 1.51,16.94 3.87,32.48 7.11,46.55 3.19,14.12 9.1,23.16 17.67,27.14 5.85,2.78 8.74,5.96 8.74,9.67 0,3.56 -2.47,7.22 -7.32,10.99 -4.92,3.81 -9.43,5.71 -13.5,5.71 -8.21,0 -15.48,-5.03 -21.92,-15.02 -6.44,-10.04 -11.3,-31.7 -14.54,-64.97 -1.47,-13.4 -2.83,-22.91 -4.19,-28.51 -1.31,-5.64 -3.39,-8.46 -6.27,-8.46 -4.29,0 -9.37,4.12 -15.22,12.29 -5.92,8.16 -15.38,24.79 -28.46,49.79 -10.2,19.51 -17.94,32.54 -23.22,39.03 -5.22,6.48 -10.3,9.73 -15.22,9.73 -4.4,0 -8.32,-1.78 -11.82,-5.28 -3.45,-3.56 -5.65,-7.79 -6.59,-12.76 -0.89,-4.92 -1.89,-17.11 -2.88,-36.52 -1.57,-32.27 -4.34,-51.1 -8.42,-56.38zm476.56 21.13c1.09,-2.14 2.93,-14.95 5.33,-38.44 1.89,-18.83 7.84,-28.24 17.95,-28.24 8.26,0 12.44,4.18 12.44,12.45 0,1.93 -0.73,5.86 -2.14,11.76 -7.9,32.59 -11.82,59.95 -11.82,82.02 0,23.9 3.93,39.39 11.82,46.39 4.08,3.82 6.12,6.86 6.12,9.21 0,2.88 -2.09,5.49 -6.22,7.84 -4.13,2.35 -7.9,3.51 -11.26,3.51 -15.95,0 -23.9,-24.63 -23.9,-73.86 0,-3.29 -1.25,-4.91 -3.7,-4.91 -9.58,0 -21.34,0.58 -35.2,1.68 -13.92,1.15 -23.85,2.56 -29.81,4.29 -6.02,1.78 -9.68,3.34 -11.04,4.86 -1.42,1.46 -2.61,5.39 -3.71,11.76 -1.05,6.39 -1.57,13.03 -1.57,19.88l0 18.82c0,10.94 -5.02,16.44 -15.01,16.44 -8.42,0 -12.6,-5.5 -12.6,-16.44 0,-7.16 0.95,-16.25 2.77,-27.24 3.4,-20.24 6.75,-55.07 10.1,-104.51 0.42,-6.49 1,-10.57 1.73,-12.3 0.69,-1.72 2.56,-3.66 5.6,-5.75 2.97,-2.1 6.27,-3.15 9.88,-3.15 7.33,0 11.04,3.03 11.04,9.05 0,0.95 -1.2,8.58 -3.56,23.02 -2.46,14.38 -3.66,25.58 -3.66,33.53 0,5.64 1.93,8.42 5.8,8.42 7.79,0 21.97,-1.31 42.63,-3.87 20.61,-2.61 31.27,-4.71 32.01,-6.23zm-136.01 -62.82l-61.5 162.88 0 62.46 -27.61 0 0 -62.46 -61.83 -162.88 29.5 0 34.2 94.31c4.76,13.03 8.74,25.58 11.94,37.77 2.92,-11.14 6.95,-23.75 11.92,-37.77l33.9 -94.31 29.5 0z"/>
  <path class="fil4" d="M21405.37 5690.3l49.91 -3.79c3.71,24.32 12.3,42.58 25.68,54.89 13.39,12.2 29.75,18.35 49.01,18.35 23.25,0 42.68,-8.68 58.5,-25.95 15.74,-17.35 23.6,-40.33 23.6,-68.9 0,-27.22 -7.51,-48.65 -22.6,-64.38 -15.11,-15.74 -35.09,-23.6 -59.96,-23.6 -15.46,0 -29.29,3.53 -41.59,10.59 -12.21,7.04 -21.8,16.18 -28.85,27.39l-45.03 -6.51 37.43 -199.66 192.6 0 0 45.58 -154.53 0 -20.71 104.8c23.23,-16.37 47.65,-24.51 73.15,-24.51 33.82,0 62.39,11.75 85.63,35.26 23.23,23.51 34.9,53.71 34.9,90.61 0,35.17 -10.22,65.55 -30.66,91.14 -24.86,31.47 -58.86,47.21 -101.9,47.21 -35.26,0 -64.02,-9.95 -86.35,-29.75 -22.33,-19.8 -35.09,-46.03 -38.26,-78.76z"/>
  <path class="fil5" d="M21440.61 15173.57l-47.73 0 0 -304c-11.48,11.03 -26.59,21.97 -45.22,32.91 -18.63,10.95 -35.44,19.17 -50.27,24.6l0 -46.12c26.68,-12.48 50.01,-27.67 69.99,-45.58 19.98,-17.82 34.17,-35.08 42.49,-51.9l30.74 0 0 390.08zm122.71 -191.7c0,-45.83 4.7,-82.92 14.11,-110.94 9.49,-28.13 23.51,-49.73 42.13,-64.84 18.54,-15.09 41.97,-22.6 70.18,-22.6 20.79,0 39.06,4.15 54.88,12.57 15.73,8.41 28.76,20.52 38.88,36.34 10.13,15.74 18.08,35 23.86,57.69 5.88,22.7 8.78,53.35 8.78,91.78 0,45.58 -4.7,82.46 -14.01,110.5 -9.31,28.13 -23.34,49.73 -41.96,64.92 -18.55,15.2 -42.05,22.78 -70.43,22.78 -37.35,0 -66.73,-13.29 -88.08,-39.96 -25.59,-32.56 -38.34,-85.27 -38.34,-158.24zm48.82 0.19c0,63.93 7.41,106.43 22.33,127.4 14.92,21.07 33.37,31.56 55.26,31.56 21.88,0 40.32,-10.58 55.24,-31.64 14.92,-21.17 22.34,-63.57 22.34,-127.32 0,-63.93 -7.42,-106.43 -22.34,-127.4 -14.83,-21.07 -33.45,-31.56 -55.78,-31.56 -21.89,0 -39.43,9.31 -52.54,27.85 -16.37,23.6 -24.51,67.36 -24.51,131.11z"/>
  <path class="fil4" d="M18920.16 6386.05l-47.2 3.8c-4.25,-18.72 -10.31,-32.37 -18.18,-40.88 -12.93,-13.65 -28.94,-20.44 -47.92,-20.44 -15.29,0 -28.85,4.26 -40.52,12.76 -15.01,10.94 -26.76,26.85 -35.53,47.83 -8.69,21.08 -13.2,51 -13.56,89.79 11.48,-17.45 25.59,-30.47 42.22,-38.88 16.63,-8.5 34,-12.75 52.26,-12.75 31.83,0 58.95,11.75 81.38,35.17 22.33,23.42 33.55,53.63 33.55,90.79 0,24.42 -5.24,47.01 -15.73,68 -10.58,20.97 -24.96,36.97 -43.41,48.09 -18.35,11.12 -39.24,16.74 -62.58,16.74 -39.69,0 -72.15,-14.66 -97.29,-43.86 -25.04,-29.21 -37.62,-77.39 -37.62,-144.5 0,-75.04 13.93,-129.66 41.69,-163.75 24.23,-29.65 56.87,-44.49 98.02,-44.49 30.55,0 55.7,8.59 75.24,25.68 19.52,17.09 31.27,40.69 35.17,70.89zm-195.31 167.65c0,16.45 3.52,32.19 10.48,47.19 6.97,15.01 16.74,26.41 29.13,34.28 12.48,7.86 25.68,11.84 39.69,11.84 20.34,0 37.7,-8.14 52.07,-24.42 14.38,-16.27 21.62,-38.34 21.62,-66.27 0,-26.85 -7.16,-48.02 -21.34,-63.48 -14.2,-15.45 -32.28,-23.23 -54.25,-23.23 -21.52,0 -39.87,7.78 -54.89,23.23 -15.01,15.46 -22.5,35.73 -22.5,60.86z"/>
  <path class="fil4" d="M17065.21 8742.46l0 -45.58 251.19 0 0 36.89c-24.68,26.32 -49.29,61.32 -73.51,104.99 -24.32,43.66 -43.05,88.61 -56.34,134.81 -9.49,32.47 -15.65,68.18 -18.26,106.88l-48.82 0c0.53,-30.55 6.51,-67.55 17.99,-110.86 11.48,-43.4 27.84,-85.18 49.28,-125.41 21.43,-40.24 44.22,-74.16 68.36,-101.73l-189.89 0z"/>
  <path class="fil5" d="M24325.85 14253.35l-47.73 0 0 -304c-11.48,11.03 -26.59,21.97 -45.22,32.91 -18.63,10.95 -35.44,19.17 -50.27,24.59l0 -46.11c26.68,-12.48 50.01,-27.67 69.99,-45.58 19.98,-17.82 34.17,-35.08 42.49,-51.91l30.74 0 0 390.09z"/>
  <path class="fil5" d="M26087.83 11883.93l0 45.58 -257.16 0c-0.37,-11.48 1.52,-22.52 5.6,-33.19 6.59,-17.45 17.18,-34.72 31.73,-51.63 14.56,-16.9 35.37,-36.44 62.39,-58.59 42.05,-34.64 70.63,-62.02 85.55,-82.28 15.01,-20.26 22.5,-39.43 22.5,-57.51 0,-18.9 -6.78,-34.82 -20.34,-47.84 -13.57,-12.92 -31.3,-19.44 -53.08,-19.44 -23.06,0 -41.5,6.87 -55.34,20.62 -13.84,13.65 -20.8,32.64 -20.97,56.96l-48.83 -4.87c3.35,-36.54 16.01,-64.38 37.89,-83.55 21.98,-19.17 51.36,-28.76 88.34,-28.76 37.26,0 66.83,10.31 88.52,31.02 21.8,20.71 32.65,46.39 32.65,76.94 0,15.56 -3.17,30.84 -9.59,45.85 -6.32,15.09 -16.9,30.91 -31.64,47.56 -14.83,16.54 -39.33,39.43 -73.51,68.36 -28.66,24.06 -47.11,40.33 -55.25,48.92 -8.13,8.59 -14.83,17.18 -20.17,25.86l190.71 0z"/>
  <path class="fil4" d="M25849.02 8951.01l47.74 -6.51c5.51,27.12 14.73,46.65 27.85,58.59 13.11,11.94 29.2,17.9 48.28,17.9 22.61,0 41.69,-7.77 57.06,-23.33 15.37,-15.54 23.05,-34.81 23.05,-57.78 0,-21.88 -7.13,-39.96 -21.52,-54.25 -14.28,-14.19 -32.46,-21.33 -54.61,-21.33 -9.04,0 -20.25,1.8 -33.73,5.34l5.35 -41.78c3.16,0.37 5.78,0.54 7.68,0.54 20.44,0 38.7,-5.34 55.07,-15.91 16.27,-10.58 24.41,-26.85 24.41,-48.83 0,-17.45 -5.96,-31.91 -17.82,-43.4 -11.84,-11.48 -27.12,-17.18 -45.84,-17.18 -18.63,0 -34.09,5.87 -46.47,17.63 -12.39,11.75 -20.36,29.39 -23.87,52.9l-47.74 -8.69c5.87,-32 19.08,-56.86 39.78,-74.5 20.62,-17.63 46.39,-26.41 77.14,-26.41 21.16,0 40.68,4.52 58.5,13.66 17.91,9.04 31.56,21.43 40.96,37.07 9.5,15.73 14.2,32.37 14.2,50 0,16.73 -4.51,31.92 -13.47,45.67 -9.05,13.75 -22.43,24.68 -40.05,32.83 22.97,5.23 40.77,16.27 53.52,33 12.67,16.63 19,37.61 19,62.66 0,33.91 -12.39,62.75 -37.08,86.35 -24.77,23.59 -56.06,35.36 -93.85,35.36 -34.09,0 -62.39,-10.22 -84.91,-30.57 -22.61,-20.34 -35.45,-46.65 -38.6,-79.03z"/>
  <path class="fil4" d="M24294.76 6694.07l0 -92.77 -168.74 0 0 -43.94 177.42 -251.74 39.06 0 0 251.74 52.63 0 0 43.94 -52.63 0 0 92.77 -47.73 0zm0 -136.72l0 -174.79 -121.81 174.79 121.81 0z"/>
  <path class="fil5" d="M17077.23 11713.65c-19.8,-7.23 -34.45,-17.62 -44.03,-31.02 -9.49,-13.47 -14.29,-29.56 -14.29,-48.28 0,-28.3 10.13,-51.99 30.38,-71.26 20.35,-19.26 47.29,-28.93 81.02,-28.93 33.81,0 61.12,9.86 81.74,29.57 20.61,19.71 30.92,43.67 30.92,71.98 0,18 -4.71,33.72 -14.11,47.02 -9.41,13.38 -23.7,23.69 -42.95,30.91 23.78,7.78 41.77,20.25 54.16,37.62 12.39,17.27 18.63,37.89 18.63,61.94 0,33.19 -11.76,61.03 -35.17,83.64 -23.51,22.61 -54.34,33.91 -92.59,33.91 -38.26,0 -69.09,-11.3 -92.6,-33.99 -23.42,-22.7 -35.17,-51 -35.17,-84.91 0,-25.23 6.42,-46.39 19.27,-63.38 12.84,-17.1 31.09,-28.67 54.79,-34.82zm-9.49 -81.01c0,18.44 5.87,33.46 17.54,45.12 11.75,11.66 27.12,17.54 46.2,17.54 18.54,0 33.55,-5.79 45.22,-17.36 11.66,-11.58 17.46,-25.76 17.46,-42.58 0,-17.54 -5.97,-32.28 -18,-44.22 -11.94,-11.94 -27.04,-17.91 -45.21,-17.91 -18.36,0 -33.46,5.88 -45.4,17.55 -11.83,11.67 -17.81,25.59 -17.81,41.86zm-15.73 179.58c0,13.65 3.16,26.77 9.49,39.51 6.33,12.67 15.9,22.52 28.75,29.48 12.76,6.97 26.49,10.5 41.06,10.5 22.96,0 41.77,-7.32 56.51,-21.97 14.73,-14.65 22.06,-33.27 22.06,-55.88 0,-22.97 -7.6,-41.97 -22.7,-56.98 -15.18,-15.01 -34.36,-22.5 -57.42,-22.5 -22.61,0 -41.13,7.41 -55.79,22.24 -14.64,14.83 -21.96,33.37 -21.96,55.61z"/>
  <path class="fil5" d="M18678.85 14187.43l45.56 -3.8c3.89,21.52 11.3,37.07 22.24,46.75 10.95,9.67 24.96,14.56 42.14,14.56 14.65,0 27.49,-3.34 38.62,-10.13 11.12,-6.69 20.16,-15.64 27.12,-26.95 6.96,-11.22 12.84,-26.4 17.63,-45.48 4.8,-19.08 7.15,-38.51 7.15,-58.32 0,-2.08 -0.09,-5.33 -0.27,-9.58 -9.5,15.2 -22.52,27.58 -38.97,36.98 -16.46,9.5 -34.36,14.2 -53.53,14.2 -32.1,0 -59.23,-11.67 -81.47,-34.99 -22.16,-23.25 -33.28,-54 -33.28,-92.15 0,-39.42 11.58,-71.07 34.82,-95.12 23.14,-23.96 52.17,-35.99 87.16,-35.99 25.14,0 48.2,6.79 69.17,20.44 20.89,13.56 36.71,32.92 47.56,58.14 10.86,25.15 16.27,61.58 16.27,109.23 0,49.64 -5.33,89.16 -16.09,118.54 -10.76,29.48 -26.85,51.82 -48.1,67.19 -21.25,15.37 -46.12,23.06 -74.69,23.06 -30.38,0 -55.16,-8.41 -74.41,-25.32 -19.17,-16.9 -30.74,-40.69 -34.63,-71.25zm194.76 -171.35c0,-27.32 -7.24,-49.01 -21.7,-65.02 -14.38,-16.01 -31.92,-24.05 -52.54,-24.05 -21.34,0 -39.79,8.58 -55.34,25.86 -15.64,17.27 -23.42,39.69 -23.42,67.19 0,24.67 7.42,44.75 22.16,60.12 14.84,15.47 33.28,23.15 55.25,23.15 22.06,0 40.15,-7.68 54.34,-23.15 14.2,-15.37 21.25,-36.8 21.25,-64.1z"/>
   <line id="hourhand" class="fil3 str3" x1="21543.64" y1="10288.58" x2="24904.73" y2= "9695.92" >
      <animateTransform attributeName="transform" attributeType="XML" type="rotate" dur="43200s" repeatCount="indefinite" from="463 200 200" to="103 200 200"/>
   </line>
    <line id="minutehand" class="fil3 str4" x1="21543.64" y1="10288.58" x2="21543.64" y2= "6735.99" >
        <animateTransform attributeName="transform" attributeType="XML" type="rotate" dur="3600s" repeatCount="indefinite" from="60 200 200" to="-300 200 200"/>
    </line>
     <path id="secondhand" class="fil3 str5" d="M21543.64 10288.58c0,-1333.79 0,-2667.59 0,-4001.38">
          <animateTransform attributeName="transform" attributeType="XML" type="rotate" dur="60s" repeatCount="indefinite" from="96 200 200" to="-264 200 200"/>
     </path>
     <g id="_1604445168">
      <g>
       <path class="fil6" d="M30178.35 20772.23c39.55,-73.02 72.08,-109.52 97.71,-109.52 6.8,0 12.35,3.92 16.59,11.65 4.24,7.78 7.67,24.97 10.33,51.63 2.66,28.4 8.65,48.91 18.01,61.53 4.78,6.47 7.18,11.26 7.18,14.36 0,2.77 -1.57,5.33 -4.79,7.67 -3.16,2.33 -6.58,3.47 -10.17,3.47 -8.33,0 -15.62,-4.62 -22.03,-13.92 -6.36,-9.3 -10.45,-25.63 -12.24,-49.02 -1.8,-22.09 -3.75,-36.56 -5.77,-43.36 -2.02,-6.8 -5.33,-10.22 -10.01,-10.22 -11.14,0 -33.62,29.21 -67.4,87.53 -10.12,17.41 -17.57,28.83 -22.36,34.16 -4.78,5.39 -9.14,8.05 -13.06,8.05 -4.68,0 -8.59,-1.36 -11.8,-4.13 -3.16,-2.78 -4.79,-6.15 -4.79,-10.17 0,-3 0.87,-8.76 2.56,-17.25 13.11,-67.46 23.39,-134.21 30.96,-200.2 1.69,-15.4 4.41,-25.63 8.21,-30.74 3.75,-5.11 6.91,-7.67 9.47,-7.67 4.56,0 8.7,1.9 12.4,5.6 3.75,3.7 5.6,8.86 5.6,15.45 0,19.59 -4.78,46.4 -14.36,80.51 -4.68,16.87 -9.62,38.36 -14.79,64.36 -5.22,26.06 -7.83,42.16 -7.83,48.31 0,1.25 0.6,1.91 1.74,1.91l0.66 0zm243.07 -113c10.94,-0.87 21.27,-1.85 30.9,-3.05 9.57,-1.03 17.57,-1.57 23.93,-1.57 8.06,0 13.17,0.76 15.29,2.23 2.13,1.47 3.22,4.08 3.22,7.83 0,8.59 -6.05,13.27 -18.01,13.98 -15.45,0.98 -29.6,2.28 -42.59,4.03 -12.95,1.69 -19.91,3.09 -20.95,4.18 -0.98,1.14 -4.18,13.77 -9.62,37.92 -5.44,24.21 -8.16,39.88 -8.16,47.12 0,11.7 1.57,19.47 4.63,23.34 3.09,3.92 7.72,5.82 13.87,5.82 9.14,0 21.87,-6.86 38.14,-20.56 6.25,-5.6 11.09,-8.43 14.47,-8.43 4.58,0 6.86,2.45 6.86,7.34 0,7.67 -7.34,17.57 -22.08,29.7 -14.69,12.19 -29.76,18.28 -45.16,18.28 -25.72,0 -38.56,-15.17 -38.56,-45.42 0,-10.94 2.66,-27.91 7.94,-50.87 5.22,-22.84 7.83,-36.56 7.83,-41.12 0,-1.58 -1.31,-2.4 -3.8,-2.4l-16.59 1.47c-13.6,0 -20.4,-5.45 -20.4,-16.27 0,-6.15 3.09,-9.24 9.41,-9.24l32.81 0c2.23,0 4.18,-1.04 5.93,-3.04 1.69,-2.02 4.18,-8.76 7.45,-20.29 3.31,-11.54 6.25,-22.96 8.76,-34.23 2.55,-11.15 7.56,-16.7 15.01,-16.7 4.58,0 8.11,1.57 10.66,4.78 2.56,3.16 3.81,6.15 3.81,8.92 0,1.47 -1.91,9.09 -5.72,22.79l-9.25 33.46zm153.03 0c10.94,-0.87 21.27,-1.85 30.9,-3.05 9.57,-1.03 17.57,-1.57 23.93,-1.57 8.06,0 13.17,0.76 15.29,2.23 2.13,1.47 3.22,4.08 3.22,7.83 0,8.59 -6.05,13.27 -18.01,13.98 -15.45,0.98 -29.6,2.28 -42.59,4.03 -12.95,1.69 -19.91,3.09 -20.95,4.18 -0.98,1.14 -4.18,13.77 -9.62,37.92 -5.44,24.21 -8.16,39.88 -8.16,47.12 0,11.7 1.57,19.47 4.63,23.34 3.09,3.92 7.72,5.82 13.87,5.82 9.14,0 21.87,-6.86 38.14,-20.56 6.25,-5.6 11.09,-8.43 14.47,-8.43 4.58,0 6.86,2.45 6.86,7.34 0,7.67 -7.34,17.57 -22.08,29.7 -14.69,12.19 -29.76,18.28 -45.16,18.28 -25.72,0 -38.56,-15.17 -38.56,-45.42 0,-10.94 2.66,-27.91 7.94,-50.87 5.22,-22.84 7.83,-36.56 7.83,-41.12 0,-1.58 -1.31,-2.4 -3.8,-2.4l-16.59 1.47c-13.6,0 -20.4,-5.45 -20.4,-16.27 0,-6.15 3.09,-9.24 9.41,-9.24l32.81 0c2.23,0 4.18,-1.04 5.93,-3.04 1.69,-2.02 4.18,-8.76 7.45,-20.29 3.31,-11.54 6.25,-22.96 8.76,-34.23 2.55,-11.15 7.56,-16.7 15.01,-16.7 4.58,0 8.11,1.57 10.66,4.78 2.56,3.16 3.81,6.15 3.81,8.92 0,1.47 -1.91,9.09 -5.72,22.79l-9.25 33.46zm118.93 142.32c-5.22,19.15 -10.07,45.97 -14.64,80.52l-4.46 30.08c-0.76,4.25 -2.71,8.48 -5.93,12.68 -3.16,4.18 -6.09,6.31 -8.76,6.31 -3.31,0 -7.01,-1.69 -11.26,-5.01 -4.18,-3.37 -6.25,-6.05 -6.25,-8.05 0,-5.88 1.31,-13.93 3.97,-24.26 19.42,-78.51 29.16,-147.49 29.16,-206.84l-0.16 -13.39c-0.22,-11.48 1.8,-19.86 6.05,-25.02 4.3,-5.22 9.14,-7.83 14.68,-7.83 2.56,0 5.01,2 7.35,5.98 2.33,3.97 3.47,9.62 3.47,16.97 0,10.28 -1.03,22.79 -3.15,37.42 -2.78,18.51 -4.19,29.17 -4.31,31.88 15.83,-27.58 32.59,-49.17 50.33,-64.68 17.73,-15.51 34.23,-23.29 49.45,-23.29 10.72,0 19.75,4.02 27.15,12.02 7.4,8.05 11.09,18.01 11.09,29.93 0,34.6 -13.27,66.1 -39.87,94.33 -26.56,28.29 -52.45,42.39 -77.58,42.39 -6.31,0 -11.27,-1.58 -14.91,-4.74 -3.7,-3.21 -7.51,-9.03 -11.42,-17.41zm98.95 -128.29c-14.96,0 -33.52,14.03 -55.6,42.06 -22.08,28.07 -33.14,49.88 -33.14,65.5 0,3.86 2.18,7.56 6.53,11.14 4.36,3.65 9.85,5.45 16.54,5.45 15.24,0 32.69,-11.27 52.44,-33.73 19.8,-22.47 29.65,-44.51 29.65,-66.21 0,-7.78 -1.57,-13.71 -4.68,-17.95 -3.16,-4.19 -7.07,-6.26 -11.75,-6.26zm161.46 110.27c0,-6.91 -8.48,-14.74 -25.46,-23.55 -21.6,-11.1 -36.18,-19.91 -43.8,-26.55 -7.56,-6.64 -11.37,-14.1 -11.37,-22.26 0,-21.16 10.61,-38.68 31.77,-52.61 21.22,-13.92 38.52,-20.89 51.91,-20.89 8.59,0 14.85,1.52 18.71,4.46 3.87,2.99 5.82,8.16 5.82,15.5 0,3.27 -1.41,6.1 -4.24,8.44 -2.78,2.33 -5.01,3.47 -6.59,3.47 -1.19,0 -3.47,-0.76 -6.86,-2.4 -3.42,-1.46 -5.65,-2.23 -6.68,-2.23 -5.34,0 -16.11,3.92 -32.37,11.65 -16.26,7.78 -24.38,16.54 -24.38,26.33 0,5.93 2.89,11.32 8.59,16.16 5.77,4.84 16.06,10.76 30.9,17.79 12.03,5.72 21.6,11.86 28.78,18.39 7.19,6.53 10.77,14.2 10.77,23.01 0,16.26 -11.21,28.99 -33.62,38.19 -22.41,9.19 -43.85,13.77 -64.26,13.82 -17.19,-0.05 -25.78,-5.88 -25.78,-17.57 0,-4.03 1.9,-7.02 5.82,-8.92 3.87,-1.9 7.78,-2.89 11.7,-2.89 1.58,0 4.63,0.54 9.09,1.63 4.35,1.04 7.24,1.58 8.59,1.58 11.8,0 24.43,-1.96 37.92,-5.88 13.5,-3.97 21.87,-8.87 25.02,-14.69zm83.24 -84.92c-2.66,0 -5.49,-2.5 -8.54,-7.51 -3.04,-5.01 -4.56,-9.14 -4.56,-12.46 0,-1.47 1.69,-5.17 5.06,-11.04 3.32,-5.93 8.59,-8.87 15.83,-8.87 0.76,0 3.47,1.36 8.16,4.08 4.68,2.72 7.39,4.89 8.27,6.53 0.87,1.63 1.25,4.63 1.25,9.03 0,3.81 -2.18,8.11 -6.53,12.95 -4.36,4.84 -10.67,7.29 -18.94,7.29zm-0.65 118.22c-6.15,0 -10.29,-1.52 -12.36,-4.68 -2.07,-3.16 -3.09,-7.9 -3.09,-14.26 0,-5.22 0.22,-9.08 0.65,-11.64 0.38,-2.56 2.51,-5.22 6.36,-8.05 3.81,-2.83 7.07,-4.25 9.68,-4.25 5.01,0 9.74,1.09 14.2,3.26 4.46,2.18 6.69,5.39 6.69,9.52 0,8.82 -3.32,16.06 -9.95,21.66 -6.64,5.65 -10.72,8.43 -12.18,8.43zm61.52 24.1c-2.66,0 -5.39,-1.42 -8.16,-4.13 -2.71,-2.78 -4.13,-5.55 -4.13,-8.33 0,-1.9 2.61,-8.38 7.9,-19.42 5.27,-11.04 13.6,-25.3 25.02,-42.81 11.42,-17.47 21.82,-32.43 31.17,-44.89 0.93,-1.25 1.74,-2.4 2.4,-3.49 6.8,-11.04 16.76,-26.11 29.97,-45.26 14.21,-20.29 26.82,-39.55 37.76,-57.73 5.11,-8.38 11.92,-18.17 20.4,-29.37 8.49,-11.21 14.64,-16.82 18.34,-16.82 2.12,0 4.78,1.91 7.94,5.72 3.21,3.87 4.79,6.91 4.79,9.25 0,4.13 -7.24,16.15 -21.65,36.01 -31.23,42.65 -61.2,85.35 -89.93,128.17 -3.49,5.22 -8.44,12.35 -14.8,21.49 -10.61,15.72 -17.08,26.39 -19.42,31.88 -2.33,5.55 -7.12,13.55 -14.31,24 -7.18,10.5 -11.59,15.72 -13.27,15.72zm187.75 0c-2.66,0 -5.39,-1.42 -8.16,-4.13 -2.71,-2.78 -4.13,-5.55 -4.13,-8.33 0,-1.9 2.61,-8.38 7.9,-19.42 5.27,-11.04 13.6,-25.3 25.02,-42.81 11.42,-17.47 21.82,-32.43 31.17,-44.89 0.93,-1.25 1.74,-2.4 2.4,-3.49 6.8,-11.04 16.76,-26.11 29.97,-45.26 14.21,-20.29 26.82,-39.55 37.76,-57.73 5.11,-8.38 11.92,-18.17 20.4,-29.37 8.49,-11.21 14.64,-16.82 18.34,-16.82 2.12,0 4.78,1.91 7.94,5.72 3.21,3.87 4.79,6.91 4.79,9.25 0,4.13 -7.24,16.15 -21.65,36.01 -31.23,42.65 -61.2,85.35 -89.93,128.17 -3.49,5.22 -8.44,12.35 -14.8,21.49 -10.61,15.72 -17.08,26.39 -19.42,31.88 -2.33,5.55 -7.12,13.55 -14.31,24 -7.18,10.5 -11.59,15.72 -13.27,15.72zm308.85 -72.85c-0.48,-0.22 -1.9,0.93 -4.13,3.49 -14.85,16.48 -29.04,28.89 -42.54,37.22 -13.49,8.38 -26.33,12.51 -38.57,12.51 -9.79,0 -17.57,-4.08 -23.44,-12.36 -5.82,-8.21 -8.76,-18.71 -8.76,-31.44 0,-28.94 13.27,-59.19 39.88,-90.8 26.55,-31.6 53.37,-47.38 80.46,-47.38 10.01,0 16.38,5.72 19.15,17.19 0.93,3.43 2.99,5.39 6.2,5.93 9.9,2.28 14.79,7.72 14.79,16.21 0,6.1 -2.5,19.09 -7.45,39.06 -3.54,13.93 -8.86,40.04 -16.1,78.45 -7.24,38.36 -11.1,66.81 -11.65,85.41 -0.43,12.3 -0.81,20.67 -1.14,25.02 -0.32,4.35 -2.12,7.78 -5.49,10.33 -3.32,2.56 -7.34,3.87 -12.03,3.87 -4.45,0 -7.94,-1.74 -10.5,-5.22 -2.56,-3.42 -3.87,-7.78 -3.87,-12.94 0,-3.32 1.75,-14.58 5.12,-33.9 3.42,-19.26 7.07,-37.59 10.99,-54.89 4.56,-20.95 7.62,-36.18 9.08,-45.76zm12.3 -76.33c0,-16.59 -6.3,-24.86 -18.98,-24.86 -15.51,0 -33.46,12.68 -53.86,38.13 -20.41,25.47 -30.63,48.8 -30.63,70.07 0,13.06 4.35,19.59 12.94,19.59 16.05,0 35.14,-11.92 57.29,-35.8 22.15,-23.83 33.24,-46.24 33.24,-67.13zm172.58 70.29c-14.86,19.97 -29.6,34.92 -44.13,44.94 -14.58,9.95 -27.91,14.96 -40.04,14.96 -8.15,0 -15.23,-3.42 -21.16,-10.33 -5.98,-6.91 -8.92,-15.78 -8.92,-26.66 0,-27.91 12.46,-57.99 37.43,-90.26 24.97,-32.26 49.78,-48.36 74.42,-48.36 8.92,0 15.56,5.06 19.97,15.29 1.36,3.37 3.54,5.11 6.53,5.11 8.48,0 12.73,3.27 12.73,9.85 0,3.32 -0.54,7.83 -1.57,13.54 -5.77,31.34 -8.61,53.48 -8.61,66.32 0,25.73 4.84,41.13 14.64,46.24 4.68,2.56 7.02,5.65 7.02,9.36 0,3.32 -2.29,6.64 -6.86,10.01 -4.58,3.32 -8.98,5.01 -13.22,5.01 -8.21,0 -14.96,-5.66 -20.24,-16.92 -5.33,-11.26 -7.99,-27.32 -7.99,-48.09zm-9.68 -89.76c-14.04,0 -30.36,13.16 -48.97,39.44 -18.61,26.33 -27.91,48.15 -27.91,65.45 0,12.18 4.08,18.33 12.14,18.33 11.69,0 27.9,-11.8 48.63,-35.41 20.73,-23.56 31.07,-45.27 31.07,-65.02 0,-15.17 -5.01,-22.79 -14.96,-22.79zm149.61 -122.09c7.67,0 11.47,4.9 11.47,14.69 0,8.71 -4.63,29.43 -13.87,62.13 -5.82,20.62 -10.34,43.36 -13.55,68.22 -3.21,24.86 -4.78,44.34 -4.78,58.48 0,17.52 1.14,34.99 3.37,52.29 0.43,3.32 0.6,5.71 0.6,7.18 0,5.34 -1.8,9.9 -5.39,13.71 -3.65,3.8 -7.45,5.71 -11.48,5.71 -5.65,0 -9.52,-3.47 -11.69,-10.5 -2.18,-7.02 -3.27,-18.33 -3.27,-33.95 0,-35.58 4.25,-79.7 12.79,-132.31 8.59,-52.56 15.39,-83.35 20.4,-92.27 5.06,-8.92 10.18,-13.39 15.4,-13.39zm68.39 251.35c-5.22,19.15 -10.07,45.97 -14.64,80.52l-4.46 30.08c-0.76,4.25 -2.71,8.48 -5.93,12.68 -3.16,4.18 -6.09,6.31 -8.76,6.31 -3.31,0 -7.01,-1.69 -11.26,-5.01 -4.18,-3.37 -6.25,-6.05 -6.25,-8.05 0,-5.88 1.31,-13.93 3.97,-24.26 19.42,-78.51 29.16,-147.49 29.16,-206.84l-0.16 -13.39c-0.22,-11.48 1.8,-19.86 6.05,-25.02 4.3,-5.22 9.14,-7.83 14.68,-7.83 2.56,0 5.01,2 7.35,5.98 2.33,3.97 3.47,9.62 3.47,16.97 0,10.28 -1.03,22.79 -3.15,37.42 -2.78,18.51 -4.19,29.17 -4.31,31.88 15.83,-27.58 32.59,-49.17 50.33,-64.68 17.73,-15.51 34.23,-23.29 49.45,-23.29 10.72,0 19.75,4.02 27.15,12.02 7.4,8.05 11.09,18.01 11.09,29.93 0,34.6 -13.27,66.1 -39.87,94.33 -26.56,28.29 -52.45,42.39 -77.58,42.39 -6.31,0 -11.27,-1.58 -14.91,-4.74 -3.7,-3.21 -7.51,-9.03 -11.42,-17.41zm98.95 -128.29c-14.96,0 -33.52,14.03 -55.6,42.06 -22.08,28.07 -33.14,49.88 -33.14,65.5 0,3.86 2.18,7.56 6.53,11.14 4.36,3.65 9.85,5.45 16.54,5.45 15.24,0 32.69,-11.27 52.44,-33.73 19.8,-22.47 29.65,-44.51 29.65,-66.21 0,-7.78 -1.57,-13.71 -4.68,-17.95 -3.16,-4.19 -7.07,-6.26 -11.75,-6.26zm188.73 88.79c-14.86,19.97 -29.6,34.92 -44.13,44.94 -14.58,9.95 -27.91,14.96 -40.04,14.96 -8.15,0 -15.23,-3.42 -21.16,-10.33 -5.98,-6.91 -8.92,-15.78 -8.92,-26.66 0,-27.91 12.46,-57.99 37.43,-90.26 24.97,-32.26 49.78,-48.36 74.42,-48.36 8.92,0 15.56,5.06 19.97,15.29 1.36,3.37 3.54,5.11 6.53,5.11 8.48,0 12.73,3.27 12.73,9.85 0,3.32 -0.54,7.83 -1.57,13.54 -5.77,31.34 -8.61,53.48 -8.61,66.32 0,25.73 4.84,41.13 14.64,46.24 4.68,2.56 7.02,5.65 7.02,9.36 0,3.32 -2.29,6.64 -6.86,10.01 -4.58,3.32 -8.98,5.01 -13.22,5.01 -8.21,0 -14.96,-5.66 -20.24,-16.92 -5.33,-11.26 -7.99,-27.32 -7.99,-48.09zm-9.68 -89.76c-14.04,0 -30.36,13.16 -48.97,39.44 -18.61,26.33 -27.91,48.15 -27.91,65.45 0,12.18 4.08,18.33 12.14,18.33 11.69,0 27.9,-11.8 48.63,-35.41 20.73,-23.56 31.07,-45.27 31.07,-65.02 0,-15.17 -5.01,-22.79 -14.96,-22.79zm202.38 25.19c-5.55,0 -11.59,3.59 -18.11,10.83 -6.53,7.24 -16.49,23.45 -29.88,48.64 -17.62,33.78 -29.04,52.99 -34.16,57.67 -5.16,4.68 -9.47,7.01 -12.84,7.01 -12.56,0 -18.82,-6.03 -18.82,-18.17 0,-5.06 0.87,-12.3 2.56,-21.65 5.82,-32.1 8.76,-65.94 8.76,-101.51 0,-4.08 1.74,-8.54 5.17,-13.5 3.49,-4.95 6.74,-7.39 9.79,-7.39 5.55,0 9.47,1.69 11.81,5.11 2.33,3.37 3.54,10.23 3.54,20.56 0,10.72 -3.22,32.81 -9.58,66.27 -2.12,11.04 -3.21,18.05 -3.21,21.05 0,1.7 0.43,2.56 1.31,2.56 1.58,0 8.98,-12.73 22.15,-38.08 13.27,-25.85 24.91,-44.01 34.87,-54.51 10,-10.56 20.99,-15.78 33.02,-15.78 9.57,0 17.35,4.36 23.34,13.06 5.98,8.71 10.39,24.59 13.16,47.66 3,26.22 5.66,42.59 8.06,49.01 2.39,6.43 6.2,9.63 11.37,9.63 3.31,0 7.45,-1.14 12.45,-3.49 0.82,-0.43 1.47,-0.65 1.91,-0.65 4.56,0 6.85,2.66 6.85,7.95 0,4.68 -3.16,9.67 -9.41,14.9 -6.26,5.28 -13.82,7.9 -22.63,7.9 -9.04,0 -16,-3.6 -20.95,-10.72 -4.95,-7.18 -8.86,-26.33 -11.75,-57.5 -2.93,-31.22 -9.19,-46.84 -18.76,-46.84zm130.9 78.56l3.49 0c1.9,0 4.18,0.93 6.85,2.83 2.67,1.85 3.98,4.36 3.98,7.57 0,6.36 -1.09,11.04 -3.32,14.03 -2.23,2.94 -5.82,6.26 -10.77,9.85 -4.96,3.64 -8.43,5.44 -10.45,5.44 -4.46,0 -7.78,-1.04 -9.9,-3.04 -2.12,-2.02 -3.16,-7.52 -3.16,-16.59 0,-8.38 0.49,-13.39 1.42,-14.97 0.98,-1.57 3.26,-2.83 6.96,-3.75 3.64,-0.86 8.59,-1.36 14.91,-1.36zm171.64 -13.7c-1.25,-0.93 -4.84,2.07 -10.66,8.91 -9.68,11.37 -22.03,21.5 -37.05,30.31 -15.07,8.81 -28.99,13.22 -41.83,13.22 -9.58,0 -17.09,-2.99 -22.53,-8.98 -5.39,-6.05 -8.1,-14.31 -8.1,-24.97 0,-16.43 6.2,-34.82 18.66,-55.05 12.4,-20.24 29.8,-37.93 52.17,-53 22.36,-15.06 41.95,-22.63 58.76,-22.63 8.82,0 16.59,2.56 23.29,7.67 1.58,1.25 2.94,2.28 4.13,3.16 1.9,1.42 3.7,4.19 5.39,8.38 1.74,4.19 2.56,7.57 2.56,10.12 0,1.58 -0.6,4.03 -1.74,7.35 -6.48,17.62 -10.89,32.26 -13.22,43.79 -2.34,11.6 -4.9,31.12 -7.67,58.54 -2.56,24.64 -5.28,43.58 -8.28,56.9 -2.99,13.28 -8.32,26.11 -16.1,38.52 -7.78,12.46 -17.09,21.76 -27.91,28.02 -10.83,6.2 -21.98,9.3 -33.45,9.3 -19.86,0 -39.5,-6.86 -58.81,-20.56 -19.32,-13.71 -29,-24.71 -29,-32.97 0,-5.22 1.96,-7.83 5.88,-7.83 1.9,0 7.61,3.16 17.08,9.41 24.97,16.71 47.45,25.03 67.41,25.03 17.41,0 30.68,-9.3 39.77,-27.91 9.08,-18.61 15.29,-46.35 18.55,-83.35 0.76,-8.38 1.63,-15.5 2.72,-21.37zm-0.33 -87.48c-9.03,0 -20.29,4.68 -33.83,14.03 -13.55,9.36 -26.72,23.06 -39.5,41.12 -12.73,18.06 -19.09,33.19 -19.09,45.43 0,4.13 1.31,7.39 3.92,9.79 2.61,2.4 5.49,3.6 8.65,3.6 9.47,0 21.82,-4.9 37.05,-14.69 15.28,-9.74 28.4,-23.34 39.39,-40.69 10.99,-17.42 16.48,-31.02 16.48,-40.92 0,-11.8 -4.35,-17.67 -13.06,-17.67zm126.38 -68.22c-2.23,0 -3.92,-2.4 -5.12,-7.19 -0.43,-1.47 -0.98,-3.09 -1.74,-4.95 -2.88,-6.86 -4.3,-12.89 -4.3,-18.01 0,-4.25 2.5,-8.54 7.57,-12.94 5.06,-4.41 10.66,-6.64 16.81,-6.64 3.09,0 6.53,1.2 10.38,3.59 3.81,2.4 5.72,4.69 5.72,6.91 0,3.54 -1.31,9.47 -3.92,17.9 -2.61,8.38 -6.74,14.04 -12.4,16.97 -5.72,2.89 -10.01,4.36 -13.01,4.36zm-20.89 178.06c0,8.06 1.14,17.14 3.37,27.26 0.43,1.9 0.6,3.47 0.6,4.73 0,1.95 -1.74,4.41 -5.22,7.45 -3.54,2.99 -7.24,4.51 -11.15,4.51 -10.33,0 -15.45,-9.47 -15.45,-28.34 0,-19.59 4.03,-50.49 12.08,-92.75 2.78,-14.8 4.13,-23.88 4.13,-27.25 0,-6.69 1.25,-12.41 3.7,-17.14 2.45,-4.74 5.88,-7.12 10.34,-7.12 5.44,0 9.68,1.31 12.83,3.92 3.16,2.61 4.69,5.49 4.69,8.7 0,3.16 -0.71,7.4 -2.23,12.57 -7.95,28.07 -12.9,48.15 -14.8,60.28 -1.9,12.08 -2.88,26.49 -2.88,43.19zm128.77 -125.45c10.94,-0.87 21.27,-1.85 30.9,-3.05 9.57,-1.03 17.57,-1.57 23.93,-1.57 8.06,0 13.17,0.76 15.29,2.23 2.13,1.47 3.22,4.08 3.22,7.83 0,8.59 -6.05,13.27 -18.01,13.98 -15.45,0.98 -29.6,2.28 -42.59,4.03 -12.95,1.69 -19.91,3.09 -20.95,4.18 -0.98,1.14 -4.18,13.77 -9.62,37.92 -5.44,24.21 -8.16,39.88 -8.16,47.12 0,11.7 1.57,19.47 4.63,23.34 3.09,3.92 7.72,5.82 13.87,5.82 9.14,0 21.87,-6.86 38.14,-20.56 6.25,-5.6 11.09,-8.43 14.47,-8.43 4.58,0 6.86,2.45 6.86,7.34 0,7.67 -7.34,17.57 -22.08,29.7 -14.69,12.19 -29.76,18.28 -45.16,18.28 -25.72,0 -38.56,-15.17 -38.56,-45.42 0,-10.94 2.66,-27.91 7.94,-50.87 5.22,-22.84 7.83,-36.56 7.83,-41.12 0,-1.58 -1.31,-2.4 -3.8,-2.4l-16.59 1.47c-13.6,0 -20.4,-5.45 -20.4,-16.27 0,-6.15 3.09,-9.24 9.41,-9.24l32.81 0c2.23,0 4.18,-1.04 5.93,-3.04 1.69,-2.02 4.18,-8.76 7.45,-20.29 3.31,-11.54 6.25,-22.96 8.76,-34.23 2.55,-11.15 7.56,-16.7 15.01,-16.7 4.58,0 8.11,1.57 10.66,4.78 2.56,3.16 3.81,6.15 3.81,8.92 0,1.47 -1.91,9.09 -5.72,22.79l-9.25 33.46zm114.3 113c39.55,-73.02 72.08,-109.52 97.71,-109.52 6.8,0 12.35,3.92 16.59,11.65 4.24,7.78 7.67,24.97 10.33,51.63 2.66,28.4 8.65,48.91 18.01,61.53 4.78,6.47 7.18,11.26 7.18,14.36 0,2.77 -1.57,5.33 -4.79,7.67 -3.16,2.33 -6.58,3.47 -10.17,3.47 -8.33,0 -15.62,-4.62 -22.03,-13.92 -6.36,-9.3 -10.45,-25.63 -12.24,-49.02 -1.8,-22.09 -3.75,-36.56 -5.77,-43.36 -2.02,-6.8 -5.33,-10.22 -10.01,-10.22 -11.14,0 -33.62,29.21 -67.4,87.53 -10.12,17.41 -17.57,28.83 -22.36,34.16 -4.78,5.39 -9.14,8.05 -13.06,8.05 -4.68,0 -8.59,-1.36 -11.8,-4.13 -3.16,-2.78 -4.79,-6.15 -4.79,-10.17 0,-3 0.87,-8.76 2.56,-17.25 13.11,-67.46 23.39,-134.21 30.96,-200.2 1.69,-15.4 4.41,-25.63 8.21,-30.74 3.75,-5.11 6.91,-7.67 9.47,-7.67 4.56,0 8.7,1.9 12.4,5.6 3.75,3.7 5.6,8.86 5.6,15.45 0,19.59 -4.78,46.4 -14.36,80.51 -4.68,16.87 -9.62,38.36 -14.79,64.36 -5.22,26.06 -7.83,42.16 -7.83,48.31 0,1.25 0.6,1.91 1.74,1.91l0.66 0zm290.73 -21.5c-13.6,22.8 -27.53,40.54 -41.78,53.05 -14.2,12.56 -27.42,18.82 -39.66,18.82 -7.01,0 -14.15,-4.08 -21.44,-12.3 -7.29,-8.16 -10.93,-20.79 -10.93,-37.76 0,-13.92 3.37,-34.43 10.07,-61.53 5.6,-22.63 8.43,-38.51 8.43,-47.65 3.1,-6.36 7.95,-9.57 14.53,-9.57 4.46,0 8,1.57 10.66,4.73 2.66,3.1 3.97,6.36 3.97,9.8 0,7.44 -2.61,18 -7.77,31.72 -9.91,26.65 -14.86,49.55 -14.86,68.71 0,17.41 4.03,26.11 12.13,26.11 10.28,0 23.45,-8.76 39.33,-26.28 15.94,-17.57 29.6,-42 40.96,-73.33 4.46,-12.51 8.11,-20.67 10.94,-24.48 2.83,-3.75 6.64,-5.66 11.42,-5.66 7.19,0 10.83,4.79 10.83,14.36 0,1.14 -1.03,5.06 -3.04,11.65 -6.36,23.29 -9.57,45.26 -9.57,65.99 0,24.86 4.13,40.96 12.3,48.25 4.24,3.98 6.36,7.12 6.36,9.58 0,2.99 -2.13,5.71 -6.48,8.15 -4.3,2.45 -8.16,3.65 -11.7,3.65 -7.45,0 -13.44,-5.55 -18,-16.59 -4.58,-11.04 -6.86,-27.37 -6.86,-48.91l0 -5.28c0,-1.69 0.05,-3.42 0.16,-5.22z"/>
       <path class="fil6" d="M33525.29 20729.35c13.6,-24.76 29.87,-44.84 48.74,-60.17 18.94,-15.34 35.96,-23.01 51.2,-23.01 8.38,0 15.5,3.87 21.32,11.64 5.88,7.73 8.76,17.19 8.76,28.34 0,33.02 -12.46,64.03 -37.37,93.03 -24.92,28.94 -51.2,43.42 -78.94,43.42 -7.57,0 -14.48,-2.07 -20.84,-6.15 -6.31,-4.08 -9.85,-9.2 -10.56,-15.4 -0.43,-4.95 -1.9,-8.7 -4.3,-11.15 -4.56,-4.56 -6.85,-9.46 -6.85,-14.63 0,-9.68 2.61,-30.36 7.94,-62.02l16.43 -95.31c5.6,-31.98 9.74,-51.73 12.35,-59.29 2.61,-7.52 5.5,-12.57 8.71,-15.13 3.16,-2.55 7.07,-3.8 11.75,-3.8 7.45,0 11.15,6.42 11.15,19.26 0,12.24 -4.08,29.32 -12.24,51.36 -7.89,21.11 -16.97,60.82 -27.25,119.03zm-3.87 53.09c5.55,10.29 12.24,15.45 20.13,15.45 12.08,0 24.92,-5.06 38.41,-15.07 13.5,-10.05 25.14,-24.15 34.99,-42.38 9.79,-18.22 14.74,-33.62 14.74,-46.18 0,-5.6 -1.04,-10.45 -3.05,-14.48 -2,-4.03 -4.56,-6.1 -7.67,-6.1 -14.74,0 -32.81,12.13 -54.08,36.29 -21.32,24.15 -35.79,48.31 -43.47,72.46zm187.65 -6.42l3.49 0c1.9,0 4.18,0.93 6.85,2.83 2.67,1.85 3.98,4.36 3.98,7.57 0,6.36 -1.09,11.04 -3.32,14.03 -2.23,2.94 -5.82,6.26 -10.77,9.85 -4.96,3.64 -8.43,5.44 -10.45,5.44 -4.46,0 -7.78,-1.04 -9.9,-3.04 -2.12,-2.02 -3.16,-7.52 -3.16,-16.59 0,-8.38 0.49,-13.39 1.42,-14.97 0.98,-1.57 3.26,-2.83 6.96,-3.75 3.64,-0.86 8.59,-1.36 14.91,-1.36zm110.27 -169.41c-2.23,0 -3.92,-2.4 -5.12,-7.19 -0.43,-1.47 -0.98,-3.09 -1.74,-4.95 -2.88,-6.86 -4.3,-12.89 -4.3,-18.01 0,-4.25 2.5,-8.54 7.57,-12.94 5.06,-4.41 10.66,-6.64 16.81,-6.64 3.09,0 6.53,1.2 10.38,3.59 3.81,2.4 5.72,4.69 5.72,6.91 0,3.54 -1.31,9.47 -3.92,17.9 -2.61,8.38 -6.74,14.04 -12.4,16.97 -5.72,2.89 -10.01,4.36 -13.01,4.36zm-20.89 178.06c0,8.06 1.14,17.14 3.37,27.26 0.43,1.9 0.6,3.47 0.6,4.73 0,1.95 -1.74,4.41 -5.22,7.45 -3.54,2.99 -7.24,4.51 -11.15,4.51 -10.33,0 -15.45,-9.47 -15.45,-28.34 0,-19.59 4.03,-50.49 12.08,-92.75 2.78,-14.8 4.13,-23.88 4.13,-27.25 0,-6.69 1.25,-12.41 3.7,-17.14 2.45,-4.74 5.88,-7.12 10.34,-7.12 5.44,0 9.68,1.31 12.83,3.92 3.16,2.61 4.69,5.49 4.69,8.7 0,3.16 -0.71,7.4 -2.23,12.57 -7.95,28.07 -12.9,48.15 -14.8,60.28 -1.9,12.08 -2.88,26.49 -2.88,43.19zm110.44 43.31c-14.53,0 -26.55,-5.5 -36.01,-16.54 -9.47,-11.04 -14.2,-24.71 -14.2,-40.97 0,-27.42 9.25,-54.46 27.69,-81.05 18.39,-26.61 40.48,-39.93 66.21,-39.93 16.97,0 30.79,6.53 41.35,19.64 10.56,13.06 15.88,28.61 15.88,46.68 0,27.64 -10.93,53.2 -32.74,76.82 -21.88,23.62 -44.56,35.37 -68.17,35.37zm-22.15 -61.64c0,10.72 2.23,19.48 6.75,26.28 4.51,6.8 10.5,10.23 17.95,10.23 15.83,0 31.72,-8.71 47.65,-26.06 15.95,-17.41 23.88,-36.72 23.88,-57.94 0,-13.11 -3.04,-23.66 -9.14,-31.82 -6.09,-8.11 -14.3,-12.18 -24.64,-12.18 -17.08,0 -31.77,10.5 -44.06,31.49 -12.24,20.95 -18.39,40.97 -18.39,60.01zm148.74 74.59c-2.66,0 -5.39,-1.42 -8.16,-4.13 -2.71,-2.78 -4.13,-5.55 -4.13,-8.33 0,-1.9 2.61,-8.38 7.9,-19.42 5.27,-11.04 13.6,-25.3 25.02,-42.81 11.42,-17.47 21.82,-32.43 31.17,-44.89 0.93,-1.25 1.74,-2.4 2.4,-3.49 6.8,-11.04 16.76,-26.11 29.97,-45.26 14.21,-20.29 26.82,-39.55 37.76,-57.73 5.11,-8.38 11.92,-18.17 20.4,-29.37 8.49,-11.21 14.64,-16.82 18.34,-16.82 2.12,0 4.78,1.91 7.94,5.72 3.21,3.87 4.79,6.91 4.79,9.25 0,4.13 -7.24,16.15 -21.65,36.01 -31.23,42.65 -61.2,85.35 -89.93,128.17 -3.49,5.22 -8.44,12.35 -14.8,21.49 -10.61,15.72 -17.08,26.39 -19.42,31.88 -2.33,5.55 -7.12,13.55 -14.31,24 -7.18,10.5 -11.59,15.72 -13.27,15.72zm230.13 -95.31c1.37,-1.8 10.89,-10.39 28.51,-25.68 16.71,-14.53 28.34,-25.13 34.93,-31.72 24.53,-24.53 42.16,-36.83 52.93,-36.83 8.28,0 12.41,4.02 12.41,11.97 0,9.03 -4.08,15.67 -12.24,19.91 -10.66,5.44 -24.81,14.41 -42.59,27.04 -17.73,12.56 -26.61,21.49 -26.61,26.71 0,2.12 6.26,10.07 18.82,23.83 12.51,13.76 23.4,23.88 32.48,30.41 9.14,6.53 18.06,9.79 26.66,9.79l5.22 -0.16c3.75,-0.22 5.6,1.47 5.6,4.96 0,4.68 -2.94,9.47 -8.76,14.25 -5.87,4.84 -13.54,7.29 -23.12,7.29 -6.15,0 -12.4,-2.17 -18.71,-6.47 -6.31,-4.3 -17.57,-15.89 -33.73,-34.82 -12.84,-15.62 -20.89,-24.97 -24.05,-27.96 -3.21,-3.04 -5.87,-4.56 -8,-4.56 -1.14,0 -4.89,2.77 -11.14,8.32 -6.26,5.5 -9.68,9.68 -10.29,12.57 -0.54,2.88 -0.86,13.82 -0.86,32.86l0 7.45c0,3.97 -1.85,7.45 -5.55,10.55 -3.75,3.05 -7.78,4.63 -12.13,4.63 -4.46,0 -7.95,-1.31 -10.5,-3.92 -2.56,-2.61 -3.87,-5.27 -3.87,-8.05 0,-3.81 1.47,-12.84 4.3,-27.09 4.08,-20.51 7.78,-47.99 11.15,-82.42 7.89,-81.28 13.92,-127.25 18.17,-137.92 4.3,-10.71 10.34,-16.05 18.18,-16.05 2.77,0 5.11,1.47 6.96,4.46 1.85,2.99 2.78,6.81 2.78,11.48 0,8.48 -3.65,31.06 -10.99,67.73 -7.34,36.77 -12.62,72.57 -15.95,107.45zm208.64 82.37c-14.53,0 -26.55,-5.5 -36.01,-16.54 -9.47,-11.04 -14.2,-24.71 -14.2,-40.97 0,-27.42 9.25,-54.46 27.69,-81.05 18.39,-26.61 40.48,-39.93 66.21,-39.93 16.97,0 30.79,6.53 41.35,19.64 10.56,13.06 15.88,28.61 15.88,46.68 0,27.64 -10.93,53.2 -32.74,76.82 -21.88,23.62 -44.56,35.37 -68.17,35.37zm-22.15 -61.64c0,10.72 2.23,19.48 6.75,26.28 4.51,6.8 10.5,10.23 17.95,10.23 15.83,0 31.72,-8.71 47.65,-26.06 15.95,-17.41 23.88,-36.72 23.88,-57.94 0,-13.11 -3.04,-23.66 -9.14,-31.82 -6.09,-8.11 -14.3,-12.18 -24.64,-12.18 -17.08,0 -31.77,10.5 -44.06,31.49 -12.24,20.95 -18.39,40.97 -18.39,60.01zm192.38 -9.57c1.09,-1.9 2.34,-4.58 3.87,-8 7.24,-16.54 13.87,-29.54 19.91,-38.95 6.03,-9.41 12.73,-18.39 20.02,-26.99 7.24,-8.65 13.93,-15.17 19.91,-19.64 5.98,-4.46 11.42,-7.56 16.32,-9.3 4.89,-1.74 9.63,-2.66 14.2,-2.66 9.25,0 16.76,2.83 22.64,8.38 5.82,5.6 8.76,12.08 8.76,19.53 0,3.31 -1.04,6.25 -3.1,8.91 -2.07,2.67 -5.22,3.98 -9.47,3.98 -4.46,0 -8.59,-1.96 -12.3,-5.88 -3.8,-3.92 -7.83,-5.87 -11.97,-5.87 -11.04,0 -26.33,13.38 -45.86,40.15 -19.59,26.76 -31.5,56.26 -35.74,88.46 -1.04,8.28 -3.05,13.77 -6.05,16.43 -2.99,2.61 -7.18,3.98 -12.56,3.98 -5.22,0 -8.98,-3.87 -11.32,-11.65 -2.33,-7.78 -3.54,-20.84 -3.54,-39.22 0,-4.96 0.28,-16 0.82,-32.97 0.6,-20.08 1.9,-36.28 3.8,-48.64 0.33,-2 0.87,-6.74 1.58,-14.14 0.76,-8.22 1.69,-13.88 2.83,-17.09 1.09,-3.16 3.37,-6.15 6.85,-8.92 3.43,-2.78 7.19,-4.13 11.22,-4.13 3.92,0 6.91,1.25 8.86,3.75 1.96,2.5 2.94,5.17 2.94,8.05 0,4.13 -1.09,9.96 -3.21,17.52 -2.46,8.38 -3.87,14.2 -4.3,17.35 -0.33,3.65 -0.87,7.4 -1.75,11.32 -1.09,4.56 -2.12,16.59 -3.21,36.01l-0.16 5.93 0 4.3zm257.6 -62.79c-9.9,0.22 -31.07,29.49 -63.43,87.81 -10.99,19.64 -17.35,30.36 -19.15,32.1 -1.79,1.74 -5.11,3.32 -9.95,4.73 -4.84,1.37 -8.87,2.08 -12.03,2.08 -7.12,0 -10.71,-13.88 -10.71,-41.63 0,-15.61 3.37,-43.9 10.07,-84.81 2.78,-16.54 4.13,-28.41 4.13,-35.53 0,-7.01 3.16,-10.5 9.41,-10.5 11.81,0 17.68,8.48 17.68,25.46 0,8 -1.95,23.62 -5.87,46.9 -4.58,26.55 -6.91,42.71 -7.02,48.41 6.58,-6.36 16.26,-20.35 29,-41.88 18.05,-29.55 31.39,-48.26 39.93,-56.2 8.53,-7.9 17.41,-11.86 26.55,-11.86 6.91,0 12.41,4.63 16.48,13.87 4.08,9.25 6.59,31.28 7.4,66.16 0.22,8.71 1.04,15.17 2.4,19.42 1.41,4.25 2.4,6.36 3.04,6.36 5.01,0 15.83,-16.97 32.54,-50.97 8.91,-17.95 17.57,-31.61 26.05,-40.97 8.44,-9.36 17.8,-14.03 28.13,-14.03 8.59,0 14.86,4.46 18.77,13.33 3.97,8.86 6.74,21.97 8.48,39.44 1.58,17.62 4.03,33.78 7.4,48.42 3.32,14.68 9.47,24.1 18.39,28.23 6.09,2.88 9.08,6.2 9.08,10.07 0,3.7 -2.55,7.51 -7.62,11.42 -5.11,3.97 -9.79,5.93 -14.03,5.93 -8.54,0 -16.1,-5.22 -22.79,-15.62 -6.69,-10.45 -11.75,-32.97 -15.12,-67.57 -1.52,-13.93 -2.94,-23.83 -4.35,-29.65 -1.37,-5.87 -3.54,-8.81 -6.53,-8.81 -4.46,0 -9.75,4.3 -15.83,12.78 -6.15,8.49 -16,25.79 -29.6,51.8 -10.61,20.29 -18.66,33.83 -24.16,40.59 -5.44,6.74 -10.71,10.12 -15.82,10.12 -4.58,0 -8.66,-1.85 -12.3,-5.5 -3.6,-3.69 -5.88,-8.1 -6.86,-13.27 -0.93,-5.11 -1.96,-17.79 -2.99,-37.97 -1.63,-33.57 -4.51,-53.15 -8.76,-58.65zm351.56 72.03c0,10.83 -9.57,23.88 -28.72,39.23 -19.2,15.29 -39.01,22.9 -59.41,22.9 -17.08,0 -30.3,-5 -39.6,-15.12 -9.3,-10.07 -13.93,-24.15 -13.93,-42.21 0,-30.41 10.23,-59.3 30.74,-86.72 20.51,-27.42 42.98,-41.12 67.3,-41.12 7.95,0 14.48,2.61 19.53,7.83 5.01,5.16 7.56,11.47 7.56,18.76 0,16.38 -8.05,32.05 -24.1,47.07 -16.05,14.96 -37.48,29.7 -64.36,44.12 -5.55,2.89 -8.27,6.58 -8.27,11.15 0,8.81 2.5,15.88 7.62,21.22 5.11,5.33 12.68,7.94 22.63,7.94 22.84,0 46.19,-12.61 69.96,-37.92 3.54,-3.49 6.2,-5.27 8,-5.27 3.37,0 5.06,2.71 5.06,8.15zm-110.77 -24.86c45.1,-26.76 67.63,-48.31 67.63,-64.57 0,-6.36 -2.89,-9.57 -8.66,-9.57 -9.74,0 -20.78,7.18 -33.07,21.54 -12.24,14.36 -20.89,31.88 -25.9,52.61zm132.63 99.78c-2.66,0 -5.39,-1.42 -8.16,-4.13 -2.71,-2.78 -4.13,-5.55 -4.13,-8.33 0,-1.9 2.61,-8.38 7.9,-19.42 5.27,-11.04 13.6,-25.3 25.02,-42.81 11.42,-17.47 21.82,-32.43 31.17,-44.89 0.93,-1.25 1.74,-2.4 2.4,-3.49 6.8,-11.04 16.76,-26.11 29.97,-45.26 14.21,-20.29 26.82,-39.55 37.76,-57.73 5.11,-8.38 11.92,-18.17 20.4,-29.37 8.49,-11.21 14.64,-16.82 18.34,-16.82 2.12,0 4.78,1.91 7.94,5.72 3.21,3.87 4.79,6.91 4.79,9.25 0,4.13 -7.24,16.15 -21.65,36.01 -31.23,42.65 -61.2,85.35 -89.93,128.17 -3.49,5.22 -8.44,12.35 -14.8,21.49 -10.61,15.72 -17.08,26.39 -19.42,31.88 -2.33,5.55 -7.12,13.55 -14.31,24 -7.18,10.5 -11.59,15.72 -13.27,15.72zm-2742.38 -1804.85c-22.6,0 -41.3,-8.55 -56.02,-25.73 -14.72,-17.18 -22.08,-38.42 -22.08,-63.72 0,-42.66 14.38,-84.71 43.07,-126.1 28.61,-41.38 62.97,-62.12 102.99,-62.12 26.4,0 47.9,10.16 64.32,30.55 16.42,20.3 24.72,44.52 24.72,72.6 0,42.99 -17.01,82.77 -50.95,119.5 -34.02,36.73 -69.3,55.01 -106.04,55.01zm-34.44 -95.88c0,16.67 3.46,30.29 10.5,40.87 7.02,10.58 16.33,15.91 27.92,15.91 24.62,0 49.34,-13.54 74.14,-40.54 24.8,-27.08 37.16,-57.12 37.16,-90.13 0,-20.39 -4.74,-36.81 -14.22,-49.5 -9.48,-12.61 -22.26,-18.96 -38.34,-18.96 -26.58,0 -49.42,16.34 -68.55,49 -19.04,32.58 -28.6,63.72 -28.6,93.35zm418.05 -107.15c-8.63,0 -18.02,5.59 -28.18,16.84 -10.16,11.26 -25.64,36.48 -46.46,75.66 -27.42,52.56 -45.19,82.43 -53.14,89.71 -8.04,7.28 -14.73,10.92 -19.98,10.92 -19.55,0 -29.28,-9.4 -29.28,-28.27 0,-7.86 1.36,-19.12 3.98,-33.68 9.05,-49.92 13.62,-102.56 13.62,-157.91 0,-6.34 2.7,-13.28 8.04,-20.98 5.42,-7.7 10.5,-11.51 15.24,-11.51 8.63,0 14.72,2.63 18.36,7.96 3.64,5.24 5.5,15.91 5.5,31.99 0,16.67 -5,51.02 -14.9,103.08 -3.3,17.18 -4.99,28.09 -4.99,32.74 0,2.62 0.67,3.98 2.03,3.98 2.46,0 13.96,-19.8 34.44,-59.24 20.65,-40.2 38.76,-68.46 54.25,-84.8 15.57,-16.42 32.66,-24.54 51.36,-24.54 14.9,0 27,6.76 36.31,20.3 9.3,13.55 16.16,38.26 20.48,74.14 4.65,40.79 8.8,66.27 12.52,76.25 3.72,9.98 9.64,14.98 17.68,14.98 5.16,0 11.6,-1.78 19.38,-5.42 1.27,-0.68 2.28,-1.02 2.96,-1.02 7.11,0 10.66,4.15 10.66,12.36 0,7.28 -4.9,15.06 -14.64,23.18 -9.73,8.21 -21.49,12.28 -35.2,12.28 -14.04,0 -24.88,-5.58 -32.58,-16.68 -7.7,-11.17 -13.8,-40.96 -18.28,-89.44 -4.58,-48.58 -14.3,-72.87 -29.2,-72.87zm345.61 88.01c-22.08,35.54 -45.61,62.96 -70.4,82.18 -24.8,19.3 -47.56,28.94 -68.38,28.94 -16.08,0 -28.78,-6.18 -38.08,-18.54 -9.31,-12.27 -14.05,-28.68 -14.05,-49.16 0,-41.8 17.01,-84.71 50.95,-128.72 34.02,-43.92 70.66,-65.93 110.01,-65.93 17.18,0 33.09,7.37 47.82,22.09l34.7 -162.15c2.54,-11.08 7.11,-18.53 13.8,-22.34 6.68,-3.8 11.94,-5.66 15.74,-5.66 11.6,0 17.34,10.24 17.34,30.72 0,3.64 -3.8,17.18 -11.42,40.62 -12.02,36.38 -23.52,81.08 -34.28,134.05 -10.83,52.98 -16.24,95.46 -16.24,127.52 0,33.09 7.2,49.6 21.58,49.6 9.22,0 18.78,-3.04 28.69,-9.14 4.14,-2.96 8.03,-4.48 11.67,-4.48 5.34,0 7.96,3.46 7.96,10.4 0,8.46 -7.44,18.2 -22.17,29.28 -14.81,11.09 -29.96,16.59 -45.53,16.59 -27.25,0 -40.88,-26.24 -40.88,-78.88 0,-8.88 0.34,-17.94 1.18,-27zm-32.49 -116.02c-26.75,0 -53.23,18.1 -79.55,54.42 -26.32,36.3 -39.44,69.82 -39.44,100.54 0,20.64 6.86,30.97 20.56,30.97 12.95,0 28.61,-6.76 47.06,-20.3 18.36,-13.54 37.32,-35.12 56.87,-64.82 19.46,-29.71 29.28,-51.97 29.28,-66.86 0,-7.28 -3.39,-14.73 -10.08,-22.43 -6.68,-7.7 -14.9,-11.5 -24.71,-11.5zm373.7 131.17c-30.46,26.4 -57.2,45.61 -80.22,57.62 -23.1,12.02 -40.7,17.94 -52.98,17.94 -16.34,0 -28.86,-6.76 -37.48,-20.39 -8.72,-13.63 -13.04,-29.54 -13.04,-47.73 0,-25.48 5.16,-56.96 15.48,-94.36 10.33,-37.4 18.03,-59.66 23.02,-66.69 5.08,-7.02 13.12,-10.57 24.2,-10.57 4.66,0 8.47,2.79 11.43,8.2 2.96,5.5 4.48,11.68 4.48,18.62 0,4.14 -1.94,9.48 -5.76,16.08 -8.88,15.57 -13.54,24.12 -13.96,25.81 -0.42,1.61 -3.64,11.6 -9.56,29.88 -5.92,18.28 -8.98,35.38 -8.98,51.46 0,5.58 1.36,14.38 4.15,26.24 2.7,11.93 8.38,17.86 16.92,17.86 9.14,0 20.32,-2.71 33.6,-8.3 13.37,-5.5 28.34,-14.56 45.02,-27.16 16.68,-12.53 27.92,-22.68 33.76,-30.47 5.76,-7.78 9.82,-16.58 12.28,-26.48 2.36,-9.99 4.06,-31.48 5.08,-64.49 0.93,-33.08 8.96,-49.58 24.04,-49.58 8.88,0 14.72,2.36 17.34,7.02 2.62,4.74 3.98,13.7 3.98,26.92 0,10.91 -0.76,24.54 -2.28,40.96 -1.78,20.64 -2.96,35.37 -3.47,44.08 -2.28,45.45 -8.2,91.15 -17.68,137.01 -9.48,45.86 -23.36,84.2 -41.56,115.01 -18.2,30.8 -43.24,46.2 -75.14,46.28 -32.33,-0.08 -61.19,-8.54 -86.41,-25.47 -25.14,-16.93 -37.74,-31.23 -37.74,-42.99 0,-5.5 1.26,-10.84 3.8,-16.16 2.54,-5.25 5.84,-7.88 9.82,-7.88 1.95,0 4.15,1.52 6.44,4.66 21.66,33.26 55.68,49.84 102.14,49.84 23.95,0 44.09,-20.98 60.34,-63.04 16.34,-42.06 25.31,-81.58 26.92,-118.39 0.34,-7.1 1.02,-14.22 2.03,-21.32zm666.61 30.72c0,-10.75 -13.2,-22.94 -39.6,-36.65 -33.6,-17.26 -56.28,-30.97 -68.12,-41.3 -11.77,-10.32 -17.69,-21.92 -17.69,-34.61 0,-32.92 16.5,-60.17 49.42,-81.84 33.01,-21.66 59.92,-32.5 80.74,-32.5 13.38,0 23.1,2.36 29.12,6.94 6,4.66 9.06,12.7 9.06,24.12 0,5.08 -2.2,9.48 -6.6,13.12 -4.32,3.64 -7.79,5.42 -10.24,5.42 -1.87,0 -5.42,-1.19 -10.67,-3.73 -5.33,-2.28 -8.8,-3.46 -10.4,-3.46 -8.3,0 -25.05,6.1 -50.36,18.11 -25.3,12.1 -37.92,25.72 -37.92,40.96 0,9.22 4.49,17.6 13.38,25.13 8.98,7.54 24.96,16.76 48.07,27.68 18.7,8.88 33.59,18.45 44.76,28.6 11.18,10.16 16.76,22.09 16.76,35.8 0,25.3 -17.44,45.11 -52.3,59.41 -34.87,14.3 -68.21,21.4 -99.95,21.5 -26.74,-0.09 -40.11,-9.14 -40.11,-27.34 0,-6.26 2.96,-10.92 9.05,-13.88 6.01,-2.96 12.11,-4.48 18.2,-4.48 2.46,0 7.2,0.84 14.14,2.53 6.76,1.61 11.26,2.46 13.37,2.46 18.37,0 38,-3.04 58.99,-9.14 20.98,-6.18 34.02,-13.8 38.92,-22.84zm257.86 -33.43c-23.1,31.06 -46.04,54.33 -68.63,69.9 -22.69,15.49 -43.42,23.28 -62.29,23.28 -12.7,0 -23.7,-5.33 -32.92,-16.08 -9.3,-10.74 -13.88,-24.54 -13.88,-41.46 0,-43.42 19.38,-90.21 58.22,-140.4 38.85,-50.19 77.44,-75.24 115.77,-75.24 13.88,0 24.2,7.86 31.06,23.78 2.12,5.24 5.5,7.96 10.16,7.96 13.2,0 19.8,5.08 19.8,15.32 0,5.16 -0.84,12.18 -2.46,21.07 -8.96,48.75 -13.37,83.19 -13.37,103.16 0,40.03 7.53,63.98 22.76,71.94 7.28,3.98 10.92,8.8 10.92,14.56 0,5.16 -3.56,10.32 -10.66,15.58 -7.11,5.16 -13.97,7.78 -20.57,7.78 -12.78,0 -23.27,-8.8 -31.48,-26.32 -8.29,-17.52 -12.44,-42.48 -12.44,-74.81zm-15.06 -139.64c-21.84,0 -47.22,20.48 -76.16,61.36 -28.94,40.96 -43.42,74.9 -43.42,101.81 0,18.95 6.34,28.52 18.88,28.52 18.19,0 43.41,-18.37 75.66,-55.1 32.24,-36.64 48.32,-70.41 48.32,-101.13 0,-23.6 -7.79,-35.46 -23.28,-35.46zm321.25 140.06c-1.95,-1.44 -7.54,3.22 -16.59,13.88 -15.06,17.69 -34.27,33.43 -57.62,47.14 -23.44,13.71 -45.11,20.57 -65.08,20.57 -14.9,0 -26.58,-4.66 -35.04,-13.97 -8.38,-9.39 -12.61,-22.26 -12.61,-38.84 0,-25.56 9.65,-54.16 29.03,-85.64 19.3,-31.48 46.38,-58.99 81.16,-82.43 34.78,-23.44 65.24,-35.2 91.4,-35.2 13.7,0 25.81,3.98 36.22,11.94 2.46,1.94 4.56,3.55 6.43,4.9 2.97,2.2 5.76,6.52 8.38,13.04 2.71,6.52 3.98,11.76 3.98,15.74 0,2.46 -0.93,6.26 -2.7,11.42 -10.08,27.42 -16.92,50.18 -20.56,68.12 -3.64,18.03 -7.62,48.41 -11.94,91.07 -3.98,38.33 -8.21,67.78 -12.86,88.52 -4.66,20.64 -12.95,40.62 -25.05,59.92 -12.1,19.38 -26.57,33.84 -43.42,43.58 -16.84,9.64 -34.18,14.47 -52.04,14.47 -30.88,0 -61.44,-10.66 -91.48,-31.98 -30.04,-21.32 -45.11,-38.42 -45.11,-51.28 0,-8.13 3.05,-12.19 9.14,-12.19 2.97,0 11.85,4.91 26.58,14.64 38.84,25.98 73.8,38.93 104.85,38.93 27.08,0 47.73,-14.48 61.86,-43.42 14.14,-28.94 23.78,-72.1 28.86,-129.65 1.18,-13.03 2.54,-24.12 4.24,-33.26zm-0.51 -136.08c-14.04,0 -31.56,7.28 -52.64,21.84 -21.07,14.56 -41.55,35.88 -61.44,63.98 -19.8,28.1 -29.7,51.62 -29.7,70.66 0,6.44 2.04,11.51 6.1,15.24 4.06,3.72 8.54,5.58 13.45,5.58 14.73,0 33.94,-7.62 57.63,-22.84 23.78,-15.15 44.18,-36.31 61.27,-63.31 17.1,-27.08 25.64,-48.24 25.64,-63.64 0,-18.36 -6.78,-27.5 -20.32,-27.5zm283.85 135.66c-23.1,31.06 -46.04,54.33 -68.63,69.9 -22.69,15.49 -43.42,23.28 -62.29,23.28 -12.7,0 -23.7,-5.33 -32.92,-16.08 -9.3,-10.74 -13.88,-24.54 -13.88,-41.46 0,-43.42 19.38,-90.21 58.22,-140.4 38.85,-50.19 77.44,-75.24 115.77,-75.24 13.88,0 24.2,7.86 31.06,23.78 2.12,5.24 5.5,7.96 10.16,7.96 13.2,0 19.8,5.08 19.8,15.32 0,5.16 -0.84,12.18 -2.46,21.07 -8.96,48.75 -13.37,83.19 -13.37,103.16 0,40.03 7.53,63.98 22.76,71.94 7.28,3.98 10.92,8.8 10.92,14.56 0,5.16 -3.56,10.32 -10.66,15.58 -7.11,5.16 -13.97,7.78 -20.57,7.78 -12.78,0 -23.27,-8.8 -31.48,-26.32 -8.29,-17.52 -12.44,-42.48 -12.44,-74.81zm-15.06 -139.64c-21.84,0 -47.22,20.48 -76.16,61.36 -28.94,40.96 -43.42,74.9 -43.42,101.81 0,18.95 6.34,28.52 18.88,28.52 18.19,0 43.41,-18.37 75.66,-55.1 32.24,-36.64 48.32,-70.41 48.32,-101.13 0,-23.6 -7.79,-35.46 -23.28,-35.46zm246.85 -20.3c17.01,-1.36 33.09,-2.88 48.07,-4.74 14.89,-1.61 27.33,-2.46 37.24,-2.46 12.52,0 20.48,1.18 23.78,3.46 3.3,2.29 4.99,6.35 4.99,12.19 0,13.37 -9.39,20.64 -28.01,21.74 -24.04,1.52 -46.04,3.56 -66.27,6.26 -20.14,2.63 -30.97,4.83 -32.58,6.52 -1.52,1.78 -6.52,21.42 -14.98,58.99 -8.46,37.66 -12.69,62.02 -12.69,73.28 0,18.2 2.45,30.3 7.19,36.3 4.82,6.1 12.02,9.06 21.58,9.06 14.22,0 34.02,-10.66 59.33,-31.98 9.73,-8.72 17.26,-13.12 22.5,-13.12 7.11,0 10.66,3.8 10.66,11.42 0,11.94 -11.42,27.34 -34.36,46.2 -22.84,18.96 -46.28,28.44 -70.24,28.44 -40.02,0 -60,-23.6 -60,-70.66 0,-17.01 4.14,-43.42 12.36,-79.13 8.12,-35.54 12.18,-56.86 12.18,-63.98 0,-2.45 -2.03,-3.72 -5.92,-3.72l-25.82 2.29c-21.16,0 -31.73,-8.47 -31.73,-25.31 0,-9.56 4.82,-14.38 14.64,-14.38l51.02 0c3.47,0 6.52,-1.6 9.22,-4.74 2.63,-3.14 6.52,-13.62 11.6,-31.56 5.16,-17.94 9.74,-35.72 13.62,-53.23 3.98,-17.34 11.77,-25.98 23.36,-25.98 7.11,0 12.61,2.46 16.59,7.44 3.98,4.91 5.92,9.57 5.92,13.88 0,2.29 -2.96,14.14 -8.88,35.46l-14.39 52.05z"/>
       <path class="fil6" d="M33907.22 19098.36l-36.56 0 0 -74.64 -6.17 0 -48.16 -81.66c-7.88,-13.38 -14.64,-22.77 -20.4,-28.02 -8.64,-8.12 -18.96,-12.18 -30.88,-12.18l0 121.86 -44.69 0 0 -263.53 44.69 0 0 113.74c16.58,0 28.94,-5.33 36.89,-16.08 2.63,-3.46 8.72,-16.76 18.11,-39.68 6.52,-15.83 11.5,-26.41 14.81,-31.74 7.27,-12.02 15.74,-19.64 25.38,-22.76 7.2,-2.29 18.62,-3.47 34.44,-3.47l8.98 0 0 37.07 -12.44 -0.26c-12.44,-0.17 -21.16,3.04 -26.32,9.64 -1.7,2.2 -5.68,11.51 -12.19,28.02 -6.09,15.57 -11.5,26.4 -16.08,32.5 -6.34,8.2 -15.82,15.32 -28.6,21.24 19.38,5.08 38.26,23.02 56.7,53.74l27.08 45.02 15.4 0 0 111.2zm-974.32 547.49c0,-6.91 -8.48,-14.74 -25.46,-23.55 -21.6,-11.1 -36.18,-19.91 -43.8,-26.55 -7.56,-6.64 -11.37,-14.1 -11.37,-22.26 0,-21.16 10.61,-38.68 31.77,-52.61 21.22,-13.92 38.52,-20.89 51.91,-20.89 8.59,0 14.85,1.52 18.71,4.46 3.87,2.99 5.82,8.16 5.82,15.5 0,3.27 -1.41,6.1 -4.24,8.44 -2.78,2.33 -5.01,3.47 -6.59,3.47 -1.19,0 -3.47,-0.76 -6.86,-2.4 -3.42,-1.46 -5.65,-2.23 -6.68,-2.23 -5.34,0 -16.11,3.92 -32.37,11.65 -16.26,7.78 -24.38,16.54 -24.38,26.33 0,5.93 2.89,11.32 8.59,16.16 5.77,4.84 16.06,10.76 30.9,17.79 12.03,5.72 21.6,11.86 28.78,18.39 7.19,6.53 10.77,14.2 10.77,23.01 0,16.26 -11.21,28.99 -33.62,38.19 -22.41,9.19 -43.85,13.77 -64.26,13.82 -17.19,-0.05 -25.78,-5.88 -25.78,-17.57 0,-4.03 1.9,-7.02 5.82,-8.92 3.87,-1.9 7.78,-2.89 11.7,-2.89 1.58,0 4.63,0.54 9.09,1.63 4.35,1.04 7.24,1.58 8.59,1.58 11.8,0 24.43,-1.96 37.92,-5.88 13.5,-3.97 21.87,-8.87 25.02,-14.69zm1359.55 -37.92c1.37,-1.8 10.89,-10.39 28.51,-25.68 16.71,-14.53 28.34,-25.13 34.93,-31.72 24.53,-24.53 42.16,-36.83 52.93,-36.83 8.28,0 12.41,4.02 12.41,11.97 0,9.03 -4.08,15.67 -12.24,19.91 -10.66,5.44 -24.81,14.41 -42.59,27.04 -17.73,12.56 -26.61,21.49 -26.61,26.71 0,2.12 6.26,10.07 18.82,23.83 12.51,13.76 23.4,23.88 32.48,30.41 9.14,6.53 18.06,9.79 26.66,9.79l5.22 -0.16c3.75,-0.22 5.6,1.47 5.6,4.96 0,4.68 -2.94,9.47 -8.76,14.25 -5.87,4.84 -13.54,7.29 -23.12,7.29 -6.15,0 -12.4,-2.17 -18.71,-6.47 -6.31,-4.3 -17.57,-15.89 -33.73,-34.82 -12.84,-15.62 -20.89,-24.97 -24.05,-27.96 -3.21,-3.04 -5.87,-4.56 -8,-4.56 -1.14,0 -4.89,2.77 -11.14,8.32 -6.26,5.5 -9.68,9.68 -10.29,12.57 -0.54,2.88 -0.86,13.82 -0.86,32.86l0 7.45c0,3.97 -1.85,7.45 -5.55,10.55 -3.75,3.05 -7.78,4.63 -12.13,4.63 -4.46,0 -7.95,-1.31 -10.5,-3.92 -2.56,-2.61 -3.87,-5.27 -3.87,-8.05 0,-3.81 1.47,-12.84 4.3,-27.09 4.08,-20.51 7.78,-47.99 11.15,-82.42 7.89,-81.28 13.92,-127.25 18.17,-137.92 4.3,-10.71 10.34,-16.05 18.18,-16.05 2.77,0 5.11,1.47 6.96,4.46 1.85,2.99 2.78,6.81 2.78,11.48 0,8.48 -3.65,31.06 -10.99,67.73 -7.34,36.77 -12.62,72.57 -15.95,107.45zm-1164.78 20.4c0,10.83 -9.57,23.88 -28.72,39.23 -19.2,15.29 -39.01,22.9 -59.41,22.9 -17.08,0 -30.3,-5 -39.6,-15.12 -9.3,-10.07 -13.93,-24.15 -13.93,-42.21 0,-30.41 10.23,-59.3 30.74,-86.72 20.51,-27.42 42.98,-41.12 67.3,-41.12 7.95,0 14.48,2.61 19.53,7.83 5.01,5.16 7.56,11.47 7.56,18.76 0,16.38 -8.05,32.05 -24.1,47.07 -16.05,14.96 -37.48,29.7 -64.36,44.12 -5.55,2.89 -8.27,6.58 -8.27,11.15 0,8.81 2.5,15.88 7.62,21.22 5.11,5.33 12.68,7.94 22.63,7.94 22.84,0 46.19,-12.61 69.96,-37.92 3.54,-3.49 6.2,-5.27 8,-5.27 3.37,0 5.06,2.71 5.06,8.15zm-110.77 -24.86c45.1,-26.76 67.63,-48.31 67.63,-64.57 0,-6.36 -2.89,-9.57 -8.66,-9.57 -9.74,0 -20.78,7.18 -33.07,21.54 -12.24,14.36 -20.89,31.88 -25.9,52.61zm176.27 15.62c1.09,-1.9 2.34,-4.58 3.87,-8 7.24,-16.54 13.87,-29.54 19.91,-38.95 6.03,-9.41 12.73,-18.39 20.02,-26.99 7.24,-8.65 13.93,-15.17 19.91,-19.64 5.98,-4.46 11.42,-7.56 16.32,-9.3 4.89,-1.74 9.63,-2.66 14.2,-2.66 9.25,0 16.76,2.83 22.64,8.38 5.82,5.6 8.76,12.08 8.76,19.53 0,3.31 -1.04,6.25 -3.1,8.91 -2.07,2.67 -5.22,3.98 -9.47,3.98 -4.46,0 -8.59,-1.96 -12.3,-5.88 -3.8,-3.92 -7.83,-5.87 -11.97,-5.87 -11.04,0 -26.33,13.38 -45.86,40.15 -19.59,26.76 -31.5,56.26 -35.74,88.46 -1.04,8.28 -3.05,13.77 -6.05,16.43 -2.99,2.61 -7.18,3.98 -12.56,3.98 -5.22,0 -8.98,-3.87 -11.32,-11.65 -2.33,-7.78 -3.54,-20.84 -3.54,-39.22 0,-4.96 0.28,-16 0.82,-32.97 0.6,-20.08 1.9,-36.28 3.8,-48.64 0.33,-2 0.87,-6.74 1.58,-14.14 0.76,-8.22 1.69,-13.88 2.83,-17.09 1.09,-3.16 3.37,-6.15 6.85,-8.92 3.43,-2.78 7.19,-4.13 11.22,-4.13 3.92,0 6.91,1.25 8.86,3.75 1.96,2.5 2.94,5.17 2.94,8.05 0,4.13 -1.09,9.96 -3.21,17.52 -2.46,8.38 -3.87,14.2 -4.3,17.35 -0.33,3.65 -0.87,7.4 -1.75,11.32 -1.09,4.56 -2.12,16.59 -3.21,36.01l-0.16 5.93 0 4.3zm188.56 -150.15c-2.23,0 -3.92,-2.4 -5.12,-7.19 -0.43,-1.47 -0.98,-3.09 -1.74,-4.95 -2.88,-6.86 -4.3,-12.89 -4.3,-18.01 0,-4.25 2.5,-8.54 7.57,-12.94 5.06,-4.41 10.66,-6.64 16.81,-6.64 3.09,0 6.53,1.2 10.38,3.59 3.81,2.4 5.72,4.69 5.72,6.91 0,3.54 -1.31,9.47 -3.92,17.9 -2.61,8.38 -6.74,14.04 -12.4,16.97 -5.72,2.89 -10.01,4.36 -13.01,4.36zm-20.89 178.06c0,8.06 1.14,17.14 3.37,27.26 0.43,1.9 0.6,3.47 0.6,4.73 0,1.95 -1.74,4.41 -5.22,7.45 -3.54,2.99 -7.24,4.51 -11.15,4.51 -10.33,0 -15.45,-9.47 -15.45,-28.34 0,-19.59 4.03,-50.49 12.08,-92.75 2.78,-14.8 4.13,-23.88 4.13,-27.25 0,-6.69 1.25,-12.41 3.7,-17.14 2.45,-4.74 5.88,-7.12 10.34,-7.12 5.44,0 9.68,1.31 12.83,3.92 3.16,2.61 4.69,5.49 4.69,8.7 0,3.16 -0.71,7.4 -2.23,12.57 -7.95,28.07 -12.9,48.15 -14.8,60.28 -1.9,12.08 -2.88,26.49 -2.88,43.19zm94.82 -39.06c1.37,-1.8 10.89,-10.39 28.51,-25.68 16.71,-14.53 28.34,-25.13 34.93,-31.72 24.53,-24.53 42.16,-36.83 52.93,-36.83 8.28,0 12.41,4.02 12.41,11.97 0,9.03 -4.08,15.67 -12.24,19.91 -10.66,5.44 -24.81,14.41 -42.59,27.04 -17.73,12.56 -26.61,21.49 -26.61,26.71 0,2.12 6.26,10.07 18.82,23.83 12.51,13.76 23.4,23.88 32.48,30.41 9.14,6.53 18.06,9.79 26.66,9.79l5.22 -0.16c3.75,-0.22 5.6,1.47 5.6,4.96 0,4.68 -2.94,9.47 -8.76,14.25 -5.87,4.84 -13.54,7.29 -23.12,7.29 -6.15,0 -12.4,-2.17 -18.71,-6.47 -6.31,-4.3 -17.57,-15.89 -33.73,-34.82 -12.84,-15.62 -20.89,-24.97 -24.05,-27.96 -3.21,-3.04 -5.87,-4.56 -8,-4.56 -1.14,0 -4.89,2.77 -11.14,8.32 -6.26,5.5 -9.68,9.68 -10.29,12.57 -0.54,2.88 -0.86,13.82 -0.86,32.86l0 7.45c0,3.97 -1.85,7.45 -5.55,10.55 -3.75,3.05 -7.78,4.63 -12.13,4.63 -4.46,0 -7.95,-1.31 -10.5,-3.92 -2.56,-2.61 -3.87,-5.27 -3.87,-8.05 0,-3.81 1.47,-12.84 4.3,-27.09 4.08,-20.51 7.78,-47.99 11.15,-82.42 7.89,-81.28 13.92,-127.25 18.17,-137.92 4.3,-10.71 10.34,-16.05 18.18,-16.05 2.77,0 5.11,1.47 6.96,4.46 1.85,2.99 2.78,6.81 2.78,11.48 0,8.48 -3.65,31.06 -10.99,67.73 -7.34,36.77 -12.62,72.57 -15.95,107.45zm206.57 -183.29l0.49 0c2.99,0 7.45,1.04 13.38,3.16 5.93,2.13 9.85,3.92 11.7,5.34 1.85,1.47 2.83,3.87 2.83,7.29 0,6.58 -3.04,12.35 -9.08,17.3 -6.1,4.89 -10.61,7.39 -13.55,7.39 -5.11,0 -9.57,-2.23 -13.44,-6.69 -3.8,-4.45 -5.72,-8.91 -5.72,-13.38 0,-11.48 4.46,-18.28 13.39,-20.41zm-64.52 358.91c-12.68,0 -24.91,-5.28 -36.77,-15.83 -11.86,-10.56 -17.73,-19.7 -17.73,-27.37 0,-2.12 0.71,-4.19 2.23,-6.26 1.47,-2.07 2.56,-3.09 3.32,-3.09 0.76,0 2.39,1.03 4.95,3.16 16.71,14.68 30.14,21.98 40.31,21.98 8.38,0 15.62,-3.98 21.71,-12.03 6.03,-8 10.38,-22.91 13.06,-44.61 2.66,-21.71 5.16,-55.5 7.45,-101.3 1.62,-33.02 3.04,-54.03 4.24,-62.95 1.25,-8.92 3.76,-15.17 7.57,-18.71 3.87,-3.59 8.71,-5.39 14.69,-5.39 3.04,0 5.98,1.2 8.7,3.59 2.67,2.4 4.03,5.34 4.03,8.71 0,1.9 -0.38,4.51 -1.09,7.83 -7.78,33.57 -12.84,77.3 -15.17,131.16 -1.47,32.48 -4.51,56.59 -9.09,72.19 -4.56,15.62 -11.59,27.7 -21.11,36.18 -9.52,8.49 -19.91,12.74 -31.28,12.74zm232.69 -159.19c-14.86,19.97 -29.6,34.92 -44.13,44.94 -14.58,9.95 -27.91,14.96 -40.04,14.96 -8.15,0 -15.23,-3.42 -21.16,-10.33 -5.98,-6.91 -8.92,-15.78 -8.92,-26.66 0,-27.91 12.46,-57.99 37.43,-90.26 24.97,-32.26 49.78,-48.36 74.42,-48.36 8.92,0 15.56,5.06 19.97,15.29 1.36,3.37 3.54,5.11 6.53,5.11 8.48,0 12.73,3.27 12.73,9.85 0,3.32 -0.54,7.83 -1.57,13.54 -5.77,31.34 -8.61,53.48 -8.61,66.32 0,25.73 4.84,41.13 14.64,46.24 4.68,2.56 7.02,5.65 7.02,9.36 0,3.32 -2.29,6.64 -6.86,10.01 -4.58,3.32 -8.98,5.01 -13.22,5.01 -8.21,0 -14.96,-5.66 -20.24,-16.92 -5.33,-11.26 -7.99,-27.32 -7.99,-48.09zm-9.68 -89.76c-14.04,0 -30.36,13.16 -48.97,39.44 -18.61,26.33 -27.91,48.15 -27.91,65.45 0,12.18 4.08,18.33 12.14,18.33 11.69,0 27.9,-11.8 48.63,-35.41 20.73,-23.56 31.07,-45.27 31.07,-65.02 0,-15.17 -5.01,-22.79 -14.96,-22.79zm202.38 25.19c-5.55,0 -11.59,3.59 -18.11,10.83 -6.53,7.24 -16.49,23.45 -29.88,48.64 -17.62,33.78 -29.04,52.99 -34.16,57.67 -5.16,4.68 -9.47,7.01 -12.84,7.01 -12.56,0 -18.82,-6.03 -18.82,-18.17 0,-5.06 0.87,-12.3 2.56,-21.65 5.82,-32.1 8.76,-65.94 8.76,-101.51 0,-4.08 1.74,-8.54 5.17,-13.5 3.49,-4.95 6.74,-7.39 9.79,-7.39 5.55,0 9.47,1.69 11.81,5.11 2.33,3.37 3.54,10.23 3.54,20.56 0,10.72 -3.22,32.81 -9.58,66.27 -2.12,11.04 -3.21,18.05 -3.21,21.05 0,1.7 0.43,2.56 1.31,2.56 1.58,0 8.98,-12.73 22.15,-38.08 13.27,-25.85 24.91,-44.01 34.87,-54.51 10,-10.56 20.99,-15.78 33.02,-15.78 9.57,0 17.35,4.36 23.34,13.06 5.98,8.71 10.39,24.59 13.16,47.66 3,26.22 5.66,42.59 8.06,49.01 2.39,6.43 6.2,9.63 11.37,9.63 3.31,0 7.45,-1.14 12.45,-3.49 0.82,-0.43 1.47,-0.65 1.91,-0.65 4.56,0 6.85,2.66 6.85,7.95 0,4.68 -3.16,9.67 -9.41,14.9 -6.26,5.28 -13.82,7.9 -22.63,7.9 -9.04,0 -16,-3.6 -20.95,-10.72 -4.95,-7.18 -8.86,-26.33 -11.75,-57.5 -2.93,-31.22 -9.19,-46.84 -18.76,-46.84zm579.35 35.47c0,39.44 -12.74,66.26 -38.19,80.36 -12.41,6.91 -26.06,10.33 -40.86,10.33 -25.68,0 -45.6,-8.43 -59.68,-25.29 -13.06,-15.73 -19.59,-36.72 -19.59,-63 0,-31.28 8.7,-54.46 26.11,-69.53 14.53,-12.51 32.2,-18.77 53.15,-18.77 24.91,0 44.44,8.22 58.69,24.65 13.55,15.61 20.36,36.01 20.36,61.25zm-30.03 -13.77c-1.8,-13.65 -6.26,-24.43 -13.28,-32.26 -9.52,-10.71 -21.44,-16.05 -35.74,-16.05 -14.48,0 -26.44,5.34 -35.91,16.05 -7.07,7.83 -11.54,18.61 -13.32,32.26l98.25 0zm0.65 23.5l-99.56 0c0.87,16.33 5.17,29.65 12.95,39.93 8.92,11.7 21.27,17.52 36.94,17.52 15.61,0 27.9,-5.87 36.72,-17.68 7.67,-10.17 11.97,-23.44 12.94,-39.77zm93.95 2.94c1.37,-1.8 10.89,-10.39 28.51,-25.68 16.71,-14.53 28.34,-25.13 34.93,-31.72 24.53,-24.53 42.16,-36.83 52.93,-36.83 8.28,0 12.41,4.02 12.41,11.97 0,9.03 -4.08,15.67 -12.24,19.91 -10.66,5.44 -24.81,14.41 -42.59,27.04 -17.73,12.56 -26.61,21.49 -26.61,26.71 0,2.12 6.26,10.07 18.82,23.83 12.51,13.76 23.4,23.88 32.48,30.41 9.14,6.53 18.06,9.79 26.66,9.79l5.22 -0.16c3.75,-0.22 5.6,1.47 5.6,4.96 0,4.68 -2.94,9.47 -8.76,14.25 -5.87,4.84 -13.54,7.29 -23.12,7.29 -6.15,0 -12.4,-2.17 -18.71,-6.47 -6.31,-4.3 -17.57,-15.89 -33.73,-34.82 -12.84,-15.62 -20.89,-24.97 -24.05,-27.96 -3.21,-3.04 -5.87,-4.56 -8,-4.56 -1.14,0 -4.89,2.77 -11.14,8.32 -6.26,5.5 -9.68,9.68 -10.29,12.57 -0.54,2.88 -0.86,13.82 -0.86,32.86l0 7.45c0,3.97 -1.85,7.45 -5.55,10.55 -3.75,3.05 -7.78,4.63 -12.13,4.63 -4.46,0 -7.95,-1.31 -10.5,-3.92 -2.56,-2.61 -3.87,-5.27 -3.87,-8.05 0,-3.81 1.47,-12.84 4.3,-27.09 4.08,-20.51 7.78,-47.99 11.15,-82.42 7.89,-81.28 13.92,-127.25 18.17,-137.92 4.3,-10.71 10.34,-16.05 18.18,-16.05 2.77,0 5.11,1.47 6.96,4.46 1.85,2.99 2.78,6.81 2.78,11.48 0,8.48 -3.65,31.06 -10.99,67.73 -7.34,36.77 -12.62,72.57 -15.95,107.45zm298.52 20.4c0,10.83 -9.57,23.88 -28.72,39.23 -19.2,15.29 -39.01,22.9 -59.41,22.9 -17.08,0 -30.3,-5 -39.6,-15.12 -9.3,-10.07 -13.93,-24.15 -13.93,-42.21 0,-30.41 10.23,-59.3 30.74,-86.72 20.51,-27.42 42.98,-41.12 67.3,-41.12 7.95,0 14.48,2.61 19.53,7.83 5.01,5.16 7.56,11.47 7.56,18.76 0,16.38 -8.05,32.05 -24.1,47.07 -16.05,14.96 -37.48,29.7 -64.36,44.12 -5.55,2.89 -8.27,6.58 -8.27,11.15 0,8.81 2.5,15.88 7.62,21.22 5.11,5.33 12.68,7.94 22.63,7.94 22.84,0 46.19,-12.61 69.96,-37.92 3.54,-3.49 6.2,-5.27 8,-5.27 3.37,0 5.06,2.71 5.06,8.15zm-110.77 -24.86c45.1,-26.76 67.63,-48.31 67.63,-64.57 0,-6.36 -2.89,-9.57 -8.66,-9.57 -9.74,0 -20.78,7.18 -33.07,21.54 -12.24,14.36 -20.89,31.88 -25.9,52.61zm173.27 -11.8c13.6,-24.76 29.87,-44.84 48.74,-60.17 18.94,-15.34 35.96,-23.01 51.2,-23.01 8.38,0 15.5,3.87 21.32,11.64 5.88,7.73 8.76,17.19 8.76,28.34 0,33.02 -12.46,64.03 -37.37,93.03 -24.92,28.94 -51.2,43.42 -78.94,43.42 -7.57,0 -14.48,-2.07 -20.84,-6.15 -6.31,-4.08 -9.85,-9.2 -10.56,-15.4 -0.43,-4.95 -1.9,-8.7 -4.3,-11.15 -4.56,-4.56 -6.85,-9.46 -6.85,-14.63 0,-9.68 2.61,-30.36 7.94,-62.02l16.43 -95.31c5.6,-31.98 9.74,-51.73 12.35,-59.29 2.61,-7.52 5.5,-12.57 8.71,-15.13 3.16,-2.55 7.07,-3.8 11.75,-3.8 7.45,0 11.15,6.42 11.15,19.26 0,12.24 -4.08,29.32 -12.24,51.36 -7.89,21.11 -16.97,60.82 -27.25,119.03zm-3.87 53.09c5.55,10.29 12.24,15.45 20.13,15.45 12.08,0 24.92,-5.06 38.41,-15.07 13.5,-10.05 25.14,-24.15 34.99,-42.38 9.79,-18.22 14.74,-33.62 14.74,-46.18 0,-5.6 -1.04,-10.45 -3.05,-14.48 -2,-4.03 -4.56,-6.1 -7.67,-6.1 -14.74,0 -32.81,12.13 -54.08,36.29 -21.32,24.15 -35.79,48.31 -43.47,72.46zm272.08 -20.4c-14.86,19.97 -29.6,34.92 -44.13,44.94 -14.58,9.95 -27.91,14.96 -40.04,14.96 -8.15,0 -15.23,-3.42 -21.16,-10.33 -5.98,-6.91 -8.92,-15.78 -8.92,-26.66 0,-27.91 12.46,-57.99 37.43,-90.26 24.97,-32.26 49.78,-48.36 74.42,-48.36 8.92,0 15.56,5.06 19.97,15.29 1.36,3.37 3.54,5.11 6.53,5.11 8.48,0 12.73,3.27 12.73,9.85 0,3.32 -0.54,7.83 -1.57,13.54 -5.77,31.34 -8.61,53.48 -8.61,66.32 0,25.73 4.84,41.13 14.64,46.24 4.68,2.56 7.02,5.65 7.02,9.36 0,3.32 -2.29,6.64 -6.86,10.01 -4.58,3.32 -8.98,5.01 -13.22,5.01 -8.21,0 -14.96,-5.66 -20.24,-16.92 -5.33,-11.26 -7.99,-27.32 -7.99,-48.09zm-9.68 -89.76c-14.04,0 -30.36,13.16 -48.97,39.44 -18.61,26.33 -27.91,48.15 -27.91,65.45 0,12.18 4.08,18.33 12.14,18.33 11.69,0 27.9,-11.8 48.63,-35.41 20.73,-23.56 31.07,-45.27 31.07,-65.02 0,-15.17 -5.01,-22.79 -14.96,-22.79zm145.15 -65.66c-2.23,0 -3.92,-2.4 -5.12,-7.19 -0.43,-1.47 -0.98,-3.09 -1.74,-4.95 -2.88,-6.86 -4.3,-12.89 -4.3,-18.01 0,-4.25 2.5,-8.54 7.57,-12.94 5.06,-4.41 10.66,-6.64 16.81,-6.64 3.09,0 6.53,1.2 10.38,3.59 3.81,2.4 5.72,4.69 5.72,6.91 0,3.54 -1.31,9.47 -3.92,17.9 -2.61,8.38 -6.74,14.04 -12.4,16.97 -5.72,2.89 -10.01,4.36 -13.01,4.36zm-20.89 178.06c0,8.06 1.14,17.14 3.37,27.26 0.43,1.9 0.6,3.47 0.6,4.73 0,1.95 -1.74,4.41 -5.22,7.45 -3.54,2.99 -7.24,4.51 -11.15,4.51 -10.33,0 -15.45,-9.47 -15.45,-28.34 0,-19.59 4.03,-50.49 12.08,-92.75 2.78,-14.8 4.13,-23.88 4.13,-27.25 0,-6.69 1.25,-12.41 3.7,-17.14 2.45,-4.74 5.88,-7.12 10.34,-7.12 5.44,0 9.68,1.31 12.83,3.92 3.16,2.61 4.69,5.49 4.69,8.7 0,3.16 -0.71,7.4 -2.23,12.57 -7.95,28.07 -12.9,48.15 -14.8,60.28 -1.9,12.08 -2.88,26.49 -2.88,43.19zm-3566.22 567.7c0,-6.91 -8.48,-14.74 -25.46,-23.55 -21.6,-11.1 -36.18,-19.91 -43.8,-26.55 -7.56,-6.64 -11.37,-14.1 -11.37,-22.26 0,-21.16 10.61,-38.68 31.77,-52.61 21.22,-13.92 38.52,-20.89 51.91,-20.89 8.59,0 14.85,1.52 18.71,4.46 3.87,2.99 5.82,8.16 5.82,15.5 0,3.27 -1.41,6.1 -4.24,8.44 -2.78,2.33 -5.01,3.47 -6.59,3.47 -1.19,0 -3.47,-0.76 -6.86,-2.4 -3.42,-1.46 -5.65,-2.23 -6.68,-2.23 -5.34,0 -16.11,3.92 -32.37,11.65 -16.26,7.78 -24.38,16.54 -24.38,26.33 0,5.93 2.89,11.32 8.59,16.16 5.77,4.84 16.06,10.76 30.9,17.79 12.03,5.72 21.6,11.86 28.78,18.39 7.19,6.53 10.77,14.2 10.77,23.01 0,16.26 -11.21,28.99 -33.62,38.19 -22.41,9.19 -43.85,13.77 -64.26,13.82 -17.19,-0.05 -25.78,-5.88 -25.78,-17.57 0,-4.03 1.9,-7.02 5.82,-8.92 3.87,-1.9 7.78,-2.89 11.7,-2.89 1.58,0 4.63,0.54 9.09,1.63 4.35,1.04 7.24,1.58 8.59,1.58 11.8,0 24.43,-1.96 37.92,-5.88 13.5,-3.97 21.87,-8.87 25.02,-14.69zm89.28 -37.92c1.37,-1.8 10.89,-10.39 28.51,-25.68 16.71,-14.53 28.34,-25.13 34.93,-31.72 24.53,-24.53 42.16,-36.83 52.93,-36.83 8.28,0 12.41,4.02 12.41,11.97 0,9.03 -4.08,15.67 -12.24,19.91 -10.66,5.44 -24.81,14.41 -42.59,27.04 -17.73,12.56 -26.61,21.49 -26.61,26.71 0,2.12 6.26,10.07 18.82,23.83 12.51,13.76 23.4,23.88 32.48,30.41 9.14,6.53 18.06,9.79 26.66,9.79l5.22 -0.16c3.75,-0.22 5.6,1.47 5.6,4.96 0,4.68 -2.94,9.47 -8.76,14.25 -5.87,4.84 -13.54,7.29 -23.12,7.29 -6.15,0 -12.4,-2.17 -18.71,-6.47 -6.31,-4.3 -17.57,-15.89 -33.73,-34.82 -12.84,-15.62 -20.89,-24.97 -24.05,-27.96 -3.21,-3.04 -5.87,-4.56 -8,-4.56 -1.14,0 -4.89,2.77 -11.14,8.32 -6.26,5.5 -9.68,9.68 -10.29,12.57 -0.54,2.88 -0.86,13.82 -0.86,32.86l0 7.45c0,3.97 -1.85,7.45 -5.55,10.55 -3.75,3.05 -7.78,4.63 -12.13,4.63 -4.46,0 -7.95,-1.31 -10.5,-3.92 -2.56,-2.61 -3.87,-5.27 -3.87,-8.05 0,-3.81 1.47,-12.84 4.3,-27.09 4.08,-20.51 7.78,-47.99 11.15,-82.42 7.89,-81.28 13.92,-127.25 18.17,-137.92 4.3,-10.71 10.34,-16.05 18.18,-16.05 2.77,0 5.11,1.47 6.96,4.46 1.85,2.99 2.78,6.81 2.78,11.48 0,8.48 -3.65,31.06 -10.99,67.73 -7.34,36.77 -12.62,72.57 -15.95,107.45zm243.73 -29.32l11.65 0c19.75,0 34.43,-0.71 44.12,-2.07 4.68,-0.66 9.36,-0.99 14.03,-0.99 2.02,0 6.15,1.25 12.36,3.65 6.2,2.45 9.9,4.51 11.09,6.15 1.14,1.69 1.75,3.87 1.75,6.64 0,3.92 -0.82,6.68 -2.4,8.27 -1.58,1.57 -5.06,2.4 -10.39,2.4 -2.34,0 -5.6,-0.71 -9.85,-2.07 -4.25,-1.37 -7.83,-2.07 -10.71,-2.07 -1.14,0 -5.01,0.27 -11.59,0.81 -3.54,0.27 -9.9,0.05 -19.15,-0.81 -7.12,-0.66 -12.41,-0.99 -15.95,-0.99 -4.89,0 -12.29,0.33 -22.13,0.99 -9.9,0.65 -17.35,0.98 -22.47,0.98 -5.11,0 -9.24,-0.6 -12.35,-1.69 -3.16,-1.14 -4.73,-3.65 -4.73,-7.57 0,-1.74 0.71,-3.7 2.17,-5.98 1.42,-2.28 6.31,-4.08 14.59,-5.44 8.27,-1.31 14.25,-2.02 17.84,-2.02l12.13 1.8zm172.13 -153.97l0.49 0c2.99,0 7.45,1.04 13.38,3.16 5.93,2.13 9.85,3.92 11.7,5.34 1.85,1.47 2.83,3.87 2.83,7.29 0,6.58 -3.04,12.35 -9.08,17.3 -6.1,4.89 -10.61,7.39 -13.55,7.39 -5.11,0 -9.57,-2.23 -13.44,-6.69 -3.8,-4.45 -5.72,-8.91 -5.72,-13.38 0,-11.48 4.46,-18.28 13.39,-20.41zm-64.52 358.91c-12.68,0 -24.91,-5.28 -36.77,-15.83 -11.86,-10.56 -17.73,-19.7 -17.73,-27.37 0,-2.12 0.71,-4.19 2.23,-6.26 1.47,-2.07 2.56,-3.09 3.32,-3.09 0.76,0 2.39,1.03 4.95,3.16 16.71,14.68 30.14,21.98 40.31,21.98 8.38,0 15.62,-3.98 21.71,-12.03 6.03,-8 10.38,-22.91 13.06,-44.61 2.66,-21.71 5.16,-55.5 7.45,-101.3 1.62,-33.02 3.04,-54.03 4.24,-62.95 1.25,-8.92 3.76,-15.17 7.57,-18.71 3.87,-3.59 8.71,-5.39 14.69,-5.39 3.04,0 5.98,1.2 8.7,3.59 2.67,2.4 4.03,5.34 4.03,8.71 0,1.9 -0.38,4.51 -1.09,7.83 -7.78,33.57 -12.84,77.3 -15.17,131.16 -1.47,32.48 -4.51,56.59 -9.09,72.19 -4.56,15.62 -11.59,27.7 -21.11,36.18 -9.52,8.49 -19.91,12.74 -31.28,12.74z"/>
       <path class="fil6" d="M32457.02 20259.15c-14.53,0 -26.55,-5.5 -36.01,-16.54 -9.47,-11.04 -14.2,-24.71 -14.2,-40.97 0,-27.42 9.25,-54.46 27.69,-81.05 18.39,-26.61 40.48,-39.93 66.21,-39.93 16.97,0 30.79,6.53 41.35,19.64 10.56,13.06 15.88,28.61 15.88,46.68 0,27.64 -10.93,53.2 -32.74,76.82 -21.88,23.62 -44.56,35.37 -68.17,35.37zm-22.15 -61.64c0,10.72 2.23,19.48 6.75,26.28 4.51,6.8 10.5,10.23 17.95,10.23 15.83,0 31.72,-8.71 47.65,-26.06 15.95,-17.41 23.88,-36.72 23.88,-57.94 0,-13.11 -3.04,-23.66 -9.14,-31.82 -6.09,-8.11 -14.3,-12.18 -24.64,-12.18 -17.08,0 -31.77,10.5 -44.06,31.49 -12.24,20.95 -18.39,40.97 -18.39,60.01zm189.38 -36.99c13.6,-24.76 29.87,-44.84 48.74,-60.17 18.94,-15.34 35.96,-23.01 51.2,-23.01 8.38,0 15.5,3.87 21.32,11.64 5.88,7.73 8.76,17.19 8.76,28.34 0,33.02 -12.46,64.03 -37.37,93.03 -24.92,28.94 -51.2,43.42 -78.94,43.42 -7.57,0 -14.48,-2.07 -20.84,-6.15 -6.31,-4.08 -9.85,-9.2 -10.56,-15.4 -0.43,-4.95 -1.9,-8.7 -4.3,-11.15 -4.56,-4.56 -6.85,-9.46 -6.85,-14.63 0,-9.68 2.61,-30.36 7.94,-62.02l16.43 -95.31c5.6,-31.98 9.74,-51.73 12.35,-59.29 2.61,-7.52 5.5,-12.57 8.71,-15.13 3.16,-2.55 7.07,-3.8 11.75,-3.8 7.45,0 11.15,6.42 11.15,19.26 0,12.24 -4.08,29.32 -12.24,51.36 -7.89,21.11 -16.97,60.82 -27.25,119.03zm-3.87 53.09c5.55,10.29 12.24,15.45 20.13,15.45 12.08,0 24.92,-5.06 38.41,-15.07 13.5,-10.05 25.14,-24.15 34.99,-42.38 9.79,-18.22 14.74,-33.62 14.74,-46.18 0,-5.6 -1.04,-10.45 -3.05,-14.48 -2,-4.03 -4.56,-6.1 -7.67,-6.1 -14.74,0 -32.81,12.13 -54.08,36.29 -21.32,24.15 -35.79,48.31 -43.47,72.46zm272.08 -20.4c-14.86,19.97 -29.6,34.92 -44.13,44.94 -14.58,9.95 -27.91,14.96 -40.04,14.96 -8.15,0 -15.23,-3.42 -21.16,-10.33 -5.98,-6.91 -8.92,-15.78 -8.92,-26.66 0,-27.91 12.46,-57.99 37.43,-90.26 24.97,-32.26 49.78,-48.36 74.42,-48.36 8.92,0 15.56,5.06 19.97,15.29 1.36,3.37 3.54,5.11 6.53,5.11 8.48,0 12.73,3.27 12.73,9.85 0,3.32 -0.54,7.83 -1.57,13.54 -5.77,31.34 -8.61,53.48 -8.61,66.32 0,25.73 4.84,41.13 14.64,46.24 4.68,2.56 7.02,5.65 7.02,9.36 0,3.32 -2.29,6.64 -6.86,10.01 -4.58,3.32 -8.98,5.01 -13.22,5.01 -8.21,0 -14.96,-5.66 -20.24,-16.92 -5.33,-11.26 -7.99,-27.32 -7.99,-48.09zm-9.68 -89.76c-14.04,0 -30.36,13.16 -48.97,39.44 -18.61,26.33 -27.91,48.15 -27.91,65.45 0,12.18 4.08,18.33 12.14,18.33 11.69,0 27.9,-11.8 48.63,-35.41 20.73,-23.56 31.07,-45.27 31.07,-65.02 0,-15.17 -5.01,-22.79 -14.96,-22.79zm367.6 65.5c-7.29,5.65 -16.43,10.77 -27.37,15.45 -10.99,4.68 -19.37,7.01 -25.19,7.01 -7.89,0 -15.24,-2.99 -22.03,-8.98 -6.81,-6.03 -10.18,-12.35 -10.18,-19.04 0,-15.94 7.67,-33.67 23.12,-53.26 15.4,-19.53 28.79,-29.33 40.16,-29.33 14.03,0 24.1,3.05 30.3,9.09 1.36,0.98 2.07,2.61 2.07,4.96 0,1.57 -0.11,3.37 -0.27,5.44 -0.16,2.02 0.76,2.99 2.83,2.99 0.93,0 2.23,-0.43 3.8,-1.25 1.58,-0.86 2.94,-1.31 3.97,-1.31 5.93,0 8.92,2.83 8.92,8.49 0,1.36 -1.69,6.25 -5.11,14.63 -3.27,7.78 -5.34,13.01 -6.1,15.72 -0.81,2.72 -1.19,6.48 -1.19,11.37 0,4.79 3.54,7.19 10.66,7.19 9.68,0 18.61,-5.06 26.87,-15.12 8.21,-10.12 12.35,-20.02 12.35,-29.81 0,-9.68 -4.08,-22.53 -12.13,-38.57 -8.05,-16.05 -17.95,-27.31 -29.65,-33.73 -11.69,-6.42 -20.94,-9.62 -27.74,-9.62 -12.3,0 -28.57,8.27 -48.7,24.81 -20.12,16.48 -37.8,37.92 -53.04,64.31 -15.29,26.33 -22.91,45.15 -22.91,56.41 0,15.17 9.25,29.16 27.7,41.89 18.38,12.78 39.93,19.14 64.63,19.14 12.74,0 29.55,-2.99 50.44,-9.03 20.89,-5.98 37.26,-13.71 49.17,-23.17 4.36,-3.49 6.97,-5.28 7.78,-5.28 1.63,0 3.49,0.76 5.6,2.23 2.12,1.52 3.16,2.89 3.16,4.19 0,8.05 -2.02,14.25 -6.1,18.6 -4.13,4.36 -11.42,8.71 -21.92,13.01 -10.56,4.3 -25.73,8.49 -45.6,12.62 -19.85,4.08 -37.75,6.1 -53.58,6.1 -25.68,0 -49.34,-7.4 -70.89,-22.31 -21.6,-14.86 -32.37,-34.11 -32.37,-57.67 0,-16.71 8.87,-39.99 26.56,-69.86 17.68,-29.81 37.81,-53.15 60.33,-69.85 22.53,-16.76 41.89,-25.14 58.16,-25.14 26.11,0 47.6,10.99 64.47,32.91 16.86,21.98 25.24,44.18 25.24,66.7 0,14.15 -3.7,27.64 -11.15,40.53 -7.39,12.84 -17.03,21.27 -28.72,25.25 -11.75,3.97 -18.71,5.98 -20.83,5.98 -9.68,0 -18.18,-4.9 -25.52,-14.69zm-10.01 -66.92c-12.84,0.6 -24.43,8.54 -34.66,23.72 -10.28,15.24 -15.39,26.01 -15.39,32.37 0,4.25 1.09,7.24 3.26,8.92 2.18,1.69 6.86,2.55 14.1,2.55 4.89,0 12.13,-2.83 21.75,-8.53 9.63,-5.66 14.42,-10.66 14.42,-14.91 0,-1.14 -0.28,-5.34 -0.76,-12.57 -0.33,-4.78 0.76,-9.74 3.31,-14.85 2.46,-4.68 3.7,-7.07 3.7,-7.29 0,-1.31 -3.26,-4.41 -9.74,-9.42zm312.5 157.12c-14.53,0 -26.55,-5.5 -36.01,-16.54 -9.47,-11.04 -14.2,-24.71 -14.2,-40.97 0,-27.42 9.25,-54.46 27.69,-81.05 18.39,-26.61 40.48,-39.93 66.21,-39.93 16.97,0 30.79,6.53 41.35,19.64 10.56,13.06 15.88,28.61 15.88,46.68 0,27.64 -10.93,53.2 -32.74,76.82 -21.88,23.62 -44.56,35.37 -68.17,35.37zm-22.15 -61.64c0,10.72 2.23,19.48 6.75,26.28 4.51,6.8 10.5,10.23 17.95,10.23 15.83,0 31.72,-8.71 47.65,-26.06 15.95,-17.41 23.88,-36.72 23.88,-57.94 0,-13.11 -3.04,-23.66 -9.14,-31.82 -6.09,-8.11 -14.3,-12.18 -24.64,-12.18 -17.08,0 -31.77,10.5 -44.06,31.49 -12.24,20.95 -18.39,40.97 -18.39,60.01zm272.73 -15.62c-13.6,22.8 -27.53,40.54 -41.78,53.05 -14.2,12.56 -27.42,18.82 -39.66,18.82 -7.01,0 -14.15,-4.08 -21.44,-12.3 -7.29,-8.16 -10.93,-20.79 -10.93,-37.76 0,-13.92 3.37,-34.43 10.07,-61.53 5.6,-22.63 8.43,-38.51 8.43,-47.65 3.1,-6.36 7.95,-9.57 14.53,-9.57 4.46,0 8,1.57 10.66,4.73 2.66,3.1 3.97,6.36 3.97,9.8 0,7.44 -2.61,18 -7.77,31.72 -9.91,26.65 -14.86,49.55 -14.86,68.71 0,17.41 4.03,26.11 12.13,26.11 10.28,0 23.45,-8.76 39.33,-26.28 15.94,-17.57 29.6,-42 40.96,-73.33 4.46,-12.51 8.11,-20.67 10.94,-24.48 2.83,-3.75 6.64,-5.66 11.42,-5.66 7.19,0 10.83,4.79 10.83,14.36 0,1.14 -1.03,5.06 -3.04,11.65 -6.36,23.29 -9.57,45.26 -9.57,65.99 0,24.86 4.13,40.96 12.3,48.25 4.24,3.98 6.36,7.12 6.36,9.58 0,2.99 -2.13,5.71 -6.48,8.15 -4.3,2.45 -8.16,3.65 -11.7,3.65 -7.45,0 -13.44,-5.55 -18,-16.59 -4.58,-11.04 -6.86,-27.37 -6.86,-48.91l0 -5.28c0,-1.69 0.05,-3.42 0.16,-5.22zm151.4 -91.5c10.94,-0.87 21.27,-1.85 30.9,-3.05 9.57,-1.03 17.57,-1.57 23.93,-1.57 8.06,0 13.17,0.76 15.29,2.23 2.13,1.47 3.22,4.08 3.22,7.83 0,8.59 -6.05,13.27 -18.01,13.98 -15.45,0.98 -29.6,2.28 -42.59,4.03 -12.95,1.69 -19.91,3.09 -20.95,4.18 -0.98,1.14 -4.18,13.77 -9.62,37.92 -5.44,24.21 -8.16,39.88 -8.16,47.12 0,11.7 1.57,19.47 4.63,23.34 3.09,3.92 7.72,5.82 13.87,5.82 9.14,0 21.87,-6.86 38.14,-20.56 6.25,-5.6 11.09,-8.43 14.47,-8.43 4.58,0 6.86,2.45 6.86,7.34 0,7.67 -7.34,17.57 -22.08,29.7 -14.69,12.19 -29.76,18.28 -45.16,18.28 -25.72,0 -38.56,-15.17 -38.56,-45.42 0,-10.94 2.66,-27.91 7.94,-50.87 5.22,-22.84 7.83,-36.56 7.83,-41.12 0,-1.58 -1.31,-2.4 -3.8,-2.4l-16.59 1.47c-13.6,0 -20.4,-5.45 -20.4,-16.27 0,-6.15 3.09,-9.24 9.41,-9.24l32.81 0c2.23,0 4.18,-1.04 5.93,-3.04 1.69,-2.02 4.18,-8.76 7.45,-20.29 3.31,-11.54 6.25,-22.96 8.76,-34.23 2.55,-11.15 7.56,-16.7 15.01,-16.7 4.58,0 8.11,1.57 10.66,4.78 2.56,3.16 3.81,6.15 3.81,8.92 0,1.47 -1.91,9.09 -5.72,22.79l-9.25 33.46zm152.55 -109.03c7.67,0 11.47,4.9 11.47,14.69 0,8.71 -4.63,29.43 -13.87,62.13 -5.82,20.62 -10.34,43.36 -13.55,68.22 -3.21,24.86 -4.78,44.34 -4.78,58.48 0,17.52 1.14,34.99 3.37,52.29 0.43,3.32 0.6,5.71 0.6,7.18 0,5.34 -1.8,9.9 -5.39,13.71 -3.65,3.8 -7.45,5.71 -11.48,5.71 -5.65,0 -9.52,-3.47 -11.69,-10.5 -2.18,-7.02 -3.27,-18.33 -3.27,-33.95 0,-35.58 4.25,-79.7 12.79,-132.31 8.59,-52.56 15.39,-83.35 20.4,-92.27 5.06,-8.92 10.18,-13.39 15.4,-13.39zm84.16 277.79c-14.53,0 -26.55,-5.5 -36.01,-16.54 -9.47,-11.04 -14.2,-24.71 -14.2,-40.97 0,-27.42 9.25,-54.46 27.69,-81.05 18.39,-26.61 40.48,-39.93 66.21,-39.93 16.97,0 30.79,6.53 41.35,19.64 10.56,13.06 15.88,28.61 15.88,46.68 0,27.64 -10.93,53.2 -32.74,76.82 -21.88,23.62 -44.56,35.37 -68.17,35.37zm-22.15 -61.64c0,10.72 2.23,19.48 6.75,26.28 4.51,6.8 10.5,10.23 17.95,10.23 15.83,0 31.72,-8.71 47.65,-26.06 15.95,-17.41 23.88,-36.72 23.88,-57.94 0,-13.11 -3.04,-23.66 -9.14,-31.82 -6.09,-8.11 -14.3,-12.18 -24.64,-12.18 -17.08,0 -31.77,10.5 -44.06,31.49 -12.24,20.95 -18.39,40.97 -18.39,60.01zm206.74 61.64c-14.53,0 -26.55,-5.5 -36.01,-16.54 -9.47,-11.04 -14.2,-24.71 -14.2,-40.97 0,-27.42 9.25,-54.46 27.69,-81.05 18.39,-26.61 40.48,-39.93 66.21,-39.93 16.97,0 30.79,6.53 41.35,19.64 10.56,13.06 15.88,28.61 15.88,46.68 0,27.64 -10.93,53.2 -32.74,76.82 -21.88,23.62 -44.56,35.37 -68.17,35.37zm-22.15 -61.64c0,10.72 2.23,19.48 6.75,26.28 4.51,6.8 10.5,10.23 17.95,10.23 15.83,0 31.72,-8.71 47.65,-26.06 15.95,-17.41 23.88,-36.72 23.88,-57.94 0,-13.11 -3.04,-23.66 -9.14,-31.82 -6.09,-8.11 -14.3,-12.18 -24.64,-12.18 -17.08,0 -31.77,10.5 -44.06,31.49 -12.24,20.95 -18.39,40.97 -18.39,60.01zm191.12 -20.73c1.37,-1.8 10.89,-10.39 28.51,-25.68 16.71,-14.53 28.34,-25.13 34.93,-31.72 24.53,-24.53 42.16,-36.83 52.93,-36.83 8.28,0 12.41,4.02 12.41,11.97 0,9.03 -4.08,15.67 -12.24,19.91 -10.66,5.44 -24.81,14.41 -42.59,27.04 -17.73,12.56 -26.61,21.49 -26.61,26.71 0,2.12 6.26,10.07 18.82,23.83 12.51,13.76 23.4,23.88 32.48,30.41 9.14,6.53 18.06,9.79 26.66,9.79l5.22 -0.16c3.75,-0.22 5.6,1.47 5.6,4.96 0,4.68 -2.94,9.47 -8.76,14.25 -5.87,4.84 -13.54,7.29 -23.12,7.29 -6.15,0 -12.4,-2.17 -18.71,-6.47 -6.31,-4.3 -17.57,-15.89 -33.73,-34.82 -12.84,-15.62 -20.89,-24.97 -24.05,-27.96 -3.21,-3.04 -5.87,-4.56 -8,-4.56 -1.14,0 -4.89,2.77 -11.14,8.32 -6.26,5.5 -9.68,9.68 -10.29,12.57 -0.54,2.88 -0.86,13.82 -0.86,32.86l0 7.45c0,3.97 -1.85,7.45 -5.55,10.55 -3.75,3.05 -7.78,4.63 -12.13,4.63 -4.46,0 -7.95,-1.31 -10.5,-3.92 -2.56,-2.61 -3.87,-5.27 -3.87,-8.05 0,-3.81 1.47,-12.84 4.3,-27.09 4.08,-20.51 7.78,-47.99 11.15,-82.42 7.89,-81.28 13.92,-127.25 18.17,-137.92 4.3,-10.71 10.34,-16.05 18.18,-16.05 2.77,0 5.11,1.47 6.96,4.46 1.85,2.99 2.78,6.81 2.78,11.48 0,8.48 -3.65,31.06 -10.99,67.73 -7.34,36.77 -12.62,72.57 -15.95,107.45zm185.09 30.41l3.49 0c1.9,0 4.18,0.93 6.85,2.83 2.67,1.85 3.98,4.36 3.98,7.57 0,6.36 -1.09,11.04 -3.32,14.03 -2.23,2.94 -5.82,6.26 -10.77,9.85 -4.96,3.64 -8.43,5.44 -10.45,5.44 -4.46,0 -7.78,-1.04 -9.9,-3.04 -2.12,-2.02 -3.16,-7.52 -3.16,-16.59 0,-8.38 0.49,-13.39 1.42,-14.97 0.98,-1.57 3.26,-2.83 6.96,-3.75 3.64,-0.86 8.59,-1.36 14.91,-1.36zm102.49 53.1c-15.94,0 -28.23,-4.58 -36.77,-13.71 -8.54,-9.14 -12.84,-21.92 -12.84,-38.41 0,-27.74 10.99,-56.96 33.02,-87.75 21.98,-30.74 42.44,-46.14 61.37,-46.14 8.59,0 16,4.63 22.2,13.93 6.26,9.3 9.36,19.15 9.36,29.6 0,6.25 -1.36,11.64 -4.08,16.15 -2.71,4.52 -5.44,6.81 -8.21,6.81 -6.15,0 -10.5,-6.26 -13.06,-18.66 -2.88,-13.39 -7.01,-20.08 -12.45,-20.08 -11.05,0 -24.11,13.12 -39.17,39.33 -15.12,26.28 -22.64,48.42 -22.64,66.49 0,18.05 10.23,27.09 30.74,27.09 15.62,0 34,-7.35 55.17,-21.98 7.45,-5.22 12.89,-7.83 16.43,-7.83 3.59,0 5.39,2.07 5.39,6.25 0,8.06 -9.52,18.23 -28.51,30.52 -19.04,12.24 -37.7,18.39 -55.93,18.39zm168.43 -1.14c-14.53,0 -26.55,-5.5 -36.01,-16.54 -9.47,-11.04 -14.2,-24.71 -14.2,-40.97 0,-27.42 9.25,-54.46 27.69,-81.05 18.39,-26.61 40.48,-39.93 66.21,-39.93 16.97,0 30.79,6.53 41.35,19.64 10.56,13.06 15.88,28.61 15.88,46.68 0,27.64 -10.93,53.2 -32.74,76.82 -21.88,23.62 -44.56,35.37 -68.17,35.37zm-22.15 -61.64c0,10.72 2.23,19.48 6.75,26.28 4.51,6.8 10.5,10.23 17.95,10.23 15.83,0 31.72,-8.71 47.65,-26.06 15.95,-17.41 23.88,-36.72 23.88,-57.94 0,-13.11 -3.04,-23.66 -9.14,-31.82 -6.09,-8.11 -14.3,-12.18 -24.64,-12.18 -17.08,0 -31.77,10.5 -44.06,31.49 -12.24,20.95 -18.39,40.97 -18.39,60.01zm280.57 -72.36c-9.9,0.22 -31.07,29.49 -63.43,87.81 -10.99,19.64 -17.35,30.36 -19.15,32.1 -1.79,1.74 -5.11,3.32 -9.95,4.73 -4.84,1.37 -8.87,2.08 -12.03,2.08 -7.12,0 -10.71,-13.88 -10.71,-41.63 0,-15.61 3.37,-43.9 10.07,-84.81 2.78,-16.54 4.13,-28.41 4.13,-35.53 0,-7.01 3.16,-10.5 9.41,-10.5 11.81,0 17.68,8.48 17.68,25.46 0,8 -1.95,23.62 -5.87,46.9 -4.58,26.55 -6.91,42.71 -7.02,48.41 6.58,-6.36 16.26,-20.35 29,-41.88 18.05,-29.55 31.39,-48.26 39.93,-56.2 8.53,-7.9 17.41,-11.86 26.55,-11.86 6.91,0 12.41,4.63 16.48,13.87 4.08,9.25 6.59,31.28 7.4,66.16 0.22,8.71 1.04,15.17 2.4,19.42 1.41,4.25 2.4,6.36 3.04,6.36 5.01,0 15.83,-16.97 32.54,-50.97 8.91,-17.95 17.57,-31.61 26.05,-40.97 8.44,-9.36 17.8,-14.03 28.13,-14.03 8.59,0 14.86,4.46 18.77,13.33 3.97,8.86 6.74,21.97 8.48,39.44 1.58,17.62 4.03,33.78 7.4,48.42 3.32,14.68 9.47,24.1 18.39,28.23 6.09,2.88 9.08,6.2 9.08,10.07 0,3.7 -2.55,7.51 -7.62,11.42 -5.11,3.97 -9.79,5.93 -14.03,5.93 -8.54,0 -16.1,-5.22 -22.79,-15.62 -6.69,-10.45 -11.75,-32.97 -15.12,-67.57 -1.52,-13.93 -2.94,-23.83 -4.35,-29.65 -1.37,-5.87 -3.54,-8.81 -6.53,-8.81 -4.46,0 -9.75,4.3 -15.83,12.78 -6.15,8.49 -16,25.79 -29.6,51.8 -10.61,20.29 -18.66,33.83 -24.16,40.59 -5.44,6.74 -10.71,10.12 -15.82,10.12 -4.58,0 -8.66,-1.85 -12.3,-5.5 -3.6,-3.69 -5.88,-8.1 -6.86,-13.27 -0.93,-5.11 -1.96,-17.79 -2.99,-37.97 -1.63,-33.57 -4.51,-53.15 -8.76,-58.65z"/>
      </g>
      <path class="fil7 str6" d="M34681.79 18768.75c66.86,-61.91 164.25,-128.08 225.25,-82.21"/>
      <g>
       <polygon class="fil7 str7" points="31127.77,20037.08 31482.09,20037.08 31482.09,20255.21 31127.77,20255.21 "/>
       <polyline class="fil7 str7" points="31127.77,20037.08 31304.93,20167.95 31482.09,20037.08 "/>
      </g>
     </g>
     <polygon class="fil7" points="-0,0 43087.27,0 43087.27,21274.35 -0,21274.35 "/>
     <circle id="center" class="fil8 str8" cx="21543.64" cy="10288.58" r="70.61"/>
    </g>
</svg>
