<?xml version="1.0" encoding="UTF-8"?>
<!DOCTYPE svg PUBLIC "-//W3C//DTD SVG 1.1//EN" "http://www.w3.org/Graphics/SVG/1.1/DTD/svg11.dtd">
<!-- Creator: CorelDRAW 2020 -->
<svg xmlns="http://www.w3.org/2000/svg" xml:space="preserve" width="465.666mm" height="229.923mm" version="1.1" style="shape-rendering:geometricPrecision; text-rendering:geometricPrecision; image-rendering:optimizeQuality; fill-rule:evenodd; clip-rule:evenodd"
viewBox="0 0 46565.72 22991.85"
 xmlns:xlink="http://www.w3.org/1999/xlink"
 xmlns:xodm="http://www.corel.com/coreldraw/odm/2003">
 <defs>
  <style type="text/css">
   <![CDATA[
    .fil0 {fill:none}
    .fil1 {fill:#898778;fill-rule:nonzero}
   ]]>
  </style>
    <clipPath id="id0">
     <rect x="13505.65" y="4235.91" width="20014.78" height="12716.67"/>
    </clipPath>
 </defs>
 <g id="Layer_x0020_1">
  <metadata id="CorelCorpID_0Corel-Layer"/>
  <polygon class="fil0" points="-0,0 46565.72,0 46565.72,22991.85 -0,22991.85 "/>
  <g id="_1083894256">
   <g style="clip-path:url(#id0)">
    <image x="13505.65" y="4235.91" width="20014.78" height="12716.67" xlink:href="айтыс өнері_Images\айтыс өнері_ImgID1.png"/>
   </g>
   <path class="fil1" d="M20590.91 18008.08c-46.24,62.15 -92.13,108.72 -137.33,139.88 -45.38,30.99 -86.87,46.57 -124.63,46.57 -25.41,0 -47.41,-10.67 -65.87,-32.17 -18.64,-21.51 -27.78,-49.11 -27.78,-82.98 0,-86.87 38.78,-180.51 116.51,-280.91 77.72,-100.42 154.94,-150.54 231.65,-150.54 27.76,0 48.43,15.74 62.14,47.58 4.23,10.5 11.01,15.92 20.32,15.92 26.41,0 39.62,10.15 39.62,30.65 0,10.33 -1.69,24.38 -4.9,42.17 -17.96,97.53 -26.76,166.45 -26.76,206.41 0,80.1 15.07,128.01 45.55,143.94 14.57,7.95 21.85,17.6 21.85,29.12 0,10.32 -7.12,20.65 -21.34,31.15 -14.23,10.34 -27.94,15.58 -41.16,15.58 -25.56,0 -46.56,-17.6 -62.98,-52.66 -16.6,-35.05 -24.89,-85 -24.89,-149.7zm-30.15 -279.38c-43.69,0 -94.48,40.98 -152.4,122.77 -57.91,81.95 -86.86,149.86 -86.86,203.7 0,37.93 12.69,57.07 37.76,57.07 36.41,0 86.87,-36.74 151.38,-110.24 64.51,-73.32 96.7,-140.88 96.7,-202.35 0,-47.24 -15.59,-70.95 -46.58,-70.95zm642.28 244.18c-42.34,70.96 -85.68,126.16 -130.04,165.11 -44.2,39.11 -85.35,58.59 -123.45,58.59 -21.85,0 -44.03,-12.7 -66.72,-38.27 -22.69,-25.41 -34.03,-64.68 -34.03,-117.52 0,-43.35 10.5,-107.18 31.32,-191.52 17.45,-70.44 26.24,-119.88 26.24,-148.33 9.66,-19.81 24.74,-29.81 45.22,-29.81 13.88,0 24.9,4.91 33.19,14.74 8.29,9.65 12.36,19.81 12.36,30.48 0,23.19 -8.12,56.05 -24.21,98.72 -30.82,82.97 -46.23,154.26 -46.23,213.87 0,54.19 12.53,81.28 37.77,81.28 32,0 72.98,-27.26 122.42,-81.79 49.62,-54.69 92.11,-130.73 127.51,-228.26 13.89,-38.95 25.23,-64.35 34.03,-76.2 8.81,-11.69 20.67,-17.62 35.56,-17.62 22.36,0 33.71,14.91 33.71,44.71 0,3.56 -3.23,15.75 -9.49,36.24 -19.82,72.47 -29.8,140.88 -29.8,205.4 0,77.38 12.86,127.51 38.27,150.2 13.21,12.36 19.81,22.19 19.81,29.81 0,9.31 -6.6,17.77 -20.15,25.39 -13.38,7.62 -25.4,11.35 -36.41,11.35 -23.2,0 -41.83,-17.28 -56.05,-51.65 -14.22,-34.38 -21.33,-85.17 -21.33,-152.23l0 -16.43c0,-5.24 0.16,-10.66 0.5,-16.26zm643.97 -176.62c-30.82,0.68 -96.68,91.79 -197.44,273.3 -34.21,61.13 -54.02,94.49 -59.6,99.9 -5.59,5.42 -15.92,10.33 -31,14.74 -15.07,4.23 -27.6,6.43 -37.41,6.43 -22.19,0 -33.36,-43.18 -33.36,-129.54 0,-48.6 10.5,-136.65 31.32,-263.97 8.64,-51.48 12.87,-88.39 12.87,-110.58 0,-21.84 9.82,-32.68 29.3,-32.68 36.74,0 55.03,26.42 55.03,79.25 0,24.89 -6.1,73.49 -18.29,145.97 -14.22,82.63 -21.5,132.92 -21.84,150.71 20.48,-19.81 50.63,-63.34 90.25,-130.39 56.22,-91.95 97.71,-150.2 124.3,-174.93 26.58,-24.55 54.18,-36.91 82.63,-36.91 21.5,0 38.6,14.4 51.31,43.18 12.7,28.78 20.49,97.36 23.03,205.92 0.67,27.08 3.22,47.24 7.45,60.44 4.39,13.21 7.44,19.81 9.48,19.81 15.58,0 49.27,-52.82 101.26,-158.66 27.77,-55.89 54.69,-98.38 81.11,-127.51 26.25,-29.13 55.38,-43.68 87.55,-43.68 26.76,0 46.22,13.88 58.41,41.48 12.36,27.6 21,68.41 26.43,122.77 4.91,54.87 12.53,105.16 23.03,150.7 10.33,45.73 29.46,75.02 57.22,87.89 18.98,8.97 28.29,19.3 28.29,31.33 0,11.51 -7.96,23.36 -23.71,35.55 -15.92,12.36 -30.48,18.46 -43.68,18.46 -26.6,0 -50.13,-16.25 -70.96,-48.6 -20.83,-32.51 -36.58,-102.61 -47.08,-210.31 -4.74,-43.35 -9.14,-74.16 -13.54,-92.28 -4.24,-18.29 -11.01,-27.43 -20.32,-27.43 -13.88,0 -30.31,13.36 -49.27,39.79 -19.14,26.41 -49.79,80.25 -92.13,161.21 -33.02,63.15 -58.08,105.32 -75.18,126.32 -16.93,20.99 -33.36,31.49 -49.28,31.49 -14.22,0 -26.92,-5.76 -38.27,-17.1 -11.17,-11.52 -18.29,-25.24 -21.33,-41.32 -2.88,-15.92 -6.1,-55.37 -9.32,-118.2 -5.07,-104.47 -14.05,-165.43 -27.26,-182.54l0 -0.01zm784.67 -169.67c4.41,-3.05 9.15,-4.57 14.39,-4.57 8.31,0 15.24,11.17 20.83,33.36 0,14.22 -3.72,32.17 -11.34,54.01 -22.52,62.48 -33.7,106.18 -33.7,130.9 0,6.61 1.87,10.33 5.92,11.01 76.04,-73.15 146.48,-109.73 211.34,-109.73 39.96,0 73.65,15.24 100.75,45.38 27.09,30.31 40.64,58.08 40.64,83.14 0,76.71 -39.12,150.38 -117.35,220.98 -78.24,70.61 -156.97,106.01 -236.38,106.01 -35.4,0 -63,-14.73 -82.65,-43.86 -19.64,-29.29 -29.46,-71.29 -29.46,-125.82 0,-59.27 7.45,-124.63 22.36,-196.43 14.89,-71.79 26.75,-119.71 35.72,-143.92 3.55,-10.34 6.95,-20.67 9.83,-31.34 3.38,-13.21 19.81,-22.86 49.1,-29.12zm-23.19 311.05c-6.61,36.58 -10,73.32 -10,110.08 0,49.94 19.65,74.84 59.1,74.84 44.2,0 93.81,-26.42 148.85,-79.24 54.86,-53.01 82.3,-104.49 82.3,-154.44 0,-20.49 -5.43,-37.59 -16.43,-51.48 -10.84,-13.89 -25.91,-20.82 -45.05,-20.82 -26.24,0 -51.98,6.43 -77.21,19.47 -25.23,13.2 -53.52,34.2 -84.5,63.33 -12.03,11.17 -21.51,19.98 -28.62,26.07 -7.11,6.1 -16.6,10.17 -28.44,12.19zm499.52 113.97c0,25.23 3.39,53.51 10.32,84.84 1.36,6.09 2.04,11 2.04,14.9 0,5.92 -5.42,13.72 -16.42,23.2 -10.84,9.31 -22.36,14.05 -34.72,14.05 -32,0 -48.08,-29.46 -48.08,-88.39 0,-58.42 12.69,-156.64 38.26,-294.63 9.15,-50.29 13.89,-80.6 13.89,-91.27 0,-20.83 3.72,-38.62 11.34,-53.34 7.62,-14.74 18.45,-22.02 32.34,-22.02 16.76,0 30.14,4.07 39.8,12.19 9.82,8.13 14.73,17.1 14.73,26.93 0,9.98 -2.37,23.7 -6.94,41.15 -25.91,94.32 -41.66,160.35 -47.59,197.95 -6.1,37.76 -8.97,82.63 -8.97,134.45zm298.18 165.27c-49.61,0 -87.87,-14.23 -114.47,-42.67 -26.58,-28.45 -39.96,-68.24 -39.96,-119.55 0,-86.37 34.2,-177.29 102.78,-273.13 68.42,-95.67 132.09,-143.6 191.02,-143.6 26.75,0 49.78,14.4 69.08,43.36 19.48,28.95 29.13,59.6 29.13,92.11 0,19.47 -4.24,36.24 -12.7,50.29 -8.47,14.06 -16.93,21.17 -25.57,21.17 -19.13,0 -32.68,-19.47 -40.64,-58.08 -8.97,-41.65 -21.84,-62.49 -38.78,-62.49 -34.38,0 -75.01,40.82 -121.92,122.44 -47.07,81.78 -70.44,150.7 -70.44,206.92 0,56.22 31.84,84.33 95.68,84.33 48.59,0 105.83,-22.86 171.7,-68.41 23.19,-16.26 40.14,-24.38 51.14,-24.38 11.17,0 16.76,6.43 16.76,19.47 0,25.06 -29.64,56.73 -88.72,94.99 -59.27,38.1 -117.35,57.24 -174.09,57.24zm1715.84 -352.2c3.55,-6.94 9.48,-48.42 17.27,-124.45 6.09,-60.96 25.4,-91.44 58.08,-91.44 26.76,0 40.31,13.53 40.31,40.29 0,6.27 -2.38,18.98 -6.95,38.1 -25.56,105.5 -38.27,194.06 -38.27,265.51 0,77.38 12.71,127.51 38.27,150.2 13.21,12.36 19.81,22.19 19.81,29.81 0,9.31 -6.77,17.77 -20.15,25.39 -13.38,7.62 -25.57,11.35 -36.41,11.35 -51.64,0 -77.38,-79.76 -77.38,-239.1 0,-10.67 -4.06,-15.92 -12.02,-15.92 -30.99,0 -69.09,1.86 -113.96,5.42 -45.05,3.72 -77.22,8.29 -96.53,13.89 -19.46,5.76 -31.32,10.83 -35.72,15.74 -4.57,4.74 -8.47,17.45 -12.03,38.1 -3.38,20.66 -5.07,42.17 -5.07,64.36l0 60.96c0,35.38 -16.26,53.16 -48.6,53.16 -27.27,0 -40.81,-17.78 -40.81,-53.16 0,-23.21 3.04,-52.67 8.97,-88.23 11.01,-65.53 21.84,-178.31 32.68,-338.32 1.35,-21 3.21,-34.21 5.59,-39.8 2.2,-5.58 8.29,-11.84 18.12,-18.62 9.65,-6.77 20.32,-10.17 32,-10.17 23.72,0 35.73,9.83 35.73,29.31 0,3.04 -3.89,27.76 -11.51,74.5 -7.96,46.56 -11.86,82.8 -11.86,108.54 0,18.29 6.27,27.27 18.8,27.27 25.23,0 71.12,-4.24 138.01,-12.53 66.72,-8.47 101.25,-15.24 103.63,-20.16zm657.17 155.8c0,33.69 -29.81,74.32 -89.41,122.08 -59.77,47.58 -121.41,71.3 -184.91,71.3 -53.17,0 -94.32,-15.59 -123.28,-47.08 -28.95,-31.33 -43.34,-75.19 -43.34,-131.41 0,-94.66 31.82,-184.57 95.66,-269.91 63.84,-85.34 133.78,-128.01 209.48,-128.01 24.72,0 45.03,8.12 60.79,24.38 15.57,16.09 23.53,35.74 23.53,58.43 0,50.96 -25.06,99.73 -75.01,146.47 -49.96,46.56 -116.68,92.45 -200.33,137.33 -17.27,8.97 -25.73,20.48 -25.73,34.71 0,27.44 7.79,49.44 23.7,66.04 15.93,16.6 39.46,24.72 70.44,24.72 71.13,0 143.77,-39.29 217.77,-118.02 11.01,-10.84 19.3,-16.43 24.9,-16.43 10.5,0 15.74,8.46 15.74,25.41zm-344.74 -77.39c140.38,-83.32 210.48,-150.37 210.48,-201 0,-19.81 -8.98,-29.81 -26.93,-29.81 -30.31,0 -64.68,22.36 -102.95,67.06 -38.1,44.71 -65.02,99.22 -80.6,163.75zm544.23 187.95c-16.26,59.61 -31.32,143.09 -45.56,250.62l-13.88 93.64c-2.36,13.21 -8.46,26.42 -18.46,39.45 -9.81,13.05 -18.96,19.65 -27.26,19.65 -10.33,0 -21.84,-5.25 -35.05,-15.58 -13.03,-10.5 -19.48,-18.8 -19.48,-25.07 0,-18.28 4.07,-43.34 12.36,-75.51 60.46,-244.36 90.77,-459.06 90.77,-643.8l-0.5 -41.65c-0.69,-35.74 5.58,-61.82 18.79,-77.9 13.38,-16.26 28.45,-24.38 45.72,-24.38 7.95,0 15.57,6.26 22.86,18.62 7.28,12.36 10.83,29.97 10.83,52.84 0,32 -3.21,70.94 -9.81,116.5 -8.64,57.57 -13.05,90.76 -13.38,99.22 49.27,-85.84 101.43,-153.07 156.63,-201.33 55.2,-48.27 106.52,-72.48 153.93,-72.48 33.36,0 61.46,12.54 84.49,37.43 23.03,25.05 34.55,56.05 34.55,93.13 0,107.7 -41.32,205.74 -124.13,293.62 -82.63,88.05 -163.24,131.9 -241.46,131.9 -19.65,0 -35.06,-4.91 -46.4,-14.72 -11.52,-10 -23.37,-28.12 -35.56,-54.2zm307.99 -399.27c-46.56,0 -104.3,43.69 -173.05,130.89 -68.75,87.37 -103.13,155.28 -103.13,203.88 0,12.03 6.78,23.53 20.32,34.72 13.55,11.34 30.66,16.93 51.48,16.93 47.41,0 101.77,-35.05 163.23,-104.99 61.65,-69.93 92.3,-138.51 92.3,-206.07 0,-24.22 -4.91,-42.68 -14.57,-55.89 -9.82,-13.04 -22.01,-19.47 -36.58,-19.47zm412.83 -207.44c-6.94,0 -12.19,-7.45 -15.91,-22.35 -1.36,-4.57 -3.05,-9.65 -5.43,-15.41 -8.97,-21.34 -13.38,-40.13 -13.38,-56.05 0,-13.2 7.8,-26.58 23.55,-40.3 15.74,-13.71 33.19,-20.66 52.32,-20.66 9.66,0 20.32,3.73 32.34,11.18 11.85,7.45 17.78,14.56 17.78,21.51 0,11 -4.07,29.46 -12.19,55.7 -8.13,26.08 -21,43.69 -38.61,52.84 -17.78,8.97 -31.16,13.54 -40.47,13.54zm-65.03 554.23c0,25.05 3.56,53.34 10.5,84.82 1.36,5.93 1.87,10.85 1.87,14.74 0,6.1 -5.42,13.72 -16.26,23.2 -11,9.31 -22.52,14.06 -34.71,14.06 -32.18,0 -48.09,-29.47 -48.09,-88.22 0,-60.96 12.53,-157.16 37.59,-288.71 8.64,-46.06 12.87,-74.34 12.87,-84.84 0,-20.82 3.89,-38.61 11.51,-53.34 7.62,-14.73 18.29,-22.18 32.17,-22.18 16.95,0 30.15,4.07 39.97,12.19 9.82,8.13 14.56,17.1 14.56,27.1 0,9.81 -2.2,23.03 -6.94,39.11 -24.73,87.38 -40.14,149.86 -46.06,187.62 -5.93,37.59 -8.98,82.47 -8.98,134.46zm-1982.34 -161.04c0,122.77 -39.63,206.24 -118.88,250.1 -38.6,21.5 -81.11,32.17 -127.16,32.17 -79.92,0 -141.9,-26.24 -185.76,-78.73 -40.65,-48.94 -60.96,-114.3 -60.96,-196.09 0,-97.37 27.09,-169.5 81.27,-216.41 45.22,-38.95 100.25,-58.43 165.45,-58.43 77.55,0 138.34,25.57 182.71,76.72 42.17,48.6 63.33,112.09 63.33,190.67zm-93.48 -42.84c-5.59,-42.51 -19.47,-76.04 -41.31,-100.42 -29.63,-33.36 -66.72,-49.96 -111.25,-49.96 -45.05,0 -82.3,16.6 -111.76,49.96 -22.02,24.38 -35.9,57.91 -41.5,100.42l305.81 0zm2.03 73.15l-309.86 0c2.71,50.79 16.09,92.29 40.29,124.29 27.78,36.4 66.22,54.52 114.99,54.52 48.6,0 86.86,-18.29 114.3,-55.03 23.88,-31.67 37.24,-72.99 40.29,-123.78z"/>
  </g>
 </g>
</svg>
