<?xml version="1.0" encoding="UTF-8"?>
<!DOCTYPE svg PUBLIC "-//W3C//DTD SVG 1.1//EN" "http://www.w3.org/Graphics/SVG/1.1/DTD/svg11.dtd">
<!-- Creator: CorelDRAW 2020 -->
<svg xmlns="http://www.w3.org/2000/svg" xml:space="preserve" width="465.666mm" height="229.923mm" version="1.1" style="shape-rendering:geometricPrecision; text-rendering:geometricPrecision; image-rendering:optimizeQuality; fill-rule:evenodd; clip-rule:evenodd"
viewBox="0 0 46565.72 22991.85"
 xmlns:xlink="http://www.w3.org/1999/xlink"
 xmlns:xodm="http://www.corel.com/coreldraw/odm/2003">
 <defs>
  <style type="text/css">
   <![CDATA[
    .fil0 {fill:none}
    .fil1 {fill:#898778;fill-rule:nonzero}
   ]]>
  </style>
    <clipPath id="id0">
     <rect x="13275.93" y="5138.77" width="20014.78" height="12716.67"/>
    </clipPath>
 </defs>
 <g id="Layer_x0020_1">
  <metadata id="CorelCorpID_0Corel-Layer"/>
  <polygon class="fil0" points="-0,0 46565.72,0 46565.72,22991.85 -0,22991.85 "/>
  <g id="_1083894256">
   <g style="clip-path:url(#id0)">
    <image x="13275.93" y="5138.77" width="20014.78" height="12716.67" xlink:href="айтыс өнері_Images\айтыс өнері_ImgID1.png"/>
   </g>
   <path class="fil1" d="M28666 19788.86l-30.48 0 0 -62.23 -5.15 0 -40.14 -68.09c-6.57,-11.14 -12.21,-18.97 -17.01,-23.35 -7.19,-6.77 -15.8,-10.16 -25.75,-10.16l0 101.6 -37.25 0 0 -219.71 37.25 0 0 94.83c13.83,0 24.13,-4.45 30.76,-13.41 2.19,-2.89 7.27,-13.97 15.1,-33.09 5.43,-13.19 9.6,-22.01 12.35,-26.46 6.07,-10.02 13.12,-16.36 21.16,-18.98 6,-1.9 15.53,-2.89 28.72,-2.89l7.48 0 0 30.9 -10.37 -0.21c-10.37,-0.14 -17.64,2.54 -21.95,8.05 -1.41,1.83 -4.72,9.59 -10.16,23.35 -5.08,12.98 -9.59,22.01 -13.4,27.09 -5.29,6.85 -13.19,12.77 -23.85,17.71 16.16,4.24 31.89,19.19 47.27,44.8l22.58 37.54 12.84 0 0 92.71zm1245.5 -251.04l-89.33 0 0 55.46 47.84 0 0 27.09 -47.84 0 0 106.26 -37.25 0 0 -106.26 -25.82 0 0 -27.09 25.82 0 0 -86.36 126.58 0 0 30.9zm1071.9 75.85c0,51.15 -16.5,85.94 -49.52,104.21 -16.09,8.96 -33.8,13.41 -52.99,13.41 -33.3,0 -59.13,-10.94 -77.4,-32.81 -16.93,-20.39 -25.4,-47.63 -25.4,-81.7 0,-40.57 11.29,-70.63 33.87,-90.17 18.83,-16.23 41.76,-24.34 68.93,-24.34 32.31,0 57.64,10.65 76.13,31.96 17.57,20.25 26.38,46.7 26.38,79.44zm-38.94 -17.85c-2.33,-17.71 -8.12,-31.68 -17.22,-41.84 -12.34,-13.9 -27.8,-20.81 -46.35,-20.81 -18.77,0 -34.29,6.91 -46.57,20.81 -9.17,10.16 -14.96,24.13 -17.28,41.84l127.42 0zm0.85 30.48l-129.12 0c1.13,21.17 6.7,38.45 16.79,51.79 11.57,15.17 27.59,22.72 47.91,22.72 20.25,0 36.19,-7.62 47.62,-22.93 9.95,-13.2 15.53,-30.41 16.8,-51.58zm931.79 -88.48l-89.33 0 0 55.46 47.84 0 0 27.09 -47.84 0 0 106.26 -37.25 0 0 -106.26 -25.82 0 0 -27.09 25.82 0 0 -86.36 126.58 0 0 30.9zm-3042.39 113.6c-19.26,25.89 -38.38,45.29 -57.22,58.28 -18.91,12.91 -36.19,19.4 -51.93,19.4 -10.58,0 -19.75,-4.45 -27.44,-13.41 -7.76,-8.96 -11.57,-20.46 -11.57,-34.57 0,-36.19 16.15,-75.21 48.54,-117.05 32.38,-41.84 64.56,-62.72 96.52,-62.72 11.57,0 20.18,6.56 25.89,19.82 1.77,4.38 4.59,6.64 8.47,6.64 11,0 16.51,4.23 16.51,12.77 0,4.3 -0.71,10.16 -2.05,17.56 -7.48,40.64 -11.15,69.36 -11.15,86.01 0,33.37 6.28,53.34 18.98,59.97 6.07,3.32 9.1,7.34 9.1,12.14 0,4.3 -2.96,8.61 -8.89,12.98 -5.92,4.3 -11.64,6.49 -17.14,6.49 -10.65,0 -19.4,-7.34 -26.25,-21.94 -6.91,-14.61 -10.37,-35.42 -10.37,-62.37zm-12.56 -116.42c-18.2,0 -39.37,17.08 -63.5,51.15 -24.13,34.15 -36.19,62.45 -36.19,84.88 0,15.81 5.29,23.78 15.73,23.78 15.17,0 36.2,-15.31 63.08,-45.93 26.88,-30.55 40.29,-58.7 40.29,-84.31 0,-19.69 -6.5,-29.57 -19.41,-29.57zm161.57 167.64c-6.77,24.84 -13.05,59.62 -18.98,104.42l-5.78 39.02c-0.99,5.5 -3.53,11.01 -7.7,16.44 -4.09,5.43 -7.9,8.18 -11.35,8.18 -4.31,0 -9.11,-2.18 -14.61,-6.49 -5.43,-4.37 -8.11,-7.83 -8.11,-10.44 0,-7.62 1.69,-18.06 5.15,-31.47 25.19,-101.81 37.81,-191.27 37.81,-268.24l-0.21 -17.35c-0.28,-14.89 2.33,-25.76 7.83,-32.46 5.58,-6.77 11.86,-10.16 19.05,-10.16 3.32,0 6.5,2.61 9.53,7.76 3.03,5.15 4.51,12.49 4.51,22.01 0,13.34 -1.34,29.57 -4.09,48.55 -3.6,23.99 -5.43,37.81 -5.57,41.34 20.53,-35.77 42.26,-63.78 65.26,-83.89 23,-20.11 44.38,-30.2 64.14,-30.2 13.9,0 25.61,5.23 35.2,15.6 9.6,10.44 14.4,23.35 14.4,38.8 0,44.88 -17.22,85.73 -51.72,122.34 -34.43,36.69 -68.01,54.97 -100.61,54.97 -8.19,0 -14.61,-2.05 -19.33,-6.14 -4.8,-4.16 -9.74,-11.71 -14.82,-22.58zm128.34 -166.37c-19.4,0 -43.46,18.21 -72.11,54.54 -28.64,36.41 -42.97,64.7 -42.97,84.95 0,5.01 2.83,9.81 8.47,14.46 5.65,4.73 12.77,7.06 21.45,7.06 19.76,0 42.4,-14.61 68.01,-43.74 25.69,-29.14 38.46,-57.72 38.46,-85.87 0,-10.09 -2.05,-17.78 -6.07,-23.28 -4.09,-5.44 -9.17,-8.12 -15.24,-8.12zm221.41 21.87c-3.32,-0.14 -6.56,3.04 -9.67,9.53 -28.57,57.08 -50.09,95.74 -64.7,116.2 -1.27,1.77 -2.89,4.38 -4.79,7.84 -17.22,30.69 -29.85,46.07 -37.82,46.07 -10.73,0 -16.09,-5.15 -16.09,-15.52 0,-9.32 6.63,-22.09 20.04,-38.25 12.91,-15.24 29.91,-41.2 51.01,-77.82 21.1,-36.54 38.17,-69.35 51.29,-98.49 2.47,-5.22 6.21,-7.83 11.15,-7.83 2.05,0 5.79,0.91 11.08,2.82 5.29,1.83 8.68,3.88 10.23,6.07 1.48,2.18 4.87,15.02 10.09,38.45 17,84.45 34.85,134.55 53.55,150.28 4.44,3.88 7.06,6.42 7.9,7.76 0.78,1.27 1.2,3.11 1.2,5.43 0,4.31 -1.34,8.19 -4.09,11.72 -2.82,3.52 -5.5,5.71 -8.11,6.7 -2.62,0.99 -7.98,1.48 -16.09,1.48 -2.89,0 -9.67,-7.12 -20.25,-21.45 -10.65,-14.25 -23.07,-53.13 -37.25,-116.63 -3.46,-17.14 -6.35,-28.57 -8.68,-34.36zm184.78 -65.68c1.84,-1.27 3.81,-1.91 6,-1.91 3.46,0 6.35,4.66 8.68,13.9 0,5.93 -1.55,13.41 -4.73,22.51 -9.38,26.03 -14.04,44.24 -14.04,54.54 0,2.75 0.78,4.3 2.47,4.58 31.68,-30.48 61.03,-45.72 88.05,-45.72 16.65,0 30.69,6.35 41.98,18.91 11.29,12.63 16.94,24.2 16.94,34.65 0,31.96 -16.3,62.65 -48.9,92.07 -32.59,29.42 -65.4,44.17 -98.49,44.17 -14.75,0 -26.25,-6.14 -34.43,-18.28 -8.19,-12.2 -12.28,-29.7 -12.28,-52.42 0,-24.69 3.1,-51.93 9.31,-81.84 6.21,-29.92 11.15,-49.88 14.89,-59.97 1.48,-4.31 2.89,-8.61 4.09,-13.06 1.41,-5.5 8.26,-9.52 20.46,-12.13zm-9.66 129.61c-2.75,15.24 -4.17,30.55 -4.17,45.86 0,20.81 8.19,31.18 24.63,31.18 18.41,0 39.09,-11 62.02,-33.02 22.86,-22.08 34.29,-43.53 34.29,-64.34 0,-8.54 -2.26,-15.67 -6.85,-21.45 -4.51,-5.79 -10.79,-8.68 -18.77,-8.68 -10.93,0 -21.66,2.68 -32.17,8.11 -10.51,5.51 -22.29,14.26 -35.21,26.39 -5.01,4.66 -8.96,8.33 -11.92,10.87 -2.96,2.54 -6.91,4.23 -11.85,5.08zm208.13 47.48c0,10.51 1.42,22.3 4.31,35.35 0.56,2.54 0.85,4.59 0.85,6.21 0,2.47 -2.26,5.71 -6.85,9.66 -4.51,3.88 -9.31,5.86 -14.46,5.86 -13.34,0 -20.04,-12.28 -20.04,-36.83 0,-24.34 5.29,-65.26 15.95,-122.77 3.81,-20.95 5.78,-33.58 5.78,-38.02 0,-8.68 1.55,-16.09 4.73,-22.23 3.17,-6.14 7.69,-9.17 13.47,-9.17 6.99,0 12.56,1.69 16.58,5.08 4.1,3.39 6.14,7.12 6.14,11.22 0,4.16 -0.99,9.87 -2.89,17.14 -10.8,39.3 -17.36,66.82 -19.83,82.48 -2.54,15.73 -3.74,34.43 -3.74,56.02zm361.44 -18.13c-19.26,25.89 -38.38,45.29 -57.22,58.28 -18.91,12.91 -36.19,19.4 -51.93,19.4 -10.58,0 -19.75,-4.45 -27.44,-13.41 -7.76,-8.96 -11.57,-20.46 -11.57,-34.57 0,-36.19 16.15,-75.21 48.54,-117.05 32.38,-41.84 64.56,-62.72 96.52,-62.72 11.57,0 20.18,6.56 25.89,19.82 1.77,4.38 4.59,6.64 8.47,6.64 11,0 16.51,4.23 16.51,12.77 0,4.3 -0.71,10.16 -2.05,17.56 -7.48,40.64 -11.15,69.36 -11.15,86.01 0,33.37 6.28,53.34 18.98,59.97 6.07,3.32 9.1,7.34 9.1,12.14 0,4.3 -2.96,8.61 -8.89,12.98 -5.92,4.3 -11.64,6.49 -17.14,6.49 -10.65,0 -19.4,-7.34 -26.25,-21.94 -6.91,-14.61 -10.37,-35.42 -10.37,-62.37zm-12.56 -116.42c-18.2,0 -39.37,17.08 -63.5,51.15 -24.13,34.15 -36.19,62.45 -36.19,84.88 0,15.81 5.29,23.78 15.73,23.78 15.17,0 36.2,-15.31 63.08,-45.93 26.88,-30.55 40.29,-58.7 40.29,-84.31 0,-19.69 -6.5,-29.57 -19.41,-29.57zm447.02 28.15c-12.84,0.29 -40.28,38.24 -82.26,113.88 -14.26,25.47 -22.51,39.37 -24.84,41.63 -2.33,2.26 -6.63,4.3 -12.91,6.14 -6.28,1.76 -11.5,2.68 -15.59,2.68 -9.25,0 -13.9,-17.99 -13.9,-53.98 0,-20.25 4.37,-56.94 13.05,-109.99 3.6,-21.45 5.36,-36.83 5.36,-46.08 0,-9.1 4.1,-13.61 12.21,-13.61 15.31,0 22.93,11 22.93,33.02 0,10.37 -2.54,30.62 -7.62,60.82 -5.93,34.43 -8.96,55.38 -9.1,62.79 8.53,-8.26 21.09,-26.39 37.6,-54.33 23.43,-38.31 40.71,-62.58 51.79,-72.88 11.08,-10.23 22.58,-15.38 34.43,-15.38 8.96,0 16.09,5.99 21.38,17.99 5.29,11.99 8.54,40.57 9.6,85.79 0.28,11.29 1.34,19.69 3.1,25.19 1.83,5.51 3.1,8.26 3.95,8.26 6.49,0 20.53,-22.02 42.19,-66.11 11.57,-23.29 22.79,-41 33.8,-53.13 10.93,-12.14 23.07,-18.2 36.48,-18.2 11.14,0 19.26,5.78 24.34,17.28 5.15,11.5 8.75,28.51 11,51.15 2.05,22.86 5.22,43.82 9.6,62.8 4.3,19.05 12.28,31.25 23.85,36.62 7.9,3.74 11.78,8.04 11.78,13.05 0,4.8 -3.32,9.74 -9.88,14.82 -6.63,5.15 -12.7,7.69 -18.2,7.69 -11.08,0 -20.89,-6.78 -29.56,-20.25 -8.68,-13.55 -15.24,-42.76 -19.62,-87.63 -1.97,-18.06 -3.81,-30.91 -5.64,-38.45 -1.77,-7.62 -4.59,-11.43 -8.47,-11.43 -5.78,0 -12.63,5.57 -20.53,16.58 -7.97,11 -20.74,33.44 -38.38,67.16 -13.76,26.32 -24.2,43.89 -31.33,52.64 -7.05,8.75 -13.9,13.12 -20.53,13.12 -5.93,0 -11.22,-2.4 -15.95,-7.12 -4.65,-4.8 -7.62,-10.52 -8.89,-17.22 -1.2,-6.63 -2.54,-23.07 -3.88,-49.25 -2.11,-43.53 -5.85,-68.93 -11.36,-76.06zm630.4 -5.01c-3.32,-0.14 -6.56,3.04 -9.67,9.53 -28.57,57.08 -50.09,95.74 -64.7,116.2 -1.27,1.77 -2.89,4.38 -4.79,7.84 -17.22,30.69 -29.85,46.07 -37.82,46.07 -10.73,0 -16.09,-5.15 -16.09,-15.52 0,-9.32 6.63,-22.09 20.04,-38.25 12.91,-15.24 29.91,-41.2 51.01,-77.82 21.1,-36.54 38.17,-69.35 51.29,-98.49 2.47,-5.22 6.21,-7.83 11.15,-7.83 2.05,0 5.79,0.91 11.08,2.82 5.29,1.83 8.68,3.88 10.23,6.07 1.48,2.18 4.87,15.02 10.09,38.45 17,84.45 34.85,134.55 53.55,150.28 4.44,3.88 7.06,6.42 7.9,7.76 0.78,1.27 1.2,3.11 1.2,5.43 0,4.31 -1.34,8.19 -4.09,11.72 -2.82,3.52 -5.5,5.71 -8.11,6.7 -2.62,0.99 -7.98,1.48 -16.09,1.48 -2.89,0 -9.67,-7.12 -20.25,-21.45 -10.65,-14.25 -23.07,-53.13 -37.25,-116.63 -3.46,-17.14 -6.35,-28.57 -8.68,-34.36zm313.75 98.43c0,14.04 -12.42,30.97 -37.26,50.87 -24.9,19.82 -50.58,29.7 -77.04,29.7 -22.16,0 -39.3,-6.49 -51.37,-19.61 -12.06,-13.05 -18.06,-31.33 -18.06,-54.75 0,-39.44 13.27,-76.91 39.87,-112.47 26.6,-35.56 55.73,-53.34 87.27,-53.34 10.3,0 18.77,3.39 25.33,10.16 6.49,6.71 9.81,14.89 9.81,24.34 0,21.24 -10.44,41.56 -31.26,61.03 -20.81,19.41 -48.61,38.53 -83.46,57.23 -7.2,3.73 -10.73,8.53 -10.73,14.46 0,11.43 3.25,20.6 9.88,27.52 6.63,6.91 16.44,10.3 29.35,10.3 29.63,0 59.9,-16.37 90.73,-49.18 4.59,-4.52 8.05,-6.84 10.38,-6.84 4.37,0 6.56,3.52 6.56,10.58zm-143.66 -32.24c58.49,-34.72 87.7,-62.66 87.7,-83.75 0,-8.26 -3.74,-12.42 -11.22,-12.42 -12.63,0 -26.95,9.31 -42.9,27.94 -15.87,18.63 -27.09,41.34 -33.58,68.23zm339.64 29.35c-20.96,19.68 -41.91,35.13 -62.87,46.28 -20.95,11.15 -36.97,16.72 -48.19,16.72 -12.77,0 -23,-5.43 -30.69,-16.44 -7.62,-10.93 -11.43,-24.41 -11.43,-40.36 0,-23.28 4.45,-50.87 13.34,-82.61 8.89,-31.75 15.66,-49.75 20.32,-54.05 4.73,-4.23 10.93,-6.42 18.62,-6.42 4.17,0 7.41,2.47 9.74,7.34 2.33,4.94 3.53,9.87 3.53,15.03 0,3.45 -1.62,7.9 -4.8,13.4 -18.06,31.33 -27.09,63.64 -27.09,96.94 0,7.76 1.48,14.54 4.37,20.39 2.9,5.86 7.27,8.75 13.2,8.75 7.62,0 16.93,-2.26 28.01,-6.91 11.14,-4.59 23.63,-12.14 37.53,-22.65 13.9,-10.44 23.28,-18.91 28.15,-25.4 4.8,-6.49 8.19,-13.83 10.23,-22.08 1.98,-8.33 3.39,-26.25 4.24,-53.77 0.77,-27.58 7.48,-41.34 20.03,-41.34 7.41,0 12.28,1.97 14.47,5.85 2.19,3.96 3.31,11.43 3.31,22.44 0,8.26 -1.27,26.18 -3.74,53.76 -0.56,6.21 -0.91,11.93 -1.05,17.15 -3.95,73.59 -15.03,131.23 -33.02,173 -18.07,41.77 -44.31,62.65 -78.81,62.65 -26.96,0 -51.01,-7.05 -72.04,-21.16 -20.95,-14.19 -31.47,-26.11 -31.47,-35.92 0,-4.51 1.06,-9.03 3.18,-13.4 2.11,-4.45 4.87,-6.63 8.18,-6.63 1.62,0 3.46,1.34 5.36,3.95 18.07,27.65 45.79,41.55 83.33,41.55 23.78,0 41.63,-14.6 53.48,-43.74 11.85,-29.14 19.4,-66.6 22.58,-112.32zm391 -2.26c-19.26,25.89 -38.38,45.29 -57.22,58.28 -18.91,12.91 -36.19,19.4 -51.93,19.4 -10.58,0 -19.75,-4.45 -27.44,-13.41 -7.76,-8.96 -11.57,-20.46 -11.57,-34.57 0,-36.19 16.15,-75.21 48.54,-117.05 32.38,-41.84 64.56,-62.72 96.52,-62.72 11.57,0 20.18,6.56 25.89,19.82 1.77,4.38 4.59,6.64 8.47,6.64 11,0 16.51,4.23 16.51,12.77 0,4.3 -0.71,10.16 -2.05,17.56 -7.48,40.64 -11.15,69.36 -11.15,86.01 0,33.37 6.28,53.34 18.98,59.97 6.07,3.32 9.1,7.34 9.1,12.14 0,4.3 -2.96,8.61 -8.89,12.98 -5.92,4.3 -11.64,6.49 -17.14,6.49 -10.65,0 -19.4,-7.34 -26.25,-21.94 -6.91,-14.61 -10.37,-35.42 -10.37,-62.37zm-12.56 -116.42c-18.2,0 -39.37,17.08 -63.5,51.15 -24.13,34.15 -36.19,62.45 -36.19,84.88 0,15.81 5.29,23.78 15.73,23.78 15.17,0 36.2,-15.31 63.08,-45.93 26.88,-30.55 40.29,-58.7 40.29,-84.31 0,-19.69 -6.5,-29.57 -19.41,-29.57zm237.63 23.14c-3.32,-0.14 -6.56,3.04 -9.67,9.53 -28.57,57.08 -50.09,95.74 -64.7,116.2 -1.27,1.77 -2.89,4.38 -4.79,7.84 -17.22,30.69 -29.85,46.07 -37.82,46.07 -10.73,0 -16.09,-5.15 -16.09,-15.52 0,-9.32 6.63,-22.09 20.04,-38.25 12.91,-15.24 29.91,-41.2 51.01,-77.82 21.1,-36.54 38.17,-69.35 51.29,-98.49 2.47,-5.22 6.21,-7.83 11.15,-7.83 2.05,0 5.79,0.91 11.08,2.82 5.29,1.83 8.68,3.88 10.23,6.07 1.48,2.18 4.87,15.02 10.09,38.45 17,84.45 34.85,134.55 53.55,150.28 4.44,3.88 7.06,6.42 7.9,7.76 0.78,1.27 1.2,3.11 1.2,5.43 0,4.31 -1.34,8.19 -4.09,11.72 -2.82,3.52 -5.5,5.71 -8.11,6.7 -2.62,0.99 -7.98,1.48 -16.09,1.48 -2.89,0 -9.67,-7.12 -20.25,-21.45 -10.65,-14.25 -23.07,-53.13 -37.25,-116.63 -3.46,-17.14 -6.35,-28.57 -8.68,-34.36zm282.77 78.6c-17.63,29.57 -35.7,52.57 -54.18,68.79 -18.42,16.3 -35.56,24.42 -51.44,24.42 -9.1,0 -18.34,-5.3 -27.8,-15.95 -9.45,-10.58 -14.18,-26.95 -14.18,-48.96 0,-18.07 4.38,-44.67 13.06,-79.8 7.26,-29.35 10.93,-49.96 10.93,-61.81 4.02,-8.25 10.3,-12.42 18.84,-12.42 5.79,0 10.37,2.05 13.83,6.14 3.46,4.02 5.15,8.26 5.15,12.7 0,9.67 -3.39,23.36 -10.09,41.14 -12.84,34.57 -19.26,64.27 -19.26,89.11 0,22.57 5.22,33.86 15.73,33.86 13.34,0 30.41,-11.36 51.01,-34.08 20.68,-22.78 38.39,-54.46 53.13,-95.1 5.79,-16.23 10.51,-26.81 14.18,-31.75 3.67,-4.87 8.61,-7.34 14.82,-7.34 9.31,0 14.04,6.21 14.04,18.63 0,1.48 -1.34,6.56 -3.95,15.09 -8.26,30.2 -12.42,58.71 -12.42,85.59 0,32.24 5.36,53.13 15.95,62.58 5.5,5.15 8.25,9.24 8.25,12.42 0,3.88 -2.75,7.41 -8.39,10.58 -5.58,3.18 -10.59,4.73 -15.17,4.73 -9.67,0 -17.43,-7.2 -23.36,-21.52 -5.92,-14.32 -8.89,-35.49 -8.89,-63.43l0 -6.84c0,-2.19 0.07,-4.45 0.21,-6.78z"/>
   <path class="fil1" d="M26571.11 18910.95c-46.24,62.15 -92.13,108.72 -137.33,139.88 -45.38,30.99 -86.87,46.57 -124.63,46.57 -25.41,0 -47.41,-10.67 -65.87,-32.17 -18.64,-21.51 -27.78,-49.11 -27.78,-82.98 0,-86.87 38.78,-180.51 116.51,-280.91 77.72,-100.42 154.94,-150.54 231.65,-150.54 27.76,0 48.43,15.74 62.14,47.58 4.23,10.5 11.01,15.92 20.32,15.92 26.41,0 39.62,10.15 39.62,30.65 0,10.33 -1.69,24.38 -4.9,42.17 -17.96,97.53 -26.76,166.45 -26.76,206.41 0,80.1 15.07,128.01 45.55,143.94 14.57,7.95 21.85,17.6 21.85,29.12 0,10.32 -7.12,20.65 -21.34,31.15 -14.23,10.34 -27.94,15.58 -41.16,15.58 -25.56,0 -46.56,-17.6 -62.98,-52.66 -16.6,-35.05 -24.89,-85 -24.89,-149.7zm-30.15 -279.38c-43.69,0 -94.48,40.98 -152.4,122.77 -57.91,81.95 -86.86,149.86 -86.86,203.7 0,37.93 12.69,57.07 37.76,57.07 36.41,0 86.87,-36.74 151.38,-110.24 64.51,-73.32 96.7,-140.88 96.7,-202.35 0,-47.24 -15.59,-70.95 -46.58,-70.95zm642.28 244.18c-42.34,70.96 -85.68,126.16 -130.04,165.11 -44.2,39.11 -85.35,58.59 -123.45,58.59 -21.85,0 -44.03,-12.7 -66.72,-38.27 -22.69,-25.41 -34.03,-64.68 -34.03,-117.52 0,-43.35 10.5,-107.18 31.32,-191.52 17.45,-70.44 26.24,-119.88 26.24,-148.33 9.66,-19.81 24.74,-29.81 45.22,-29.81 13.88,0 24.9,4.91 33.19,14.74 8.29,9.65 12.36,19.81 12.36,30.48 0,23.19 -8.12,56.05 -24.21,98.72 -30.82,82.97 -46.23,154.26 -46.23,213.87 0,54.19 12.53,81.28 37.77,81.28 32,0 72.98,-27.26 122.42,-81.79 49.62,-54.69 92.11,-130.73 127.51,-228.26 13.89,-38.95 25.23,-64.35 34.03,-76.2 8.81,-11.69 20.67,-17.62 35.56,-17.62 22.36,0 33.71,14.91 33.71,44.71 0,3.56 -3.23,15.75 -9.49,36.24 -19.82,72.47 -29.8,140.88 -29.8,205.4 0,77.38 12.86,127.51 38.27,150.2 13.21,12.36 19.81,22.19 19.81,29.81 0,9.31 -6.6,17.77 -20.15,25.39 -13.38,7.62 -25.4,11.35 -36.41,11.35 -23.2,0 -41.83,-17.28 -56.05,-51.65 -14.22,-34.38 -21.33,-85.17 -21.33,-152.23l0 -16.43c0,-5.24 0.16,-10.66 0.5,-16.26zm643.97 -176.62c-30.82,0.68 -96.68,91.79 -197.44,273.3 -34.21,61.13 -54.02,94.49 -59.6,99.9 -5.59,5.42 -15.92,10.33 -31,14.74 -15.07,4.23 -27.6,6.43 -37.41,6.43 -22.19,0 -33.36,-43.18 -33.36,-129.54 0,-48.6 10.5,-136.65 31.32,-263.97 8.64,-51.48 12.87,-88.39 12.87,-110.58 0,-21.84 9.82,-32.68 29.3,-32.68 36.74,0 55.03,26.42 55.03,79.25 0,24.89 -6.1,73.49 -18.29,145.97 -14.22,82.63 -21.5,132.92 -21.84,150.71 20.48,-19.81 50.63,-63.34 90.25,-130.39 56.22,-91.95 97.71,-150.2 124.3,-174.93 26.58,-24.55 54.18,-36.91 82.63,-36.91 21.5,0 38.6,14.4 51.31,43.18 12.7,28.78 20.49,97.36 23.03,205.92 0.67,27.08 3.22,47.24 7.45,60.44 4.39,13.21 7.44,19.81 9.48,19.81 15.58,0 49.27,-52.82 101.26,-158.66 27.77,-55.89 54.69,-98.38 81.11,-127.51 26.25,-29.13 55.38,-43.68 87.55,-43.68 26.76,0 46.22,13.88 58.41,41.48 12.36,27.6 21,68.41 26.43,122.77 4.91,54.87 12.53,105.16 23.03,150.7 10.33,45.73 29.46,75.02 57.22,87.89 18.98,8.97 28.29,19.3 28.29,31.33 0,11.51 -7.96,23.36 -23.71,35.55 -15.92,12.36 -30.48,18.46 -43.68,18.46 -26.6,0 -50.13,-16.25 -70.96,-48.6 -20.83,-32.51 -36.58,-102.61 -47.08,-210.31 -4.74,-43.35 -9.14,-74.16 -13.54,-92.28 -4.24,-18.29 -11.01,-27.43 -20.32,-27.43 -13.88,0 -30.31,13.36 -49.27,39.79 -19.14,26.41 -49.79,80.25 -92.13,161.21 -33.02,63.15 -58.08,105.32 -75.18,126.32 -16.93,20.99 -33.36,31.49 -49.28,31.49 -14.22,0 -26.92,-5.76 -38.27,-17.1 -11.17,-11.52 -18.29,-25.24 -21.33,-41.32 -2.88,-15.92 -6.1,-55.37 -9.32,-118.2 -5.07,-104.47 -14.05,-165.43 -27.26,-182.54l0 -0.01zm784.67 -169.67c4.41,-3.05 9.15,-4.57 14.39,-4.57 8.31,0 15.24,11.17 20.83,33.36 0,14.22 -3.72,32.17 -11.34,54.01 -22.52,62.48 -33.7,106.18 -33.7,130.9 0,6.61 1.87,10.33 5.92,11.01 76.04,-73.15 146.48,-109.73 211.34,-109.73 39.96,0 73.65,15.24 100.75,45.38 27.09,30.31 40.64,58.08 40.64,83.14 0,76.71 -39.12,150.38 -117.35,220.98 -78.24,70.61 -156.97,106.01 -236.38,106.01 -35.4,0 -63,-14.73 -82.65,-43.86 -19.64,-29.29 -29.46,-71.29 -29.46,-125.82 0,-59.27 7.45,-124.63 22.36,-196.43 14.89,-71.79 26.75,-119.71 35.72,-143.92 3.55,-10.34 6.95,-20.67 9.83,-31.34 3.38,-13.21 19.81,-22.86 49.1,-29.12zm-23.19 311.05c-6.61,36.58 -10,73.32 -10,110.08 0,49.94 19.65,74.84 59.1,74.84 44.2,0 93.81,-26.42 148.85,-79.24 54.86,-53.01 82.3,-104.49 82.3,-154.44 0,-20.49 -5.43,-37.59 -16.43,-51.48 -10.84,-13.89 -25.91,-20.82 -45.05,-20.82 -26.24,0 -51.98,6.43 -77.21,19.47 -25.23,13.2 -53.52,34.2 -84.5,63.33 -12.03,11.17 -21.51,19.98 -28.62,26.07 -7.11,6.1 -16.6,10.17 -28.44,12.19zm499.52 113.97c0,25.23 3.39,53.51 10.32,84.84 1.36,6.09 2.04,11 2.04,14.9 0,5.92 -5.42,13.72 -16.42,23.2 -10.84,9.31 -22.36,14.05 -34.72,14.05 -32,0 -48.08,-29.46 -48.08,-88.39 0,-58.42 12.69,-156.64 38.26,-294.63 9.15,-50.29 13.89,-80.6 13.89,-91.27 0,-20.83 3.72,-38.62 11.34,-53.34 7.62,-14.74 18.45,-22.02 32.34,-22.02 16.76,0 30.14,4.07 39.8,12.19 9.82,8.13 14.73,17.1 14.73,26.93 0,9.98 -2.37,23.7 -6.94,41.15 -25.91,94.32 -41.66,160.35 -47.59,197.95 -6.1,37.76 -8.97,82.63 -8.97,134.45zm298.18 165.27c-49.61,0 -87.87,-14.23 -114.47,-42.67 -26.58,-28.45 -39.96,-68.24 -39.96,-119.55 0,-86.37 34.2,-177.29 102.78,-273.13 68.42,-95.67 132.09,-143.6 191.02,-143.6 26.75,0 49.78,14.4 69.08,43.36 19.48,28.95 29.13,59.6 29.13,92.11 0,19.47 -4.24,36.24 -12.7,50.29 -8.47,14.06 -16.93,21.17 -25.57,21.17 -19.13,0 -32.68,-19.47 -40.64,-58.08 -8.97,-41.65 -21.84,-62.49 -38.78,-62.49 -34.38,0 -75.01,40.82 -121.92,122.44 -47.07,81.78 -70.44,150.7 -70.44,206.92 0,56.22 31.84,84.33 95.68,84.33 48.59,0 105.83,-22.86 171.7,-68.41 23.19,-16.26 40.14,-24.38 51.14,-24.38 11.17,0 16.76,6.43 16.76,19.47 0,25.06 -29.64,56.73 -88.72,94.99 -59.27,38.1 -117.35,57.24 -174.09,57.24zm1715.84 -352.2c3.55,-6.94 9.48,-48.42 17.27,-124.45 6.09,-60.96 25.4,-91.44 58.08,-91.44 26.76,0 40.31,13.53 40.31,40.29 0,6.27 -2.38,18.98 -6.95,38.1 -25.56,105.5 -38.27,194.06 -38.27,265.51 0,77.38 12.71,127.51 38.27,150.2 13.21,12.36 19.81,22.19 19.81,29.81 0,9.31 -6.77,17.77 -20.15,25.39 -13.38,7.62 -25.57,11.35 -36.41,11.35 -51.64,0 -77.38,-79.76 -77.38,-239.1 0,-10.67 -4.06,-15.92 -12.02,-15.92 -30.99,0 -69.09,1.86 -113.96,5.42 -45.05,3.72 -77.22,8.29 -96.53,13.89 -19.46,5.76 -31.32,10.83 -35.72,15.74 -4.57,4.74 -8.47,17.45 -12.03,38.1 -3.38,20.66 -5.07,42.17 -5.07,64.36l0 60.96c0,35.38 -16.26,53.16 -48.6,53.16 -27.27,0 -40.81,-17.78 -40.81,-53.16 0,-23.21 3.04,-52.67 8.97,-88.23 11.01,-65.53 21.84,-178.31 32.68,-338.32 1.35,-21 3.21,-34.21 5.59,-39.8 2.2,-5.58 8.29,-11.84 18.12,-18.62 9.65,-6.77 20.32,-10.17 32,-10.17 23.72,0 35.73,9.83 35.73,29.31 0,3.04 -3.89,27.76 -11.51,74.5 -7.96,46.56 -11.86,82.8 -11.86,108.54 0,18.29 6.27,27.27 18.8,27.27 25.23,0 71.12,-4.24 138.01,-12.53 66.72,-8.47 101.25,-15.24 103.63,-20.16zm657.17 155.8c0,33.69 -29.81,74.32 -89.41,122.08 -59.77,47.58 -121.41,71.3 -184.91,71.3 -53.17,0 -94.32,-15.59 -123.28,-47.08 -28.95,-31.33 -43.34,-75.19 -43.34,-131.41 0,-94.66 31.82,-184.57 95.66,-269.91 63.84,-85.34 133.78,-128.01 209.48,-128.01 24.72,0 45.03,8.12 60.79,24.38 15.57,16.09 23.53,35.74 23.53,58.43 0,50.96 -25.06,99.73 -75.01,146.47 -49.96,46.56 -116.68,92.45 -200.33,137.33 -17.27,8.97 -25.73,20.48 -25.73,34.71 0,27.44 7.79,49.44 23.7,66.04 15.93,16.6 39.46,24.72 70.44,24.72 71.13,0 143.77,-39.29 217.77,-118.02 11.01,-10.84 19.3,-16.43 24.9,-16.43 10.5,0 15.74,8.46 15.74,25.41zm-344.74 -77.39c140.38,-83.32 210.48,-150.37 210.48,-201 0,-19.81 -8.98,-29.81 -26.93,-29.81 -30.31,0 -64.68,22.36 -102.95,67.06 -38.1,44.71 -65.02,99.22 -80.6,163.75zm544.23 187.95c-16.26,59.61 -31.32,143.09 -45.56,250.62l-13.88 93.64c-2.36,13.21 -8.46,26.42 -18.46,39.45 -9.81,13.05 -18.96,19.65 -27.26,19.65 -10.33,0 -21.84,-5.25 -35.05,-15.58 -13.03,-10.5 -19.48,-18.8 -19.48,-25.07 0,-18.28 4.07,-43.34 12.36,-75.51 60.46,-244.36 90.77,-459.06 90.77,-643.8l-0.5 -41.65c-0.69,-35.74 5.58,-61.82 18.79,-77.9 13.38,-16.26 28.45,-24.38 45.72,-24.38 7.95,0 15.57,6.26 22.86,18.62 7.28,12.36 10.83,29.97 10.83,52.84 0,32 -3.21,70.94 -9.81,116.5 -8.64,57.57 -13.05,90.76 -13.38,99.22 49.27,-85.84 101.43,-153.07 156.63,-201.33 55.2,-48.27 106.52,-72.48 153.93,-72.48 33.36,0 61.46,12.54 84.49,37.43 23.03,25.05 34.55,56.05 34.55,93.13 0,107.7 -41.32,205.74 -124.13,293.62 -82.63,88.05 -163.24,131.9 -241.46,131.9 -19.65,0 -35.06,-4.91 -46.4,-14.72 -11.52,-10 -23.37,-28.12 -35.56,-54.2zm307.99 -399.27c-46.56,0 -104.3,43.69 -173.05,130.89 -68.75,87.37 -103.13,155.28 -103.13,203.88 0,12.03 6.78,23.53 20.32,34.72 13.55,11.34 30.66,16.93 51.48,16.93 47.41,0 101.77,-35.05 163.23,-104.99 61.65,-69.93 92.3,-138.51 92.3,-206.07 0,-24.22 -4.91,-42.68 -14.57,-55.89 -9.82,-13.04 -22.01,-19.47 -36.58,-19.47zm412.83 -207.44c-6.94,0 -12.19,-7.45 -15.91,-22.35 -1.36,-4.57 -3.05,-9.65 -5.43,-15.41 -8.97,-21.34 -13.38,-40.13 -13.38,-56.05 0,-13.2 7.8,-26.58 23.55,-40.3 15.74,-13.71 33.19,-20.66 52.32,-20.66 9.66,0 20.32,3.73 32.34,11.18 11.85,7.45 17.78,14.56 17.78,21.51 0,11 -4.07,29.46 -12.19,55.7 -8.13,26.08 -21,43.69 -38.61,52.84 -17.78,8.97 -31.16,13.54 -40.47,13.54zm-65.03 554.23c0,25.05 3.56,53.34 10.5,84.82 1.36,5.93 1.87,10.85 1.87,14.74 0,6.1 -5.42,13.72 -16.26,23.2 -11,9.31 -22.52,14.06 -34.71,14.06 -32.18,0 -48.09,-29.47 -48.09,-88.22 0,-60.96 12.53,-157.16 37.59,-288.71 8.64,-46.06 12.87,-74.34 12.87,-84.84 0,-20.82 3.89,-38.61 11.51,-53.34 7.62,-14.73 18.29,-22.18 32.17,-22.18 16.95,0 30.15,4.07 39.97,12.19 9.82,8.13 14.56,17.1 14.56,27.1 0,9.81 -2.2,23.03 -6.94,39.11 -24.73,87.38 -40.14,149.86 -46.06,187.62 -5.93,37.59 -8.98,82.47 -8.98,134.46zm-1982.34 -161.04c0,122.77 -39.63,206.24 -118.88,250.1 -38.6,21.5 -81.11,32.17 -127.16,32.17 -79.92,0 -141.9,-26.24 -185.76,-78.73 -40.65,-48.94 -60.96,-114.3 -60.96,-196.09 0,-97.37 27.09,-169.5 81.27,-216.41 45.22,-38.95 100.25,-58.43 165.45,-58.43 77.55,0 138.34,25.57 182.71,76.72 42.17,48.6 63.33,112.09 63.33,190.67zm-93.48 -42.84c-5.59,-42.51 -19.47,-76.04 -41.31,-100.42 -29.63,-33.36 -66.72,-49.96 -111.25,-49.96 -45.05,0 -82.3,16.6 -111.76,49.96 -22.02,24.38 -35.9,57.91 -41.5,100.42l305.81 0zm2.03 73.15l-309.86 0c2.71,50.79 16.09,92.29 40.29,124.29 27.78,36.4 66.22,54.52 114.99,54.52 48.6,0 86.86,-18.29 114.3,-55.03 23.88,-31.67 37.24,-72.99 40.29,-123.78z"/>
  </g>
 </g>
</svg>
