<?xml version="1.0" encoding="UTF-8"?>
<!DOCTYPE svg PUBLIC "-//W3C//DTD SVG 1.1//EN" "http://www.w3.org/Graphics/SVG/1.1/DTD/svg11.dtd">
<!-- Creator: CorelDRAW 2020 -->
<svg xmlns="http://www.w3.org/2000/svg" xml:space="preserve" width="465.666mm" height="229.923mm" version="1.1" style="shape-rendering:geometricPrecision; text-rendering:geometricPrecision; image-rendering:optimizeQuality; fill-rule:evenodd; clip-rule:evenodd"
viewBox="0 0 46565.72 22991.85"
 xmlns:xlink="http://www.w3.org/1999/xlink"
 xmlns:xodm="http://www.corel.com/coreldraw/odm/2003">
 <defs>
  <style type="text/css">
   <![CDATA[
    .fil0 {fill:none}
    .fil1 {fill:#898778;fill-rule:nonzero}
   ]]>
  </style>
   <clipPath id="id0">
    <rect x="12902.43" y="3517.14" width="21166.17" height="14096.72"/>
   </clipPath>
 </defs>
 <g id="Layer_x0020_1">
  <metadata id="CorelCorpID_0Corel-Layer"/>
  <polygon class="fil0" points="-0,0 46565.72,0 46565.72,22991.85 -0,22991.85 "/>
  <g style="clip-path:url(#id0)">
   <image id="Айтыс.jpg" x="12902.42" y="3517.14" width="21166.18" height="14096.72" xlink:href="айтыс өнері6_Images\айтыс өнері6_ImgID1.png"/>
  </g>
  <path class="fil1" d="M21501.52 18224.18l-30.48 0 0 -62.23 -5.15 0 -40.14 -68.09c-6.57,-11.14 -12.21,-18.97 -17.01,-23.35 -7.19,-6.77 -15.8,-10.16 -25.75,-10.16l0 101.6 -37.25 0 0 -219.71 37.25 0 0 94.83c13.83,0 24.13,-4.45 30.76,-13.41 2.19,-2.89 7.27,-13.97 15.1,-33.09 5.43,-13.19 9.6,-22.01 12.35,-26.46 6.07,-10.02 13.12,-16.36 21.16,-18.98 6,-1.9 15.53,-2.89 28.72,-2.89l7.48 0 0 30.9 -10.37 -0.21c-10.37,-0.14 -17.64,2.54 -21.95,8.05 -1.41,1.83 -4.72,9.59 -10.16,23.35 -5.08,12.98 -9.59,22.01 -13.4,27.09 -5.29,6.85 -13.19,12.77 -23.85,17.71 16.16,4.24 31.89,19.19 47.27,44.8l22.58 37.54 12.84 0 0 92.71zm77.33 -296.39c1.84,-1.27 3.81,-1.91 6,-1.91 3.46,0 6.35,4.66 8.68,13.9 0,5.93 -1.55,13.41 -4.73,22.51 -9.38,26.03 -14.04,44.24 -14.04,54.54 0,2.75 0.78,4.3 2.47,4.58 31.68,-30.48 61.03,-45.72 88.05,-45.72 16.65,0 30.69,6.35 41.98,18.91 11.29,12.63 16.94,24.2 16.94,34.65 0,31.96 -16.3,62.65 -48.9,92.07 -32.59,29.42 -65.4,44.17 -98.49,44.17 -14.75,0 -26.25,-6.14 -34.43,-18.28 -8.19,-12.2 -12.28,-29.7 -12.28,-52.42 0,-24.69 3.1,-51.93 9.31,-81.84 6.21,-29.92 11.15,-49.88 14.89,-59.97 1.48,-4.31 2.89,-8.61 4.09,-13.06 1.41,-5.5 8.26,-9.52 20.46,-12.13zm-9.66 129.61c-2.75,15.24 -4.17,30.55 -4.17,45.86 0,20.81 8.19,31.18 24.63,31.18 18.41,0 39.09,-11 62.02,-33.02 22.86,-22.08 34.29,-43.53 34.29,-64.34 0,-8.54 -2.26,-15.67 -6.85,-21.45 -4.51,-5.79 -10.79,-8.68 -18.77,-8.68 -10.93,0 -21.66,2.68 -32.17,8.11 -10.51,5.51 -22.29,14.26 -35.21,26.39 -5.01,4.66 -8.96,8.33 -11.92,10.87 -2.96,2.54 -6.91,4.23 -11.85,5.08zm208.13 47.48c0,10.51 1.42,22.3 4.31,35.35 0.56,2.54 0.85,4.59 0.85,6.21 0,2.47 -2.26,5.71 -6.85,9.66 -4.51,3.88 -9.31,5.86 -14.46,5.86 -13.34,0 -20.04,-12.28 -20.04,-36.83 0,-24.34 5.29,-65.26 15.95,-122.77 3.81,-20.95 5.78,-33.58 5.78,-38.02 0,-8.68 1.55,-16.09 4.73,-22.23 3.17,-6.14 7.69,-9.17 13.47,-9.17 6.99,0 12.56,1.69 16.58,5.08 4.1,3.39 6.14,7.12 6.14,11.22 0,4.16 -0.99,9.87 -2.89,17.14 -10.8,39.3 -17.36,66.82 -19.83,82.48 -2.54,15.73 -3.74,34.43 -3.74,56.02zm168.84 -70.06c17.78,2.89 31.68,9.45 41.56,19.68 9.95,10.16 14.89,22.65 14.89,37.4 0,23.28 -9.88,42.68 -29.57,58.21 -19.68,15.45 -45.58,23.21 -77.68,23.21 -19.19,0 -35.7,-4.09 -49.53,-12.42 -13.83,-8.25 -20.81,-17.43 -20.81,-27.44 0,-8.33 4.8,-12.42 14.32,-12.42 1.34,0 3.46,1.13 6.35,3.53 15.17,13.05 33.16,19.61 53.98,19.61 18.34,0 34.14,-4.8 47.34,-14.46 13.26,-9.67 19.82,-22.23 19.82,-37.61 0,-10.23 -3.74,-18.7 -11.21,-25.54 -7.55,-6.84 -16.23,-10.23 -26.18,-10.23 -7.55,0 -20.88,2.96 -39.86,8.89 -3.74,1.2 -7.76,1.83 -12,1.83 -8.32,0 -12.42,-5.57 -12.42,-16.72 0,-3.88 1.98,-6.98 5.86,-9.31 3.95,-2.33 12.42,-5.01 25.33,-8.04 39.3,-8.97 58.91,-24.91 58.91,-47.77 0,-6.91 -2.4,-12.56 -7.33,-17.07 -4.87,-4.45 -11.15,-6.71 -18.91,-6.71 -14.33,0 -29.64,6.35 -45.86,19.05 -9.53,7.41 -16.8,11.15 -21.74,11.15 -8.39,0 -12.62,-3.95 -12.62,-11.78 0,-10.37 9.8,-20.89 29.28,-31.75 19.47,-10.8 38.17,-16.23 56.09,-16.23 17.92,0 32.03,4.8 42.33,14.25 10.23,9.53 15.38,19.55 15.38,29.99 0,24.97 -15.24,44.52 -45.72,58.7zm886.51 33.09c-1.77,30.97 -4.73,61.38 -8.89,91.16 -2.05,5.64 -7.27,8.46 -15.67,8.46 -12.13,0 -18.2,-6.2 -18.2,-18.62 0,-5.08 1.48,-14.61 4.37,-28.51 2.05,-12.13 3.11,-20.32 3.25,-24.69 0.14,-4.31 0.49,-9.1 1.06,-14.25 0.56,-5.15 0.49,-9.25 -0.21,-12.28 -6.99,0.92 -21.38,9.31 -42.97,25.19 -21.66,15.87 -40.22,31.54 -55.6,47.13l0 -0.21c-0.99,0.56 -4.02,5.71 -9.1,15.52 -7.34,14.6 -15.38,21.87 -24.2,21.87 -4.16,0 -8.75,-1.76 -13.76,-5.36 -5.01,-3.6 -7.55,-7.13 -7.55,-10.73 0,-8.53 8.04,-21.3 24.13,-38.17 16.02,-16.86 33.8,-31.32 53.2,-43.32 23.71,-14.6 40,-26.38 48.96,-35.34 -3.95,-5.65 -11.78,-11.79 -23.35,-18.56 -11.71,-6.91 -22.58,-14.6 -32.67,-23.14 -1.34,-1.13 -3.03,-2.4 -4.94,-3.74 -17.78,-12 -29.56,-20.96 -35.41,-26.95 -5.86,-6 -8.82,-12.49 -8.82,-19.34 0,-4.58 1.76,-8.74 5.15,-12.55 3.45,-3.74 6.84,-5.65 10.16,-5.65 2.04,0 5.78,1.06 11.14,3.32 5.37,2.18 9.25,4.51 11.58,6.98l10.16 9.53c35.7,34.99 63.92,57.29 84.73,66.74 1.06,0 2.47,-1.27 4.09,-3.88 1.42,-4.73 2.12,-12.2 2.12,-22.58 0,-9.59 -1.06,-20.46 -3.1,-32.45 -1.13,-6.14 -1.7,-10.23 -1.7,-12.14 0,-6.49 2.54,-11.71 7.55,-15.73 5.08,-4.02 10.52,-6 16.44,-6 6.78,0 11.36,1.41 13.83,4.17 2.54,2.75 3.74,7.4 3.74,14.04l-2.68 65.68 0 4.17c0,1.9 0.07,3.52 0.21,4.72 4.8,0 9.88,-1.83 15.1,-5.64 5.22,-3.81 13.05,-11.36 23.35,-22.65 45.37,-46.99 71.62,-70.48 78.74,-70.48 4.02,0 7.69,1.69 10.94,4.93 3.31,3.32 5.01,7.2 5.01,11.58 0,2.25 -7.55,11.57 -22.65,28.01 -15.1,16.51 -30.62,31.6 -46.64,45.36 -20.53,17.64 -30.76,26.81 -30.76,27.52 0,0.99 8.54,8.11 25.61,21.52 18.49,14.46 31.26,24.69 38.24,30.76 0.99,0.71 2.33,1.62 4.17,2.68 20.39,12.56 33.09,21.94 38.24,28.15 5.08,6.21 7.62,11.43 7.62,15.67 0,4.02 -1.7,8.11 -5.15,12.34 -3.46,4.17 -6.85,6.28 -10.16,6.28 -12.28,0 -40.71,-20.6 -85.38,-61.8 -19.82,-18.49 -31.82,-28.16 -35.91,-29.14 -1.83,-0.29 -3.17,-0.64 -4.16,-1.06 -1.41,-0.35 -3.88,-0.5 -7.48,-0.28 -3.53,0.21 -5.5,0.77 -5.78,1.76zm259.84 -182.74c-2.89,0 -5.08,-3.1 -6.63,-9.31 -0.57,-1.91 -1.27,-4.02 -2.26,-6.42 -3.74,-8.89 -5.57,-16.72 -5.57,-23.35 0,-5.51 3.24,-11.08 9.8,-16.8 6.56,-5.71 13.83,-8.6 21.8,-8.6 4.03,0 8.47,1.55 13.48,4.65 4.94,3.11 7.41,6.07 7.41,8.96 0,4.59 -1.69,12.28 -5.08,23.22 -3.39,10.86 -8.75,18.2 -16.09,22.01 -7.41,3.74 -12.98,5.64 -16.86,5.64zm-27.09 230.93c0,10.44 1.48,22.22 4.37,35.35 0.57,2.47 0.78,4.51 0.78,6.14 0,2.54 -2.26,5.71 -6.78,9.66 -4.58,3.88 -9.38,5.86 -14.46,5.86 -13.41,0 -20.04,-12.28 -20.04,-36.76 0,-25.4 5.22,-65.48 15.67,-120.3 3.59,-19.19 5.36,-30.97 5.36,-35.35 0,-8.67 1.62,-16.08 4.8,-22.22 3.17,-6.14 7.62,-9.24 13.4,-9.24 7.06,0 12.56,1.69 16.65,5.08 4.09,3.38 6.07,7.12 6.07,11.29 0,4.09 -0.92,9.59 -2.89,16.29 -10.3,36.41 -16.72,62.44 -19.19,78.18 -2.47,15.66 -3.74,34.36 -3.74,56.02zm78.1 10.09l-0.42 -4.31c-1.35,-13.97 2.96,-28.57 12.98,-43.81 9.95,-15.31 35.06,-33.09 75.28,-53.34 25.68,-12.98 38.45,-24.76 38.45,-35.35 0,-5.64 -2.33,-10.02 -6.98,-13.05 -4.73,-3.03 -8.75,-4.52 -12.21,-4.52 -10.37,0 -30.2,7.27 -59.55,21.88 -2.33,1.27 -3.74,1.9 -4.09,1.9 -11.36,0 -17,-4.02 -17,-11.99 0,-12.99 11.22,-23.78 33.51,-32.39 22.3,-8.61 41.77,-12.91 58.28,-12.91 10.37,0 21.17,4.09 32.45,12.28 11.29,8.25 16.94,19.19 16.94,33.02 0,11.29 -3.67,22.15 -10.94,32.66 -7.34,10.45 -25.54,23.71 -54.75,39.87 -23.99,13.19 -40.22,24.13 -48.68,32.66 -8.47,8.54 -12.7,18.21 -12.7,28.93 0,7.83 3.6,13.05 10.93,15.52 7.27,2.47 12.77,3.74 16.51,3.74 25.9,0 49.04,-5.43 69.5,-16.15 6.99,-3.6 12.21,-5.37 15.66,-5.37 7.2,0 10.8,3.96 10.8,12 0,12.13 -9.81,22.22 -29.35,30.34 -19.62,8.18 -44.38,12.2 -74.44,12.2 -14.32,0 -27.66,-4.09 -39.93,-12.27 -12.21,-8.19 -18.98,-18.7 -20.25,-31.54zm276.78 -241.02c-2.89,0 -5.08,-3.1 -6.63,-9.31 -0.57,-1.91 -1.27,-4.02 -2.26,-6.42 -3.74,-8.89 -5.57,-16.72 -5.57,-23.35 0,-5.51 3.24,-11.08 9.8,-16.8 6.56,-5.71 13.83,-8.6 21.8,-8.6 4.03,0 8.47,1.55 13.48,4.65 4.94,3.11 7.41,6.07 7.41,8.96 0,4.59 -1.69,12.28 -5.08,23.22 -3.39,10.86 -8.75,18.2 -16.09,22.01 -7.41,3.74 -12.98,5.64 -16.86,5.64zm-27.09 230.93c0,10.44 1.48,22.22 4.37,35.35 0.57,2.47 0.78,4.51 0.78,6.14 0,2.54 -2.26,5.71 -6.78,9.66 -4.58,3.88 -9.38,5.86 -14.46,5.86 -13.41,0 -20.04,-12.28 -20.04,-36.76 0,-25.4 5.22,-65.48 15.67,-120.3 3.59,-19.19 5.36,-30.97 5.36,-35.35 0,-8.67 1.62,-16.08 4.8,-22.22 3.17,-6.14 7.62,-9.24 13.4,-9.24 7.06,0 12.56,1.69 16.65,5.08 4.09,3.38 6.07,7.12 6.07,11.29 0,4.09 -0.92,9.59 -2.89,16.29 -10.3,36.41 -16.72,62.44 -19.19,78.18 -2.47,15.66 -3.74,34.36 -3.74,56.02zm238.96 -117.62c-12.84,0.29 -40.28,38.24 -82.26,113.88 -14.26,25.47 -22.51,39.37 -24.84,41.63 -2.33,2.26 -6.63,4.3 -12.91,6.14 -6.28,1.76 -11.5,2.68 -15.59,2.68 -9.25,0 -13.9,-17.99 -13.9,-53.98 0,-20.25 4.37,-56.94 13.05,-109.99 3.6,-21.45 5.36,-36.83 5.36,-46.08 0,-9.1 4.1,-13.61 12.21,-13.61 15.31,0 22.93,11 22.93,33.02 0,10.37 -2.54,30.62 -7.62,60.82 -5.93,34.43 -8.96,55.38 -9.1,62.79 8.53,-8.26 21.09,-26.39 37.6,-54.33 23.43,-38.31 40.71,-62.58 51.79,-72.88 11.08,-10.23 22.58,-15.38 34.43,-15.38 8.96,0 16.09,5.99 21.38,17.99 5.29,11.99 8.54,40.57 9.6,85.79 0.28,11.29 1.34,19.69 3.1,25.19 1.83,5.51 3.1,8.26 3.95,8.26 6.49,0 20.53,-22.02 42.19,-66.11 11.57,-23.29 22.79,-41 33.8,-53.13 10.93,-12.14 23.07,-18.2 36.48,-18.2 11.14,0 19.26,5.78 24.34,17.28 5.15,11.5 8.75,28.51 11,51.15 2.05,22.86 5.22,43.82 9.6,62.8 4.3,19.05 12.28,31.25 23.85,36.62 7.9,3.74 11.78,8.04 11.78,13.05 0,4.8 -3.32,9.74 -9.88,14.82 -6.63,5.15 -12.7,7.69 -18.2,7.69 -11.08,0 -20.89,-6.78 -29.56,-20.25 -8.68,-13.55 -15.24,-42.76 -19.62,-87.63 -1.97,-18.06 -3.81,-30.91 -5.64,-38.45 -1.77,-7.62 -4.59,-11.43 -8.47,-11.43 -5.78,0 -12.63,5.57 -20.53,16.58 -7.97,11 -20.74,33.44 -38.38,67.16 -13.76,26.32 -24.2,43.89 -31.33,52.64 -7.05,8.75 -13.9,13.12 -20.53,13.12 -5.93,0 -11.22,-2.4 -15.95,-7.12 -4.65,-4.8 -7.62,-10.52 -8.89,-17.22 -1.2,-6.63 -2.54,-23.07 -3.88,-49.25 -2.11,-43.53 -5.85,-68.93 -11.36,-76.06zm587.57 88.27c-19.26,25.89 -38.38,45.29 -57.22,58.28 -18.91,12.91 -36.19,19.4 -51.93,19.4 -10.58,0 -19.75,-4.45 -27.44,-13.41 -7.76,-8.96 -11.57,-20.46 -11.57,-34.57 0,-36.19 16.15,-75.21 48.54,-117.05 32.38,-41.84 64.56,-62.72 96.52,-62.72 11.57,0 20.18,6.56 25.89,19.82 1.77,4.38 4.59,6.64 8.47,6.64 11,0 16.51,4.23 16.51,12.77 0,4.3 -0.71,10.16 -2.05,17.56 -7.48,40.64 -11.15,69.36 -11.15,86.01 0,33.37 6.28,53.34 18.98,59.97 6.07,3.32 9.1,7.34 9.1,12.14 0,4.3 -2.96,8.61 -8.89,12.98 -5.92,4.3 -11.64,6.49 -17.14,6.49 -10.65,0 -19.4,-7.34 -26.25,-21.94 -6.91,-14.61 -10.37,-35.42 -10.37,-62.37zm-12.56 -116.42c-18.2,0 -39.37,17.08 -63.5,51.15 -24.13,34.15 -36.19,62.45 -36.19,84.88 0,15.81 5.29,23.78 15.73,23.78 15.17,0 36.2,-15.31 63.08,-45.93 26.88,-30.55 40.29,-58.7 40.29,-84.31 0,-19.69 -6.5,-29.57 -19.41,-29.57zm267.6 101.74c-17.63,29.57 -35.7,52.57 -54.18,68.79 -18.42,16.3 -35.56,24.42 -51.44,24.42 -9.1,0 -18.34,-5.3 -27.8,-15.95 -9.45,-10.58 -14.18,-26.95 -14.18,-48.96 0,-18.07 4.38,-44.67 13.06,-79.8 7.26,-29.35 10.93,-49.96 10.93,-61.81 4.02,-8.25 10.3,-12.42 18.84,-12.42 5.79,0 10.37,2.05 13.83,6.14 3.46,4.02 5.15,8.26 5.15,12.7 0,9.67 -3.39,23.36 -10.09,41.14 -12.84,34.57 -19.26,64.27 -19.26,89.11 0,22.57 5.22,33.86 15.73,33.86 13.34,0 30.41,-11.36 51.01,-34.08 20.68,-22.78 38.39,-54.46 53.13,-95.1 5.79,-16.23 10.51,-26.81 14.18,-31.75 3.67,-4.87 8.61,-7.34 14.82,-7.34 9.31,0 14.04,6.21 14.04,18.63 0,1.48 -1.34,6.56 -3.95,15.09 -8.26,30.2 -12.42,58.71 -12.42,85.59 0,32.24 5.36,53.13 15.95,62.58 5.5,5.15 8.25,9.24 8.25,12.42 0,3.88 -2.75,7.41 -8.39,10.58 -5.58,3.18 -10.59,4.73 -15.17,4.73 -9.67,0 -17.43,-7.2 -23.36,-21.52 -5.92,-14.32 -8.89,-35.49 -8.89,-63.43l0 -6.84c0,-2.19 0.07,-4.45 0.21,-6.78zm268.31 -73.59c-12.84,0.29 -40.28,38.24 -82.26,113.88 -14.26,25.47 -22.51,39.37 -24.84,41.63 -2.33,2.26 -6.63,4.3 -12.91,6.14 -6.28,1.76 -11.5,2.68 -15.59,2.68 -9.25,0 -13.9,-17.99 -13.9,-53.98 0,-20.25 4.37,-56.94 13.05,-109.99 3.6,-21.45 5.36,-36.83 5.36,-46.08 0,-9.1 4.1,-13.61 12.21,-13.61 15.31,0 22.93,11 22.93,33.02 0,10.37 -2.54,30.62 -7.62,60.82 -5.93,34.43 -8.96,55.38 -9.1,62.79 8.53,-8.26 21.09,-26.39 37.6,-54.33 23.43,-38.31 40.71,-62.58 51.79,-72.88 11.08,-10.23 22.58,-15.38 34.43,-15.38 8.96,0 16.09,5.99 21.38,17.99 5.29,11.99 8.54,40.57 9.6,85.79 0.28,11.29 1.34,19.69 3.1,25.19 1.83,5.51 3.1,8.26 3.95,8.26 6.49,0 20.53,-22.02 42.19,-66.11 11.57,-23.29 22.79,-41 33.8,-53.13 10.93,-12.14 23.07,-18.2 36.48,-18.2 11.14,0 19.26,5.78 24.34,17.28 5.15,11.5 8.75,28.51 11,51.15 2.05,22.86 5.22,43.82 9.6,62.8 4.3,19.05 12.28,31.25 23.85,36.62 7.9,3.74 11.78,8.04 11.78,13.05 0,4.8 -3.32,9.74 -9.88,14.82 -6.63,5.15 -12.7,7.69 -18.2,7.69 -11.08,0 -20.89,-6.78 -29.56,-20.25 -8.68,-13.55 -15.24,-42.76 -19.62,-87.63 -1.97,-18.06 -3.81,-30.91 -5.64,-38.45 -1.77,-7.62 -4.59,-11.43 -8.47,-11.43 -5.78,0 -12.63,5.57 -20.53,16.58 -7.97,11 -20.74,33.44 -38.38,67.16 -13.76,26.32 -24.2,43.89 -31.33,52.64 -7.05,8.75 -13.9,13.12 -20.53,13.12 -5.93,0 -11.22,-2.4 -15.95,-7.12 -4.65,-4.8 -7.62,-10.52 -8.89,-17.22 -1.2,-6.63 -2.54,-23.07 -3.88,-49.25 -2.11,-43.53 -5.85,-68.93 -11.36,-76.06zm326.94 -70.69c1.84,-1.27 3.81,-1.91 6,-1.91 3.46,0 6.35,4.66 8.68,13.9 0,5.93 -1.55,13.41 -4.73,22.51 -9.38,26.03 -14.04,44.24 -14.04,54.54 0,2.75 0.78,4.3 2.47,4.58 31.68,-30.48 61.03,-45.72 88.05,-45.72 16.65,0 30.69,6.35 41.98,18.91 11.29,12.63 16.94,24.2 16.94,34.65 0,31.96 -16.3,62.65 -48.9,92.07 -32.59,29.42 -65.4,44.17 -98.49,44.17 -14.75,0 -26.25,-6.14 -34.43,-18.28 -8.19,-12.2 -12.28,-29.7 -12.28,-52.42 0,-24.69 3.1,-51.93 9.31,-81.84 6.21,-29.92 11.15,-49.88 14.89,-59.97 1.48,-4.31 2.89,-8.61 4.09,-13.06 1.41,-5.5 8.26,-9.52 20.46,-12.13zm-9.66 129.61c-2.75,15.24 -4.17,30.55 -4.17,45.86 0,20.81 8.19,31.18 24.63,31.18 18.41,0 39.09,-11 62.02,-33.02 22.86,-22.08 34.29,-43.53 34.29,-64.34 0,-8.54 -2.26,-15.67 -6.85,-21.45 -4.51,-5.79 -10.79,-8.68 -18.77,-8.68 -10.93,0 -21.66,2.68 -32.17,8.11 -10.51,5.51 -22.29,14.26 -35.21,26.39 -5.01,4.66 -8.96,8.33 -11.92,10.87 -2.96,2.54 -6.91,4.23 -11.85,5.08zm208.13 47.48c0,10.51 1.42,22.3 4.31,35.35 0.56,2.54 0.85,4.59 0.85,6.21 0,2.47 -2.26,5.71 -6.85,9.66 -4.51,3.88 -9.31,5.86 -14.46,5.86 -13.34,0 -20.04,-12.28 -20.04,-36.83 0,-24.34 5.29,-65.26 15.95,-122.77 3.81,-20.95 5.78,-33.58 5.78,-38.02 0,-8.68 1.55,-16.09 4.73,-22.23 3.17,-6.14 7.69,-9.17 13.47,-9.17 6.99,0 12.56,1.69 16.58,5.08 4.1,3.39 6.14,7.12 6.14,11.22 0,4.16 -0.99,9.87 -2.89,17.14 -10.8,39.3 -17.36,66.82 -19.83,82.48 -2.54,15.73 -3.74,34.43 -3.74,56.02zm124.25 68.86c-20.67,0 -36.62,-5.92 -47.69,-17.78 -11.08,-11.85 -16.66,-28.43 -16.66,-49.81 0,-35.98 14.26,-73.87 42.83,-113.8 28.51,-39.87 55.03,-59.83 79.59,-59.83 11.14,0 20.74,5.99 28.78,18.06 8.12,12.06 12.14,24.83 12.14,38.38 0,8.11 -1.76,15.1 -5.29,20.95 -3.53,5.86 -7.06,8.82 -10.66,8.82 -7.97,0 -13.61,-8.11 -16.93,-24.2 -3.74,-17.35 -9.1,-26.03 -16.16,-26.03 -14.32,0 -31.25,17 -50.8,51.01 -19.61,34.08 -29.35,62.79 -29.35,86.22 0,23.42 13.27,35.13 39.87,35.13 20.25,0 44.09,-9.52 71.54,-28.5 9.67,-6.77 16.72,-10.16 21.31,-10.16 4.65,0 6.98,2.68 6.98,8.11 0,10.45 -12.35,23.64 -36.97,39.59 -24.69,15.87 -48.89,23.84 -72.53,23.84zm206.02 -245.95c1.84,-1.27 3.81,-1.91 6,-1.91 3.46,0 6.35,4.66 8.68,13.9 0,5.93 -1.55,13.41 -4.73,22.51 -9.38,26.03 -14.04,44.24 -14.04,54.54 0,2.75 0.78,4.3 2.47,4.58 31.68,-30.48 61.03,-45.72 88.05,-45.72 16.65,0 30.69,6.35 41.98,18.91 11.29,12.63 16.94,24.2 16.94,34.65 0,31.96 -16.3,62.65 -48.9,92.07 -32.59,29.42 -65.4,44.17 -98.49,44.17 -14.75,0 -26.25,-6.14 -34.43,-18.28 -8.19,-12.2 -12.28,-29.7 -12.28,-52.42 0,-24.69 3.1,-51.93 9.31,-81.84 6.21,-29.92 11.15,-49.88 14.89,-59.97 1.48,-4.31 2.89,-8.61 4.09,-13.06 1.41,-5.5 8.26,-9.52 20.46,-12.13zm-9.66 129.61c-2.75,15.24 -4.17,30.55 -4.17,45.86 0,20.81 8.19,31.18 24.63,31.18 18.41,0 39.09,-11 62.02,-33.02 22.86,-22.08 34.29,-43.53 34.29,-64.34 0,-8.54 -2.26,-15.67 -6.85,-21.45 -4.51,-5.79 -10.79,-8.68 -18.77,-8.68 -10.93,0 -21.66,2.68 -32.17,8.11 -10.51,5.51 -22.29,14.26 -35.21,26.39 -5.01,4.66 -8.96,8.33 -11.92,10.87 -2.96,2.54 -6.91,4.23 -11.85,5.08zm208.13 47.48c0,10.51 1.42,22.3 4.31,35.35 0.56,2.54 0.85,4.59 0.85,6.21 0,2.47 -2.26,5.71 -6.85,9.66 -4.51,3.88 -9.31,5.86 -14.46,5.86 -13.34,0 -20.04,-12.28 -20.04,-36.83 0,-24.34 5.29,-65.26 15.95,-122.77 3.81,-20.95 5.78,-33.58 5.78,-38.02 0,-8.68 1.55,-16.09 4.73,-22.23 3.17,-6.14 7.69,-9.17 13.47,-9.17 6.99,0 12.56,1.69 16.58,5.08 4.1,3.39 6.14,7.12 6.14,11.22 0,4.16 -0.99,9.87 -2.89,17.14 -10.8,39.3 -17.36,66.82 -19.83,82.48 -2.54,15.73 -3.74,34.43 -3.74,56.02zm-3473.41 -77.47l15.1 0c25.61,0 44.66,-0.92 57.22,-2.68 6.07,-0.85 12.13,-1.27 18.2,-1.27 2.61,0 7.97,1.62 16.02,4.73 8.04,3.17 12.84,5.85 14.39,7.97 1.48,2.19 2.26,5.01 2.26,8.61 0,5.08 -1.06,8.68 -3.11,10.72 -2.04,2.05 -6.56,3.11 -13.47,3.11 -3.04,0 -7.27,-0.92 -12.77,-2.68 -5.51,-1.77 -10.16,-2.69 -13.9,-2.69 -1.48,0 -6.49,0.36 -15.03,1.06 -4.59,0.36 -12.84,0.07 -24.84,-1.06 -9.24,-0.84 -16.08,-1.27 -20.67,-1.27 -6.35,0 -15.94,0.43 -28.71,1.27 -12.85,0.85 -22.51,1.27 -29.14,1.27 -6.64,0 -12,-0.77 -16.02,-2.18 -4.09,-1.48 -6.14,-4.73 -6.14,-9.81 0,-2.26 0.92,-4.8 2.82,-7.76 1.84,-2.96 8.19,-5.29 18.91,-7.06 10.73,-1.69 18.49,-2.61 23.15,-2.61l15.73 2.33z"/>
 </g>
</svg>
