<?xml version="1.0" encoding="UTF-8"?>
<!DOCTYPE svg PUBLIC "-//W3C//DTD SVG 1.1//EN" "http://www.w3.org/Graphics/SVG/1.1/DTD/svg11.dtd">
<!-- Creator: CorelDRAW 2020 -->
<svg xmlns="http://www.w3.org/2000/svg" xml:space="preserve" width="20mm" height="20mm" version="1.1" style="shape-rendering:geometricPrecision; text-rendering:geometricPrecision; image-rendering:optimizeQuality; fill-rule:evenodd; clip-rule:evenodd"
viewBox="0 0 409.94 409.94"
 xmlns:xlink="http://www.w3.org/1999/xlink"
 xmlns:xodm="http://www.corel.com/coreldraw/odm/2003">
 <defs>
  <style type="text/css">
   <![CDATA[
    .str0 {stroke:#6B470F;stroke-width:15.37;stroke-miterlimit:22.9256}
    .str2 {stroke:#C6B93A;stroke-width:15.37;stroke-miterlimit:22.9256}
    .str1 {stroke:#6B470F;stroke-width:4.1;stroke-miterlimit:22.9256}
    .str3 {stroke:#C6B93A;stroke-width:4.1;stroke-miterlimit:22.9256}
    .fil0 {fill:none}
   ]]>
  </style>
 </defs>
 <g id="Layer_x0020_1">
  <metadata id="CorelCorpID_0Corel-Layer"/>
  <g id="_1072211968">
   <path class="fil0 str0" d="M122.98 102.48c0,-11.32 -9.18,-20.5 -20.5,-20.5 -11.32,0 -20.5,9.18 -20.5,20.5 0,11.32 9.18,20.5 20.5,20.5 11.32,0 20.5,-9.18 20.5,-20.5z"/>
   <path class="fil0 str1" d="M163.05 91.81l-40.78 7.19m-39.57 6.98l-40.78 7.19"/>
   <path class="fil0 str1" d="M155.75 71.74l-35.86 20.7m-34.8 20.09l-35.86 20.71"/>
   <path class="fil0 str1" d="M142.01 55.38l-26.61 31.72m-25.82 30.77l-26.62 31.72"/>
   <path class="fil0 str1" d="M123.52 44.69l-14.17 38.92m-13.74 37.76l-14.17 38.92"/>
   <path class="fil0 str1" d="M102.48 40.99l0 41.4m0 40.17l0 41.4"/>
   <path class="fil0 str1" d="M81.45 44.69l14.16 38.92m13.74 37.76l14.16 38.92"/>
   <path class="fil0 str1" d="M62.96 55.38l26.61 31.72m25.82 30.78l26.61 31.72"/>
   <path class="fil0 str1" d="M49.22 71.74l35.86 20.7m34.8 20.09l35.86 20.71"/>
   <path class="fil0 str1" d="M163.05 113.16l-40.78 -7.19m-39.57 -6.98l-40.78 -7.19"/>
   <path class="fil0 str0" d="M327.95 102.48c0,-11.32 -9.18,-20.5 -20.5,-20.5 -11.32,0 -20.5,9.18 -20.5,20.5 0,11.32 9.18,20.5 20.5,20.5 11.32,0 20.5,-9.18 20.5,-20.5z"/>
   <path class="fil0 str2" d="M122.98 307.45c0,-11.32 -9.18,-20.5 -20.5,-20.5 -11.32,0 -20.5,9.18 -20.5,20.5 0,11.32 9.18,20.5 20.5,20.5 11.32,0 20.5,-9.18 20.5,-20.5z"/>
   <path class="fil0 str3" d="M163.05 296.78l-40.78 7.19m-39.57 6.98l-40.78 7.19"/>
   <path class="fil0 str3" d="M155.75 276.7l-35.86 20.7m-34.8 20.09l-35.86 20.71"/>
   <path class="fil0 str3" d="M142.01 260.35l-26.61 31.72m-25.82 30.77l-26.62 31.72"/>
   <path class="fil0 str3" d="M123.52 249.66l-14.17 38.92m-13.74 37.76l-14.17 38.92"/>
   <path class="fil0 str3" d="M102.48 245.96l0 41.4m0 40.17l0 41.4"/>
   <path class="fil0 str3" d="M81.45 249.66l14.16 38.92m13.74 37.76l14.16 38.92"/>
   <path class="fil0 str3" d="M62.96 260.35l26.61 31.72m25.82 30.78l26.61 31.72"/>
   <path class="fil0 str3" d="M49.22 276.71l35.86 20.7m34.8 20.09l35.86 20.71"/>
   <path class="fil0 str3" d="M163.05 318.13l-40.78 -7.19m-39.57 -6.98l-40.78 -7.19"/>
   <path class="fil0 str2" d="M327.95 307.45c0,-11.32 -9.18,-20.5 -20.5,-20.5 -11.32,0 -20.5,9.18 -20.5,20.5 0,11.32 9.18,20.5 20.5,20.5 11.32,0 20.5,-9.18 20.5,-20.5z"/>
   <polygon class="fil0" points="-0,0 409.94,0 409.94,409.94 -0,409.94 "/>
  </g>
 </g>
</svg>
