<?xml version="1.0" encoding="UTF-8"?>
<!DOCTYPE svg PUBLIC "-//W3C//DTD SVG 1.1//EN" "http://www.w3.org/Graphics/SVG/1.1/DTD/svg11.dtd">
<!-- Creator: CorelDRAW 2020 -->
<svg xmlns="http://www.w3.org/2000/svg" xml:space="preserve" width="18mm" height="18mm" version="1.1" style="shape-rendering:geometricPrecision; text-rendering:geometricPrecision; image-rendering:optimizeQuality; fill-rule:evenodd; clip-rule:evenodd"
viewBox="0 0 325.38 325.38"
 xmlns:xlink="http://www.w3.org/1999/xlink"
 xmlns:xodm="http://www.corel.com/coreldraw/odm/2003">
 <defs>
  <style type="text/css">
   <![CDATA[
    .str0 {stroke:#6B470F;stroke-width:13.56;stroke-miterlimit:22.9256}
    .str2 {stroke:#C6B93A;stroke-width:13.56;stroke-miterlimit:22.9256}
    .str1 {stroke:#6B470F;stroke-width:3.62;stroke-miterlimit:22.9256}
    .str3 {stroke:#C6B93A;stroke-width:3.62;stroke-miterlimit:22.9256}
    .fil0 {fill:none}
   ]]>
  </style>
 </defs>
 <g id="Layer_x0020_1">
  <metadata id="CorelCorpID_0Corel-Layer"/>
  <g id="_1072205128">
   <path class="fil0 str0" d="M97.61 81.35c0,-8.98 -7.28,-16.27 -16.27,-16.27 -8.98,0 -16.27,7.28 -16.27,16.27 0,8.98 7.28,16.27 16.27,16.27 8.98,0 16.27,-7.28 16.27,-16.27z"/>
   <path class="fil0 str1" d="M129.42 72.87l-32.37 5.71m-31.41 5.54l-32.37 5.71"/>
   <path class="fil0 str1" d="M123.62 56.94l-28.47 16.43m-27.62 15.95l-28.47 16.44"/>
   <path class="fil0 str1" d="M112.72 43.96l-21.12 25.18m-20.5 24.43l-21.13 25.18"/>
   <path class="fil0 str1" d="M98.04 35.47l-11.24 30.89m-10.91 29.97l-11.24 30.89"/>
   <path class="fil0 str1" d="M81.35 32.54l0 32.86m0 31.89l0 32.86"/>
   <path class="fil0 str1" d="M64.65 35.47l11.24 30.89m10.91 29.97l11.24 30.89"/>
   <path class="fil0 str1" d="M49.97 43.96l21.12 25.18m20.5 24.43l21.12 25.18"/>
   <path class="fil0 str1" d="M39.07 56.94l28.46 16.43m27.62 15.95l28.47 16.44"/>
   <path class="fil0 str1" d="M129.42 89.82l-32.37 -5.71m-31.41 -5.54l-32.37 -5.71"/>
   <path class="fil0 str0" d="M260.31 81.35c0,-8.98 -7.28,-16.27 -16.27,-16.27 -8.98,0 -16.27,7.28 -16.27,16.27 0,8.98 7.28,16.27 16.27,16.27 8.98,0 16.27,-7.28 16.27,-16.27z"/>
   <path class="fil0 str2" d="M97.61 244.04c0,-8.98 -7.28,-16.27 -16.27,-16.27 -8.98,0 -16.27,7.28 -16.27,16.27 0,8.98 7.28,16.27 16.27,16.27 8.98,0 16.27,-7.28 16.27,-16.27z"/>
   <path class="fil0 str3" d="M129.42 235.56l-32.37 5.71m-31.41 5.54l-32.37 5.71"/>
   <path class="fil0 str3" d="M123.62 219.63l-28.47 16.43m-27.62 15.95l-28.47 16.44"/>
   <path class="fil0 str3" d="M112.72 206.65l-21.12 25.18m-20.5 24.43l-21.13 25.18"/>
   <path class="fil0 str3" d="M98.04 198.16l-11.24 30.89m-10.91 29.97l-11.24 30.89"/>
   <path class="fil0 str3" d="M81.35 195.23l0 32.86m0 31.89l0 32.86"/>
   <path class="fil0 str3" d="M64.65 198.16l11.24 30.89m10.91 29.97l11.24 30.89"/>
   <path class="fil0 str3" d="M49.97 206.65l21.12 25.18m20.5 24.43l21.12 25.18"/>
   <path class="fil0 str3" d="M39.07 219.63l28.46 16.43m27.62 15.95l28.47 16.44"/>
   <path class="fil0 str3" d="M129.42 252.51l-32.37 -5.71m-31.41 -5.54l-32.37 -5.71"/>
   <path class="fil0 str2" d="M260.31 244.04c0,-8.98 -7.28,-16.27 -16.27,-16.27 -8.98,0 -16.27,7.28 -16.27,16.27 0,8.98 7.28,16.27 16.27,16.27 8.98,0 16.27,-7.28 16.27,-16.27z"/>
   <polygon class="fil0" points="-0,0 325.38,0 325.38,325.38 -0,325.38 "/>
  </g>
 </g>
</svg>
