<?xml version="1.0" encoding="UTF-8"?>
<!DOCTYPE svg PUBLIC "-//W3C//DTD SVG 1.1//EN" "http://www.w3.org/Graphics/SVG/1.1/DTD/svg11.dtd">
<!-- Creator: CorelDRAW 2020 -->
<svg xmlns="http://www.w3.org/2000/svg" xml:space="preserve" width="16.8mm" height="16.8mm" version="1.1" style="shape-rendering:geometricPrecision; text-rendering:geometricPrecision; image-rendering:optimizeQuality; fill-rule:evenodd; clip-rule:evenodd"
viewBox="0 0 280.07 280.07"
 xmlns:xlink="http://www.w3.org/1999/xlink"
 xmlns:xodm="http://www.corel.com/coreldraw/odm/2003">
 <defs>
  <style type="text/css">
   <![CDATA[
    .str0 {stroke:#6B470F;stroke-width:12.5;stroke-miterlimit:22.9256}
    .str2 {stroke:#C6B93A;stroke-width:12.5;stroke-miterlimit:22.9256}
    .str1 {stroke:#6B470F;stroke-width:3.33;stroke-miterlimit:22.9256}
    .str3 {stroke:#C6B93A;stroke-width:3.33;stroke-miterlimit:22.9256}
    .fil0 {fill:none}
   ]]>
  </style>
 </defs>
 <g id="Layer_x0020_1">
  <metadata id="CorelCorpID_0Corel-Layer"/>
  <g id="_1056096064">
   <path class="fil0 str0" d="M85.77 70.02c0,-8.7 -7.06,-15.75 -15.75,-15.75 -8.7,0 -15.75,7.06 -15.75,15.75 0,8.7 7.06,15.75 15.75,15.75 8.7,0 15.75,-7.06 15.75,-15.75z"/>
   <path class="fil0 str1" d="M116.57 61.81l-31.35 5.53m-30.41 5.36l-31.34 5.53"/>
   <path class="fil0 str1" d="M110.96 46.38l-27.57 15.91m-26.74 15.44l-27.56 15.92"/>
   <path class="fil0 str1" d="M100.4 33.81l-20.45 24.38m-19.85 23.65l-20.45 24.38"/>
   <path class="fil0 str1" d="M86.19 25.59l-10.89 29.91m-10.56 29.02l-10.89 29.91"/>
   <path class="fil0 str1" d="M70.02 22.76l0 31.82m0 30.88l0 31.82"/>
   <path class="fil0 str1" d="M53.85 25.59l10.88 29.91m10.56 29.02l10.89 29.91"/>
   <path class="fil0 str1" d="M39.64 33.81l20.45 24.38m19.85 23.65l20.45 24.38"/>
   <path class="fil0 str1" d="M29.08 46.38l27.56 15.91m26.74 15.44l27.57 15.92"/>
   <path class="fil0 str1" d="M116.57 78.22l-31.35 -5.53m-30.41 -5.36l-31.34 -5.53"/>
   <path class="fil0 str0" d="M225.81 70.02c0,-8.7 -7.06,-15.75 -15.75,-15.75 -8.7,0 -15.75,7.06 -15.75,15.75 0,8.7 7.06,15.75 15.75,15.75 8.7,0 15.75,-7.06 15.75,-15.75z"/>
   <path class="fil0 str2" d="M85.77 210.05c0,-8.7 -7.06,-15.75 -15.75,-15.75 -8.7,0 -15.75,7.06 -15.75,15.75 0,8.7 7.06,15.75 15.75,15.75 8.7,0 15.75,-7.06 15.75,-15.75z"/>
   <path class="fil0 str3" d="M116.57 201.84l-31.35 5.53m-30.41 5.36l-31.34 5.53"/>
   <path class="fil0 str3" d="M110.96 186.42l-27.57 15.91m-26.74 15.44l-27.56 15.92"/>
   <path class="fil0 str3" d="M100.4 173.85l-20.45 24.38m-19.85 23.65l-20.45 24.38"/>
   <path class="fil0 str3" d="M86.19 165.63l-10.89 29.91m-10.56 29.02l-10.89 29.91"/>
   <path class="fil0 str3" d="M70.02 162.79l0 31.82m0 30.88l0 31.82"/>
   <path class="fil0 str3" d="M53.85 165.63l10.88 29.91m10.56 29.02l10.89 29.91"/>
   <path class="fil0 str3" d="M39.64 173.85l20.45 24.38m19.85 23.65l20.45 24.38"/>
   <path class="fil0 str3" d="M29.08 186.42l27.56 15.91m26.74 15.44l27.57 15.92"/>
   <path class="fil0 str3" d="M116.57 218.26l-31.35 -5.53m-30.41 -5.36l-31.34 -5.53"/>
   <path class="fil0 str2" d="M225.81 210.05c0,-8.7 -7.06,-15.75 -15.75,-15.75 -8.7,0 -15.75,7.06 -15.75,15.75 0,8.7 7.06,15.75 15.75,15.75 8.7,0 15.75,-7.06 15.75,-15.75z"/>
   <polygon class="fil0" points="-0,0 280.07,0 280.07,280.07 -0,280.07 "/>
  </g>
 </g>
</svg>
