<?xml version="1.0" encoding="UTF-8"?>
<!DOCTYPE svg PUBLIC "-//W3C//DTD SVG 1.1//EN" "http://www.w3.org/Graphics/SVG/1.1/DTD/svg11.dtd">
<!-- Creator: CorelDRAW 2020 -->
<svg xmlns="http://www.w3.org/2000/svg" xml:space="preserve" width="16.96mm" height="16.96mm" version="1.1" style="shape-rendering:geometricPrecision; text-rendering:geometricPrecision; image-rendering:optimizeQuality; fill-rule:evenodd; clip-rule:evenodd"
viewBox="0 0 285.88 285.88"
 xmlns:xlink="http://www.w3.org/1999/xlink"
 xmlns:xodm="http://www.corel.com/coreldraw/odm/2003">
 <defs>
  <style type="text/css">
   <![CDATA[
    .str0 {stroke:#B2AD81;stroke-width:12.64;stroke-miterlimit:22.9256}
    .str2 {stroke:#C6B93A;stroke-width:12.64;stroke-miterlimit:22.9256}
    .str1 {stroke:#B2AD81;stroke-width:3.37;stroke-miterlimit:22.9256}
    .str3 {stroke:#C6B93A;stroke-width:3.37;stroke-miterlimit:22.9256}
    .fil0 {fill:none}
   ]]>
  </style>
 </defs>
 <g id="Layer_x0020_1">
  <metadata id="CorelCorpID_0Corel-Layer"/>
  <g id="_1074194992">
   <path class="fil0 str0" d="M87.55 71.47c0,-8.88 -7.2,-16.08 -16.08,-16.08 -8.88,0 -16.08,7.2 -16.08,16.08 0,8.88 7.2,16.08 16.08,16.08 8.88,0 16.08,-7.2 16.08,-16.08z"/>
   <path class="fil0 str1" d="M118.99 63.09l-32 5.64m-31.04 5.47l-31.99 5.64"/>
   <path class="fil0 str1" d="M113.26 47.35l-28.14 16.24m-27.3 15.76l-28.14 16.24"/>
   <path class="fil0 str1" d="M102.48 34.51l-20.88 24.88m-20.26 24.14l-20.88 24.88"/>
   <path class="fil0 str1" d="M87.98 26.13l-11.11 30.53m-10.78 29.62l-11.11 30.53"/>
   <path class="fil0 str1" d="M71.47 23.23l0 32.48m0 31.52l0 32.48"/>
   <path class="fil0 str1" d="M54.97 26.13l11.11 30.53m10.78 29.62l11.11 30.53"/>
   <path class="fil0 str1" d="M40.46 34.51l20.88 24.88m20.26 24.15l20.88 24.88"/>
   <path class="fil0 str1" d="M29.69 47.35l28.14 16.24m27.3 15.76l28.14 16.24"/>
   <path class="fil0 str1" d="M118.99 79.85l-32 -5.64m-31.04 -5.47l-31.99 -5.64"/>
   <path class="fil0 str0" d="M230.49 71.47c0,-8.88 -7.2,-16.08 -16.08,-16.08 -8.88,0 -16.08,7.2 -16.08,16.08 0,8.88 7.2,16.08 16.08,16.08 8.88,0 16.08,-7.2 16.08,-16.08z"/>
   <path class="fil0 str2" d="M87.55 214.41c0,-8.88 -7.2,-16.08 -16.08,-16.08 -8.88,0 -16.08,7.2 -16.08,16.08 0,8.88 7.2,16.08 16.08,16.08 8.88,0 16.08,-7.2 16.08,-16.08z"/>
   <path class="fil0 str3" d="M118.99 206.03l-32 5.64m-31.04 5.47l-31.99 5.64"/>
   <path class="fil0 str3" d="M113.26 190.29l-28.14 16.24m-27.3 15.76l-28.14 16.24"/>
   <path class="fil0 str3" d="M102.48 177.46l-20.88 24.88m-20.26 24.14l-20.88 24.88"/>
   <path class="fil0 str3" d="M87.98 169.07l-11.11 30.53m-10.78 29.62l-11.11 30.53"/>
   <path class="fil0 str3" d="M71.47 166.17l0 32.48m0 31.52l0 32.48"/>
   <path class="fil0 str3" d="M54.97 169.07l11.11 30.53m10.78 29.62l11.11 30.53"/>
   <path class="fil0 str3" d="M40.46 177.46l20.88 24.88m20.26 24.15l20.88 24.88"/>
   <path class="fil0 str3" d="M29.69 190.29l28.14 16.24m27.3 15.76l28.14 16.24"/>
   <path class="fil0 str3" d="M118.99 222.79l-32 -5.64m-31.04 -5.47l-31.99 -5.64"/>
   <path class="fil0 str2" d="M230.49 214.41c0,-8.88 -7.2,-16.08 -16.08,-16.08 -8.88,0 -16.08,7.2 -16.08,16.08 0,8.88 7.2,16.08 16.08,16.08 8.88,0 16.08,-7.2 16.08,-16.08z"/>
  </g>
  <polygon class="fil0" points="-0,0 285.88,0 285.88,285.88 -0,285.88 "/>
 </g>
</svg>
