<?xml version="1.0" encoding="UTF-8"?>
<!DOCTYPE svg PUBLIC "-//W3C//DTD SVG 1.1//EN" "http://www.w3.org/Graphics/SVG/1.1/DTD/svg11.dtd">
<!-- Creator: CorelDRAW 2020 -->
<svg xmlns="http://www.w3.org/2000/svg" xml:space="preserve" width="17.16mm" height="17.16mm" version="1.1" style="shape-rendering:geometricPrecision; text-rendering:geometricPrecision; image-rendering:optimizeQuality; fill-rule:evenodd; clip-rule:evenodd"
viewBox="0 0 219.06 219.06"
 xmlns:xlink="http://www.w3.org/1999/xlink"
 xmlns:xodm="http://www.corel.com/coreldraw/odm/2003">
 <defs>
  <style type="text/css">
   <![CDATA[
    .str0 {stroke:#B2AD81;stroke-width:12.77;stroke-miterlimit:22.9256;stroke-opacity:0.811765}
    .str1 {stroke:#C6B93A;stroke-width:12.77;stroke-miterlimit:22.9256;stroke-opacity:0.811765}
    .str2 {stroke:#B2AD81;stroke-width:11.02;stroke-miterlimit:22.9256}
    .str3 {stroke:#C6B93A;stroke-width:11.02;stroke-miterlimit:22.9256}
    .fil1 {fill:none}
    .fil0 {fill:none}
   ]]>
  </style>
 </defs>
 <g id="Layer_x0020_1">
  <metadata id="CorelCorpID_0Corel-Layer"/>
  <g id="_1074805992">
   <path class="fil0 str0" d="M40.03 78.92c-3.11,-2.36 -2.36,-13.55 -2.36,-24.49 0,-10.94 -0.87,-21.75 2.36,-23.86 3.11,-2.24 10.32,4.1 17.53,9.57 7.21,5.47 14.42,10.07 14.42,14.67 0,4.6 -7.21,9.2 -14.42,14.67 -7.21,5.47 -14.42,11.81 -17.53,9.45z"/>
   <path class="fil0 str1" d="M40.03 188.45c-3.11,-2.36 -2.36,-13.55 -2.36,-24.49 0,-10.94 -0.87,-21.75 2.36,-23.86 3.11,-2.24 10.32,4.1 17.53,9.57 7.21,5.47 14.42,10.07 14.42,14.67 0,4.6 -7.21,9.2 -14.42,14.67 -7.21,5.47 -14.42,11.81 -17.53,9.45z"/>
   <g id="тоқтату.svg">
    <line class="fil1 str2" x1="172.53" y1="31.98" x2="172.53" y2= "80.94" />
    <line class="fil1 str2" x1="156.62" y1="31.98" x2="156.62" y2= "80.94" />
   </g>
   <g id="тоқтату.svg_0">
    <line class="fil1 str3" x1="172.6" y1="141.07" x2="172.6" y2= "190.03" />
    <line class="fil1 str3" x1="156.69" y1="141.07" x2="156.69" y2= "190.03" />
   </g>
   <polygon class="fil1" points="-0,0 219.06,0 219.06,219.06 -0,219.06 "/>
  </g>
 </g>
</svg>
