<?xml version="1.0" encoding="UTF-8"?>
<!DOCTYPE svg PUBLIC "-//W3C//DTD SVG 1.1//EN" "http://www.w3.org/Graphics/SVG/1.1/DTD/svg11.dtd">
<!-- Creator: CorelDRAW 2020 -->
<svg xmlns="http://www.w3.org/2000/svg" xml:space="preserve" width="18.68mm" height="18.68mm" version="1.1" style="shape-rendering:geometricPrecision; text-rendering:geometricPrecision; image-rendering:optimizeQuality; fill-rule:evenodd; clip-rule:evenodd"
viewBox="0 0 256.69 256.69"
 xmlns:xlink="http://www.w3.org/1999/xlink"
 xmlns:xodm="http://www.corel.com/coreldraw/odm/2003">
 <defs>
  <style type="text/css">
   <![CDATA[
    .str4 {stroke:#EF7F1A;stroke-width:2.75;stroke-miterlimit:22.9256;stroke-opacity:0.000000}
    .str0 {stroke:#6B470F;stroke-width:13.74;stroke-miterlimit:22.9256;stroke-opacity:0.811765}
    .str1 {stroke:#C6B93A;stroke-width:13.74;stroke-miterlimit:22.9256;stroke-opacity:0.811765}
    .str2 {stroke:#6B470F;stroke-width:11.86;stroke-miterlimit:22.9256}
    .str3 {stroke:#C6B93A;stroke-width:11.86;stroke-miterlimit:22.9256}
    .fil1 {fill:none}
    .fil0 {fill:none}
    .fil2 {fill:#EF7F1A;fill-opacity:0.000000}
   ]]>
  </style>
 </defs>
 <g id="Layer_x0020_1">
  <metadata id="CorelCorpID_0Corel-Layer"/>
  <g id="_1077766096">
   <path class="fil0 str0" d="M43.31 94.31c-3.6,-2.74 -2.74,-15.71 -2.74,-28.38 0,-12.68 -1.01,-25.21 2.74,-27.66 3.6,-2.59 11.96,4.75 20.32,11.09 8.36,6.34 16.71,11.67 16.71,17 0,5.33 -8.36,10.66 -16.71,17 -8.36,6.34 -16.71,13.69 -20.32,10.95z"/>
   <path class="fil0 str1" d="M43.31 224.49c-3.6,-2.74 -2.74,-15.71 -2.74,-28.38 0,-12.68 -1.01,-25.21 2.74,-27.66 3.6,-2.59 11.96,4.75 20.32,11.09 8.36,6.34 16.71,11.67 16.71,17 0,5.33 -8.36,10.66 -16.71,17 -8.36,6.34 -16.71,13.69 -20.32,10.95z"/>
   <g id="тоқтату.svg">
    <line class="fil1 str2" x1="191.09" y1="40.45" x2="191.09" y2= "92.17" />
    <line class="fil1 str2" x1="174.28" y1="40.45" x2="174.28" y2= "92.17" />
   </g>
   <g id="тоқтату.svg_0">
    <line class="fil1 str3" x1="191.09" y1="170.63" x2="191.09" y2= "222.35" />
    <line class="fil1 str3" x1="174.28" y1="170.63" x2="174.28" y2= "222.35" />
   </g>
   <polygon class="fil2 str4" points="1.37,1.37 255.32,1.37 255.32,255.32 1.37,255.32 "/>
  </g>
 </g>
</svg>
