<?xml version="1.0" encoding="UTF-8"?>
<!DOCTYPE svg PUBLIC "-//W3C//DTD SVG 1.1//EN" "http://www.w3.org/Graphics/SVG/1.1/DTD/svg11.dtd">
<!-- Creator: CorelDRAW 2020 -->
<svg xmlns="http://www.w3.org/2000/svg" xml:space="preserve" width="22mm" height="22mm" version="1.1" style="shape-rendering:geometricPrecision; text-rendering:geometricPrecision; image-rendering:optimizeQuality; fill-rule:evenodd; clip-rule:evenodd"
viewBox="0 0 347.55 347.55"
 xmlns:xlink="http://www.w3.org/1999/xlink"
 xmlns:xodm="http://www.corel.com/coreldraw/odm/2003">
 <defs>
  <style type="text/css">
   <![CDATA[
    .str0 {stroke:#6B470F;stroke-width:15.8;stroke-miterlimit:22.9256;stroke-opacity:0.811765}
    .str1 {stroke:#C6B93A;stroke-width:15.8;stroke-miterlimit:22.9256;stroke-opacity:0.811765}
    .str2 {stroke:#6B470F;stroke-width:13.63;stroke-miterlimit:22.9256}
    .str3 {stroke:#C6B93A;stroke-width:13.63;stroke-miterlimit:22.9256}
    .fil1 {fill:none}
    .fil0 {fill:none}
   ]]>
  </style>
 </defs>
 <g id="Layer_x0020_1">
  <metadata id="CorelCorpID_0Corel-Layer"/>
  <g id="_957179168">
   <path class="fil0 str0" d="M63.51 125.21c-4.93,-3.75 -3.75,-21.49 -3.75,-38.85 0,-17.35 -1.38,-34.51 3.75,-37.86 4.93,-3.55 16.37,6.51 27.8,15.18 11.44,8.68 22.88,15.97 22.88,23.27 0,7.3 -11.44,14.59 -22.88,23.27 -11.44,8.68 -22.88,18.73 -27.8,14.99z"/>
   <path class="fil0 str1" d="M63.51 298.98c-4.93,-3.75 -3.75,-21.49 -3.75,-38.85 0,-17.35 -1.38,-34.51 3.75,-37.86 4.93,-3.55 16.37,6.51 27.8,15.18 11.44,8.68 22.88,15.97 22.88,23.27 0,7.3 -11.44,14.59 -22.88,23.27 -11.44,8.68 -22.88,18.73 -27.8,14.99z"/>
   <g id="тоқтату.svg">
    <line class="fil1 str2" x1="272.61" y1="54.18" x2="272.61" y2= "124.97" />
    <line class="fil1 str2" x1="249.61" y1="54.18" x2="249.61" y2= "124.97" />
   </g>
   <g id="тоқтату.svg_0">
    <line class="fil1 str3" x1="272.72" y1="227.26" x2="272.72" y2= "298.05" />
    <line class="fil1 str3" x1="249.72" y1="227.26" x2="249.72" y2= "298.05" />
   </g>
   <polygon class="fil1" points="-0,0 347.55,0 347.55,347.55 -0,347.55 "/>
  </g>
 </g>
</svg>
