<?xml version="1.0" encoding="UTF-8"?>
<!DOCTYPE svg PUBLIC "-//W3C//DTD SVG 1.1//EN" "http://www.w3.org/Graphics/SVG/1.1/DTD/svg11.dtd">
<!-- Creator: CorelDRAW 2020 -->
<svg xmlns="http://www.w3.org/2000/svg" xml:space="preserve" width="16mm" height="36mm" version="1.1" style="shape-rendering:geometricPrecision; text-rendering:geometricPrecision; image-rendering:optimizeQuality; fill-rule:evenodd; clip-rule:evenodd"
viewBox="0 0 1025.57 2307.53"
 xmlns:xlink="http://www.w3.org/1999/xlink"
 xmlns:xodm="http://www.corel.com/coreldraw/odm/2003">
 <defs>
  <style type="text/css">
   <![CDATA[
    .str1 {stroke:#FFCC29;stroke-width:180.52;stroke-miterlimit:22.9256;stroke-opacity:0.811765}
    .str0 {stroke:#C6B93A;stroke-width:180.52;stroke-miterlimit:22.9256;stroke-opacity:0.811765}
    .fil1 {fill:none}
    .fil0 {fill:none}
   ]]>
  </style>
 </defs>
 <g id="Layer_x0020_1">
  <metadata id="CorelCorpID_0Corel-Layer"/>
  <path class="fil0 str0" d="M345.56 2004.69c-35.26,-26.79 -26.79,-153.73 -26.79,-277.83 0,-124.11 -9.87,-246.8 26.79,-270.78 35.26,-25.38 117.06,46.54 198.85,108.59 81.8,62.05 163.6,114.24 163.6,166.42 0,52.18 -81.8,104.36 -163.6,166.42 -81.8,62.05 -163.6,133.98 -198.85,107.18z"/>
  <polygon class="fil1" points="-0,1153.76 1025.57,1153.76 1025.57,2307.53 -0,2307.53 "/>
  <path class="fil0 str1" d="M345.56 850.93c-35.26,-26.79 -26.79,-153.73 -26.79,-277.83 0,-124.11 -9.87,-246.8 26.79,-270.78 35.26,-25.38 117.06,46.54 198.85,108.59 81.8,62.05 163.6,114.24 163.6,166.42 0,52.18 -81.8,104.36 -163.6,166.42 -81.8,62.05 -163.6,133.98 -198.85,107.18z"/>
  <polygon class="fil1" points="-0,0 1025.57,0 1025.57,1153.76 -0,1153.76 "/>
 </g>
</svg>
