<?xml version="1.0" encoding="UTF-8"?>
<!DOCTYPE svg PUBLIC "-//W3C//DTD SVG 1.1//EN" "http://www.w3.org/Graphics/SVG/1.1/DTD/svg11.dtd">
<!-- Creator: CorelDRAW 2020 -->
<svg xmlns="http://www.w3.org/2000/svg" xml:space="preserve" width="9.3471mm" height="3.2135mm" version="1.1" style="shape-rendering:geometricPrecision; text-rendering:geometricPrecision; image-rendering:optimizeQuality; fill-rule:evenodd; clip-rule:evenodd"
viewBox="0 0 380.92 130.96"
 xmlns:xlink="http://www.w3.org/1999/xlink"
 xmlns:xodm="http://www.corel.com/coreldraw/odm/2003">
 <defs>
  <style type="text/css">
   <![CDATA[
    .fil0 {fill:#6B470F;fill-rule:nonzero}
   ]]>
  </style>
 </defs>
 <g id="Layer_x0020_1">
  <metadata id="CorelCorpID_0Corel-Layer"/>
  <path class="fil0" d="M49.92 76.04c0,3.81 -3.37,8.42 -10.12,13.82 -6.76,5.38 -13.75,8.07 -20.93,8.07 -6.02,0 -10.68,-1.76 -13.96,-5.33 -3.28,-3.55 -4.91,-8.51 -4.91,-14.87 0,-10.71 3.6,-20.89 10.83,-30.55 7.23,-9.66 15.14,-14.49 23.71,-14.49 2.8,0 5.1,0.92 6.88,2.76 1.76,1.82 2.67,4.04 2.67,6.61 0,5.77 -2.84,11.29 -8.49,16.58 -5.66,5.27 -13.21,10.47 -22.68,15.55 -1.95,1.01 -2.91,2.32 -2.91,3.93 0,3.11 0.88,5.6 2.69,7.48 1.8,1.88 4.47,2.8 7.98,2.8 8.05,0 16.27,-4.45 24.65,-13.36 1.24,-1.23 2.18,-1.86 2.82,-1.86 1.19,0 1.78,0.96 1.78,2.87zm-39.03 -8.76c15.89,-9.43 23.83,-17.02 23.83,-22.76 0,-2.24 -1.02,-3.37 -3.05,-3.37 -3.43,0 -7.32,2.53 -11.66,7.59 -4.32,5.06 -7.36,11.24 -9.12,18.54zm89.02 -15.39c-1.96,0 -4.08,1.26 -6.38,3.81 -2.3,2.55 -5.81,8.26 -10.52,17.14 -6.21,11.9 -10.24,18.67 -12.04,20.32 -1.82,1.65 -3.34,2.47 -4.52,2.47 -4.43,0 -6.63,-2.13 -6.63,-6.4 0,-1.78 0.31,-4.33 0.9,-7.63 2.05,-11.31 3.09,-23.23 3.09,-35.77 0,-1.43 0.61,-3.01 1.82,-4.75 1.23,-1.74 2.38,-2.61 3.45,-2.61 1.96,0 3.33,0.59 4.16,1.8 0.82,1.19 1.24,3.61 1.24,7.25 0,3.78 -1.13,11.56 -3.37,23.35 -0.75,3.89 -1.13,6.37 -1.13,7.42 0,0.59 0.15,0.9 0.46,0.9 0.55,0 3.16,-4.49 7.8,-13.42 4.68,-9.1 8.78,-15.51 12.29,-19.21 3.53,-3.72 7.4,-5.56 11.64,-5.56 3.37,0 6.11,1.53 8.22,4.6 2.11,3.06 3.66,8.66 4.64,16.79 1.05,9.24 1.99,15.01 2.84,17.27 0.84,2.26 2.18,3.39 4.01,3.39 1.17,0 2.62,-0.4 4.39,-1.23 0.29,-0.15 0.52,-0.23 0.67,-0.23 1.61,0 2.41,0.94 2.41,2.8 0,1.65 -1.11,3.41 -3.31,5.25 -2.2,1.86 -4.87,2.78 -7.98,2.78 -3.18,0 -5.64,-1.27 -7.38,-3.78 -1.74,-2.53 -3.13,-9.28 -4.14,-20.26 -1.04,-11 -3.24,-16.5 -6.61,-16.5zm77.73 22.85c-0.44,-0.33 -1.71,0.73 -3.76,3.15 -3.41,4.01 -7.76,7.57 -13.05,10.68 -5.31,3.11 -10.22,4.66 -14.74,4.66 -3.37,0 -6.02,-1.06 -7.93,-3.16 -1.89,-2.13 -2.86,-5.04 -2.86,-8.8 0,-5.79 2.19,-12.27 6.58,-19.4 4.37,-7.13 10.5,-13.36 18.38,-18.67 7.88,-5.31 14.78,-7.98 20.7,-7.98 3.11,0 5.85,0.9 8.21,2.71 0.55,0.44 1.04,0.8 1.45,1.11 0.67,0.5 1.3,1.48 1.9,2.95 0.61,1.48 0.9,2.67 0.9,3.57 0,0.55 -0.21,1.42 -0.62,2.59 -2.28,6.21 -3.83,11.37 -4.66,15.43 -0.82,4.08 -1.72,10.97 -2.7,20.62 -0.9,8.68 -1.86,15.36 -2.91,20.05 -1.06,4.68 -2.93,9.2 -5.67,13.57 -2.74,4.39 -6.02,7.67 -9.83,9.87 -3.81,2.18 -7.74,3.28 -11.79,3.28 -7,0 -13.92,-2.41 -20.72,-7.25 -6.8,-4.83 -10.22,-8.7 -10.22,-11.61 0,-1.84 0.69,-2.76 2.07,-2.76 0.67,0 2.69,1.11 6.02,3.31 8.8,5.88 16.72,8.82 23.75,8.82 6.13,0 10.81,-3.28 14.01,-9.83 3.2,-6.56 5.38,-16.33 6.54,-29.37 0.26,-2.95 0.57,-5.46 0.96,-7.54zm-0.11 -30.82c-3.18,0 -7.15,1.65 -11.92,4.94 -4.77,3.3 -9.41,8.13 -13.92,14.49 -4.49,6.37 -6.73,11.7 -6.73,16.01 0,1.45 0.46,2.61 1.38,3.45 0.92,0.84 1.94,1.26 3.05,1.26 3.33,0 7.69,-1.72 13.05,-5.18 5.38,-3.43 10,-8.22 13.88,-14.34 3.87,-6.13 5.81,-10.93 5.81,-14.41 0,-4.16 -1.53,-6.23 -4.6,-6.23zm46.1 -43.91c2.7,0 4.04,1.72 4.04,5.18 0,3.06 -1.63,10.37 -4.89,21.89 -2.05,7.27 -3.64,15.28 -4.77,24.04 -1.13,8.76 -1.69,15.62 -1.69,20.6 0,6.17 0.4,12.33 1.19,18.42 0.15,1.17 0.21,2.01 0.21,2.53 0,1.88 -0.63,3.49 -1.9,4.83 -1.28,1.34 -2.62,2.01 -4.04,2.01 -1.99,0 -3.35,-1.23 -4.12,-3.7 -0.77,-2.47 -1.15,-6.46 -1.15,-11.96 0,-12.54 1.5,-28.08 4.51,-46.62 3.03,-18.51 5.42,-29.37 7.19,-32.51 1.78,-3.14 3.58,-4.72 5.42,-4.72zm31.34 19.88c-0.79,0 -1.38,-0.84 -1.8,-2.53 -0.15,-0.52 -0.35,-1.09 -0.62,-1.74 -1.01,-2.42 -1.51,-4.54 -1.51,-6.35 0,-1.5 0.88,-3.01 2.67,-4.56 1.78,-1.55 3.75,-2.34 5.92,-2.34 1.09,0 2.3,0.42 3.66,1.27 1.34,0.84 2.01,1.65 2.01,2.43 0,1.25 -0.46,3.34 -1.38,6.31 -0.92,2.95 -2.38,4.94 -4.37,5.98 -2.01,1.02 -3.53,1.54 -4.58,1.54zm-7.36 62.74c0,2.84 0.4,6.04 1.19,9.6 0.15,0.67 0.21,1.23 0.21,1.67 0,0.69 -0.61,1.55 -1.84,2.63 -1.25,1.05 -2.55,1.59 -3.93,1.59 -3.64,0 -5.44,-3.33 -5.44,-9.98 0,-6.9 1.42,-17.79 4.25,-32.68 0.98,-5.22 1.45,-8.42 1.45,-9.61 0,-2.36 0.44,-4.37 1.3,-6.04 0.86,-1.67 2.07,-2.51 3.64,-2.51 1.92,0 3.41,0.46 4.52,1.38 1.11,0.92 1.65,1.94 1.65,3.07 0,1.11 -0.25,2.6 -0.79,4.43 -2.8,9.89 -4.54,16.97 -5.21,21.24 -0.67,4.25 -1.01,9.34 -1.01,15.22zm50.76 -0.4c0,-2.44 -2.99,-5.2 -8.97,-8.3 -7.61,-3.91 -12.75,-7.01 -15.43,-9.35 -2.67,-2.34 -4.01,-4.96 -4.01,-7.84 0,-7.46 3.74,-13.63 11.19,-18.53 7.47,-4.91 13.57,-7.36 18.29,-7.36 3.03,0 5.23,0.54 6.59,1.57 1.36,1.06 2.05,2.88 2.05,5.46 0,1.15 -0.5,2.14 -1.5,2.97 -0.98,0.82 -1.76,1.23 -2.32,1.23 -0.42,0 -1.23,-0.27 -2.42,-0.84 -1.21,-0.52 -1.99,-0.79 -2.36,-0.79 -1.88,0 -5.67,1.38 -11.4,4.1 -5.73,2.74 -8.59,5.83 -8.59,9.28 0,2.09 1.01,3.99 3.03,5.69 2.03,1.71 5.65,3.79 10.88,6.27 4.24,2.01 7.61,4.18 10.14,6.48 2.53,2.3 3.79,5 3.79,8.11 0,5.73 -3.95,10.22 -11.85,13.46 -7.9,3.24 -15.45,4.85 -22.64,4.87 -6.06,-0.02 -9.08,-2.07 -9.08,-6.19 0,-1.42 0.67,-2.47 2.05,-3.14 1.36,-0.67 2.74,-1.02 4.12,-1.02 0.56,0 1.63,0.19 3.2,0.57 1.53,0.37 2.55,0.56 3.03,0.56 4.16,0 8.61,-0.69 13.36,-2.07 4.76,-1.4 7.71,-3.13 8.82,-5.18zm29.77 -3.99c13.94,-25.72 25.4,-38.58 34.43,-38.58 2.4,0 4.35,1.38 5.85,4.1 1.49,2.74 2.7,8.8 3.64,18.19 0.94,10.01 3.05,17.23 6.35,21.68 1.69,2.28 2.53,3.97 2.53,5.06 0,0.98 -0.55,1.88 -1.69,2.7 -1.11,0.82 -2.32,1.23 -3.58,1.23 -2.93,0 -5.5,-1.63 -7.76,-4.91 -2.25,-3.28 -3.68,-9.03 -4.32,-17.27 -0.63,-7.78 -1.32,-12.88 -2.03,-15.28 -0.71,-2.4 -1.88,-3.6 -3.53,-3.6 -3.93,0 -11.85,10.29 -23.75,30.84 -3.57,6.13 -6.19,10.16 -7.88,12.04 -1.69,1.9 -3.22,2.84 -4.6,2.84 -1.65,0 -3.03,-0.48 -4.16,-1.45 -1.11,-0.98 -1.69,-2.17 -1.69,-3.59 0,-1.06 0.31,-3.08 0.9,-6.08 4.62,-23.77 8.24,-47.29 10.91,-70.54 0.59,-5.43 1.55,-9.03 2.89,-10.83 1.32,-1.8 2.44,-2.7 3.34,-2.7 1.61,0 3.06,0.67 4.37,1.97 1.32,1.3 1.98,3.13 1.98,5.44 0,6.9 -1.69,16.35 -5.06,28.37 -1.65,5.94 -3.39,13.51 -5.21,22.67 -1.84,9.18 -2.76,14.85 -2.76,17.02 0,0.44 0.21,0.67 0.62,0.67l0.23 0z"/>
 </g>
</svg>
