<?xml version="1.0" encoding="UTF-8"?>
<!DOCTYPE svg PUBLIC "-//W3C//DTD SVG 1.1//EN" "http://www.w3.org/Graphics/SVG/1.1/DTD/svg11.dtd">
<!-- Creator: CorelDRAW 2020 -->
<svg xmlns="http://www.w3.org/2000/svg" xml:space="preserve" width="9.4mm" height="3.7583mm" version="1.1" style="shape-rendering:geometricPrecision; text-rendering:geometricPrecision; image-rendering:optimizeQuality; fill-rule:evenodd; clip-rule:evenodd"
viewBox="0 0 384.35 153.67"
 xmlns:xlink="http://www.w3.org/1999/xlink"
 xmlns:xodm="http://www.corel.com/coreldraw/odm/2003">
 <defs>
  <style type="text/css">
   <![CDATA[
    .str0 {stroke:#C6B93A;stroke-width:7.21;stroke-miterlimit:22.9256}
    .fil1 {fill:none}
    .fil0 {fill:#C6B93A;fill-rule:nonzero}
   ]]>
  </style>
 </defs>
 <g id="Layer_x0020_1">
  <metadata id="CorelCorpID_0Corel-Layer"/>
  <g id="_1037789928">
   <path class="fil0" d="M51.16 76.29c0,3.83 -3.39,8.44 -10.16,13.87 -6.79,5.4 -13.79,8.1 -21,8.1 -6.04,0 -10.71,-1.77 -14,-5.35 -3.29,-3.56 -4.92,-8.54 -4.92,-14.92 0,-10.75 3.61,-20.96 10.87,-30.65 7.25,-9.69 15.19,-14.54 23.79,-14.54 2.81,0 5.12,0.92 6.91,2.77 1.77,1.83 2.67,4.06 2.67,6.64 0,5.79 -2.85,11.33 -8.52,16.63 -5.68,5.29 -13.25,10.5 -22.75,15.6 -1.96,1.02 -2.92,2.33 -2.92,3.94 0,3.12 0.89,5.62 2.69,7.5 1.81,1.88 4.48,2.8 8,2.8 8.08,0 16.33,-4.46 24.73,-13.4 1.25,-1.23 2.19,-1.86 2.83,-1.86 1.19,0 1.79,0.96 1.79,2.88zm-39.16 -8.79c15.94,-9.47 23.91,-17.08 23.91,-22.83 0,-2.25 -1.02,-3.38 -3.06,-3.38 -3.44,0 -7.35,2.54 -11.69,7.61 -4.33,5.08 -7.38,11.27 -9.15,18.6zm89.31 -15.44c-1.96,0 -4.1,1.27 -6.4,3.83 -2.31,2.56 -5.83,8.29 -10.56,17.19 -6.23,11.94 -10.27,18.73 -12.08,20.39 -1.83,1.65 -3.35,2.48 -4.54,2.48 -4.44,0 -6.66,-2.13 -6.66,-6.42 0,-1.79 0.31,-4.35 0.9,-7.65 2.06,-11.35 3.1,-23.31 3.1,-35.89 0,-1.44 0.61,-3.02 1.82,-4.77 1.23,-1.75 2.39,-2.62 3.46,-2.62 1.96,0 3.34,0.6 4.17,1.81 0.83,1.19 1.25,3.62 1.25,7.27 0,3.79 -1.13,11.6 -3.38,23.43 -0.75,3.9 -1.14,6.39 -1.14,7.45 0,0.59 0.16,0.9 0.46,0.9 0.56,0 3.17,-4.5 7.83,-13.46 4.69,-9.13 8.81,-15.56 12.33,-19.27 3.54,-3.73 7.43,-5.58 11.68,-5.58 3.38,0 6.13,1.54 8.25,4.62 2.12,3.07 3.68,8.69 4.66,16.85 1.05,9.27 2,15.06 2.85,17.33 0.85,2.27 2.19,3.41 4.02,3.41 1.17,0 2.63,-0.4 4.4,-1.23 0.29,-0.16 0.52,-0.23 0.67,-0.23 1.62,0 2.42,0.94 2.42,2.81 0,1.66 -1.11,3.42 -3.32,5.27 -2.21,1.86 -4.89,2.79 -8,2.79 -3.19,0 -5.65,-1.27 -7.4,-3.79 -1.75,-2.54 -3.14,-9.31 -4.15,-20.33 -1.04,-11.04 -3.25,-16.56 -6.64,-16.56zm77.99 22.92c-0.44,-0.33 -1.71,0.73 -3.77,3.16 -3.42,4.02 -7.79,7.6 -13.1,10.71 -5.33,3.12 -10.25,4.67 -14.79,4.67 -3.38,0 -6.04,-1.06 -7.96,-3.17 -1.9,-2.13 -2.87,-5.06 -2.87,-8.83 0,-5.81 2.2,-12.31 6.6,-19.46 4.38,-7.16 10.54,-13.41 18.44,-18.74 7.91,-5.33 14.83,-8 20.77,-8 3.12,0 5.87,0.91 8.23,2.72 0.56,0.44 1.04,0.81 1.46,1.11 0.67,0.5 1.31,1.48 1.91,2.96 0.61,1.48 0.9,2.67 0.9,3.58 0,0.56 -0.21,1.42 -0.62,2.6 -2.29,6.23 -3.84,11.4 -4.67,15.48 -0.83,4.1 -1.73,11 -2.71,20.69 -0.9,8.71 -1.86,15.41 -2.92,20.12 -1.06,4.69 -2.94,9.23 -5.69,13.62 -2.75,4.4 -6.04,7.69 -9.87,9.9 -3.83,2.19 -7.77,3.29 -11.83,3.29 -7.02,0 -13.96,-2.42 -20.79,-7.27 -6.82,-4.85 -10.25,-8.73 -10.25,-11.65 0,-1.85 0.7,-2.77 2.08,-2.77 0.67,0 2.69,1.11 6.04,3.32 8.83,5.9 16.77,8.85 23.83,8.85 6.15,0 10.85,-3.29 14.06,-9.87 3.21,-6.58 5.4,-16.39 6.56,-29.46 0.27,-2.96 0.58,-5.48 0.96,-7.56zm-0.11 -30.92c-3.19,0 -7.18,1.65 -11.96,4.96 -4.79,3.31 -9.45,8.16 -13.96,14.54 -4.5,6.39 -6.75,11.74 -6.75,16.06 0,1.46 0.46,2.62 1.39,3.46 0.92,0.85 1.94,1.27 3.06,1.27 3.34,0 7.71,-1.73 13.1,-5.19 5.4,-3.44 10.04,-8.25 13.92,-14.38 3.88,-6.15 5.83,-10.96 5.83,-14.46 0,-4.17 -1.54,-6.25 -4.61,-6.25zm46.25 -44.06c2.71,0 4.06,1.73 4.06,5.19 0,3.07 -1.64,10.4 -4.9,21.96 -2.06,7.29 -3.66,15.33 -4.79,24.12 -1.14,8.79 -1.69,15.67 -1.69,20.67 0,6.19 0.4,12.37 1.19,18.48 0.16,1.17 0.21,2.02 0.21,2.54 0,1.88 -0.63,3.5 -1.91,4.85 -1.29,1.35 -2.63,2.02 -4.06,2.02 -2,0 -3.37,-1.23 -4.13,-3.71 -0.77,-2.48 -1.16,-6.48 -1.16,-12 0,-12.58 1.5,-28.18 4.52,-46.78 3.04,-18.58 5.44,-29.46 7.21,-32.62 1.79,-3.15 3.59,-4.73 5.44,-4.73zm31.44 19.95c-0.79,0 -1.39,-0.85 -1.81,-2.54 -0.16,-0.52 -0.35,-1.1 -0.62,-1.75 -1.02,-2.42 -1.52,-4.56 -1.52,-6.37 0,-1.5 0.88,-3.02 2.67,-4.58 1.79,-1.56 3.77,-2.35 5.94,-2.35 1.1,0 2.31,0.43 3.67,1.27 1.35,0.85 2.02,1.65 2.02,2.44 0,1.25 -0.46,3.35 -1.38,6.33 -0.92,2.96 -2.39,4.96 -4.39,6 -2.02,1.02 -3.54,1.54 -4.6,1.54zm-7.38 62.95c0,2.85 0.4,6.06 1.19,9.63 0.16,0.67 0.21,1.23 0.21,1.67 0,0.7 -0.61,1.56 -1.84,2.64 -1.25,1.05 -2.56,1.59 -3.95,1.59 -3.65,0 -5.46,-3.34 -5.46,-10.02 0,-6.93 1.42,-17.85 4.27,-32.79 0.98,-5.23 1.46,-8.44 1.46,-9.64 0,-2.36 0.44,-4.38 1.31,-6.06 0.87,-1.68 2.08,-2.52 3.66,-2.52 1.92,0 3.42,0.46 4.54,1.39 1.12,0.92 1.65,1.94 1.65,3.08 0,1.12 -0.25,2.61 -0.79,4.44 -2.8,9.92 -4.56,17.02 -5.23,21.31 -0.67,4.27 -1.02,9.37 -1.02,15.27zm50.93 -0.4c0,-2.45 -3,-5.21 -9,-8.33 -7.64,-3.92 -12.79,-7.04 -15.48,-9.38 -2.67,-2.35 -4.02,-4.98 -4.02,-7.87 0,-7.48 3.75,-13.67 11.23,-18.6 7.5,-4.93 13.62,-7.39 18.35,-7.39 3.04,0 5.25,0.54 6.62,1.58 1.37,1.06 2.06,2.89 2.06,5.48 0,1.15 -0.5,2.15 -1.5,2.98 -0.98,0.83 -1.77,1.23 -2.33,1.23 -0.43,0 -1.23,-0.27 -2.42,-0.85 -1.21,-0.52 -2,-0.79 -2.37,-0.79 -1.88,0 -5.69,1.39 -11.44,4.11 -5.75,2.75 -8.62,5.85 -8.62,9.31 0,2.1 1.02,4 3.04,5.71 2.04,1.71 5.67,3.81 10.92,6.29 4.25,2.02 7.64,4.19 10.18,6.5 2.54,2.31 3.81,5.02 3.81,8.14 0,5.75 -3.96,10.25 -11.89,13.5 -7.92,3.25 -15.5,4.87 -22.71,4.88 -6.08,-0.02 -9.11,-2.08 -9.11,-6.21 0,-1.42 0.67,-2.48 2.06,-3.15 1.37,-0.67 2.75,-1.02 4.13,-1.02 0.56,0 1.64,0.19 3.21,0.58 1.54,0.37 2.56,0.56 3.04,0.56 4.17,0 8.64,-0.7 13.4,-2.08 4.77,-1.41 7.73,-3.14 8.85,-5.19zm29.87 -4c13.98,-25.81 25.49,-38.71 34.54,-38.71 2.4,0 4.37,1.39 5.87,4.12 1.5,2.75 2.71,8.83 3.65,18.25 0.94,10.04 3.06,17.29 6.37,21.75 1.69,2.29 2.54,3.98 2.54,5.08 0,0.98 -0.56,1.88 -1.69,2.71 -1.12,0.83 -2.33,1.23 -3.59,1.23 -2.94,0 -5.52,-1.64 -7.79,-4.92 -2.25,-3.29 -3.7,-9.06 -4.33,-17.33 -0.63,-7.81 -1.32,-12.92 -2.04,-15.33 -0.71,-2.4 -1.88,-3.61 -3.54,-3.61 -3.94,0 -11.89,10.33 -23.83,30.94 -3.58,6.15 -6.21,10.19 -7.9,12.08 -1.69,1.91 -3.23,2.85 -4.62,2.85 -1.65,0 -3.04,-0.48 -4.17,-1.46 -1.12,-0.98 -1.69,-2.18 -1.69,-3.6 0,-1.06 0.31,-3.1 0.9,-6.1 4.63,-23.85 8.27,-47.45 10.94,-70.77 0.6,-5.45 1.56,-9.06 2.9,-10.87 1.33,-1.81 2.45,-2.71 3.35,-2.71 1.62,0 3.07,0.67 4.38,1.98 1.33,1.31 1.98,3.14 1.98,5.46 0,6.92 -1.69,16.4 -5.08,28.47 -1.66,5.96 -3.41,13.56 -5.23,22.75 -1.85,9.21 -2.77,14.9 -2.77,17.08 0,0.44 0.21,0.67 0.62,0.67l0.23 0z"/>
   <line class="fil1 str0" x1="-0" y1="150.07" x2="384.35" y2= "150.07" />
  </g>
 </g>
</svg>
