<?xml version="1.0" encoding="UTF-8"?>
<!DOCTYPE svg PUBLIC "-//W3C//DTD SVG 1.1//EN" "http://www.w3.org/Graphics/SVG/1.1/DTD/svg11.dtd">
<!-- Creator: CorelDRAW 2020 -->
<svg xmlns="http://www.w3.org/2000/svg" xml:space="preserve" width="8.4mm" height="3.8mm" version="1.1" style="shape-rendering:geometricPrecision; text-rendering:geometricPrecision; image-rendering:optimizeQuality; fill-rule:evenodd; clip-rule:evenodd"
viewBox="0 0 29.41 13.3"
 xmlns:xlink="http://www.w3.org/1999/xlink"
 xmlns:xodm="http://www.corel.com/coreldraw/odm/2003">
 <defs>
  <style type="text/css">
   <![CDATA[
    .fil1 {fill:none}
    .fil0 {fill:#6B470F;fill-rule:nonzero}
   ]]>
  </style>
 </defs>
 <g id="Layer_x0020_1">
  <metadata id="CorelCorpID_0Corel-Layer"/>
  <g id="_1044858432">
   <path class="fil0" d="M5.05 7.38c0,0.26 -0.23,0.58 -0.7,0.95 -0.46,0.37 -0.95,0.55 -1.44,0.55 -0.41,0 -0.73,-0.12 -0.96,-0.37 -0.23,-0.24 -0.34,-0.59 -0.34,-1.02 0,-0.74 0.25,-1.44 0.74,-2.1 0.5,-0.66 1.04,-1 1.63,-1 0.19,0 0.35,0.06 0.47,0.19 0.12,0.13 0.18,0.28 0.18,0.45 0,0.4 -0.2,0.78 -0.58,1.14 -0.39,0.36 -0.91,0.72 -1.56,1.07 -0.13,0.07 -0.2,0.16 -0.2,0.27 0,0.21 0.06,0.38 0.18,0.51 0.12,0.13 0.31,0.19 0.55,0.19 0.55,0 1.12,-0.31 1.69,-0.92 0.09,-0.08 0.15,-0.13 0.19,-0.13 0.08,0 0.12,0.07 0.12,0.2l0 0zm-2.68 -0.6c1.09,-0.65 1.64,-1.17 1.64,-1.56 0,-0.15 -0.07,-0.23 -0.21,-0.23 -0.24,0 -0.5,0.17 -0.8,0.52 -0.3,0.35 -0.51,0.77 -0.63,1.27l-0 0zm6.12 -1.06c-0.13,0 -0.28,0.09 -0.44,0.26 -0.16,0.18 -0.4,0.57 -0.72,1.18 -0.43,0.82 -0.7,1.28 -0.83,1.4 -0.13,0.11 -0.23,0.17 -0.31,0.17 -0.3,0 -0.46,-0.15 -0.46,-0.44 0,-0.12 0.02,-0.3 0.06,-0.52 0.14,-0.78 0.21,-1.6 0.21,-2.46 0,-0.1 0.04,-0.21 0.12,-0.33 0.08,-0.12 0.16,-0.18 0.24,-0.18 0.13,0 0.23,0.04 0.29,0.12 0.06,0.08 0.09,0.25 0.09,0.5 0,0.26 -0.08,0.79 -0.23,1.61 -0.05,0.27 -0.08,0.44 -0.08,0.51 0,0.04 0.01,0.06 0.03,0.06 0.04,0 0.22,-0.31 0.54,-0.92 0.32,-0.63 0.6,-1.07 0.84,-1.32 0.24,-0.25 0.51,-0.38 0.8,-0.38 0.23,0 0.42,0.11 0.56,0.32 0.14,0.21 0.25,0.6 0.32,1.15 0.07,0.64 0.14,1.03 0.2,1.19 0.06,0.16 0.15,0.23 0.28,0.23 0.08,0 0.18,-0.03 0.3,-0.08 0.02,-0.01 0.04,-0.02 0.05,-0.02 0.11,0 0.17,0.06 0.17,0.19 0,0.11 -0.08,0.23 -0.23,0.36 -0.15,0.13 -0.33,0.19 -0.55,0.19 -0.22,0 -0.39,-0.09 -0.51,-0.26 -0.12,-0.17 -0.21,-0.64 -0.28,-1.39 -0.07,-0.76 -0.22,-1.13 -0.45,-1.13l-0 -0zm5.34 1.57c-0.03,-0.02 -0.12,0.05 -0.26,0.22 -0.23,0.28 -0.53,0.52 -0.9,0.73 -0.36,0.21 -0.7,0.32 -1.01,0.32 -0.23,0 -0.41,-0.07 -0.55,-0.22 -0.13,-0.15 -0.2,-0.35 -0.2,-0.6 0,-0.4 0.15,-0.84 0.45,-1.33 0.3,-0.49 0.72,-0.92 1.26,-1.28 0.54,-0.36 1.02,-0.55 1.42,-0.55 0.21,0 0.4,0.06 0.56,0.19 0.04,0.03 0.07,0.05 0.1,0.08 0.05,0.03 0.09,0.1 0.13,0.2 0.04,0.1 0.06,0.18 0.06,0.25 0,0.04 -0.01,0.1 -0.04,0.18 -0.16,0.43 -0.26,0.78 -0.32,1.06 -0.06,0.28 -0.12,0.75 -0.19,1.42 -0.06,0.6 -0.13,1.05 -0.2,1.38 -0.07,0.32 -0.2,0.63 -0.39,0.93 -0.19,0.3 -0.41,0.53 -0.68,0.68 -0.26,0.15 -0.53,0.23 -0.81,0.23 -0.48,0 -0.96,-0.17 -1.42,-0.5 -0.47,-0.33 -0.7,-0.6 -0.7,-0.8 0,-0.13 0.05,-0.19 0.14,-0.19 0.05,0 0.18,0.08 0.41,0.23 0.6,0.4 1.15,0.61 1.63,0.61 0.42,0 0.74,-0.23 0.96,-0.68 0.22,-0.45 0.37,-1.12 0.45,-2.02 0.02,-0.2 0.04,-0.38 0.07,-0.52l-0 -0zm-0.01 -2.12c-0.22,0 -0.49,0.11 -0.82,0.34 -0.33,0.23 -0.65,0.56 -0.96,1 -0.31,0.44 -0.46,0.8 -0.46,1.1 0,0.1 0.03,0.18 0.1,0.24 0.06,0.06 0.13,0.09 0.21,0.09 0.23,0 0.53,-0.12 0.9,-0.36 0.37,-0.24 0.69,-0.56 0.95,-0.99 0.27,-0.42 0.4,-0.75 0.4,-0.99 0,-0.29 -0.11,-0.43 -0.32,-0.43zm3.17 -3.02c0.19,0 0.28,0.12 0.28,0.36 0,0.21 -0.11,0.71 -0.34,1.5 -0.14,0.5 -0.25,1.05 -0.33,1.65 -0.08,0.6 -0.12,1.07 -0.12,1.42 0,0.42 0.03,0.85 0.08,1.27 0.01,0.08 0.01,0.14 0.01,0.17 0,0.13 -0.04,0.24 -0.13,0.33 -0.09,0.09 -0.18,0.14 -0.28,0.14 -0.14,0 -0.23,-0.08 -0.28,-0.25 -0.05,-0.17 -0.08,-0.44 -0.08,-0.82 0,-0.86 0.1,-1.93 0.31,-3.2 0.21,-1.27 0.37,-2.02 0.49,-2.23 0.12,-0.22 0.25,-0.32 0.37,-0.32l0 0zm2.15 1.37c-0.05,0 -0.1,-0.06 -0.12,-0.17 -0.01,-0.04 -0.02,-0.07 -0.04,-0.12 -0.07,-0.17 -0.1,-0.31 -0.1,-0.44 0,-0.1 0.06,-0.21 0.18,-0.31 0.12,-0.11 0.26,-0.16 0.41,-0.16 0.08,0 0.16,0.03 0.25,0.09 0.09,0.06 0.14,0.11 0.14,0.17 0,0.09 -0.03,0.23 -0.09,0.43 -0.06,0.2 -0.16,0.34 -0.3,0.41 -0.14,0.07 -0.24,0.11 -0.31,0.11l0 -0zm-0.51 4.31c0,0.2 0.03,0.41 0.08,0.66 0.01,0.05 0.01,0.08 0.01,0.11 0,0.05 -0.04,0.11 -0.13,0.18 -0.09,0.07 -0.18,0.11 -0.27,0.11 -0.25,0 -0.37,-0.23 -0.37,-0.69 0,-0.47 0.1,-1.22 0.29,-2.25 0.07,-0.36 0.1,-0.58 0.1,-0.66 0,-0.16 0.03,-0.3 0.09,-0.41 0.06,-0.11 0.14,-0.17 0.25,-0.17 0.13,0 0.23,0.03 0.31,0.1 0.08,0.06 0.11,0.13 0.11,0.21 0,0.08 -0.02,0.18 -0.05,0.3 -0.19,0.68 -0.31,1.17 -0.36,1.46 -0.05,0.29 -0.07,0.64 -0.07,1.05l0 -0zm3.49 -0.03c0,-0.17 -0.21,-0.36 -0.62,-0.57 -0.52,-0.27 -0.88,-0.48 -1.06,-0.64 -0.18,-0.16 -0.28,-0.34 -0.28,-0.54 0,-0.51 0.26,-0.94 0.77,-1.27 0.51,-0.34 0.93,-0.51 1.26,-0.51 0.21,0 0.36,0.04 0.45,0.11 0.09,0.07 0.14,0.2 0.14,0.38 0,0.08 -0.03,0.15 -0.1,0.2 -0.07,0.06 -0.12,0.08 -0.16,0.08 -0.03,0 -0.08,-0.02 -0.17,-0.06 -0.08,-0.04 -0.14,-0.05 -0.16,-0.05 -0.13,0 -0.39,0.1 -0.78,0.28 -0.39,0.19 -0.59,0.4 -0.59,0.64 0,0.14 0.07,0.27 0.21,0.39 0.14,0.12 0.39,0.26 0.75,0.43 0.29,0.14 0.52,0.29 0.7,0.44 0.17,0.16 0.26,0.34 0.26,0.56 0,0.39 -0.27,0.7 -0.81,0.92 -0.54,0.22 -1.06,0.33 -1.56,0.33 -0.42,-0 -0.62,-0.14 -0.62,-0.43 0,-0.1 0.05,-0.17 0.14,-0.22 0.09,-0.05 0.19,-0.07 0.28,-0.07 0.04,0 0.11,0.01 0.22,0.04 0.11,0.03 0.18,0.04 0.21,0.04 0.29,0 0.59,-0.05 0.92,-0.14 0.33,-0.1 0.53,-0.21 0.61,-0.36l0 -0zm2.05 -0.27c0.96,-1.77 1.75,-2.65 2.37,-2.65 0.16,0 0.3,0.1 0.4,0.28 0.1,0.19 0.19,0.6 0.25,1.25 0.06,0.69 0.21,1.18 0.44,1.49 0.12,0.16 0.17,0.27 0.17,0.35 0,0.07 -0.04,0.13 -0.12,0.19 -0.08,0.06 -0.16,0.08 -0.25,0.08 -0.2,0 -0.38,-0.11 -0.53,-0.34 -0.15,-0.23 -0.25,-0.62 -0.3,-1.19 -0.04,-0.54 -0.09,-0.89 -0.14,-1.05 -0.05,-0.16 -0.13,-0.25 -0.24,-0.25 -0.27,0 -0.81,0.71 -1.63,2.12 -0.25,0.42 -0.43,0.7 -0.54,0.83 -0.12,0.13 -0.22,0.2 -0.32,0.2 -0.11,0 -0.21,-0.03 -0.29,-0.1 -0.08,-0.07 -0.12,-0.15 -0.12,-0.25 0,-0.07 0.02,-0.21 0.06,-0.42 0.32,-1.63 0.57,-3.25 0.75,-4.85 0.04,-0.37 0.11,-0.62 0.2,-0.74 0.09,-0.12 0.17,-0.19 0.23,-0.19 0.11,0 0.21,0.05 0.3,0.14 0.09,0.09 0.14,0.21 0.14,0.37 0,0.47 -0.12,1.12 -0.35,1.95 -0.11,0.41 -0.23,0.93 -0.36,1.56 -0.13,0.63 -0.19,1.02 -0.19,1.17 0,0.03 0.01,0.05 0.04,0.05l0.02 0 0 0z"/>
  </g>
  <polygon class="fil1" points="-0,0 29.41,0 29.41,13.3 -0,13.3 "/>
 </g>
</svg>
