<?xml version="1.0" encoding="UTF-8"?>
<!DOCTYPE svg PUBLIC "-//W3C//DTD SVG 1.1//EN" "http://www.w3.org/Graphics/SVG/1.1/DTD/svg11.dtd">
<!-- Creator: CorelDRAW 2020 -->
<svg xmlns="http://www.w3.org/2000/svg" xml:space="preserve" width="7.4776mm" height="2.5707mm" version="1.1" style="shape-rendering:geometricPrecision; text-rendering:geometricPrecision; image-rendering:optimizeQuality; fill-rule:evenodd; clip-rule:evenodd"
viewBox="0 0 370.66 127.43"
 xmlns:xlink="http://www.w3.org/1999/xlink"
 xmlns:xodm="http://www.corel.com/coreldraw/odm/2003">
 <defs>
  <style type="text/css">
   <![CDATA[
    .fil0 {fill:#6B470F;fill-rule:nonzero}
   ]]>
  </style>
 </defs>
 <g id="Layer_x0020_1">
  <metadata id="CorelCorpID_0Corel-Layer"/>
  <g id="_82347088">
   <path class="fil0" d="M48.57 73.99c0,3.71 -3.29,8.19 -9.85,13.45 -6.58,5.24 -13.38,7.85 -20.37,7.85 -5.86,0 -10.39,-1.72 -13.58,-5.18 -3.19,-3.45 -4.77,-8.28 -4.77,-14.47 0,-10.42 3.5,-20.33 10.54,-29.73 7.03,-9.4 14.74,-14.1 23.07,-14.1 2.73,0 4.96,0.89 6.7,2.68 1.72,1.77 2.59,3.94 2.59,6.43 0,5.61 -2.77,10.98 -8.26,16.13 -5.51,5.13 -12.85,10.19 -22.07,15.13 -1.9,0.99 -2.84,2.26 -2.84,3.82 0,3.02 0.86,5.45 2.61,7.28 1.75,1.83 4.35,2.72 7.76,2.72 7.83,0 15.84,-4.33 23.99,-13 1.21,-1.19 2.12,-1.8 2.74,-1.8 1.16,0 1.74,0.93 1.74,2.8zm-37.98 -8.53c15.46,-9.18 23.19,-16.56 23.19,-22.14 0,-2.18 -0.99,-3.28 -2.97,-3.28 -3.34,0 -7.12,2.46 -11.34,7.38 -4.2,4.93 -7.16,10.93 -8.88,18.04zm86.62 -14.97c-1.9,0 -3.98,1.23 -6.21,3.71 -2.24,2.48 -5.65,8.04 -10.24,16.68 -6.04,11.58 -9.96,18.16 -11.71,19.77 -1.77,1.61 -3.25,2.4 -4.4,2.4 -4.31,0 -6.45,-2.07 -6.45,-6.23 0,-1.73 0.3,-4.21 0.87,-7.42 2,-11 3.01,-22.61 3.01,-34.81 0,-1.39 0.59,-2.92 1.77,-4.62 1.19,-1.7 2.31,-2.54 3.36,-2.54 1.9,0 3.25,0.58 4.05,1.75 0.8,1.16 1.21,3.51 1.21,7.05 0,3.68 -1.1,11.25 -3.28,22.72 -0.73,3.79 -1.1,6.19 -1.1,7.22 0,0.58 0.15,0.88 0.45,0.88 0.54,0 3.08,-4.37 7.59,-13.06 4.55,-8.86 8.55,-15.09 11.96,-18.69 3.43,-3.61 7.2,-5.41 11.32,-5.41 3.28,0 5.95,1.49 8,4.48 2.05,2.98 3.56,8.43 4.52,16.34 1.03,8.99 1.94,14.61 2.76,16.81 0.82,2.2 2.13,3.3 3.9,3.3 1.14,0 2.56,-0.39 4.27,-1.19 0.28,-0.15 0.51,-0.22 0.65,-0.22 1.57,0 2.35,0.92 2.35,2.72 0,1.61 -1.08,3.32 -3.23,5.12 -2.15,1.8 -4.74,2.7 -7.76,2.7 -3.1,0 -5.49,-1.23 -7.18,-3.67 -1.7,-2.46 -3.04,-9.03 -4.03,-19.72 -1.01,-10.7 -3.15,-16.06 -6.43,-16.06zm75.64 22.23c-0.43,-0.32 -1.66,0.71 -3.66,3.06 -3.32,3.9 -7.55,7.37 -12.7,10.39 -5.17,3.02 -9.94,4.54 -14.35,4.54 -3.28,0 -5.85,-1.03 -7.72,-3.08 -1.84,-2.07 -2.78,-4.91 -2.78,-8.56 0,-5.64 2.13,-11.94 6.4,-18.88 4.25,-6.94 10.22,-13.01 17.88,-18.17 7.67,-5.17 14.38,-7.76 20.14,-7.76 3.02,0 5.69,0.88 7.99,2.63 0.54,0.43 1.01,0.78 1.42,1.08 0.65,0.49 1.27,1.44 1.85,2.88 0.59,1.44 0.88,2.59 0.88,3.47 0,0.54 -0.21,1.38 -0.6,2.52 -2.22,6.04 -3.73,11.06 -4.54,15.01 -0.8,3.98 -1.68,10.67 -2.63,20.07 -0.88,8.45 -1.81,14.94 -2.84,19.51 -1.03,4.55 -2.86,8.95 -5.52,13.21 -2.67,4.27 -5.85,7.46 -9.57,9.61 -3.71,2.13 -7.53,3.19 -11.47,3.19 -6.81,0 -13.54,-2.34 -20.16,-7.05 -6.62,-4.7 -9.94,-8.47 -9.94,-11.3 0,-1.79 0.67,-2.69 2.01,-2.69 0.65,0 2.62,1.08 5.86,3.23 8.56,5.73 16.27,8.58 23.11,8.58 5.97,0 10.52,-3.19 13.64,-9.57 3.11,-6.38 5.23,-15.9 6.36,-28.58 0.26,-2.87 0.56,-5.32 0.93,-7.33zm-0.11 -29.99c-3.09,0 -6.96,1.6 -11.6,4.81 -4.64,3.21 -9.16,7.91 -13.54,14.1 -4.37,6.2 -6.55,11.38 -6.55,15.58 0,1.41 0.45,2.54 1.34,3.36 0.89,0.82 1.88,1.23 2.96,1.23 3.25,0 7.48,-1.68 12.7,-5.04 5.24,-3.34 9.74,-8 13.5,-13.95 3.77,-5.97 5.65,-10.63 5.65,-14.03 0,-4.04 -1.49,-6.06 -4.48,-6.06zm44.86 -42.73c2.63,0 3.94,1.68 3.94,5.04 0,2.98 -1.59,10.09 -4.76,21.29 -2,7.07 -3.54,14.87 -4.64,23.39 -1.11,8.53 -1.65,15.2 -1.65,20.05 0,6.01 0.39,12 1.15,17.92 0.15,1.14 0.21,1.96 0.21,2.46 0,1.83 -0.61,3.4 -1.85,4.7 -1.25,1.3 -2.55,1.96 -3.94,1.96 -1.94,0 -3.26,-1.19 -4.01,-3.6 -0.75,-2.41 -1.13,-6.29 -1.13,-11.64 0,-12.2 1.46,-27.33 4.39,-45.37 2.94,-18.02 5.28,-28.58 6.99,-31.64 1.73,-3.06 3.48,-4.59 5.28,-4.59zm30.49 19.34c-0.76,0 -1.34,-0.82 -1.75,-2.46 -0.15,-0.5 -0.34,-1.06 -0.59,-1.7 -0.99,-2.35 -1.47,-4.42 -1.47,-6.18 0,-1.45 0.86,-2.93 2.59,-4.44 1.73,-1.51 3.65,-2.28 5.76,-2.28 1.07,0 2.24,0.41 3.56,1.23 1.31,0.82 1.96,1.6 1.96,2.36 0,1.21 -0.45,3.25 -1.34,6.14 -0.9,2.87 -2.32,4.81 -4.26,5.81 -1.96,0.99 -3.43,1.5 -4.46,1.5zm-7.16 61.05c0,2.76 0.39,5.87 1.15,9.34 0.15,0.65 0.21,1.19 0.21,1.62 0,0.67 -0.59,1.51 -1.79,2.56 -1.21,1.02 -2.48,1.55 -3.83,1.55 -3.54,0 -5.29,-3.25 -5.29,-9.72 0,-6.72 1.38,-17.31 4.14,-31.8 0.95,-5.08 1.42,-8.19 1.42,-9.35 0,-2.29 0.43,-4.25 1.27,-5.87 0.84,-1.63 2.01,-2.44 3.54,-2.44 1.86,0 3.32,0.45 4.4,1.34 1.08,0.9 1.6,1.88 1.6,2.98 0,1.09 -0.24,2.54 -0.76,4.31 -2.72,9.63 -4.42,16.51 -5.08,20.67 -0.65,4.14 -0.99,9.09 -0.99,14.81zm49.39 -0.39c0,-2.37 -2.91,-5.06 -8.73,-8.08 -7.41,-3.8 -12.4,-6.83 -15.01,-9.1 -2.59,-2.28 -3.9,-4.83 -3.9,-7.63 0,-7.26 3.64,-13.26 10.9,-18.04 7.27,-4.77 13.21,-7.16 17.8,-7.16 2.95,0 5.09,0.53 6.41,1.53 1.32,1.03 2,2.8 2,5.31 0,1.12 -0.49,2.09 -1.45,2.89 -0.95,0.8 -1.72,1.19 -2.26,1.19 -0.41,0 -1.19,-0.26 -2.35,-0.82 -1.17,-0.51 -1.94,-0.77 -2.3,-0.77 -1.83,0 -5.52,1.35 -11.1,3.99 -5.58,2.67 -8.35,5.67 -8.35,9.03 0,2.03 0.99,3.88 2.94,5.54 1.98,1.67 5.5,3.69 10.59,6.1 4.12,1.96 7.41,4.06 9.87,6.31 2.46,2.24 3.69,4.87 3.69,7.89 0,5.58 -3.84,9.94 -11.53,13.09 -7.68,3.15 -15.03,4.72 -22.03,4.74 -5.89,-0.02 -8.84,-2.02 -8.84,-6.03 0,-1.38 0.65,-2.4 2,-3.05 1.32,-0.65 2.66,-0.99 4.01,-0.99 0.55,0 1.59,0.18 3.12,0.56 1.49,0.36 2.48,0.55 2.95,0.55 4.04,0 8.37,-0.67 13,-2.01 4.63,-1.37 7.5,-3.04 8.58,-5.04zm28.97 -3.89c13.56,-25.03 24.72,-37.54 33.5,-37.54 2.33,0 4.23,1.34 5.69,4 1.45,2.66 2.63,8.56 3.54,17.7 0.92,9.74 2.96,16.77 6.18,21.1 1.64,2.22 2.46,3.86 2.46,4.93 0,0.95 -0.54,1.82 -1.64,2.63 -1.08,0.8 -2.26,1.19 -3.48,1.19 -2.86,0 -5.35,-1.59 -7.55,-4.77 -2.19,-3.19 -3.58,-8.78 -4.2,-16.81 -0.61,-7.57 -1.28,-12.54 -1.98,-14.87 -0.69,-2.33 -1.82,-3.5 -3.43,-3.5 -3.83,0 -11.53,10.02 -23.11,30.01 -3.47,5.97 -6.02,9.89 -7.66,11.71 -1.64,1.85 -3.13,2.76 -4.48,2.76 -1.61,0 -2.95,-0.46 -4.04,-1.41 -1.09,-0.95 -1.65,-2.11 -1.65,-3.49 0,-1.03 0.3,-3 0.88,-5.91 4.5,-23.13 8.02,-46.02 10.61,-68.64 0.58,-5.28 1.51,-8.79 2.82,-10.54 1.29,-1.75 2.37,-2.63 3.25,-2.63 1.57,0 2.98,0.65 4.25,1.92 1.29,1.27 1.92,3.04 1.92,5.3 0,6.71 -1.64,15.91 -4.93,27.61 -1.61,5.78 -3.3,13.15 -5.07,22.07 -1.79,8.93 -2.69,14.45 -2.69,16.56 0,0.43 0.2,0.65 0.59,0.65l0.22 0z"/>
  </g>
 </g>
</svg>
