<?xml version="1.0" encoding="UTF-8"?>
<!DOCTYPE svg PUBLIC "-//W3C//DTD SVG 1.1//EN" "http://www.w3.org/Graphics/SVG/1.1/DTD/svg11.dtd">
<!-- Creator: CorelDRAW 2020 -->
<svg xmlns="http://www.w3.org/2000/svg" xml:space="preserve" width="7.52mm" height="3.0242mm" version="1.1" style="shape-rendering:geometricPrecision; text-rendering:geometricPrecision; image-rendering:optimizeQuality; fill-rule:evenodd; clip-rule:evenodd"
viewBox="0 0 373.82 150.33"
 xmlns:xlink="http://www.w3.org/1999/xlink"
 xmlns:xodm="http://www.corel.com/coreldraw/odm/2003">
 <defs>
  <style type="text/css">
   <![CDATA[
    .str0 {stroke:#C6B93A;stroke-width:8.77;stroke-miterlimit:22.9256}
    .fil1 {fill:none}
    .fil0 {fill:#C6B93A;fill-rule:nonzero}
   ]]>
  </style>
 </defs>
 <g id="Layer_x0020_1">
  <metadata id="CorelCorpID_0Corel-Layer"/>
  <g id="_1044858432">
   <path class="fil0" d="M49.77 74.2c0,3.72 -3.3,8.21 -9.88,13.49 -6.6,5.25 -13.42,7.87 -20.43,7.87 -5.88,0 -10.42,-1.72 -13.62,-5.2 -3.2,-3.46 -4.79,-8.31 -4.79,-14.52 0,-10.45 3.51,-20.39 10.57,-29.82 7.05,-9.43 14.78,-14.14 23.14,-14.14 2.73,0 4.98,0.89 6.72,2.69 1.72,1.78 2.6,3.95 2.6,6.45 0,5.63 -2.77,11.02 -8.29,16.18 -5.52,5.15 -12.89,10.22 -22.13,15.17 -1.91,0.99 -2.84,2.26 -2.84,3.83 0,3.03 0.86,5.46 2.62,7.3 1.75,1.83 4.36,2.73 7.78,2.73 7.85,0 15.88,-4.34 24.06,-13.04 1.21,-1.19 2.13,-1.81 2.74,-1.81 1.16,0 1.74,0.93 1.74,2.8zm-38.09 -8.55c15.5,-9.21 23.25,-16.61 23.25,-22.21 0,-2.19 -0.99,-3.29 -2.98,-3.29 -3.35,0 -7.14,2.47 -11.37,7.4 -4.21,4.94 -7.18,10.97 -8.9,18.09zm86.87 -15.02c-1.91,0 -3.99,1.23 -6.23,3.72 -2.25,2.49 -5.67,8.06 -10.27,16.72 -6.06,11.61 -9.99,18.21 -11.75,19.82 -1.78,1.61 -3.26,2.41 -4.41,2.41 -4.32,0 -6.47,-2.07 -6.47,-6.25 0,-1.73 0.3,-4.23 0.87,-7.44 2.01,-11.04 3.02,-22.67 3.02,-34.91 0,-1.4 0.6,-2.93 1.77,-4.64 1.19,-1.7 2.32,-2.55 3.37,-2.55 1.91,0 3.26,0.58 4.06,1.76 0.81,1.16 1.21,3.52 1.21,7.07 0,3.69 -1.1,11.28 -3.29,22.79 -0.73,3.8 -1.1,6.21 -1.1,7.24 0,0.58 0.15,0.88 0.45,0.88 0.54,0 3.09,-4.38 7.62,-13.09 4.56,-8.88 8.57,-15.13 11.99,-18.75 3.44,-3.62 7.22,-5.42 11.35,-5.42 3.29,0 5.97,1.5 8.02,4.49 2.06,2.99 3.57,8.46 4.53,16.38 1.03,9.02 1.94,14.65 2.77,16.86 0.83,2.21 2.13,3.31 3.91,3.31 1.14,0 2.57,-0.39 4.29,-1.2 0.28,-0.15 0.51,-0.22 0.66,-0.22 1.57,0 2.36,0.92 2.36,2.73 0,1.61 -1.08,3.33 -3.24,5.13 -2.15,1.81 -4.75,2.71 -7.78,2.71 -3.11,0 -5.5,-1.24 -7.2,-3.68 -1.71,-2.47 -3.05,-9.05 -4.04,-19.77 -1.01,-10.73 -3.16,-16.1 -6.45,-16.1zm75.85 22.3c-0.43,-0.32 -1.67,0.71 -3.67,3.07 -3.33,3.91 -7.58,7.39 -12.74,10.42 -5.18,3.03 -9.97,4.55 -14.39,4.55 -3.29,0 -5.87,-1.03 -7.74,-3.09 -1.85,-2.08 -2.79,-4.92 -2.79,-8.58 0,-5.65 2.14,-11.98 6.42,-18.93 4.27,-6.96 10.25,-13.04 17.94,-18.22 7.69,-5.18 14.43,-7.78 20.2,-7.78 3.03,0 5.71,0.88 8.01,2.64 0.54,0.43 1.01,0.78 1.42,1.08 0.66,0.49 1.27,1.45 1.85,2.88 0.6,1.44 0.88,2.6 0.88,3.48 0,0.54 -0.21,1.39 -0.6,2.53 -2.22,6.06 -3.74,11.09 -4.55,15.06 -0.8,3.99 -1.68,10.7 -2.63,20.13 -0.88,8.48 -1.81,14.98 -2.84,19.57 -1.03,4.56 -2.86,8.98 -5.54,13.24 -2.67,4.29 -5.87,7.48 -9.59,9.63 -3.72,2.13 -7.56,3.2 -11.5,3.2 -6.83,0 -13.58,-2.35 -20.22,-7.07 -6.64,-4.71 -9.97,-8.49 -9.97,-11.33 0,-1.8 0.68,-2.69 2.02,-2.69 0.66,0 2.62,1.08 5.88,3.24 8.58,5.74 16.31,8.6 23.18,8.6 5.99,0 10.55,-3.2 13.68,-9.59 3.12,-6.4 5.25,-15.94 6.38,-28.66 0.26,-2.88 0.56,-5.33 0.93,-7.35zm-0.11 -30.08c-3.1,0 -6.98,1.61 -11.63,4.83 -4.66,3.22 -9.19,7.93 -13.58,14.14 -4.38,6.21 -6.57,11.41 -6.57,15.62 0,1.42 0.45,2.55 1.35,3.37 0.89,0.83 1.89,1.23 2.97,1.23 3.26,0 7.5,-1.68 12.74,-5.05 5.25,-3.35 9.76,-8.02 13.54,-13.99 3.78,-5.99 5.67,-10.66 5.67,-14.07 0,-4.06 -1.5,-6.08 -4.49,-6.08zm44.99 -42.85c2.63,0 3.95,1.68 3.95,5.05 0,2.99 -1.59,10.12 -4.77,21.36 -2,7.09 -3.55,14.91 -4.65,23.46 -1.11,8.55 -1.65,15.25 -1.65,20.11 0,6.02 0.39,12.03 1.16,17.98 0.15,1.14 0.21,1.96 0.21,2.47 0,1.83 -0.62,3.41 -1.85,4.72 -1.25,1.31 -2.56,1.96 -3.95,1.96 -1.94,0 -3.27,-1.2 -4.02,-3.61 -0.76,-2.42 -1.13,-6.3 -1.13,-11.67 0,-12.24 1.46,-27.41 4.4,-45.5 2.95,-18.07 5.29,-28.66 7.01,-31.73 1.74,-3.07 3.49,-4.6 5.29,-4.6zm30.58 19.4c-0.77,0 -1.35,-0.83 -1.76,-2.47 -0.15,-0.5 -0.34,-1.06 -0.6,-1.7 -0.99,-2.36 -1.48,-4.43 -1.48,-6.19 0,-1.46 0.86,-2.94 2.6,-4.45 1.74,-1.52 3.66,-2.28 5.78,-2.28 1.07,0 2.25,0.41 3.57,1.24 1.31,0.82 1.96,1.61 1.96,2.37 0,1.22 -0.45,3.26 -1.34,6.16 -0.9,2.88 -2.33,4.82 -4.27,5.83 -1.96,0.99 -3.44,1.5 -4.47,1.5zm-7.18 61.22c0,2.77 0.39,5.89 1.16,9.37 0.15,0.66 0.21,1.19 0.21,1.63 0,0.68 -0.6,1.52 -1.79,2.57 -1.22,1.02 -2.49,1.55 -3.84,1.55 -3.55,0 -5.31,-3.26 -5.31,-9.74 0,-6.74 1.38,-17.36 4.15,-31.89 0.95,-5.09 1.42,-8.21 1.42,-9.38 0,-2.3 0.43,-4.26 1.27,-5.89 0.84,-1.63 2.02,-2.45 3.55,-2.45 1.87,0 3.33,0.45 4.41,1.35 1.08,0.9 1.61,1.89 1.61,2.99 0,1.09 -0.24,2.55 -0.77,4.32 -2.73,9.65 -4.43,16.56 -5.09,20.73 -0.66,4.15 -0.99,9.11 -0.99,14.85zm49.53 -0.39c0,-2.38 -2.92,-5.07 -8.75,-8.1 -7.43,-3.81 -12.44,-6.85 -15.06,-9.13 -2.6,-2.28 -3.91,-4.84 -3.91,-7.65 0,-7.28 3.65,-13.3 10.93,-18.09 7.29,-4.79 13.24,-7.18 17.85,-7.18 2.96,0 5.11,0.53 6.43,1.54 1.33,1.03 2,2.81 2,5.33 0,1.12 -0.49,2.09 -1.46,2.9 -0.95,0.8 -1.72,1.19 -2.27,1.19 -0.41,0 -1.19,-0.26 -2.36,-0.82 -1.18,-0.51 -1.94,-0.77 -2.3,-0.77 -1.83,0 -5.54,1.35 -11.13,4 -5.59,2.68 -8.38,5.69 -8.38,9.06 0,2.04 0.99,3.89 2.95,5.55 1.98,1.67 5.52,3.7 10.62,6.12 4.14,1.96 7.43,4.08 9.9,6.32 2.47,2.24 3.7,4.88 3.7,7.91 0,5.59 -3.85,9.97 -11.56,13.13 -7.71,3.16 -15.07,4.73 -22.09,4.75 -5.91,-0.02 -8.86,-2.02 -8.86,-6.04 0,-1.38 0.65,-2.41 2,-3.06 1.33,-0.66 2.67,-0.99 4.02,-0.99 0.55,0 1.59,0.18 3.13,0.56 1.5,0.36 2.49,0.55 2.96,0.55 4.06,0 8.4,-0.68 13.03,-2.02 4.64,-1.37 7.52,-3.05 8.6,-5.05zm29.05 -3.9c13.6,-25.1 24.79,-37.65 33.6,-37.65 2.34,0 4.25,1.35 5.71,4.01 1.45,2.67 2.63,8.58 3.55,17.75 0.92,9.77 2.97,16.82 6.19,21.16 1.65,2.23 2.47,3.87 2.47,4.94 0,0.95 -0.54,1.83 -1.65,2.63 -1.08,0.81 -2.26,1.2 -3.49,1.2 -2.86,0 -5.37,-1.59 -7.58,-4.79 -2.19,-3.2 -3.59,-8.81 -4.21,-16.86 -0.62,-7.6 -1.29,-12.57 -1.98,-14.91 -0.69,-2.34 -1.83,-3.51 -3.44,-3.51 -3.84,0 -11.56,10.05 -23.18,30.09 -3.48,5.99 -6.04,9.92 -7.69,11.75 -1.65,1.85 -3.14,2.77 -4.49,2.77 -1.61,0 -2.96,-0.46 -4.06,-1.42 -1.09,-0.95 -1.65,-2.12 -1.65,-3.5 0,-1.03 0.3,-3.01 0.88,-5.93 4.51,-23.19 8.04,-46.15 10.64,-68.83 0.58,-5.3 1.52,-8.81 2.82,-10.57 1.29,-1.75 2.38,-2.63 3.26,-2.63 1.57,0 2.99,0.65 4.27,1.92 1.29,1.27 1.93,3.05 1.93,5.31 0,6.73 -1.65,15.96 -4.94,27.68 -1.61,5.8 -3.31,13.19 -5.09,22.13 -1.8,8.96 -2.69,14.5 -2.69,16.61 0,0.43 0.2,0.65 0.6,0.65l0.22 0z"/>
   <line class="fil1 str0" x1="-0" y1="145.95" x2="373.82" y2= "145.95" />
  </g>
 </g>
</svg>
