<?xml version="1.0" encoding="UTF-8"?>
<!DOCTYPE svg PUBLIC "-//W3C//DTD SVG 1.1//EN" "http://www.w3.org/Graphics/SVG/1.1/DTD/svg11.dtd">
<!-- Creator: CorelDRAW 2020 -->
<svg xmlns="http://www.w3.org/2000/svg" xml:space="preserve" width="8.1868mm" height="2.3424mm" version="1.1" style="shape-rendering:geometricPrecision; text-rendering:geometricPrecision; image-rendering:optimizeQuality; fill-rule:evenodd; clip-rule:evenodd"
viewBox="0 0 170.74 48.85"
 xmlns:xlink="http://www.w3.org/1999/xlink"
 xmlns:xodm="http://www.corel.com/coreldraw/odm/2003">
 <defs>
  <style type="text/css">
   <![CDATA[
    .fil0 {fill:#6B470F;fill-rule:nonzero}
   ]]>
  </style>
 </defs>
 <g id="Layer_x0020_1">
  <metadata id="CorelCorpID_0Corel-Layer"/>
  <path class="fil0" d="M43.33 27.9c-6.92,1.86 -12.66,3.3 -17.2,4.3 -4.56,1.01 -8.53,1.51 -11.91,1.5l-14.22 0 0 -6.77 16.98 0c-2.02,-0.96 -3.81,-2.5 -5.35,-4.65 -1.53,-2.15 -2.29,-4.53 -2.29,-7.12 0,-4.5 1.53,-8.15 4.59,-10.95 3.05,-2.81 6.87,-4.2 11.46,-4.2 2.88,0 5.6,0.27 8.18,0.82 2.58,0.55 4.65,1.26 6.23,2.12l0 7.65 -0.36 0c-1.58,-1.14 -3.56,-2.11 -5.93,-2.88 -2.37,-0.77 -4.98,-1.17 -7.83,-1.17 -3.14,0 -5.65,0.82 -7.55,2.48 -1.89,1.64 -2.83,3.74 -2.83,6.28 0,2.15 0.87,4.15 2.6,5.99 1.74,1.84 4.01,3.21 6.81,4.1 2.17,-0.32 5.28,-0.99 9.33,-2.03 4.05,-1.03 7.13,-1.86 9.29,-2.49l0 7.03zm33.46 5.8l-2.72 0c-0.75,0 -1.57,-0.11 -2.48,-0.34 -0.91,-0.22 -1.72,-0.53 -2.44,-0.92 -0.88,3.43 -2.27,6.28 -4.14,8.54 -1.89,2.26 -4.07,3.97 -6.56,5.16 -2.5,1.08 -4.62,1.8 -6.37,2.17 -1.75,0.37 -3.74,0.55 -5.97,0.55l0 -6.77c1.56,0 3.22,-0.15 5,-0.45 1.77,-0.29 3.68,-0.92 5.71,-1.87 2.49,-1.26 4.24,-2.87 5.26,-4.82 1.02,-1.94 1.53,-4.22 1.53,-6.82 0,-1.41 -0.2,-2.81 -0.58,-4.21 -0.38,-1.4 -0.81,-2.62 -1.29,-3.67 -0.48,-1.06 -0.96,-1.98 -1.43,-2.78 -0.48,-0.8 -0.88,-1.42 -1.19,-1.87l0 -0.43 6.92 0c0.15,0.26 0.5,1.04 1.08,2.33 0.59,1.3 1.09,2.45 1.52,3.48 0.91,2.11 1.94,3.63 3.09,4.56 1.14,0.93 2.45,1.4 3.94,1.4l1.12 0 0 6.77zm15.82 -16.27c0,5.1 -1.21,9.09 -3.63,11.97 -2.42,2.87 -5.75,4.3 -9.98,4.3l-4.71 0 0 -6.77 4.89 0c2.44,0 4.29,-0.87 5.57,-2.62 1.26,-1.74 1.9,-4.18 1.9,-7.32l0 -9.04 5.96 0 0 9.48zm-5.08 27.75l-5.3 0 0 -5.3 5.3 0 0 5.3zm83.2 -11.48l-0.28 0c-1.75,0 -3.3,-0.27 -4.64,-0.82 -1.35,-0.55 -2.57,-1.31 -3.7,-2.27 -1.15,-0.97 -2.17,-2.06 -3.05,-3.26 -0.88,-1.2 -1.71,-2.38 -2.44,-3.56 -0.65,-1.03 -1.4,-2.23 -2.26,-3.62 -0.87,-1.37 -1.64,-2.47 -2.34,-3.25 -0.81,-0.93 -1.69,-1.68 -2.64,-2.24 -0.94,-0.57 -1.99,-0.85 -3.14,-0.85 -1.84,0 -3.24,0.37 -4.18,1.12 -0.94,0.75 -1.42,1.51 -1.42,2.28 0,0.71 0.65,1.62 1.96,2.71 1.3,1.08 2.42,2.01 3.36,2.77 1.69,1.41 3.01,2.72 3.91,3.96 0.91,1.23 1.36,2.45 1.36,3.64 0,4.91 -2.32,8.66 -6.95,11.26 -4.64,2.6 -11.8,3.9 -21.5,3.9 -7.57,0 -13.15,-1.29 -16.73,-3.86 -3.58,-2.56 -5.37,-6.63 -5.37,-12.18 0,-1.89 0.11,-3.75 0.33,-5.57 0.22,-1.82 0.36,-2.93 0.4,-3.34l6.18 0 0 0.39c-0.08,0.38 -0.25,1.55 -0.53,3.48 -0.28,1.95 -0.43,3.59 -0.43,4.96 0,3.33 1.21,5.72 3.63,7.17 2.42,1.45 6.61,2.17 12.58,2.17 7.44,0 13.05,-0.65 16.79,-1.94 3.75,-1.29 5.63,-3.32 5.63,-6.11 0,-0.98 -0.6,-1.98 -1.79,-2.97 -1.2,-1.01 -2.37,-1.94 -3.48,-2.81 -2,-1.5 -3.37,-2.86 -4.16,-4.07 -0.77,-1.2 -1.17,-2.44 -1.17,-3.68 0,-2.44 1.1,-4.73 3.31,-6.87 2.22,-2.13 4.98,-3.2 8.3,-3.2 1.58,0 3.01,0.28 4.27,0.85 1.26,0.58 2.4,1.3 3.41,2.21 0.93,0.82 1.87,1.9 2.83,3.23 0.94,1.32 1.77,2.54 2.45,3.64 0.65,1.01 1.43,2.21 2.35,3.61 0.93,1.4 1.75,2.48 2.47,3.25 0.92,0.98 1.85,1.74 2.81,2.28 0.94,0.54 2.08,0.81 3.42,0.81l0.43 0 0 6.77z"/>
 </g>
</svg>
