<?xml version="1.0" encoding="UTF-8"?>
<!DOCTYPE svg PUBLIC "-//W3C//DTD SVG 1.1//EN" "http://www.w3.org/Graphics/SVG/1.1/DTD/svg11.dtd">
<!-- Creator: CorelDRAW 2020 -->
<svg xmlns="http://www.w3.org/2000/svg" xml:space="preserve" width="6.5494mm" height="1.8739mm" version="1.1" style="shape-rendering:geometricPrecision; text-rendering:geometricPrecision; image-rendering:optimizeQuality; fill-rule:evenodd; clip-rule:evenodd"
viewBox="0 0 123.73 35.4"
 xmlns:xlink="http://www.w3.org/1999/xlink"
 xmlns:xodm="http://www.corel.com/coreldraw/odm/2003">
 <defs>
  <style type="text/css">
   <![CDATA[
    .fil0 {fill:#6B470F;fill-rule:nonzero}
   ]]>
  </style>
 </defs>
 <g id="Layer_x0020_1">
  <metadata id="CorelCorpID_0Corel-Layer"/>
  <g id="_950849136">
   <path class="fil0" d="M31.4 20.21c-5.01,1.35 -9.17,2.39 -12.47,3.12 -3.3,0.73 -6.18,1.09 -8.63,1.08l-10.31 0 0 -4.91 12.31 0c-1.47,-0.69 -2.76,-1.81 -3.87,-3.37 -1.11,-1.55 -1.66,-3.28 -1.66,-5.16 0,-3.26 1.11,-5.91 3.32,-7.94 2.21,-2.03 4.98,-3.05 8.31,-3.05 2.09,0 4.06,0.19 5.93,0.6 1.87,0.4 3.37,0.91 4.52,1.54l0 5.55 -0.26 0c-1.14,-0.83 -2.58,-1.53 -4.3,-2.09 -1.72,-0.56 -3.61,-0.84 -5.67,-0.84 -2.27,0 -4.1,0.6 -5.47,1.79 -1.37,1.19 -2.05,2.71 -2.05,4.55 0,1.55 0.63,3 1.88,4.34 1.26,1.33 2.91,2.33 4.93,2.97 1.57,-0.23 3.83,-0.72 6.76,-1.47 2.93,-0.74 5.17,-1.35 6.73,-1.8l0 5.09zm24.25 4.2l-1.97 0c-0.54,0 -1.14,-0.08 -1.79,-0.25 -0.66,-0.16 -1.24,-0.38 -1.77,-0.67 -0.64,2.49 -1.65,4.55 -3,6.19 -1.37,1.63 -2.95,2.88 -4.76,3.74 -1.81,0.78 -3.35,1.31 -4.61,1.57 -1.27,0.27 -2.71,0.4 -4.33,0.4l0 -4.9c1.13,0 2.34,-0.11 3.63,-0.33 1.28,-0.21 2.67,-0.67 4.14,-1.36 1.8,-0.92 3.07,-2.08 3.81,-3.49 0.74,-1.4 1.11,-3.06 1.11,-4.94 0,-1.02 -0.14,-2.04 -0.42,-3.05 -0.27,-1.01 -0.59,-1.9 -0.93,-2.66 -0.35,-0.77 -0.69,-1.43 -1.04,-2.02 -0.35,-0.58 -0.64,-1.03 -0.86,-1.36l0 -0.31 5.01 0c0.11,0.19 0.36,0.76 0.78,1.69 0.43,0.94 0.79,1.78 1.1,2.52 0.66,1.53 1.4,2.63 2.24,3.3 0.82,0.68 1.78,1.01 2.85,1.01l0.81 0 0 4.91zm11.46 -11.79c0,3.7 -0.88,6.59 -2.63,8.67 -1.75,2.08 -4.17,3.12 -7.23,3.12l-3.41 0 0 -4.91 3.55 0c1.77,0 3.11,-0.63 4.03,-1.9 0.92,-1.26 1.38,-3.03 1.38,-5.3l0 -6.55 4.32 0 0 6.87zm-3.68 20.11l-3.84 0 0 -3.84 3.84 0 0 3.84zm60.29 -8.32l-0.2 0c-1.27,0 -2.39,-0.19 -3.36,-0.6 -0.98,-0.4 -1.86,-0.95 -2.68,-1.65 -0.84,-0.7 -1.57,-1.49 -2.21,-2.36 -0.64,-0.87 -1.24,-1.72 -1.77,-2.58 -0.47,-0.75 -1.01,-1.62 -1.64,-2.62 -0.63,-1 -1.19,-1.79 -1.7,-2.35 -0.59,-0.68 -1.23,-1.22 -1.91,-1.63 -0.69,-0.41 -1.44,-0.61 -2.28,-0.61 -1.33,0 -2.35,0.27 -3.03,0.81 -0.69,0.54 -1.03,1.09 -1.03,1.65 0,0.52 0.47,1.17 1.42,1.96 0.94,0.78 1.75,1.46 2.44,2.01 1.23,1.02 2.18,1.97 2.84,2.87 0.66,0.89 0.98,1.78 0.98,2.64 0,3.55 -1.68,6.27 -5.04,8.16 -3.36,1.88 -8.55,2.82 -15.58,2.82 -5.48,0 -9.53,-0.93 -12.12,-2.8 -2.59,-1.86 -3.89,-4.81 -3.89,-8.82 0,-1.37 0.08,-2.72 0.24,-4.03 0.16,-1.32 0.26,-2.13 0.29,-2.42l4.48 0 0 0.28c-0.05,0.28 -0.18,1.12 -0.38,2.52 -0.2,1.41 -0.31,2.61 -0.31,3.59 0,2.42 0.88,4.15 2.63,5.2 1.75,1.05 4.79,1.57 9.12,1.57 5.39,0 9.46,-0.47 12.16,-1.4 2.72,-0.93 4.08,-2.41 4.08,-4.42 0,-0.71 -0.44,-1.43 -1.3,-2.15 -0.87,-0.73 -1.72,-1.4 -2.52,-2.03 -1.45,-1.08 -2.44,-2.07 -3.01,-2.95 -0.56,-0.87 -0.84,-1.77 -0.84,-2.66 0,-1.77 0.8,-3.43 2.4,-4.98 1.61,-1.55 3.61,-2.32 6.02,-2.32 1.14,0 2.18,0.21 3.09,0.61 0.92,0.42 1.74,0.94 2.47,1.6 0.67,0.6 1.36,1.38 2.05,2.34 0.69,0.96 1.28,1.84 1.78,2.64 0.47,0.73 1.04,1.6 1.71,2.61 0.68,1.01 1.27,1.79 1.79,2.35 0.66,0.71 1.34,1.26 2.03,1.65 0.68,0.39 1.51,0.59 2.48,0.59l0.31 0 0 4.91z"/>
  </g>
 </g>
</svg>
