<?xml version="1.0" encoding="UTF-8"?>
<!DOCTYPE svg PUBLIC "-//W3C//DTD SVG 1.1//EN" "http://www.w3.org/Graphics/SVG/1.1/DTD/svg11.dtd">
<!-- Creator: CorelDRAW 2020 -->
<svg xmlns="http://www.w3.org/2000/svg" xml:space="preserve" width="8.4mm" height="3.8mm" version="1.1" style="shape-rendering:geometricPrecision; text-rendering:geometricPrecision; image-rendering:optimizeQuality; fill-rule:evenodd; clip-rule:evenodd"
viewBox="0 0 29.41 13.3"
 xmlns:xlink="http://www.w3.org/1999/xlink"
 xmlns:xodm="http://www.corel.com/coreldraw/odm/2003">
 <defs>
  <style type="text/css">
   <![CDATA[
    .fil0 {fill:none}
    .fil1 {fill:#6B470F;fill-rule:nonzero}
   ]]>
  </style>
 </defs>
 <g id="Layer_x0020_1">
  <metadata id="CorelCorpID_0Corel-Layer"/>
  <polygon class="fil0" points="-0,0 29.41,0 29.41,13.3 -0,13.3 "/>
 </g>
 <g id="Layer_x0020_1_0">
  <metadata id="CorelCorpID_1Corel-Layer"/>
  <g id="_1451579744">
   <path class="fil1" d="M9.18 6.01c-0.93,0.25 -1.7,0.44 -2.31,0.58 -0.61,0.14 -1.15,0.2 -1.6,0.2l-1.91 0 0 -0.91 2.28 0c-0.27,-0.13 -0.51,-0.34 -0.72,-0.62 -0.21,-0.29 -0.31,-0.61 -0.31,-0.96 0,-0.6 0.21,-1.1 0.62,-1.47 0.41,-0.38 0.92,-0.57 1.54,-0.57 0.39,0 0.75,0.04 1.1,0.11 0.35,0.07 0.62,0.17 0.84,0.29l0 1.03 -0.05 0c-0.21,-0.15 -0.48,-0.28 -0.8,-0.39 -0.32,-0.1 -0.67,-0.16 -1.05,-0.16 -0.42,0 -0.76,0.11 -1.01,0.33 -0.25,0.22 -0.38,0.5 -0.38,0.84 0,0.29 0.12,0.56 0.35,0.8 0.23,0.25 0.54,0.43 0.91,0.55 0.29,-0.04 0.71,-0.13 1.25,-0.27 0.54,-0.14 0.96,-0.25 1.25,-0.33l0 0.94 0 -0zm4.49 0.78l-0.37 0c-0.1,0 -0.21,-0.01 -0.33,-0.05 -0.12,-0.03 -0.23,-0.07 -0.33,-0.12 -0.12,0.46 -0.31,0.84 -0.56,1.15 -0.25,0.3 -0.55,0.53 -0.88,0.69 -0.34,0.14 -0.62,0.24 -0.85,0.29 -0.24,0.05 -0.5,0.07 -0.8,0.07l0 -0.91c0.21,0 0.43,-0.02 0.67,-0.06 0.24,-0.04 0.49,-0.12 0.77,-0.25 0.33,-0.17 0.57,-0.39 0.71,-0.65 0.14,-0.26 0.21,-0.57 0.21,-0.92 0,-0.19 -0.03,-0.38 -0.08,-0.57 -0.05,-0.19 -0.11,-0.35 -0.17,-0.49 -0.06,-0.14 -0.13,-0.27 -0.19,-0.37 -0.06,-0.11 -0.12,-0.19 -0.16,-0.25l0 -0.06 0.93 0c0.02,0.04 0.07,0.14 0.14,0.31 0.08,0.17 0.15,0.33 0.2,0.47 0.12,0.28 0.26,0.49 0.42,0.61 0.15,0.13 0.33,0.19 0.53,0.19l0.15 0 0 0.91 0 0zm2.12 -2.18c0,0.69 -0.16,1.22 -0.49,1.61 -0.32,0.39 -0.77,0.58 -1.34,0.58l-0.63 0 0 -0.91 0.66 0c0.33,0 0.58,-0.12 0.75,-0.35 0.17,-0.23 0.26,-0.56 0.26,-0.98l0 -1.21 0.8 0 0 1.27 -0 0zm-0.68 3.73l-0.71 0 0 -0.71 0.71 0 0 0.71zm11.17 -1.54l-0.04 0c-0.24,0 -0.44,-0.04 -0.62,-0.11 -0.18,-0.07 -0.34,-0.18 -0.5,-0.31 -0.16,-0.13 -0.29,-0.28 -0.41,-0.44 -0.12,-0.16 -0.23,-0.32 -0.33,-0.48 -0.09,-0.14 -0.19,-0.3 -0.3,-0.49 -0.12,-0.19 -0.22,-0.33 -0.32,-0.44 -0.11,-0.13 -0.23,-0.23 -0.35,-0.3 -0.13,-0.08 -0.27,-0.11 -0.42,-0.11 -0.25,0 -0.44,0.05 -0.56,0.15 -0.13,0.1 -0.19,0.2 -0.19,0.31 0,0.1 0.09,0.22 0.26,0.36 0.17,0.14 0.32,0.27 0.45,0.37 0.23,0.19 0.4,0.37 0.53,0.53 0.12,0.16 0.18,0.33 0.18,0.49 0,0.66 -0.31,1.16 -0.93,1.51 -0.62,0.35 -1.58,0.52 -2.89,0.52 -1.02,0 -1.77,-0.17 -2.25,-0.52 -0.48,-0.34 -0.72,-0.89 -0.72,-1.63 0,-0.25 0.01,-0.5 0.04,-0.75 0.03,-0.24 0.05,-0.39 0.05,-0.45l0.83 0 0 0.05c-0.01,0.05 -0.03,0.21 -0.07,0.47 -0.04,0.26 -0.06,0.48 -0.06,0.67 0,0.45 0.16,0.77 0.49,0.96 0.32,0.19 0.89,0.29 1.69,0.29 1,0 1.75,-0.09 2.25,-0.26 0.5,-0.17 0.76,-0.45 0.76,-0.82 0,-0.13 -0.08,-0.27 -0.24,-0.4 -0.16,-0.14 -0.32,-0.26 -0.47,-0.38 -0.27,-0.2 -0.45,-0.38 -0.56,-0.55 -0.1,-0.16 -0.16,-0.33 -0.16,-0.49 0,-0.33 0.15,-0.64 0.44,-0.92 0.3,-0.29 0.67,-0.43 1.12,-0.43 0.21,0 0.4,0.04 0.57,0.11 0.17,0.08 0.32,0.17 0.46,0.3 0.12,0.11 0.25,0.26 0.38,0.43 0.13,0.18 0.24,0.34 0.33,0.49 0.09,0.14 0.19,0.3 0.32,0.48 0.13,0.19 0.24,0.33 0.33,0.44 0.12,0.13 0.25,0.23 0.38,0.31 0.13,0.07 0.28,0.11 0.46,0.11l0.06 0 0 0.91 -0 0z"/>
  </g>
 </g>
</svg>
