<?xml version="1.0" encoding="UTF-8"?>
<!DOCTYPE svg PUBLIC "-//W3C//DTD SVG 1.1//EN" "http://www.w3.org/Graphics/SVG/1.1/DTD/svg11.dtd">
<!-- Creator: CorelDRAW 2020 -->
<svg xmlns="http://www.w3.org/2000/svg" xml:space="preserve" width="20mm" height="8mm" version="1.1" style="shape-rendering:geometricPrecision; text-rendering:geometricPrecision; image-rendering:optimizeQuality; fill-rule:evenodd; clip-rule:evenodd"
viewBox="0 0 227.11 90.84"
 xmlns:xlink="http://www.w3.org/1999/xlink"
 xmlns:xodm="http://www.corel.com/coreldraw/odm/2003">
 <defs>
  <style type="text/css">
   <![CDATA[
    .str0 {stroke:#6B470F;stroke-width:8.52;stroke-miterlimit:22.9256}
    .fil0 {fill:none}
    .fil1 {fill:#6B470F}
    .fil2 {fill:#6B470F;fill-rule:nonzero}
   ]]>
  </style>
 </defs>
 <g id="Layer_x0020_1">
  <metadata id="CorelCorpID_0Corel-Layer"/>
  <polygon class="fil0" points="-0,0 227.11,0 227.11,90.84 -0,90.84 "/>
  <g id="_2108259280">
   <g id="atau-belgi.svg">
    <path class="fil0 str0" d="M45.85 17.85c-21.39,3.38 -28.51,16.81 -30.62,24.69 -1.84,6.83 -1.31,18.05 13.96,18.42 4.95,0 19.36,-0.04 31.18,0 14.67,0.04 18.76,-11.71 18.42,-21.8 -0.64,-18.33 -17.14,-23.78 -32.94,-21.31z"/>
    <path class="fil1" d="M26.63 43.81c0,-4.26 3.48,-7.73 7.73,-7.73 4.26,0 7.73,3.48 7.73,7.73 0,4.26 -3.48,7.73 -7.73,7.73 -4.26,0 -7.73,-3.47 -7.73,-7.73z"/>
   </g>
   <path class="fil2" d="M107.63 20.64l-6.66 5.88 7.36 5.56c0.6,0.46 1.18,0.87 1.74,1.21l0.83 0.55c0.63,0.38 1.93,0.64 3.91,0.78 0.14,0.46 0.21,0.79 0.21,1 0,0.81 -0.23,1.48 -0.7,2 -0.47,0.52 -1.16,0.78 -2.08,0.78 -1.2,0 -2.79,-0.73 -4.79,-2.18l-6.83 -5c-1.55,-1.17 -2.69,-1.9 -3.42,-2.22 -0.53,0.15 -0.95,2.13 -1.29,5.93 -0.14,1.51 -0.38,2.62 -0.74,3.32 -0.35,0.7 -0.93,1.04 -1.74,1.04 -0.68,0 -1.2,-0.2 -1.56,-0.61 -0.37,-0.4 -0.55,-0.93 -0.55,-1.57 0,-0.28 0.06,-0.68 0.17,-1.2 0.27,-1.15 0.75,-5.23 1.44,-12.25 0.63,-5.92 1.14,-9.31 1.56,-10.19 0.41,-0.88 1.06,-1.31 1.94,-1.31 1.48,0 2.22,0.82 2.22,2.46 -0.74,3.03 -1.27,6.51 -1.6,10.44 1.66,-1.26 2.86,-2.28 3.59,-3.08 0.28,-0.28 0.63,-0.62 1.05,-1.02 0.82,-0.78 1.69,-1.61 2.59,-2.5 0.9,-0.9 1.57,-1.72 1.99,-2.47 0.6,-1.08 1.09,-1.84 1.46,-2.28 0.38,-0.44 0.78,-0.66 1.21,-0.66 0.49,0 1.05,0.25 1.65,0.74 0.61,0.49 0.91,1.05 0.91,1.66 0,0.46 -0.32,1.14 -0.95,2.05 -0.64,0.91 -1.62,1.95 -2.94,3.13zm22.18 11.36c-3.09,4.07 -6.07,6.1 -8.94,6.1 -1.06,0 -1.97,-0.41 -2.73,-1.25 -0.76,-0.84 -1.15,-1.89 -1.15,-3.19 0,-3.11 1.39,-6.42 4.16,-9.94 2.76,-3.52 5.56,-5.27 8.38,-5.27 1.43,0 2.37,0.72 2.82,2.16 1.35,0 2.02,0.52 2.02,1.55 0,0.49 -0.13,1.38 -0.39,2.67 -0.47,2.42 -0.7,4.35 -0.7,5.79 0,1.5 0.1,2.56 0.31,3.17 0.21,0.61 0.35,1.01 0.45,1.2 0.1,0.19 0.38,0.38 0.85,0.6 0.47,0.22 0.7,0.53 0.7,0.93 0,0.6 -0.3,1.1 -0.91,1.5 -0.61,0.4 -1.24,0.6 -1.89,0.6 -2.21,0 -3.2,-2.21 -2.97,-6.63zm-1.06 -9.77c-1.18,0 -2.73,1.31 -4.62,3.93 -1.89,2.63 -2.84,4.85 -2.84,6.68 0,0.96 0.2,1.44 0.6,1.44 1.38,0 3.09,-1.23 5.11,-3.68 2.02,-2.46 3.03,-4.61 3.03,-6.45 0,-0.59 -0.13,-1.05 -0.4,-1.4 -0.26,-0.35 -0.56,-0.52 -0.89,-0.52zm16.53 -14.14c1.27,0 1.91,0.69 1.91,2.08 0,0.63 -0.09,1.32 -0.26,2.05 -0.18,0.73 -0.66,2.55 -1.44,5.45 -0.58,2.1 -1.02,4.39 -1.32,6.87 -0.29,2.48 -0.45,4.42 -0.45,5.82 0,1.49 0.11,3.26 0.33,5.32 0.06,0.55 0.09,0.9 0.09,1.04 0,0.7 -0.26,1.3 -0.78,1.81 -0.52,0.5 -1.08,0.76 -1.69,0.76 -0.83,0 -1.42,-0.39 -1.76,-1.18 -0.34,-0.79 -0.51,-2.13 -0.51,-4.05 0,-4.12 0.48,-8.97 1.45,-14.56 0.97,-5.58 1.76,-8.88 2.37,-9.89 0.62,-1.01 1.3,-1.51 2.05,-1.51zm7.89 28.55c-0.2,0.82 -0.4,2.07 -0.6,3.73l-0.84 6.92c-0.14,1.13 -0.41,1.91 -0.82,2.34 -0.4,0.43 -0.9,0.65 -1.48,0.66 -0.53,-0.01 -1.03,-0.2 -1.51,-0.6 -0.47,-0.39 -0.71,-0.83 -0.71,-1.31 0,-0.95 0.14,-2.05 0.44,-3.29 1.75,-6.98 2.7,-14.23 2.87,-21.74l0 -0.35c0,-1.57 0.05,-2.62 0.13,-3.14 0.09,-0.52 0.34,-0.99 0.76,-1.38 0.42,-0.4 1.01,-0.6 1.77,-0.6 1.28,0 1.92,0.98 1.92,2.94 0,0.8 -0.14,2.16 -0.44,4.07l-0.17 1.21c1.33,-2.23 2.93,-4.08 4.76,-5.55 1.85,-1.47 3.5,-2.21 4.95,-2.21 1.32,0 2.43,0.47 3.35,1.41 0.92,0.94 1.38,2.12 1.38,3.54 0,3.79 -1.47,7.24 -4.41,10.35 -2.94,3.1 -5.85,4.65 -8.73,4.65 -1.36,0 -2.23,-0.54 -2.62,-1.64zm10.33 -14.31c-1.43,0 -3.29,1.4 -5.57,4.19 -2.28,2.79 -3.42,4.99 -3.42,6.59 0,0.41 0.2,0.78 0.61,1.1 0.41,0.32 0.88,0.49 1.42,0.49 1.49,0 3.2,-1.17 5.13,-3.52 1.93,-2.34 2.9,-4.6 2.9,-6.78 0,-0.73 -0.11,-1.26 -0.33,-1.57 -0.22,-0.32 -0.47,-0.49 -0.73,-0.49zm20.88 9.67c-3.09,4.07 -6.07,6.1 -8.94,6.1 -1.06,0 -1.97,-0.41 -2.73,-1.25 -0.76,-0.84 -1.15,-1.89 -1.15,-3.19 0,-3.11 1.39,-6.42 4.16,-9.94 2.76,-3.52 5.56,-5.27 8.38,-5.27 1.43,0 2.37,0.72 2.82,2.16 1.35,0 2.02,0.52 2.02,1.55 0,0.49 -0.13,1.38 -0.39,2.67 -0.47,2.42 -0.7,4.35 -0.7,5.79 0,1.5 0.1,2.56 0.31,3.17 0.21,0.61 0.35,1.01 0.45,1.2 0.1,0.19 0.38,0.38 0.85,0.6 0.47,0.22 0.7,0.53 0.7,0.93 0,0.6 -0.3,1.1 -0.91,1.5 -0.61,0.4 -1.24,0.6 -1.89,0.6 -2.21,0 -3.2,-2.21 -2.97,-6.63zm-1.06 -9.77c-1.18,0 -2.73,1.31 -4.62,3.93 -1.89,2.63 -2.84,4.85 -2.84,6.68 0,0.96 0.2,1.44 0.6,1.44 1.38,0 3.09,-1.23 5.11,-3.68 2.02,-2.46 3.03,-4.61 3.03,-6.45 0,-0.59 -0.13,-1.05 -0.4,-1.4 -0.26,-0.35 -0.56,-0.52 -0.89,-0.52zm24.88 13.09c-0.56,-1.06 -0.97,-3.03 -1.23,-5.91 -0.26,-3 -0.84,-4.51 -1.72,-4.51 -0.85,0 -2.31,1.56 -4.39,4.69 -2.07,3.13 -3.35,5.43 -3.83,6.92 -0.11,0.45 -0.31,0.82 -0.6,1.11 -0.28,0.29 -0.57,0.44 -0.85,0.44 -1.78,0 -2.67,-0.81 -2.67,-2.44 0,-0.55 0.17,-1.81 0.53,-3.77 0.46,-2.54 0.69,-5.63 0.69,-9.3 0,-0.55 0.24,-1.14 0.72,-1.77 0.48,-0.63 0.99,-0.94 1.53,-0.94 0.68,0 1.2,0.17 1.57,0.51 0.37,0.34 0.55,1.24 0.55,2.71 0,1.12 -0.34,3.27 -1,6.48 2.55,-5.96 5.38,-8.94 8.52,-8.94 2.72,0 4.32,2.14 4.79,6.42 0.47,4.37 1.01,6.55 1.62,6.55 0.27,0 0.58,-0.06 0.93,-0.17 0.43,-0.14 0.76,-0.21 1.01,-0.21 0.56,0 0.84,0.32 0.84,0.99 0,0.6 -0.38,1.23 -1.16,1.91 -0.77,0.67 -1.75,1.01 -2.93,1.01 -1.36,0 -2.33,-0.59 -2.92,-1.78l0.02 0zm-107.37 25.8c0,0.81 -0.69,1.79 -2.06,2.92 -1.37,1.13 -2.91,1.7 -4.64,1.7 -1.32,0 -2.36,-0.42 -3.12,-1.25 -0.76,-0.83 -1.14,-2 -1.14,-3.48 0,-2.19 0.77,-4.25 2.32,-6.16 1.55,-1.92 3.21,-2.88 4.96,-2.88 0.88,0 1.58,0.28 2.11,0.83 0.53,0.56 0.8,1.22 0.8,1.98 0,1.36 -0.65,2.66 -1.96,3.89 -1.31,1.23 -2.98,2.08 -5.02,2.56 -0.23,0.05 -0.35,0.19 -0.35,0.42 0,0.38 0.16,0.73 0.5,1.07 0.33,0.34 0.78,0.51 1.33,0.51 1.57,0 3.13,-0.81 4.68,-2.43 0.3,-0.31 0.58,-0.47 0.87,-0.47 0.47,0 0.71,0.26 0.71,0.79zm-7.88 -2.07c1.24,-0.25 2.33,-0.78 3.27,-1.59 0.94,-0.81 1.41,-1.54 1.41,-2.2 0,-0.26 -0.07,-0.47 -0.22,-0.65 -0.14,-0.18 -0.33,-0.26 -0.56,-0.26 -0.68,0 -1.43,0.5 -2.27,1.5 -0.83,1 -1.37,2.06 -1.64,3.19zm14.04 2.09c-1.39,1.31 -2.38,2.66 -2.97,4.07 -0.25,0.58 -0.52,1.03 -0.8,1.34 -0.68,-0.04 -1.18,-0.18 -1.5,-0.42 -0.32,-0.24 -0.48,-0.63 -0.48,-1.18 0,-0.48 0.21,-1.09 0.63,-1.8 0.42,-0.72 1.46,-1.84 3.12,-3.36 0.25,-0.23 0.46,-0.44 0.63,-0.61 -1.49,-2.19 -2.24,-3.9 -2.24,-5.13 0,-1.29 0.57,-1.94 1.7,-1.94 0.79,0 1.21,0.58 1.27,1.74 0.04,1.19 0.48,2.42 1.31,3.7 0.4,-0.37 0.84,-0.81 1.3,-1.31 0.13,-0.14 0.26,-0.27 0.38,-0.38 0.99,-1.04 1.7,-1.97 2.12,-2.77 0.28,-0.51 0.51,-0.84 0.7,-0.99 0.18,-0.15 0.46,-0.22 0.82,-0.22 0.4,0 0.74,0.14 1.03,0.42 0.29,0.28 0.43,0.62 0.43,1.03 0,0.85 -1.82,2.92 -5.46,6.21 1.23,1.52 2.56,2.66 3.95,3.44 0.17,0.1 0.34,0.22 0.49,0.36 0.06,0.15 0.1,0.31 0.1,0.48 0,0.4 -0.16,0.75 -0.48,1.05 -0.32,0.3 -0.71,0.45 -1.17,0.45 -1.16,0 -2.79,-1.4 -4.88,-4.19zm11.35 -1.39c1.3,-2.43 2.42,-4.09 3.36,-4.97 0.94,-0.88 1.9,-1.32 2.86,-1.32 0.67,0 1.22,0.23 1.66,0.68 0.45,0.46 0.77,1.65 0.97,3.58 0.09,0.91 0.2,1.65 0.33,2.22 0.13,0.56 0.28,1.06 0.45,1.5 0.16,0.43 0.4,0.84 0.7,1.23 0.24,0.3 0.35,0.6 0.35,0.88 0,0.28 -0.14,0.54 -0.4,0.77 -0.27,0.24 -0.58,0.35 -0.93,0.35 -0.7,0 -1.31,-0.38 -1.86,-1.14 -0.54,-0.76 -0.86,-1.81 -0.96,-3.14 -0.12,-1.64 -0.26,-2.68 -0.41,-3.14 -0.14,-0.45 -0.38,-0.68 -0.72,-0.68 -0.45,0 -1.34,0.91 -2.65,2.72 -1.31,1.81 -2.26,3.26 -2.83,4.35 -0.36,0.82 -0.64,1.35 -0.83,1.6 -0.2,0.24 -0.44,0.36 -0.73,0.36 -0.48,0 -0.87,-0.12 -1.16,-0.35 -0.3,-0.23 -0.44,-0.57 -0.44,-1 0,-0.21 0.1,-0.87 0.32,-1.98 0.8,-4.2 1.45,-8.67 1.96,-13.41 0.12,-1.14 0.36,-1.93 0.72,-2.37 0.36,-0.43 0.69,-0.65 0.98,-0.65 0.41,0 0.77,0.16 1.08,0.48 0.3,0.32 0.46,0.76 0.46,1.34 0,0.88 -0.11,1.89 -0.32,3.03 -0.21,1.14 -0.6,2.96 -1.18,5.47 -0.35,1.51 -0.61,2.71 -0.77,3.6zm18.84 -12.03c0,0.56 -0.25,1.05 -0.75,1.46 -0.5,0.42 -0.94,0.63 -1.31,0.63 -0.47,0 -0.89,-0.2 -1.25,-0.59 -0.36,-0.39 -0.55,-0.78 -0.55,-1.17 0,-0.56 0.18,-1.02 0.54,-1.37 0.36,-0.35 0.88,-0.52 1.55,-0.52 0.52,0 0.94,0.15 1.27,0.47 0.32,0.31 0.48,0.67 0.48,1.09zm-5.67 9.65l0 0.01c0.25,-1.43 0.38,-2.24 0.38,-2.44 0,-0.58 0.13,-1.06 0.38,-1.45 0.25,-0.39 0.61,-0.59 1.06,-0.59 0.53,0 0.95,0.13 1.25,0.38 0.3,0.25 0.45,0.53 0.45,0.85 0,0.31 -0.14,0.96 -0.43,1.94l-0.07 0.26c-0.43,1.51 -0.69,2.74 -0.77,3.7 -0.09,0.95 -0.13,1.73 -0.13,2.31 0,0.48 0.08,1.11 0.24,1.91 0.02,0.14 0.04,0.26 0.04,0.35 0,0.18 -0.17,0.42 -0.51,0.73 -0.34,0.3 -0.71,0.46 -1.1,0.46 -1.03,0 -1.55,-0.78 -1.55,-2.35 0,-1.33 0.19,-2.95 0.56,-4.86 0.08,-0.42 0.15,-0.82 0.21,-1.19zm7.24 -3.61c0.76,-4.5 1.31,-7.16 1.64,-7.99 0.33,-0.83 0.91,-1.24 1.74,-1.24 0.64,0 0.96,0.56 0.96,1.7 0,0.78 -0.32,2.38 -0.96,4.82 -0.34,1.21 -0.74,3.03 -1.22,5.47 0.97,-1.29 2.03,-2.34 3.18,-3.13 1.15,-0.8 2.17,-1.2 3.07,-1.2 0.73,0 1.35,0.31 1.84,0.95 0.49,0.63 0.73,1.37 0.73,2.22 0,2.41 -0.93,4.68 -2.78,6.79 -1.85,2.12 -3.81,3.18 -5.9,3.18 -0.62,0 -1.21,-0.17 -1.75,-0.51 -0.54,-0.34 -0.84,-0.78 -0.92,-1.31 -0.03,-0.29 -0.09,-0.48 -0.18,-0.58 -0.08,-0.09 -0.18,-0.2 -0.27,-0.31 -0.23,-0.23 -0.34,-0.56 -0.34,-0.98 0,-0.48 0.12,-1.49 0.36,-3.03l0.78 -4.86zm1.39 8.33c0.33,0.55 0.7,0.82 1.1,0.82 0.74,0 1.55,-0.34 2.45,-1.01 0.9,-0.68 1.67,-1.63 2.33,-2.86 0.66,-1.23 0.99,-2.25 0.99,-3.06 0,-0.77 -0.12,-1.16 -0.36,-1.16 -1.25,0 -2.64,0.91 -4.19,2.73 -1.55,1.82 -2.32,3.34 -2.32,4.55zm17.88 -14.38c0,0.56 -0.25,1.05 -0.75,1.46 -0.5,0.42 -0.94,0.63 -1.31,0.63 -0.47,0 -0.89,-0.2 -1.25,-0.59 -0.36,-0.39 -0.55,-0.78 -0.55,-1.17 0,-0.56 0.18,-1.02 0.54,-1.37 0.36,-0.35 0.88,-0.52 1.55,-0.52 0.52,0 0.94,0.15 1.27,0.47 0.32,0.31 0.48,0.67 0.48,1.09zm-5.67 9.65l0 0.01c0.25,-1.43 0.38,-2.24 0.38,-2.44 0,-0.58 0.13,-1.06 0.38,-1.45 0.25,-0.39 0.61,-0.59 1.06,-0.59 0.53,0 0.95,0.13 1.25,0.38 0.3,0.25 0.45,0.53 0.45,0.85 0,0.31 -0.14,0.96 -0.43,1.94l-0.07 0.26c-0.43,1.51 -0.69,2.74 -0.77,3.7 -0.09,0.95 -0.13,1.73 -0.13,2.31 0,0.48 0.08,1.11 0.24,1.91 0.02,0.14 0.04,0.26 0.04,0.35 0,0.18 -0.17,0.42 -0.51,0.73 -0.34,0.3 -0.71,0.46 -1.1,0.46 -1.03,0 -1.55,-0.78 -1.55,-2.35 0,-1.33 0.19,-2.95 0.56,-4.86 0.08,-0.42 0.15,-0.82 0.21,-1.19zm10.85 -1.74c-0.07,0 -0.29,0.87 -0.66,2.62 -0.37,1.75 -0.56,2.8 -0.56,3.17 0,0.64 0.07,1.09 0.2,1.35 0.14,0.25 0.36,0.38 0.67,0.38 0.44,0 0.86,-0.08 1.26,-0.23 0.4,-0.15 0.93,-0.5 1.59,-1.03 0.41,-0.34 0.75,-0.51 1.03,-0.51 0.23,0 0.41,0.06 0.54,0.19 0.14,0.13 0.21,0.28 0.21,0.45 0,0.69 -0.56,1.47 -1.67,2.34 -1.11,0.87 -2.29,1.31 -3.52,1.31 -1.03,0 -1.82,-0.3 -2.37,-0.92 -0.54,-0.61 -0.81,-1.49 -0.81,-2.63 0,-1.06 0.39,-3.16 1.19,-6.32 -0.5,0.06 -0.85,0.08 -1.04,0.08l-0.25 0c-0.36,0 -0.73,-0.12 -1.1,-0.35 -0.37,-0.24 -0.56,-0.61 -0.56,-1.13 0,-0.66 0.37,-0.99 1.12,-0.99l2.51 -0.09c0.33,-0.94 0.68,-2.19 1.04,-3.72 0.22,-0.95 0.72,-1.43 1.49,-1.43 0.43,0 0.77,0.13 1.01,0.39 0.24,0.26 0.36,0.55 0.36,0.87 0,0.12 -0.33,1.33 -1,3.63 2.49,-0.22 3.85,-0.33 4.1,-0.33 0.41,0 0.69,0.06 0.82,0.18 0.13,0.12 0.2,0.35 0.2,0.7 0,0.7 -0.59,1.14 -1.77,1.33l-4.05 0.68zm12.93 -7.91c0,0.56 -0.25,1.05 -0.75,1.46 -0.5,0.42 -0.94,0.63 -1.31,0.63 -0.47,0 -0.89,-0.2 -1.25,-0.59 -0.36,-0.39 -0.55,-0.78 -0.55,-1.17 0,-0.56 0.18,-1.02 0.54,-1.37 0.36,-0.35 0.88,-0.52 1.55,-0.52 0.52,0 0.94,0.15 1.27,0.47 0.32,0.31 0.48,0.67 0.48,1.09zm-5.67 9.65l0 0.01c0.25,-1.43 0.38,-2.24 0.38,-2.44 0,-0.58 0.13,-1.06 0.38,-1.45 0.25,-0.39 0.61,-0.59 1.06,-0.59 0.53,0 0.95,0.13 1.25,0.38 0.3,0.25 0.45,0.53 0.45,0.85 0,0.31 -0.14,0.96 -0.43,1.94l-0.07 0.26c-0.43,1.51 -0.69,2.74 -0.77,3.7 -0.09,0.95 -0.13,1.73 -0.13,2.31 0,0.48 0.08,1.11 0.24,1.91 0.02,0.14 0.04,0.26 0.04,0.35 0,0.18 -0.17,0.42 -0.51,0.73 -0.34,0.3 -0.71,0.46 -1.1,0.46 -1.03,0 -1.55,-0.78 -1.55,-2.35 0,-1.33 0.19,-2.95 0.56,-4.86 0.08,-0.42 0.15,-0.82 0.21,-1.19zm17.16 1.84c-0.52,1.83 -1.52,3.37 -2.99,4.63 -1.47,1.26 -2.93,1.89 -4.4,1.89 -1.16,0 -2.11,-0.42 -2.86,-1.27 -0.75,-0.85 -1.13,-1.89 -1.13,-3.13 0,-2.02 0.69,-4.01 2.06,-5.96 1.38,-1.96 3.05,-2.94 5.01,-2.94 1.34,0 2.42,0.5 3.25,1.49 0.83,0.99 1.24,2.17 1.24,3.54 0,0.6 -0.06,1.18 -0.2,1.75l0 0.01zm-6.1 -3.71c-0.55,0.48 -1.08,1.26 -1.61,2.32 -0.52,1.07 -0.78,2.13 -0.78,3.2 0,0.65 0.12,1.19 0.36,1.61 0.24,0.42 0.55,0.63 0.94,0.63 0.97,0 1.98,-0.57 3.03,-1.72 1.05,-1.15 1.57,-2.44 1.57,-3.87 0,-0.81 -0.17,-1.47 -0.51,-1.99 -0.34,-0.52 -0.82,-0.78 -1.43,-0.78 -0.58,0 -1.1,0.2 -1.56,0.6l-0.01 0zm18.42 7.94c-0.38,-0.71 -0.65,-2.02 -0.82,-3.94 -0.17,-2 -0.56,-3 -1.15,-3 -0.56,0 -1.54,1.04 -2.92,3.13 -1.38,2.08 -2.24,3.62 -2.56,4.61 -0.07,0.3 -0.2,0.55 -0.4,0.74 -0.19,0.2 -0.38,0.29 -0.57,0.29 -1.19,0 -1.78,-0.54 -1.78,-1.63 0,-0.37 0.12,-1.2 0.35,-2.51 0.3,-1.69 0.46,-3.75 0.46,-6.2 0,-0.37 0.16,-0.76 0.48,-1.18 0.32,-0.42 0.66,-0.63 1.02,-0.63 0.46,0 0.8,0.11 1.05,0.34 0.24,0.23 0.36,0.83 0.36,1.81 0,0.74 -0.22,2.18 -0.67,4.32 1.7,-3.97 3.59,-5.96 5.68,-5.96 1.81,0 2.88,1.43 3.19,4.28 0.31,2.91 0.67,4.37 1.08,4.37 0.18,0 0.39,-0.04 0.62,-0.12 0.28,-0.1 0.51,-0.14 0.67,-0.14 0.37,0 0.56,0.22 0.56,0.66 0,0.4 -0.26,0.82 -0.77,1.27 -0.52,0.45 -1.17,0.67 -1.95,0.67 -0.91,0 -1.55,-0.39 -1.95,-1.19l0.01 0z"/>
  </g>
 </g>
</svg>
