<?xml version="1.0" encoding="UTF-8"?>
<!DOCTYPE svg PUBLIC "-//W3C//DTD SVG 1.1//EN" "http://www.w3.org/Graphics/SVG/1.1/DTD/svg11.dtd">
<!-- Creator: CorelDRAW 2020 -->
<svg xmlns="http://www.w3.org/2000/svg" xml:space="preserve" width="18.7771mm" height="4.69mm" version="1.1" style="shape-rendering:geometricPrecision; text-rendering:geometricPrecision; image-rendering:optimizeQuality; fill-rule:evenodd; clip-rule:evenodd"
viewBox="0 0 213.53 53.33"
 xmlns:xlink="http://www.w3.org/1999/xlink"
 xmlns:xodm="http://www.corel.com/coreldraw/odm/2003">
 <defs>
  <style type="text/css">
   <![CDATA[
    .str0 {stroke:#6B470F;stroke-width:8.53;stroke-miterlimit:22.9256}
    .fil0 {fill:none}
    .fil1 {fill:#6B470F}
    .fil2 {fill:#6B470F;fill-rule:nonzero}
   ]]>
  </style>
 </defs>
 <g id="Layer_x0020_1">
  <metadata id="CorelCorpID_0Corel-Layer"/>
  <g id="_1075637928">
   <g id="atau-belgi.svg">
    <path class="fil0 str0" d="M35.67 4.82c-21.42,3.38 -28.56,16.83 -30.66,24.72 -1.84,6.84 -1.31,18.07 13.98,18.45 4.96,0 19.39,-0.04 31.22,0 14.69,0.04 18.79,-11.72 18.45,-21.83 -0.64,-18.35 -17.16,-23.82 -32.99,-21.34z"/>
    <path class="fil1" d="M16.43 30.82c0,-4.26 3.48,-7.74 7.74,-7.74 4.26,0 7.74,3.48 7.74,7.74 0,4.26 -3.48,7.74 -7.74,7.74 -4.26,0 -7.74,-3.48 -7.74,-7.74z"/>
   </g>
   <path class="fil2" d="M92.66 50.28l-13.87 0 0 -1.88 5.91 0 0 -5.98 -4.68 0 0 -1.88 11.42 0 0 1.88 -4.67 0 0 5.98 5.89 0 0 1.88zm19.28 -3.91l-4.46 1.28 0.96 5.09 -1.96 0.59 -1.01 -5.14 -5.09 1.28 -0.63 -1.96 5.35 -1.33 -0.46 -2.44 -3.51 0.88 -0.52 -1.99 3.66 -0.84 -0.75 -3.93 1.96 -0.63 0.81 4.02 3.45 -0.84 0.42 1.86 -3.51 0.88 0.48 2.45 4.46 -1.11 0.36 1.87zm13.98 -5.95l-1.34 1.26c-0.78,-1.21 -1.86,-2.18 -3.25,-2.93l1.2 -1.39c1.38,0.82 2.51,1.84 3.39,3.06zm5.91 4.31c-1.3,2.02 -2.72,3.67 -4.27,4.95 -1.55,1.29 -3.38,2.33 -5.5,3.13l-1.3 -1.54c2.24,-0.77 4.14,-1.76 5.7,-2.96 1.7,-1.3 3.18,-3 4.43,-5.07l0.94 1.49zm-7.28 0.38l-1.28 1.26c-1.27,-1.47 -2.59,-2.51 -3.98,-3.13l1.07 -1.6c1.7,0.83 3.1,1.99 4.19,3.47zm29.29 -6.76l-1.22 1.22c-0.71,-1.03 -1.6,-1.88 -2.68,-2.55l1.1 -1.22c1.12,0.58 2.06,1.42 2.81,2.55zm-1.88 1.5l-1.29 1.2c-0.55,-0.97 -1.42,-1.82 -2.62,-2.55l1.11 -1.21c1.11,0.58 2.05,1.43 2.81,2.55zm-0.97 2.49c-2.59,2.08 -5.24,3.6 -7.94,4.57l0 1.91c0,0.5 0.09,0.83 0.28,0.98 0.15,0.12 0.48,0.18 0.98,0.18l6.56 0 0 1.92 -6.58 0c-1.42,0 -2.32,-0.17 -2.69,-0.51 -0.4,-0.34 -0.6,-1.17 -0.6,-2.48l0 -9.57 2.05 0 0 5.51c2.53,-1.04 4.8,-2.43 6.83,-4.17l1.12 1.65zm15.04 -1.92l-1.34 1.26c-0.78,-1.21 -1.86,-2.18 -3.25,-2.93l1.2 -1.39c1.38,0.82 2.51,1.84 3.39,3.06zm5.91 4.31c-1.3,2.02 -2.72,3.67 -4.27,4.95 -1.55,1.29 -3.38,2.33 -5.5,3.13l-1.3 -1.54c2.24,-0.77 4.14,-1.76 5.7,-2.96 1.7,-1.3 3.18,-3 4.43,-5.07l0.94 1.49zm-7.28 0.38l-1.28 1.26c-1.27,-1.47 -2.59,-2.51 -3.98,-3.13l1.07 -1.6c1.7,0.83 3.1,1.99 4.19,3.47zm25.76 7.5l-1.99 0 0 -0.82 -6.39 0 0 -1.91 6.39 0 0 -1.82 -6.08 0 0 -1.91 6.08 0 0 -1.66 -6.39 0 0 -1.88 8.38 0 0 10.01zm15.52 -11.06l-1.37 1.66c-0.97,-1.2 -2.14,-2.31 -3.53,-3.33l1.26 -1.62c1.37,0.91 2.58,2 3.63,3.28zm6.15 2.21c-2.29,3.79 -5.65,6.74 -10.09,8.86l-1.44 -1.69c2,-0.87 3.86,-1.96 5.55,-3.26 2.12,-1.63 3.78,-3.44 4.98,-5.44l1 1.53zm-118.25 -37.26l-2.42 2.28c-1.4,-2.17 -3.35,-3.93 -5.85,-5.27l2.17 -2.5c2.48,1.47 4.51,3.3 6.1,5.5zm10.64 7.76c-2.33,3.63 -4.9,6.61 -7.68,8.92 -2.79,2.32 -6.08,4.2 -9.89,5.63l-2.34 -2.77c4.03,-1.38 7.45,-3.16 10.26,-5.33 3.07,-2.35 5.72,-5.39 7.97,-9.13l1.69 2.68zm-13.1 0.69l-2.31 2.28c-2.28,-2.64 -4.67,-4.53 -7.16,-5.64l1.93 -2.88c3.06,1.49 5.58,3.57 7.54,6.24zm86.95 -0.93c-2.83,5.29 -6.46,9.47 -10.88,12.55l-2.85 -1.59 0 -20.88 3.61 0 0 17.39c1.67,-1.44 3.07,-2.95 4.21,-4.51 1.08,-1.49 2.23,-3.47 3.44,-5.92l2.47 2.96zm-15.87 -4.16c0,5.4 -0.51,9.29 -1.52,11.65 -0.85,2.01 -2.77,4.2 -5.73,6.58l-2.45 -2.48c2.67,-2.03 4.35,-4 5.03,-5.9 0.69,-1.9 1.03,-5.56 1.03,-10.99l0 -3.23 3.63 0 0 4.37zm51.05 -4.15l-2.08 2.2c-1.28,-1.82 -2.91,-3.32 -4.89,-4.51l1.76 -2.43c1.9,0.97 3.63,2.56 5.2,4.74zm-2.96 3.28l-2.08 2.45c-1.16,-1.86 -2.73,-3.44 -4.71,-4.72l1.89 -2.31c1.88,1.12 3.51,2.65 4.9,4.59zm0.34 7.99l-1.31 3.21c-2.74,-2.16 -5.42,-3.79 -8.06,-4.88l0 14.37 -3.56 0 0 -28.3 3.56 0 0 10.1c3.12,1.34 6.24,3.17 9.36,5.5zm-66.11 2.06l-29.83 0 0 -4.69 29.83 0 0 4.69z"/>
  </g>
 </g>
</svg>
