<?xml version="1.0" encoding="UTF-8"?>
<!DOCTYPE svg PUBLIC "-//W3C//DTD SVG 1.1//EN" "http://www.w3.org/Graphics/SVG/1.1/DTD/svg11.dtd">
<!-- Creator: CorelDRAW 2020 -->
<svg xmlns="http://www.w3.org/2000/svg" xml:space="preserve" width="20mm" height="8mm" version="1.1" style="shape-rendering:geometricPrecision; text-rendering:geometricPrecision; image-rendering:optimizeQuality; fill-rule:evenodd; clip-rule:evenodd"
viewBox="0 0 227.11 90.84"
 xmlns:xlink="http://www.w3.org/1999/xlink"
 xmlns:xodm="http://www.corel.com/coreldraw/odm/2003">
 <defs>
  <style type="text/css">
   <![CDATA[
    .str0 {stroke:#C6B93A;stroke-width:8.52;stroke-miterlimit:22.9256}
    .str1 {stroke:#C6B93A;stroke-width:2.27;stroke-miterlimit:22.9256}
    .fil0 {fill:none}
    .fil1 {fill:#C6B93A}
    .fil2 {fill:#C6B93A;fill-rule:nonzero}
   ]]>
  </style>
 </defs>
 <g id="Layer_x0020_1">
  <metadata id="CorelCorpID_0Corel-Layer"/>
  <g id="_1224413560">
   <g id="atau-belgi.svg">
    <path class="fil0 str0" d="M45.85 17.85c-21.39,3.38 -28.51,16.81 -30.62,24.69 -1.84,6.83 -1.31,18.05 13.96,18.42 4.95,0 19.36,-0.04 31.18,0 14.67,0.04 18.76,-11.71 18.42,-21.8 -0.64,-18.33 -17.14,-23.78 -32.94,-21.31z"/>
    <path class="fil1" d="M26.63 43.81c0,-4.26 3.48,-7.73 7.73,-7.73 4.26,0 7.73,3.48 7.73,7.73 0,4.26 -3.48,7.73 -7.73,7.73 -4.26,0 -7.73,-3.47 -7.73,-7.73z"/>
   </g>
   <line class="fil0 str1" x1="9.93" y1="79.54" x2="218.06" y2= "79.54" />
   <path class="fil2" d="M110.64 43.52l-4.33 0 0 -5.62 -1.73 0 -3.11 -6.68c-0.05,-0.1 -0.15,-0.28 -0.3,-0.55 -0.08,-0.14 -0.3,-0.55 -0.65,-1.22 -0.58,-1.11 -1.03,-1.81 -1.33,-2.12 -0.51,-0.49 -1.26,-0.74 -2.25,-0.76l0 11.32 -5.23 0 0 -25.81 5.23 0 0 10.96c1.3,-0.13 2.26,-0.66 2.88,-1.6 0.16,-0.26 0.61,-1.36 1.36,-3.3 0.97,-2.54 1.95,-4.19 2.94,-4.96 1.1,-0.84 2.94,-1.26 5.55,-1.26 0.11,0 0.37,-0.01 0.76,-0.02l0 3.84 -0.74 -0.02c-1.74,-0.05 -2.91,0.49 -3.53,1.6 -0.31,0.54 -0.76,1.65 -1.35,3.33 -0.38,1.06 -0.73,1.82 -1.08,2.29 -0.42,0.61 -1.06,1.15 -1.91,1.64 1.17,0.32 2.13,0.99 2.88,1.98 0.84,1.12 1.67,2.52 2.48,4.22l1.3 2.75 2.16 0 0 9.99zm14.42 -11.52c-3.09,4.07 -6.07,6.1 -8.94,6.1 -1.06,0 -1.97,-0.41 -2.73,-1.25 -0.76,-0.84 -1.15,-1.89 -1.15,-3.19 0,-3.11 1.39,-6.42 4.16,-9.94 2.76,-3.52 5.56,-5.27 8.38,-5.27 1.43,0 2.37,0.72 2.82,2.16 1.35,0 2.02,0.52 2.02,1.55 0,0.49 -0.13,1.38 -0.39,2.67 -0.47,2.42 -0.7,4.35 -0.7,5.79 0,1.5 0.1,2.56 0.31,3.17 0.21,0.61 0.35,1.01 0.45,1.2 0.1,0.19 0.38,0.38 0.85,0.6 0.47,0.22 0.7,0.53 0.7,0.93 0,0.6 -0.3,1.1 -0.91,1.5 -0.61,0.4 -1.24,0.6 -1.89,0.6 -2.21,0 -3.2,-2.21 -2.97,-6.63zm-1.06 -9.77c-1.18,0 -2.73,1.31 -4.62,3.93 -1.89,2.63 -2.84,4.85 -2.84,6.68 0,0.96 0.2,1.44 0.6,1.44 1.38,0 3.09,-1.23 5.11,-3.68 2.02,-2.46 3.03,-4.61 3.03,-6.45 0,-0.59 -0.13,-1.05 -0.4,-1.4 -0.26,-0.35 -0.56,-0.52 -0.89,-0.52zm28.64 13.99c0,0.28 -0.19,0.68 -0.55,1.2 -0.37,0.52 -1.03,0.79 -1.98,0.79 -1.16,0 -2.2,-0.99 -3.11,-2.97 -0.92,-1.98 -1.57,-4.14 -1.98,-6.49 -0.14,-0.78 -0.32,-1.7 -0.56,-2.75 -0.05,-0.19 -0.1,-0.55 -0.16,-1.11 -0.05,-0.59 -0.1,-0.91 -0.14,-0.95 -0.19,0.37 -0.39,0.8 -0.6,1.29 -1.48,3.26 -3.08,6.23 -4.82,8.9l-0.21 0.4c-0.08,0.14 -0.17,0.26 -0.26,0.35 -1.45,2.61 -2.64,3.91 -3.57,3.91 -1.33,0 -1.99,-0.59 -1.99,-1.78 0,-0.91 0.62,-2.1 1.86,-3.57 1.51,-1.83 3.47,-5.04 5.86,-9.63l2.5 -4.79c0.26,-0.47 0.71,-0.7 1.35,-0.7 0.39,0 0.84,0.11 1.36,0.34 0.52,0.23 0.87,0.51 1.04,0.82 0.17,0.32 0.33,0.83 0.49,1.55 0.84,3.97 1.6,7.1 2.29,9.39 0.68,2.29 1.42,3.73 2.23,4.33 0.63,0.33 0.95,0.81 0.95,1.45l0 0.02zm17.69 -0.9c-0.56,-1.06 -0.97,-3.03 -1.23,-5.91 -0.26,-3 -0.84,-4.51 -1.72,-4.51 -0.85,0 -2.31,1.56 -4.39,4.69 -2.07,3.13 -3.35,5.43 -3.83,6.92 -0.11,0.45 -0.31,0.82 -0.6,1.11 -0.28,0.29 -0.57,0.44 -0.85,0.44 -1.78,0 -2.67,-0.81 -2.67,-2.44 0,-0.55 0.17,-1.81 0.53,-3.77 0.46,-2.54 0.69,-5.63 0.69,-9.3 0,-0.55 0.24,-1.14 0.72,-1.77 0.48,-0.63 0.99,-0.94 1.53,-0.94 0.68,0 1.2,0.17 1.57,0.51 0.37,0.34 0.55,1.24 0.55,2.71 0,1.12 -0.34,3.27 -1,6.48 2.55,-5.96 5.38,-8.94 8.52,-8.94 2.72,0 4.32,2.14 4.79,6.42 0.47,4.37 1.01,6.55 1.62,6.55 0.27,0 0.58,-0.06 0.93,-0.17 0.43,-0.14 0.76,-0.21 1.01,-0.21 0.56,0 0.84,0.32 0.84,0.99 0,0.6 -0.38,1.23 -1.16,1.91 -0.77,0.67 -1.75,1.01 -2.93,1.01 -1.36,0 -2.33,-0.59 -2.92,-1.78l0.02 0zm21 -3.29c-3.06,4.05 -6.01,6.08 -8.83,6.08 -1.06,0 -1.97,-0.41 -2.73,-1.25 -0.76,-0.84 -1.15,-1.89 -1.15,-3.19 0,-3.11 1.39,-6.42 4.16,-9.94 2.76,-3.52 5.56,-5.27 8.38,-5.27 1.43,0 2.37,0.72 2.82,2.16 1.35,0 2.02,0.52 2.02,1.55 0,0.49 -0.13,1.38 -0.39,2.67 -0.47,2.42 -0.7,4.35 -0.7,5.79 0,1.5 0.1,2.56 0.31,3.17 0.21,0.61 0.35,1.01 0.45,1.2 0.1,0.19 0.38,0.38 0.85,0.6 0.47,0.22 0.7,0.53 0.7,0.93 0,0.6 -0.3,1.1 -0.91,1.5 -0.61,0.4 -1.24,0.6 -1.89,0.6 -1.1,0 -1.9,-0.55 -2.38,-1.65 -0.49,-1.11 -0.73,-2.4 -0.73,-3.88l0 -0.53c0,-0.17 0.01,-0.35 0.03,-0.55zm-0.95 -9.8c-1.18,0 -2.73,1.31 -4.62,3.93 -1.89,2.63 -2.84,4.85 -2.84,6.68 0,0.96 0.2,1.44 0.6,1.44 1.38,0 3.09,-1.23 5.11,-3.68 2.02,-2.46 3.03,-4.61 3.03,-6.45 0,-0.59 -0.13,-1.05 -0.4,-1.4 -0.26,-0.35 -0.56,-0.52 -0.89,-0.52zm26.27 8.48c0.04,2.67 0.46,4.34 1.27,5 0.47,0.4 0.71,0.78 0.71,1.12 0,0.43 -0.3,0.82 -0.9,1.2 -0.6,0.38 -1.17,0.56 -1.71,0.56 -1.06,0 -1.87,-0.64 -2.44,-1.91 -0.57,-1.27 -0.85,-3.12 -0.85,-5.53l0 -1.23c0,-0.05 -0.26,-0.07 -0.79,-0.07 -1.24,0 -2.67,0.1 -4.28,0.31 -1.6,0.21 -2.41,0.45 -2.41,0.72 0,0.41 -0.12,1.04 -0.37,1.89 -0.13,0.41 -0.2,0.83 -0.2,1.28l0.07 1.48c0,0.81 -0.2,1.51 -0.62,2.1 -0.41,0.59 -1,0.88 -1.77,0.88 -1.38,0 -2.06,-0.77 -2.06,-2.33l0.07 -1.48c0,-0.36 0.12,-1.27 0.37,-2.75 0.33,-1.96 0.58,-4.48 0.76,-7.55l0.28 -3.8c0.02,-0.37 0.29,-0.77 0.8,-1.18 0.51,-0.41 1.08,-0.62 1.7,-0.62 1.27,0 1.9,0.47 1.9,1.43 0,0.01 -0.02,0.14 -0.05,0.4 -0.53,3.29 -0.79,5.38 -0.79,6.3 0,0.07 0.01,0.11 0.02,0.12 0.09,0.07 1.68,-0.04 4.77,-0.33 1.54,-0.16 2.46,-0.28 2.73,-0.37 0.15,-0.05 0.31,-1.09 0.47,-3.11 0.15,-1.88 0.46,-3.14 0.93,-3.78 0.46,-0.64 1.09,-0.96 1.89,-0.96 0.77,0 1.34,0.18 1.71,0.54 0.36,0.36 0.5,0.84 0.4,1.44l-0.3 1.32c-0.05,0.22 -0.14,0.58 -0.28,1.08 -0.69,2.36 -1.03,4.59 -1.03,6.69l0.01 1.17zm-120.08 28.46c0.35,0.09 0.68,0.24 0.98,0.46 0.31,0.22 0.67,0.62 1.09,1.2 0.81,1.13 1.46,1.87 1.93,2.22 0.47,0.35 0.98,0.52 1.53,0.52 0.58,0 0.87,0.18 0.87,0.54 0,0.35 -0.2,0.69 -0.6,1.05 -0.4,0.35 -1.03,0.53 -1.89,0.53 -1.32,0 -2.66,-1.09 -4.03,-3.28 -0.79,-1.28 -1.45,-1.92 -1.98,-1.92 -0.07,0 -0.26,0.05 -0.57,0.15 -0.31,0.1 -0.51,0.19 -0.61,0.28 -0.09,0.08 -0.17,0.58 -0.23,1.49l-0.13 2.16c-0.01,0.35 -0.16,0.66 -0.43,0.91 -0.27,0.25 -0.61,0.38 -1.02,0.38 -0.43,0 -0.77,-0.12 -1.01,-0.36 -0.24,-0.24 -0.36,-0.48 -0.36,-0.72 0,-0.3 0.1,-0.93 0.3,-1.91 0.47,-2.47 0.84,-5.48 1.11,-9.04 0.03,-0.45 0.22,-0.87 0.56,-1.25 0.34,-0.37 0.74,-0.56 1.21,-0.56 0.32,0 0.59,0.14 0.8,0.41 0.21,0.28 0.32,0.59 0.32,0.95 0,0.28 -0.05,0.57 -0.14,0.86 -0.12,0.34 -0.28,1.03 -0.5,2.07 -0.22,1.04 -0.35,1.84 -0.39,2.38 0.93,-0.28 1.65,-0.67 2.17,-1.17 0.52,-0.5 1.16,-1.3 1.92,-2.41 0.64,-0.91 1.25,-1.58 1.81,-2.01 0.57,-0.44 1.18,-0.65 1.86,-0.65 0.37,0 0.71,0.16 1.03,0.46 0.32,0.31 0.47,0.64 0.47,0.98 0,0.29 -0.09,0.51 -0.26,0.65 -0.18,0.14 -0.48,0.29 -0.92,0.42 -0.55,0.16 -1.15,0.61 -1.78,1.34 -1.31,1.51 -2.35,2.47 -3.1,2.88zm25.39 5.22c-0.16,0.63 -0.35,1.8 -0.58,3.5 -0.24,1.7 -0.38,2.84 -0.42,3.43 -0.04,0.58 -0.25,1.08 -0.6,1.48 -0.36,0.41 -0.68,0.61 -0.96,0.61 -0.35,-0 -0.7,-0.14 -1.04,-0.4 -0.35,-0.27 -0.52,-0.56 -0.52,-0.87 0,-0.63 0.1,-1.37 0.29,-2.2 1.17,-4.69 1.81,-9.52 1.93,-14.49l0 -0.24c0,-0.97 0.03,-1.62 0.09,-1.96 0.06,-0.34 0.26,-0.67 0.59,-0.98 0.33,-0.31 0.71,-0.47 1.16,-0.47 0.37,0 0.68,0.17 0.92,0.5 0.24,0.34 0.36,0.82 0.36,1.45 0,0.64 -0.12,1.77 -0.35,3.37 0.87,-1.45 1.91,-2.65 3.12,-3.6 1.21,-0.95 2.31,-1.43 3.31,-1.43 0.88,0 1.62,0.31 2.23,0.94 0.61,0.63 0.92,1.41 0.92,2.36 0,2.53 -0.98,4.83 -2.94,6.9 -1.96,2.07 -3.9,3.1 -5.82,3.1 -0.89,0 -1.45,-0.34 -1.68,-1.02zm6.82 -9.61c-0.95,0 -2.19,0.93 -3.71,2.79 -1.52,1.86 -2.28,3.32 -2.28,4.39 0,0.27 0.14,0.52 0.4,0.73 0.27,0.22 0.59,0.32 0.95,0.32 0.99,0 2.13,-0.78 3.42,-2.34 1.29,-1.56 1.93,-3.07 1.93,-4.52 0,-0.48 -0.07,-0.84 -0.22,-1.05 -0.15,-0.22 -0.31,-0.32 -0.48,-0.32zm5.44 9.54c0.69,-0.69 1.49,-2.11 2.4,-4.26 0.13,-0.29 0.27,-0.59 0.42,-0.9 0.15,-0.31 0.28,-0.62 0.38,-0.93 0.06,-0.16 0.14,-0.32 0.21,-0.48 0.29,-0.61 0.57,-1.39 0.85,-2.36 0.28,-0.96 0.46,-1.64 0.53,-2.04 0.12,-0.67 0.63,-1.01 1.53,-1.01 0.58,0 0.94,0.1 1.07,0.31 0.14,0.2 0.29,0.45 0.44,0.74 0.16,0.29 0.34,1.05 0.56,2.27 0.22,1.23 0.38,2.26 0.51,3.12 0.16,1.02 0.42,2.08 0.8,3.18 0.96,-2.22 1.82,-4.11 2.58,-5.65 0.75,-1.55 1.36,-2.7 1.82,-3.44 0.46,-0.75 0.79,-1.22 0.99,-1.39 0.2,-0.18 0.4,-0.26 0.61,-0.26 0.37,0 0.78,0.11 1.22,0.33 0.44,0.22 0.69,0.44 0.77,0.66 0.08,1.05 0.16,3.03 0.26,5.94 0.04,1.04 0.11,1.97 0.2,2.78 0.1,0.82 0.26,1.49 0.51,2.03 0.34,0.67 0.5,1.25 0.5,1.73 0,0.38 -0.15,0.7 -0.46,0.95 -0.3,0.25 -0.74,0.38 -1.3,0.38 -0.82,0 -1.37,-0.56 -1.63,-1.68 -0.26,-1.12 -0.39,-3.1 -0.39,-5.95 0,-0.42 0.04,-1.23 0.12,-2.42l0.04 -0.75c-1.08,2.07 -1.99,3.93 -2.74,5.57 -1.02,2.25 -1.71,3.61 -2.09,4.09 -0.38,0.48 -0.79,0.72 -1.23,0.72l-0.19 0c-0.57,0 -1.01,-0.15 -1.3,-0.44 -0.3,-0.29 -0.62,-1.15 -0.97,-2.58 -0.35,-1.43 -0.61,-2.81 -0.79,-4.15 -0.08,-0.55 -0.15,-0.91 -0.21,-1.09 -0.31,1.13 -0.51,1.79 -0.6,2.01 -0.02,0.03 -0.04,0.1 -0.08,0.22 -0.24,0.72 -0.6,1.63 -1.09,2.74 -0.49,1.11 -0.94,1.97 -1.35,2.6 -0.42,0.63 -0.73,1.02 -0.95,1.16 -0.22,0.14 -0.48,0.22 -0.77,0.22 -0.32,0 -0.64,-0.12 -0.95,-0.37 -0.32,-0.24 -0.47,-0.52 -0.47,-0.84 0,-0.29 0.08,-0.52 0.25,-0.72l0.02 -0.02zm31.92 -3.2c0,0.81 -0.69,1.79 -2.06,2.92 -1.37,1.13 -2.91,1.7 -4.64,1.7 -1.32,0 -2.36,-0.42 -3.12,-1.25 -0.76,-0.83 -1.14,-2 -1.14,-3.48 0,-2.19 0.77,-4.25 2.32,-6.16 1.55,-1.92 3.21,-2.88 4.96,-2.88 0.88,0 1.58,0.28 2.11,0.83 0.53,0.56 0.8,1.22 0.8,1.98 0,1.36 -0.65,2.66 -1.96,3.89 -1.31,1.23 -2.98,2.08 -5.02,2.56 -0.23,0.05 -0.35,0.19 -0.35,0.42 0,0.38 0.16,0.73 0.5,1.07 0.33,0.34 0.78,0.51 1.33,0.51 1.57,0 3.13,-0.81 4.68,-2.43 0.3,-0.31 0.58,-0.47 0.87,-0.47 0.47,0 0.71,0.26 0.71,0.79zm-7.88 -2.07c1.24,-0.25 2.33,-0.78 3.27,-1.59 0.94,-0.81 1.41,-1.54 1.41,-2.2 0,-0.26 -0.07,-0.47 -0.22,-0.65 -0.14,-0.18 -0.33,-0.26 -0.56,-0.26 -0.68,0 -1.43,0.5 -2.27,1.5 -0.83,1 -1.37,2.06 -1.64,3.19zm13.28 6.76c-1.29,0 -2.27,-0.35 -2.94,-1.06 -0.67,-0.7 -1.01,-1.68 -1.01,-2.93 0,-1.97 0.8,-4.1 2.41,-6.4 1.6,-2.29 3.18,-3.44 4.71,-3.44 0.74,0 1.38,0.37 1.9,1.11 0.52,0.74 0.78,1.51 0.78,2.3 0,0.75 -0.14,1.26 -0.42,1.52 -0.28,0.26 -0.55,0.39 -0.8,0.39 -0.76,0 -1.2,-0.52 -1.33,-1.57 -0.1,-0.77 -0.29,-1.15 -0.58,-1.15 -0.61,0 -1.42,0.87 -2.42,2.61 -1,1.74 -1.5,3.26 -1.5,4.56 0,1.06 0.57,1.59 1.71,1.59 1.26,0 2.53,-0.44 3.81,-1.34 0.61,-0.43 1.08,-0.64 1.43,-0.64 0.43,0 0.64,0.21 0.64,0.64 0,0.6 -0.69,1.39 -2.07,2.35 -1.38,0.97 -2.83,1.45 -4.35,1.45zm12.64 -15.73c-0.24,0 -0.41,-0.04 -0.5,-0.12 -0.09,-0.08 -0.17,-0.25 -0.23,-0.5 -0.03,-0.13 -0.09,-0.28 -0.18,-0.45 -0.23,-0.52 -0.34,-0.98 -0.34,-1.4 0,-0.38 0.22,-0.76 0.67,-1.15 0.45,-0.38 0.95,-0.58 1.5,-0.58 0.3,0 0.64,0.12 1.02,0.37 0.38,0.24 0.57,0.48 0.57,0.71 0,0.3 -0.11,0.77 -0.33,1.43 -0.22,0.66 -0.58,1.1 -1.08,1.33 -0.5,0.23 -0.87,0.35 -1.12,0.35zm-3.13 7.29l0 0.01c0.25,-1.43 0.38,-2.24 0.38,-2.44 0,-0.58 0.13,-1.06 0.38,-1.45 0.25,-0.39 0.61,-0.59 1.06,-0.59 0.53,0 0.95,0.13 1.25,0.38 0.3,0.25 0.45,0.53 0.45,0.85 0,0.31 -0.14,0.96 -0.43,1.94l-0.07 0.26c-0.43,1.51 -0.69,2.74 -0.77,3.7 -0.09,0.95 -0.13,1.73 -0.13,2.31 0,0.48 0.08,1.11 0.24,1.91 0.02,0.14 0.04,0.26 0.04,0.35 0,0.18 -0.17,0.42 -0.51,0.73 -0.34,0.3 -0.71,0.46 -1.1,0.46 -1.03,0 -1.55,-0.78 -1.55,-2.35 0,-1.39 0.19,-3.01 0.56,-4.86 0.09,-0.42 0.16,-0.82 0.21,-1.19zm-64.07 1.54c0,1.88 -0.6,3.45 -1.81,4.69 -1.21,1.25 -2.74,1.87 -4.61,1.87 -1.17,0 -2.26,-0.26 -3.25,-0.77 -1.06,-0.55 -1.85,-1.32 -2.39,-2.31 -0.54,-0.99 -0.81,-2.2 -0.81,-3.63 0,-1.14 0.27,-2.2 0.81,-3.2 0.57,-1.03 1.33,-1.81 2.32,-2.35 0.98,-0.54 2.07,-0.81 3.29,-0.81 1.9,0 3.44,0.61 4.64,1.82 1.2,1.21 1.8,2.77 1.8,4.67zm-3.48 -1.03c-0.14,-0.81 -0.46,-1.46 -0.95,-1.96 -0.54,-0.53 -1.21,-0.8 -2,-0.8 -0.86,0 -1.58,0.33 -2.17,0.99 -0.41,0.45 -0.67,1.04 -0.8,1.77l5.91 0zm0.01 2.02l-5.94 0c0.12,0.84 0.44,1.52 0.94,2.04 0.54,0.56 1.22,0.85 2.04,0.85 0.82,0 1.5,-0.28 2.03,-0.85 0.49,-0.52 0.8,-1.19 0.93,-2.04z"/>
  </g>
  <polygon class="fil0" points="-0,0 227.11,0 227.11,90.84 -0,90.84 "/>
 </g>
</svg>
