<?xml version="1.0" encoding="UTF-8"?>
<!DOCTYPE svg PUBLIC "-//W3C//DTD SVG 1.1//EN" "http://www.w3.org/Graphics/SVG/1.1/DTD/svg11.dtd">
<!-- Creator: CorelDRAW 2020 -->
<svg xmlns="http://www.w3.org/2000/svg" xml:space="preserve" width="11.8679mm" height="5.0437mm" version="1.1" style="shape-rendering:geometricPrecision; text-rendering:geometricPrecision; image-rendering:optimizeQuality; fill-rule:evenodd; clip-rule:evenodd"
viewBox="0 0 81.68 34.71"
 xmlns:xlink="http://www.w3.org/1999/xlink"
 xmlns:xodm="http://www.corel.com/coreldraw/odm/2003">
 <defs>
  <style type="text/css">
   <![CDATA[
    .str0 {stroke:#C6B93A;stroke-width:5.16;stroke-miterlimit:22.9256}
    .fil0 {fill:none}
    .fil1 {fill:#C6B93A}
    .fil2 {fill:#C6B93A;fill-rule:nonzero}
   ]]>
  </style>
 </defs>
 <g id="Layer_x0020_1">
  <metadata id="CorelCorpID_0Corel-Layer"/>
  <g id="_1303938768">
   <g id="atau-belgi.svg">
    <path class="fil0 str0" d="M21.59 2.92c-12.96,2.05 -17.28,10.19 -18.56,14.96 -1.11,4.14 -0.8,10.94 8.46,11.16 3,0 11.73,-0.02 18.9,0 8.89,0.02 11.37,-7.09 11.17,-13.21 -0.39,-11.11 -10.39,-14.41 -19.96,-12.92z"/>
    <path class="fil1" d="M9.94 18.65c0,-2.58 2.11,-4.69 4.69,-4.69 2.58,0 4.69,2.11 4.69,4.69 0,2.58 -2.11,4.69 -4.69,4.69 -2.58,0 -4.69,-2.11 -4.69,-4.69z"/>
   </g>
   <path class="fil2" d="M56.92 12.59l-5.38 0c-0.52,0 -0.92,-0.11 -1.2,-0.33 -0.34,-0.27 -0.51,-0.71 -0.51,-1.32 0,-0.35 0.02,-0.73 0.06,-1.13 0.04,-0.4 0.09,-0.81 0.16,-1.23l0.49 -0.02c0.06,0.28 0.2,0.48 0.42,0.61 0.21,0.13 0.48,0.19 0.78,0.19l4.06 0c-0.18,-1.17 -0.5,-2.09 -0.95,-2.79 -0.37,-0.58 -0.89,-1.08 -1.55,-1.5l0.86 -3.7c1.02,0.77 1.74,1.76 2.17,2.97 0.39,1.12 0.59,2.6 0.59,4.44l0 3.81zm10.51 0.27c0,0.48 -0.27,1.12 -0.83,1.91 -0.55,0.79 -1.2,1.48 -1.95,2.07 -0.82,0.65 -1.53,0.97 -2.11,0.97 -0.7,0 -1.44,-0.19 -2.24,-0.59 -0.7,-0.34 -1.78,-1.01 -3.26,-2.02l0.47 -0.77c0.71,0.48 1.29,0.8 1.72,0.96 0.44,0.17 0.91,0.25 1.41,0.25 0.55,0 1.09,-0.15 1.64,-0.46 0.55,-0.31 1.29,-0.88 2.23,-1.72 1.32,-1.17 1.97,-2.07 1.97,-2.7 0,-0.32 -0.13,-0.73 -0.38,-1.25 -0.29,-0.58 -0.64,-1.07 -1.05,-1.46l0.67 -3.19c0.55,0.55 0.97,1.19 1.27,1.91 0.3,0.72 0.44,1.53 0.44,2.45l0 3.63zm12.98 5.37l-4.48 2.77 -1.21 0.02c-2.21,0 -3.87,-0.47 -5,-1.42 -1.13,-0.95 -1.69,-2.33 -1.69,-4.16 0,-1.18 0.15,-2.22 0.46,-3.12 0.34,-1.02 0.9,-1.91 1.66,-2.67 -0.4,-0.45 -0.74,-0.97 -1.04,-1.57 -0.3,-0.59 -0.45,-1.07 -0.45,-1.44 0,-0.45 0.17,-1.13 0.51,-2.02 0.34,-0.89 0.68,-1.53 1.01,-1.89 0.27,-0.34 0.68,-0.61 1.22,-0.81 0.54,-0.2 1.12,-0.3 1.75,-0.3 0.87,0 1.68,0.2 2.41,0.6 0.74,0.4 1.36,0.98 1.87,1.73 -0.24,0 -0.47,-0 -0.68,-0.01 -0.21,-0.01 -0.44,-0.02 -0.68,-0.04 -1.64,0 -2.97,0.13 -3.97,0.39 -1.01,0.26 -1.52,0.6 -1.52,1.03 0,0.33 0.17,0.66 0.52,1 0.41,0.4 1.08,0.79 1.99,1.19 1.09,-0.47 1.93,-0.81 2.52,-0.99 0.59,-0.18 1.5,-0.42 2.73,-0.69 -0.22,0.69 -0.39,1.19 -0.51,1.51 -0.15,0.36 -0.35,0.83 -0.63,1.41 -2.4,0.57 -4.31,1.36 -5.71,2.38 -1.4,1.02 -2.11,2.1 -2.11,3.26 0,1.08 0.6,1.91 1.81,2.49 1.38,0.66 3.55,1 6.5,1l0.29 0c0.47,0 0.81,-0.01 1.02,-0.02 0.21,-0.01 0.61,-0.04 1.18,-0.1l0.22 0.49zm-25.77 13.34c-0.5,0 -1.09,-0.1 -1.77,-0.29 -0.6,-0.17 -1.12,-0.37 -1.58,-0.6 -0.27,0.41 -0.61,0.68 -1.01,0.81 -0.19,0.06 -0.46,0.09 -0.79,0.09l-1.4 0 0 -1.94 1.4 0c0.43,0 0.76,-0.05 1.01,-0.16 0.32,-0.13 0.54,-0.36 0.67,-0.69 0.27,-0.6 0.62,-1.1 1.04,-1.49 0.38,-0.35 0.69,-0.52 0.96,-0.52 0.25,0 0.54,0.36 0.9,1.09 0.38,0.77 0.57,1.48 0.57,2.13l0 1.55zm-1.34 -2.15c0,-0.1 -0.1,-0.28 -0.31,-0.54 -0.23,-0.28 -0.43,-0.43 -0.59,-0.43 -0.18,0 -0.34,0.21 -0.47,0.64 0.25,0.09 0.43,0.17 0.56,0.21 0.39,0.14 0.6,0.21 0.65,0.21 0.1,0 0.16,-0.03 0.16,-0.1zm6.58 2.17l-1.05 0c-0.37,0 -0.7,-0.08 -0.99,-0.23 -0.28,-0.15 -0.51,-0.4 -0.69,-0.73 -0.31,0.38 -0.71,0.65 -1.2,0.8 -0.33,0.1 -0.68,0.16 -1.06,0.16l-0.75 0 0 -1.94 0.75 0c0.39,0 0.67,-0.02 0.83,-0.06 0.16,-0.04 0.37,-0.13 0.64,-0.27 -0.14,-0.28 -0.27,-0.49 -0.37,-0.61 -0.13,-0.15 -0.26,-0.22 -0.4,-0.22 -0.05,0 -0.1,0.02 -0.15,0.05 -0.05,0.04 -0.1,0.11 -0.16,0.21l-0.31 -0.04c0,-0.86 0.15,-1.47 0.44,-1.84 0.3,-0.37 0.77,-0.55 1.41,-0.55 0.66,0 1.18,0.13 1.56,0.39 0.38,0.26 0.57,0.61 0.57,1.06 0,0.24 -0.05,0.47 -0.15,0.69 -0.1,0.22 -0.29,0.52 -0.56,0.9 0.07,0.09 0.16,0.16 0.27,0.22 0.11,0.05 0.22,0.08 0.33,0.08l1.05 0 0 1.94zm6.31 0.16c0,0.29 -0.17,0.67 -0.5,1.15 -0.33,0.48 -0.72,0.89 -1.17,1.24 -0.49,0.39 -0.92,0.58 -1.27,0.58 -0.42,0 -0.86,-0.12 -1.35,-0.35 -0.42,-0.2 -1.07,-0.61 -1.96,-1.21l0.28 -0.46c0.43,0.29 0.77,0.48 1.03,0.58 0.26,0.1 0.54,0.15 0.85,0.15 0.33,0 0.66,-0.09 0.98,-0.28 0.33,-0.18 0.77,-0.53 1.34,-1.03 0.79,-0.7 1.18,-1.24 1.18,-1.62 0,-0.19 -0.08,-0.44 -0.23,-0.75 -0.17,-0.35 -0.38,-0.64 -0.63,-0.87l0.4 -1.92c0.33,0.33 0.58,0.71 0.76,1.15 0.18,0.43 0.27,0.92 0.27,1.47l0 2.18zm15.48 -0.16l-7.61 0c0,1.1 -0.35,1.89 -1.05,2.38 -0.61,0.41 -1.53,0.62 -2.77,0.62 -1.15,0 -2.04,-0.21 -2.67,-0.63 -0.62,-0.42 -0.93,-1.02 -0.93,-1.79 0,-0.66 0.1,-1.26 0.3,-1.81 0.22,-0.6 0.65,-1.38 1.28,-2.35l0.43 0.3c-0.47,0.8 -0.78,1.39 -0.93,1.75 -0.15,0.36 -0.22,0.74 -0.22,1.12 0,0.5 0.27,0.91 0.8,1.22 0.53,0.32 1.23,0.47 2.1,0.47 0.85,0 1.57,-0.17 2.15,-0.49 0.58,-0.33 0.87,-0.73 0.87,-1.21 0,-0.29 -0.05,-0.59 -0.15,-0.88 -0.1,-0.29 -0.32,-0.75 -0.65,-1.39l0.62 -1.92c0.26,0.5 0.42,0.79 0.45,0.87 0.14,0.29 0.24,0.56 0.29,0.81 0.06,0.25 0.08,0.58 0.08,0.97 0.31,0 0.59,-0.08 0.84,-0.24 0.03,-0.02 0.26,-0.18 0.71,-0.5l2.55 -1.82c0.4,-0.28 0.7,-0.47 0.9,-0.57 0.27,-0.13 0.55,-0.2 0.83,-0.2 0.53,0 0.95,0.19 1.25,0.56 0.35,0.43 0.53,1.09 0.53,1.97l0 2.73zm-0.93 -2.67c0,-0.18 -0.15,-0.34 -0.44,-0.48 -0.29,-0.14 -0.65,-0.21 -1.06,-0.21 -0.32,0 -0.67,0.1 -1.06,0.3 -0.39,0.2 -0.96,0.57 -1.71,1.11l1.87 0c1.6,0 2.4,-0.24 2.4,-0.73zm-2.77 -4.98l-0.85 1.6 -1.67 -0.87 0.87 -1.61 1.65 0.88z"/>
  </g>
 </g>
</svg>
