<?xml version="1.0" encoding="UTF-8"?>
<!DOCTYPE svg PUBLIC "-//W3C//DTD SVG 1.1//EN" "http://www.w3.org/Graphics/SVG/1.1/DTD/svg11.dtd">
<!-- Creator: CorelDRAW 2020 -->
<svg xmlns="http://www.w3.org/2000/svg" xml:space="preserve" width="29mm" height="8mm" version="1.1" style="shape-rendering:geometricPrecision; text-rendering:geometricPrecision; image-rendering:optimizeQuality; fill-rule:evenodd; clip-rule:evenodd"
viewBox="0 0 516.02 142.35"
 xmlns:xlink="http://www.w3.org/1999/xlink"
 xmlns:xodm="http://www.corel.com/coreldraw/odm/2003">
 <defs>
  <style type="text/css">
   <![CDATA[
    .str1 {stroke:#C6B93A;stroke-width:13.35;stroke-miterlimit:22.9256}
    .str0 {stroke:#C6B93A;stroke-width:3.56;stroke-miterlimit:22.9256}
    .fil0 {fill:none}
    .fil2 {fill:#C6B93A}
    .fil1 {fill:#C6B93A;fill-rule:nonzero}
   ]]>
  </style>
 </defs>
 <g id="Layer_x0020_1">
  <metadata id="CorelCorpID_0Corel-Layer"/>
  <polygon class="fil0" points="-0,0 516.02,0 516.02,142.35 -0,142.35 "/>
  <path class="fil1" d="M180.46 80.62l-6.78 0 0 -8.81 -2.71 0 -4.87 -10.47c-0.07,-0.15 -0.23,-0.43 -0.47,-0.86 -0.13,-0.23 -0.47,-0.86 -1.02,-1.91 -0.91,-1.73 -1.61,-2.83 -2.09,-3.31 -0.8,-0.77 -1.98,-1.17 -3.53,-1.19l0 17.74 -8.19 0 0 -40.45 8.19 0 0 17.17c2.03,-0.2 3.54,-1.04 4.51,-2.51 0.24,-0.4 0.95,-2.13 2.13,-5.18 1.52,-3.98 3.06,-6.57 4.6,-7.77 1.72,-1.32 4.61,-1.98 8.7,-1.98 0.18,0 0.57,-0.01 1.19,-0.03l0 6.02 -1.16 -0.03c-2.72,-0.08 -4.57,0.76 -5.54,2.51 -0.48,0.85 -1.19,2.58 -2.12,5.22 -0.59,1.66 -1.15,2.85 -1.69,3.59 -0.66,0.95 -1.66,1.81 -2.99,2.56 1.83,0.51 3.34,1.55 4.52,3.11 1.32,1.75 2.62,3.95 3.88,6.62l2.04 4.3 3.39 0 0 15.65zm22.6 -18.05c-4.84,6.37 -9.51,9.57 -14.01,9.57 -1.66,0 -3.09,-0.65 -4.27,-1.96 -1.2,-1.31 -1.8,-2.97 -1.8,-4.99 0,-4.88 2.17,-10.07 6.52,-15.57 4.33,-5.51 8.71,-8.26 13.12,-8.26 2.24,0 3.72,1.13 4.42,3.39 2.11,0 3.17,0.81 3.17,2.43 0,0.77 -0.21,2.17 -0.61,4.19 -0.73,3.78 -1.1,6.82 -1.1,9.08 0,2.35 0.16,4.01 0.48,4.96 0.33,0.96 0.56,1.58 0.71,1.88 0.15,0.29 0.59,0.6 1.33,0.93 0.73,0.35 1.1,0.84 1.1,1.46 0,0.94 -0.47,1.72 -1.42,2.35 -0.95,0.63 -1.94,0.94 -2.97,0.94 -3.46,0 -5.01,-3.46 -4.66,-10.4zm-1.66 -15.31c-1.86,0 -4.28,2.05 -7.24,6.16 -2.97,4.12 -4.45,7.6 -4.45,10.47 0,1.51 0.31,2.26 0.94,2.26 2.17,0 4.84,-1.92 8.01,-5.77 3.17,-3.86 4.75,-7.22 4.75,-10.11 0,-0.92 -0.21,-1.65 -0.62,-2.19 -0.41,-0.55 -0.88,-0.81 -1.39,-0.81zm25.9 -22.16c1.99,0 2.99,1.08 2.99,3.26 0,0.99 -0.14,2.06 -0.41,3.21 -0.28,1.15 -1.04,3.99 -2.26,8.54 -0.9,3.29 -1.59,6.88 -2.06,10.77 -0.46,3.89 -0.7,6.93 -0.7,9.11 0,2.34 0.17,5.11 0.52,8.33 0.09,0.87 0.14,1.4 0.14,1.63 0,1.1 -0.41,2.04 -1.22,2.83 -0.81,0.79 -1.69,1.19 -2.65,1.19 -1.31,0 -2.23,-0.61 -2.76,-1.85 -0.54,-1.23 -0.8,-3.34 -0.8,-6.35 0,-6.45 0.75,-14.06 2.28,-22.82 1.52,-8.75 2.76,-13.92 3.72,-15.5 0.97,-1.58 2.03,-2.37 3.21,-2.37zm12.36 44.74c-0.31,1.29 -0.63,3.24 -0.94,5.85l-1.32 10.84c-0.23,1.77 -0.65,2.99 -1.29,3.67 -0.63,0.68 -1.41,1.02 -2.33,1.03 -0.83,-0.01 -1.62,-0.31 -2.36,-0.93 -0.74,-0.61 -1.11,-1.3 -1.11,-2.05 0,-1.49 0.23,-3.21 0.69,-5.16 2.74,-10.94 4.24,-22.3 4.49,-34.07l0 -0.56c0,-2.46 0.07,-4.11 0.21,-4.91 0.14,-0.82 0.54,-1.54 1.19,-2.17 0.66,-0.63 1.58,-0.94 2.78,-0.94 2.01,0 3,1.54 3,4.61 0,1.25 -0.23,3.38 -0.69,6.38l-0.27 1.9c2.09,-3.49 4.59,-6.39 7.47,-8.7 2.89,-2.31 5.48,-3.46 7.76,-3.46 2.06,0 3.81,0.73 5.25,2.2 1.44,1.48 2.17,3.32 2.17,5.55 0,5.94 -2.31,11.35 -6.91,16.21 -4.61,4.86 -9.16,7.29 -13.67,7.29 -2.13,0 -3.5,-0.85 -4.11,-2.56zm16.19 -22.43c-2.24,0 -5.15,2.19 -8.73,6.56 -3.58,4.38 -5.37,7.82 -5.37,10.32 0,0.64 0.32,1.22 0.95,1.72 0.64,0.51 1.38,0.76 2.22,0.76 2.33,0 5.02,-1.84 8.04,-5.51 3.03,-3.66 4.54,-7.21 4.54,-10.63 0,-1.14 -0.17,-1.97 -0.52,-2.47 -0.35,-0.51 -0.73,-0.76 -1.14,-0.76zm32.72 15.15c-4.84,6.37 -9.51,9.57 -14.01,9.57 -1.66,0 -3.09,-0.65 -4.27,-1.96 -1.2,-1.31 -1.8,-2.97 -1.8,-4.99 0,-4.88 2.17,-10.07 6.52,-15.57 4.33,-5.51 8.71,-8.26 13.12,-8.26 2.24,0 3.72,1.13 4.42,3.39 2.11,0 3.17,0.81 3.17,2.43 0,0.77 -0.21,2.17 -0.61,4.19 -0.73,3.78 -1.1,6.82 -1.1,9.08 0,2.35 0.16,4.01 0.48,4.96 0.33,0.96 0.56,1.58 0.71,1.88 0.15,0.29 0.59,0.6 1.33,0.93 0.73,0.35 1.1,0.84 1.1,1.46 0,0.94 -0.47,1.72 -1.42,2.35 -0.95,0.63 -1.94,0.94 -2.97,0.94 -3.46,0 -5.01,-3.46 -4.66,-10.4zm-1.66 -15.31c-1.86,0 -4.28,2.05 -7.24,6.16 -2.97,4.12 -4.45,7.6 -4.45,10.47 0,1.51 0.31,2.26 0.94,2.26 2.17,0 4.84,-1.92 8.01,-5.77 3.17,-3.86 4.75,-7.22 4.75,-10.11 0,-0.92 -0.21,-1.65 -0.62,-2.19 -0.41,-0.55 -0.88,-0.81 -1.39,-0.81zm38.98 20.52c-0.88,-1.66 -1.52,-4.75 -1.93,-9.27 -0.41,-4.71 -1.31,-7.06 -2.7,-7.06 -1.33,0 -3.62,2.45 -6.87,7.35 -3.25,4.9 -5.25,8.51 -6.01,10.85 -0.17,0.71 -0.48,1.28 -0.93,1.74 -0.44,0.46 -0.9,0.69 -1.34,0.69 -2.79,0 -4.19,-1.27 -4.19,-3.83 0,-0.87 0.27,-2.83 0.83,-5.9 0.72,-3.97 1.07,-8.82 1.07,-14.57 0,-0.87 0.38,-1.79 1.13,-2.77 0.75,-0.99 1.55,-1.48 2.4,-1.48 1.07,0 1.88,0.26 2.46,0.8 0.57,0.54 0.86,1.95 0.86,4.25 0,1.75 -0.53,5.13 -1.57,10.15 3.99,-9.34 8.44,-14.01 13.35,-14.01 4.27,0 6.77,3.35 7.5,10.07 0.73,6.85 1.58,10.26 2.53,10.26 0.42,0 0.91,-0.09 1.46,-0.27 0.67,-0.23 1.19,-0.33 1.58,-0.33 0.88,0 1.32,0.51 1.32,1.54 0,0.93 -0.6,1.93 -1.82,2.99 -1.21,1.06 -2.74,1.58 -4.59,1.58 -2.13,0 -3.65,-0.92 -4.58,-2.79l0.03 0zm-173.32 35.17c0.16,-0.21 1.25,-1.2 3.29,-2.96 1.93,-1.68 3.27,-2.9 4.03,-3.66 2.83,-2.83 4.86,-4.25 6.11,-4.25 0.95,0 1.43,0.46 1.43,1.38 0,1.04 -0.47,1.81 -1.41,2.3 -1.23,0.63 -2.86,1.66 -4.91,3.12 -2.05,1.45 -3.07,2.48 -3.07,3.08 0,0.24 0.72,1.16 2.17,2.75 1.44,1.59 2.7,2.75 3.75,3.51 1.05,0.75 2.08,1.13 3.07,1.13l0.6 -0.02c0.43,-0.02 0.65,0.17 0.65,0.57 0,0.54 -0.34,1.09 -1.01,1.65 -0.68,0.56 -1.56,0.84 -2.67,0.84 -0.71,0 -1.43,-0.25 -2.16,-0.75 -0.73,-0.49 -2.03,-1.83 -3.89,-4.02 -1.48,-1.8 -2.41,-2.88 -2.77,-3.23 -0.37,-0.35 -0.68,-0.53 -0.92,-0.53 -0.13,0 -0.56,0.32 -1.29,0.96 -0.72,0.63 -1.12,1.12 -1.19,1.45 -0.06,0.33 -0.1,1.59 -0.1,3.79l0 0.86c0,0.46 -0.21,0.86 -0.64,1.22 -0.43,0.35 -0.9,0.53 -1.4,0.53 -0.51,0 -0.92,-0.15 -1.21,-0.45 -0.29,-0.3 -0.44,-0.61 -0.44,-0.93 0,-0.44 0.17,-1.48 0.5,-3.13 0.47,-2.37 0.9,-5.54 1.29,-9.51 0.91,-9.38 1.61,-14.68 2.1,-15.91 0.5,-1.24 1.19,-1.85 2.1,-1.85 0.32,0 0.59,0.17 0.8,0.51 0.21,0.35 0.32,0.78 0.32,1.32 0,0.98 -0.42,3.59 -1.27,7.82 -0.85,4.24 -1.46,8.38 -1.84,12.4zm43.36 1.29c0.12,-0.22 0.27,-0.53 0.44,-0.92 0.83,-1.91 1.6,-3.41 2.3,-4.49 0.7,-1.09 1.47,-2.12 2.31,-3.11 0.83,-1 1.61,-1.75 2.3,-2.27 0.69,-0.51 1.32,-0.87 1.88,-1.07 0.57,-0.2 1.11,-0.31 1.64,-0.31 1.07,0 1.93,0.33 2.61,0.97 0.67,0.65 1.01,1.4 1.01,2.25 0,0.38 -0.12,0.72 -0.36,1.03 -0.24,0.31 -0.6,0.46 -1.09,0.46 -0.52,0 -0.99,-0.23 -1.42,-0.68 -0.44,-0.45 -0.9,-0.68 -1.38,-0.68 -1.27,0 -3.04,1.54 -5.29,4.63 -2.26,3.09 -3.63,6.49 -4.12,10.21 -0.12,0.95 -0.35,1.59 -0.7,1.9 -0.35,0.3 -0.83,0.46 -1.45,0.46 -0.6,0 -1.04,-0.45 -1.31,-1.34 -0.27,-0.9 -0.41,-2.4 -0.41,-4.53 0,-0.57 0.03,-1.85 0.09,-3.8 0.07,-2.31 0.22,-4.19 0.44,-5.61 0.04,-0.23 0.1,-0.78 0.18,-1.63 0.09,-0.95 0.19,-1.6 0.33,-1.97 0.13,-0.36 0.39,-0.71 0.79,-1.03 0.4,-0.32 0.83,-0.48 1.29,-0.48 0.45,0 0.8,0.14 1.02,0.43 0.23,0.29 0.34,0.6 0.34,0.93 0,0.48 -0.12,1.15 -0.37,2.02 -0.28,0.97 -0.44,1.64 -0.5,2 -0.04,0.42 -0.1,0.85 -0.2,1.3 -0.13,0.53 -0.25,1.91 -0.37,4.16l-0.02 0.68 0 0.5zm29.72 -7.24c-1.14,0.02 -3.58,3.4 -7.32,10.13 -1.27,2.27 -2,3.5 -2.21,3.7 -0.21,0.2 -0.59,0.38 -1.15,0.55 -0.56,0.16 -1.02,0.24 -1.39,0.24 -0.82,0 -1.24,-1.6 -1.24,-4.8 0,-1.8 0.39,-5.07 1.16,-9.79 0.32,-1.91 0.48,-3.28 0.48,-4.1 0,-0.81 0.36,-1.21 1.09,-1.21 1.36,0 2.04,0.98 2.04,2.94 0,0.92 -0.23,2.72 -0.68,5.41 -0.53,3.06 -0.8,4.93 -0.81,5.59 0.76,-0.73 1.88,-2.35 3.35,-4.83 2.08,-3.41 3.62,-5.57 4.61,-6.48 0.99,-0.91 2.01,-1.37 3.06,-1.37 0.8,0 1.43,0.53 1.9,1.6 0.47,1.07 0.76,3.61 0.85,7.63 0.02,1 0.12,1.75 0.28,2.24 0.16,0.49 0.28,0.73 0.35,0.73 0.58,0 1.83,-1.96 3.75,-5.88 1.03,-2.07 2.03,-3.65 3.01,-4.73 0.97,-1.08 2.05,-1.62 3.25,-1.62 0.99,0 1.71,0.51 2.17,1.54 0.46,1.02 0.78,2.54 0.98,4.55 0.18,2.03 0.46,3.9 0.85,5.59 0.38,1.7 1.09,2.78 2.12,3.26 0.7,0.33 1.05,0.72 1.05,1.16 0,0.43 -0.29,0.87 -0.88,1.32 -0.59,0.46 -1.13,0.68 -1.62,0.68 -0.98,0 -1.86,-0.6 -2.63,-1.8 -0.77,-1.21 -1.36,-3.8 -1.75,-7.8 -0.17,-1.61 -0.34,-2.75 -0.5,-3.42 -0.16,-0.68 -0.41,-1.02 -0.75,-1.02 -0.51,0 -1.12,0.5 -1.83,1.48 -0.71,0.98 -1.85,2.98 -3.41,5.98 -1.22,2.34 -2.15,3.9 -2.79,4.68 -0.63,0.78 -1.24,1.17 -1.83,1.17 -0.53,0 -1,-0.21 -1.42,-0.64 -0.41,-0.43 -0.68,-0.93 -0.79,-1.53 -0.11,-0.59 -0.23,-2.05 -0.35,-4.38 -0.19,-3.87 -0.52,-6.13 -1.01,-6.77zm40.56 8.31c0,1.25 -1.1,2.76 -3.31,4.52 -2.22,1.77 -4.5,2.64 -6.85,2.64 -1.97,0 -3.5,-0.58 -4.57,-1.75 -1.07,-1.16 -1.61,-2.79 -1.61,-4.87 0,-3.51 1.18,-6.84 3.55,-10.01 2.37,-3.16 4.96,-4.75 7.77,-4.75 0.92,0 1.67,0.3 2.25,0.9 0.58,0.6 0.87,1.32 0.87,2.17 0,1.89 -0.93,3.7 -2.78,5.43 -1.85,1.73 -4.33,3.43 -7.43,5.09 -0.64,0.33 -0.95,0.76 -0.95,1.29 0,1.02 0.29,1.83 0.88,2.45 0.59,0.61 1.46,0.92 2.61,0.92 2.64,0 5.33,-1.46 8.07,-4.38 0.41,-0.4 0.72,-0.61 0.92,-0.61 0.39,0 0.58,0.31 0.58,0.94zm-12.78 -2.87c5.2,-3.09 7.8,-5.57 7.8,-7.45 0,-0.73 -0.33,-1.1 -1,-1.1 -1.12,0 -2.4,0.83 -3.82,2.49 -1.41,1.66 -2.41,3.68 -2.99,6.07zm25.88 4.89c0,-0.8 -0.98,-1.7 -2.94,-2.72 -2.49,-1.28 -4.17,-2.3 -5.05,-3.06 -0.87,-0.77 -1.31,-1.63 -1.31,-2.57 0,-2.44 1.22,-4.46 3.67,-6.07 2.45,-1.61 4.44,-2.41 5.99,-2.41 0.99,0 1.71,0.17 2.16,0.51 0.45,0.35 0.67,0.94 0.67,1.79 0,0.38 -0.16,0.7 -0.49,0.97 -0.32,0.27 -0.58,0.4 -0.76,0.4 -0.14,0 -0.4,-0.09 -0.79,-0.28 -0.4,-0.17 -0.65,-0.26 -0.77,-0.26 -0.61,0 -1.86,0.45 -3.73,1.34 -1.88,0.9 -2.81,1.91 -2.81,3.04 0,0.68 0.33,1.3 0.99,1.86 0.67,0.56 1.85,1.24 3.57,2.05 1.39,0.66 2.49,1.37 3.32,2.12 0.83,0.75 1.24,1.64 1.24,2.66 0,1.88 -1.29,3.35 -3.88,4.41 -2.59,1.06 -5.06,1.59 -7.41,1.59 -1.98,-0.01 -2.98,-0.68 -2.98,-2.03 0,-0.46 0.22,-0.81 0.67,-1.03 0.44,-0.22 0.9,-0.33 1.35,-0.33 0.18,0 0.53,0.06 1.05,0.19 0.5,0.12 0.83,0.18 0.99,0.18 1.36,0 2.82,-0.23 4.38,-0.68 1.56,-0.46 2.52,-1.02 2.89,-1.69zm12.66 -20.41c-0.26,0 -0.45,-0.28 -0.59,-0.83 -0.05,-0.17 -0.11,-0.36 -0.2,-0.57 -0.33,-0.79 -0.5,-1.49 -0.5,-2.08 0,-0.49 0.29,-0.99 0.87,-1.49 0.58,-0.51 1.23,-0.77 1.94,-0.77 0.36,0 0.75,0.14 1.2,0.41 0.44,0.28 0.66,0.54 0.66,0.8 0,0.41 -0.15,1.09 -0.45,2.06 -0.3,0.97 -0.78,1.62 -1.43,1.96 -0.66,0.33 -1.15,0.5 -1.5,0.5zm-2.41 20.55c0,0.93 0.13,1.98 0.39,3.14 0.05,0.22 0.07,0.4 0.07,0.55 0,0.23 -0.2,0.51 -0.6,0.86 -0.41,0.35 -0.83,0.52 -1.29,0.52 -1.19,0 -1.78,-1.09 -1.78,-3.27 0,-2.26 0.46,-5.82 1.39,-10.7 0.32,-1.71 0.48,-2.75 0.48,-3.14 0,-0.77 0.14,-1.43 0.43,-1.98 0.28,-0.55 0.68,-0.82 1.19,-0.82 0.63,0 1.12,0.15 1.48,0.45 0.36,0.3 0.54,0.63 0.54,1 0,0.36 -0.08,0.85 -0.26,1.45 -0.92,3.24 -1.49,5.56 -1.71,6.96 -0.22,1.39 -0.33,3.06 -0.33,4.98zm-101.22 -5.97c0,4.55 -1.47,7.65 -4.41,9.27 -1.43,0.8 -3.01,1.19 -4.71,1.19 -2.96,0 -5.26,-0.97 -6.89,-2.92 -1.51,-1.81 -2.26,-4.24 -2.26,-7.27 0,-3.61 1,-6.28 3.01,-8.02 1.68,-1.44 3.72,-2.17 6.13,-2.17 2.87,0 5.13,0.95 6.77,2.85 1.56,1.8 2.35,4.15 2.35,7.07zm-3.47 -1.59c-0.21,-1.57 -0.72,-2.82 -1.53,-3.72 -1.1,-1.24 -2.47,-1.85 -4.12,-1.85 -1.67,0 -3.05,0.61 -4.14,1.85 -0.81,0.9 -1.33,2.15 -1.54,3.72l11.34 0zm0.07 2.71l-11.49 0c0.1,1.88 0.6,3.42 1.49,4.61 1.03,1.35 2.46,2.02 4.26,2.02 1.8,0 3.22,-0.68 4.24,-2.04 0.88,-1.17 1.38,-2.7 1.49,-4.59z"/>
  <line class="fil0 str0" x1="385.25" y1="71.17" x2="505.77" y2= "71.17" />
  <polyline class="fil0 str0" points="410.41,46.01 385.25,71.17 410.41,96.34 "/>
 </g>
 <g id="Layer_x0020_1_0">
  <metadata id="CorelCorpID_1Corel-Layer"/>
  <g id="atau-belgi.svg">
   <path class="fil0 str1" d="M78.93 37.84c-33.51,5.28 -44.67,26.34 -47.98,38.68 -2.87,10.7 -2.06,28.27 21.87,28.87 7.76,0 30.34,-0.07 48.85,0 22.99,0.07 29.4,-18.35 28.87,-34.15 -1.01,-28.72 -26.85,-37.26 -51.61,-33.39z"/>
   <path class="fil2" d="M48.83 78.51c0,-6.67 5.45,-12.12 12.12,-12.12 6.67,0 12.12,5.45 12.12,12.12 0,6.67 -5.45,12.11 -12.12,12.11 -6.67,0 -12.12,-5.45 -12.12,-12.11z"/>
  </g>
 </g>
</svg>
