<?xml version="1.0" encoding="UTF-8"?>
<!DOCTYPE svg PUBLIC "-//W3C//DTD SVG 1.1//EN" "http://www.w3.org/Graphics/SVG/1.1/DTD/svg11.dtd">
<!-- Creator: CorelDRAW 2020 -->
<svg xmlns="http://www.w3.org/2000/svg" xml:space="preserve" width="19.0807mm" height="5.2566mm" version="1.1" style="shape-rendering:geometricPrecision; text-rendering:geometricPrecision; image-rendering:optimizeQuality; fill-rule:evenodd; clip-rule:evenodd"
viewBox="0 0 216.35 59.6"
 xmlns:xlink="http://www.w3.org/1999/xlink"
 xmlns:xodm="http://www.corel.com/coreldraw/odm/2003">
 <defs>
  <style type="text/css">
   <![CDATA[
    .str0 {stroke:#C6B93A;stroke-width:8.5;stroke-miterlimit:22.9256}
    .str1 {stroke:#C6B93A;stroke-width:0.86;stroke-miterlimit:22.9256}
    .fil0 {fill:none}
    .fil1 {fill:#C6B93A}
    .fil2 {fill:#C6B93A;fill-rule:nonzero}
   ]]>
  </style>
 </defs>
 <g id="Layer_x0020_1">
  <metadata id="CorelCorpID_0Corel-Layer"/>
  <g id="_1142429032">
   <g id="atau-belgi.svg">
    <path class="fil0 str0" d="M4.99 29.52c-1.84,6.82 -1.31,18.02 13.94,18.39 4.95,0 19.33,-0.04 31.13,0 14.65,0.04 18.73,-11.69 18.4,-21.77 -0.49,-13.9 -11.58,-24.61 -32.89,-21.28 -14,2.27 -26.94,11.07 -30.57,24.65z"/>
    <path class="fil1" d="M16.38 30.79c0,-4.25 3.47,-7.72 7.72,-7.72 4.25,0 7.72,3.47 7.72,7.72 0,4.25 -3.47,7.72 -7.72,7.72 -4.25,0 -7.72,-3.47 -7.72,-7.72z"/>
   </g>
   <path class="fil2 str1" d="M101.06 37.14l-3.23 0 0 -7.65 -1.31 0 -4.63 -7.47c-1.15,-1.88 -2.01,-3.11 -2.56,-3.68 -1.12,-1.15 -2.41,-1.73 -3.88,-1.73l0 12.88 -3.65 0 0 -27.53 3.65 0 0 12.07c1.8,0 3.14,-0.51 4.02,-1.54 0.46,-0.54 1.15,-1.9 2.06,-4.08 0.77,-1.81 1.4,-3.09 1.88,-3.83 1.17,-1.75 2.89,-2.63 5.15,-2.63 1.41,0 2.15,0.01 2.23,0.04l0 3.15c-0.16,0 -0.4,-0.01 -0.73,-0.02 -0.32,-0.01 -0.57,-0.02 -0.74,-0.02 -1.29,0 -2.29,0.44 -3,1.33 -0.4,0.49 -0.92,1.53 -1.56,3.11 -0.69,1.74 -1.24,2.91 -1.66,3.52 -0.72,1.04 -1.71,1.81 -2.97,2.33 1.78,0.49 3.53,2.14 5.26,4.93l3.66 5.91 2.01 0 0 10.88 0 0zm15.24 -14.48c-1.75,2.35 -3.49,4.11 -5.2,5.29 -1.72,1.17 -3.28,1.76 -4.71,1.76 -0.96,0 -1.79,-0.4 -2.49,-1.22 -0.71,-0.81 -1.05,-1.86 -1.05,-3.14 0,-3.28 1.47,-6.83 4.41,-10.63 2.94,-3.8 5.86,-5.7 8.77,-5.7 1.05,0 1.83,0.6 2.35,1.8 0.16,0.4 0.42,0.6 0.77,0.6 1,0 1.5,0.38 1.5,1.16 0,0.39 -0.06,0.92 -0.19,1.59 -0.68,3.69 -1.02,6.3 -1.02,7.81 0,3.03 0.57,4.84 1.72,5.45 0.55,0.3 0.83,0.67 0.83,1.11 0,0.39 -0.27,0.78 -0.81,1.18 -0.54,0.39 -1.06,0.59 -1.56,0.59 -0.97,0 -1.76,-0.67 -2.39,-1.99 -0.63,-1.33 -0.94,-3.22 -0.94,-5.66l0 -0.01zm-1.14 -10.57c-1.65,0 -3.58,1.55 -5.77,4.64 -2.19,3.1 -3.28,5.67 -3.28,7.71 0,1.44 0.48,2.16 1.43,2.16 1.38,0 3.29,-1.39 5.73,-4.17 2.44,-2.77 3.66,-5.33 3.66,-7.66 0,-1.79 -0.59,-2.68 -1.76,-2.68l-0 -0zm21.58 2.1c-0.3,-0.01 -0.6,0.28 -0.88,0.87 -2.59,5.19 -4.55,8.69 -5.88,10.55 -0.12,0.16 -0.26,0.4 -0.44,0.71 -1.56,2.79 -2.71,4.19 -3.43,4.19 -0.97,0 -1.46,-0.47 -1.46,-1.41 0,-0.85 0.6,-2 1.82,-3.47 1.17,-1.39 2.72,-3.74 4.63,-7.07 1.92,-3.32 3.46,-6.3 4.66,-8.94 0.22,-0.47 0.56,-0.71 1.01,-0.71 0.19,0 0.53,0.08 1.01,0.26 0.48,0.16 0.79,0.35 0.93,0.55 0.13,0.2 0.44,1.36 0.92,3.49 1.55,7.67 3.17,12.22 4.86,13.65 0.4,0.35 0.64,0.58 0.72,0.71 0.07,0.12 0.11,0.28 0.11,0.49 0,0.39 -0.12,0.74 -0.37,1.06 -0.26,0.32 -0.5,0.52 -0.74,0.61 -0.23,0.09 -0.72,0.13 -1.46,0.13 -0.26,0 -0.88,-0.65 -1.84,-1.95 -0.97,-1.29 -2.09,-4.83 -3.38,-10.59 -0.31,-1.56 -0.58,-2.59 -0.79,-3.12l0 -0zm25.21 0.87c-0.65,0 -1.36,0.42 -2.14,1.27 -0.77,0.85 -1.94,2.76 -3.52,5.73 -2.08,3.98 -3.42,6.24 -4.02,6.79 -0.61,0.55 -1.12,0.83 -1.51,0.83 -1.48,0 -2.22,-0.71 -2.22,-2.14 0,-0.6 0.1,-1.45 0.3,-2.55 0.69,-3.78 1.03,-7.76 1.03,-11.96 0,-0.48 0.21,-1 0.61,-1.59 0.41,-0.58 0.79,-0.87 1.15,-0.87 0.65,0 1.12,0.2 1.39,0.6 0.28,0.4 0.42,1.21 0.42,2.42 0,1.26 -0.38,3.86 -1.13,7.81 -0.25,1.3 -0.38,2.13 -0.38,2.48 0,0.2 0.05,0.3 0.15,0.3 0.19,0 1.06,-1.5 2.61,-4.49 1.56,-3.04 2.93,-5.19 4.11,-6.42 1.18,-1.24 2.48,-1.86 3.89,-1.86 1.13,0 2.05,0.51 2.75,1.54 0.71,1.03 1.22,2.9 1.55,5.61 0.35,3.09 0.66,5.02 0.95,5.77 0.28,0.76 0.73,1.13 1.34,1.13 0.39,0 0.88,-0.13 1.47,-0.41 0.1,-0.05 0.17,-0.08 0.22,-0.08 0.54,0 0.81,0.31 0.81,0.94 0,0.55 -0.37,1.14 -1.11,1.75 -0.74,0.62 -1.63,0.93 -2.67,0.93 -1.06,0 -1.89,-0.42 -2.47,-1.26 -0.58,-0.85 -1.05,-3.1 -1.39,-6.77 -0.35,-3.68 -1.08,-5.52 -2.21,-5.52l0 0zm25.36 7.6c-1.75,2.35 -3.49,4.11 -5.2,5.29 -1.72,1.17 -3.28,1.76 -4.71,1.76 -0.96,0 -1.79,-0.4 -2.49,-1.22 -0.71,-0.81 -1.05,-1.86 -1.05,-3.14 0,-3.28 1.47,-6.83 4.41,-10.63 2.94,-3.8 5.86,-5.7 8.77,-5.7 1.05,0 1.83,0.6 2.35,1.8 0.16,0.4 0.42,0.6 0.77,0.6 1,0 1.5,0.38 1.5,1.16 0,0.39 -0.06,0.92 -0.19,1.59 -0.68,3.69 -1.01,6.3 -1.01,7.81 0,3.03 0.57,4.84 1.72,5.45 0.55,0.3 0.83,0.67 0.83,1.11 0,0.39 -0.27,0.78 -0.81,1.18 -0.54,0.39 -1.06,0.59 -1.56,0.59 -0.97,0 -1.76,-0.67 -2.39,-1.99 -0.63,-1.33 -0.94,-3.22 -0.94,-5.66l-0 -0.01zm-1.14 -10.57c-1.65,0 -3.58,1.55 -5.77,4.64 -2.19,3.1 -3.28,5.67 -3.28,7.71 0,1.44 0.48,2.16 1.43,2.16 1.38,0 3.28,-1.39 5.73,-4.17 2.44,-2.77 3.66,-5.33 3.66,-7.66 0,-1.79 -0.59,-2.68 -1.76,-2.68l-0 -0zm24.87 5.14c0.13,-0.26 0.36,-1.83 0.65,-4.71 0.23,-2.31 0.96,-3.46 2.2,-3.46 1.01,0 1.53,0.51 1.53,1.53 0,0.23 -0.09,0.72 -0.26,1.44 -0.97,3.99 -1.45,7.34 -1.45,10.05 0,2.93 0.48,4.83 1.45,5.69 0.5,0.47 0.75,0.84 0.75,1.13 0,0.35 -0.26,0.67 -0.76,0.96 -0.51,0.29 -0.97,0.43 -1.38,0.43 -1.96,0 -2.93,-3.02 -2.93,-9.05 0,-0.4 -0.16,-0.6 -0.46,-0.6 -1.17,0 -2.61,0.07 -4.31,0.21 -1.7,0.14 -2.92,0.31 -3.65,0.53 -0.74,0.22 -1.19,0.41 -1.35,0.6 -0.17,0.18 -0.32,0.66 -0.46,1.44 -0.13,0.78 -0.19,1.59 -0.19,2.43l0 2.31c0,1.34 -0.62,2.01 -1.84,2.01 -1.03,0 -1.55,-0.67 -1.55,-2.01 0,-0.88 0.12,-1.99 0.34,-3.34 0.41,-2.48 0.83,-6.75 1.24,-12.8 0.05,-0.79 0.12,-1.29 0.21,-1.51 0.08,-0.21 0.31,-0.45 0.69,-0.71 0.37,-0.26 0.77,-0.38 1.21,-0.38 0.9,0 1.35,0.37 1.35,1.11 0,0.12 -0.15,1.05 -0.44,2.82 -0.3,1.76 -0.45,3.13 -0.45,4.11 0,0.69 0.23,1.03 0.71,1.03 0.96,0 2.69,-0.16 5.22,-0.47 2.52,-0.32 3.83,-0.57 3.92,-0.76l-0 -0.01z"/>
   <path class="fil2" d="M83.61 45.27c1.85,-0.32 3.51,-1.52 4.98,-3.59 0.69,-0.96 1.29,-1.64 1.81,-2.05 0.52,-0.4 1.07,-0.6 1.66,-0.6 0.23,0 0.47,0.11 0.7,0.31 0.23,0.21 0.35,0.47 0.35,0.75 0,0.38 -0.36,0.68 -1.09,0.9 -0.38,0.12 -0.74,0.32 -1.08,0.6 -0.34,0.28 -0.97,0.95 -1.91,2.02 -0.74,0.83 -1.4,1.41 -1.98,1.74 -0.06,0.03 -0.08,0.06 -0.08,0.08 0,0.03 0.04,0.06 0.11,0.09 0.57,0.31 1.17,0.9 1.8,1.77 0.92,1.27 1.61,2.08 2.07,2.41 0.46,0.33 0.99,0.5 1.58,0.5l0.39 -0.01c0.27,-0.01 0.41,0.11 0.41,0.36 0,0.3 -0.17,0.61 -0.5,0.93 -0.34,0.32 -0.89,0.48 -1.66,0.48 -0.59,0 -1.17,-0.26 -1.73,-0.77 -0.56,-0.51 -1.2,-1.34 -1.92,-2.49 -0.41,-0.68 -0.8,-1.2 -1.16,-1.55 -0.36,-0.35 -0.76,-0.53 -1.2,-0.53 -0.09,0 -0.38,0.07 -0.87,0.23 -0.49,0.16 -0.76,0.31 -0.81,0.45 -0.06,0.15 -0.1,0.66 -0.13,1.56 -0.02,0.89 -0.04,1.62 -0.04,2.16 0,0.29 -0.13,0.55 -0.41,0.78 -0.28,0.22 -0.57,0.34 -0.89,0.34 -0.33,0 -0.58,-0.1 -0.77,-0.29 -0.19,-0.19 -0.28,-0.39 -0.28,-0.59 0,-0.28 0.11,-0.94 0.32,-1.99 0.38,-1.91 0.75,-5.05 1.13,-9.44 0.03,-0.42 0.19,-0.8 0.48,-1.14 0.29,-0.34 0.62,-0.51 0.99,-0.51 0.21,0 0.37,0.11 0.51,0.33 0.13,0.22 0.21,0.5 0.21,0.84 0,0.28 -0.05,0.59 -0.15,0.94 -0.44,1.62 -0.72,3.27 -0.83,4.96l0.01 0.01zm27 4.8c-0.38,1.41 -0.74,3.38 -1.07,5.92l-0.33 2.21c-0.06,0.31 -0.2,0.62 -0.44,0.93 -0.23,0.31 -0.45,0.46 -0.65,0.46 -0.24,0 -0.51,-0.12 -0.83,-0.37 -0.31,-0.25 -0.46,-0.44 -0.46,-0.59 0,-0.43 0.1,-1.02 0.29,-1.78 1.43,-5.77 2.14,-10.85 2.14,-15.21l-0.01 -0.99c-0.01,-0.84 0.13,-1.46 0.44,-1.84 0.31,-0.38 0.67,-0.57 1.08,-0.57 0.19,0 0.37,0.15 0.54,0.44 0.17,0.29 0.25,0.71 0.25,1.25 0,0.76 -0.07,1.68 -0.23,2.75 -0.21,1.36 -0.31,2.14 -0.32,2.34 1.16,-2.03 2.4,-3.62 3.7,-4.76 1.3,-1.14 2.52,-1.71 3.64,-1.71 0.79,0 1.45,0.29 2,0.88 0.55,0.59 0.82,1.32 0.82,2.2 0,2.55 -0.98,4.86 -2.93,6.94 -1.95,2.08 -3.86,3.12 -5.7,3.12 -0.47,0 -0.83,-0.12 -1.1,-0.35 -0.27,-0.23 -0.55,-0.66 -0.84,-1.28l0 0zm7.28 -9.43c-1.1,0 -2.46,1.03 -4.09,3.09 -1.62,2.06 -2.44,3.67 -2.44,4.82 0,0.28 0.16,0.56 0.48,0.82 0.32,0.27 0.72,0.4 1.22,0.4 1.12,0 2.4,-0.83 3.86,-2.48 1.46,-1.65 2.18,-3.27 2.18,-4.87 0,-0.57 -0.12,-1.01 -0.34,-1.32 -0.23,-0.31 -0.52,-0.46 -0.86,-0.46l-0 0zm20.93 0.53c-0.63,1.01 -1.52,2.73 -2.67,5.16 -0.25,0.55 -0.52,1.07 -0.78,1.58 -0.09,0.16 -0.25,0.53 -0.49,1.09 -0.82,1.9 -1.54,2.86 -2.15,2.86 -0.48,0 -0.84,-0.06 -1.06,-0.18 -0.22,-0.12 -0.43,-0.44 -0.63,-0.96 -0.21,-0.53 -0.5,-1.75 -0.9,-3.69 -0.46,-2.19 -0.77,-3.54 -0.94,-4.05 -0.53,1.2 -1,2.35 -1.42,3.46 -0.62,1.63 -1.23,2.96 -1.81,3.99 -0.58,1.03 -1.01,1.64 -1.27,1.85 -0.26,0.21 -0.5,0.31 -0.74,0.31 -0.24,0 -0.46,-0.09 -0.66,-0.28 -0.2,-0.19 -0.29,-0.37 -0.29,-0.55 0.05,-0.32 0.1,-0.52 0.16,-0.6 0.68,-0.84 1.27,-1.73 1.75,-2.67 0.49,-0.95 1.12,-2.36 1.88,-4.26 0.76,-1.89 1.25,-3.44 1.46,-4.65 0.1,-0.51 0.48,-0.77 1.13,-0.77 0.38,0 0.65,0.06 0.79,0.18 0.14,0.12 0.28,0.35 0.41,0.71 0.13,0.36 0.22,0.68 0.24,0.96 0.05,0.34 0.18,1.08 0.4,2.24 0.2,1.09 0.33,1.85 0.39,2.31 0.11,0.65 0.3,1.5 0.58,2.56 0.28,1.06 0.5,1.58 0.65,1.58 0.11,0 0.27,-0.24 0.47,-0.72l0.98 -2.28c0.18,-0.41 0.37,-0.82 0.58,-1.22l1.34 -2.76c0.74,-1.52 1.3,-2.61 1.7,-3.3 0.39,-0.68 0.66,-1.1 0.79,-1.24 0.13,-0.15 0.29,-0.21 0.46,-0.21 0.29,0 0.63,0.08 1,0.24 0.37,0.16 0.56,0.34 0.57,0.53 0.01,0.2 0.05,1.01 0.11,2.45l0.15 3.66c0.05,1.16 0.12,2.15 0.21,2.97 0.09,0.82 0.26,1.48 0.49,1.98 0.36,0.79 0.55,1.41 0.55,1.85 0,0.37 -0.15,0.63 -0.46,0.77 -0.31,0.14 -0.6,0.21 -0.86,0.21 -0.55,0 -0.96,-0.44 -1.26,-1.31 -0.29,-0.88 -0.5,-3.39 -0.63,-7.52 -0.05,-1.24 -0.12,-2 -0.22,-2.28l0.01 -0zm16.06 6.29c0,0.79 -0.71,1.75 -2.11,2.88 -1.41,1.12 -2.87,1.68 -4.37,1.68 -1.26,0 -2.23,-0.37 -2.91,-1.11 -0.68,-0.74 -1.02,-1.78 -1.02,-3.11 0,-2.24 0.75,-4.36 2.26,-6.38 1.51,-2.02 3.16,-3.02 4.95,-3.02 0.58,0 1.06,0.19 1.44,0.57 0.37,0.38 0.56,0.84 0.56,1.38 0,1.21 -0.59,2.36 -1.77,3.46 -1.18,1.1 -2.76,2.18 -4.73,3.24 -0.41,0.21 -0.61,0.49 -0.61,0.82 0,0.65 0.18,1.17 0.56,1.56 0.38,0.39 0.93,0.58 1.66,0.58 1.68,0 3.4,-0.93 5.14,-2.79 0.26,-0.26 0.46,-0.39 0.59,-0.39 0.25,0 0.37,0.2 0.37,0.6l0 0zm-8.15 -1.83c3.32,-1.97 4.97,-3.55 4.97,-4.75 0,-0.47 -0.21,-0.71 -0.63,-0.71 -0.72,0 -1.53,0.53 -2.43,1.58 -0.9,1.06 -1.54,2.34 -1.9,3.87l-0 0zm13.8 6.47c-1.17,0 -2.08,-0.34 -2.7,-1.01 -0.63,-0.67 -0.94,-1.61 -0.94,-2.83 0,-2.04 0.81,-4.19 2.43,-6.45 1.62,-2.26 3.12,-3.39 4.51,-3.39 0.63,0 1.18,0.34 1.63,1.03 0.46,0.68 0.69,1.41 0.69,2.18 0,0.46 -0.1,0.85 -0.3,1.19 -0.2,0.33 -0.4,0.5 -0.6,0.5 -0.45,0 -0.77,-0.46 -0.96,-1.37 -0.21,-0.98 -0.51,-1.48 -0.92,-1.48 -0.81,0 -1.77,0.96 -2.88,2.89 -1.11,1.93 -1.66,3.56 -1.66,4.89 0,1.33 0.75,1.99 2.26,1.99 1.15,0 2.5,-0.54 4.06,-1.62 0.55,-0.38 0.95,-0.57 1.21,-0.57 0.27,0 0.4,0.15 0.4,0.46 0,0.59 -0.7,1.34 -2.09,2.24 -1.4,0.9 -2.77,1.35 -4.11,1.35l-0 0zm12.74 -16.36c-0.16,0 -0.29,-0.18 -0.38,-0.53 -0.03,-0.11 -0.07,-0.23 -0.13,-0.36 -0.21,-0.5 -0.32,-0.95 -0.32,-1.33 0,-0.31 0.19,-0.63 0.56,-0.95 0.37,-0.32 0.78,-0.49 1.24,-0.49 0.23,0 0.48,0.09 0.77,0.27 0.28,0.18 0.42,0.34 0.42,0.51 0,0.26 -0.1,0.69 -0.29,1.31 -0.19,0.62 -0.5,1.03 -0.91,1.25 -0.42,0.21 -0.74,0.32 -0.96,0.32l0 -0zm-1.54 13.09c0,0.59 0.08,1.26 0.25,2 0.03,0.14 0.05,0.26 0.05,0.35 0,0.15 -0.13,0.32 -0.38,0.55 -0.26,0.22 -0.53,0.33 -0.82,0.33 -0.76,0 -1.13,-0.69 -1.13,-2.08 0,-1.44 0.29,-3.71 0.89,-6.82 0.21,-1.09 0.3,-1.75 0.3,-2 0,-0.49 0.09,-0.91 0.27,-1.26 0.18,-0.35 0.43,-0.52 0.76,-0.52 0.4,0 0.71,0.1 0.94,0.29 0.23,0.19 0.34,0.4 0.34,0.64 0,0.23 -0.05,0.55 -0.16,0.93 -0.58,2.06 -0.95,3.54 -1.09,4.43 -0.14,0.89 -0.21,1.95 -0.21,3.18l-0 -0zm-65.86 -3.8c0,2.9 -0.94,4.87 -2.81,5.91 -0.91,0.51 -1.92,0.76 -3,0.76 -1.89,0 -3.35,-0.62 -4.39,-1.86 -0.96,-1.15 -1.44,-2.7 -1.44,-4.63 0,-2.3 0.64,-4 1.92,-5.11 1.07,-0.92 2.37,-1.38 3.91,-1.38 1.83,0 3.27,0.6 4.32,1.81 1,1.15 1.5,2.65 1.5,4.5l0 0zm-2.21 -1.01c-0.13,-1 -0.46,-1.8 -0.98,-2.37 -0.7,-0.79 -1.57,-1.18 -2.63,-1.18 -1.06,0 -1.94,0.39 -2.64,1.18 -0.52,0.57 -0.85,1.37 -0.98,2.37l7.22 0 0 0zm0.05 1.73l-7.32 0c0.06,1.2 0.38,2.18 0.95,2.94 0.66,0.86 1.56,1.29 2.72,1.29 1.15,0 2.05,-0.43 2.7,-1.3 0.56,-0.75 0.88,-1.72 0.95,-2.92l0 -0z"/>
  </g>
 </g>
</svg>
