<?xml version="1.0" encoding="UTF-8"?>
<!DOCTYPE svg PUBLIC "-//W3C//DTD SVG 1.1//EN" "http://www.w3.org/Graphics/SVG/1.1/DTD/svg11.dtd">
<!-- Creator: CorelDRAW 2020 -->
<svg xmlns="http://www.w3.org/2000/svg" xml:space="preserve" width="13.9648mm" height="8mm" version="1.1" style="shape-rendering:geometricPrecision; text-rendering:geometricPrecision; image-rendering:optimizeQuality; fill-rule:evenodd; clip-rule:evenodd"
viewBox="0 0 110.72 63.43"
 xmlns:xlink="http://www.w3.org/1999/xlink"
 xmlns:xodm="http://www.corel.com/coreldraw/odm/2003">
 <defs>
  <style type="text/css">
   <![CDATA[
    .str0 {stroke:#6B470F;stroke-width:5.95;stroke-miterlimit:22.9256}
    .str1 {stroke:#6B470F;stroke-width:1.59;stroke-miterlimit:22.9256}
    .fil0 {fill:none}
    .fil1 {fill:#6B470F}
    .fil2 {fill:#6B470F;fill-rule:nonzero}
   ]]>
  </style>
 </defs>
 <g id="Layer_x0020_1">
  <metadata id="CorelCorpID_0Corel-Layer"/>
  <polygon class="fil0" points="-0,0 110.72,0 110.72,63.43 -0,63.43 "/>
  <g id="_1779133048">
   <g id="atau-belgi.svg">
    <path class="fil0 str0" d="M32.01 12.46c-14.93,2.36 -19.91,11.74 -21.38,17.24 -1.28,4.77 -0.92,12.6 9.75,12.86 3.46,0 13.52,-0.03 21.77,0 10.24,0.03 13.1,-8.17 12.86,-15.22 -0.45,-12.8 -11.97,-16.61 -23,-14.88z"/>
    <path class="fil1" d="M18.6 30.59c0,-2.97 2.43,-5.4 5.4,-5.4 2.97,0 5.4,2.43 5.4,5.4 0,2.97 -2.43,5.4 -5.4,5.4 -2.97,0 -5.4,-2.43 -5.4,-5.4z"/>
   </g>
   <line class="fil0 str1" x1="6.93" y1="55.54" x2="102.75" y2= "55.54" />
   <path class="fil2" d="M70.63 22.86l-5.49 0c-0.47,0 -0.89,-0.13 -1.26,-0.41 -0.37,-0.27 -0.56,-0.59 -0.56,-0.96 0,-0.31 0.02,-0.59 0.05,-0.85 0.03,-0.25 0.1,-0.53 0.18,-0.83l0.25 0c0.09,0.34 0.26,0.57 0.49,0.72 0.2,0.12 0.47,0.18 0.81,0.18l4.76 0c0,-1.47 -0.21,-2.65 -0.62,-3.54 -0.51,-1.11 -1.36,-1.85 -2.55,-2.22l0.19 -2.39c1.42,0.7 2.43,1.81 3.02,3.34 0.48,1.23 0.72,2.84 0.72,4.82l0 2.14zm12.32 -0c0,0.9 -0.39,1.84 -1.16,2.81 -0.67,0.85 -1.51,1.59 -2.51,2.2 -0.95,0.59 -1.73,0.88 -2.35,0.88 -0.57,0 -1.18,-0.08 -1.83,-0.25 -0.5,-0.12 -1.1,-0.32 -1.8,-0.58 -0.59,-0.22 -1.17,-0.44 -1.76,-0.67l0.21 -0.49c0.54,0.11 1.1,0.22 1.69,0.33 0.59,0.11 1.12,0.17 1.59,0.17 1.05,0 2.14,-0.34 3.28,-1.01 1.04,-0.62 1.92,-1.39 2.65,-2.33 0.73,-0.94 1.1,-1.78 1.1,-2.54 0,-0.65 -0.19,-1.33 -0.56,-2.04 -0.3,-0.57 -0.73,-1.16 -1.27,-1.77l0.69 -1.94c0.67,0.63 1.17,1.25 1.49,1.87 0.36,0.7 0.54,1.49 0.54,2.36l0 2.99zm12.96 6.91l-3.1 2.03c-1.7,0 -3.02,-0.07 -3.95,-0.21 -1.61,-0.24 -2.85,-0.71 -3.73,-1.43 -1.1,-0.89 -1.66,-2.18 -1.66,-3.85 0,-1.01 0.16,-1.93 0.47,-2.74 0.25,-0.67 0.62,-1.29 1.1,-1.88 0.23,-0.28 0.63,-0.7 1.21,-1.27 -0.79,-0.39 -1.33,-0.73 -1.64,-1.02 -0.68,-0.63 -1.01,-1.43 -1.01,-2.39 0,-0.87 0.36,-1.72 1.09,-2.56 0.83,-0.96 1.85,-1.44 3.03,-1.44 0.53,0 1.09,0.16 1.69,0.47 0.4,0.21 0.91,0.55 1.51,1.02 -0.8,0 -1.62,0.05 -2.46,0.16 -1.08,0.14 -1.96,0.34 -2.63,0.6 -0.82,0.32 -1.23,0.71 -1.23,1.17 0,0.5 0.47,0.97 1.41,1.42 0.79,0.38 1.69,0.64 2.69,0.8 0.82,-0.44 1.62,-0.82 2.39,-1.13 0.86,-0.34 1.76,-0.63 2.69,-0.86l-0.52 1.91c-1.7,0.67 -2.93,1.18 -3.69,1.53 -1.52,0.73 -2.69,1.46 -3.5,2.22 -1.04,0.97 -1.56,2.01 -1.56,3.12 0,1.16 0.43,2.07 1.3,2.74 0.75,0.57 1.86,0.98 3.33,1.22 1.16,0.19 2.64,0.29 4.44,0.29 0.39,0 0.77,-0 1.15,-0.01 0.39,-0.01 0.77,-0.02 1.15,-0.03l0 0.11zm-27.15 14.82l-0.85 0c-0.37,0 -0.78,-0.08 -1.24,-0.25 -0.53,-0.19 -0.99,-0.46 -1.4,-0.79 -0.32,0.39 -0.64,0.66 -0.97,0.81 -0.33,0.15 -0.81,0.23 -1.45,0.23l-1.28 0 0 -1.43 1.25 0c0.5,0 0.94,-0.13 1.33,-0.38 0.3,-0.2 0.57,-0.47 0.82,-0.83 0.33,-0.48 0.74,-0.9 1.23,-1.26 0.44,-0.32 0.84,-0.52 1.2,-0.61 0.38,0.57 0.68,1.09 0.9,1.55 0.3,0.62 0.45,1.13 0.45,1.52l0 1.43zm-0.94 -1.62c-0.07,-0.32 -0.18,-0.63 -0.33,-0.94 -0.13,-0.26 -0.29,-0.53 -0.5,-0.8 -0.26,0.07 -0.48,0.19 -0.66,0.37 -0.12,0.11 -0.26,0.31 -0.43,0.58 0.2,0.22 0.47,0.41 0.83,0.58 0.36,0.17 0.69,0.27 1.01,0.31l0.07 -0.11zm7.55 1.62l-1.2 0c-0.36,0 -0.71,-0.08 -1.08,-0.25 -0.44,-0.2 -0.75,-0.48 -0.95,-0.84 -0.37,0.33 -0.79,0.58 -1.26,0.76 -0.57,0.22 -1.23,0.34 -1.96,0.34l-0.74 0 0 -1.43 0.74 0c0.46,0 0.89,-0.05 1.28,-0.15 0.45,-0.11 0.89,-0.29 1.32,-0.55l-0.35 -0.44c-0.18,-0.21 -0.38,-0.31 -0.59,-0.31 -0.1,0 -0.19,0.02 -0.27,0.05 -0.08,0.04 -0.16,0.11 -0.25,0.23l-0.17 0 0 -0.48c0,-0.6 0.16,-1.02 0.48,-1.24 0.29,-0.2 0.79,-0.31 1.5,-0.31 0.62,0 1.12,0.08 1.5,0.25 0.51,0.21 0.76,0.54 0.76,0.98 0,0.24 -0.1,0.48 -0.3,0.73 -0.15,0.18 -0.41,0.44 -0.81,0.77 0.09,0.13 0.25,0.24 0.5,0.32 0.25,0.09 0.46,0.13 0.63,0.13l1.2 0 0 1.43zm8.21 -0c0,0.6 -0.26,1.23 -0.77,1.87 -0.45,0.57 -1,1.06 -1.67,1.47 -0.63,0.39 -1.16,0.59 -1.57,0.59 -0.38,0 -0.78,-0.06 -1.22,-0.16 -0.33,-0.08 -0.73,-0.21 -1.2,-0.39 -0.39,-0.15 -0.78,-0.3 -1.17,-0.44l0.14 -0.33c0.36,0.07 0.74,0.15 1.13,0.22 0.39,0.08 0.75,0.11 1.06,0.11 0.7,0 1.43,-0.22 2.19,-0.67 0.69,-0.41 1.28,-0.93 1.76,-1.56 0.49,-0.63 0.73,-1.19 0.73,-1.69 0,-0.43 -0.13,-0.89 -0.38,-1.36 -0.2,-0.38 -0.49,-0.77 -0.85,-1.18l0.46 -1.29c0.45,0.42 0.78,0.83 0.99,1.25 0.24,0.47 0.36,1 0.36,1.57l0 1.99zm18.42 0l-9.73 0c-0.17,1.14 -0.56,1.99 -1.18,2.55 -0.77,0.7 -1.96,1.05 -3.55,1.05 -1.09,0 -1.93,-0.19 -2.51,-0.57 -0.63,-0.42 -0.95,-1.07 -0.95,-1.94 0,-0.47 0.06,-0.95 0.17,-1.43 0.11,-0.48 0.27,-0.96 0.47,-1.45 0.12,-0.29 0.33,-0.75 0.63,-1.36l0.33 0.15c-0.38,0.79 -0.63,1.4 -0.76,1.86 -0.12,0.45 -0.18,0.87 -0.18,1.24 0,0.68 0.24,1.19 0.72,1.54 0.48,0.35 1.18,0.53 2.07,0.53 1.05,0 1.99,-0.18 2.81,-0.55 1.03,-0.45 1.54,-1.08 1.54,-1.89 0,-0.54 -0.1,-1.06 -0.3,-1.55 -0.16,-0.39 -0.38,-0.76 -0.67,-1.11l0.68 -1.68c0.27,0.45 0.45,0.84 0.55,1.19 0.13,0.48 0.2,1.15 0.2,1.99l0.15 0c0.65,0 1.25,-0.1 1.81,-0.31 0.48,-0.18 0.98,-0.46 1.52,-0.85 0.81,-0.56 1.29,-0.9 1.45,-1 0.45,-0.28 0.85,-0.49 1.21,-0.61 0.4,-0.14 0.85,-0.2 1.33,-0.2 0.75,0 1.31,0.22 1.68,0.65 0.34,0.4 0.52,0.96 0.52,1.68l0 2.07zm-1.33 -2.06c0,-0.27 -0.17,-0.47 -0.5,-0.62 -0.34,-0.15 -0.73,-0.22 -1.18,-0.22 -0.39,0 -0.83,0.09 -1.32,0.26 -0.34,0.13 -0.78,0.33 -1.31,0.6 -0.4,0.21 -0.79,0.41 -1.19,0.62l3.78 0c0.52,0 0.94,-0.05 1.25,-0.16 0.31,-0.11 0.47,-0.26 0.47,-0.47zm-4.15 -4.75l-0.63 1.19 -1.31 -0.69 0.6 -1.19 1.35 0.69z"/>
  </g>
 </g>
</svg>
