<?xml version="1.0" encoding="UTF-8"?>
<!DOCTYPE svg PUBLIC "-//W3C//DTD SVG 1.1//EN" "http://www.w3.org/Graphics/SVG/1.1/DTD/svg11.dtd">
<!-- Creator: CorelDRAW 2020 -->
<svg xmlns="http://www.w3.org/2000/svg" xml:space="preserve" width="18.3791mm" height="6.057mm" version="1.1" style="shape-rendering:geometricPrecision; text-rendering:geometricPrecision; image-rendering:optimizeQuality; fill-rule:evenodd; clip-rule:evenodd"
viewBox="0 0 193.71 63.84"
 xmlns:xlink="http://www.w3.org/1999/xlink"
 xmlns:xodm="http://www.corel.com/coreldraw/odm/2003">
 <defs>
  <style type="text/css">
   <![CDATA[
    .str0 {stroke:#C6B93A;stroke-width:7.9;stroke-miterlimit:22.9256}
    .str1 {stroke:#C6B93A;stroke-width:2.11;stroke-miterlimit:22.9256}
    .fil0 {fill:none}
    .fil1 {fill:#C6B93A}
    .fil2 {fill:#C6B93A;fill-rule:nonzero}
   ]]>
  </style>
 </defs>
 <g id="Layer_x0020_1">
  <metadata id="CorelCorpID_0Corel-Layer"/>
  <g id="_1778119936">
   <g id="atau-belgi.svg">
    <path class="fil0 str0" d="M33.34 5.52c-19.85,3.13 -26.47,15.6 -28.42,22.91 -1.71,6.34 -1.22,16.75 12.96,17.1 4.6,0 17.97,-0.03 28.94,0 13.62,0.03 17.41,-10.87 17.1,-20.23 -0.6,-17.01 -15.91,-22.07 -30.58,-19.78z"/>
    <path class="fil1" d="M15.5 29.62c0,-3.95 3.23,-7.18 7.18,-7.18 3.95,0 7.18,3.23 7.18,7.18 0,3.95 -3.23,7.18 -7.18,7.18 -3.95,0 -7.18,-3.23 -7.18,-7.18z"/>
   </g>
   <line class="fil0 str1" x1="-0" y1="62.79" x2="193.18" y2= "62.79" />
   <path class="fil2" d="M93.48 29.35l-4.02 0 0 -5.22 -1.61 0 -2.88 -6.2c-0.04,-0.09 -0.14,-0.26 -0.28,-0.51 -0.08,-0.13 -0.28,-0.51 -0.6,-1.13 -0.54,-1.03 -0.95,-1.68 -1.24,-1.96 -0.47,-0.46 -1.17,-0.69 -2.09,-0.7l0 10.51 -4.85 0 0 -23.96 4.85 0 0 10.17c1.2,-0.12 2.1,-0.61 2.67,-1.48 0.14,-0.24 0.56,-1.26 1.26,-3.07 0.9,-2.36 1.81,-3.89 2.73,-4.6 1.02,-0.78 2.73,-1.17 5.15,-1.17 0.11,0 0.34,-0.01 0.7,-0.02l0 3.56 -0.69 -0.02c-1.61,-0.05 -2.71,0.45 -3.28,1.49 -0.28,0.5 -0.7,1.53 -1.25,3.09 -0.35,0.98 -0.68,1.69 -1,2.12 -0.39,0.56 -0.98,1.07 -1.77,1.52 1.09,0.3 1.98,0.92 2.68,1.84 0.78,1.04 1.55,2.34 2.3,3.92l1.21 2.55 2.01 0 0 9.27zm13.39 -10.69c-2.87,3.78 -5.63,5.67 -8.3,5.67 -0.98,0 -1.83,-0.38 -2.53,-1.16 -0.71,-0.78 -1.07,-1.76 -1.07,-2.96 0,-2.89 1.29,-5.96 3.86,-9.22 2.57,-3.26 5.16,-4.89 7.77,-4.89 1.33,0 2.2,0.67 2.62,2.01 1.25,0 1.88,0.48 1.88,1.44 0,0.46 -0.12,1.28 -0.36,2.48 -0.43,2.24 -0.65,4.04 -0.65,5.38 0,1.39 0.09,2.38 0.28,2.94 0.19,0.57 0.33,0.94 0.42,1.12 0.09,0.17 0.35,0.36 0.79,0.55 0.44,0.21 0.65,0.5 0.65,0.86 0,0.56 -0.28,1.02 -0.84,1.39 -0.56,0.37 -1.15,0.56 -1.76,0.56 -2.05,0 -2.97,-2.05 -2.76,-6.16zm-0.98 -9.07c-1.1,0 -2.53,1.22 -4.29,3.65 -1.76,2.44 -2.64,4.5 -2.64,6.2 0,0.89 0.18,1.34 0.56,1.34 1.28,0 2.87,-1.14 4.75,-3.42 1.88,-2.29 2.82,-4.28 2.82,-5.99 0,-0.55 -0.12,-0.98 -0.37,-1.3 -0.25,-0.32 -0.52,-0.48 -0.83,-0.48zm26.59 12.99c0,0.26 -0.17,0.63 -0.51,1.12 -0.35,0.49 -0.96,0.73 -1.84,0.73 -1.08,0 -2.04,-0.92 -2.89,-2.76 -0.85,-1.83 -1.46,-3.84 -1.83,-6.02 -0.13,-0.73 -0.3,-1.58 -0.52,-2.55 -0.04,-0.17 -0.09,-0.51 -0.15,-1.03 -0.05,-0.55 -0.09,-0.84 -0.13,-0.88 -0.17,0.35 -0.36,0.74 -0.56,1.19 -1.37,3.03 -2.86,5.78 -4.48,8.27l-0.19 0.37c-0.07,0.13 -0.16,0.24 -0.25,0.33 -1.35,2.42 -2.45,3.62 -3.31,3.62 -1.23,0 -1.85,-0.55 -1.85,-1.65 0,-0.85 0.57,-1.95 1.73,-3.31 1.4,-1.7 3.22,-4.68 5.44,-8.94l2.32 -4.44c0.24,-0.44 0.66,-0.65 1.25,-0.65 0.36,0 0.78,0.11 1.27,0.32 0.49,0.21 0.81,0.47 0.97,0.76 0.16,0.3 0.31,0.77 0.45,1.44 0.78,3.68 1.49,6.59 2.12,8.71 0.63,2.12 1.32,3.46 2.07,4.02 0.59,0.31 0.88,0.75 0.88,1.34l0 0.02zm16.42 -0.84c-0.52,-0.98 -0.9,-2.81 -1.14,-5.49 -0.24,-2.79 -0.78,-4.18 -1.6,-4.18 -0.79,0 -2.14,1.45 -4.07,4.36 -1.92,2.9 -3.11,5.04 -3.56,6.43 -0.1,0.42 -0.28,0.76 -0.55,1.03 -0.26,0.27 -0.53,0.41 -0.79,0.41 -1.65,0 -2.48,-0.75 -2.48,-2.27 0,-0.51 0.16,-1.68 0.49,-3.5 0.42,-2.35 0.64,-5.23 0.64,-8.63 0,-0.51 0.22,-1.06 0.67,-1.64 0.45,-0.59 0.92,-0.88 1.42,-0.88 0.64,0 1.12,0.16 1.46,0.47 0.34,0.32 0.51,1.15 0.51,2.51 0,1.04 -0.31,3.04 -0.93,6.01 2.37,-5.53 5,-8.3 7.91,-8.3 2.53,0 4.01,1.99 4.44,5.96 0.44,4.05 0.94,6.08 1.5,6.08 0.25,0 0.54,-0.06 0.86,-0.16 0.4,-0.13 0.7,-0.19 0.94,-0.19 0.52,0 0.78,0.3 0.78,0.91 0,0.55 -0.36,1.14 -1.08,1.77 -0.72,0.63 -1.62,0.94 -2.72,0.94 -1.26,0 -2.16,-0.55 -2.71,-1.65l0.02 0zm19.49 -3.06c-2.84,3.76 -5.58,5.64 -8.2,5.64 -0.98,0 -1.83,-0.38 -2.53,-1.16 -0.71,-0.78 -1.07,-1.76 -1.07,-2.96 0,-2.89 1.29,-5.96 3.86,-9.22 2.57,-3.26 5.16,-4.89 7.77,-4.89 1.33,0 2.2,0.67 2.62,2.01 1.25,0 1.88,0.48 1.88,1.44 0,0.46 -0.12,1.28 -0.36,2.48 -0.43,2.24 -0.65,4.04 -0.65,5.38 0,1.39 0.09,2.38 0.28,2.94 0.19,0.57 0.33,0.94 0.42,1.12 0.09,0.17 0.35,0.36 0.79,0.55 0.44,0.21 0.65,0.5 0.65,0.86 0,0.56 -0.28,1.02 -0.84,1.39 -0.56,0.37 -1.15,0.56 -1.76,0.56 -1.03,0 -1.76,-0.51 -2.21,-1.53 -0.45,-1.03 -0.68,-2.23 -0.68,-3.6l0 -0.49c0,-0.16 0.01,-0.33 0.03,-0.51zm-0.88 -9.1c-1.1,0 -2.53,1.22 -4.29,3.65 -1.76,2.44 -2.64,4.5 -2.64,6.2 0,0.89 0.18,1.34 0.56,1.34 1.28,0 2.87,-1.14 4.75,-3.42 1.88,-2.29 2.82,-4.28 2.82,-5.99 0,-0.55 -0.12,-0.98 -0.37,-1.3 -0.25,-0.32 -0.52,-0.48 -0.83,-0.48zm24.38 7.87c0.03,2.48 0.43,4.03 1.18,4.64 0.44,0.37 0.66,0.72 0.66,1.04 0,0.4 -0.28,0.76 -0.84,1.11 -0.55,0.35 -1.08,0.52 -1.58,0.52 -0.98,0 -1.73,-0.59 -2.26,-1.77 -0.53,-1.18 -0.79,-2.89 -0.79,-5.14l0 -1.14c0,-0.04 -0.25,-0.07 -0.74,-0.07 -1.16,0 -2.48,0.09 -3.97,0.28 -1.49,0.2 -2.24,0.41 -2.24,0.66 0,0.38 -0.11,0.96 -0.34,1.75 -0.12,0.38 -0.18,0.77 -0.18,1.19l0.07 1.37c0,0.75 -0.19,1.4 -0.57,1.95 -0.38,0.55 -0.93,0.82 -1.65,0.82 -1.28,0 -1.91,-0.72 -1.91,-2.16l0.07 -1.37c0,-0.33 0.11,-1.18 0.34,-2.55 0.31,-1.82 0.54,-4.15 0.7,-7.01l0.26 -3.53c0.02,-0.35 0.27,-0.71 0.74,-1.09 0.47,-0.38 1,-0.57 1.58,-0.57 1.18,0 1.76,0.44 1.76,1.33 0,0.01 -0.02,0.13 -0.04,0.37 -0.49,3.05 -0.74,5 -0.74,5.85 0,0.07 0.01,0.1 0.02,0.11 0.08,0.07 1.56,-0.04 4.43,-0.31 1.43,-0.14 2.28,-0.26 2.53,-0.35 0.14,-0.04 0.28,-1.01 0.44,-2.89 0.14,-1.75 0.42,-2.91 0.86,-3.51 0.43,-0.59 1.01,-0.89 1.76,-0.89 0.71,0 1.24,0.17 1.58,0.5 0.34,0.33 0.46,0.78 0.37,1.33l-0.28 1.22c-0.04,0.21 -0.13,0.54 -0.26,1 -0.64,2.19 -0.96,4.26 -0.96,6.21l0.01 1.08zm-111.45 26.42c0.33,0.08 0.63,0.22 0.91,0.42 0.28,0.2 0.62,0.57 1.01,1.11 0.75,1.05 1.35,1.73 1.79,2.06 0.44,0.33 0.91,0.49 1.42,0.49 0.54,0 0.81,0.17 0.81,0.5 0,0.32 -0.19,0.64 -0.55,0.97 -0.37,0.33 -0.96,0.49 -1.75,0.49 -1.23,0 -2.47,-1.01 -3.74,-3.04 -0.73,-1.19 -1.35,-1.78 -1.84,-1.78 -0.06,0 -0.24,0.05 -0.53,0.14 -0.29,0.09 -0.47,0.18 -0.56,0.26 -0.09,0.07 -0.16,0.54 -0.22,1.39l-0.12 2c-0.01,0.33 -0.15,0.61 -0.4,0.85 -0.25,0.23 -0.57,0.35 -0.95,0.35 -0.4,0 -0.71,-0.11 -0.94,-0.34 -0.22,-0.22 -0.34,-0.44 -0.34,-0.67 0,-0.28 0.09,-0.87 0.28,-1.77 0.44,-2.29 0.78,-5.09 1.03,-8.39 0.03,-0.42 0.2,-0.81 0.52,-1.16 0.32,-0.35 0.69,-0.52 1.12,-0.52 0.3,0 0.55,0.13 0.74,0.38 0.2,0.26 0.3,0.55 0.3,0.88 0,0.26 -0.04,0.53 -0.13,0.8 -0.11,0.31 -0.26,0.95 -0.46,1.92 -0.2,0.97 -0.32,1.7 -0.36,2.21 0.86,-0.26 1.54,-0.63 2.02,-1.09 0.48,-0.46 1.08,-1.21 1.78,-2.23 0.6,-0.84 1.16,-1.47 1.68,-1.87 0.52,-0.4 1.1,-0.61 1.72,-0.61 0.34,0 0.66,0.15 0.95,0.43 0.29,0.29 0.44,0.59 0.44,0.91 0,0.27 -0.08,0.47 -0.25,0.61 -0.16,0.13 -0.45,0.26 -0.85,0.39 -0.51,0.15 -1.07,0.56 -1.65,1.24 -1.22,1.4 -2.18,2.29 -2.87,2.67zm23.57 4.85c-0.15,0.59 -0.33,1.67 -0.54,3.25 -0.22,1.58 -0.35,2.64 -0.39,3.18 -0.04,0.54 -0.23,1 -0.56,1.38 -0.33,0.38 -0.63,0.56 -0.89,0.57 -0.33,-0 -0.65,-0.13 -0.97,-0.37 -0.32,-0.25 -0.48,-0.52 -0.48,-0.81 0,-0.59 0.09,-1.27 0.27,-2.04 1.09,-4.35 1.68,-8.83 1.79,-13.45l0 -0.22c0,-0.9 0.03,-1.51 0.09,-1.82 0.06,-0.32 0.24,-0.62 0.55,-0.91 0.3,-0.29 0.66,-0.44 1.08,-0.44 0.35,0 0.63,0.16 0.85,0.47 0.22,0.31 0.33,0.76 0.33,1.35 0,0.59 -0.11,1.64 -0.33,3.13 0.81,-1.34 1.77,-2.46 2.89,-3.34 1.12,-0.88 2.15,-1.32 3.07,-1.32 0.81,0 1.51,0.29 2.07,0.87 0.57,0.58 0.86,1.31 0.86,2.19 0,2.35 -0.91,4.48 -2.73,6.4 -1.82,1.92 -3.62,2.88 -5.4,2.88 -0.83,0 -1.35,-0.32 -1.56,-0.94zm6.33 -8.92c-0.89,0 -2.03,0.87 -3.45,2.59 -1.41,1.73 -2.12,3.09 -2.12,4.07 0,0.25 0.13,0.48 0.38,0.68 0.25,0.2 0.55,0.3 0.88,0.3 0.92,0 1.98,-0.73 3.17,-2.18 1.2,-1.45 1.79,-2.85 1.79,-4.2 0,-0.45 -0.07,-0.78 -0.2,-0.97 -0.14,-0.2 -0.29,-0.3 -0.45,-0.3zm5.05 8.86c0.64,-0.64 1.38,-1.96 2.23,-3.96 0.12,-0.27 0.25,-0.55 0.39,-0.84 0.14,-0.29 0.26,-0.58 0.36,-0.86 0.06,-0.14 0.13,-0.29 0.2,-0.45 0.26,-0.56 0.52,-1.29 0.79,-2.19 0.26,-0.89 0.42,-1.52 0.49,-1.89 0.11,-0.62 0.58,-0.94 1.42,-0.94 0.54,0 0.87,0.09 1,0.28 0.13,0.19 0.26,0.42 0.41,0.68 0.15,0.27 0.32,0.97 0.52,2.11 0.2,1.14 0.36,2.1 0.47,2.89 0.15,0.94 0.39,1.93 0.74,2.95 0.89,-2.06 1.69,-3.81 2.39,-5.24 0.7,-1.43 1.26,-2.5 1.69,-3.2 0.42,-0.7 0.73,-1.13 0.91,-1.29 0.19,-0.16 0.37,-0.24 0.56,-0.24 0.35,0 0.73,0.1 1.13,0.3 0.41,0.2 0.64,0.4 0.71,0.61 0.07,0.98 0.15,2.82 0.24,5.51 0.04,0.97 0.1,1.83 0.19,2.58 0.09,0.76 0.25,1.38 0.47,1.89 0.31,0.62 0.47,1.16 0.47,1.6 0,0.36 -0.14,0.65 -0.42,0.88 -0.28,0.23 -0.69,0.35 -1.21,0.35 -0.76,0 -1.27,-0.52 -1.51,-1.56 -0.25,-1.04 -0.36,-2.88 -0.36,-5.52 0,-0.39 0.03,-1.14 0.11,-2.25l0.03 -0.7c-1,1.92 -1.85,3.65 -2.54,5.17 -0.94,2.09 -1.59,3.35 -1.94,3.79 -0.35,0.44 -0.73,0.67 -1.15,0.67l-0.17 0c-0.53,0 -0.93,-0.14 -1.21,-0.4 -0.28,-0.27 -0.58,-1.07 -0.9,-2.39 -0.33,-1.32 -0.57,-2.61 -0.73,-3.85 -0.07,-0.51 -0.14,-0.84 -0.2,-1.01 -0.29,1.04 -0.48,1.67 -0.56,1.86 -0.01,0.03 -0.04,0.1 -0.07,0.21 -0.22,0.67 -0.55,1.51 -1.01,2.54 -0.45,1.03 -0.87,1.83 -1.26,2.42 -0.39,0.58 -0.68,0.94 -0.89,1.08 -0.2,0.13 -0.44,0.2 -0.72,0.2 -0.3,0 -0.59,-0.11 -0.88,-0.34 -0.29,-0.23 -0.44,-0.49 -0.44,-0.78 0,-0.26 0.08,-0.48 0.23,-0.67l0.02 -0.02zm29.63 -2.97c0,0.75 -0.64,1.66 -1.91,2.71 -1.27,1.05 -2.7,1.58 -4.3,1.58 -1.23,0 -2.19,-0.39 -2.9,-1.16 -0.71,-0.77 -1.06,-1.85 -1.06,-3.23 0,-2.03 0.72,-3.94 2.16,-5.72 1.44,-1.78 2.98,-2.67 4.61,-2.67 0.81,0 1.47,0.26 1.96,0.77 0.5,0.52 0.74,1.13 0.74,1.84 0,1.26 -0.61,2.47 -1.82,3.61 -1.21,1.15 -2.77,1.93 -4.66,2.37 -0.22,0.05 -0.32,0.18 -0.32,0.39 0,0.35 0.15,0.68 0.46,1 0.31,0.32 0.72,0.48 1.24,0.48 1.46,0 2.91,-0.76 4.35,-2.26 0.28,-0.29 0.54,-0.44 0.8,-0.44 0.44,0 0.65,0.24 0.65,0.73zm-7.31 -1.93c1.15,-0.24 2.16,-0.73 3.03,-1.47 0.88,-0.75 1.31,-1.43 1.31,-2.04 0,-0.24 -0.07,-0.44 -0.2,-0.6 -0.13,-0.16 -0.31,-0.25 -0.52,-0.25 -0.63,0 -1.33,0.46 -2.1,1.39 -0.77,0.93 -1.28,1.92 -1.52,2.96zm12.33 6.27c-1.2,0 -2.11,-0.33 -2.73,-0.98 -0.63,-0.65 -0.94,-1.56 -0.94,-2.72 0,-1.83 0.74,-3.81 2.23,-5.94 1.49,-2.13 2.95,-3.19 4.38,-3.19 0.69,0 1.28,0.34 1.77,1.03 0.49,0.68 0.73,1.4 0.73,2.14 0,0.7 -0.13,1.17 -0.39,1.41 -0.26,0.24 -0.51,0.36 -0.74,0.36 -0.71,0 -1.12,-0.49 -1.23,-1.46 -0.09,-0.71 -0.27,-1.07 -0.54,-1.07 -0.56,0 -1.32,0.81 -2.25,2.42 -0.93,1.61 -1.39,3.02 -1.39,4.23 0,0.98 0.53,1.47 1.59,1.47 1.17,0 2.35,-0.41 3.54,-1.24 0.56,-0.4 1,-0.6 1.33,-0.6 0.4,0 0.6,0.2 0.6,0.6 0,0.56 -0.64,1.29 -1.92,2.18 -1.28,0.9 -2.63,1.35 -4.04,1.35zm11.73 -14.6c-0.22,0 -0.38,-0.04 -0.46,-0.11 -0.09,-0.08 -0.16,-0.23 -0.21,-0.46 -0.03,-0.12 -0.09,-0.26 -0.16,-0.41 -0.21,-0.48 -0.32,-0.91 -0.32,-1.3 0,-0.35 0.21,-0.7 0.62,-1.06 0.42,-0.36 0.88,-0.54 1.39,-0.54 0.28,0 0.59,0.11 0.95,0.35 0.35,0.23 0.53,0.45 0.53,0.66 0,0.28 -0.1,0.72 -0.3,1.33 -0.2,0.61 -0.54,1.02 -1,1.24 -0.46,0.22 -0.81,0.32 -1.04,0.32zm-2.91 6.77l0 0.01c0.23,-1.32 0.35,-2.08 0.35,-2.27 0,-0.54 0.12,-0.99 0.35,-1.35 0.24,-0.36 0.56,-0.55 0.99,-0.55 0.49,0 0.88,0.12 1.16,0.35 0.28,0.24 0.41,0.5 0.41,0.79 0,0.29 -0.13,0.89 -0.4,1.8l-0.07 0.24c-0.4,1.4 -0.64,2.55 -0.72,3.43 -0.08,0.89 -0.12,1.6 -0.12,2.15 0,0.44 0.07,1.03 0.23,1.78 0.02,0.13 0.03,0.24 0.03,0.32 0,0.17 -0.16,0.39 -0.48,0.68 -0.32,0.28 -0.65,0.42 -1.02,0.42 -0.95,0 -1.43,-0.73 -1.43,-2.18 0,-1.29 0.17,-2.8 0.52,-4.51 0.08,-0.39 0.14,-0.76 0.2,-1.11zm-59.47 1.43c0,1.75 -0.56,3.2 -1.68,4.35 -1.12,1.16 -2.54,1.74 -4.28,1.74 -1.09,0 -2.09,-0.24 -3.02,-0.71 -0.98,-0.51 -1.72,-1.22 -2.22,-2.14 -0.5,-0.92 -0.75,-2.04 -0.75,-3.37 0,-1.06 0.25,-2.04 0.75,-2.97 0.52,-0.96 1.24,-1.68 2.15,-2.18 0.91,-0.5 1.93,-0.75 3.05,-0.75 1.76,0 3.19,0.57 4.31,1.69 1.12,1.13 1.67,2.57 1.67,4.33zm-3.23 -0.96c-0.13,-0.75 -0.42,-1.36 -0.88,-1.82 -0.5,-0.49 -1.12,-0.74 -1.86,-0.74 -0.8,0 -1.47,0.3 -2.01,0.92 -0.38,0.42 -0.63,0.97 -0.74,1.65l5.49 0zm0.01 1.87l-5.51 0c0.12,0.78 0.41,1.41 0.87,1.89 0.5,0.52 1.13,0.79 1.89,0.79 0.76,0 1.39,-0.26 1.89,-0.79 0.46,-0.48 0.74,-1.11 0.86,-1.89z"/>
  </g>
 </g>
</svg>
