<?xml version="1.0" encoding="UTF-8"?>
<!DOCTYPE svg PUBLIC "-//W3C//DTD SVG 1.1//EN" "http://www.w3.org/Graphics/SVG/1.1/DTD/svg11.dtd">
<!-- Creator: CorelDRAW 2020 -->
<svg xmlns="http://www.w3.org/2000/svg" xml:space="preserve" width="17.7889mm" height="4.9146mm" version="1.1" style="shape-rendering:geometricPrecision; text-rendering:geometricPrecision; image-rendering:optimizeQuality; fill-rule:evenodd; clip-rule:evenodd"
viewBox="0 0 191.65 52.95"
 xmlns:xlink="http://www.w3.org/1999/xlink"
 xmlns:xodm="http://www.corel.com/coreldraw/odm/2003">
 <defs>
  <style type="text/css">
   <![CDATA[
    .str0 {stroke:#C6B93A;stroke-width:8.08;stroke-miterlimit:22.9256}
    .fil0 {fill:none}
    .fil1 {fill:#C6B93A}
    .fil2 {fill:#C6B93A;fill-rule:nonzero}
   ]]>
  </style>
 </defs>
 <g id="Layer_x0020_1">
  <metadata id="CorelCorpID_0Corel-Layer"/>
  <g id="_954230960">
   <g id="atau-belgi.svg">
    <path class="fil0 str0" d="M33.79 6.74c-20.29,3.2 -27.05,15.95 -29.05,23.42 -1.74,6.48 -1.25,17.12 13.24,17.48 4.7,0 18.37,-0.04 29.58,0 13.92,0.04 17.8,-11.11 17.48,-20.68 -0.61,-17.39 -16.26,-22.56 -31.25,-20.22z"/>
    <path class="fil1" d="M15.56 31.37c0,-4.04 3.3,-7.34 7.34,-7.34 4.04,0 7.34,3.3 7.34,7.34 0,4.04 -3.3,7.33 -7.34,7.33 -4.04,0 -7.34,-3.3 -7.34,-7.33z"/>
   </g>
   <path class="fil2" d="M96.96 33.61l-4.1 0 0 -5.34 -1.64 0 -2.95 -6.34c-0.05,-0.09 -0.14,-0.26 -0.28,-0.52 -0.08,-0.14 -0.29,-0.52 -0.62,-1.16 -0.55,-1.05 -0.97,-1.72 -1.27,-2.01 -0.48,-0.47 -1.2,-0.71 -2.14,-0.72l0 10.74 -4.96 0 0 -24.49 4.96 0 0 10.4c1.23,-0.12 2.14,-0.63 2.73,-1.52 0.15,-0.24 0.58,-1.29 1.29,-3.14 0.92,-2.41 1.85,-3.98 2.79,-4.7 1.04,-0.8 2.79,-1.2 5.27,-1.2 0.11,0 0.35,-0.01 0.72,-0.02l0 3.64 -0.7 -0.02c-1.65,-0.05 -2.77,0.46 -3.35,1.52 -0.29,0.51 -0.72,1.56 -1.28,3.16 -0.36,1 -0.7,1.73 -1.02,2.17 -0.4,0.58 -1,1.09 -1.81,1.55 1.11,0.31 2.02,0.94 2.74,1.88 0.8,1.06 1.58,2.39 2.35,4.01l1.24 2.61 2.05 0 0 9.48zm13.68 -10.93c-2.93,3.86 -5.76,5.79 -8.48,5.79 -1,0 -1.87,-0.39 -2.59,-1.19 -0.73,-0.79 -1.09,-1.8 -1.09,-3.02 0,-2.95 1.32,-6.09 3.95,-9.43 2.62,-3.34 5.27,-5 7.95,-5 1.36,0 2.25,0.68 2.67,2.05 1.28,0 1.92,0.49 1.92,1.47 0,0.47 -0.12,1.31 -0.37,2.54 -0.44,2.29 -0.67,4.13 -0.67,5.5 0,1.43 0.1,2.43 0.29,3 0.2,0.58 0.34,0.96 0.43,1.14 0.09,0.18 0.36,0.37 0.8,0.56 0.44,0.21 0.67,0.51 0.67,0.88 0,0.57 -0.28,1.04 -0.86,1.42 -0.58,0.38 -1.17,0.57 -1.8,0.57 -2.09,0 -3.03,-2.1 -2.82,-6.29zm-1 -9.27c-1.12,0 -2.59,1.24 -4.38,3.73 -1.8,2.49 -2.7,4.6 -2.7,6.34 0,0.91 0.19,1.37 0.57,1.37 1.31,0 2.93,-1.16 4.85,-3.49 1.92,-2.34 2.88,-4.37 2.88,-6.12 0,-0.56 -0.12,-1 -0.38,-1.33 -0.25,-0.33 -0.53,-0.49 -0.84,-0.49zm15.68 -13.42c1.2,0 1.81,0.66 1.81,1.97 0,0.6 -0.09,1.25 -0.25,1.94 -0.17,0.69 -0.63,2.42 -1.37,5.17 -0.55,1.99 -0.96,4.17 -1.25,6.52 -0.28,2.35 -0.42,4.2 -0.42,5.52 0,1.41 0.1,3.1 0.31,5.05 0.06,0.52 0.09,0.85 0.09,0.99 0,0.67 -0.25,1.24 -0.74,1.72 -0.49,0.48 -1.03,0.72 -1.6,0.72 -0.79,0 -1.35,-0.37 -1.67,-1.12 -0.33,-0.75 -0.48,-2.02 -0.48,-3.84 0,-3.91 0.46,-8.51 1.38,-13.81 0.92,-5.3 1.67,-8.43 2.25,-9.38 0.59,-0.96 1.23,-1.44 1.94,-1.44zm7.49 27.09c-0.19,0.78 -0.38,1.96 -0.57,3.54l-0.8 6.56c-0.14,1.07 -0.39,1.81 -0.78,2.22 -0.38,0.41 -0.86,0.62 -1.41,0.62 -0.5,-0.01 -0.98,-0.19 -1.43,-0.56 -0.45,-0.37 -0.67,-0.79 -0.67,-1.24 0,-0.9 0.14,-1.94 0.42,-3.12 1.66,-6.62 2.57,-13.5 2.72,-20.63l0 -0.34c0,-1.49 0.05,-2.49 0.12,-2.98 0.09,-0.5 0.33,-0.94 0.72,-1.31 0.4,-0.38 0.96,-0.57 1.68,-0.57 1.21,0 1.82,0.93 1.82,2.79 0,0.76 -0.14,2.05 -0.42,3.86l-0.17 1.15c1.27,-2.11 2.78,-3.87 4.52,-5.27 1.75,-1.4 3.32,-2.1 4.7,-2.1 1.25,0 2.31,0.44 3.18,1.33 0.87,0.9 1.31,2.01 1.31,3.36 0,3.6 -1.4,6.87 -4.18,9.82 -2.79,2.94 -5.55,4.41 -8.28,4.41 -1.29,0 -2.12,-0.51 -2.49,-1.55zm9.8 -13.58c-1.36,0 -3.12,1.33 -5.28,3.97 -2.17,2.65 -3.25,4.73 -3.25,6.25 0,0.39 0.19,0.74 0.58,1.04 0.39,0.31 0.84,0.46 1.35,0.46 1.41,0 3.04,-1.11 4.87,-3.34 1.84,-2.22 2.75,-4.37 2.75,-6.44 0,-0.69 -0.1,-1.19 -0.31,-1.49 -0.21,-0.31 -0.44,-0.46 -0.69,-0.46zm19.81 9.17c-2.93,3.86 -5.76,5.79 -8.48,5.79 -1,0 -1.87,-0.39 -2.59,-1.19 -0.73,-0.79 -1.09,-1.8 -1.09,-3.02 0,-2.95 1.32,-6.09 3.95,-9.43 2.62,-3.34 5.27,-5 7.95,-5 1.36,0 2.25,0.68 2.67,2.05 1.28,0 1.92,0.49 1.92,1.47 0,0.47 -0.12,1.31 -0.37,2.54 -0.44,2.29 -0.67,4.13 -0.67,5.5 0,1.43 0.1,2.43 0.29,3 0.2,0.58 0.34,0.96 0.43,1.14 0.09,0.18 0.36,0.37 0.8,0.56 0.44,0.21 0.67,0.51 0.67,0.88 0,0.57 -0.28,1.04 -0.86,1.42 -0.58,0.38 -1.17,0.57 -1.8,0.57 -2.09,0 -3.03,-2.1 -2.82,-6.29zm-1 -9.27c-1.12,0 -2.59,1.24 -4.38,3.73 -1.8,2.49 -2.7,4.6 -2.7,6.34 0,0.91 0.19,1.37 0.57,1.37 1.31,0 2.93,-1.16 4.85,-3.49 1.92,-2.34 2.88,-4.37 2.88,-6.12 0,-0.56 -0.12,-1 -0.38,-1.33 -0.25,-0.33 -0.53,-0.49 -0.84,-0.49zm23.6 12.42c-0.54,-1 -0.92,-2.87 -1.17,-5.61 -0.25,-2.85 -0.79,-4.28 -1.64,-4.28 -0.8,0 -2.19,1.48 -4.16,4.45 -1.97,2.96 -3.18,5.15 -3.64,6.57 -0.1,0.43 -0.29,0.78 -0.56,1.05 -0.27,0.28 -0.54,0.42 -0.81,0.42 -1.69,0 -2.54,-0.77 -2.54,-2.32 0,-0.52 0.16,-1.72 0.5,-3.57 0.43,-2.41 0.65,-5.34 0.65,-8.82 0,-0.52 0.23,-1.08 0.68,-1.68 0.46,-0.6 0.94,-0.9 1.45,-0.9 0.65,0 1.14,0.16 1.49,0.48 0.35,0.33 0.52,1.18 0.52,2.57 0,1.06 -0.32,3.11 -0.95,6.15 2.42,-5.65 5.11,-8.48 8.08,-8.48 2.58,0 4.1,2.03 4.54,6.09 0.44,4.14 0.96,6.21 1.53,6.21 0.26,0 0.55,-0.06 0.88,-0.17 0.4,-0.14 0.72,-0.2 0.96,-0.2 0.53,0 0.8,0.31 0.8,0.94 0,0.56 -0.37,1.17 -1.1,1.81 -0.73,0.64 -1.66,0.96 -2.78,0.96 -1.29,0 -2.21,-0.56 -2.77,-1.69l0.02 0zm-99.23 22.82c0,0.64 -0.54,1.41 -1.62,2.31 -1.08,0.89 -2.3,1.34 -3.66,1.34 -1.05,0 -1.87,-0.33 -2.47,-0.99 -0.6,-0.66 -0.9,-1.58 -0.9,-2.75 0,-1.73 0.61,-3.36 1.84,-4.87 1.23,-1.52 2.53,-2.27 3.92,-2.27 0.69,0 1.25,0.22 1.67,0.66 0.42,0.44 0.63,0.96 0.63,1.57 0,1.08 -0.52,2.1 -1.55,3.07 -1.03,0.98 -2.36,1.65 -3.97,2.02 -0.18,0.04 -0.28,0.15 -0.28,0.33 0,0.3 0.13,0.58 0.39,0.85 0.26,0.27 0.62,0.41 1.05,0.41 1.24,0 2.48,-0.64 3.7,-1.92 0.23,-0.25 0.46,-0.37 0.68,-0.37 0.37,0 0.56,0.21 0.56,0.62zm-6.23 -1.64c0.98,-0.2 1.84,-0.62 2.58,-1.25 0.75,-0.64 1.12,-1.22 1.12,-1.74 0,-0.2 -0.06,-0.37 -0.17,-0.51 -0.11,-0.14 -0.26,-0.21 -0.44,-0.21 -0.54,0 -1.13,0.4 -1.79,1.19 -0.66,0.79 -1.09,1.63 -1.3,2.52zm11.1 1.65c-1.1,1.03 -1.88,2.11 -2.35,3.22 -0.2,0.46 -0.41,0.82 -0.63,1.06 -0.54,-0.03 -0.93,-0.14 -1.19,-0.33 -0.25,-0.19 -0.38,-0.5 -0.38,-0.93 0,-0.38 0.17,-0.86 0.5,-1.42 0.33,-0.57 1.15,-1.45 2.46,-2.66 0.2,-0.18 0.36,-0.35 0.5,-0.48 -1.18,-1.73 -1.77,-3.09 -1.77,-4.05 0,-1.02 0.45,-1.53 1.35,-1.53 0.63,0 0.96,0.46 1,1.37 0.04,0.94 0.38,1.91 1.04,2.92 0.32,-0.29 0.66,-0.64 1.03,-1.03 0.1,-0.11 0.2,-0.21 0.3,-0.3 0.78,-0.82 1.34,-1.56 1.68,-2.19 0.22,-0.4 0.41,-0.66 0.55,-0.78 0.15,-0.12 0.36,-0.17 0.65,-0.17 0.32,0 0.59,0.11 0.82,0.33 0.23,0.22 0.34,0.49 0.34,0.82 0,0.67 -1.44,2.31 -4.31,4.91 0.97,1.2 2.02,2.11 3.13,2.72 0.14,0.08 0.27,0.18 0.39,0.29 0.05,0.12 0.08,0.24 0.08,0.38 0,0.32 -0.13,0.59 -0.38,0.83 -0.26,0.24 -0.56,0.36 -0.93,0.36 -0.91,0 -2.2,-1.11 -3.86,-3.31zm8.97 -1.1c1.03,-1.92 1.91,-3.23 2.66,-3.93 0.75,-0.7 1.5,-1.05 2.26,-1.05 0.53,0 0.96,0.18 1.31,0.54 0.35,0.37 0.6,1.31 0.77,2.83 0.07,0.72 0.16,1.31 0.26,1.75 0.1,0.45 0.22,0.84 0.35,1.19 0.13,0.34 0.32,0.66 0.56,0.97 0.19,0.24 0.28,0.47 0.28,0.7 0,0.22 -0.11,0.42 -0.32,0.61 -0.21,0.19 -0.46,0.28 -0.74,0.28 -0.55,0 -1.04,-0.3 -1.47,-0.9 -0.43,-0.6 -0.68,-1.43 -0.76,-2.49 -0.1,-1.3 -0.21,-2.12 -0.32,-2.48 -0.11,-0.36 -0.3,-0.54 -0.57,-0.54 -0.36,0 -1.06,0.72 -2.09,2.15 -1.04,1.43 -1.78,2.58 -2.24,3.44 -0.28,0.65 -0.51,1.07 -0.66,1.26 -0.16,0.19 -0.35,0.29 -0.58,0.29 -0.38,0 -0.68,-0.09 -0.92,-0.28 -0.23,-0.18 -0.35,-0.45 -0.35,-0.79 0,-0.16 0.08,-0.69 0.25,-1.57 0.63,-3.32 1.15,-6.86 1.55,-10.6 0.1,-0.9 0.29,-1.53 0.57,-1.87 0.28,-0.34 0.54,-0.51 0.78,-0.51 0.33,0 0.61,0.13 0.85,0.38 0.24,0.25 0.36,0.61 0.36,1.06 0,0.69 -0.09,1.49 -0.25,2.39 -0.16,0.9 -0.48,2.34 -0.93,4.32 -0.28,1.19 -0.48,2.14 -0.61,2.85zm14.89 -9.51c0,0.44 -0.2,0.83 -0.59,1.16 -0.4,0.33 -0.74,0.5 -1.03,0.5 -0.37,0 -0.7,-0.16 -0.99,-0.47 -0.29,-0.31 -0.43,-0.62 -0.43,-0.93 0,-0.44 0.14,-0.8 0.43,-1.08 0.29,-0.28 0.69,-0.41 1.23,-0.41 0.41,0 0.75,0.12 1.01,0.37 0.26,0.24 0.38,0.53 0.38,0.87zm-4.48 7.63l0 0.01c0.2,-1.13 0.3,-1.77 0.3,-1.93 0,-0.46 0.1,-0.84 0.3,-1.15 0.2,-0.31 0.48,-0.47 0.84,-0.47 0.42,0 0.75,0.1 0.99,0.3 0.23,0.2 0.35,0.42 0.35,0.67 0,0.25 -0.11,0.76 -0.34,1.53l-0.06 0.2c-0.34,1.19 -0.54,2.17 -0.61,2.92 -0.07,0.75 -0.1,1.36 -0.1,1.83 0,0.38 0.06,0.88 0.19,1.51 0.02,0.11 0.03,0.2 0.03,0.28 0,0.14 -0.14,0.34 -0.41,0.58 -0.27,0.24 -0.56,0.36 -0.87,0.36 -0.81,0 -1.22,-0.62 -1.22,-1.86 0,-1.05 0.15,-2.33 0.44,-3.84 0.06,-0.33 0.12,-0.65 0.17,-0.94zm5.73 -2.85c0.6,-3.56 1.03,-5.66 1.3,-6.32 0.26,-0.66 0.72,-0.98 1.38,-0.98 0.51,0 0.76,0.45 0.76,1.34 0,0.62 -0.25,1.89 -0.76,3.81 -0.27,0.95 -0.59,2.39 -0.97,4.33 0.77,-1.02 1.6,-1.85 2.51,-2.48 0.91,-0.63 1.71,-0.95 2.43,-0.95 0.58,0 1.06,0.25 1.45,0.75 0.39,0.5 0.58,1.08 0.58,1.76 0,1.9 -0.73,3.7 -2.2,5.37 -1.46,1.68 -3.01,2.51 -4.66,2.51 -0.49,0 -0.96,-0.14 -1.38,-0.4 -0.43,-0.27 -0.67,-0.61 -0.73,-1.04 -0.03,-0.23 -0.07,-0.38 -0.14,-0.46 -0.07,-0.07 -0.14,-0.16 -0.21,-0.24 -0.18,-0.18 -0.27,-0.45 -0.27,-0.78 0,-0.38 0.09,-1.18 0.29,-2.39l0.62 -3.84zm1.1 6.59c0.26,0.43 0.55,0.65 0.87,0.65 0.58,0 1.23,-0.27 1.93,-0.8 0.71,-0.54 1.32,-1.29 1.85,-2.26 0.52,-0.97 0.79,-1.78 0.79,-2.42 0,-0.61 -0.1,-0.92 -0.29,-0.92 -0.98,0 -2.09,0.72 -3.31,2.16 -1.23,1.44 -1.84,2.64 -1.84,3.6zm14.14 -11.37c0,0.44 -0.2,0.83 -0.59,1.16 -0.4,0.33 -0.74,0.5 -1.03,0.5 -0.37,0 -0.7,-0.16 -0.99,-0.47 -0.29,-0.31 -0.43,-0.62 -0.43,-0.93 0,-0.44 0.14,-0.8 0.43,-1.08 0.29,-0.28 0.69,-0.41 1.23,-0.41 0.41,0 0.75,0.12 1.01,0.37 0.26,0.24 0.38,0.53 0.38,0.87zm-4.48 7.63l0 0.01c0.2,-1.13 0.3,-1.77 0.3,-1.93 0,-0.46 0.1,-0.84 0.3,-1.15 0.2,-0.31 0.48,-0.47 0.84,-0.47 0.42,0 0.75,0.1 0.99,0.3 0.23,0.2 0.35,0.42 0.35,0.67 0,0.25 -0.11,0.76 -0.34,1.53l-0.06 0.2c-0.34,1.19 -0.54,2.17 -0.61,2.92 -0.07,0.75 -0.1,1.36 -0.1,1.83 0,0.38 0.06,0.88 0.19,1.51 0.02,0.11 0.03,0.2 0.03,0.28 0,0.14 -0.14,0.34 -0.41,0.58 -0.27,0.24 -0.56,0.36 -0.87,0.36 -0.81,0 -1.22,-0.62 -1.22,-1.86 0,-1.05 0.15,-2.33 0.44,-3.84 0.06,-0.33 0.12,-0.65 0.17,-0.94zm8.58 -1.37c-0.05,0 -0.23,0.69 -0.52,2.07 -0.29,1.38 -0.44,2.22 -0.44,2.5 0,0.51 0.05,0.86 0.16,1.06 0.11,0.2 0.29,0.3 0.53,0.3 0.35,0 0.68,-0.06 1,-0.18 0.32,-0.12 0.74,-0.39 1.26,-0.81 0.32,-0.27 0.6,-0.4 0.82,-0.4 0.18,0 0.32,0.05 0.43,0.15 0.11,0.1 0.16,0.22 0.16,0.36 0,0.55 -0.44,1.16 -1.32,1.85 -0.88,0.69 -1.81,1.04 -2.78,1.04 -0.82,0 -1.44,-0.24 -1.87,-0.73 -0.43,-0.48 -0.64,-1.18 -0.64,-2.08 0,-0.84 0.31,-2.5 0.94,-5 -0.4,0.05 -0.67,0.06 -0.83,0.06l-0.2 0c-0.28,0 -0.57,-0.09 -0.87,-0.27 -0.29,-0.19 -0.44,-0.48 -0.44,-0.89 0,-0.52 0.29,-0.78 0.88,-0.78l1.99 -0.07c0.26,-0.75 0.54,-1.73 0.82,-2.94 0.17,-0.75 0.57,-1.13 1.18,-1.13 0.34,0 0.61,0.1 0.8,0.31 0.19,0.21 0.29,0.44 0.29,0.69 0,0.1 -0.26,1.05 -0.79,2.87 1.97,-0.17 3.05,-0.26 3.24,-0.26 0.33,0 0.55,0.05 0.65,0.15 0.1,0.09 0.16,0.28 0.16,0.55 0,0.55 -0.47,0.9 -1.4,1.05l-3.2 0.54zm10.23 -6.26c0,0.44 -0.2,0.83 -0.59,1.16 -0.4,0.33 -0.74,0.5 -1.03,0.5 -0.37,0 -0.7,-0.16 -0.99,-0.47 -0.29,-0.31 -0.43,-0.62 -0.43,-0.93 0,-0.44 0.14,-0.8 0.43,-1.08 0.29,-0.28 0.69,-0.41 1.23,-0.41 0.41,0 0.75,0.12 1.01,0.37 0.26,0.24 0.38,0.53 0.38,0.87zm-4.48 7.63l0 0.01c0.2,-1.13 0.3,-1.77 0.3,-1.93 0,-0.46 0.1,-0.84 0.3,-1.15 0.2,-0.31 0.48,-0.47 0.84,-0.47 0.42,0 0.75,0.1 0.99,0.3 0.23,0.2 0.35,0.42 0.35,0.67 0,0.25 -0.11,0.76 -0.34,1.53l-0.06 0.2c-0.34,1.19 -0.54,2.17 -0.61,2.92 -0.07,0.75 -0.1,1.36 -0.1,1.83 0,0.38 0.06,0.88 0.19,1.51 0.02,0.11 0.03,0.2 0.03,0.28 0,0.14 -0.14,0.34 -0.41,0.58 -0.27,0.24 -0.56,0.36 -0.87,0.36 -0.81,0 -1.22,-0.62 -1.22,-1.86 0,-1.05 0.15,-2.33 0.44,-3.84 0.06,-0.33 0.12,-0.65 0.17,-0.94zm13.57 1.46c-0.41,1.45 -1.2,2.67 -2.36,3.66 -1.16,0.99 -2.32,1.49 -3.47,1.49 -0.91,0 -1.67,-0.34 -2.26,-1.01 -0.59,-0.67 -0.89,-1.5 -0.89,-2.47 0,-1.6 0.55,-3.17 1.63,-4.71 1.09,-1.55 2.41,-2.32 3.96,-2.32 1.06,0 1.92,0.39 2.57,1.18 0.66,0.78 0.98,1.71 0.98,2.8 0,0.47 -0.05,0.93 -0.16,1.38l0 0.01zm-4.83 -2.93c-0.43,0.38 -0.86,0.99 -1.27,1.84 -0.41,0.84 -0.62,1.68 -0.62,2.53 0,0.51 0.09,0.94 0.28,1.27 0.19,0.34 0.44,0.5 0.75,0.5 0.77,0 1.56,-0.45 2.39,-1.36 0.83,-0.91 1.24,-1.93 1.24,-3.06 0,-0.64 -0.13,-1.16 -0.4,-1.57 -0.27,-0.41 -0.65,-0.62 -1.13,-0.62 -0.46,0 -0.87,0.16 -1.24,0.48l-0.01 0zm14.56 6.28c-0.3,-0.56 -0.51,-1.6 -0.65,-3.12 -0.14,-1.58 -0.44,-2.38 -0.91,-2.38 -0.45,0 -1.22,0.82 -2.31,2.47 -1.09,1.65 -1.77,2.86 -2.02,3.65 -0.06,0.24 -0.16,0.43 -0.31,0.59 -0.15,0.16 -0.3,0.23 -0.45,0.23 -0.94,0 -1.41,-0.43 -1.41,-1.29 0,-0.29 0.09,-0.95 0.28,-1.99 0.24,-1.34 0.36,-2.97 0.36,-4.9 0,-0.29 0.13,-0.6 0.38,-0.93 0.25,-0.33 0.52,-0.5 0.81,-0.5 0.36,0 0.63,0.09 0.83,0.27 0.19,0.18 0.29,0.66 0.29,1.43 0,0.59 -0.18,1.73 -0.53,3.42 1.34,-3.14 2.84,-4.71 4.49,-4.71 1.44,0 2.28,1.13 2.52,3.39 0.25,2.3 0.53,3.45 0.85,3.45 0.14,0 0.31,-0.03 0.49,-0.09 0.22,-0.08 0.4,-0.11 0.53,-0.11 0.3,0 0.44,0.17 0.44,0.52 0,0.31 -0.2,0.65 -0.61,1.01 -0.41,0.35 -0.92,0.53 -1.54,0.53 -0.72,0 -1.23,-0.31 -1.54,-0.94l0.01 0z"/>
  </g>
 </g>
</svg>
