<?xml version="1.0" encoding="UTF-8"?>
<!DOCTYPE svg PUBLIC "-//W3C//DTD SVG 1.1//EN" "http://www.w3.org/Graphics/SVG/1.1/DTD/svg11.dtd">
<!-- Creator: CorelDRAW 2020 -->
<svg xmlns="http://www.w3.org/2000/svg" xml:space="preserve" width="22.9804mm" height="8mm" version="1.1" style="shape-rendering:geometricPrecision; text-rendering:geometricPrecision; image-rendering:optimizeQuality; fill-rule:evenodd; clip-rule:evenodd"
viewBox="0 0 299.84 104.38"
 xmlns:xlink="http://www.w3.org/1999/xlink"
 xmlns:xodm="http://www.corel.com/coreldraw/odm/2003">
 <defs>
  <style type="text/css">
   <![CDATA[
    .str0 {stroke:#6B470F;stroke-width:9.79;stroke-miterlimit:22.9256}
    .fil0 {fill:none}
    .fil1 {fill:#6B470F}
    .fil2 {fill:#6B470F;fill-rule:nonzero}
   ]]>
  </style>
 </defs>
 <g id="Layer_x0020_1">
  <metadata id="CorelCorpID_0Corel-Layer"/>
  <polygon class="fil0" points="-0,0 299.84,0 299.84,104.38 -0,104.38 "/>
  <g id="_1027188608">
   <g id="atau-belgi.svg">
    <path class="fil0 str0" d="M52.68 20.51c-24.57,3.88 -32.76,19.31 -35.18,28.37 -2.11,7.85 -1.51,20.74 16.04,21.17 5.69,0 22.24,-0.04 35.82,0 16.86,0.04 21.56,-13.45 21.17,-25.05 -0.74,-21.06 -19.69,-27.33 -37.85,-24.49z"/>
    <path class="fil1" d="M30.6 50.34c0,-4.89 3.99,-8.88 8.88,-8.88 4.89,0 8.88,3.99 8.88,8.88 0,4.89 -3.99,8.88 -8.88,8.88 -4.89,0 -8.88,-3.99 -8.88,-8.88z"/>
   </g>
   <path class="fil2" d="M123.07 17.37l-2.78 2.61c-1.6,-2.49 -3.84,-4.51 -6.71,-6.05l2.49 -2.87c2.84,1.68 5.18,3.79 7,6.31zm12.21 8.9c-2.68,4.17 -5.62,7.58 -8.82,10.23 -3.2,2.66 -6.98,4.81 -11.35,6.46l-2.69 -3.18c4.63,-1.59 8.55,-3.62 11.77,-6.11 3.52,-2.69 6.57,-6.19 9.14,-10.47l1.94 3.07zm-15.03 0.79l-2.64 2.61c-2.62,-3.03 -5.36,-5.19 -8.22,-6.47l2.21 -3.3c3.52,1.71 6.4,4.1 8.65,7.16zm98.15 -1.07c-3.25,6.07 -7.41,10.87 -12.48,14.4l-3.27 -1.82 0 -23.95 4.14 0 0 19.95c1.91,-1.66 3.53,-3.38 4.83,-5.18 1.24,-1.71 2.55,-3.98 3.95,-6.79l2.83 3.4zm-18.21 -4.77c0,6.2 -0.58,10.66 -1.74,13.37 -0.98,2.31 -3.18,4.82 -6.57,7.55l-2.81 -2.85c3.06,-2.33 4.99,-4.59 5.77,-6.77 0.79,-2.18 1.19,-6.38 1.19,-12.61l0 -3.7 4.16 0 0 5.02zm58.58 -4.76l-2.38 2.53c-1.47,-2.09 -3.34,-3.81 -5.61,-5.18l2.02 -2.79c2.18,1.12 4.16,2.93 5.97,5.44zm-3.4 3.76l-2.38 2.81c-1.33,-2.14 -3.13,-3.95 -5.41,-5.42l2.17 -2.65c2.15,1.29 4.03,3.04 5.62,5.26zm0.39 9.16l-1.5 3.68c-3.14,-2.48 -6.22,-4.35 -9.25,-5.6l0 16.49 -4.09 0 0 -32.47 4.09 0 0 11.59c3.58,1.54 7.15,3.64 10.74,6.31zm-110.12 0.89l0 -3.56 36.09 0 0 3.56 -36.09 0zm-20.05 43.06l-19.09 0 0 -2.59 8.13 0 0 -8.24 -6.45 0 0 -2.59 15.72 0 0 2.59 -6.43 0 0 8.24 8.11 0 0 2.59zm26.54 -5.38l-6.14 1.77 1.32 7.01 -2.7 0.81 -1.39 -7.08 -7.01 1.77 -0.87 -2.7 7.36 -1.83 -0.63 -3.36 -4.83 1.21 -0.72 -2.74 5.04 -1.16 -1.04 -5.41 2.69 -0.86 1.11 5.53 4.75 -1.16 0.58 2.56 -4.83 1.21 0.66 3.37 6.14 -1.52 0.5 2.57zm19.25 -8.2l-1.85 1.74c-1.07,-1.66 -2.56,-3.01 -4.47,-4.03l1.66 -1.91c1.9,1.12 3.45,2.53 4.67,4.21zm8.14 5.93c-1.79,2.78 -3.75,5.05 -5.88,6.82 -2.13,1.77 -4.65,3.21 -7.57,4.3l-1.79 -2.12c3.08,-1.06 5.7,-2.42 7.85,-4.07 2.35,-1.8 4.38,-4.12 6.09,-6.98l1.29 2.05zm-10.02 0.53l-1.76 1.74c-1.74,-2.02 -3.57,-3.46 -5.48,-4.31l1.47 -2.2c2.34,1.14 4.27,2.73 5.77,4.77zm40.32 -9.3l-1.68 1.68c-0.97,-1.41 -2.2,-2.58 -3.7,-3.51l1.51 -1.68c1.55,0.79 2.84,1.96 3.87,3.51zm-2.59 2.06l-1.78 1.66c-0.75,-1.33 -1.96,-2.5 -3.61,-3.5l1.52 -1.66c1.53,0.8 2.82,1.97 3.87,3.51zm-1.33 3.43c-3.56,2.86 -7.21,4.96 -10.94,6.3l0 2.63c0,0.69 0.13,1.14 0.39,1.35 0.21,0.17 0.65,0.25 1.35,0.25l9.04 0 0 2.65 -9.06 0c-1.95,0 -3.19,-0.23 -3.71,-0.7 -0.55,-0.47 -0.82,-1.61 -0.82,-3.41l0 -13.17 2.82 0 0 7.59c3.48,-1.44 6.61,-3.35 9.4,-5.74l1.54 2.27zm20.71 -2.64l-1.85 1.74c-1.07,-1.66 -2.56,-3.01 -4.47,-4.03l1.66 -1.91c1.9,1.12 3.45,2.53 4.67,4.21zm8.14 5.93c-1.79,2.78 -3.75,5.05 -5.88,6.82 -2.13,1.77 -4.65,3.21 -7.57,4.3l-1.79 -2.12c3.08,-1.06 5.7,-2.42 7.85,-4.07 2.35,-1.8 4.38,-4.12 6.09,-6.98l1.29 2.05zm-10.02 0.53l-1.76 1.74c-1.74,-2.02 -3.57,-3.46 -5.48,-4.31l1.47 -2.2c2.34,1.14 4.27,2.73 5.77,4.77zm35.47 10.33l-2.74 0 0 -1.13 -8.81 0 0 -2.63 8.81 0 0 -2.51 -8.37 0 0 -2.63 8.37 0 0 -2.29 -8.81 0 0 -2.59 11.54 0 0 13.78zm21.37 -15.22l-1.89 2.29c-1.33,-1.65 -2.95,-3.18 -4.86,-4.58l1.74 -2.23c1.89,1.25 3.56,2.76 5,4.52zm8.47 3.05c-3.15,5.22 -7.78,9.28 -13.89,12.2l-1.98 -2.33c2.76,-1.2 5.31,-2.7 7.65,-4.49 2.92,-2.25 5.21,-4.74 6.85,-7.48l1.38 2.1z"/>
  </g>
 </g>
</svg>
