<?xml version="1.0" encoding="UTF-8"?>
<!DOCTYPE svg PUBLIC "-//W3C//DTD SVG 1.1//EN" "http://www.w3.org/Graphics/SVG/1.1/DTD/svg11.dtd">
<!-- Creator: CorelDRAW 2020 -->
<svg xmlns="http://www.w3.org/2000/svg" xml:space="preserve" width="6.7032mm" height="9.0311mm" version="1.1" style="shape-rendering:geometricPrecision; text-rendering:geometricPrecision; image-rendering:optimizeQuality; fill-rule:evenodd; clip-rule:evenodd"
viewBox="0 0 36.23 48.81"
 xmlns:xlink="http://www.w3.org/1999/xlink"
 xmlns:xodm="http://www.corel.com/coreldraw/odm/2003">
 <defs>
  <style type="text/css">
   <![CDATA[
    .str0 {stroke:#C6B93A;stroke-width:2.7;stroke-miterlimit:22.9256}
    .str2 {stroke:#FFF212;stroke-width:1.08;stroke-miterlimit:22.9256}
    .str1 {stroke:#C6B93A;stroke-width:1.08;stroke-miterlimit:22.9256}
    .fil0 {fill:none}
    .fil1 {fill:#C6B93A}
    .fil2 {fill:#C6B93A;fill-rule:nonzero}
   ]]>
  </style>
 </defs>
 <g id="Layer_x0020_1">
  <metadata id="CorelCorpID_0Corel-Layer"/>
  <line class="fil0 str0" x1="-0" y1="30.81" x2="36.23" y2= "30.81" />
  <polygon class="fil0 str1" points="21.73,5.8 26.75,2.14 31.77,5.8 31.77,29.42 21.73,29.42 "/>
  <line class="fil0 str0" x1="26.75" y1="2.45" x2="26.75" y2= "0" />
  <ellipse class="fil0 str2" cx="11.67" cy="22.23" rx="7.15" ry="6.08"/>
  <path class="fil1 str1" d="M11.67 16.15c-0.28,0 -0.56,0.02 -0.84,0.04 -0.27,0.03 -4.19,-5.13 -4.46,-5.08 -0.15,0.03 0.04,2.7 0.97,4.26 0.56,0.94 2.08,1.08 2,1.11 -2.8,0.82 -4.82,3.09 -4.82,5.75 0,2.48 1.75,4.61 4.25,5.56 0.12,0.05 -4.62,2.03 -4.49,2.07 0.09,0.03 3.68,-1.42 7.07,-1.43 2.8,-0.01 5.44,1.46 6.17,1.22 0.41,-0.13 -3.66,-1.73 -3.51,-1.67 2.8,-0.82 4.81,-3.09 4.81,-5.75 0,-2.28 -1.48,-4.27 -3.67,-5.31 -0.27,-0.13 2.55,-4.1 2.26,-4.2 -0.14,-0.05 -2.75,0.2 -3.65,1.1 -0.95,0.94 -0.19,2.55 -0.35,2.51 -0.56,-0.12 -1.14,-0.18 -1.75,-0.18z"/>
  <polygon class="fil1" points="31.77,29.42 31.77,5.8 26.75,2.14 21.73,5.8 21.73,29.42 "/>
  <path class="fil2" d="M6.8 43.8c-0.7,0.94 -1.4,1.65 -2.09,2.13 -0.69,0.47 -1.32,0.71 -1.9,0.71 -0.39,0 -0.72,-0.16 -1,-0.49 -0.28,-0.33 -0.42,-0.75 -0.42,-1.26 0,-1.32 0.59,-2.74 1.77,-4.27 1.18,-1.53 2.35,-2.29 3.52,-2.29 0.42,0 0.74,0.24 0.94,0.72 0.06,0.16 0.17,0.24 0.31,0.24 0.4,0 0.6,0.15 0.6,0.47 0,0.16 -0.03,0.37 -0.07,0.64 -0.27,1.48 -0.41,2.53 -0.41,3.14 0,1.22 0.23,1.95 0.69,2.19 0.22,0.12 0.33,0.27 0.33,0.44 0,0.16 -0.11,0.31 -0.32,0.47 -0.22,0.16 -0.42,0.24 -0.63,0.24 -0.39,0 -0.71,-0.27 -0.96,-0.8 -0.25,-0.53 -0.38,-1.29 -0.38,-2.28zm-0.46 -4.25c-0.66,0 -1.44,0.62 -2.32,1.87 -0.88,1.25 -1.32,2.28 -1.32,3.1 0,0.58 0.19,0.87 0.57,0.87 0.55,0 1.32,-0.56 2.3,-1.68 0.98,-1.12 1.47,-2.14 1.47,-3.08 0,-0.72 -0.24,-1.08 -0.71,-1.08zm8.13 2.35c0.65,0.11 1.16,0.34 1.52,0.72 0.36,0.37 0.54,0.83 0.54,1.36 0,0.85 -0.36,1.56 -1.08,2.12 -0.72,0.56 -1.66,0.85 -2.83,0.85 -0.7,0 -1.3,-0.15 -1.81,-0.45 -0.5,-0.3 -0.76,-0.64 -0.76,-1 0,-0.3 0.17,-0.45 0.52,-0.45 0.05,0 0.13,0.04 0.23,0.13 0.55,0.48 1.21,0.72 1.97,0.72 0.67,0 1.25,-0.17 1.73,-0.53 0.48,-0.35 0.72,-0.81 0.72,-1.37 0,-0.37 -0.14,-0.68 -0.41,-0.93 -0.28,-0.25 -0.59,-0.37 -0.96,-0.37 -0.28,0 -0.76,0.11 -1.45,0.32 -0.14,0.04 -0.28,0.07 -0.44,0.07 -0.3,0 -0.45,-0.2 -0.45,-0.61 0,-0.14 0.07,-0.26 0.21,-0.34 0.14,-0.09 0.45,-0.18 0.92,-0.29 1.43,-0.33 2.15,-0.91 2.15,-1.74 0,-0.25 -0.09,-0.46 -0.27,-0.62 -0.18,-0.16 -0.41,-0.24 -0.69,-0.24 -0.52,0 -1.08,0.23 -1.67,0.7 -0.35,0.27 -0.61,0.41 -0.79,0.41 -0.31,0 -0.46,-0.14 -0.46,-0.43 0,-0.38 0.36,-0.76 1.07,-1.16 0.71,-0.39 1.39,-0.59 2.05,-0.59 0.65,0 1.17,0.18 1.54,0.52 0.37,0.35 0.56,0.71 0.56,1.09 0,0.91 -0.56,1.62 -1.67,2.14zm5.49 -3.9c0.07,-0.05 0.14,-0.07 0.22,-0.07 0.13,0 0.23,0.17 0.32,0.51 0,0.22 -0.06,0.49 -0.17,0.82 -0.34,0.95 -0.51,1.61 -0.51,1.99 0,0.1 0.03,0.16 0.09,0.17 1.16,-1.11 2.23,-1.67 3.21,-1.67 0.61,0 1.12,0.23 1.53,0.69 0.41,0.46 0.62,0.88 0.62,1.26 0,1.17 -0.6,2.29 -1.78,3.36 -1.19,1.07 -2.39,1.61 -3.59,1.61 -0.54,0 -0.96,-0.22 -1.26,-0.67 -0.3,-0.44 -0.45,-1.08 -0.45,-1.91 0,-0.9 0.11,-1.89 0.34,-2.99 0.23,-1.09 0.41,-1.82 0.54,-2.19 0.05,-0.16 0.11,-0.31 0.15,-0.48 0.05,-0.2 0.3,-0.35 0.75,-0.44zm-0.35 4.73c-0.1,0.56 -0.15,1.11 -0.15,1.67 0,0.76 0.3,1.14 0.9,1.14 0.67,0 1.43,-0.4 2.26,-1.2 0.83,-0.81 1.25,-1.59 1.25,-2.35 0,-0.31 -0.08,-0.57 -0.25,-0.78 -0.16,-0.21 -0.39,-0.32 -0.68,-0.32 -0.4,0 -0.79,0.1 -1.17,0.3 -0.38,0.2 -0.81,0.52 -1.28,0.96 -0.18,0.17 -0.33,0.3 -0.43,0.4 -0.11,0.09 -0.25,0.15 -0.43,0.19zm7.59 1.73c0,0.38 0.05,0.81 0.16,1.29 0.02,0.09 0.03,0.17 0.03,0.23 0,0.09 -0.08,0.21 -0.25,0.35 -0.16,0.14 -0.34,0.21 -0.53,0.21 -0.49,0 -0.73,-0.45 -0.73,-1.34 0,-0.89 0.19,-2.38 0.58,-4.48 0.14,-0.76 0.21,-1.23 0.21,-1.39 0,-0.32 0.06,-0.59 0.17,-0.81 0.12,-0.22 0.28,-0.33 0.49,-0.33 0.25,0 0.46,0.06 0.6,0.19 0.15,0.12 0.22,0.26 0.22,0.41 0,0.15 -0.04,0.36 -0.11,0.62 -0.39,1.43 -0.63,2.44 -0.72,3.01 -0.09,0.57 -0.14,1.26 -0.14,2.04zm8.16 4.35l-1.11 0 0 -2.27 -0.19 0 -1.46 -2.48c-0.24,-0.41 -0.45,-0.69 -0.62,-0.85 -0.26,-0.25 -0.58,-0.37 -0.94,-0.37l0 3.71 -1.36 0 0 -8.02 1.36 0 0 3.46c0.5,0 0.88,-0.16 1.12,-0.49 0.08,-0.11 0.27,-0.51 0.55,-1.21 0.2,-0.48 0.35,-0.8 0.45,-0.97 0.22,-0.37 0.48,-0.6 0.77,-0.69 0.22,-0.07 0.57,-0.11 1.05,-0.11l0.27 0 0 1.13 -0.38 -0.01c-0.38,-0.01 -0.64,0.09 -0.8,0.29 -0.05,0.07 -0.17,0.35 -0.37,0.85 -0.19,0.47 -0.35,0.8 -0.49,0.99 -0.19,0.25 -0.48,0.47 -0.87,0.65 0.59,0.15 1.16,0.7 1.72,1.63l0.82 1.37 0.47 0 0 3.38z"/>
 </g>
</svg>
