<?xml version="1.0" encoding="UTF-8"?>
<!DOCTYPE svg PUBLIC "-//W3C//DTD SVG 1.1//EN" "http://www.w3.org/Graphics/SVG/1.1/DTD/svg11.dtd">
<!-- Creator: CorelDRAW 2020 -->
<svg xmlns="http://www.w3.org/2000/svg" xml:space="preserve" width="11mm" height="10.1mm" version="1.1" style="shape-rendering:geometricPrecision; text-rendering:geometricPrecision; image-rendering:optimizeQuality; fill-rule:evenodd; clip-rule:evenodd"
viewBox="0 0 129.11 118.54"
 xmlns:xlink="http://www.w3.org/1999/xlink"
 xmlns:xodm="http://www.corel.com/coreldraw/odm/2003">
 <defs>
  <style type="text/css">
   <![CDATA[
    .str0 {stroke:#C6B93A;stroke-width:2.35;stroke-miterlimit:22.9256}
    .fil0 {fill:none}
    .fil1 {fill:#C6B93A}
    .fil2 {fill:#C6B93A;fill-rule:nonzero}
   ]]>
  </style>
 </defs>
 <g id="Layer_x0020_1">
  <metadata id="CorelCorpID_0Corel-Layer"/>
  <g id="_910472824">
   <polygon class="fil0" points="-0,0 129.11,0 129.11,117.37 -0,117.37 "/>
   <line class="fil0 str0" x1="26.41" y1="117.37" x2="102.7" y2= "117.37" />
   <path class="fil1" d="M49.02 45.52c-0.62,0 -1.23,0.03 -1.82,0.09 -0.59,0.06 -9.11,-11.14 -9.68,-11.03 -0.32,0.06 0.09,5.87 2.1,9.25 1.21,2.03 4.52,2.35 4.34,2.4 -6.08,1.78 -10.46,6.7 -10.46,12.48 0,5.39 3.79,10.02 9.23,12.07 0.26,0.1 -10.03,4.4 -9.75,4.49 2.66,2.69 9.35,-0.95 16.71,-0.97 6.09,-0.01 10.45,1.03 12.03,0.52 0.89,-0.29 -7.96,-3.76 -7.63,-3.63 6.08,-1.79 10.45,-6.7 10.45,-12.49 0,-4.96 -3.21,-9.28 -7.96,-11.53 -0.58,-0.27 5.53,-8.9 4.92,-9.11 -0.31,-0.1 -5.96,0.43 -7.92,2.38 -2.05,2.05 -0.42,5.53 -0.76,5.46 -1.21,-0.26 -2.49,-0.4 -3.79,-0.4z"/>
   <polygon class="fil1" points="94.56,74.61 94.56,23.32 83.79,16.76 83.91,16.11 85.08,16.11 85.08,10.67 77.98,10.67 77.98,16.11 79.16,16.11 79.4,16.68 68.51,23.32 68.51,74.61 "/>
   <path class="fil2" d="M39.4 97.2c-1.53,2.05 -3.04,3.59 -4.53,4.62 -1.5,1.02 -2.87,1.54 -4.11,1.54 -0.84,0 -1.56,-0.35 -2.17,-1.06 -0.62,-0.71 -0.92,-1.62 -0.92,-2.74 0,-2.87 1.28,-5.96 3.85,-9.27 2.57,-3.32 5.11,-4.97 7.65,-4.97 0.92,0 1.6,0.52 2.05,1.57 0.14,0.35 0.36,0.53 0.67,0.53 0.87,0 1.31,0.34 1.31,1.01 0,0.34 -0.06,0.81 -0.16,1.39 -0.59,3.22 -0.88,5.5 -0.88,6.81 0,2.64 0.5,4.23 1.5,4.75 0.48,0.26 0.72,0.58 0.72,0.96 0,0.34 -0.24,0.68 -0.71,1.03 -0.47,0.34 -0.92,0.51 -1.36,0.51 -0.84,0 -1.54,-0.58 -2.08,-1.74 -0.55,-1.16 -0.82,-2.81 -0.82,-4.94zm-0.99 -9.22c-1.44,0 -3.12,1.35 -5.03,4.05 -1.91,2.71 -2.87,4.95 -2.87,6.73 0,1.25 0.42,1.88 1.25,1.88 1.2,0 2.87,-1.21 5,-3.64 2.13,-2.42 3.19,-4.65 3.19,-6.68 0,-1.56 -0.51,-2.34 -1.54,-2.34zm17.65 5.11c1.41,0.23 2.51,0.75 3.29,1.56 0.79,0.81 1.18,1.79 1.18,2.96 0,1.85 -0.78,3.38 -2.34,4.61 -1.56,1.22 -3.61,1.84 -6.15,1.84 -1.52,0 -2.83,-0.32 -3.92,-0.98 -1.1,-0.65 -1.65,-1.38 -1.65,-2.18 0,-0.66 0.38,-0.98 1.13,-0.98 0.11,0 0.27,0.09 0.5,0.28 1.2,1.03 2.63,1.55 4.28,1.55 1.45,0 2.71,-0.38 3.75,-1.15 1.05,-0.77 1.57,-1.76 1.57,-2.98 0,-0.81 -0.3,-1.48 -0.89,-2.02 -0.6,-0.54 -1.29,-0.81 -2.07,-0.81 -0.6,0 -1.65,0.23 -3.16,0.7 -0.3,0.1 -0.62,0.15 -0.95,0.15 -0.66,0 -0.98,-0.44 -0.98,-1.32 0,-0.31 0.16,-0.55 0.46,-0.74 0.31,-0.19 0.98,-0.4 2.01,-0.64 3.11,-0.71 4.67,-1.97 4.67,-3.79 0,-0.55 -0.19,-1 -0.58,-1.35 -0.39,-0.35 -0.88,-0.53 -1.5,-0.53 -1.14,0 -2.35,0.5 -3.63,1.51 -0.75,0.59 -1.33,0.88 -1.72,0.88 -0.67,0 -1,-0.31 -1,-0.93 0,-0.82 0.78,-1.65 2.32,-2.52 1.54,-0.86 3.02,-1.29 4.44,-1.29 1.42,0 2.54,0.38 3.35,1.13 0.81,0.75 1.22,1.55 1.22,2.38 0,1.98 -1.21,3.53 -3.62,4.65zm11.92 -8.48c0.15,-0.1 0.3,-0.15 0.48,-0.15 0.27,0 0.5,0.37 0.69,1.1 0,0.47 -0.12,1.06 -0.37,1.78 -0.74,2.06 -1.11,3.5 -1.11,4.32 0,0.22 0.06,0.34 0.19,0.36 2.51,-2.42 4.84,-3.62 6.98,-3.62 1.32,0 2.43,0.5 3.33,1.5 0.89,1 1.34,1.92 1.34,2.74 0,2.53 -1.29,4.96 -3.87,7.29 -2.58,2.33 -5.18,3.5 -7.8,3.5 -1.17,0 -2.08,-0.49 -2.73,-1.45 -0.65,-0.97 -0.97,-2.35 -0.97,-4.15 0,-1.96 0.25,-4.11 0.74,-6.48 0.49,-2.37 0.88,-3.95 1.18,-4.75 0.12,-0.34 0.23,-0.68 0.33,-1.03 0.11,-0.44 0.65,-0.75 1.62,-0.96zm-0.77 10.27c-0.22,1.21 -0.33,2.42 -0.33,3.63 0,1.65 0.65,2.47 1.95,2.47 1.46,0 3.1,-0.87 4.91,-2.62 1.81,-1.75 2.72,-3.45 2.72,-5.1 0,-0.68 -0.18,-1.24 -0.54,-1.7 -0.36,-0.46 -0.85,-0.69 -1.49,-0.69 -0.87,0 -1.72,0.21 -2.55,0.64 -0.83,0.44 -1.77,1.13 -2.79,2.09 -0.4,0.37 -0.71,0.66 -0.94,0.86 -0.23,0.2 -0.55,0.33 -0.94,0.4zm16.49 3.76c0,0.83 0.11,1.77 0.34,2.8 0.04,0.2 0.07,0.36 0.07,0.49 0,0.2 -0.18,0.45 -0.54,0.77 -0.36,0.31 -0.74,0.46 -1.15,0.46 -1.06,0 -1.59,-0.97 -1.59,-2.92 0,-1.93 0.42,-5.17 1.26,-9.73 0.3,-1.66 0.46,-2.66 0.46,-3.01 0,-0.69 0.12,-1.27 0.38,-1.76 0.25,-0.49 0.61,-0.73 1.07,-0.73 0.55,0 0.99,0.13 1.31,0.4 0.33,0.27 0.49,0.57 0.49,0.89 0,0.33 -0.08,0.78 -0.23,1.36 -0.86,3.12 -1.38,5.29 -1.57,6.54 -0.2,1.25 -0.3,2.73 -0.3,4.44zm17.71 9.45l-2.42 0 0 -4.93 -0.41 0 -3.18 -5.39c-0.52,-0.88 -0.97,-1.5 -1.35,-1.85 -0.57,-0.54 -1.25,-0.8 -2.04,-0.8l0 8.05 -2.95 0 0 -17.41 2.95 0 0 7.51c1.1,0 1.91,-0.35 2.44,-1.06 0.17,-0.23 0.58,-1.11 1.2,-2.62 0.43,-1.05 0.76,-1.74 0.98,-2.1 0.48,-0.79 1.04,-1.3 1.68,-1.5 0.48,-0.15 1.23,-0.23 2.28,-0.23l0.59 0 0 2.45 -0.82 -0.02c-0.82,-0.01 -1.4,0.2 -1.74,0.64 -0.11,0.14 -0.37,0.76 -0.8,1.85 -0.4,1.03 -0.76,1.74 -1.06,2.15 -0.42,0.54 -1.05,1.01 -1.89,1.4 1.28,0.33 2.53,1.52 3.74,3.55l1.79 2.97 1.02 0 0 7.35z"/>
  </g>
 </g>
</svg>
