<?xml version="1.0" encoding="UTF-8"?>
<!DOCTYPE svg PUBLIC "-//W3C//DTD SVG 1.1//EN" "http://www.w3.org/Graphics/SVG/1.1/DTD/svg11.dtd">
<!-- Creator: CorelDRAW 2020 -->
<svg xmlns="http://www.w3.org/2000/svg" xml:space="preserve" width="11mm" height="10mm" version="1.1" style="shape-rendering:geometricPrecision; text-rendering:geometricPrecision; image-rendering:optimizeQuality; fill-rule:evenodd; clip-rule:evenodd"
viewBox="0 0 129.11 117.37"
 xmlns:xlink="http://www.w3.org/1999/xlink"
 xmlns:xodm="http://www.corel.com/coreldraw/odm/2003">
 <defs>
  <style type="text/css">
   <![CDATA[
    .str1 {stroke:#C6B93A;stroke-width:5.87;stroke-miterlimit:22.9256}
    .str0 {stroke:#C6B93A;stroke-width:2.35;stroke-miterlimit:22.9256}
    .fil0 {fill:none}
    .fil1 {fill:#C6B93A}
    .fil2 {fill:#C6B93A;fill-rule:nonzero}
   ]]>
  </style>
 </defs>
 <g id="Layer_x0020_1">
  <metadata id="CorelCorpID_0Corel-Layer"/>
  <g id="_1082040888">
   <polygon class="fil0" points="-0,0 129.11,0 129.11,117.37 -0,117.37 "/>
   <g>
    <g>
     <polygon class="fil0 str0" points="72.78,20.54 83.68,12.6 94.58,20.54 94.58,71.83 72.78,71.83 "/>
     <line class="fil0 str1" x1="83.68" y1="13.27" x2="83.68" y2= "7.95" />
     <path class="fil1 str0" d="M49.04 42.74c-0.62,0 -1.23,0.03 -1.82,0.09 -0.59,0.06 -9.11,-11.14 -9.68,-11.03 -0.32,0.06 0.09,5.87 2.1,9.25 1.21,2.03 4.52,2.35 4.34,2.4 -6.08,1.78 -10.46,6.7 -10.46,12.48 0,5.39 3.79,10.02 9.23,12.07 0.26,0.1 -10.03,4.4 -9.75,4.49 0.2,0.06 7.99,-3.09 15.35,-3.1 6.09,-0.01 11.81,3.17 13.39,2.65 0.89,-0.29 -7.96,-3.76 -7.63,-3.63 6.08,-1.79 10.45,-6.7 10.45,-12.49 0,-4.96 -3.21,-9.28 -7.96,-11.53 -0.58,-0.27 5.53,-8.9 4.92,-9.11 -0.31,-0.1 -5.96,0.43 -7.92,2.38 -2.05,2.05 -0.42,5.53 -0.76,5.46 -1.21,-0.26 -2.49,-0.4 -3.79,-0.4z"/>
     <polygon class="fil1" points="94.58,71.83 94.58,20.54 83.68,12.6 72.78,20.54 72.78,71.83 "/>
    </g>
    <path class="fil2" d="M42.21 96.6c-1.36,1.82 -2.7,3.19 -4.03,4.1 -1.33,0.91 -2.55,1.37 -3.66,1.37 -0.75,0 -1.39,-0.31 -1.93,-0.94 -0.55,-0.63 -0.81,-1.44 -0.81,-2.44 0,-2.55 1.14,-5.3 3.42,-8.24 2.28,-2.95 4.55,-4.42 6.8,-4.42 0.81,0 1.42,0.46 1.82,1.4 0.12,0.31 0.32,0.47 0.6,0.47 0.77,0 1.16,0.3 1.16,0.9 0,0.3 -0.05,0.72 -0.14,1.24 -0.53,2.86 -0.79,4.88 -0.79,6.06 0,2.35 0.44,3.76 1.34,4.22 0.43,0.23 0.64,0.52 0.64,0.85 0,0.3 -0.21,0.61 -0.63,0.92 -0.42,0.3 -0.82,0.46 -1.21,0.46 -0.75,0 -1.37,-0.52 -1.85,-1.55 -0.49,-1.03 -0.73,-2.49 -0.73,-4.39zm-0.88 -8.2c-1.28,0 -2.77,1.2 -4.47,3.6 -1.7,2.4 -2.55,4.4 -2.55,5.98 0,1.11 0.37,1.67 1.11,1.67 1.07,0 2.55,-1.08 4.44,-3.23 1.89,-2.15 2.84,-4.13 2.84,-5.94 0,-1.39 -0.46,-2.08 -1.37,-2.08zm15.69 4.54c1.25,0.2 2.23,0.67 2.93,1.39 0.7,0.72 1.05,1.6 1.05,2.63 0,1.64 -0.7,3.01 -2.08,4.1 -1.39,1.09 -3.21,1.63 -5.47,1.63 -1.35,0 -2.51,-0.29 -3.49,-0.87 -0.97,-0.58 -1.46,-1.23 -1.46,-1.93 0,-0.59 0.34,-0.87 1.01,-0.87 0.09,0 0.24,0.08 0.45,0.25 1.07,0.92 2.33,1.38 3.8,1.38 1.29,0 2.4,-0.34 3.33,-1.02 0.93,-0.68 1.4,-1.56 1.4,-2.65 0,-0.72 -0.26,-1.32 -0.79,-1.8 -0.53,-0.48 -1.14,-0.72 -1.85,-0.72 -0.53,0 -1.47,0.21 -2.81,0.63 -0.26,0.08 -0.55,0.13 -0.85,0.13 -0.59,0 -0.87,-0.39 -0.87,-1.18 0,-0.27 0.14,-0.49 0.41,-0.66 0.28,-0.16 0.87,-0.35 1.78,-0.57 2.77,-0.63 4.15,-1.75 4.15,-3.36 0,-0.49 -0.17,-0.88 -0.52,-1.2 -0.34,-0.31 -0.79,-0.47 -1.33,-0.47 -1.01,0 -2.09,0.45 -3.23,1.34 -0.67,0.52 -1.18,0.79 -1.53,0.79 -0.59,0 -0.89,-0.28 -0.89,-0.83 0,-0.73 0.69,-1.47 2.06,-2.24 1.37,-0.76 2.69,-1.14 3.95,-1.14 1.26,0 2.26,0.34 2.98,1 0.72,0.67 1.08,1.38 1.08,2.11 0,1.76 -1.07,3.13 -3.22,4.13zm10.6 -7.54c0.13,-0.09 0.27,-0.13 0.42,-0.13 0.24,0 0.45,0.33 0.61,0.98 0,0.42 -0.11,0.94 -0.33,1.58 -0.66,1.83 -0.99,3.12 -0.99,3.84 0,0.19 0.06,0.3 0.17,0.32 2.23,-2.15 4.3,-3.22 6.2,-3.22 1.17,0 2.16,0.45 2.96,1.33 0.79,0.89 1.19,1.7 1.19,2.44 0,2.25 -1.15,4.41 -3.44,6.48 -2.3,2.07 -4.61,3.11 -6.94,3.11 -1.04,0 -1.85,-0.43 -2.42,-1.29 -0.58,-0.86 -0.87,-2.09 -0.87,-3.69 0,-1.74 0.22,-3.66 0.66,-5.76 0.44,-2.11 0.78,-3.51 1.05,-4.22 0.1,-0.3 0.2,-0.61 0.29,-0.92 0.1,-0.39 0.58,-0.67 1.44,-0.85zm-0.68 9.13c-0.19,1.07 -0.29,2.15 -0.29,3.23 0,1.47 0.58,2.2 1.73,2.2 1.3,0 2.75,-0.77 4.37,-2.33 1.61,-1.56 2.41,-3.07 2.41,-4.53 0,-0.6 -0.16,-1.1 -0.48,-1.51 -0.32,-0.41 -0.76,-0.61 -1.32,-0.61 -0.77,0 -1.53,0.19 -2.27,0.57 -0.74,0.39 -1.57,1 -2.48,1.86 -0.35,0.33 -0.63,0.59 -0.84,0.77 -0.21,0.18 -0.49,0.3 -0.83,0.36zm14.66 3.34c0,0.74 0.1,1.57 0.3,2.49 0.04,0.18 0.06,0.32 0.06,0.44 0,0.17 -0.16,0.4 -0.48,0.68 -0.32,0.27 -0.65,0.41 -1.02,0.41 -0.94,0 -1.41,-0.87 -1.41,-2.59 0,-1.71 0.37,-4.6 1.12,-8.65 0.27,-1.48 0.41,-2.37 0.41,-2.68 0,-0.61 0.11,-1.13 0.33,-1.57 0.22,-0.43 0.54,-0.65 0.95,-0.65 0.49,0 0.88,0.12 1.17,0.36 0.29,0.24 0.43,0.5 0.43,0.79 0,0.29 -0.07,0.69 -0.2,1.21 -0.76,2.77 -1.22,4.71 -1.4,5.81 -0.18,1.11 -0.26,2.43 -0.26,3.95zm15.75 8.4l-2.15 0 0 -4.38 -0.36 0 -2.83 -4.79c-0.46,-0.79 -0.86,-1.34 -1.2,-1.65 -0.51,-0.48 -1.11,-0.71 -1.81,-0.71l0 7.15 -2.62 0 0 -15.47 2.62 0 0 6.68c0.97,0 1.7,-0.31 2.17,-0.94 0.15,-0.2 0.51,-0.98 1.06,-2.33 0.38,-0.93 0.68,-1.55 0.87,-1.86 0.43,-0.71 0.92,-1.15 1.49,-1.34 0.42,-0.13 1.09,-0.2 2.02,-0.2l0.53 0 0 2.18 -0.73 -0.01c-0.73,-0.01 -1.24,0.18 -1.55,0.57 -0.1,0.13 -0.33,0.68 -0.72,1.64 -0.36,0.91 -0.68,1.55 -0.94,1.91 -0.37,0.48 -0.93,0.9 -1.68,1.25 1.14,0.3 2.25,1.35 3.33,3.15l1.59 2.64 0.9 0 0 6.53z"/>
   </g>
   <line class="fil0 str0" x1="17.61" y1="115.32" x2="111.5" y2= "115.32" />
  </g>
 </g>
</svg>
