<?xml version="1.0" encoding="UTF-8"?>
<!DOCTYPE svg PUBLIC "-//W3C//DTD SVG 1.1//EN" "http://www.w3.org/Graphics/SVG/1.1/DTD/svg11.dtd">
<!-- Creator: CorelDRAW 2020 -->
<svg xmlns="http://www.w3.org/2000/svg" xml:space="preserve" width="11mm" height="10mm" version="1.1" style="shape-rendering:geometricPrecision; text-rendering:geometricPrecision; image-rendering:optimizeQuality; fill-rule:evenodd; clip-rule:evenodd"
viewBox="0 0 316.1 287.36"
 xmlns:xlink="http://www.w3.org/1999/xlink"
 xmlns:xodm="http://www.corel.com/coreldraw/odm/2003">
 <defs>
  <style type="text/css">
   <![CDATA[
    .str0 {stroke:#A8D4AF;stroke-width:21.55;stroke-miterlimit:22.9256}
    .str1 {stroke:#A8D4AF;stroke-width:14.37;stroke-miterlimit:22.9256}
    .str2 {stroke:#A8D4AF;stroke-width:5.75;stroke-miterlimit:22.9256}
    .fil0 {fill:none}
    .fil1 {fill:#A8D4AF}
    .fil2 {fill:#A8D4AF;fill-rule:nonzero}
   ]]>
  </style>
 </defs>
 <g id="Layer_x0020_1">
  <metadata id="CorelCorpID_0Corel-Layer"/>
  <g id="_1244431072">
   <polygon class="fil0" points="-0,0 316.1,0 316.1,287.36 -0,287.36 "/>
   <g>
    <polygon class="fil0 str0" points="82.19,84.73 161.72,168.55 82.19,168.55 "/>
    <line class="fil0 str1" x1="246.26" y1="22.21" x2="222.64" y2= "157.22" />
    <line class="fil0 str2" x1="223.41" y1="154.59" x2="218.84" y2= "179.22" />
    <polygon class="fil1 str2" points="116.79,23.63 201.26,23.63 201.26,145.26 116.79,145.26 "/>
   </g>
   <path class="fil2" d="M81.96 212.02c-1.01,-2.75 -3.37,-5.73 -7.05,-8.94 -3.47,-3 -5.21,-5.57 -5.21,-7.71 0,-1.71 0.56,-3.09 1.68,-4.14 1.12,-1.05 3.2,-2.01 6.25,-2.86 3.79,-1.05 7.65,-2.23 11.59,-3.56 3.93,-1.31 6.29,-2.16 7.09,-2.55 0.51,-0.23 1.03,-0.36 1.56,-0.36 0.89,0 1.33,0.78 1.33,2.37 0,0.88 -1.07,2.08 -3.2,3.6 -2.15,1.53 -5.93,2.94 -11.35,4.26 -3.42,0.85 -5.51,1.49 -6.28,1.9 -0.77,0.41 -1.14,0.84 -1.14,1.26 0,0.97 1.04,2.35 3.12,4.18 7.85,6.87 11.78,15.49 11.78,25.87 0,4.46 -1.16,9.24 -3.52,14.33 -2.35,5.09 -5.49,8.88 -9.4,11.37 -3.92,2.47 -7.75,3.72 -11.5,3.72 -3.37,0 -5.91,-1.64 -7.65,-4.93 -1.74,-3.3 -2.61,-6.91 -2.61,-10.87 0,-7.01 2.16,-13.6 6.47,-19.8 4.32,-6.21 8.88,-9.31 13.7,-9.31 0.64,0 1.44,0.41 2.41,1.25 0.88,0.8 1.52,1.11 1.92,0.92zm-17.47 27.1c0,2.97 0.39,5.3 1.18,6.98 0.79,1.68 1.83,2.53 3.11,2.53 1.71,0 4.02,-1.05 6.94,-3.17 2.91,-2.11 5.27,-5.23 7.03,-9.37 1.78,-4.15 2.67,-8.02 2.67,-11.64 0,-2.98 -0.41,-5.42 -1.26,-7.27 -0.85,-1.86 -1.63,-2.79 -2.34,-2.79 -4.76,0 -8.84,2.9 -12.24,8.7 -3.39,5.79 -5.09,11.14 -5.09,16.03zm49.16 -39.13c-0.56,0 -0.99,-0.6 -1.29,-1.81 -0.11,-0.37 -0.25,-0.78 -0.44,-1.24 -0.72,-1.72 -1.08,-3.24 -1.08,-4.53 0,-1.07 0.63,-2.15 1.91,-3.26 1.27,-1.11 2.68,-1.67 4.23,-1.67 0.78,0 1.64,0.3 2.61,0.9 0.96,0.6 1.44,1.18 1.44,1.74 0,0.89 -0.33,2.38 -0.99,4.5 -0.66,2.11 -1.7,3.53 -3.12,4.27 -1.44,0.73 -2.52,1.1 -3.27,1.1zm-5.26 44.79c0,2.03 0.29,4.31 0.85,6.86 0.11,0.48 0.15,0.87 0.15,1.19 0,0.49 -0.44,1.11 -1.31,1.87 -0.89,0.75 -1.82,1.14 -2.8,1.14 -2.6,0 -3.89,-2.38 -3.89,-7.13 0,-4.93 1.01,-12.7 3.04,-23.33 0.7,-3.72 1.04,-6.01 1.04,-6.86 0,-1.68 0.32,-3.12 0.93,-4.31 0.62,-1.19 1.48,-1.79 2.6,-1.79 1.37,0 2.44,0.33 3.23,0.99 0.79,0.66 1.18,1.38 1.18,2.19 0,0.79 -0.18,1.86 -0.56,3.16 -2,7.06 -3.24,12.11 -3.72,15.16 -0.48,3.04 -0.72,6.66 -0.72,10.87zm38.57 -23.78c-0.64,-0.03 -1.27,0.59 -1.88,1.85 -5.54,11.07 -9.72,18.57 -12.55,22.54 -0.25,0.34 -0.56,0.85 -0.93,1.52 -3.34,5.95 -5.79,8.93 -7.34,8.93 -2.08,0 -3.12,-1 -3.12,-3.01 0,-1.81 1.28,-4.28 3.89,-7.42 2.5,-2.96 5.8,-7.99 9.89,-15.1 4.09,-7.09 7.4,-13.45 9.95,-19.1 0.48,-1.01 1.2,-1.52 2.16,-1.52 0.39,0 1.12,0.18 2.15,0.55 1.02,0.36 1.68,0.75 1.98,1.18 0.29,0.43 0.94,2.91 1.96,7.46 3.3,16.38 6.76,26.1 10.39,29.15 0.86,0.75 1.37,1.24 1.53,1.5 0.15,0.25 0.23,0.6 0.23,1.05 0,0.83 -0.26,1.59 -0.79,2.27 -0.55,0.68 -1.07,1.11 -1.57,1.3 -0.51,0.19 -1.55,0.28 -3.12,0.28 -0.56,0 -1.87,-1.38 -3.93,-4.16 -2.07,-2.76 -4.48,-10.3 -7.22,-22.62 -0.67,-3.32 -1.23,-5.55 -1.68,-6.67zm39.45 -21.01c-0.56,0 -0.99,-0.6 -1.29,-1.81 -0.11,-0.37 -0.25,-0.78 -0.44,-1.24 -0.72,-1.72 -1.08,-3.24 -1.08,-4.53 0,-1.07 0.63,-2.15 1.9,-3.26 1.27,-1.11 2.68,-1.67 4.23,-1.67 0.78,0 1.64,0.3 2.61,0.9 0.96,0.6 1.44,1.18 1.44,1.74 0,0.89 -0.33,2.38 -0.99,4.5 -0.66,2.11 -1.7,3.53 -3.12,4.27 -1.44,0.73 -2.52,1.1 -3.27,1.1zm-5.26 44.79c0,2.03 0.29,4.31 0.85,6.86 0.11,0.48 0.15,0.87 0.15,1.19 0,0.49 -0.44,1.11 -1.31,1.87 -0.89,0.75 -1.82,1.14 -2.81,1.14 -2.6,0 -3.89,-2.38 -3.89,-7.13 0,-4.93 1.01,-12.7 3.04,-23.33 0.7,-3.72 1.04,-6.01 1.04,-6.86 0,-1.68 0.31,-3.12 0.93,-4.31 0.61,-1.19 1.48,-1.79 2.6,-1.79 1.37,0 2.44,0.33 3.23,0.99 0.8,0.66 1.18,1.38 1.18,2.19 0,0.79 -0.18,1.86 -0.56,3.16 -2,7.06 -3.24,12.11 -3.72,15.16 -0.48,3.04 -0.72,6.66 -0.72,10.87zm67.24 -26.22c-2.16,3.46 -5.22,9.34 -9.14,17.64 -0.87,1.86 -1.78,3.67 -2.68,5.41 -0.3,0.56 -0.86,1.8 -1.68,3.73 -2.81,6.51 -5.26,9.77 -7.35,9.77 -1.66,0 -2.86,-0.19 -3.63,-0.6 -0.75,-0.4 -1.48,-1.49 -2.18,-3.28 -0.7,-1.79 -1.72,-5.99 -3.09,-12.63 -1.57,-7.5 -2.64,-12.13 -3.2,-13.87 -1.82,4.09 -3.44,8.03 -4.86,11.82 -2.14,5.58 -4.2,10.14 -6.21,13.66 -2,3.5 -3.45,5.62 -4.32,6.32 -0.89,0.71 -1.72,1.07 -2.53,1.07 -0.82,0 -1.57,-0.32 -2.24,-0.96 -0.67,-0.64 -1,-1.27 -1,-1.89 0.17,-1.09 0.34,-1.78 0.56,-2.04 2.33,-2.86 4.32,-5.91 6.01,-9.14 1.68,-3.24 3.83,-8.09 6.45,-14.56 2.6,-6.46 4.27,-11.77 4.98,-15.92 0.36,-1.76 1.64,-2.64 3.89,-2.64 1.31,0 2.22,0.19 2.7,0.6 0.48,0.4 0.96,1.22 1.43,2.44 0.47,1.23 0.74,2.32 0.82,3.3 0.17,1.15 0.61,3.7 1.36,7.65 0.67,3.72 1.12,6.35 1.33,7.9 0.37,2.23 1.04,5.14 1.99,8.75 0.94,3.61 1.7,5.42 2.23,5.42 0.37,0 0.9,-0.82 1.6,-2.45l3.36 -7.79c0.62,-1.41 1.27,-2.8 1.97,-4.16l4.6 -9.43c2.52,-5.19 4.45,-8.94 5.8,-11.28 1.34,-2.34 2.26,-3.75 2.72,-4.23 0.47,-0.49 1,-0.73 1.59,-0.73 1.01,0 2.15,0.28 3.41,0.82 1.26,0.55 1.9,1.15 1.96,1.82 0.05,0.67 0.18,3.46 0.37,8.37l0.52 12.52c0.16,3.98 0.39,7.36 0.72,10.16 0.31,2.79 0.88,5.05 1.68,6.76 1.25,2.72 1.88,4.83 1.88,6.34 0,1.27 -0.52,2.16 -1.57,2.64 -1.07,0.48 -2.04,0.72 -2.96,0.72 -1.86,0 -3.3,-1.51 -4.31,-4.49 -1,-3 -1.73,-11.58 -2.18,-25.74 -0.16,-4.26 -0.43,-6.86 -0.76,-7.81z"/>
  </g>
 </g>
</svg>
