<?xml version="1.0" encoding="UTF-8"?>
<!DOCTYPE svg PUBLIC "-//W3C//DTD SVG 1.1//EN" "http://www.w3.org/Graphics/SVG/1.1/DTD/svg11.dtd">
<!-- Creator: CorelDRAW 2020 -->
<svg xmlns="http://www.w3.org/2000/svg" xml:space="preserve" width="11mm" height="10mm" version="1.1" style="shape-rendering:geometricPrecision; text-rendering:geometricPrecision; image-rendering:optimizeQuality; fill-rule:evenodd; clip-rule:evenodd"
viewBox="0 0 316.1 287.36"
 xmlns:xlink="http://www.w3.org/1999/xlink"
 xmlns:xodm="http://www.corel.com/coreldraw/odm/2003">
 <defs>
  <style type="text/css">
   <![CDATA[
    .str0 {stroke:#A8D4AF;stroke-width:21.55;stroke-miterlimit:22.9256}
    .str1 {stroke:#A8D4AF;stroke-width:14.37;stroke-miterlimit:22.9256}
    .str2 {stroke:#A8D4AF;stroke-width:5.75;stroke-miterlimit:22.9256}
    .fil0 {fill:none}
    .fil1 {fill:#A8D4AF}
    .fil2 {fill:#A8D4AF;fill-rule:nonzero}
   ]]>
  </style>
 </defs>
 <g id="Layer_x0020_1">
  <metadata id="CorelCorpID_0Corel-Layer"/>
  <g id="_1091243992">
   <polygon class="fil0" points="-0,0 316.1,0 316.1,287.36 -0,287.36 "/>
   <g>
    <g>
     <polygon class="fil0 str0" points="82.19,84.73 161.72,168.55 82.19,168.55 "/>
     <line class="fil0 str1" x1="246.26" y1="22.21" x2="222.64" y2= "157.22" />
     <line class="fil0 str2" x1="223.41" y1="154.59" x2="218.84" y2= "179.22" />
     <polygon class="fil1 str2" points="116.79,23.63 201.26,23.63 201.26,145.26 116.79,145.26 "/>
    </g>
    <path class="fil2" d="M90.5 212.88c-0.9,-2.44 -2.99,-5.1 -6.26,-7.94 -3.09,-2.66 -4.64,-4.95 -4.64,-6.85 0,-1.52 0.5,-2.75 1.5,-3.68 0.99,-0.94 2.84,-1.79 5.56,-2.54 3.37,-0.94 6.8,-1.98 10.3,-3.16 3.49,-1.17 5.59,-1.92 6.3,-2.26 0.45,-0.21 0.91,-0.32 1.39,-0.32 0.79,0 1.18,0.7 1.18,2.11 0,0.78 -0.95,1.85 -2.85,3.2 -1.91,1.36 -5.27,2.61 -10.09,3.78 -3.04,0.75 -4.9,1.32 -5.58,1.69 -0.68,0.36 -1.01,0.74 -1.01,1.12 0,0.86 0.93,2.09 2.77,3.71 6.98,6.11 10.47,13.77 10.47,22.99 0,3.97 -1.03,8.21 -3.13,12.74 -2.09,4.53 -4.88,7.9 -8.36,10.11 -3.48,2.2 -6.89,3.31 -10.22,3.31 -2.99,0 -5.26,-1.46 -6.8,-4.38 -1.55,-2.93 -2.32,-6.14 -2.32,-9.66 0,-6.23 1.92,-12.09 5.75,-17.6 3.84,-5.52 7.9,-8.27 12.18,-8.27 0.57,0 1.28,0.36 2.14,1.11 0.78,0.7 1.35,0.98 1.7,0.81zm-15.53 24.09c0,2.64 0.35,4.71 1.05,6.2 0.71,1.5 1.63,2.25 2.76,2.25 1.52,0 3.58,-0.94 6.17,-2.82 2.59,-1.87 4.68,-4.65 6.25,-8.33 1.58,-3.68 2.37,-7.13 2.37,-10.34 0,-2.65 -0.36,-4.82 -1.12,-6.46 -0.75,-1.66 -1.45,-2.48 -2.08,-2.48 -4.23,0 -7.86,2.58 -10.88,7.74 -3.01,5.14 -4.52,9.9 -4.52,14.24zm43.7 -34.78c-0.5,0 -0.88,-0.53 -1.15,-1.61 -0.09,-0.33 -0.22,-0.69 -0.39,-1.11 -0.64,-1.53 -0.96,-2.88 -0.96,-4.03 0,-0.95 0.56,-1.91 1.69,-2.9 1.13,-0.99 2.39,-1.48 3.76,-1.48 0.69,0 1.46,0.27 2.32,0.8 0.85,0.53 1.28,1.05 1.28,1.54 0,0.79 -0.29,2.12 -0.88,4 -0.58,1.87 -1.51,3.14 -2.77,3.8 -1.28,0.65 -2.24,0.97 -2.91,0.97zm-4.67 39.81c0,1.8 0.26,3.83 0.75,6.1 0.1,0.43 0.14,0.78 0.14,1.06 0,0.44 -0.39,0.99 -1.17,1.67 -0.79,0.67 -1.62,1.01 -2.49,1.01 -2.31,0 -3.45,-2.12 -3.45,-6.34 0,-4.38 0.9,-11.29 2.7,-20.74 0.62,-3.31 0.93,-5.34 0.93,-6.09 0,-1.5 0.28,-2.77 0.83,-3.83 0.55,-1.06 1.31,-1.59 2.31,-1.59 1.22,0 2.17,0.29 2.87,0.88 0.7,0.58 1.05,1.23 1.05,1.95 0,0.7 -0.16,1.66 -0.5,2.81 -1.78,6.28 -2.89,10.77 -3.31,13.48 -0.43,2.7 -0.64,5.92 -0.64,9.66zm34.28 -21.14c-0.57,-0.02 -1.13,0.52 -1.67,1.64 -4.93,9.84 -8.64,16.51 -11.16,20.03 -0.22,0.3 -0.5,0.75 -0.83,1.35 -2.97,5.29 -5.15,7.94 -6.52,7.94 -1.85,0 -2.77,-0.89 -2.77,-2.68 0,-1.61 1.14,-3.81 3.45,-6.59 2.22,-2.63 5.16,-7.11 8.8,-13.42 3.64,-6.3 6.58,-11.96 8.84,-16.98 0.43,-0.9 1.07,-1.35 1.92,-1.35 0.35,0 1,0.16 1.91,0.49 0.91,0.32 1.49,0.67 1.76,1.05 0.25,0.38 0.84,2.59 1.74,6.63 2.93,14.56 6.01,23.2 9.23,25.91 0.76,0.67 1.22,1.11 1.36,1.34 0.14,0.22 0.21,0.53 0.21,0.94 0,0.74 -0.23,1.41 -0.7,2.02 -0.49,0.61 -0.95,0.99 -1.4,1.16 -0.45,0.17 -1.38,0.26 -2.77,0.26 -0.5,0 -1.67,-1.23 -3.49,-3.7 -1.84,-2.46 -3.98,-9.16 -6.43,-20.11 -0.59,-2.96 -1.09,-4.93 -1.49,-5.93zm35.07 -18.67c-0.5,0 -0.87,-0.53 -1.14,-1.61 -0.1,-0.33 -0.22,-0.69 -0.39,-1.11 -0.64,-1.53 -0.96,-2.88 -0.96,-4.03 0,-0.95 0.56,-1.91 1.69,-2.9 1.13,-0.99 2.39,-1.48 3.76,-1.48 0.69,0 1.46,0.27 2.32,0.8 0.85,0.53 1.28,1.05 1.28,1.54 0,0.79 -0.29,2.12 -0.88,4 -0.58,1.87 -1.51,3.14 -2.77,3.8 -1.28,0.65 -2.24,0.97 -2.91,0.97zm-4.67 39.81c0,1.8 0.26,3.83 0.75,6.1 0.1,0.43 0.14,0.78 0.14,1.06 0,0.44 -0.39,0.99 -1.17,1.67 -0.79,0.67 -1.62,1.01 -2.49,1.01 -2.31,0 -3.45,-2.12 -3.45,-6.34 0,-4.38 0.9,-11.29 2.7,-20.74 0.62,-3.31 0.92,-5.34 0.92,-6.09 0,-1.5 0.28,-2.77 0.83,-3.83 0.55,-1.06 1.32,-1.59 2.31,-1.59 1.22,0 2.17,0.29 2.87,0.88 0.7,0.58 1.05,1.23 1.05,1.95 0,0.7 -0.16,1.66 -0.5,2.81 -1.78,6.28 -2.89,10.77 -3.31,13.48 -0.43,2.7 -0.64,5.92 -0.64,9.66zm59.77 -23.3c-1.92,3.07 -4.64,8.31 -8.13,15.68 -0.78,1.65 -1.58,3.26 -2.38,4.8 -0.27,0.5 -0.77,1.6 -1.5,3.32 -2.49,5.79 -4.67,8.69 -6.53,8.69 -1.47,0 -2.54,-0.17 -3.22,-0.53 -0.67,-0.35 -1.31,-1.33 -1.93,-2.92 -0.62,-1.59 -1.53,-5.33 -2.75,-11.23 -1.4,-6.67 -2.35,-10.78 -2.84,-12.32 -1.62,3.64 -3.06,7.14 -4.32,10.51 -1.9,4.97 -3.73,9.01 -5.52,12.14 -1.78,3.11 -3.07,5 -3.84,5.62 -0.79,0.63 -1.53,0.95 -2.25,0.95 -0.73,0 -1.4,-0.28 -1.99,-0.85 -0.6,-0.57 -0.89,-1.13 -0.89,-1.68 0.15,-0.97 0.3,-1.58 0.5,-1.81 2.07,-2.54 3.84,-5.25 5.34,-8.13 1.5,-2.88 3.41,-7.19 5.73,-12.94 2.31,-5.74 3.8,-10.46 4.43,-14.15 0.32,-1.57 1.46,-2.34 3.46,-2.34 1.17,0 1.97,0.17 2.39,0.53 0.43,0.35 0.85,1.08 1.27,2.17 0.41,1.09 0.66,2.07 0.73,2.93 0.15,1.02 0.55,3.28 1.2,6.8 0.59,3.31 1,5.64 1.18,7.02 0.33,1.99 0.93,4.56 1.77,7.78 0.84,3.21 1.51,4.82 1.98,4.82 0.33,0 0.8,-0.73 1.42,-2.18l2.99 -6.92c0.55,-1.25 1.13,-2.49 1.75,-3.7l4.09 -8.38c2.24,-4.61 3.95,-7.94 5.16,-10.02 1.19,-2.08 2.01,-3.33 2.42,-3.76 0.41,-0.44 0.89,-0.65 1.41,-0.65 0.9,0 1.91,0.24 3.03,0.73 1.12,0.49 1.69,1.02 1.74,1.62 0.05,0.6 0.16,3.08 0.33,7.45l0.46 11.13c0.15,3.54 0.35,6.55 0.64,9.03 0.28,2.48 0.78,4.49 1.5,6.01 1.11,2.42 1.67,4.3 1.67,5.63 0,1.13 -0.46,1.92 -1.4,2.35 -0.95,0.43 -1.82,0.64 -2.63,0.64 -1.66,0 -2.93,-1.34 -3.83,-3.99 -0.89,-2.66 -1.53,-10.29 -1.94,-22.88 -0.14,-3.78 -0.38,-6.09 -0.68,-6.95z"/>
   </g>
  </g>
 </g>
</svg>
