<?xml version="1.0" encoding="UTF-8"?>
<!DOCTYPE svg PUBLIC "-//W3C//DTD SVG 1.1//EN" "http://www.w3.org/Graphics/SVG/1.1/DTD/svg11.dtd">
<!-- Creator: CorelDRAW 2020 -->
<svg xmlns="http://www.w3.org/2000/svg" xml:space="preserve" width="7.0542mm" height="8.5569mm" version="1.1" style="shape-rendering:geometricPrecision; text-rendering:geometricPrecision; image-rendering:optimizeQuality; fill-rule:evenodd; clip-rule:evenodd"
viewBox="0 0 159.3 193.24"
 xmlns:xlink="http://www.w3.org/1999/xlink"
 xmlns:xodm="http://www.corel.com/coreldraw/odm/2003">
 <defs>
  <style type="text/css">
   <![CDATA[
    .str1 {stroke:#C6B93A;stroke-width:16.94;stroke-miterlimit:22.9256}
    .str0 {stroke:#C6B93A;stroke-width:11.29;stroke-miterlimit:22.9256}
    .str2 {stroke:#C6B93A;stroke-width:4.52;stroke-miterlimit:22.9256}
    .fil0 {fill:none}
    .fil1 {fill:#C6B93A}
    .fil2 {fill:#C6B93A;fill-rule:nonzero}
   ]]>
  </style>
 </defs>
 <g id="Layer_x0020_1">
  <metadata id="CorelCorpID_0Corel-Layer"/>
  <line class="fil0 str0" x1="5.37" y1="124.4" x2="156.74" y2= "124.4" />
  <polygon class="fil0 str1" points="29.68,45.55 92.18,111.42 29.68,111.42 "/>
  <line class="fil0 str0" x1="146.14" y1="1.01" x2="127.58" y2= "103.16" />
  <line class="fil0 str2" x1="128.19" y1="101.17" x2="124.59" y2= "119.81" />
  <rect class="fil1 str2" x="47.74" y="14.09" width="66.38" height="79.03"/>
  <path class="fil2" d="M19.25 157.41c-0.8,-2.16 -2.65,-4.51 -5.54,-7.02 -2.73,-2.36 -4.1,-4.38 -4.1,-6.06 0,-1.34 0.44,-2.43 1.32,-3.26 0.88,-0.83 2.52,-1.58 4.91,-2.25 2.98,-0.83 6.01,-1.75 9.11,-2.8 3.09,-1.03 4.95,-1.7 5.57,-2 0.4,-0.18 0.81,-0.28 1.22,-0.28 0.7,0 1.05,0.61 1.05,1.86 0,0.69 -0.84,1.63 -2.52,2.83 -1.69,1.2 -4.66,2.31 -8.92,3.34 -2.69,0.67 -4.33,1.17 -4.94,1.49 -0.6,0.32 -0.89,0.66 -0.89,0.99 0,0.76 0.82,1.85 2.45,3.28 6.17,5.4 9.26,12.17 9.26,20.33 0,3.5 -0.91,7.26 -2.76,11.26 -1.85,4 -4.31,6.98 -7.39,8.94 -3.08,1.94 -6.09,2.92 -9.04,2.92 -2.65,0 -4.65,-1.29 -6.01,-3.87 -1.37,-2.59 -2.06,-5.43 -2.06,-8.54 0,-5.51 1.7,-10.69 5.09,-15.56 3.4,-4.88 6.98,-7.31 10.77,-7.31 0.51,0 1.13,0.32 1.89,0.98 0.69,0.62 1.19,0.87 1.51,0.72zm-13.73 21.3c0,2.33 0.31,4.16 0.92,5.48 0.62,1.32 1.44,1.99 2.44,1.99 1.34,0 3.16,-0.83 5.45,-2.49 2.29,-1.66 4.14,-4.11 5.53,-7.37 1.4,-3.26 2.1,-6.3 2.1,-9.14 0,-2.34 -0.32,-4.26 -0.99,-5.71 -0.67,-1.46 -1.28,-2.19 -1.84,-2.19 -3.74,0 -6.95,2.28 -9.62,6.84 -2.67,4.55 -4,8.76 -4,12.59zm38.63 -30.75c-0.44,0 -0.77,-0.47 -1.01,-1.42 -0.09,-0.29 -0.19,-0.61 -0.34,-0.98 -0.57,-1.36 -0.85,-2.55 -0.85,-3.56 0,-0.84 0.49,-1.69 1.5,-2.56 1,-0.87 2.11,-1.31 3.32,-1.31 0.61,0 1.29,0.24 2.05,0.71 0.75,0.47 1.13,0.93 1.13,1.36 0,0.7 -0.26,1.87 -0.77,3.54 -0.52,1.66 -1.33,2.78 -2.45,3.36 -1.13,0.57 -1.98,0.86 -2.57,0.86zm-4.13 35.2c0,1.59 0.23,3.39 0.67,5.39 0.09,0.37 0.12,0.69 0.12,0.93 0,0.39 -0.34,0.87 -1.03,1.47 -0.7,0.59 -1.43,0.89 -2.2,0.89 -2.04,0 -3.06,-1.87 -3.06,-5.6 0,-3.87 0.8,-9.98 2.39,-18.34 0.55,-2.93 0.82,-4.72 0.82,-5.39 0,-1.32 0.25,-2.45 0.73,-3.39 0.49,-0.94 1.16,-1.41 2.05,-1.41 1.07,0 1.91,0.26 2.54,0.77 0.62,0.52 0.93,1.09 0.93,1.72 0,0.62 -0.14,1.46 -0.44,2.48 -1.57,5.55 -2.55,9.52 -2.93,11.92 -0.37,2.39 -0.57,5.24 -0.57,8.54zm30.31 -18.69c-0.51,-0.02 -1,0.46 -1.47,1.45 -4.35,8.7 -7.64,14.6 -9.86,17.71 -0.2,0.27 -0.44,0.67 -0.73,1.19 -2.62,4.68 -4.55,7.02 -5.77,7.02 -1.63,0 -2.45,-0.78 -2.45,-2.36 0,-1.42 1.01,-3.37 3.06,-5.83 1.97,-2.32 4.56,-6.28 7.78,-11.86 3.22,-5.57 5.82,-10.57 7.82,-15.01 0.38,-0.8 0.95,-1.19 1.7,-1.19 0.31,0 0.88,0.14 1.69,0.43 0.8,0.28 1.32,0.59 1.56,0.93 0.23,0.33 0.74,2.29 1.54,5.86 2.59,12.87 5.31,20.51 8.16,22.91 0.68,0.59 1.08,0.98 1.21,1.18 0.12,0.19 0.18,0.47 0.18,0.83 0,0.66 -0.21,1.25 -0.62,1.79 -0.43,0.54 -0.84,0.87 -1.24,1.02 -0.4,0.15 -1.21,0.23 -2.45,0.23 -0.44,0 -1.47,-1.08 -3.09,-3.27 -1.62,-2.17 -3.52,-8.1 -5.68,-17.78 -0.53,-2.62 -0.97,-4.36 -1.32,-5.24zm31.01 -16.51c-0.44,0 -0.77,-0.47 -1.01,-1.42 -0.09,-0.29 -0.19,-0.61 -0.34,-0.98 -0.57,-1.36 -0.85,-2.55 -0.85,-3.56 0,-0.84 0.49,-1.69 1.49,-2.56 1,-0.87 2.11,-1.31 3.32,-1.31 0.61,0 1.29,0.24 2.05,0.71 0.75,0.47 1.13,0.93 1.13,1.36 0,0.7 -0.26,1.87 -0.77,3.54 -0.52,1.66 -1.33,2.78 -2.45,3.36 -1.13,0.57 -1.98,0.86 -2.57,0.86zm-4.13 35.2c0,1.59 0.23,3.39 0.67,5.39 0.08,0.37 0.12,0.69 0.12,0.93 0,0.39 -0.34,0.87 -1.03,1.47 -0.7,0.59 -1.43,0.89 -2.21,0.89 -2.04,0 -3.06,-1.87 -3.06,-5.6 0,-3.87 0.8,-9.98 2.39,-18.34 0.55,-2.93 0.82,-4.72 0.82,-5.39 0,-1.32 0.25,-2.45 0.73,-3.39 0.48,-0.94 1.16,-1.41 2.04,-1.41 1.07,0 1.91,0.26 2.54,0.77 0.63,0.52 0.93,1.09 0.93,1.72 0,0.62 -0.14,1.46 -0.44,2.48 -1.57,5.55 -2.55,9.52 -2.93,11.92 -0.37,2.39 -0.57,5.24 -0.57,8.54zm52.84 -20.6c-1.7,2.72 -4.1,7.34 -7.19,13.86 -0.69,1.46 -1.4,2.88 -2.11,4.25 -0.24,0.44 -0.68,1.42 -1.32,2.93 -2.21,5.12 -4.13,7.68 -5.77,7.68 -1.3,0 -2.25,-0.15 -2.85,-0.47 -0.59,-0.31 -1.16,-1.17 -1.71,-2.58 -0.55,-1.41 -1.35,-4.71 -2.43,-9.93 -1.24,-5.89 -2.08,-9.53 -2.52,-10.9 -1.43,3.22 -2.7,6.31 -3.82,9.29 -1.68,4.39 -3.3,7.97 -4.88,10.73 -1.57,2.75 -2.71,4.42 -3.4,4.97 -0.7,0.56 -1.35,0.84 -1.99,0.84 -0.65,0 -1.24,-0.25 -1.76,-0.75 -0.53,-0.5 -0.79,-1 -0.79,-1.48 0.13,-0.86 0.27,-1.4 0.44,-1.6 1.83,-2.25 3.4,-4.65 4.72,-7.19 1.32,-2.55 3.01,-6.36 5.07,-11.44 2.04,-5.07 3.36,-9.25 3.92,-12.51 0.28,-1.39 1.29,-2.08 3.05,-2.08 1.03,0 1.74,0.15 2.12,0.47 0.38,0.31 0.75,0.96 1.12,1.91 0.37,0.97 0.58,1.83 0.64,2.59 0.13,0.9 0.48,2.9 1.07,6.01 0.53,2.92 0.88,4.99 1.04,6.21 0.29,1.75 0.82,4.03 1.56,6.87 0.74,2.84 1.33,4.26 1.75,4.26 0.29,0 0.71,-0.64 1.26,-1.92l2.64 -6.12c0.49,-1.11 1,-2.21 1.55,-3.27l3.61 -7.41c1.98,-4.07 3.5,-7.02 4.56,-8.86 1.05,-1.84 1.77,-2.95 2.14,-3.32 0.37,-0.39 0.78,-0.57 1.25,-0.57 0.79,0 1.69,0.21 2.68,0.65 0.99,0.43 1.49,0.9 1.54,1.43 0.04,0.53 0.14,2.72 0.29,6.58l0.41 9.84c0.13,3.13 0.31,5.79 0.57,7.98 0.25,2.19 0.69,3.97 1.32,5.31 0.98,2.14 1.47,3.8 1.47,4.98 0,1 -0.41,1.7 -1.24,2.08 -0.84,0.37 -1.6,0.57 -2.32,0.57 -1.46,0 -2.59,-1.18 -3.39,-3.53 -0.79,-2.36 -1.36,-9.1 -1.71,-20.23 -0.13,-3.35 -0.33,-5.39 -0.6,-6.14z"/>
 </g>
</svg>
