<?xml version="1.0" encoding="UTF-8"?>
<!DOCTYPE svg PUBLIC "-//W3C//DTD SVG 1.1//EN" "http://www.w3.org/Graphics/SVG/1.1/DTD/svg11.dtd">
<!-- Creator: CorelDRAW 2020 -->
<svg xmlns="http://www.w3.org/2000/svg" xml:space="preserve" width="37.2076mm" height="3.2987mm" version="1.1" style="shape-rendering:geometricPrecision; text-rendering:geometricPrecision; image-rendering:optimizeQuality; fill-rule:evenodd; clip-rule:evenodd"
viewBox="0 0 789.09 69.96"
 xmlns:xlink="http://www.w3.org/1999/xlink"
 xmlns:xodm="http://www.corel.com/coreldraw/odm/2003">
 <defs>
  <style type="text/css">
   <![CDATA[
    .str0 {stroke:#D19563;stroke-width:7.48;stroke-miterlimit:22.9256}
    .fil1 {fill:none}
    .fil0 {fill:#D19563;fill-rule:nonzero}
   ]]>
  </style>
 </defs>
 <g id="алаң_12">
  <metadata id="CorelCorpID_0Corel-Layer"/>
  <path class="fil0" d="M17.99 44.71c0,-1.27 -1.56,-2.7 -4.67,-4.32 -3.96,-2.03 -6.63,-3.65 -8.03,-4.87 -1.39,-1.22 -2.08,-2.58 -2.08,-4.08 0,-3.88 1.94,-7.09 5.83,-9.65 3.89,-2.56 7.06,-3.83 9.52,-3.83 1.58,0 2.72,0.28 3.43,0.82 0.71,0.55 1.07,1.5 1.07,2.84 0,0.6 -0.26,1.12 -0.78,1.55 -0.51,0.43 -0.92,0.64 -1.21,0.64 -0.22,0 -0.64,-0.14 -1.26,-0.44 -0.63,-0.27 -1.04,-0.41 -1.23,-0.41 -0.98,0 -2.95,0.72 -5.93,2.13 -2.98,1.43 -4.47,3.03 -4.47,4.83 0,1.09 0.53,2.07 1.58,2.96 1.06,0.89 2.94,1.97 5.66,3.26 2.21,1.05 3.96,2.17 5.28,3.37 1.32,1.2 1.97,2.6 1.97,4.22 0,2.98 -2.06,5.32 -6.17,7 -4.11,1.68 -8.04,2.52 -11.78,2.53 -3.15,-0.01 -4.73,-1.08 -4.73,-3.22 0,-0.74 0.35,-1.29 1.07,-1.64 0.71,-0.35 1.43,-0.53 2.14,-0.53 0.29,0 0.85,0.1 1.67,0.3 0.8,0.19 1.33,0.29 1.58,0.29 2.16,0 4.48,-0.36 6.95,-1.08 2.47,-0.73 4.01,-1.63 4.59,-2.69zm16.37 -6.95c0.25,-0.33 2,-1.9 5.23,-4.71 3.06,-2.66 5.2,-4.61 6.4,-5.82 4.5,-4.5 7.73,-6.75 9.7,-6.75 1.52,0 2.28,0.74 2.28,2.19 0,1.66 -0.75,2.87 -2.25,3.65 -1.96,1 -4.55,2.64 -7.81,4.96 -3.25,2.3 -4.88,3.94 -4.88,4.9 0,0.39 1.15,1.85 3.45,4.37 2.29,2.52 4.29,4.38 5.96,5.58 1.68,1.2 3.31,1.79 4.89,1.79l0.96 -0.03c0.69,-0.04 1.03,0.27 1.03,0.91 0,0.86 -0.54,1.74 -1.61,2.61 -1.08,0.89 -2.48,1.34 -4.24,1.34 -1.13,0 -2.27,-0.4 -3.43,-1.19 -1.16,-0.79 -3.22,-2.91 -6.18,-6.38 -2.35,-2.86 -3.83,-4.58 -4.41,-5.13 -0.59,-0.56 -1.08,-0.84 -1.47,-0.84 -0.21,0 -0.9,0.51 -2.05,1.53 -1.15,1.01 -1.78,1.78 -1.89,2.3 -0.1,0.53 -0.16,2.53 -0.16,6.03l0 1.37c0,0.73 -0.34,1.37 -1.02,1.93 -0.69,0.56 -1.43,0.85 -2.22,0.85 -0.82,0 -1.45,-0.24 -1.92,-0.72 -0.47,-0.48 -0.71,-0.97 -0.71,-1.48 0,-0.7 0.27,-2.35 0.79,-4.97 0.75,-3.76 1.43,-8.8 2.04,-15.11 1.45,-14.9 2.56,-23.33 3.33,-25.29 0.79,-1.97 1.9,-2.94 3.33,-2.94 0.51,0 0.94,0.27 1.28,0.82 0.34,0.55 0.51,1.25 0.51,2.11 0,1.55 -0.67,5.69 -2.01,12.42 -1.35,6.74 -2.31,13.31 -2.92,19.7zm44.69 -5.38l2.14 0c3.62,0 6.31,-0.13 8.09,-0.38 0.86,-0.12 1.72,-0.18 2.57,-0.18 0.37,0 1.13,0.23 2.26,0.67 1.14,0.45 1.82,0.83 2.04,1.13 0.21,0.31 0.32,0.71 0.32,1.22 0,0.72 -0.15,1.23 -0.44,1.52 -0.29,0.29 -0.93,0.44 -1.91,0.44 -0.43,0 -1.03,-0.13 -1.8,-0.38 -0.78,-0.25 -1.44,-0.38 -1.97,-0.38 -0.21,0 -0.92,0.05 -2.13,0.15 -0.65,0.05 -1.82,0.01 -3.51,-0.15 -1.31,-0.12 -2.28,-0.18 -2.92,-0.18 -0.9,0 -2.25,0.06 -4.06,0.18 -1.82,0.12 -3.18,0.18 -4.12,0.18 -0.94,0 -1.69,-0.11 -2.26,-0.31 -0.58,-0.21 -0.87,-0.67 -0.87,-1.39 0,-0.32 0.13,-0.68 0.4,-1.1 0.26,-0.42 1.16,-0.75 2.67,-1 1.52,-0.24 2.61,-0.37 3.27,-0.37l2.22 0.33zm31.56 -28.23l0.09 0c0.55,0 1.37,0.19 2.45,0.58 1.09,0.39 1.8,0.72 2.14,0.98 0.34,0.27 0.52,0.71 0.52,1.34 0,1.21 -0.56,2.26 -1.67,3.17 -1.12,0.9 -1.94,1.36 -2.48,1.36 -0.94,0 -1.76,-0.41 -2.46,-1.23 -0.7,-0.82 -1.05,-1.64 -1.05,-2.45 0,-2.11 0.82,-3.35 2.45,-3.74zm-11.83 65.81c-2.32,0 -4.57,-0.97 -6.74,-2.9 -2.17,-1.93 -3.25,-3.61 -3.25,-5.02 0,-0.39 0.13,-0.77 0.41,-1.15 0.27,-0.38 0.47,-0.57 0.61,-0.57 0.14,0 0.44,0.19 0.91,0.58 3.06,2.69 5.52,4.03 7.39,4.03 1.54,0 2.86,-0.73 3.98,-2.2 1.11,-1.47 1.9,-4.2 2.39,-8.18 0.49,-3.98 0.95,-10.18 1.37,-18.58 0.3,-6.05 0.56,-9.9 0.78,-11.54 0.23,-1.64 0.69,-2.78 1.39,-3.43 0.71,-0.66 1.59,-0.99 2.69,-0.99 0.56,0 1.1,0.22 1.59,0.66 0.49,0.44 0.74,0.98 0.74,1.6 0,0.35 -0.07,0.83 -0.2,1.44 -1.43,6.15 -2.35,14.18 -2.78,24.05 -0.27,5.96 -0.83,10.37 -1.67,13.24 -0.84,2.86 -2.12,5.08 -3.87,6.63 -1.75,1.56 -3.65,2.33 -5.73,2.33zm31.5 -17.1c-2.66,0 -4.87,-1.01 -6.6,-3.03 -1.73,-2.03 -2.6,-4.53 -2.6,-7.51 0,-5.03 1.69,-9.98 5.08,-14.86 3.37,-4.88 7.42,-7.32 12.14,-7.32 3.11,0 5.65,1.2 7.58,3.6 1.93,2.39 2.91,5.25 2.91,8.56 0,5.07 -2,9.76 -6,14.08 -4.01,4.33 -8.17,6.49 -12.5,6.49zm-4.06 -11.3c0,1.97 0.41,3.57 1.24,4.82 0.83,1.25 1.93,1.88 3.29,1.88 2.9,0 5.82,-1.6 8.74,-4.78 2.92,-3.19 4.38,-6.73 4.38,-10.63 0,-2.4 -0.56,-4.34 -1.68,-5.83 -1.12,-1.49 -2.62,-2.24 -4.52,-2.24 -3.13,0 -5.82,1.93 -8.08,5.77 -2.25,3.84 -3.37,7.51 -3.37,11zm34.73 -6.78c2.49,-4.54 5.48,-8.22 8.94,-11.03 3.47,-2.81 6.59,-4.22 9.39,-4.22 1.54,0 2.84,0.71 3.91,2.14 1.08,1.42 1.61,3.15 1.61,5.2 0,6.05 -2.28,11.74 -6.85,17.06 -4.57,5.31 -9.39,7.96 -14.47,7.96 -1.39,0 -2.65,-0.38 -3.82,-1.13 -1.16,-0.75 -1.8,-1.69 -1.93,-2.82 -0.08,-0.91 -0.35,-1.59 -0.79,-2.04 -0.84,-0.84 -1.26,-1.73 -1.26,-2.68 0,-1.78 0.48,-5.57 1.45,-11.37l3.01 -17.48c1.03,-5.87 1.79,-9.49 2.26,-10.87 0.48,-1.38 1.01,-2.31 1.59,-2.77 0.58,-0.47 1.3,-0.7 2.15,-0.7 1.37,0 2.04,1.18 2.04,3.53 0,2.24 -0.75,5.38 -2.24,9.42 -1.45,3.87 -3.11,11.15 -5,21.83zm-0.71 9.74c1.02,1.89 2.24,2.83 3.69,2.83 2.21,0 4.57,-0.93 7.04,-2.76 2.47,-1.85 4.61,-4.43 6.41,-7.77 1.8,-3.34 2.7,-6.17 2.7,-8.47 0,-1.03 -0.19,-1.92 -0.56,-2.65 -0.37,-0.74 -0.84,-1.12 -1.41,-1.12 -2.7,0 -6.01,2.22 -9.91,6.65 -3.91,4.43 -6.56,8.86 -7.97,13.29zm49.88 -3.74c-2.72,3.66 -5.42,6.4 -8.09,8.24 -2.67,1.83 -5.12,2.74 -7.34,2.74 -1.5,0 -2.79,-0.63 -3.88,-1.9 -1.1,-1.27 -1.64,-2.89 -1.64,-4.89 0,-5.12 2.28,-10.63 6.86,-16.55 4.58,-5.92 9.13,-8.87 13.65,-8.87 1.64,0 2.85,0.93 3.66,2.8 0.25,0.62 0.65,0.94 1.2,0.94 1.56,0 2.33,0.6 2.33,1.8 0,0.61 -0.1,1.44 -0.29,2.49 -1.06,5.75 -1.58,9.8 -1.58,12.16 0,4.72 0.89,7.54 2.68,8.48 0.86,0.47 1.29,1.04 1.29,1.72 0,0.61 -0.42,1.22 -1.26,1.83 -0.84,0.61 -1.65,0.92 -2.42,0.92 -1.51,0 -2.74,-1.04 -3.71,-3.1 -0.98,-2.07 -1.47,-5.01 -1.47,-8.82zm-1.78 -16.46c-2.57,0 -5.56,2.41 -8.98,7.23 -3.41,4.83 -5.12,8.83 -5.12,12 0,2.23 0.75,3.36 2.22,3.36 2.14,0 5.12,-2.17 8.92,-6.49 3.8,-4.32 5.7,-8.3 5.7,-11.92 0,-2.78 -0.92,-4.18 -2.74,-4.18zm67.4 12.01c-1.34,1.04 -3.01,1.97 -5.02,2.83 -2.01,0.86 -3.55,1.29 -4.62,1.29 -1.45,0 -2.79,-0.55 -4.04,-1.65 -1.25,-1.11 -1.86,-2.26 -1.86,-3.49 0,-2.92 1.41,-6.17 4.24,-9.77 2.82,-3.58 5.28,-5.38 7.36,-5.38 2.57,0 4.42,0.56 5.56,1.67 0.25,0.18 0.38,0.48 0.38,0.91 0,0.29 -0.02,0.62 -0.05,1 -0.03,0.37 0.14,0.55 0.52,0.55 0.17,0 0.41,-0.08 0.7,-0.23 0.29,-0.16 0.54,-0.24 0.73,-0.24 1.09,0 1.64,0.52 1.64,1.55 0,0.25 -0.31,1.15 -0.94,2.68 -0.6,1.43 -0.98,2.38 -1.12,2.88 -0.15,0.5 -0.22,1.19 -0.22,2.08 0,0.88 0.65,1.32 1.95,1.32 1.78,0 3.41,-0.93 4.93,-2.77 1.51,-1.85 2.26,-3.67 2.26,-5.47 0,-1.78 -0.75,-4.13 -2.22,-7.07 -1.48,-2.94 -3.29,-5.01 -5.44,-6.18 -2.14,-1.18 -3.84,-1.77 -5.09,-1.77 -2.25,0 -5.24,1.52 -8.93,4.55 -3.69,3.02 -6.93,6.95 -9.73,11.79 -2.8,4.83 -4.2,8.28 -4.2,10.34 0,2.78 1.7,5.35 5.08,7.68 3.37,2.35 7.32,3.51 11.85,3.51 2.33,0 5.42,-0.55 9.25,-1.66 3.83,-1.1 6.83,-2.51 9.02,-4.25 0.8,-0.64 1.28,-0.97 1.43,-0.97 0.3,0 0.64,0.14 1.03,0.41 0.39,0.28 0.58,0.53 0.58,0.77 0,1.48 -0.37,2.61 -1.12,3.41 -0.76,0.8 -2.1,1.59 -4.02,2.38 -1.94,0.79 -4.72,1.56 -8.36,2.31 -3.64,0.75 -6.92,1.12 -9.83,1.12 -4.71,0 -9.05,-1.36 -13,-4.09 -3.96,-2.72 -5.94,-6.25 -5.94,-10.57 0,-3.06 1.63,-7.33 4.87,-12.81 3.24,-5.47 6.93,-9.74 11.06,-12.81 4.13,-3.07 7.68,-4.61 10.66,-4.61 4.79,0 8.73,2.02 11.82,6.04 3.09,4.03 4.63,8.1 4.63,12.23 0,2.59 -0.68,5.07 -2.04,7.43 -1.36,2.35 -3.12,3.9 -5.27,4.63 -2.15,0.73 -3.43,1.1 -3.82,1.1 -1.78,0 -3.33,-0.9 -4.68,-2.69zm-1.83 -12.27c-2.35,0.11 -4.48,1.57 -6.36,4.35 -1.89,2.79 -2.82,4.77 -2.82,5.94 0,0.78 0.2,1.33 0.6,1.64 0.4,0.31 1.26,0.47 2.58,0.47 0.9,0 2.22,-0.52 3.99,-1.57 1.77,-1.04 2.64,-1.96 2.64,-2.73 0,-0.21 -0.05,-0.98 -0.14,-2.3 -0.06,-0.88 0.14,-1.79 0.61,-2.72 0.45,-0.86 0.68,-1.3 0.68,-1.34 0,-0.24 -0.6,-0.81 -1.79,-1.72zm57.3 28.81c-2.66,0 -4.87,-1.01 -6.6,-3.03 -1.73,-2.03 -2.6,-4.53 -2.6,-7.51 0,-5.03 1.69,-9.98 5.08,-14.86 3.37,-4.88 7.42,-7.32 12.14,-7.32 3.11,0 5.65,1.2 7.58,3.6 1.93,2.39 2.91,5.25 2.91,8.56 0,5.07 -2,9.76 -6,14.08 -4.01,4.33 -8.17,6.49 -12.5,6.49zm-4.06 -11.3c0,1.97 0.41,3.57 1.24,4.82 0.83,1.25 1.93,1.88 3.29,1.88 2.9,0 5.82,-1.6 8.74,-4.78 2.92,-3.19 4.38,-6.73 4.38,-10.63 0,-2.4 -0.56,-4.34 -1.68,-5.83 -1.12,-1.49 -2.62,-2.24 -4.52,-2.24 -3.13,0 -5.82,1.93 -8.08,5.77 -2.25,3.84 -3.37,7.51 -3.37,11zm50.01 -2.86c-2.49,4.18 -5.05,7.43 -7.66,9.73 -2.6,2.3 -5.03,3.45 -7.27,3.45 -1.29,0 -2.59,-0.75 -3.93,-2.25 -1.34,-1.5 -2,-3.81 -2,-6.92 0,-2.55 0.62,-6.32 1.85,-11.28 1.03,-4.15 1.55,-7.06 1.55,-8.74 0.57,-1.17 1.46,-1.75 2.66,-1.75 0.82,0 1.47,0.29 1.96,0.87 0.49,0.57 0.73,1.17 0.73,1.79 0,1.37 -0.48,3.3 -1.43,5.82 -1.82,4.89 -2.72,9.09 -2.72,12.6 0,3.19 0.74,4.79 2.22,4.79 1.89,0 4.3,-1.61 7.21,-4.82 2.92,-3.22 5.43,-7.7 7.51,-13.45 0.82,-2.29 1.49,-3.79 2,-4.49 0.52,-0.69 1.22,-1.04 2.1,-1.04 1.32,0 1.99,0.88 1.99,2.63 0,0.21 -0.19,0.93 -0.56,2.13 -1.17,4.27 -1.76,8.3 -1.76,12.1 0,4.56 0.76,7.51 2.25,8.85 0.78,0.73 1.17,1.31 1.17,1.76 0,0.55 -0.39,1.05 -1.19,1.5 -0.79,0.45 -1.5,0.67 -2.14,0.67 -1.37,0 -2.46,-1.02 -3.3,-3.04 -0.84,-2.03 -1.26,-5.02 -1.26,-8.97l0 -0.97c0,-0.31 0.01,-0.63 0.03,-0.96zm27.76 -16.78c2.01,-0.16 3.9,-0.34 5.67,-0.56 1.76,-0.19 3.22,-0.29 4.39,-0.29 1.48,0 2.42,0.14 2.8,0.41 0.39,0.27 0.59,0.75 0.59,1.44 0,1.58 -1.11,2.43 -3.3,2.56 -2.83,0.18 -5.43,0.42 -7.81,0.74 -2.38,0.31 -3.65,0.57 -3.84,0.77 -0.18,0.21 -0.77,2.52 -1.77,6.95 -1,4.44 -1.5,7.31 -1.5,8.64 0,2.15 0.29,3.57 0.85,4.28 0.57,0.72 1.42,1.07 2.54,1.07 1.68,0 4.01,-1.26 6.99,-3.77 1.15,-1.03 2.04,-1.55 2.66,-1.55 0.84,0 1.26,0.45 1.26,1.35 0,1.41 -1.35,3.22 -4.05,5.45 -2.69,2.23 -5.46,3.35 -8.28,3.35 -4.72,0 -7.07,-2.78 -7.07,-8.33 0,-2 0.49,-5.12 1.45,-9.33 0.96,-4.19 1.44,-6.7 1.44,-7.54 0,-0.29 -0.24,-0.44 -0.7,-0.44l-3.04 0.27c-2.49,0 -3.74,-1 -3.74,-2.98 0,-1.13 0.57,-1.69 1.73,-1.69l6.01 0c0.41,0 0.77,-0.19 1.09,-0.56 0.31,-0.37 0.77,-1.61 1.37,-3.72 0.61,-2.11 1.15,-4.21 1.61,-6.28 0.47,-2.04 1.39,-3.06 2.75,-3.06 0.84,0 1.48,0.29 1.95,0.88 0.47,0.58 0.7,1.13 0.7,1.64 0,0.27 -0.35,1.67 -1.05,4.18l-1.7 6.14zm27.97 -19.99c1.41,0 2.1,0.9 2.1,2.69 0,1.59 -0.85,5.4 -2.54,11.39 -1.07,3.78 -1.9,7.95 -2.48,12.51 -0.59,4.56 -0.88,8.13 -0.88,10.72 0,3.21 0.21,6.42 0.62,9.59 0.08,0.61 0.11,1.05 0.11,1.32 0,0.98 -0.33,1.82 -0.99,2.52 -0.67,0.7 -1.37,1.05 -2.1,1.05 -1.04,0 -1.75,-0.64 -2.14,-1.93 -0.4,-1.29 -0.6,-3.36 -0.6,-6.22 0,-6.53 0.78,-14.61 2.35,-24.26 1.58,-9.63 2.82,-15.28 3.74,-16.92 0.93,-1.64 1.86,-2.45 2.82,-2.45zm15.43 50.93c-2.66,0 -4.87,-1.01 -6.6,-3.03 -1.73,-2.03 -2.6,-4.53 -2.6,-7.51 0,-5.03 1.69,-9.98 5.08,-14.86 3.37,-4.88 7.42,-7.32 12.14,-7.32 3.11,0 5.65,1.2 7.58,3.6 1.93,2.39 2.91,5.25 2.91,8.56 0,5.07 -2,9.76 -6,14.08 -4.01,4.33 -8.17,6.49 -12.5,6.49zm-4.06 -11.3c0,1.97 0.41,3.57 1.24,4.82 0.83,1.25 1.93,1.88 3.29,1.88 2.9,0 5.82,-1.6 8.74,-4.78 2.92,-3.19 4.38,-6.73 4.38,-10.63 0,-2.4 -0.56,-4.34 -1.68,-5.83 -1.12,-1.49 -2.62,-2.24 -4.52,-2.24 -3.13,0 -5.82,1.93 -8.08,5.77 -2.25,3.84 -3.37,7.51 -3.37,11zm37.91 11.3c-2.66,0 -4.87,-1.01 -6.6,-3.03 -1.73,-2.03 -2.6,-4.53 -2.6,-7.51 0,-5.03 1.69,-9.98 5.08,-14.86 3.37,-4.88 7.42,-7.32 12.14,-7.32 3.11,0 5.65,1.2 7.58,3.6 1.93,2.39 2.91,5.25 2.91,8.56 0,5.07 -2,9.76 -6,14.08 -4.01,4.33 -8.17,6.49 -12.5,6.49zm-4.06 -11.3c0,1.97 0.41,3.57 1.24,4.82 0.83,1.25 1.93,1.88 3.29,1.88 2.9,0 5.82,-1.6 8.74,-4.78 2.92,-3.19 4.38,-6.73 4.38,-10.63 0,-2.4 -0.56,-4.34 -1.68,-5.83 -1.12,-1.49 -2.62,-2.24 -4.52,-2.24 -3.13,0 -5.82,1.93 -8.08,5.77 -2.25,3.84 -3.37,7.51 -3.37,11zm35.04 -3.8c0.25,-0.33 2,-1.9 5.23,-4.71 3.06,-2.66 5.2,-4.61 6.4,-5.82 4.5,-4.5 7.73,-6.75 9.7,-6.75 1.52,0 2.28,0.74 2.28,2.19 0,1.66 -0.75,2.87 -2.25,3.65 -1.96,1 -4.55,2.64 -7.81,4.96 -3.25,2.3 -4.88,3.94 -4.88,4.9 0,0.39 1.15,1.85 3.45,4.37 2.29,2.52 4.29,4.38 5.96,5.58 1.68,1.2 3.31,1.79 4.89,1.79l0.96 -0.03c0.69,-0.04 1.03,0.27 1.03,0.91 0,0.86 -0.54,1.74 -1.61,2.61 -1.08,0.89 -2.48,1.34 -4.24,1.34 -1.13,0 -2.27,-0.4 -3.43,-1.19 -1.16,-0.79 -3.22,-2.91 -6.18,-6.38 -2.35,-2.86 -3.83,-4.58 -4.41,-5.13 -0.59,-0.56 -1.08,-0.84 -1.47,-0.84 -0.21,0 -0.9,0.51 -2.05,1.53 -1.15,1.01 -1.78,1.78 -1.89,2.3 -0.1,0.53 -0.16,2.53 -0.16,6.03l0 1.37c0,0.73 -0.34,1.37 -1.02,1.93 -0.69,0.56 -1.43,0.85 -2.22,0.85 -0.82,0 -1.45,-0.24 -1.92,-0.72 -0.47,-0.48 -0.71,-0.97 -0.71,-1.48 0,-0.7 0.27,-2.35 0.79,-4.97 0.75,-3.76 1.43,-8.8 2.04,-15.11 1.45,-14.9 2.56,-23.33 3.33,-25.29 0.79,-1.97 1.9,-2.94 3.33,-2.94 0.51,0 0.94,0.27 1.28,0.82 0.34,0.55 0.51,1.25 0.51,2.11 0,1.55 -0.67,5.69 -2.01,12.42 -1.35,6.74 -2.31,13.31 -2.92,19.7zm33.94 5.58l0.64 0c0.35,0 0.77,0.17 1.26,0.52 0.49,0.34 0.73,0.8 0.73,1.39 0,1.17 -0.2,2.03 -0.61,2.57 -0.41,0.54 -1.07,1.15 -1.98,1.8 -0.91,0.67 -1.55,1 -1.92,1 -0.82,0 -1.43,-0.19 -1.82,-0.56 -0.39,-0.37 -0.58,-1.38 -0.58,-3.04 0,-1.54 0.09,-2.45 0.26,-2.74 0.18,-0.29 0.6,-0.52 1.28,-0.69 0.67,-0.16 1.58,-0.25 2.73,-0.25zm18.79 9.74c-2.92,0 -5.18,-0.84 -6.74,-2.52 -1.57,-1.68 -2.35,-4.02 -2.35,-7.04 0,-5.09 2.01,-10.44 6.05,-16.09 4.03,-5.63 7.78,-8.46 11.25,-8.46 1.58,0 2.93,0.85 4.07,2.55 1.15,1.71 1.72,3.51 1.72,5.43 0,1.15 -0.25,2.13 -0.75,2.96 -0.5,0.83 -1,1.25 -1.51,1.25 -1.13,0 -1.93,-1.15 -2.39,-3.42 -0.53,-2.45 -1.29,-3.68 -2.28,-3.68 -2.03,0 -4.42,2.4 -7.18,7.21 -2.77,4.82 -4.15,8.88 -4.15,12.19 0,3.31 1.87,4.97 5.64,4.97 2.86,0 6.24,-1.35 10.11,-4.03 1.37,-0.96 2.36,-1.44 3.01,-1.44 0.66,0 0.99,0.38 0.99,1.15 0,1.48 -1.75,3.34 -5.23,5.6 -3.49,2.24 -6.91,3.37 -10.26,3.37zm30.88 -0.21c-2.66,0 -4.87,-1.01 -6.6,-3.03 -1.73,-2.03 -2.6,-4.53 -2.6,-7.51 0,-5.03 1.69,-9.98 5.08,-14.86 3.37,-4.88 7.42,-7.32 12.14,-7.32 3.11,0 5.65,1.2 7.58,3.6 1.93,2.39 2.91,5.25 2.91,8.56 0,5.07 -2,9.76 -6,14.08 -4.01,4.33 -8.17,6.49 -12.5,6.49zm-4.06 -11.3c0,1.97 0.41,3.57 1.24,4.82 0.83,1.25 1.93,1.88 3.29,1.88 2.9,0 5.82,-1.6 8.74,-4.78 2.92,-3.19 4.38,-6.73 4.38,-10.63 0,-2.4 -0.56,-4.34 -1.68,-5.83 -1.12,-1.49 -2.62,-2.24 -4.52,-2.24 -3.13,0 -5.82,1.93 -8.08,5.77 -2.25,3.84 -3.37,7.51 -3.37,11zm51.44 -13.27c-1.82,0.04 -5.7,5.41 -11.63,16.1 -2.01,3.6 -3.18,5.57 -3.51,5.89 -0.33,0.32 -0.94,0.61 -1.83,0.87 -0.89,0.25 -1.63,0.38 -2.21,0.38 -1.31,0 -1.96,-2.54 -1.96,-7.63 0,-2.86 0.62,-8.05 1.85,-15.55 0.51,-3.03 0.76,-5.21 0.76,-6.51 0,-1.29 0.58,-1.93 1.72,-1.93 2.17,0 3.24,1.56 3.24,4.67 0,1.47 -0.36,4.33 -1.08,8.6 -0.84,4.87 -1.27,7.83 -1.29,8.88 1.21,-1.17 2.98,-3.73 5.32,-7.68 3.31,-5.42 5.76,-8.85 7.32,-10.3 1.57,-1.45 3.19,-2.17 4.87,-2.17 1.27,0 2.28,0.85 3.02,2.54 0.75,1.7 1.21,5.74 1.36,12.13 0.04,1.6 0.19,2.78 0.44,3.56 0.26,0.78 0.44,1.17 0.56,1.17 0.92,0 2.9,-3.11 5.97,-9.35 1.64,-3.29 3.22,-5.8 4.78,-7.51 1.55,-1.72 3.26,-2.57 5.16,-2.57 1.58,0 2.72,0.82 3.44,2.44 0.73,1.63 1.24,4.03 1.56,7.23 0.29,3.23 0.74,6.19 1.36,8.88 0.61,2.69 1.74,4.42 3.37,5.18 1.12,0.53 1.67,1.14 1.67,1.85 0,0.68 -0.47,1.38 -1.4,2.1 -0.94,0.73 -1.8,1.09 -2.57,1.09 -1.57,0 -2.95,-0.96 -4.18,-2.86 -1.23,-1.92 -2.15,-6.04 -2.77,-12.39 -0.28,-2.56 -0.54,-4.37 -0.8,-5.44 -0.25,-1.08 -0.65,-1.62 -1.2,-1.62 -0.82,0 -1.79,0.79 -2.9,2.34 -1.13,1.56 -2.93,4.73 -5.43,9.5 -1.94,3.72 -3.42,6.21 -4.43,7.44 -1,1.24 -1.96,1.86 -2.9,1.86 -0.84,0 -1.59,-0.34 -2.25,-1.01 -0.66,-0.68 -1.08,-1.49 -1.26,-2.43 -0.17,-0.94 -0.36,-3.26 -0.55,-6.96 -0.3,-6.15 -0.83,-9.74 -1.61,-10.75z"/>
  <g id="_997871816">
   <polygon class="fil1 str0" points="718.35,14.1 785.35,14.1 785.35,55.35 718.35,55.35 "/>
   <polyline class="fil1 str0" points="718.35,14.1 751.85,38.85 785.35,14.1 "/>
  </g>
 </g>
</svg>
