<?xml version="1.0" encoding="UTF-8"?>
<!DOCTYPE svg PUBLIC "-//W3C//DTD SVG 1.1//EN" "http://www.w3.org/Graphics/SVG/1.1/DTD/svg11.dtd">
<!-- Creator: CorelDRAW 2020 -->
<svg xmlns="http://www.w3.org/2000/svg" xml:space="preserve" width="33.0477mm" height="2.9688mm" version="1.1" style="shape-rendering:geometricPrecision; text-rendering:geometricPrecision; image-rendering:optimizeQuality; fill-rule:evenodd; clip-rule:evenodd"
viewBox="0 0 1335.52 119.97"
 xmlns:xlink="http://www.w3.org/1999/xlink"
 xmlns:xodm="http://www.corel.com/coreldraw/odm/2003">
 <defs>
  <style type="text/css">
   <![CDATA[
    .str0 {stroke:#B2B09C;stroke-width:12.12;stroke-miterlimit:22.9256}
    .fil1 {fill:none}
    .fil0 {fill:#B2B09C;fill-rule:nonzero}
   ]]>
  </style>
 </defs>
 <g id="Layer_x0020_1">
  <metadata id="CorelCorpID_0Corel-Layer"/>
  <g id="_1072382544">
   <path class="fil0" d="M30.86 76.67c0,-2.17 -2.67,-4.64 -8.01,-7.41 -6.8,-3.49 -11.38,-6.26 -13.78,-8.35 -2.38,-2.09 -3.57,-4.43 -3.57,-7 0,-6.66 3.33,-12.16 9.99,-16.54 6.67,-4.38 12.11,-6.58 16.32,-6.58 2.71,0 4.67,0.48 5.88,1.41 1.22,0.94 1.83,2.57 1.83,4.88 0,1.02 -0.45,1.91 -1.33,2.65 -0.87,0.74 -1.58,1.1 -2.07,1.1 -0.38,0 -1.1,-0.24 -2.16,-0.76 -1.07,-0.46 -1.78,-0.7 -2.11,-0.7 -1.68,0 -5.06,1.23 -10.18,3.66 -5.12,2.45 -7.67,5.2 -7.67,8.28 0,1.87 0.91,3.56 2.7,5.08 1.81,1.52 5.04,3.39 9.72,5.59 3.78,1.79 6.79,3.73 9.05,5.78 2.26,2.05 3.39,4.47 3.39,7.24 0,5.11 -3.52,9.12 -10.57,12.01 -7.05,2.89 -13.79,4.33 -20.21,4.34 -5.4,-0.01 -8.11,-1.85 -8.11,-5.52 0,-1.26 0.6,-2.21 1.83,-2.8 1.21,-0.6 2.44,-0.91 3.68,-0.91 0.5,0 1.45,0.17 2.86,0.51 1.37,0.33 2.28,0.5 2.7,0.5 3.71,0 7.68,-0.62 11.92,-1.85 4.24,-1.25 6.88,-2.79 7.87,-4.62zm28.07 -11.93c0.43,-0.56 3.42,-3.27 8.96,-8.07 5.25,-4.57 8.91,-7.9 10.98,-9.97 7.71,-7.71 13.26,-11.58 16.65,-11.58 2.6,0 3.9,1.26 3.9,3.76 0,2.84 -1.28,4.93 -3.85,6.26 -3.35,1.71 -7.8,4.53 -13.4,8.5 -5.57,3.95 -8.37,6.76 -8.37,8.4 0,0.67 1.97,3.16 5.92,7.49 3.93,4.33 7.35,7.51 10.21,9.57 2.87,2.05 5.68,3.08 8.38,3.08l1.64 -0.05c1.18,-0.07 1.77,0.46 1.77,1.56 0,1.48 -0.93,2.98 -2.76,4.49 -1.85,1.52 -4.26,2.29 -7.27,2.29 -1.93,0 -3.9,-0.68 -5.88,-2.04 -1.98,-1.35 -5.52,-4.99 -10.6,-10.95 -4.04,-4.91 -6.57,-7.85 -7.56,-8.79 -1.01,-0.96 -1.85,-1.44 -2.51,-1.44 -0.36,0 -1.54,0.87 -3.51,2.62 -1.97,1.73 -3.04,3.05 -3.23,3.95 -0.17,0.91 -0.27,4.34 -0.27,10.33l0 2.34c0,1.25 -0.58,2.34 -1.75,3.32 -1.18,0.96 -2.44,1.45 -3.81,1.45 -1.4,0 -2.5,-0.41 -3.3,-1.23 -0.8,-0.82 -1.21,-1.66 -1.21,-2.53 0,-1.2 0.46,-4.04 1.35,-8.51 1.28,-6.45 2.44,-15.09 3.5,-25.92 2.48,-25.56 4.38,-40.01 5.71,-43.37 1.35,-3.37 3.25,-5.05 5.71,-5.05 0.87,0 1.61,0.46 2.19,1.4 0.58,0.94 0.87,2.14 0.87,3.61 0,2.66 -1.15,9.76 -3.46,21.3 -2.31,11.56 -3.97,22.82 -5.01,33.78zm76.64 -9.22l3.67 0c6.21,0 10.83,-0.22 13.87,-0.65 1.48,-0.21 2.94,-0.31 4.42,-0.31 0.63,0 1.93,0.39 3.88,1.14 1.95,0.77 3.12,1.42 3.49,1.93 0.36,0.53 0.55,1.22 0.55,2.09 0,1.23 -0.26,2.11 -0.75,2.6 -0.5,0.5 -1.59,0.76 -3.27,0.76 -0.74,0 -1.76,-0.22 -3.1,-0.65 -1.34,-0.43 -2.47,-0.65 -3.37,-0.65 -0.36,0 -1.57,0.08 -3.64,0.25 -1.11,0.09 -3.12,0.02 -6.02,-0.25 -2.24,-0.21 -3.9,-0.31 -5.02,-0.31 -1.54,0 -3.87,0.1 -6.96,0.31 -3.11,0.21 -5.46,0.31 -7.06,0.31 -1.61,0 -2.91,-0.19 -3.88,-0.53 -0.99,-0.36 -1.49,-1.15 -1.49,-2.38 0,-0.55 0.23,-1.16 0.69,-1.88 0.44,-0.72 1.98,-1.28 4.58,-1.71 2.6,-0.41 4.48,-0.63 5.61,-0.63l3.81 0.57zm54.13 -48.41l0.16 0c0.94,0 2.34,0.32 4.21,0.99 1.86,0.66 3.1,1.23 3.68,1.67 0.58,0.46 0.89,1.21 0.89,2.29 0,2.07 -0.96,3.89 -2.86,5.44 -1.92,1.54 -3.33,2.32 -4.26,2.32 -1.61,0 -3.01,-0.7 -4.23,-2.1 -1.2,-1.41 -1.79,-2.81 -1.79,-4.21 0,-3.61 1.4,-5.75 4.21,-6.41zm-20.29 112.86c-3.98,0 -7.84,-1.66 -11.57,-4.98 -3.73,-3.31 -5.58,-6.19 -5.58,-8.6 0,-0.67 0.22,-1.32 0.7,-1.97 0.46,-0.65 0.8,-0.97 1.04,-0.97 0.24,0 0.76,0.32 1.56,0.99 5.25,4.62 9.48,6.91 12.68,6.91 2.63,0 4.91,-1.25 6.83,-3.78 1.9,-2.52 3.27,-7.21 4.11,-14.03 0.84,-6.83 1.62,-17.45 2.34,-31.86 0.51,-10.38 0.96,-16.99 1.33,-19.79 0.39,-2.8 1.18,-4.77 2.38,-5.89 1.21,-1.13 2.74,-1.69 4.62,-1.69 0.96,0 1.88,0.38 2.74,1.13 0.84,0.75 1.26,1.68 1.26,2.74 0,0.59 -0.12,1.42 -0.34,2.46 -2.44,10.56 -4.04,24.31 -4.77,41.24 -0.46,10.22 -1.42,17.79 -2.86,22.7 -1.43,4.91 -3.64,8.71 -6.64,11.38 -2.99,2.67 -6.26,4 -9.84,4zm54.03 -29.32c-4.57,0 -8.35,-1.73 -11.33,-5.2 -2.97,-3.48 -4.46,-7.77 -4.46,-12.88 0,-8.62 2.91,-17.12 8.7,-25.49 5.78,-8.37 12.73,-12.56 20.82,-12.56 5.34,0 9.68,2.05 13,6.17 3.32,4.11 4.99,9 4.99,14.68 0,8.69 -3.44,16.73 -10.3,24.15 -6.88,7.42 -14.01,11.12 -21.43,11.12zm-6.96 -19.39c0,3.37 0.7,6.12 2.12,8.26 1.42,2.14 3.3,3.22 5.64,3.22 4.98,0 9.97,-2.74 14.99,-8.2 5.02,-5.48 7.51,-11.55 7.51,-18.22 0,-4.12 -0.96,-7.44 -2.87,-10.01 -1.92,-2.55 -4.5,-3.84 -7.75,-3.84 -5.37,0 -9.99,3.3 -13.85,9.9 -3.85,6.59 -5.78,12.88 -5.78,18.87zm59.55 -11.63c4.28,-7.78 9.39,-14.1 15.32,-18.92 5.95,-4.83 11.31,-7.24 16.1,-7.24 2.63,0 4.87,1.22 6.7,3.66 1.85,2.43 2.75,5.41 2.75,8.91 0,10.39 -3.92,20.14 -11.75,29.26 -7.84,9.1 -16.1,13.65 -24.83,13.65 -2.38,0 -4.55,-0.65 -6.55,-1.93 -1.98,-1.29 -3.1,-2.89 -3.32,-4.85 -0.14,-1.56 -0.6,-2.74 -1.35,-3.51 -1.44,-1.43 -2.15,-2.97 -2.15,-4.6 0,-3.05 0.82,-9.55 2.49,-19.5l5.17 -29.97c1.76,-10.06 3.06,-16.27 3.88,-18.65 0.82,-2.36 1.73,-3.95 2.74,-4.76 0.99,-0.8 2.23,-1.2 3.7,-1.2 2.34,0 3.5,2.02 3.5,6.05 0,3.85 -1.28,9.22 -3.85,16.15 -2.48,6.64 -5.33,19.13 -8.57,37.43zm-1.22 16.7c1.74,3.23 3.85,4.86 6.33,4.86 3.8,0 7.84,-1.59 12.08,-4.74 4.24,-3.16 7.9,-7.6 11,-13.32 3.08,-5.73 4.64,-10.58 4.64,-14.53 0,-1.76 -0.32,-3.29 -0.96,-4.55 -0.63,-1.26 -1.44,-1.92 -2.41,-1.92 -4.64,0 -10.32,3.81 -17.01,11.41 -6.7,7.6 -11.25,15.19 -13.67,22.79zm85.55 -6.42c-4.67,6.28 -9.3,10.98 -13.87,14.13 -4.59,3.13 -8.78,4.71 -12.59,4.71 -2.57,0 -4.79,-1.08 -6.66,-3.25 -1.88,-2.17 -2.8,-4.96 -2.8,-8.38 0,-8.78 3.92,-18.24 11.77,-28.38 7.85,-10.15 15.65,-15.21 23.4,-15.21 2.8,0 4.89,1.59 6.28,4.8 0.42,1.06 1.11,1.61 2.05,1.61 2.67,0 4,1.03 4,3.1 0,1.04 -0.17,2.47 -0.5,4.26 -1.81,9.85 -2.7,16.81 -2.7,20.85 0,8.09 1.52,12.94 4.61,14.55 1.47,0.8 2.2,1.78 2.2,2.94 0,1.04 -0.72,2.08 -2.15,3.14 -1.43,1.04 -2.82,1.58 -4.15,1.58 -2.59,0 -4.71,-1.78 -6.36,-5.32 -1.68,-3.54 -2.52,-8.59 -2.52,-15.12zm-3.05 -28.23c-4.41,0 -9.54,4.14 -15.39,12.4 -5.85,8.28 -8.78,15.14 -8.78,20.58 0,3.83 1.29,5.77 3.81,5.77 3.68,0 8.78,-3.71 15.3,-11.14 6.51,-7.41 9.77,-14.24 9.77,-20.44 0,-4.78 -1.58,-7.17 -4.71,-7.17zm115.6 20.6c-2.29,1.78 -5.16,3.39 -8.6,4.86 -3.46,1.47 -6.09,2.21 -7.92,2.21 -2.48,0 -4.79,-0.94 -6.93,-2.82 -2.14,-1.9 -3.2,-3.88 -3.2,-5.99 0,-5.01 2.41,-10.59 7.27,-16.75 4.84,-6.14 9.05,-9.22 12.62,-9.22 4.42,0 7.58,0.96 9.53,2.86 0.43,0.31 0.65,0.82 0.65,1.56 0,0.5 -0.03,1.06 -0.09,1.71 -0.05,0.63 0.24,0.95 0.89,0.95 0.29,0 0.7,-0.14 1.2,-0.4 0.5,-0.27 0.93,-0.41 1.25,-0.41 1.86,0 2.8,0.89 2.8,2.66 0,0.43 -0.53,1.97 -1.61,4.61 -1.03,2.44 -1.68,4.09 -1.92,4.94 -0.25,0.85 -0.37,2.04 -0.37,3.58 0,1.5 1.11,2.25 3.35,2.25 3.05,0 5.85,-1.59 8.45,-4.76 2.58,-3.18 3.88,-6.3 3.88,-9.37 0,-3.04 -1.28,-7.08 -3.81,-12.13 -2.53,-5.05 -5.64,-8.58 -9.32,-10.6 -3.68,-2.02 -6.58,-3.03 -8.72,-3.03 -3.87,0 -8.98,2.6 -15.31,7.8 -6.33,5.18 -11.89,11.92 -16.68,20.22 -4.81,8.28 -7.21,14.2 -7.21,17.74 0,4.78 2.91,9.17 8.71,13.17 5.78,4.02 12.56,6.02 20.32,6.02 4,0 9.29,-0.94 15.86,-2.84 6.57,-1.88 11.72,-4.31 15.47,-7.29 1.37,-1.1 2.19,-1.66 2.44,-1.66 0.51,0 1.1,0.24 1.76,0.7 0.67,0.48 0.99,0.91 0.99,1.32 0,2.53 -0.63,4.48 -1.92,5.85 -1.3,1.37 -3.59,2.74 -6.89,4.09 -3.32,1.35 -8.09,2.67 -14.34,3.96 -6.24,1.29 -11.87,1.92 -16.85,1.92 -8.07,0 -15.51,-2.33 -22.29,-7.02 -6.79,-4.67 -10.18,-10.73 -10.18,-18.13 0,-5.25 2.79,-12.58 8.35,-21.97 5.56,-9.38 11.89,-16.71 18.97,-21.96 7.08,-5.27 13.17,-7.9 18.29,-7.9 8.21,0 14.97,3.46 20.27,10.35 5.3,6.91 7.94,13.89 7.94,20.97 0,4.45 -1.16,8.69 -3.51,12.75 -2.32,4.04 -5.35,6.69 -9.03,7.94 -3.69,1.25 -5.88,1.88 -6.55,1.88 -3.05,0 -5.71,-1.54 -8.03,-4.62zm-3.14 -21.04c-4.04,0.19 -7.68,2.69 -10.9,7.46 -3.23,4.79 -4.84,8.18 -4.84,10.18 0,1.34 0.34,2.28 1.03,2.8 0.68,0.53 2.15,0.8 4.43,0.8 1.54,0 3.81,-0.89 6.84,-2.68 3.03,-1.78 4.54,-3.35 4.54,-4.69 0,-0.36 -0.09,-1.68 -0.24,-3.95 -0.1,-1.51 0.24,-3.06 1.04,-4.67 0.77,-1.48 1.16,-2.23 1.16,-2.3 0,-0.41 -1.03,-1.39 -3.06,-2.96zm98.26 49.41c-4.57,0 -8.35,-1.73 -11.33,-5.2 -2.97,-3.48 -4.46,-7.77 -4.46,-12.88 0,-8.62 2.91,-17.12 8.71,-25.49 5.78,-8.37 12.73,-12.56 20.82,-12.56 5.34,0 9.68,2.05 13,6.17 3.32,4.11 4.99,9 4.99,14.68 0,8.69 -3.44,16.73 -10.29,24.15 -6.88,7.42 -14.01,11.12 -21.44,11.12zm-6.96 -19.39c0,3.37 0.7,6.12 2.12,8.26 1.42,2.14 3.3,3.22 5.65,3.22 4.98,0 9.97,-2.74 14.99,-8.2 5.01,-5.48 7.5,-11.55 7.5,-18.22 0,-4.12 -0.95,-7.44 -2.87,-10.01 -1.92,-2.55 -4.5,-3.84 -7.75,-3.84 -5.37,0 -9.99,3.3 -13.85,9.9 -3.85,6.59 -5.78,12.88 -5.78,18.87zm85.76 -4.91c-4.28,7.17 -8.66,12.74 -13.14,16.68 -4.47,3.95 -8.62,5.92 -12.47,5.92 -2.21,0 -4.45,-1.28 -6.74,-3.86 -2.29,-2.57 -3.44,-6.54 -3.44,-11.87 0,-4.38 1.06,-10.83 3.16,-19.35 1.76,-7.12 2.65,-12.11 2.65,-14.99 0.98,-2 2.5,-3.01 4.57,-3.01 1.4,0 2.51,0.49 3.35,1.49 0.84,0.97 1.24,2 1.24,3.08 0,2.34 -0.82,5.66 -2.44,9.97 -3.12,8.39 -4.67,15.59 -4.67,21.6 0,5.48 1.26,8.21 3.81,8.21 3.23,0 7.37,-2.75 12.37,-8.26 5.01,-5.53 9.31,-13.21 12.88,-23.06 1.4,-3.94 2.55,-6.51 3.44,-7.7 0.89,-1.18 2.09,-1.78 3.6,-1.78 2.25,0 3.4,1.51 3.4,4.52 0,0.36 -0.32,1.59 -0.96,3.66 -2,7.32 -3.01,14.24 -3.01,20.76 0,7.82 1.3,12.88 3.87,15.17 1.33,1.24 2,2.24 2,3.01 0,0.94 -0.67,1.79 -2.04,2.56 -1.35,0.77 -2.57,1.15 -3.68,1.15 -2.34,0 -4.23,-1.75 -5.66,-5.22 -1.44,-3.47 -2.15,-8.6 -2.15,-15.38l0 -1.66c0,-0.53 0.01,-1.08 0.05,-1.64zm47.61 -28.78c3.44,-0.27 6.69,-0.58 9.72,-0.96 3.01,-0.33 5.52,-0.5 7.52,-0.5 2.53,0 4.14,0.24 4.81,0.7 0.67,0.46 1.01,1.28 1.01,2.46 0,2.71 -1.9,4.17 -5.66,4.4 -4.86,0.31 -9.31,0.72 -13.4,1.26 -4.07,0.53 -6.26,0.98 -6.59,1.32 -0.31,0.36 -1.32,4.33 -3.03,11.93 -1.71,7.61 -2.57,12.54 -2.57,14.81 0,3.68 0.49,6.12 1.45,7.34 0.97,1.23 2.43,1.83 4.36,1.83 2.87,0 6.88,-2.15 11.99,-6.47 1.97,-1.76 3.49,-2.66 4.55,-2.66 1.44,0 2.15,0.77 2.15,2.31 0,2.42 -2.31,5.53 -6.94,9.34 -4.62,3.83 -9.36,5.75 -14.2,5.75 -8.09,0 -12.12,-4.77 -12.12,-14.29 0,-3.44 0.84,-8.78 2.49,-15.99 1.64,-7.19 2.47,-11.5 2.47,-12.94 0,-0.5 -0.41,-0.75 -1.2,-0.75l-5.21 0.46c-4.28,0 -6.42,-1.71 -6.42,-5.12 0,-1.93 0.98,-2.91 2.96,-2.91l10.31 0c0.7,0 1.32,-0.33 1.87,-0.96 0.53,-0.63 1.32,-2.75 2.34,-6.38 1.04,-3.63 1.96,-7.22 2.75,-10.76 0.8,-3.51 2.38,-5.25 4.72,-5.25 1.43,0 2.55,0.49 3.35,1.51 0.81,0.99 1.2,1.93 1.2,2.8 0,0.46 -0.6,2.86 -1.8,7.17l-2.91 10.52zm47.97 -34.28c2.41,0 3.61,1.54 3.61,4.62 0,2.74 -1.45,9.25 -4.36,19.54 -1.83,6.48 -3.25,13.63 -4.26,21.45 -1.01,7.82 -1.5,13.94 -1.5,18.39 0,5.51 0.36,11 1.05,16.44 0.14,1.04 0.19,1.8 0.19,2.26 0,1.68 -0.56,3.11 -1.69,4.31 -1.15,1.2 -2.34,1.8 -3.61,1.8 -1.78,0 -2.99,-1.1 -3.68,-3.3 -0.69,-2.21 -1.03,-5.77 -1.03,-10.68 0,-11.19 1.34,-25.06 4.03,-41.61 2.7,-16.52 4.84,-26.21 6.41,-29.01 1.59,-2.8 3.2,-4.21 4.84,-4.21zm26.47 87.35c-4.57,0 -8.35,-1.73 -11.33,-5.2 -2.97,-3.48 -4.46,-7.77 -4.46,-12.88 0,-8.62 2.91,-17.12 8.7,-25.49 5.78,-8.37 12.73,-12.56 20.82,-12.56 5.34,0 9.68,2.05 13,6.17 3.31,4.11 4.99,9 4.99,14.68 0,8.69 -3.44,16.73 -10.3,24.15 -6.88,7.42 -14.01,11.12 -21.43,11.12zm-6.96 -19.39c0,3.37 0.7,6.12 2.12,8.26 1.42,2.14 3.3,3.22 5.65,3.22 4.98,0 9.97,-2.74 14.99,-8.2 5.01,-5.48 7.5,-11.55 7.5,-18.22 0,-4.12 -0.96,-7.44 -2.87,-10.01 -1.92,-2.55 -4.5,-3.84 -7.75,-3.84 -5.37,0 -9.99,3.3 -13.85,9.9 -3.85,6.59 -5.78,12.88 -5.78,18.87zm65.01 19.39c-4.57,0 -8.35,-1.73 -11.33,-5.2 -2.97,-3.48 -4.46,-7.77 -4.46,-12.88 0,-8.62 2.91,-17.12 8.7,-25.49 5.78,-8.37 12.73,-12.56 20.82,-12.56 5.34,0 9.68,2.05 13,6.17 3.31,4.11 4.99,9 4.99,14.68 0,8.69 -3.44,16.73 -10.3,24.15 -6.88,7.42 -14.01,11.12 -21.43,11.12zm-6.96 -19.39c0,3.37 0.7,6.12 2.12,8.26 1.42,2.14 3.3,3.22 5.65,3.22 4.98,0 9.97,-2.74 14.99,-8.2 5.01,-5.48 7.5,-11.55 7.5,-18.22 0,-4.12 -0.96,-7.44 -2.87,-10.01 -1.92,-2.55 -4.5,-3.84 -7.75,-3.84 -5.37,0 -9.99,3.3 -13.85,9.9 -3.85,6.59 -5.78,12.88 -5.78,18.87zm60.1 -6.52c0.43,-0.56 3.42,-3.27 8.96,-8.07 5.25,-4.57 8.91,-7.9 10.98,-9.97 7.71,-7.71 13.26,-11.58 16.65,-11.58 2.6,0 3.9,1.26 3.9,3.76 0,2.84 -1.28,4.93 -3.85,6.26 -3.35,1.71 -7.8,4.53 -13.39,8.5 -5.58,3.95 -8.37,6.76 -8.37,8.4 0,0.67 1.96,3.16 5.92,7.49 3.94,4.33 7.35,7.51 10.21,9.57 2.87,2.05 5.68,3.08 8.38,3.08l1.64 -0.05c1.18,-0.07 1.77,0.46 1.77,1.56 0,1.48 -0.93,2.98 -2.76,4.49 -1.85,1.52 -4.26,2.29 -7.27,2.29 -1.93,0 -3.9,-0.68 -5.89,-2.04 -1.98,-1.35 -5.52,-4.99 -10.6,-10.95 -4.04,-4.91 -6.57,-7.85 -7.56,-8.79 -1.01,-0.96 -1.85,-1.44 -2.51,-1.44 -0.36,0 -1.54,0.87 -3.51,2.62 -1.96,1.73 -3.04,3.05 -3.23,3.95 -0.17,0.91 -0.27,4.34 -0.27,10.33l0 2.34c0,1.25 -0.58,2.34 -1.75,3.32 -1.18,0.96 -2.44,1.45 -3.81,1.45 -1.4,0 -2.5,-0.41 -3.3,-1.23 -0.8,-0.82 -1.21,-1.66 -1.21,-2.53 0,-1.2 0.46,-4.04 1.35,-8.51 1.28,-6.45 2.44,-15.09 3.5,-25.92 2.48,-25.56 4.38,-40.01 5.71,-43.37 1.35,-3.37 3.25,-5.05 5.71,-5.05 0.87,0 1.61,0.46 2.19,1.4 0.58,0.94 0.87,2.14 0.87,3.61 0,2.66 -1.15,9.76 -3.46,21.3 -2.31,11.56 -3.97,22.82 -5.01,33.78zm58.2 9.57l1.09 0c0.6,0 1.32,0.29 2.16,0.89 0.84,0.58 1.25,1.37 1.25,2.38 0,2 -0.34,3.48 -1.04,4.42 -0.7,0.92 -1.83,1.97 -3.39,3.1 -1.56,1.14 -2.65,1.71 -3.29,1.71 -1.4,0 -2.45,-0.32 -3.11,-0.96 -0.67,-0.63 -0.99,-2.36 -0.99,-5.22 0,-2.63 0.16,-4.21 0.45,-4.7 0.3,-0.5 1.02,-0.89 2.19,-1.18 1.15,-0.27 2.7,-0.42 4.69,-0.42zm32.23 16.7c-5.01,0 -8.88,-1.44 -11.56,-4.31 -2.69,-2.87 -4.04,-6.89 -4.04,-12.08 0,-8.72 3.46,-17.91 10.39,-27.6 6.91,-9.66 13.34,-14.5 19.29,-14.5 2.71,0 5.03,1.45 6.98,4.38 1.96,2.92 2.94,6.02 2.94,9.31 0,1.97 -0.43,3.66 -1.28,5.08 -0.86,1.42 -1.71,2.14 -2.58,2.14 -1.94,0 -3.31,-1.96 -4.11,-5.87 -0.91,-4.21 -2.21,-6.31 -3.92,-6.31 -3.47,0 -7.58,4.12 -12.32,12.37 -4.76,8.26 -7.12,15.23 -7.12,20.91 0,5.68 3.21,8.52 9.67,8.52 4.91,0 10.69,-2.31 17.34,-6.91 2.34,-1.64 4.05,-2.46 5.17,-2.46 1.13,0 1.69,0.65 1.69,1.97 0,2.53 -2.99,5.73 -8.96,9.6 -5.99,3.85 -11.86,5.78 -17.59,5.78zm52.97 -0.36c-4.57,0 -8.35,-1.73 -11.33,-5.2 -2.97,-3.48 -4.46,-7.77 -4.46,-12.88 0,-8.62 2.91,-17.12 8.71,-25.49 5.78,-8.37 12.73,-12.56 20.82,-12.56 5.34,0 9.68,2.05 13,6.17 3.32,4.11 4.99,9 4.99,14.68 0,8.69 -3.44,16.73 -10.3,24.15 -6.88,7.42 -14.01,11.12 -21.44,11.12zm-6.96 -19.39c0,3.37 0.7,6.12 2.12,8.26 1.42,2.14 3.3,3.22 5.65,3.22 4.98,0 9.97,-2.74 14.99,-8.2 5.01,-5.48 7.5,-11.55 7.5,-18.22 0,-4.12 -0.95,-7.44 -2.87,-10.01 -1.92,-2.55 -4.5,-3.84 -7.75,-3.84 -5.37,0 -9.99,3.3 -13.86,9.9 -3.85,6.59 -5.78,12.88 -5.78,18.87zm88.23 -22.75c-3.12,0.07 -9.77,9.27 -19.95,27.61 -3.46,6.17 -5.46,9.55 -6.02,10.09 -0.57,0.55 -1.61,1.04 -3.13,1.49 -1.52,0.42 -2.79,0.65 -3.78,0.65 -2.24,0 -3.37,-4.36 -3.37,-13.09 0,-4.91 1.06,-13.81 3.16,-26.67 0.87,-5.2 1.31,-8.93 1.31,-11.17 0,-2.21 0.99,-3.3 2.95,-3.3 3.71,0 5.56,2.67 5.56,8.01 0,2.52 -0.61,7.43 -1.85,14.75 -1.43,8.35 -2.17,13.43 -2.21,15.23 2.07,-2 5.12,-6.4 9.12,-13.17 5.68,-9.29 9.87,-15.17 12.56,-17.67 2.68,-2.48 5.47,-3.73 8.35,-3.73 2.17,0 3.9,1.45 5.18,4.36 1.29,2.91 2.07,9.84 2.33,20.8 0.07,2.74 0.32,4.77 0.75,6.11 0.44,1.33 0.76,2 0.96,2 1.58,0 4.98,-5.34 10.23,-16.03 2.8,-5.64 5.52,-9.94 8.19,-12.88 2.65,-2.95 5.6,-4.41 8.85,-4.41 2.7,0 4.67,1.4 5.9,4.19 1.25,2.79 2.12,6.91 2.67,12.4 0.5,5.54 1.27,10.62 2.33,15.23 1.04,4.62 2.98,7.58 5.78,8.88 1.92,0.91 2.86,1.95 2.86,3.16 0,1.16 -0.8,2.36 -2.4,3.59 -1.61,1.25 -3.08,1.86 -4.41,1.86 -2.69,0 -5.07,-1.64 -7.17,-4.91 -2.11,-3.29 -3.69,-10.37 -4.76,-21.24 -0.48,-4.38 -0.93,-7.5 -1.37,-9.33 -0.43,-1.85 -1.12,-2.77 -2.06,-2.77 -1.4,0 -3.06,1.35 -4.97,4.02 -1.94,2.67 -5.03,8.11 -9.31,16.29 -3.33,6.39 -5.87,10.64 -7.6,12.76 -1.71,2.12 -3.37,3.18 -4.97,3.18 -1.44,0 -2.72,-0.58 -3.87,-1.73 -1.13,-1.16 -1.85,-2.55 -2.16,-4.17 -0.29,-1.61 -0.61,-5.59 -0.94,-11.94 -0.51,-10.55 -1.42,-16.71 -2.75,-18.44z"/>
   <g>
    <polygon class="fil1 str0" points="1213.4,20.24 1329.46,20.24 1329.46,91.7 1213.4,91.7 "/>
    <polyline class="fil1 str0" points="1213.4,20.24 1271.43,63.11 1329.46,20.24 "/>
   </g>
  </g>
 </g>
</svg>
