<?xml version="1.0" encoding="UTF-8"?>
<!DOCTYPE svg PUBLIC "-//W3C//DTD SVG 1.1//EN" "http://www.w3.org/Graphics/SVG/1.1/DTD/svg11.dtd">
<!-- Creator: CorelDRAW 2020 -->
<svg xmlns="http://www.w3.org/2000/svg" xml:space="preserve" width="29.9226mm" height="2.639mm" version="1.1" style="shape-rendering:geometricPrecision; text-rendering:geometricPrecision; image-rendering:optimizeQuality; fill-rule:evenodd; clip-rule:evenodd"
viewBox="0 0 546.35 48.19"
 xmlns:xlink="http://www.w3.org/1999/xlink"
 xmlns:xodm="http://www.corel.com/coreldraw/odm/2003">
 <defs>
  <style type="text/css">
   <![CDATA[
    .str0 {stroke:#6B470F;stroke-width:5.48;stroke-miterlimit:22.9256}
    .fil1 {fill:none}
    .fil0 {fill:#6B470F;fill-rule:nonzero}
   ]]>
  </style>
 </defs>
 <g id="Layer_x0020_1">
  <metadata id="CorelCorpID_0Corel-Layer"/>
  <g id="_1357222832">
   <path class="fil0" d="M12.39 30.79c0,-0.87 -1.07,-1.86 -3.22,-2.97 -2.73,-1.4 -4.57,-2.51 -5.53,-3.35 -0.96,-0.84 -1.44,-1.78 -1.44,-2.81 0,-2.67 1.34,-4.89 4.01,-6.64 2.68,-1.76 4.86,-2.64 6.55,-2.64 1.09,0 1.88,0.19 2.36,0.56 0.49,0.38 0.74,1.03 0.74,1.96 0,0.41 -0.18,0.77 -0.54,1.06 -0.35,0.3 -0.63,0.44 -0.83,0.44 -0.15,0 -0.44,-0.1 -0.87,-0.3 -0.43,-0.19 -0.71,-0.28 -0.85,-0.28 -0.67,0 -2.03,0.49 -4.09,1.47 -2.05,0.98 -3.08,2.09 -3.08,3.33 0,0.75 0.36,1.43 1.08,2.04 0.73,0.61 2.03,1.36 3.9,2.25 1.52,0.72 2.73,1.5 3.64,2.32 0.91,0.82 1.36,1.79 1.36,2.91 0,2.05 -1.42,3.66 -4.25,4.82 -2.83,1.16 -5.54,1.74 -8.11,1.75 -2.17,-0.01 -3.26,-0.74 -3.26,-2.22 0,-0.51 0.24,-0.89 0.73,-1.13 0.49,-0.24 0.98,-0.37 1.48,-0.37 0.2,0 0.58,0.07 1.15,0.21 0.55,0.13 0.91,0.2 1.08,0.2 1.49,0 3.09,-0.25 4.79,-0.74 1.7,-0.5 2.76,-1.12 3.16,-1.86zm11.27 -4.79c0.17,-0.23 1.37,-1.31 3.6,-3.24 2.11,-1.84 3.58,-3.17 4.41,-4 3.1,-3.1 5.32,-4.65 6.68,-4.65 1.04,0 1.57,0.51 1.57,1.51 0,1.14 -0.51,1.98 -1.55,2.51 -1.35,0.69 -3.13,1.82 -5.38,3.42 -2.24,1.58 -3.36,2.71 -3.36,3.37 0,0.27 0.79,1.27 2.38,3.01 1.58,1.74 2.95,3.02 4.1,3.84 1.15,0.82 2.28,1.24 3.37,1.24l0.66 -0.02c0.47,-0.03 0.71,0.19 0.71,0.63 0,0.59 -0.37,1.2 -1.11,1.8 -0.74,0.61 -1.71,0.92 -2.92,0.92 -0.78,0 -1.57,-0.27 -2.36,-0.82 -0.8,-0.54 -2.22,-2 -4.26,-4.4 -1.62,-1.97 -2.64,-3.15 -3.04,-3.53 -0.41,-0.39 -0.74,-0.58 -1.01,-0.58 -0.15,0 -0.62,0.35 -1.41,1.05 -0.79,0.69 -1.22,1.22 -1.3,1.59 -0.07,0.37 -0.11,1.75 -0.11,4.15l0 0.94c0,0.5 -0.23,0.94 -0.7,1.33 -0.47,0.39 -0.98,0.58 -1.53,0.58 -0.56,0 -1,-0.16 -1.32,-0.49 -0.33,-0.33 -0.49,-0.67 -0.49,-1.02 0,-0.48 0.19,-1.62 0.54,-3.42 0.52,-2.59 0.98,-6.06 1.41,-10.41 1,-10.27 1.76,-16.07 2.3,-17.42 0.54,-1.35 1.31,-2.03 2.3,-2.03 0.35,0 0.65,0.18 0.88,0.56 0.23,0.38 0.35,0.86 0.35,1.45 0,1.07 -0.46,3.92 -1.39,8.55 -0.93,4.64 -1.59,9.16 -2.01,13.57zm30.78 -3.7l1.47 0c2.49,0 4.35,-0.09 5.57,-0.26 0.59,-0.08 1.18,-0.12 1.77,-0.12 0.25,0 0.77,0.16 1.56,0.46 0.79,0.31 1.25,0.57 1.4,0.78 0.14,0.21 0.22,0.49 0.22,0.84 0,0.49 -0.1,0.85 -0.3,1.04 -0.2,0.2 -0.64,0.3 -1.31,0.3 -0.29,0 -0.71,-0.09 -1.24,-0.26 -0.53,-0.17 -0.99,-0.26 -1.35,-0.26 -0.14,0 -0.63,0.03 -1.46,0.1 -0.45,0.03 -1.25,0.01 -2.42,-0.1 -0.9,-0.08 -1.57,-0.12 -2.01,-0.12 -0.62,0 -1.55,0.04 -2.8,0.12 -1.25,0.08 -2.19,0.12 -2.84,0.12 -0.64,0 -1.17,-0.07 -1.56,-0.21 -0.4,-0.14 -0.6,-0.46 -0.6,-0.95 0,-0.22 0.09,-0.47 0.28,-0.76 0.18,-0.29 0.8,-0.51 1.84,-0.69 1.04,-0.16 1.8,-0.25 2.25,-0.25l1.53 0.23zm21.74 -19.44l0.06 0c0.38,0 0.94,0.13 1.69,0.4 0.75,0.27 1.24,0.49 1.48,0.67 0.23,0.19 0.36,0.49 0.36,0.92 0,0.83 -0.39,1.56 -1.15,2.19 -0.77,0.62 -1.34,0.93 -1.71,0.93 -0.64,0 -1.21,-0.28 -1.7,-0.84 -0.48,-0.56 -0.72,-1.13 -0.72,-1.69 0,-1.45 0.56,-2.31 1.69,-2.58zm-8.15 45.33c-1.6,0 -3.15,-0.67 -4.65,-2 -1.5,-1.33 -2.24,-2.49 -2.24,-3.45 0,-0.27 0.09,-0.53 0.28,-0.79 0.18,-0.26 0.32,-0.39 0.42,-0.39 0.09,0 0.3,0.13 0.63,0.4 2.11,1.86 3.81,2.78 5.09,2.78 1.06,0 1.97,-0.5 2.74,-1.52 0.76,-1.01 1.31,-2.89 1.65,-5.63 0.34,-2.74 0.65,-7.01 0.94,-12.79 0.21,-4.17 0.38,-6.82 0.53,-7.95 0.16,-1.13 0.47,-1.92 0.96,-2.36 0.49,-0.45 1.1,-0.68 1.86,-0.68 0.38,0 0.75,0.15 1.1,0.45 0.34,0.3 0.51,0.67 0.51,1.1 0,0.24 -0.05,0.57 -0.14,0.99 -0.98,4.24 -1.62,9.76 -1.92,16.56 -0.19,4.1 -0.57,7.14 -1.15,9.12 -0.58,1.97 -1.46,3.5 -2.67,4.57 -1.2,1.07 -2.51,1.61 -3.95,1.61zm21.7 -11.78c-1.84,0 -3.35,-0.69 -4.55,-2.09 -1.2,-1.39 -1.79,-3.12 -1.79,-5.17 0,-3.46 1.17,-6.88 3.5,-10.24 2.32,-3.36 5.11,-5.04 8.36,-5.04 2.14,0 3.89,0.83 5.22,2.48 1.33,1.65 2,3.61 2,5.9 0,3.49 -1.38,6.72 -4.14,9.7 -2.76,2.98 -5.63,4.47 -8.61,4.47zm-2.8 -7.79c0,1.35 0.28,2.46 0.85,3.32 0.57,0.86 1.33,1.29 2.27,1.29 2,0 4,-1.1 6.02,-3.29 2.01,-2.2 3.01,-4.64 3.01,-7.32 0,-1.65 -0.39,-2.99 -1.15,-4.02 -0.77,-1.02 -1.81,-1.54 -3.11,-1.54 -2.16,0 -4.01,1.33 -5.56,3.98 -1.55,2.65 -2.32,5.17 -2.32,7.58zm23.92 -4.67c1.72,-3.13 3.77,-5.66 6.16,-7.6 2.39,-1.94 4.54,-2.91 6.47,-2.91 1.06,0 1.96,0.49 2.69,1.47 0.74,0.98 1.11,2.17 1.11,3.58 0,4.17 -1.57,8.09 -4.72,11.75 -3.15,3.65 -6.47,5.48 -9.97,5.48 -0.95,0 -1.83,-0.26 -2.63,-0.78 -0.8,-0.51 -1.24,-1.16 -1.33,-1.94 -0.06,-0.63 -0.24,-1.1 -0.54,-1.41 -0.58,-0.58 -0.86,-1.19 -0.86,-1.85 0,-1.22 0.33,-3.83 1,-7.83l2.08 -12.04c0.71,-4.04 1.23,-6.53 1.56,-7.49 0.33,-0.95 0.69,-1.59 1.1,-1.91 0.4,-0.32 0.89,-0.48 1.48,-0.48 0.94,0 1.41,0.81 1.41,2.43 0,1.54 -0.51,3.7 -1.54,6.49 -1,2.67 -2.14,7.68 -3.44,15.03zm-0.49 6.71c0.7,1.3 1.54,1.95 2.54,1.95 1.52,0 3.15,-0.64 4.85,-1.9 1.7,-1.27 3.17,-3.05 4.42,-5.35 1.24,-2.3 1.86,-4.25 1.86,-5.83 0,-0.71 -0.13,-1.32 -0.39,-1.83 -0.26,-0.51 -0.58,-0.77 -0.97,-0.77 -1.86,0 -4.14,1.53 -6.83,4.58 -2.69,3.05 -4.52,6.1 -5.49,9.15zm34.36 -2.58c-1.88,2.52 -3.74,4.41 -5.57,5.67 -1.84,1.26 -3.52,1.89 -5.06,1.89 -1.03,0 -1.92,-0.43 -2.67,-1.31 -0.76,-0.87 -1.13,-1.99 -1.13,-3.37 0,-3.52 1.57,-7.32 4.73,-11.4 3.15,-4.08 6.29,-6.11 9.4,-6.11 1.12,0 1.96,0.64 2.52,1.93 0.17,0.43 0.45,0.64 0.83,0.64 1.07,0 1.61,0.41 1.61,1.24 0,0.42 -0.07,0.99 -0.2,1.71 -0.73,3.96 -1.09,6.75 -1.09,8.37 0,3.25 0.61,5.19 1.85,5.84 0.59,0.32 0.89,0.71 0.89,1.18 0,0.42 -0.29,0.84 -0.87,1.26 -0.58,0.42 -1.13,0.63 -1.67,0.63 -1.04,0 -1.89,-0.71 -2.56,-2.14 -0.67,-1.42 -1.01,-3.45 -1.01,-6.07zm-1.22 -11.34c-1.77,0 -3.83,1.66 -6.18,4.98 -2.35,3.33 -3.52,6.08 -3.52,8.27 0,1.54 0.51,2.32 1.53,2.32 1.48,0 3.53,-1.49 6.14,-4.47 2.62,-2.98 3.92,-5.72 3.92,-8.21 0,-1.92 -0.63,-2.88 -1.89,-2.88zm46.42 8.27c-0.92,0.71 -2.07,1.36 -3.46,1.95 -1.39,0.59 -2.44,0.89 -3.18,0.89 -1,0 -1.92,-0.38 -2.78,-1.13 -0.86,-0.76 -1.28,-1.56 -1.28,-2.4 0,-2.01 0.97,-4.25 2.92,-6.73 1.94,-2.47 3.63,-3.7 5.07,-3.7 1.77,0 3.04,0.39 3.83,1.15 0.17,0.12 0.26,0.33 0.26,0.63 0,0.2 -0.01,0.43 -0.03,0.69 -0.02,0.25 0.1,0.38 0.36,0.38 0.12,0 0.28,-0.05 0.48,-0.16 0.2,-0.11 0.37,-0.17 0.5,-0.17 0.75,0 1.13,0.36 1.13,1.07 0,0.17 -0.21,0.79 -0.65,1.85 -0.41,0.98 -0.67,1.64 -0.77,1.99 -0.1,0.34 -0.15,0.82 -0.15,1.44 0,0.6 0.45,0.91 1.35,0.91 1.23,0 2.35,-0.64 3.39,-1.91 1.04,-1.28 1.56,-2.53 1.56,-3.76 0,-1.22 -0.52,-2.85 -1.53,-4.87 -1.02,-2.03 -2.27,-3.45 -3.75,-4.26 -1.48,-0.81 -2.64,-1.22 -3.5,-1.22 -1.55,0 -3.61,1.04 -6.15,3.13 -2.54,2.08 -4.77,4.79 -6.7,8.12 -1.93,3.32 -2.89,5.7 -2.89,7.12 0,1.92 1.17,3.68 3.5,5.29 2.32,1.62 5.04,2.42 8.16,2.42 1.61,0 3.73,-0.38 6.37,-1.14 2.64,-0.76 4.71,-1.73 6.21,-2.93 0.55,-0.44 0.88,-0.67 0.98,-0.67 0.21,0 0.44,0.1 0.71,0.28 0.27,0.19 0.4,0.36 0.4,0.53 0,1.02 -0.25,1.8 -0.77,2.35 -0.52,0.55 -1.44,1.1 -2.77,1.64 -1.33,0.54 -3.25,1.07 -5.76,1.59 -2.51,0.51 -4.77,0.77 -6.77,0.77 -3.24,0 -6.23,-0.93 -8.95,-2.82 -2.73,-1.88 -4.09,-4.31 -4.09,-7.28 0,-2.11 1.12,-5.05 3.35,-8.82 2.23,-3.76 4.77,-6.71 7.62,-8.82 2.84,-2.12 5.29,-3.18 7.34,-3.18 3.3,0 6.01,1.39 8.14,4.16 2.13,2.78 3.19,5.58 3.19,8.42 0,1.79 -0.47,3.49 -1.41,5.12 -0.93,1.62 -2.15,2.69 -3.63,3.19 -1.48,0.5 -2.36,0.76 -2.63,0.76 -1.22,0 -2.3,-0.62 -3.22,-1.86zm-1.26 -8.45c-1.62,0.07 -3.08,1.08 -4.38,2.99 -1.3,1.92 -1.94,3.28 -1.94,4.09 0,0.53 0.14,0.91 0.41,1.13 0.28,0.21 0.87,0.32 1.78,0.32 0.62,0 1.53,-0.36 2.75,-1.08 1.22,-0.71 1.82,-1.35 1.82,-1.88 0,-0.14 -0.03,-0.67 -0.1,-1.59 -0.04,-0.6 0.1,-1.23 0.42,-1.88 0.31,-0.59 0.47,-0.89 0.47,-0.92 0,-0.16 -0.41,-0.56 -1.23,-1.19zm39.46 19.84c-1.84,0 -3.35,-0.69 -4.55,-2.09 -1.2,-1.39 -1.79,-3.12 -1.79,-5.17 0,-3.46 1.17,-6.88 3.5,-10.24 2.32,-3.36 5.11,-5.04 8.36,-5.04 2.15,0 3.89,0.83 5.22,2.48 1.33,1.65 2.01,3.61 2.01,5.9 0,3.49 -1.38,6.72 -4.14,9.7 -2.76,2.98 -5.63,4.47 -8.61,4.47zm-2.8 -7.79c0,1.35 0.28,2.46 0.85,3.32 0.57,0.86 1.33,1.29 2.27,1.29 2,0 4,-1.1 6.02,-3.29 2.01,-2.2 3.02,-4.64 3.02,-7.32 0,-1.65 -0.39,-2.99 -1.15,-4.02 -0.77,-1.02 -1.81,-1.54 -3.11,-1.54 -2.16,0 -4.01,1.33 -5.56,3.98 -1.55,2.65 -2.32,5.17 -2.32,7.58zm34.44 -1.97c-1.72,2.88 -3.48,5.12 -5.28,6.7 -1.79,1.59 -3.46,2.38 -5.01,2.38 -0.89,0 -1.79,-0.51 -2.71,-1.55 -0.92,-1.03 -1.38,-2.63 -1.38,-4.77 0,-1.76 0.42,-4.35 1.27,-7.77 0.71,-2.86 1.06,-4.86 1.06,-6.02 0.39,-0.8 1,-1.21 1.84,-1.21 0.56,0 1.01,0.2 1.35,0.6 0.34,0.39 0.5,0.8 0.5,1.24 0,0.94 -0.33,2.28 -0.98,4.01 -1.25,3.37 -1.88,6.26 -1.88,8.68 0,2.2 0.51,3.3 1.53,3.3 1.3,0 2.96,-1.11 4.97,-3.32 2.01,-2.22 3.74,-5.3 5.17,-9.26 0.56,-1.58 1.02,-2.61 1.38,-3.09 0.36,-0.47 0.84,-0.72 1.44,-0.72 0.91,0 1.37,0.61 1.37,1.81 0,0.14 -0.13,0.64 -0.39,1.47 -0.8,2.94 -1.21,5.72 -1.21,8.34 0,3.14 0.52,5.17 1.55,6.09 0.54,0.5 0.8,0.9 0.8,1.21 0,0.38 -0.27,0.72 -0.82,1.03 -0.54,0.31 -1.03,0.46 -1.48,0.46 -0.94,0 -1.7,-0.7 -2.28,-2.1 -0.58,-1.39 -0.87,-3.45 -0.87,-6.18l0 -0.67c0,-0.21 0.01,-0.43 0.02,-0.66zm19.12 -11.56c1.38,-0.11 2.69,-0.23 3.9,-0.38 1.21,-0.13 2.22,-0.2 3.02,-0.2 1.02,0 1.67,0.1 1.93,0.28 0.27,0.19 0.41,0.52 0.41,0.99 0,1.09 -0.76,1.68 -2.27,1.77 -1.95,0.12 -3.74,0.29 -5.38,0.51 -1.64,0.21 -2.51,0.39 -2.64,0.53 -0.12,0.14 -0.53,1.74 -1.22,4.79 -0.69,3.06 -1.03,5.04 -1.03,5.95 0,1.48 0.2,2.46 0.58,2.95 0.39,0.49 0.98,0.74 1.75,0.74 1.15,0 2.76,-0.87 4.82,-2.6 0.79,-0.71 1.4,-1.06 1.83,-1.06 0.58,0 0.86,0.31 0.86,0.93 0,0.97 -0.93,2.22 -2.79,3.75 -1.86,1.54 -3.76,2.31 -5.7,2.31 -3.25,0 -4.87,-1.92 -4.87,-5.74 0,-1.38 0.34,-3.53 1,-6.42 0.66,-2.89 0.99,-4.62 0.99,-5.19 0,-0.2 -0.16,-0.3 -0.48,-0.3l-2.09 0.18c-1.72,0 -2.58,-0.69 -2.58,-2.05 0,-0.78 0.39,-1.17 1.19,-1.17l4.14 0c0.28,0 0.53,-0.13 0.75,-0.39 0.21,-0.25 0.53,-1.1 0.94,-2.56 0.42,-1.46 0.79,-2.9 1.11,-4.32 0.32,-1.41 0.95,-2.11 1.9,-2.11 0.58,0 1.02,0.2 1.35,0.6 0.32,0.4 0.48,0.78 0.48,1.13 0,0.18 -0.24,1.15 -0.72,2.88l-1.17 4.23zm19.26 -13.77c0.97,0 1.45,0.62 1.45,1.86 0,1.1 -0.58,3.72 -1.75,7.85 -0.74,2.6 -1.31,5.48 -1.71,8.62 -0.41,3.14 -0.6,5.6 -0.6,7.39 0,2.21 0.14,4.42 0.43,6.6 0.05,0.42 0.08,0.72 0.08,0.91 0,0.67 -0.23,1.25 -0.68,1.73 -0.46,0.48 -0.94,0.72 -1.45,0.72 -0.71,0 -1.2,-0.44 -1.48,-1.33 -0.28,-0.89 -0.41,-2.32 -0.41,-4.29 0,-4.49 0.54,-10.06 1.62,-16.71 1.08,-6.64 1.94,-10.53 2.58,-11.65 0.64,-1.13 1.28,-1.69 1.94,-1.69zm10.63 35.08c-1.84,0 -3.35,-0.69 -4.55,-2.09 -1.19,-1.39 -1.79,-3.12 -1.79,-5.17 0,-3.46 1.17,-6.88 3.5,-10.24 2.32,-3.36 5.11,-5.04 8.36,-5.04 2.15,0 3.89,0.83 5.22,2.48 1.33,1.65 2.01,3.61 2.01,5.9 0,3.49 -1.38,6.72 -4.14,9.7 -2.76,2.98 -5.63,4.47 -8.61,4.47zm-2.8 -7.79c0,1.35 0.28,2.46 0.85,3.32 0.57,0.86 1.33,1.29 2.27,1.29 2,0 4.01,-1.1 6.02,-3.29 2.01,-2.2 3.01,-4.64 3.01,-7.32 0,-1.65 -0.38,-2.99 -1.15,-4.02 -0.77,-1.02 -1.81,-1.54 -3.11,-1.54 -2.16,0 -4.01,1.33 -5.57,3.98 -1.55,2.65 -2.32,5.17 -2.32,7.58zm26.11 7.79c-1.84,0 -3.35,-0.69 -4.55,-2.09 -1.19,-1.39 -1.79,-3.12 -1.79,-5.17 0,-3.46 1.17,-6.88 3.5,-10.24 2.32,-3.36 5.11,-5.04 8.36,-5.04 2.15,0 3.89,0.83 5.22,2.48 1.33,1.65 2.01,3.61 2.01,5.9 0,3.49 -1.38,6.72 -4.14,9.7 -2.76,2.98 -5.63,4.47 -8.61,4.47zm-2.8 -7.79c0,1.35 0.28,2.46 0.85,3.32 0.57,0.86 1.33,1.29 2.27,1.29 2,0 4.01,-1.1 6.02,-3.29 2.01,-2.2 3.01,-4.64 3.01,-7.32 0,-1.65 -0.38,-2.99 -1.15,-4.02 -0.77,-1.02 -1.81,-1.54 -3.11,-1.54 -2.16,0 -4.01,1.33 -5.57,3.98 -1.55,2.65 -2.32,5.17 -2.32,7.58zm24.14 -2.62c0.17,-0.23 1.37,-1.31 3.6,-3.24 2.11,-1.84 3.58,-3.17 4.41,-4 3.1,-3.1 5.32,-4.65 6.68,-4.65 1.04,0 1.57,0.51 1.57,1.51 0,1.14 -0.52,1.98 -1.55,2.51 -1.35,0.69 -3.13,1.82 -5.38,3.42 -2.24,1.58 -3.36,2.71 -3.36,3.37 0,0.27 0.79,1.27 2.38,3.01 1.58,1.74 2.95,3.02 4.1,3.84 1.15,0.82 2.28,1.24 3.37,1.24l0.66 -0.02c0.47,-0.03 0.71,0.19 0.71,0.63 0,0.59 -0.37,1.2 -1.11,1.8 -0.74,0.61 -1.71,0.92 -2.92,0.92 -0.78,0 -1.56,-0.27 -2.36,-0.82 -0.8,-0.54 -2.22,-2 -4.26,-4.4 -1.62,-1.97 -2.64,-3.15 -3.04,-3.53 -0.41,-0.39 -0.74,-0.58 -1.01,-0.58 -0.14,0 -0.62,0.35 -1.41,1.05 -0.79,0.69 -1.22,1.22 -1.3,1.59 -0.07,0.37 -0.11,1.75 -0.11,4.15l0 0.94c0,0.5 -0.23,0.94 -0.7,1.33 -0.47,0.39 -0.98,0.58 -1.53,0.58 -0.56,0 -1,-0.16 -1.33,-0.49 -0.33,-0.33 -0.49,-0.67 -0.49,-1.02 0,-0.48 0.18,-1.62 0.54,-3.42 0.51,-2.59 0.98,-6.06 1.41,-10.41 1,-10.27 1.76,-16.07 2.3,-17.42 0.54,-1.35 1.31,-2.03 2.29,-2.03 0.35,0 0.65,0.18 0.88,0.56 0.23,0.38 0.35,0.86 0.35,1.45 0,1.07 -0.46,3.92 -1.39,8.55 -0.93,4.64 -1.59,9.16 -2.01,13.57zm23.37 3.84l0.44 0c0.24,0 0.53,0.12 0.87,0.36 0.34,0.23 0.5,0.55 0.5,0.96 0,0.8 -0.14,1.39 -0.42,1.77 -0.28,0.37 -0.74,0.79 -1.36,1.24 -0.62,0.46 -1.06,0.69 -1.32,0.69 -0.56,0 -0.98,-0.13 -1.25,-0.39 -0.27,-0.25 -0.4,-0.95 -0.4,-2.1 0,-1.06 0.06,-1.69 0.18,-1.89 0.12,-0.2 0.41,-0.36 0.88,-0.47 0.46,-0.11 1.08,-0.17 1.88,-0.17zm12.95 6.71c-2.01,0 -3.57,-0.58 -4.64,-1.73 -1.08,-1.15 -1.62,-2.77 -1.62,-4.85 0,-3.5 1.39,-7.19 4.17,-11.08 2.78,-3.88 5.36,-5.83 7.75,-5.83 1.09,0 2.02,0.58 2.8,1.76 0.79,1.17 1.18,2.42 1.18,3.74 0,0.79 -0.17,1.47 -0.52,2.04 -0.34,0.57 -0.69,0.86 -1.04,0.86 -0.78,0 -1.33,-0.79 -1.65,-2.36 -0.37,-1.69 -0.89,-2.53 -1.57,-2.53 -1.39,0 -3.05,1.65 -4.95,4.97 -1.91,3.32 -2.86,6.11 -2.86,8.4 0,2.28 1.29,3.42 3.88,3.42 1.97,0 4.29,-0.93 6.97,-2.78 0.94,-0.66 1.63,-0.99 2.08,-0.99 0.45,0 0.68,0.26 0.68,0.79 0,1.02 -1.2,2.3 -3.6,3.85 -2.41,1.54 -4.76,2.32 -7.06,2.32zm21.27 -0.14c-1.84,0 -3.35,-0.69 -4.55,-2.09 -1.19,-1.39 -1.79,-3.12 -1.79,-5.17 0,-3.46 1.17,-6.88 3.5,-10.24 2.32,-3.36 5.11,-5.04 8.36,-5.04 2.14,0 3.89,0.83 5.22,2.48 1.33,1.65 2,3.61 2,5.9 0,3.49 -1.38,6.72 -4.14,9.7 -2.76,2.98 -5.63,4.47 -8.61,4.47zm-2.8 -7.79c0,1.35 0.28,2.46 0.85,3.32 0.57,0.86 1.33,1.29 2.27,1.29 2,0 4.01,-1.1 6.02,-3.29 2.01,-2.2 3.01,-4.64 3.01,-7.32 0,-1.65 -0.38,-2.99 -1.15,-4.02 -0.77,-1.02 -1.81,-1.54 -3.11,-1.54 -2.16,0 -4.01,1.33 -5.56,3.98 -1.55,2.65 -2.32,5.17 -2.32,7.58zm35.43 -9.14c-1.25,0.03 -3.92,3.72 -8.01,11.09 -1.39,2.48 -2.19,3.83 -2.42,4.05 -0.23,0.22 -0.65,0.42 -1.26,0.6 -0.61,0.17 -1.12,0.26 -1.52,0.26 -0.9,0 -1.35,-1.75 -1.35,-5.25 0,-1.97 0.43,-5.55 1.27,-10.71 0.35,-2.09 0.52,-3.59 0.52,-4.49 0,-0.89 0.4,-1.33 1.19,-1.33 1.49,0 2.23,1.07 2.23,3.22 0,1.01 -0.25,2.98 -0.74,5.92 -0.58,3.35 -0.87,5.39 -0.89,6.11 0.83,-0.8 2.06,-2.57 3.66,-5.29 2.28,-3.73 3.96,-6.09 5.04,-7.1 1.08,-1 2.2,-1.5 3.35,-1.5 0.87,0 1.57,0.58 2.08,1.75 0.51,1.17 0.83,3.95 0.93,8.36 0.03,1.1 0.13,1.92 0.3,2.45 0.18,0.54 0.3,0.8 0.38,0.8 0.63,0 2,-2.14 4.11,-6.44 1.13,-2.27 2.22,-3.99 3.29,-5.17 1.06,-1.18 2.25,-1.77 3.55,-1.77 1.09,0 1.88,0.56 2.37,1.68 0.5,1.12 0.85,2.78 1.07,4.98 0.2,2.23 0.51,4.27 0.93,6.12 0.42,1.86 1.2,3.04 2.32,3.57 0.77,0.36 1.15,0.78 1.15,1.27 0,0.47 -0.32,0.95 -0.96,1.44 -0.65,0.5 -1.24,0.75 -1.77,0.75 -1.08,0 -2.03,-0.66 -2.88,-1.97 -0.85,-1.32 -1.48,-4.16 -1.91,-8.53 -0.19,-1.76 -0.37,-3.01 -0.55,-3.74 -0.17,-0.74 -0.45,-1.11 -0.83,-1.11 -0.56,0 -1.23,0.54 -2,1.61 -0.78,1.07 -2.02,3.26 -3.74,6.54 -1.34,2.56 -2.36,4.27 -3.05,5.13 -0.69,0.85 -1.35,1.28 -2,1.28 -0.58,0 -1.09,-0.23 -1.55,-0.69 -0.45,-0.47 -0.74,-1.02 -0.87,-1.68 -0.12,-0.64 -0.25,-2.25 -0.38,-4.79 -0.21,-4.24 -0.57,-6.71 -1.1,-7.41z"/>
   <g>
    <polygon class="fil1 str0" points="489.08,5.69 543.61,5.69 543.61,39.27 489.08,39.27 "/>
    <polyline class="fil1 str0" points="489.08,5.69 516.35,25.83 543.62,5.69 "/>
   </g>
  </g>
 </g>
</svg>
