<?xml version="1.0" encoding="UTF-8"?>
<!DOCTYPE svg PUBLIC "-//W3C//DTD SVG 1.1//EN" "http://www.w3.org/Graphics/SVG/1.1/DTD/svg11.dtd">
<!-- Creator: CorelDRAW 2020 -->
<svg xmlns="http://www.w3.org/2000/svg" xml:space="preserve" width="37.2076mm" height="3.2987mm" version="1.1" style="shape-rendering:geometricPrecision; text-rendering:geometricPrecision; image-rendering:optimizeQuality; fill-rule:evenodd; clip-rule:evenodd"
viewBox="0 0 806.83 71.53"
 xmlns:xlink="http://www.w3.org/1999/xlink"
 xmlns:xodm="http://www.corel.com/coreldraw/odm/2003">
 <defs>
  <style type="text/css">
   <![CDATA[
    .str0 {stroke:#C6B93A;stroke-width:7.65;stroke-miterlimit:22.9256}
    .fil1 {fill:none}
    .fil0 {fill:#C6B93A;fill-rule:nonzero}
   ]]>
  </style>
 </defs>
 <g id="Layer_x0020_1">
  <metadata id="CorelCorpID_0Corel-Layer"/>
  <path class="fil0" d="M18.4 45.72c0,-1.3 -1.59,-2.76 -4.77,-4.42 -4.05,-2.08 -6.78,-3.73 -8.21,-4.98 -1.42,-1.24 -2.13,-2.64 -2.13,-4.17 0,-3.97 1.99,-7.25 5.96,-9.86 3.98,-2.61 7.22,-3.92 9.73,-3.92 1.61,0 2.78,0.29 3.51,0.84 0.72,0.56 1.09,1.53 1.09,2.91 0,0.61 -0.27,1.14 -0.8,1.58 -0.52,0.44 -0.94,0.65 -1.23,0.65 -0.23,0 -0.65,-0.14 -1.29,-0.45 -0.64,-0.28 -1.06,-0.42 -1.26,-0.42 -1,0 -3.02,0.74 -6.07,2.18 -3.05,1.46 -4.57,3.1 -4.57,4.94 0,1.11 0.54,2.12 1.61,3.03 1.08,0.91 3.01,2.02 5.79,3.34 2.26,1.07 4.05,2.22 5.4,3.45 1.35,1.22 2.02,2.66 2.02,4.32 0,3.05 -2.1,5.44 -6.3,7.16 -4.2,1.72 -8.22,2.58 -12.05,2.59 -3.22,-0.01 -4.83,-1.1 -4.83,-3.29 0,-0.75 0.36,-1.32 1.09,-1.67 0.72,-0.36 1.46,-0.54 2.19,-0.54 0.3,0 0.87,0.1 1.7,0.31 0.82,0.2 1.36,0.3 1.61,0.3 2.21,0 4.58,-0.37 7.11,-1.1 2.53,-0.75 4.1,-1.66 4.69,-2.75zm16.74 -7.11c0.26,-0.34 2.04,-1.95 5.35,-4.81 3.13,-2.72 5.31,-4.71 6.55,-5.95 4.6,-4.6 7.9,-6.9 9.92,-6.9 1.55,0 2.33,0.75 2.33,2.24 0,1.69 -0.77,2.94 -2.3,3.73 -2,1.02 -4.65,2.7 -7.99,5.07 -3.32,2.35 -4.99,4.03 -4.99,5.01 0,0.4 1.17,1.89 3.53,4.47 2.35,2.58 4.38,4.48 6.09,5.7 1.71,1.22 3.38,1.83 5,1.83l0.98 -0.03c0.7,-0.04 1.05,0.28 1.05,0.93 0,0.88 -0.55,1.78 -1.64,2.67 -1.1,0.91 -2.54,1.37 -4.33,1.37 -1.15,0 -2.32,-0.41 -3.51,-1.21 -1.18,-0.8 -3.29,-2.98 -6.32,-6.53 -2.41,-2.93 -3.92,-4.68 -4.51,-5.24 -0.6,-0.57 -1.1,-0.86 -1.5,-0.86 -0.21,0 -0.92,0.52 -2.09,1.56 -1.17,1.03 -1.82,1.82 -1.93,2.35 -0.1,0.54 -0.16,2.59 -0.16,6.16l0 1.4c0,0.74 -0.35,1.4 -1.04,1.98 -0.7,0.57 -1.46,0.87 -2.27,0.87 -0.83,0 -1.49,-0.25 -1.97,-0.74 -0.48,-0.49 -0.72,-0.99 -0.72,-1.51 0,-0.71 0.28,-2.41 0.8,-5.08 0.77,-3.84 1.46,-9 2.09,-15.45 1.48,-15.24 2.61,-23.86 3.41,-25.86 0.81,-2.01 1.94,-3.01 3.41,-3.01 0.52,0 0.96,0.28 1.31,0.84 0.34,0.56 0.52,1.28 0.52,2.15 0,1.59 -0.68,5.82 -2.06,12.7 -1.38,6.89 -2.37,13.6 -2.99,20.14zm45.7 -5.5l2.18 0c3.7,0 6.46,-0.13 8.27,-0.39 0.88,-0.12 1.75,-0.18 2.63,-0.18 0.38,0 1.15,0.23 2.31,0.68 1.16,0.46 1.86,0.85 2.08,1.15 0.21,0.32 0.33,0.72 0.33,1.24 0,0.74 -0.15,1.26 -0.45,1.55 -0.3,0.3 -0.95,0.45 -1.95,0.45 -0.44,0 -1.05,-0.13 -1.85,-0.39 -0.8,-0.25 -1.47,-0.39 -2.01,-0.39 -0.21,0 -0.94,0.05 -2.17,0.15 -0.66,0.05 -1.86,0.01 -3.59,-0.15 -1.34,-0.12 -2.33,-0.18 -2.99,-0.18 -0.92,0 -2.31,0.06 -4.15,0.18 -1.86,0.12 -3.25,0.18 -4.21,0.18 -0.96,0 -1.73,-0.11 -2.31,-0.31 -0.59,-0.21 -0.89,-0.69 -0.89,-1.42 0,-0.33 0.13,-0.69 0.41,-1.12 0.26,-0.43 1.18,-0.76 2.73,-1.02 1.55,-0.25 2.67,-0.38 3.35,-0.38l2.27 0.34zm32.27 -28.86l0.09 0c0.56,0 1.4,0.19 2.51,0.59 1.11,0.4 1.85,0.73 2.19,1 0.35,0.28 0.53,0.72 0.53,1.37 0,1.23 -0.57,2.32 -1.7,3.24 -1.14,0.92 -1.99,1.39 -2.54,1.39 -0.96,0 -1.8,-0.42 -2.52,-1.25 -0.71,-0.84 -1.07,-1.67 -1.07,-2.51 0,-2.15 0.84,-3.43 2.51,-3.83zm-12.1 67.29c-2.38,0 -4.67,-0.99 -6.9,-2.97 -2.22,-1.98 -3.32,-3.69 -3.32,-5.13 0,-0.4 0.13,-0.78 0.42,-1.17 0.28,-0.39 0.48,-0.58 0.62,-0.58 0.14,0 0.45,0.19 0.93,0.59 3.13,2.75 5.65,4.12 7.56,4.12 1.57,0 2.93,-0.74 4.07,-2.25 1.13,-1.5 1.95,-4.3 2.45,-8.36 0.5,-4.07 0.97,-10.4 1.4,-18.99 0.31,-6.19 0.57,-10.13 0.8,-11.8 0.23,-1.67 0.7,-2.85 1.42,-3.51 0.72,-0.67 1.63,-1.01 2.75,-1.01 0.57,0 1.12,0.22 1.63,0.67 0.5,0.45 0.75,1 0.75,1.63 0,0.36 -0.07,0.85 -0.2,1.47 -1.46,6.29 -2.41,14.49 -2.85,24.59 -0.28,6.09 -0.85,10.61 -1.7,13.54 -0.86,2.93 -2.17,5.19 -3.96,6.78 -1.78,1.59 -3.73,2.39 -5.86,2.39zm32.21 -17.48c-2.72,0 -4.98,-1.03 -6.75,-3.1 -1.77,-2.07 -2.66,-4.63 -2.66,-7.68 0,-5.14 1.73,-10.21 5.19,-15.2 3.45,-4.99 7.59,-7.49 12.41,-7.49 3.18,0 5.77,1.22 7.75,3.68 1.98,2.45 2.98,5.36 2.98,8.75 0,5.18 -2.05,9.97 -6.14,14.4 -4.1,4.43 -8.36,6.63 -12.78,6.63zm-4.15 -11.56c0,2.01 0.42,3.65 1.26,4.93 0.85,1.28 1.97,1.92 3.37,1.92 2.97,0 5.95,-1.63 8.94,-4.89 2.99,-3.27 4.48,-6.88 4.48,-10.86 0,-2.46 -0.57,-4.44 -1.71,-5.97 -1.14,-1.52 -2.68,-2.29 -4.62,-2.29 -3.2,0 -5.95,1.97 -8.26,5.9 -2.3,3.93 -3.45,7.68 -3.45,11.25zm35.51 -6.93c2.55,-4.64 5.6,-8.4 9.14,-11.28 3.55,-2.88 6.74,-4.32 9.6,-4.32 1.57,0 2.91,0.72 4,2.18 1.1,1.45 1.64,3.22 1.64,5.31 0,6.19 -2.34,12 -7.01,17.44 -4.67,5.43 -9.6,8.14 -14.8,8.14 -1.42,0 -2.71,-0.39 -3.91,-1.15 -1.18,-0.77 -1.85,-1.72 -1.98,-2.89 -0.08,-0.93 -0.36,-1.63 -0.81,-2.09 -0.86,-0.86 -1.28,-1.77 -1.28,-2.74 0,-1.82 0.49,-5.69 1.49,-11.63l3.08 -17.87c1.05,-6 1.83,-9.7 2.32,-11.12 0.49,-1.41 1.03,-2.36 1.63,-2.84 0.59,-0.48 1.33,-0.71 2.2,-0.71 1.4,0 2.09,1.2 2.09,3.61 0,2.29 -0.76,5.5 -2.29,9.63 -1.48,3.96 -3.18,11.4 -5.11,22.32zm-0.72 9.96c1.04,1.93 2.29,2.9 3.77,2.9 2.26,0 4.67,-0.95 7.2,-2.83 2.53,-1.89 4.71,-4.53 6.56,-7.95 1.84,-3.42 2.76,-6.3 2.76,-8.66 0,-1.05 -0.19,-1.96 -0.57,-2.71 -0.38,-0.75 -0.86,-1.14 -1.44,-1.14 -2.76,0 -6.15,2.27 -10.14,6.8 -4,4.53 -6.71,9.06 -8.15,13.59zm51.01 -3.83c-2.78,3.74 -5.55,6.55 -8.27,8.42 -2.73,1.87 -5.23,2.81 -7.51,2.81 -1.53,0 -2.86,-0.64 -3.97,-1.94 -1.12,-1.29 -1.67,-2.96 -1.67,-5 0,-5.23 2.34,-10.87 7.02,-16.92 4.68,-6.05 9.33,-9.07 13.95,-9.07 1.67,0 2.92,0.95 3.74,2.87 0.25,0.63 0.66,0.96 1.22,0.96 1.59,0 2.39,0.61 2.39,1.85 0,0.62 -0.1,1.47 -0.3,2.54 -1.08,5.87 -1.61,10.02 -1.61,12.43 0,4.82 0.91,7.71 2.75,8.67 0.88,0.48 1.31,1.06 1.31,1.75 0,0.62 -0.43,1.24 -1.28,1.88 -0.86,0.62 -1.68,0.94 -2.48,0.94 -1.54,0 -2.81,-1.06 -3.79,-3.17 -1,-2.11 -1.5,-5.12 -1.5,-9.02zm-1.82 -16.83c-2.63,0 -5.69,2.47 -9.18,7.39 -3.49,4.94 -5.23,9.03 -5.23,12.27 0,2.28 0.77,3.44 2.27,3.44 2.19,0 5.23,-2.21 9.12,-6.64 3.89,-4.42 5.82,-8.49 5.82,-12.19 0,-2.85 -0.94,-4.27 -2.81,-4.27zm68.92 12.28c-1.37,1.06 -3.08,2.02 -5.13,2.9 -2.06,0.88 -3.63,1.32 -4.72,1.32 -1.48,0 -2.86,-0.56 -4.13,-1.68 -1.28,-1.13 -1.91,-2.32 -1.91,-3.57 0,-2.99 1.44,-6.31 4.33,-9.99 2.89,-3.66 5.4,-5.5 7.53,-5.5 2.63,0 4.52,0.57 5.68,1.7 0.26,0.18 0.39,0.49 0.39,0.93 0,0.29 -0.02,0.63 -0.05,1.02 -0.03,0.38 0.14,0.56 0.53,0.56 0.17,0 0.42,-0.08 0.71,-0.23 0.3,-0.16 0.55,-0.25 0.75,-0.25 1.11,0 1.67,0.53 1.67,1.59 0,0.26 -0.32,1.17 -0.96,2.75 -0.61,1.46 -1,2.44 -1.14,2.95 -0.15,0.51 -0.22,1.21 -0.22,2.13 0,0.9 0.66,1.35 2,1.35 1.82,0 3.49,-0.95 5.04,-2.84 1.54,-1.9 2.32,-3.75 2.32,-5.59 0,-1.82 -0.77,-4.22 -2.27,-7.23 -1.51,-3.01 -3.37,-5.12 -5.56,-6.32 -2.19,-1.2 -3.92,-1.81 -5.2,-1.81 -2.31,0 -5.36,1.55 -9.13,4.65 -3.78,3.09 -7.09,7.11 -9.94,12.06 -2.87,4.94 -4.3,8.47 -4.3,10.58 0,2.85 1.73,5.47 5.19,7.85 3.45,2.4 7.49,3.59 12.12,3.59 2.39,0 5.54,-0.56 9.45,-1.69 3.92,-1.12 6.99,-2.57 9.22,-4.35 0.82,-0.65 1.31,-0.99 1.46,-0.99 0.31,0 0.65,0.14 1.05,0.42 0.4,0.29 0.59,0.54 0.59,0.78 0,1.51 -0.38,2.67 -1.14,3.49 -0.77,0.82 -2.14,1.63 -4.11,2.44 -1.98,0.81 -4.82,1.59 -8.55,2.37 -3.72,0.77 -7.08,1.14 -10.05,1.14 -4.81,0 -9.25,-1.39 -13.29,-4.18 -4.05,-2.78 -6.07,-6.39 -6.07,-10.81 0,-3.13 1.66,-7.5 4.98,-13.1 3.31,-5.59 7.09,-9.96 11.31,-13.1 4.22,-3.14 7.85,-4.71 10.9,-4.71 4.9,0 8.93,2.06 12.09,6.17 3.16,4.12 4.73,8.28 4.73,12.51 0,2.65 -0.69,5.18 -2.09,7.6 -1.39,2.41 -3.19,3.99 -5.38,4.73 -2.2,0.74 -3.51,1.12 -3.91,1.12 -1.82,0 -3.41,-0.92 -4.78,-2.75zm-1.88 -12.54c-2.41,0.11 -4.58,1.6 -6.5,4.45 -1.93,2.86 -2.89,4.88 -2.89,6.07 0,0.8 0.2,1.36 0.61,1.67 0.41,0.32 1.28,0.48 2.64,0.48 0.92,0 2.27,-0.53 4.08,-1.6 1.81,-1.06 2.7,-2 2.7,-2.8 0,-0.21 -0.05,-1 -0.14,-2.35 -0.06,-0.9 0.14,-1.83 0.62,-2.78 0.46,-0.88 0.69,-1.33 0.69,-1.37 0,-0.25 -0.61,-0.83 -1.83,-1.76zm58.59 29.46c-2.72,0 -4.98,-1.03 -6.75,-3.1 -1.77,-2.07 -2.66,-4.63 -2.66,-7.68 0,-5.14 1.73,-10.21 5.19,-15.2 3.45,-4.99 7.59,-7.49 12.41,-7.49 3.18,0 5.77,1.22 7.75,3.68 1.98,2.45 2.98,5.36 2.98,8.75 0,5.18 -2.05,9.97 -6.14,14.4 -4.1,4.43 -8.36,6.63 -12.78,6.63zm-4.15 -11.56c0,2.01 0.42,3.65 1.26,4.93 0.85,1.28 1.97,1.92 3.37,1.92 2.97,0 5.95,-1.63 8.94,-4.89 2.99,-3.27 4.48,-6.88 4.48,-10.86 0,-2.46 -0.57,-4.44 -1.71,-5.97 -1.14,-1.52 -2.68,-2.29 -4.62,-2.29 -3.2,0 -5.95,1.97 -8.26,5.9 -2.3,3.93 -3.45,7.68 -3.45,11.25zm51.13 -2.93c-2.55,4.27 -5.16,7.6 -7.83,9.94 -2.66,2.35 -5.14,3.53 -7.44,3.53 -1.32,0 -2.65,-0.77 -4.02,-2.31 -1.37,-1.53 -2.05,-3.9 -2.05,-7.08 0,-2.61 0.63,-6.46 1.89,-11.54 1.05,-4.24 1.58,-7.22 1.58,-8.94 0.58,-1.19 1.49,-1.79 2.72,-1.79 0.83,0 1.5,0.29 2,0.89 0.5,0.58 0.74,1.19 0.74,1.83 0,1.4 -0.49,3.38 -1.46,5.95 -1.86,5 -2.78,9.29 -2.78,12.88 0,3.27 0.75,4.9 2.27,4.9 1.93,0 4.4,-1.64 7.37,-4.93 2.99,-3.29 5.55,-7.87 7.68,-13.75 0.83,-2.35 1.52,-3.88 2.05,-4.59 0.53,-0.7 1.24,-1.06 2.14,-1.06 1.35,0 2.03,0.9 2.03,2.69 0,0.21 -0.19,0.95 -0.57,2.18 -1.19,4.37 -1.8,8.49 -1.8,12.37 0,4.66 0.77,7.68 2.31,9.05 0.8,0.74 1.19,1.34 1.19,1.8 0,0.56 -0.4,1.07 -1.21,1.53 -0.8,0.46 -1.53,0.69 -2.19,0.69 -1.4,0 -2.52,-1.04 -3.38,-3.11 -0.86,-2.07 -1.28,-5.13 -1.28,-9.17l0 -0.99c0,-0.32 0.01,-0.64 0.03,-0.98zm28.39 -17.16c2.05,-0.16 3.99,-0.35 5.79,-0.57 1.8,-0.2 3.29,-0.3 4.49,-0.3 1.51,0 2.47,0.14 2.87,0.42 0.4,0.28 0.6,0.77 0.6,1.47 0,1.61 -1.13,2.49 -3.38,2.62 -2.9,0.18 -5.55,0.43 -7.99,0.75 -2.43,0.32 -3.73,0.58 -3.93,0.78 -0.18,0.21 -0.78,2.58 -1.81,7.11 -1.02,4.54 -1.53,7.48 -1.53,8.83 0,2.19 0.29,3.65 0.87,4.38 0.58,0.74 1.45,1.09 2.6,1.09 1.71,0 4.1,-1.28 7.15,-3.86 1.17,-1.05 2.08,-1.58 2.71,-1.58 0.86,0 1.28,0.46 1.28,1.38 0,1.44 -1.38,3.3 -4.14,5.57 -2.75,2.28 -5.58,3.43 -8.47,3.43 -4.82,0 -7.23,-2.85 -7.23,-8.52 0,-2.05 0.5,-5.23 1.49,-9.53 0.98,-4.28 1.47,-6.85 1.47,-7.71 0,-0.3 -0.25,-0.45 -0.72,-0.45l-3.11 0.28c-2.55,0 -3.83,-1.02 -3.83,-3.05 0,-1.15 0.58,-1.73 1.77,-1.73l6.15 0c0.42,0 0.78,-0.2 1.11,-0.57 0.31,-0.38 0.78,-1.64 1.4,-3.8 0.62,-2.16 1.17,-4.3 1.64,-6.42 0.48,-2.09 1.42,-3.13 2.82,-3.13 0.86,0 1.52,0.29 2,0.9 0.48,0.59 0.72,1.15 0.72,1.67 0,0.28 -0.36,1.7 -1.07,4.27l-1.73 6.27zm28.6 -20.44c1.44,0 2.15,0.92 2.15,2.75 0,1.63 -0.87,5.52 -2.6,11.65 -1.09,3.87 -1.94,8.13 -2.54,12.79 -0.6,4.66 -0.9,8.31 -0.9,10.96 0,3.29 0.21,6.56 0.63,9.8 0.08,0.62 0.11,1.07 0.11,1.35 0,1 -0.34,1.86 -1.01,2.57 -0.68,0.71 -1.4,1.07 -2.15,1.07 -1.06,0 -1.78,-0.65 -2.19,-1.97 -0.41,-1.32 -0.61,-3.44 -0.61,-6.36 0,-6.67 0.8,-14.94 2.4,-24.81 1.61,-9.85 2.89,-15.63 3.83,-17.3 0.95,-1.67 1.91,-2.51 2.89,-2.51zm15.78 52.08c-2.72,0 -4.98,-1.03 -6.75,-3.1 -1.77,-2.07 -2.66,-4.63 -2.66,-7.68 0,-5.14 1.73,-10.21 5.19,-15.2 3.45,-4.99 7.59,-7.49 12.41,-7.49 3.18,0 5.77,1.22 7.75,3.68 1.98,2.45 2.98,5.36 2.98,8.75 0,5.18 -2.05,9.97 -6.14,14.4 -4.1,4.43 -8.36,6.63 -12.78,6.63zm-4.15 -11.56c0,2.01 0.42,3.65 1.26,4.93 0.85,1.28 1.97,1.92 3.37,1.92 2.97,0 5.95,-1.63 8.94,-4.89 2.99,-3.27 4.48,-6.88 4.48,-10.86 0,-2.46 -0.57,-4.44 -1.71,-5.97 -1.14,-1.52 -2.68,-2.29 -4.62,-2.29 -3.2,0 -5.95,1.97 -8.26,5.9 -2.3,3.93 -3.45,7.68 -3.45,11.25zm38.76 11.56c-2.72,0 -4.98,-1.03 -6.75,-3.1 -1.77,-2.07 -2.66,-4.63 -2.66,-7.68 0,-5.14 1.73,-10.21 5.19,-15.2 3.45,-4.99 7.59,-7.49 12.41,-7.49 3.18,0 5.77,1.22 7.75,3.68 1.98,2.45 2.98,5.36 2.98,8.75 0,5.18 -2.05,9.97 -6.14,14.4 -4.1,4.43 -8.36,6.63 -12.78,6.63zm-4.15 -11.56c0,2.01 0.42,3.65 1.26,4.93 0.85,1.28 1.97,1.92 3.37,1.92 2.97,0 5.95,-1.63 8.94,-4.89 2.99,-3.27 4.48,-6.88 4.48,-10.86 0,-2.46 -0.57,-4.44 -1.71,-5.97 -1.14,-1.52 -2.68,-2.29 -4.62,-2.29 -3.2,0 -5.95,1.97 -8.26,5.9 -2.3,3.93 -3.45,7.68 -3.45,11.25zm35.83 -3.89c0.26,-0.34 2.04,-1.95 5.35,-4.81 3.13,-2.72 5.31,-4.71 6.55,-5.95 4.6,-4.6 7.9,-6.9 9.92,-6.9 1.55,0 2.33,0.75 2.33,2.24 0,1.69 -0.77,2.94 -2.3,3.73 -2,1.02 -4.65,2.7 -7.99,5.07 -3.32,2.35 -4.99,4.03 -4.99,5.01 0,0.4 1.17,1.89 3.53,4.47 2.35,2.58 4.38,4.48 6.09,5.7 1.71,1.22 3.38,1.83 5,1.83l0.98 -0.03c0.7,-0.04 1.05,0.28 1.05,0.93 0,0.88 -0.55,1.78 -1.64,2.67 -1.1,0.91 -2.54,1.37 -4.33,1.37 -1.15,0 -2.32,-0.41 -3.51,-1.21 -1.18,-0.8 -3.29,-2.98 -6.32,-6.53 -2.41,-2.93 -3.92,-4.68 -4.51,-5.24 -0.6,-0.57 -1.1,-0.86 -1.5,-0.86 -0.21,0 -0.92,0.52 -2.09,1.56 -1.17,1.03 -1.82,1.82 -1.93,2.35 -0.1,0.54 -0.16,2.59 -0.16,6.16l0 1.4c0,0.74 -0.35,1.4 -1.04,1.98 -0.7,0.57 -1.46,0.87 -2.27,0.87 -0.83,0 -1.49,-0.25 -1.97,-0.74 -0.48,-0.49 -0.72,-0.99 -0.72,-1.51 0,-0.71 0.28,-2.41 0.8,-5.08 0.77,-3.84 1.46,-9 2.09,-15.45 1.48,-15.24 2.61,-23.86 3.41,-25.86 0.81,-2.01 1.94,-3.01 3.41,-3.01 0.52,0 0.96,0.28 1.31,0.84 0.34,0.56 0.52,1.28 0.52,2.15 0,1.59 -0.68,5.82 -2.06,12.7 -1.38,6.89 -2.37,13.6 -2.99,20.14zm34.7 5.7l0.65 0c0.36,0 0.79,0.17 1.29,0.53 0.5,0.35 0.74,0.82 0.74,1.42 0,1.19 -0.2,2.07 -0.62,2.63 -0.42,0.55 -1.09,1.17 -2.02,1.85 -0.93,0.68 -1.58,1.02 -1.96,1.02 -0.84,0 -1.46,-0.19 -1.86,-0.57 -0.4,-0.38 -0.59,-1.41 -0.59,-3.11 0,-1.57 0.09,-2.51 0.27,-2.8 0.18,-0.3 0.61,-0.53 1.31,-0.7 0.68,-0.16 1.61,-0.25 2.79,-0.25zm19.22 9.96c-2.99,0 -5.29,-0.86 -6.89,-2.57 -1.6,-1.71 -2.41,-4.11 -2.41,-7.2 0,-5.2 2.06,-10.68 6.19,-16.45 4.12,-5.76 7.96,-8.65 11.5,-8.65 1.61,0 3,0.87 4.16,2.61 1.17,1.74 1.75,3.59 1.75,5.55 0,1.17 -0.26,2.18 -0.77,3.03 -0.51,0.85 -1.02,1.28 -1.54,1.28 -1.15,0 -1.97,-1.17 -2.45,-3.5 -0.54,-2.51 -1.32,-3.76 -2.34,-3.76 -2.07,0 -4.52,2.46 -7.34,7.37 -2.84,4.93 -4.24,9.08 -4.24,12.46 0,3.39 1.92,5.08 5.76,5.08 2.93,0 6.38,-1.38 10.34,-4.12 1.4,-0.98 2.42,-1.47 3.08,-1.47 0.67,0 1.01,0.39 1.01,1.17 0,1.51 -1.78,3.42 -5.34,5.72 -3.57,2.29 -7.07,3.45 -10.49,3.45zm31.58 -0.21c-2.72,0 -4.98,-1.03 -6.75,-3.1 -1.77,-2.07 -2.66,-4.63 -2.66,-7.68 0,-5.14 1.73,-10.21 5.19,-15.2 3.45,-4.99 7.59,-7.49 12.41,-7.49 3.18,0 5.77,1.22 7.75,3.68 1.98,2.45 2.98,5.36 2.98,8.75 0,5.18 -2.05,9.97 -6.14,14.4 -4.1,4.43 -8.36,6.63 -12.78,6.63zm-4.15 -11.56c0,2.01 0.42,3.65 1.26,4.93 0.85,1.28 1.97,1.92 3.37,1.92 2.97,0 5.95,-1.63 8.94,-4.89 2.99,-3.27 4.48,-6.88 4.48,-10.86 0,-2.46 -0.57,-4.44 -1.71,-5.97 -1.14,-1.52 -2.68,-2.29 -4.62,-2.29 -3.2,0 -5.95,1.97 -8.26,5.9 -2.3,3.93 -3.45,7.68 -3.45,11.25zm52.6 -13.56c-1.86,0.04 -5.82,5.53 -11.89,16.46 -2.06,3.68 -3.25,5.69 -3.59,6.02 -0.34,0.33 -0.96,0.62 -1.87,0.89 -0.91,0.25 -1.66,0.39 -2.26,0.39 -1.34,0 -2.01,-2.6 -2.01,-7.8 0,-2.93 0.63,-8.23 1.89,-15.9 0.52,-3.1 0.78,-5.32 0.78,-6.66 0,-1.32 0.59,-1.97 1.76,-1.97 2.21,0 3.32,1.59 3.32,4.77 0,1.5 -0.37,4.43 -1.1,8.79 -0.86,4.98 -1.29,8.01 -1.32,9.08 1.23,-1.19 3.05,-3.81 5.44,-7.85 3.39,-5.54 5.89,-9.05 7.49,-10.54 1.6,-1.48 3.26,-2.22 4.98,-2.22 1.29,0 2.33,0.87 3.09,2.6 0.77,1.73 1.23,5.87 1.39,12.4 0.04,1.63 0.19,2.85 0.45,3.64 0.26,0.8 0.45,1.19 0.57,1.19 0.94,0 2.97,-3.18 6.1,-9.56 1.67,-3.37 3.29,-5.93 4.89,-7.68 1.58,-1.75 3.34,-2.63 5.27,-2.63 1.61,0 2.78,0.83 3.52,2.5 0.74,1.66 1.26,4.12 1.59,7.39 0.29,3.3 0.75,6.33 1.39,9.08 0.62,2.75 1.78,4.52 3.45,5.29 1.14,0.54 1.7,1.16 1.7,1.89 0,0.69 -0.48,1.41 -1.43,2.14 -0.96,0.74 -1.84,1.11 -2.63,1.11 -1.6,0 -3.02,-0.98 -4.27,-2.93 -1.26,-1.96 -2.2,-6.18 -2.84,-12.67 -0.29,-2.61 -0.55,-4.47 -0.82,-5.56 -0.26,-1.1 -0.66,-1.65 -1.23,-1.65 -0.83,0 -1.83,0.81 -2.97,2.4 -1.15,1.59 -3,4.84 -5.55,9.71 -1.99,3.81 -3.5,6.34 -4.53,7.61 -1.02,1.26 -2.01,1.9 -2.97,1.9 -0.86,0 -1.62,-0.35 -2.31,-1.03 -0.67,-0.69 -1.1,-1.52 -1.29,-2.49 -0.17,-0.96 -0.37,-3.34 -0.56,-7.12 -0.31,-6.29 -0.85,-9.96 -1.64,-10.99z"/>
  <g id="_955350248">
   <polygon class="fil1 str0" points="734.5,14.42 803.01,14.42 803.01,56.59 734.5,56.59 "/>
   <polyline class="fil1 str0" points="734.5,14.42 768.76,39.72 803.01,14.42 "/>
  </g>
 </g>
</svg>
