<?xml version="1.0" encoding="UTF-8"?>
<!DOCTYPE svg PUBLIC "-//W3C//DTD SVG 1.1//EN" "http://www.w3.org/Graphics/SVG/1.1/DTD/svg11.dtd">
<!-- Creator: CorelDRAW 2020 -->
<svg xmlns="http://www.w3.org/2000/svg" xml:space="preserve" width="33.0477mm" height="2.9688mm" version="1.1" style="shape-rendering:geometricPrecision; text-rendering:geometricPrecision; image-rendering:optimizeQuality; fill-rule:evenodd; clip-rule:evenodd"
viewBox="0 0 680.87 61.17"
 xmlns:xlink="http://www.w3.org/1999/xlink"
 xmlns:xodm="http://www.corel.com/coreldraw/odm/2003">
 <defs>
  <style type="text/css">
   <![CDATA[
    .str0 {stroke:#6B470F;stroke-width:6.18;stroke-miterlimit:22.9256}
    .fil1 {fill:none}
    .fil0 {fill:#6B470F;fill-rule:nonzero}
   ]]>
  </style>
 </defs>
 <g id="Layer_x0020_1">
  <metadata id="CorelCorpID_0Corel-Layer"/>
  <g id="_1035934712">
   <path class="fil0" d="M15.73 39.09c0,-1.11 -1.36,-2.36 -4.08,-3.78 -3.47,-1.78 -5.8,-3.19 -7.02,-4.26 -1.21,-1.06 -1.82,-2.26 -1.82,-3.57 0,-3.39 1.7,-6.2 5.09,-8.43 3.4,-2.24 6.17,-3.35 8.32,-3.35 1.38,0 2.38,0.25 3,0.72 0.62,0.48 0.94,1.31 0.94,2.49 0,0.52 -0.23,0.97 -0.68,1.35 -0.45,0.37 -0.8,0.56 -1.05,0.56 -0.19,0 -0.56,-0.12 -1.1,-0.39 -0.55,-0.23 -0.91,-0.36 -1.07,-0.36 -0.86,0 -2.58,0.63 -5.19,1.86 -2.61,1.25 -3.91,2.65 -3.91,4.22 0,0.95 0.46,1.82 1.38,2.59 0.92,0.78 2.57,1.73 4.95,2.85 1.93,0.91 3.46,1.9 4.62,2.95 1.15,1.04 1.73,2.28 1.73,3.69 0,2.61 -1.8,4.65 -5.39,6.12 -3.6,1.47 -7.03,2.21 -10.3,2.21 -2.75,-0.01 -4.13,-0.94 -4.13,-2.82 0,-0.64 0.3,-1.12 0.93,-1.43 0.62,-0.3 1.25,-0.46 1.87,-0.46 0.25,0 0.74,0.09 1.46,0.26 0.7,0.17 1.16,0.25 1.38,0.25 1.89,0 3.92,-0.32 6.08,-0.94 2.16,-0.64 3.51,-1.42 4.01,-2.35zm14.31 -6.08c0.22,-0.29 1.75,-1.66 4.57,-4.12 2.68,-2.33 4.54,-4.03 5.6,-5.08 3.93,-3.93 6.76,-5.9 8.49,-5.9 1.32,0 1.99,0.64 1.99,1.92 0,1.45 -0.65,2.51 -1.96,3.19 -1.71,0.87 -3.98,2.31 -6.83,4.33 -2.84,2.01 -4.26,3.44 -4.26,4.28 0,0.34 1,1.61 3.02,3.82 2,2.21 3.75,3.83 5.21,4.88 1.46,1.05 2.89,1.57 4.27,1.57l0.84 -0.03c0.6,-0.04 0.9,0.23 0.9,0.79 0,0.75 -0.47,1.52 -1.41,2.29 -0.94,0.77 -2.17,1.17 -3.71,1.17 -0.98,0 -1.99,-0.35 -3,-1.04 -1.01,-0.69 -2.82,-2.55 -5.41,-5.58 -2.06,-2.5 -3.35,-4 -3.85,-4.48 -0.52,-0.49 -0.94,-0.73 -1.28,-0.73 -0.18,0 -0.79,0.45 -1.79,1.34 -1,0.88 -1.55,1.55 -1.65,2.01 -0.09,0.46 -0.14,2.21 -0.14,5.27l0 1.19c0,0.64 -0.3,1.19 -0.89,1.69 -0.6,0.49 -1.25,0.74 -1.94,0.74 -0.71,0 -1.27,-0.21 -1.68,-0.63 -0.41,-0.42 -0.62,-0.85 -0.62,-1.29 0,-0.61 0.23,-2.06 0.69,-4.34 0.65,-3.29 1.25,-7.69 1.79,-13.21 1.27,-13.03 2.24,-20.4 2.91,-22.11 0.69,-1.72 1.66,-2.57 2.91,-2.57 0.45,0 0.82,0.23 1.12,0.71 0.29,0.48 0.44,1.09 0.44,1.84 0,1.36 -0.59,4.98 -1.76,10.86 -1.18,5.89 -2.02,11.63 -2.55,17.22zm39.07 -4.7l1.87 0c3.16,0 5.52,-0.11 7.07,-0.33 0.75,-0.11 1.5,-0.16 2.25,-0.16 0.32,0 0.98,0.2 1.98,0.58 1,0.39 1.59,0.72 1.78,0.98 0.18,0.27 0.28,0.62 0.28,1.07 0,0.63 -0.13,1.07 -0.38,1.32 -0.26,0.26 -0.81,0.39 -1.67,0.39 -0.37,0 -0.9,-0.11 -1.58,-0.33 -0.68,-0.22 -1.26,-0.33 -1.72,-0.33 -0.18,0 -0.8,0.04 -1.86,0.13 -0.57,0.05 -1.59,0.01 -3.07,-0.13 -1.14,-0.11 -1.99,-0.16 -2.56,-0.16 -0.78,0 -1.97,0.05 -3.55,0.16 -1.59,0.11 -2.78,0.16 -3.6,0.16 -0.82,0 -1.48,-0.09 -1.98,-0.27 -0.5,-0.18 -0.76,-0.59 -0.76,-1.21 0,-0.28 0.12,-0.59 0.35,-0.96 0.22,-0.37 1.01,-0.65 2.34,-0.87 1.32,-0.21 2.28,-0.32 2.86,-0.32l1.94 0.29zm27.6 -24.68l0.08 0c0.48,0 1.19,0.16 2.14,0.51 0.95,0.34 1.58,0.63 1.87,0.85 0.3,0.24 0.46,0.62 0.46,1.17 0,1.06 -0.49,1.98 -1.46,2.78 -0.98,0.78 -1.7,1.18 -2.17,1.18 -0.82,0 -1.53,-0.36 -2.16,-1.07 -0.61,-0.72 -0.91,-1.43 -0.91,-2.15 0,-1.84 0.71,-2.93 2.14,-3.27zm-10.34 57.54c-2.03,0 -4,-0.85 -5.9,-2.54 -1.9,-1.69 -2.84,-3.16 -2.84,-4.39 0,-0.34 0.11,-0.67 0.36,-1 0.23,-0.33 0.41,-0.5 0.53,-0.5 0.12,0 0.39,0.16 0.8,0.51 2.68,2.35 4.83,3.52 6.46,3.52 1.34,0 2.5,-0.64 3.48,-1.93 0.97,-1.28 1.66,-3.67 2.09,-7.15 0.43,-3.48 0.83,-8.9 1.19,-16.24 0.26,-5.29 0.49,-8.66 0.68,-10.09 0.2,-1.43 0.6,-2.43 1.21,-3 0.62,-0.57 1.39,-0.86 2.35,-0.86 0.49,0 0.96,0.19 1.39,0.57 0.43,0.38 0.64,0.86 0.64,1.4 0,0.3 -0.06,0.72 -0.18,1.25 -1.25,5.38 -2.06,12.39 -2.43,21.03 -0.23,5.21 -0.72,9.07 -1.46,11.57 -0.73,2.5 -1.86,4.44 -3.38,5.8 -1.53,1.36 -3.19,2.04 -5.01,2.04zm27.54 -14.95c-2.33,0 -4.26,-0.88 -5.77,-2.65 -1.52,-1.77 -2.27,-3.96 -2.27,-6.57 0,-4.4 1.48,-8.73 4.44,-13 2.95,-4.26 6.49,-6.4 10.61,-6.4 2.72,0 4.94,1.05 6.63,3.15 1.69,2.1 2.55,4.59 2.55,7.48 0,4.43 -1.75,8.53 -5.25,12.31 -3.51,3.78 -7.15,5.67 -10.93,5.67zm-3.55 -9.88c0,1.72 0.36,3.12 1.08,4.21 0.72,1.09 1.68,1.64 2.88,1.64 2.54,0 5.08,-1.4 7.64,-4.18 2.56,-2.79 3.83,-5.89 3.83,-9.29 0,-2.1 -0.49,-3.8 -1.46,-5.1 -0.98,-1.3 -2.29,-1.96 -3.95,-1.96 -2.74,0 -5.09,1.68 -7.06,5.05 -1.96,3.36 -2.95,6.57 -2.95,9.62zm30.36 -5.93c2.18,-3.97 4.79,-7.19 7.81,-9.65 3.03,-2.46 5.76,-3.69 8.21,-3.69 1.34,0 2.48,0.62 3.42,1.87 0.94,1.24 1.4,2.76 1.4,4.54 0,5.29 -2,10.27 -5.99,14.92 -3.99,4.64 -8.21,6.96 -12.66,6.96 -1.21,0 -2.32,-0.33 -3.34,-0.98 -1.01,-0.66 -1.58,-1.48 -1.69,-2.47 -0.07,-0.79 -0.3,-1.39 -0.69,-1.79 -0.73,-0.73 -1.1,-1.52 -1.1,-2.34 0,-1.55 0.42,-4.87 1.27,-9.94l2.64 -15.28c0.9,-5.13 1.56,-8.29 1.98,-9.51 0.42,-1.2 0.88,-2.01 1.39,-2.42 0.51,-0.41 1.14,-0.61 1.89,-0.61 1.19,0 1.79,1.03 1.79,3.09 0,1.96 -0.65,4.7 -1.96,8.23 -1.27,3.38 -2.72,9.75 -4.37,19.08zm-0.62 8.51c0.89,1.65 1.96,2.48 3.23,2.48 1.94,0 3.99,-0.81 6.16,-2.42 2.16,-1.61 4.03,-3.87 5.61,-6.79 1.57,-2.92 2.37,-5.39 2.37,-7.41 0,-0.9 -0.16,-1.67 -0.49,-2.32 -0.32,-0.64 -0.73,-0.98 -1.23,-0.98 -2.36,0 -5.26,1.94 -8.67,5.82 -3.42,3.87 -5.74,7.74 -6.97,11.62zm43.62 -3.27c-2.38,3.2 -4.74,5.6 -7.07,7.2 -2.34,1.6 -4.47,2.4 -6.42,2.4 -1.31,0 -2.44,-0.55 -3.39,-1.66 -0.96,-1.11 -1.43,-2.53 -1.43,-4.27 0,-4.47 2,-9.3 6,-14.47 4,-5.17 7.98,-7.75 11.93,-7.75 1.43,0 2.49,0.81 3.2,2.45 0.22,0.54 0.56,0.82 1.04,0.82 1.36,0 2.04,0.52 2.04,1.58 0,0.53 -0.09,1.26 -0.25,2.17 -0.92,5.02 -1.38,8.57 -1.38,10.63 0,4.13 0.78,6.59 2.35,7.42 0.75,0.41 1.12,0.91 1.12,1.5 0,0.53 -0.36,1.06 -1.1,1.6 -0.73,0.53 -1.44,0.8 -2.12,0.8 -1.32,0 -2.4,-0.91 -3.24,-2.71 -0.86,-1.8 -1.28,-4.38 -1.28,-7.71zm-1.55 -14.39c-2.25,0 -4.86,2.11 -7.85,6.32 -2.98,4.22 -4.47,7.72 -4.47,10.49 0,1.95 0.66,2.94 1.94,2.94 1.87,0 4.47,-1.89 7.8,-5.68 3.32,-3.78 4.98,-7.26 4.98,-10.42 0,-2.44 -0.8,-3.65 -2.4,-3.65zm58.93 10.5c-1.17,0.91 -2.63,1.73 -4.39,2.48 -1.76,0.75 -3.1,1.12 -4.04,1.12 -1.27,0 -2.44,-0.48 -3.53,-1.44 -1.09,-0.97 -1.63,-1.98 -1.63,-3.05 0,-2.55 1.23,-5.4 3.71,-8.54 2.47,-3.13 4.61,-4.7 6.44,-4.7 2.25,0 3.87,0.49 4.86,1.46 0.22,0.16 0.33,0.42 0.33,0.79 0,0.25 -0.02,0.54 -0.05,0.87 -0.02,0.32 0.12,0.48 0.46,0.48 0.15,0 0.36,-0.07 0.61,-0.2 0.25,-0.14 0.47,-0.21 0.64,-0.21 0.95,0 1.43,0.45 1.43,1.36 0,0.22 -0.27,1 -0.82,2.35 -0.52,1.25 -0.86,2.08 -0.98,2.52 -0.13,0.43 -0.19,1.04 -0.19,1.82 0,0.77 0.56,1.15 1.71,1.15 1.55,0 2.98,-0.81 4.31,-2.42 1.32,-1.62 1.98,-3.21 1.98,-4.78 0,-1.55 -0.65,-3.61 -1.94,-6.18 -1.29,-2.57 -2.88,-4.38 -4.75,-5.41 -1.87,-1.03 -3.36,-1.55 -4.45,-1.55 -1.97,0 -4.58,1.33 -7.81,3.98 -3.23,2.64 -6.06,6.08 -8.5,10.31 -2.45,4.22 -3.67,7.24 -3.67,9.04 0,2.44 1.48,4.68 4.44,6.72 2.95,2.05 6.4,3.07 10.36,3.07 2.04,0 4.74,-0.48 8.08,-1.45 3.35,-0.96 5.97,-2.2 7.88,-3.71 0.7,-0.56 1.12,-0.85 1.25,-0.85 0.26,0 0.56,0.12 0.9,0.36 0.34,0.25 0.51,0.46 0.51,0.67 0,1.29 -0.32,2.28 -0.98,2.98 -0.66,0.7 -1.83,1.39 -3.51,2.08 -1.69,0.69 -4.13,1.36 -7.31,2.02 -3.18,0.66 -6.05,0.98 -8.59,0.98 -4.12,0 -7.91,-1.19 -11.36,-3.58 -3.46,-2.38 -5.19,-5.47 -5.19,-9.24 0,-2.68 1.42,-6.41 4.26,-11.2 2.83,-4.78 6.06,-8.52 9.67,-11.2 3.61,-2.69 6.72,-4.03 9.32,-4.03 4.19,0 7.63,1.76 10.34,5.28 2.7,3.52 4.05,7.08 4.05,10.69 0,2.27 -0.59,4.43 -1.79,6.5 -1.18,2.06 -2.73,3.41 -4.6,4.05 -1.88,0.64 -3,0.96 -3.34,0.96 -1.55,0 -2.91,-0.78 -4.09,-2.35zm-1.6 -10.73c-2.06,0.09 -3.92,1.37 -5.56,3.8 -1.65,2.44 -2.47,4.17 -2.47,5.19 0,0.68 0.18,1.16 0.53,1.43 0.35,0.27 1.1,0.41 2.26,0.41 0.78,0 1.94,-0.45 3.49,-1.37 1.55,-0.91 2.31,-1.71 2.31,-2.39 0,-0.18 -0.05,-0.86 -0.12,-2.01 -0.05,-0.77 0.12,-1.56 0.53,-2.38 0.39,-0.75 0.59,-1.14 0.59,-1.17 0,-0.21 -0.52,-0.71 -1.56,-1.51zm50.1 25.19c-2.33,0 -4.26,-0.88 -5.77,-2.65 -1.52,-1.77 -2.27,-3.96 -2.27,-6.57 0,-4.4 1.48,-8.73 4.44,-13 2.95,-4.26 6.49,-6.4 10.61,-6.4 2.72,0 4.94,1.05 6.63,3.15 1.69,2.1 2.54,4.59 2.54,7.48 0,4.43 -1.75,8.53 -5.25,12.31 -3.51,3.78 -7.15,5.67 -10.93,5.67zm-3.55 -9.88c0,1.72 0.36,3.12 1.08,4.21 0.72,1.09 1.68,1.64 2.88,1.64 2.54,0 5.08,-1.4 7.64,-4.18 2.55,-2.79 3.83,-5.89 3.83,-9.29 0,-2.1 -0.49,-3.8 -1.46,-5.1 -0.98,-1.3 -2.29,-1.96 -3.95,-1.96 -2.74,0 -5.09,1.68 -7.06,5.05 -1.96,3.36 -2.95,6.57 -2.95,9.62zm43.72 -2.5c-2.18,3.65 -4.41,6.5 -6.7,8.5 -2.28,2.01 -4.39,3.02 -6.36,3.02 -1.13,0 -2.27,-0.65 -3.44,-1.97 -1.17,-1.31 -1.75,-3.33 -1.75,-6.05 0,-2.23 0.54,-5.52 1.61,-9.86 0.9,-3.63 1.35,-6.17 1.35,-7.64 0.5,-1.02 1.28,-1.53 2.33,-1.53 0.71,0 1.28,0.25 1.71,0.76 0.43,0.5 0.63,1.02 0.63,1.57 0,1.19 -0.42,2.89 -1.25,5.08 -1.59,4.28 -2.38,7.95 -2.38,11.01 0,2.79 0.64,4.19 1.94,4.19 1.65,0 3.76,-1.4 6.31,-4.21 2.55,-2.82 4.74,-6.73 6.57,-11.76 0.71,-2.01 1.3,-3.32 1.75,-3.93 0.46,-0.6 1.07,-0.91 1.83,-0.91 1.15,0 1.73,0.77 1.73,2.3 0,0.18 -0.16,0.81 -0.49,1.86 -1.02,3.73 -1.53,7.26 -1.53,10.58 0,3.98 0.66,6.57 1.97,7.74 0.68,0.63 1.02,1.14 1.02,1.53 0,0.48 -0.34,0.91 -1.04,1.31 -0.69,0.39 -1.31,0.59 -1.87,0.59 -1.19,0 -2.16,-0.89 -2.89,-2.66 -0.73,-1.77 -1.1,-4.39 -1.1,-7.84l0 -0.84c0,-0.27 0.01,-0.55 0.02,-0.84zm24.27 -14.67c1.76,-0.14 3.41,-0.3 4.95,-0.49 1.53,-0.17 2.82,-0.25 3.84,-0.25 1.29,0 2.11,0.12 2.45,0.36 0.34,0.23 0.52,0.65 0.52,1.25 0,1.38 -0.97,2.13 -2.89,2.24 -2.48,0.16 -4.74,0.37 -6.83,0.64 -2.08,0.27 -3.19,0.5 -3.36,0.67 -0.16,0.18 -0.67,2.21 -1.54,6.08 -0.87,3.88 -1.31,6.39 -1.31,7.55 0,1.88 0.25,3.12 0.74,3.74 0.5,0.63 1.24,0.93 2.22,0.93 1.46,0 3.51,-1.1 6.11,-3.3 1,-0.9 1.78,-1.35 2.32,-1.35 0.73,0 1.1,0.39 1.1,1.18 0,1.23 -1.18,2.82 -3.54,4.76 -2.35,1.95 -4.77,2.93 -7.24,2.93 -4.12,0 -6.18,-2.43 -6.18,-7.28 0,-1.75 0.43,-4.47 1.27,-8.15 0.84,-3.67 1.26,-5.86 1.26,-6.59 0,-0.25 -0.21,-0.38 -0.61,-0.38l-2.66 0.23c-2.18,0 -3.27,-0.87 -3.27,-2.61 0,-0.98 0.5,-1.48 1.51,-1.48l5.26 0c0.36,0 0.67,-0.17 0.95,-0.49 0.27,-0.32 0.67,-1.4 1.19,-3.25 0.53,-1.85 1,-3.68 1.4,-5.49 0.41,-1.79 1.21,-2.68 2.41,-2.68 0.73,0 1.3,0.25 1.71,0.77 0.41,0.5 0.61,0.98 0.61,1.43 0,0.24 -0.31,1.46 -0.92,3.65l-1.48 5.36zm24.46 -17.48c1.23,0 1.84,0.78 1.84,2.35 0,1.39 -0.74,4.72 -2.22,9.96 -0.94,3.3 -1.66,6.95 -2.17,10.94 -0.52,3.98 -0.77,7.11 -0.77,9.37 0,2.81 0.18,5.61 0.54,8.38 0.07,0.53 0.1,0.92 0.1,1.15 0,0.86 -0.29,1.59 -0.86,2.2 -0.59,0.61 -1.19,0.92 -1.84,0.92 -0.91,0 -1.53,-0.56 -1.87,-1.68 -0.35,-1.13 -0.53,-2.94 -0.53,-5.44 0,-5.7 0.68,-12.78 2.05,-21.21 1.38,-8.42 2.47,-13.36 3.27,-14.79 0.81,-1.43 1.63,-2.14 2.47,-2.14zm13.49 44.53c-2.33,0 -4.26,-0.88 -5.77,-2.65 -1.52,-1.77 -2.27,-3.96 -2.27,-6.57 0,-4.4 1.48,-8.73 4.44,-13 2.95,-4.26 6.49,-6.4 10.61,-6.4 2.72,0 4.94,1.05 6.63,3.15 1.69,2.1 2.54,4.59 2.54,7.48 0,4.43 -1.75,8.53 -5.25,12.31 -3.51,3.78 -7.14,5.67 -10.93,5.67zm-3.55 -9.88c0,1.72 0.36,3.12 1.08,4.21 0.72,1.09 1.68,1.64 2.88,1.64 2.54,0 5.08,-1.4 7.64,-4.18 2.55,-2.79 3.83,-5.89 3.83,-9.29 0,-2.1 -0.49,-3.8 -1.46,-5.1 -0.98,-1.3 -2.29,-1.96 -3.95,-1.96 -2.74,0 -5.09,1.68 -7.06,5.05 -1.96,3.36 -2.95,6.57 -2.95,9.62zm33.14 9.88c-2.33,0 -4.26,-0.88 -5.77,-2.65 -1.52,-1.77 -2.27,-3.96 -2.27,-6.57 0,-4.4 1.48,-8.73 4.44,-13 2.95,-4.26 6.49,-6.4 10.61,-6.4 2.72,0 4.94,1.05 6.63,3.15 1.69,2.1 2.54,4.59 2.54,7.48 0,4.43 -1.75,8.53 -5.25,12.31 -3.51,3.78 -7.14,5.67 -10.93,5.67zm-3.55 -9.88c0,1.72 0.36,3.12 1.08,4.21 0.72,1.09 1.68,1.64 2.88,1.64 2.54,0 5.08,-1.4 7.64,-4.18 2.55,-2.79 3.83,-5.89 3.83,-9.29 0,-2.1 -0.49,-3.8 -1.46,-5.1 -0.98,-1.3 -2.29,-1.96 -3.95,-1.96 -2.74,0 -5.09,1.68 -7.06,5.05 -1.96,3.36 -2.95,6.57 -2.95,9.62zm30.64 -3.32c0.22,-0.29 1.75,-1.66 4.57,-4.12 2.68,-2.33 4.54,-4.03 5.6,-5.08 3.93,-3.93 6.76,-5.9 8.49,-5.9 1.32,0 1.99,0.64 1.99,1.92 0,1.45 -0.65,2.51 -1.96,3.19 -1.71,0.87 -3.98,2.31 -6.83,4.33 -2.84,2.01 -4.26,3.44 -4.26,4.28 0,0.34 1,1.61 3.02,3.82 2.01,2.21 3.75,3.83 5.21,4.88 1.46,1.05 2.89,1.57 4.27,1.57l0.84 -0.03c0.6,-0.04 0.9,0.23 0.9,0.79 0,0.75 -0.47,1.52 -1.41,2.29 -0.94,0.77 -2.17,1.17 -3.71,1.17 -0.98,0 -1.99,-0.35 -3,-1.04 -1.01,-0.69 -2.82,-2.55 -5.41,-5.58 -2.06,-2.5 -3.35,-4 -3.85,-4.48 -0.52,-0.49 -0.94,-0.73 -1.28,-0.73 -0.18,0 -0.79,0.45 -1.79,1.34 -1,0.88 -1.55,1.55 -1.65,2.01 -0.09,0.46 -0.14,2.21 -0.14,5.27l0 1.19c0,0.64 -0.3,1.19 -0.89,1.69 -0.6,0.49 -1.25,0.74 -1.94,0.74 -0.71,0 -1.27,-0.21 -1.68,-0.63 -0.41,-0.42 -0.62,-0.85 -0.62,-1.29 0,-0.61 0.23,-2.06 0.69,-4.34 0.65,-3.29 1.25,-7.69 1.79,-13.21 1.27,-13.03 2.24,-20.4 2.91,-22.11 0.69,-1.72 1.66,-2.57 2.91,-2.57 0.45,0 0.82,0.23 1.12,0.71 0.29,0.48 0.44,1.09 0.44,1.84 0,1.36 -0.59,4.98 -1.76,10.86 -1.18,5.89 -2.02,11.63 -2.55,17.22zm29.67 4.88l0.56 0c0.31,0 0.67,0.15 1.1,0.45 0.43,0.3 0.64,0.7 0.64,1.21 0,1.02 -0.18,1.77 -0.53,2.25 -0.36,0.47 -0.93,1 -1.73,1.58 -0.8,0.58 -1.35,0.87 -1.67,0.87 -0.71,0 -1.25,-0.16 -1.59,-0.49 -0.34,-0.32 -0.51,-1.2 -0.51,-2.66 0,-1.34 0.08,-2.15 0.23,-2.4 0.15,-0.25 0.52,-0.46 1.11,-0.6 0.59,-0.14 1.38,-0.22 2.39,-0.22zm16.43 8.51c-2.55,0 -4.53,-0.73 -5.89,-2.2 -1.37,-1.46 -2.06,-3.51 -2.06,-6.16 0,-4.45 1.76,-9.13 5.29,-14.07 3.52,-4.93 6.8,-7.39 9.84,-7.39 1.38,0 2.57,0.74 3.56,2.23 1,1.49 1.5,3.07 1.5,4.74 0,1 -0.22,1.86 -0.65,2.59 -0.44,0.72 -0.87,1.09 -1.32,1.09 -0.99,0 -1.69,-1 -2.09,-2.99 -0.46,-2.14 -1.13,-3.22 -2,-3.22 -1.77,0 -3.86,2.1 -6.28,6.3 -2.42,4.21 -3.63,7.77 -3.63,10.66 0,2.9 1.64,4.35 4.93,4.35 2.5,0 5.45,-1.18 8.84,-3.53 1.19,-0.84 2.07,-1.25 2.64,-1.25 0.57,0 0.86,0.33 0.86,1 0,1.29 -1.52,2.92 -4.57,4.89 -3.06,1.96 -6.04,2.95 -8.97,2.95zm27 -0.18c-2.33,0 -4.25,-0.88 -5.77,-2.65 -1.52,-1.77 -2.27,-3.96 -2.27,-6.57 0,-4.4 1.48,-8.73 4.44,-13 2.95,-4.26 6.49,-6.4 10.61,-6.4 2.72,0 4.94,1.05 6.63,3.15 1.69,2.1 2.55,4.59 2.55,7.48 0,4.43 -1.75,8.53 -5.25,12.31 -3.51,3.78 -7.15,5.67 -10.93,5.67zm-3.55 -9.88c0,1.72 0.36,3.12 1.08,4.21 0.72,1.09 1.68,1.64 2.88,1.64 2.54,0 5.08,-1.4 7.64,-4.18 2.55,-2.79 3.83,-5.89 3.83,-9.29 0,-2.1 -0.49,-3.8 -1.46,-5.1 -0.98,-1.3 -2.29,-1.96 -3.95,-1.96 -2.74,0 -5.09,1.68 -7.06,5.05 -1.96,3.36 -2.95,6.57 -2.95,9.62zm44.98 -11.6c-1.59,0.04 -4.98,4.73 -10.17,14.08 -1.76,3.15 -2.78,4.87 -3.07,5.15 -0.29,0.28 -0.82,0.53 -1.6,0.76 -0.78,0.22 -1.42,0.33 -1.93,0.33 -1.14,0 -1.72,-2.22 -1.72,-6.67 0,-2.5 0.54,-7.04 1.61,-13.6 0.45,-2.65 0.67,-4.55 0.67,-5.69 0,-1.12 0.5,-1.68 1.51,-1.68 1.89,0 2.83,1.36 2.83,4.08 0,1.28 -0.31,3.79 -0.94,7.52 -0.73,4.26 -1.11,6.85 -1.12,7.76 1.05,-1.02 2.61,-3.26 4.65,-6.72 2.9,-4.74 5.03,-7.74 6.4,-9.01 1.37,-1.27 2.79,-1.9 4.25,-1.9 1.11,0 1.99,0.74 2.64,2.23 0.66,1.48 1.05,5.01 1.19,10.6 0.04,1.4 0.16,2.43 0.38,3.12 0.23,0.68 0.39,1.02 0.49,1.02 0.8,0 2.54,-2.72 5.22,-8.17 1.43,-2.88 2.82,-5.07 4.18,-6.57 1.35,-1.5 2.85,-2.25 4.51,-2.25 1.38,0 2.38,0.71 3.01,2.14 0.64,1.42 1.08,3.52 1.36,6.32 0.25,2.82 0.65,5.41 1.19,7.76 0.53,2.35 1.52,3.86 2.95,4.53 0.98,0.46 1.46,0.99 1.46,1.61 0,0.59 -0.41,1.2 -1.22,1.83 -0.82,0.64 -1.57,0.95 -2.25,0.95 -1.37,0 -2.58,-0.84 -3.65,-2.5 -1.07,-1.67 -1.88,-5.28 -2.42,-10.83 -0.25,-2.24 -0.47,-3.82 -0.7,-4.76 -0.22,-0.94 -0.57,-1.41 -1.05,-1.41 -0.71,0 -1.56,0.69 -2.54,2.05 -0.99,1.36 -2.57,4.13 -4.74,8.3 -1.7,3.26 -2.99,5.43 -3.87,6.51 -0.87,1.08 -1.72,1.62 -2.54,1.62 -0.73,0 -1.39,-0.3 -1.97,-0.88 -0.58,-0.59 -0.94,-1.3 -1.1,-2.13 -0.15,-0.82 -0.31,-2.85 -0.48,-6.09 -0.26,-5.38 -0.72,-8.52 -1.4,-9.4z"/>
   <g>
    <polygon class="fil1 str0" points="618.61,10.32 677.78,10.32 677.78,46.75 618.61,46.75 "/>
    <polyline class="fil1 str0" points="618.61,10.32 648.2,32.18 677.78,10.32 "/>
   </g>
  </g>
 </g>
</svg>
