<?xml version="1.0" encoding="UTF-8"?>
<!DOCTYPE svg PUBLIC "-//W3C//DTD SVG 1.1//EN" "http://www.w3.org/Graphics/SVG/1.1/DTD/svg11.dtd">
<!-- Creator: CorelDRAW 2020 -->
<svg xmlns="http://www.w3.org/2000/svg" xml:space="preserve" width="33.6442mm" height="2.9688mm" version="1.1" style="shape-rendering:geometricPrecision; text-rendering:geometricPrecision; image-rendering:optimizeQuality; fill-rule:evenodd; clip-rule:evenodd"
viewBox="0 0 675.37 59.6"
 xmlns:xlink="http://www.w3.org/1999/xlink"
 xmlns:xodm="http://www.corel.com/coreldraw/odm/2003">
 <defs>
  <style type="text/css">
   <![CDATA[
    .str0 {stroke:#C6B93A;stroke-width:6.02;stroke-miterlimit:22.9256}
    .fil1 {fill:none}
    .fil0 {fill:#C6B93A;fill-rule:nonzero}
   ]]>
  </style>
 </defs>
 <g id="Layer_x0020_1">
  <metadata id="CorelCorpID_0Corel-Layer"/>
  <g id="_1208215560">
   <path class="fil0" d="M15.33 38.09c0,-1.08 -1.33,-2.3 -3.98,-3.68 -3.38,-1.73 -5.65,-3.11 -6.84,-4.15 -1.18,-1.04 -1.77,-2.2 -1.77,-3.47 0,-3.31 1.66,-6.04 4.96,-8.22 3.31,-2.18 6.02,-3.27 8.11,-3.27 1.34,0 2.32,0.24 2.92,0.7 0.6,0.47 0.91,1.27 0.91,2.42 0,0.51 -0.22,0.95 -0.66,1.32 -0.43,0.37 -0.78,0.54 -1.03,0.54 -0.19,0 -0.54,-0.12 -1.07,-0.38 -0.53,-0.23 -0.88,-0.35 -1.05,-0.35 -0.83,0 -2.52,0.61 -5.05,1.82 -2.54,1.22 -3.81,2.58 -3.81,4.11 0,0.93 0.45,1.77 1.34,2.53 0.9,0.76 2.51,1.68 4.83,2.78 1.88,0.89 3.37,1.85 4.5,2.87 1.12,1.02 1.68,2.22 1.68,3.6 0,2.54 -1.75,4.53 -5.25,5.97 -3.5,1.43 -6.85,2.15 -10.04,2.16 -2.68,-0.01 -4.03,-0.92 -4.03,-2.74 0,-0.63 0.3,-1.1 0.91,-1.39 0.6,-0.3 1.21,-0.45 1.83,-0.45 0.25,0 0.72,0.08 1.42,0.25 0.68,0.16 1.13,0.25 1.34,0.25 1.84,0 3.82,-0.31 5.92,-0.92 2.11,-0.62 3.42,-1.39 3.91,-2.29zm13.95 -5.92c0.21,-0.28 1.7,-1.62 4.45,-4.01 2.61,-2.27 4.43,-3.93 5.46,-4.95 3.83,-3.83 6.59,-5.75 8.27,-5.75 1.29,0 1.94,0.63 1.94,1.87 0,1.41 -0.64,2.45 -1.91,3.11 -1.67,0.85 -3.87,2.25 -6.65,4.22 -2.77,1.96 -4.16,3.36 -4.16,4.17 0,0.33 0.98,1.57 2.94,3.72 1.95,2.15 3.65,3.73 5.07,4.75 1.43,1.02 2.82,1.53 4.16,1.53l0.82 -0.03c0.59,-0.03 0.88,0.23 0.88,0.77 0,0.73 -0.46,1.48 -1.37,2.23 -0.92,0.75 -2.12,1.14 -3.61,1.14 -0.96,0 -1.94,-0.34 -2.92,-1.01 -0.98,-0.67 -2.74,-2.48 -5.27,-5.44 -2.01,-2.44 -3.26,-3.9 -3.76,-4.37 -0.5,-0.48 -0.92,-0.71 -1.25,-0.71 -0.18,0 -0.77,0.43 -1.74,1.3 -0.98,0.86 -1.51,1.51 -1.61,1.96 -0.08,0.45 -0.13,2.16 -0.13,5.13l0 1.16c0,0.62 -0.29,1.16 -0.87,1.65 -0.59,0.48 -1.21,0.72 -1.89,0.72 -0.7,0 -1.24,-0.2 -1.64,-0.61 -0.4,-0.41 -0.6,-0.83 -0.6,-1.26 0,-0.59 0.23,-2.01 0.67,-4.23 0.64,-3.2 1.21,-7.5 1.74,-12.88 1.23,-12.69 2.18,-19.88 2.84,-21.54 0.67,-1.67 1.62,-2.51 2.84,-2.51 0.43,0 0.8,0.23 1.09,0.7 0.29,0.47 0.43,1.06 0.43,1.79 0,1.32 -0.57,4.85 -1.72,10.58 -1.15,5.74 -1.97,11.34 -2.49,16.78zm38.07 -4.58l1.82 0c3.08,0 5.38,-0.11 6.89,-0.32 0.73,-0.1 1.46,-0.15 2.19,-0.15 0.31,0 0.96,0.19 1.93,0.57 0.97,0.38 1.55,0.7 1.73,0.96 0.18,0.26 0.27,0.6 0.27,1.04 0,0.61 -0.13,1.05 -0.37,1.29 -0.25,0.25 -0.79,0.38 -1.62,0.38 -0.37,0 -0.88,-0.11 -1.54,-0.32 -0.66,-0.21 -1.22,-0.32 -1.68,-0.32 -0.18,0 -0.78,0.04 -1.81,0.13 -0.55,0.04 -1.55,0.01 -2.99,-0.13 -1.11,-0.1 -1.94,-0.15 -2.49,-0.15 -0.76,0 -1.92,0.05 -3.46,0.15 -1.55,0.1 -2.71,0.15 -3.51,0.15 -0.8,0 -1.44,-0.09 -1.93,-0.26 -0.49,-0.18 -0.74,-0.57 -0.74,-1.18 0,-0.27 0.11,-0.58 0.34,-0.94 0.22,-0.36 0.98,-0.64 2.28,-0.85 1.29,-0.2 2.23,-0.32 2.79,-0.32l1.89 0.28zm26.89 -24.05l0.08 0c0.47,0 1.16,0.16 2.09,0.49 0.93,0.33 1.54,0.61 1.83,0.83 0.29,0.23 0.44,0.6 0.44,1.14 0,1.03 -0.48,1.93 -1.42,2.7 -0.95,0.76 -1.66,1.15 -2.12,1.15 -0.8,0 -1.5,-0.35 -2.1,-1.04 -0.59,-0.7 -0.89,-1.4 -0.89,-2.09 0,-1.79 0.7,-2.85 2.09,-3.19zm-10.08 56.06c-1.98,0 -3.89,-0.83 -5.75,-2.48 -1.85,-1.65 -2.77,-3.08 -2.77,-4.27 0,-0.33 0.11,-0.65 0.35,-0.98 0.23,-0.32 0.4,-0.48 0.52,-0.48 0.12,0 0.38,0.16 0.77,0.49 2.61,2.29 4.71,3.43 6.3,3.43 1.31,0 2.44,-0.62 3.39,-1.88 0.94,-1.25 1.62,-3.58 2.04,-6.97 0.42,-3.39 0.81,-8.67 1.16,-15.82 0.25,-5.16 0.48,-8.44 0.66,-9.83 0.19,-1.39 0.59,-2.37 1.18,-2.92 0.6,-0.56 1.36,-0.84 2.29,-0.84 0.48,0 0.93,0.19 1.36,0.56 0.42,0.37 0.63,0.83 0.63,1.36 0,0.3 -0.06,0.7 -0.17,1.22 -1.21,5.24 -2.01,12.07 -2.37,20.49 -0.23,5.07 -0.7,8.84 -1.42,11.28 -0.71,2.44 -1.81,4.33 -3.3,5.65 -1.49,1.32 -3.11,1.99 -4.89,1.99zm26.84 -14.57c-2.27,0 -4.15,-0.86 -5.63,-2.58 -1.48,-1.73 -2.22,-3.86 -2.22,-6.4 0,-4.28 1.44,-8.51 4.32,-12.66 2.87,-4.16 6.32,-6.24 10.34,-6.24 2.65,0 4.81,1.02 6.46,3.07 1.65,2.04 2.48,4.47 2.48,7.29 0,4.32 -1.71,8.31 -5.11,12 -3.42,3.69 -6.96,5.52 -10.65,5.52zm-3.46 -9.63c0,1.67 0.35,3.04 1.05,4.11 0.7,1.06 1.64,1.6 2.8,1.6 2.48,0 4.95,-1.36 7.45,-4.07 2.49,-2.72 3.73,-5.74 3.73,-9.05 0,-2.05 -0.48,-3.7 -1.43,-4.97 -0.95,-1.27 -2.23,-1.91 -3.85,-1.91 -2.67,0 -4.96,1.64 -6.88,4.92 -1.91,3.27 -2.87,6.4 -2.87,9.37zm29.58 -5.78c2.12,-3.87 4.66,-7 7.61,-9.4 2.96,-2.4 5.62,-3.6 8,-3.6 1.31,0 2.42,0.6 3.33,1.82 0.92,1.21 1.37,2.69 1.37,4.43 0,5.16 -1.95,10 -5.84,14.53 -3.89,4.52 -8,6.78 -12.33,6.78 -1.18,0 -2.26,-0.32 -3.26,-0.96 -0.98,-0.64 -1.54,-1.44 -1.65,-2.41 -0.07,-0.77 -0.3,-1.36 -0.67,-1.74 -0.71,-0.71 -1.07,-1.48 -1.07,-2.28 0,-1.51 0.41,-4.74 1.24,-9.69l2.57 -14.89c0.88,-5 1.52,-8.08 1.93,-9.26 0.41,-1.17 0.86,-1.96 1.36,-2.36 0.49,-0.4 1.11,-0.59 1.84,-0.59 1.16,0 1.74,1 1.74,3.01 0,1.91 -0.64,4.58 -1.91,8.02 -1.23,3.3 -2.65,9.5 -4.26,18.59zm-0.6 8.29c0.87,1.61 1.91,2.41 3.14,2.41 1.89,0 3.89,-0.79 6,-2.35 2.11,-1.57 3.93,-3.77 5.46,-6.62 1.53,-2.85 2.3,-5.25 2.3,-7.22 0,-0.87 -0.16,-1.63 -0.48,-2.26 -0.32,-0.63 -0.71,-0.95 -1.2,-0.95 -2.3,0 -5.12,1.89 -8.45,5.67 -3.33,3.77 -5.59,7.55 -6.79,11.32zm42.5 -3.19c-2.32,3.12 -4.62,5.46 -6.89,7.02 -2.28,1.56 -4.36,2.34 -6.26,2.34 -1.27,0 -2.38,-0.54 -3.31,-1.62 -0.93,-1.08 -1.39,-2.46 -1.39,-4.16 0,-4.36 1.95,-9.06 5.85,-14.1 3.9,-5.04 7.77,-7.55 11.62,-7.55 1.39,0 2.43,0.79 3.12,2.39 0.21,0.53 0.55,0.8 1.02,0.8 1.33,0 1.99,0.51 1.99,1.54 0,0.52 -0.08,1.22 -0.25,2.12 -0.9,4.89 -1.34,8.35 -1.34,10.36 0,4.02 0.76,6.43 2.29,7.23 0.73,0.4 1.09,0.88 1.09,1.46 0,0.52 -0.36,1.03 -1.07,1.56 -0.71,0.52 -1.4,0.78 -2.06,0.78 -1.28,0 -2.34,-0.88 -3.16,-2.64 -0.83,-1.76 -1.25,-4.27 -1.25,-7.51zm-1.51 -14.02c-2.19,0 -4.74,2.06 -7.65,6.16 -2.91,4.11 -4.36,7.52 -4.36,10.22 0,1.9 0.64,2.86 1.89,2.86 1.83,0 4.36,-1.84 7.6,-5.53 3.24,-3.68 4.85,-7.07 4.85,-10.16 0,-2.37 -0.78,-3.56 -2.34,-3.56zm57.42 10.23c-1.14,0.88 -2.57,1.68 -4.27,2.41 -1.72,0.73 -3.03,1.1 -3.93,1.1 -1.23,0 -2.38,-0.47 -3.44,-1.4 -1.06,-0.95 -1.59,-1.93 -1.59,-2.97 0,-2.49 1.2,-5.26 3.61,-8.32 2.4,-3.05 4.49,-4.58 6.27,-4.58 2.19,0 3.77,0.48 4.73,1.42 0.21,0.15 0.32,0.41 0.32,0.77 0,0.25 -0.02,0.53 -0.04,0.85 -0.02,0.32 0.12,0.47 0.44,0.47 0.14,0 0.35,-0.07 0.59,-0.2 0.25,-0.14 0.46,-0.2 0.62,-0.2 0.92,0 1.39,0.44 1.39,1.32 0,0.21 -0.26,0.98 -0.8,2.29 -0.51,1.21 -0.83,2.03 -0.95,2.46 -0.13,0.42 -0.18,1.01 -0.18,1.78 0,0.75 0.55,1.12 1.66,1.12 1.51,0 2.91,-0.79 4.2,-2.36 1.28,-1.58 1.93,-3.13 1.93,-4.66 0,-1.51 -0.64,-3.52 -1.89,-6.03 -1.26,-2.51 -2.8,-4.26 -4.63,-5.27 -1.83,-1 -3.27,-1.51 -4.33,-1.51 -1.92,0 -4.46,1.29 -7.61,3.88 -3.15,2.57 -5.91,5.92 -8.29,10.04 -2.39,4.11 -3.58,7.05 -3.58,8.81 0,2.37 1.45,4.56 4.33,6.54 2.87,2 6.24,2.99 10.1,2.99 1.99,0 4.61,-0.47 7.88,-1.41 3.26,-0.93 5.82,-2.14 7.68,-3.62 0.68,-0.54 1.09,-0.83 1.21,-0.83 0.25,0 0.54,0.12 0.88,0.35 0.33,0.24 0.49,0.45 0.49,0.65 0,1.26 -0.32,2.23 -0.95,2.91 -0.64,0.68 -1.78,1.36 -3.42,2.03 -1.65,0.67 -4.02,1.32 -7.12,1.97 -3.1,0.64 -5.9,0.95 -8.37,0.95 -4.01,0 -7.71,-1.16 -11.07,-3.48 -3.37,-2.32 -5.06,-5.33 -5.06,-9.01 0,-2.61 1.39,-6.25 4.15,-10.91 2.76,-4.66 5.91,-8.3 9.42,-10.91 3.52,-2.62 6.54,-3.93 9.08,-3.93 4.08,0 7.44,1.72 10.07,5.14 2.63,3.43 3.94,6.9 3.94,10.42 0,2.21 -0.58,4.32 -1.74,6.33 -1.15,2.01 -2.66,3.32 -4.49,3.94 -1.83,0.62 -2.92,0.94 -3.25,0.94 -1.51,0 -2.84,-0.76 -3.99,-2.29zm-1.56 -10.45c-2.01,0.09 -3.82,1.33 -5.42,3.7 -1.61,2.38 -2.4,4.06 -2.4,5.06 0,0.66 0.17,1.13 0.51,1.39 0.34,0.26 1.07,0.4 2.2,0.4 0.76,0 1.89,-0.44 3.4,-1.33 1.51,-0.88 2.25,-1.67 2.25,-2.33 0,-0.18 -0.04,-0.83 -0.12,-1.96 -0.05,-0.75 0.12,-1.52 0.52,-2.32 0.38,-0.73 0.58,-1.11 0.58,-1.14 0,-0.2 -0.51,-0.69 -1.52,-1.47zm48.81 24.54c-2.27,0 -4.15,-0.86 -5.63,-2.58 -1.48,-1.73 -2.22,-3.86 -2.22,-6.4 0,-4.28 1.44,-8.51 4.33,-12.66 2.87,-4.16 6.32,-6.24 10.34,-6.24 2.65,0 4.81,1.02 6.46,3.07 1.65,2.04 2.48,4.47 2.48,7.29 0,4.32 -1.71,8.31 -5.11,12 -3.42,3.69 -6.96,5.52 -10.65,5.52zm-3.46 -9.63c0,1.67 0.35,3.04 1.05,4.11 0.7,1.06 1.64,1.6 2.8,1.6 2.47,0 4.95,-1.36 7.45,-4.07 2.49,-2.72 3.73,-5.74 3.73,-9.05 0,-2.05 -0.47,-3.7 -1.43,-4.97 -0.95,-1.27 -2.23,-1.91 -3.85,-1.91 -2.67,0 -4.96,1.64 -6.88,4.92 -1.91,3.27 -2.87,6.4 -2.87,9.37zm42.6 -2.44c-2.12,3.56 -4.3,6.33 -6.53,8.28 -2.22,1.96 -4.28,2.94 -6.19,2.94 -1.1,0 -2.21,-0.64 -3.35,-1.92 -1.14,-1.28 -1.71,-3.25 -1.71,-5.9 0,-2.17 0.53,-5.38 1.57,-9.61 0.88,-3.54 1.32,-6.02 1.32,-7.45 0.49,-0.99 1.24,-1.49 2.27,-1.49 0.69,0 1.25,0.24 1.67,0.74 0.42,0.48 0.62,0.99 0.62,1.53 0,1.16 -0.41,2.81 -1.21,4.95 -1.55,4.17 -2.32,7.74 -2.32,10.73 0,2.72 0.63,4.08 1.89,4.08 1.61,0 3.66,-1.37 6.14,-4.1 2.49,-2.75 4.62,-6.56 6.4,-11.45 0.69,-1.96 1.27,-3.23 1.71,-3.83 0.44,-0.58 1.04,-0.88 1.79,-0.88 1.12,0 1.69,0.75 1.69,2.24 0,0.18 -0.16,0.79 -0.48,1.82 -1,3.64 -1.5,7.07 -1.5,10.31 0,3.88 0.64,6.4 1.92,7.54 0.66,0.62 0.99,1.11 0.99,1.5 0,0.47 -0.33,0.89 -1.01,1.27 -0.67,0.38 -1.27,0.57 -1.83,0.57 -1.16,0 -2.1,-0.87 -2.81,-2.59 -0.71,-1.72 -1.07,-4.27 -1.07,-7.64l0 -0.82c0,-0.26 0.01,-0.54 0.02,-0.82zm23.65 -14.29c1.71,-0.13 3.32,-0.29 4.83,-0.48 1.5,-0.16 2.74,-0.25 3.74,-0.25 1.26,0 2.06,0.12 2.39,0.35 0.33,0.23 0.5,0.64 0.5,1.22 0,1.34 -0.94,2.07 -2.81,2.18 -2.41,0.15 -4.62,0.36 -6.65,0.63 -2.02,0.26 -3.11,0.49 -3.27,0.65 -0.15,0.18 -0.65,2.15 -1.5,5.92 -0.85,3.78 -1.27,6.23 -1.27,7.36 0,1.83 0.24,3.04 0.72,3.65 0.48,0.61 1.21,0.91 2.17,0.91 1.43,0 3.42,-1.07 5.96,-3.21 0.98,-0.88 1.73,-1.32 2.26,-1.32 0.71,0 1.07,0.38 1.07,1.15 0,1.2 -1.15,2.75 -3.45,4.64 -2.29,1.9 -4.65,2.85 -7.06,2.85 -4.02,0 -6.02,-2.37 -6.02,-7.1 0,-1.71 0.42,-4.36 1.24,-7.94 0.82,-3.57 1.22,-5.71 1.22,-6.43 0,-0.25 -0.2,-0.37 -0.6,-0.37l-2.59 0.23c-2.12,0 -3.19,-0.85 -3.19,-2.54 0,-0.96 0.49,-1.44 1.47,-1.44l5.12 0c0.35,0 0.65,-0.16 0.93,-0.48 0.26,-0.31 0.65,-1.37 1.16,-3.17 0.52,-1.8 0.98,-3.59 1.37,-5.35 0.4,-1.74 1.18,-2.61 2.35,-2.61 0.71,0 1.26,0.24 1.66,0.75 0.4,0.49 0.6,0.96 0.6,1.39 0,0.23 -0.3,1.42 -0.89,3.56l-1.45 5.23zm23.83 -17.03c1.2,0 1.79,0.76 1.79,2.29 0,1.36 -0.72,4.59 -2.17,9.7 -0.91,3.22 -1.62,6.77 -2.12,10.66 -0.5,3.88 -0.75,6.92 -0.75,9.13 0,2.74 0.18,5.46 0.52,8.17 0.07,0.52 0.09,0.89 0.09,1.12 0,0.83 -0.28,1.55 -0.84,2.14 -0.57,0.59 -1.16,0.89 -1.79,0.89 -0.88,0 -1.49,-0.54 -1.83,-1.64 -0.34,-1.1 -0.51,-2.86 -0.51,-5.3 0,-5.56 0.66,-12.45 2,-20.67 1.34,-8.21 2.4,-13.02 3.19,-14.41 0.79,-1.39 1.59,-2.09 2.4,-2.09zm13.15 43.39c-2.27,0 -4.15,-0.86 -5.63,-2.58 -1.48,-1.73 -2.22,-3.86 -2.22,-6.4 0,-4.28 1.44,-8.51 4.32,-12.66 2.87,-4.16 6.32,-6.24 10.34,-6.24 2.65,0 4.81,1.02 6.46,3.07 1.65,2.04 2.48,4.47 2.48,7.29 0,4.32 -1.71,8.31 -5.11,12 -3.42,3.69 -6.96,5.52 -10.65,5.52zm-3.46 -9.63c0,1.67 0.35,3.04 1.05,4.11 0.7,1.06 1.64,1.6 2.8,1.6 2.47,0 4.95,-1.36 7.45,-4.07 2.49,-2.72 3.73,-5.74 3.73,-9.05 0,-2.05 -0.48,-3.7 -1.43,-4.97 -0.95,-1.27 -2.23,-1.91 -3.85,-1.91 -2.67,0 -4.96,1.64 -6.88,4.92 -1.91,3.27 -2.87,6.4 -2.87,9.37zm32.29 9.63c-2.27,0 -4.15,-0.86 -5.63,-2.58 -1.48,-1.73 -2.22,-3.86 -2.22,-6.4 0,-4.28 1.44,-8.51 4.32,-12.66 2.87,-4.16 6.32,-6.24 10.34,-6.24 2.65,0 4.81,1.02 6.46,3.07 1.65,2.04 2.48,4.47 2.48,7.29 0,4.32 -1.71,8.31 -5.11,12 -3.42,3.69 -6.96,5.52 -10.65,5.52zm-3.46 -9.63c0,1.67 0.35,3.04 1.05,4.11 0.7,1.06 1.64,1.6 2.8,1.6 2.47,0 4.95,-1.36 7.45,-4.07 2.49,-2.72 3.73,-5.74 3.73,-9.05 0,-2.05 -0.48,-3.7 -1.43,-4.97 -0.95,-1.27 -2.23,-1.91 -3.85,-1.91 -2.67,0 -4.96,1.64 -6.88,4.92 -1.91,3.27 -2.87,6.4 -2.87,9.37zm29.85 -3.24c0.21,-0.28 1.7,-1.62 4.45,-4.01 2.61,-2.27 4.43,-3.93 5.46,-4.95 3.83,-3.83 6.59,-5.75 8.27,-5.75 1.29,0 1.94,0.63 1.94,1.87 0,1.41 -0.64,2.45 -1.91,3.11 -1.67,0.85 -3.87,2.25 -6.65,4.22 -2.77,1.96 -4.16,3.36 -4.16,4.17 0,0.33 0.98,1.57 2.94,3.72 1.96,2.15 3.65,3.73 5.07,4.75 1.43,1.02 2.82,1.53 4.16,1.53l0.82 -0.03c0.59,-0.03 0.88,0.23 0.88,0.77 0,0.73 -0.46,1.48 -1.37,2.23 -0.92,0.75 -2.12,1.14 -3.61,1.14 -0.96,0 -1.94,-0.34 -2.92,-1.01 -0.98,-0.67 -2.74,-2.48 -5.27,-5.44 -2.01,-2.44 -3.26,-3.9 -3.76,-4.37 -0.5,-0.48 -0.92,-0.71 -1.25,-0.71 -0.18,0 -0.77,0.43 -1.74,1.3 -0.98,0.86 -1.51,1.51 -1.61,1.96 -0.08,0.45 -0.13,2.16 -0.13,5.13l0 1.16c0,0.62 -0.29,1.16 -0.87,1.65 -0.59,0.48 -1.21,0.72 -1.89,0.72 -0.7,0 -1.24,-0.2 -1.64,-0.61 -0.4,-0.41 -0.6,-0.83 -0.6,-1.26 0,-0.59 0.23,-2.01 0.67,-4.23 0.64,-3.2 1.21,-7.5 1.74,-12.88 1.23,-12.69 2.18,-19.88 2.84,-21.54 0.67,-1.67 1.62,-2.51 2.84,-2.51 0.43,0 0.8,0.23 1.09,0.7 0.29,0.47 0.43,1.06 0.43,1.79 0,1.32 -0.57,4.85 -1.72,10.58 -1.15,5.74 -1.97,11.34 -2.49,16.78zm28.91 4.75l0.54 0c0.3,0 0.66,0.14 1.07,0.44 0.42,0.29 0.62,0.68 0.62,1.18 0,0.99 -0.17,1.73 -0.52,2.19 -0.35,0.46 -0.91,0.98 -1.68,1.54 -0.77,0.57 -1.32,0.85 -1.63,0.85 -0.7,0 -1.22,-0.16 -1.55,-0.48 -0.33,-0.32 -0.49,-1.17 -0.49,-2.59 0,-1.31 0.08,-2.09 0.22,-2.34 0.15,-0.25 0.51,-0.44 1.09,-0.59 0.57,-0.13 1.34,-0.21 2.33,-0.21zm16.01 8.29c-2.49,0 -4.41,-0.71 -5.74,-2.14 -1.33,-1.43 -2.01,-3.42 -2.01,-6 0,-4.33 1.72,-8.9 5.16,-13.71 3.43,-4.8 6.63,-7.2 9.58,-7.2 1.34,0 2.5,0.72 3.47,2.18 0.98,1.45 1.46,2.99 1.46,4.62 0,0.98 -0.21,1.82 -0.64,2.52 -0.43,0.7 -0.85,1.06 -1.28,1.06 -0.96,0 -1.64,-0.98 -2.04,-2.91 -0.45,-2.09 -1.1,-3.14 -1.95,-3.14 -1.72,0 -3.76,2.05 -6.12,6.14 -2.36,4.11 -3.54,7.57 -3.54,10.38 0,2.82 1.6,4.23 4.8,4.23 2.44,0 5.31,-1.15 8.62,-3.43 1.16,-0.82 2.01,-1.22 2.57,-1.22 0.56,0 0.84,0.32 0.84,0.98 0,1.26 -1.49,2.85 -4.45,4.77 -2.98,1.91 -5.89,2.87 -8.74,2.87zm26.31 -0.18c-2.27,0 -4.15,-0.86 -5.63,-2.58 -1.48,-1.73 -2.22,-3.86 -2.22,-6.4 0,-4.28 1.44,-8.51 4.33,-12.66 2.87,-4.16 6.32,-6.24 10.34,-6.24 2.65,0 4.81,1.02 6.46,3.07 1.65,2.04 2.48,4.47 2.48,7.29 0,4.32 -1.71,8.31 -5.11,12 -3.42,3.69 -6.96,5.52 -10.65,5.52zm-3.46 -9.63c0,1.67 0.35,3.04 1.05,4.11 0.7,1.06 1.64,1.6 2.8,1.6 2.47,0 4.95,-1.36 7.45,-4.07 2.49,-2.72 3.73,-5.74 3.73,-9.05 0,-2.05 -0.47,-3.7 -1.43,-4.97 -0.95,-1.27 -2.23,-1.91 -3.85,-1.91 -2.67,0 -4.96,1.64 -6.88,4.92 -1.91,3.27 -2.87,6.4 -2.87,9.37zm43.83 -11.3c-1.55,0.03 -4.85,4.61 -9.91,13.71 -1.72,3.07 -2.71,4.74 -2.99,5.01 -0.28,0.27 -0.8,0.52 -1.56,0.74 -0.76,0.21 -1.39,0.32 -1.88,0.32 -1.11,0 -1.67,-2.17 -1.67,-6.5 0,-2.44 0.53,-6.86 1.57,-13.25 0.43,-2.58 0.65,-4.43 0.65,-5.55 0,-1.1 0.49,-1.64 1.47,-1.64 1.84,0 2.76,1.33 2.76,3.98 0,1.25 -0.31,3.69 -0.92,7.32 -0.71,4.15 -1.08,6.67 -1.1,7.56 1.03,-0.99 2.54,-3.18 4.53,-6.54 2.82,-4.61 4.9,-7.54 6.24,-8.78 1.33,-1.23 2.72,-1.85 4.15,-1.85 1.08,0 1.94,0.72 2.58,2.17 0.64,1.45 1.03,4.89 1.16,10.33 0.03,1.36 0.16,2.37 0.37,3.04 0.22,0.66 0.38,0.99 0.48,0.99 0.78,0 2.47,-2.65 5.08,-7.96 1.39,-2.8 2.74,-4.94 4.07,-6.4 1.32,-1.46 2.78,-2.19 4.39,-2.19 1.34,0 2.32,0.69 2.93,2.08 0.62,1.39 1.05,3.43 1.32,6.16 0.25,2.75 0.63,5.28 1.16,7.56 0.52,2.29 1.48,3.76 2.87,4.41 0.95,0.45 1.42,0.97 1.42,1.57 0,0.58 -0.4,1.17 -1.19,1.78 -0.8,0.62 -1.53,0.93 -2.19,0.93 -1.33,0 -2.52,-0.82 -3.56,-2.44 -1.05,-1.63 -1.83,-5.15 -2.36,-10.55 -0.24,-2.18 -0.46,-3.72 -0.68,-4.63 -0.21,-0.92 -0.55,-1.38 -1.02,-1.38 -0.69,0 -1.52,0.67 -2.47,2 -0.96,1.33 -2.5,4.03 -4.62,8.09 -1.66,3.17 -2.92,5.29 -3.77,6.34 -0.85,1.05 -1.67,1.58 -2.47,1.58 -0.71,0 -1.35,-0.29 -1.92,-0.86 -0.56,-0.58 -0.92,-1.27 -1.07,-2.07 -0.14,-0.8 -0.31,-2.78 -0.47,-5.93 -0.25,-5.24 -0.7,-8.3 -1.37,-9.16z"/>
   <g>
    <polygon class="fil1 str0" points="604.91,7.04 672.36,7.04 672.36,48.56 604.91,48.56 "/>
    <polyline class="fil1 str0" points="604.91,7.04 638.64,31.95 672.36,7.04 "/>
   </g>
  </g>
 </g>
</svg>
