<?xml version="1.0" encoding="UTF-8"?>
<!DOCTYPE svg PUBLIC "-//W3C//DTD SVG 1.1//EN" "http://www.w3.org/Graphics/SVG/1.1/DTD/svg11.dtd">
<!-- Creator: CorelDRAW 2020 -->
<svg xmlns="http://www.w3.org/2000/svg" xml:space="preserve" width="58mm" height="30mm" version="1.1" style="shape-rendering:geometricPrecision; text-rendering:geometricPrecision; image-rendering:optimizeQuality; fill-rule:evenodd; clip-rule:evenodd"
viewBox="0 0 2407.62 1245.32"
 xmlns:xlink="http://www.w3.org/1999/xlink"
 xmlns:xodm="http://www.corel.com/coreldraw/odm/2003">
 <defs>
  <style type="text/css">
   <![CDATA[
    .str0 {stroke:#858474;stroke-width:20.76;stroke-miterlimit:22.9256}
    .str1 {stroke:#858474;stroke-width:14.64;stroke-miterlimit:22.9256}
    .fil1 {fill:none}
    .fil0 {fill:#858474;fill-rule:nonzero}
   ]]>
  </style>
 </defs>
 <g id="Layer_x0020_1">
  <metadata id="CorelCorpID_0Corel-Layer"/>
  <g id="_1290970240">
   <g>
    <path class="fil0" d="M131.25 1065.68c15.97,-29.48 29.1,-44.22 39.45,-44.22 2.74,0 4.99,1.58 6.7,4.7 1.71,3.14 3.1,10.08 4.17,20.85 1.08,11.47 3.49,19.75 7.27,24.84 1.93,2.61 2.9,4.55 2.9,5.8 0,1.12 -0.64,2.15 -1.93,3.1 -1.27,0.94 -2.66,1.4 -4.11,1.4 -3.36,0 -6.31,-1.86 -8.9,-5.62 -2.57,-3.76 -4.22,-10.35 -4.94,-19.79 -0.73,-8.92 -1.52,-14.76 -2.33,-17.51 -0.81,-2.74 -2.15,-4.13 -4.04,-4.13 -4.5,0 -13.57,11.79 -27.21,35.34 -4.08,7.03 -7.09,11.64 -9.03,13.79 -1.93,2.18 -3.69,3.25 -5.27,3.25 -1.89,0 -3.47,-0.55 -4.77,-1.67 -1.27,-1.12 -1.93,-2.48 -1.93,-4.11 0,-1.21 0.35,-3.54 1.03,-6.97 5.29,-27.24 9.44,-54.19 12.5,-80.83 0.68,-6.22 1.78,-10.35 3.32,-12.41 1.52,-2.06 2.79,-3.1 3.82,-3.1 1.84,0 3.51,0.77 5.01,2.26 1.52,1.49 2.26,3.58 2.26,6.24 0,7.91 -1.93,18.73 -5.8,32.51 -1.89,6.81 -3.89,15.49 -5.97,25.99 -2.11,10.52 -3.16,17.02 -3.16,19.51 0,0.51 0.24,0.77 0.7,0.77l0.27 0zm98.14 -45.62c4.42,-0.35 8.59,-0.75 12.48,-1.23 3.86,-0.42 7.09,-0.64 9.66,-0.64 3.25,0 5.32,0.31 6.17,0.9 0.86,0.59 1.3,1.65 1.3,3.16 0,3.47 -2.44,5.36 -7.27,5.65 -6.24,0.39 -11.95,0.92 -17.2,1.63 -5.23,0.68 -8.04,1.25 -8.46,1.69 -0.39,0.46 -1.69,5.56 -3.89,15.31 -2.2,9.78 -3.3,16.1 -3.3,19.02 0,4.72 0.64,7.86 1.87,9.42 1.25,1.58 3.12,2.35 5.6,2.35 3.69,0 8.83,-2.77 15.4,-8.3 2.52,-2.26 4.48,-3.4 5.84,-3.4 1.85,0 2.77,0.99 2.77,2.96 0,3.1 -2.96,7.09 -8.92,11.99 -5.93,4.92 -12.02,7.38 -18.24,7.38 -10.39,0 -15.57,-6.13 -15.57,-18.34 0,-4.42 1.08,-11.27 3.2,-20.54 2.11,-9.22 3.16,-14.76 3.16,-16.6 0,-0.64 -0.53,-0.97 -1.54,-0.97l-6.7 0.59c-5.49,0 -8.24,-2.2 -8.24,-6.57 0,-2.48 1.25,-3.73 3.8,-3.73l13.25 0c0.9,0 1.69,-0.42 2.4,-1.23 0.68,-0.81 1.69,-3.54 3.01,-8.19 1.34,-4.66 2.52,-9.27 3.54,-13.82 1.03,-4.5 3.05,-6.74 6.06,-6.74 1.85,0 3.28,0.64 4.3,1.93 1.03,1.27 1.54,2.48 1.54,3.6 0,0.59 -0.77,3.67 -2.31,9.2l-3.74 13.51zm61.79 0c4.42,-0.35 8.59,-0.75 12.48,-1.23 3.86,-0.42 7.09,-0.64 9.66,-0.64 3.25,0 5.32,0.31 6.17,0.9 0.86,0.59 1.3,1.65 1.3,3.16 0,3.47 -2.44,5.36 -7.27,5.65 -6.24,0.39 -11.95,0.92 -17.2,1.63 -5.23,0.68 -8.04,1.25 -8.46,1.69 -0.39,0.46 -1.69,5.56 -3.89,15.31 -2.2,9.78 -3.3,16.1 -3.3,19.02 0,4.72 0.64,7.86 1.87,9.42 1.25,1.58 3.12,2.35 5.6,2.35 3.69,0 8.83,-2.77 15.4,-8.3 2.52,-2.26 4.48,-3.4 5.84,-3.4 1.85,0 2.77,0.99 2.77,2.96 0,3.1 -2.96,7.09 -8.92,11.99 -5.93,4.92 -12.02,7.38 -18.24,7.38 -10.39,0 -15.57,-6.13 -15.57,-18.34 0,-4.42 1.08,-11.27 3.2,-20.54 2.11,-9.22 3.16,-14.76 3.16,-16.6 0,-0.64 -0.53,-0.97 -1.54,-0.97l-6.7 0.59c-5.49,0 -8.24,-2.2 -8.24,-6.57 0,-2.48 1.25,-3.73 3.8,-3.73l13.25 0c0.9,0 1.69,-0.42 2.4,-1.23 0.68,-0.81 1.69,-3.54 3.01,-8.19 1.34,-4.66 2.52,-9.27 3.54,-13.82 1.03,-4.5 3.05,-6.74 6.06,-6.74 1.85,0 3.28,0.64 4.3,1.93 1.03,1.27 1.54,2.48 1.54,3.6 0,0.59 -0.77,3.67 -2.31,9.2l-3.74 13.51zm48.02 57.46c-2.11,7.73 -4.06,18.56 -5.91,32.51l-1.8 12.15c-0.31,1.71 -1.1,3.42 -2.4,5.12 -1.27,1.69 -2.46,2.55 -3.54,2.55 -1.34,0 -2.83,-0.68 -4.55,-2.02 -1.69,-1.36 -2.52,-2.44 -2.52,-3.25 0,-2.37 0.53,-5.62 1.6,-9.8 7.84,-31.7 11.77,-59.55 11.77,-83.52l-0.07 -5.4c-0.09,-4.64 0.73,-8.02 2.44,-10.1 1.74,-2.11 3.69,-3.16 5.93,-3.16 1.03,0 2.02,0.81 2.97,2.42 0.94,1.6 1.4,3.89 1.4,6.85 0,4.15 -0.42,9.2 -1.27,15.11 -1.12,7.47 -1.69,11.78 -1.74,12.87 6.39,-11.14 13.16,-19.85 20.32,-26.11 7.16,-6.26 13.82,-9.4 19.97,-9.4 4.33,0 7.97,1.62 10.96,4.85 2.99,3.25 4.48,7.27 4.48,12.08 0,13.97 -5.36,26.69 -16.1,38.09 -10.72,11.42 -21.18,17.11 -31.32,17.11 -2.55,0 -4.55,-0.64 -6.02,-1.91 -1.49,-1.3 -3.03,-3.64 -4.61,-7.03zm39.95 -51.8c-6.04,0 -13.53,5.67 -22.45,16.98 -8.92,11.33 -13.38,20.14 -13.38,26.45 0,1.56 0.88,3.05 2.64,4.5 1.76,1.47 3.98,2.2 6.68,2.2 6.15,0 13.2,-4.55 21.17,-13.62 7.99,-9.07 11.97,-17.97 11.97,-26.73 0,-3.14 -0.64,-5.54 -1.89,-7.25 -1.27,-1.69 -2.86,-2.53 -4.74,-2.53zm65.19 44.52c0,-2.79 -3.42,-5.95 -10.28,-9.51 -8.72,-4.48 -14.61,-8.04 -17.68,-10.72 -3.05,-2.68 -4.59,-5.69 -4.59,-8.99 0,-8.54 4.28,-15.62 12.83,-21.24 8.57,-5.62 15.55,-8.43 20.96,-8.43 3.47,0 5.99,0.61 7.55,1.8 1.56,1.21 2.35,3.3 2.35,6.26 0,1.32 -0.57,2.46 -1.71,3.41 -1.12,0.94 -2.02,1.4 -2.66,1.4 -0.48,0 -1.4,-0.31 -2.77,-0.97 -1.38,-0.59 -2.28,-0.9 -2.7,-0.9 -2.15,0 -6.5,1.58 -13.07,4.7 -6.57,3.14 -9.84,6.68 -9.84,10.63 0,2.4 1.17,4.57 3.47,6.53 2.33,1.96 6.48,4.35 12.48,7.18 4.86,2.31 8.72,4.79 11.62,7.43 2.9,2.64 4.35,5.73 4.35,9.29 0,6.57 -4.52,11.71 -13.57,15.42 -9.05,3.71 -17.7,5.56 -25.94,5.58 -6.94,-0.02 -10.41,-2.37 -10.41,-7.09 0,-1.63 0.77,-2.84 2.35,-3.6 1.56,-0.77 3.14,-1.17 4.72,-1.17 0.64,0 1.87,0.22 3.67,0.66 1.76,0.42 2.92,0.64 3.47,0.64 4.77,0 9.86,-0.79 15.31,-2.37 5.45,-1.6 8.83,-3.58 10.1,-5.93zm33.61 -34.29c-1.08,0 -2.22,-1.01 -3.45,-3.03 -1.23,-2.02 -1.84,-3.69 -1.84,-5.03 0,-0.59 0.68,-2.09 2.04,-4.46 1.34,-2.4 3.47,-3.58 6.39,-3.58 0.31,0 1.4,0.55 3.3,1.65 1.89,1.1 2.98,1.98 3.34,2.64 0.35,0.66 0.51,1.87 0.51,3.64 0,1.54 -0.88,3.28 -2.64,5.23 -1.76,1.96 -4.31,2.94 -7.65,2.94zm-0.26 47.73c-2.48,0 -4.16,-0.61 -4.99,-1.89 -0.83,-1.27 -1.25,-3.19 -1.25,-5.76 0,-2.11 0.09,-3.67 0.26,-4.7 0.15,-1.03 1.01,-2.11 2.57,-3.25 1.54,-1.14 2.86,-1.71 3.91,-1.71 2.02,0 3.93,0.44 5.73,1.32 1.8,0.88 2.7,2.18 2.7,3.84 0,3.56 -1.34,6.48 -4.02,8.75 -2.68,2.28 -4.33,3.4 -4.92,3.4zm24.84 9.73c-1.08,0 -2.18,-0.57 -3.3,-1.67 -1.1,-1.12 -1.67,-2.24 -1.67,-3.36 0,-0.77 1.05,-3.38 3.19,-7.84 2.13,-4.46 5.49,-10.22 10.1,-17.29 4.61,-7.05 8.81,-13.09 12.59,-18.12 0.37,-0.51 0.7,-0.97 0.97,-1.41 2.74,-4.46 6.77,-10.54 12.1,-18.27 5.74,-8.19 10.83,-15.97 15.25,-23.31 2.06,-3.38 4.81,-7.33 8.24,-11.86 3.43,-4.52 5.91,-6.79 7.41,-6.79 0.86,0 1.93,0.77 3.2,2.31 1.3,1.56 1.93,2.79 1.93,3.74 0,1.67 -2.92,6.52 -8.74,14.54 -12.61,17.22 -24.71,34.46 -36.31,51.75 -1.41,2.11 -3.41,4.99 -5.98,8.68 -4.28,6.35 -6.89,10.66 -7.84,12.87 -0.94,2.24 -2.88,5.47 -5.78,9.69 -2.9,4.24 -4.68,6.35 -5.36,6.35zm75.81 0c-1.08,0 -2.18,-0.57 -3.3,-1.67 -1.1,-1.12 -1.67,-2.24 -1.67,-3.36 0,-0.77 1.05,-3.38 3.19,-7.84 2.13,-4.46 5.49,-10.22 10.1,-17.29 4.61,-7.05 8.81,-13.09 12.59,-18.12 0.37,-0.51 0.7,-0.97 0.97,-1.41 2.74,-4.46 6.77,-10.54 12.1,-18.27 5.74,-8.19 10.83,-15.97 15.25,-23.31 2.06,-3.38 4.81,-7.33 8.24,-11.86 3.43,-4.52 5.91,-6.79 7.41,-6.79 0.86,0 1.93,0.77 3.2,2.31 1.3,1.56 1.93,2.79 1.93,3.74 0,1.67 -2.92,6.52 -8.74,14.54 -12.61,17.22 -24.71,34.46 -36.31,51.75 -1.41,2.11 -3.41,4.99 -5.98,8.68 -4.28,6.35 -6.89,10.66 -7.84,12.87 -0.94,2.24 -2.88,5.47 -5.78,9.69 -2.9,4.24 -4.68,6.35 -5.36,6.35zm124.7 -29.41c-0.2,-0.09 -0.77,0.37 -1.67,1.41 -5.99,6.65 -11.73,11.66 -17.18,15.03 -5.45,3.38 -10.63,5.05 -15.57,5.05 -3.95,0 -7.09,-1.65 -9.46,-4.99 -2.35,-3.32 -3.54,-7.55 -3.54,-12.69 0,-11.69 5.36,-23.9 16.1,-36.66 10.72,-12.76 21.55,-19.13 32.49,-19.13 4.04,0 6.61,2.31 7.73,6.94 0.37,1.39 1.21,2.18 2.5,2.4 4,0.92 5.97,3.12 5.97,6.55 0,2.46 -1.01,7.71 -3.01,15.77 -1.43,5.62 -3.58,16.17 -6.5,31.68 -2.92,15.49 -4.48,26.97 -4.7,34.49 -0.17,4.96 -0.33,8.35 -0.46,10.1 -0.13,1.76 -0.86,3.14 -2.22,4.17 -1.34,1.03 -2.96,1.56 -4.86,1.56 -1.8,0 -3.2,-0.7 -4.24,-2.11 -1.03,-1.38 -1.56,-3.14 -1.56,-5.23 0,-1.34 0.71,-5.89 2.07,-13.69 1.38,-7.77 2.86,-15.18 4.44,-22.16 1.84,-8.46 3.08,-14.61 3.67,-18.48zm4.96 -30.82c0,-6.7 -2.54,-10.04 -7.66,-10.04 -6.26,0 -13.51,5.12 -21.75,15.4 -8.24,10.28 -12.37,19.71 -12.37,28.29 0,5.27 1.76,7.91 5.23,7.91 6.48,0 14.19,-4.81 23.13,-14.45 8.94,-9.62 13.42,-18.67 13.42,-27.11zm69.68 28.38c-6,8.06 -11.95,14.1 -17.82,18.14 -5.89,4.02 -11.27,6.04 -16.17,6.04 -3.29,0 -6.15,-1.38 -8.54,-4.17 -2.42,-2.79 -3.6,-6.37 -3.6,-10.76 0,-11.27 5.03,-23.42 15.11,-36.44 10.08,-13.03 20.1,-19.53 30.05,-19.53 3.6,0 6.28,2.04 8.06,6.17 0.55,1.36 1.43,2.06 2.64,2.06 3.42,0 5.14,1.32 5.14,3.98 0,1.34 -0.22,3.16 -0.64,5.47 -2.33,12.65 -3.47,21.59 -3.47,26.78 0,10.39 1.96,16.61 5.91,18.67 1.89,1.03 2.84,2.28 2.84,3.78 0,1.34 -0.93,2.68 -2.77,4.04 -1.85,1.34 -3.62,2.02 -5.34,2.02 -3.32,0 -6.04,-2.29 -8.17,-6.83 -2.15,-4.55 -3.23,-11.03 -3.23,-19.42zm-3.91 -36.24c-5.67,0 -12.26,5.31 -19.77,15.92 -7.51,10.63 -11.27,19.44 -11.27,26.43 0,4.92 1.65,7.4 4.9,7.4 4.72,0 11.27,-4.77 19.63,-14.3 8.37,-9.51 12.54,-18.28 12.54,-26.25 0,-6.13 -2.02,-9.2 -6.04,-9.2zm60.41 -49.29c3.1,0 4.63,1.98 4.63,5.93 0,3.52 -1.87,11.88 -5.6,25.08 -2.35,8.33 -4.18,17.51 -5.47,27.55 -1.3,10.04 -1.93,17.9 -1.93,23.61 0,7.07 0.46,14.13 1.36,21.11 0.17,1.34 0.24,2.3 0.24,2.9 0,2.15 -0.73,4 -2.18,5.54 -1.47,1.54 -3.01,2.3 -4.64,2.3 -2.28,0 -3.84,-1.4 -4.72,-4.24 -0.88,-2.84 -1.32,-7.4 -1.32,-13.71 0,-14.37 1.71,-32.18 5.16,-53.42 3.47,-21.22 6.21,-33.65 8.24,-37.26 2.04,-3.6 4.11,-5.4 6.22,-5.4zm27.61 101.49c-2.11,7.73 -4.06,18.56 -5.91,32.51l-1.8 12.15c-0.31,1.71 -1.1,3.42 -2.4,5.12 -1.27,1.69 -2.46,2.55 -3.54,2.55 -1.34,0 -2.83,-0.68 -4.55,-2.02 -1.69,-1.36 -2.52,-2.44 -2.52,-3.25 0,-2.37 0.53,-5.62 1.6,-9.8 7.84,-31.7 11.77,-59.55 11.77,-83.52l-0.07 -5.4c-0.09,-4.64 0.73,-8.02 2.44,-10.1 1.74,-2.11 3.69,-3.16 5.93,-3.16 1.03,0 2.02,0.81 2.97,2.42 0.94,1.6 1.4,3.89 1.4,6.85 0,4.15 -0.42,9.2 -1.27,15.11 -1.12,7.47 -1.69,11.78 -1.74,12.87 6.39,-11.14 13.16,-19.85 20.32,-26.11 7.16,-6.26 13.82,-9.4 19.97,-9.4 4.33,0 7.97,1.62 10.96,4.85 2.99,3.25 4.48,7.27 4.48,12.08 0,13.97 -5.36,26.69 -16.1,38.09 -10.72,11.42 -21.18,17.11 -31.32,17.11 -2.55,0 -4.55,-0.64 -6.02,-1.91 -1.49,-1.3 -3.03,-3.64 -4.61,-7.03zm39.95 -51.8c-6.04,0 -13.53,5.67 -22.45,16.98 -8.92,11.33 -13.38,20.14 -13.38,26.45 0,1.56 0.88,3.05 2.64,4.5 1.76,1.47 3.98,2.2 6.68,2.2 6.15,0 13.2,-4.55 21.17,-13.62 7.99,-9.07 11.97,-17.97 11.97,-26.73 0,-3.14 -0.64,-5.54 -1.89,-7.25 -1.27,-1.69 -2.86,-2.53 -4.74,-2.53zm76.2 35.85c-6,8.06 -11.95,14.1 -17.82,18.14 -5.89,4.02 -11.27,6.04 -16.17,6.04 -3.29,0 -6.15,-1.38 -8.54,-4.17 -2.42,-2.79 -3.6,-6.37 -3.6,-10.76 0,-11.27 5.03,-23.42 15.11,-36.44 10.08,-13.03 20.1,-19.53 30.05,-19.53 3.6,0 6.28,2.04 8.06,6.17 0.55,1.36 1.43,2.06 2.64,2.06 3.42,0 5.14,1.32 5.14,3.98 0,1.34 -0.22,3.16 -0.64,5.47 -2.33,12.65 -3.47,21.59 -3.47,26.78 0,10.39 1.96,16.61 5.91,18.67 1.89,1.03 2.84,2.28 2.84,3.78 0,1.34 -0.93,2.68 -2.77,4.04 -1.85,1.34 -3.62,2.02 -5.34,2.02 -3.32,0 -6.04,-2.29 -8.17,-6.83 -2.15,-4.55 -3.23,-11.03 -3.23,-19.42zm-3.91 -36.24c-5.67,0 -12.26,5.31 -19.77,15.92 -7.51,10.63 -11.27,19.44 -11.27,26.43 0,4.92 1.65,7.4 4.9,7.4 4.72,0 11.27,-4.77 19.63,-14.3 8.37,-9.51 12.54,-18.28 12.54,-26.25 0,-6.13 -2.02,-9.2 -6.04,-9.2zm81.71 10.17c-2.24,0 -4.68,1.45 -7.31,4.37 -2.64,2.92 -6.66,9.47 -12.06,19.64 -7.11,13.64 -11.73,21.39 -13.79,23.28 -2.08,1.89 -3.82,2.83 -5.18,2.83 -5.07,0 -7.6,-2.44 -7.6,-7.33 0,-2.04 0.35,-4.96 1.03,-8.74 2.35,-12.96 3.54,-26.63 3.54,-40.99 0,-1.65 0.7,-3.45 2.09,-5.45 1.41,-2 2.72,-2.98 3.95,-2.98 2.24,0 3.82,0.68 4.77,2.06 0.94,1.36 1.43,4.13 1.43,8.3 0,4.33 -1.3,13.25 -3.87,26.76 -0.86,4.46 -1.3,7.29 -1.3,8.5 0,0.68 0.17,1.03 0.53,1.03 0.64,0 3.62,-5.14 8.94,-15.38 5.36,-10.44 10.06,-17.77 14.08,-22.01 4.04,-4.26 8.48,-6.37 13.33,-6.37 3.86,0 7.01,1.76 9.42,5.27 2.42,3.52 4.2,9.93 5.31,19.24 1.21,10.59 2.29,17.2 3.25,19.79 0.96,2.59 2.5,3.89 4.59,3.89 1.34,0 3.01,-0.46 5.03,-1.41 0.33,-0.17 0.59,-0.26 0.77,-0.26 1.84,0 2.76,1.08 2.76,3.21 0,1.89 -1.27,3.91 -3.8,6.01 -2.53,2.13 -5.58,3.19 -9.14,3.19 -3.65,0 -6.46,-1.45 -8.46,-4.33 -2,-2.9 -3.58,-10.63 -4.74,-23.22 -1.18,-12.61 -3.71,-18.91 -7.58,-18.91zm52.85 31.72l1.41 0c0.77,0 1.69,0.37 2.76,1.14 1.08,0.75 1.61,1.76 1.61,3.06 0,2.57 -0.44,4.46 -1.34,5.67 -0.9,1.19 -2.35,2.53 -4.35,3.98 -2,1.47 -3.4,2.2 -4.22,2.2 -1.8,0 -3.14,-0.42 -4,-1.23 -0.86,-0.81 -1.27,-3.03 -1.27,-6.7 0,-3.38 0.2,-5.4 0.57,-6.04 0.39,-0.64 1.32,-1.14 2.81,-1.52 1.47,-0.35 3.47,-0.55 6.02,-0.55zm69.3 -5.53c-0.51,-0.37 -1.96,0.83 -4.3,3.6 -3.91,4.59 -8.9,8.68 -14.96,12.24 -6.09,3.56 -11.71,5.34 -16.89,5.34 -3.87,0 -6.9,-1.21 -9.1,-3.62 -2.18,-2.44 -3.27,-5.78 -3.27,-10.08 0,-6.63 2.5,-14.06 7.53,-22.23 5.01,-8.17 12.03,-15.31 21.06,-21.4 9.03,-6.08 16.94,-9.14 23.72,-9.14 3.56,0 6.7,1.03 9.4,3.1 0.64,0.51 1.19,0.92 1.67,1.27 0.77,0.57 1.49,1.69 2.18,3.38 0.7,1.69 1.03,3.06 1.03,4.08 0,0.64 -0.24,1.63 -0.7,2.97 -2.62,7.11 -4.4,13.03 -5.34,17.68 -0.95,4.68 -1.98,12.57 -3.1,23.64 -1.03,9.95 -2.13,17.6 -3.34,22.98 -1.21,5.36 -3.36,10.54 -6.5,15.55 -3.14,5.03 -6.9,8.79 -11.27,11.31 -4.37,2.5 -8.88,3.76 -13.51,3.76 -8.02,0 -15.95,-2.77 -23.74,-8.3 -7.8,-5.54 -11.71,-9.98 -11.71,-13.31 0,-2.11 0.79,-3.16 2.37,-3.16 0.77,0 3.07,1.27 6.89,3.8 10.08,6.75 19.16,10.11 27.22,10.11 7.03,0 12.39,-3.76 16.06,-11.27 3.67,-7.51 6.17,-18.71 7.49,-33.65 0.31,-3.38 0.66,-6.26 1.1,-8.63zm-0.13 -35.32c-3.64,0 -8.19,1.89 -13.66,5.67 -5.47,3.78 -10.79,9.31 -15.95,16.6 -5.14,7.29 -7.71,13.4 -7.71,18.34 0,1.67 0.53,2.98 1.58,3.95 1.05,0.97 2.22,1.45 3.49,1.45 3.82,0 8.81,-1.98 14.96,-5.93 6.17,-3.93 11.47,-9.42 15.9,-16.43 4.44,-7.03 6.65,-12.52 6.65,-16.52 0,-4.77 -1.76,-7.14 -5.27,-7.14zm51.03 -27.55c-0.9,0 -1.58,-0.97 -2.07,-2.9 -0.17,-0.59 -0.39,-1.25 -0.7,-2 -1.16,-2.77 -1.74,-5.21 -1.74,-7.27 0,-1.71 1.01,-3.45 3.06,-5.23 2.04,-1.78 4.3,-2.68 6.79,-2.68 1.25,0 2.64,0.49 4.19,1.45 1.54,0.97 2.31,1.89 2.31,2.79 0,1.43 -0.53,3.82 -1.58,7.23 -1.05,3.38 -2.72,5.67 -5.01,6.85 -2.31,1.17 -4.04,1.76 -5.25,1.76zm-8.43 71.89c0,3.25 0.46,6.92 1.36,11.01 0.17,0.77 0.24,1.4 0.24,1.91 0,0.79 -0.7,1.78 -2.11,3.01 -1.43,1.21 -2.92,1.82 -4.5,1.82 -4.17,0 -6.24,-3.82 -6.24,-11.44 0,-7.91 1.63,-20.39 4.88,-37.45 1.12,-5.98 1.67,-9.64 1.67,-11 0,-2.7 0.51,-5.01 1.49,-6.92 0.99,-1.91 2.37,-2.88 4.18,-2.88 2.2,0 3.91,0.53 5.18,1.58 1.27,1.05 1.89,2.22 1.89,3.51 0,1.27 -0.29,2.99 -0.9,5.08 -3.21,11.33 -5.21,19.44 -5.98,24.34 -0.77,4.88 -1.16,10.7 -1.16,17.44zm51.99 -50.65c4.42,-0.35 8.59,-0.75 12.48,-1.23 3.86,-0.42 7.09,-0.64 9.66,-0.64 3.25,0 5.32,0.31 6.17,0.9 0.86,0.59 1.3,1.65 1.3,3.16 0,3.47 -2.44,5.36 -7.27,5.65 -6.24,0.39 -11.95,0.92 -17.2,1.63 -5.23,0.68 -8.04,1.25 -8.46,1.69 -0.39,0.46 -1.69,5.56 -3.89,15.31 -2.2,9.78 -3.3,16.1 -3.3,19.02 0,4.72 0.64,7.86 1.87,9.42 1.25,1.58 3.12,2.35 5.6,2.35 3.69,0 8.83,-2.77 15.4,-8.3 2.52,-2.26 4.48,-3.4 5.84,-3.4 1.85,0 2.77,0.99 2.77,2.96 0,3.1 -2.96,7.09 -8.92,11.99 -5.93,4.92 -12.02,7.38 -18.24,7.38 -10.39,0 -15.57,-6.13 -15.57,-18.34 0,-4.42 1.08,-11.27 3.2,-20.54 2.11,-9.22 3.16,-14.76 3.16,-16.6 0,-0.64 -0.53,-0.97 -1.54,-0.97l-6.7 0.59c-5.49,0 -8.24,-2.2 -8.24,-6.57 0,-2.48 1.25,-3.73 3.8,-3.73l13.25 0c0.9,0 1.69,-0.42 2.4,-1.23 0.68,-0.81 1.69,-3.54 3.01,-8.19 1.34,-4.66 2.52,-9.27 3.54,-13.82 1.03,-4.5 3.05,-6.74 6.06,-6.74 1.85,0 3.28,0.64 4.3,1.93 1.03,1.27 1.54,2.48 1.54,3.6 0,0.59 -0.77,3.67 -2.31,9.2l-3.74 13.51zm46.15 45.62c15.97,-29.48 29.1,-44.22 39.45,-44.22 2.74,0 4.99,1.58 6.7,4.7 1.71,3.14 3.1,10.08 4.17,20.85 1.08,11.47 3.49,19.75 7.27,24.84 1.93,2.61 2.9,4.55 2.9,5.8 0,1.12 -0.64,2.15 -1.93,3.1 -1.27,0.94 -2.66,1.4 -4.11,1.4 -3.36,0 -6.31,-1.86 -8.9,-5.62 -2.57,-3.76 -4.22,-10.35 -4.94,-19.79 -0.73,-8.92 -1.52,-14.76 -2.33,-17.51 -0.81,-2.74 -2.15,-4.13 -4.04,-4.13 -4.5,0 -13.57,11.79 -27.21,35.34 -4.08,7.03 -7.09,11.64 -9.03,13.79 -1.93,2.18 -3.69,3.25 -5.27,3.25 -1.89,0 -3.47,-0.55 -4.77,-1.67 -1.27,-1.12 -1.93,-2.48 -1.93,-4.11 0,-1.21 0.35,-3.54 1.03,-6.97 5.29,-27.24 9.44,-54.19 12.5,-80.83 0.68,-6.22 1.78,-10.35 3.32,-12.41 1.52,-2.06 2.79,-3.1 3.82,-3.1 1.84,0 3.51,0.77 5.01,2.26 1.52,1.49 2.26,3.58 2.26,6.24 0,7.91 -1.93,18.73 -5.8,32.51 -1.89,6.81 -3.89,15.49 -5.97,25.99 -2.11,10.52 -3.16,17.02 -3.16,19.51 0,0.51 0.24,0.77 0.7,0.77l0.27 0zm117.39 -8.68c-5.49,9.21 -11.12,16.37 -16.87,21.42 -5.73,5.07 -11.07,7.6 -16.01,7.6 -2.83,0 -5.71,-1.65 -8.65,-4.96 -2.94,-3.3 -4.41,-8.39 -4.41,-15.25 0,-5.62 1.36,-13.9 4.06,-24.84 2.26,-9.14 3.4,-15.55 3.4,-19.24 1.25,-2.57 3.21,-3.86 5.87,-3.86 1.8,0 3.23,0.64 4.3,1.91 1.08,1.25 1.6,2.57 1.6,3.96 0,3.01 -1.05,7.27 -3.14,12.81 -4,10.76 -6,20.01 -6,27.74 0,7.03 1.63,10.54 4.9,10.54 4.15,0 9.47,-3.54 15.88,-10.61 6.43,-7.09 11.95,-16.96 16.54,-29.61 1.8,-5.05 3.28,-8.35 4.42,-9.88 1.14,-1.52 2.68,-2.29 4.61,-2.29 2.9,0 4.37,1.93 4.37,5.8 0,0.46 -0.42,2.04 -1.23,4.7 -2.57,9.4 -3.86,18.27 -3.86,26.65 0,10.04 1.67,16.54 4.96,19.48 1.71,1.61 2.57,2.88 2.57,3.87 0,1.21 -0.86,2.3 -2.62,3.29 -1.74,0.99 -3.3,1.47 -4.72,1.47 -3.01,0 -5.43,-2.24 -7.27,-6.7 -1.85,-4.46 -2.77,-11.05 -2.77,-19.75l0 -2.13c0,-0.68 0.02,-1.38 0.07,-2.11z"/>
    <path class="fil0" d="M1482.63 1048.37c5.49,-10 12.06,-18.1 19.68,-24.3 7.65,-6.19 14.52,-9.29 20.67,-9.29 3.38,0 6.26,1.56 8.61,4.7 2.37,3.12 3.54,6.94 3.54,11.44 0,13.33 -5.03,25.85 -15.09,37.56 -10.06,11.69 -20.67,17.53 -31.87,17.53 -3.06,0 -5.84,-0.83 -8.41,-2.48 -2.55,-1.65 -3.98,-3.72 -4.26,-6.22 -0.17,-2 -0.77,-3.51 -1.74,-4.5 -1.84,-1.84 -2.76,-3.82 -2.76,-5.91 0,-3.91 1.05,-12.26 3.2,-25.04l6.63 -38.48c2.26,-12.91 3.93,-20.89 4.99,-23.94 1.05,-3.03 2.22,-5.08 3.52,-6.11 1.27,-1.03 2.86,-1.54 4.74,-1.54 3.01,0 4.5,2.59 4.5,7.77 0,4.94 -1.65,11.84 -4.94,20.74 -3.18,8.52 -6.85,24.56 -11,48.06zm-1.56 21.44c2.24,4.16 4.94,6.24 8.13,6.24 4.88,0 10.06,-2.04 15.51,-6.09 5.45,-4.06 10.15,-9.75 14.13,-17.11 3.95,-7.36 5.95,-13.57 5.95,-18.65 0,-2.26 -0.42,-4.22 -1.23,-5.84 -0.81,-1.63 -1.84,-2.46 -3.1,-2.46 -5.95,0 -13.25,4.9 -21.83,14.65 -8.61,9.75 -14.45,19.51 -17.55,29.26zm75.77 -2.59l1.41 0c0.77,0 1.69,0.37 2.76,1.14 1.08,0.75 1.61,1.76 1.61,3.06 0,2.57 -0.44,4.46 -1.34,5.67 -0.9,1.19 -2.35,2.53 -4.35,3.98 -2,1.47 -3.4,2.2 -4.22,2.2 -1.8,0 -3.14,-0.42 -4,-1.23 -0.86,-0.81 -1.27,-3.03 -1.27,-6.7 0,-3.38 0.2,-5.4 0.57,-6.04 0.39,-0.64 1.32,-1.14 2.81,-1.52 1.47,-0.35 3.47,-0.55 6.02,-0.55zm44.52 -68.4c-0.9,0 -1.58,-0.97 -2.07,-2.9 -0.17,-0.59 -0.39,-1.25 -0.7,-2 -1.16,-2.77 -1.74,-5.21 -1.74,-7.27 0,-1.71 1.01,-3.45 3.06,-5.23 2.04,-1.78 4.3,-2.68 6.79,-2.68 1.25,0 2.64,0.49 4.19,1.45 1.54,0.97 2.31,1.89 2.31,2.79 0,1.43 -0.53,3.82 -1.58,7.23 -1.05,3.38 -2.72,5.67 -5.01,6.85 -2.31,1.17 -4.04,1.76 -5.25,1.76zm-8.43 71.89c0,3.25 0.46,6.92 1.36,11.01 0.17,0.77 0.24,1.4 0.24,1.91 0,0.79 -0.7,1.78 -2.11,3.01 -1.43,1.21 -2.92,1.82 -4.5,1.82 -4.17,0 -6.24,-3.82 -6.24,-11.44 0,-7.91 1.63,-20.39 4.88,-37.45 1.12,-5.98 1.67,-9.64 1.67,-11 0,-2.7 0.51,-5.01 1.49,-6.92 0.99,-1.91 2.37,-2.88 4.18,-2.88 2.2,0 3.91,0.53 5.18,1.58 1.27,1.05 1.89,2.22 1.89,3.51 0,1.27 -0.29,2.99 -0.9,5.08 -3.21,11.33 -5.21,19.44 -5.98,24.34 -0.77,4.88 -1.16,10.7 -1.16,17.44zm44.59 17.49c-5.87,0 -10.72,-2.22 -14.54,-6.68 -3.82,-4.46 -5.73,-9.98 -5.73,-16.54 0,-11.07 3.74,-21.99 11.18,-32.73 7.43,-10.74 16.34,-16.12 26.73,-16.12 6.85,0 12.43,2.64 16.7,7.93 4.26,5.27 6.41,11.55 6.41,18.85 0,11.16 -4.41,21.48 -13.22,31.02 -8.83,9.54 -17.99,14.28 -27.53,14.28zm-8.94 -24.89c0,4.33 0.9,7.87 2.73,10.61 1.82,2.74 4.24,4.13 7.25,4.13 6.39,0 12.81,-3.52 19.24,-10.52 6.44,-7.03 9.64,-14.83 9.64,-23.4 0,-5.29 -1.23,-9.55 -3.69,-12.85 -2.46,-3.28 -5.77,-4.92 -9.95,-4.92 -6.89,0 -12.83,4.24 -17.79,12.71 -4.94,8.46 -7.43,16.54 -7.43,24.23zm60.06 30.12c-1.08,0 -2.18,-0.57 -3.3,-1.67 -1.1,-1.12 -1.67,-2.24 -1.67,-3.36 0,-0.77 1.05,-3.38 3.19,-7.84 2.13,-4.46 5.49,-10.22 10.1,-17.29 4.61,-7.05 8.81,-13.09 12.59,-18.12 0.37,-0.51 0.7,-0.97 0.97,-1.41 2.74,-4.46 6.77,-10.54 12.1,-18.27 5.74,-8.19 10.83,-15.97 15.25,-23.31 2.06,-3.38 4.81,-7.33 8.24,-11.86 3.43,-4.52 5.91,-6.79 7.41,-6.79 0.86,0 1.93,0.77 3.2,2.31 1.3,1.56 1.93,2.79 1.93,3.74 0,1.67 -2.92,6.52 -8.74,14.54 -12.61,17.22 -24.71,34.46 -36.31,51.75 -1.41,2.11 -3.41,4.99 -5.98,8.68 -4.28,6.35 -6.89,10.66 -7.84,12.87 -0.94,2.24 -2.88,5.47 -5.78,9.69 -2.9,4.24 -4.68,6.35 -5.36,6.35zm92.92 -38.48c0.55,-0.73 4.4,-4.2 11.51,-10.37 6.75,-5.87 11.44,-10.15 14.11,-12.81 9.9,-9.9 17.02,-14.87 21.37,-14.87 3.34,0 5.01,1.62 5.01,4.83 0,3.64 -1.65,6.33 -4.94,8.04 -4.3,2.2 -10.02,5.82 -17.2,10.92 -7.16,5.07 -10.74,8.68 -10.74,10.78 0,0.86 2.53,4.06 7.6,9.62 5.05,5.55 9.45,9.64 13.11,12.28 3.69,2.64 7.29,3.95 10.76,3.95l2.11 -0.07c1.52,-0.09 2.26,0.59 2.26,2 0,1.89 -1.19,3.82 -3.54,5.75 -2.37,1.96 -5.47,2.94 -9.34,2.94 -2.48,0 -5.01,-0.88 -7.55,-2.61 -2.55,-1.74 -7.09,-6.42 -13.62,-14.06 -5.18,-6.31 -8.43,-10.08 -9.71,-11.29 -1.3,-1.23 -2.37,-1.84 -3.23,-1.84 -0.46,0 -1.98,1.12 -4.5,3.36 -2.53,2.22 -3.91,3.91 -4.16,5.08 -0.22,1.16 -0.35,5.58 -0.35,13.27l0 3.01c0,1.6 -0.75,3.01 -2.24,4.26 -1.52,1.23 -3.14,1.87 -4.9,1.87 -1.8,0 -3.21,-0.53 -4.24,-1.58 -1.03,-1.05 -1.56,-2.13 -1.56,-3.25 0,-1.54 0.59,-5.18 1.74,-10.94 1.65,-8.28 3.14,-19.38 4.5,-33.28 3.18,-32.82 5.62,-51.38 7.33,-55.69 1.74,-4.33 4.18,-6.48 7.34,-6.48 1.12,0 2.06,0.59 2.81,1.8 0.75,1.21 1.12,2.75 1.12,4.64 0,3.42 -1.47,12.54 -4.44,27.35 -2.96,14.85 -5.1,29.3 -6.44,43.38zm84.24 33.26c-5.87,0 -10.72,-2.22 -14.54,-6.68 -3.82,-4.46 -5.73,-9.98 -5.73,-16.54 0,-11.07 3.74,-21.99 11.18,-32.73 7.43,-10.74 16.34,-16.12 26.73,-16.12 6.85,0 12.43,2.64 16.7,7.93 4.26,5.27 6.41,11.55 6.41,18.85 0,11.16 -4.41,21.48 -13.22,31.02 -8.83,9.54 -17.99,14.28 -27.53,14.28zm-8.94 -24.89c0,4.33 0.9,7.87 2.73,10.61 1.82,2.74 4.24,4.13 7.25,4.13 6.39,0 12.81,-3.52 19.24,-10.52 6.44,-7.03 9.64,-14.83 9.64,-23.4 0,-5.29 -1.23,-9.55 -3.69,-12.85 -2.46,-3.28 -5.77,-4.92 -9.95,-4.92 -6.89,0 -12.83,4.24 -17.79,12.71 -4.94,8.46 -7.43,16.54 -7.43,24.23zm77.67 -3.86c0.44,-0.77 0.95,-1.85 1.56,-3.23 2.92,-6.68 5.6,-11.93 8.04,-15.73 2.44,-3.8 5.14,-7.43 8.08,-10.9 2.92,-3.49 5.62,-6.13 8.04,-7.93 2.42,-1.8 4.61,-3.05 6.59,-3.76 1.98,-0.7 3.89,-1.08 5.73,-1.08 3.74,0 6.77,1.14 9.14,3.38 2.35,2.26 3.54,4.88 3.54,7.89 0,1.34 -0.42,2.52 -1.25,3.6 -0.83,1.08 -2.11,1.61 -3.82,1.61 -1.8,0 -3.47,-0.79 -4.96,-2.37 -1.54,-1.58 -3.16,-2.37 -4.83,-2.37 -4.46,0 -10.63,5.4 -18.52,16.21 -7.91,10.81 -12.72,22.71 -14.43,35.72 -0.42,3.34 -1.23,5.56 -2.44,6.63 -1.21,1.05 -2.9,1.61 -5.07,1.61 -2.11,0 -3.62,-1.56 -4.57,-4.7 -0.94,-3.14 -1.43,-8.41 -1.43,-15.84 0,-2 0.11,-6.46 0.33,-13.31 0.24,-8.11 0.77,-14.65 1.54,-19.64 0.13,-0.81 0.35,-2.72 0.64,-5.71 0.31,-3.32 0.68,-5.6 1.14,-6.9 0.44,-1.27 1.36,-2.48 2.76,-3.6 1.39,-1.12 2.9,-1.67 4.53,-1.67 1.58,0 2.79,0.51 3.58,1.52 0.79,1.01 1.19,2.09 1.19,3.25 0,1.67 -0.44,4.02 -1.3,7.07 -0.99,3.38 -1.56,5.73 -1.74,7.01 -0.13,1.47 -0.35,2.99 -0.71,4.57 -0.44,1.84 -0.86,6.7 -1.3,14.54l-0.07 2.4 0 1.74zm104.01 -25.35c-4,0.09 -12.54,11.91 -25.61,35.45 -4.44,7.93 -7.01,12.26 -7.73,12.96 -0.72,0.7 -2.06,1.34 -4.02,1.91 -1.96,0.55 -3.58,0.84 -4.86,0.84 -2.88,0 -4.33,-5.6 -4.33,-16.81 0,-6.3 1.36,-17.73 4.06,-34.24 1.12,-6.68 1.67,-11.47 1.67,-14.35 0,-2.83 1.27,-4.24 3.8,-4.24 4.77,0 7.14,3.42 7.14,10.28 0,3.23 -0.79,9.54 -2.37,18.94 -1.85,10.72 -2.79,17.24 -2.84,19.55 2.66,-2.57 6.57,-8.21 11.71,-16.91 7.29,-11.93 12.67,-19.49 16.12,-22.69 3.45,-3.19 7.03,-4.79 10.72,-4.79 2.79,0 5.01,1.87 6.65,5.6 1.65,3.74 2.66,12.63 2.99,26.71 0.09,3.52 0.42,6.13 0.97,7.84 0.57,1.71 0.97,2.57 1.23,2.57 2.02,0 6.39,-6.85 13.14,-20.58 3.6,-7.25 7.09,-12.76 10.52,-16.54 3.41,-3.78 7.19,-5.67 11.36,-5.67 3.47,0 6,1.8 7.58,5.38 1.6,3.58 2.72,8.87 3.42,15.92 0.64,7.11 1.63,13.64 2.99,19.55 1.34,5.93 3.82,9.73 7.43,11.4 2.46,1.16 3.67,2.5 3.67,4.06 0,1.49 -1.03,3.03 -3.08,4.61 -2.06,1.6 -3.95,2.4 -5.67,2.4 -3.45,0 -6.5,-2.11 -9.2,-6.31 -2.7,-4.22 -4.74,-13.31 -6.11,-27.28 -0.61,-5.62 -1.19,-9.62 -1.76,-11.97 -0.55,-2.37 -1.43,-3.56 -2.64,-3.56 -1.8,0 -3.94,1.74 -6.39,5.16 -2.48,3.43 -6.46,10.42 -11.95,20.91 -4.28,8.19 -7.53,13.66 -9.76,16.39 -2.2,2.72 -4.33,4.08 -6.39,4.08 -1.85,0 -3.5,-0.75 -4.96,-2.22 -1.45,-1.49 -2.37,-3.27 -2.77,-5.36 -0.37,-2.06 -0.79,-7.18 -1.21,-15.33 -0.66,-13.55 -1.82,-21.46 -3.54,-23.68zm141.95 29.08c0,4.37 -3.86,9.64 -11.6,15.84 -7.75,6.17 -15.75,9.24 -23.99,9.24 -6.89,0 -12.23,-2.02 -15.99,-6.11 -3.76,-4.06 -5.62,-9.75 -5.62,-17.04 0,-12.28 4.13,-23.94 12.41,-35.01 8.28,-11.07 17.36,-16.6 27.17,-16.6 3.21,0 5.84,1.05 7.89,3.16 2.02,2.08 3.05,4.63 3.05,7.58 0,6.61 -3.25,12.94 -9.73,19 -6.48,6.04 -15.13,11.99 -25.99,17.81 -2.24,1.17 -3.34,2.66 -3.34,4.5 0,3.56 1.01,6.41 3.08,8.57 2.06,2.15 5.12,3.2 9.14,3.2 9.22,0 18.65,-5.09 28.25,-15.31 1.43,-1.41 2.5,-2.13 3.23,-2.13 1.36,0 2.04,1.1 2.04,3.29zm-44.72 -10.04c18.21,-10.81 27.31,-19.51 27.31,-26.07 0,-2.57 -1.17,-3.86 -3.5,-3.86 -3.93,0 -8.39,2.9 -13.35,8.7 -4.94,5.8 -8.43,12.87 -10.46,21.24zm53.55 40.29c-1.08,0 -2.18,-0.57 -3.3,-1.67 -1.1,-1.12 -1.67,-2.24 -1.67,-3.36 0,-0.77 1.05,-3.38 3.19,-7.84 2.13,-4.46 5.49,-10.22 10.1,-17.29 4.61,-7.05 8.81,-13.09 12.59,-18.12 0.37,-0.51 0.7,-0.97 0.97,-1.41 2.74,-4.46 6.77,-10.54 12.1,-18.27 5.74,-8.19 10.83,-15.97 15.25,-23.31 2.06,-3.38 4.81,-7.33 8.24,-11.86 3.43,-4.52 5.91,-6.79 7.41,-6.79 0.86,0 1.93,0.77 3.2,2.31 1.3,1.56 1.93,2.79 1.93,3.74 0,1.67 -2.92,6.52 -8.74,14.54 -12.61,17.22 -24.71,34.46 -36.31,51.75 -1.41,2.11 -3.41,4.99 -5.98,8.68 -4.28,6.35 -6.89,10.66 -7.84,12.87 -0.94,2.24 -2.88,5.47 -5.78,9.69 -2.9,4.24 -4.68,6.35 -5.36,6.35zm-1444.18 -756.32c-11.73,0 -21.44,-4.44 -29.08,-13.35 -7.64,-8.92 -11.47,-19.95 -11.47,-33.08 0,-22.14 7.47,-43.98 22.36,-65.46 14.85,-21.48 32.69,-32.25 53.47,-32.25 13.71,0 24.86,5.27 33.39,15.86 8.52,10.54 12.83,23.11 12.83,37.69 0,22.32 -8.83,42.97 -26.45,62.03 -17.66,19.07 -35.98,28.56 -55.05,28.56zm-17.88 -49.78c0,8.65 1.8,15.73 5.45,21.22 3.65,5.49 8.48,8.26 14.5,8.26 12.78,0 25.61,-7.03 38.48,-21.05 12.87,-14.06 19.29,-29.66 19.29,-46.79 0,-10.59 -2.46,-19.11 -7.38,-25.7 -4.92,-6.55 -11.56,-9.84 -19.9,-9.84 -13.8,0 -25.66,8.48 -35.59,25.44 -9.88,16.91 -14.85,33.08 -14.85,48.46zm217.02 -55.62c-4.48,0 -9.36,2.9 -14.63,8.74 -5.27,5.84 -13.31,18.93 -24.12,39.27 -14.23,27.29 -23.46,42.79 -27.59,46.57 -4.17,3.78 -7.64,5.67 -10.37,5.67 -10.15,0 -15.2,-4.88 -15.2,-14.67 0,-4.08 0.7,-9.93 2.06,-17.48 4.7,-25.92 7.07,-53.25 7.07,-81.98 0,-3.29 1.41,-6.89 4.18,-10.89 2.81,-4 5.45,-5.98 7.91,-5.98 4.48,0 7.64,1.36 9.53,4.13 1.89,2.72 2.86,8.26 2.86,16.61 0,8.65 -2.59,26.49 -7.73,53.51 -1.71,8.92 -2.59,14.59 -2.59,17 0,1.36 0.35,2.06 1.05,2.06 1.27,0 7.25,-10.28 17.88,-30.75 10.72,-20.87 20.12,-35.54 28.16,-44.02 8.09,-8.53 16.96,-12.74 26.67,-12.74 7.73,0 14.01,3.52 18.85,10.54 4.83,7.03 8.39,19.86 10.63,38.48 2.42,21.18 4.57,34.4 6.5,39.58 1.93,5.18 5.01,7.77 9.18,7.77 2.68,0 6.02,-0.92 10.06,-2.81 0.66,-0.35 1.19,-0.53 1.54,-0.53 3.69,0 5.54,2.15 5.54,6.41 0,3.78 -2.55,7.82 -7.6,12.04 -5.05,4.26 -11.16,6.37 -18.28,6.37 -7.29,0 -12.91,-2.9 -16.91,-8.65 -4,-5.8 -7.16,-21.27 -9.49,-46.44 -2.37,-25.22 -7.43,-37.82 -15.16,-37.82zm179.42 45.69c-11.47,18.45 -23.68,32.69 -36.55,42.66 -12.87,10.02 -24.69,15.02 -35.5,15.02 -8.35,0 -14.94,-3.2 -19.77,-9.62 -4.83,-6.37 -7.29,-14.89 -7.29,-25.52 0,-21.71 8.83,-43.98 26.45,-66.82 17.66,-22.8 36.68,-34.22 57.11,-34.22 8.92,0 17.18,3.82 24.82,11.47l18.01 -84.17c1.32,-5.76 3.69,-9.62 7.16,-11.6 3.47,-1.98 6.19,-2.95 8.17,-2.95 6.02,0 9.01,5.32 9.01,15.95 0,1.89 -1.98,8.92 -5.93,21.09 -6.24,18.89 -12.21,42.09 -17.79,69.59 -5.62,27.5 -8.43,49.56 -8.43,66.21 0,17.18 3.74,25.74 11.2,25.74 4.79,0 9.75,-1.58 14.89,-4.74 2.15,-1.54 4.18,-2.33 6.06,-2.33 2.77,0 4.13,1.8 4.13,5.4 0,4.39 -3.87,9.44 -11.51,15.2 -7.69,5.75 -15.55,8.61 -23.64,8.61 -14.15,0 -21.22,-13.62 -21.22,-40.95 0,-4.61 0.18,-9.31 0.62,-14.01zm-16.87 -60.23c-13.89,0 -27.63,9.4 -41.3,28.25 -13.66,18.85 -20.47,36.24 -20.47,52.19 0,10.72 3.56,16.08 10.68,16.08 6.72,0 14.85,-3.51 24.42,-10.54 9.54,-7.03 19.38,-18.23 29.52,-33.65 10.11,-15.42 15.2,-26.97 15.2,-34.7 0,-3.78 -1.76,-7.65 -5.23,-11.64 -3.47,-4 -7.73,-5.97 -12.83,-5.97zm194 68.09c-15.82,13.71 -29.7,23.68 -41.65,29.92 -11.99,6.24 -21.13,9.32 -27.5,9.32 -8.48,0 -14.98,-3.52 -19.46,-10.59 -4.52,-7.07 -6.77,-15.33 -6.77,-24.78 0,-13.22 2.68,-29.56 8.04,-48.98 5.36,-19.42 9.36,-30.98 11.95,-34.62 2.64,-3.64 6.81,-5.49 12.57,-5.49 2.42,0 4.4,1.45 5.93,4.26 1.54,2.86 2.33,6.06 2.33,9.66 0,2.15 -1.01,4.92 -2.99,8.35 -4.61,8.08 -7.03,12.52 -7.25,13.4 -0.22,0.83 -1.89,6.02 -4.96,15.51 -3.08,9.49 -4.66,18.36 -4.66,26.71 0,2.9 0.71,7.47 2.15,13.62 1.41,6.19 4.35,9.27 8.79,9.27 4.74,0 10.54,-1.4 17.44,-4.3 6.94,-2.86 14.72,-7.55 23.37,-14.1 8.65,-6.5 14.5,-11.77 17.53,-15.82 2.99,-4.04 5.1,-8.61 6.37,-13.75 1.23,-5.18 2.11,-16.34 2.64,-33.47 0.48,-17.18 4.66,-25.74 12.47,-25.74 4.62,0 7.65,1.23 9.01,3.64 1.36,2.46 2.06,7.12 2.06,13.97 0,5.67 -0.39,12.74 -1.18,21.26 -0.93,10.72 -1.54,18.36 -1.8,22.89 -1.19,23.59 -4.26,47.31 -9.18,71.13 -4.92,23.81 -12.13,43.71 -21.57,59.7 -9.44,15.99 -22.45,23.99 -39.01,24.03 -16.78,-0.04 -31.76,-4.43 -44.85,-13.22 -13.05,-8.79 -19.59,-16.21 -19.59,-22.32 0,-2.86 0.66,-5.62 1.98,-8.39 1.32,-2.72 3.03,-4.08 5.1,-4.08 1.01,0 2.15,0.79 3.34,2.42 11.25,17.26 28.91,25.88 53.03,25.88 12.43,0 22.89,-10.9 31.32,-32.73 8.48,-21.83 13.13,-42.35 13.97,-61.46 0.18,-3.69 0.53,-7.38 1.05,-11.07zm346.05 15.95c0,-5.58 -6.85,-11.91 -20.56,-19.02 -17.44,-8.96 -29.22,-16.08 -35.37,-21.44 -6.11,-5.36 -9.18,-11.38 -9.18,-17.97 0,-17.09 8.57,-31.24 25.66,-42.48 17.13,-11.25 31.1,-16.87 41.91,-16.87 6.94,0 12,1.23 15.11,3.6 3.12,2.42 4.7,6.59 4.7,12.52 0,2.64 -1.15,4.92 -3.43,6.81 -2.24,1.89 -4.04,2.81 -5.32,2.81 -0.96,0 -2.81,-0.61 -5.53,-1.93 -2.77,-1.19 -4.57,-1.8 -5.4,-1.8 -4.3,0 -13,3.16 -26.14,9.4 -13.13,6.28 -19.68,13.35 -19.68,21.26 0,4.79 2.33,9.14 6.94,13.05 4.66,3.91 12.96,8.7 24.95,14.37 9.71,4.61 17.44,9.58 23.24,14.85 5.8,5.27 8.7,11.47 8.7,18.58 0,13.13 -9.05,23.42 -27.15,30.84 -18.1,7.43 -35.41,11.12 -51.88,11.16 -13.88,-0.05 -20.83,-4.74 -20.83,-14.19 0,-3.25 1.54,-5.67 4.7,-7.2 3.12,-1.54 6.28,-2.33 9.44,-2.33 1.27,0 3.74,0.44 7.34,1.32 3.51,0.83 5.84,1.27 6.94,1.27 9.53,0 19.73,-1.58 30.62,-4.74 10.9,-3.21 17.66,-7.16 20.21,-11.86zm133.86 -17.36c-11.99,16.12 -23.9,28.21 -35.63,36.29 -11.77,8.04 -22.54,12.08 -32.33,12.08 -6.59,0 -12.3,-2.76 -17.09,-8.34 -4.83,-5.58 -7.21,-12.74 -7.21,-21.53 0,-22.54 10.06,-46.83 30.22,-72.88 20.17,-26.05 40.2,-39.06 60.1,-39.06 7.21,0 12.57,4.09 16.12,12.35 1.1,2.72 2.86,4.13 5.27,4.13 6.85,0 10.28,2.64 10.28,7.95 0,2.68 -0.44,6.33 -1.27,10.94 -4.66,25.3 -6.94,43.18 -6.94,53.55 0,20.78 3.91,33.21 11.82,37.34 3.78,2.06 5.67,4.57 5.67,7.55 0,2.68 -1.84,5.36 -5.53,8.09 -3.69,2.68 -7.25,4.04 -10.68,4.04 -6.63,0 -12.08,-4.57 -16.34,-13.66 -4.3,-9.1 -6.46,-22.05 -6.46,-38.84zm-7.82 -72.49c-11.33,0 -24.51,10.63 -39.54,31.85 -15.02,21.26 -22.54,38.88 -22.54,52.85 0,9.84 3.3,14.81 9.8,14.81 9.44,0 22.54,-9.54 39.28,-28.6 16.74,-19.02 25.08,-36.55 25.08,-52.5 0,-12.26 -4.04,-18.41 -12.08,-18.41zm166.77 72.71c-1.01,-0.75 -3.91,1.67 -8.61,7.21 -7.82,9.18 -17.79,17.35 -29.92,24.47 -12.17,7.11 -23.42,10.67 -33.79,10.67 -7.73,0 -13.79,-2.42 -18.19,-7.25 -4.35,-4.88 -6.55,-11.55 -6.55,-20.17 0,-13.27 5.01,-28.12 15.07,-44.46 10.02,-16.34 24.08,-30.62 42.13,-42.79 18.05,-12.17 33.87,-18.28 47.45,-18.28 7.11,0 13.4,2.07 18.8,6.19 1.27,1.01 2.37,1.85 3.34,2.55 1.54,1.14 2.98,3.38 4.35,6.77 1.41,3.38 2.07,6.11 2.07,8.17 0,1.27 -0.49,3.25 -1.41,5.93 -5.23,14.23 -8.79,26.05 -10.68,35.37 -1.89,9.36 -3.95,25.13 -6.19,47.27 -2.06,19.9 -4.26,35.19 -6.68,45.95 -2.42,10.72 -6.72,21.09 -13,31.1 -6.28,10.06 -13.79,17.57 -22.54,22.62 -8.74,5.01 -17.75,7.51 -27.02,7.51 -16.04,0 -31.9,-5.53 -47.49,-16.6 -15.6,-11.07 -23.42,-19.95 -23.42,-26.63 0,-4.22 1.58,-6.33 4.74,-6.33 1.54,0 6.15,2.55 13.79,7.6 20.17,13.49 38.31,20.21 54.43,20.21 14.06,0 24.78,-7.51 32.12,-22.54 7.33,-15.02 12.34,-37.43 14.98,-67.31 0.62,-6.77 1.32,-12.52 2.2,-17.26zm-0.27 -70.64c-7.29,0 -16.38,3.78 -27.33,11.34 -10.94,7.55 -21.57,18.63 -31.89,33.21 -10.28,14.58 -15.42,26.8 -15.42,36.68 0,3.34 1.05,5.97 3.16,7.91 2.11,1.93 4.44,2.9 6.99,2.9 7.64,0 17.62,-3.95 29.92,-11.86 12.35,-7.87 22.93,-18.85 31.81,-32.86 8.88,-14.06 13.31,-25.04 13.31,-33.03 0,-9.54 -3.52,-14.28 -10.54,-14.28zm147.35 70.42c-11.99,16.12 -23.9,28.21 -35.63,36.29 -11.77,8.04 -22.54,12.08 -32.33,12.08 -6.59,0 -12.3,-2.76 -17.09,-8.34 -4.83,-5.58 -7.21,-12.74 -7.21,-21.53 0,-22.54 10.06,-46.83 30.22,-72.88 20.17,-26.05 40.2,-39.06 60.1,-39.06 7.21,0 12.57,4.09 16.12,12.35 1.1,2.72 2.86,4.13 5.27,4.13 6.85,0 10.28,2.64 10.28,7.95 0,2.68 -0.44,6.33 -1.27,10.94 -4.66,25.3 -6.94,43.18 -6.94,53.55 0,20.78 3.91,33.21 11.82,37.34 3.78,2.06 5.67,4.57 5.67,7.55 0,2.68 -1.84,5.36 -5.53,8.09 -3.69,2.68 -7.25,4.04 -10.68,4.04 -6.63,0 -12.08,-4.57 -16.34,-13.66 -4.3,-9.1 -6.46,-22.05 -6.46,-38.84zm-7.82 -72.49c-11.33,0 -24.51,10.63 -39.54,31.85 -15.02,21.26 -22.54,38.88 -22.54,52.85 0,9.84 3.3,14.81 9.8,14.81 9.44,0 22.54,-9.54 39.28,-28.6 16.74,-19.02 25.08,-36.55 25.08,-52.5 0,-12.26 -4.04,-18.41 -12.08,-18.41zm128.15 -10.54c8.83,-0.71 17.18,-1.49 24.95,-2.46 7.73,-0.83 14.19,-1.27 19.33,-1.27 6.5,0 10.63,0.61 12.35,1.8 1.71,1.19 2.59,3.3 2.59,6.33 0,6.94 -4.88,10.72 -14.54,11.29 -12.48,0.79 -23.9,1.84 -34.4,3.25 -10.45,1.36 -16.08,2.5 -16.91,3.38 -0.79,0.92 -3.38,11.12 -7.77,30.62 -4.4,19.55 -6.59,32.2 -6.59,38.04 0,9.44 1.27,15.73 3.74,18.85 2.5,3.16 6.23,4.7 11.2,4.7 7.38,0 17.66,-5.53 30.8,-16.6 5.05,-4.52 8.96,-6.81 11.69,-6.81 3.69,0 5.54,1.98 5.54,5.93 0,6.19 -5.93,14.19 -17.84,23.99 -11.86,9.84 -24.03,14.76 -36.46,14.76 -20.78,0 -31.15,-12.26 -31.15,-36.68 0,-8.83 2.15,-22.54 6.42,-41.08 4.22,-18.45 6.33,-29.52 6.33,-33.21 0,-1.27 -1.05,-1.93 -3.08,-1.93l-13.4 1.18c-10.98,0 -16.48,-4.39 -16.48,-13.13 0,-4.96 2.5,-7.47 7.6,-7.47l26.49 0c1.8,0 3.38,-0.83 4.79,-2.46 1.36,-1.63 3.38,-7.07 6.02,-16.39 2.68,-9.31 5.05,-18.54 7.07,-27.63 2.07,-9.01 6.11,-13.49 12.13,-13.49 3.69,0 6.55,1.27 8.61,3.87 2.07,2.55 3.08,4.96 3.08,7.2 0,1.19 -1.54,7.34 -4.61,18.41l-7.47 27.02z"/>
    <path class="fil0" d="M1458.46 369.44l-18.98 0 0 -38.75 -3.21 0 -25 -42.39c-4.08,-6.94 -7.6,-11.82 -10.59,-14.54 -4.48,-4.22 -9.84,-6.33 -16.03,-6.33l0 63.26 -23.2 0 0 -136.81 23.2 0 0 59.04c8.61,0 15.02,-2.76 19.15,-8.34 1.36,-1.8 4.52,-8.7 9.4,-20.61 3.38,-8.21 5.97,-13.71 7.69,-16.48 3.78,-6.24 8.17,-10.19 13.18,-11.82 3.73,-1.18 9.66,-1.8 17.88,-1.8l4.66 0 0 19.24 -6.46 -0.13c-6.45,-0.09 -10.98,1.58 -13.66,5.01 -0.88,1.14 -2.94,5.97 -6.33,14.54 -3.16,8.08 -5.97,13.71 -8.35,16.87 -3.3,4.26 -8.21,7.95 -14.85,11.03 10.06,2.64 19.86,11.95 29.44,27.9l14.06 23.37 8 0 0 57.73zm-215.02 241.45c0,-2.79 -3.42,-5.95 -10.28,-9.51 -8.72,-4.48 -14.61,-8.04 -17.68,-10.72 -3.05,-2.68 -4.59,-5.69 -4.59,-8.99 0,-8.54 4.28,-15.62 12.83,-21.24 8.57,-5.62 15.55,-8.43 20.96,-8.43 3.47,0 5.99,0.61 7.55,1.8 1.56,1.21 2.35,3.3 2.35,6.26 0,1.32 -0.57,2.46 -1.71,3.41 -1.12,0.94 -2.02,1.4 -2.66,1.4 -0.48,0 -1.4,-0.31 -2.77,-0.97 -1.38,-0.59 -2.28,-0.9 -2.7,-0.9 -2.15,0 -6.5,1.58 -13.07,4.7 -6.57,3.14 -9.84,6.68 -9.84,10.63 0,2.4 1.17,4.57 3.47,6.53 2.33,1.96 6.48,4.35 12.48,7.18 4.86,2.31 8.72,4.79 11.62,7.43 2.9,2.64 4.35,5.73 4.35,9.29 0,6.57 -4.52,11.71 -13.57,15.42 -9.05,3.71 -17.7,5.56 -25.94,5.58 -6.94,-0.02 -10.41,-2.37 -10.41,-7.09 0,-1.63 0.77,-2.84 2.35,-3.6 1.56,-0.77 3.14,-1.17 4.72,-1.17 0.64,0 1.87,0.22 3.67,0.66 1.76,0.42 2.92,0.64 3.47,0.64 4.77,0 9.86,-0.79 15.31,-2.37 5.45,-1.6 8.83,-3.58 10.1,-5.93zm548.94 -15.31c0.55,-0.73 4.4,-4.2 11.51,-10.37 6.75,-5.87 11.44,-10.15 14.11,-12.81 9.9,-9.9 17.02,-14.87 21.37,-14.87 3.34,0 5.01,1.62 5.01,4.83 0,3.64 -1.65,6.33 -4.94,8.04 -4.3,2.2 -10.02,5.82 -17.2,10.92 -7.16,5.07 -10.74,8.68 -10.74,10.78 0,0.86 2.53,4.06 7.6,9.62 5.05,5.55 9.45,9.64 13.11,12.28 3.69,2.64 7.29,3.95 10.76,3.95l2.11 -0.07c1.52,-0.09 2.26,0.59 2.26,2 0,1.89 -1.19,3.82 -3.54,5.75 -2.37,1.96 -5.47,2.94 -9.34,2.94 -2.48,0 -5.01,-0.88 -7.55,-2.61 -2.55,-1.74 -7.09,-6.42 -13.62,-14.06 -5.18,-6.31 -8.43,-10.08 -9.71,-11.29 -1.3,-1.23 -2.37,-1.84 -3.23,-1.84 -0.46,0 -1.98,1.12 -4.5,3.36 -2.53,2.22 -3.91,3.91 -4.16,5.08 -0.22,1.16 -0.35,5.58 -0.35,13.27l0 3.01c0,1.6 -0.75,3.01 -2.24,4.26 -1.52,1.23 -3.14,1.87 -4.9,1.87 -1.8,0 -3.21,-0.53 -4.24,-1.58 -1.03,-1.05 -1.56,-2.13 -1.56,-3.25 0,-1.54 0.59,-5.18 1.74,-10.94 1.65,-8.28 3.14,-19.38 4.5,-33.28 3.18,-32.82 5.62,-51.38 7.33,-55.69 1.74,-4.33 4.18,-6.48 7.34,-6.48 1.12,0 2.06,0.59 2.81,1.8 0.75,1.21 1.12,2.75 1.12,4.64 0,3.42 -1.47,12.54 -4.44,27.35 -2.96,14.85 -5.1,29.3 -6.44,43.38zm-470.3 8.24c0,4.37 -3.86,9.64 -11.6,15.84 -7.75,6.17 -15.75,9.24 -23.99,9.24 -6.89,0 -12.23,-2.02 -15.99,-6.11 -3.76,-4.06 -5.62,-9.75 -5.62,-17.04 0,-12.28 4.13,-23.94 12.41,-35.01 8.28,-11.07 17.36,-16.6 27.17,-16.6 3.21,0 5.84,1.05 7.89,3.16 2.02,2.08 3.05,4.63 3.05,7.58 0,6.61 -3.25,12.94 -9.73,19 -6.48,6.04 -15.13,11.99 -25.99,17.81 -2.24,1.17 -3.34,2.66 -3.34,4.5 0,3.56 1.01,6.41 3.08,8.57 2.06,2.15 5.12,3.2 9.14,3.2 9.22,0 18.65,-5.09 28.25,-15.31 1.43,-1.41 2.5,-2.13 3.23,-2.13 1.36,0 2.04,1.1 2.04,3.29zm-44.72 -10.04c18.21,-10.81 27.31,-19.51 27.31,-26.07 0,-2.57 -1.17,-3.86 -3.5,-3.86 -3.93,0 -8.39,2.9 -13.35,8.7 -4.94,5.8 -8.43,12.87 -10.46,21.24zm71.17 6.31c0.44,-0.77 0.95,-1.85 1.56,-3.23 2.92,-6.68 5.6,-11.93 8.04,-15.73 2.44,-3.8 5.14,-7.43 8.08,-10.9 2.92,-3.49 5.62,-6.13 8.04,-7.93 2.42,-1.8 4.61,-3.05 6.59,-3.76 1.98,-0.7 3.89,-1.08 5.73,-1.08 3.74,0 6.77,1.14 9.14,3.38 2.35,2.26 3.54,4.88 3.54,7.89 0,1.34 -0.42,2.52 -1.25,3.6 -0.83,1.08 -2.11,1.61 -3.82,1.61 -1.8,0 -3.47,-0.79 -4.96,-2.37 -1.54,-1.58 -3.16,-2.37 -4.83,-2.37 -4.46,0 -10.63,5.4 -18.52,16.21 -7.91,10.81 -12.72,22.71 -14.43,35.72 -0.42,3.34 -1.23,5.56 -2.44,6.63 -1.21,1.05 -2.9,1.61 -5.07,1.61 -2.11,0 -3.62,-1.56 -4.57,-4.7 -0.94,-3.14 -1.43,-8.41 -1.43,-15.84 0,-2 0.11,-6.46 0.33,-13.31 0.24,-8.11 0.77,-14.65 1.54,-19.64 0.13,-0.81 0.35,-2.72 0.64,-5.71 0.31,-3.32 0.68,-5.6 1.14,-6.9 0.44,-1.27 1.36,-2.48 2.76,-3.6 1.39,-1.12 2.9,-1.67 4.53,-1.67 1.58,0 2.79,0.51 3.58,1.52 0.79,1.01 1.19,2.09 1.19,3.25 0,1.67 -0.44,4.02 -1.3,7.07 -0.99,3.38 -1.56,5.73 -1.74,7.01 -0.13,1.47 -0.35,2.99 -0.71,4.57 -0.44,1.84 -0.86,6.7 -1.3,14.54l-0.07 2.4 0 1.74zm76.13 -60.63c-0.9,0 -1.58,-0.97 -2.07,-2.9 -0.17,-0.59 -0.39,-1.25 -0.7,-2 -1.16,-2.77 -1.74,-5.21 -1.74,-7.27 0,-1.71 1.01,-3.45 3.06,-5.23 2.04,-1.78 4.3,-2.68 6.79,-2.68 1.25,0 2.64,0.49 4.19,1.45 1.54,0.97 2.31,1.89 2.31,2.79 0,1.43 -0.53,3.82 -1.58,7.23 -1.05,3.38 -2.72,5.67 -5.01,6.85 -2.31,1.17 -4.04,1.76 -5.25,1.76zm-8.43 71.89c0,3.25 0.46,6.92 1.36,11.01 0.17,0.77 0.24,1.4 0.24,1.91 0,0.79 -0.7,1.78 -2.11,3.01 -1.43,1.21 -2.92,1.82 -4.5,1.82 -4.17,0 -6.24,-3.82 -6.24,-11.44 0,-7.91 1.63,-20.39 4.88,-37.45 1.12,-5.98 1.67,-9.64 1.67,-11 0,-2.7 0.51,-5.01 1.49,-6.92 0.99,-1.91 2.37,-2.88 4.18,-2.88 2.2,0 3.91,0.53 5.18,1.58 1.27,1.05 1.89,2.22 1.89,3.51 0,1.27 -0.29,2.99 -0.9,5.08 -3.21,11.33 -5.21,19.44 -5.98,24.34 -0.77,4.88 -1.16,10.7 -1.16,17.44zm38.29 -15.77c0.55,-0.73 4.4,-4.2 11.51,-10.37 6.75,-5.87 11.44,-10.15 14.11,-12.81 9.9,-9.9 17.02,-14.87 21.37,-14.87 3.34,0 5.01,1.62 5.01,4.83 0,3.64 -1.65,6.33 -4.94,8.04 -4.3,2.2 -10.02,5.82 -17.2,10.92 -7.16,5.07 -10.74,8.68 -10.74,10.78 0,0.86 2.53,4.06 7.6,9.62 5.05,5.55 9.45,9.64 13.11,12.28 3.69,2.64 7.29,3.95 10.76,3.95l2.11 -0.07c1.52,-0.09 2.26,0.59 2.26,2 0,1.89 -1.19,3.82 -3.54,5.75 -2.37,1.96 -5.47,2.94 -9.34,2.94 -2.48,0 -5.01,-0.88 -7.55,-2.61 -2.55,-1.74 -7.09,-6.42 -13.62,-14.06 -5.18,-6.31 -8.43,-10.08 -9.71,-11.29 -1.3,-1.23 -2.37,-1.84 -3.23,-1.84 -0.46,0 -1.98,1.12 -4.5,3.36 -2.53,2.22 -3.91,3.91 -4.16,5.08 -0.22,1.16 -0.35,5.58 -0.35,13.27l0 3.01c0,1.6 -0.75,3.01 -2.24,4.26 -1.52,1.23 -3.14,1.87 -4.9,1.87 -1.8,0 -3.21,-0.53 -4.24,-1.58 -1.03,-1.05 -1.56,-2.13 -1.56,-3.25 0,-1.54 0.59,-5.18 1.74,-10.94 1.65,-8.28 3.14,-19.38 4.5,-33.28 3.18,-32.82 5.62,-51.38 7.33,-55.69 1.74,-4.33 4.18,-6.48 7.34,-6.48 1.12,0 2.06,0.59 2.81,1.8 0.75,1.21 1.12,2.75 1.12,4.64 0,3.42 -1.47,12.54 -4.44,27.35 -2.96,14.85 -5.1,29.3 -6.44,43.38zm83.41 -74.01l0.2 0c1.21,0 3.01,0.42 5.4,1.27 2.4,0.86 3.98,1.58 4.72,2.15 0.75,0.59 1.14,1.56 1.14,2.94 0,2.66 -1.23,4.99 -3.67,6.99 -2.46,1.98 -4.28,2.98 -5.47,2.98 -2.06,0 -3.86,-0.9 -5.43,-2.7 -1.54,-1.8 -2.31,-3.6 -2.31,-5.4 0,-4.64 1.8,-7.38 5.4,-8.24zm-26.05 144.91c-5.12,0 -10.06,-2.13 -14.85,-6.39 -4.79,-4.26 -7.16,-7.95 -7.16,-11.05 0,-0.86 0.29,-1.69 0.9,-2.53 0.59,-0.83 1.03,-1.25 1.34,-1.25 0.31,0 0.96,0.42 2,1.27 6.75,5.93 12.17,8.88 16.28,8.88 3.38,0 6.31,-1.61 8.77,-4.86 2.44,-3.23 4.19,-9.25 5.27,-18.01 1.08,-8.77 2.08,-22.41 3.01,-40.9 0.66,-13.33 1.23,-21.81 1.71,-25.42 0.51,-3.6 1.52,-6.13 3.06,-7.55 1.56,-1.45 3.52,-2.18 5.93,-2.18 1.23,0 2.42,0.49 3.51,1.45 1.08,0.97 1.63,2.15 1.63,3.52 0,0.77 -0.15,1.82 -0.44,3.16 -3.14,13.55 -5.18,31.21 -6.13,52.96 -0.59,13.11 -1.82,22.85 -3.67,29.15 -1.84,6.31 -4.68,11.18 -8.52,14.61 -3.84,3.43 -8.04,5.14 -12.63,5.14zm93.95 -64.28c-6,8.06 -11.95,14.1 -17.82,18.14 -5.89,4.02 -11.27,6.04 -16.17,6.04 -3.29,0 -6.15,-1.38 -8.54,-4.17 -2.42,-2.79 -3.6,-6.37 -3.6,-10.76 0,-11.27 5.03,-23.42 15.11,-36.44 10.08,-13.03 20.1,-19.53 30.05,-19.53 3.6,0 6.28,2.04 8.06,6.17 0.55,1.36 1.43,2.06 2.64,2.06 3.42,0 5.14,1.32 5.14,3.98 0,1.34 -0.22,3.16 -0.64,5.47 -2.33,12.65 -3.47,21.59 -3.47,26.78 0,10.39 1.96,16.61 5.91,18.67 1.89,1.03 2.84,2.28 2.84,3.78 0,1.34 -0.93,2.68 -2.77,4.04 -1.85,1.34 -3.62,2.02 -5.34,2.02 -3.32,0 -6.04,-2.29 -8.17,-6.83 -2.15,-4.55 -3.23,-11.03 -3.23,-19.42zm-3.91 -36.24c-5.67,0 -12.26,5.31 -19.77,15.92 -7.51,10.63 -11.27,19.44 -11.27,26.43 0,4.92 1.65,7.4 4.9,7.4 4.72,0 11.27,-4.77 19.63,-14.3 8.37,-9.51 12.54,-18.28 12.54,-26.25 0,-6.13 -2.02,-9.2 -6.04,-9.2zm81.71 10.17c-2.24,0 -4.68,1.45 -7.31,4.37 -2.64,2.92 -6.66,9.47 -12.06,19.64 -7.11,13.64 -11.73,21.39 -13.79,23.28 -2.08,1.89 -3.82,2.83 -5.18,2.83 -5.07,0 -7.6,-2.44 -7.6,-7.33 0,-2.04 0.35,-4.96 1.03,-8.74 2.35,-12.96 3.54,-26.63 3.54,-40.99 0,-1.65 0.7,-3.45 2.09,-5.45 1.41,-2 2.72,-2.98 3.95,-2.98 2.24,0 3.82,0.68 4.77,2.06 0.94,1.36 1.43,4.13 1.43,8.3 0,4.33 -1.3,13.25 -3.87,26.76 -0.86,4.46 -1.3,7.29 -1.3,8.5 0,0.68 0.17,1.03 0.53,1.03 0.64,0 3.62,-5.14 8.94,-15.38 5.36,-10.44 10.06,-17.77 14.08,-22.01 4.04,-4.26 8.48,-6.37 13.33,-6.37 3.86,0 7.01,1.76 9.42,5.27 2.42,3.52 4.2,9.93 5.31,19.24 1.21,10.59 2.29,17.2 3.25,19.79 0.96,2.59 2.5,3.89 4.59,3.89 1.34,0 3.01,-0.46 5.03,-1.41 0.33,-0.17 0.59,-0.26 0.77,-0.26 1.84,0 2.76,1.08 2.76,3.21 0,1.89 -1.27,3.91 -3.8,6.01 -2.53,2.13 -5.58,3.19 -9.14,3.19 -3.65,0 -6.46,-1.45 -8.46,-4.33 -2,-2.9 -3.58,-10.63 -4.74,-23.22 -1.18,-12.61 -3.71,-18.91 -7.58,-18.91zm233.92 14.32c0,15.92 -5.14,26.75 -15.42,32.44 -5.01,2.79 -10.52,4.17 -16.5,4.17 -10.37,0 -18.41,-3.4 -24.1,-10.21 -5.27,-6.35 -7.91,-14.83 -7.91,-25.44 0,-12.63 3.51,-21.99 10.54,-28.07 5.87,-5.05 13,-7.58 21.46,-7.58 10.06,0 17.95,3.32 23.7,9.95 5.47,6.3 8.22,14.54 8.22,24.73zm-12.13 -5.56c-0.73,-5.51 -2.53,-9.86 -5.36,-13.03 -3.84,-4.33 -8.65,-6.48 -14.43,-6.48 -5.84,0 -10.68,2.15 -14.5,6.48 -2.86,3.16 -4.66,7.51 -5.38,13.03l39.67 0zm0.26 9.49l-40.2 0c0.35,6.59 2.09,11.97 5.23,16.12 3.6,4.72 8.59,7.07 14.91,7.07 6.3,0 11.27,-2.37 14.83,-7.14 3.1,-4.11 4.83,-9.46 5.23,-16.06zm37.93 1.19c0.55,-0.73 4.4,-4.2 11.51,-10.37 6.75,-5.87 11.44,-10.15 14.11,-12.81 9.9,-9.9 17.02,-14.87 21.37,-14.87 3.34,0 5.01,1.62 5.01,4.83 0,3.64 -1.65,6.33 -4.94,8.04 -4.3,2.2 -10.02,5.82 -17.2,10.92 -7.16,5.07 -10.74,8.68 -10.74,10.78 0,0.86 2.53,4.06 7.6,9.62 5.05,5.55 9.45,9.64 13.11,12.28 3.69,2.64 7.29,3.95 10.76,3.95l2.11 -0.07c1.52,-0.09 2.26,0.59 2.26,2 0,1.89 -1.19,3.82 -3.54,5.75 -2.37,1.96 -5.47,2.94 -9.34,2.94 -2.48,0 -5.01,-0.88 -7.55,-2.61 -2.55,-1.74 -7.09,-6.42 -13.62,-14.06 -5.18,-6.31 -8.43,-10.08 -9.71,-11.29 -1.3,-1.23 -2.37,-1.84 -3.23,-1.84 -0.46,0 -1.98,1.12 -4.5,3.36 -2.53,2.22 -3.91,3.91 -4.16,5.08 -0.22,1.16 -0.35,5.58 -0.35,13.27l0 3.01c0,1.6 -0.75,3.01 -2.24,4.26 -1.52,1.23 -3.14,1.87 -4.9,1.87 -1.8,0 -3.21,-0.53 -4.24,-1.58 -1.03,-1.05 -1.56,-2.13 -1.56,-3.25 0,-1.54 0.59,-5.18 1.74,-10.94 1.65,-8.28 3.14,-19.38 4.5,-33.28 3.18,-32.82 5.62,-51.38 7.33,-55.69 1.74,-4.33 4.18,-6.48 7.34,-6.48 1.12,0 2.06,0.59 2.81,1.8 0.75,1.21 1.12,2.75 1.12,4.64 0,3.42 -1.47,12.54 -4.44,27.35 -2.96,14.85 -5.1,29.3 -6.44,43.38zm120.53 8.24c0,4.37 -3.86,9.64 -11.6,15.84 -7.75,6.17 -15.75,9.24 -23.99,9.24 -6.89,0 -12.23,-2.02 -15.99,-6.11 -3.76,-4.06 -5.62,-9.75 -5.62,-17.04 0,-12.28 4.13,-23.94 12.41,-35.01 8.28,-11.07 17.36,-16.6 27.17,-16.6 3.21,0 5.84,1.05 7.89,3.16 2.02,2.08 3.05,4.63 3.05,7.58 0,6.61 -3.25,12.94 -9.73,19 -6.48,6.04 -15.13,11.99 -25.99,17.81 -2.24,1.17 -3.34,2.66 -3.34,4.5 0,3.56 1.01,6.41 3.08,8.57 2.06,2.15 5.12,3.2 9.14,3.2 9.22,0 18.65,-5.09 28.25,-15.31 1.43,-1.41 2.5,-2.13 3.23,-2.13 1.36,0 2.04,1.1 2.04,3.29zm-44.72 -10.04c18.21,-10.81 27.31,-19.51 27.31,-26.07 0,-2.57 -1.17,-3.86 -3.5,-3.86 -3.93,0 -8.39,2.9 -13.35,8.7 -4.94,5.8 -8.43,12.87 -10.46,21.24zm69.96 -4.77c5.49,-10 12.06,-18.1 19.68,-24.3 7.65,-6.19 14.52,-9.29 20.67,-9.29 3.38,0 6.26,1.56 8.61,4.7 2.37,3.12 3.54,6.94 3.54,11.44 0,13.33 -5.03,25.85 -15.09,37.56 -10.06,11.69 -20.67,17.53 -31.87,17.53 -3.06,0 -5.84,-0.83 -8.41,-2.48 -2.55,-1.65 -3.98,-3.72 -4.26,-6.22 -0.17,-2 -0.77,-3.51 -1.74,-4.5 -1.84,-1.84 -2.76,-3.82 -2.76,-5.91 0,-3.91 1.05,-12.26 3.2,-25.04l6.63 -38.48c2.26,-12.91 3.93,-20.89 4.99,-23.94 1.05,-3.03 2.22,-5.08 3.52,-6.11 1.27,-1.03 2.86,-1.54 4.74,-1.54 3.01,0 4.5,2.59 4.5,7.77 0,4.94 -1.65,11.84 -4.94,20.74 -3.18,8.52 -6.85,24.56 -11,48.06zm-1.56 21.44c2.24,4.16 4.94,6.24 8.13,6.24 4.88,0 10.06,-2.04 15.51,-6.09 5.45,-4.06 10.15,-9.75 14.13,-17.11 3.95,-7.36 5.95,-13.57 5.95,-18.65 0,-2.26 -0.42,-4.22 -1.23,-5.84 -0.81,-1.63 -1.84,-2.46 -3.1,-2.46 -5.95,0 -13.25,4.9 -21.83,14.65 -8.61,9.75 -14.45,19.51 -17.55,29.26zm109.86 -8.24c-6,8.06 -11.95,14.1 -17.82,18.14 -5.89,4.02 -11.27,6.04 -16.17,6.04 -3.29,0 -6.15,-1.38 -8.54,-4.17 -2.42,-2.79 -3.6,-6.37 -3.6,-10.76 0,-11.27 5.03,-23.42 15.11,-36.44 10.08,-13.03 20.1,-19.53 30.05,-19.53 3.6,0 6.28,2.04 8.06,6.17 0.55,1.36 1.43,2.06 2.64,2.06 3.42,0 5.14,1.32 5.14,3.98 0,1.34 -0.22,3.16 -0.64,5.47 -2.33,12.65 -3.47,21.59 -3.47,26.78 0,10.39 1.96,16.61 5.91,18.67 1.89,1.03 2.84,2.28 2.84,3.78 0,1.34 -0.93,2.68 -2.77,4.04 -1.85,1.34 -3.62,2.02 -5.34,2.02 -3.32,0 -6.04,-2.29 -8.17,-6.83 -2.15,-4.55 -3.23,-11.03 -3.23,-19.42zm-3.91 -36.24c-5.67,0 -12.26,5.31 -19.77,15.92 -7.51,10.63 -11.27,19.44 -11.27,26.43 0,4.92 1.65,7.4 4.9,7.4 4.72,0 11.27,-4.77 19.63,-14.3 8.37,-9.51 12.54,-18.28 12.54,-26.25 0,-6.13 -2.02,-9.2 -6.04,-9.2zm58.6 -26.51c-0.9,0 -1.58,-0.97 -2.07,-2.9 -0.17,-0.59 -0.39,-1.25 -0.7,-2 -1.16,-2.77 -1.74,-5.21 -1.74,-7.27 0,-1.71 1.01,-3.45 3.06,-5.23 2.04,-1.78 4.3,-2.68 6.79,-2.68 1.25,0 2.64,0.49 4.19,1.45 1.54,0.97 2.31,1.89 2.31,2.79 0,1.43 -0.53,3.82 -1.58,7.23 -1.05,3.38 -2.72,5.67 -5.01,6.85 -2.31,1.17 -4.04,1.76 -5.25,1.76zm-8.43 71.89c0,3.25 0.46,6.92 1.36,11.01 0.17,0.77 0.24,1.4 0.24,1.91 0,0.79 -0.7,1.78 -2.11,3.01 -1.43,1.21 -2.92,1.82 -4.5,1.82 -4.17,0 -6.24,-3.82 -6.24,-11.44 0,-7.91 1.63,-20.39 4.88,-37.45 1.12,-5.98 1.67,-9.64 1.67,-11 0,-2.7 0.51,-5.01 1.49,-6.92 0.99,-1.91 2.37,-2.88 4.18,-2.88 2.2,0 3.91,0.53 5.18,1.58 1.27,1.05 1.89,2.22 1.89,3.51 0,1.27 -0.29,2.99 -0.9,5.08 -3.21,11.33 -5.21,19.44 -5.98,24.34 -0.77,4.88 -1.16,10.7 -1.16,17.44zm-1439.92 229.22c0,-2.79 -3.42,-5.95 -10.28,-9.51 -8.72,-4.48 -14.61,-8.04 -17.68,-10.72 -3.05,-2.68 -4.59,-5.69 -4.59,-8.99 0,-8.54 4.28,-15.62 12.83,-21.24 8.57,-5.62 15.55,-8.43 20.96,-8.43 3.47,0 5.99,0.61 7.55,1.8 1.56,1.21 2.35,3.3 2.35,6.26 0,1.32 -0.57,2.46 -1.71,3.41 -1.12,0.94 -2.02,1.4 -2.66,1.4 -0.48,0 -1.4,-0.31 -2.77,-0.97 -1.38,-0.59 -2.28,-0.9 -2.7,-0.9 -2.15,0 -6.5,1.58 -13.07,4.7 -6.57,3.14 -9.84,6.68 -9.84,10.63 0,2.4 1.17,4.57 3.47,6.53 2.33,1.96 6.48,4.35 12.48,7.18 4.86,2.31 8.72,4.79 11.62,7.43 2.9,2.64 4.35,5.73 4.35,9.29 0,6.57 -4.52,11.71 -13.57,15.42 -9.05,3.71 -17.7,5.56 -25.94,5.58 -6.94,-0.02 -10.41,-2.37 -10.41,-7.09 0,-1.63 0.77,-2.84 2.35,-3.6 1.56,-0.77 3.14,-1.17 4.72,-1.17 0.64,0 1.87,0.22 3.67,0.66 1.76,0.42 2.92,0.64 3.47,0.64 4.77,0 9.86,-0.79 15.31,-2.37 5.45,-1.6 8.83,-3.58 10.1,-5.93zm36.05 -15.31c0.55,-0.73 4.4,-4.2 11.51,-10.37 6.75,-5.87 11.44,-10.15 14.11,-12.81 9.9,-9.9 17.02,-14.87 21.37,-14.87 3.34,0 5.01,1.62 5.01,4.83 0,3.64 -1.65,6.33 -4.94,8.04 -4.3,2.2 -10.02,5.82 -17.2,10.92 -7.16,5.07 -10.74,8.68 -10.74,10.78 0,0.86 2.53,4.06 7.6,9.62 5.05,5.55 9.45,9.64 13.11,12.28 3.69,2.64 7.29,3.95 10.76,3.95l2.11 -0.07c1.52,-0.09 2.26,0.59 2.26,2 0,1.89 -1.19,3.82 -3.54,5.75 -2.37,1.96 -5.47,2.94 -9.34,2.94 -2.48,0 -5.01,-0.88 -7.55,-2.61 -2.55,-1.74 -7.09,-6.42 -13.62,-14.06 -5.18,-6.31 -8.43,-10.08 -9.71,-11.29 -1.3,-1.23 -2.37,-1.84 -3.23,-1.84 -0.46,0 -1.98,1.12 -4.5,3.36 -2.53,2.22 -3.91,3.91 -4.16,5.08 -0.22,1.16 -0.35,5.58 -0.35,13.27l0 3.01c0,1.6 -0.75,3.01 -2.24,4.26 -1.52,1.23 -3.14,1.87 -4.9,1.87 -1.8,0 -3.21,-0.53 -4.24,-1.58 -1.03,-1.05 -1.56,-2.13 -1.56,-3.25 0,-1.54 0.59,-5.18 1.74,-10.94 1.65,-8.28 3.14,-19.38 4.5,-33.28 3.18,-32.82 5.62,-51.38 7.33,-55.69 1.74,-4.33 4.18,-6.48 7.34,-6.48 1.12,0 2.06,0.59 2.81,1.8 0.75,1.21 1.12,2.75 1.12,4.64 0,3.42 -1.47,12.54 -4.44,27.35 -2.96,14.85 -5.1,29.3 -6.44,43.38zm98.41 -11.84l4.7 0c7.97,0 13.9,-0.29 17.81,-0.83 1.89,-0.27 3.78,-0.4 5.67,-0.4 0.81,0 2.48,0.51 4.99,1.47 2.5,0.99 4,1.82 4.48,2.48 0.46,0.68 0.71,1.56 0.71,2.68 0,1.58 -0.33,2.7 -0.97,3.34 -0.64,0.64 -2.04,0.97 -4.2,0.97 -0.95,0 -2.26,-0.29 -3.98,-0.83 -1.71,-0.55 -3.16,-0.83 -4.33,-0.83 -0.46,0 -2.02,0.11 -4.68,0.33 -1.43,0.11 -4,0.02 -7.73,-0.33 -2.88,-0.27 -5.01,-0.4 -6.44,-0.4 -1.98,0 -4.96,0.13 -8.94,0.4 -4,0.26 -7.01,0.39 -9.07,0.39 -2.06,0 -3.73,-0.24 -4.99,-0.68 -1.27,-0.46 -1.91,-1.47 -1.91,-3.06 0,-0.7 0.29,-1.49 0.88,-2.42 0.57,-0.92 2.55,-1.65 5.89,-2.2 3.34,-0.53 5.75,-0.81 7.2,-0.81l4.9 0.73zm69.5 -62.17l0.2 0c1.21,0 3.01,0.42 5.4,1.27 2.4,0.86 3.98,1.58 4.72,2.15 0.75,0.59 1.14,1.56 1.14,2.94 0,2.66 -1.23,4.99 -3.67,6.99 -2.46,1.98 -4.28,2.98 -5.47,2.98 -2.06,0 -3.86,-0.9 -5.43,-2.7 -1.54,-1.8 -2.31,-3.6 -2.31,-5.4 0,-4.64 1.8,-7.38 5.4,-8.24zm-26.05 144.91c-5.12,0 -10.06,-2.13 -14.85,-6.39 -4.79,-4.26 -7.16,-7.95 -7.16,-11.05 0,-0.86 0.29,-1.69 0.9,-2.53 0.59,-0.83 1.03,-1.25 1.34,-1.25 0.31,0 0.96,0.42 2,1.27 6.75,5.93 12.17,8.88 16.28,8.88 3.38,0 6.31,-1.61 8.77,-4.86 2.44,-3.23 4.19,-9.25 5.27,-18.01 1.08,-8.77 2.08,-22.41 3.01,-40.9 0.66,-13.33 1.23,-21.81 1.71,-25.42 0.51,-3.6 1.52,-6.13 3.06,-7.55 1.56,-1.45 3.52,-2.18 5.93,-2.18 1.23,0 2.42,0.49 3.51,1.45 1.08,0.97 1.63,2.15 1.63,3.52 0,0.77 -0.15,1.82 -0.44,3.16 -3.14,13.55 -5.18,31.21 -6.13,52.96 -0.59,13.11 -1.82,22.85 -3.67,29.15 -1.84,6.31 -4.68,11.18 -8.52,14.61 -3.84,3.43 -8.04,5.14 -12.63,5.14z"/>
    <path class="fil0" d="M1051.3 858.51c-5.87,0 -10.72,-2.22 -14.54,-6.68 -3.82,-4.46 -5.73,-9.98 -5.73,-16.54 0,-11.07 3.74,-21.99 11.18,-32.73 7.43,-10.74 16.34,-16.12 26.73,-16.12 6.85,0 12.43,2.64 16.7,7.93 4.26,5.27 6.41,11.55 6.41,18.85 0,11.16 -4.41,21.48 -13.22,31.02 -8.83,9.54 -17.99,14.28 -27.53,14.28zm-8.94 -24.89c0,4.33 0.9,7.87 2.73,10.61 1.82,2.74 4.24,4.13 7.25,4.13 6.39,0 12.81,-3.52 19.24,-10.52 6.44,-7.03 9.64,-14.83 9.64,-23.4 0,-5.29 -1.23,-9.55 -3.69,-12.85 -2.46,-3.28 -5.77,-4.92 -9.95,-4.92 -6.89,0 -12.83,4.24 -17.79,12.71 -4.94,8.46 -7.43,16.54 -7.43,24.23zm76.47 -14.94c5.49,-10 12.06,-18.1 19.68,-24.3 7.65,-6.19 14.52,-9.29 20.67,-9.29 3.38,0 6.26,1.56 8.61,4.7 2.37,3.12 3.54,6.94 3.54,11.44 0,13.33 -5.03,25.85 -15.09,37.56 -10.06,11.69 -20.67,17.53 -31.87,17.53 -3.06,0 -5.84,-0.83 -8.41,-2.48 -2.55,-1.65 -3.98,-3.72 -4.26,-6.22 -0.17,-2 -0.77,-3.51 -1.74,-4.5 -1.84,-1.84 -2.76,-3.82 -2.76,-5.91 0,-3.91 1.05,-12.26 3.2,-25.04l6.63 -38.48c2.26,-12.91 3.93,-20.89 4.99,-23.94 1.05,-3.03 2.22,-5.08 3.52,-6.11 1.27,-1.03 2.86,-1.54 4.74,-1.54 3.01,0 4.5,2.59 4.5,7.77 0,4.94 -1.65,11.84 -4.94,20.74 -3.18,8.52 -6.85,24.56 -11,48.06zm-1.56 21.44c2.24,4.16 4.94,6.24 8.13,6.24 4.88,0 10.06,-2.04 15.51,-6.09 5.45,-4.06 10.15,-9.75 14.13,-17.11 3.95,-7.36 5.95,-13.57 5.95,-18.65 0,-2.26 -0.42,-4.22 -1.23,-5.84 -0.81,-1.63 -1.84,-2.46 -3.1,-2.46 -5.95,0 -13.25,4.9 -21.83,14.65 -8.61,9.75 -14.45,19.51 -17.55,29.26zm109.86 -8.24c-6,8.06 -11.95,14.1 -17.82,18.14 -5.89,4.02 -11.27,6.04 -16.17,6.04 -3.29,0 -6.15,-1.38 -8.54,-4.17 -2.42,-2.79 -3.6,-6.37 -3.6,-10.76 0,-11.27 5.03,-23.42 15.11,-36.44 10.08,-13.03 20.1,-19.53 30.05,-19.53 3.6,0 6.28,2.04 8.06,6.17 0.55,1.36 1.43,2.06 2.64,2.06 3.42,0 5.14,1.32 5.14,3.98 0,1.34 -0.22,3.16 -0.64,5.47 -2.33,12.65 -3.47,21.59 -3.47,26.78 0,10.39 1.96,16.61 5.91,18.67 1.89,1.03 2.84,2.28 2.84,3.78 0,1.34 -0.93,2.68 -2.77,4.04 -1.85,1.34 -3.62,2.02 -5.34,2.02 -3.32,0 -6.04,-2.29 -8.17,-6.83 -2.15,-4.55 -3.23,-11.03 -3.23,-19.42zm-3.91 -36.24c-5.67,0 -12.26,5.31 -19.77,15.92 -7.51,10.63 -11.27,19.44 -11.27,26.43 0,4.92 1.65,7.4 4.9,7.4 4.72,0 11.27,-4.77 19.63,-14.3 8.37,-9.51 12.54,-18.28 12.54,-26.25 0,-6.13 -2.02,-9.2 -6.04,-9.2zm148.43 26.45c-2.94,2.28 -6.63,4.35 -11.05,6.24 -4.44,1.89 -7.82,2.83 -10.17,2.83 -3.18,0 -6.15,-1.21 -8.9,-3.62 -2.75,-2.44 -4.11,-4.99 -4.11,-7.69 0,-6.43 3.1,-13.59 9.34,-21.5 6.22,-7.89 11.62,-11.84 16.21,-11.84 5.67,0 9.73,1.23 12.23,3.67 0.55,0.39 0.83,1.05 0.83,2 0,0.64 -0.05,1.36 -0.11,2.2 -0.07,0.81 0.31,1.21 1.14,1.21 0.37,0 0.9,-0.17 1.54,-0.51 0.64,-0.35 1.19,-0.53 1.6,-0.53 2.4,0 3.6,1.14 3.6,3.43 0,0.55 -0.68,2.52 -2.06,5.91 -1.32,3.14 -2.15,5.25 -2.46,6.35 -0.33,1.1 -0.48,2.62 -0.48,4.59 0,1.93 1.43,2.9 4.3,2.9 3.91,0 7.51,-2.04 10.85,-6.11 3.32,-4.08 4.99,-8.08 4.99,-12.04 0,-3.91 -1.65,-9.1 -4.9,-15.57 -3.25,-6.48 -7.25,-11.03 -11.97,-13.62 -4.72,-2.59 -8.46,-3.89 -11.2,-3.89 -4.96,0 -11.54,3.34 -19.66,10.02 -8.12,6.65 -15.26,15.31 -21.42,25.96 -6.17,10.63 -9.25,18.23 -9.25,22.78 0,6.13 3.74,11.77 11.18,16.92 7.42,5.16 16.12,7.73 26.09,7.73 5.14,0 11.93,-1.21 20.37,-3.64 8.43,-2.42 15.04,-5.54 19.85,-9.36 1.76,-1.41 2.81,-2.13 3.14,-2.13 0.66,0 1.41,0.31 2.26,0.9 0.86,0.61 1.27,1.17 1.27,1.69 0,3.25 -0.81,5.75 -2.46,7.51 -1.67,1.76 -4.61,3.52 -8.85,5.25 -4.26,1.74 -10.39,3.43 -18.41,5.1 -8.02,1.65 -15.24,2.46 -21.64,2.46 -10.37,0 -19.92,-2.99 -28.62,-9.01 -8.72,-6 -13.07,-13.77 -13.07,-23.28 0,-6.75 3.58,-16.15 10.72,-28.21 7.14,-12.04 15.27,-21.46 24.36,-28.2 9.1,-6.77 16.92,-10.15 23.48,-10.15 10.54,0 19.22,4.44 26.03,13.29 6.81,8.88 10.19,17.84 10.19,26.93 0,5.71 -1.49,11.16 -4.5,16.36 -2.98,5.18 -6.87,8.59 -11.6,10.2 -4.74,1.6 -7.55,2.42 -8.41,2.42 -3.91,0 -7.34,-1.98 -10.3,-5.93zm-4.04 -27.02c-5.18,0.24 -9.86,3.45 -13.99,9.58 -4.15,6.15 -6.21,10.5 -6.21,13.07 0,1.71 0.44,2.92 1.32,3.6 0.88,0.68 2.77,1.03 5.69,1.03 1.98,0 4.9,-1.14 8.78,-3.45 3.89,-2.29 5.82,-4.3 5.82,-6.02 0,-0.46 -0.11,-2.15 -0.31,-5.08 -0.13,-1.93 0.31,-3.93 1.34,-5.99 0.99,-1.89 1.49,-2.86 1.49,-2.94 0,-0.53 -1.32,-1.78 -3.93,-3.8zm126.18 63.44c-5.87,0 -10.72,-2.22 -14.54,-6.68 -3.82,-4.46 -5.73,-9.98 -5.73,-16.54 0,-11.07 3.74,-21.99 11.18,-32.73 7.43,-10.74 16.34,-16.12 26.73,-16.12 6.85,0 12.43,2.64 16.7,7.93 4.26,5.27 6.41,11.55 6.41,18.85 0,11.16 -4.41,21.48 -13.22,31.02 -8.83,9.54 -17.99,14.28 -27.53,14.28zm-8.94 -24.89c0,4.33 0.9,7.87 2.73,10.61 1.82,2.74 4.24,4.13 7.25,4.13 6.39,0 12.81,-3.52 19.24,-10.52 6.44,-7.03 9.64,-14.83 9.64,-23.4 0,-5.29 -1.23,-9.55 -3.69,-12.85 -2.46,-3.28 -5.77,-4.92 -9.95,-4.92 -6.89,0 -12.83,4.24 -17.79,12.71 -4.94,8.46 -7.43,16.54 -7.43,24.23zm110.12 -6.31c-5.49,9.21 -11.12,16.37 -16.87,21.42 -5.73,5.07 -11.07,7.6 -16.01,7.6 -2.83,0 -5.71,-1.65 -8.65,-4.96 -2.94,-3.3 -4.41,-8.39 -4.41,-15.25 0,-5.62 1.36,-13.9 4.06,-24.84 2.26,-9.14 3.4,-15.55 3.4,-19.24 1.25,-2.57 3.21,-3.86 5.87,-3.86 1.8,0 3.23,0.64 4.3,1.91 1.08,1.25 1.6,2.57 1.6,3.96 0,3.01 -1.05,7.27 -3.14,12.81 -4,10.76 -6,20.01 -6,27.74 0,7.03 1.63,10.54 4.9,10.54 4.15,0 9.47,-3.54 15.88,-10.61 6.43,-7.09 11.95,-16.96 16.54,-29.61 1.8,-5.05 3.28,-8.35 4.42,-9.88 1.14,-1.52 2.68,-2.29 4.61,-2.29 2.9,0 4.37,1.93 4.37,5.8 0,0.46 -0.42,2.04 -1.23,4.7 -2.57,9.4 -3.86,18.27 -3.86,26.65 0,10.04 1.67,16.54 4.96,19.48 1.71,1.61 2.57,2.88 2.57,3.87 0,1.21 -0.86,2.3 -2.62,3.29 -1.74,0.99 -3.3,1.47 -4.72,1.47 -3.01,0 -5.43,-2.24 -7.27,-6.7 -1.85,-4.46 -2.77,-11.05 -2.77,-19.75l0 -2.13c0,-0.68 0.02,-1.38 0.07,-2.11zm61.13 -36.94c4.42,-0.35 8.59,-0.75 12.48,-1.23 3.86,-0.42 7.09,-0.64 9.66,-0.64 3.25,0 5.32,0.31 6.17,0.9 0.86,0.59 1.3,1.65 1.3,3.16 0,3.47 -2.44,5.36 -7.27,5.65 -6.24,0.39 -11.95,0.92 -17.2,1.63 -5.23,0.68 -8.04,1.25 -8.46,1.69 -0.39,0.46 -1.69,5.56 -3.89,15.31 -2.2,9.78 -3.3,16.1 -3.3,19.02 0,4.72 0.64,7.86 1.87,9.42 1.25,1.58 3.12,2.35 5.6,2.35 3.69,0 8.83,-2.77 15.4,-8.3 2.52,-2.26 4.48,-3.4 5.84,-3.4 1.85,0 2.77,0.99 2.77,2.96 0,3.1 -2.96,7.09 -8.92,11.99 -5.93,4.92 -12.02,7.38 -18.24,7.38 -10.39,0 -15.57,-6.13 -15.57,-18.34 0,-4.42 1.08,-11.27 3.2,-20.54 2.11,-9.22 3.16,-14.76 3.16,-16.6 0,-0.64 -0.53,-0.97 -1.54,-0.97l-6.7 0.59c-5.49,0 -8.24,-2.2 -8.24,-6.57 0,-2.48 1.25,-3.73 3.8,-3.73l13.25 0c0.9,0 1.69,-0.42 2.4,-1.23 0.68,-0.81 1.69,-3.54 3.01,-8.19 1.34,-4.66 2.52,-9.27 3.54,-13.82 1.03,-4.5 3.05,-6.74 6.06,-6.74 1.85,0 3.28,0.64 4.3,1.93 1.03,1.27 1.54,2.48 1.54,3.6 0,0.59 -0.77,3.67 -2.31,9.2l-3.74 13.51zm61.59 -44.02c3.1,0 4.63,1.98 4.63,5.93 0,3.52 -1.87,11.88 -5.6,25.08 -2.35,8.33 -4.18,17.51 -5.47,27.55 -1.3,10.04 -1.93,17.9 -1.93,23.61 0,7.07 0.46,14.13 1.36,21.11 0.17,1.34 0.24,2.3 0.24,2.9 0,2.15 -0.73,4 -2.18,5.54 -1.47,1.54 -3.01,2.3 -4.64,2.3 -2.28,0 -3.84,-1.4 -4.72,-4.24 -0.88,-2.84 -1.32,-7.4 -1.32,-13.71 0,-14.37 1.71,-32.18 5.16,-53.42 3.47,-21.22 6.21,-33.65 8.24,-37.26 2.04,-3.6 4.11,-5.4 6.22,-5.4zm33.98 112.16c-5.87,0 -10.72,-2.22 -14.54,-6.68 -3.82,-4.46 -5.73,-9.98 -5.73,-16.54 0,-11.07 3.74,-21.99 11.18,-32.73 7.43,-10.74 16.34,-16.12 26.73,-16.12 6.85,0 12.43,2.64 16.7,7.93 4.26,5.27 6.41,11.55 6.41,18.85 0,11.16 -4.41,21.48 -13.22,31.02 -8.83,9.54 -17.99,14.28 -27.53,14.28zm-8.94 -24.89c0,4.33 0.9,7.87 2.73,10.61 1.82,2.74 4.24,4.13 7.25,4.13 6.39,0 12.81,-3.52 19.24,-10.52 6.44,-7.03 9.64,-14.83 9.64,-23.4 0,-5.29 -1.23,-9.55 -3.69,-12.85 -2.46,-3.28 -5.77,-4.92 -9.95,-4.92 -6.89,0 -12.83,4.24 -17.79,12.71 -4.94,8.46 -7.43,16.54 -7.43,24.23zm83.47 24.89c-5.87,0 -10.72,-2.22 -14.54,-6.68 -3.82,-4.46 -5.73,-9.98 -5.73,-16.54 0,-11.07 3.74,-21.99 11.18,-32.73 7.43,-10.74 16.34,-16.12 26.73,-16.12 6.85,0 12.43,2.64 16.7,7.93 4.26,5.27 6.41,11.55 6.41,18.85 0,11.16 -4.41,21.48 -13.22,31.02 -8.83,9.54 -17.99,14.28 -27.53,14.28zm-8.94 -24.89c0,4.33 0.9,7.87 2.73,10.61 1.82,2.74 4.24,4.13 7.25,4.13 6.39,0 12.81,-3.52 19.24,-10.52 6.44,-7.03 9.64,-14.83 9.64,-23.4 0,-5.29 -1.23,-9.55 -3.69,-12.85 -2.46,-3.28 -5.77,-4.92 -9.95,-4.92 -6.89,0 -12.83,4.24 -17.79,12.71 -4.94,8.46 -7.43,16.54 -7.43,24.23zm77.17 -8.37c0.55,-0.73 4.4,-4.2 11.51,-10.37 6.75,-5.87 11.44,-10.15 14.11,-12.81 9.9,-9.9 17.02,-14.87 21.37,-14.87 3.34,0 5.01,1.62 5.01,4.83 0,3.64 -1.65,6.33 -4.94,8.04 -4.3,2.2 -10.02,5.82 -17.2,10.92 -7.16,5.07 -10.74,8.68 -10.74,10.78 0,0.86 2.53,4.06 7.6,9.62 5.05,5.55 9.45,9.64 13.11,12.28 3.69,2.64 7.29,3.95 10.76,3.95l2.11 -0.07c1.52,-0.09 2.26,0.59 2.26,2 0,1.89 -1.19,3.82 -3.54,5.75 -2.37,1.96 -5.47,2.94 -9.34,2.94 -2.48,0 -5.01,-0.88 -7.55,-2.61 -2.55,-1.74 -7.09,-6.42 -13.62,-14.06 -5.18,-6.31 -8.43,-10.08 -9.71,-11.29 -1.3,-1.23 -2.37,-1.84 -3.23,-1.84 -0.46,0 -1.98,1.12 -4.5,3.36 -2.53,2.22 -3.91,3.91 -4.16,5.08 -0.22,1.16 -0.35,5.58 -0.35,13.27l0 3.01c0,1.6 -0.75,3.01 -2.24,4.26 -1.52,1.23 -3.14,1.87 -4.9,1.87 -1.8,0 -3.21,-0.53 -4.24,-1.58 -1.03,-1.05 -1.56,-2.13 -1.56,-3.25 0,-1.54 0.59,-5.18 1.74,-10.94 1.65,-8.28 3.14,-19.38 4.5,-33.28 3.18,-32.82 5.62,-51.38 7.33,-55.69 1.74,-4.33 4.18,-6.48 7.34,-6.48 1.12,0 2.06,0.59 2.81,1.8 0.75,1.21 1.12,2.75 1.12,4.64 0,3.42 -1.47,12.54 -4.44,27.35 -2.96,14.85 -5.1,29.3 -6.44,43.38zm74.73 12.28l1.41 0c0.77,0 1.69,0.37 2.76,1.14 1.08,0.75 1.61,1.76 1.61,3.06 0,2.57 -0.44,4.46 -1.34,5.67 -0.9,1.19 -2.35,2.53 -4.35,3.98 -2,1.47 -3.4,2.2 -4.22,2.2 -1.8,0 -3.14,-0.42 -4,-1.23 -0.86,-0.81 -1.27,-3.03 -1.27,-6.7 0,-3.38 0.2,-5.4 0.57,-6.04 0.39,-0.64 1.32,-1.14 2.81,-1.52 1.47,-0.35 3.47,-0.55 6.02,-0.55zm41.38 21.44c-6.43,0 -11.4,-1.85 -14.85,-5.54 -3.45,-3.69 -5.18,-8.85 -5.18,-15.51 0,-11.2 4.44,-23 13.33,-35.43 8.88,-12.41 17.14,-18.63 24.78,-18.63 3.47,0 6.46,1.87 8.96,5.62 2.53,3.76 3.78,7.73 3.78,11.95 0,2.52 -0.55,4.7 -1.65,6.52 -1.1,1.83 -2.2,2.75 -3.32,2.75 -2.48,0 -4.24,-2.53 -5.27,-7.53 -1.16,-5.4 -2.83,-8.11 -5.03,-8.11 -4.46,0 -9.73,5.3 -15.82,15.88 -6.11,10.61 -9.14,19.55 -9.14,26.85 0,7.29 4.13,10.94 12.41,10.94 6.31,0 13.73,-2.97 22.27,-8.88 3.01,-2.11 5.21,-3.16 6.63,-3.16 1.45,0 2.18,0.83 2.18,2.52 0,3.25 -3.84,7.36 -11.51,12.32 -7.69,4.94 -15.22,7.43 -22.58,7.43zm68.01 -0.46c-5.87,0 -10.72,-2.22 -14.54,-6.68 -3.82,-4.46 -5.73,-9.98 -5.73,-16.54 0,-11.07 3.74,-21.99 11.18,-32.73 7.43,-10.74 16.34,-16.12 26.73,-16.12 6.85,0 12.43,2.64 16.7,7.93 4.26,5.27 6.41,11.55 6.41,18.85 0,11.16 -4.41,21.48 -13.22,31.02 -8.83,9.54 -17.99,14.28 -27.53,14.28zm-8.94 -24.89c0,4.33 0.9,7.87 2.73,10.61 1.82,2.74 4.24,4.13 7.25,4.13 6.39,0 12.81,-3.52 19.24,-10.52 6.44,-7.03 9.64,-14.83 9.64,-23.4 0,-5.29 -1.23,-9.55 -3.69,-12.85 -2.46,-3.28 -5.77,-4.92 -9.95,-4.92 -6.89,0 -12.83,4.24 -17.79,12.71 -4.94,8.46 -7.43,16.54 -7.43,24.23zm113.28 -29.22c-4,0.09 -12.54,11.91 -25.61,35.45 -4.44,7.93 -7.01,12.26 -7.73,12.96 -0.72,0.7 -2.06,1.34 -4.02,1.91 -1.96,0.55 -3.58,0.84 -4.86,0.84 -2.88,0 -4.33,-5.6 -4.33,-16.81 0,-6.3 1.36,-17.73 4.06,-34.24 1.12,-6.68 1.67,-11.47 1.67,-14.35 0,-2.83 1.27,-4.24 3.8,-4.24 4.77,0 7.14,3.42 7.14,10.28 0,3.23 -0.79,9.54 -2.37,18.94 -1.85,10.72 -2.79,17.24 -2.84,19.55 2.66,-2.57 6.57,-8.21 11.71,-16.91 7.29,-11.93 12.67,-19.49 16.12,-22.69 3.45,-3.19 7.03,-4.79 10.72,-4.79 2.79,0 5.01,1.87 6.65,5.6 1.65,3.74 2.66,12.63 2.99,26.71 0.09,3.52 0.42,6.13 0.97,7.84 0.57,1.71 0.97,2.57 1.23,2.57 2.02,0 6.39,-6.85 13.14,-20.58 3.6,-7.25 7.09,-12.76 10.52,-16.54 3.41,-3.78 7.19,-5.67 11.36,-5.67 3.47,0 6,1.8 7.58,5.38 1.6,3.58 2.72,8.87 3.42,15.92 0.64,7.11 1.63,13.64 2.99,19.55 1.34,5.93 3.82,9.73 7.43,11.4 2.46,1.16 3.67,2.5 3.67,4.06 0,1.49 -1.03,3.03 -3.08,4.61 -2.06,1.6 -3.95,2.4 -5.67,2.4 -3.45,0 -6.5,-2.11 -9.2,-6.31 -2.7,-4.22 -4.74,-13.31 -6.11,-27.28 -0.61,-5.62 -1.19,-9.62 -1.76,-11.97 -0.55,-2.37 -1.43,-3.56 -2.64,-3.56 -1.8,0 -3.94,1.74 -6.39,5.16 -2.48,3.43 -6.46,10.42 -11.95,20.91 -4.28,8.19 -7.53,13.66 -9.76,16.39 -2.2,2.72 -4.33,4.08 -6.39,4.08 -1.85,0 -3.5,-0.75 -4.96,-2.22 -1.45,-1.49 -2.37,-3.27 -2.77,-5.36 -0.37,-2.06 -0.79,-7.18 -1.21,-15.33 -0.66,-13.55 -1.82,-21.46 -3.54,-23.68z"/>
   </g>
   <path class="fil1 str0" d="M1857.04 198.29c35.3,-32.69 86.71,-67.62 118.92,-43.4"/>
   <g>
    <polygon class="fil1 str1" points="505.02,768.88 648.08,768.88 648.08,856.95 505.02,856.95 "/>
    <polyline class="fil1 str1" points="505.02,768.88 576.56,821.72 648.08,768.88 "/>
   </g>
   <polygon class="fil1" points="-0,0 2407.62,0 2407.62,1245.32 -0,1245.32 "/>
  </g>
 </g>
</svg>
