<?xml version="1.0" encoding="UTF-8"?>
<!DOCTYPE svg PUBLIC "-//W3C//DTD SVG 1.1//EN" "http://www.w3.org/Graphics/SVG/1.1/DTD/svg11.dtd">
<!-- Creator: CorelDRAW 2020 -->
<svg xmlns="http://www.w3.org/2000/svg" xml:space="preserve" width="10.8213mm" height="9.6121mm" version="1.1" style="shape-rendering:geometricPrecision; text-rendering:geometricPrecision; image-rendering:optimizeQuality; fill-rule:evenodd; clip-rule:evenodd"
viewBox="0 0 226.53 201.22"
 xmlns:xlink="http://www.w3.org/1999/xlink"
 xmlns:xodm="http://www.corel.com/coreldraw/odm/2003">
 <defs>
  <style type="text/css">
   <![CDATA[
    .str0 {stroke:#C6B93A;stroke-width:10.47;stroke-miterlimit:22.9256}
    .str1 {stroke:#C6B93A;stroke-width:4.19;stroke-miterlimit:22.9256}
    .fil0 {fill:none}
    .fil1 {fill:#C6B93A}
    .fil2 {fill:#C6B93A;fill-rule:nonzero}
   ]]>
  </style>
 </defs>
 <g id="Layer_x0020_1">
  <metadata id="CorelCorpID_0Corel-Layer"/>
  <line class="fil0 str0" x1="41.3" y1="119.91" x2="181.63" y2= "119.91" />
  <path class="fil1 str1" d="M110.17 35.95c8.49,0 41.59,9.38 41.99,-23.01 0.18,-14.76 13.55,-14.18 18.15,0.03 0.43,1.34 3.1,1.7 5.05,3.86 0,0 6.05,10.3 -4.55,11.68 -11.28,1.48 -4.25,-10.72 -10.49,21.26 -4.15,21.25 -0.33,31.27 -0.33,57.44 15.88,0 -10.52,23.55 -6.1,-16.07 1.87,-16.73 -26.26,-58.03 -51.58,15.39 -6.24,18.1 -13.37,10.16 -3.51,-7.42 4.29,-7.65 2.2,-42.31 3.53,-48.03 -6.74,8.27 2.25,21.71 -22.5,19.42 -2.44,-0.23 -7.49,-43.97 0.87,-21.03 1.5,4.13 0.22,16.58 4.05,14.67 7.54,-3.77 13.19,-28.18 25.43,-28.18z"/>
  <path class="fil1 str1" d="M47.09 77.71c5.62,0.33 6.48,-4.04 10.91,-8.99 1.51,-1.68 3.81,9.53 3.36,14.24 0.64,1.95 11.91,-2.38 14.97,0.32 4.14,3.64 1.76,4.28 5.76,10.01 0.72,1.04 5.62,5.41 5.62,6.51 0,-14.94 3.77,-16.98 0.22,-1.71 -1.39,5.97 -10.16,-3.01 -13.58,6.36 -2.79,7.66 -9.81,1.1 -9.09,-4.81 -2.74,-7.37 -7.47,-0.12 -10.17,-7.54 0.97,-9.44 -0.09,-2.61 2.31,-10.56 -0.03,-0.06 -3.89,-3.57 -4.52,-4.18 -1.57,-1.52 -7.01,0.27 -5.79,0.35z"/>
  <path class="fil0 str1" d="M70.12 106.42c-0.06,0.27 -1.82,6.31 -1.92,6.41 -1.37,1.29 -5.1,1.07 -6.57,1.07"/>
  <path class="fil0 str1" d="M73.45 104.5c-0.05,4.68 1.12,7.46 2.27,10.97"/>
  <path class="fil2" d="M26.49 167.57c-0.25,4.38 -0.67,8.67 -1.26,12.88 -0.29,0.8 -1.03,1.2 -2.21,1.2 -1.72,0 -2.57,-0.88 -2.57,-2.63 0,-0.72 0.21,-2.06 0.62,-4.03 0.29,-1.71 0.44,-2.87 0.46,-3.49 0.02,-0.61 0.07,-1.29 0.15,-2.02 0.08,-0.73 0.07,-1.3 -0.03,-1.73 -0.99,0.13 -3.02,1.32 -6.07,3.56 -3.06,2.24 -5.68,4.45 -7.86,6.66l0 -0.03c-0.14,0.08 -0.57,0.81 -1.29,2.19 -1.04,2.06 -2.17,3.09 -3.42,3.09 -0.59,0 -1.24,-0.25 -1.94,-0.76 -0.71,-0.51 -1.07,-1 -1.07,-1.51 0,-1.21 1.14,-3.01 3.41,-5.39 2.26,-2.38 4.77,-4.43 7.52,-6.12 3.35,-2.06 5.65,-3.73 6.92,-4.99 -0.56,-0.8 -1.67,-1.66 -3.3,-2.62 -1.66,-0.98 -3.19,-2.06 -4.62,-3.27 -0.19,-0.16 -0.43,-0.34 -0.7,-0.53 -2.51,-1.7 -4.18,-2.96 -5,-3.81 -0.83,-0.85 -1.25,-1.76 -1.25,-2.73 0,-0.65 0.25,-1.24 0.73,-1.77 0.49,-0.53 0.97,-0.8 1.44,-0.8 0.29,0 0.82,0.15 1.57,0.47 0.76,0.31 1.31,0.64 1.63,0.99l1.43 1.35c5.05,4.95 9.04,8.1 11.98,9.43 0.15,0 0.35,-0.18 0.58,-0.55 0.2,-0.67 0.3,-1.72 0.3,-3.19 0,-1.36 -0.15,-2.89 -0.44,-4.59 -0.16,-0.87 -0.24,-1.45 -0.24,-1.72 0,-0.91 0.36,-1.65 1.07,-2.22 0.72,-0.57 1.48,-0.85 2.32,-0.85 0.96,0 1.61,0.2 1.96,0.59 0.36,0.39 0.53,1.05 0.53,1.98l-0.38 9.28 0 0.59c0,0.27 0.01,0.5 0.03,0.67 0.68,0 1.4,-0.26 2.14,-0.8 0.74,-0.54 1.84,-1.61 3.3,-3.2 6.41,-6.64 10.12,-9.96 11.13,-9.96 0.57,0 1.08,0.24 1.54,0.7 0.47,0.47 0.71,1.02 0.71,1.63 0,0.32 -1.07,1.64 -3.2,3.96 -2.13,2.33 -4.33,4.47 -6.59,6.41 -2.9,2.49 -4.35,3.79 -4.35,3.89 0,0.14 1.21,1.15 3.62,3.04 2.61,2.05 4.41,3.49 5.4,4.35 0.14,0.1 0.33,0.23 0.59,0.38 2.88,1.78 4.67,3.1 5.4,3.98 0.72,0.88 1.08,1.62 1.08,2.21 0,0.57 -0.24,1.15 -0.73,1.74 -0.49,0.59 -0.97,0.89 -1.43,0.89 -1.73,0 -5.75,-2.91 -12.06,-8.73 -2.8,-2.61 -4.5,-3.98 -5.08,-4.12 -0.26,-0.04 -0.45,-0.09 -0.59,-0.15 -0.2,-0.05 -0.55,-0.07 -1.06,-0.04 -0.5,0.03 -0.78,0.11 -0.82,0.25zm47 2.66c-2.72,3.66 -5.42,6.4 -8.08,8.24 -2.67,1.82 -5.12,2.74 -7.34,2.74 -1.49,0 -2.79,-0.63 -3.88,-1.89 -1.1,-1.27 -1.63,-2.89 -1.63,-4.89 0,-5.12 2.28,-10.63 6.86,-16.54 4.58,-5.91 9.12,-8.86 13.64,-8.86 1.63,0 2.85,0.93 3.66,2.8 0.25,0.62 0.65,0.94 1.2,0.94 1.55,0 2.33,0.6 2.33,1.8 0,0.61 -0.1,1.44 -0.29,2.48 -1.06,5.74 -1.58,9.8 -1.58,12.15 0,4.72 0.89,7.54 2.68,8.47 0.86,0.47 1.29,1.04 1.29,1.71 0,0.61 -0.42,1.22 -1.26,1.84 -0.84,0.61 -1.65,0.92 -2.42,0.92 -1.51,0 -2.74,-1.04 -3.71,-3.1 -0.98,-2.06 -1.47,-5.01 -1.47,-8.81zm-1.77 -16.45c-2.57,0 -5.56,2.41 -8.97,7.23 -3.41,4.83 -5.12,8.82 -5.12,12 0,2.23 0.75,3.36 2.23,3.36 2.14,0 5.11,-2.16 8.91,-6.49 3.8,-4.32 5.69,-8.3 5.69,-11.92 0,-2.78 -0.92,-4.18 -2.74,-4.18zm38.69 8.01c0.21,-0.41 0.56,-2.85 1.02,-7.33 0.36,-3.59 1.5,-5.38 3.42,-5.38 1.58,0 2.37,0.8 2.37,2.37 0,0.37 -0.14,1.12 -0.41,2.24 -1.51,6.21 -2.25,11.42 -2.25,15.63 0,4.56 0.75,7.5 2.25,8.84 0.78,0.73 1.17,1.3 1.17,1.75 0,0.55 -0.4,1.05 -1.19,1.49 -0.79,0.45 -1.51,0.67 -2.14,0.67 -3.04,0 -4.56,-4.7 -4.56,-14.08 0,-0.63 -0.24,-0.94 -0.71,-0.94 -1.83,0 -4.07,0.11 -6.71,0.32 -2.65,0.22 -4.55,0.49 -5.68,0.82 -1.15,0.34 -1.84,0.64 -2.1,0.93 -0.27,0.28 -0.5,1.03 -0.71,2.24 -0.2,1.21 -0.3,2.48 -0.3,3.79l0 3.59c0,2.09 -0.96,3.13 -2.86,3.13 -1.61,0 -2.4,-1.05 -2.4,-3.13 0,-1.36 0.18,-3.1 0.53,-5.19 0.65,-3.86 1.29,-10.5 1.92,-19.92 0.08,-1.24 0.19,-2.01 0.33,-2.34 0.13,-0.33 0.49,-0.7 1.07,-1.1 0.57,-0.4 1.2,-0.6 1.88,-0.6 1.4,0 2.1,0.58 2.1,1.72 0,0.18 -0.23,1.63 -0.68,4.39 -0.47,2.74 -0.7,4.88 -0.7,6.39 0,1.08 0.37,1.61 1.11,1.61 1.49,0 4.19,-0.25 8.13,-0.74 3.93,-0.5 5.96,-0.9 6.1,-1.19zm35.28 8.76c-2.96,2.78 -5.92,4.97 -8.88,6.54 -2.96,1.57 -5.22,2.36 -6.81,2.36 -1.8,0 -3.25,-0.77 -4.34,-2.32 -1.08,-1.54 -1.61,-3.45 -1.61,-5.7 0,-3.29 0.63,-7.19 1.88,-11.67 1.26,-4.49 2.21,-7.03 2.87,-7.64 0.67,-0.6 1.54,-0.91 2.63,-0.91 0.59,0 1.05,0.35 1.38,1.04 0.33,0.7 0.5,1.4 0.5,2.12 0,0.49 -0.23,1.12 -0.68,1.89 -2.55,4.43 -3.83,9 -3.83,13.7 0,1.1 0.21,2.05 0.62,2.88 0.41,0.83 1.03,1.24 1.87,1.24 1.08,0 2.39,-0.32 3.96,-0.98 1.57,-0.65 3.34,-1.71 5.3,-3.2 1.96,-1.47 3.29,-2.67 3.98,-3.59 0.68,-0.92 1.16,-1.96 1.44,-3.12 0.28,-1.17 0.48,-3.71 0.6,-7.59 0.11,-3.9 1.06,-5.84 2.83,-5.84 1.05,0 1.73,0.28 2.05,0.83 0.31,0.56 0.47,1.61 0.47,3.17 0,1.17 -0.18,3.7 -0.53,7.59 -0.08,0.88 -0.13,1.69 -0.15,2.42 -0.56,10.4 -2.12,18.54 -4.67,24.44 -2.55,5.9 -6.26,8.85 -11.13,8.85 -3.81,0 -7.21,-1 -10.18,-2.99 -2.96,-2.01 -4.45,-3.69 -4.45,-5.08 0,-0.64 0.15,-1.27 0.45,-1.89 0.3,-0.63 0.69,-0.94 1.16,-0.94 0.23,0 0.49,0.19 0.76,0.56 2.55,3.91 6.47,5.87 11.78,5.87 3.36,0 5.88,-2.06 7.56,-6.18 1.67,-4.12 2.74,-9.41 3.19,-15.87zm33.44 -0.32c-2.72,3.66 -5.42,6.4 -8.09,8.24 -2.67,1.82 -5.11,2.74 -7.34,2.74 -1.49,0 -2.79,-0.63 -3.88,-1.89 -1.1,-1.27 -1.64,-2.89 -1.64,-4.89 0,-5.12 2.28,-10.63 6.86,-16.54 4.58,-5.91 9.12,-8.86 13.64,-8.86 1.64,0 2.85,0.93 3.66,2.8 0.25,0.62 0.65,0.94 1.2,0.94 1.55,0 2.33,0.6 2.33,1.8 0,0.61 -0.1,1.44 -0.29,2.48 -1.06,5.74 -1.58,9.8 -1.58,12.15 0,4.72 0.89,7.54 2.68,8.47 0.86,0.47 1.29,1.04 1.29,1.71 0,0.61 -0.42,1.22 -1.26,1.84 -0.84,0.61 -1.65,0.92 -2.42,0.92 -1.51,0 -2.74,-1.04 -3.71,-3.1 -0.98,-2.06 -1.46,-5.01 -1.46,-8.81zm-1.78 -16.45c-2.57,0 -5.56,2.41 -8.97,7.23 -3.41,4.83 -5.12,8.82 -5.12,12 0,2.23 0.75,3.36 2.23,3.36 2.14,0 5.11,-2.16 8.91,-6.49 3.8,-4.32 5.69,-8.3 5.69,-11.92 0,-2.78 -0.92,-4.18 -2.74,-4.18zm22.83 23.69c-0.96,3.51 -1.84,8.42 -2.68,14.75l-0.82 5.51c-0.14,0.78 -0.5,1.55 -1.09,2.32 -0.58,0.77 -1.12,1.16 -1.61,1.16 -0.61,0 -1.29,-0.31 -2.06,-0.92 -0.77,-0.62 -1.15,-1.11 -1.15,-1.48 0,-1.08 0.24,-2.55 0.73,-4.45 3.56,-14.39 5.34,-27.03 5.34,-37.9l-0.03 -2.45c-0.04,-2.1 0.33,-3.64 1.11,-4.58 0.79,-0.96 1.67,-1.44 2.69,-1.44 0.47,0 0.92,0.37 1.35,1.1 0.43,0.73 0.64,1.76 0.64,3.11 0,1.88 -0.19,4.18 -0.58,6.86 -0.51,3.39 -0.77,5.35 -0.79,5.84 2.9,-5.05 5.97,-9.01 9.22,-11.85 3.25,-2.84 6.27,-4.27 9.06,-4.27 1.97,0 3.62,0.74 4.98,2.2 1.36,1.48 2.03,3.3 2.03,5.48 0,6.34 -2.43,12.11 -7.31,17.29 -4.87,5.19 -9.61,7.77 -14.22,7.77 -1.16,0 -2.06,-0.29 -2.73,-0.87 -0.68,-0.59 -1.38,-1.65 -2.09,-3.19zm18.13 -23.51c-2.74,0 -6.14,2.57 -10.19,7.71 -4.05,5.14 -6.07,9.14 -6.07,12 0,0.71 0.4,1.39 1.2,2.04 0.8,0.67 1.8,1 3.03,1 2.79,0 5.99,-2.07 9.61,-6.18 3.63,-4.12 5.43,-8.16 5.43,-12.13 0,-1.43 -0.29,-2.51 -0.86,-3.29 -0.58,-0.77 -1.3,-1.15 -2.15,-1.15z"/>
 </g>
</svg>
