<?xml version="1.0" encoding="UTF-8"?>
<!DOCTYPE svg PUBLIC "-//W3C//DTD SVG 1.1//EN" "http://www.w3.org/Graphics/SVG/1.1/DTD/svg11.dtd">
<!-- Creator: CorelDRAW 2020 -->
<svg xmlns="http://www.w3.org/2000/svg" xml:space="preserve" width="12mm" height="10.2mm" version="1.1" style="shape-rendering:geometricPrecision; text-rendering:geometricPrecision; image-rendering:optimizeQuality; fill-rule:evenodd; clip-rule:evenodd"
viewBox="0 0 238.89 203.05"
 xmlns:xlink="http://www.w3.org/1999/xlink"
 xmlns:xodm="http://www.corel.com/coreldraw/odm/2003">
 <defs>
  <style type="text/css">
   <![CDATA[
    .fil0 {fill:none}
    .fil1 {fill:#ACA77B}
    .fil2 {fill:#ACA77B;fill-rule:nonzero}
   ]]>
  </style>
 </defs>
 <g id="Layer_x0020_1">
  <metadata id="CorelCorpID_0Corel-Layer"/>
  <g id="_1440726608">
   <polygon class="fil0" points="-0,0 238.89,0 238.89,203.05 -0,203.05 "/>
   <g>
    <path class="fil1" d="M155.88 52.07c-10.06,0 -49.27,8.92 -49.74,-21.88 -0.22,-14.04 -16.06,-13.49 -21.5,0.03 -0.52,1.28 -3.68,1.61 -5.98,3.67 0,0 -7.16,9.79 5.39,11.11 13.37,1.41 5.03,-10.2 12.43,20.21 4.91,20.21 0.39,29.74 0.39,54.63 -18.81,0 12.93,26.64 7.68,-11.03 -2.21,-15.91 28.42,-57.19 59.03,12.36 6.48,14.72 17.46,7.69 5.78,-9.03 -5.08,-7.28 -3.2,-36.15 -4.77,-41.6 7.99,7.86 -1.78,19.4 27.53,17.21 2.89,-0.22 5.78,-44.78 -4.12,-22.96 -1.78,3.93 2.53,15.9 -2,14.08 -8.93,-3.58 -15.62,-26.8 -30.13,-26.8z"/>
    <path class="fil1" d="M44.43 93.15c-0.61,-0.92 4.34,-4.33 5.52,-5.05 2.41,-1.48 2.91,-0.34 6.07,-3.49 1.6,-1.6 4.05,9.06 3.57,13.54 0.68,1.86 12.64,-2.26 15.89,0.3 4.4,3.46 1.88,4.07 6.11,9.52 0.77,0.98 4.55,1.79 4.55,2.83 0,-14.21 6.87,-10.68 3.09,3.84 -1.47,5.67 -10.4,-3.71 -14.02,5.2 -0.53,1.3 -0.98,1.95 -1.91,2.44 -0.21,0.11 2.87,5.79 2.65,5.86 -0.07,0.02 -3.42,0.92 -3.99,0.21 -1.24,-1.53 -0.72,-5.61 -0.88,-5.59 -0.88,0.15 -1.34,0.28 -2.29,0.04 -0.12,-0.03 -0.54,3.69 -1.6,4.33 -6.23,3.74 -11.13,-0.72 -8.24,-2.06 0.28,-0.13 5.26,0.47 5.31,0.39l2.08 -3.3c-3.32,-1.31 -4.88,-4.3 -4.47,-7.3 -2.91,-7.01 -6.09,-0.97 -8.95,-8.03 1.03,-8.98 -0.1,-2.49 2.45,-10.04 -0.03,-0.05 -3.61,-1.98 -4.27,-2.55 -1.66,-1.44 -5.96,-0 -6.67,-1.09z"/>
   </g>
   <path class="fil2" d="M36.86 169.22c-0.24,4.16 -0.64,8.25 -1.19,12.25 -0.27,0.76 -0.98,1.14 -2.1,1.14 -1.63,0 -2.45,-0.84 -2.45,-2.5 0,-0.68 0.2,-1.96 0.59,-3.83 0.27,-1.63 0.42,-2.73 0.44,-3.32 0.02,-0.58 0.07,-1.22 0.14,-1.92 0.07,-0.69 0.07,-1.24 -0.03,-1.65 -0.94,0.12 -2.87,1.25 -5.77,3.39 -2.91,2.13 -5.4,4.24 -7.47,6.33l0 -0.03c-0.13,0.07 -0.54,0.77 -1.22,2.08 -0.99,1.96 -2.07,2.94 -3.25,2.94 -0.56,0 -1.17,-0.24 -1.85,-0.72 -0.67,-0.48 -1.01,-0.96 -1.01,-1.44 0,-1.15 1.08,-2.86 3.24,-5.13 2.15,-2.27 4.54,-4.21 7.15,-5.82 3.19,-1.96 5.37,-3.55 6.58,-4.75 -0.53,-0.76 -1.58,-1.58 -3.14,-2.49 -1.57,-0.93 -3.04,-1.96 -4.39,-3.11 -0.18,-0.15 -0.41,-0.32 -0.66,-0.5 -2.39,-1.61 -3.97,-2.82 -4.76,-3.62 -0.79,-0.8 -1.19,-1.68 -1.19,-2.6 0,-0.62 0.24,-1.17 0.69,-1.69 0.46,-0.5 0.92,-0.76 1.37,-0.76 0.27,0 0.78,0.14 1.5,0.45 0.72,0.29 1.24,0.61 1.55,0.94l1.36 1.28c4.8,4.7 8.59,7.7 11.39,8.97 0.14,0 0.33,-0.17 0.55,-0.52 0.19,-0.64 0.28,-1.64 0.28,-3.03 0,-1.29 -0.14,-2.75 -0.42,-4.36 -0.15,-0.83 -0.23,-1.38 -0.23,-1.63 0,-0.87 0.34,-1.57 1.02,-2.11 0.68,-0.54 1.41,-0.8 2.21,-0.8 0.91,0 1.53,0.19 1.86,0.56 0.34,0.37 0.5,1 0.5,1.89l-0.36 8.82 0 0.56c0,0.25 0.01,0.47 0.03,0.63 0.64,0 1.33,-0.25 2.03,-0.76 0.7,-0.51 1.75,-1.53 3.14,-3.04 6.1,-6.31 9.62,-9.47 10.58,-9.47 0.54,0 1.03,0.23 1.47,0.66 0.45,0.45 0.67,0.97 0.67,1.55 0,0.3 -1.02,1.56 -3.04,3.76 -2.03,2.22 -4.11,4.25 -6.27,6.1 -2.76,2.37 -4.13,3.6 -4.13,3.7 0,0.13 1.15,1.09 3.44,2.89 2.48,1.94 4.2,3.32 5.14,4.13 0.13,0.09 0.31,0.22 0.56,0.36 2.74,1.69 4.45,2.95 5.14,3.78 0.68,0.83 1.03,1.54 1.03,2.1 0,0.54 -0.23,1.09 -0.69,1.66 -0.46,0.56 -0.92,0.84 -1.36,0.84 -1.65,0 -5.47,-2.77 -11.47,-8.3 -2.66,-2.49 -4.28,-3.78 -4.83,-3.92 -0.25,-0.04 -0.43,-0.08 -0.56,-0.14 -0.19,-0.05 -0.52,-0.07 -1,-0.04 -0.48,0.03 -0.74,0.1 -0.78,0.24zm44.69 2.53c-2.59,3.48 -5.16,6.09 -7.69,7.83 -2.54,1.73 -4.87,2.61 -6.98,2.61 -1.42,0 -2.65,-0.6 -3.69,-1.8 -1.04,-1.2 -1.55,-2.75 -1.55,-4.65 0,-4.87 2.17,-10.11 6.52,-15.73 4.35,-5.62 8.67,-8.43 12.97,-8.43 1.55,0 2.71,0.88 3.48,2.67 0.24,0.59 0.62,0.89 1.14,0.89 1.48,0 2.22,0.57 2.22,1.72 0,0.58 -0.1,1.37 -0.27,2.36 -1,5.46 -1.5,9.32 -1.5,11.56 0,4.49 0.84,7.17 2.55,8.06 0.81,0.45 1.22,0.99 1.22,1.63 0,0.58 -0.4,1.16 -1.19,1.75 -0.8,0.58 -1.56,0.87 -2.3,0.87 -1.43,0 -2.61,-0.99 -3.53,-2.95 -0.93,-1.96 -1.39,-4.76 -1.39,-8.38zm-1.69 -15.64c-2.45,0 -5.29,2.29 -8.53,6.87 -3.24,4.59 -4.87,8.39 -4.87,11.41 0,2.12 0.71,3.19 2.12,3.19 2.04,0 4.86,-2.06 8.47,-6.17 3.61,-4.11 5.41,-7.89 5.41,-11.33 0,-2.64 -0.87,-3.97 -2.61,-3.97zm36.79 7.61c0.2,-0.39 0.53,-2.71 0.97,-6.97 0.34,-3.41 1.42,-5.12 3.25,-5.12 1.5,0 2.26,0.76 2.26,2.26 0,0.35 -0.13,1.06 -0.39,2.13 -1.43,5.91 -2.14,10.86 -2.14,14.87 0,4.33 0.71,7.14 2.14,8.41 0.74,0.69 1.11,1.24 1.11,1.67 0,0.52 -0.38,1 -1.13,1.42 -0.75,0.43 -1.43,0.64 -2.04,0.64 -2.89,0 -4.33,-4.47 -4.33,-13.39 0,-0.6 -0.23,-0.89 -0.67,-0.89 -1.74,0 -3.87,0.11 -6.38,0.3 -2.52,0.21 -4.32,0.46 -5.4,0.78 -1.09,0.32 -1.75,0.61 -2,0.88 -0.25,0.26 -0.47,0.98 -0.67,2.13 -0.19,1.15 -0.28,2.36 -0.28,3.6l0 3.41c0,1.98 -0.91,2.98 -2.72,2.98 -1.53,0 -2.28,-1 -2.28,-2.98 0,-1.3 0.17,-2.95 0.5,-4.94 0.62,-3.67 1.22,-9.98 1.83,-18.94 0.08,-1.17 0.18,-1.92 0.31,-2.23 0.12,-0.31 0.47,-0.66 1.02,-1.04 0.54,-0.38 1.14,-0.57 1.79,-0.57 1.33,0 2,0.55 2,1.64 0,0.17 -0.22,1.55 -0.64,4.17 -0.44,2.61 -0.66,4.64 -0.66,6.08 0,1.03 0.35,1.53 1.05,1.53 1.41,0 3.98,-0.24 7.73,-0.7 3.73,-0.48 5.67,-0.85 5.8,-1.13zm33.55 8.33c-2.81,2.65 -5.63,4.72 -8.45,6.22 -2.81,1.5 -4.97,2.25 -6.48,2.25 -1.72,0 -3.09,-0.73 -4.12,-2.21 -1.02,-1.47 -1.53,-3.28 -1.53,-5.42 0,-3.13 0.6,-6.83 1.79,-11.1 1.19,-4.27 2.1,-6.68 2.73,-7.26 0.64,-0.57 1.47,-0.86 2.5,-0.86 0.56,0 1,0.33 1.31,0.99 0.31,0.66 0.47,1.33 0.47,2.02 0,0.46 -0.22,1.06 -0.64,1.8 -2.43,4.21 -3.64,8.55 -3.64,13.03 0,1.04 0.2,1.95 0.59,2.74 0.39,0.79 0.98,1.18 1.77,1.18 1.02,0 2.28,-0.3 3.76,-0.93 1.5,-0.62 3.17,-1.63 5.04,-3.04 1.87,-1.4 3.13,-2.54 3.78,-3.41 0.64,-0.87 1.1,-1.86 1.37,-2.97 0.27,-1.12 0.46,-3.53 0.57,-7.22 0.11,-3.71 1.01,-5.56 2.69,-5.56 1,0 1.65,0.26 1.94,0.79 0.29,0.53 0.44,1.53 0.44,3.02 0,1.11 -0.17,3.52 -0.5,7.22 -0.08,0.84 -0.12,1.6 -0.14,2.31 -0.53,9.89 -2.02,17.63 -4.44,23.25 -2.43,5.61 -5.95,8.42 -10.59,8.42 -3.62,0 -6.86,-0.95 -9.68,-2.84 -2.81,-1.91 -4.23,-3.51 -4.23,-4.83 0,-0.61 0.14,-1.21 0.43,-1.8 0.28,-0.6 0.65,-0.89 1.1,-0.89 0.22,0 0.46,0.18 0.72,0.53 2.43,3.72 6.16,5.58 11.2,5.58 3.2,0 5.59,-1.96 7.19,-5.88 1.59,-3.92 2.61,-8.95 3.03,-15.09zm31.8 -0.3c-2.59,3.48 -5.16,6.09 -7.69,7.83 -2.54,1.73 -4.86,2.61 -6.98,2.61 -1.42,0 -2.65,-0.6 -3.69,-1.8 -1.04,-1.2 -1.56,-2.75 -1.56,-4.65 0,-4.87 2.17,-10.11 6.52,-15.73 4.35,-5.62 8.68,-8.43 12.97,-8.43 1.56,0 2.71,0.88 3.48,2.67 0.24,0.59 0.62,0.89 1.14,0.89 1.48,0 2.22,0.57 2.22,1.72 0,0.58 -0.1,1.37 -0.27,2.36 -1.01,5.46 -1.5,9.32 -1.5,11.56 0,4.49 0.84,7.17 2.55,8.06 0.81,0.45 1.22,0.99 1.22,1.63 0,0.58 -0.4,1.16 -1.19,1.75 -0.8,0.58 -1.56,0.87 -2.3,0.87 -1.43,0 -2.61,-0.99 -3.53,-2.95 -0.93,-1.96 -1.39,-4.76 -1.39,-8.38zm-1.69 -15.64c-2.45,0 -5.29,2.29 -8.53,6.87 -3.24,4.59 -4.87,8.39 -4.87,11.41 0,2.12 0.71,3.19 2.12,3.19 2.04,0 4.86,-2.06 8.47,-6.17 3.61,-4.11 5.41,-7.89 5.41,-11.33 0,-2.64 -0.87,-3.97 -2.61,-3.97zm21.71 22.53c-0.91,3.34 -1.75,8.01 -2.55,14.03l-0.78 5.24c-0.13,0.74 -0.47,1.48 -1.03,2.21 -0.55,0.73 -1.06,1.1 -1.53,1.1 -0.58,0 -1.22,-0.29 -1.96,-0.87 -0.73,-0.59 -1.09,-1.05 -1.09,-1.4 0,-1.03 0.23,-2.43 0.69,-4.23 3.38,-13.68 5.08,-25.7 5.08,-36.05l-0.03 -2.33c-0.04,-2 0.31,-3.46 1.05,-4.36 0.75,-0.91 1.59,-1.37 2.56,-1.37 0.45,0 0.87,0.35 1.28,1.04 0.41,0.69 0.61,1.68 0.61,2.96 0,1.79 -0.18,3.97 -0.55,6.52 -0.48,3.22 -0.73,5.08 -0.75,5.56 2.76,-4.81 5.68,-8.57 8.77,-11.27 3.09,-2.71 5.96,-4.06 8.62,-4.06 1.87,0 3.44,0.7 4.73,2.09 1.29,1.4 1.93,3.14 1.93,5.22 0,6.03 -2.31,11.52 -6.95,16.44 -4.63,4.93 -9.14,7.39 -13.52,7.39 -1.1,0 -1.96,-0.27 -2.6,-0.83 -0.64,-0.56 -1.31,-1.57 -1.99,-3.03zm17.25 -22.36c-2.61,0 -5.84,2.45 -9.69,7.33 -3.85,4.89 -5.78,8.69 -5.78,11.41 0,0.67 0.38,1.32 1.14,1.94 0.76,0.64 1.72,0.95 2.88,0.95 2.65,0 5.7,-1.96 9.14,-5.88 3.45,-3.92 5.17,-7.76 5.17,-11.54 0,-1.36 -0.27,-2.39 -0.81,-3.13 -0.55,-0.73 -1.23,-1.09 -2.05,-1.09z"/>
  </g>
 </g>
</svg>
