<?xml version="1.0" encoding="UTF-8"?>
<!DOCTYPE svg PUBLIC "-//W3C//DTD SVG 1.1//EN" "http://www.w3.org/Graphics/SVG/1.1/DTD/svg11.dtd">
<!-- Creator: CorelDRAW 2020 -->
<svg xmlns="http://www.w3.org/2000/svg" xml:space="preserve" width="11mm" height="10mm" version="1.1" style="shape-rendering:geometricPrecision; text-rendering:geometricPrecision; image-rendering:optimizeQuality; fill-rule:evenodd; clip-rule:evenodd"
viewBox="0 0 200.73 182.48"
 xmlns:xlink="http://www.w3.org/1999/xlink"
 xmlns:xodm="http://www.corel.com/coreldraw/odm/2003">
 <defs>
  <style type="text/css">
   <![CDATA[
    .str0 {stroke:#C6B93A;stroke-width:3.65;stroke-miterlimit:22.9256}
    .fil0 {fill:none}
    .fil1 {fill:#C6B93A}
    .fil2 {fill:#C6B93A;fill-rule:nonzero}
   ]]>
  </style>
 </defs>
 <g id="Layer_x0020_1">
  <metadata id="CorelCorpID_0Corel-Layer"/>
  <g id="_1087572728">
   <polygon class="fil0" points="-0,0 200.73,0 200.73,182.48 -0,182.48 "/>
   <g>
    <g>
     <path class="fil1 str0" d="M98.5 44.94c8.26,0 40.48,8.18 40.87,-20.05 0.18,-12.87 13.19,-12.36 17.66,0.03 0.42,1.17 3.02,1.48 4.92,3.36 0,0 5.88,8.97 -4.43,10.18 -10.98,1.29 -4.14,-9.35 -10.21,18.53 -4.03,18.53 -0.32,27.26 -0.32,50.08 15.45,0 -10.24,20.53 -5.94,-14.01 1.82,-14.59 -25.55,-50.59 -50.2,13.41 -6.08,15.78 -13.01,8.86 -3.42,-6.47 4.18,-6.67 2.14,-36.88 3.43,-41.87 -6.56,7.21 2.19,18.93 -21.89,16.93 -2.37,-0.2 -7.29,-38.33 0.85,-18.33 1.46,3.6 0.22,14.45 3.94,12.79 7.33,-3.28 12.83,-24.56 24.75,-24.56z"/>
     <path class="fil1 str0" d="M37.11 81.34c5.47,0.29 6.31,-3.52 10.62,-7.83 1.47,-1.47 3.71,8.31 3.27,12.41 0.62,1.7 11.59,-2.07 14.57,0.28 4.03,3.17 1.72,3.73 5.6,8.73 0.7,0.91 5.47,4.72 5.47,5.68 0,-13.03 3.67,-14.8 0.21,-1.49 -1.35,5.21 -9.89,-2.62 -13.22,5.55 -2.72,6.68 -9.54,0.96 -8.85,-4.2 -2.67,-6.43 -7.27,-0.11 -9.9,-6.57 0.94,-8.23 -0.09,-2.28 2.25,-9.21 -0.03,-0.05 -3.79,-3.11 -4.4,-3.64 -1.52,-1.32 -6.83,0.24 -5.64,0.3z"/>
     <path class="fil0 str0" d="M59.53 106.37c-0.06,0.24 -1.77,5.5 -1.87,5.59 -1.33,1.13 -4.97,0.94 -6.39,0.94"/>
     <path class="fil0 str0" d="M62.77 104.7c-0.05,4.08 1.09,6.5 2.2,9.56"/>
    </g>
    <path class="fil2" d="M31.64 148.39c-0.19,3.39 -0.52,6.72 -0.97,9.98 -0.22,0.62 -0.8,0.93 -1.71,0.93 -1.33,0 -1.99,-0.68 -1.99,-2.04 0,-0.56 0.16,-1.6 0.48,-3.12 0.22,-1.33 0.34,-2.23 0.36,-2.7 0.01,-0.47 0.05,-1 0.12,-1.56 0.06,-0.56 0.05,-1.01 -0.02,-1.34 -0.76,0.1 -2.34,1.02 -4.7,2.76 -2.37,1.74 -4.4,3.45 -6.09,5.16l0 -0.02c-0.11,0.06 -0.44,0.63 -1,1.7 -0.8,1.6 -1.68,2.39 -2.65,2.39 -0.46,0 -0.96,-0.19 -1.51,-0.59 -0.55,-0.39 -0.83,-0.78 -0.83,-1.17 0,-0.94 0.88,-2.33 2.64,-4.18 1.75,-1.85 3.7,-3.43 5.82,-4.74 2.6,-1.6 4.38,-2.89 5.36,-3.87 -0.43,-0.62 -1.29,-1.29 -2.56,-2.03 -1.28,-0.76 -2.47,-1.6 -3.58,-2.53 -0.15,-0.12 -0.33,-0.26 -0.54,-0.41 -1.95,-1.31 -3.24,-2.3 -3.88,-2.95 -0.64,-0.66 -0.97,-1.37 -0.97,-2.12 0,-0.5 0.19,-0.96 0.57,-1.37 0.38,-0.41 0.75,-0.62 1.11,-0.62 0.22,0 0.63,0.12 1.22,0.36 0.59,0.24 1.01,0.5 1.27,0.77l1.11 1.04c3.91,3.83 7,6.27 9.28,7.31 0.11,0 0.27,-0.14 0.45,-0.43 0.15,-0.52 0.23,-1.34 0.23,-2.47 0,-1.05 -0.11,-2.24 -0.34,-3.55 -0.12,-0.67 -0.18,-1.12 -0.18,-1.33 0,-0.71 0.28,-1.28 0.83,-1.72 0.55,-0.44 1.15,-0.66 1.8,-0.66 0.74,0 1.24,0.15 1.51,0.46 0.28,0.3 0.41,0.81 0.41,1.54l-0.29 7.19 0 0.46c0,0.21 0.01,0.39 0.02,0.52 0.53,0 1.08,-0.2 1.65,-0.62 0.57,-0.42 1.43,-1.24 2.56,-2.48 4.97,-5.14 7.84,-7.72 8.62,-7.72 0.44,0 0.84,0.19 1.2,0.54 0.36,0.36 0.55,0.79 0.55,1.27 0,0.25 -0.83,1.27 -2.48,3.07 -1.65,1.81 -3.35,3.46 -5.11,4.97 -2.25,1.93 -3.37,2.94 -3.37,3.01 0,0.11 0.93,0.89 2.8,2.36 2.02,1.58 3.42,2.7 4.19,3.37 0.11,0.08 0.26,0.18 0.46,0.29 2.23,1.37 3.62,2.4 4.19,3.08 0.56,0.68 0.84,1.25 0.84,1.72 0,0.44 -0.19,0.89 -0.57,1.35 -0.38,0.46 -0.75,0.69 -1.11,0.69 -1.34,0 -4.46,-2.26 -9.35,-6.77 -2.17,-2.02 -3.48,-3.08 -3.93,-3.19 -0.2,-0.03 -0.35,-0.07 -0.46,-0.11 -0.15,-0.04 -0.42,-0.05 -0.82,-0.03 -0.39,0.02 -0.6,0.09 -0.64,0.19zm36.42 2.06c-2.11,2.84 -4.2,4.96 -6.27,6.38 -2.07,1.41 -3.96,2.12 -5.69,2.12 -1.16,0 -2.16,-0.49 -3.01,-1.47 -0.85,-0.98 -1.27,-2.24 -1.27,-3.78 0,-3.96 1.77,-8.24 5.32,-12.82 3.55,-4.58 7.07,-6.87 10.57,-6.87 1.27,0 2.21,0.72 2.84,2.17 0.19,0.48 0.5,0.73 0.93,0.73 1.2,0 1.81,0.46 1.81,1.4 0,0.47 -0.08,1.11 -0.22,1.92 -0.82,4.45 -1.22,7.59 -1.22,9.42 0,3.66 0.69,5.84 2.08,6.57 0.66,0.36 1,0.8 1,1.33 0,0.47 -0.33,0.94 -0.97,1.42 -0.65,0.47 -1.27,0.71 -1.88,0.71 -1.17,0 -2.12,-0.8 -2.87,-2.4 -0.76,-1.6 -1.13,-3.88 -1.13,-6.83zm-1.38 -12.74c-1.99,0 -4.31,1.87 -6.95,5.6 -2.64,3.74 -3.96,6.84 -3.96,9.29 0,1.73 0.58,2.6 1.72,2.6 1.66,0 3.96,-1.68 6.91,-5.03 2.94,-3.34 4.41,-6.43 4.41,-9.23 0,-2.16 -0.71,-3.24 -2.12,-3.24zm29.98 6.2c0.16,-0.32 0.43,-2.21 0.79,-5.68 0.28,-2.78 1.16,-4.17 2.65,-4.17 1.22,0 1.84,0.62 1.84,1.84 0,0.28 -0.11,0.86 -0.32,1.74 -1.17,4.81 -1.75,8.85 -1.75,12.12 0,3.53 0.58,5.82 1.75,6.85 0.6,0.57 0.9,1.01 0.9,1.36 0,0.42 -0.31,0.81 -0.92,1.16 -0.61,0.35 -1.17,0.52 -1.66,0.52 -2.36,0 -3.53,-3.64 -3.53,-10.91 0,-0.49 -0.19,-0.72 -0.55,-0.72 -1.42,0 -3.15,0.08 -5.2,0.25 -2.05,0.17 -3.52,0.38 -4.4,0.63 -0.89,0.26 -1.43,0.49 -1.63,0.72 -0.21,0.22 -0.39,0.8 -0.55,1.74 -0.16,0.94 -0.23,1.92 -0.23,2.93l0 2.78c0,1.61 -0.74,2.43 -2.22,2.43 -1.24,0 -1.86,-0.81 -1.86,-2.43 0,-1.06 0.14,-2.4 0.41,-4.03 0.5,-2.99 1,-8.14 1.49,-15.43 0.06,-0.96 0.15,-1.56 0.25,-1.82 0.1,-0.25 0.38,-0.54 0.83,-0.85 0.44,-0.31 0.93,-0.46 1.46,-0.46 1.08,0 1.63,0.45 1.63,1.34 0,0.14 -0.18,1.27 -0.53,3.4 -0.36,2.13 -0.54,3.78 -0.54,4.95 0,0.84 0.29,1.24 0.86,1.24 1.15,0 3.24,-0.19 6.3,-0.57 3.04,-0.39 4.62,-0.7 4.73,-0.92zm27.34 6.79c-2.29,2.16 -4.59,3.85 -6.88,5.07 -2.29,1.22 -4.05,1.83 -5.28,1.83 -1.4,0 -2.52,-0.59 -3.36,-1.8 -0.83,-1.2 -1.25,-2.67 -1.25,-4.42 0,-2.55 0.49,-5.57 1.46,-9.04 0.97,-3.48 1.72,-5.45 2.22,-5.92 0.52,-0.46 1.2,-0.7 2.04,-0.7 0.45,0 0.81,0.27 1.07,0.8 0.26,0.54 0.39,1.08 0.39,1.64 0,0.38 -0.18,0.87 -0.53,1.47 -1.98,3.43 -2.97,6.97 -2.97,10.62 0,0.85 0.16,1.59 0.48,2.23 0.32,0.64 0.8,0.96 1.45,0.96 0.83,0 1.85,-0.25 3.07,-0.76 1.22,-0.5 2.59,-1.33 4.11,-2.48 1.52,-1.14 2.55,-2.07 3.08,-2.78 0.53,-0.71 0.9,-1.51 1.12,-2.42 0.22,-0.91 0.37,-2.87 0.46,-5.89 0.08,-3.02 0.82,-4.53 2.19,-4.53 0.81,0 1.34,0.22 1.58,0.64 0.24,0.43 0.36,1.25 0.36,2.46 0,0.9 -0.14,2.86 -0.41,5.89 -0.06,0.68 -0.1,1.31 -0.12,1.88 -0.43,8.06 -1.65,14.37 -3.61,18.94 -1.98,4.57 -4.85,6.86 -8.63,6.86 -2.95,0 -5.59,-0.77 -7.89,-2.32 -2.29,-1.55 -3.45,-2.86 -3.45,-3.93 0,-0.49 0.12,-0.99 0.35,-1.47 0.23,-0.49 0.53,-0.73 0.9,-0.73 0.18,0 0.38,0.15 0.59,0.43 1.98,3.03 5.01,4.55 9.12,4.55 2.6,0 4.56,-1.6 5.86,-4.79 1.3,-3.19 2.12,-7.29 2.47,-12.3zm25.91 -0.25c-2.11,2.84 -4.2,4.96 -6.27,6.38 -2.07,1.41 -3.96,2.12 -5.69,2.12 -1.16,0 -2.16,-0.49 -3.01,-1.47 -0.85,-0.98 -1.27,-2.24 -1.27,-3.78 0,-3.96 1.77,-8.24 5.32,-12.82 3.55,-4.58 7.07,-6.87 10.57,-6.87 1.27,0 2.21,0.72 2.84,2.17 0.19,0.48 0.5,0.73 0.93,0.73 1.2,0 1.81,0.46 1.81,1.4 0,0.47 -0.08,1.11 -0.22,1.92 -0.82,4.45 -1.22,7.59 -1.22,9.42 0,3.66 0.69,5.84 2.08,6.57 0.66,0.36 1,0.8 1,1.33 0,0.47 -0.33,0.94 -0.97,1.42 -0.65,0.47 -1.27,0.71 -1.88,0.71 -1.17,0 -2.12,-0.8 -2.87,-2.4 -0.76,-1.6 -1.13,-3.88 -1.13,-6.83zm-1.38 -12.74c-1.99,0 -4.31,1.87 -6.95,5.6 -2.64,3.74 -3.96,6.84 -3.96,9.29 0,1.73 0.58,2.6 1.72,2.6 1.66,0 3.96,-1.68 6.91,-5.03 2.94,-3.34 4.41,-6.43 4.41,-9.23 0,-2.16 -0.71,-3.24 -2.12,-3.24zm17.69 18.35c-0.74,2.72 -1.43,6.53 -2.08,11.43l-0.63 4.27c-0.11,0.6 -0.39,1.2 -0.84,1.8 -0.45,0.59 -0.86,0.9 -1.24,0.9 -0.47,0 -1,-0.24 -1.6,-0.71 -0.59,-0.48 -0.89,-0.86 -0.89,-1.14 0,-0.84 0.19,-1.98 0.56,-3.45 2.76,-11.15 4.14,-20.94 4.14,-29.37l-0.02 -1.9c-0.03,-1.63 0.26,-2.82 0.86,-3.55 0.61,-0.74 1.3,-1.11 2.08,-1.11 0.36,0 0.71,0.28 1.04,0.85 0.33,0.56 0.49,1.37 0.49,2.41 0,1.46 -0.15,3.24 -0.45,5.31 -0.39,2.63 -0.6,4.14 -0.61,4.53 2.25,-3.92 4.63,-6.98 7.15,-9.18 2.52,-2.2 4.86,-3.31 7.02,-3.31 1.52,0 2.8,0.57 3.86,1.71 1.05,1.14 1.57,2.56 1.57,4.25 0,4.91 -1.88,9.39 -5.66,13.39 -3.77,4.02 -7.45,6.02 -11.02,6.02 -0.9,0 -1.6,-0.22 -2.12,-0.67 -0.53,-0.45 -1.07,-1.28 -1.62,-2.47zm14.05 -18.22c-2.12,0 -4.76,1.99 -7.89,5.97 -3.14,3.99 -4.7,7.08 -4.7,9.3 0,0.55 0.31,1.07 0.93,1.58 0.62,0.52 1.4,0.77 2.35,0.77 2.16,0 4.64,-1.6 7.45,-4.79 2.81,-3.19 4.21,-6.32 4.21,-9.4 0,-1.11 -0.22,-1.95 -0.66,-2.55 -0.45,-0.6 -1.01,-0.89 -1.67,-0.89z"/>
   </g>
   <line class="fil0 str0" x1="9.13" y1="179.3" x2="191.61" y2= "179.3" />
  </g>
 </g>
</svg>
