<?xml version="1.0" encoding="UTF-8"?>
<!DOCTYPE svg PUBLIC "-//W3C//DTD SVG 1.1//EN" "http://www.w3.org/Graphics/SVG/1.1/DTD/svg11.dtd">
<!-- Creator: CorelDRAW 2020 -->
<svg xmlns="http://www.w3.org/2000/svg" xml:space="preserve" width="15mm" height="10.2mm" version="1.1" style="shape-rendering:geometricPrecision; text-rendering:geometricPrecision; image-rendering:optimizeQuality; fill-rule:evenodd; clip-rule:evenodd"
viewBox="0 0 373.26 253.82"
 xmlns:xlink="http://www.w3.org/1999/xlink"
 xmlns:xodm="http://www.corel.com/coreldraw/odm/2003">
 <defs>
  <style type="text/css">
   <![CDATA[
    .fil0 {fill:none}
    .fil1 {fill:#ACA77B}
    .fil2 {fill:#ACA77B;fill-rule:nonzero}
   ]]>
  </style>
 </defs>
 <g id="Layer_x0020_1">
  <metadata id="CorelCorpID_0Corel-Layer"/>
  <g id="_1208444384">
   <polygon class="fil0" points="-0,0 373.26,0 373.26,253.82 -0,253.82 "/>
   <g>
    <path class="fil1" d="M232.18 65.09c-12.57,0 -61.59,11.15 -62.18,-27.35 -0.27,-17.55 -20.07,-16.86 -26.87,0.03 -0.64,1.6 -4.6,2.02 -7.48,4.58 0,0 -8.95,12.24 6.74,13.88 16.71,1.76 6.29,-12.75 15.54,25.27 6.14,25.26 0.49,37.17 0.49,68.28 -23.51,0 16.16,33.3 9.61,-13.79 -2.76,-19.89 35.53,-71.49 73.79,15.45 8.09,18.4 21.82,9.61 7.22,-11.29 -6.35,-9.1 -3.99,-45.19 -5.96,-52 9.98,9.83 -2.22,24.25 34.41,21.52 3.61,-0.27 7.23,-55.97 -5.15,-28.7 -2.22,4.91 3.16,19.87 -2.5,17.6 -11.16,-4.47 -19.53,-33.5 -37.66,-33.5z"/>
    <path class="fil1" d="M92.87 116.44c-0.76,-1.15 5.42,-5.41 6.9,-6.32 3.02,-1.85 3.64,-0.43 7.58,-4.37 2,-2 5.06,11.33 4.46,16.93 0.85,2.32 15.8,-2.83 19.87,0.38 5.5,4.33 2.34,5.08 7.64,11.9 0.96,1.23 5.69,2.23 5.69,3.54 0,-17.76 8.59,-13.35 3.87,4.8 -1.84,7.09 -12.99,-4.64 -17.53,6.5 -0.66,1.62 -1.22,2.44 -2.38,3.05 -0.26,0.14 3.59,7.23 3.31,7.32 -0.08,0.03 -4.27,1.15 -4.98,0.26 -1.55,-1.92 -0.9,-7.02 -1.1,-6.98 -1.1,0.18 -1.67,0.35 -2.86,0.05 -0.15,-0.04 -0.67,4.61 -2,5.41 -7.79,4.67 -13.91,-0.91 -10.3,-2.57 0.35,-0.16 6.58,0.58 6.64,0.49l2.6 -4.12c-4.15,-1.64 -6.1,-5.37 -5.59,-9.13 -3.64,-8.77 -7.61,-1.21 -11.19,-10.04 1.29,-11.23 -0.13,-3.11 3.07,-12.55 -0.03,-0.07 -4.51,-2.48 -5.34,-3.19 -2.08,-1.8 -7.45,-0 -8.34,-1.36z"/>
   </g>
   <path class="fil2" d="M58.88 210.94c-0.29,5.14 -0.78,10.18 -1.48,15.12 -0.34,0.94 -1.2,1.41 -2.6,1.41 -2.01,0 -3.02,-1.03 -3.02,-3.09 0,-0.84 0.25,-2.42 0.73,-4.73 0.34,-2.01 0.52,-3.37 0.54,-4.1 0.02,-0.71 0.08,-1.51 0.18,-2.36 0.09,-0.85 0.08,-1.53 -0.03,-2.04 -1.16,0.15 -3.55,1.55 -7.13,4.18 -3.59,2.63 -6.67,5.23 -9.22,7.82l0 -0.03c-0.16,0.09 -0.67,0.95 -1.51,2.58 -1.22,2.42 -2.55,3.63 -4.01,3.63 -0.69,0 -1.45,-0.29 -2.28,-0.89 -0.83,-0.6 -1.25,-1.18 -1.25,-1.78 0,-1.42 1.33,-3.53 4,-6.33 2.66,-2.8 5.61,-5.2 8.82,-7.19 3.93,-2.42 6.64,-4.38 8.12,-5.87 -0.66,-0.94 -1.96,-1.95 -3.87,-3.08 -1.94,-1.15 -3.75,-2.42 -5.42,-3.84 -0.22,-0.19 -0.5,-0.4 -0.82,-0.62 -2.95,-1.99 -4.9,-3.48 -5.88,-4.47 -0.97,-1 -1.46,-2.07 -1.46,-3.21 0,-0.76 0.29,-1.45 0.86,-2.08 0.57,-0.62 1.13,-0.94 1.68,-0.94 0.34,0 0.96,0.17 1.85,0.55 0.89,0.36 1.53,0.75 1.92,1.16l1.68 1.58c5.92,5.81 10.61,9.51 14.06,11.07 0.18,0 0.41,-0.21 0.68,-0.64 0.23,-0.78 0.35,-2.02 0.35,-3.75 0,-1.59 -0.17,-3.39 -0.52,-5.38 -0.19,-1.02 -0.28,-1.7 -0.28,-2.01 0,-1.08 0.42,-1.94 1.25,-2.61 0.84,-0.67 1.74,-1 2.73,-1 1.12,0 1.89,0.23 2.29,0.69 0.42,0.46 0.62,1.23 0.62,2.33l-0.45 10.9 0 0.69c0,0.32 0.01,0.58 0.03,0.78 0.8,0 1.64,-0.3 2.51,-0.94 0.87,-0.63 2.16,-1.88 3.87,-3.76 7.52,-7.8 11.88,-11.69 13.06,-11.69 0.67,0 1.28,0.28 1.81,0.82 0.55,0.55 0.83,1.19 0.83,1.92 0,0.37 -1.25,1.92 -3.76,4.65 -2.51,2.74 -5.08,5.24 -7.74,7.52 -3.41,2.93 -5.1,4.45 -5.1,4.57 0,0.16 1.42,1.35 4.25,3.57 3.07,2.4 5.19,4.1 6.35,5.1 0.16,0.12 0.39,0.27 0.69,0.45 3.38,2.08 5.49,3.64 6.35,4.67 0.84,1.03 1.26,1.9 1.26,2.6 0,0.67 -0.28,1.35 -0.86,2.05 -0.57,0.69 -1.13,1.04 -1.68,1.04 -2.04,0 -6.75,-3.42 -14.16,-10.25 -3.29,-3.07 -5.28,-4.67 -5.96,-4.83 -0.3,-0.05 -0.53,-0.11 -0.69,-0.18 -0.23,-0.06 -0.64,-0.08 -1.24,-0.05 -0.58,0.04 -0.91,0.13 -0.96,0.29zm55.17 3.13c-3.2,4.29 -6.37,7.52 -9.49,9.67 -3.14,2.14 -6,3.22 -8.61,3.22 -1.76,0 -3.28,-0.74 -4.55,-2.22 -1.29,-1.49 -1.92,-3.39 -1.92,-5.74 0,-6 2.68,-12.48 8.05,-19.42 5.37,-6.94 10.71,-10.41 16.01,-10.41 1.92,0 3.35,1.09 4.29,3.29 0.29,0.73 0.76,1.1 1.4,1.1 1.83,0 2.74,0.7 2.74,2.12 0,0.71 -0.12,1.69 -0.34,2.92 -1.24,6.74 -1.85,11.5 -1.85,14.27 0,5.54 1.04,8.85 3.15,9.95 1.01,0.55 1.51,1.22 1.51,2.01 0,0.71 -0.49,1.43 -1.47,2.15 -0.98,0.71 -1.93,1.08 -2.84,1.08 -1.77,0 -3.22,-1.22 -4.35,-3.64 -1.15,-2.42 -1.72,-5.88 -1.72,-10.35zm-2.08 -19.31c-3.02,0 -6.53,2.83 -10.53,8.49 -4,5.67 -6,10.36 -6,14.08 0,2.62 0.88,3.94 2.61,3.94 2.52,0 6,-2.54 10.46,-7.62 4.46,-5.07 6.68,-9.74 6.68,-13.99 0,-3.27 -1.08,-4.9 -3.22,-4.9zm45.43 9.4c0.24,-0.48 0.65,-3.35 1.19,-8.6 0.42,-4.22 1.76,-6.32 4.02,-6.32 1.85,0 2.78,0.94 2.78,2.78 0,0.43 -0.16,1.31 -0.48,2.64 -1.77,7.29 -2.65,13.41 -2.65,18.35 0,5.35 0.88,8.81 2.65,10.38 0.91,0.85 1.37,1.53 1.37,2.06 0,0.64 -0.47,1.23 -1.39,1.75 -0.93,0.53 -1.77,0.79 -2.52,0.79 -3.57,0 -5.35,-5.51 -5.35,-16.53 0,-0.74 -0.28,-1.1 -0.83,-1.1 -2.14,0 -4.78,0.13 -7.88,0.37 -3.11,0.26 -5.34,0.57 -6.67,0.96 -1.35,0.4 -2.16,0.75 -2.47,1.09 -0.32,0.33 -0.58,1.21 -0.83,2.64 -0.23,1.43 -0.35,2.91 -0.35,4.45l0 4.22c0,2.45 -1.12,3.67 -3.36,3.67 -1.88,0 -2.82,-1.23 -2.82,-3.67 0,-1.61 0.21,-3.64 0.62,-6.1 0.76,-4.53 1.51,-12.33 2.26,-23.39 0.09,-1.45 0.22,-2.36 0.39,-2.75 0.15,-0.39 0.57,-0.82 1.25,-1.29 0.67,-0.47 1.4,-0.7 2.21,-0.7 1.64,0 2.47,0.68 2.47,2.03 0,0.21 -0.27,1.92 -0.79,5.15 -0.55,3.22 -0.82,5.72 -0.82,7.5 0,1.26 0.43,1.89 1.3,1.89 1.74,0 4.92,-0.29 9.54,-0.87 4.61,-0.59 7,-1.06 7.16,-1.39zm24.03 -16.46c0.31,-0.21 0.63,-0.32 1,-0.32 0.57,0 1.05,0.77 1.44,2.3 0,0.98 -0.26,2.22 -0.79,3.74 -1.56,4.32 -2.33,7.34 -2.33,9.05 0,0.46 0.13,0.71 0.41,0.76 5.26,-5.06 10.13,-7.58 14.61,-7.58 2.76,0 5.09,1.06 6.97,3.14 1.87,2.1 2.81,4.01 2.81,5.75 0,5.3 -2.7,10.39 -8.11,15.28 -5.41,4.88 -10.85,7.33 -16.34,7.33 -2.45,0 -4.35,-1.02 -5.71,-3.03 -1.36,-2.03 -2.04,-4.93 -2.04,-8.7 0,-4.1 0.52,-8.61 1.55,-13.58 1.03,-4.96 1.85,-8.28 2.47,-9.95 0.25,-0.71 0.48,-1.43 0.68,-2.16 0.23,-0.91 1.37,-1.58 3.39,-2.01zm-1.6 21.5c-0.46,2.53 -0.69,5.07 -0.69,7.61 0,3.45 1.36,5.17 4.09,5.17 3.06,0 6.48,-1.83 10.29,-5.48 3.79,-3.66 5.69,-7.22 5.69,-10.67 0,-1.42 -0.37,-2.6 -1.13,-3.56 -0.75,-0.96 -1.79,-1.44 -3.11,-1.44 -1.81,0 -3.59,0.45 -5.34,1.35 -1.74,0.91 -3.7,2.36 -5.84,4.38 -0.83,0.77 -1.49,1.38 -1.98,1.8 -0.49,0.42 -1.15,0.7 -1.97,0.84zm34.53 7.88c0,1.74 0.23,3.7 0.71,5.86 0.09,0.42 0.14,0.76 0.14,1.03 0,0.41 -0.38,0.95 -1.13,1.61 -0.75,0.64 -1.55,0.97 -2.4,0.97 -2.21,0 -3.32,-2.04 -3.32,-6.11 0,-4.04 0.88,-10.83 2.65,-20.37 0.63,-3.48 0.96,-5.57 0.96,-6.31 0,-1.44 0.26,-2.67 0.79,-3.69 0.53,-1.02 1.27,-1.52 2.23,-1.52 1.16,0 2.08,0.28 2.75,0.84 0.68,0.56 1.02,1.18 1.02,1.86 0,0.69 -0.16,1.64 -0.48,2.84 -1.79,6.52 -2.88,11.09 -3.29,13.68 -0.42,2.61 -0.62,5.71 -0.62,9.29zm36.59 -2.64c-3.48,3.27 -6.95,5.83 -10.43,7.68 -3.48,1.85 -6.13,2.77 -8,2.77 -2.12,0 -3.81,-0.9 -5.09,-2.73 -1.26,-1.81 -1.9,-4.05 -1.9,-6.7 0,-3.86 0.74,-8.44 2.21,-13.71 1.48,-5.27 2.6,-8.25 3.37,-8.97 0.78,-0.7 1.81,-1.07 3.09,-1.07 0.69,0 1.23,0.41 1.61,1.22 0.39,0.82 0.58,1.64 0.58,2.49 0,0.57 -0.27,1.31 -0.8,2.22 -3,5.2 -4.49,10.56 -4.49,16.08 0,1.29 0.25,2.41 0.72,3.38 0.48,0.97 1.21,1.45 2.19,1.45 1.26,0 2.81,-0.38 4.65,-1.15 1.85,-0.76 3.92,-2.01 6.23,-3.76 2.3,-1.73 3.86,-3.14 4.67,-4.22 0.79,-1.07 1.36,-2.29 1.7,-3.66 0.33,-1.38 0.56,-4.35 0.7,-8.92 0.13,-4.58 1.24,-6.86 3.32,-6.86 1.23,0 2.04,0.33 2.4,0.97 0.36,0.65 0.55,1.9 0.55,3.72 0,1.37 -0.21,4.34 -0.62,8.92 -0.09,1.03 -0.15,1.98 -0.18,2.84 -0.65,12.21 -2.49,21.77 -5.48,28.7 -3,6.93 -7.35,10.39 -13.07,10.39 -4.47,0 -8.46,-1.17 -11.95,-3.51 -3.48,-2.35 -5.22,-4.33 -5.22,-5.96 0,-0.75 0.17,-1.5 0.53,-2.22 0.35,-0.74 0.81,-1.1 1.36,-1.1 0.27,0 0.57,0.22 0.89,0.65 3,4.59 7.6,6.9 13.82,6.9 3.94,0 6.91,-2.42 8.87,-7.26 1.97,-4.83 3.22,-11.05 3.75,-18.64zm39.25 -0.37c-3.2,4.29 -6.37,7.52 -9.49,9.67 -3.14,2.14 -6,3.22 -8.61,3.22 -1.76,0 -3.28,-0.74 -4.55,-2.22 -1.29,-1.49 -1.92,-3.39 -1.92,-5.74 0,-6 2.68,-12.48 8.05,-19.42 5.37,-6.94 10.71,-10.41 16.01,-10.41 1.92,0 3.35,1.09 4.29,3.29 0.29,0.73 0.76,1.1 1.4,1.1 1.83,0 2.74,0.7 2.74,2.12 0,0.71 -0.12,1.69 -0.34,2.92 -1.24,6.74 -1.85,11.5 -1.85,14.27 0,5.54 1.04,8.85 3.15,9.95 1.01,0.55 1.51,1.22 1.51,2.01 0,0.71 -0.49,1.43 -1.47,2.15 -0.98,0.71 -1.93,1.08 -2.84,1.08 -1.77,0 -3.22,-1.22 -4.35,-3.64 -1.15,-2.42 -1.72,-5.88 -1.72,-10.35zm-2.08 -19.31c-3.02,0 -6.53,2.83 -10.53,8.49 -4,5.67 -6,10.36 -6,14.08 0,2.62 0.88,3.94 2.61,3.94 2.52,0 6,-2.54 10.46,-7.62 4.46,-5.07 6.68,-9.74 6.68,-13.99 0,-3.27 -1.08,-4.9 -3.22,-4.9zm26.81 27.81c-1.12,4.12 -2.16,9.89 -3.15,17.32l-0.96 6.47c-0.16,0.91 -0.58,1.83 -1.28,2.73 -0.68,0.9 -1.31,1.36 -1.88,1.36 -0.71,0 -1.51,-0.36 -2.42,-1.08 -0.9,-0.72 -1.35,-1.3 -1.35,-1.73 0,-1.26 0.28,-3 0.86,-5.22 4.18,-16.89 6.27,-31.73 6.27,-44.5l-0.03 -2.88c-0.05,-2.47 0.39,-4.27 1.3,-5.38 0.93,-1.12 1.97,-1.68 3.16,-1.68 0.55,0 1.08,0.43 1.58,1.29 0.5,0.85 0.75,2.07 0.75,3.65 0,2.21 -0.22,4.9 -0.68,8.05 -0.6,3.98 -0.9,6.27 -0.92,6.86 3.4,-5.93 7.01,-10.58 10.82,-13.92 3.82,-3.33 7.36,-5.01 10.64,-5.01 2.31,0 4.25,0.87 5.84,2.59 1.59,1.73 2.39,3.87 2.39,6.44 0,7.44 -2.86,14.22 -8.58,20.3 -5.71,6.09 -11.28,9.12 -16.69,9.12 -1.36,0 -2.42,-0.34 -3.21,-1.02 -0.8,-0.69 -1.61,-1.94 -2.46,-3.75zm21.29 -27.6c-3.22,0 -7.21,3.02 -11.96,9.05 -4.75,6.04 -7.13,10.74 -7.13,14.09 0,0.83 0.47,1.62 1.41,2.4 0.94,0.78 2.12,1.17 3.56,1.17 3.28,0 7.03,-2.42 11.28,-7.26 4.26,-4.83 6.38,-9.58 6.38,-14.24 0,-1.67 -0.34,-2.95 -1.01,-3.86 -0.68,-0.9 -1.52,-1.34 -2.53,-1.34z"/>
  </g>
 </g>
</svg>
