<?xml version="1.0" encoding="UTF-8"?>
<!DOCTYPE svg PUBLIC "-//W3C//DTD SVG 1.1//EN" "http://www.w3.org/Graphics/SVG/1.1/DTD/svg11.dtd">
<!-- Creator: CorelDRAW 2020 -->
<svg xmlns="http://www.w3.org/2000/svg" xml:space="preserve" width="7.7939mm" height="2.6016mm" version="1.1" style="shape-rendering:geometricPrecision; text-rendering:geometricPrecision; image-rendering:optimizeQuality; fill-rule:evenodd; clip-rule:evenodd"
viewBox="0 0 469.57 156.74"
 xmlns:xlink="http://www.w3.org/1999/xlink"
 xmlns:xodm="http://www.corel.com/coreldraw/odm/2003">
 <defs>
  <style type="text/css">
   <![CDATA[
    .fil0 {fill:#6B470F;fill-rule:nonzero}
   ]]>
  </style>
 </defs>
 <g id="Layer_x0020_1">
  <metadata id="CorelCorpID_0Corel-Layer"/>
  <path class="fil0" d="M-0 8.62c7.19,1.9 13.94,4.34 20.26,7.31l62.77 0c1.99,-1.76 3.74,-3.43 5.3,-4.99 2.55,-2.44 4.31,-3.66 5.33,-3.66 1.87,0 5.19,1.73 9.95,5.16 5.75,4.42 8.65,7.37 8.65,8.81 0,1.42 -1.45,3.03 -4.34,4.82 -2.41,1.75 -3.63,3.48 -3.63,5.13l0 86.52 1.31 31.06c0,1.87 -2.87,3.32 -8.62,4.31 -2.33,0.34 -4.11,0.51 -5.33,0.51 -3.08,0 -4.65,-1.61 -4.65,-4.82l0 -9.8 -69.06 0 0 11.79c0,1.98 -2.61,3.43 -7.82,4.31 -2.21,0.22 -3.8,0.34 -4.82,0.34 -3.54,0 -5.3,-1.56 -5.3,-4.65 0.88,-11.28 1.33,-21.26 1.33,-29.9l0 -85.02c0,-7.51 -0.45,-16.6 -1.33,-27.23zm17.94 125.54l69.06 0 0 -57.61 -69.06 0 0 57.61zm0 -62.43l69.06 0 0 -51.15 -69.06 0 0 51.15zm128.86 -39.02c10.17,1.22 19.47,1.81 27.88,1.81l38.51 0 0 -7.79c0,-10.18 -0.42,-19.1 -1.33,-26.73 4.68,0.43 10.43,1.22 17.29,2.33 4.87,0.65 7.31,1.7 7.31,3.14 0,1.45 -1.45,2.66 -4.34,3.66 -1.98,0.54 -2.97,1.75 -2.97,3.66l0 21.73 38.51 0c0.45,-0.11 2.27,-2.27 5.49,-6.46 4.08,-4.99 6.46,-7.48 7.15,-7.48 2.1,0 5.41,2.44 9.95,7.31 4.42,4.76 6.63,7.65 6.63,8.64 0,1.76 -1.1,2.64 -3.31,2.64l-59.6 0c9.83,19.27 20.09,33.84 30.72,43.67 11.73,10.31 23.35,17.51 34.85,21.59l-0.65 3.83c-4.87,1.67 -8.3,5.1 -10.31,10.29 -1.19,3.77 -2.63,5.64 -4.31,5.64 -2.1,0 -6.97,-4.02 -14.59,-12.1 -7.99,-8.07 -15.5,-18.56 -22.59,-31.4 -7.31,-13.07 -13.29,-26.61 -17.94,-40.67l0 72.23 5.98 0c0.43,-0.11 2.21,-2.07 5.3,-5.83 3.77,-4.54 5.98,-6.8 6.66,-6.8 1.98,0 5.02,2.21 9.13,6.66 4.08,4.42 6.15,7.09 6.15,7.96 0,1.75 -0.9,2.66 -2.66,2.66l-30.55 0 0 8.13c0,8.84 0.22,17.65 0.65,26.38 0,2.01 -2.61,3.46 -7.8,4.34 -2.21,0.22 -3.83,0.31 -4.81,0.34 -3.09,-0.03 -4.65,-1.56 -4.65,-4.68 0.45,-9.72 0.65,-18.53 0.65,-26.38l0 -8.13 -9.95 0c-9.75,0 -16.6,0.25 -20.6,0.82l-2.66 -6.63c5.33,0.77 13.06,1.16 23.26,1.16l9.95 0 0 -55.14c-8.19,15.16 -17.32,28.28 -27.37,39.37 -13.52,14.28 -27.18,24.85 -41.03,31.71l-0.65 -1.33c12.27,-10.29 23.63,-23.24 34.03,-38.85 10.74,-14.39 19.63,-30.66 26.72,-48.82l-32.87 0c-9.07,0 -16.6,0.51 -22.59,1.5l-2.63 -7.96zm174 -22.07c5.33,0.99 13.07,1.48 23.27,1.48l4.65 0c0.31,-0.2 1.81,-1.99 4.48,-5.3 3.09,-4.11 4.93,-6.15 5.47,-6.15 1.79,0 4.48,2.04 8.13,6.15 3.89,3.97 5.81,6.35 5.81,7.14 0,1.76 -0.88,2.67 -2.64,2.67l-25.9 0c-9.63,0 -16.5,0.2 -20.6,0.65l-2.66 -6.63zm-7.31 20.57c5.33,0.99 13.06,1.5 23.26,1.5l19.24 0c0.34,-0.34 2.01,-2.21 4.99,-5.64 3.54,-4.33 5.64,-6.49 6.32,-6.49 1.76,0 4.54,2.16 8.3,6.49 3.88,4.08 5.81,6.57 5.81,7.45 0,1.79 -0.93,2.66 -2.83,2.66l-41.83 0c-9.63,0 -16.49,0.23 -20.6,0.68l-2.66 -6.66zm7.31 22.76c5.33,0.88 13.07,1.33 23.27,1.33l8.62 0c0.45,-0.23 1.9,-1.95 4.33,-5.16 3.21,-3.77 5.07,-5.64 5.65,-5.64 1.64,0 4.3,1.87 7.96,5.64 3.54,3.88 5.33,6.21 5.33,6.97 0,1.78 -0.91,2.66 -2.67,2.66l-29.21 0c-9.63,0 -16.5,0.23 -20.6,0.65l-2.66 -6.46zm0.68 23.07c5.3,0.9 13.06,1.33 23.24,1.33l7.31 0c0.34,-0.11 1.75,-1.76 4.31,-4.96 3.2,-3.66 5.1,-5.5 5.64,-5.5 1.67,0 4.33,1.84 7.99,5.5 3.54,3.85 5.3,6.18 5.3,6.97 0,1.87 -0.88,2.81 -2.66,2.81l-27.89 0c-9.75,0 -16.6,0.17 -20.6,0.51l-2.64 -6.66zm0.65 18.62c6.1,1.64 12.41,3.86 18.93,6.63l12.3 0c1.98,-1.76 3.85,-3.32 5.64,-4.65 1.33,-1.33 2.55,-1.98 3.66,-1.98 1.1,0 3.77,1.33 7.96,3.97 4.87,3.31 7.31,5.55 7.31,6.66 0,1.33 -1.22,2.58 -3.66,3.8 -1.98,1.33 -3.01,2.72 -3.01,4.17l0 17.42c0,4.22 0.23,10.15 0.68,17.77 0,1.87 -2.43,3.31 -7.31,4.31 -1.98,0.34 -3.49,0.51 -4.48,0.51 -2.78,0 -4.17,-1.61 -4.17,-4.81l0 -6.63 -17.09 0 0 7.96c0,1.98 -2.33,3.43 -6.97,4.31 -1.99,0.22 -3.49,0.34 -4.48,0.34 -3.12,0 -4.65,-1.56 -4.65,-4.65 0.43,-4.87 0.65,-9.75 0.65,-14.62l0 -20.57c0,-6.86 -0.45,-13.52 -1.33,-19.92zm16.78 42.51l17.09 0 0 -31.23 -17.09 0 0 31.23zm37.04 -126.7c5.41,0.87 13.15,1.33 23.24,1.33l39.84 0c0.45,-0.23 2.1,-2.21 4.99,-5.98 3.54,-4.53 5.64,-6.8 6.32,-6.8 1.87,0 4.76,2.21 8.62,6.63 3.99,4.42 5.98,7.09 5.98,7.96 0,1.78 -0.88,2.66 -2.66,2.66l-37.01 0 -4.48 22.76 13.6 0c1.67,-1.67 3.2,-3.26 4.65,-4.82 2.1,-2.21 3.66,-3.31 4.65,-3.31 1.56,0 4.11,1.58 7.65,4.81 4.19,3.43 6.3,5.58 6.3,6.46 0,1.33 -1.11,2.61 -3.32,3.83 -2.1,1.56 -3.2,2.92 -3.31,4.14l0 25.42c1.1,-1.67 2.33,-3.99 3.66,-6.97 1.75,-3.89 2.98,-5.81 3.65,-5.81 1.33,0 3.49,2.21 6.46,6.63 3.23,4.11 4.81,6.75 4.81,7.96 0,1.78 -0.65,2.66 -1.98,2.66l-75.07 0c-3.31,0 -7.74,0.23 -13.26,0.65l-2.66 -6.46c6.86,0.88 12.18,1.33 15.92,1.33l5.67 0 6.29 -32.05 -1.81 0c-7.96,0 -14,0.45 -18.11,1.33l-2.66 -7.31c6.21,0.99 13.12,1.5 20.77,1.5l2.81 0 4.51 -22.76 -10.8 0c-9.64,0 -16.5,0.22 -20.6,0.65l-2.63 -6.46zm37.52 65.09l21.57 0 0 -32.05 -15.28 0 -6.29 32.05zm-26.24 15.75c6.63,1.78 13.4,4.22 20.26,7.31l29.56 0c2.32,-2.1 4.48,-4.02 6.46,-5.81 1.56,-1.45 2.95,-2.15 4.17,-2.15 1.22,0 4.08,1.33 8.61,3.99 5.33,3.54 7.99,5.98 7.99,7.28 0,1.45 -1.5,2.89 -4.48,4.34 -2.36,1.22 -3.52,2.69 -3.52,4.48l0 20.6c0,4.54 0.23,10.69 0.68,18.42 0,1.98 -2.55,3.43 -7.65,4.31 -2.21,0.22 -3.85,0.34 -4.96,0.34 -2.66,0 -3.99,-1.56 -3.99,-4.65l0 -7.96 -36.53 0 0 9.3c0,1.98 -2.38,3.37 -7.14,4.14 -2.21,0.34 -3.83,0.51 -4.82,0.51 -3.09,0 -4.65,-1.55 -4.65,-4.65 0.45,-5.1 0.65,-10.2 0.65,-15.27l0 -23.27c0,-7.28 -0.2,-14.37 -0.65,-21.26zm16.6 45.85l36.53 0 0 -33.73 -36.53 0 0 33.73z"/>
 </g>
</svg>
