<?xml version="1.0" encoding="UTF-8"?>
<!DOCTYPE svg PUBLIC "-//W3C//DTD SVG 1.1//EN" "http://www.w3.org/Graphics/SVG/1.1/DTD/svg11.dtd">
<!-- Creator: CorelDRAW 2020 -->
<svg xmlns="http://www.w3.org/2000/svg" xml:space="preserve" width="8mm" height="3.5148mm" version="1.1" style="shape-rendering:geometricPrecision; text-rendering:geometricPrecision; image-rendering:optimizeQuality; fill-rule:evenodd; clip-rule:evenodd"
viewBox="0 0 502.74 220.88"
 xmlns:xlink="http://www.w3.org/1999/xlink"
 xmlns:xodm="http://www.corel.com/coreldraw/odm/2003">
 <defs>
  <style type="text/css">
   <![CDATA[
    .str0 {stroke:#C6B93A;stroke-width:11.09;stroke-miterlimit:22.9256}
    .fil1 {fill:none}
    .fil0 {fill:#C6B93A;fill-rule:nonzero}
   ]]>
  </style>
 </defs>
 <g id="Layer_x0020_1">
  <metadata id="CorelCorpID_0Corel-Layer"/>
  <g id="_1037753968">
   <path class="fil0" d="M6.48 8.99c7.5,1.98 14.54,4.52 21.13,7.63l65.47 0c2.07,-1.84 3.9,-3.58 5.53,-5.2 2.66,-2.55 4.49,-3.81 5.56,-3.81 1.95,0 5.41,1.8 10.38,5.38 6,4.61 9.02,7.69 9.02,9.19 0,1.48 -1.51,3.16 -4.52,5.03 -2.51,1.83 -3.78,3.63 -3.78,5.35l0 90.24 1.36 32.4c0,1.95 -2.99,3.46 -8.99,4.49 -2.43,0.36 -4.29,0.53 -5.56,0.53 -3.22,0 -4.85,-1.68 -4.85,-5.03l0 -10.22 -72.04 0 0 12.3c0,2.07 -2.72,3.58 -8.16,4.49 -2.31,0.23 -3.96,0.35 -5.03,0.35 -3.7,0 -5.52,-1.63 -5.52,-4.85 0.92,-11.76 1.39,-22.17 1.39,-31.19l0 -88.68c0,-7.83 -0.47,-17.32 -1.39,-28.4zm18.71 130.95l72.04 0 0 -60.09 -72.04 0 0 60.09zm0 -65.12l72.04 0 0 -53.35 -72.04 0 0 53.35zm134.41 -40.7c10.61,1.28 20.3,1.89 29.08,1.89l40.17 0 0 -8.13c0,-10.61 -0.44,-19.92 -1.39,-27.88 4.88,0.45 10.88,1.28 18.04,2.43 5.08,0.68 7.62,1.77 7.62,3.28 0,1.51 -1.51,2.78 -4.52,3.81 -2.07,0.56 -3.1,1.83 -3.1,3.81l0 22.67 40.17 0c0.47,-0.12 2.36,-2.36 5.73,-6.74 4.26,-5.2 6.74,-7.81 7.45,-7.81 2.19,0 5.64,2.55 10.38,7.63 4.61,4.96 6.91,7.98 6.91,9.01 0,1.84 -1.15,2.75 -3.46,2.75l-62.16 0c10.26,20.1 20.96,35.29 32.04,45.55 12.24,10.76 24.36,18.27 36.35,22.52l-0.68 3.99c-5.08,1.75 -8.66,5.32 -10.76,10.73 -1.24,3.93 -2.75,5.88 -4.49,5.88 -2.19,0 -7.27,-4.2 -15.22,-12.63 -8.34,-8.42 -16.17,-19.36 -23.56,-32.75 -7.63,-13.63 -13.86,-27.76 -18.71,-42.42l0 75.34 6.23 0c0.45,-0.11 2.31,-2.16 5.53,-6.08 3.93,-4.73 6.23,-7.09 6.94,-7.09 2.07,0 5.23,2.31 9.52,6.94 4.25,4.61 6.41,7.39 6.41,8.31 0,1.83 -0.94,2.78 -2.78,2.78l-31.86 0 0 8.48c0,9.22 0.23,18.41 0.68,27.52 0,2.1 -2.72,3.61 -8.13,4.52 -2.31,0.23 -3.99,0.32 -5.02,0.35 -3.22,-0.03 -4.85,-1.63 -4.85,-4.88 0.47,-10.14 0.68,-19.33 0.68,-27.52l0 -8.48 -10.38 0c-10.17,0 -17.32,0.26 -21.49,0.85l-2.78 -6.91c5.56,0.8 13.62,1.21 24.26,1.21l10.38 0 0 -57.52c-8.54,15.82 -18.06,29.5 -28.55,41.06 -14.1,14.89 -28.35,25.92 -42.8,33.07l-0.68 -1.39c12.79,-10.73 24.65,-24.24 35.5,-40.53 11.2,-15.01 20.48,-31.98 27.87,-50.93l-34.29 0c-9.46,0 -17.32,0.53 -23.56,1.56l-2.75 -8.31zm181.49 -23.03c5.56,1.04 13.63,1.54 24.27,1.54l4.85 0c0.33,-0.21 1.89,-2.07 4.67,-5.53 3.22,-4.29 5.15,-6.42 5.71,-6.42 1.87,0 4.67,2.13 8.48,6.42 4.05,4.14 6.06,6.62 6.06,7.45 0,1.84 -0.92,2.78 -2.75,2.78l-27.02 0c-10.05,0 -17.21,0.21 -21.49,0.68l-2.78 -6.92zm-7.62 21.46c5.56,1.04 13.62,1.56 24.26,1.56l20.07 0c0.36,-0.35 2.1,-2.31 5.2,-5.88 3.7,-4.52 5.88,-6.77 6.59,-6.77 1.84,0 4.73,2.25 8.66,6.77 4.05,4.26 6.06,6.86 6.06,7.77 0,1.87 -0.97,2.78 -2.95,2.78l-43.63 0c-10.05,0 -17.2,0.24 -21.49,0.71l-2.78 -6.94zm7.62 23.74c5.56,0.92 13.63,1.39 24.27,1.39l8.99 0c0.47,-0.24 1.98,-2.04 4.52,-5.38 3.34,-3.93 5.29,-5.88 5.89,-5.88 1.71,0 4.49,1.95 8.3,5.88 3.7,4.05 5.56,6.47 5.56,7.27 0,1.86 -0.95,2.78 -2.78,2.78l-30.47 0c-10.05,0 -17.21,0.24 -21.49,0.68l-2.78 -6.74zm0.71 24.06c5.53,0.94 13.62,1.39 24.24,1.39l7.63 0c0.35,-0.12 1.83,-1.84 4.49,-5.17 3.34,-3.81 5.32,-5.74 5.88,-5.74 1.74,0 4.52,1.92 8.33,5.74 3.7,4.02 5.53,6.44 5.53,7.27 0,1.95 -0.92,2.93 -2.78,2.93l-29.09 0c-10.17,0 -17.32,0.18 -21.49,0.53l-2.75 -6.94zm0.68 19.42c6.36,1.72 12.95,4.02 19.75,6.92l12.83 0c2.07,-1.84 4.02,-3.46 5.88,-4.85 1.39,-1.39 2.66,-2.07 3.81,-2.07 1.15,0 3.93,1.39 8.3,4.14 5.08,3.46 7.63,5.79 7.63,6.94 0,1.39 -1.27,2.69 -3.81,3.96 -2.07,1.39 -3.14,2.84 -3.14,4.35l0 18.17c0,4.41 0.24,10.58 0.71,18.54 0,1.95 -2.54,3.46 -7.62,4.49 -2.07,0.35 -3.64,0.53 -4.67,0.53 -2.9,0 -4.35,-1.68 -4.35,-5.02l0 -6.92 -17.82 0 0 8.31c0,2.07 -2.43,3.58 -7.27,4.49 -2.07,0.23 -3.64,0.35 -4.67,0.35 -3.26,0 -4.85,-1.63 -4.85,-4.85 0.45,-5.08 0.68,-10.17 0.68,-15.25l0 -21.46c0,-7.15 -0.47,-14.1 -1.39,-20.78zm17.5 44.34l17.82 0 0 -32.58 -17.82 0 0 32.58zm38.64 -132.16c5.64,0.91 13.71,1.39 24.24,1.39l41.56 0c0.47,-0.24 2.19,-2.31 5.2,-6.24 3.7,-4.73 5.88,-7.09 6.59,-7.09 1.95,0 4.96,2.31 8.99,6.92 4.17,4.61 6.23,7.39 6.23,8.31 0,1.86 -0.92,2.78 -2.78,2.78l-38.6 0 -4.67 23.74 14.19 0c1.74,-1.75 3.34,-3.4 4.85,-5.03 2.19,-2.31 3.81,-3.46 4.85,-3.46 1.63,0 4.29,1.65 7.98,5.02 4.37,3.58 6.57,5.83 6.57,6.74 0,1.39 -1.16,2.72 -3.46,3.99 -2.19,1.63 -3.34,3.04 -3.46,4.32l0 26.51c1.15,-1.75 2.43,-4.17 3.81,-7.27 1.83,-4.05 3.1,-6.06 3.81,-6.06 1.39,0 3.64,2.31 6.74,6.92 3.37,4.29 5.02,7.04 5.02,8.31 0,1.86 -0.68,2.78 -2.07,2.78l-78.3 0c-3.46,0 -8.07,0.24 -13.83,0.68l-2.78 -6.74c7.15,0.92 12.71,1.39 16.61,1.39l5.91 0 6.56 -33.43 -1.89 0c-8.31,0 -14.6,0.47 -18.89,1.39l-2.78 -7.62c6.47,1.03 13.69,1.56 21.67,1.56l2.93 0 4.7 -23.74 -11.26 0c-10.05,0 -17.21,0.23 -21.49,0.68l-2.75 -6.74zm39.13 67.9l22.5 0 0 -33.43 -15.94 0 -6.56 33.43zm-27.37 16.43c6.91,1.86 13.98,4.41 21.13,7.63l30.83 0c2.42,-2.19 4.67,-4.2 6.74,-6.06 1.63,-1.51 3.07,-2.24 4.35,-2.24 1.27,0 4.25,1.39 8.98,4.17 5.56,3.7 8.34,6.24 8.34,7.6 0,1.51 -1.56,3.02 -4.67,4.52 -2.46,1.27 -3.67,2.8 -3.67,4.67l0 21.49c0,4.73 0.24,11.15 0.71,19.22 0,2.07 -2.66,3.58 -7.98,4.49 -2.31,0.23 -4.02,0.35 -5.17,0.35 -2.78,0 -4.17,-1.63 -4.17,-4.85l0 -8.31 -38.1 0 0 9.7c0,2.07 -2.48,3.52 -7.45,4.32 -2.31,0.35 -3.99,0.53 -5.03,0.53 -3.22,0 -4.85,-1.62 -4.85,-4.85 0.47,-5.32 0.68,-10.64 0.68,-15.93l0 -24.27c0,-7.6 -0.21,-14.99 -0.68,-22.17zm17.32 47.83l38.1 0 0 -35.18 -38.1 0 0 35.18z"/>
   <line class="fil1 str0" x1="-0" y1="215.34" x2="502.74" y2= "215.34" />
  </g>
 </g>
</svg>
