<?xml version="1.0" encoding="UTF-8"?>
<!DOCTYPE svg PUBLIC "-//W3C//DTD SVG 1.1//EN" "http://www.w3.org/Graphics/SVG/1.1/DTD/svg11.dtd">
<!-- Creator: CorelDRAW 2020 -->
<svg xmlns="http://www.w3.org/2000/svg" xml:space="preserve" width="6.2351mm" height="2.0812mm" version="1.1" style="shape-rendering:geometricPrecision; text-rendering:geometricPrecision; image-rendering:optimizeQuality; fill-rule:evenodd; clip-rule:evenodd"
viewBox="0 0 285.58 95.32"
 xmlns:xlink="http://www.w3.org/1999/xlink"
 xmlns:xodm="http://www.corel.com/coreldraw/odm/2003">
 <defs>
  <style type="text/css">
   <![CDATA[
    .fil0 {fill:#6B470F;fill-rule:nonzero}
   ]]>
  </style>
 </defs>
 <g id="Layer_x0020_1">
  <metadata id="CorelCorpID_0Corel-Layer"/>
  <g id="_1458491832">
   <path class="fil0" d="M-0 5.24c4.37,1.15 8.48,2.64 12.32,4.45l38.18 0c1.21,-1.07 2.28,-2.08 3.22,-3.03 1.55,-1.48 2.62,-2.23 3.24,-2.23 1.14,0 3.16,1.05 6.05,3.14 3.5,2.69 5.26,4.48 5.26,5.36 0,0.86 -0.88,1.85 -2.64,2.93 -1.47,1.07 -2.21,2.12 -2.21,3.12l0 52.62 0.8 18.89c0,1.14 -1.75,2.02 -5.24,2.62 -1.42,0.21 -2.5,0.31 -3.24,0.31 -1.88,0 -2.83,-0.98 -2.83,-2.93l0 -5.96 -42 0 0 7.17c0,1.2 -1.59,2.08 -4.76,2.62 -1.34,0.13 -2.31,0.21 -2.93,0.21 -2.15,0 -3.22,-0.95 -3.22,-2.83 0.54,-6.86 0.81,-12.93 0.81,-18.19l0 -51.7c0,-4.57 -0.27,-10.1 -0.81,-16.56zm10.91 76.35l42 0 0 -35.03 -42 0 0 35.03zm0 -37.97l42 0 0 -31.11 -42 0 0 31.11zm78.37 -23.73c6.18,0.75 11.84,1.1 16.96,1.1l23.42 0 0 -4.74c0,-6.19 -0.26,-11.62 -0.81,-16.26 2.84,0.26 6.34,0.74 10.52,1.42 2.96,0.39 4.45,1.03 4.45,1.91 0,0.88 -0.88,1.62 -2.64,2.23 -1.21,0.33 -1.81,1.07 -1.81,2.22l0 13.22 23.42 0c0.27,-0.07 1.38,-1.38 3.34,-3.93 2.49,-3.03 3.93,-4.55 4.35,-4.55 1.28,0 3.29,1.48 6.05,4.45 2.68,2.89 4.03,4.65 4.03,5.25 0,1.07 -0.67,1.61 -2.02,1.61l-36.25 0c5.98,11.72 12.22,20.57 18.69,26.56 7.13,6.27 14.2,10.65 21.2,13.13l-0.4 2.33c-2.96,1.02 -5.05,3.11 -6.27,6.26 -0.72,2.29 -1.6,3.43 -2.62,3.43 -1.28,0 -4.24,-2.45 -8.88,-7.36 -4.86,-4.91 -9.43,-11.29 -13.74,-19.1 -4.45,-7.95 -8.08,-16.18 -10.91,-24.73l0 43.93 3.64 0c0.26,-0.06 1.34,-1.25 3.22,-3.55 2.29,-2.76 3.63,-4.14 4.05,-4.14 1.2,0 3.05,1.34 5.55,4.05 2.48,2.69 3.74,4.31 3.74,4.84 0,1.07 -0.55,1.62 -1.62,1.62l-18.58 0 0 4.95c0,5.38 0.14,10.74 0.4,16.04 0,1.22 -1.59,2.1 -4.75,2.64 -1.34,0.14 -2.33,0.19 -2.93,0.21 -1.88,-0.02 -2.83,-0.95 -2.83,-2.84 0.27,-5.91 0.39,-11.27 0.39,-16.04l0 -4.95 -6.05 0c-5.93,0 -10.1,0.16 -12.53,0.5l-1.62 -4.03c3.24,0.46 7.95,0.7 14.15,0.7l6.05 0 0 -33.54c-4.98,9.22 -10.53,17.2 -16.64,23.94 -8.23,8.68 -16.53,15.11 -24.96,19.29l-0.4 -0.81c7.46,-6.26 14.37,-14.13 20.7,-23.63 6.53,-8.76 11.94,-18.65 16.25,-29.69l-19.99 0c-5.51,0 -10.1,0.31 -13.74,0.91l-1.6 -4.85zm105.82 -13.42c3.24,0.6 7.95,0.9 14.15,0.9l2.82 0c0.19,-0.12 1.1,-1.21 2.73,-3.22 1.88,-2.5 3,-3.74 3.33,-3.74 1.09,0 2.73,1.24 4.95,3.74 2.36,2.41 3.54,3.86 3.54,4.34 0,1.07 -0.54,1.62 -1.6,1.62l-15.75 0c-5.86,0 -10.04,0.12 -12.53,0.4l-1.62 -4.04zm-4.44 12.51c3.24,0.6 7.94,0.91 14.14,0.91l11.71 0c0.21,-0.21 1.22,-1.34 3.03,-3.43 2.15,-2.63 3.43,-3.94 3.84,-3.94 1.07,0 2.76,1.31 5.05,3.94 2.36,2.49 3.53,4 3.53,4.53 0,1.09 -0.57,1.62 -1.72,1.62l-25.44 0c-5.86,0 -10.03,0.14 -12.53,0.41l-1.62 -4.05zm4.44 13.84c3.24,0.54 7.95,0.81 14.15,0.81l5.24 0c0.27,-0.14 1.15,-1.19 2.63,-3.14 1.95,-2.29 3.08,-3.43 3.43,-3.43 1,0 2.62,1.14 4.84,3.43 2.16,2.36 3.24,3.77 3.24,4.24 0,1.09 -0.55,1.62 -1.62,1.62l-17.77 0c-5.86,0 -10.04,0.14 -12.53,0.39l-1.62 -3.93zm0.41 14.03c3.22,0.55 7.95,0.81 14.13,0.81l4.45 0c0.21,-0.07 1.07,-1.07 2.62,-3.01 1.95,-2.23 3.1,-3.34 3.43,-3.34 1.02,0 2.63,1.12 4.86,3.34 2.15,2.34 3.22,3.76 3.22,4.24 0,1.14 -0.54,1.7 -1.62,1.7l-16.96 0c-5.93,0 -10.1,0.11 -12.53,0.31l-1.61 -4.05zm0.4 11.32c3.71,1 7.55,2.35 11.51,4.03l7.48 0c1.2,-1.07 2.34,-2.02 3.43,-2.83 0.81,-0.81 1.55,-1.2 2.22,-1.2 0.67,0 2.29,0.81 4.84,2.41 2.96,2.02 4.45,3.38 4.45,4.05 0,0.81 -0.74,1.57 -2.22,2.31 -1.2,0.81 -1.83,1.65 -1.83,2.53l0 10.6c0,2.57 0.14,6.17 0.41,10.81 0,1.14 -1.48,2.02 -4.44,2.62 -1.21,0.21 -2.13,0.31 -2.73,0.31 -1.69,0 -2.53,-0.98 -2.53,-2.93l0 -4.04 -10.39 0 0 4.85c0,1.2 -1.42,2.08 -4.24,2.62 -1.21,0.13 -2.12,0.21 -2.72,0.21 -1.9,0 -2.83,-0.95 -2.83,-2.83 0.26,-2.96 0.4,-5.93 0.4,-8.89l0 -12.51c0,-4.17 -0.27,-8.22 -0.81,-12.11zm10.2 25.85l10.39 0 0 -18.99 -10.39 0 0 18.99zm22.53 -77.05c3.29,0.53 8,0.81 14.13,0.81l24.23 0c0.27,-0.14 1.28,-1.34 3.04,-3.64 2.15,-2.76 3.43,-4.14 3.84,-4.14 1.14,0 2.89,1.34 5.24,4.04 2.43,2.69 3.63,4.31 3.63,4.84 0,1.09 -0.53,1.62 -1.62,1.62l-22.51 0 -2.72 13.84 8.27 0c1.02,-1.02 1.95,-1.98 2.83,-2.93 1.28,-1.34 2.23,-2.02 2.83,-2.02 0.95,0 2.5,0.97 4.65,2.93 2.55,2.09 3.83,3.39 3.83,3.93 0,0.81 -0.67,1.58 -2.02,2.33 -1.27,0.95 -1.95,1.77 -2.02,2.51l0 15.46c0.67,-1.02 1.42,-2.43 2.23,-4.24 1.07,-2.36 1.81,-3.54 2.22,-3.54 0.81,0 2.12,1.35 3.93,4.04 1.96,2.5 2.93,4.1 2.93,4.84 0,1.09 -0.39,1.62 -1.2,1.62l-45.66 0c-2.02,0 -4.7,0.14 -8.07,0.39l-1.62 -3.93c4.17,0.54 7.41,0.81 9.68,0.81l3.45 0 3.82 -19.49 -1.1 0c-4.84,0 -8.51,0.27 -11.02,0.81l-1.62 -4.45c3.77,0.6 7.98,0.91 12.63,0.91l1.71 0 2.74 -13.84 -6.56 0c-5.86,0 -10.04,0.13 -12.53,0.39l-1.6 -3.93zm22.82 39.59l13.12 0 0 -19.49 -9.29 0 -3.82 19.49zm-15.96 9.58c4.03,1.08 8.15,2.56 12.32,4.45l17.98 0c1.41,-1.28 2.72,-2.45 3.93,-3.54 0.95,-0.88 1.79,-1.31 2.53,-1.31 0.74,0 2.48,0.81 5.24,2.43 3.24,2.15 4.86,3.64 4.86,4.43 0,0.88 -0.91,1.76 -2.72,2.64 -1.43,0.74 -2.14,1.64 -2.14,2.72l0 12.53c0,2.76 0.14,6.5 0.42,11.21 0,1.2 -1.55,2.08 -4.65,2.62 -1.35,0.13 -2.34,0.21 -3.02,0.21 -1.62,0 -2.43,-0.95 -2.43,-2.83l0 -4.85 -22.21 0 0 5.66c0,1.2 -1.45,2.05 -4.34,2.51 -1.35,0.21 -2.33,0.31 -2.93,0.31 -1.88,0 -2.83,-0.94 -2.83,-2.82 0.27,-3.11 0.39,-6.21 0.39,-9.29l0 -14.15c0,-4.43 -0.12,-8.74 -0.39,-12.93zm10.1 27.88l22.21 0 0 -20.51 -22.21 0 0 20.51z"/>
  </g>
 </g>
</svg>
