<?xml version="1.0" encoding="UTF-8"?>
<!DOCTYPE svg PUBLIC "-//W3C//DTD SVG 1.1//EN" "http://www.w3.org/Graphics/SVG/1.1/DTD/svg11.dtd">
<!-- Creator: CorelDRAW 2020 -->
<svg xmlns="http://www.w3.org/2000/svg" xml:space="preserve" width="8.4mm" height="3.8mm" version="1.1" style="shape-rendering:geometricPrecision; text-rendering:geometricPrecision; image-rendering:optimizeQuality; fill-rule:evenodd; clip-rule:evenodd"
viewBox="0 0 29.41 13.3"
 xmlns:xlink="http://www.w3.org/1999/xlink"
 xmlns:xodm="http://www.corel.com/coreldraw/odm/2003">
 <defs>
  <style type="text/css">
   <![CDATA[
    .str0 {stroke:#C6B93A;stroke-width:0.62;stroke-miterlimit:22.9256}
    .fil0 {fill:none}
    .fil2 {fill:none;fill-rule:nonzero}
    .fil1 {fill:#C6B93A;fill-rule:nonzero}
   ]]>
  </style>
 </defs>
 <g id="Layer_x0020_1">
  <metadata id="CorelCorpID_0Corel-Layer"/>
  <polygon class="fil0" points="-0,0 29.41,0 29.41,13.3 -0,13.3 "/>
 </g>
 <g id="Layer_x0020_1_0">
  <metadata id="CorelCorpID_1Corel-Layer"/>
  <g id="_950757768">
   <path class="fil1" d="M3.52 2.11c0.33,0.09 0.65,0.2 0.94,0.34l2.92 0c0.09,-0.08 0.17,-0.16 0.25,-0.23 0.12,-0.11 0.2,-0.17 0.25,-0.17 0.09,0 0.24,0.08 0.46,0.24 0.27,0.21 0.4,0.34 0.4,0.41 0,0.07 -0.07,0.14 -0.2,0.22 -0.11,0.08 -0.17,0.16 -0.17,0.24l0 4.02 0.06 1.44c0,0.09 -0.13,0.15 -0.4,0.2 -0.11,0.02 -0.19,0.02 -0.25,0.02 -0.14,0 -0.22,-0.07 -0.22,-0.22l0 -0.46 -3.21 0 0 0.55c0,0.09 -0.12,0.16 -0.36,0.2 -0.1,0.01 -0.18,0.02 -0.22,0.02 -0.16,0 -0.25,-0.07 -0.25,-0.22 0.04,-0.52 0.06,-0.99 0.06,-1.39l0 -3.95c0,-0.35 -0.02,-0.77 -0.06,-1.27l0 0zm0.83 5.84l3.21 0 0 -2.68 -3.21 0 0 2.68zm0 -2.9l3.21 0 0 -2.38 -3.21 0 0 2.38zm5.99 -1.81c0.47,0.06 0.91,0.08 1.3,0.08l1.79 0 0 -0.36c0,-0.47 -0.02,-0.89 -0.06,-1.24 0.22,0.02 0.48,0.06 0.8,0.11 0.23,0.03 0.34,0.08 0.34,0.15 0,0.07 -0.07,0.12 -0.2,0.17 -0.09,0.02 -0.14,0.08 -0.14,0.17l0 1.01 1.79 0c0.02,-0.01 0.11,-0.11 0.26,-0.3 0.19,-0.23 0.3,-0.35 0.33,-0.35 0.1,0 0.25,0.11 0.46,0.34 0.21,0.22 0.31,0.36 0.31,0.4 0,0.08 -0.05,0.12 -0.15,0.12l-2.77 0c0.46,0.9 0.93,1.57 1.43,2.03 0.55,0.48 1.08,0.81 1.62,1l-0.03 0.18c-0.23,0.08 -0.39,0.24 -0.48,0.48 -0.06,0.18 -0.12,0.26 -0.2,0.26 -0.1,0 -0.32,-0.19 -0.68,-0.56 -0.37,-0.38 -0.72,-0.86 -1.05,-1.46 -0.34,-0.61 -0.62,-1.24 -0.83,-1.89l0 3.36 0.28 0c0.02,-0.01 0.1,-0.1 0.25,-0.27 0.18,-0.21 0.28,-0.32 0.31,-0.32 0.09,0 0.23,0.1 0.42,0.31 0.19,0.21 0.29,0.33 0.29,0.37 0,0.08 -0.04,0.12 -0.12,0.12l-1.42 0 0 0.38c0,0.41 0.01,0.82 0.03,1.23 0,0.09 -0.12,0.16 -0.36,0.2 -0.1,0.01 -0.18,0.01 -0.22,0.02 -0.14,-0 -0.22,-0.07 -0.22,-0.22 0.02,-0.45 0.03,-0.86 0.03,-1.23l0 -0.38 -0.46 0c-0.45,0 -0.77,0.01 -0.96,0.04l-0.12 -0.31c0.25,0.04 0.61,0.05 1.08,0.05l0.46 0 0 -2.56c-0.38,0.7 -0.8,1.31 -1.27,1.83 -0.63,0.66 -1.26,1.15 -1.91,1.47l-0.03 -0.06c0.57,-0.48 1.1,-1.08 1.58,-1.81 0.5,-0.67 0.91,-1.43 1.24,-2.27l-1.53 0c-0.42,0 -0.77,0.02 -1.05,0.07l-0.12 -0.37 -0 0zm8.09 -1.03c0.25,0.05 0.61,0.07 1.08,0.07l0.22 0c0.01,-0.01 0.08,-0.09 0.21,-0.25 0.14,-0.19 0.23,-0.29 0.25,-0.29 0.08,0 0.21,0.09 0.38,0.29 0.18,0.18 0.27,0.3 0.27,0.33 0,0.08 -0.04,0.12 -0.12,0.12l-1.2 0c-0.45,0 -0.77,0.01 -0.96,0.03l-0.12 -0.31 0 0zm-0.34 0.96c0.25,0.05 0.61,0.07 1.08,0.07l0.89 0c0.02,-0.02 0.09,-0.1 0.23,-0.26 0.16,-0.2 0.26,-0.3 0.29,-0.3 0.08,0 0.21,0.1 0.39,0.3 0.18,0.19 0.27,0.31 0.27,0.35 0,0.08 -0.04,0.12 -0.13,0.12l-1.95 0c-0.45,0 -0.77,0.01 -0.96,0.03l-0.12 -0.31 0 0zm0.34 1.06c0.25,0.04 0.61,0.06 1.08,0.06l0.4 0c0.02,-0.01 0.09,-0.09 0.2,-0.24 0.15,-0.18 0.24,-0.26 0.26,-0.26 0.08,0 0.2,0.09 0.37,0.26 0.16,0.18 0.25,0.29 0.25,0.32 0,0.08 -0.04,0.12 -0.12,0.12l-1.36 0c-0.45,0 -0.77,0.01 -0.96,0.03l-0.12 -0.3 -0 -0zm0.03 1.07c0.25,0.04 0.61,0.06 1.08,0.06l0.34 0c0.02,-0.01 0.08,-0.08 0.2,-0.23 0.15,-0.17 0.24,-0.26 0.26,-0.26 0.08,0 0.2,0.09 0.37,0.26 0.16,0.18 0.25,0.29 0.25,0.32 0,0.09 -0.04,0.13 -0.12,0.13l-1.3 0c-0.45,0 -0.77,0.01 -0.96,0.02l-0.12 -0.31 -0 0zm0.03 0.87c0.28,0.08 0.58,0.18 0.88,0.31l0.57 0c0.09,-0.08 0.18,-0.15 0.26,-0.22 0.06,-0.06 0.12,-0.09 0.17,-0.09 0.05,0 0.18,0.06 0.37,0.18 0.23,0.15 0.34,0.26 0.34,0.31 0,0.06 -0.06,0.12 -0.17,0.18 -0.09,0.06 -0.14,0.13 -0.14,0.19l0 0.81c0,0.2 0.01,0.47 0.03,0.83 0,0.09 -0.11,0.15 -0.34,0.2 -0.09,0.02 -0.16,0.02 -0.21,0.02 -0.13,0 -0.19,-0.07 -0.19,-0.22l0 -0.31 -0.79 0 0 0.37c0,0.09 -0.11,0.16 -0.32,0.2 -0.09,0.01 -0.16,0.02 -0.21,0.02 -0.15,0 -0.22,-0.07 -0.22,-0.22 0.02,-0.23 0.03,-0.45 0.03,-0.68l0 -0.96c0,-0.32 -0.02,-0.63 -0.06,-0.93l0 0zm0.78 1.98l0.79 0 0 -1.45 -0.79 0 0 1.45zm1.72 -5.89c0.25,0.04 0.61,0.06 1.08,0.06l1.85 0c0.02,-0.01 0.1,-0.1 0.23,-0.28 0.16,-0.21 0.26,-0.32 0.29,-0.32 0.09,0 0.22,0.1 0.4,0.31 0.19,0.21 0.28,0.33 0.28,0.37 0,0.08 -0.04,0.12 -0.12,0.12l-1.72 0 -0.21 1.06 0.63 0c0.08,-0.08 0.15,-0.15 0.22,-0.22 0.1,-0.1 0.17,-0.15 0.22,-0.15 0.07,0 0.19,0.07 0.36,0.22 0.2,0.16 0.29,0.26 0.29,0.3 0,0.06 -0.05,0.12 -0.15,0.18 -0.1,0.07 -0.15,0.14 -0.15,0.19l0 1.18c0.05,-0.08 0.11,-0.19 0.17,-0.32 0.08,-0.18 0.14,-0.27 0.17,-0.27 0.06,0 0.16,0.1 0.3,0.31 0.15,0.19 0.22,0.31 0.22,0.37 0,0.08 -0.03,0.12 -0.09,0.12l-3.49 0c-0.15,0 -0.36,0.01 -0.62,0.03l-0.12 -0.3c0.32,0.04 0.57,0.06 0.74,0.06l0.26 0 0.29 -1.49 -0.08 0c-0.37,0 -0.65,0.02 -0.84,0.06l-0.12 -0.34c0.29,0.05 0.61,0.07 0.97,0.07l0.13 0 0.21 -1.06 -0.5 0c-0.45,0 -0.77,0.01 -0.96,0.03l-0.12 -0.3 0 0zm1.74 3.03l1 0 0 -1.49 -0.71 0 -0.29 1.49zm-1.22 0.73c0.31,0.08 0.62,0.2 0.94,0.34l1.37 0c0.11,-0.1 0.21,-0.19 0.3,-0.27 0.07,-0.07 0.14,-0.1 0.19,-0.1 0.06,0 0.19,0.06 0.4,0.19 0.25,0.16 0.37,0.28 0.37,0.34 0,0.07 -0.07,0.13 -0.21,0.2 -0.11,0.06 -0.16,0.12 -0.16,0.21l0 0.96c0,0.21 0.01,0.5 0.03,0.86 0,0.09 -0.12,0.16 -0.36,0.2 -0.1,0.01 -0.18,0.02 -0.23,0.02 -0.12,0 -0.19,-0.07 -0.19,-0.22l0 -0.37 -1.7 0 0 0.43c0,0.09 -0.11,0.16 -0.33,0.19 -0.1,0.02 -0.18,0.02 -0.22,0.02 -0.14,0 -0.22,-0.07 -0.22,-0.22 0.02,-0.24 0.03,-0.47 0.03,-0.71l0 -1.08c0,-0.34 -0.01,-0.67 -0.03,-0.99l0 -0zm0.77 2.13l1.7 0 0 -1.57 -1.7 0 0 1.57z"/>
   <line class="fil2 str0" x1="3.24" y1="11.3" x2="25.64" y2= "11.3" />
  </g>
 </g>
</svg>
