<?xml version="1.0" encoding="UTF-8"?>
<!DOCTYPE svg PUBLIC "-//W3C//DTD SVG 1.1//EN" "http://www.w3.org/Graphics/SVG/1.1/DTD/svg11.dtd">
<!-- Creator: CorelDRAW 2020 -->
<svg xmlns="http://www.w3.org/2000/svg" xml:space="preserve" width="6.4mm" height="2.8294mm" version="1.1" style="shape-rendering:geometricPrecision; text-rendering:geometricPrecision; image-rendering:optimizeQuality; fill-rule:evenodd; clip-rule:evenodd"
viewBox="0 0 304.58 134.65"
 xmlns:xlink="http://www.w3.org/1999/xlink"
 xmlns:xodm="http://www.corel.com/coreldraw/odm/2003">
 <defs>
  <style type="text/css">
   <![CDATA[
    .str0 {stroke:#C6B93A;stroke-width:8.4;stroke-miterlimit:22.9256}
    .fil1 {fill:none}
    .fil0 {fill:#C6B93A;fill-rule:nonzero}
   ]]>
  </style>
 </defs>
 <g id="Layer_x0020_1">
  <metadata id="CorelCorpID_0Corel-Layer"/>
  <g id="_950757768">
   <path class="fil0" d="M3.93 5.44c4.54,1.2 8.81,2.74 12.8,4.62l39.67 0c1.26,-1.11 2.37,-2.17 3.35,-3.15 1.61,-1.54 2.72,-2.31 3.36,-2.31 1.19,0 3.28,1.09 6.29,3.26 3.64,2.79 5.46,4.65 5.46,5.57 0,0.89 -0.91,1.92 -2.74,3.05 -1.52,1.11 -2.29,2.2 -2.29,3.24l0 54.67 0.83 19.63c0,1.19 -1.81,2.1 -5.44,2.72 -1.47,0.21 -2.6,0.32 -3.37,0.32 -1.95,0 -2.94,-1.02 -2.94,-3.05l0 -6.2 -43.64 0 0 7.45c0,1.25 -1.65,2.17 -4.94,2.72 -1.39,0.14 -2.4,0.21 -3.05,0.21 -2.24,0 -3.35,-0.99 -3.35,-2.94 0.56,-7.13 0.84,-13.43 0.84,-18.9l0 -53.72c0,-4.74 -0.29,-10.49 -0.84,-17.21zm11.34 79.33l43.64 0 0 -36.4 -43.64 0 0 36.4zm0 -39.45l43.64 0 0 -32.32 -43.64 0 0 32.32zm81.43 -24.66c6.42,0.78 12.3,1.15 17.62,1.15l24.34 0 0 -4.92c0,-6.43 -0.27,-12.07 -0.84,-16.89 2.96,0.27 6.59,0.77 10.93,1.47 3.08,0.41 4.62,1.07 4.62,1.98 0,0.91 -0.91,1.68 -2.74,2.31 -1.26,0.34 -1.88,1.11 -1.88,2.31l0 13.73 24.34 0c0.29,-0.07 1.43,-1.43 3.47,-4.08 2.58,-3.15 4.09,-4.73 4.52,-4.73 1.33,0 3.42,1.54 6.29,4.62 2.79,3.01 4.19,4.84 4.19,5.46 0,1.11 -0.69,1.67 -2.09,1.67l-37.66 0c6.22,12.17 12.7,21.38 19.42,27.59 7.41,6.52 14.75,11.06 22.02,13.64l-0.41 2.42c-3.08,1.06 -5.24,3.23 -6.52,6.5 -0.75,2.38 -1.67,3.56 -2.72,3.56 -1.33,0 -4.41,-2.54 -9.22,-7.65 -5.05,-5.1 -9.79,-11.73 -14.27,-19.84 -4.62,-8.26 -8.4,-16.81 -11.34,-25.7l0 45.64 3.78 0c0.27,-0.07 1.39,-1.3 3.35,-3.68 2.38,-2.86 3.77,-4.3 4.21,-4.3 1.25,0 3.17,1.39 5.77,4.21 2.57,2.79 3.88,4.48 3.88,5.03 0,1.11 -0.57,1.68 -1.68,1.68l-19.3 0 0 5.14c0,5.59 0.14,11.16 0.41,16.67 0,1.27 -1.65,2.18 -4.93,2.74 -1.39,0.14 -2.42,0.2 -3.04,0.21 -1.95,-0.02 -2.94,-0.99 -2.94,-2.96 0.29,-6.14 0.41,-11.71 0.41,-16.67l0 -5.14 -6.29 0c-6.16,0 -10.49,0.16 -13.02,0.52l-1.68 -4.19c3.37,0.48 8.26,0.73 14.7,0.73l6.29 0 0 -34.85c-5.17,9.58 -10.94,17.87 -17.29,24.88 -8.55,9.02 -17.18,15.7 -25.93,20.04l-0.41 -0.84c7.75,-6.51 14.93,-14.69 21.51,-24.55 6.78,-9.1 12.41,-19.38 16.89,-30.85l-20.77 0c-5.73,0 -10.49,0.32 -14.27,0.95l-1.67 -5.04zm109.95 -13.95c3.36,0.63 8.26,0.93 14.71,0.93l2.93 0c0.2,-0.12 1.15,-1.26 2.83,-3.35 1.95,-2.6 3.12,-3.89 3.46,-3.89 1.13,0 2.83,1.29 5.14,3.89 2.46,2.51 3.67,4.01 3.67,4.51 0,1.11 -0.56,1.68 -1.67,1.68l-16.37 0c-6.09,0 -10.43,0.13 -13.02,0.41l-1.68 -4.19zm-4.62 13c3.36,0.63 8.25,0.95 14.7,0.95l12.16 0c0.21,-0.21 1.27,-1.39 3.15,-3.56 2.24,-2.74 3.56,-4.1 3.99,-4.1 1.11,0 2.87,1.36 5.25,4.1 2.45,2.58 3.67,4.15 3.67,4.71 0,1.13 -0.59,1.68 -1.79,1.68l-26.44 0c-6.09,0 -10.42,0.14 -13.02,0.43l-1.68 -4.21zm4.62 14.38c3.36,0.56 8.26,0.84 14.71,0.84l5.44 0c0.29,-0.14 1.2,-1.23 2.74,-3.26 2.02,-2.38 3.2,-3.56 3.56,-3.56 1.04,0 2.72,1.18 5.03,3.56 2.24,2.46 3.37,3.92 3.37,4.41 0,1.13 -0.58,1.68 -1.68,1.68l-18.46 0c-6.09,0 -10.43,0.14 -13.02,0.41l-1.68 -4.08zm0.43 14.58c3.35,0.57 8.26,0.84 14.69,0.84l4.62 0c0.21,-0.07 1.11,-1.11 2.72,-3.13 2.02,-2.31 3.22,-3.47 3.56,-3.47 1.06,0 2.74,1.16 5.05,3.47 2.24,2.43 3.35,3.9 3.35,4.41 0,1.18 -0.56,1.77 -1.68,1.77l-17.62 0c-6.16,0 -10.49,0.11 -13.02,0.32l-1.67 -4.21zm0.41 11.76c3.85,1.04 7.84,2.44 11.96,4.19l7.78 0c1.25,-1.11 2.43,-2.09 3.56,-2.94 0.84,-0.84 1.61,-1.25 2.31,-1.25 0.7,0 2.38,0.84 5.03,2.51 3.08,2.09 4.62,3.51 4.62,4.21 0,0.84 -0.77,1.63 -2.31,2.4 -1.25,0.84 -1.9,1.72 -1.9,2.63l0 11.01c0,2.67 0.14,6.41 0.43,11.23 0,1.18 -1.54,2.09 -4.62,2.72 -1.26,0.21 -2.21,0.32 -2.83,0.32 -1.76,0 -2.63,-1.02 -2.63,-3.04l0 -4.19 -10.8 0 0 5.04c0,1.25 -1.47,2.17 -4.41,2.72 -1.26,0.14 -2.2,0.21 -2.83,0.21 -1.98,0 -2.94,-0.99 -2.94,-2.94 0.27,-3.08 0.41,-6.16 0.41,-9.24l0 -13c0,-4.33 -0.29,-8.54 -0.84,-12.59zm10.6 26.86l10.8 0 0 -19.74 -10.8 0 0 19.74zm23.41 -80.06c3.42,0.55 8.31,0.84 14.69,0.84l25.18 0c0.29,-0.14 1.33,-1.39 3.16,-3.78 2.24,-2.86 3.56,-4.3 3.99,-4.3 1.18,0 3.01,1.39 5.44,4.19 2.52,2.79 3.77,4.47 3.77,5.03 0,1.13 -0.55,1.68 -1.68,1.68l-23.39 0 -2.83 14.38 8.59 0c1.06,-1.06 2.02,-2.06 2.94,-3.05 1.33,-1.39 2.31,-2.09 2.94,-2.09 0.99,0 2.6,1 4.84,3.05 2.65,2.17 3.98,3.53 3.98,4.08 0,0.84 -0.7,1.65 -2.1,2.42 -1.32,0.99 -2.02,1.84 -2.09,2.61l0 16.07c0.7,-1.06 1.47,-2.53 2.31,-4.41 1.11,-2.46 1.88,-3.67 2.31,-3.67 0.84,0 2.2,1.4 4.08,4.19 2.04,2.59 3.04,4.26 3.04,5.03 0,1.13 -0.41,1.68 -1.25,1.68l-47.44 0c-2.09,0 -4.89,0.14 -8.38,0.41l-1.68 -4.08c4.33,0.56 7.7,0.84 10.06,0.84l3.58 0 3.97 -20.25 -1.15 0c-5.03,0 -8.85,0.29 -11.45,0.84l-1.68 -4.62c3.92,0.62 8.29,0.95 13.13,0.95l1.78 0 2.85 -14.38 -6.82 0c-6.09,0 -10.43,0.14 -13.02,0.41l-1.67 -4.08zm23.71 41.13l13.63 0 0 -20.25 -9.66 0 -3.97 20.25zm-16.58 9.96c4.19,1.12 8.47,2.67 12.8,4.62l18.68 0c1.47,-1.33 2.83,-2.55 4.08,-3.67 0.99,-0.91 1.86,-1.36 2.63,-1.36 0.77,0 2.58,0.84 5.44,2.53 3.37,2.24 5.05,3.78 5.05,4.6 0,0.91 -0.95,1.83 -2.83,2.74 -1.49,0.77 -2.23,1.7 -2.23,2.83l0 13.02c0,2.87 0.15,6.76 0.43,11.65 0,1.25 -1.61,2.17 -4.84,2.72 -1.4,0.14 -2.43,0.21 -3.14,0.21 -1.68,0 -2.52,-0.99 -2.52,-2.94l0 -5.04 -23.08 0 0 5.88c0,1.25 -1.5,2.13 -4.51,2.61 -1.4,0.21 -2.42,0.32 -3.05,0.32 -1.96,0 -2.94,-0.98 -2.94,-2.93 0.29,-3.23 0.41,-6.45 0.41,-9.65l0 -14.71c0,-4.6 -0.12,-9.08 -0.41,-13.43zm10.49 28.97l23.08 0 0 -21.31 -23.08 0 0 21.31z"/>
   <line class="fil1 str0" x1="-0" y1="130.46" x2="304.58" y2= "130.46" />
  </g>
 </g>
</svg>
