<?xml version="1.0" encoding="UTF-8"?>
<!DOCTYPE svg PUBLIC "-//W3C//DTD SVG 1.1//EN" "http://www.w3.org/Graphics/SVG/1.1/DTD/svg11.dtd">
<!-- Creator: CorelDRAW 2020 -->
<svg xmlns="http://www.w3.org/2000/svg" xml:space="preserve" width="11mm" height="10mm" version="1.1" style="shape-rendering:geometricPrecision; text-rendering:geometricPrecision; image-rendering:optimizeQuality; fill-rule:evenodd; clip-rule:evenodd"
viewBox="0 0 743.27 675.7"
 xmlns:xlink="http://www.w3.org/1999/xlink"
 xmlns:xodm="http://www.corel.com/coreldraw/odm/2003">
 <defs>
  <style type="text/css">
   <![CDATA[
    .str0 {stroke:#B2AD81;stroke-width:33.79;stroke-miterlimit:22.9256}
    .str1 {stroke:#B2AD81;stroke-width:16.89;stroke-miterlimit:22.9256}
    .fil0 {fill:none}
    .fil1 {fill:#B2AD81}
    .fil2 {fill:#B2AD81;fill-rule:nonzero}
   ]]>
  </style>
 </defs>
 <g id="Layer_x0020_1">
  <metadata id="CorelCorpID_0Corel-Layer"/>
  <g id="_910211344">
   <polygon class="fil0" points="-0,0 743.27,0 743.27,675.7 -0,675.7 "/>
   <g>
    <line class="fil0 str0" x1="189.53" y1="283.77" x2="416.14" y2= "283.77" />
    <line class="fil0 str1" x1="388.54" y1="287.64" x2="398.18" y2= "429.39" />
    <line class="fil0 str0" x1="454.48" y1="346.11" x2="554.87" y2= "346.11" />
    <line class="fil0 str1" x1="473.18" y1="339.5" x2="469.51" y2= "429.39" />
    <line class="fil0 str1" x1="544.91" y1="339.5" x2="548.58" y2= "429.39" />
    <line class="fil0 str0" x1="548.64" y1="193.42" x2="544.97" y2= "335.17" />
    <polygon class="fil0 str1" points="253.33,63.19 353.76,63.19 353.76,146.89 253.33,146.89 "/>
    <polygon class="fil1" points="254.45,345.48 354.88,345.48 354.88,430.02 254.45,430.02 "/>
    <polygon class="fil1" points="245.36,146.89 362.09,146.89 362.09,230.59 245.36,230.59 "/>
    <line class="fil0 str1" x1="218.15" y1="287.64" x2="208.52" y2= "429.39" />
   </g>
   <path class="fil2" d="M165.17 552.39c-0.8,14.13 -2.16,27.99 -4.05,41.58 -0.93,2.57 -3.32,3.87 -7.14,3.87 -5.54,0 -8.3,-2.84 -8.3,-8.5 0,-2.32 0.68,-6.66 1.99,-13 0.94,-5.53 1.42,-9.26 1.49,-11.26 0.06,-1.96 0.22,-4.15 0.48,-6.5 0.25,-2.34 0.22,-4.21 -0.1,-5.6 -3.18,0.42 -9.74,4.25 -19.6,11.49 -9.88,7.24 -18.35,14.39 -25.36,21.49l0 -0.09c-0.45,0.26 -1.83,2.61 -4.15,7.08 -3.34,6.66 -7.01,9.97 -11.04,9.97 -1.9,0 -3.99,-0.8 -6.28,-2.45 -2.28,-1.64 -3.44,-3.24 -3.44,-4.89 0,-3.9 3.67,-9.72 11.01,-17.41 7.3,-7.7 15.42,-14.29 24.26,-19.76 10.81,-6.67 18.24,-12.03 22.33,-16.12 -1.8,-2.58 -5.38,-5.38 -10.65,-8.47 -5.34,-3.16 -10.3,-6.66 -14.9,-10.55 -0.61,-0.51 -1.39,-1.09 -2.26,-1.7 -8.11,-5.47 -13.48,-9.56 -16.15,-12.3 -2.67,-2.73 -4.03,-5.69 -4.03,-8.82 0,-2.09 0.81,-3.99 2.35,-5.72 1.57,-1.71 3.12,-2.58 4.64,-2.58 0.93,0 2.64,0.49 5.08,1.52 2.45,0.99 4.22,2.06 5.28,3.18l4.63 4.34c16.29,15.96 29.16,26.13 38.66,30.44 0.48,0 1.12,-0.57 1.86,-1.77 0.65,-2.16 0.96,-5.56 0.96,-10.29 0,-4.38 -0.48,-9.34 -1.41,-14.8 -0.52,-2.8 -0.78,-4.67 -0.78,-5.54 0,-2.95 1.16,-5.34 3.45,-7.18 2.32,-1.83 4.79,-2.73 7.49,-2.73 3.09,0 5.18,0.64 6.31,1.9 1.16,1.25 1.7,3.37 1.7,6.4l-1.22 29.96 0 1.91c0,0.86 0.03,1.6 0.09,2.15 2.19,0 4.51,-0.84 6.89,-2.57 2.38,-1.74 5.95,-5.18 10.65,-10.33 20.69,-21.43 32.66,-32.14 35.91,-32.14 1.83,0 3.51,0.77 4.99,2.25 1.51,1.51 2.29,3.28 2.29,5.28 0,1.03 -3.45,5.28 -10.34,12.78 -6.88,7.53 -13.97,14.41 -21.27,20.69 -9.37,8.05 -14.03,12.23 -14.03,12.55 0,0.45 3.89,3.71 11.68,9.82 8.43,6.6 14.25,11.26 17.44,14.03 0.45,0.32 1.07,0.74 1.9,1.22 9.3,5.73 15.1,10.01 17.44,12.85 2.32,2.83 3.48,5.21 3.48,7.14 0,1.83 -0.77,3.7 -2.35,5.63 -1.58,1.91 -3.12,2.86 -4.64,2.86 -5.59,0 -18.57,-9.4 -38.93,-28.19 -9.04,-8.43 -14.51,-12.83 -16.39,-13.29 -0.84,-0.13 -1.45,-0.28 -1.89,-0.48 -0.65,-0.16 -1.77,-0.22 -3.41,-0.13 -1.61,0.09 -2.51,0.35 -2.64,0.8zm154.72 1.9c-8.05,13.49 -16.28,23.97 -24.72,31.38 -8.4,7.43 -16.22,11.14 -23.46,11.14 -4.15,0 -8.37,-2.42 -12.68,-7.28 -4.32,-4.82 -6.47,-12.3 -6.47,-22.34 0,-8.23 1.99,-20.37 5.95,-36.39 3.31,-13.39 4.99,-22.78 4.99,-28.19 1.84,-3.76 4.7,-5.66 8.59,-5.66 2.64,0 4.73,0.93 6.3,2.8 1.57,1.83 2.34,3.76 2.34,5.79 0,4.41 -1.54,10.65 -4.59,18.76 -5.87,15.76 -8.79,29.31 -8.79,40.64 0,10.3 2.39,15.45 7.18,15.45 6.08,0 13.87,-5.18 23.27,-15.54 9.43,-10.39 17.51,-24.84 24.22,-43.38 2.64,-7.4 4.8,-12.23 6.47,-14.48 1.68,-2.22 3.93,-3.34 6.76,-3.34 4.25,0 6.41,2.83 6.41,8.49 0,0.68 -0.61,2.99 -1.8,6.89 -3.76,13.77 -5.66,26.76 -5.66,39.04 0,14.7 2.45,24.22 7.28,28.53 2.51,2.36 3.76,4.22 3.76,5.67 0,1.77 -1.26,3.38 -3.83,4.82 -2.54,1.45 -4.83,2.16 -6.92,2.16 -4.41,0 -7.95,-3.28 -10.65,-9.81 -2.71,-6.53 -4.06,-16.19 -4.06,-28.93l0 -3.12c0,-1 0.03,-2.03 0.1,-3.09zm222.11 6.7c-8.79,11.8 -17.51,20.66 -26.1,26.58 -8.62,5.89 -16.51,8.85 -23.69,8.85 -4.82,0 -9.01,-2.03 -12.51,-6.12 -3.54,-4.08 -5.28,-9.33 -5.28,-15.76 0,-16.51 7.37,-34.31 22.14,-53.39 14.77,-19.09 29.45,-28.61 44.02,-28.61 5.28,0 9.2,2.99 11.81,9.04 0.8,2 2.09,3.03 3.86,3.03 5.02,0 7.53,1.93 7.53,5.82 0,1.97 -0.32,4.64 -0.93,8.01 -3.41,18.53 -5.09,31.64 -5.09,39.23 0,15.22 2.86,24.33 8.66,27.35 2.77,1.51 4.16,3.34 4.16,5.53 0,1.97 -1.36,3.93 -4.06,5.93 -2.7,1.97 -5.3,2.96 -7.82,2.96 -4.86,0 -8.84,-3.35 -11.97,-10.01 -3.15,-6.66 -4.72,-16.16 -4.72,-28.45zm-5.73 -53.1c-8.31,0 -17.96,7.78 -28.97,23.33 -11.01,15.57 -16.51,28.48 -16.51,38.71 0,7.21 2.41,10.84 7.18,10.84 6.91,0 16.5,-6.98 28.76,-20.94 12.26,-13.94 18.37,-26.78 18.37,-38.46 0,-8.97 -2.96,-13.48 -8.84,-13.48zm101.58 29.41c8.12,1.32 14.45,4.31 18.96,8.98 4.53,4.64 6.79,10.33 6.79,17.05 0,10.62 -4.51,19.47 -13.48,26.55 -8.99,7.05 -20.79,10.59 -35.44,10.59 -8.75,0 -16.28,-1.86 -22.58,-5.66 -6.31,-3.77 -9.49,-7.95 -9.49,-12.52 0,-3.79 2.18,-5.66 6.53,-5.66 0.61,0 1.58,0.51 2.9,1.61 6.92,5.95 15.12,8.95 24.62,8.95 8.37,0 15.57,-2.18 21.6,-6.59 6.05,-4.41 9.04,-10.14 9.04,-17.16 0,-4.66 -1.71,-8.52 -5.12,-11.64 -3.45,-3.13 -7.41,-4.67 -11.94,-4.67 -3.45,0 -9.53,1.35 -18.18,4.05 -1.71,0.55 -3.55,0.84 -5.47,0.84 -3.8,0 -5.66,-2.54 -5.66,-7.62 0,-1.77 0.9,-3.19 2.67,-4.26 1.8,-1.06 5.66,-2.28 11.55,-3.66 17.92,-4.09 26.87,-11.36 26.87,-21.79 0,-3.15 -1.09,-5.73 -3.34,-7.78 -2.22,-2.03 -5.08,-3.06 -8.62,-3.06 -6.54,0 -13.52,2.9 -20.92,8.69 -4.34,3.38 -7.66,5.09 -9.91,5.09 -3.83,0 -5.76,-1.8 -5.76,-5.38 0,-4.73 4.47,-9.52 13.35,-14.48 8.88,-4.93 17.41,-7.4 25.58,-7.4 8.18,0 14.61,2.19 19.31,6.5 4.66,4.34 7.01,8.92 7.01,13.68 0,11.39 -6.95,20.3 -20.85,26.77zm-266.57 57.99l0 -138.24 16.99 0 0 49.75c7.89,-9.24 17.82,-13.85 29.86,-13.85 7.37,0 13.78,1.45 19.25,4.38 5.44,2.93 9.33,6.95 11.68,12.1 2.35,5.15 3.51,12.64 3.51,22.43l0 63.43 -16.99 0 0 -63.36c0,-8.46 -1.83,-14.64 -5.47,-18.5 -3.68,-3.87 -8.82,-5.8 -15.51,-5.8 -4.99,0 -9.69,1.29 -14.1,3.9 -4.41,2.6 -7.53,6.14 -9.43,10.62 -1.86,4.44 -2.8,10.59 -2.8,18.44l0 54.7 -16.99 0z"/>
  </g>
 </g>
</svg>
