<?xml version="1.0" encoding="UTF-8"?>
<!DOCTYPE svg PUBLIC "-//W3C//DTD SVG 1.1//EN" "http://www.w3.org/Graphics/SVG/1.1/DTD/svg11.dtd">
<!-- Creator: CorelDRAW 2020 -->
<svg xmlns="http://www.w3.org/2000/svg" xml:space="preserve" width="8.642mm" height="8.7495mm" version="1.1" style="shape-rendering:geometricPrecision; text-rendering:geometricPrecision; image-rendering:optimizeQuality; fill-rule:evenodd; clip-rule:evenodd"
viewBox="0 0 1756.94 1778.8"
 xmlns:xlink="http://www.w3.org/1999/xlink"
 xmlns:xodm="http://www.corel.com/coreldraw/odm/2003">
 <defs>
  <style type="text/css">
   <![CDATA[
    .str0 {stroke:#A45E4D;stroke-width:101.65;stroke-miterlimit:22.9256}
    .str1 {stroke:#A45E4D;stroke-width:50.83;stroke-miterlimit:22.9256}
    .fil0 {fill:none}
    .fil2 {fill:#A45E4D}
    .fil1 {fill:#A45E4D;fill-rule:nonzero}
   ]]>
  </style>
 </defs>
 <g id="Layer_x0020_1">
  <metadata id="CorelCorpID_0Corel-Layer"/>
  <line class="fil0 str0" x1="207.47" y1="1163.91" x2="1570.25" y2= "1163.91" />
  <line class="fil0 str0" x1="339.98" y1="689.1" x2="1021.8" y2= "689.1" />
  <line class="fil0 str1" x1="938.75" y1="700.72" x2="967.74" y2= "1127.21" />
  <line class="fil0 str0" x1="1137.13" y1="876.66" x2="1439.2" y2= "876.66" />
  <line class="fil0 str1" x1="1193.41" y1="856.76" x2="1182.37" y2= "1127.21" />
  <line class="fil0 str1" x1="1409.23" y1="856.76" x2="1420.27" y2= "1127.21" />
  <line class="fil0 str0" x1="1420.44" y1="417.24" x2="1409.4" y2= "843.73" />
  <rect class="fil0 str1" x="531.92" y="25.41" width="302.18" height="251.84"/>
  <path class="fil1" d="M257.26 1626.79c-2.42,42.49 -6.49,84.23 -12.2,125.09 -2.81,7.75 -9.98,11.63 -21.49,11.63 -16.67,0 -24.99,-8.54 -24.99,-25.58 0,-6.97 2.03,-20.03 6,-39.12 2.83,-16.65 4.27,-27.89 4.47,-33.89 0.18,-5.9 0.67,-12.48 1.44,-19.56 0.75,-7.05 0.67,-12.69 -0.3,-16.85 -9.58,1.26 -29.32,12.79 -58.96,34.58 -29.72,21.77 -55.2,43.28 -76.3,64.67l0 -0.28c-1.34,0.77 -5.51,7.85 -12.48,21.31 -10.06,20.03 -21.1,30.01 -33.22,30.01 -5.71,0 -11.99,-2.42 -18.89,-7.36 -6.85,-4.94 -10.35,-9.76 -10.35,-14.7 0,-11.73 11.04,-29.26 33.12,-52.39 21.98,-23.16 46.39,-43 73.01,-59.45 32.53,-20.07 54.89,-36.21 67.19,-48.51 -5.43,-7.77 -16.18,-16.18 -32.04,-25.47 -16.08,-9.49 -31,-20.03 -44.83,-31.76 -1.85,-1.55 -4.17,-3.29 -6.79,-5.12 -24.4,-16.47 -40.56,-28.77 -48.59,-37 -8.03,-8.21 -12.12,-17.14 -12.12,-26.53 0,-6.3 2.44,-12.02 7.07,-17.22 4.74,-5.14 9.39,-7.77 13.95,-7.77 2.81,0 7.93,1.46 15.29,4.55 7.36,3.01 12.69,6.22 15.88,9.6l13.93 13.07c49.02,48.02 87.75,78.62 116.31,91.59 1.44,0 3.37,-1.73 5.61,-5.33 1.95,-6.49 2.89,-16.73 2.89,-30.98 0,-13.17 -1.44,-28.08 -4.23,-44.52 -1.57,-8.44 -2.34,-14.05 -2.34,-16.67 0,-8.88 3.48,-16.06 10.37,-21.59 6.97,-5.51 14.41,-8.21 22.55,-8.21 9.31,0 15.59,1.91 18.99,5.71 3.48,3.76 5.12,10.14 5.12,19.25l-3.68 90.14 0 5.71c0,2.6 0.1,4.84 0.28,6.49 6.59,0 13.56,-2.52 20.74,-7.75 7.16,-5.22 17.91,-15.57 32.04,-31.09 62.25,-64.47 98.28,-96.71 108.06,-96.71 5.51,0 10.55,2.32 15,6.77 4.55,4.55 6.89,9.88 6.89,15.88 0,3.09 -10.39,15.88 -31.11,38.44 -20.7,22.65 -42.02,43.36 -64,62.25 -28.18,24.19 -42.21,36.8 -42.21,37.75 0,1.36 11.71,11.14 35.15,29.54 25.35,19.84 42.88,33.89 52.47,42.21 1.36,0.98 3.21,2.24 5.71,3.68 27.97,17.24 45.42,30.13 52.47,38.65 6.97,8.5 10.47,15.67 10.47,21.49 0,5.51 -2.32,11.14 -7.07,16.94 -4.76,5.73 -9.39,8.62 -13.95,8.62 -16.83,0 -55.87,-28.28 -117.14,-84.82 -27.2,-25.37 -43.67,-38.63 -49.3,-39.99 -2.52,-0.39 -4.35,-0.85 -5.69,-1.44 -1.95,-0.49 -5.33,-0.67 -10.27,-0.39 -4.86,0.28 -7.56,1.06 -7.95,2.42zm465.52 5.71c-24.21,40.58 -49,72.13 -74.37,94.41 -25.27,22.34 -48.79,33.48 -70.59,33.48 -12.48,0 -25.17,-7.26 -38.14,-21.88 -12.99,-14.54 -19.46,-37 -19.46,-67.21 0,-24.76 6,-61.28 17.91,-109.5 9.96,-40.27 15,-68.55 15,-84.82 5.53,-11.32 14.15,-17.04 25.86,-17.04 7.93,0 14.23,2.81 18.97,8.42 4.74,5.53 7.05,11.34 7.05,17.44 0,13.26 -4.64,32.04 -13.82,56.46 -17.65,47.41 -26.45,88.19 -26.45,122.27 0,30.98 7.18,46.48 21.59,46.48 18.3,0 41.74,-15.57 70.02,-46.76 28.36,-31.27 52.68,-74.75 72.88,-130.52 7.95,-22.26 14.45,-36.8 19.48,-43.57 5.04,-6.67 11.81,-10.08 20.33,-10.08 12.79,0 19.27,8.54 19.27,25.58 0,2.03 -1.83,9.01 -5.43,20.72 -11.32,41.45 -17.04,80.55 -17.04,117.47 0,44.24 7.36,72.88 21.9,85.85 7.54,7.1 11.32,12.69 11.32,17.06 0,5.33 -3.78,10.17 -11.53,14.52 -7.64,4.35 -14.54,6.49 -20.82,6.49 -13.28,0 -23.93,-9.88 -32.04,-29.52 -8.15,-19.66 -12.22,-48.71 -12.22,-87.05l0 -9.39c0,-3.01 0.1,-6.1 0.3,-9.29zm668.28 20.13c-26.45,35.54 -52.68,62.17 -78.54,79.98 -25.94,17.73 -49.69,26.63 -71.28,26.63 -14.5,0 -27.1,-6.1 -37.65,-18.4 -10.65,-12.28 -15.88,-28.08 -15.88,-47.43 0,-49.69 22.18,-103.22 66.62,-160.63 44.44,-57.43 88.6,-86.08 132.45,-86.08 15.88,0 27.69,9.01 35.54,27.2 2.42,6 6.28,9.11 11.61,9.11 15.11,0 22.65,5.81 22.65,17.52 0,5.9 -0.96,13.95 -2.79,24.09 -10.27,55.77 -15.33,95.19 -15.33,118.04 0,45.8 8.62,73.21 26.06,82.3 8.34,4.55 12.5,10.06 12.5,16.65 0,5.92 -4.09,11.83 -12.22,17.83 -8.13,5.9 -15.96,8.9 -23.52,8.9 -14.62,0 -26.61,-10.08 -36.03,-30.11 -9.47,-20.05 -14.21,-48.63 -14.21,-85.61zm-17.24 -159.74c-25.01,0 -54.04,23.42 -87.16,70.18 -33.12,46.86 -49.67,85.69 -49.67,116.47 0,21.69 7.26,32.63 21.61,32.63 20.8,0 49.65,-21 86.55,-63.02 36.88,-41.92 55.28,-80.55 55.28,-115.7 0,-27.02 -8.9,-40.56 -26.61,-40.56zm305.65 88.48c24.42,3.96 43.49,12.97 57.05,27.02 13.64,13.95 20.43,31.06 20.43,51.31 0,31.96 -13.56,58.59 -40.56,79.88 -27.04,21.2 -62.56,31.86 -106.63,31.86 -26.33,0 -48.98,-5.61 -67.94,-17.04 -18.99,-11.34 -28.56,-23.91 -28.56,-37.67 0,-11.41 6.57,-17.04 19.64,-17.04 1.83,0 4.76,1.55 8.72,4.84 20.82,17.91 45.5,26.92 74.06,26.92 25.17,0 46.86,-6.57 64.98,-19.84 18.2,-13.26 27.2,-30.5 27.2,-51.62 0,-14.03 -5.14,-25.66 -15.39,-35.03 -10.37,-9.41 -22.28,-14.05 -35.92,-14.05 -10.37,0 -28.67,4.07 -54.69,12.2 -5.14,1.65 -10.67,2.52 -16.47,2.52 -11.43,0 -17.04,-7.64 -17.04,-22.95 0,-5.31 2.7,-9.58 8.03,-12.79 5.41,-3.19 17.04,-6.87 34.76,-11.02 53.92,-12.3 80.83,-34.2 80.83,-65.57 0,-9.47 -3.29,-17.24 -10.06,-23.42 -6.67,-6.12 -15.29,-9.21 -25.94,-9.21 -19.68,0 -40.68,8.72 -62.94,26.14 -13.07,10.17 -23.03,15.31 -29.82,15.31 -11.53,0 -17.32,-5.43 -17.32,-16.18 0,-14.23 13.44,-28.65 40.17,-43.57 26.71,-14.82 52.39,-22.26 76.97,-22.26 24.6,0 43.95,6.59 58.1,19.56 14.03,13.07 21.08,26.82 21.08,41.15 0,34.28 -20.9,61.09 -62.74,80.55zm-802.05 174.47l0 -415.94 51.11 0 0 149.69c23.73,-27.81 53.63,-41.66 89.84,-41.66 22.18,0 41.45,4.37 57.92,13.17 16.37,8.82 28.08,20.92 35.13,36.41 7.07,15.49 10.55,38.04 10.55,67.48l0 190.84 -51.11 0 0 -190.64c0,-25.47 -5.51,-44.06 -16.45,-55.66 -11.06,-11.63 -26.53,-17.44 -46.68,-17.44 -15,0 -29.15,3.88 -42.43,11.73 -13.26,7.83 -22.65,18.48 -28.36,31.94 -5.61,13.36 -8.42,31.86 -8.42,55.48l0 164.59 -51.11 0z"/>
  <rect class="fil2 str1" x="531.92" y="854.16" width="302.18" height="254.35"/>
  <rect class="fil2 str1" x="531.92" y="277.25" width="302.18" height="251.84"/>
  <line class="fil0 str1" x1="426.08" y1="700.72" x2="397.11" y2= "1127.21" />
 </g>
</svg>
