<?xml version="1.0" encoding="UTF-8"?>
<!DOCTYPE svg PUBLIC "-//W3C//DTD SVG 1.1//EN" "http://www.w3.org/Graphics/SVG/1.1/DTD/svg11.dtd">
<!-- Creator: CorelDRAW 2020 -->
<svg xmlns="http://www.w3.org/2000/svg" xml:space="preserve" width="11mm" height="10mm" version="1.1" style="shape-rendering:geometricPrecision; text-rendering:geometricPrecision; image-rendering:optimizeQuality; fill-rule:evenodd; clip-rule:evenodd"
viewBox="0 0 743.27 675.7"
 xmlns:xlink="http://www.w3.org/1999/xlink"
 xmlns:xodm="http://www.corel.com/coreldraw/odm/2003">
 <defs>
  <style type="text/css">
   <![CDATA[
    .str0 {stroke:#A75F4A;stroke-width:33.79;stroke-miterlimit:22.9256}
    .str1 {stroke:#A75F4A;stroke-width:16.89;stroke-miterlimit:22.9256}
    .fil0 {fill:none}
    .fil1 {fill:#A75F4A}
    .fil2 {fill:#A75F4A;fill-rule:nonzero}
   ]]>
  </style>
 </defs>
 <g id="Layer_x0020_1">
  <metadata id="CorelCorpID_0Corel-Layer"/>
  <g id="_1033935904">
   <polygon class="fil0" points="-0,0 743.27,0 743.27,675.7 -0,675.7 "/>
   <g>
    <g>
     <line class="fil0 str0" x1="189.53" y1="274.83" x2="416.14" y2= "274.83" />
     <line class="fil0 str1" x1="388.54" y1="278.7" x2="398.18" y2= "420.45" />
     <line class="fil0 str0" x1="454.48" y1="337.17" x2="554.87" y2= "337.17" />
     <line class="fil0 str1" x1="473.18" y1="330.56" x2="469.51" y2= "420.45" />
     <line class="fil0 str1" x1="544.91" y1="330.56" x2="548.58" y2= "420.45" />
     <line class="fil0 str0" x1="548.64" y1="184.48" x2="544.97" y2= "326.23" />
     <polygon class="fil0 str1" points="253.33,54.25 353.76,54.25 353.76,137.95 253.33,137.95 "/>
     <polygon class="fil1 str1" points="253.33,329.69 353.76,329.69 353.76,414.23 253.33,414.23 "/>
     <polygon class="fil1 str1" points="253.33,137.95 353.76,137.95 353.76,221.65 253.33,221.65 "/>
     <line class="fil0 str1" x1="218.15" y1="278.7" x2="208.52" y2= "420.45" />
    </g>
    <path class="fil2" d="M180.72 549.9c-0.72,12.56 -1.92,24.89 -3.61,36.96 -0.82,2.28 -2.95,3.43 -6.34,3.43 -4.93,0 -7.39,-2.52 -7.39,-7.55 0,-2.06 0.6,-5.92 1.78,-11.55 0.83,-4.92 1.26,-8.24 1.32,-10.01 0.05,-1.74 0.2,-3.69 0.43,-5.78 0.23,-2.09 0.2,-3.74 -0.09,-4.98 -2.83,0.37 -8.66,3.78 -17.41,10.22 -8.78,6.43 -16.31,12.78 -22.54,19.1l0 -0.08c-0.4,0.23 -1.64,2.32 -3.7,6.29 -2.97,5.92 -6.23,8.87 -9.81,8.87 -1.68,0 -3.54,-0.71 -5.57,-2.17 -2.03,-1.46 -3.06,-2.89 -3.06,-4.34 0,-3.47 3.26,-8.64 9.78,-15.48 6.49,-6.84 13.7,-12.7 21.57,-17.56 9.61,-5.93 16.22,-10.7 19.85,-14.33 -1.6,-2.29 -4.78,-4.78 -9.47,-7.52 -4.75,-2.8 -9.16,-5.92 -13.24,-9.39 -0.55,-0.45 -1.24,-0.97 -2.01,-1.51 -7.2,-4.87 -11.99,-8.5 -14.36,-10.93 -2.37,-2.43 -3.57,-5.05 -3.57,-7.83 0,-1.86 0.72,-3.55 2.09,-5.09 1.4,-1.52 2.78,-2.29 4.12,-2.29 0.82,0 2.34,0.43 4.52,1.34 2.17,0.89 3.74,1.83 4.68,2.83l4.12 3.86c14.47,14.19 25.92,23.23 34.36,27.06 0.43,0 1,-0.51 1.66,-1.57 0.57,-1.92 0.86,-4.95 0.86,-9.15 0,-3.89 -0.43,-8.3 -1.26,-13.16 -0.46,-2.49 -0.69,-4.15 -0.69,-4.92 0,-2.63 1.03,-4.75 3.06,-6.38 2.06,-1.63 4.26,-2.43 6.67,-2.43 2.74,0 4.6,0.57 5.6,1.68 1.03,1.11 1.51,3 1.51,5.7l-1.09 26.62 0 1.7c0,0.76 0.03,1.43 0.09,1.91 1.95,0 4.01,-0.75 6.13,-2.29 2.11,-1.54 5.29,-4.6 9.46,-9.18 18.4,-19.05 29.03,-28.57 31.93,-28.57 1.63,0 3.11,0.68 4.43,2 1.35,1.34 2.03,2.92 2.03,4.69 0,0.91 -3.06,4.69 -9.18,11.36 -6.12,6.69 -12.42,12.81 -18.91,18.39 -8.32,7.16 -12.47,10.87 -12.47,11.16 0,0.41 3.46,3.3 10.39,8.73 7.49,5.87 12.67,10.01 15.5,12.47 0.4,0.29 0.95,0.66 1.69,1.09 8.26,5.09 13.41,8.9 15.5,11.42 2.06,2.51 3.09,4.63 3.09,6.34 0,1.63 -0.69,3.29 -2.09,5 -1.4,1.7 -2.77,2.55 -4.12,2.55 -4.98,0 -16.51,-8.35 -34.61,-25.05 -8.04,-7.49 -12.91,-11.41 -14.56,-11.81 -0.75,-0.11 -1.29,-0.26 -1.69,-0.43 -0.57,-0.14 -1.57,-0.2 -3.03,-0.11 -1.43,0.08 -2.23,0.31 -2.34,0.71zm137.53 1.69c-7.16,11.99 -14.48,21.31 -21.97,27.89 -7.47,6.6 -14.42,9.89 -20.86,9.89 -3.68,0 -7.44,-2.14 -11.27,-6.46 -3.83,-4.29 -5.74,-10.93 -5.74,-19.86 0,-7.32 1.77,-18.1 5.29,-32.35 2.95,-11.89 4.43,-20.24 4.43,-25.05 1.64,-3.35 4.18,-5.03 7.64,-5.03 2.35,0 4.21,0.82 5.61,2.49 1.4,1.63 2.09,3.34 2.09,5.15 0,3.91 -1.37,9.47 -4.09,16.68 -5.21,14.01 -7.81,26.06 -7.81,36.12 0,9.16 2.12,13.73 6.38,13.73 5.41,0 12.33,-4.6 20.68,-13.81 8.38,-9.24 15.56,-22.08 21.53,-38.56 2.34,-6.57 4.26,-10.87 5.75,-12.87 1.49,-1.97 3.49,-2.97 6.01,-2.97 3.78,0 5.69,2.51 5.69,7.55 0,0.6 -0.54,2.66 -1.59,6.13 -3.35,12.24 -5.03,23.79 -5.03,34.7 0,13.07 2.17,21.53 6.47,25.37 2.22,2.09 3.34,3.74 3.34,5.04 0,1.57 -1.12,3 -3.41,4.28 -2.26,1.28 -4.29,1.92 -6.16,1.92 -3.92,0 -7.06,-2.92 -9.46,-8.72 -2.41,-5.8 -3.61,-14.39 -3.61,-25.72l0 -2.78c0,-0.89 0.03,-1.8 0.09,-2.74zm197.43 5.95c-7.81,10.49 -15.56,18.36 -23.2,23.62 -7.67,5.24 -14.68,7.87 -21.05,7.87 -4.29,0 -8.01,-1.8 -11.13,-5.43 -3.14,-3.63 -4.69,-8.3 -4.69,-14.01 0,-14.68 6.55,-30.49 19.68,-47.45 13.13,-16.96 26.17,-25.43 39.13,-25.43 4.69,0 8.18,2.66 10.5,8.03 0.71,1.78 1.86,2.69 3.43,2.69 4.46,0 6.69,1.72 6.69,5.18 0,1.75 -0.28,4.12 -0.82,7.12 -3.03,16.47 -4.53,28.12 -4.53,34.87 0,13.53 2.55,21.62 7.7,24.31 2.46,1.34 3.7,2.97 3.7,4.92 0,1.74 -1.21,3.49 -3.61,5.26 -2.41,1.74 -4.72,2.64 -6.95,2.64 -4.32,0 -7.87,-2.98 -10.64,-8.9 -2.8,-5.92 -4.2,-14.37 -4.2,-25.28zm-5.09 -47.2c-7.39,0 -15.97,6.92 -25.75,20.74 -9.78,13.84 -14.68,25.31 -14.68,34.41 0,6.41 2.15,9.64 6.39,9.64 6.15,0 14.67,-6.21 25.57,-18.62 10.9,-12.39 16.34,-23.8 16.34,-34.19 0,-7.97 -2.64,-11.98 -7.87,-11.98zm90.3 26.14c7.21,1.17 12.85,3.83 16.85,7.98 4.03,4.12 6.04,9.18 6.04,15.16 0,9.45 -4.01,17.31 -11.99,23.6 -7.98,6.26 -18.48,9.41 -31.49,9.41 -7.78,0 -14.47,-1.66 -20.08,-5.03 -5.61,-3.35 -8.44,-7.07 -8.44,-11.13 0,-3.37 1.94,-5.03 5.8,-5.03 0.54,0 1.4,0.45 2.57,1.43 6.15,5.3 13.44,7.95 21.88,7.95 7.44,0 13.85,-1.94 19.2,-5.86 5.38,-3.92 8.04,-9.01 8.04,-15.25 0,-4.14 -1.52,-7.57 -4.55,-10.35 -3.07,-2.78 -6.59,-4.15 -10.62,-4.15 -3.06,0 -8.47,1.2 -16.16,3.6 -1.51,0.49 -3.15,0.75 -4.87,0.75 -3.37,0 -5.03,-2.26 -5.03,-6.78 0,-1.57 0.8,-2.84 2.37,-3.78 1.6,-0.95 5.03,-2.03 10.27,-3.26 15.93,-3.64 23.88,-10.09 23.88,-19.37 0,-2.8 -0.97,-5.09 -2.97,-6.92 -1.97,-1.81 -4.52,-2.72 -7.66,-2.72 -5.81,0 -12.02,2.57 -18.6,7.72 -3.86,3 -6.8,4.52 -8.81,4.52 -3.41,0 -5.12,-1.6 -5.12,-4.78 0,-4.2 3.97,-8.47 11.87,-12.87 7.89,-4.38 15.47,-6.57 22.74,-6.57 7.26,0 12.98,1.95 17.16,5.78 4.14,3.86 6.23,7.93 6.23,12.16 0,10.12 -6.18,18.05 -18.53,23.8zm-236.95 51.54l0 -122.88 15.1 0 0 44.22c7.01,-8.21 15.85,-12.3 26.54,-12.3 6.55,0 12.24,1.29 17.11,3.89 4.83,2.61 8.29,6.18 10.38,10.76 2.09,4.57 3.11,11.24 3.11,19.93l0 56.38 -15.1 0 0 -56.32c0,-7.52 -1.63,-13.01 -4.86,-16.45 -3.26,-3.43 -7.84,-5.16 -13.79,-5.16 -4.43,0 -8.61,1.15 -12.53,3.47 -3.92,2.32 -6.7,5.46 -8.38,9.44 -1.66,3.95 -2.49,9.41 -2.49,16.39l0 48.62 -15.1 0z"/>
   </g>
  </g>
 </g>
</svg>
