<?xml version="1.0" encoding="UTF-8"?>
<!DOCTYPE svg PUBLIC "-//W3C//DTD SVG 1.1//EN" "http://www.w3.org/Graphics/SVG/1.1/DTD/svg11.dtd">
<!-- Creator: CorelDRAW 2020 -->
<svg xmlns="http://www.w3.org/2000/svg" xml:space="preserve" width="11mm" height="10.3mm" version="1.1" style="shape-rendering:geometricPrecision; text-rendering:geometricPrecision; image-rendering:optimizeQuality; fill-rule:evenodd; clip-rule:evenodd"
viewBox="0 0 743.27 695.97"
 xmlns:xlink="http://www.w3.org/1999/xlink"
 xmlns:xodm="http://www.corel.com/coreldraw/odm/2003">
 <defs>
  <style type="text/css">
   <![CDATA[
    .str1 {stroke:#C6B93A;stroke-width:33.79;stroke-miterlimit:22.9256}
    .str2 {stroke:#C6B93A;stroke-width:16.89;stroke-miterlimit:22.9256}
    .str0 {stroke:#C6B93A;stroke-width:13.51;stroke-miterlimit:22.9256}
    .fil0 {fill:none}
    .fil1 {fill:#C6B93A}
    .fil2 {fill:#C6B93A;fill-rule:nonzero}
   ]]>
  </style>
 </defs>
 <g id="Layer_x0020_1">
  <metadata id="CorelCorpID_0Corel-Layer"/>
  <g id="_2086308312">
   <polygon class="fil0" points="-0,0 743.27,0 743.27,689.21 -0,689.21 "/>
   <line class="fil0 str0" x1="81.08" y1="689.21" x2="662.19" y2= "689.21" />
   <g>
    <line class="fil0 str1" x1="189.53" y1="290.53" x2="416.14" y2= "290.53" />
    <line class="fil0 str2" x1="388.54" y1="294.4" x2="398.18" y2= "436.14" />
    <line class="fil0 str1" x1="454.48" y1="352.87" x2="554.87" y2= "352.87" />
    <line class="fil0 str2" x1="473.18" y1="346.26" x2="469.51" y2= "436.14" />
    <line class="fil0 str2" x1="544.91" y1="346.26" x2="548.58" y2= "436.14" />
    <line class="fil0 str1" x1="548.64" y1="200.18" x2="544.97" y2= "341.92" />
    <polygon class="fil0 str2" points="253.33,69.95 353.76,69.95 353.76,153.65 253.33,153.65 "/>
    <polygon class="fil1" points="254.45,352.24 354.88,352.24 354.88,436.77 254.45,436.77 "/>
    <polygon class="fil1" points="245.36,153.65 362.09,153.65 362.09,237.35 245.36,237.35 "/>
    <line class="fil0 str2" x1="218.15" y1="294.4" x2="208.52" y2= "436.14" />
   </g>
   <path class="fil2" d="M170.05 576.64c-0.8,13.95 -2.13,27.65 -4.01,41.06 -0.92,2.54 -3.27,3.82 -7.05,3.82 -5.47,0 -8.2,-2.8 -8.2,-8.39 0,-2.29 0.67,-6.58 1.97,-12.84 0.92,-5.47 1.4,-9.16 1.46,-11.13 0.07,-1.94 0.22,-4.1 0.48,-6.42 0.25,-2.32 0.22,-4.16 -0.09,-5.53 -3.15,0.41 -9.64,4.2 -19.36,11.35 -9.76,7.15 -18.12,14.2 -25.04,21.23l0 -0.09c-0.45,0.25 -1.81,2.57 -4.1,6.99 -3.3,6.57 -6.93,9.85 -10.9,9.85 -1.88,0 -3.95,-0.8 -6.2,-2.42 -2.26,-1.62 -3.4,-3.21 -3.4,-4.83 0,-3.84 3.62,-9.59 10.87,-17.19 7.21,-7.6 15.22,-14.12 23.96,-19.51 10.68,-6.58 18.02,-11.89 22.06,-15.93 -1.78,-2.54 -5.31,-5.3 -10.52,-8.36 -5.28,-3.11 -10.17,-6.58 -14.72,-10.43 -0.6,-0.51 -1.36,-1.08 -2.22,-1.68 -8.01,-5.41 -13.32,-9.44 -15.96,-12.14 -2.64,-2.7 -3.97,-5.62 -3.97,-8.71 0,-2.06 0.8,-3.94 2.32,-5.66 1.55,-1.68 3.08,-2.54 4.57,-2.54 0.93,0 2.61,0.47 5.02,1.49 2.42,0.99 4.16,2.03 5.22,3.14l4.57 4.29c16.08,15.76 28.8,25.81 38.17,30.07 0.48,0 1.11,-0.57 1.84,-1.75 0.64,-2.13 0.95,-5.49 0.95,-10.17 0,-4.32 -0.47,-9.22 -1.4,-14.62 -0.51,-2.77 -0.76,-4.61 -0.76,-5.47 0,-2.93 1.15,-5.28 3.4,-7.09 2.29,-1.81 4.74,-2.7 7.41,-2.7 3.05,0 5.12,0.64 6.23,1.87 1.15,1.24 1.69,3.34 1.69,6.32l-1.21 29.59 0 1.88c0,0.86 0.03,1.59 0.09,2.13 2.16,0 4.45,-0.82 6.8,-2.54 2.35,-1.72 5.88,-5.12 10.52,-10.2 20.43,-21.17 32.26,-31.75 35.47,-31.75 1.81,0 3.47,0.76 4.93,2.22 1.49,1.49 2.26,3.24 2.26,5.22 0,1.01 -3.4,5.21 -10.2,12.62 -6.8,7.44 -13.79,14.24 -21.01,20.43 -9.25,7.95 -13.86,12.08 -13.86,12.4 0,0.45 3.84,3.66 11.53,9.7 8.33,6.51 14.08,11.12 17.23,13.85 0.45,0.32 1.05,0.74 1.87,1.21 9.19,5.66 14.91,9.89 17.23,12.68 2.28,2.8 3.43,5.15 3.43,7.05 0,1.81 -0.76,3.66 -2.32,5.56 -1.55,1.88 -3.08,2.83 -4.57,2.83 -5.53,0 -18.34,-9.28 -38.45,-27.85 -8.93,-8.32 -14.34,-12.68 -16.18,-13.12 -0.82,-0.13 -1.43,-0.29 -1.87,-0.48 -0.64,-0.16 -1.75,-0.22 -3.37,-0.13 -1.59,0.1 -2.48,0.35 -2.6,0.8zm152.81 1.88c-7.95,13.31 -16.08,23.68 -24.41,30.99 -8.29,7.34 -16.01,10.99 -23.17,10.99 -4.1,0 -8.26,-2.39 -12.52,-7.18 -4.26,-4.77 -6.39,-12.14 -6.39,-22.05 0,-8.14 1.97,-20.12 5.88,-35.95 3.27,-13.22 4.93,-22.5 4.93,-27.85 1.81,-3.72 4.64,-5.59 8.49,-5.59 2.6,0 4.67,0.92 6.23,2.76 1.55,1.81 2.32,3.72 2.32,5.72 0,4.36 -1.53,10.52 -4.55,18.53 -5.78,15.57 -8.68,28.95 -8.68,40.14 0,10.18 2.35,15.26 7.09,15.26 6.01,0 13.7,-5.12 22.98,-15.35 9.31,-10.26 17.29,-24.53 23.93,-42.84 2.6,-7.31 4.74,-12.08 6.39,-14.3 1.66,-2.19 3.88,-3.3 6.68,-3.3 4.2,0 6.32,2.8 6.32,8.39 0,0.67 -0.6,2.95 -1.78,6.8 -3.72,13.6 -5.59,26.45 -5.59,38.56 0,14.52 2.41,23.93 7.18,28.19 2.48,2.32 3.72,4.16 3.72,5.59 0,1.75 -1.24,3.34 -3.78,4.76 -2.51,1.43 -4.76,2.14 -6.83,2.14 -4.35,0 -7.85,-3.24 -10.52,-9.7 -2.67,-6.45 -4,-15.99 -4,-28.58l0 -3.08c0,-0.99 0.03,-2 0.09,-3.05zm82.57 5.84c-14.14,12.18 -23.49,24.44 -28,36.77 -1.75,4.1 -3.53,7.18 -5.3,9.22 -7.41,-0.41 -11.1,-3.88 -11.1,-10.32 0,-9.51 10.58,-23.91 31.75,-43.2l4.48 -4.2c-12.37,-18.56 -18.53,-32.8 -18.53,-42.74 0,-8.8 3.72,-13.22 11.16,-13.22 2.13,0 3.66,0.93 4.61,2.7 0.99,1.81 1.72,5.91 2.29,12.3 0.79,9.85 5.05,20.35 12.74,31.37 17.19,-14.78 28.83,-28 34.83,-39.66 2.07,-3.72 3.62,-6.07 4.74,-7.06 1.14,-1.01 2.64,-1.49 4.48,-1.49 2.22,0 4.32,0.86 6.29,2.61 1.94,1.72 2.93,3.94 2.93,6.61 0,6.2 -15.06,23.2 -45.26,51.02 10.39,13.28 21.42,23.26 33.15,29.91 1.43,0.8 2.8,1.62 4.1,2.51 0.25,0.54 0.38,1.43 0.38,2.6 0,2.67 -0.99,5.05 -2.92,7.16 -1.97,2.13 -4.32,3.18 -7.06,3.18 -8.36,0 -21.61,-12.01 -39.76,-36.04zm133.42 0.76c-8.68,11.66 -17.28,20.41 -25.77,26.25 -8.52,5.82 -16.3,8.74 -23.39,8.74 -4.77,0 -8.9,-2.01 -12.37,-6.04 -3.49,-4.03 -5.21,-9.22 -5.21,-15.57 0,-16.3 7.28,-33.88 21.87,-52.72 14.59,-18.85 29.08,-28.26 43.48,-28.26 5.21,0 9.09,2.96 11.66,8.93 0.79,1.97 2.06,2.99 3.81,2.99 4.96,0 7.44,1.91 7.44,5.75 0,1.94 -0.32,4.58 -0.93,7.92 -3.36,18.3 -5.02,31.24 -5.02,38.74 0,15.03 2.83,24.03 8.55,27.02 2.73,1.49 4.09,3.3 4.09,5.47 0,1.93 -1.33,3.87 -4,5.84 -2.67,1.94 -5.24,2.93 -7.72,2.93 -4.8,0 -8.74,-3.3 -11.82,-9.89 -3.11,-6.58 -4.68,-15.95 -4.68,-28.1zm-5.66 -52.44c-8.2,0 -17.73,7.69 -28.6,23.04 -10.87,15.39 -16.3,28.13 -16.3,38.24 0,7.12 2.39,10.71 7.09,10.71 6.83,0 16.3,-6.9 28.41,-20.69 12.11,-13.76 18.15,-26.45 18.15,-37.98 0,-8.87 -2.93,-13.32 -8.74,-13.32zm100.34 29.05c8.01,1.3 14.27,4.26 18.72,8.87 4.48,4.58 6.7,10.2 6.7,16.85 0,10.49 -4.45,19.23 -13.32,26.22 -8.87,6.96 -20.53,10.45 -34.99,10.45 -8.64,0 -16.08,-1.84 -22.31,-5.59 -6.22,-3.72 -9.37,-7.84 -9.37,-12.36 0,-3.75 2.16,-5.59 6.45,-5.59 0.6,0 1.55,0.51 2.86,1.59 6.83,5.88 14.94,8.84 24.31,8.84 8.26,0 15.39,-2.16 21.33,-6.52 5.97,-4.35 8.93,-10.01 8.93,-16.94 0,-4.61 -1.68,-8.42 -5.05,-11.5 -3.4,-3.09 -7.3,-4.61 -11.79,-4.61 -3.4,0 -9.41,1.33 -17.95,4 -1.69,0.54 -3.5,0.83 -5.41,0.83 -3.75,0 -5.59,-2.51 -5.59,-7.53 0,-1.75 0.89,-3.15 2.64,-4.2 1.78,-1.05 5.59,-2.26 11.41,-3.62 17.7,-4.04 26.54,-11.22 26.54,-21.52 0,-3.11 -1.08,-5.66 -3.3,-7.69 -2.2,-2 -5.03,-3.02 -8.52,-3.02 -6.45,0 -13.35,2.86 -20.66,8.58 -4.29,3.34 -7.57,5.02 -9.79,5.02 -3.78,0 -5.69,-1.78 -5.69,-5.3 0,-4.68 4.42,-9.41 13.19,-14.3 8.77,-4.86 17.2,-7.31 25.26,-7.31 8.07,0 14.43,2.16 19.08,6.42 4.61,4.29 6.93,8.8 6.93,13.51 0,11.25 -6.87,20.05 -20.6,26.44z"/>
  </g>
 </g>
</svg>
