<?xml version="1.0" encoding="UTF-8"?>
<!DOCTYPE svg PUBLIC "-//W3C//DTD SVG 1.1//EN" "http://www.w3.org/Graphics/SVG/1.1/DTD/svg11.dtd">
<!-- Creator: CorelDRAW 2020 -->
<svg xmlns="http://www.w3.org/2000/svg" xml:space="preserve" width="5.4mm" height="2.0017mm" version="1.1" style="shape-rendering:geometricPrecision; text-rendering:geometricPrecision; image-rendering:optimizeQuality; fill-rule:evenodd; clip-rule:evenodd"
viewBox="0 0 216.99 80.44"
 xmlns:xlink="http://www.w3.org/1999/xlink"
 xmlns:xodm="http://www.corel.com/coreldraw/odm/2003">
 <defs>
  <style type="text/css">
   <![CDATA[
    .str0 {stroke:#C6B93A;stroke-width:7.09;stroke-miterlimit:22.9256}
    .fil1 {fill:none}
    .fil0 {fill:#C6B93A;fill-rule:nonzero}
   ]]>
  </style>
 </defs>
 <g id="Layer_x0020_1">
  <metadata id="CorelCorpID_0Corel-Layer"/>
  <g id="_1546082184">
   <path class="fil0" d="M35.98 58.73l-6.12 0 0 -12.51 -1.03 0 -8.07 -13.68c-1.32,-2.24 -2.45,-3.81 -3.42,-4.69 -1.45,-1.36 -3.17,-2.04 -5.17,-2.04l0 20.41 -7.49 0 0 -44.15 7.49 0 0 19.06c2.78,0 4.85,-0.9 6.18,-2.7 0.44,-0.58 1.46,-2.8 3.03,-6.65 1.09,-2.65 1.92,-4.42 2.48,-5.32 1.22,-2.01 2.64,-3.29 4.25,-3.81 1.21,-0.38 3.12,-0.58 5.77,-0.58l1.5 0 0 6.21 -2.08 -0.04c-2.09,-0.03 -3.54,0.51 -4.41,1.62 -0.28,0.37 -0.95,1.93 -2.04,4.69 -1.02,2.61 -1.92,4.42 -2.69,5.44 -1.06,1.37 -2.65,2.56 -4.79,3.56 3.25,0.85 6.41,3.86 9.5,9l4.54 7.54 2.58 0 0 18.63zm177.96 0l-6.12 0 0 -12.51 -1.03 0 -8.07 -13.68c-1.32,-2.24 -2.45,-3.81 -3.42,-4.69 -1.45,-1.36 -3.17,-2.04 -5.17,-2.04l0 20.41 -7.49 0 0 -44.15 7.49 0 0 19.06c2.78,0 4.85,-0.9 6.18,-2.7 0.44,-0.58 1.46,-2.8 3.03,-6.65 1.09,-2.65 1.92,-4.42 2.48,-5.32 1.22,-2.01 2.64,-3.29 4.25,-3.81 1.21,-0.38 3.12,-0.58 5.77,-0.58l1.5 0 0 6.21 -2.08 -0.04c-2.09,-0.03 -3.54,0.51 -4.41,1.62 -0.28,0.37 -0.95,1.93 -2.04,4.69 -1.02,2.61 -1.92,4.42 -2.69,5.44 -1.06,1.37 -2.65,2.56 -4.79,3.56 3.25,0.85 6.41,3.86 9.5,9l4.54 7.54 2.58 0 0 18.63zm-144.06 -27.62c-3.87,5.2 -7.71,9.1 -11.5,11.71 -3.8,2.6 -7.27,3.9 -10.44,3.9 -2.13,0 -3.97,-0.89 -5.51,-2.69 -1.56,-1.8 -2.33,-4.11 -2.33,-6.94 0,-7.27 3.25,-15.11 9.75,-23.52 6.51,-8.41 12.97,-12.6 19.4,-12.6 2.32,0 4.05,1.32 5.2,3.98 0.35,0.88 0.92,1.33 1.7,1.33 2.21,0 3.32,0.85 3.32,2.56 0,0.86 -0.14,2.04 -0.41,3.53 -1.5,8.17 -2.24,13.93 -2.24,17.28 0,6.71 1.26,10.72 3.81,12.05 1.22,0.66 1.83,1.47 1.83,2.44 0,0.87 -0.6,1.73 -1.79,2.61 -1.19,0.86 -2.34,1.3 -3.44,1.3 -2.14,0 -3.9,-1.47 -5.28,-4.41 -1.39,-2.93 -2.08,-7.12 -2.08,-12.53zm-2.52 -23.39c-3.66,0 -7.91,3.43 -12.76,10.28 -4.85,6.86 -7.27,12.55 -7.27,17.05 0,3.17 1.06,4.78 3.16,4.78 3.05,0 7.27,-3.08 12.67,-9.23 5.4,-6.14 8.09,-11.79 8.09,-16.94 0,-3.96 -1.31,-5.94 -3.9,-5.94zm44.76 12.96c3.57,0.58 6.37,1.9 8.35,3.95 2,2.04 2.99,4.55 2.99,7.51 0,4.68 -1.99,8.58 -5.94,11.69 -3.95,3.11 -9.16,4.67 -15.61,4.67 -3.86,0 -7.17,-0.82 -9.95,-2.5 -2.78,-1.66 -4.18,-3.5 -4.18,-5.51 0,-1.68 0.96,-2.5 2.88,-2.5 0.27,0 0.69,0.23 1.27,0.71 3.05,2.62 6.66,3.94 10.85,3.94 3.68,0 6.86,-0.96 9.51,-2.91 2.66,-1.94 3.98,-4.46 3.98,-7.56 0,-2.05 -0.75,-3.75 -2.25,-5.13 -1.51,-1.37 -3.26,-2.05 -5.26,-2.05 -1.52,0 -4.2,0.59 -8.01,1.78 -0.75,0.24 -1.56,0.37 -2.41,0.37 -1.68,0 -2.5,-1.12 -2.5,-3.36 0,-0.78 0.4,-1.4 1.18,-1.87 0.79,-0.47 2.49,-1 5.09,-1.62 7.9,-1.8 11.84,-5 11.84,-9.6 0,-1.39 -0.48,-2.52 -1.47,-3.43 -0.98,-0.89 -2.24,-1.35 -3.8,-1.35 -2.88,0 -5.95,1.27 -9.21,3.83 -1.91,1.49 -3.37,2.24 -4.36,2.24 -1.69,0 -2.54,-0.8 -2.54,-2.37 0,-2.09 1.97,-4.2 5.88,-6.38 3.91,-2.17 7.67,-3.26 11.27,-3.26 3.6,0 6.44,0.96 8.51,2.86 2.05,1.92 3.09,3.93 3.09,6.03 0,5.02 -3.06,8.94 -9.19,11.79zm48.59 10.43c-3.87,5.2 -7.71,9.1 -11.5,11.71 -3.8,2.6 -7.27,3.9 -10.44,3.9 -2.13,0 -3.97,-0.89 -5.51,-2.69 -1.56,-1.8 -2.33,-4.11 -2.33,-6.94 0,-7.27 3.25,-15.11 9.75,-23.52 6.51,-8.41 12.97,-12.6 19.4,-12.6 2.32,0 4.05,1.32 5.2,3.98 0.35,0.88 0.92,1.33 1.7,1.33 2.21,0 3.32,0.85 3.32,2.56 0,0.86 -0.14,2.04 -0.41,3.53 -1.5,8.17 -2.24,13.93 -2.24,17.28 0,6.71 1.26,10.72 3.81,12.05 1.22,0.66 1.83,1.47 1.83,2.44 0,0.87 -0.6,1.73 -1.79,2.61 -1.19,0.86 -2.34,1.3 -3.44,1.3 -2.14,0 -3.9,-1.47 -5.28,-4.41 -1.39,-2.93 -2.08,-7.12 -2.08,-12.53zm-2.52 -23.39c-3.66,0 -7.91,3.43 -12.76,10.28 -4.85,6.86 -7.27,12.55 -7.27,17.05 0,3.17 1.06,4.78 3.16,4.78 3.05,0 7.27,-3.08 12.67,-9.23 5.4,-6.14 8.09,-11.79 8.09,-16.94 0,-3.96 -1.31,-5.94 -3.9,-5.94z"/>
   <line class="fil1 str0" x1="-0" y1="76.89" x2="216.99" y2= "76.89" />
  </g>
 </g>
</svg>
