<?xml version="1.0" encoding="UTF-8"?>
<!DOCTYPE svg PUBLIC "-//W3C//DTD SVG 1.1//EN" "http://www.w3.org/Graphics/SVG/1.1/DTD/svg11.dtd">
<!-- Creator: CorelDRAW 2020 -->
<svg xmlns="http://www.w3.org/2000/svg" xml:space="preserve" width="8.4mm" height="3.8mm" version="1.1" style="shape-rendering:geometricPrecision; text-rendering:geometricPrecision; image-rendering:optimizeQuality; fill-rule:evenodd; clip-rule:evenodd"
viewBox="0 0 29.41 13.3"
 xmlns:xlink="http://www.w3.org/1999/xlink"
 xmlns:xodm="http://www.corel.com/coreldraw/odm/2003">
 <defs>
  <style type="text/css">
   <![CDATA[
    .fil0 {fill:none}
    .fil1 {fill:#6B470F;fill-rule:nonzero}
   ]]>
  </style>
 </defs>
 <g id="Layer_x0020_1">
  <metadata id="CorelCorpID_0Corel-Layer"/>
  <polygon class="fil0" points="-0,0 29.41,0 29.41,13.3 -0,13.3 "/>
 </g>
 <g id="Layer_x0020_1_0">
  <metadata id="CorelCorpID_1Corel-Layer"/>
  <g id="_1547599552">
   <path class="fil1" d="M7.04 9.72l-0.64 0 0 -1.31 -0.11 0 -0.84 -1.43c-0.14,-0.23 -0.26,-0.4 -0.36,-0.49 -0.15,-0.14 -0.33,-0.21 -0.54,-0.21l0 2.13 -0.78 0 0 -4.61 0.78 0 0 1.99c0.29,0 0.51,-0.09 0.65,-0.28 0.05,-0.06 0.15,-0.29 0.32,-0.69 0.11,-0.28 0.2,-0.46 0.26,-0.56 0.13,-0.21 0.28,-0.34 0.44,-0.4 0.12,-0.04 0.33,-0.06 0.6,-0.06l0.16 0 0 0.65 -0.22 -0c-0.22,-0 -0.37,0.05 -0.46,0.17 -0.03,0.04 -0.1,0.2 -0.21,0.49 -0.11,0.27 -0.2,0.46 -0.28,0.57 -0.11,0.14 -0.28,0.27 -0.5,0.37 0.34,0.09 0.67,0.4 0.99,0.94l0.47 0.79 0.27 0 0 1.95 -0 -0zm18.6 0l-0.64 0 0 -1.31 -0.11 0 -0.84 -1.43c-0.14,-0.23 -0.26,-0.4 -0.36,-0.49 -0.15,-0.14 -0.33,-0.21 -0.54,-0.21l0 2.13 -0.78 0 0 -4.61 0.78 0 0 1.99c0.29,0 0.51,-0.09 0.64,-0.28 0.05,-0.06 0.15,-0.29 0.32,-0.69 0.11,-0.28 0.2,-0.46 0.26,-0.56 0.13,-0.21 0.28,-0.34 0.44,-0.4 0.12,-0.04 0.33,-0.06 0.6,-0.06l0.16 0 0 0.65 -0.22 -0c-0.22,-0 -0.37,0.05 -0.46,0.17 -0.03,0.04 -0.1,0.2 -0.21,0.49 -0.11,0.27 -0.2,0.46 -0.28,0.57 -0.11,0.14 -0.28,0.27 -0.5,0.37 0.34,0.09 0.67,0.4 0.99,0.94l0.47 0.79 0.27 0 0 1.95 0 -0zm-15.06 -2.89c-0.4,0.54 -0.81,0.95 -1.2,1.22 -0.4,0.27 -0.76,0.41 -1.09,0.41 -0.22,0 -0.41,-0.09 -0.58,-0.28 -0.16,-0.19 -0.24,-0.43 -0.24,-0.73 0,-0.76 0.34,-1.58 1.02,-2.46 0.68,-0.88 1.36,-1.32 2.03,-1.32 0.24,0 0.42,0.14 0.54,0.42 0.04,0.09 0.1,0.14 0.18,0.14 0.23,0 0.35,0.09 0.35,0.27 0,0.09 -0.02,0.21 -0.04,0.37 -0.16,0.85 -0.23,1.46 -0.23,1.81 0,0.7 0.13,1.12 0.4,1.26 0.13,0.07 0.19,0.15 0.19,0.25 0,0.09 -0.06,0.18 -0.19,0.27 -0.12,0.09 -0.24,0.14 -0.36,0.14 -0.22,0 -0.41,-0.15 -0.55,-0.46 -0.14,-0.31 -0.22,-0.75 -0.22,-1.31l0 0zm-0.26 -2.45c-0.38,0 -0.83,0.36 -1.33,1.07 -0.51,0.72 -0.76,1.31 -0.76,1.78 0,0.33 0.11,0.5 0.33,0.5 0.32,0 0.76,-0.32 1.32,-0.96 0.56,-0.64 0.85,-1.23 0.85,-1.77 0,-0.41 -0.14,-0.62 -0.41,-0.62l0 0zm4.68 1.36c0.37,0.06 0.67,0.2 0.87,0.41 0.21,0.21 0.31,0.48 0.31,0.79 0,0.49 -0.21,0.9 -0.62,1.22 -0.41,0.33 -0.96,0.49 -1.63,0.49 -0.4,0 -0.75,-0.09 -1.04,-0.26 -0.29,-0.17 -0.44,-0.37 -0.44,-0.58 0,-0.18 0.1,-0.26 0.3,-0.26 0.03,0 0.07,0.02 0.13,0.07 0.32,0.28 0.7,0.41 1.13,0.41 0.39,0 0.72,-0.1 0.99,-0.3 0.28,-0.2 0.42,-0.47 0.42,-0.79 0,-0.21 -0.08,-0.39 -0.23,-0.54 -0.16,-0.14 -0.34,-0.21 -0.55,-0.21 -0.16,0 -0.44,0.06 -0.84,0.19 -0.08,0.02 -0.16,0.04 -0.25,0.04 -0.18,0 -0.26,-0.12 -0.26,-0.35 0,-0.08 0.04,-0.15 0.12,-0.2 0.08,-0.05 0.26,-0.11 0.53,-0.17 0.83,-0.19 1.24,-0.52 1.24,-1 0,-0.14 -0.05,-0.26 -0.15,-0.36 -0.1,-0.09 -0.23,-0.14 -0.4,-0.14 -0.3,0 -0.62,0.13 -0.96,0.4 -0.2,0.16 -0.35,0.23 -0.46,0.23 -0.18,0 -0.27,-0.08 -0.27,-0.25 0,-0.22 0.21,-0.44 0.61,-0.67 0.41,-0.23 0.8,-0.34 1.18,-0.34 0.38,0 0.67,0.1 0.89,0.3 0.21,0.2 0.32,0.41 0.32,0.63 0,0.53 -0.32,0.94 -0.96,1.23l-0 0zm5.08 1.09c-0.4,0.54 -0.81,0.95 -1.2,1.22 -0.4,0.27 -0.76,0.41 -1.09,0.41 -0.22,0 -0.42,-0.09 -0.58,-0.28 -0.16,-0.19 -0.24,-0.43 -0.24,-0.73 0,-0.76 0.34,-1.58 1.02,-2.46 0.68,-0.88 1.36,-1.32 2.03,-1.32 0.24,0 0.42,0.14 0.54,0.42 0.04,0.09 0.1,0.14 0.18,0.14 0.23,0 0.35,0.09 0.35,0.27 0,0.09 -0.02,0.21 -0.04,0.37 -0.16,0.85 -0.23,1.46 -0.23,1.81 0,0.7 0.13,1.12 0.4,1.26 0.13,0.07 0.19,0.15 0.19,0.25 0,0.09 -0.06,0.18 -0.19,0.27 -0.12,0.09 -0.24,0.14 -0.36,0.14 -0.22,0 -0.41,-0.15 -0.55,-0.46 -0.14,-0.31 -0.22,-0.75 -0.22,-1.31l-0 0zm-0.26 -2.45c-0.38,0 -0.83,0.36 -1.33,1.07 -0.51,0.72 -0.76,1.31 -0.76,1.78 0,0.33 0.11,0.5 0.33,0.5 0.32,0 0.76,-0.32 1.32,-0.96 0.56,-0.64 0.85,-1.23 0.85,-1.77 0,-0.41 -0.14,-0.62 -0.41,-0.62l0 0z"/>
  </g>
 </g>
</svg>
