<?xml version="1.0" encoding="UTF-8"?>
<!DOCTYPE svg PUBLIC "-//W3C//DTD SVG 1.1//EN" "http://www.w3.org/Graphics/SVG/1.1/DTD/svg11.dtd">
<!-- Creator: CorelDRAW 2020 -->
<svg xmlns="http://www.w3.org/2000/svg" xml:space="preserve" width="6.249mm" height="1.7539mm" version="1.1" style="shape-rendering:geometricPrecision; text-rendering:geometricPrecision; image-rendering:optimizeQuality; fill-rule:evenodd; clip-rule:evenodd"
viewBox="0 0 110.44 31"
 xmlns:xlink="http://www.w3.org/1999/xlink"
 xmlns:xodm="http://www.corel.com/coreldraw/odm/2003">
 <defs>
  <style type="text/css">
   <![CDATA[
    .fil0 {fill:#6B470F;fill-rule:nonzero}
   ]]>
  </style>
 </defs>
 <g id="Layer_x0020_1">
  <metadata id="CorelCorpID_0Corel-Layer"/>
  <g id="_1451608464">
   <path class="fil0" d="M16.52 31l-3.23 0 0 -6.6 -0.55 0 -4.26 -7.22c-0.7,-1.18 -1.29,-2.01 -1.8,-2.48 -0.76,-0.72 -1.68,-1.08 -2.73,-1.08l0 10.77 -3.95 0 0 -23.3 3.95 0 0 10.06c1.47,0 2.56,-0.47 3.26,-1.42 0.23,-0.31 0.77,-1.48 1.6,-3.51 0.57,-1.4 1.02,-2.33 1.31,-2.8 0.64,-1.06 1.39,-1.74 2.24,-2.01 0.64,-0.2 1.65,-0.31 3.05,-0.31l0.79 0 0 3.28 -1.1 -0.02c-1.1,-0.01 -1.87,0.27 -2.33,0.85 -0.15,0.2 -0.5,1.02 -1.08,2.48 -0.54,1.38 -1.02,2.33 -1.42,2.87 -0.56,0.72 -1.4,1.35 -2.53,1.88 1.71,0.45 3.38,2.04 5.01,4.75l2.39 3.98 1.36 0 0 9.83zm93.92 0l-3.23 0 0 -6.6 -0.54 0 -4.26 -7.22c-0.7,-1.18 -1.29,-2.01 -1.8,-2.48 -0.76,-0.72 -1.68,-1.08 -2.73,-1.08l0 10.77 -3.95 0 0 -23.3 3.95 0 0 10.06c1.47,0 2.56,-0.47 3.26,-1.42 0.23,-0.31 0.77,-1.48 1.6,-3.51 0.57,-1.4 1.02,-2.33 1.31,-2.8 0.64,-1.06 1.39,-1.74 2.24,-2.01 0.64,-0.2 1.65,-0.31 3.05,-0.31l0.79 0 0 3.28 -1.1 -0.02c-1.1,-0.01 -1.87,0.27 -2.33,0.85 -0.15,0.2 -0.5,1.02 -1.08,2.48 -0.54,1.38 -1.01,2.33 -1.42,2.87 -0.56,0.72 -1.4,1.35 -2.53,1.88 1.71,0.45 3.38,2.04 5.01,4.75l2.39 3.98 1.36 0 0 9.83zm-76.03 -14.58c-2.04,2.75 -4.07,4.8 -6.07,6.18 -2.01,1.37 -3.84,2.06 -5.51,2.06 -1.12,0 -2.09,-0.47 -2.91,-1.42 -0.82,-0.95 -1.23,-2.17 -1.23,-3.67 0,-3.84 1.71,-7.98 5.15,-12.41 3.44,-4.44 6.85,-6.65 10.24,-6.65 1.22,0 2.14,0.7 2.74,2.1 0.19,0.46 0.49,0.7 0.9,0.7 1.17,0 1.75,0.45 1.75,1.35 0,0.46 -0.07,1.08 -0.22,1.86 -0.79,4.31 -1.18,7.35 -1.18,9.12 0,3.54 0.67,5.66 2.01,6.36 0.65,0.35 0.97,0.78 0.97,1.28 0,0.46 -0.31,0.91 -0.94,1.38 -0.63,0.46 -1.23,0.69 -1.82,0.69 -1.13,0 -2.06,-0.78 -2.79,-2.33 -0.73,-1.55 -1.1,-3.76 -1.1,-6.62zm-1.33 -12.35c-1.93,0 -4.18,1.81 -6.73,5.42 -2.56,3.62 -3.84,6.62 -3.84,9 0,1.68 0.56,2.52 1.67,2.52 1.61,0 3.84,-1.62 6.69,-4.87 2.85,-3.24 4.27,-6.22 4.27,-8.94 0,-2.09 -0.69,-3.14 -2.06,-3.14zm23.62 6.84c1.89,0.3 3.36,1 4.41,2.09 1.06,1.08 1.58,2.4 1.58,3.97 0,2.47 -1.05,4.53 -3.13,6.17 -2.09,1.64 -4.83,2.46 -8.24,2.46 -2.04,0 -3.79,-0.43 -5.25,-1.32 -1.47,-0.87 -2.21,-1.85 -2.21,-2.91 0,-0.88 0.51,-1.32 1.52,-1.32 0.14,0 0.36,0.12 0.67,0.37 1.61,1.39 3.52,2.08 5.72,2.08 1.94,0 3.62,-0.51 5.02,-1.53 1.41,-1.03 2.1,-2.36 2.1,-3.99 0,-1.08 -0.4,-1.98 -1.19,-2.71 -0.8,-0.72 -1.72,-1.08 -2.77,-1.08 -0.8,0 -2.22,0.31 -4.23,0.94 -0.4,0.13 -0.82,0.19 -1.27,0.19 -0.88,0 -1.32,-0.59 -1.32,-1.77 0,-0.41 0.21,-0.74 0.62,-0.99 0.42,-0.25 1.31,-0.53 2.69,-0.85 4.17,-0.95 6.25,-2.64 6.25,-5.06 0,-0.73 -0.25,-1.33 -0.78,-1.81 -0.52,-0.47 -1.18,-0.71 -2.01,-0.71 -1.52,0 -3.14,0.67 -4.86,2.02 -1.01,0.79 -1.78,1.18 -2.3,1.18 -0.89,0 -1.34,-0.42 -1.34,-1.25 0,-1.1 1.04,-2.22 3.11,-3.37 2.07,-1.15 4.05,-1.72 5.95,-1.72 1.9,0 3.4,0.51 4.49,1.51 1.08,1.01 1.63,2.07 1.63,3.18 0,2.65 -1.62,4.72 -4.85,6.22zm25.65 5.51c-2.04,2.75 -4.07,4.8 -6.07,6.18 -2.01,1.37 -3.84,2.06 -5.51,2.06 -1.12,0 -2.1,-0.47 -2.91,-1.42 -0.82,-0.95 -1.23,-2.17 -1.23,-3.67 0,-3.84 1.71,-7.98 5.15,-12.41 3.44,-4.44 6.85,-6.65 10.24,-6.65 1.23,0 2.14,0.7 2.74,2.1 0.19,0.46 0.49,0.7 0.9,0.7 1.17,0 1.75,0.45 1.75,1.35 0,0.46 -0.07,1.08 -0.22,1.86 -0.79,4.31 -1.18,7.35 -1.18,9.12 0,3.54 0.67,5.66 2.01,6.36 0.65,0.35 0.97,0.78 0.97,1.28 0,0.46 -0.32,0.91 -0.94,1.38 -0.63,0.46 -1.23,0.69 -1.82,0.69 -1.13,0 -2.06,-0.78 -2.79,-2.33 -0.73,-1.55 -1.1,-3.76 -1.1,-6.62zm-1.33 -12.35c-1.93,0 -4.18,1.81 -6.73,5.42 -2.56,3.62 -3.84,6.62 -3.84,9 0,1.68 0.56,2.52 1.67,2.52 1.61,0 3.84,-1.62 6.69,-4.87 2.85,-3.24 4.27,-6.22 4.27,-8.94 0,-2.09 -0.69,-3.14 -2.06,-3.14z"/>
  </g>
 </g>
</svg>
