<?xml version="1.0" encoding="UTF-8"?>
<!DOCTYPE svg PUBLIC "-//W3C//DTD SVG 1.1//EN" "http://www.w3.org/Graphics/SVG/1.1/DTD/svg11.dtd">
<!-- Creator: CorelDRAW 2020 -->
<svg xmlns="http://www.w3.org/2000/svg" xml:space="preserve" width="5.7283mm" height="1.6078mm" version="1.1" style="shape-rendering:geometricPrecision; text-rendering:geometricPrecision; image-rendering:optimizeQuality; fill-rule:evenodd; clip-rule:evenodd"
viewBox="0 0 106.54 29.9"
 xmlns:xlink="http://www.w3.org/1999/xlink"
 xmlns:xodm="http://www.corel.com/coreldraw/odm/2003">
 <defs>
  <style type="text/css">
   <![CDATA[
    .fil0 {fill:#6B470F;fill-rule:nonzero}
   ]]>
  </style>
 </defs>
 <g id="Layer_x0020_1">
  <metadata id="CorelCorpID_0Corel-Layer"/>
  <g id="_1547551592">
   <path class="fil0" d="M15.94 29.9l-3.12 0 0 -6.37 -0.53 0 -4.11 -6.97c-0.67,-1.14 -1.25,-1.94 -1.74,-2.39 -0.74,-0.69 -1.62,-1.04 -2.63,-1.04l0 10.39 -3.81 0 0 -22.48 3.81 0 0 9.7c1.41,0 2.47,-0.46 3.15,-1.37 0.22,-0.29 0.74,-1.43 1.55,-3.38 0.55,-1.35 0.98,-2.25 1.26,-2.71 0.62,-1.02 1.34,-1.68 2.16,-1.94 0.61,-0.19 1.59,-0.3 2.94,-0.3l0.76 0 0 3.16 -1.06 -0.02c-1.06,-0.01 -1.81,0.26 -2.25,0.82 -0.14,0.19 -0.48,0.98 -1.04,2.39 -0.52,1.33 -0.98,2.25 -1.37,2.77 -0.54,0.7 -1.35,1.31 -2.44,1.81 1.65,0.44 3.26,1.96 4.83,4.58l2.31 3.84 1.31 0 0 9.49zm90.6 0l-3.12 0 0 -6.37 -0.53 0 -4.11 -6.97c-0.67,-1.14 -1.25,-1.94 -1.74,-2.39 -0.74,-0.69 -1.62,-1.04 -2.63,-1.04l0 10.39 -3.81 0 0 -22.48 3.81 0 0 9.7c1.41,0 2.47,-0.46 3.15,-1.37 0.22,-0.29 0.74,-1.43 1.55,-3.38 0.55,-1.35 0.98,-2.25 1.26,-2.71 0.62,-1.02 1.34,-1.68 2.16,-1.94 0.61,-0.19 1.59,-0.3 2.94,-0.3l0.76 0 0 3.16 -1.06 -0.02c-1.06,-0.01 -1.8,0.26 -2.24,0.82 -0.14,0.19 -0.48,0.98 -1.04,2.39 -0.52,1.33 -0.98,2.25 -1.37,2.77 -0.54,0.7 -1.35,1.31 -2.44,1.81 1.65,0.44 3.26,1.96 4.83,4.58l2.31 3.84 1.31 0 0 9.49zm-73.34 -14.06c-1.97,2.65 -3.93,4.63 -5.85,5.96 -1.94,1.32 -3.7,1.98 -5.31,1.98 -1.08,0 -2.02,-0.45 -2.81,-1.37 -0.79,-0.92 -1.18,-2.09 -1.18,-3.54 0,-3.7 1.65,-7.69 4.97,-11.97 3.31,-4.28 6.6,-6.42 9.87,-6.42 1.18,0 2.06,0.67 2.65,2.03 0.18,0.45 0.47,0.68 0.87,0.68 1.13,0 1.69,0.43 1.69,1.31 0,0.44 -0.07,1.04 -0.21,1.8 -0.76,4.16 -1.14,7.09 -1.14,8.8 0,3.41 0.64,5.46 1.94,6.14 0.62,0.34 0.93,0.75 0.93,1.24 0,0.44 -0.31,0.88 -0.91,1.33 -0.61,0.44 -1.19,0.66 -1.75,0.66 -1.09,0 -1.98,-0.75 -2.69,-2.24 -0.71,-1.49 -1.06,-3.62 -1.06,-6.38zm-1.29 -11.91c-1.86,0 -4.03,1.75 -6.49,5.23 -2.47,3.49 -3.7,6.39 -3.7,8.68 0,1.62 0.54,2.43 1.61,2.43 1.55,0 3.7,-1.57 6.45,-4.7 2.75,-3.12 4.12,-6.01 4.12,-8.62 0,-2.01 -0.66,-3.03 -1.98,-3.03zm22.79 6.6c1.82,0.29 3.24,0.97 4.25,2.01 1.02,1.04 1.52,2.32 1.52,3.83 0,2.38 -1.01,4.37 -3.02,5.95 -2.01,1.58 -4.66,2.38 -7.95,2.38 -1.96,0 -3.65,-0.42 -5.07,-1.27 -1.41,-0.84 -2.13,-1.78 -2.13,-2.81 0,-0.85 0.49,-1.27 1.47,-1.27 0.14,0 0.35,0.11 0.65,0.36 1.55,1.34 3.39,2.01 5.52,2.01 1.88,0 3.49,-0.49 4.84,-1.48 1.36,-0.99 2.03,-2.27 2.03,-3.85 0,-1.05 -0.38,-1.91 -1.15,-2.61 -0.77,-0.7 -1.66,-1.05 -2.68,-1.05 -0.77,0 -2.14,0.3 -4.08,0.91 -0.38,0.12 -0.79,0.19 -1.23,0.19 -0.85,0 -1.27,-0.57 -1.27,-1.71 0,-0.4 0.2,-0.71 0.6,-0.95 0.4,-0.24 1.27,-0.51 2.59,-0.82 4.02,-0.92 6.03,-2.55 6.03,-4.89 0,-0.71 -0.25,-1.29 -0.75,-1.75 -0.5,-0.45 -1.14,-0.68 -1.94,-0.68 -1.47,0 -3.03,0.65 -4.69,1.95 -0.97,0.76 -1.72,1.14 -2.22,1.14 -0.86,0 -1.29,-0.41 -1.29,-1.21 0,-1.06 1,-2.14 2.99,-3.25 1.99,-1.1 3.91,-1.66 5.74,-1.66 1.83,0 3.28,0.49 4.33,1.46 1.05,0.98 1.57,2 1.57,3.07 0,2.56 -1.56,4.55 -4.68,6.01zm24.74 5.31c-1.97,2.65 -3.93,4.63 -5.85,5.96 -1.93,1.32 -3.7,1.98 -5.31,1.98 -1.08,0 -2.02,-0.45 -2.81,-1.37 -0.79,-0.92 -1.18,-2.09 -1.18,-3.54 0,-3.7 1.65,-7.69 4.97,-11.97 3.31,-4.28 6.6,-6.42 9.88,-6.42 1.18,0 2.06,0.67 2.65,2.03 0.18,0.45 0.47,0.68 0.87,0.68 1.13,0 1.69,0.43 1.69,1.31 0,0.44 -0.07,1.04 -0.21,1.8 -0.77,4.16 -1.14,7.09 -1.14,8.8 0,3.41 0.64,5.46 1.94,6.14 0.62,0.34 0.93,0.75 0.93,1.24 0,0.44 -0.31,0.88 -0.91,1.33 -0.61,0.44 -1.19,0.66 -1.75,0.66 -1.09,0 -1.98,-0.75 -2.69,-2.24 -0.7,-1.49 -1.06,-3.62 -1.06,-6.38zm-1.29 -11.91c-1.86,0 -4.03,1.75 -6.49,5.23 -2.47,3.49 -3.7,6.39 -3.7,8.68 0,1.62 0.54,2.43 1.61,2.43 1.55,0 3.7,-1.57 6.45,-4.7 2.75,-3.12 4.12,-6.01 4.12,-8.62 0,-2.01 -0.66,-3.03 -1.98,-3.03z"/>
  </g>
 </g>
</svg>
