<?xml version="1.0" encoding="UTF-8"?>
<!DOCTYPE svg PUBLIC "-//W3C//DTD SVG 1.1//EN" "http://www.w3.org/Graphics/SVG/1.1/DTD/svg11.dtd">
<!-- Creator: CorelDRAW 2020 -->
<svg xmlns="http://www.w3.org/2000/svg" xml:space="preserve" width="6.48mm" height="2.3844mm" version="1.1" style="shape-rendering:geometricPrecision; text-rendering:geometricPrecision; image-rendering:optimizeQuality; fill-rule:evenodd; clip-rule:evenodd"
viewBox="0 0 117.83 43.36"
 xmlns:xlink="http://www.w3.org/1999/xlink"
 xmlns:xodm="http://www.corel.com/coreldraw/odm/2003">
 <defs>
  <style type="text/css">
   <![CDATA[
    .str0 {stroke:#C6B93A;stroke-width:3.21;stroke-miterlimit:22.9256}
    .fil1 {fill:none}
    .fil0 {fill:#C6B93A;fill-rule:nonzero}
   ]]>
  </style>
 </defs>
 <g id="Layer_x0020_1">
  <metadata id="CorelCorpID_0Corel-Layer"/>
  <g id="_1547599552">
   <path class="fil0" d="M19.54 31.89l-3.33 0 0 -6.79 -0.56 0 -4.38 -7.43c-0.72,-1.22 -1.33,-2.07 -1.85,-2.55 -0.79,-0.74 -1.72,-1.11 -2.81,-1.11l0 11.08 -4.06 0 0 -23.97 4.06 0 0 10.35c1.51,0 2.63,-0.49 3.36,-1.46 0.24,-0.31 0.79,-1.52 1.65,-3.61 0.59,-1.44 1.05,-2.4 1.35,-2.89 0.66,-1.09 1.43,-1.79 2.31,-2.07 0.65,-0.21 1.69,-0.32 3.13,-0.32l0.82 0 0 3.37 -1.13 -0.02c-1.13,-0.01 -1.92,0.28 -2.39,0.88 -0.15,0.2 -0.51,1.05 -1.11,2.55 -0.55,1.42 -1.05,2.4 -1.46,2.96 -0.58,0.75 -1.44,1.39 -2.6,1.93 1.76,0.46 3.48,2.09 5.16,4.89l2.46 4.09 1.4 0 0 10.12zm96.63 0l-3.33 0 0 -6.79 -0.56 0 -4.38 -7.43c-0.72,-1.22 -1.33,-2.07 -1.85,-2.55 -0.79,-0.74 -1.72,-1.11 -2.81,-1.11l0 11.08 -4.07 0 0 -23.97 4.07 0 0 10.35c1.51,0 2.63,-0.49 3.35,-1.46 0.24,-0.31 0.79,-1.52 1.65,-3.61 0.59,-1.44 1.05,-2.4 1.35,-2.89 0.66,-1.09 1.43,-1.79 2.31,-2.07 0.65,-0.21 1.69,-0.32 3.13,-0.32l0.82 0 0 3.37 -1.13 -0.02c-1.13,-0.01 -1.93,0.28 -2.4,0.88 -0.15,0.2 -0.51,1.05 -1.11,2.55 -0.55,1.42 -1.04,2.4 -1.46,2.96 -0.57,0.75 -1.44,1.39 -2.6,1.93 1.76,0.46 3.48,2.09 5.16,4.89l2.46 4.09 1.4 0 0 10.12zm-78.23 -15c-2.1,2.83 -4.19,4.94 -6.24,6.36 -2.07,1.41 -3.95,2.12 -5.67,2.12 -1.15,0 -2.15,-0.49 -2.99,-1.46 -0.85,-0.98 -1.26,-2.23 -1.26,-3.77 0,-3.95 1.76,-8.21 5.3,-12.77 3.53,-4.57 7.04,-6.84 10.53,-6.84 1.26,0 2.2,0.72 2.82,2.16 0.19,0.48 0.5,0.72 0.92,0.72 1.2,0 1.8,0.46 1.8,1.39 0,0.47 -0.08,1.11 -0.22,1.92 -0.82,4.43 -1.22,7.57 -1.22,9.38 0,3.64 0.69,5.82 2.07,6.54 0.66,0.36 0.99,0.8 0.99,1.32 0,0.47 -0.32,0.94 -0.97,1.42 -0.65,0.47 -1.27,0.71 -1.87,0.71 -1.16,0 -2.12,-0.8 -2.87,-2.39 -0.75,-1.59 -1.13,-3.87 -1.13,-6.81zm-1.37 -12.7c-1.99,0 -4.3,1.86 -6.93,5.58 -2.63,3.73 -3.95,6.81 -3.95,9.26 0,1.72 0.58,2.59 1.72,2.59 1.65,0 3.95,-1.67 6.88,-5.01 2.93,-3.33 4.39,-6.4 4.39,-9.2 0,-2.15 -0.71,-3.23 -2.12,-3.23zm24.3 7.04c1.94,0.31 3.46,1.03 4.53,2.15 1.09,1.11 1.62,2.47 1.62,4.08 0,2.54 -1.08,4.66 -3.22,6.35 -2.15,1.69 -4.97,2.53 -8.48,2.53 -2.09,0 -3.89,-0.45 -5.41,-1.36 -1.51,-0.9 -2.27,-1.9 -2.27,-2.99 0,-0.91 0.52,-1.35 1.57,-1.35 0.15,0 0.37,0.12 0.69,0.38 1.66,1.43 3.62,2.14 5.89,2.14 2,0 3.72,-0.52 5.16,-1.58 1.45,-1.06 2.16,-2.43 2.16,-4.11 0,-1.11 -0.41,-2.04 -1.22,-2.79 -0.82,-0.75 -1.77,-1.11 -2.85,-1.11 -0.83,0 -2.28,0.32 -4.35,0.97 -0.41,0.13 -0.85,0.2 -1.31,0.2 -0.91,0 -1.35,-0.61 -1.35,-1.82 0,-0.42 0.22,-0.76 0.64,-1.02 0.43,-0.25 1.35,-0.55 2.76,-0.88 4.29,-0.98 6.43,-2.72 6.43,-5.21 0,-0.75 -0.26,-1.37 -0.8,-1.86 -0.53,-0.48 -1.21,-0.73 -2.06,-0.73 -1.56,0 -3.23,0.69 -5,2.08 -1.04,0.81 -1.83,1.22 -2.37,1.22 -0.92,0 -1.38,-0.43 -1.38,-1.29 0,-1.13 1.07,-2.28 3.19,-3.46 2.13,-1.18 4.17,-1.77 6.12,-1.77 1.95,0 3.49,0.52 4.62,1.55 1.11,1.04 1.68,2.13 1.68,3.27 0,2.73 -1.66,4.86 -4.99,6.4zm26.39 5.66c-2.1,2.83 -4.19,4.94 -6.24,6.36 -2.06,1.41 -3.95,2.12 -5.67,2.12 -1.15,0 -2.16,-0.49 -2.99,-1.46 -0.85,-0.98 -1.26,-2.23 -1.26,-3.77 0,-3.95 1.76,-8.21 5.3,-12.77 3.53,-4.57 7.04,-6.84 10.53,-6.84 1.26,0 2.2,0.72 2.82,2.16 0.19,0.48 0.5,0.72 0.93,0.72 1.2,0 1.8,0.46 1.8,1.39 0,0.47 -0.08,1.11 -0.22,1.92 -0.82,4.43 -1.22,7.57 -1.22,9.38 0,3.64 0.69,5.82 2.07,6.54 0.66,0.36 0.99,0.8 0.99,1.32 0,0.47 -0.33,0.94 -0.97,1.42 -0.65,0.47 -1.27,0.71 -1.87,0.71 -1.16,0 -2.12,-0.8 -2.87,-2.39 -0.75,-1.59 -1.13,-3.87 -1.13,-6.81zm-1.37 -12.7c-1.99,0 -4.3,1.86 -6.93,5.58 -2.63,3.73 -3.95,6.81 -3.95,9.26 0,1.72 0.58,2.59 1.72,2.59 1.65,0 3.95,-1.67 6.88,-5.01 2.93,-3.33 4.39,-6.4 4.39,-9.2 0,-2.15 -0.71,-3.23 -2.12,-3.23z"/>
   <line class="fil1 str0" x1="-0" y1="41.75" x2="117.83" y2= "41.75" />
  </g>
 </g>
</svg>
