<?xml version="1.0" encoding="UTF-8"?>
<!DOCTYPE svg PUBLIC "-//W3C//DTD SVG 1.1//EN" "http://www.w3.org/Graphics/SVG/1.1/DTD/svg11.dtd">
<!-- Creator: CorelDRAW 2020 -->
<svg xmlns="http://www.w3.org/2000/svg" xml:space="preserve" width="5.2075mm" height="1.4616mm" version="1.1" style="shape-rendering:geometricPrecision; text-rendering:geometricPrecision; image-rendering:optimizeQuality; fill-rule:evenodd; clip-rule:evenodd"
viewBox="0 0 205.36 57.64"
 xmlns:xlink="http://www.w3.org/1999/xlink"
 xmlns:xodm="http://www.corel.com/coreldraw/odm/2003">
 <defs>
  <style type="text/css">
   <![CDATA[
    .fil0 {fill:#6B470F;fill-rule:nonzero}
   ]]>
  </style>
 </defs>
 <g id="Layer_x0020_1">
  <metadata id="CorelCorpID_0Corel-Layer"/>
  <path class="fil0" d="M30.72 57.64l-6.01 0 0 -12.27 -1.01 0 -7.92 -13.42c-1.29,-2.2 -2.41,-3.74 -3.35,-4.61 -1.42,-1.34 -3.12,-2 -5.08,-2l0 20.03 -7.35 0 0 -43.32 7.35 0 0 18.7c2.72,0 4.76,-0.88 6.07,-2.65 0.43,-0.57 1.43,-2.75 2.98,-6.52 1.07,-2.6 1.89,-4.34 2.43,-5.22 1.19,-1.98 2.59,-3.23 4.17,-3.74 1.18,-0.37 3.06,-0.57 5.66,-0.57l1.47 0 0 6.1 -2.04 -0.04c-2.05,-0.03 -3.48,0.5 -4.33,1.59 -0.28,0.36 -0.93,1.89 -2,4.61 -1,2.56 -1.89,4.34 -2.64,5.34 -1.04,1.35 -2.6,2.52 -4.7,3.49 3.19,0.84 6.29,3.79 9.32,8.83l4.45 7.4 2.53 0 0 18.28zm174.64 0l-6.01 0 0 -12.27 -1.01 0 -7.92 -13.42c-1.29,-2.2 -2.41,-3.74 -3.35,-4.61 -1.42,-1.34 -3.12,-2 -5.08,-2l0 20.03 -7.35 0 0 -43.32 7.35 0 0 18.7c2.72,0 4.76,-0.88 6.07,-2.65 0.43,-0.57 1.43,-2.75 2.98,-6.52 1.07,-2.6 1.89,-4.34 2.43,-5.22 1.19,-1.98 2.59,-3.23 4.17,-3.74 1.18,-0.37 3.06,-0.57 5.66,-0.57l1.47 0 0 6.1 -2.04 -0.04c-2.05,-0.03 -3.48,0.5 -4.33,1.59 -0.28,0.36 -0.93,1.89 -2,4.61 -1,2.56 -1.89,4.34 -2.64,5.34 -1.04,1.35 -2.6,2.52 -4.7,3.49 3.19,0.84 6.29,3.79 9.32,8.83l4.45 7.4 2.53 0 0 18.28zm-141.37 -27.1c-3.8,5.11 -7.57,8.93 -11.28,11.49 -3.73,2.55 -7.14,3.83 -10.24,3.83 -2.09,0 -3.9,-0.88 -5.41,-2.64 -1.53,-1.77 -2.28,-4.03 -2.28,-6.81 0,-7.14 3.19,-14.83 9.57,-23.08 6.39,-8.25 12.73,-12.37 19.04,-12.37 2.28,0 3.98,1.29 5.1,3.91 0.35,0.86 0.91,1.31 1.67,1.31 2.17,0 3.25,0.83 3.25,2.52 0,0.85 -0.14,2 -0.4,3.47 -1.47,8.01 -2.2,13.67 -2.2,16.96 0,6.58 1.24,10.52 3.74,11.83 1.2,0.65 1.8,1.45 1.8,2.39 0,0.85 -0.59,1.7 -1.75,2.56 -1.17,0.85 -2.3,1.28 -3.38,1.28 -2.1,0 -3.83,-1.45 -5.18,-4.33 -1.36,-2.88 -2.04,-6.98 -2.04,-12.3zm-2.48 -22.95c-3.59,0 -7.76,3.37 -12.52,10.09 -4.76,6.74 -7.14,12.31 -7.14,16.74 0,3.12 1.05,4.69 3.1,4.69 2.99,0 7.14,-3.02 12.44,-9.06 5.3,-6.02 7.94,-11.57 7.94,-16.62 0,-3.88 -1.28,-5.83 -3.83,-5.83zm43.92 12.72c3.51,0.57 6.25,1.87 8.19,3.88 1.96,2 2.93,4.47 2.93,7.37 0,4.59 -1.95,8.42 -5.83,11.48 -3.88,3.05 -8.99,4.58 -15.32,4.58 -3.79,0 -7.04,-0.81 -9.77,-2.45 -2.72,-1.63 -4.11,-3.43 -4.11,-5.41 0,-1.64 0.95,-2.45 2.83,-2.45 0.26,0 0.68,0.22 1.25,0.69 2.99,2.58 6.54,3.87 10.64,3.87 3.62,0 6.73,-0.95 9.33,-2.85 2.61,-1.91 3.91,-4.38 3.91,-7.42 0,-2.02 -0.74,-3.68 -2.21,-5.04 -1.49,-1.35 -3.2,-2.02 -5.16,-2.02 -1.49,0 -4.12,0.58 -7.86,1.75 -0.74,0.24 -1.53,0.36 -2.36,0.36 -1.64,0 -2.45,-1.1 -2.45,-3.3 0,-0.77 0.39,-1.38 1.16,-1.84 0.78,-0.46 2.44,-0.99 4.99,-1.59 7.75,-1.77 11.62,-4.91 11.62,-9.42 0,-1.36 -0.47,-2.48 -1.45,-3.37 -0.96,-0.88 -2.2,-1.32 -3.73,-1.32 -2.82,0 -5.84,1.25 -9.04,3.75 -1.88,1.46 -3.31,2.2 -4.28,2.2 -1.66,0 -2.49,-0.78 -2.49,-2.32 0,-2.05 1.94,-4.12 5.77,-6.26 3.84,-2.13 7.53,-3.2 11.06,-3.2 3.53,0 6.32,0.95 8.35,2.81 2.02,1.88 3.03,3.86 3.03,5.92 0,4.93 -3,8.78 -9.01,11.57zm47.69 10.24c-3.8,5.11 -7.57,8.93 -11.28,11.49 -3.73,2.55 -7.14,3.83 -10.24,3.83 -2.09,0 -3.9,-0.88 -5.41,-2.64 -1.53,-1.77 -2.28,-4.03 -2.28,-6.81 0,-7.14 3.19,-14.83 9.57,-23.08 6.39,-8.25 12.73,-12.37 19.04,-12.37 2.28,0 3.98,1.29 5.1,3.91 0.35,0.86 0.91,1.31 1.67,1.31 2.17,0 3.25,0.83 3.25,2.52 0,0.85 -0.14,2 -0.4,3.47 -1.47,8.01 -2.2,13.67 -2.2,16.96 0,6.58 1.24,10.52 3.74,11.83 1.2,0.65 1.8,1.45 1.8,2.39 0,0.85 -0.59,1.7 -1.75,2.56 -1.17,0.85 -2.3,1.28 -3.38,1.28 -2.1,0 -3.83,-1.45 -5.18,-4.33 -1.36,-2.88 -2.04,-6.98 -2.04,-12.3zm-2.48 -22.95c-3.59,0 -7.76,3.37 -12.52,10.09 -4.76,6.74 -7.14,12.31 -7.14,16.74 0,3.12 1.05,4.69 3.1,4.69 2.99,0 7.14,-3.02 12.44,-9.06 5.3,-6.02 7.94,-11.57 7.94,-16.62 0,-3.88 -1.28,-5.83 -3.83,-5.83z"/>
 </g>
</svg>
