<?xml version="1.0" encoding="UTF-8"?>
<!DOCTYPE svg PUBLIC "-//W3C//DTD SVG 1.1//EN" "http://www.w3.org/Graphics/SVG/1.1/DTD/svg11.dtd">
<!-- Creator: CorelDRAW 2020 -->
<svg xmlns="http://www.w3.org/2000/svg" xml:space="preserve" width="5.94mm" height="2.1931mm" version="1.1" style="shape-rendering:geometricPrecision; text-rendering:geometricPrecision; image-rendering:optimizeQuality; fill-rule:evenodd; clip-rule:evenodd"
viewBox="0 0 113.62 41.95"
 xmlns:xlink="http://www.w3.org/1999/xlink"
 xmlns:xodm="http://www.corel.com/coreldraw/odm/2003">
 <defs>
  <style type="text/css">
   <![CDATA[
    .str0 {stroke:#C6B93A;stroke-width:3.37;stroke-miterlimit:22.9256}
    .fil1 {fill:none}
    .fil0 {fill:#C6B93A;fill-rule:nonzero}
   ]]>
  </style>
 </defs>
 <g id="Layer_x0020_1">
  <metadata id="CorelCorpID_0Corel-Layer"/>
  <g id="_1547551072">
   <path class="fil0" d="M18.84 30.75l-3.21 0 0 -6.55 -0.54 0 -4.23 -7.16c-0.69,-1.17 -1.28,-2 -1.79,-2.46 -0.76,-0.71 -1.66,-1.07 -2.71,-1.07l0 10.69 -3.92 0 0 -23.12 3.92 0 0 9.98c1.45,0 2.54,-0.47 3.23,-1.41 0.23,-0.3 0.77,-1.47 1.59,-3.48 0.57,-1.39 1.01,-2.32 1.3,-2.78 0.64,-1.05 1.38,-1.72 2.22,-2 0.63,-0.2 1.63,-0.3 3.02,-0.3l0.79 0 0 3.25 -1.09 -0.02c-1.09,-0.01 -1.86,0.27 -2.31,0.85 -0.15,0.2 -0.5,1.01 -1.07,2.46 -0.53,1.37 -1.01,2.32 -1.41,2.85 -0.55,0.72 -1.39,1.34 -2.51,1.86 1.7,0.45 3.35,2.02 4.97,4.71l2.38 3.95 1.35 0 0 9.75zm93.18 0l-3.21 0 0 -6.55 -0.54 0 -4.23 -7.16c-0.69,-1.17 -1.28,-2 -1.79,-2.46 -0.76,-0.71 -1.66,-1.07 -2.71,-1.07l0 10.69 -3.92 0 0 -23.12 3.92 0 0 9.98c1.45,0 2.54,-0.47 3.24,-1.41 0.23,-0.3 0.76,-1.47 1.59,-3.48 0.57,-1.39 1.01,-2.32 1.3,-2.78 0.64,-1.05 1.38,-1.72 2.23,-2 0.63,-0.2 1.63,-0.3 3.02,-0.3l0.79 0 0 3.25 -1.09 -0.02c-1.09,-0.01 -1.86,0.27 -2.31,0.85 -0.15,0.2 -0.5,1.01 -1.07,2.46 -0.54,1.37 -1.01,2.32 -1.41,2.85 -0.56,0.72 -1.39,1.34 -2.51,1.86 1.7,0.45 3.35,2.02 4.97,4.71l2.38 3.95 1.35 0 0 9.75zm-75.43 -14.46c-2.03,2.73 -4.04,4.77 -6.02,6.13 -1.99,1.36 -3.81,2.04 -5.46,2.04 -1.11,0 -2.08,-0.47 -2.89,-1.41 -0.82,-0.94 -1.22,-2.15 -1.22,-3.64 0,-3.81 1.7,-7.91 5.11,-12.31 3.41,-4.4 6.79,-6.6 10.15,-6.6 1.22,0 2.12,0.69 2.72,2.08 0.19,0.46 0.48,0.7 0.89,0.7 1.16,0 1.74,0.44 1.74,1.34 0,0.45 -0.07,1.07 -0.22,1.85 -0.79,4.27 -1.17,7.3 -1.17,9.05 0,3.51 0.66,5.61 2,6.31 0.64,0.35 0.96,0.77 0.96,1.28 0,0.45 -0.31,0.91 -0.94,1.37 -0.62,0.45 -1.23,0.68 -1.8,0.68 -1.12,0 -2.04,-0.77 -2.76,-2.31 -0.73,-1.54 -1.09,-3.73 -1.09,-6.56zm-1.32 -12.25c-1.91,0 -4.14,1.8 -6.68,5.38 -2.54,3.59 -3.81,6.57 -3.81,8.93 0,1.66 0.56,2.5 1.65,2.5 1.6,0 3.81,-1.61 6.64,-4.83 2.83,-3.21 4.24,-6.18 4.24,-8.87 0,-2.07 -0.68,-3.11 -2.04,-3.11zm23.43 6.79c1.87,0.3 3.33,0.99 4.37,2.07 1.04,1.07 1.56,2.38 1.56,3.93 0,2.45 -1.04,4.49 -3.11,6.12 -2.07,1.63 -4.8,2.44 -8.17,2.44 -2.02,0 -3.76,-0.43 -5.21,-1.31 -1.45,-0.87 -2.19,-1.83 -2.19,-2.89 0,-0.88 0.5,-1.31 1.51,-1.31 0.14,0 0.36,0.12 0.67,0.37 1.6,1.37 3.49,2.06 5.68,2.06 1.93,0 3.59,-0.5 4.98,-1.52 1.39,-1.02 2.08,-2.34 2.08,-3.96 0,-1.07 -0.39,-1.96 -1.18,-2.69 -0.79,-0.72 -1.71,-1.07 -2.75,-1.07 -0.8,0 -2.2,0.31 -4.19,0.94 -0.39,0.13 -0.82,0.19 -1.26,0.19 -0.88,0 -1.31,-0.59 -1.31,-1.76 0,-0.41 0.21,-0.73 0.62,-0.98 0.42,-0.24 1.3,-0.53 2.66,-0.85 4.13,-0.94 6.2,-2.62 6.2,-5.02 0,-0.73 -0.25,-1.32 -0.77,-1.8 -0.51,-0.47 -1.17,-0.7 -1.99,-0.7 -1.51,0 -3.12,0.67 -4.82,2 -1,0.78 -1.77,1.17 -2.29,1.17 -0.88,0 -1.33,-0.42 -1.33,-1.24 0,-1.09 1.03,-2.2 3.08,-3.34 2.05,-1.14 4.02,-1.71 5.9,-1.71 1.89,0 3.37,0.5 4.45,1.5 1.07,1 1.62,2.06 1.62,3.16 0,2.63 -1.6,4.68 -4.81,6.18zm25.44 5.46c-2.03,2.73 -4.04,4.77 -6.02,6.13 -1.99,1.36 -3.81,2.04 -5.46,2.04 -1.11,0 -2.08,-0.47 -2.89,-1.41 -0.82,-0.94 -1.22,-2.15 -1.22,-3.64 0,-3.81 1.7,-7.91 5.11,-12.31 3.41,-4.4 6.79,-6.6 10.16,-6.6 1.22,0 2.12,0.69 2.72,2.08 0.19,0.46 0.48,0.7 0.89,0.7 1.16,0 1.73,0.44 1.73,1.34 0,0.45 -0.07,1.07 -0.21,1.85 -0.79,4.27 -1.17,7.3 -1.17,9.05 0,3.51 0.66,5.61 2,6.31 0.64,0.35 0.96,0.77 0.96,1.28 0,0.45 -0.31,0.91 -0.94,1.37 -0.62,0.45 -1.22,0.68 -1.8,0.68 -1.12,0 -2.04,-0.77 -2.76,-2.31 -0.72,-1.54 -1.09,-3.73 -1.09,-6.56zm-1.32 -12.25c-1.91,0 -4.14,1.8 -6.68,5.38 -2.54,3.59 -3.81,6.57 -3.81,8.93 0,1.66 0.56,2.5 1.66,2.5 1.59,0 3.81,-1.61 6.64,-4.83 2.83,-3.21 4.24,-6.18 4.24,-8.87 0,-2.07 -0.68,-3.11 -2.04,-3.11z"/>
   <line class="fil1 str0" x1="-0" y1="40.26" x2="113.62" y2= "40.26" />
  </g>
 </g>
</svg>
