<?xml version="1.0" encoding="UTF-8"?>
<!DOCTYPE svg PUBLIC "-//W3C//DTD SVG 1.1//EN" "http://www.w3.org/Graphics/SVG/1.1/DTD/svg11.dtd">
<!-- Creator: CorelDRAW 2020 -->
<svg xmlns="http://www.w3.org/2000/svg" xml:space="preserve" width="11mm" height="10.3mm" version="1.1" style="shape-rendering:geometricPrecision; text-rendering:geometricPrecision; image-rendering:optimizeQuality; fill-rule:evenodd; clip-rule:evenodd"
viewBox="0 0 168.71 157.97"
 xmlns:xlink="http://www.w3.org/1999/xlink"
 xmlns:xodm="http://www.corel.com/coreldraw/odm/2003">
 <defs>
  <style type="text/css">
   <![CDATA[
    .str0 {stroke:#C6B93A;stroke-width:3.07;stroke-miterlimit:22.9256}
    .fil0 {fill:none}
    .fil2 {fill:#C6B93A}
    .fil1 {fill:#C6B93A;fill-rule:nonzero}
   ]]>
  </style>
 </defs>
 <g id="Layer_x0020_1">
  <metadata id="CorelCorpID_0Corel-Layer"/>
  <g id="_1255347920">
   <polygon class="fil0" points="-0,0 168.71,0 168.71,156.44 -0,156.44 "/>
   <line class="fil0 str0" x1="28.37" y1="156.44" x2="140.34" y2= "156.44" />
   <path class="fil1" d="M34.17 128.51c3.34,-0.58 6.33,-2.73 8.98,-6.47 1.24,-1.73 2.33,-2.96 3.27,-3.69 0.94,-0.72 1.93,-1.09 2.99,-1.09 0.42,0 0.85,0.19 1.26,0.57 0.43,0.38 0.63,0.84 0.63,1.36 0,0.69 -0.65,1.23 -1.96,1.63 -0.69,0.21 -1.34,0.57 -1.95,1.07 -0.61,0.51 -1.75,1.72 -3.44,3.64 -1.33,1.49 -2.52,2.54 -3.57,3.15 -0.1,0.06 -0.15,0.11 -0.15,0.15 0,0.06 0.07,0.12 0.19,0.17 1.02,0.56 2.11,1.62 3.25,3.2 1.66,2.29 2.91,3.74 3.74,4.34 0.84,0.6 1.78,0.89 2.86,0.89l0.7 -0.02c0.49,-0.03 0.74,0.19 0.74,0.66 0,0.53 -0.3,1.1 -0.91,1.67 -0.61,0.58 -1.61,0.87 -3,0.87 -1.07,0 -2.11,-0.46 -3.12,-1.38 -1.01,-0.92 -2.16,-2.42 -3.46,-4.49 -0.75,-1.23 -1.44,-2.16 -2.09,-2.79 -0.65,-0.63 -1.37,-0.95 -2.16,-0.95 -0.17,0 -0.69,0.14 -1.57,0.42 -0.87,0.28 -1.36,0.56 -1.46,0.81 -0.11,0.26 -0.19,1.2 -0.24,2.81 -0.04,1.61 -0.07,2.91 -0.07,3.9 0,0.53 -0.25,0.99 -0.74,1.4 -0.5,0.4 -1.03,0.61 -1.61,0.61 -0.59,0 -1.05,-0.17 -1.39,-0.52 -0.34,-0.35 -0.51,-0.7 -0.51,-1.07 0,-0.5 0.19,-1.7 0.57,-3.59 0.68,-3.44 1.36,-9.11 2.04,-17.02 0.05,-0.76 0.34,-1.44 0.87,-2.06 0.52,-0.61 1.11,-0.92 1.77,-0.92 0.37,0 0.67,0.2 0.92,0.59 0.24,0.4 0.37,0.9 0.37,1.52 0,0.5 -0.09,1.06 -0.26,1.7 -0.8,2.91 -1.3,5.89 -1.5,8.94zm27.35 -17.18c-0.3,0 -0.52,-0.32 -0.68,-0.95 -0.06,-0.19 -0.13,-0.41 -0.23,-0.66 -0.38,-0.91 -0.57,-1.71 -0.57,-2.39 0,-0.56 0.33,-1.13 1,-1.72 0.67,-0.58 1.41,-0.88 2.23,-0.88 0.41,0 0.87,0.16 1.38,0.48 0.51,0.32 0.76,0.62 0.76,0.92 0,0.47 -0.17,1.26 -0.52,2.37 -0.35,1.11 -0.9,1.86 -1.65,2.25 -0.76,0.38 -1.33,0.58 -1.72,0.58zm-2.77 23.61c0,1.07 0.15,2.27 0.45,3.61 0.06,0.25 0.08,0.46 0.08,0.63 0,0.26 -0.23,0.58 -0.69,0.99 -0.47,0.4 -0.96,0.6 -1.48,0.6 -1.37,0 -2.05,-1.25 -2.05,-3.76 0,-2.6 0.53,-6.69 1.6,-12.3 0.37,-1.96 0.55,-3.17 0.55,-3.62 0,-0.89 0.17,-1.64 0.49,-2.27 0.33,-0.63 0.78,-0.95 1.37,-0.95 0.72,0 1.28,0.17 1.7,0.52 0.42,0.35 0.62,0.73 0.62,1.15 0,0.42 -0.09,0.98 -0.3,1.67 -1.05,3.72 -1.71,6.38 -1.96,7.99 -0.25,1.6 -0.38,3.51 -0.38,5.73zm23.4 -4.5c-1.8,3.02 -3.65,5.37 -5.54,7.03 -1.88,1.67 -3.63,2.5 -5.26,2.5 -0.93,0 -1.88,-0.54 -2.84,-1.63 -0.97,-1.08 -1.45,-2.76 -1.45,-5.01 0,-1.85 0.45,-4.57 1.33,-8.16 0.74,-3 1.12,-5.11 1.12,-6.32 0.41,-0.84 1.05,-1.27 1.93,-1.27 0.59,0 1.06,0.21 1.41,0.63 0.35,0.41 0.53,0.84 0.53,1.3 0,0.99 -0.35,2.39 -1.03,4.21 -1.31,3.54 -1.97,6.57 -1.97,9.11 0,2.31 0.53,3.46 1.61,3.46 1.36,0 3.11,-1.16 5.22,-3.48 2.11,-2.33 3.92,-5.57 5.43,-9.72 0.59,-1.66 1.08,-2.74 1.45,-3.25 0.38,-0.5 0.88,-0.75 1.52,-0.75 0.95,0 1.44,0.63 1.44,1.9 0,0.15 -0.14,0.67 -0.4,1.54 -0.85,3.09 -1.27,6 -1.27,8.75 0,3.3 0.55,5.43 1.63,6.4 0.56,0.53 0.84,0.94 0.84,1.27 0,0.4 -0.28,0.76 -0.86,1.08 -0.57,0.33 -1.08,0.48 -1.55,0.48 -0.99,0 -1.78,-0.74 -2.39,-2.2 -0.61,-1.46 -0.91,-3.63 -0.91,-6.49l0 -0.7c0,-0.22 0.01,-0.45 0.02,-0.69zm18.28 -19.11c-0.3,0 -0.52,-0.32 -0.68,-0.95 -0.06,-0.19 -0.13,-0.41 -0.23,-0.66 -0.38,-0.91 -0.57,-1.71 -0.57,-2.39 0,-0.56 0.33,-1.13 1,-1.72 0.67,-0.58 1.41,-0.88 2.23,-0.88 0.41,0 0.87,0.16 1.38,0.48 0.51,0.32 0.76,0.62 0.76,0.92 0,0.47 -0.17,1.26 -0.52,2.37 -0.35,1.11 -0.9,1.86 -1.65,2.25 -0.76,0.38 -1.33,0.58 -1.72,0.58zm-2.77 23.61c0,1.07 0.15,2.27 0.45,3.61 0.06,0.25 0.08,0.46 0.08,0.63 0,0.26 -0.23,0.58 -0.69,0.99 -0.47,0.4 -0.96,0.6 -1.48,0.6 -1.37,0 -2.05,-1.25 -2.05,-3.76 0,-2.6 0.53,-6.69 1.6,-12.3 0.37,-1.96 0.55,-3.17 0.55,-3.62 0,-0.89 0.17,-1.64 0.49,-2.27 0.33,-0.63 0.78,-0.95 1.37,-0.95 0.72,0 1.28,0.17 1.7,0.52 0.42,0.35 0.62,0.73 0.62,1.15 0,0.42 -0.09,0.98 -0.3,1.67 -1.05,3.72 -1.71,6.38 -1.96,7.99 -0.25,1.6 -0.38,3.51 -0.38,5.73zm35.44 -13.82c-1.14,1.83 -2.75,4.93 -4.82,9.3 -0.46,0.98 -0.94,1.93 -1.41,2.85 -0.16,0.3 -0.46,0.95 -0.89,1.97 -1.48,3.43 -2.77,5.15 -3.87,5.15 -0.87,0 -1.51,-0.1 -1.91,-0.32 -0.4,-0.21 -0.78,-0.79 -1.15,-1.73 -0.37,-0.94 -0.91,-3.16 -1.63,-6.66 -0.83,-3.95 -1.39,-6.39 -1.69,-7.31 -0.96,2.16 -1.81,4.23 -2.56,6.23 -1.13,2.94 -2.22,5.35 -3.28,7.2 -1.05,1.85 -1.82,2.96 -2.28,3.33 -0.47,0.38 -0.91,0.56 -1.33,0.56 -0.43,0 -0.83,-0.17 -1.18,-0.5 -0.35,-0.34 -0.53,-0.67 -0.53,-1 0.09,-0.58 0.18,-0.94 0.3,-1.08 1.23,-1.51 2.28,-3.12 3.17,-4.82 0.89,-1.71 2.02,-4.26 3.4,-7.68 1.37,-3.4 2.25,-6.2 2.63,-8.39 0.19,-0.93 0.87,-1.39 2.05,-1.39 0.69,0 1.17,0.1 1.42,0.32 0.25,0.21 0.5,0.64 0.75,1.28 0.25,0.65 0.39,1.23 0.43,1.74 0.09,0.61 0.33,1.95 0.71,4.03 0.35,1.96 0.59,3.35 0.7,4.16 0.19,1.18 0.55,2.71 1.05,4.61 0.5,1.9 0.89,2.86 1.18,2.86 0.19,0 0.48,-0.43 0.84,-1.29l1.77 -4.1c0.33,-0.74 0.67,-1.48 1.04,-2.19l2.42 -4.97c1.33,-2.73 2.34,-4.71 3.06,-5.94 0.71,-1.23 1.19,-1.98 1.44,-2.23 0.25,-0.26 0.53,-0.38 0.84,-0.38 0.53,0 1.13,0.14 1.8,0.43 0.66,0.29 1,0.61 1.03,0.96 0.03,0.35 0.09,1.83 0.19,4.42l0.27 6.6c0.09,2.1 0.21,3.88 0.38,5.35 0.17,1.47 0.46,2.66 0.89,3.56 0.66,1.44 0.99,2.55 0.99,3.34 0,0.67 -0.27,1.14 -0.83,1.39 -0.56,0.25 -1.08,0.38 -1.56,0.38 -0.98,0 -1.74,-0.79 -2.27,-2.37 -0.53,-1.58 -0.91,-6.1 -1.15,-13.57 -0.09,-2.24 -0.22,-3.61 -0.4,-4.12z"/>
   <path class="fil2" d="M106.97 23.98l-3.1 0c-2.68,0 -5.28,1.67 -6.51,4.11 -0.17,0.15 -0.32,0.33 -0.44,0.54l-25.97 42.98c-0.69,1.14 -0.46,2.73 0.52,3.53l4.16 3.45c0.97,0.81 2.22,0.44 3.01,-0.6l20.52 -26.75 5.13 39.68c0.56,4.38 3.24,8.05 7.2,8.05l5.25 0c3.96,0 6.81,-3.72 7.2,-8.05 1.13,-12.66 11.95,-66.94 -1.95,-66.94l0 -7.65 -15.01 0 0 7.65z"/>
   <path class="fil2" d="M53.98 80.02c-2.04,-7.79 -1.76,-15.59 -3.3,-19.11 -0.56,-1.3 -1.38,-2.01 -2.63,-1.94 -1.44,0.08 -5.39,-0.45 -6.31,0.89 -2.27,3.32 -0.5,11.8 -2.1,23.18 -0.91,6.43 -2.69,16.52 0.69,16.73 2.23,0.15 3.55,-13.51 7.22,-13.71 2.44,-0.14 9.19,10.1 15.32,11.99 5.96,1.83 21.05,1.45 20.2,-2.17 -2.26,-9.66 -8.36,-10.56 -15.94,-10.56 -4.65,0 -11.63,0.45 -13.14,-5.31z"/>
  </g>
 </g>
</svg>
