<?xml version="1.0" encoding="UTF-8"?>
<!DOCTYPE svg PUBLIC "-//W3C//DTD SVG 1.1//EN" "http://www.w3.org/Graphics/SVG/1.1/DTD/svg11.dtd">
<!-- Creator: CorelDRAW 2020 -->
<svg xmlns="http://www.w3.org/2000/svg" xml:space="preserve" width="6.7032mm" height="8.7631mm" version="1.1" style="shape-rendering:geometricPrecision; text-rendering:geometricPrecision; image-rendering:optimizeQuality; fill-rule:evenodd; clip-rule:evenodd"
viewBox="0 0 42.93 56.12"
 xmlns:xlink="http://www.w3.org/1999/xlink"
 xmlns:xodm="http://www.corel.com/coreldraw/odm/2003">
 <defs>
  <style type="text/css">
   <![CDATA[
    .str0 {stroke:#C6B93A;stroke-width:3.2;stroke-miterlimit:22.9256}
    .str1 {stroke:#C6B93A;stroke-width:1.28;stroke-miterlimit:22.9256}
    .str2 {stroke:#C6B93A;stroke-width:0.49;stroke-miterlimit:22.9256}
    .fil0 {fill:none}
    .fil1 {fill:#A8CF45}
    .fil2 {fill:#C6B93A}
    .fil3 {fill:#C6B93A;fill-rule:nonzero}
   ]]>
  </style>
 </defs>
 <g id="Layer_x0020_1">
  <metadata id="CorelCorpID_0Corel-Layer"/>
  <line class="fil0 str0" x1="-0" y1="36.6" x2="42.93" y2= "36.6" />
  <path class="fil1 str1" d="M27.37 3.83l7.15 0c5.48,0 1.21,22.66 0.77,27.95 -0.15,1.81 -1.28,3.36 -2.84,3.36l-2.07 0c-1.56,0 -2.62,-1.53 -2.84,-3.36l-3 -24.59c-0.22,-1.83 1.28,-3.36 2.84,-3.36z"/>
  <path class="fil1 str1" d="M29.15 8.45l-3.33 -2.93c-0.38,-0.34 -0.92,-0.22 -1.19,0.25l-10.25 17.95c-0.27,0.48 -0.18,1.14 0.2,1.48l1.64 1.44c0.38,0.34 0.87,0.18 1.19,-0.25l11.94 -16.46c0.31,-0.43 0.18,-1.14 -0.2,-1.48z"/>
  <rect class="fil1 str1" x="28.6" y="0.64" width="5.92" height="3.19"/>
  <path class="fil2" d="M17.42 26.39l8.1 -11.17 -0.98 -8.02c-0.07,-0.59 0.04,-1.16 0.27,-1.65 -0.07,0.06 -0.13,0.14 -0.18,0.23l-10.25 17.95c-0.27,0.48 -0.18,1.14 0.2,1.48l1.64 1.44c0.38,0.34 0.87,0.18 1.19,-0.25z"/>
  <path class="fil2" d="M24.53 7.19l0.98 8.02 3.84 -5.29c0.32,-0.43 0.18,-1.14 -0.2,-1.48l-3.33 -2.93c-0.31,-0.27 -0.72,-0.25 -1.01,0.03 -0.23,0.49 -0.34,1.05 -0.27,1.65z"/>
  <polygon class="fil2" points="28.6,3.83 34.52,3.83 34.52,0.64 28.6,0.64 "/>
  <path class="fil2 str2" d="M34.52 3.83l-5.92 0 -1.22 0c-1.06,0 -2.08,0.7 -2.57,1.72 0.29,-0.28 0.7,-0.3 1.01,-0.03l3.33 2.93c0.38,0.34 0.52,1.04 0.2,1.48l-3.84 5.29 2.02 16.57c0.22,1.83 1.28,3.36 2.84,3.36l2.07 0c1.56,0 2.69,-1.55 2.84,-3.36 0.45,-5.29 4.72,-27.95 -0.77,-27.95z"/>
  <path class="fil2" d="M10.44 27.15c-0.85,-3.25 -0.74,-6.51 -1.38,-7.98 -0.24,-0.54 -0.58,-0.84 -1.1,-0.81 -0.6,0.03 -2.25,-0.19 -2.63,0.37 -0.95,1.39 -0.21,4.93 -0.88,9.68 -0.38,2.69 -1.12,6.9 0.29,6.99 0.93,0.06 1.48,-5.64 3.01,-5.72 1.02,-0.06 3.84,4.22 6.39,5.01 2.49,0.77 8.79,0.6 8.43,-0.91 -0.94,-4.03 -3.49,-4.41 -6.65,-4.41 -1.94,0 -4.86,0.19 -5.49,-2.22z"/>
  <path class="fil3" d="M3.36 50.54c1.41,-0.24 2.68,-1.16 3.8,-2.74 0.52,-0.73 0.98,-1.25 1.38,-1.56 0.4,-0.3 0.82,-0.46 1.27,-0.46 0.18,0 0.36,0.08 0.53,0.24 0.18,0.16 0.27,0.35 0.27,0.57 0,0.29 -0.27,0.52 -0.83,0.69 -0.29,0.09 -0.57,0.24 -0.82,0.45 -0.26,0.21 -0.74,0.73 -1.45,1.54 -0.56,0.63 -1.06,1.07 -1.51,1.33 -0.04,0.02 -0.06,0.05 -0.06,0.06 0,0.02 0.03,0.05 0.08,0.07 0.43,0.24 0.89,0.68 1.38,1.35 0.7,0.97 1.23,1.58 1.58,1.84 0.35,0.25 0.75,0.38 1.21,0.38l0.3 -0.01c0.21,-0.01 0.31,0.08 0.31,0.28 0,0.23 -0.13,0.46 -0.38,0.71 -0.26,0.24 -0.68,0.37 -1.27,0.37 -0.45,0 -0.89,-0.19 -1.32,-0.59 -0.43,-0.39 -0.91,-1.02 -1.46,-1.9 -0.32,-0.52 -0.61,-0.91 -0.88,-1.18 -0.27,-0.27 -0.58,-0.4 -0.91,-0.4 -0.07,0 -0.29,0.06 -0.66,0.18 -0.37,0.12 -0.58,0.24 -0.62,0.34 -0.05,0.11 -0.08,0.51 -0.1,1.19 -0.02,0.68 -0.03,1.23 -0.03,1.65 0,0.22 -0.1,0.42 -0.31,0.59 -0.21,0.17 -0.44,0.26 -0.68,0.26 -0.25,0 -0.45,-0.07 -0.59,-0.22 -0.14,-0.15 -0.22,-0.3 -0.22,-0.45 0,-0.21 0.08,-0.72 0.24,-1.52 0.29,-1.45 0.57,-3.85 0.86,-7.19 0.02,-0.32 0.14,-0.61 0.37,-0.87 0.22,-0.26 0.47,-0.39 0.75,-0.39 0.16,0 0.28,0.09 0.39,0.25 0.1,0.17 0.16,0.38 0.16,0.64 0,0.21 -0.04,0.45 -0.11,0.72 -0.34,1.23 -0.55,2.49 -0.63,3.78zm14.99 0.81c-0.76,1.28 -1.54,2.27 -2.34,2.97 -0.8,0.7 -1.54,1.06 -2.22,1.06 -0.39,0 -0.79,-0.23 -1.2,-0.69 -0.41,-0.46 -0.61,-1.17 -0.61,-2.12 0,-0.78 0.19,-1.93 0.56,-3.45 0.31,-1.27 0.47,-2.16 0.47,-2.67 0.17,-0.36 0.45,-0.54 0.81,-0.54 0.25,0 0.45,0.09 0.6,0.27 0.15,0.17 0.22,0.36 0.22,0.55 0,0.42 -0.15,1.01 -0.44,1.78 -0.56,1.49 -0.83,2.78 -0.83,3.85 0,0.98 0.23,1.46 0.68,1.46 0.58,0 1.31,-0.49 2.2,-1.47 0.89,-0.98 1.66,-2.35 2.3,-4.11 0.25,-0.7 0.45,-1.16 0.61,-1.37 0.16,-0.21 0.37,-0.32 0.64,-0.32 0.4,0 0.61,0.27 0.61,0.8 0,0.06 -0.06,0.28 -0.17,0.65 -0.36,1.31 -0.54,2.54 -0.54,3.7 0,1.39 0.23,2.3 0.69,2.7 0.24,0.22 0.36,0.4 0.36,0.54 0,0.17 -0.12,0.32 -0.36,0.46 -0.24,0.14 -0.46,0.2 -0.66,0.2 -0.42,0 -0.75,-0.31 -1.01,-0.93 -0.26,-0.62 -0.38,-1.53 -0.38,-2.74l0 -0.3c0,-0.09 0,-0.19 0.01,-0.29zm7.73 -8.08c-0.12,0 -0.22,-0.13 -0.29,-0.4 -0.02,-0.08 -0.06,-0.17 -0.1,-0.28 -0.16,-0.38 -0.24,-0.72 -0.24,-1.01 0,-0.24 0.14,-0.48 0.42,-0.73 0.28,-0.25 0.6,-0.37 0.94,-0.37 0.17,0 0.37,0.07 0.58,0.2 0.21,0.13 0.32,0.26 0.32,0.39 0,0.2 -0.07,0.53 -0.22,1 -0.15,0.47 -0.38,0.79 -0.69,0.95 -0.32,0.16 -0.56,0.24 -0.73,0.24zm-1.17 9.98c0,0.45 0.06,0.96 0.19,1.53 0.02,0.11 0.03,0.19 0.03,0.27 0,0.11 -0.1,0.25 -0.29,0.42 -0.2,0.17 -0.41,0.25 -0.63,0.25 -0.58,0 -0.87,-0.53 -0.87,-1.59 0,-1.1 0.23,-2.83 0.68,-5.2 0.16,-0.83 0.23,-1.34 0.23,-1.53 0,-0.38 0.07,-0.7 0.21,-0.96 0.14,-0.27 0.33,-0.4 0.58,-0.4 0.3,0 0.54,0.07 0.72,0.22 0.18,0.15 0.26,0.31 0.26,0.49 0,0.18 -0.04,0.41 -0.13,0.7 -0.45,1.57 -0.72,2.7 -0.83,3.38 -0.11,0.68 -0.16,1.49 -0.16,2.42zm14.98 -5.84c-0.48,0.77 -1.16,2.08 -2.04,3.93 -0.19,0.41 -0.4,0.82 -0.6,1.2 -0.07,0.12 -0.19,0.4 -0.38,0.83 -0.63,1.45 -1.17,2.18 -1.64,2.18 -0.37,0 -0.64,-0.04 -0.81,-0.13 -0.17,-0.09 -0.33,-0.33 -0.48,-0.73 -0.16,-0.4 -0.38,-1.34 -0.69,-2.82 -0.35,-1.67 -0.59,-2.7 -0.71,-3.09 -0.41,0.91 -0.77,1.79 -1.08,2.64 -0.48,1.24 -0.94,2.26 -1.38,3.04 -0.45,0.78 -0.77,1.25 -0.96,1.41 -0.2,0.16 -0.38,0.24 -0.56,0.24 -0.18,0 -0.35,-0.07 -0.5,-0.21 -0.15,-0.14 -0.22,-0.28 -0.22,-0.42 0.04,-0.24 0.08,-0.4 0.13,-0.45 0.52,-0.64 0.96,-1.32 1.34,-2.04 0.38,-0.72 0.85,-1.8 1.44,-3.25 0.58,-1.44 0.95,-2.62 1.11,-3.55 0.08,-0.39 0.37,-0.59 0.87,-0.59 0.29,0 0.49,0.04 0.6,0.13 0.11,0.09 0.21,0.27 0.32,0.54 0.1,0.27 0.16,0.52 0.18,0.74 0.04,0.26 0.14,0.82 0.3,1.7 0.15,0.83 0.25,1.42 0.3,1.76 0.08,0.5 0.23,1.14 0.44,1.95 0.21,0.8 0.38,1.21 0.5,1.21 0.08,0 0.2,-0.18 0.36,-0.55l0.75 -1.74c0.14,-0.31 0.28,-0.63 0.44,-0.93l1.03 -2.1c0.56,-1.16 0.99,-1.99 1.29,-2.51 0.3,-0.52 0.5,-0.84 0.61,-0.94 0.1,-0.11 0.22,-0.16 0.35,-0.16 0.23,0 0.48,0.06 0.76,0.18 0.28,0.12 0.42,0.26 0.44,0.41 0.01,0.15 0.04,0.77 0.08,1.87l0.12 2.79c0.04,0.89 0.09,1.64 0.16,2.26 0.07,0.62 0.2,1.13 0.38,1.51 0.28,0.61 0.42,1.08 0.42,1.41 0,0.28 -0.12,0.48 -0.35,0.59 -0.24,0.11 -0.45,0.16 -0.66,0.16 -0.41,0 -0.74,-0.34 -0.96,-1 -0.22,-0.67 -0.38,-2.58 -0.49,-5.74 -0.04,-0.95 -0.09,-1.53 -0.17,-1.74z"/>
 </g>
</svg>
