<?xml version="1.0" encoding="UTF-8"?>
<!DOCTYPE svg PUBLIC "-//W3C//DTD SVG 1.1//EN" "http://www.w3.org/Graphics/SVG/1.1/DTD/svg11.dtd">
<!-- Creator: CorelDRAW 2020 -->
<svg xmlns="http://www.w3.org/2000/svg" xml:space="preserve" width="11mm" height="10mm" version="1.1" style="shape-rendering:geometricPrecision; text-rendering:geometricPrecision; image-rendering:optimizeQuality; fill-rule:evenodd; clip-rule:evenodd"
viewBox="0 0 168.71 153.37"
 xmlns:xlink="http://www.w3.org/1999/xlink"
 xmlns:xodm="http://www.corel.com/coreldraw/odm/2003">
 <defs>
  <style type="text/css">
   <![CDATA[
    .str0 {stroke:#B0CB1F;stroke-width:3.07;stroke-miterlimit:22.9256}
    .str1 {stroke:#B0CB1F;stroke-width:1.17;stroke-miterlimit:22.9256}
    .fil0 {fill:none}
    .fil1 {fill:#B0CB1F}
    .fil2 {fill:#B0CB1F;fill-rule:nonzero}
   ]]>
  </style>
 </defs>
 <g id="Layer_x0020_1">
  <metadata id="CorelCorpID_0Corel-Layer"/>
  <g id="_1092254920">
   <polygon class="fil0" points="-0,0 168.71,0 168.71,153.37 -0,153.37 "/>
   <g>
    <g>
     <path class="fil1 str0" d="M102.25 19.6l17.11 0c13.14,0 2.91,54.28 1.84,66.94 -0.36,4.33 -3.06,8.05 -6.8,8.05l-4.96 0c-3.74,0 -6.27,-3.66 -6.8,-8.05l-7.19 -58.9c-0.53,-4.38 3.06,-8.05 6.8,-8.05z"/>
     <path class="fil1 str0" d="M106.5 30.66l-7.98 -7.01c-0.92,-0.81 -2.2,-0.53 -2.85,0.6l-24.54 42.98c-0.65,1.14 -0.43,2.73 0.49,3.53l3.93 3.45c0.92,0.81 2.1,0.44 2.85,-0.6l28.59 -39.42c0.75,-1.04 0.43,-2.73 -0.49,-3.53z"/>
     <polygon class="fil1 str0" points="105.18,11.95 119.37,11.95 119.37,19.6 105.18,19.6 "/>
     <path class="fil1" d="M78.4 73.62l19.4 -26.75 -2.35 -19.22c-0.17,-1.42 0.09,-2.77 0.65,-3.94 -0.16,0.15 -0.3,0.33 -0.42,0.54l-24.54 42.98c-0.65,1.14 -0.43,2.73 0.49,3.53l3.93 3.45c0.92,0.81 2.1,0.44 2.85,-0.6z"/>
     <path class="fil1" d="M95.45 27.65l2.35 19.22 9.19 -12.67c0.75,-1.04 0.43,-2.73 -0.49,-3.53l-7.98 -7.01c-0.75,-0.66 -1.73,-0.6 -2.43,0.06 -0.56,1.17 -0.82,2.52 -0.65,3.94z"/>
     <polygon class="fil1" points="105.18,19.6 119.37,19.6 119.37,11.95 105.18,11.95 "/>
     <path class="fil1 str1" d="M119.37 19.6l-14.18 0 -2.93 0c-2.53,0 -4.99,1.67 -6.16,4.11 0.69,-0.66 1.68,-0.72 2.43,-0.06l7.98 7.01c0.92,0.8 1.24,2.49 0.49,3.53l-9.19 12.67 4.85 39.68c0.53,4.38 3.06,8.05 6.8,8.05l4.96 0c3.74,0 6.44,-3.72 6.8,-8.05 1.07,-12.66 11.29,-66.94 -1.84,-66.94z"/>
     <path class="fil1" d="M54.96 76.11c-2.04,-7.79 -1.76,-15.59 -3.3,-19.11 -0.56,-1.3 -1.38,-2.01 -2.63,-1.94 -1.44,0.08 -5.39,-0.45 -6.31,0.89 -2.27,3.32 -0.5,11.8 -2.1,23.18 -0.91,6.43 -2.69,16.52 0.69,16.73 2.23,0.15 3.55,-13.51 7.22,-13.71 2.44,-0.14 9.19,10.1 15.32,11.99 5.96,1.83 21.05,1.45 20.2,-2.17 -2.26,-9.66 -8.36,-10.56 -15.94,-10.56 -4.65,0 -11.63,0.45 -13.14,-5.31z"/>
    </g>
    <path class="fil2" d="M44.82 123.26c3.01,-0.52 5.7,-2.46 8.08,-5.83 1.12,-1.56 2.1,-2.66 2.94,-3.32 0.84,-0.65 1.74,-0.98 2.69,-0.98 0.38,0 0.76,0.17 1.14,0.51 0.38,0.34 0.57,0.75 0.57,1.22 0,0.62 -0.58,1.11 -1.77,1.47 -0.62,0.19 -1.21,0.51 -1.75,0.97 -0.55,0.45 -1.58,1.55 -3.1,3.27 -1.19,1.34 -2.27,2.29 -3.21,2.83 -0.09,0.05 -0.13,0.1 -0.13,0.13 0,0.05 0.06,0.1 0.17,0.15 0.92,0.5 1.9,1.45 2.93,2.88 1.49,2.06 2.62,3.37 3.36,3.91 0.75,0.54 1.6,0.81 2.57,0.81l0.63 -0.02c0.44,-0.03 0.66,0.17 0.66,0.59 0,0.48 -0.27,0.99 -0.82,1.51 -0.55,0.52 -1.45,0.78 -2.7,0.78 -0.96,0 -1.9,-0.41 -2.8,-1.25 -0.91,-0.83 -1.94,-2.18 -3.11,-4.04 -0.67,-1.1 -1.3,-1.94 -1.88,-2.51 -0.58,-0.57 -1.23,-0.86 -1.94,-0.86 -0.15,0 -0.62,0.12 -1.41,0.38 -0.79,0.25 -1.23,0.5 -1.32,0.73 -0.1,0.23 -0.17,1.08 -0.21,2.53 -0.04,1.45 -0.06,2.62 -0.06,3.51 0,0.47 -0.22,0.89 -0.66,1.26 -0.45,0.37 -0.93,0.55 -1.45,0.55 -0.53,0 -0.95,-0.15 -1.25,-0.47 -0.31,-0.31 -0.46,-0.63 -0.46,-0.96 0,-0.46 0.18,-1.53 0.51,-3.23 0.61,-3.1 1.22,-8.2 1.83,-15.32 0.05,-0.68 0.31,-1.3 0.78,-1.85 0.47,-0.55 1,-0.83 1.6,-0.83 0.33,0 0.6,0.18 0.82,0.53 0.22,0.36 0.34,0.81 0.34,1.37 0,0.45 -0.08,0.95 -0.23,1.52 -0.72,2.62 -1.17,5.31 -1.35,8.05zm31.92 1.73c-1.62,2.72 -3.29,4.84 -4.99,6.33 -1.69,1.5 -3.27,2.25 -4.73,2.25 -0.84,0 -1.69,-0.49 -2.56,-1.47 -0.87,-0.97 -1.3,-2.48 -1.3,-4.51 0,-1.66 0.4,-4.11 1.2,-7.34 0.67,-2.7 1.01,-4.6 1.01,-5.69 0.37,-0.76 0.95,-1.14 1.73,-1.14 0.53,0 0.96,0.19 1.27,0.56 0.32,0.37 0.47,0.76 0.47,1.17 0,0.89 -0.31,2.15 -0.93,3.79 -1.18,3.18 -1.77,5.91 -1.77,8.2 0,2.08 0.48,3.12 1.45,3.12 1.23,0 2.8,-1.05 4.69,-3.14 1.9,-2.1 3.53,-5.01 4.89,-8.75 0.53,-1.49 0.97,-2.47 1.31,-2.92 0.34,-0.45 0.79,-0.68 1.36,-0.68 0.86,0 1.29,0.57 1.29,1.71 0,0.14 -0.12,0.6 -0.36,1.39 -0.76,2.78 -1.14,5.4 -1.14,7.88 0,2.97 0.49,4.89 1.47,5.76 0.5,0.47 0.76,0.85 0.76,1.14 0,0.36 -0.25,0.68 -0.77,0.97 -0.51,0.29 -0.97,0.44 -1.4,0.44 -0.89,0 -1.6,-0.66 -2.15,-1.98 -0.55,-1.32 -0.82,-3.27 -0.82,-5.84l0 -0.63c0,-0.2 0.01,-0.41 0.02,-0.62zm16.45 -17.2c-0.27,0 -0.47,-0.29 -0.61,-0.86 -0.05,-0.18 -0.12,-0.37 -0.21,-0.59 -0.34,-0.82 -0.51,-1.54 -0.51,-2.15 0,-0.51 0.3,-1.02 0.9,-1.54 0.6,-0.53 1.27,-0.79 2.01,-0.79 0.37,0 0.78,0.14 1.24,0.43 0.46,0.29 0.68,0.56 0.68,0.82 0,0.42 -0.16,1.13 -0.47,2.14 -0.31,1 -0.81,1.68 -1.48,2.03 -0.68,0.35 -1.19,0.52 -1.55,0.52zm-2.49 21.25c0,0.96 0.14,2.04 0.4,3.25 0.05,0.23 0.07,0.42 0.07,0.56 0,0.23 -0.21,0.53 -0.62,0.89 -0.42,0.36 -0.86,0.54 -1.33,0.54 -1.23,0 -1.85,-1.13 -1.85,-3.38 0,-2.34 0.48,-6.03 1.44,-11.07 0.33,-1.77 0.49,-2.85 0.49,-3.25 0,-0.8 0.15,-1.48 0.44,-2.05 0.29,-0.57 0.7,-0.85 1.23,-0.85 0.65,0 1.15,0.15 1.53,0.47 0.38,0.31 0.56,0.65 0.56,1.04 0,0.38 -0.08,0.88 -0.27,1.5 -0.95,3.35 -1.54,5.75 -1.77,7.19 -0.23,1.44 -0.34,3.16 -0.34,5.15zm31.9 -12.44c-1.03,1.64 -2.47,4.43 -4.34,8.37 -0.42,0.88 -0.85,1.74 -1.27,2.56 -0.14,0.27 -0.41,0.86 -0.8,1.77 -1.33,3.09 -2.49,4.64 -3.48,4.64 -0.79,0 -1.36,-0.09 -1.72,-0.29 -0.36,-0.19 -0.7,-0.71 -1.03,-1.56 -0.33,-0.85 -0.82,-2.84 -1.47,-5.99 -0.75,-3.56 -1.25,-5.75 -1.52,-6.58 -0.86,1.94 -1.63,3.81 -2.31,5.61 -1.01,2.65 -1.99,4.81 -2.95,6.48 -0.95,1.66 -1.64,2.67 -2.05,3 -0.42,0.34 -0.82,0.51 -1.2,0.51 -0.39,0 -0.75,-0.15 -1.07,-0.46 -0.32,-0.3 -0.47,-0.6 -0.47,-0.9 0.08,-0.52 0.16,-0.84 0.27,-0.97 1.1,-1.36 2.05,-2.81 2.85,-4.34 0.8,-1.54 1.82,-3.84 3.06,-6.91 1.23,-3.06 2.03,-5.58 2.36,-7.55 0.17,-0.84 0.78,-1.25 1.84,-1.25 0.62,0 1.05,0.09 1.28,0.29 0.23,0.19 0.46,0.58 0.68,1.15 0.22,0.58 0.35,1.1 0.39,1.56 0.08,0.54 0.29,1.75 0.64,3.63 0.32,1.77 0.53,3.01 0.63,3.75 0.17,1.06 0.49,2.44 0.94,4.15 0.45,1.71 0.81,2.57 1.06,2.57 0.17,0 0.43,-0.39 0.76,-1.16l1.6 -3.69c0.29,-0.67 0.6,-1.33 0.93,-1.97l2.18 -4.47c1.19,-2.46 2.11,-4.24 2.75,-5.35 0.63,-1.11 1.07,-1.78 1.29,-2.01 0.22,-0.23 0.47,-0.34 0.75,-0.34 0.48,0 1.02,0.13 1.62,0.39 0.6,0.26 0.9,0.54 0.93,0.86 0.02,0.32 0.08,1.64 0.17,3.97l0.25 5.94c0.08,1.89 0.19,3.49 0.34,4.82 0.15,1.32 0.42,2.39 0.8,3.21 0.59,1.29 0.89,2.29 0.89,3.01 0,0.6 -0.25,1.02 -0.75,1.25 -0.51,0.23 -0.97,0.34 -1.4,0.34 -0.88,0 -1.57,-0.71 -2.05,-2.13 -0.47,-1.42 -0.82,-5.49 -1.03,-12.21 -0.08,-2.02 -0.2,-3.25 -0.36,-3.71z"/>
   </g>
  </g>
 </g>
</svg>
