<?xml version="1.0" encoding="UTF-8"?>
<!DOCTYPE svg PUBLIC "-//W3C//DTD SVG 1.1//EN" "http://www.w3.org/Graphics/SVG/1.1/DTD/svg11.dtd">
<!-- Creator: CorelDRAW 2020 -->
<svg xmlns="http://www.w3.org/2000/svg" xml:space="preserve" width="11mm" height="10.1mm" version="1.1" style="shape-rendering:geometricPrecision; text-rendering:geometricPrecision; image-rendering:optimizeQuality; fill-rule:evenodd; clip-rule:evenodd"
viewBox="0 0 168.71 154.91"
 xmlns:xlink="http://www.w3.org/1999/xlink"
 xmlns:xodm="http://www.corel.com/coreldraw/odm/2003">
 <defs>
  <style type="text/css">
   <![CDATA[
    .str0 {stroke:#C6B93A;stroke-width:3.07;stroke-miterlimit:22.9256}
    .fil0 {fill:none}
    .fil1 {fill:#C6B93A}
    .fil2 {fill:#C6B93A;fill-rule:nonzero}
   ]]>
  </style>
 </defs>
 <g id="Layer_x0020_1">
  <metadata id="CorelCorpID_0Corel-Layer"/>
  <g id="_2095219728">
   <polygon class="fil0" points="-0,0 168.71,0 168.71,153.37 -0,153.37 "/>
   <line class="fil0 str0" x1="34.51" y1="153.37" x2="134.2" y2= "153.37" />
   <path class="fil1" d="M106.97 22.44l-3.1 0c-2.68,0 -5.28,1.67 -6.51,4.11 -0.17,0.15 -0.32,0.33 -0.44,0.54l-25.97 42.98c-0.69,1.14 -0.46,2.73 0.52,3.53l4.16 3.45c0.97,0.81 2.22,0.44 3.01,-0.6l20.52 -26.75 5.13 39.68c0.56,4.38 3.24,8.05 7.2,8.05l5.25 0c3.96,0 6.81,-3.72 7.2,-8.05 1.13,-12.66 11.95,-66.94 -1.95,-66.94l0 -7.65 -15.01 0 0 7.65z"/>
   <path class="fil1" d="M53.98 78.49c-2.04,-7.79 -1.76,-15.59 -3.3,-19.11 -0.56,-1.3 -1.38,-2.01 -2.63,-1.94 -1.44,0.08 -5.39,-0.45 -6.31,0.89 -2.27,3.32 -0.5,11.8 -2.1,23.18 -0.91,6.43 -2.69,16.52 0.69,16.73 2.23,0.15 3.55,-13.51 7.22,-13.71 2.44,-0.14 9.19,10.1 15.32,11.99 5.96,1.83 21.05,1.45 20.2,-2.17 -2.26,-9.66 -8.36,-10.56 -15.94,-10.56 -4.65,0 -11.63,0.45 -13.14,-5.31z"/>
   <path class="fil2" d="M39.88 122.28c3.38,-0.58 6.41,-2.77 9.1,-6.55 1.26,-1.75 2.36,-3 3.31,-3.73 0.95,-0.73 1.96,-1.1 3.03,-1.1 0.42,0 0.85,0.2 1.28,0.58 0.43,0.39 0.64,0.85 0.64,1.37 0,0.7 -0.66,1.25 -1.99,1.65 -0.7,0.21 -1.36,0.58 -1.97,1.09 -0.62,0.51 -1.78,1.74 -3.48,3.68 -1.34,1.51 -2.55,2.57 -3.62,3.18 -0.1,0.06 -0.15,0.11 -0.15,0.15 0,0.06 0.07,0.12 0.2,0.17 1.04,0.56 2.14,1.63 3.29,3.23 1.68,2.32 2.94,3.79 3.78,4.4 0.85,0.61 1.81,0.9 2.89,0.9l0.71 -0.02c0.5,-0.03 0.74,0.2 0.74,0.67 0,0.54 -0.31,1.11 -0.92,1.69 -0.61,0.59 -1.63,0.88 -3.04,0.88 -1.08,0 -2.13,-0.47 -3.15,-1.4 -1.02,-0.93 -2.18,-2.45 -3.5,-4.55 -0.76,-1.24 -1.46,-2.19 -2.12,-2.82 -0.66,-0.64 -1.39,-0.96 -2.18,-0.96 -0.17,0 -0.7,0.14 -1.59,0.42 -0.88,0.29 -1.38,0.56 -1.48,0.83 -0.11,0.26 -0.19,1.21 -0.24,2.85 -0.04,1.63 -0.07,2.95 -0.07,3.94 0,0.53 -0.25,1 -0.75,1.42 -0.5,0.41 -1.04,0.62 -1.63,0.62 -0.6,0 -1.07,-0.18 -1.41,-0.53 -0.34,-0.35 -0.52,-0.71 -0.52,-1.08 0,-0.51 0.2,-1.72 0.58,-3.64 0.69,-3.48 1.37,-9.23 2.06,-17.23 0.05,-0.77 0.34,-1.46 0.88,-2.08 0.53,-0.62 1.13,-0.94 1.8,-0.94 0.37,0 0.68,0.21 0.93,0.6 0.25,0.4 0.38,0.91 0.38,1.54 0,0.5 -0.09,1.07 -0.26,1.72 -0.81,2.95 -1.31,5.97 -1.52,9.05zm35.91 1.95c-1.83,3.06 -3.7,5.44 -5.61,7.12 -1.91,1.69 -3.68,2.53 -5.33,2.53 -0.94,0 -1.9,-0.55 -2.88,-1.65 -0.98,-1.1 -1.47,-2.79 -1.47,-5.07 0,-1.87 0.45,-4.62 1.35,-8.26 0.75,-3.04 1.13,-5.17 1.13,-6.4 0.42,-0.85 1.07,-1.29 1.95,-1.29 0.6,0 1.07,0.21 1.43,0.63 0.36,0.42 0.53,0.85 0.53,1.32 0,1 -0.35,2.42 -1.04,4.26 -1.33,3.58 -1.99,6.65 -1.99,9.23 0,2.34 0.54,3.51 1.63,3.51 1.38,0 3.15,-1.18 5.28,-3.53 2.14,-2.36 3.97,-5.64 5.5,-9.85 0.6,-1.68 1.09,-2.78 1.47,-3.29 0.38,-0.5 0.89,-0.76 1.53,-0.76 0.96,0 1.45,0.64 1.45,1.93 0,0.15 -0.14,0.68 -0.41,1.56 -0.85,3.13 -1.28,6.08 -1.28,8.86 0,3.34 0.55,5.5 1.65,6.48 0.57,0.53 0.85,0.96 0.85,1.29 0,0.4 -0.29,0.77 -0.87,1.09 -0.58,0.33 -1.1,0.49 -1.57,0.49 -1,0 -1.8,-0.75 -2.42,-2.23 -0.62,-1.48 -0.92,-3.67 -0.92,-6.57l0 -0.71c0,-0.23 0.01,-0.46 0.02,-0.7zm18.51 -19.35c-0.3,0 -0.53,-0.32 -0.69,-0.96 -0.06,-0.2 -0.13,-0.42 -0.23,-0.66 -0.39,-0.92 -0.58,-1.73 -0.58,-2.42 0,-0.57 0.33,-1.15 1.02,-1.74 0.68,-0.59 1.43,-0.89 2.26,-0.89 0.41,0 0.88,0.16 1.39,0.48 0.51,0.32 0.77,0.63 0.77,0.93 0,0.48 -0.17,1.27 -0.53,2.4 -0.35,1.13 -0.9,1.89 -1.66,2.28 -0.77,0.39 -1.35,0.59 -1.75,0.59zm-2.81 23.91c0,1.08 0.15,2.3 0.45,3.66 0.06,0.25 0.08,0.47 0.08,0.63 0,0.26 -0.23,0.59 -0.7,1 -0.48,0.4 -0.97,0.61 -1.5,0.61 -1.39,0 -2.08,-1.27 -2.08,-3.81 0,-2.63 0.54,-6.78 1.62,-12.45 0.37,-1.99 0.56,-3.21 0.56,-3.66 0,-0.9 0.17,-1.67 0.5,-2.3 0.33,-0.64 0.79,-0.96 1.39,-0.96 0.73,0 1.3,0.18 1.72,0.53 0.42,0.35 0.63,0.74 0.63,1.17 0,0.42 -0.1,0.99 -0.3,1.69 -1.07,3.77 -1.73,6.46 -1.99,8.09 -0.25,1.62 -0.39,3.56 -0.39,5.8zm35.89 -13.99c-1.15,1.85 -2.78,4.99 -4.88,9.42 -0.47,0.99 -0.95,1.96 -1.43,2.88 -0.16,0.3 -0.46,0.96 -0.9,1.99 -1.5,3.48 -2.81,5.22 -3.92,5.22 -0.88,0 -1.53,-0.1 -1.94,-0.32 -0.4,-0.21 -0.79,-0.8 -1.16,-1.75 -0.37,-0.96 -0.92,-3.2 -1.65,-6.74 -0.84,-4 -1.41,-6.47 -1.71,-7.4 -0.97,2.18 -1.83,4.29 -2.59,6.31 -1.14,2.98 -2.24,5.41 -3.32,7.29 -1.07,1.87 -1.84,3 -2.31,3.37 -0.48,0.38 -0.92,0.57 -1.35,0.57 -0.44,0 -0.84,-0.17 -1.2,-0.51 -0.36,-0.34 -0.54,-0.68 -0.54,-1.01 0.09,-0.58 0.18,-0.95 0.3,-1.09 1.24,-1.53 2.31,-3.16 3.21,-4.88 0.9,-1.73 2.05,-4.32 3.44,-7.77 1.39,-3.45 2.28,-6.28 2.66,-8.49 0.19,-0.94 0.88,-1.41 2.07,-1.41 0.7,0 1.18,0.1 1.44,0.32 0.26,0.21 0.51,0.65 0.76,1.3 0.25,0.66 0.39,1.24 0.44,1.76 0.09,0.61 0.33,1.97 0.72,4.08 0.36,1.99 0.6,3.39 0.71,4.21 0.2,1.19 0.55,2.74 1.06,4.67 0.5,1.93 0.9,2.89 1.19,2.89 0.2,0 0.48,-0.44 0.85,-1.31l1.8 -4.16c0.33,-0.75 0.68,-1.5 1.05,-2.22l2.45 -5.03c1.35,-2.77 2.37,-4.77 3.1,-6.02 0.71,-1.25 1.21,-2 1.45,-2.26 0.25,-0.26 0.53,-0.39 0.85,-0.39 0.54,0 1.15,0.15 1.82,0.44 0.67,0.29 1.02,0.61 1.04,0.97 0.03,0.36 0.1,1.85 0.2,4.47l0.28 6.68c0.09,2.13 0.21,3.93 0.39,5.42 0.17,1.49 0.47,2.69 0.9,3.61 0.67,1.45 1,2.58 1,3.38 0,0.68 -0.28,1.15 -0.84,1.41 -0.57,0.25 -1.09,0.39 -1.58,0.39 -0.99,0 -1.76,-0.8 -2.3,-2.4 -0.54,-1.6 -0.92,-6.18 -1.16,-13.74 -0.09,-2.27 -0.23,-3.66 -0.41,-4.17z"/>
  </g>
 </g>
</svg>
