<?xml version="1.0" encoding="UTF-8"?>
<!DOCTYPE svg PUBLIC "-//W3C//DTD SVG 1.1//EN" "http://www.w3.org/Graphics/SVG/1.1/DTD/svg11.dtd">
<!-- Creator: CorelDRAW 2020 -->
<svg xmlns="http://www.w3.org/2000/svg" xml:space="preserve" width="7.2619mm" height="8.7415mm" version="1.1" style="shape-rendering:geometricPrecision; text-rendering:geometricPrecision; image-rendering:optimizeQuality; fill-rule:evenodd; clip-rule:evenodd"
viewBox="0 0 36.61 44.07"
 xmlns:xlink="http://www.w3.org/1999/xlink"
 xmlns:xodm="http://www.corel.com/coreldraw/odm/2003">
 <defs>
  <style type="text/css">
   <![CDATA[
    .str0 {stroke:#C6B93A;stroke-width:2.52;stroke-miterlimit:22.9256}
    .str1 {stroke:#C6B93A;stroke-width:1.01;stroke-miterlimit:22.9256}
    .fil0 {fill:none}
    .fil3 {fill:#FEFEFE}
    .fil1 {fill:#C6B93A}
    .fil2 {fill:#C6B93A;fill-rule:nonzero}
   ]]>
  </style>
 </defs>
 <g id="Layer_x0020_1">
  <metadata id="CorelCorpID_0Corel-Layer"/>
  <path class="fil0 str0" d="M16.56 14.07c-7.95,0 -12.85,5.48 -12.85,7.96 0,1.55 -0.14,3.02 3.75,3.02 8.46,0 13,0 21.23,0.02 4.3,0.01 3.82,-1.39 3.82,-3.04 0,-1.28 -0.46,-6.5 -3.21,-7.32 -2.58,-0.76 -8.89,-0.64 -12.73,-0.64z"/>
  <line class="fil0 str0" x1="5.54" y1="26.7" x2="11.32" y2= "26.7" />
  <line class="fil0 str0" x1="1.16" y1="28.95" x2="16.39" y2= "28.95" />
  <path class="fil1 str1" d="M17.33 14.07l0 7.96 -13.62 0c0,1.55 -0.14,3.02 3.75,3.02 8.46,0 13,0 21.23,0.02 4.3,0.01 3.82,-1.39 3.82,-3.04 0,-1.28 -0.46,-6.5 -3.21,-7.32 -2.41,-0.71 -8.09,-0.65 -11.96,-0.64z"/>
  <path class="fil2" d="M1.59 39.94c1.11,-0.19 2.11,-0.91 2.99,-2.15 0.41,-0.58 0.78,-0.98 1.09,-1.23 0.31,-0.24 0.64,-0.36 1,-0.36 0.14,0 0.28,0.06 0.42,0.19 0.14,0.13 0.21,0.28 0.21,0.45 0,0.23 -0.22,0.41 -0.65,0.54 -0.23,0.07 -0.45,0.19 -0.65,0.36 -0.2,0.17 -0.58,0.57 -1.14,1.21 -0.44,0.5 -0.84,0.85 -1.19,1.05 -0.03,0.02 -0.05,0.04 -0.05,0.05 0,0.02 0.02,0.04 0.06,0.06 0.34,0.19 0.7,0.54 1.08,1.06 0.55,0.76 0.97,1.25 1.24,1.45 0.28,0.2 0.59,0.3 0.95,0.3l0.23 -0.01c0.16,-0.01 0.24,0.07 0.24,0.22 0,0.18 -0.1,0.37 -0.3,0.56 -0.2,0.19 -0.54,0.29 -1,0.29 -0.36,0 -0.7,-0.15 -1.04,-0.46 -0.34,-0.31 -0.72,-0.81 -1.15,-1.5 -0.25,-0.41 -0.48,-0.72 -0.7,-0.93 -0.22,-0.21 -0.46,-0.32 -0.72,-0.32 -0.05,0 -0.23,0.05 -0.52,0.14 -0.29,0.09 -0.45,0.19 -0.49,0.27 -0.04,0.09 -0.06,0.4 -0.08,0.94 -0.01,0.54 -0.02,0.97 -0.02,1.3 0,0.17 -0.08,0.33 -0.25,0.47 -0.17,0.13 -0.34,0.2 -0.54,0.2 -0.2,0 -0.35,-0.06 -0.46,-0.17 -0.11,-0.12 -0.17,-0.23 -0.17,-0.36 0,-0.17 0.07,-0.57 0.19,-1.2 0.23,-1.15 0.45,-3.03 0.68,-5.66 0.02,-0.25 0.11,-0.48 0.29,-0.68 0.17,-0.2 0.37,-0.31 0.59,-0.31 0.12,0 0.22,0.07 0.31,0.2 0.08,0.13 0.13,0.3 0.13,0.51 0,0.17 -0.03,0.35 -0.09,0.56 -0.27,0.97 -0.43,1.96 -0.5,2.98zm18.8 -2.03c-0.11,-0 -0.22,0.1 -0.33,0.32 -0.97,1.94 -1.7,3.26 -2.2,3.95 -0.04,0.06 -0.1,0.15 -0.16,0.27 -0.59,1.04 -1.02,1.57 -1.29,1.57 -0.37,0 -0.55,-0.18 -0.55,-0.53 0,-0.32 0.23,-0.75 0.68,-1.3 0.44,-0.52 1.02,-1.4 1.74,-2.65 0.72,-1.24 1.3,-2.36 1.75,-3.35 0.08,-0.18 0.21,-0.27 0.38,-0.27 0.07,0 0.2,0.03 0.38,0.1 0.18,0.06 0.29,0.13 0.35,0.21 0.05,0.07 0.17,0.51 0.34,1.31 0.58,2.87 1.19,4.58 1.82,5.11 0.15,0.13 0.24,0.22 0.27,0.26 0.03,0.04 0.04,0.1 0.04,0.18 0,0.15 -0.05,0.28 -0.14,0.4 -0.1,0.12 -0.19,0.19 -0.28,0.23 -0.09,0.03 -0.27,0.05 -0.55,0.05 -0.1,0 -0.33,-0.24 -0.69,-0.73 -0.36,-0.49 -0.79,-1.81 -1.27,-3.97 -0.12,-0.58 -0.22,-0.97 -0.3,-1.17zm6.92 -3.69c-0.1,0 -0.17,-0.11 -0.23,-0.32 -0.02,-0.07 -0.04,-0.14 -0.08,-0.22 -0.13,-0.3 -0.19,-0.57 -0.19,-0.8 0,-0.19 0.11,-0.38 0.33,-0.57 0.22,-0.19 0.47,-0.29 0.74,-0.29 0.14,0 0.29,0.05 0.46,0.16 0.17,0.11 0.25,0.21 0.25,0.31 0,0.16 -0.06,0.42 -0.17,0.79 -0.12,0.37 -0.3,0.62 -0.55,0.75 -0.25,0.13 -0.44,0.19 -0.57,0.19zm-0.92 7.86c0,0.36 0.05,0.76 0.15,1.2 0.02,0.08 0.03,0.15 0.03,0.21 0,0.09 -0.08,0.19 -0.23,0.33 -0.16,0.13 -0.32,0.2 -0.49,0.2 -0.46,0 -0.68,-0.42 -0.68,-1.25 0,-0.86 0.18,-2.23 0.53,-4.09 0.12,-0.65 0.18,-1.05 0.18,-1.2 0,-0.3 0.06,-0.55 0.16,-0.76 0.11,-0.21 0.26,-0.31 0.46,-0.31 0.24,0 0.43,0.06 0.57,0.17 0.14,0.11 0.21,0.24 0.21,0.38 0,0.14 -0.03,0.33 -0.1,0.56 -0.35,1.24 -0.57,2.12 -0.65,2.66 -0.08,0.53 -0.13,1.17 -0.13,1.91zm4.25 -2.14c1.11,-0.19 2.11,-0.91 2.99,-2.15 0.41,-0.58 0.78,-0.98 1.09,-1.23 0.31,-0.24 0.64,-0.36 1,-0.36 0.14,0 0.28,0.06 0.42,0.19 0.14,0.13 0.21,0.28 0.21,0.45 0,0.23 -0.22,0.41 -0.65,0.54 -0.23,0.07 -0.45,0.19 -0.65,0.36 -0.2,0.17 -0.58,0.57 -1.14,1.21 -0.44,0.5 -0.84,0.85 -1.19,1.05 -0.03,0.02 -0.05,0.04 -0.05,0.05 0,0.02 0.02,0.04 0.07,0.06 0.34,0.19 0.7,0.54 1.08,1.06 0.55,0.76 0.97,1.25 1.24,1.45 0.28,0.2 0.59,0.3 0.95,0.3l0.23 -0.01c0.16,-0.01 0.24,0.07 0.24,0.22 0,0.18 -0.1,0.37 -0.3,0.56 -0.2,0.19 -0.54,0.29 -1,0.29 -0.36,0 -0.7,-0.15 -1.04,-0.46 -0.34,-0.31 -0.72,-0.81 -1.15,-1.5 -0.25,-0.41 -0.48,-0.72 -0.7,-0.93 -0.22,-0.21 -0.46,-0.32 -0.72,-0.32 -0.05,0 -0.23,0.05 -0.52,0.14 -0.29,0.09 -0.45,0.19 -0.49,0.27 -0.04,0.09 -0.06,0.4 -0.08,0.94 -0.01,0.54 -0.02,0.97 -0.02,1.3 0,0.17 -0.08,0.33 -0.25,0.47 -0.17,0.13 -0.34,0.2 -0.54,0.2 -0.2,0 -0.35,-0.06 -0.46,-0.17 -0.11,-0.12 -0.17,-0.23 -0.17,-0.36 0,-0.17 0.07,-0.57 0.19,-1.2 0.23,-1.15 0.45,-3.03 0.68,-5.66 0.02,-0.25 0.11,-0.48 0.29,-0.68 0.17,-0.2 0.37,-0.31 0.59,-0.31 0.12,0 0.22,0.07 0.31,0.2 0.08,0.13 0.13,0.3 0.13,0.51 0,0.17 -0.03,0.35 -0.09,0.56 -0.27,0.97 -0.43,1.96 -0.5,2.98zm-15.68 -0.14c0,1.74 -0.56,2.92 -1.69,3.55 -0.55,0.31 -1.15,0.46 -1.8,0.46 -1.13,0 -2.01,-0.37 -2.63,-1.12 -0.58,-0.69 -0.86,-1.62 -0.86,-2.78 0,-1.38 0.38,-2.4 1.15,-3.07 0.64,-0.55 1.42,-0.83 2.35,-0.83 1.1,0 1.96,0.36 2.59,1.09 0.6,0.69 0.9,1.59 0.9,2.7zm-1.33 -0.61c-0.08,-0.6 -0.28,-1.08 -0.59,-1.42 -0.42,-0.47 -0.95,-0.71 -1.58,-0.71 -0.64,0 -1.17,0.24 -1.58,0.71 -0.31,0.35 -0.51,0.82 -0.59,1.42l4.34 0zm0.03 1.04l-4.39 0c0.04,0.72 0.23,1.31 0.57,1.76 0.39,0.52 0.94,0.77 1.63,0.77 0.69,0 1.23,-0.26 1.62,-0.78 0.34,-0.45 0.53,-1.03 0.57,-1.76z"/>
  <path class="fil0 str0" d="M35.37 29.83c-0.24,-1.47 -2.28,-3.7 -2.88,-0.89 -0.33,1.54 -2.94,2.75 -3.82,-0.1 -0.43,-1.41 -2.98,-2.02 -3.94,0.36 -0.41,1.01 -1.76,2.5 -2.99,1.63 -1.81,-1.28 -1.11,-3.83 -3.2,-3.15 -0.73,0.24 -1.09,1.26 -2.19,1.26"/>
  <rect class="fil1" transform="matrix(0.0867544 -0.267462 0.881458 0.36 25.1291 8.75297)" width="34.77" height="3.75" rx="1.88" ry="1.88"/>
  <g id="atau-belgi.svg">
   <path class="fil1" d="M18.01 4.78c-8.66,0.43 -11.54,2.14 -12.39,3.14 -0.74,0.87 -0.53,2.29 5.65,2.34 2,0 7.84,-0 12.62,0 5.94,0 7.59,-1.49 7.46,-2.77 -0.26,-2.33 -6.94,-3.02 -13.33,-2.71z"/>
   <path class="fil3" d="M9.33 8.1c0,-0.61 0.45,-1.11 0.99,-1.11 0.55,0 0.99,0.5 0.99,1.11 0,0.61 -0.45,1.11 -0.99,1.11 -0.55,0 -0.99,-0.5 -0.99,-1.11z"/>
  </g>
 </g>
</svg>
