<?xml version="1.0" encoding="UTF-8"?>
<!DOCTYPE svg PUBLIC "-//W3C//DTD SVG 1.1//EN" "http://www.w3.org/Graphics/SVG/1.1/DTD/svg11.dtd">
<!-- Creator: CorelDRAW 2020 -->
<svg xmlns="http://www.w3.org/2000/svg" xml:space="preserve" width="11mm" height="10mm" version="1.1" style="shape-rendering:geometricPrecision; text-rendering:geometricPrecision; image-rendering:optimizeQuality; fill-rule:evenodd; clip-rule:evenodd"
viewBox="0 0 104.56 95.06"
 xmlns:xlink="http://www.w3.org/1999/xlink"
 xmlns:xodm="http://www.corel.com/coreldraw/odm/2003">
 <defs>
  <style type="text/css">
   <![CDATA[
    .str0 {stroke:#F5B2B6;stroke-width:4.75;stroke-miterlimit:22.9256}
    .str1 {stroke:#F5B2B6;stroke-width:1.9;stroke-miterlimit:22.9256}
    .fil0 {fill:none}
    .fil3 {fill:#FEFEFE}
    .fil2 {fill:#F5B2B6}
    .fil1 {fill:#F5B2B6;fill-rule:nonzero}
   ]]>
  </style>
 </defs>
 <g id="Layer_x0020_1">
  <metadata id="CorelCorpID_0Corel-Layer"/>
  <g id="_1090652600">
   <polygon class="fil0" points="-0,0 104.56,0 104.56,95.06 -0,95.06 "/>
   <g>
    <path class="fil1" d="M24.38 76.8c1.86,-0.32 3.53,-1.52 5.01,-3.61 0.69,-0.97 1.3,-1.65 1.82,-2.06 0.52,-0.4 1.08,-0.61 1.67,-0.61 0.23,0 0.47,0.11 0.7,0.32 0.24,0.21 0.35,0.47 0.35,0.76 0,0.39 -0.36,0.69 -1.09,0.91 -0.39,0.12 -0.75,0.32 -1.09,0.6 -0.34,0.28 -0.98,0.96 -1.92,2.03 -0.74,0.83 -1.4,1.42 -1.99,1.75 -0.06,0.03 -0.08,0.06 -0.08,0.08 0,0.03 0.04,0.06 0.11,0.09 0.57,0.31 1.18,0.9 1.81,1.78 0.93,1.28 1.62,2.09 2.08,2.42 0.47,0.33 0.99,0.5 1.59,0.5l0.39 -0.01c0.27,-0.02 0.41,0.11 0.41,0.37 0,0.3 -0.17,0.61 -0.51,0.93 -0.34,0.32 -0.9,0.48 -1.67,0.48 -0.6,0 -1.17,-0.26 -1.74,-0.77 -0.56,-0.52 -1.2,-1.35 -1.93,-2.51 -0.42,-0.68 -0.81,-1.2 -1.17,-1.55 -0.36,-0.35 -0.76,-0.53 -1.2,-0.53 -0.09,0 -0.39,0.08 -0.87,0.23 -0.49,0.16 -0.76,0.31 -0.82,0.46 -0.06,0.14 -0.1,0.67 -0.13,1.57 -0.02,0.9 -0.04,1.63 -0.04,2.17 0,0.29 -0.14,0.55 -0.41,0.78 -0.28,0.23 -0.58,0.34 -0.9,0.34 -0.33,0 -0.59,-0.1 -0.78,-0.29 -0.19,-0.19 -0.29,-0.39 -0.29,-0.6 0,-0.28 0.11,-0.95 0.32,-2 0.38,-1.92 0.76,-5.08 1.13,-9.49 0.03,-0.42 0.19,-0.81 0.48,-1.15 0.29,-0.34 0.62,-0.51 0.99,-0.51 0.21,0 0.37,0.11 0.51,0.33 0.14,0.22 0.21,0.5 0.21,0.85 0,0.28 -0.05,0.59 -0.14,0.95 -0.45,1.63 -0.72,3.29 -0.84,4.99zm31.5 -3.41c-0.19,-0.01 -0.37,0.17 -0.55,0.54 -1.63,3.26 -2.86,5.46 -3.69,6.63 -0.07,0.1 -0.16,0.25 -0.27,0.45 -0.98,1.75 -1.7,2.63 -2.16,2.63 -0.61,0 -0.92,-0.29 -0.92,-0.88 0,-0.53 0.38,-1.26 1.14,-2.18 0.74,-0.87 1.71,-2.35 2.91,-4.44 1.2,-2.08 2.18,-3.96 2.93,-5.62 0.14,-0.3 0.35,-0.45 0.63,-0.45 0.12,0 0.33,0.05 0.63,0.16 0.3,0.1 0.49,0.22 0.58,0.35 0.08,0.12 0.28,0.86 0.58,2.19 0.97,4.82 1.99,7.67 3.05,8.57 0.25,0.22 0.4,0.37 0.45,0.44 0.04,0.07 0.07,0.18 0.07,0.31 0,0.25 -0.08,0.47 -0.23,0.67 -0.16,0.2 -0.31,0.33 -0.46,0.38 -0.15,0.06 -0.46,0.08 -0.92,0.08 -0.17,0 -0.55,-0.41 -1.15,-1.22 -0.61,-0.81 -1.32,-3.03 -2.12,-6.65 -0.2,-0.98 -0.36,-1.63 -0.5,-1.96zm11.6 -6.18c-0.17,0 -0.29,-0.18 -0.38,-0.53 -0.03,-0.11 -0.07,-0.23 -0.13,-0.37 -0.21,-0.51 -0.32,-0.95 -0.32,-1.33 0,-0.31 0.18,-0.63 0.56,-0.96 0.37,-0.33 0.79,-0.49 1.24,-0.49 0.23,0 0.48,0.09 0.77,0.27 0.28,0.18 0.42,0.35 0.42,0.51 0,0.26 -0.1,0.7 -0.29,1.32 -0.19,0.62 -0.5,1.04 -0.92,1.26 -0.42,0.21 -0.74,0.32 -0.96,0.32zm-1.55 13.17c0,0.6 0.08,1.27 0.25,2.02 0.03,0.14 0.04,0.26 0.04,0.35 0,0.14 -0.13,0.33 -0.39,0.55 -0.26,0.22 -0.54,0.33 -0.83,0.33 -0.76,0 -1.14,-0.7 -1.14,-2.1 0,-1.45 0.3,-3.73 0.89,-6.86 0.21,-1.1 0.31,-1.77 0.31,-2.02 0,-0.49 0.09,-0.92 0.27,-1.27 0.18,-0.35 0.43,-0.53 0.76,-0.53 0.4,0 0.72,0.1 0.95,0.29 0.23,0.19 0.35,0.41 0.35,0.64 0,0.23 -0.05,0.55 -0.17,0.93 -0.59,2.08 -0.95,3.56 -1.1,4.46 -0.14,0.89 -0.21,1.96 -0.21,3.19zm7.12 -3.59c1.86,-0.32 3.53,-1.52 5.01,-3.61 0.69,-0.97 1.3,-1.65 1.82,-2.06 0.52,-0.4 1.08,-0.61 1.67,-0.61 0.23,0 0.47,0.11 0.7,0.32 0.24,0.21 0.35,0.47 0.35,0.76 0,0.39 -0.36,0.69 -1.09,0.91 -0.39,0.12 -0.75,0.32 -1.09,0.6 -0.34,0.28 -0.98,0.96 -1.92,2.03 -0.74,0.83 -1.4,1.42 -1.99,1.75 -0.06,0.03 -0.08,0.06 -0.08,0.08 0,0.03 0.04,0.06 0.11,0.09 0.57,0.31 1.18,0.9 1.82,1.78 0.92,1.28 1.62,2.09 2.08,2.42 0.47,0.33 0.99,0.5 1.59,0.5l0.39 -0.01c0.27,-0.02 0.41,0.11 0.41,0.37 0,0.3 -0.17,0.61 -0.51,0.93 -0.34,0.32 -0.9,0.48 -1.67,0.48 -0.6,0 -1.17,-0.26 -1.74,-0.77 -0.56,-0.52 -1.2,-1.35 -1.93,-2.51 -0.42,-0.68 -0.81,-1.2 -1.17,-1.55 -0.36,-0.35 -0.76,-0.53 -1.2,-0.53 -0.09,0 -0.39,0.08 -0.87,0.23 -0.49,0.16 -0.76,0.31 -0.82,0.46 -0.06,0.14 -0.1,0.67 -0.13,1.57 -0.02,0.9 -0.04,1.63 -0.04,2.17 0,0.29 -0.14,0.55 -0.41,0.78 -0.28,0.23 -0.58,0.34 -0.9,0.34 -0.33,0 -0.59,-0.1 -0.78,-0.29 -0.19,-0.19 -0.29,-0.39 -0.29,-0.6 0,-0.28 0.11,-0.95 0.32,-2 0.38,-1.92 0.76,-5.08 1.13,-9.49 0.03,-0.42 0.19,-0.81 0.48,-1.15 0.29,-0.34 0.62,-0.51 0.99,-0.51 0.21,0 0.37,0.11 0.51,0.33 0.14,0.22 0.21,0.5 0.21,0.85 0,0.28 -0.05,0.59 -0.14,0.95 -0.45,1.63 -0.73,3.29 -0.84,4.99zm-26.28 -0.24c0,2.92 -0.94,4.9 -2.83,5.94 -0.92,0.51 -1.93,0.76 -3.02,0.76 -1.9,0 -3.37,-0.62 -4.41,-1.87 -0.97,-1.16 -1.45,-2.72 -1.45,-4.66 0,-2.31 0.64,-4.03 1.93,-5.14 1.08,-0.93 2.38,-1.39 3.93,-1.39 1.84,0 3.29,0.61 4.34,1.82 1,1.15 1.51,2.66 1.51,4.53zm-2.22 -1.02c-0.13,-1.01 -0.46,-1.81 -0.98,-2.39 -0.7,-0.79 -1.59,-1.19 -2.64,-1.19 -1.07,0 -1.96,0.39 -2.66,1.19 -0.52,0.58 -0.85,1.38 -0.99,2.39l7.27 0zm0.05 1.74l-7.36 0c0.06,1.21 0.38,2.19 0.96,2.95 0.66,0.87 1.57,1.3 2.73,1.3 1.15,0 2.06,-0.43 2.72,-1.31 0.57,-0.75 0.88,-1.73 0.96,-2.94z"/>
    <g>
     <path class="fil0 str0" d="M49.59 33.31c-14.99,0 -24.23,10.34 -24.23,15 0,2.93 -0.26,5.69 7.07,5.69 15.95,0 24.51,0 40.02,0.05 8.11,0.02 7.2,-2.62 7.2,-5.73 0,-2.41 -0.86,-12.26 -6.06,-13.8 -4.87,-1.44 -16.76,-1.21 -24.01,-1.21z"/>
     <line class="fil0 str0" x1="30.73" y1="57.13" x2="41.63" y2= "57.13" />
     <path class="fil2 str1" d="M51.06 33.31l0 15.01 -25.69 0c0,2.93 -0.26,5.69 7.06,5.69 15.95,0 24.51,0 40.02,0.05 8.11,0.02 7.2,-2.61 7.2,-5.73 0,-2.41 -0.86,-12.26 -6.06,-13.8 -4.55,-1.35 -15.25,-1.23 -22.54,-1.21z"/>
     <path class="fil2" d="M66.79 20.09l3.62 -11.15c0.57,-1.76 2.44,-2.62 4.15,-1.92l0 0c1.71,0.7 2.65,2.71 2.08,4.47l-3.62 11.14c-0.57,1.76 -2.44,2.62 -4.15,1.92l-0 -0c-1.71,-0.7 -2.65,-2.71 -2.08,-4.47z"/>
     <g id="atau-belgi.svg">
      <path class="fil2" d="M52.33 15.8c-16.32,0.81 -21.76,4.03 -23.36,5.92 -1.4,1.64 -1,4.33 10.65,4.42 3.78,0 14.77,-0.01 23.79,0 11.2,0.01 14.32,-2.81 14.06,-5.22 -0.49,-4.39 -13.08,-5.7 -25.14,-5.11z"/>
      <path class="fil3" d="M35.96 22.05c0,-1.16 0.84,-2.1 1.87,-2.1 1.03,0 1.87,0.94 1.87,2.1 0,1.16 -0.84,2.1 -1.87,2.1 -1.03,0 -1.87,-0.94 -1.87,-2.1z"/>
     </g>
     <line class="fil0 str0" x1="63.15" y1="57.13" x2="74.05" y2= "57.13" />
    </g>
   </g>
  </g>
 </g>
</svg>
