<?xml version="1.0" encoding="UTF-8"?>
<!DOCTYPE svg PUBLIC "-//W3C//DTD SVG 1.1//EN" "http://www.w3.org/Graphics/SVG/1.1/DTD/svg11.dtd">
<!-- Creator: CorelDRAW 2020 -->
<svg xmlns="http://www.w3.org/2000/svg" xml:space="preserve" width="11mm" height="10mm" version="1.1" style="shape-rendering:geometricPrecision; text-rendering:geometricPrecision; image-rendering:optimizeQuality; fill-rule:evenodd; clip-rule:evenodd"
viewBox="0 0 104.56 95.06"
 xmlns:xlink="http://www.w3.org/1999/xlink"
 xmlns:xodm="http://www.corel.com/coreldraw/odm/2003">
 <defs>
  <style type="text/css">
   <![CDATA[
    .str0 {stroke:#C6B93A;stroke-width:4.75;stroke-miterlimit:22.9256}
    .str1 {stroke:#C6B93A;stroke-width:1.9;stroke-miterlimit:22.9256}
    .fil0 {fill:none}
    .fil3 {fill:#FEFEFE}
    .fil2 {fill:#C6B93A}
    .fil1 {fill:#C6B93A;fill-rule:nonzero}
   ]]>
  </style>
 </defs>
 <g id="Layer_x0020_1">
  <metadata id="CorelCorpID_0Corel-Layer"/>
  <g id="_1143694560">
   <polygon class="fil0" points="-0,0 104.56,0 104.56,95.06 -0,95.06 "/>
   <g>
    <path class="fil1" d="M20.9 77.2c2.1,-0.36 3.97,-1.72 5.64,-4.06 0.78,-1.09 1.46,-1.86 2.05,-2.31 0.59,-0.45 1.21,-0.68 1.88,-0.68 0.26,0 0.53,0.12 0.79,0.36 0.27,0.24 0.4,0.52 0.4,0.85 0,0.44 -0.41,0.77 -1.23,1.02 -0.43,0.13 -0.84,0.36 -1.22,0.67 -0.38,0.32 -1.1,1.08 -2.16,2.28 -0.83,0.94 -1.58,1.59 -2.24,1.97 -0.06,0.04 -0.1,0.07 -0.1,0.09 0,0.04 0.04,0.07 0.12,0.1 0.64,0.35 1.33,1.01 2.04,2.01 1.04,1.44 1.82,2.35 2.35,2.73 0.52,0.38 1.12,0.56 1.79,0.56l0.44 -0.01c0.31,-0.02 0.46,0.12 0.46,0.41 0,0.33 -0.19,0.69 -0.57,1.05 -0.38,0.36 -1.01,0.54 -1.88,0.54 -0.67,0 -1.32,-0.29 -1.96,-0.87 -0.63,-0.58 -1.35,-1.52 -2.17,-2.82 -0.47,-0.77 -0.91,-1.35 -1.31,-1.75 -0.41,-0.4 -0.86,-0.6 -1.35,-0.6 -0.1,0 -0.43,0.09 -0.98,0.26 -0.55,0.18 -0.86,0.35 -0.92,0.51 -0.07,0.16 -0.12,0.75 -0.15,1.77 -0.03,1.01 -0.05,1.83 -0.05,2.45 0,0.33 -0.15,0.62 -0.46,0.88 -0.31,0.25 -0.65,0.38 -1.01,0.38 -0.37,0 -0.66,-0.11 -0.87,-0.33 -0.21,-0.22 -0.32,-0.44 -0.32,-0.67 0,-0.32 0.12,-1.07 0.36,-2.25 0.43,-2.16 0.85,-5.72 1.28,-10.68 0.03,-0.48 0.21,-0.91 0.54,-1.29 0.33,-0.38 0.7,-0.58 1.11,-0.58 0.23,0 0.42,0.13 0.58,0.37 0.15,0.25 0.24,0.57 0.24,0.96 0,0.31 -0.05,0.66 -0.16,1.06 -0.5,1.83 -0.82,3.7 -0.94,5.61zm35.44 -3.84c-0.21,-0.01 -0.42,0.19 -0.62,0.61 -1.83,3.66 -3.21,6.14 -4.15,7.46 -0.08,0.11 -0.19,0.28 -0.31,0.5 -1.1,1.97 -1.92,2.96 -2.43,2.96 -0.69,0 -1.03,-0.33 -1.03,-1 0,-0.6 0.43,-1.42 1.29,-2.45 0.83,-0.98 1.92,-2.64 3.27,-4.99 1.35,-2.35 2.45,-4.45 3.29,-6.32 0.16,-0.34 0.4,-0.5 0.71,-0.5 0.13,0 0.37,0.06 0.71,0.18 0.34,0.12 0.56,0.25 0.66,0.39 0.1,0.14 0.31,0.96 0.65,2.47 1.09,5.42 2.24,8.63 3.44,9.64 0.29,0.25 0.45,0.41 0.51,0.5 0.05,0.08 0.08,0.2 0.08,0.35 0,0.28 -0.09,0.52 -0.26,0.75 -0.18,0.23 -0.35,0.37 -0.52,0.43 -0.17,0.06 -0.51,0.1 -1.03,0.1 -0.19,0 -0.62,-0.46 -1.3,-1.38 -0.68,-0.91 -1.48,-3.41 -2.39,-7.48 -0.22,-1.1 -0.41,-1.83 -0.56,-2.21zm13.05 -6.95c-0.19,0 -0.33,-0.2 -0.43,-0.6 -0.04,-0.12 -0.08,-0.26 -0.15,-0.41 -0.24,-0.57 -0.36,-1.07 -0.36,-1.5 0,-0.35 0.21,-0.71 0.63,-1.08 0.42,-0.37 0.89,-0.55 1.4,-0.55 0.26,0 0.54,0.1 0.86,0.3 0.32,0.2 0.48,0.39 0.48,0.58 0,0.29 -0.11,0.79 -0.33,1.49 -0.22,0.7 -0.56,1.17 -1.03,1.41 -0.48,0.24 -0.83,0.36 -1.08,0.36zm-1.74 14.82c0,0.67 0.1,1.43 0.28,2.27 0.04,0.16 0.05,0.29 0.05,0.39 0,0.16 -0.14,0.37 -0.43,0.62 -0.29,0.25 -0.6,0.38 -0.93,0.38 -0.86,0 -1.29,-0.79 -1.29,-2.36 0,-1.63 0.34,-4.2 1,-7.72 0.23,-1.23 0.34,-1.99 0.34,-2.27 0,-0.56 0.1,-1.03 0.31,-1.43 0.2,-0.39 0.49,-0.59 0.86,-0.59 0.45,0 0.81,0.11 1.07,0.33 0.26,0.22 0.39,0.46 0.39,0.72 0,0.26 -0.06,0.62 -0.19,1.05 -0.66,2.34 -1.07,4.01 -1.23,5.02 -0.16,1.01 -0.24,2.21 -0.24,3.59zm8.01 -4.03c2.1,-0.36 3.97,-1.72 5.64,-4.06 0.78,-1.09 1.46,-1.86 2.05,-2.31 0.59,-0.45 1.21,-0.68 1.88,-0.68 0.26,0 0.53,0.12 0.79,0.36 0.27,0.24 0.4,0.52 0.4,0.85 0,0.44 -0.41,0.77 -1.23,1.02 -0.43,0.13 -0.84,0.36 -1.22,0.67 -0.38,0.32 -1.1,1.08 -2.16,2.28 -0.83,0.94 -1.58,1.59 -2.24,1.97 -0.06,0.04 -0.1,0.07 -0.1,0.09 0,0.04 0.04,0.07 0.12,0.1 0.64,0.35 1.33,1.01 2.04,2.01 1.04,1.44 1.82,2.35 2.35,2.73 0.52,0.38 1.12,0.56 1.79,0.56l0.44 -0.01c0.31,-0.02 0.46,0.12 0.46,0.41 0,0.33 -0.19,0.69 -0.57,1.05 -0.38,0.36 -1.01,0.54 -1.88,0.54 -0.67,0 -1.32,-0.29 -1.96,-0.87 -0.63,-0.58 -1.35,-1.52 -2.17,-2.82 -0.47,-0.77 -0.91,-1.35 -1.31,-1.75 -0.41,-0.4 -0.86,-0.6 -1.35,-0.6 -0.1,0 -0.43,0.09 -0.98,0.26 -0.55,0.18 -0.86,0.35 -0.92,0.51 -0.07,0.16 -0.12,0.75 -0.15,1.77 -0.03,1.01 -0.05,1.83 -0.05,2.45 0,0.33 -0.15,0.62 -0.46,0.88 -0.31,0.25 -0.65,0.38 -1.01,0.38 -0.37,0 -0.66,-0.11 -0.87,-0.33 -0.21,-0.22 -0.32,-0.44 -0.32,-0.67 0,-0.32 0.12,-1.07 0.36,-2.25 0.43,-2.16 0.85,-5.72 1.28,-10.68 0.03,-0.48 0.21,-0.91 0.54,-1.29 0.33,-0.38 0.7,-0.58 1.11,-0.58 0.23,0 0.42,0.13 0.58,0.37 0.15,0.25 0.24,0.57 0.24,0.96 0,0.31 -0.05,0.66 -0.16,1.06 -0.5,1.83 -0.82,3.7 -0.94,5.61zm-29.56 -0.27c0,3.28 -1.06,5.51 -3.18,6.69 -1.03,0.58 -2.17,0.86 -3.4,0.86 -2.14,0 -3.79,-0.7 -4.97,-2.1 -1.09,-1.31 -1.63,-3.06 -1.63,-5.24 0,-2.6 0.72,-4.53 2.17,-5.79 1.21,-1.04 2.68,-1.56 4.42,-1.56 2.07,0 3.7,0.68 4.88,2.05 1.13,1.3 1.69,3 1.69,5.1zm-2.5 -1.15c-0.15,-1.14 -0.52,-2.03 -1.1,-2.68 -0.79,-0.89 -1.78,-1.34 -2.97,-1.34 -1.2,0 -2.2,0.44 -2.99,1.34 -0.59,0.65 -0.96,1.55 -1.11,2.68l8.18 0zm0.05 1.96l-8.28 0c0.07,1.36 0.43,2.47 1.08,3.32 0.74,0.97 1.77,1.46 3.07,1.46 1.3,0 2.32,-0.49 3.06,-1.47 0.64,-0.85 1,-1.95 1.08,-3.31z"/>
    <g>
     <path class="fil0 str0" d="M49.59 33.31c-14.99,0 -24.23,10.34 -24.23,15 0,2.93 -0.26,5.69 7.07,5.69 15.95,0 24.51,0 40.02,0.05 8.11,0.02 7.2,-2.62 7.2,-5.73 0,-2.41 -0.86,-12.26 -6.06,-13.8 -4.87,-1.44 -16.76,-1.21 -24.01,-1.21z"/>
     <line class="fil0 str0" x1="30.73" y1="57.13" x2="41.63" y2= "57.13" />
     <path class="fil2 str1" d="M51.06 33.31l0 15.01 -25.69 0c0,2.93 -0.26,5.69 7.06,5.69 15.95,0 24.51,0 40.02,0.05 8.11,0.02 7.2,-2.61 7.2,-5.73 0,-2.41 -0.86,-12.26 -6.06,-13.8 -4.55,-1.35 -15.25,-1.23 -22.54,-1.21z"/>
     <path class="fil2" d="M66.79 20.09l3.62 -11.15c0.57,-1.76 2.44,-2.62 4.15,-1.92l0 0c1.71,0.7 2.65,2.71 2.08,4.47l-3.62 11.14c-0.57,1.76 -2.44,2.62 -4.15,1.92l-0 -0c-1.71,-0.7 -2.65,-2.71 -2.08,-4.47z"/>
     <g id="atau-belgi.svg">
      <path class="fil2" d="M52.33 15.8c-16.32,0.81 -21.76,4.03 -23.36,5.92 -1.4,1.64 -1,4.33 10.65,4.42 3.78,0 14.77,-0.01 23.79,0 11.2,0.01 14.32,-2.81 14.06,-5.22 -0.49,-4.39 -13.08,-5.7 -25.14,-5.11z"/>
      <path class="fil3" d="M35.96 22.05c0,-1.16 0.84,-2.1 1.87,-2.1 1.03,0 1.87,0.94 1.87,2.1 0,1.16 -0.84,2.1 -1.87,2.1 -1.03,0 -1.87,-0.94 -1.87,-2.1z"/>
     </g>
     <line class="fil0 str0" x1="63.15" y1="57.13" x2="74.05" y2= "57.13" />
    </g>
   </g>
   <line class="fil0 str1" x1="14.26" y1="93.4" x2="90.3" y2= "93.4" />
  </g>
 </g>
</svg>
