<?xml version="1.0" encoding="UTF-8"?>
<!DOCTYPE svg PUBLIC "-//W3C//DTD SVG 1.1//EN" "http://www.w3.org/Graphics/SVG/1.1/DTD/svg11.dtd">
<!-- Creator: CorelDRAW 2020 -->
<svg xmlns="http://www.w3.org/2000/svg" xml:space="preserve" width="11mm" height="10.2mm" version="1.1" style="shape-rendering:geometricPrecision; text-rendering:geometricPrecision; image-rendering:optimizeQuality; fill-rule:evenodd; clip-rule:evenodd"
viewBox="0 0 104.56 96.96"
 xmlns:xlink="http://www.w3.org/1999/xlink"
 xmlns:xodm="http://www.corel.com/coreldraw/odm/2003">
 <defs>
  <style type="text/css">
   <![CDATA[
    .fil0 {fill:none}
    .fil2 {fill:#ACA77B}
    .fil1 {fill:#ACA77B;fill-rule:nonzero}
   ]]>
  </style>
 </defs>
 <g id="Layer_x0020_1">
  <metadata id="CorelCorpID_0Corel-Layer"/>
  <g id="_978100376">
   <polygon class="fil0" points="-0,0 104.56,0 104.56,96.96 -0,96.96 "/>
   <path class="fil1" d="M20.9 79.72c2.1,-0.36 3.97,-1.72 5.64,-4.06 0.78,-1.09 1.46,-1.86 2.05,-2.31 0.59,-0.45 1.21,-0.68 1.88,-0.68 0.26,0 0.53,0.12 0.79,0.36 0.27,0.24 0.4,0.52 0.4,0.85 0,0.44 -0.41,0.77 -1.23,1.02 -0.43,0.13 -0.84,0.36 -1.22,0.67 -0.38,0.32 -1.1,1.08 -2.16,2.28 -0.83,0.94 -1.58,1.59 -2.24,1.97 -0.06,0.04 -0.1,0.07 -0.1,0.09 0,0.04 0.04,0.07 0.12,0.1 0.64,0.35 1.33,1.01 2.04,2.01 1.04,1.44 1.82,2.35 2.35,2.73 0.52,0.38 1.12,0.56 1.79,0.56l0.44 -0.01c0.31,-0.02 0.46,0.12 0.46,0.41 0,0.33 -0.19,0.69 -0.57,1.05 -0.38,0.36 -1.01,0.54 -1.88,0.54 -0.67,0 -1.32,-0.29 -1.96,-0.87 -0.63,-0.58 -1.35,-1.52 -2.17,-2.82 -0.47,-0.77 -0.91,-1.35 -1.31,-1.75 -0.41,-0.4 -0.86,-0.6 -1.35,-0.6 -0.1,0 -0.43,0.09 -0.98,0.26 -0.55,0.18 -0.86,0.35 -0.92,0.51 -0.07,0.16 -0.12,0.75 -0.15,1.77 -0.03,1.01 -0.05,1.83 -0.05,2.45 0,0.33 -0.15,0.62 -0.46,0.88 -0.31,0.25 -0.65,0.38 -1.01,0.38 -0.37,0 -0.66,-0.11 -0.87,-0.33 -0.21,-0.22 -0.32,-0.44 -0.32,-0.67 0,-0.32 0.12,-1.07 0.36,-2.25 0.43,-2.16 0.85,-5.72 1.28,-10.68 0.03,-0.48 0.21,-0.91 0.54,-1.29 0.33,-0.38 0.7,-0.58 1.11,-0.58 0.23,0 0.42,0.13 0.58,0.37 0.15,0.25 0.24,0.57 0.24,0.96 0,0.31 -0.05,0.66 -0.16,1.06 -0.5,1.83 -0.82,3.7 -0.94,5.61zm35.44 -3.84c-0.21,-0.01 -0.42,0.19 -0.62,0.61 -1.83,3.66 -3.21,6.14 -4.15,7.46 -0.08,0.11 -0.19,0.28 -0.31,0.5 -1.1,1.97 -1.92,2.96 -2.43,2.96 -0.69,0 -1.03,-0.33 -1.03,-1 0,-0.6 0.43,-1.42 1.29,-2.45 0.83,-0.98 1.92,-2.64 3.27,-4.99 1.35,-2.35 2.45,-4.45 3.29,-6.32 0.16,-0.34 0.4,-0.5 0.71,-0.5 0.13,0 0.37,0.06 0.71,0.18 0.34,0.12 0.56,0.25 0.66,0.39 0.1,0.14 0.31,0.96 0.65,2.47 1.09,5.42 2.24,8.63 3.44,9.64 0.29,0.25 0.45,0.41 0.51,0.5 0.05,0.08 0.08,0.2 0.08,0.35 0,0.28 -0.09,0.52 -0.26,0.75 -0.18,0.23 -0.35,0.37 -0.52,0.43 -0.17,0.06 -0.51,0.1 -1.03,0.1 -0.19,0 -0.62,-0.46 -1.3,-1.38 -0.68,-0.91 -1.48,-3.41 -2.39,-7.48 -0.22,-1.1 -0.41,-1.83 -0.56,-2.21zm13.05 -6.95c-0.19,0 -0.33,-0.2 -0.43,-0.6 -0.04,-0.12 -0.08,-0.26 -0.15,-0.41 -0.24,-0.57 -0.36,-1.07 -0.36,-1.5 0,-0.35 0.21,-0.71 0.63,-1.08 0.42,-0.37 0.89,-0.55 1.4,-0.55 0.26,0 0.54,0.1 0.86,0.3 0.32,0.2 0.48,0.39 0.48,0.58 0,0.29 -0.11,0.79 -0.33,1.49 -0.22,0.7 -0.56,1.17 -1.03,1.41 -0.48,0.24 -0.83,0.36 -1.08,0.36zm-1.74 14.82c0,0.67 0.1,1.43 0.28,2.27 0.04,0.16 0.05,0.29 0.05,0.39 0,0.16 -0.14,0.37 -0.43,0.62 -0.29,0.25 -0.6,0.38 -0.93,0.38 -0.86,0 -1.29,-0.79 -1.29,-2.36 0,-1.63 0.34,-4.2 1,-7.72 0.23,-1.23 0.34,-1.99 0.34,-2.27 0,-0.56 0.1,-1.03 0.31,-1.43 0.2,-0.39 0.49,-0.59 0.86,-0.59 0.45,0 0.81,0.11 1.07,0.33 0.26,0.22 0.39,0.46 0.39,0.72 0,0.26 -0.06,0.62 -0.19,1.05 -0.66,2.34 -1.07,4.01 -1.23,5.02 -0.16,1.01 -0.24,2.21 -0.24,3.59zm8.01 -4.03c2.1,-0.36 3.97,-1.72 5.64,-4.06 0.78,-1.09 1.46,-1.86 2.05,-2.31 0.59,-0.45 1.21,-0.68 1.88,-0.68 0.26,0 0.53,0.12 0.79,0.36 0.27,0.24 0.4,0.52 0.4,0.85 0,0.44 -0.41,0.77 -1.23,1.02 -0.43,0.13 -0.84,0.36 -1.22,0.67 -0.38,0.32 -1.1,1.08 -2.16,2.28 -0.83,0.94 -1.58,1.59 -2.24,1.97 -0.06,0.04 -0.1,0.07 -0.1,0.09 0,0.04 0.04,0.07 0.12,0.1 0.64,0.35 1.33,1.01 2.04,2.01 1.04,1.44 1.82,2.35 2.35,2.73 0.52,0.38 1.12,0.56 1.79,0.56l0.44 -0.01c0.31,-0.02 0.46,0.12 0.46,0.41 0,0.33 -0.19,0.69 -0.57,1.05 -0.38,0.36 -1.01,0.54 -1.88,0.54 -0.67,0 -1.32,-0.29 -1.96,-0.87 -0.63,-0.58 -1.35,-1.52 -2.17,-2.82 -0.47,-0.77 -0.91,-1.35 -1.31,-1.75 -0.41,-0.4 -0.86,-0.6 -1.35,-0.6 -0.1,0 -0.43,0.09 -0.98,0.26 -0.55,0.18 -0.86,0.35 -0.92,0.51 -0.07,0.16 -0.12,0.75 -0.15,1.77 -0.03,1.01 -0.05,1.83 -0.05,2.45 0,0.33 -0.15,0.62 -0.46,0.88 -0.31,0.25 -0.65,0.38 -1.01,0.38 -0.37,0 -0.66,-0.11 -0.87,-0.33 -0.21,-0.22 -0.32,-0.44 -0.32,-0.67 0,-0.32 0.12,-1.07 0.36,-2.25 0.43,-2.16 0.85,-5.72 1.28,-10.68 0.03,-0.48 0.21,-0.91 0.54,-1.29 0.33,-0.38 0.7,-0.58 1.11,-0.58 0.23,0 0.42,0.13 0.58,0.37 0.15,0.25 0.24,0.57 0.24,0.96 0,0.31 -0.05,0.66 -0.16,1.06 -0.5,1.83 -0.82,3.7 -0.94,5.61zm-29.56 -0.27c0,3.28 -1.06,5.51 -3.18,6.69 -1.03,0.58 -2.17,0.86 -3.4,0.86 -2.14,0 -3.79,-0.7 -4.97,-2.1 -1.09,-1.31 -1.63,-3.06 -1.63,-5.24 0,-2.6 0.72,-4.53 2.17,-5.79 1.21,-1.04 2.68,-1.56 4.42,-1.56 2.07,0 3.7,0.68 4.88,2.05 1.13,1.3 1.69,3 1.69,5.1zm-2.5 -1.15c-0.15,-1.14 -0.52,-2.03 -1.1,-2.68 -0.79,-0.89 -1.78,-1.34 -2.97,-1.34 -1.2,0 -2.2,0.44 -2.99,1.34 -0.59,0.65 -0.96,1.55 -1.11,2.68l8.18 0zm0.05 1.96l-8.28 0c0.07,1.36 0.43,2.47 1.08,3.32 0.74,0.97 1.77,1.46 3.07,1.46 1.3,0 2.32,-0.49 3.06,-1.47 0.64,-0.85 1,-1.95 1.08,-3.31z"/>
   <path class="fil2" d="M79.66 50.3c0,-2.41 -0.86,-12.26 -6.06,-13.8 -4.87,-1.44 -16.76,-1.21 -24.01,-1.21 -14.99,0 -24.23,10.34 -24.23,15 0,2.7 -0.22,8.01 5.47,8.39l0 2.81 10.73 0 0 -2.76c7.77,0 14.08,0.01 21.67,0.02l0 2.74 10.73 0 0 -2.74c6.48,-0.3 5.69,-5.55 5.69,-8.46zm-28.6 -13.44l0 13.44 -24.58 0c1.64,-5.08 10.47,-13.44 23.95,-13.44 0.21,0 0.42,-0 0.64,-0z"/>
   <path class="fil2" d="M68.03 18.28c-4.53,-0.64 -10.17,-0.77 -15.69,-0.5 -16.32,0.81 -21.76,4.03 -23.36,5.92 -1.4,1.64 -1,4.33 10.65,4.42 3.78,0 14.77,-0.01 23.79,0 11.2,0.01 14.32,-2.81 14.06,-5.22 -0.14,-1.22 -1.2,-2.19 -2.92,-2.96l2.09 -6.45c0.57,-1.76 -0.37,-3.77 -2.08,-4.47 -1.72,-0.7 -3.58,0.16 -4.15,1.92l-2.38 7.35zm-30.67 4.21c1.37,0 2.48,0.75 2.48,1.68 0,0.93 -1.11,1.68 -2.48,1.68 -1.37,0 -2.48,-0.75 -2.48,-1.68 0,-0.93 1.11,-1.68 2.48,-1.68z"/>
  </g>
 </g>
</svg>
