<?xml version="1.0" encoding="UTF-8"?>
<!DOCTYPE svg PUBLIC "-//W3C//DTD SVG 1.1//EN" "http://www.w3.org/Graphics/SVG/1.1/DTD/svg11.dtd">
<!-- Creator: CorelDRAW 2020 -->
<svg xmlns="http://www.w3.org/2000/svg" xml:space="preserve" width="11mm" height="10mm" version="1.1" style="shape-rendering:geometricPrecision; text-rendering:geometricPrecision; image-rendering:optimizeQuality; fill-rule:evenodd; clip-rule:evenodd"
viewBox="0 0 140.68 127.89"
 xmlns:xlink="http://www.w3.org/1999/xlink"
 xmlns:xodm="http://www.corel.com/coreldraw/odm/2003">
 <defs>
  <style type="text/css">
   <![CDATA[
    .str0 {stroke:#ACA77B;stroke-width:9.59;stroke-miterlimit:22.9256}
    .fil0 {fill:none}
    .fil1 {fill:#ACA77B}
    .fil2 {fill:#ACA77B;fill-rule:nonzero}
   ]]>
  </style>
 </defs>
 <g id="Layer_x0020_1">
  <metadata id="CorelCorpID_0Corel-Layer"/>
  <g id="_1132648752">
   <g id="atau-belgi.svg">
    <path class="fil0 str0" d="M69.55 34.06c-21.05,3.32 -28.06,16.54 -30.13,24.3 -1.81,6.72 -1.29,17.76 13.74,18.13 4.88,0 19.06,-0.04 30.69,0 14.44,0.04 18.46,-11.52 18.13,-21.45 -0.63,-18.04 -16.87,-23.41 -32.42,-20.97z"/>
    <path class="fil1" d="M50.64 59.61c0,-4.19 3.42,-7.61 7.61,-7.61 4.19,0 7.61,3.42 7.61,7.61 0,4.19 -3.42,7.61 -7.61,7.61 -4.19,0 -7.61,-3.42 -7.61,-7.61z"/>
   </g>
   <path class="fil2" d="M18.76 102.72c2.79,-0.48 5.28,-2.28 7.49,-5.4 1.04,-1.44 1.94,-2.47 2.73,-3.07 0.78,-0.6 1.61,-0.91 2.5,-0.91 0.35,0 0.7,0.16 1.05,0.47 0.36,0.32 0.53,0.7 0.53,1.13 0,0.58 -0.54,1.03 -1.64,1.36 -0.58,0.17 -1.12,0.47 -1.62,0.9 -0.51,0.42 -1.46,1.43 -2.87,3.03 -1.11,1.25 -2.1,2.12 -2.98,2.62 -0.08,0.05 -0.13,0.09 -0.13,0.13 0,0.05 0.05,0.1 0.16,0.14 0.85,0.46 1.76,1.35 2.71,2.67 1.38,1.91 2.42,3.12 3.12,3.62 0.7,0.5 1.49,0.75 2.38,0.75l0.58 -0.02c0.41,-0.02 0.61,0.16 0.61,0.55 0,0.45 -0.25,0.91 -0.76,1.4 -0.51,0.48 -1.34,0.72 -2.5,0.72 -0.89,0 -1.76,-0.38 -2.6,-1.15 -0.84,-0.77 -1.8,-2.02 -2.88,-3.75 -0.63,-1.02 -1.2,-1.8 -1.74,-2.32 -0.54,-0.53 -1.14,-0.79 -1.8,-0.79 -0.14,0 -0.58,0.11 -1.31,0.35 -0.73,0.23 -1.14,0.46 -1.22,0.68 -0.09,0.22 -0.16,1 -0.2,2.35 -0.04,1.34 -0.06,2.43 -0.06,3.25 0,0.44 -0.2,0.82 -0.61,1.17 -0.41,0.34 -0.86,0.51 -1.34,0.51 -0.49,0 -0.88,-0.14 -1.16,-0.43 -0.28,-0.29 -0.43,-0.58 -0.43,-0.89 0,-0.42 0.16,-1.42 0.47,-3 0.57,-2.87 1.13,-7.6 1.7,-14.19 0.04,-0.63 0.28,-1.2 0.72,-1.71 0.43,-0.51 0.93,-0.77 1.48,-0.77 0.31,0 0.56,0.17 0.76,0.49 0.2,0.33 0.31,0.75 0.31,1.27 0,0.42 -0.07,0.88 -0.22,1.41 -0.67,2.43 -1.08,4.91 -1.25,7.45zm40.6 7.22c-0.58,2.12 -1.11,5.08 -1.62,8.9l-0.49 3.33c-0.08,0.47 -0.3,0.94 -0.66,1.4 -0.35,0.46 -0.67,0.7 -0.97,0.7 -0.37,0 -0.78,-0.19 -1.25,-0.55 -0.46,-0.37 -0.69,-0.67 -0.69,-0.89 0,-0.65 0.14,-1.54 0.44,-2.68 2.15,-8.68 3.22,-16.31 3.22,-22.87l-0.02 -1.48c-0.02,-1.27 0.2,-2.2 0.67,-2.77 0.48,-0.58 1.01,-0.87 1.62,-0.87 0.28,0 0.55,0.22 0.81,0.66 0.26,0.44 0.38,1.07 0.38,1.88 0,1.14 -0.11,2.52 -0.35,4.14 -0.31,2.04 -0.46,3.22 -0.47,3.52 1.75,-3.05 3.6,-5.44 5.56,-7.15 1.96,-1.71 3.78,-2.57 5.47,-2.57 1.19,0 2.18,0.45 3,1.33 0.82,0.89 1.23,1.99 1.23,3.31 0,3.83 -1.47,7.31 -4.41,10.43 -2.94,3.13 -5.8,4.69 -8.58,4.69 -0.7,0 -1.25,-0.17 -1.65,-0.52 -0.41,-0.36 -0.83,-1 -1.26,-1.92zm10.94 -14.18c-1.65,0 -3.7,1.55 -6.15,4.65 -2.44,3.11 -3.66,5.52 -3.66,7.24 0,0.43 0.24,0.84 0.72,1.23 0.48,0.4 1.09,0.6 1.83,0.6 1.68,0 3.62,-1.24 5.8,-3.73 2.19,-2.48 3.28,-4.92 3.28,-7.32 0,-0.86 -0.17,-1.52 -0.52,-1.99 -0.35,-0.46 -0.78,-0.69 -1.3,-0.69zm31.48 0.79c-0.95,1.52 -2.29,4.11 -4.02,7.75 -0.38,0.82 -0.78,1.61 -1.18,2.38 -0.13,0.25 -0.38,0.79 -0.74,1.64 -1.23,2.86 -2.31,4.3 -3.23,4.3 -0.73,0 -1.26,-0.08 -1.59,-0.26 -0.33,-0.17 -0.65,-0.66 -0.96,-1.44 -0.31,-0.79 -0.76,-2.63 -1.36,-5.55 -0.69,-3.3 -1.16,-5.33 -1.41,-6.09 -0.8,1.8 -1.51,3.53 -2.13,5.2 -0.94,2.45 -1.85,4.46 -2.73,6 -0.88,1.54 -1.52,2.47 -1.9,2.78 -0.39,0.31 -0.76,0.47 -1.11,0.47 -0.36,0 -0.69,-0.14 -0.99,-0.42 -0.29,-0.28 -0.44,-0.56 -0.44,-0.83 0.07,-0.48 0.15,-0.78 0.25,-0.9 1.02,-1.26 1.9,-2.6 2.64,-4.02 0.74,-1.43 1.69,-3.56 2.83,-6.4 1.14,-2.84 1.88,-5.17 2.19,-7 0.16,-0.78 0.72,-1.16 1.71,-1.16 0.58,0 0.97,0.08 1.19,0.26 0.21,0.17 0.42,0.53 0.63,1.07 0.2,0.54 0.32,1.02 0.36,1.45 0.07,0.51 0.27,1.62 0.6,3.36 0.29,1.64 0.49,2.79 0.58,3.47 0.16,0.98 0.46,2.26 0.87,3.84 0.41,1.59 0.75,2.38 0.98,2.38 0.16,0 0.4,-0.36 0.7,-1.08l1.48 -3.42c0.27,-0.62 0.56,-1.23 0.87,-1.83l2.02 -4.14c1.11,-2.28 1.95,-3.93 2.55,-4.96 0.59,-1.03 0.99,-1.65 1.2,-1.86 0.2,-0.22 0.44,-0.32 0.7,-0.32 0.45,0 0.94,0.12 1.5,0.36 0.55,0.24 0.84,0.51 0.86,0.8 0.02,0.3 0.08,1.52 0.16,3.68l0.23 5.5c0.07,1.75 0.18,3.24 0.32,4.46 0.14,1.23 0.38,2.22 0.74,2.97 0.55,1.2 0.82,2.12 0.82,2.78 0,0.56 -0.23,0.95 -0.69,1.16 -0.47,0.21 -0.9,0.32 -1.3,0.32 -0.82,0 -1.45,-0.66 -1.9,-1.97 -0.44,-1.32 -0.76,-5.09 -0.96,-11.32 -0.07,-1.87 -0.19,-3.01 -0.34,-3.44zm24.16 9.46c0,1.2 -1.06,2.64 -3.18,4.34 -2.12,1.69 -4.31,2.53 -6.57,2.53 -1.89,0 -3.35,-0.55 -4.38,-1.67 -1.03,-1.11 -1.54,-2.67 -1.54,-4.67 0,-3.36 1.13,-6.56 3.4,-9.59 2.27,-3.03 4.75,-4.55 7.44,-4.55 0.88,0 1.6,0.29 2.16,0.87 0.55,0.57 0.84,1.27 0.84,2.08 0,1.81 -0.89,3.54 -2.67,5.2 -1.78,1.65 -4.14,3.29 -7.12,4.88 -0.61,0.32 -0.91,0.73 -0.91,1.23 0,0.97 0.28,1.76 0.84,2.35 0.57,0.59 1.4,0.88 2.5,0.88 2.53,0 5.11,-1.4 7.74,-4.19 0.39,-0.38 0.69,-0.58 0.88,-0.58 0.37,0 0.56,0.3 0.56,0.9zm-12.25 -2.75c4.99,-2.96 7.48,-5.34 7.48,-7.14 0,-0.7 -0.32,-1.06 -0.96,-1.06 -1.08,0 -2.3,0.79 -3.66,2.38 -1.35,1.59 -2.31,3.53 -2.86,5.82zm-61.45 -0.91c0,4.36 -1.41,7.33 -4.22,8.89 -1.37,0.76 -2.88,1.14 -4.52,1.14 -2.84,0 -5.04,-0.93 -6.6,-2.8 -1.44,-1.74 -2.17,-4.06 -2.17,-6.97 0,-3.46 0.96,-6.02 2.89,-7.69 1.61,-1.38 3.56,-2.08 5.88,-2.08 2.75,0 4.91,0.91 6.49,2.73 1.5,1.73 2.25,3.98 2.25,6.77zm-3.32 -1.52c-0.2,-1.51 -0.69,-2.7 -1.47,-3.57 -1.05,-1.18 -2.37,-1.77 -3.95,-1.77 -1.6,0 -2.92,0.59 -3.97,1.77 -0.78,0.87 -1.28,2.06 -1.47,3.57l10.86 0zm0.07 2.6l-11.01 0c0.1,1.8 0.57,3.28 1.43,4.42 0.99,1.29 2.35,1.94 4.08,1.94 1.73,0 3.09,-0.65 4.06,-1.95 0.85,-1.13 1.32,-2.59 1.43,-4.4z"/>
  </g>
  <polygon class="fil0" points="-0,0 140.68,0 140.68,127.89 -0,127.89 "/>
 </g>
</svg>
