<?xml version="1.0" encoding="UTF-8"?>
<!DOCTYPE svg PUBLIC "-//W3C//DTD SVG 1.1//EN" "http://www.w3.org/Graphics/SVG/1.1/DTD/svg11.dtd">
<!-- Creator: CorelDRAW 2020 -->
<svg xmlns="http://www.w3.org/2000/svg" xml:space="preserve" width="11mm" height="10mm" version="1.1" style="shape-rendering:geometricPrecision; text-rendering:geometricPrecision; image-rendering:optimizeQuality; fill-rule:evenodd; clip-rule:evenodd"
viewBox="0 0 75.76 68.87"
 xmlns:xlink="http://www.w3.org/1999/xlink"
 xmlns:xodm="http://www.corel.com/coreldraw/odm/2003">
 <defs>
  <style type="text/css">
   <![CDATA[
    .str0 {stroke:#B2AD81;stroke-width:3.44;stroke-miterlimit:22.9256}
    .fil1 {fill:none}
    .fil2 {fill:#B2AD81}
    .fil0 {fill:#B2AD81;fill-rule:nonzero}
   ]]>
  </style>
 </defs>
 <g id="Layer_x0020_1">
  <metadata id="CorelCorpID_0Corel-Layer"/>
  <path class="fil0" d="M9.73 55.09c1.5,-0.26 2.84,-1.23 4.03,-2.91 0.56,-0.78 1.05,-1.33 1.47,-1.65 0.42,-0.32 0.87,-0.49 1.34,-0.49 0.19,0 0.38,0.09 0.57,0.26 0.19,0.17 0.29,0.38 0.29,0.61 0,0.31 -0.29,0.55 -0.88,0.73 -0.31,0.09 -0.6,0.26 -0.87,0.48 -0.27,0.23 -0.79,0.77 -1.55,1.63 -0.6,0.67 -1.13,1.14 -1.6,1.41 -0.05,0.03 -0.07,0.05 -0.07,0.07 0,0.03 0.03,0.05 0.09,0.07 0.46,0.25 0.95,0.73 1.46,1.44 0.74,1.03 1.31,1.68 1.68,1.95 0.38,0.27 0.8,0.4 1.28,0.4l0.31 -0.01c0.22,-0.01 0.33,0.09 0.33,0.29 0,0.24 -0.14,0.49 -0.41,0.75 -0.27,0.26 -0.72,0.39 -1.35,0.39 -0.48,0 -0.95,-0.21 -1.4,-0.62 -0.45,-0.41 -0.97,-1.09 -1.55,-2.02 -0.34,-0.55 -0.65,-0.97 -0.94,-1.25 -0.29,-0.29 -0.62,-0.43 -0.97,-0.43 -0.07,0 -0.31,0.06 -0.7,0.19 -0.39,0.13 -0.61,0.25 -0.66,0.37 -0.05,0.12 -0.08,0.54 -0.11,1.26 -0.02,0.72 -0.03,1.31 -0.03,1.75 0,0.24 -0.11,0.44 -0.33,0.63 -0.22,0.18 -0.46,0.28 -0.72,0.28 -0.27,0 -0.47,-0.08 -0.62,-0.23 -0.15,-0.15 -0.23,-0.31 -0.23,-0.48 0,-0.23 0.09,-0.76 0.26,-1.61 0.3,-1.55 0.61,-4.09 0.91,-7.64 0.02,-0.34 0.15,-0.65 0.39,-0.92 0.23,-0.27 0.5,-0.41 0.8,-0.41 0.17,0 0.3,0.09 0.41,0.27 0.11,0.18 0.17,0.4 0.17,0.68 0,0.22 -0.04,0.48 -0.12,0.76 -0.36,1.31 -0.58,2.65 -0.67,4.01zm21.87 3.89c-0.31,1.14 -0.6,2.74 -0.87,4.79l-0.27 1.79c-0.05,0.25 -0.16,0.51 -0.35,0.75 -0.19,0.25 -0.36,0.38 -0.52,0.38 -0.2,0 -0.42,-0.1 -0.67,-0.3 -0.25,-0.2 -0.37,-0.36 -0.37,-0.48 0,-0.35 0.08,-0.83 0.24,-1.44 1.16,-4.67 1.74,-8.78 1.74,-12.32l-0.01 -0.8c-0.01,-0.68 0.11,-1.18 0.36,-1.49 0.26,-0.31 0.54,-0.47 0.87,-0.47 0.15,0 0.3,0.12 0.44,0.36 0.14,0.24 0.21,0.57 0.21,1.01 0,0.61 -0.06,1.36 -0.19,2.23 -0.17,1.1 -0.25,1.74 -0.26,1.9 0.94,-1.64 1.94,-2.93 3,-3.85 1.06,-0.92 2.04,-1.39 2.94,-1.39 0.64,0 1.18,0.24 1.62,0.72 0.44,0.48 0.66,1.07 0.66,1.78 0,2.06 -0.79,3.94 -2.37,5.62 -1.58,1.68 -3.12,2.52 -4.62,2.52 -0.38,0 -0.67,-0.09 -0.89,-0.28 -0.22,-0.19 -0.45,-0.54 -0.68,-1.04zm5.89 -7.64c-0.89,0 -2,0.84 -3.31,2.5 -1.32,1.67 -1.97,2.97 -1.97,3.9 0,0.23 0.13,0.45 0.39,0.66 0.26,0.22 0.59,0.32 0.98,0.32 0.91,0 1.95,-0.67 3.12,-2.01 1.18,-1.34 1.77,-2.65 1.77,-3.94 0,-0.46 -0.09,-0.82 -0.28,-1.07 -0.19,-0.25 -0.42,-0.37 -0.7,-0.37zm16.95 0.43c-0.51,0.82 -1.23,2.21 -2.16,4.18 -0.21,0.44 -0.42,0.87 -0.63,1.28 -0.07,0.13 -0.2,0.43 -0.4,0.88 -0.66,1.54 -1.24,2.31 -1.74,2.31 -0.39,0 -0.68,-0.05 -0.86,-0.14 -0.18,-0.09 -0.35,-0.35 -0.52,-0.78 -0.17,-0.42 -0.41,-1.42 -0.73,-2.99 -0.37,-1.78 -0.63,-2.87 -0.76,-3.28 -0.43,0.97 -0.81,1.9 -1.15,2.8 -0.51,1.32 -1,2.4 -1.47,3.23 -0.47,0.83 -0.82,1.33 -1.02,1.5 -0.21,0.17 -0.41,0.25 -0.6,0.25 -0.19,0 -0.37,-0.07 -0.53,-0.23 -0.16,-0.15 -0.24,-0.3 -0.24,-0.45 0.04,-0.26 0.08,-0.42 0.13,-0.48 0.55,-0.68 1.02,-1.4 1.42,-2.16 0.4,-0.77 0.91,-1.91 1.53,-3.45 0.62,-1.53 1.01,-2.79 1.18,-3.77 0.08,-0.42 0.39,-0.63 0.92,-0.63 0.31,0 0.52,0.05 0.64,0.14 0.11,0.09 0.23,0.29 0.34,0.58 0.11,0.29 0.17,0.55 0.19,0.78 0.04,0.27 0.15,0.87 0.32,1.81 0.16,0.88 0.27,1.5 0.31,1.87 0.09,0.53 0.25,1.21 0.47,2.07 0.22,0.85 0.4,1.28 0.53,1.28 0.09,0 0.21,-0.19 0.38,-0.58l0.8 -1.84c0.15,-0.33 0.3,-0.66 0.47,-0.98l1.09 -2.23c0.6,-1.23 1.05,-2.12 1.37,-2.67 0.32,-0.55 0.53,-0.89 0.64,-1 0.11,-0.12 0.24,-0.17 0.38,-0.17 0.24,0 0.51,0.06 0.81,0.19 0.3,0.13 0.45,0.27 0.46,0.43 0.01,0.16 0.04,0.82 0.09,1.98l0.12 2.96c0.04,0.94 0.09,1.74 0.17,2.4 0.07,0.66 0.21,1.2 0.4,1.6 0.29,0.64 0.44,1.14 0.44,1.5 0,0.3 -0.12,0.51 -0.37,0.63 -0.25,0.11 -0.48,0.17 -0.7,0.17 -0.44,0 -0.78,-0.36 -1.02,-1.06 -0.24,-0.71 -0.41,-2.74 -0.52,-6.09 -0.04,-1.01 -0.1,-1.62 -0.18,-1.85zm13.01 5.1c0,0.64 -0.57,1.42 -1.71,2.34 -1.14,0.91 -2.32,1.36 -3.54,1.36 -1.02,0 -1.8,-0.3 -2.36,-0.9 -0.55,-0.6 -0.83,-1.44 -0.83,-2.51 0,-1.81 0.61,-3.53 1.83,-5.16 1.22,-1.63 2.56,-2.45 4.01,-2.45 0.47,0 0.86,0.15 1.16,0.47 0.3,0.31 0.45,0.68 0.45,1.12 0,0.97 -0.48,1.91 -1.44,2.8 -0.96,0.89 -2.23,1.77 -3.83,2.63 -0.33,0.17 -0.49,0.39 -0.49,0.66 0,0.52 0.15,0.95 0.45,1.26 0.3,0.32 0.75,0.47 1.35,0.47 1.36,0 2.75,-0.75 4.17,-2.26 0.21,-0.21 0.37,-0.31 0.48,-0.31 0.2,0 0.3,0.16 0.3,0.49zm-6.6 -1.48c2.69,-1.59 4.03,-2.88 4.03,-3.85 0,-0.38 -0.17,-0.57 -0.52,-0.57 -0.58,0 -1.24,0.43 -1.97,1.28 -0.73,0.86 -1.24,1.9 -1.54,3.13zm-33.09 -0.49c0,2.35 -0.76,3.95 -2.27,4.79 -0.74,0.41 -1.55,0.62 -2.43,0.62 -1.53,0 -2.71,-0.5 -3.55,-1.51 -0.78,-0.94 -1.17,-2.19 -1.17,-3.75 0,-1.86 0.52,-3.24 1.56,-4.14 0.87,-0.75 1.92,-1.12 3.17,-1.12 1.48,0 2.65,0.49 3.5,1.47 0.81,0.93 1.21,2.14 1.21,3.65zm-1.79 -0.82c-0.11,-0.81 -0.37,-1.45 -0.79,-1.92 -0.57,-0.64 -1.28,-0.96 -2.13,-0.96 -0.86,0 -1.57,0.32 -2.14,0.96 -0.42,0.47 -0.69,1.11 -0.79,1.92l5.85 0zm0.04 1.4l-5.93 0c0.05,0.97 0.31,1.77 0.77,2.38 0.53,0.7 1.27,1.04 2.2,1.04 0.93,0 1.66,-0.35 2.19,-1.05 0.46,-0.61 0.71,-1.4 0.77,-2.37z"/>
  <g id="atau-belgi.svg">
   <path class="fil1 str0" d="M36.28 21.48c-10.18,1.61 -13.58,8 -14.58,11.75 -0.88,3.25 -0.63,8.59 6.65,8.77 2.36,0 9.22,-0.02 14.84,0 6.99,0.02 8.93,-5.57 8.77,-10.38 -0.31,-8.72 -8.16,-11.32 -15.68,-10.15z"/>
   <path class="fil2" d="M27.13 33.84c0,-2.03 1.65,-3.68 3.68,-3.68 2.03,0 3.68,1.65 3.68,3.68 0,2.03 -1.65,3.68 -3.68,3.68 -2.03,0 -3.68,-1.65 -3.68,-3.68z"/>
  </g>
  <polygon class="fil1" points="-0,0 75.76,0 75.76,68.87 -0,68.87 "/>
 </g>
</svg>
