<?xml version="1.0" encoding="UTF-8"?>
<!DOCTYPE svg PUBLIC "-//W3C//DTD SVG 1.1//EN" "http://www.w3.org/Graphics/SVG/1.1/DTD/svg11.dtd">
<!-- Creator: CorelDRAW 2020 -->
<svg xmlns="http://www.w3.org/2000/svg" xml:space="preserve" width="23.9616mm" height="10mm" version="1.1" style="shape-rendering:geometricPrecision; text-rendering:geometricPrecision; image-rendering:optimizeQuality; fill-rule:evenodd; clip-rule:evenodd"
viewBox="0 0 359.48 150.02"
 xmlns:xlink="http://www.w3.org/1999/xlink"
 xmlns:xodm="http://www.corel.com/coreldraw/odm/2003">
 <defs>
  <style type="text/css">
   <![CDATA[
    .str0 {stroke:#6B470F;stroke-width:7.5;stroke-miterlimit:22.9256}
    .fil0 {fill:none}
    .fil2 {fill:#6B470F}
    .fil1 {fill:#6B470F;fill-rule:nonzero}
   ]]>
  </style>
 </defs>
 <g id="Layer_x0020_1">
  <metadata id="CorelCorpID_0Corel-Layer"/>
  <g id="_1095566984">
   <polygon class="fil0" points="-0,0 165.02,0 165.02,150.02 -0,150.02 "/>
   <path class="fil1" d="M168.36 118.48l1.36 0c2.31,0 4.02,-0.08 5.15,-0.24 0.55,-0.08 1.09,-0.11 1.64,-0.11 0.24,0 0.72,0.15 1.44,0.43 0.72,0.29 1.16,0.53 1.3,0.72 0.13,0.2 0.2,0.45 0.2,0.77 0,0.46 -0.09,0.78 -0.28,0.97 -0.18,0.18 -0.59,0.28 -1.21,0.28 -0.27,0 -0.65,-0.08 -1.15,-0.24 -0.5,-0.16 -0.91,-0.24 -1.25,-0.24 -0.13,0 -0.58,0.03 -1.35,0.1 -0.41,0.03 -1.16,0.01 -2.24,-0.1 -0.83,-0.08 -1.45,-0.11 -1.86,-0.11 -0.57,0 -1.44,0.04 -2.58,0.11 -1.16,0.08 -2.03,0.12 -2.62,0.12 -0.6,0 -1.08,-0.07 -1.44,-0.2 -0.37,-0.13 -0.55,-0.42 -0.55,-0.88 0,-0.2 0.08,-0.43 0.25,-0.7 0.17,-0.27 0.74,-0.48 1.7,-0.63 0.97,-0.15 1.67,-0.24 2.08,-0.24l1.42 0.21zm42.68 5.34c-1.73,2.33 -3.46,4.08 -5.15,5.25 -1.7,1.16 -3.26,1.75 -4.67,1.75 -0.95,0 -1.78,-0.4 -2.47,-1.21 -0.7,-0.81 -1.04,-1.84 -1.04,-3.11 0,-3.26 1.45,-6.77 4.37,-10.54 2.91,-3.77 5.81,-5.65 8.69,-5.65 1.04,0 1.82,0.59 2.33,1.79 0.16,0.39 0.41,0.6 0.76,0.6 0.99,0 1.49,0.38 1.49,1.15 0,0.39 -0.06,0.91 -0.18,1.58 -0.67,3.66 -1,6.24 -1,7.74 0,3 0.57,4.8 1.71,5.4 0.55,0.3 0.82,0.66 0.82,1.09 0,0.39 -0.27,0.77 -0.8,1.17 -0.53,0.39 -1.05,0.58 -1.54,0.58 -0.96,0 -1.75,-0.66 -2.36,-1.97 -0.62,-1.32 -0.93,-3.19 -0.93,-5.62zm-1.13 -10.48c-1.64,0 -3.54,1.54 -5.72,4.6 -2.17,3.07 -3.26,5.62 -3.26,7.64 0,1.42 0.48,2.14 1.42,2.14 1.37,0 3.26,-1.38 5.68,-4.13 2.42,-2.75 3.63,-5.28 3.63,-7.59 0,-1.77 -0.58,-2.66 -1.75,-2.66zm25.11 -4.41c-0.44,-1.94 -1,-3.29 -1.66,-4.06 -0.65,-0.77 -1.52,-1.37 -2.6,-1.78 -1.08,-0.42 -2.05,-0.64 -2.92,-0.64 -0.33,0 -0.83,0.13 -1.48,0.38 -0.65,0.26 -1.15,0.49 -1.49,0.7 -0.49,0.29 -0.93,0.43 -1.34,0.43 -0.48,0 -0.71,-0.25 -0.71,-0.75 0,-0.53 0.41,-1.27 1.21,-2.21 0.81,-0.95 2.22,-1.42 4.26,-1.42l0.8 0c2.02,0 3.8,0.53 5.35,1.59 1.55,1.06 2.65,2.57 3.3,4.55 0.65,1.97 0.98,4.62 0.98,7.95 0,2.25 -0.71,4.99 -2.14,8.2 -1.42,3.21 -3.24,5.65 -5.44,7.29 -2.2,1.65 -4.54,2.48 -7.03,2.48 -0.89,0 -1.73,-0.51 -2.51,-1.54 -0.78,-1.03 -1.17,-2.3 -1.17,-3.84 0,-2.81 0.62,-5.3 1.85,-7.45 1.23,-2.15 2.62,-3.9 4.15,-5.24 1.53,-1.34 3.65,-2.42 6.36,-3.24 0.89,-0.26 1.5,-0.46 1.82,-0.61 0.32,-0.15 0.46,-0.42 0.41,-0.8zm0.5 3.79c-2.87,0.58 -5.06,1.51 -6.59,2.78 -3.45,3.23 -5.17,6.84 -5.17,10.85 0,0.53 0.09,1.04 0.28,1.5 0.18,0.46 0.39,0.7 0.63,0.7 0.92,0 1.76,-0.17 2.51,-0.48 0.76,-0.32 1.68,-1 2.77,-2.02 1.09,-1.02 2.08,-2.29 2.97,-3.8 0.88,-1.52 1.53,-2.97 1.93,-4.38 0.41,-1.4 0.62,-2.48 0.64,-3.23 0.03,-0.75 0.03,-1.39 0.02,-1.91zm17.97 11.09c-1.73,2.33 -3.46,4.08 -5.15,5.25 -1.7,1.16 -3.26,1.75 -4.67,1.75 -0.95,0 -1.78,-0.4 -2.47,-1.21 -0.7,-0.81 -1.04,-1.84 -1.04,-3.11 0,-3.26 1.45,-6.77 4.37,-10.54 2.91,-3.77 5.81,-5.65 8.69,-5.65 1.04,0 1.82,0.59 2.33,1.79 0.16,0.39 0.41,0.6 0.76,0.6 0.99,0 1.49,0.38 1.49,1.15 0,0.39 -0.06,0.91 -0.18,1.58 -0.67,3.66 -1,6.24 -1,7.74 0,3 0.57,4.8 1.71,5.4 0.55,0.3 0.82,0.66 0.82,1.09 0,0.39 -0.27,0.77 -0.8,1.17 -0.53,0.39 -1.05,0.58 -1.54,0.58 -0.96,0 -1.75,-0.66 -2.36,-1.97 -0.62,-1.32 -0.93,-3.19 -0.93,-5.62zm-1.13 -10.48c-1.64,0 -3.54,1.54 -5.72,4.6 -2.17,3.07 -3.26,5.62 -3.26,7.64 0,1.42 0.48,2.14 1.42,2.14 1.37,0 3.26,-1.38 5.68,-4.13 2.42,-2.75 3.63,-5.28 3.63,-7.59 0,-1.77 -0.58,-2.66 -1.75,-2.66zm34.7 0.95c-1,1.61 -2.42,4.34 -4.24,8.19 -0.41,0.86 -0.83,1.7 -1.24,2.51 -0.14,0.26 -0.4,0.84 -0.78,1.73 -1.3,3.02 -2.44,4.53 -3.41,4.53 -0.77,0 -1.33,-0.09 -1.68,-0.28 -0.35,-0.18 -0.69,-0.69 -1.01,-1.52 -0.32,-0.83 -0.8,-2.78 -1.44,-5.86 -0.73,-3.48 -1.23,-5.63 -1.49,-6.43 -0.84,1.9 -1.59,3.73 -2.25,5.49 -0.99,2.59 -1.95,4.71 -2.88,6.34 -0.93,1.63 -1.6,2.61 -2.01,2.93 -0.41,0.33 -0.8,0.5 -1.17,0.5 -0.38,0 -0.73,-0.15 -1.04,-0.44 -0.31,-0.3 -0.46,-0.59 -0.46,-0.88 0.08,-0.51 0.16,-0.83 0.26,-0.95 1.08,-1.33 2.01,-2.74 2.79,-4.24 0.78,-1.5 1.78,-3.75 2.99,-6.76 1.21,-3 1.98,-5.46 2.31,-7.39 0.17,-0.82 0.76,-1.23 1.8,-1.23 0.61,0 1.03,0.09 1.25,0.28 0.22,0.18 0.45,0.57 0.66,1.13 0.22,0.57 0.34,1.08 0.38,1.53 0.08,0.53 0.29,1.71 0.63,3.55 0.31,1.73 0.52,2.95 0.62,3.66 0.17,1.04 0.48,2.38 0.92,4.06 0.44,1.68 0.79,2.52 1.04,2.52 0.17,0 0.42,-0.38 0.74,-1.14l1.56 -3.61c0.29,-0.65 0.59,-1.3 0.92,-1.93l2.13 -4.37c1.17,-2.41 2.06,-4.15 2.69,-5.23 0.62,-1.09 1.05,-1.74 1.26,-1.96 0.22,-0.23 0.46,-0.34 0.74,-0.34 0.47,0 1,0.13 1.58,0.38 0.58,0.25 0.88,0.53 0.91,0.84 0.03,0.31 0.08,1.61 0.17,3.89l0.24 5.81c0.08,1.85 0.18,3.42 0.34,4.71 0.15,1.3 0.41,2.34 0.78,3.14 0.58,1.26 0.87,2.24 0.87,2.94 0,0.59 -0.24,1 -0.73,1.23 -0.5,0.22 -0.95,0.34 -1.37,0.34 -0.86,0 -1.53,-0.7 -2,-2.08 -0.46,-1.39 -0.8,-5.37 -1.01,-11.94 -0.08,-1.98 -0.2,-3.18 -0.36,-3.63zm23.74 -5.36c-0.44,-1.94 -1,-3.29 -1.66,-4.06 -0.65,-0.77 -1.52,-1.37 -2.6,-1.78 -1.08,-0.42 -2.05,-0.64 -2.92,-0.64 -0.33,0 -0.83,0.13 -1.48,0.38 -0.65,0.26 -1.15,0.49 -1.49,0.7 -0.49,0.29 -0.93,0.43 -1.34,0.43 -0.48,0 -0.71,-0.25 -0.71,-0.75 0,-0.53 0.41,-1.27 1.21,-2.21 0.81,-0.95 2.22,-1.42 4.26,-1.42l0.8 0c2.02,0 3.8,0.53 5.35,1.59 1.55,1.06 2.65,2.57 3.3,4.55 0.65,1.97 0.98,4.62 0.98,7.95 0,2.25 -0.71,4.99 -2.14,8.2 -1.42,3.21 -3.24,5.65 -5.44,7.29 -2.2,1.65 -4.54,2.48 -7.03,2.48 -0.89,0 -1.73,-0.51 -2.51,-1.54 -0.78,-1.03 -1.17,-2.3 -1.17,-3.84 0,-2.81 0.62,-5.3 1.85,-7.45 1.23,-2.15 2.62,-3.9 4.15,-5.24 1.53,-1.34 3.65,-2.42 6.36,-3.24 0.89,-0.26 1.5,-0.46 1.82,-0.61 0.32,-0.15 0.46,-0.42 0.41,-0.8zm0.5 3.79c-2.87,0.58 -5.06,1.51 -6.59,2.78 -3.45,3.23 -5.17,6.84 -5.17,10.85 0,0.53 0.09,1.04 0.28,1.5 0.18,0.46 0.39,0.7 0.63,0.7 0.92,0 1.76,-0.17 2.51,-0.48 0.76,-0.32 1.68,-1 2.77,-2.02 1.09,-1.02 2.08,-2.29 2.97,-3.8 0.88,-1.52 1.53,-2.97 1.93,-4.38 0.41,-1.4 0.62,-2.48 0.64,-3.23 0.03,-0.75 0.03,-1.39 0.02,-1.91zm17.97 11.09c-1.73,2.33 -3.46,4.08 -5.15,5.25 -1.7,1.16 -3.26,1.75 -4.67,1.75 -0.95,0 -1.78,-0.4 -2.47,-1.21 -0.7,-0.81 -1.04,-1.84 -1.04,-3.11 0,-3.26 1.45,-6.77 4.37,-10.54 2.91,-3.77 5.81,-5.65 8.69,-5.65 1.04,0 1.82,0.59 2.33,1.79 0.16,0.39 0.41,0.6 0.76,0.6 0.99,0 1.49,0.38 1.49,1.15 0,0.39 -0.06,0.91 -0.18,1.58 -0.67,3.66 -1,6.24 -1,7.74 0,3 0.57,4.8 1.71,5.4 0.55,0.3 0.82,0.66 0.82,1.09 0,0.39 -0.27,0.77 -0.8,1.17 -0.53,0.39 -1.05,0.58 -1.54,0.58 -0.96,0 -1.75,-0.66 -2.36,-1.97 -0.62,-1.32 -0.93,-3.19 -0.93,-5.62zm-1.13 -10.48c-1.64,0 -3.54,1.54 -5.72,4.6 -2.17,3.07 -3.26,5.62 -3.26,7.64 0,1.42 0.48,2.14 1.42,2.14 1.37,0 3.26,-1.38 5.68,-4.13 2.42,-2.75 3.63,-5.28 3.63,-7.59 0,-1.77 -0.58,-2.66 -1.75,-2.66zm14.54 15.09c-0.61,2.24 -1.17,5.37 -1.71,9.4l-0.52 3.51c-0.09,0.5 -0.32,0.99 -0.69,1.48 -0.37,0.49 -0.71,0.74 -1.02,0.74 -0.39,0 -0.82,-0.2 -1.31,-0.58 -0.49,-0.39 -0.73,-0.71 -0.73,-0.94 0,-0.69 0.15,-1.62 0.46,-2.83 2.27,-9.16 3.4,-17.22 3.4,-24.15l-0.02 -1.56c-0.03,-1.34 0.21,-2.32 0.71,-2.92 0.5,-0.61 1.07,-0.92 1.71,-0.92 0.3,0 0.59,0.24 0.86,0.7 0.27,0.46 0.41,1.12 0.41,1.98 0,1.2 -0.12,2.66 -0.37,4.37 -0.32,2.16 -0.49,3.4 -0.5,3.72 1.85,-3.22 3.8,-5.74 5.87,-7.55 2.07,-1.81 4,-2.72 5.77,-2.72 1.25,0 2.31,0.47 3.17,1.4 0.86,0.94 1.3,2.1 1.3,3.49 0,4.04 -1.55,7.72 -4.66,11.01 -3.1,3.3 -6.12,4.95 -9.06,4.95 -0.74,0 -1.32,-0.18 -1.74,-0.55 -0.43,-0.37 -0.88,-1.05 -1.33,-2.03zm11.55 -14.98c-1.75,0 -3.91,1.64 -6.49,4.91 -2.58,3.28 -3.87,5.82 -3.87,7.65 0,0.45 0.25,0.88 0.76,1.3 0.51,0.42 1.15,0.63 1.93,0.63 1.78,0 3.82,-1.31 6.12,-3.94 2.31,-2.62 3.46,-5.2 3.46,-7.73 0,-0.91 -0.18,-1.6 -0.55,-2.1 -0.37,-0.49 -0.83,-0.73 -1.37,-0.73z"/>
   <path class="fil1" d="M27.26 120.6c2.94,-0.51 5.58,-2.41 7.91,-5.7 1.09,-1.52 2.05,-2.6 2.88,-3.24 0.83,-0.63 1.7,-0.96 2.64,-0.96 0.37,0 0.74,0.17 1.11,0.5 0.38,0.34 0.56,0.74 0.56,1.19 0,0.61 -0.57,1.09 -1.73,1.44 -0.61,0.18 -1.18,0.5 -1.71,0.95 -0.53,0.45 -1.54,1.51 -3.03,3.2 -1.17,1.31 -2.22,2.24 -3.14,2.77 -0.09,0.05 -0.14,0.09 -0.14,0.13 0,0.05 0.06,0.1 0.17,0.15 0.9,0.49 1.86,1.42 2.87,2.81 1.46,2.02 2.56,3.29 3.29,3.82 0.74,0.53 1.57,0.79 2.52,0.79l0.62 -0.02c0.43,-0.03 0.65,0.17 0.65,0.58 0,0.47 -0.27,0.96 -0.8,1.47 -0.53,0.51 -1.42,0.76 -2.64,0.76 -0.94,0 -1.85,-0.41 -2.74,-1.22 -0.89,-0.81 -1.9,-2.13 -3.04,-3.96 -0.66,-1.08 -1.27,-1.9 -1.84,-2.45 -0.57,-0.56 -1.21,-0.84 -1.9,-0.84 -0.15,0 -0.61,0.12 -1.38,0.37 -0.77,0.25 -1.2,0.49 -1.29,0.72 -0.09,0.23 -0.17,1.05 -0.21,2.48 -0.04,1.42 -0.06,2.57 -0.06,3.43 0,0.46 -0.22,0.87 -0.65,1.23 -0.44,0.36 -0.91,0.54 -1.42,0.54 -0.52,0 -0.93,-0.15 -1.22,-0.46 -0.3,-0.3 -0.45,-0.62 -0.45,-0.94 0,-0.44 0.17,-1.5 0.5,-3.16 0.6,-3.03 1.19,-8.02 1.79,-14.98 0.04,-0.67 0.3,-1.27 0.76,-1.81 0.46,-0.54 0.98,-0.81 1.56,-0.81 0.32,0 0.59,0.18 0.81,0.52 0.21,0.35 0.33,0.79 0.33,1.34 0,0.44 -0.08,0.93 -0.23,1.49 -0.71,2.57 -1.14,5.19 -1.32,7.87zm42.87 7.63c-0.61,2.24 -1.17,5.37 -1.71,9.4l-0.52 3.51c-0.09,0.5 -0.32,0.99 -0.69,1.48 -0.37,0.49 -0.71,0.74 -1.02,0.74 -0.39,0 -0.82,-0.2 -1.32,-0.59 -0.49,-0.39 -0.73,-0.71 -0.73,-0.94 0,-0.69 0.15,-1.63 0.46,-2.83 2.27,-9.16 3.4,-17.22 3.4,-24.15l-0.02 -1.56c-0.03,-1.34 0.21,-2.32 0.71,-2.92 0.5,-0.61 1.07,-0.91 1.71,-0.91 0.3,0 0.59,0.24 0.86,0.7 0.27,0.46 0.41,1.13 0.41,1.98 0,1.2 -0.12,2.66 -0.37,4.37 -0.32,2.16 -0.49,3.4 -0.5,3.72 1.85,-3.22 3.8,-5.74 5.87,-7.55 2.07,-1.81 4,-2.72 5.77,-2.72 1.25,0 2.31,0.47 3.17,1.4 0.86,0.94 1.3,2.1 1.3,3.49 0,4.04 -1.55,7.72 -4.66,11.01 -3.1,3.3 -6.12,4.95 -9.06,4.95 -0.74,0 -1.31,-0.18 -1.74,-0.55 -0.43,-0.38 -0.88,-1.05 -1.33,-2.03zm11.55 -14.97c-1.75,0 -3.91,1.64 -6.49,4.91 -2.58,3.28 -3.87,5.83 -3.87,7.65 0,0.45 0.25,0.88 0.76,1.3 0.51,0.43 1.15,0.63 1.93,0.63 1.78,0 3.82,-1.31 6.12,-3.94 2.31,-2.62 3.46,-5.2 3.46,-7.73 0,-0.91 -0.18,-1.6 -0.54,-2.1 -0.37,-0.49 -0.83,-0.73 -1.37,-0.73zm33.24 0.84c-1,1.61 -2.42,4.34 -4.24,8.19 -0.41,0.86 -0.83,1.7 -1.25,2.51 -0.14,0.26 -0.4,0.84 -0.78,1.73 -1.3,3.02 -2.44,4.54 -3.41,4.54 -0.77,0 -1.33,-0.09 -1.68,-0.28 -0.35,-0.18 -0.69,-0.69 -1.01,-1.52 -0.32,-0.83 -0.8,-2.78 -1.44,-5.86 -0.73,-3.48 -1.23,-5.63 -1.49,-6.43 -0.84,1.9 -1.59,3.73 -2.25,5.49 -0.99,2.59 -1.95,4.7 -2.88,6.34 -0.93,1.62 -1.6,2.61 -2.01,2.93 -0.41,0.33 -0.8,0.5 -1.17,0.5 -0.38,0 -0.73,-0.15 -1.04,-0.45 -0.31,-0.3 -0.46,-0.59 -0.46,-0.88 0.08,-0.51 0.16,-0.83 0.26,-0.95 1.08,-1.33 2.01,-2.74 2.79,-4.24 0.78,-1.51 1.78,-3.75 2.99,-6.76 1.21,-3 1.98,-5.46 2.31,-7.39 0.16,-0.82 0.76,-1.23 1.8,-1.23 0.61,0 1.03,0.09 1.25,0.28 0.22,0.18 0.44,0.57 0.66,1.13 0.22,0.57 0.34,1.08 0.38,1.53 0.08,0.53 0.29,1.71 0.63,3.55 0.31,1.73 0.52,2.95 0.62,3.67 0.17,1.04 0.48,2.38 0.92,4.06 0.44,1.68 0.79,2.51 1.04,2.51 0.17,0 0.42,-0.38 0.74,-1.14l1.56 -3.61c0.29,-0.66 0.59,-1.3 0.92,-1.93l2.13 -4.38c1.17,-2.41 2.06,-4.15 2.69,-5.23 0.62,-1.09 1.05,-1.74 1.26,-1.96 0.22,-0.23 0.47,-0.34 0.74,-0.34 0.47,0 1,0.13 1.58,0.38 0.58,0.25 0.88,0.53 0.91,0.84 0.03,0.31 0.08,1.61 0.17,3.89l0.24 5.81c0.08,1.85 0.18,3.42 0.34,4.71 0.15,1.3 0.41,2.34 0.78,3.14 0.58,1.26 0.87,2.24 0.87,2.94 0,0.59 -0.24,1 -0.73,1.23 -0.5,0.22 -0.95,0.34 -1.37,0.34 -0.86,0 -1.53,-0.7 -2,-2.08 -0.46,-1.39 -0.8,-5.37 -1.01,-11.95 -0.08,-1.98 -0.2,-3.18 -0.35,-3.63zm25.51 9.99c0,1.26 -1.12,2.79 -3.35,4.58 -2.24,1.78 -4.55,2.67 -6.93,2.67 -2,0 -3.54,-0.58 -4.63,-1.77 -1.08,-1.17 -1.62,-2.82 -1.62,-4.93 0,-3.55 1.19,-6.92 3.59,-10.12 2.39,-3.2 5.02,-4.8 7.86,-4.8 0.93,0 1.69,0.3 2.28,0.91 0.59,0.6 0.88,1.34 0.88,2.19 0,1.91 -0.94,3.74 -2.81,5.49 -1.87,1.75 -4.38,3.47 -7.51,5.15 -0.65,0.34 -0.97,0.77 -0.97,1.3 0,1.03 0.29,1.85 0.89,2.48 0.6,0.62 1.48,0.93 2.64,0.93 2.67,0 5.39,-1.47 8.17,-4.43 0.41,-0.41 0.72,-0.62 0.93,-0.62 0.39,0 0.59,0.32 0.59,0.95zm-12.93 -2.9c5.26,-3.13 7.9,-5.64 7.9,-7.54 0,-0.74 -0.34,-1.12 -1.01,-1.12 -1.14,0 -2.43,0.84 -3.86,2.51 -1.43,1.68 -2.44,3.72 -3.02,6.14zm-64.88 -0.96c0,4.61 -1.49,7.74 -4.46,9.38 -1.45,0.81 -3.04,1.21 -4.77,1.21 -3,0 -5.32,-0.99 -6.97,-2.95 -1.52,-1.83 -2.29,-4.29 -2.29,-7.35 0,-3.65 1.02,-6.36 3.05,-8.12 1.7,-1.46 3.76,-2.19 6.2,-2.19 2.91,0 5.19,0.96 6.85,2.88 1.58,1.82 2.37,4.21 2.37,7.15zm-3.51 -1.61c-0.21,-1.59 -0.73,-2.85 -1.55,-3.77 -1.11,-1.25 -2.5,-1.87 -4.17,-1.87 -1.69,0 -3.09,0.62 -4.19,1.87 -0.83,0.91 -1.35,2.17 -1.56,3.77l11.47 0zm0.08 2.74l-11.62 0c0.1,1.9 0.6,3.46 1.51,4.66 1.04,1.37 2.48,2.04 4.31,2.04 1.82,0 3.26,-0.69 4.29,-2.06 0.89,-1.19 1.4,-2.74 1.51,-4.64z"/>
   <g id="atau-belgi.svg">
    <path class="fil0 str0" d="M79.03 43.46c-22.18,3.5 -29.58,17.43 -31.76,25.6 -1.91,7.08 -1.36,18.72 14.48,19.11 5.14,0 20.08,-0.04 32.34,0 15.22,0.04 19.46,-12.14 19.11,-22.61 -0.67,-19 -17.77,-24.67 -34.17,-22.1z"/>
    <path class="fil2" d="M59.1 70.39c0,-4.41 3.6,-8.02 8.02,-8.02 4.41,0 8.02,3.61 8.02,8.02 0,4.41 -3.61,8.02 -8.02,8.02 -4.42,0 -8.02,-3.61 -8.02,-8.02z"/>
   </g>
  </g>
 </g>
</svg>
