<?xml version="1.0" encoding="UTF-8"?>
<!DOCTYPE svg PUBLIC "-//W3C//DTD SVG 1.1//EN" "http://www.w3.org/Graphics/SVG/1.1/DTD/svg11.dtd">
<!-- Creator: CorelDRAW 2020 -->
<svg xmlns="http://www.w3.org/2000/svg" xml:space="preserve" width="15mm" height="10.3mm" version="1.1" style="shape-rendering:geometricPrecision; text-rendering:geometricPrecision; image-rendering:optimizeQuality; fill-rule:evenodd; clip-rule:evenodd"
viewBox="0 0 179.96 123.57"
 xmlns:xlink="http://www.w3.org/1999/xlink"
 xmlns:xodm="http://www.corel.com/coreldraw/odm/2003">
 <defs>
  <style type="text/css">
   <![CDATA[
    .str0 {stroke:#C6B93A;stroke-width:9;stroke-miterlimit:22.9256}
    .str1 {stroke:#C6B93A;stroke-width:2.4;stroke-miterlimit:22.9256}
    .fil0 {fill:none}
    .fil1 {fill:#C6B93A}
    .fil2 {fill:#C6B93A;fill-rule:nonzero}
   ]]>
  </style>
 </defs>
 <g id="Layer_x0020_1">
  <metadata id="CorelCorpID_0Corel-Layer"/>
  <polygon class="fil0" points="-0,0 179.96,0 179.96,122.37 -0,122.37 "/>
  <path class="fil1" d="M71.5 57.12c0,-3.93 3.21,-7.14 7.14,-7.14 3.93,0 7.14,3.21 7.14,7.14 0,3.93 -3.21,7.14 -7.14,7.14 -3.93,0 -7.14,-3.21 -7.14,-7.14z"/>
  <path class="fil0 str0" d="M89.24 33.15c-19.74,3.12 -26.33,15.52 -28.27,22.79 -1.7,6.3 -1.21,16.66 12.89,17.01 4.57,0 17.88,-0.03 28.79,0 13.55,0.03 17.32,-10.81 17.01,-20.13 -0.59,-16.92 -15.82,-21.96 -30.41,-19.68z"/>
  <line class="fil0 str1" x1="9" y1="122.37" x2="170.96" y2= "122.37" />
  <path class="fil2" d="M23.99 104.33c0,1.12 -0.99,2.48 -2.98,4.07 -1.99,1.58 -4.05,2.38 -6.16,2.38 -1.77,0 -3.14,-0.52 -4.11,-1.57 -0.96,-1.04 -1.44,-2.5 -1.44,-4.38 0,-3.15 1.06,-6.15 3.19,-8.99 2.13,-2.84 4.46,-4.27 6.98,-4.27 0.82,0 1.5,0.27 2.03,0.81 0.52,0.54 0.78,1.19 0.78,1.95 0,1.7 -0.84,3.32 -2.5,4.88 -1.67,1.55 -3.89,3.08 -6.68,4.58 -0.57,0.3 -0.86,0.68 -0.86,1.16 0,0.91 0.26,1.65 0.79,2.2 0.53,0.55 1.31,0.82 2.35,0.82 2.37,0 4.79,-1.31 7.26,-3.93 0.37,-0.36 0.64,-0.55 0.83,-0.55 0.35,0 0.53,0.28 0.53,0.85zm-11.49 -2.58c4.68,-2.78 7.01,-5.01 7.01,-6.7 0,-0.66 -0.3,-0.99 -0.9,-0.99 -1.01,0 -2.16,0.74 -3.43,2.23 -1.27,1.49 -2.17,3.31 -2.69,5.46zm20.63 2.03c-2.51,2.16 -4.17,4.34 -4.97,6.53 -0.31,0.73 -0.63,1.28 -0.94,1.64 -1.31,-0.07 -1.97,-0.69 -1.97,-1.83 0,-1.69 1.88,-4.24 5.64,-7.67l0.8 -0.75c-2.2,-3.3 -3.29,-5.82 -3.29,-7.59 0,-1.56 0.66,-2.35 1.98,-2.35 0.38,0 0.65,0.16 0.82,0.48 0.18,0.32 0.3,1.05 0.41,2.18 0.14,1.75 0.9,3.61 2.26,5.57 3.05,-2.62 5.12,-4.97 6.18,-7.04 0.37,-0.66 0.64,-1.08 0.84,-1.25 0.2,-0.18 0.47,-0.27 0.8,-0.27 0.39,0 0.77,0.15 1.12,0.46 0.34,0.3 0.52,0.7 0.52,1.17 0,1.1 -2.67,4.12 -8.04,9.06 1.85,2.36 3.8,4.13 5.89,5.31 0.25,0.14 0.5,0.29 0.73,0.45 0.04,0.1 0.07,0.25 0.07,0.46 0,0.47 -0.18,0.9 -0.52,1.27 -0.35,0.38 -0.77,0.56 -1.25,0.56 -1.48,0 -3.84,-2.13 -7.06,-6.4zm15.26 1.19c4.1,-7.57 7.48,-11.36 10.14,-11.36 0.71,0 1.28,0.41 1.72,1.21 0.44,0.81 0.8,2.59 1.07,5.35 0.28,2.95 0.9,5.07 1.87,6.38 0.5,0.67 0.75,1.17 0.75,1.49 0,0.29 -0.16,0.55 -0.5,0.8 -0.33,0.24 -0.68,0.36 -1.05,0.36 -0.86,0 -1.62,-0.48 -2.29,-1.44 -0.66,-0.96 -1.08,-2.66 -1.27,-5.08 -0.19,-2.29 -0.39,-3.79 -0.6,-4.5 -0.21,-0.71 -0.55,-1.06 -1.04,-1.06 -1.16,0 -3.49,3.03 -6.99,9.08 -1.05,1.81 -1.82,2.99 -2.32,3.54 -0.5,0.56 -0.95,0.83 -1.35,0.83 -0.48,0 -0.89,-0.14 -1.22,-0.43 -0.33,-0.29 -0.5,-0.64 -0.5,-1.06 0,-0.31 0.09,-0.91 0.27,-1.79 1.36,-7 2.43,-13.92 3.21,-20.77 0.18,-1.6 0.46,-2.66 0.85,-3.19 0.39,-0.53 0.72,-0.8 0.98,-0.8 0.47,0 0.9,0.2 1.29,0.58 0.39,0.38 0.58,0.92 0.58,1.6 0,2.03 -0.5,4.81 -1.49,8.35 -0.49,1.75 -1,3.98 -1.53,6.68 -0.54,2.7 -0.81,4.37 -0.81,5.01 0,0.13 0.06,0.2 0.18,0.2l0.07 0zm23.81 -17.18c-0.23,0 -0.41,-0.25 -0.53,-0.75 -0.05,-0.15 -0.1,-0.32 -0.18,-0.51 -0.3,-0.71 -0.45,-1.34 -0.45,-1.87 0,-0.44 0.26,-0.89 0.78,-1.34 0.52,-0.46 1.1,-0.69 1.74,-0.69 0.32,0 0.68,0.12 1.08,0.37 0.4,0.25 0.59,0.48 0.59,0.72 0,0.37 -0.14,0.98 -0.41,1.86 -0.27,0.87 -0.7,1.46 -1.29,1.76 -0.59,0.3 -1.04,0.45 -1.35,0.45zm-2.17 18.47c0,0.83 0.12,1.78 0.35,2.83 0.05,0.2 0.06,0.36 0.06,0.49 0,0.2 -0.18,0.46 -0.54,0.77 -0.37,0.31 -0.75,0.47 -1.16,0.47 -1.07,0 -1.6,-0.98 -1.6,-2.94 0,-2.03 0.42,-5.24 1.25,-9.62 0.29,-1.54 0.43,-2.48 0.43,-2.83 0,-0.69 0.13,-1.29 0.38,-1.78 0.25,-0.49 0.61,-0.74 1.07,-0.74 0.56,0 1,0.14 1.33,0.41 0.33,0.27 0.48,0.57 0.48,0.9 0,0.33 -0.07,0.77 -0.23,1.3 -0.82,2.91 -1.34,4.99 -1.53,6.25 -0.2,1.25 -0.3,2.75 -0.3,4.48zm9.66 -5.74c1.41,-2.57 3.1,-4.65 5.06,-6.24 1.96,-1.59 3.73,-2.39 5.31,-2.39 0.87,0 1.61,0.4 2.21,1.21 0.61,0.8 0.91,1.78 0.91,2.94 0,3.43 -1.29,6.64 -3.88,9.65 -2.58,3 -5.31,4.5 -8.19,4.5 -0.78,0 -1.5,-0.21 -2.16,-0.64 -0.65,-0.42 -1.02,-0.95 -1.09,-1.6 -0.05,-0.51 -0.2,-0.9 -0.45,-1.16 -0.47,-0.47 -0.71,-0.98 -0.71,-1.52 0,-1 0.27,-3.15 0.82,-6.43l1.7 -9.89c0.58,-3.32 1.01,-5.37 1.28,-6.15 0.27,-0.78 0.57,-1.3 0.9,-1.57 0.33,-0.27 0.73,-0.39 1.22,-0.39 0.77,0 1.16,0.67 1.16,2 0,1.27 -0.42,3.04 -1.27,5.33 -0.82,2.19 -1.76,6.31 -2.83,12.35zm-0.4 5.51c0.57,1.07 1.27,1.6 2.09,1.6 1.25,0 2.58,-0.53 3.98,-1.56 1.4,-1.04 2.61,-2.51 3.63,-4.4 1.02,-1.89 1.53,-3.49 1.53,-4.79 0,-0.58 -0.11,-1.08 -0.32,-1.5 -0.21,-0.42 -0.48,-0.63 -0.8,-0.63 -1.53,0 -3.4,1.26 -5.61,3.76 -2.21,2.51 -3.71,5.01 -4.51,7.52zm22.4 -18.24c-0.23,0 -0.41,-0.25 -0.53,-0.75 -0.05,-0.15 -0.1,-0.32 -0.18,-0.51 -0.3,-0.71 -0.45,-1.34 -0.45,-1.87 0,-0.44 0.26,-0.89 0.78,-1.34 0.52,-0.46 1.1,-0.69 1.74,-0.69 0.32,0 0.68,0.12 1.08,0.37 0.4,0.25 0.59,0.48 0.59,0.72 0,0.37 -0.14,0.98 -0.41,1.86 -0.27,0.87 -0.7,1.46 -1.29,1.76 -0.59,0.3 -1.04,0.45 -1.35,0.45zm-2.17 18.47c0,0.83 0.12,1.78 0.35,2.83 0.05,0.2 0.06,0.36 0.06,0.49 0,0.2 -0.18,0.46 -0.54,0.77 -0.37,0.31 -0.75,0.47 -1.16,0.47 -1.07,0 -1.6,-0.98 -1.6,-2.94 0,-2.03 0.42,-5.24 1.25,-9.62 0.29,-1.54 0.43,-2.48 0.43,-2.83 0,-0.69 0.13,-1.29 0.38,-1.78 0.25,-0.49 0.61,-0.74 1.07,-0.74 0.56,0 1,0.14 1.33,0.41 0.33,0.27 0.48,0.57 0.48,0.9 0,0.33 -0.07,0.77 -0.23,1.3 -0.82,2.91 -1.34,4.99 -1.53,6.25 -0.2,1.25 -0.3,2.75 -0.3,4.48zm13.36 -13.01c1.13,-0.09 2.21,-0.19 3.21,-0.32 0.99,-0.11 1.82,-0.16 2.48,-0.16 0.84,0 1.37,0.08 1.59,0.23 0.22,0.15 0.33,0.42 0.33,0.81 0,0.89 -0.63,1.38 -1.87,1.45 -1.6,0.1 -3.07,0.24 -4.42,0.42 -1.34,0.18 -2.07,0.32 -2.17,0.43 -0.1,0.12 -0.43,1.43 -1,3.93 -0.56,2.51 -0.85,4.14 -0.85,4.89 0,1.21 0.16,2.02 0.48,2.42 0.32,0.41 0.8,0.6 1.44,0.6 0.95,0 2.27,-0.71 3.96,-2.13 0.65,-0.58 1.15,-0.87 1.5,-0.87 0.47,0 0.71,0.25 0.71,0.76 0,0.8 -0.76,1.82 -2.29,3.08 -1.52,1.26 -3.09,1.9 -4.68,1.9 -2.67,0 -4,-1.57 -4,-4.71 0,-1.13 0.28,-2.89 0.82,-5.28 0.54,-2.37 0.81,-3.79 0.81,-4.27 0,-0.16 -0.14,-0.25 -0.4,-0.25l-1.72 0.15c-1.41,0 -2.12,-0.57 -2.12,-1.69 0,-0.64 0.32,-0.96 0.98,-0.96l3.4 0c0.23,0 0.43,-0.11 0.62,-0.32 0.17,-0.21 0.43,-0.91 0.77,-2.1 0.34,-1.2 0.65,-2.38 0.91,-3.55 0.27,-1.16 0.78,-1.73 1.56,-1.73 0.47,0 0.84,0.16 1.1,0.5 0.27,0.33 0.4,0.64 0.4,0.92 0,0.15 -0.2,0.94 -0.59,2.36l-0.96 3.47zm14.47 -5.46c-0.23,0 -0.41,-0.25 -0.53,-0.75 -0.05,-0.15 -0.1,-0.32 -0.18,-0.51 -0.3,-0.71 -0.45,-1.34 -0.45,-1.87 0,-0.44 0.26,-0.89 0.78,-1.34 0.52,-0.46 1.1,-0.69 1.74,-0.69 0.32,0 0.68,0.12 1.08,0.37 0.4,0.25 0.59,0.48 0.59,0.72 0,0.37 -0.14,0.98 -0.41,1.86 -0.27,0.87 -0.7,1.46 -1.29,1.76 -0.59,0.3 -1.04,0.45 -1.35,0.45zm-2.17 18.47c0,0.83 0.12,1.78 0.35,2.83 0.05,0.2 0.06,0.36 0.06,0.49 0,0.2 -0.18,0.46 -0.54,0.77 -0.37,0.31 -0.75,0.47 -1.16,0.47 -1.07,0 -1.6,-0.98 -1.6,-2.94 0,-2.03 0.42,-5.24 1.25,-9.62 0.29,-1.54 0.43,-2.48 0.43,-2.83 0,-0.69 0.13,-1.29 0.38,-1.78 0.25,-0.49 0.61,-0.74 1.07,-0.74 0.56,0 1,0.14 1.33,0.41 0.33,0.27 0.48,0.57 0.48,0.9 0,0.33 -0.07,0.77 -0.23,1.3 -0.82,2.91 -1.34,4.99 -1.53,6.25 -0.2,1.25 -0.3,2.75 -0.3,4.48zm11.45 4.49c-1.51,0 -2.75,-0.57 -3.74,-1.72 -0.98,-1.15 -1.47,-2.56 -1.47,-4.25 0,-2.84 0.96,-5.65 2.87,-8.41 1.91,-2.76 4.2,-4.14 6.87,-4.14 1.76,0 3.19,0.68 4.29,2.04 1.09,1.35 1.65,2.97 1.65,4.84 0,2.87 -1.13,5.52 -3.4,7.97 -2.27,2.45 -4.62,3.67 -7.07,3.67zm-2.3 -6.39c0,1.11 0.23,2.02 0.7,2.73 0.47,0.71 1.09,1.06 1.86,1.06 1.64,0 3.29,-0.9 4.94,-2.7 1.65,-1.81 2.48,-3.81 2.48,-6.01 0,-1.36 -0.32,-2.45 -0.95,-3.3 -0.63,-0.84 -1.48,-1.26 -2.56,-1.26 -1.77,0 -3.29,1.09 -4.57,3.27 -1.27,2.17 -1.91,4.25 -1.91,6.22zm27.88 -7.14c-0.58,0 -1.2,0.37 -1.88,1.12 -0.68,0.75 -1.71,2.43 -3.1,5.04 -1.83,3.5 -3.01,5.5 -3.54,5.98 -0.54,0.48 -0.98,0.73 -1.33,0.73 -1.3,0 -1.95,-0.63 -1.95,-1.88 0,-0.52 0.09,-1.28 0.27,-2.25 0.6,-3.33 0.91,-6.84 0.91,-10.53 0,-0.42 0.18,-0.89 0.54,-1.4 0.36,-0.51 0.7,-0.77 1.02,-0.77 0.58,0 0.98,0.18 1.22,0.53 0.24,0.35 0.37,1.06 0.37,2.13 0,1.11 -0.33,3.4 -0.99,6.87 -0.22,1.15 -0.33,1.87 -0.33,2.18 0,0.17 0.05,0.27 0.14,0.27 0.16,0 0.93,-1.32 2.3,-3.95 1.38,-2.68 2.59,-4.56 3.62,-5.65 1.04,-1.09 2.18,-1.64 3.43,-1.64 0.99,0 1.8,0.45 2.42,1.35 0.62,0.9 1.08,2.55 1.37,4.94 0.31,2.72 0.59,4.42 0.83,5.08 0.25,0.67 0.64,1 1.18,1 0.34,0 0.77,-0.12 1.29,-0.36 0.09,-0.05 0.15,-0.07 0.2,-0.07 0.47,0 0.71,0.28 0.71,0.82 0,0.49 -0.33,1 -0.98,1.55 -0.65,0.55 -1.43,0.82 -2.35,0.82 -0.94,0 -1.66,-0.37 -2.17,-1.11 -0.51,-0.75 -0.92,-2.73 -1.22,-5.96 -0.3,-3.24 -0.95,-4.86 -1.95,-4.86z"/>
 </g>
</svg>
