<?xml version="1.0" encoding="UTF-8"?>
<!DOCTYPE svg PUBLIC "-//W3C//DTD SVG 1.1//EN" "http://www.w3.org/Graphics/SVG/1.1/DTD/svg11.dtd">
<!-- Creator: CorelDRAW 2020 -->
<svg xmlns="http://www.w3.org/2000/svg" xml:space="preserve" width="36.9853mm" height="10mm" version="1.1" style="shape-rendering:geometricPrecision; text-rendering:geometricPrecision; image-rendering:optimizeQuality; fill-rule:evenodd; clip-rule:evenodd"
viewBox="0 0 888.66 240.28"
 xmlns:xlink="http://www.w3.org/1999/xlink"
 xmlns:xodm="http://www.corel.com/coreldraw/odm/2003">
 <defs>
  <style type="text/css">
   <![CDATA[
    .str0 {stroke:#6B470F;stroke-width:12.01;stroke-miterlimit:22.9256}
    .fil0 {fill:none}
    .fil2 {fill:#6B470F}
    .fil1 {fill:#6B470F;fill-rule:nonzero}
   ]]>
  </style>
 </defs>
 <g id="Layer_x0020_1">
  <metadata id="CorelCorpID_0Corel-Layer"/>
  <g id="_1088743704">
   <polygon class="fil0" points="-0,0 264.3,0 264.3,240.28 -0,240.28 "/>
   <path class="fil1" d="M228.22 121.87c0.14,0.44 0.22,1.08 0.22,1.89 0,1.02 -0.25,3.75 -0.78,8.2 -0.44,3.62 -0.67,5.92 -0.67,6.93 0,0.99 -0.52,1.91 -1.56,2.75 -1.04,0.85 -2.2,1.27 -3.47,1.27 -1.02,0 -1.53,-1.27 -1.53,-3.8 0,-1.56 0.13,-3.53 0.38,-5.92 0.66,-6.47 1.19,-15.32 1.58,-26.52 0.38,-11.19 0.59,-16.88 0.59,-17.05l0 -1.6c0,-4.47 1.45,-6.71 4.35,-6.71 0.98,0 1.76,0.43 2.33,1.31 0.58,0.86 0.88,1.7 0.88,2.49 0,6.33 -0.43,12.77 -1.3,19.3 -0.25,3.23 -0.38,5.67 -0.38,7.34 0,0.37 0.06,0.63 0.19,0.77 0.13,0.15 0.27,0.43 0.41,0.83 2.81,-1.69 7.13,-5.35 12.97,-10.99 5.99,-5.82 10.11,-9.55 12.36,-11.21 0.52,-0.38 1.04,-0.81 1.54,-1.31 2.85,-2.85 4.91,-4.28 6.18,-4.28 0.75,0 1.68,0.38 2.81,1.14 1.13,0.75 1.69,1.39 1.69,1.92 0,0.22 -0.05,0.37 -0.18,0.44 -2.66,3.08 -6.74,6.88 -12.26,11.39 -6.15,5.07 -11.52,9.92 -16.1,14.57 4.32,2.01 9.87,4.12 16.62,6.33 0.08,0.03 0.25,0.1 0.56,0.25 1.39,0.7 2.34,1.12 2.86,1.27 1.3,0.39 2.39,0.79 3.28,1.19 3.23,1.49 6.38,2.68 9.46,3.61 3.09,0.92 4.92,1.37 5.52,1.37 0.25,0 0.54,-0.13 0.85,-0.37 0.31,-0.23 0.6,-0.34 0.9,-0.34 1.02,0 1.93,0.56 2.73,1.68 0.81,1.12 1.21,2.02 1.21,2.68 0,1.15 -0.41,2.1 -1.22,2.87 -0.83,0.76 -1.8,1.16 -2.95,1.16 -1.78,0 -5.1,-0.88 -9.94,-2.63 -4.84,-1.76 -8.53,-3.21 -11.06,-4.38 -1.61,-0.75 -5.92,-2.45 -12.91,-5.1 -6.99,-2.66 -11.02,-3.99 -12.09,-3.99 -1.87,0 -3.22,0.41 -4.06,1.23zm110.25 14.6c-1.22,4.48 -2.35,10.74 -3.42,18.82l-1.04 7.03c-0.18,0.99 -0.63,1.98 -1.39,2.96 -0.74,0.98 -1.42,1.48 -2.05,1.48 -0.77,0 -1.64,-0.39 -2.63,-1.17 -0.98,-0.79 -1.46,-1.41 -1.46,-1.88 0,-1.37 0.31,-3.26 0.93,-5.67 4.54,-18.35 6.81,-34.47 6.81,-48.34l-0.04 -3.13c-0.05,-2.68 0.42,-4.64 1.41,-5.85 1,-1.22 2.14,-1.83 3.43,-1.83 0.6,0 1.17,0.47 1.72,1.4 0.55,0.93 0.81,2.25 0.81,3.97 0,2.4 -0.24,5.33 -0.74,8.75 -0.65,4.32 -0.98,6.82 -1.01,7.45 3.7,-6.45 7.62,-11.49 11.76,-15.12 4.14,-3.63 8,-5.44 11.56,-5.44 2.51,0 4.62,0.94 6.35,2.81 1.73,1.88 2.59,4.21 2.59,6.99 0,8.09 -3.1,15.45 -9.32,22.05 -6.21,6.61 -12.26,9.91 -18.13,9.91 -1.48,0 -2.63,-0.37 -3.48,-1.11 -0.86,-0.75 -1.75,-2.11 -2.67,-4.07zm23.13 -29.98c-3.5,0 -7.83,3.28 -12.99,9.83 -5.16,6.56 -7.74,11.66 -7.74,15.31 0,0.9 0.51,1.77 1.53,2.6 1.02,0.85 2.3,1.27 3.87,1.27 3.56,0 7.64,-2.63 12.26,-7.88 4.63,-5.25 6.93,-10.4 6.93,-15.47 0,-1.82 -0.37,-3.21 -1.09,-4.2 -0.74,-0.98 -1.65,-1.46 -2.75,-1.46zm66.53 1.68c-2.01,3.21 -4.84,8.68 -8.49,16.39 -0.81,1.73 -1.65,3.41 -2.49,5.02 -0.28,0.52 -0.8,1.68 -1.56,3.47 -2.61,6.05 -4.88,9.08 -6.83,9.08 -1.54,0 -2.66,-0.18 -3.37,-0.56 -0.7,-0.37 -1.37,-1.39 -2.02,-3.05 -0.65,-1.67 -1.6,-5.57 -2.87,-11.74 -1.46,-6.97 -2.45,-11.27 -2.97,-12.88 -1.69,3.8 -3.19,7.46 -4.51,10.99 -1.98,5.19 -3.9,9.42 -5.77,12.69 -1.86,3.26 -3.21,5.23 -4.02,5.87 -0.83,0.66 -1.6,0.99 -2.35,0.99 -0.76,0 -1.46,-0.29 -2.09,-0.89 -0.62,-0.6 -0.93,-1.18 -0.93,-1.75 0.15,-1.02 0.32,-1.65 0.52,-1.89 2.16,-2.66 4.02,-5.49 5.58,-8.49 1.56,-3.01 3.56,-7.52 5.99,-13.53 2.41,-6 3.97,-10.93 4.63,-14.79 0.33,-1.64 1.53,-2.45 3.61,-2.45 1.22,0 2.06,0.18 2.5,0.56 0.45,0.37 0.89,1.13 1.32,2.26 0.43,1.14 0.68,2.16 0.76,3.06 0.15,1.07 0.57,3.43 1.26,7.11 0.62,3.46 1.04,5.9 1.23,7.34 0.34,2.07 0.97,4.77 1.85,8.13 0.88,3.36 1.58,5.03 2.07,5.03 0.34,0 0.84,-0.76 1.49,-2.28l3.13 -7.23c0.57,-1.31 1.18,-2.61 1.83,-3.87l4.27 -8.76c2.34,-4.82 4.13,-8.3 5.39,-10.48 1.24,-2.17 2.1,-3.48 2.53,-3.93 0.43,-0.46 0.93,-0.68 1.48,-0.68 0.94,0 1.99,0.25 3.16,0.76 1.17,0.51 1.77,1.07 1.82,1.69 0.05,0.62 0.17,3.22 0.34,7.78l0.48 11.63c0.15,3.7 0.37,6.84 0.67,9.44 0.29,2.59 0.81,4.69 1.56,6.28 1.16,2.53 1.74,4.49 1.74,5.89 0,1.18 -0.48,2.01 -1.46,2.45 -0.99,0.44 -1.9,0.67 -2.75,0.67 -1.73,0 -3.07,-1.4 -4.01,-4.17 -0.93,-2.78 -1.6,-10.76 -2.02,-23.92 -0.15,-3.95 -0.39,-6.37 -0.71,-7.26zm51.06 20c0,2.53 -2.24,5.58 -6.71,9.17 -4.49,3.57 -9.12,5.35 -13.89,5.35 -3.99,0 -7.08,-1.17 -9.26,-3.53 -2.17,-2.35 -3.26,-5.64 -3.26,-9.87 0,-7.11 2.39,-13.86 7.18,-20.27 4.79,-6.41 10.05,-9.61 15.73,-9.61 1.86,0 3.38,0.61 4.57,1.83 1.17,1.21 1.77,2.68 1.77,4.39 0,3.83 -1.88,7.49 -5.63,11 -3.75,3.5 -8.76,6.94 -15.04,10.31 -1.3,0.68 -1.93,1.54 -1.93,2.61 0,2.06 0.58,3.71 1.78,4.96 1.19,1.24 2.96,1.85 5.29,1.85 5.34,0 10.8,-2.95 16.35,-8.86 0.83,-0.81 1.45,-1.23 1.87,-1.23 0.79,0 1.18,0.63 1.18,1.91zm-25.89 -5.81c10.54,-6.25 15.81,-11.29 15.81,-15.09 0,-1.49 -0.68,-2.24 -2.02,-2.24 -2.28,0 -4.86,1.68 -7.73,5.03 -2.86,3.36 -4.88,7.45 -6.05,12.29zm138.2 4.88c-3.47,4.67 -6.92,8.16 -10.31,10.5 -3.41,2.33 -6.52,3.5 -9.36,3.5 -1.91,0 -3.56,-0.8 -4.94,-2.41 -1.4,-1.61 -2.09,-3.69 -2.09,-6.23 0,-6.52 2.91,-13.55 8.75,-21.09 5.84,-7.54 11.63,-11.3 17.39,-11.3 2.09,0 3.64,1.18 4.67,3.57 0.32,0.79 0.83,1.19 1.53,1.19 1.98,0 2.97,0.76 2.97,2.3 0,0.78 -0.13,1.83 -0.37,3.16 -1.35,7.32 -2.01,12.5 -2.01,15.5 0,6.01 1.13,9.61 3.42,10.81 1.09,0.6 1.64,1.32 1.64,2.19 0,0.78 -0.54,1.55 -1.6,2.34 -1.07,0.78 -2.1,1.17 -3.09,1.17 -1.92,0 -3.5,-1.32 -4.73,-3.95 -1.24,-2.63 -1.87,-6.38 -1.87,-11.24zm-2.26 -20.98c-3.28,0 -7.1,3.08 -11.44,9.22 -4.35,6.15 -6.52,11.25 -6.52,15.3 0,2.85 0.95,4.28 2.84,4.28 2.73,0 6.52,-2.76 11.37,-8.28 4.84,-5.51 7.26,-10.58 7.26,-15.19 0,-3.55 -1.17,-5.33 -3.5,-5.33zm50.27 -8.83c-0.89,-3.88 -2,-6.59 -3.32,-8.12 -1.31,-1.54 -3.05,-2.73 -5.21,-3.57 -2.16,-0.84 -4.11,-1.27 -5.85,-1.27 -0.66,0 -1.65,0.25 -2.96,0.76 -1.3,0.51 -2.3,0.98 -2.99,1.4 -0.98,0.57 -1.87,0.86 -2.68,0.86 -0.95,0 -1.42,-0.49 -1.42,-1.5 0,-1.07 0.81,-2.54 2.43,-4.43 1.61,-1.89 4.45,-2.84 8.53,-2.84l1.6 0c4.04,0 7.62,1.07 10.72,3.19 3.1,2.12 5.31,5.15 6.61,9.1 1.31,3.94 1.96,9.24 1.96,15.91 0,4.51 -1.42,10 -4.28,16.43 -2.85,6.43 -6.49,11.3 -10.9,14.6 -4.4,3.31 -9.09,4.96 -14.06,4.96 -1.78,0 -3.46,-1.03 -5.02,-3.09 -1.56,-2.06 -2.35,-4.62 -2.35,-7.68 0,-5.63 1.23,-10.61 3.71,-14.91 2.47,-4.31 5.24,-7.81 8.3,-10.49 3.06,-2.68 7.31,-4.84 12.73,-6.49 1.78,-0.52 3,-0.93 3.65,-1.22 0.65,-0.31 0.92,-0.84 0.81,-1.6zm1 7.59c-5.74,1.17 -10.13,3.03 -13.19,5.56 -6.9,6.46 -10.35,13.69 -10.35,21.72 0,1.07 0.18,2.07 0.56,3 0.37,0.93 0.79,1.4 1.26,1.4 1.84,0 3.52,-0.33 5.03,-0.97 1.51,-0.65 3.36,-2 5.54,-4.04 2.19,-2.05 4.17,-4.59 5.95,-7.62 1.77,-3.04 3.06,-5.95 3.87,-8.76 0.81,-2.81 1.23,-4.96 1.28,-6.46 0.05,-1.5 0.06,-2.78 0.04,-3.83zm35.98 22.21c-3.47,4.67 -6.92,8.16 -10.31,10.5 -3.41,2.33 -6.52,3.5 -9.36,3.5 -1.91,0 -3.56,-0.8 -4.94,-2.41 -1.4,-1.61 -2.09,-3.69 -2.09,-6.23 0,-6.52 2.91,-13.55 8.75,-21.09 5.84,-7.54 11.63,-11.3 17.39,-11.3 2.09,0 3.64,1.18 4.67,3.57 0.32,0.79 0.83,1.19 1.53,1.19 1.98,0 2.97,0.76 2.97,2.3 0,0.78 -0.13,1.83 -0.37,3.16 -1.35,7.32 -2.01,12.5 -2.01,15.5 0,6.01 1.13,9.61 3.42,10.81 1.09,0.6 1.64,1.32 1.64,2.19 0,0.78 -0.54,1.55 -1.6,2.34 -1.07,0.78 -2.1,1.17 -3.09,1.17 -1.92,0 -3.5,-1.32 -4.73,-3.95 -1.24,-2.63 -1.87,-6.38 -1.87,-11.24zm-2.26 -20.98c-3.28,0 -7.1,3.08 -11.44,9.22 -4.35,6.15 -6.52,11.25 -6.52,15.3 0,2.85 0.95,4.28 2.84,4.28 2.73,0 6.52,-2.76 11.37,-8.28 4.84,-5.51 7.26,-10.58 7.26,-15.19 0,-3.55 -1.17,-5.33 -3.5,-5.33zm69.46 1.91c-2.01,3.21 -4.84,8.68 -8.49,16.39 -0.81,1.73 -1.65,3.41 -2.49,5.02 -0.28,0.52 -0.8,1.68 -1.56,3.47 -2.61,6.05 -4.88,9.08 -6.83,9.08 -1.54,0 -2.66,-0.18 -3.37,-0.56 -0.7,-0.37 -1.37,-1.39 -2.02,-3.05 -0.65,-1.67 -1.6,-5.57 -2.87,-11.74 -1.46,-6.97 -2.45,-11.27 -2.97,-12.88 -1.69,3.8 -3.19,7.46 -4.51,10.99 -1.98,5.19 -3.9,9.42 -5.77,12.69 -1.86,3.26 -3.21,5.23 -4.02,5.87 -0.83,0.66 -1.6,0.99 -2.35,0.99 -0.76,0 -1.46,-0.29 -2.09,-0.89 -0.62,-0.6 -0.93,-1.18 -0.93,-1.75 0.15,-1.02 0.32,-1.65 0.52,-1.89 2.16,-2.66 4.02,-5.49 5.58,-8.49 1.56,-3.01 3.56,-7.52 5.99,-13.53 2.41,-6 3.97,-10.93 4.63,-14.79 0.33,-1.64 1.53,-2.45 3.61,-2.45 1.22,0 2.06,0.18 2.5,0.56 0.45,0.37 0.89,1.13 1.32,2.26 0.43,1.14 0.68,2.16 0.76,3.06 0.15,1.07 0.57,3.43 1.26,7.11 0.62,3.46 1.04,5.9 1.23,7.34 0.34,2.07 0.97,4.77 1.85,8.13 0.88,3.36 1.58,5.03 2.07,5.03 0.34,0 0.84,-0.76 1.49,-2.28l3.13 -7.23c0.57,-1.31 1.18,-2.61 1.83,-3.87l4.27 -8.76c2.34,-4.82 4.13,-8.3 5.39,-10.48 1.24,-2.17 2.1,-3.48 2.53,-3.93 0.43,-0.46 0.93,-0.68 1.48,-0.68 0.94,0 1.99,0.25 3.16,0.76 1.17,0.51 1.77,1.07 1.82,1.69 0.05,0.62 0.17,3.22 0.34,7.78l0.48 11.63c0.15,3.7 0.37,6.84 0.67,9.44 0.29,2.59 0.81,4.69 1.56,6.28 1.16,2.53 1.74,4.49 1.74,5.89 0,1.18 -0.48,2.01 -1.46,2.45 -0.99,0.44 -1.9,0.67 -2.75,0.67 -1.73,0 -3.07,-1.4 -4.01,-4.17 -0.93,-2.78 -1.6,-10.76 -2.02,-23.92 -0.15,-3.95 -0.39,-6.37 -0.71,-7.26zm47.53 -10.73c-0.89,-3.88 -2,-6.59 -3.32,-8.12 -1.31,-1.54 -3.05,-2.73 -5.21,-3.57 -2.16,-0.84 -4.11,-1.27 -5.85,-1.27 -0.66,0 -1.65,0.25 -2.96,0.76 -1.3,0.51 -2.3,0.98 -2.99,1.4 -0.98,0.57 -1.87,0.86 -2.68,0.86 -0.95,0 -1.42,-0.49 -1.42,-1.5 0,-1.07 0.81,-2.54 2.43,-4.43 1.61,-1.89 4.45,-2.84 8.53,-2.84l1.6 0c4.04,0 7.62,1.07 10.72,3.19 3.1,2.12 5.31,5.15 6.61,9.1 1.31,3.94 1.96,9.24 1.96,15.91 0,4.51 -1.42,10 -4.28,16.43 -2.85,6.43 -6.49,11.3 -10.9,14.6 -4.4,3.31 -9.09,4.96 -14.06,4.96 -1.78,0 -3.46,-1.03 -5.02,-3.09 -1.56,-2.06 -2.35,-4.62 -2.35,-7.68 0,-5.63 1.23,-10.61 3.71,-14.91 2.47,-4.31 5.24,-7.81 8.3,-10.49 3.06,-2.68 7.31,-4.84 12.73,-6.49 1.78,-0.52 3,-0.93 3.65,-1.22 0.65,-0.31 0.92,-0.84 0.81,-1.6zm1 7.59c-5.74,1.17 -10.13,3.03 -13.19,5.56 -6.9,6.46 -10.35,13.69 -10.35,21.72 0,1.07 0.18,2.07 0.56,3 0.37,0.93 0.79,1.4 1.26,1.4 1.84,0 3.52,-0.33 5.03,-0.97 1.51,-0.65 3.36,-2 5.54,-4.04 2.19,-2.05 4.17,-4.59 5.95,-7.62 1.77,-3.04 3.06,-5.95 3.87,-8.76 0.81,-2.81 1.23,-4.96 1.28,-6.46 0.05,-1.5 0.06,-2.78 0.04,-3.83zm35.98 22.21c-3.47,4.67 -6.92,8.16 -10.31,10.5 -3.41,2.33 -6.52,3.5 -9.36,3.5 -1.91,0 -3.56,-0.8 -4.94,-2.41 -1.4,-1.61 -2.09,-3.69 -2.09,-6.23 0,-6.52 2.91,-13.55 8.75,-21.09 5.84,-7.54 11.63,-11.3 17.39,-11.3 2.09,0 3.64,1.18 4.67,3.57 0.32,0.79 0.83,1.19 1.53,1.19 1.98,0 2.97,0.76 2.97,2.3 0,0.78 -0.13,1.83 -0.37,3.16 -1.35,7.32 -2.01,12.5 -2.01,15.5 0,6.01 1.13,9.61 3.42,10.81 1.09,0.6 1.64,1.32 1.64,2.19 0,0.78 -0.54,1.55 -1.6,2.34 -1.07,0.78 -2.1,1.17 -3.09,1.17 -1.92,0 -3.5,-1.32 -4.73,-3.95 -1.24,-2.63 -1.87,-6.38 -1.87,-11.24zm-2.26 -20.98c-3.28,0 -7.1,3.08 -11.44,9.22 -4.35,6.15 -6.52,11.25 -6.52,15.3 0,2.85 0.95,4.28 2.84,4.28 2.73,0 6.52,-2.76 11.37,-8.28 4.84,-5.51 7.26,-10.58 7.26,-15.19 0,-3.55 -1.17,-5.33 -3.5,-5.33zm29.12 30.21c-1.22,4.48 -2.35,10.74 -3.42,18.82l-1.04 7.03c-0.18,0.99 -0.63,1.98 -1.39,2.96 -0.74,0.98 -1.42,1.48 -2.05,1.48 -0.77,0 -1.64,-0.39 -2.63,-1.17 -0.98,-0.79 -1.46,-1.41 -1.46,-1.88 0,-1.37 0.31,-3.26 0.93,-5.67 4.54,-18.35 6.81,-34.47 6.81,-48.34l-0.04 -3.13c-0.05,-2.68 0.42,-4.64 1.41,-5.85 1,-1.22 2.14,-1.83 3.43,-1.83 0.6,0 1.17,0.47 1.72,1.4 0.55,0.93 0.81,2.25 0.81,3.97 0,2.4 -0.24,5.33 -0.74,8.75 -0.65,4.32 -0.98,6.82 -1.01,7.45 3.7,-6.45 7.62,-11.49 11.76,-15.12 4.14,-3.63 8,-5.44 11.56,-5.44 2.51,0 4.62,0.94 6.35,2.81 1.73,1.88 2.59,4.21 2.59,6.99 0,8.09 -3.1,15.45 -9.32,22.05 -6.21,6.61 -12.26,9.91 -18.13,9.91 -1.48,0 -2.63,-0.37 -3.48,-1.11 -0.86,-0.75 -1.75,-2.11 -2.67,-4.07zm23.13 -29.98c-3.5,0 -7.83,3.28 -12.99,9.83 -5.16,6.56 -7.74,11.66 -7.74,15.31 0,0.9 0.51,1.77 1.53,2.6 1.02,0.85 2.3,1.27 3.87,1.27 3.56,0 7.64,-2.63 12.26,-7.88 4.63,-5.25 6.93,-10.4 6.93,-15.47 0,-1.82 -0.37,-3.21 -1.09,-4.2 -0.74,-0.98 -1.65,-1.46 -2.75,-1.46zm-554.77 13.95c0,9.22 -2.98,15.49 -8.93,18.78 -2.9,1.61 -6.09,2.41 -9.55,2.41 -6,0 -10.66,-1.97 -13.95,-5.91 -3.05,-3.68 -4.58,-8.58 -4.58,-14.72 0,-7.31 2.03,-12.73 6.1,-16.25 3.4,-2.92 7.53,-4.39 12.42,-4.39 5.82,0 10.39,1.92 13.72,5.76 3.17,3.65 4.76,8.42 4.76,14.32zm-7.02 -3.22c-0.42,-3.19 -1.46,-5.71 -3.1,-7.54 -2.22,-2.5 -5.01,-3.75 -8.35,-3.75 -3.38,0 -6.18,1.25 -8.39,3.75 -1.65,1.83 -2.7,4.35 -3.11,7.54l22.96 0zm0.15 5.49l-23.27 0c0.2,3.82 1.21,6.93 3.03,9.33 2.09,2.73 4.97,4.09 8.63,4.09 3.65,0 6.52,-1.37 8.58,-4.13 1.79,-2.38 2.8,-5.48 3.03,-9.29zm189.51 -6.17l2.72 0c4.62,0 8.05,-0.17 10.31,-0.48 1.09,-0.15 2.19,-0.23 3.28,-0.23 0.47,0 1.44,0.29 2.89,0.85 1.45,0.57 2.31,1.05 2.59,1.44 0.27,0.39 0.41,0.9 0.41,1.55 0,0.92 -0.19,1.56 -0.56,1.93 -0.37,0.37 -1.18,0.56 -2.43,0.56 -0.55,0 -1.31,-0.17 -2.3,-0.48 -0.99,-0.32 -1.83,-0.48 -2.5,-0.48 -0.27,0 -1.17,0.06 -2.71,0.19 -0.83,0.06 -2.31,0.01 -4.48,-0.19 -1.67,-0.15 -2.9,-0.23 -3.73,-0.23 -1.14,0 -2.87,0.08 -5.17,0.23 -2.31,0.15 -4.06,0.23 -5.25,0.23 -1.19,0 -2.16,-0.14 -2.89,-0.39 -0.74,-0.27 -1.11,-0.85 -1.11,-1.77 0,-0.41 0.17,-0.86 0.51,-1.4 0.33,-0.53 1.48,-0.95 3.41,-1.27 1.93,-0.31 3.33,-0.47 4.17,-0.47l2.84 0.42z"/>
   <g id="atau-belgi.svg">
    <path class="fil0 str0" d="M126.58 69.61c-35.53,5.61 -47.37,27.92 -50.86,41.01 -3.05,11.34 -2.18,29.98 23.18,30.6 8.23,0 32.16,-0.06 51.79,0 24.37,0.06 31.17,-19.45 30.6,-36.21 -1.07,-30.44 -28.47,-39.5 -54.72,-35.4z"/>
    <path class="fil2" d="M94.66 112.73c0,-7.07 5.77,-12.84 12.84,-12.84 7.07,0 12.84,5.77 12.84,12.84 0,7.07 -5.77,12.84 -12.84,12.84 -7.07,0 -12.84,-5.77 -12.84,-12.84z"/>
   </g>
  </g>
 </g>
</svg>
