<?xml version="1.0" encoding="UTF-8"?>
<!DOCTYPE svg PUBLIC "-//W3C//DTD SVG 1.1//EN" "http://www.w3.org/Graphics/SVG/1.1/DTD/svg11.dtd">
<!-- Creator: CorelDRAW 2020 -->
<svg xmlns="http://www.w3.org/2000/svg" xml:space="preserve" width="18mm" height="10.3mm" version="1.1" style="shape-rendering:geometricPrecision; text-rendering:geometricPrecision; image-rendering:optimizeQuality; fill-rule:evenodd; clip-rule:evenodd"
viewBox="0 0 194.51 111.31"
 xmlns:xlink="http://www.w3.org/1999/xlink"
 xmlns:xodm="http://www.corel.com/coreldraw/odm/2003">
 <defs>
  <style type="text/css">
   <![CDATA[
    .str0 {stroke:#C6B93A;stroke-width:8.1;stroke-miterlimit:22.9256}
    .str1 {stroke:#C6B93A;stroke-width:2.16;stroke-miterlimit:22.9256}
    .fil0 {fill:none}
    .fil1 {fill:#C6B93A}
    .fil2 {fill:#C6B93A;fill-rule:nonzero}
   ]]>
  </style>
 </defs>
 <g id="Layer_x0020_1">
  <metadata id="CorelCorpID_0Corel-Layer"/>
  <g id="_1535310096">
   <g id="atau-belgi.svg">
    <path class="fil0 str0" d="M96.59 29.86c-17.79,2.81 -23.71,13.98 -25.46,20.53 -1.53,5.68 -1.09,15.01 11.61,15.32 4.12,0 16.1,-0.03 25.93,0 12.2,0.03 15.6,-9.74 15.32,-18.13 -0.53,-15.24 -14.25,-19.78 -27.4,-17.72z"/>
    <path class="fil1" d="M80.61 51.45c0,-3.54 2.89,-6.43 6.43,-6.43 3.54,0 6.43,2.89 6.43,6.43 0,3.54 -2.89,6.43 -6.43,6.43 -3.54,0 -6.43,-2.89 -6.43,-6.43z"/>
   </g>
   <polygon class="fil0" points="-0,0 194.51,0 194.51,110.22 -0,110.22 "/>
   <line class="fil0 str1" x1="8.1" y1="110.22" x2="186.41" y2= "110.22" />
   <path class="fil2" d="M26.91 96.06l-18.45 0 0 -2.5 7.86 0 0 -7.96 -6.23 0 0 -2.5 15.19 0 0 2.5 -6.21 0 0 7.96 7.84 0 0 2.5zm25.64 -5.2l-5.93 1.71 1.28 6.77 -2.61 0.78 -1.34 -6.84 -6.77 1.71 -0.85 -2.61 7.11 -1.77 -0.61 -3.25 -4.67 1.17 -0.69 -2.65 4.87 -1.12 -1 -5.23 2.6 -0.83 1.07 5.34 4.59 -1.12 0.56 2.48 -4.67 1.17 0.64 3.26 5.93 -1.47 0.48 2.49zm18.59 -7.92l-1.79 1.68c-1.03,-1.61 -2.47,-2.9 -4.32,-3.9l1.6 -1.85c1.83,1.08 3.34,2.44 4.51,4.07zm7.87 5.73c-1.73,2.69 -3.62,4.88 -5.68,6.59 -2.06,1.71 -4.5,3.1 -7.31,4.16l-1.73 -2.05c2.98,-1.02 5.51,-2.34 7.58,-3.94 2.27,-1.74 4.23,-3.99 5.89,-6.75l1.25 1.98zm-9.68 0.51l-1.7 1.68c-1.69,-1.95 -3.45,-3.34 -5.29,-4.17l1.42 -2.13c2.26,1.1 4.12,2.64 5.57,4.61zm38.96 -8.99l-1.63 1.63c-0.94,-1.36 -2.13,-2.5 -3.57,-3.39l1.46 -1.63c1.49,0.77 2.74,1.89 3.74,3.39zm-2.5 1.99l-1.72 1.6c-0.73,-1.28 -1.9,-2.41 -3.49,-3.38l1.47 -1.6c1.48,0.77 2.72,1.9 3.74,3.39zm-1.29 3.31c-3.44,2.76 -6.96,4.79 -10.57,6.08l0 2.54c0,0.67 0.12,1.1 0.38,1.3 0.2,0.16 0.63,0.25 1.3,0.25l8.73 0 0 2.56 -8.76 0c-1.89,0 -3.08,-0.23 -3.58,-0.68 -0.53,-0.46 -0.8,-1.56 -0.8,-3.29l0 -12.73 2.73 0 0 7.33c3.36,-1.39 6.39,-3.24 9.08,-5.55l1.49 2.19zm20.01 -2.55l-1.79 1.68c-1.03,-1.61 -2.47,-2.9 -4.32,-3.9l1.6 -1.85c1.83,1.08 3.34,2.44 4.51,4.07zm7.87 5.73c-1.73,2.69 -3.62,4.88 -5.68,6.59 -2.06,1.71 -4.5,3.1 -7.31,4.16l-1.73 -2.05c2.98,-1.02 5.51,-2.34 7.58,-3.94 2.27,-1.74 4.23,-3.99 5.89,-6.75l1.25 1.98zm-9.68 0.51l-1.7 1.68c-1.69,-1.95 -3.45,-3.34 -5.29,-4.17l1.42 -2.13c2.26,1.1 4.12,2.64 5.57,4.61zm34.27 9.98l-2.65 0 0 -1.09 -8.51 0 0 -2.54 8.51 0 0 -2.42 -8.09 0 0 -2.54 8.09 0 0 -2.22 -8.51 0 0 -2.5 11.16 0 0 13.32zm20.65 -14.71l-1.82 2.21c-1.28,-1.59 -2.85,-3.07 -4.69,-4.43l1.68 -2.15c1.82,1.21 3.44,2.66 4.83,4.37zm8.18 2.94c-3.04,5.04 -7.51,8.97 -13.42,11.79l-1.91 -2.26c2.66,-1.16 5.13,-2.61 7.39,-4.34 2.82,-2.17 5.03,-4.58 6.62,-7.23l1.33 2.03z"/>
  </g>
 </g>
</svg>
