<?xml version="1.0" encoding="UTF-8"?>
<!DOCTYPE svg PUBLIC "-//W3C//DTD SVG 1.1//EN" "http://www.w3.org/Graphics/SVG/1.1/DTD/svg11.dtd">
<!-- Creator: CorelDRAW 2020 -->
<svg xmlns="http://www.w3.org/2000/svg" xml:space="preserve" width="27.1062mm" height="10mm" version="1.1" style="shape-rendering:geometricPrecision; text-rendering:geometricPrecision; image-rendering:optimizeQuality; fill-rule:evenodd; clip-rule:evenodd"
viewBox="0 0 460.02 169.71"
 xmlns:xlink="http://www.w3.org/1999/xlink"
 xmlns:xodm="http://www.corel.com/coreldraw/odm/2003">
 <defs>
  <style type="text/css">
   <![CDATA[
    .str0 {stroke:#6B470F;stroke-width:8.49;stroke-miterlimit:22.9256}
    .fil0 {fill:none}
    .fil2 {fill:#6B470F}
    .fil1 {fill:#6B470F;fill-rule:nonzero}
   ]]>
  </style>
 </defs>
 <g id="Layer_x0020_1">
  <metadata id="CorelCorpID_0Corel-Layer"/>
  <g id="_1486573872">
   <polygon class="fil0" points="-0,0 186.68,0 186.68,169.71 -0,169.71 "/>
   <path class="fil1" d="M189.78 132.06l1.92 0c3.26,0 5.68,-0.12 7.28,-0.34 0.77,-0.11 1.54,-0.16 2.32,-0.16 0.33,0 1.01,0.21 2.04,0.6 1.02,0.4 1.63,0.75 1.83,1.01 0.19,0.28 0.29,0.64 0.29,1.1 0,0.65 -0.14,1.1 -0.4,1.36 -0.26,0.26 -0.83,0.4 -1.72,0.4 -0.39,0 -0.92,-0.12 -1.63,-0.34 -0.7,-0.23 -1.29,-0.34 -1.77,-0.34 -0.19,0 -0.83,0.04 -1.91,0.13 -0.58,0.04 -1.63,0.01 -3.16,-0.13 -1.18,-0.11 -2.05,-0.16 -2.63,-0.16 -0.81,0 -2.03,0.05 -3.65,0.16 -1.63,0.11 -2.86,0.16 -3.71,0.16 -0.84,0 -1.53,-0.1 -2.04,-0.28 -0.52,-0.19 -0.78,-0.6 -0.78,-1.25 0,-0.29 0.12,-0.61 0.36,-0.99 0.23,-0.38 1.04,-0.67 2.41,-0.9 1.36,-0.22 2.35,-0.33 2.94,-0.33l2 0.3zm60.35 7.55c-2.45,3.3 -4.89,5.77 -7.28,7.42 -2.41,1.64 -4.61,2.47 -6.61,2.47 -1.35,0 -2.51,-0.57 -3.49,-1.71 -0.99,-1.14 -1.47,-2.61 -1.47,-4.4 0,-4.61 2.06,-9.57 6.18,-14.9 4.12,-5.33 8.22,-7.98 12.29,-7.98 1.47,0 2.57,0.83 3.3,2.52 0.22,0.56 0.58,0.84 1.08,0.84 1.4,0 2.1,0.54 2.1,1.63 0,0.55 -0.09,1.29 -0.26,2.24 -0.95,5.17 -1.42,8.83 -1.42,10.95 0,4.25 0.8,6.79 2.42,7.63 0.77,0.42 1.16,0.93 1.16,1.54 0,0.55 -0.38,1.1 -1.13,1.65 -0.76,0.55 -1.48,0.83 -2.18,0.83 -1.36,0 -2.47,-0.94 -3.34,-2.79 -0.88,-1.86 -1.32,-4.51 -1.32,-7.94zm-1.6 -14.82c-2.32,0 -5.01,2.17 -8.08,6.51 -3.07,4.35 -4.61,7.95 -4.61,10.8 0,2.01 0.67,3.03 2,3.03 1.93,0 4.61,-1.95 8.03,-5.84 3.42,-3.89 5.13,-7.47 5.13,-10.73 0,-2.5 -0.83,-3.76 -2.47,-3.76zm35.51 -6.23c-0.63,-2.74 -1.41,-4.65 -2.34,-5.74 -0.92,-1.09 -2.16,-1.93 -3.68,-2.52 -1.53,-0.59 -2.9,-0.9 -4.13,-0.9 -0.47,0 -1.17,0.18 -2.09,0.54 -0.92,0.36 -1.63,0.69 -2.11,0.99 -0.69,0.41 -1.32,0.61 -1.9,0.61 -0.67,0 -1.01,-0.35 -1.01,-1.06 0,-0.76 0.58,-1.8 1.72,-3.13 1.14,-1.34 3.14,-2 6.03,-2l1.13 0c2.86,0 5.38,0.76 7.57,2.26 2.19,1.5 3.75,3.64 4.67,6.43 0.92,2.78 1.38,6.53 1.38,11.23 0,3.19 -1.01,7.06 -3.03,11.6 -2.01,4.54 -4.58,7.98 -7.7,10.31 -3.11,2.34 -6.42,3.5 -9.93,3.5 -1.26,0 -2.44,-0.73 -3.55,-2.18 -1.1,-1.45 -1.66,-3.26 -1.66,-5.42 0,-3.98 0.87,-7.49 2.62,-10.53 1.74,-3.04 3.7,-5.52 5.87,-7.41 2.16,-1.9 5.16,-3.42 8.99,-4.58 1.26,-0.37 2.12,-0.66 2.58,-0.86 0.46,-0.22 0.65,-0.59 0.58,-1.13zm0.71 5.36c-4.05,0.82 -7.16,2.14 -9.31,3.92 -4.88,4.56 -7.31,9.67 -7.31,15.34 0,0.76 0.13,1.46 0.4,2.12 0.26,0.66 0.56,0.99 0.89,0.99 1.3,0 2.49,-0.23 3.56,-0.68 1.07,-0.46 2.37,-1.41 3.92,-2.86 1.55,-1.45 2.95,-3.24 4.2,-5.38 1.25,-2.15 2.16,-4.2 2.73,-6.19 0.57,-1.98 0.87,-3.5 0.91,-4.56 0.04,-1.06 0.05,-1.97 0.03,-2.7zm25.42 15.69c-2.45,3.3 -4.89,5.77 -7.28,7.42 -2.41,1.64 -4.61,2.47 -6.61,2.47 -1.35,0 -2.51,-0.57 -3.49,-1.71 -0.99,-1.14 -1.47,-2.61 -1.47,-4.4 0,-4.61 2.06,-9.57 6.18,-14.9 4.12,-5.33 8.22,-7.98 12.29,-7.98 1.47,0 2.57,0.83 3.3,2.52 0.22,0.56 0.58,0.84 1.08,0.84 1.4,0 2.1,0.54 2.1,1.63 0,0.55 -0.09,1.29 -0.26,2.24 -0.95,5.17 -1.42,8.83 -1.42,10.95 0,4.25 0.8,6.79 2.42,7.63 0.77,0.42 1.16,0.93 1.16,1.54 0,0.55 -0.38,1.1 -1.13,1.65 -0.76,0.55 -1.48,0.83 -2.18,0.83 -1.36,0 -2.47,-0.94 -3.34,-2.79 -0.88,-1.86 -1.32,-4.51 -1.32,-7.94zm-1.6 -14.82c-2.32,0 -5.01,2.17 -8.08,6.51 -3.07,4.35 -4.61,7.95 -4.61,10.8 0,2.01 0.67,3.03 2,3.03 1.93,0 4.61,-1.95 8.03,-5.84 3.42,-3.89 5.13,-7.47 5.13,-10.73 0,-2.5 -0.83,-3.76 -2.47,-3.76zm49.06 1.35c-1.42,2.27 -3.42,6.13 -6,11.58 -0.57,1.22 -1.17,2.41 -1.76,3.55 -0.2,0.37 -0.57,1.18 -1.1,2.45 -1.84,4.27 -3.45,6.41 -4.82,6.41 -1.09,0 -1.88,-0.13 -2.38,-0.4 -0.49,-0.26 -0.97,-0.98 -1.43,-2.16 -0.46,-1.18 -1.13,-3.93 -2.03,-8.29 -1.03,-4.92 -1.73,-7.96 -2.1,-9.1 -1.19,2.68 -2.26,5.27 -3.19,7.76 -1.4,3.66 -2.76,6.65 -4.08,8.96 -1.31,2.3 -2.26,3.69 -2.84,4.15 -0.58,0.47 -1.13,0.7 -1.66,0.7 -0.54,0 -1.03,-0.21 -1.47,-0.63 -0.44,-0.42 -0.66,-0.83 -0.66,-1.24 0.11,-0.72 0.23,-1.17 0.37,-1.34 1.53,-1.88 2.84,-3.88 3.94,-6 1.1,-2.13 2.52,-5.31 4.23,-9.56 1.71,-4.24 2.8,-7.72 3.27,-10.44 0.23,-1.16 1.08,-1.73 2.55,-1.73 0.86,0 1.45,0.13 1.77,0.4 0.32,0.26 0.63,0.8 0.94,1.6 0.31,0.81 0.48,1.53 0.54,2.16 0.11,0.75 0.4,2.43 0.89,5.02 0.44,2.44 0.74,4.17 0.87,5.18 0.24,1.46 0.68,3.37 1.3,5.74 0.62,2.37 1.11,3.56 1.46,3.56 0.24,0 0.59,-0.54 1.05,-1.61l2.21 -5.11c0.4,-0.92 0.83,-1.84 1.29,-2.73l3.02 -6.19c1.65,-3.4 2.92,-5.86 3.81,-7.4 0.88,-1.54 1.48,-2.46 1.79,-2.77 0.31,-0.32 0.66,-0.48 1.04,-0.48 0.66,0 1.41,0.18 2.24,0.54 0.83,0.36 1.25,0.75 1.28,1.19 0.04,0.44 0.12,2.27 0.24,5.5l0.34 8.22c0.11,2.61 0.26,4.83 0.48,6.66 0.21,1.83 0.58,3.31 1.1,4.44 0.82,1.79 1.23,3.17 1.23,4.16 0,0.83 -0.34,1.42 -1.03,1.73 -0.7,0.31 -1.34,0.48 -1.94,0.48 -1.22,0 -2.17,-0.99 -2.83,-2.94 -0.66,-1.97 -1.13,-7.6 -1.43,-16.89 -0.11,-2.79 -0.28,-4.5 -0.5,-5.13zm33.57 -7.58c-0.63,-2.74 -1.41,-4.65 -2.34,-5.74 -0.92,-1.09 -2.16,-1.93 -3.68,-2.52 -1.53,-0.59 -2.9,-0.9 -4.13,-0.9 -0.47,0 -1.17,0.18 -2.09,0.54 -0.92,0.36 -1.63,0.69 -2.11,0.99 -0.69,0.41 -1.32,0.61 -1.9,0.61 -0.67,0 -1.01,-0.35 -1.01,-1.06 0,-0.76 0.58,-1.8 1.72,-3.13 1.14,-1.34 3.14,-2 6.03,-2l1.13 0c2.86,0 5.38,0.76 7.57,2.26 2.19,1.5 3.75,3.64 4.67,6.43 0.92,2.78 1.38,6.53 1.38,11.23 0,3.19 -1.01,7.06 -3.03,11.6 -2.01,4.54 -4.58,7.98 -7.7,10.31 -3.11,2.34 -6.42,3.5 -9.93,3.5 -1.26,0 -2.44,-0.73 -3.55,-2.18 -1.1,-1.45 -1.66,-3.26 -1.66,-5.42 0,-3.98 0.87,-7.49 2.62,-10.53 1.74,-3.04 3.7,-5.52 5.87,-7.41 2.16,-1.9 5.16,-3.42 8.99,-4.58 1.26,-0.37 2.12,-0.66 2.58,-0.86 0.46,-0.22 0.65,-0.59 0.58,-1.13zm0.71 5.36c-4.05,0.82 -7.16,2.14 -9.31,3.92 -4.88,4.56 -7.31,9.67 -7.31,15.34 0,0.76 0.13,1.46 0.4,2.12 0.26,0.66 0.56,0.99 0.89,0.99 1.3,0 2.49,-0.23 3.56,-0.68 1.07,-0.46 2.37,-1.41 3.92,-2.86 1.55,-1.45 2.95,-3.24 4.2,-5.38 1.25,-2.15 2.16,-4.2 2.73,-6.19 0.57,-1.98 0.87,-3.5 0.91,-4.56 0.04,-1.06 0.05,-1.97 0.03,-2.7zm25.42 15.69c-2.45,3.3 -4.89,5.77 -7.28,7.42 -2.41,1.64 -4.61,2.47 -6.61,2.47 -1.35,0 -2.51,-0.57 -3.49,-1.71 -0.99,-1.14 -1.47,-2.61 -1.47,-4.4 0,-4.61 2.06,-9.57 6.18,-14.9 4.12,-5.33 8.22,-7.98 12.29,-7.98 1.47,0 2.57,0.83 3.3,2.52 0.22,0.56 0.58,0.84 1.08,0.84 1.4,0 2.1,0.54 2.1,1.63 0,0.55 -0.09,1.29 -0.26,2.24 -0.95,5.17 -1.42,8.83 -1.42,10.95 0,4.25 0.8,6.79 2.42,7.63 0.77,0.42 1.16,0.93 1.16,1.54 0,0.55 -0.38,1.1 -1.13,1.65 -0.76,0.55 -1.48,0.83 -2.18,0.83 -1.36,0 -2.47,-0.94 -3.34,-2.79 -0.88,-1.86 -1.32,-4.51 -1.32,-7.94zm-1.6 -14.82c-2.32,0 -5.01,2.17 -8.08,6.51 -3.07,4.35 -4.61,7.95 -4.61,10.8 0,2.01 0.67,3.03 2,3.03 1.93,0 4.61,-1.95 8.03,-5.84 3.42,-3.89 5.13,-7.47 5.13,-10.73 0,-2.5 -0.83,-3.76 -2.47,-3.76zm20.57 21.34c-0.86,3.16 -1.66,7.59 -2.42,13.29l-0.74 4.97c-0.13,0.7 -0.45,1.4 -0.98,2.09 -0.52,0.69 -1,1.04 -1.45,1.04 -0.55,0 -1.16,-0.28 -1.86,-0.83 -0.69,-0.56 -1.03,-1 -1.03,-1.33 0,-0.97 0.22,-2.3 0.66,-4.01 3.21,-12.96 4.81,-24.35 4.81,-34.14l-0.03 -2.21c-0.04,-1.9 0.3,-3.28 1,-4.13 0.71,-0.86 1.51,-1.29 2.42,-1.29 0.42,0 0.83,0.33 1.21,0.99 0.39,0.66 0.57,1.59 0.57,2.8 0,1.7 -0.17,3.76 -0.52,6.18 -0.46,3.05 -0.69,4.81 -0.71,5.26 2.61,-4.55 5.38,-8.12 8.31,-10.68 2.93,-2.56 5.65,-3.84 8.16,-3.84 1.77,0 3.26,0.66 4.48,1.98 1.22,1.33 1.83,2.97 1.83,4.94 0,5.71 -2.19,10.91 -6.58,15.57 -4.38,4.67 -8.66,7 -12.81,7 -1.04,0 -1.86,-0.26 -2.46,-0.78 -0.61,-0.53 -1.24,-1.49 -1.89,-2.87zm16.33 -21.18c-2.47,0 -5.53,2.32 -9.18,6.94 -3.65,4.63 -5.47,8.23 -5.47,10.81 0,0.64 0.36,1.25 1.08,1.84 0.72,0.6 1.63,0.9 2.73,0.9 2.52,0 5.4,-1.86 8.66,-5.57 3.27,-3.71 4.89,-7.35 4.89,-10.93 0,-1.28 -0.26,-2.26 -0.77,-2.96 -0.52,-0.69 -1.17,-1.03 -1.94,-1.03z"/>
   <path class="fil1" d="M30.83 136.42c3.33,-0.58 6.31,-2.72 8.94,-6.45 1.24,-1.72 2.32,-2.94 3.26,-3.67 0.94,-0.72 1.93,-1.08 2.98,-1.08 0.42,0 0.84,0.19 1.26,0.57 0.42,0.38 0.63,0.83 0.63,1.35 0,0.69 -0.64,1.23 -1.95,1.62 -0.69,0.21 -1.34,0.57 -1.94,1.07 -0.6,0.5 -1.74,1.71 -3.43,3.62 -1.32,1.49 -2.51,2.53 -3.56,3.13 -0.1,0.06 -0.15,0.11 -0.15,0.15 0,0.06 0.07,0.11 0.2,0.16 1.02,0.55 2.1,1.61 3.24,3.18 1.65,2.28 2.89,3.73 3.72,4.32 0.83,0.6 1.78,0.89 2.85,0.89l0.7 -0.02c0.49,-0.03 0.73,0.2 0.73,0.66 0,0.53 -0.3,1.09 -0.91,1.67 -0.6,0.58 -1.6,0.86 -2.99,0.86 -1.06,0 -2.1,-0.46 -3.1,-1.38 -1,-0.92 -2.15,-2.41 -3.44,-4.48 -0.75,-1.22 -1.44,-2.15 -2.08,-2.77 -0.65,-0.63 -1.36,-0.95 -2.15,-0.95 -0.17,0 -0.69,0.14 -1.56,0.42 -0.87,0.28 -1.36,0.55 -1.46,0.81 -0.11,0.26 -0.19,1.19 -0.24,2.8 -0.04,1.6 -0.07,2.9 -0.07,3.88 0,0.52 -0.24,0.98 -0.73,1.39 -0.49,0.4 -1.03,0.61 -1.6,0.61 -0.59,0 -1.05,-0.17 -1.38,-0.52 -0.34,-0.34 -0.51,-0.7 -0.51,-1.06 0,-0.5 0.2,-1.7 0.57,-3.58 0.68,-3.43 1.35,-9.07 2.03,-16.95 0.05,-0.75 0.34,-1.44 0.86,-2.05 0.52,-0.61 1.11,-0.92 1.77,-0.92 0.37,0 0.67,0.2 0.91,0.59 0.24,0.4 0.37,0.9 0.37,1.52 0,0.5 -0.08,1.06 -0.26,1.69 -0.8,2.9 -1.29,5.87 -1.5,8.9zm48.49 8.63c-0.69,2.53 -1.33,6.07 -1.93,10.63l-0.59 3.97c-0.1,0.56 -0.36,1.12 -0.78,1.68 -0.41,0.55 -0.8,0.83 -1.16,0.83 -0.44,0 -0.93,-0.22 -1.49,-0.66 -0.55,-0.44 -0.82,-0.8 -0.82,-1.06 0,-0.78 0.17,-1.84 0.52,-3.2 2.56,-10.37 3.85,-19.48 3.85,-27.31l-0.02 -1.77c-0.03,-1.52 0.24,-2.62 0.8,-3.31 0.57,-0.69 1.21,-1.03 1.94,-1.03 0.34,0 0.66,0.27 0.97,0.79 0.31,0.52 0.46,1.27 0.46,2.24 0,1.36 -0.14,3.01 -0.42,4.94 -0.37,2.44 -0.55,3.85 -0.57,4.21 2.09,-3.64 4.3,-6.49 6.64,-8.54 2.34,-2.05 4.52,-3.08 6.53,-3.08 1.42,0 2.61,0.53 3.59,1.59 0.98,1.06 1.47,2.38 1.47,3.95 0,4.57 -1.75,8.73 -5.27,12.46 -3.5,3.74 -6.92,5.6 -10.24,5.6 -0.83,0 -1.49,-0.21 -1.97,-0.62 -0.49,-0.42 -0.99,-1.19 -1.51,-2.3zm13.07 -16.94c-1.98,0 -4.42,1.85 -7.34,5.55 -2.92,3.71 -4.38,6.59 -4.38,8.65 0,0.51 0.29,1 0.86,1.47 0.57,0.48 1.3,0.72 2.18,0.72 2.01,0 4.32,-1.48 6.93,-4.45 2.61,-2.97 3.91,-5.88 3.91,-8.74 0,-1.03 -0.21,-1.81 -0.62,-2.37 -0.42,-0.55 -0.94,-0.82 -1.55,-0.82zm37.6 0.95c-1.14,1.82 -2.74,4.91 -4.8,9.26 -0.46,0.98 -0.94,1.93 -1.41,2.84 -0.16,0.29 -0.45,0.95 -0.88,1.96 -1.47,3.42 -2.76,5.13 -3.86,5.13 -0.87,0 -1.5,-0.1 -1.9,-0.32 -0.4,-0.21 -0.78,-0.78 -1.14,-1.72 -0.37,-0.94 -0.91,-3.15 -1.62,-6.63 -0.83,-3.94 -1.39,-6.37 -1.68,-7.28 -0.95,2.15 -1.8,4.22 -2.55,6.21 -1.12,2.93 -2.21,5.32 -3.26,7.17 -1.05,1.84 -1.81,2.95 -2.27,3.32 -0.47,0.38 -0.91,0.56 -1.33,0.56 -0.43,0 -0.83,-0.17 -1.18,-0.5 -0.35,-0.34 -0.52,-0.67 -0.52,-0.99 0.08,-0.58 0.18,-0.93 0.3,-1.07 1.22,-1.5 2.27,-3.1 3.15,-4.8 0.88,-1.7 2.01,-4.25 3.39,-7.65 1.36,-3.39 2.24,-6.18 2.62,-8.35 0.18,-0.93 0.86,-1.39 2.04,-1.39 0.69,0 1.16,0.1 1.42,0.32 0.25,0.21 0.5,0.64 0.75,1.28 0.24,0.64 0.39,1.22 0.43,1.73 0.09,0.6 0.32,1.94 0.71,4.02 0.35,1.95 0.59,3.33 0.7,4.15 0.19,1.17 0.54,2.69 1.04,4.59 0.49,1.9 0.89,2.84 1.17,2.84 0.19,0 0.47,-0.43 0.84,-1.29l1.77 -4.09c0.32,-0.74 0.67,-1.47 1.04,-2.18l2.41 -4.95c1.32,-2.72 2.34,-4.69 3.05,-5.92 0.7,-1.23 1.18,-1.97 1.43,-2.22 0.24,-0.26 0.53,-0.38 0.83,-0.38 0.53,0 1.13,0.14 1.79,0.43 0.66,0.29 1,0.6 1.03,0.95 0.03,0.35 0.09,1.82 0.2,4.4l0.27 6.57c0.09,2.09 0.21,3.87 0.38,5.33 0.16,1.47 0.46,2.65 0.88,3.55 0.65,1.43 0.99,2.54 0.99,3.33 0,0.67 -0.27,1.14 -0.83,1.39 -0.56,0.25 -1.07,0.38 -1.55,0.38 -0.98,0 -1.73,-0.79 -2.26,-2.36 -0.52,-1.57 -0.91,-6.08 -1.14,-13.51 -0.08,-2.24 -0.22,-3.6 -0.4,-4.1zm28.85 11.3c0,1.43 -1.27,3.15 -3.79,5.18 -2.54,2.02 -5.15,3.02 -7.84,3.02 -2.26,0 -4,-0.66 -5.23,-2 -1.23,-1.33 -1.84,-3.19 -1.84,-5.57 0,-4.02 1.35,-7.83 4.06,-11.45 2.71,-3.62 5.68,-5.43 8.89,-5.43 1.05,0 1.91,0.34 2.58,1.03 0.66,0.68 1,1.52 1,2.48 0,2.16 -1.07,4.23 -3.18,6.21 -2.12,1.98 -4.95,3.92 -8.5,5.83 -0.73,0.38 -1.09,0.87 -1.09,1.47 0,1.16 0.33,2.1 1.01,2.8 0.68,0.7 1.68,1.05 2.99,1.05 3.02,0 6.1,-1.67 9.24,-5.01 0.47,-0.46 0.82,-0.7 1.06,-0.7 0.45,0 0.67,0.36 0.67,1.08zm-14.63 -3.28c5.96,-3.54 8.93,-6.38 8.93,-8.53 0,-0.84 -0.38,-1.26 -1.14,-1.26 -1.28,0 -2.74,0.95 -4.37,2.84 -1.62,1.9 -2.76,4.21 -3.42,6.95zm-73.39 -1.09c0,5.21 -1.68,8.75 -5.04,10.61 -1.64,0.91 -3.44,1.36 -5.4,1.36 -3.39,0 -6.02,-1.11 -7.88,-3.34 -1.72,-2.08 -2.59,-4.85 -2.59,-8.32 0,-4.13 1.15,-7.19 3.45,-9.18 1.92,-1.65 4.25,-2.48 7.02,-2.48 3.29,0 5.87,1.08 7.75,3.25 1.79,2.06 2.69,4.76 2.69,8.09zm-3.97 -1.82c-0.24,-1.8 -0.82,-3.23 -1.75,-4.26 -1.26,-1.42 -2.83,-2.12 -4.72,-2.12 -1.91,0 -3.49,0.7 -4.74,2.12 -0.93,1.03 -1.52,2.46 -1.76,4.26l12.97 0zm0.09 3.1l-13.15 0c0.12,2.15 0.68,3.92 1.71,5.27 1.18,1.54 2.81,2.31 4.88,2.31 2.06,0 3.69,-0.78 4.85,-2.33 1.01,-1.34 1.58,-3.1 1.71,-5.25z"/>
   <g id="atau-belgi.svg">
    <path class="fil0 str0" d="M89.4 49.17c-25.09,3.96 -33.46,19.72 -35.92,28.96 -2.16,8.01 -1.54,21.17 16.38,21.61 5.81,0 22.72,-0.04 36.58,0 17.21,0.04 22.01,-13.73 21.62,-25.58 -0.75,-21.5 -20.11,-27.9 -38.65,-25z"/>
    <path class="fil2" d="M66.86 79.62c0,-4.99 4.08,-9.07 9.07,-9.07 4.99,0 9.07,4.08 9.07,9.07 0,4.99 -4.08,9.07 -9.07,9.07 -4.99,0 -9.07,-4.08 -9.07,-9.07z"/>
   </g>
  </g>
 </g>
</svg>
