<?xml version="1.0" encoding="UTF-8"?>
<!DOCTYPE svg PUBLIC "-//W3C//DTD SVG 1.1//EN" "http://www.w3.org/Graphics/SVG/1.1/DTD/svg11.dtd">
<!-- Creator: CorelDRAW 2020 -->
<svg xmlns="http://www.w3.org/2000/svg" xml:space="preserve" width="28.5521mm" height="10mm" version="1.1" style="shape-rendering:geometricPrecision; text-rendering:geometricPrecision; image-rendering:optimizeQuality; fill-rule:evenodd; clip-rule:evenodd"
viewBox="0 0 510.41 178.76"
 xmlns:xlink="http://www.w3.org/1999/xlink"
 xmlns:xodm="http://www.corel.com/coreldraw/odm/2003">
 <defs>
  <style type="text/css">
   <![CDATA[
    .str0 {stroke:#6B470F;stroke-width:8.94;stroke-miterlimit:22.9256}
    .fil0 {fill:none}
    .fil2 {fill:#6B470F}
    .fil1 {fill:#6B470F;fill-rule:nonzero}
   ]]>
  </style>
 </defs>
 <g id="Layer_x0020_1">
  <metadata id="CorelCorpID_0Corel-Layer"/>
  <g id="_1487529512">
   <polygon class="fil0" points="-0,0 510.41,0 510.41,178.76 -0,178.76 "/>
   <path class="fil1" d="M199.92 139.12l2.03 0c3.43,0 5.99,-0.12 7.67,-0.36 0.81,-0.11 1.63,-0.17 2.44,-0.17 0.35,0 1.07,0.22 2.15,0.63 1.08,0.43 1.72,0.78 1.93,1.07 0.2,0.29 0.3,0.67 0.3,1.15 0,0.68 -0.14,1.16 -0.42,1.44 -0.28,0.27 -0.88,0.42 -1.81,0.42 -0.41,0 -0.97,-0.12 -1.71,-0.36 -0.74,-0.24 -1.36,-0.36 -1.86,-0.36 -0.2,0 -0.87,0.05 -2.01,0.14 -0.61,0.05 -1.72,0.01 -3.33,-0.14 -1.24,-0.11 -2.16,-0.17 -2.77,-0.17 -0.85,0 -2.14,0.06 -3.85,0.17 -1.72,0.11 -3.02,0.17 -3.91,0.17 -0.89,0 -1.61,-0.1 -2.15,-0.29 -0.55,-0.2 -0.82,-0.63 -0.82,-1.32 0,-0.3 0.12,-0.64 0.38,-1.04 0.25,-0.4 1.1,-0.71 2.54,-0.95 1.44,-0.23 2.48,-0.35 3.1,-0.35l2.11 0.31zm63.57 7.95c-2.58,3.47 -5.15,6.07 -7.67,7.81 -2.53,1.73 -4.85,2.6 -6.96,2.6 -1.42,0 -2.65,-0.6 -3.68,-1.8 -1.04,-1.2 -1.55,-2.74 -1.55,-4.64 0,-4.85 2.17,-10.08 6.51,-15.69 4.34,-5.61 8.66,-8.41 12.94,-8.41 1.55,0 2.7,0.88 3.47,2.66 0.24,0.59 0.61,0.89 1.14,0.89 1.47,0 2.21,0.57 2.21,1.71 0,0.58 -0.09,1.36 -0.27,2.35 -1,5.45 -1.5,9.3 -1.5,11.53 0,4.47 0.84,7.15 2.55,8.04 0.81,0.45 1.22,0.98 1.22,1.63 0,0.58 -0.4,1.15 -1.19,1.74 -0.8,0.58 -1.56,0.87 -2.3,0.87 -1.43,0 -2.6,-0.98 -3.52,-2.94 -0.93,-1.96 -1.39,-4.75 -1.39,-8.36zm-1.68 -15.61c-2.44,0 -5.28,2.29 -8.51,6.86 -3.24,4.58 -4.85,8.37 -4.85,11.38 0,2.12 0.71,3.19 2.11,3.19 2.03,0 4.85,-2.05 8.46,-6.16 3.6,-4.1 5.4,-7.87 5.4,-11.3 0,-2.64 -0.87,-3.96 -2.6,-3.96zm37.4 -6.57c-0.66,-2.89 -1.49,-4.9 -2.47,-6.04 -0.97,-1.14 -2.27,-2.03 -3.88,-2.66 -1.61,-0.62 -3.06,-0.95 -4.35,-0.95 -0.49,0 -1.23,0.19 -2.2,0.57 -0.97,0.38 -1.71,0.73 -2.22,1.04 -0.73,0.43 -1.39,0.64 -2,0.64 -0.71,0 -1.06,-0.37 -1.06,-1.12 0,-0.8 0.61,-1.89 1.81,-3.29 1.2,-1.41 3.31,-2.11 6.35,-2.11l1.19 0c3.01,0 5.67,0.8 7.97,2.38 2.31,1.58 3.95,3.83 4.92,6.77 0.97,2.93 1.46,6.88 1.46,11.83 0,3.36 -1.06,7.44 -3.19,12.22 -2.12,4.79 -4.82,8.41 -8.11,10.86 -3.27,2.46 -6.76,3.69 -10.46,3.69 -1.32,0 -2.57,-0.77 -3.74,-2.3 -1.16,-1.53 -1.75,-3.43 -1.75,-5.71 0,-4.19 0.92,-7.89 2.76,-11.1 1.84,-3.21 3.9,-5.81 6.18,-7.8 2.28,-2 5.44,-3.6 9.47,-4.82 1.32,-0.39 2.23,-0.69 2.71,-0.91 0.48,-0.23 0.68,-0.62 0.61,-1.19zm0.75 5.65c-4.27,0.87 -7.54,2.25 -9.81,4.13 -5.14,4.81 -7.7,10.19 -7.7,16.16 0,0.8 0.13,1.54 0.42,2.23 0.27,0.69 0.59,1.04 0.94,1.04 1.37,0 2.62,-0.25 3.75,-0.72 1.13,-0.48 2.5,-1.49 4.12,-3.01 1.63,-1.52 3.1,-3.41 4.43,-5.67 1.31,-2.26 2.28,-4.43 2.88,-6.52 0.6,-2.09 0.92,-3.69 0.95,-4.81 0.04,-1.12 0.05,-2.07 0.03,-2.85zm26.77 16.52c-2.58,3.47 -5.15,6.07 -7.67,7.81 -2.53,1.73 -4.85,2.6 -6.96,2.6 -1.42,0 -2.65,-0.6 -3.68,-1.8 -1.04,-1.2 -1.55,-2.74 -1.55,-4.64 0,-4.85 2.17,-10.08 6.51,-15.69 4.34,-5.61 8.66,-8.41 12.94,-8.41 1.55,0 2.7,0.88 3.47,2.66 0.24,0.59 0.61,0.89 1.14,0.89 1.47,0 2.21,0.57 2.21,1.71 0,0.58 -0.09,1.36 -0.27,2.35 -1,5.45 -1.5,9.3 -1.5,11.53 0,4.47 0.84,7.15 2.55,8.04 0.81,0.45 1.22,0.98 1.22,1.63 0,0.58 -0.4,1.15 -1.19,1.74 -0.8,0.58 -1.56,0.87 -2.3,0.87 -1.43,0 -2.6,-0.98 -3.52,-2.94 -0.93,-1.96 -1.39,-4.75 -1.39,-8.36zm-1.68 -15.61c-2.44,0 -5.28,2.29 -8.51,6.86 -3.24,4.58 -4.85,8.37 -4.85,11.38 0,2.12 0.71,3.19 2.11,3.19 2.03,0 4.85,-2.05 8.46,-6.16 3.6,-4.1 5.4,-7.87 5.4,-11.3 0,-2.64 -0.87,-3.96 -2.6,-3.96zm51.68 1.42c-1.49,2.39 -3.6,6.46 -6.32,12.19 -0.6,1.29 -1.23,2.53 -1.85,3.74 -0.21,0.39 -0.6,1.25 -1.16,2.58 -1.94,4.5 -3.63,6.76 -5.08,6.76 -1.15,0 -1.98,-0.13 -2.51,-0.42 -0.52,-0.28 -1.02,-1.03 -1.5,-2.27 -0.48,-1.24 -1.19,-4.14 -2.14,-8.73 -1.09,-5.18 -1.83,-8.38 -2.21,-9.58 -1.26,2.83 -2.38,5.55 -3.36,8.17 -1.47,3.86 -2.9,7.01 -4.29,9.44 -1.38,2.42 -2.38,3.89 -2.99,4.37 -0.61,0.49 -1.19,0.74 -1.75,0.74 -0.57,0 -1.09,-0.22 -1.55,-0.66 -0.46,-0.44 -0.69,-0.88 -0.69,-1.3 0.11,-0.76 0.24,-1.23 0.39,-1.41 1.61,-1.98 2.99,-4.09 4.15,-6.32 1.16,-2.24 2.65,-5.59 4.46,-10.07 1.8,-4.46 2.95,-8.13 3.44,-11 0.25,-1.22 1.14,-1.83 2.69,-1.83 0.91,0 1.53,0.13 1.86,0.42 0.33,0.27 0.66,0.84 0.98,1.68 0.32,0.85 0.51,1.61 0.57,2.28 0.11,0.79 0.43,2.55 0.94,5.29 0.46,2.57 0.78,4.39 0.92,5.46 0.26,1.54 0.72,3.55 1.37,6.05 0.65,2.5 1.17,3.75 1.54,3.75 0.26,0 0.62,-0.57 1.11,-1.69l2.33 -5.38c0.43,-0.97 0.88,-1.94 1.36,-2.88l3.18 -6.52c1.74,-3.58 3.07,-6.18 4.01,-7.79 0.93,-1.62 1.56,-2.59 1.88,-2.92 0.32,-0.34 0.69,-0.5 1.1,-0.5 0.7,0 1.48,0.19 2.35,0.57 0.87,0.38 1.32,0.79 1.35,1.26 0.04,0.46 0.12,2.39 0.26,5.79l0.36 8.66c0.11,2.75 0.27,5.09 0.5,7.02 0.22,1.93 0.61,3.49 1.16,4.67 0.86,1.88 1.3,3.34 1.3,4.38 0,0.88 -0.36,1.49 -1.09,1.83 -0.74,0.33 -1.41,0.5 -2.04,0.5 -1.29,0 -2.28,-1.04 -2.98,-3.1 -0.69,-2.07 -1.19,-8 -1.51,-17.79 -0.11,-2.94 -0.29,-4.74 -0.53,-5.4zm35.36 -7.99c-0.66,-2.89 -1.49,-4.9 -2.47,-6.04 -0.97,-1.14 -2.27,-2.03 -3.88,-2.66 -1.61,-0.62 -3.06,-0.95 -4.35,-0.95 -0.49,0 -1.23,0.19 -2.2,0.57 -0.97,0.38 -1.71,0.73 -2.22,1.04 -0.73,0.43 -1.39,0.64 -2,0.64 -0.71,0 -1.06,-0.37 -1.06,-1.12 0,-0.8 0.61,-1.89 1.81,-3.29 1.2,-1.41 3.31,-2.11 6.35,-2.11l1.19 0c3.01,0 5.67,0.8 7.97,2.38 2.31,1.58 3.95,3.83 4.92,6.77 0.97,2.93 1.46,6.88 1.46,11.83 0,3.36 -1.06,7.44 -3.19,12.22 -2.12,4.79 -4.82,8.41 -8.11,10.86 -3.27,2.46 -6.76,3.69 -10.46,3.69 -1.32,0 -2.57,-0.77 -3.74,-2.3 -1.16,-1.53 -1.75,-3.43 -1.75,-5.71 0,-4.19 0.92,-7.89 2.76,-11.1 1.84,-3.21 3.9,-5.81 6.18,-7.8 2.28,-2 5.44,-3.6 9.47,-4.82 1.32,-0.39 2.23,-0.69 2.71,-0.91 0.48,-0.23 0.68,-0.62 0.61,-1.19zm0.75 5.65c-4.27,0.87 -7.54,2.25 -9.81,4.13 -5.14,4.81 -7.7,10.19 -7.7,16.16 0,0.8 0.13,1.54 0.42,2.23 0.27,0.69 0.59,1.04 0.94,1.04 1.37,0 2.62,-0.25 3.75,-0.72 1.13,-0.48 2.5,-1.49 4.12,-3.01 1.63,-1.52 3.1,-3.41 4.43,-5.67 1.31,-2.26 2.28,-4.43 2.88,-6.52 0.6,-2.09 0.92,-3.69 0.95,-4.81 0.04,-1.12 0.05,-2.07 0.03,-2.85zm26.77 16.52c-2.58,3.47 -5.15,6.07 -7.67,7.81 -2.53,1.73 -4.85,2.6 -6.96,2.6 -1.42,0 -2.65,-0.6 -3.68,-1.8 -1.04,-1.2 -1.55,-2.74 -1.55,-4.64 0,-4.85 2.17,-10.08 6.51,-15.69 4.34,-5.61 8.66,-8.41 12.94,-8.41 1.55,0 2.7,0.88 3.47,2.66 0.24,0.59 0.61,0.89 1.14,0.89 1.47,0 2.21,0.57 2.21,1.71 0,0.58 -0.09,1.36 -0.27,2.35 -1,5.45 -1.5,9.3 -1.5,11.53 0,4.47 0.84,7.15 2.55,8.04 0.81,0.45 1.22,0.98 1.22,1.63 0,0.58 -0.4,1.15 -1.19,1.74 -0.8,0.58 -1.56,0.87 -2.3,0.87 -1.43,0 -2.6,-0.98 -3.52,-2.94 -0.93,-1.96 -1.39,-4.75 -1.39,-8.36zm-1.68 -15.61c-2.44,0 -5.28,2.29 -8.51,6.86 -3.24,4.58 -4.85,8.37 -4.85,11.38 0,2.12 0.71,3.19 2.11,3.19 2.03,0 4.85,-2.05 8.46,-6.16 3.6,-4.1 5.4,-7.87 5.4,-11.3 0,-2.64 -0.87,-3.96 -2.6,-3.96zm21.66 22.48c-0.91,3.33 -1.75,7.99 -2.55,14l-0.78 5.23c-0.13,0.74 -0.47,1.47 -1.03,2.2 -0.55,0.73 -1.06,1.1 -1.52,1.1 -0.58,0 -1.22,-0.29 -1.96,-0.87 -0.73,-0.59 -1.09,-1.05 -1.09,-1.4 0,-1.02 0.23,-2.42 0.69,-4.22 3.38,-13.65 5.07,-25.65 5.07,-35.97l-0.03 -2.33c-0.04,-2 0.31,-3.45 1.05,-4.35 0.75,-0.91 1.59,-1.36 2.55,-1.36 0.45,0 0.87,0.35 1.28,1.04 0.41,0.69 0.6,1.67 0.6,2.95 0,1.79 -0.18,3.96 -0.55,6.51 -0.48,3.22 -0.73,5.07 -0.75,5.54 2.75,-4.8 5.67,-8.55 8.75,-11.25 3.08,-2.7 5.95,-4.05 8.6,-4.05 1.86,0 3.43,0.7 4.72,2.09 1.29,1.4 1.93,3.13 1.93,5.2 0,6.02 -2.31,11.49 -6.93,16.4 -4.62,4.92 -9.12,7.37 -13.49,7.37 -1.1,0 -1.96,-0.28 -2.59,-0.82 -0.64,-0.56 -1.3,-1.57 -1.99,-3.03zm17.21 -22.31c-2.6,0 -5.83,2.44 -9.67,7.31 -3.84,4.88 -5.76,8.67 -5.76,11.39 0,0.67 0.38,1.31 1.14,1.94 0.76,0.63 1.71,0.95 2.88,0.95 2.65,0 5.68,-1.96 9.12,-5.87 3.44,-3.91 5.16,-7.74 5.16,-11.51 0,-1.35 -0.27,-2.38 -0.81,-3.12 -0.55,-0.73 -1.23,-1.09 -2.04,-1.09zm-235.66 30.68l246.11 0 0 2.58 -246.11 0 0 -2.58z"/>
   <path class="fil1" d="M25.27 143c3.89,-0.67 7.38,-3.19 10.47,-7.54 1.45,-2.02 2.72,-3.45 3.81,-4.3 1.09,-0.84 2.25,-1.27 3.49,-1.27 0.49,0 0.98,0.23 1.47,0.66 0.5,0.45 0.74,0.98 0.74,1.58 0,0.81 -0.76,1.44 -2.29,1.9 -0.81,0.24 -1.56,0.66 -2.27,1.25 -0.71,0.59 -2.04,2 -4.01,4.24 -1.55,1.74 -2.93,2.96 -4.16,3.67 -0.12,0.07 -0.18,0.13 -0.18,0.18 0,0.07 0.08,0.13 0.23,0.19 1.19,0.65 2.46,1.88 3.79,3.73 1.93,2.67 3.39,4.36 4.35,5.06 0.98,0.7 2.08,1.04 3.33,1.04l0.82 -0.03c0.57,-0.03 0.86,0.23 0.86,0.77 0,0.62 -0.35,1.28 -1.06,1.95 -0.71,0.67 -1.88,1.01 -3.5,1.01 -1.24,0 -2.45,-0.54 -3.63,-1.61 -1.18,-1.08 -2.51,-2.83 -4.03,-5.24 -0.87,-1.43 -1.68,-2.52 -2.44,-3.25 -0.76,-0.74 -1.6,-1.11 -2.51,-1.11 -0.19,0 -0.81,0.16 -1.83,0.49 -1.02,0.33 -1.59,0.65 -1.71,0.95 -0.13,0.3 -0.22,1.4 -0.28,3.28 -0.05,1.88 -0.08,3.4 -0.08,4.54 0,0.61 -0.29,1.15 -0.86,1.63 -0.58,0.47 -1.2,0.72 -1.88,0.72 -0.69,0 -1.23,-0.2 -1.62,-0.61 -0.4,-0.4 -0.6,-0.82 -0.6,-1.24 0,-0.59 0.23,-1.98 0.66,-4.19 0.79,-4.01 1.58,-10.62 2.37,-19.84 0.06,-0.88 0.4,-1.68 1.01,-2.4 0.61,-0.71 1.29,-1.08 2.07,-1.08 0.43,0 0.78,0.24 1.07,0.69 0.28,0.46 0.44,1.05 0.44,1.77 0,0.58 -0.1,1.24 -0.3,1.98 -0.93,3.4 -1.51,6.87 -1.75,10.42zm56.76 10.1c-0.81,2.96 -1.56,7.1 -2.26,12.44l-0.69 4.65c-0.12,0.66 -0.42,1.31 -0.92,1.96 -0.49,0.65 -0.94,0.98 -1.35,0.98 -0.51,0 -1.09,-0.26 -1.74,-0.77 -0.65,-0.52 -0.97,-0.93 -0.97,-1.24 0,-0.91 0.2,-2.15 0.61,-3.75 3,-12.13 4.51,-22.79 4.51,-31.97l-0.03 -2.07c-0.03,-1.78 0.28,-3.07 0.93,-3.87 0.66,-0.81 1.41,-1.21 2.27,-1.21 0.4,0 0.77,0.31 1.14,0.92 0.36,0.61 0.54,1.49 0.54,2.62 0,1.59 -0.16,3.52 -0.49,5.78 -0.43,2.86 -0.65,4.51 -0.66,4.93 2.45,-4.26 5.04,-7.6 7.78,-10 2.74,-2.4 5.29,-3.6 7.64,-3.6 1.66,0 3.05,0.62 4.2,1.86 1.14,1.24 1.72,2.78 1.72,4.62 0,5.35 -2.05,10.22 -6.16,14.58 -4.1,4.37 -8.11,6.55 -11.99,6.55 -0.98,0 -1.74,-0.24 -2.3,-0.73 -0.57,-0.5 -1.16,-1.4 -1.77,-2.69zm15.29 -19.83c-2.31,0 -5.18,2.17 -8.59,6.5 -3.41,4.34 -5.12,7.71 -5.12,10.13 0,0.6 0.34,1.17 1.01,1.72 0.67,0.56 1.52,0.84 2.56,0.84 2.35,0 5.05,-1.74 8.11,-5.21 3.06,-3.47 4.58,-6.88 4.58,-10.23 0,-1.2 -0.24,-2.12 -0.72,-2.78 -0.49,-0.65 -1.09,-0.97 -1.82,-0.97zm44 1.11c-1.33,2.13 -3.2,5.74 -5.62,10.84 -0.54,1.14 -1.09,2.25 -1.65,3.32 -0.19,0.35 -0.53,1.11 -1.04,2.3 -1.72,4 -3.23,6 -4.52,6 -1.02,0 -1.76,-0.12 -2.23,-0.37 -0.46,-0.24 -0.91,-0.92 -1.34,-2.02 -0.43,-1.1 -1.06,-3.68 -1.9,-7.76 -0.97,-4.61 -1.62,-7.45 -1.97,-8.52 -1.12,2.51 -2.11,4.94 -2.98,7.26 -1.31,3.43 -2.58,6.23 -3.82,8.39 -1.23,2.15 -2.12,3.46 -2.66,3.88 -0.55,0.44 -1.06,0.66 -1.56,0.66 -0.51,0 -0.97,-0.19 -1.38,-0.59 -0.41,-0.4 -0.61,-0.78 -0.61,-1.16 0.1,-0.67 0.21,-1.09 0.35,-1.25 1.43,-1.76 2.66,-3.63 3.69,-5.62 1.04,-1.99 2.36,-4.97 3.96,-8.95 1.6,-3.97 2.62,-7.23 3.06,-9.78 0.22,-1.09 1.01,-1.62 2.39,-1.62 0.81,0 1.36,0.12 1.66,0.37 0.29,0.24 0.59,0.75 0.87,1.5 0.29,0.76 0.45,1.43 0.5,2.03 0.1,0.71 0.38,2.27 0.83,4.7 0.41,2.29 0.69,3.9 0.82,4.85 0.23,1.37 0.64,3.15 1.22,5.37 0.58,2.22 1.04,3.33 1.37,3.33 0.23,0 0.55,-0.5 0.98,-1.51l2.07 -4.78c0.38,-0.87 0.78,-1.72 1.21,-2.56l2.83 -5.79c1.55,-3.19 2.73,-5.49 3.56,-6.93 0.82,-1.44 1.39,-2.3 1.67,-2.6 0.29,-0.3 0.61,-0.45 0.98,-0.45 0.62,0 1.32,0.17 2.09,0.5 0.77,0.34 1.17,0.71 1.2,1.12 0.03,0.41 0.11,2.13 0.23,5.15l0.32 7.69c0.1,2.45 0.24,4.52 0.45,6.24 0.19,1.72 0.54,3.1 1.03,4.15 0.77,1.67 1.15,2.97 1.15,3.89 0,0.78 -0.32,1.33 -0.97,1.62 -0.66,0.29 -1.25,0.45 -1.82,0.45 -1.14,0 -2.03,-0.93 -2.65,-2.76 -0.61,-1.84 -1.06,-7.11 -1.34,-15.82 -0.1,-2.62 -0.26,-4.21 -0.47,-4.8zm33.77 13.23c0,1.67 -1.48,3.69 -4.44,6.06 -2.97,2.36 -6.03,3.54 -9.18,3.54 -2.64,0 -4.68,-0.77 -6.12,-2.34 -1.44,-1.56 -2.15,-3.73 -2.15,-6.52 0,-4.7 1.58,-9.17 4.75,-13.4 3.17,-4.24 6.64,-6.36 10.4,-6.36 1.23,0 2.24,0.4 3.02,1.21 0.77,0.8 1.17,1.77 1.17,2.9 0,2.53 -1.25,4.95 -3.73,7.27 -2.48,2.31 -5.79,4.59 -9.95,6.82 -0.86,0.45 -1.28,1.02 -1.28,1.72 0,1.36 0.39,2.46 1.18,3.28 0.79,0.82 1.96,1.23 3.5,1.23 3.53,0 7.14,-1.95 10.81,-5.86 0.55,-0.54 0.96,-0.82 1.24,-0.82 0.52,0 0.78,0.42 0.78,1.26zm-17.12 -3.84c6.97,-4.14 10.45,-7.47 10.45,-9.98 0,-0.98 -0.45,-1.48 -1.34,-1.48 -1.51,0 -3.21,1.11 -5.11,3.33 -1.89,2.22 -3.23,4.93 -4,8.13zm-85.9 -1.27c0,6.1 -1.97,10.24 -5.9,12.42 -1.92,1.07 -4.03,1.6 -6.31,1.6 -3.97,0 -7.05,-1.3 -9.22,-3.91 -2.02,-2.43 -3.03,-5.68 -3.03,-9.74 0,-4.83 1.35,-8.42 4.04,-10.75 2.25,-1.93 4.98,-2.9 8.22,-2.9 3.85,0 6.87,1.27 9.07,3.81 2.09,2.41 3.14,5.57 3.14,9.47zm-4.64 -2.13c-0.28,-2.11 -0.97,-3.78 -2.05,-4.99 -1.47,-1.66 -3.31,-2.48 -5.52,-2.48 -2.24,0 -4.09,0.82 -5.55,2.48 -1.09,1.21 -1.78,2.88 -2.06,4.99l15.19 0zm0.1 3.63l-15.39 0c0.14,2.52 0.8,4.58 2,6.17 1.38,1.81 3.29,2.71 5.71,2.71 2.41,0 4.31,-0.91 5.68,-2.73 1.19,-1.57 1.85,-3.63 2,-6.15z"/>
   <g id="atau-belgi.svg">
    <path class="fil0 str0" d="M94.06 48.81c-29.42,4.64 -39.23,23.12 -42.12,33.96 -2.53,9.39 -1.81,24.83 19.2,25.34 6.81,0 26.64,-0.05 42.89,0 20.18,0.05 25.81,-16.11 25.35,-29.99 -0.88,-25.21 -23.58,-32.72 -45.32,-29.32z"/>
    <path class="fil2" d="M67.63 84.53c0,-5.85 4.78,-10.64 10.64,-10.64 5.85,0 10.64,4.78 10.64,10.64 0,5.85 -4.78,10.64 -10.64,10.64 -5.86,0 -10.64,-4.78 -10.64,-10.64z"/>
   </g>
  </g>
 </g>
</svg>
