<?xml version="1.0" encoding="UTF-8"?>
<!DOCTYPE svg PUBLIC "-//W3C//DTD SVG 1.1//EN" "http://www.w3.org/Graphics/SVG/1.1/DTD/svg11.dtd">
<!-- Creator: CorelDRAW 2020 -->
<svg xmlns="http://www.w3.org/2000/svg" xml:space="preserve" width="13.4684mm" height="10mm" version="1.1" style="shape-rendering:geometricPrecision; text-rendering:geometricPrecision; image-rendering:optimizeQuality; fill-rule:evenodd; clip-rule:evenodd"
viewBox="0 0 111.84 83.04"
 xmlns:xlink="http://www.w3.org/1999/xlink"
 xmlns:xodm="http://www.corel.com/coreldraw/odm/2003">
 <defs>
  <style type="text/css">
   <![CDATA[
    .str0 {stroke:#6B470F;stroke-width:4.15;stroke-miterlimit:22.9256}
    .fil0 {fill:none}
    .fil2 {fill:#6B470F}
    .fil1 {fill:#6B470F;fill-rule:nonzero}
   ]]>
  </style>
 </defs>
 <g id="Layer_x0020_1">
  <metadata id="CorelCorpID_0Corel-Layer"/>
  <g id="_1367704272">
   <polygon class="fil0" points="10.25,0 101.59,0 101.59,83.04 10.25,83.04 "/>
   <path class="fil1" d="M10.17 69.59c0,0.78 -0.69,1.71 -2.06,2.82 -1.38,1.1 -2.8,1.64 -4.27,1.64 -1.23,0 -2.18,-0.36 -2.84,-1.09 -0.67,-0.72 -1,-1.73 -1,-3.03 0,-2.18 0.73,-4.26 2.21,-6.23 1.47,-1.97 3.09,-2.95 4.83,-2.95 0.57,0 1.04,0.19 1.4,0.56 0.36,0.37 0.54,0.82 0.54,1.35 0,1.18 -0.58,2.3 -1.73,3.38 -1.15,1.07 -2.69,2.13 -4.62,3.17 -0.4,0.21 -0.59,0.47 -0.59,0.8 0,0.63 0.18,1.14 0.55,1.52 0.37,0.38 0.91,0.57 1.63,0.57 1.64,0 3.32,-0.91 5.02,-2.72 0.25,-0.25 0.45,-0.38 0.57,-0.38 0.24,0 0.36,0.2 0.36,0.59zm-7.95 -1.78c3.24,-1.92 4.86,-3.47 4.86,-4.64 0,-0.46 -0.21,-0.69 -0.62,-0.69 -0.7,0 -1.49,0.51 -2.37,1.55 -0.88,1.03 -1.5,2.29 -1.86,3.78zm14.28 1.41c-1.74,1.5 -2.89,3 -3.44,4.52 -0.22,0.5 -0.43,0.88 -0.65,1.13 -0.91,-0.05 -1.36,-0.48 -1.36,-1.27 0,-1.17 1.3,-2.94 3.9,-5.31l0.55 -0.52c-1.52,-2.28 -2.28,-4.03 -2.28,-5.25 0,-1.08 0.46,-1.63 1.37,-1.63 0.26,0 0.45,0.11 0.57,0.33 0.12,0.22 0.21,0.73 0.28,1.51 0.1,1.21 0.62,2.5 1.57,3.86 2.11,-1.82 3.54,-3.44 4.28,-4.87 0.25,-0.46 0.45,-0.75 0.58,-0.87 0.14,-0.12 0.32,-0.18 0.55,-0.18 0.27,0 0.53,0.11 0.77,0.32 0.24,0.21 0.36,0.48 0.36,0.81 0,0.76 -1.85,2.85 -5.56,6.27 1.28,1.63 2.63,2.86 4.07,3.68 0.18,0.1 0.34,0.2 0.5,0.31 0.03,0.07 0.05,0.18 0.05,0.32 0,0.33 -0.12,0.62 -0.36,0.88 -0.24,0.26 -0.53,0.39 -0.87,0.39 -1.03,0 -2.66,-1.48 -4.89,-4.43zm10.56 0.82c2.84,-5.24 5.18,-7.86 7.02,-7.86 0.49,0 0.89,0.28 1.19,0.84 0.3,0.56 0.55,1.79 0.74,3.71 0.19,2.04 0.62,3.51 1.29,4.42 0.34,0.47 0.52,0.81 0.52,1.03 0,0.2 -0.11,0.38 -0.34,0.55 -0.23,0.17 -0.47,0.25 -0.73,0.25 -0.6,0 -1.12,-0.33 -1.58,-1 -0.46,-0.67 -0.75,-1.84 -0.88,-3.52 -0.13,-1.59 -0.27,-2.62 -0.41,-3.11 -0.14,-0.49 -0.38,-0.73 -0.72,-0.73 -0.8,0 -2.41,2.1 -4.84,6.28 -0.73,1.25 -1.26,2.07 -1.61,2.45 -0.34,0.39 -0.66,0.58 -0.94,0.58 -0.34,0 -0.62,-0.1 -0.85,-0.3 -0.23,-0.2 -0.34,-0.44 -0.34,-0.73 0,-0.22 0.06,-0.63 0.18,-1.24 0.94,-4.84 1.68,-9.64 2.22,-14.37 0.12,-1.11 0.32,-1.84 0.59,-2.21 0.27,-0.37 0.5,-0.55 0.68,-0.55 0.33,0 0.62,0.14 0.89,0.4 0.27,0.27 0.4,0.64 0.4,1.11 0,1.41 -0.34,3.33 -1.03,5.78 -0.34,1.21 -0.69,2.75 -1.06,4.62 -0.38,1.87 -0.56,3.03 -0.56,3.47 0,0.09 0.04,0.14 0.13,0.14l0.05 0zm16.48 -11.89c-0.16,0 -0.28,-0.17 -0.37,-0.52 -0.03,-0.11 -0.07,-0.22 -0.13,-0.36 -0.21,-0.49 -0.31,-0.93 -0.31,-1.29 0,-0.3 0.18,-0.61 0.54,-0.93 0.36,-0.32 0.76,-0.48 1.21,-0.48 0.22,0 0.47,0.09 0.75,0.26 0.27,0.17 0.41,0.34 0.41,0.5 0,0.25 -0.09,0.68 -0.28,1.29 -0.19,0.6 -0.48,1.01 -0.89,1.22 -0.41,0.21 -0.72,0.31 -0.93,0.31zm-1.5 12.78c0,0.58 0.08,1.23 0.24,1.96 0.03,0.14 0.04,0.25 0.04,0.34 0,0.14 -0.12,0.32 -0.37,0.54 -0.25,0.21 -0.52,0.32 -0.8,0.32 -0.74,0 -1.11,-0.68 -1.11,-2.03 0,-1.41 0.29,-3.62 0.87,-6.66 0.2,-1.06 0.3,-1.71 0.3,-1.96 0,-0.48 0.09,-0.89 0.27,-1.23 0.18,-0.34 0.42,-0.51 0.74,-0.51 0.39,0 0.7,0.09 0.92,0.28 0.23,0.19 0.34,0.39 0.34,0.63 0,0.23 -0.05,0.53 -0.16,0.9 -0.57,2.02 -0.93,3.46 -1.06,4.33 -0.14,0.87 -0.21,1.9 -0.21,3.1zm6.68 -3.97c0.98,-1.78 2.14,-3.22 3.5,-4.32 1.36,-1.1 2.58,-1.65 3.68,-1.65 0.6,0 1.11,0.28 1.53,0.84 0.42,0.55 0.63,1.23 0.63,2.03 0,2.37 -0.89,4.6 -2.68,6.68 -1.79,2.08 -3.68,3.12 -5.67,3.12 -0.54,0 -1.04,-0.15 -1.5,-0.44 -0.45,-0.29 -0.71,-0.66 -0.76,-1.11 -0.03,-0.36 -0.14,-0.62 -0.31,-0.8 -0.33,-0.33 -0.49,-0.68 -0.49,-1.05 0,-0.7 0.19,-2.18 0.57,-4.45l1.18 -6.84c0.4,-2.3 0.7,-3.71 0.89,-4.26 0.19,-0.54 0.39,-0.9 0.62,-1.09 0.23,-0.18 0.51,-0.27 0.84,-0.27 0.54,0 0.8,0.46 0.8,1.38 0,0.88 -0.29,2.11 -0.88,3.69 -0.57,1.52 -1.22,4.37 -1.96,8.55zm-0.28 3.81c0.4,0.74 0.88,1.11 1.44,1.11 0.87,0 1.79,-0.36 2.76,-1.08 0.97,-0.72 1.8,-1.73 2.51,-3.04 0.7,-1.31 1.06,-2.41 1.06,-3.32 0,-0.4 -0.07,-0.75 -0.22,-1.04 -0.15,-0.29 -0.33,-0.44 -0.55,-0.44 -1.06,0 -2.36,0.87 -3.88,2.61 -1.53,1.73 -2.57,3.47 -3.12,5.2zm15.51 -12.62c-0.16,0 -0.28,-0.17 -0.37,-0.52 -0.03,-0.11 -0.07,-0.22 -0.13,-0.36 -0.21,-0.49 -0.31,-0.93 -0.31,-1.29 0,-0.3 0.18,-0.61 0.54,-0.93 0.36,-0.32 0.76,-0.48 1.21,-0.48 0.22,0 0.47,0.09 0.75,0.26 0.27,0.17 0.41,0.34 0.41,0.5 0,0.25 -0.09,0.68 -0.28,1.29 -0.19,0.6 -0.48,1.01 -0.89,1.22 -0.41,0.21 -0.72,0.31 -0.93,0.31zm-1.5 12.78c0,0.58 0.08,1.23 0.24,1.96 0.03,0.14 0.04,0.25 0.04,0.34 0,0.14 -0.12,0.32 -0.37,0.54 -0.25,0.21 -0.52,0.32 -0.8,0.32 -0.74,0 -1.11,-0.68 -1.11,-2.03 0,-1.41 0.29,-3.62 0.87,-6.66 0.2,-1.06 0.3,-1.71 0.3,-1.96 0,-0.48 0.09,-0.89 0.27,-1.23 0.18,-0.34 0.42,-0.51 0.74,-0.51 0.39,0 0.7,0.09 0.92,0.28 0.23,0.19 0.34,0.39 0.34,0.63 0,0.23 -0.05,0.53 -0.16,0.9 -0.57,2.02 -0.93,3.46 -1.06,4.33 -0.14,0.87 -0.21,1.9 -0.21,3.1zm9.24 -9.01c0.79,-0.06 1.53,-0.13 2.22,-0.22 0.69,-0.07 1.26,-0.11 1.72,-0.11 0.58,0 0.95,0.05 1.1,0.16 0.15,0.11 0.23,0.29 0.23,0.56 0,0.62 -0.43,0.95 -1.29,1 -1.11,0.07 -2.13,0.16 -3.06,0.29 -0.93,0.12 -1.43,0.22 -1.5,0.3 -0.07,0.08 -0.3,0.99 -0.69,2.72 -0.39,1.74 -0.59,2.86 -0.59,3.38 0,0.84 0.11,1.4 0.33,1.68 0.22,0.28 0.55,0.42 1,0.42 0.66,0 1.57,-0.49 2.74,-1.48 0.45,-0.4 0.8,-0.61 1.04,-0.61 0.33,0 0.49,0.18 0.49,0.53 0,0.55 -0.53,1.26 -1.59,2.13 -1.05,0.87 -2.14,1.31 -3.24,1.31 -1.85,0 -2.77,-1.09 -2.77,-3.26 0,-0.78 0.19,-2 0.57,-3.65 0.38,-1.64 0.56,-2.62 0.56,-2.95 0,-0.11 -0.09,-0.17 -0.27,-0.17l-1.19 0.11c-0.98,0 -1.46,-0.39 -1.46,-1.17 0,-0.44 0.22,-0.66 0.68,-0.66l2.36 0c0.16,0 0.3,-0.07 0.43,-0.22 0.12,-0.14 0.3,-0.63 0.53,-1.46 0.24,-0.83 0.45,-1.65 0.63,-2.46 0.18,-0.8 0.54,-1.2 1.08,-1.2 0.33,0 0.58,0.11 0.76,0.34 0.18,0.23 0.27,0.44 0.27,0.64 0,0.11 -0.14,0.65 -0.41,1.64l-0.66 2.4zm10.01 -3.78c-0.16,0 -0.28,-0.17 -0.37,-0.52 -0.03,-0.11 -0.07,-0.22 -0.13,-0.36 -0.21,-0.49 -0.31,-0.93 -0.31,-1.29 0,-0.3 0.18,-0.61 0.54,-0.93 0.36,-0.32 0.76,-0.48 1.21,-0.48 0.22,0 0.47,0.09 0.75,0.26 0.27,0.17 0.41,0.34 0.41,0.5 0,0.25 -0.09,0.68 -0.28,1.29 -0.19,0.6 -0.48,1.01 -0.89,1.22 -0.41,0.21 -0.72,0.31 -0.93,0.31zm-1.5 12.78c0,0.58 0.08,1.23 0.24,1.96 0.03,0.14 0.04,0.25 0.04,0.34 0,0.14 -0.12,0.32 -0.37,0.54 -0.25,0.21 -0.52,0.32 -0.8,0.32 -0.74,0 -1.11,-0.68 -1.11,-2.03 0,-1.41 0.29,-3.62 0.87,-6.66 0.2,-1.06 0.3,-1.71 0.3,-1.96 0,-0.48 0.09,-0.89 0.27,-1.23 0.18,-0.34 0.42,-0.51 0.74,-0.51 0.39,0 0.7,0.09 0.92,0.28 0.23,0.19 0.34,0.39 0.34,0.63 0,0.23 -0.05,0.53 -0.16,0.9 -0.57,2.02 -0.93,3.46 -1.06,4.33 -0.14,0.87 -0.21,1.9 -0.21,3.1zm7.93 3.11c-1.04,0 -1.91,-0.39 -2.59,-1.19 -0.68,-0.79 -1.02,-1.77 -1.02,-2.94 0,-1.97 0.66,-3.91 1.99,-5.82 1.32,-1.91 2.91,-2.87 4.75,-2.87 1.22,0 2.21,0.47 2.97,1.41 0.76,0.94 1.14,2.05 1.14,3.35 0,1.98 -0.78,3.82 -2.35,5.51 -1.57,1.7 -3.2,2.54 -4.89,2.54zm-1.59 -4.43c0,0.77 0.16,1.4 0.48,1.89 0.32,0.49 0.75,0.73 1.29,0.73 1.14,0 2.28,-0.63 3.42,-1.87 1.14,-1.25 1.71,-2.64 1.71,-4.16 0,-0.94 -0.22,-1.7 -0.66,-2.28 -0.44,-0.58 -1.03,-0.88 -1.77,-0.88 -1.23,0 -2.28,0.75 -3.16,2.26 -0.88,1.5 -1.32,2.94 -1.32,4.31zm19.3 -4.94c-0.4,0 -0.83,0.26 -1.3,0.78 -0.47,0.52 -1.18,1.68 -2.14,3.49 -1.27,2.43 -2.09,3.8 -2.45,4.14 -0.37,0.34 -0.68,0.5 -0.92,0.5 -0.9,0 -1.35,-0.43 -1.35,-1.3 0,-0.36 0.06,-0.88 0.18,-1.55 0.42,-2.3 0.63,-4.73 0.63,-7.29 0,-0.29 0.12,-0.61 0.37,-0.97 0.25,-0.36 0.48,-0.53 0.7,-0.53 0.4,0 0.68,0.12 0.85,0.37 0.17,0.24 0.25,0.73 0.25,1.48 0,0.77 -0.23,2.36 -0.69,4.76 -0.15,0.79 -0.23,1.3 -0.23,1.51 0,0.12 0.03,0.18 0.09,0.18 0.11,0 0.64,-0.91 1.59,-2.73 0.95,-1.86 1.79,-3.16 2.5,-3.91 0.72,-0.76 1.51,-1.13 2.37,-1.13 0.69,0 1.25,0.31 1.67,0.94 0.43,0.62 0.75,1.77 0.95,3.42 0.21,1.88 0.41,3.06 0.58,3.52 0.17,0.46 0.45,0.69 0.82,0.69 0.24,0 0.53,-0.08 0.89,-0.25 0.06,-0.03 0.11,-0.05 0.14,-0.05 0.33,0 0.49,0.19 0.49,0.57 0,0.34 -0.23,0.7 -0.68,1.07 -0.45,0.38 -0.99,0.57 -1.63,0.57 -0.65,0 -1.15,-0.26 -1.5,-0.77 -0.36,-0.52 -0.64,-1.89 -0.84,-4.13 -0.21,-2.24 -0.66,-3.36 -1.35,-3.36z"/>
   <g id="atau-belgi.svg">
    <path class="fil0 str0" d="M54 24.06c-12.28,1.94 -16.37,9.65 -17.58,14.17 -1.06,3.92 -0.75,10.36 8.01,10.58 2.84,0 11.12,-0.02 17.9,0 8.42,0.02 10.77,-6.72 10.58,-12.51 -0.37,-10.52 -9.84,-13.65 -18.91,-12.23z"/>
    <path class="fil2" d="M42.96 38.96c0,-2.44 1.99,-4.44 4.44,-4.44 2.44,0 4.44,2 4.44,4.44 0,2.44 -2,4.44 -4.44,4.44 -2.44,0 -4.44,-2 -4.44,-4.44z"/>
   </g>
  </g>
 </g>
</svg>
