<?xml version="1.0" encoding="UTF-8"?>
<!DOCTYPE svg PUBLIC "-//W3C//DTD SVG 1.1//EN" "http://www.w3.org/Graphics/SVG/1.1/DTD/svg11.dtd">
<!-- Creator: CorelDRAW 2020 -->
<svg xmlns="http://www.w3.org/2000/svg" xml:space="preserve" width="28.3933mm" height="10mm" version="1.1" style="shape-rendering:geometricPrecision; text-rendering:geometricPrecision; image-rendering:optimizeQuality; fill-rule:evenodd; clip-rule:evenodd"
viewBox="0 0 504.74 177.77"
 xmlns:xlink="http://www.w3.org/1999/xlink"
 xmlns:xodm="http://www.corel.com/coreldraw/odm/2003">
 <defs>
  <style type="text/css">
   <![CDATA[
    .str0 {stroke:#6B470F;stroke-width:8.89;stroke-miterlimit:22.9256}
    .fil0 {fill:none}
    .fil2 {fill:#6B470F}
    .fil1 {fill:#6B470F;fill-rule:nonzero}
   ]]>
  </style>
 </defs>
 <g id="Layer_x0020_1">
  <metadata id="CorelCorpID_0Corel-Layer"/>
  <g id="_1556762200">
   <polygon class="fil0" points="-0,0 504.74,0 504.74,177.77 -0,177.77 "/>
   <path class="fil1" d="M198.79 138.33l2.01 0c3.41,0 5.95,-0.12 7.63,-0.36 0.81,-0.11 1.62,-0.17 2.43,-0.17 0.35,0 1.06,0.22 2.14,0.63 1.07,0.42 1.71,0.78 1.92,1.06 0.2,0.29 0.3,0.67 0.3,1.15 0,0.68 -0.14,1.16 -0.41,1.43 -0.27,0.27 -0.87,0.41 -1.8,0.41 -0.41,0 -0.97,-0.12 -1.7,-0.36 -0.73,-0.24 -1.35,-0.36 -1.85,-0.36 -0.2,0 -0.87,0.05 -2,0.14 -0.61,0.05 -1.71,0.01 -3.31,-0.14 -1.23,-0.11 -2.15,-0.17 -2.76,-0.17 -0.85,0 -2.12,0.06 -3.83,0.17 -1.71,0.11 -3,0.17 -3.89,0.17 -0.88,0 -1.6,-0.1 -2.14,-0.29 -0.55,-0.2 -0.82,-0.63 -0.82,-1.31 0,-0.3 0.12,-0.64 0.38,-1.03 0.25,-0.39 1.09,-0.71 2.52,-0.94 1.43,-0.23 2.46,-0.35 3.08,-0.35l2.1 0.31zm63.22 7.91c-2.57,3.45 -5.12,6.04 -7.63,7.77 -2.52,1.72 -4.83,2.59 -6.92,2.59 -1.41,0 -2.63,-0.59 -3.66,-1.79 -1.03,-1.19 -1.54,-2.73 -1.54,-4.61 0,-4.83 2.15,-10.03 6.47,-15.61 4.32,-5.58 8.61,-8.36 12.87,-8.36 1.54,0 2.69,0.87 3.45,2.64 0.23,0.58 0.61,0.88 1.13,0.88 1.47,0 2.2,0.57 2.2,1.7 0,0.57 -0.09,1.35 -0.27,2.34 -1,5.42 -1.49,9.25 -1.49,11.47 0,4.45 0.84,7.11 2.53,8 0.81,0.44 1.21,0.98 1.21,1.62 0,0.57 -0.4,1.15 -1.19,1.73 -0.79,0.57 -1.55,0.87 -2.29,0.87 -1.42,0 -2.59,-0.98 -3.5,-2.93 -0.92,-1.95 -1.38,-4.72 -1.38,-8.32zm-1.67 -15.52c-2.43,0 -5.25,2.28 -8.47,6.82 -3.22,4.55 -4.83,8.32 -4.83,11.32 0,2.11 0.71,3.17 2.1,3.17 2.02,0 4.82,-2.04 8.41,-6.12 3.58,-4.07 5.37,-7.83 5.37,-11.24 0,-2.62 -0.87,-3.94 -2.59,-3.94zm37.19 -6.53c-0.66,-2.87 -1.48,-4.87 -2.45,-6.01 -0.97,-1.14 -2.26,-2.02 -3.86,-2.64 -1.6,-0.62 -3.04,-0.94 -4.33,-0.94 -0.49,0 -1.22,0.19 -2.19,0.56 -0.96,0.38 -1.7,0.73 -2.21,1.03 -0.73,0.42 -1.38,0.64 -1.99,0.64 -0.71,0 -1.05,-0.37 -1.05,-1.11 0,-0.79 0.6,-1.88 1.8,-3.27 1.19,-1.4 3.29,-2.1 6.31,-2.1l1.18 0c2.99,0 5.64,0.79 7.93,2.36 2.3,1.57 3.93,3.81 4.89,6.73 0.97,2.92 1.45,6.84 1.45,11.77 0,3.34 -1.05,7.4 -3.17,12.15 -2.11,4.76 -4.8,8.36 -8.06,10.8 -3.25,2.45 -6.73,3.67 -10.4,3.67 -1.32,0 -2.56,-0.76 -3.72,-2.29 -1.16,-1.52 -1.74,-3.41 -1.74,-5.68 0,-4.17 0.91,-7.85 2.75,-11.03 1.83,-3.19 3.88,-5.78 6.14,-7.76 2.27,-1.99 5.41,-3.58 9.42,-4.8 1.32,-0.39 2.22,-0.69 2.7,-0.9 0.48,-0.23 0.68,-0.62 0.6,-1.19zm0.74 5.62c-4.24,0.86 -7.5,2.24 -9.76,4.11 -5.11,4.78 -7.66,10.13 -7.66,16.07 0,0.79 0.13,1.53 0.41,2.22 0.27,0.69 0.58,1.03 0.93,1.03 1.36,0 2.61,-0.25 3.72,-0.71 1.12,-0.48 2.48,-1.48 4.1,-2.99 1.62,-1.51 3.09,-3.4 4.4,-5.64 1.31,-2.25 2.27,-4.4 2.86,-6.48 0.6,-2.08 0.91,-3.67 0.95,-4.78 0.04,-1.11 0.05,-2.06 0.03,-2.83zm26.62 16.43c-2.57,3.45 -5.12,6.04 -7.63,7.77 -2.52,1.72 -4.83,2.59 -6.92,2.59 -1.41,0 -2.63,-0.59 -3.66,-1.79 -1.03,-1.19 -1.54,-2.73 -1.54,-4.61 0,-4.83 2.15,-10.03 6.47,-15.61 4.32,-5.58 8.61,-8.36 12.87,-8.36 1.54,0 2.69,0.87 3.45,2.64 0.23,0.58 0.61,0.88 1.13,0.88 1.47,0 2.2,0.57 2.2,1.7 0,0.57 -0.09,1.35 -0.27,2.34 -1,5.42 -1.49,9.25 -1.49,11.47 0,4.45 0.84,7.11 2.53,8 0.81,0.44 1.21,0.98 1.21,1.62 0,0.57 -0.4,1.15 -1.19,1.73 -0.79,0.57 -1.55,0.87 -2.29,0.87 -1.42,0 -2.59,-0.98 -3.5,-2.93 -0.92,-1.95 -1.38,-4.72 -1.38,-8.32zm-1.67 -15.52c-2.43,0 -5.25,2.28 -8.47,6.82 -3.22,4.55 -4.83,8.32 -4.83,11.32 0,2.11 0.71,3.17 2.1,3.17 2.02,0 4.82,-2.04 8.41,-6.12 3.58,-4.07 5.37,-7.83 5.37,-11.24 0,-2.62 -0.87,-3.94 -2.59,-3.94zm51.39 1.41c-1.49,2.38 -3.58,6.42 -6.28,12.13 -0.6,1.28 -1.22,2.52 -1.84,3.72 -0.21,0.39 -0.59,1.24 -1.16,2.57 -1.93,4.48 -3.61,6.72 -5.05,6.72 -1.14,0 -1.97,-0.13 -2.49,-0.41 -0.52,-0.27 -1.02,-1.03 -1.5,-2.26 -0.48,-1.23 -1.19,-4.12 -2.13,-8.68 -1.08,-5.16 -1.82,-8.34 -2.2,-9.53 -1.25,2.81 -2.36,5.52 -3.34,8.13 -1.47,3.84 -2.89,6.97 -4.27,9.39 -1.37,2.41 -2.37,3.87 -2.97,4.35 -0.61,0.49 -1.19,0.73 -1.74,0.73 -0.57,0 -1.08,-0.22 -1.54,-0.66 -0.46,-0.44 -0.69,-0.87 -0.69,-1.3 0.11,-0.75 0.24,-1.22 0.39,-1.4 1.6,-1.97 2.97,-4.06 4.13,-6.28 1.16,-2.23 2.63,-5.56 4.43,-10.01 1.79,-4.44 2.93,-8.09 3.42,-10.94 0.25,-1.21 1.13,-1.82 2.67,-1.82 0.9,0 1.52,0.13 1.85,0.41 0.33,0.27 0.66,0.84 0.98,1.67 0.32,0.85 0.51,1.6 0.56,2.27 0.11,0.79 0.42,2.54 0.93,5.26 0.46,2.56 0.77,4.36 0.91,5.43 0.25,1.53 0.71,3.53 1.37,6.01 0.65,2.48 1.17,3.72 1.53,3.72 0.25,0 0.62,-0.56 1.1,-1.68l2.31 -5.35c0.42,-0.97 0.87,-1.93 1.35,-2.86l3.16 -6.48c1.73,-3.56 3.06,-6.14 3.99,-7.75 0.92,-1.61 1.55,-2.58 1.87,-2.91 0.32,-0.34 0.69,-0.5 1.09,-0.5 0.7,0 1.48,0.19 2.34,0.57 0.87,0.38 1.31,0.79 1.35,1.25 0.04,0.46 0.12,2.38 0.25,5.76l0.36 8.61c0.11,2.74 0.27,5.06 0.5,6.98 0.22,1.92 0.6,3.47 1.16,4.65 0.86,1.87 1.29,3.32 1.29,4.36 0,0.87 -0.36,1.49 -1.08,1.82 -0.73,0.33 -1.4,0.5 -2.03,0.5 -1.28,0 -2.27,-1.03 -2.96,-3.08 -0.69,-2.06 -1.19,-7.96 -1.5,-17.7 -0.11,-2.93 -0.29,-4.71 -0.53,-5.37zm35.16 -7.94c-0.66,-2.87 -1.48,-4.87 -2.45,-6.01 -0.97,-1.14 -2.26,-2.02 -3.86,-2.64 -1.6,-0.62 -3.04,-0.94 -4.33,-0.94 -0.49,0 -1.22,0.19 -2.19,0.56 -0.96,0.38 -1.7,0.73 -2.21,1.03 -0.73,0.42 -1.38,0.64 -1.99,0.64 -0.71,0 -1.05,-0.37 -1.05,-1.11 0,-0.79 0.6,-1.88 1.8,-3.27 1.19,-1.4 3.29,-2.1 6.31,-2.1l1.18 0c2.99,0 5.64,0.79 7.93,2.36 2.3,1.57 3.93,3.81 4.89,6.73 0.97,2.92 1.45,6.84 1.45,11.77 0,3.34 -1.05,7.4 -3.17,12.15 -2.11,4.76 -4.8,8.36 -8.06,10.8 -3.25,2.45 -6.73,3.67 -10.4,3.67 -1.32,0 -2.56,-0.76 -3.72,-2.29 -1.16,-1.52 -1.74,-3.41 -1.74,-5.68 0,-4.17 0.91,-7.85 2.75,-11.03 1.83,-3.19 3.88,-5.78 6.14,-7.76 2.27,-1.99 5.41,-3.58 9.42,-4.8 1.32,-0.39 2.22,-0.69 2.7,-0.9 0.48,-0.23 0.68,-0.62 0.6,-1.19zm0.74 5.62c-4.24,0.86 -7.5,2.24 -9.76,4.11 -5.11,4.78 -7.66,10.13 -7.66,16.07 0,0.79 0.13,1.53 0.41,2.22 0.27,0.69 0.58,1.03 0.93,1.03 1.36,0 2.61,-0.25 3.72,-0.71 1.12,-0.48 2.48,-1.48 4.1,-2.99 1.62,-1.51 3.09,-3.4 4.4,-5.64 1.31,-2.25 2.27,-4.4 2.86,-6.48 0.6,-2.08 0.91,-3.67 0.95,-4.78 0.04,-1.11 0.05,-2.06 0.03,-2.83zm26.62 16.43c-2.57,3.45 -5.12,6.04 -7.63,7.77 -2.52,1.72 -4.83,2.59 -6.92,2.59 -1.41,0 -2.63,-0.59 -3.66,-1.79 -1.03,-1.19 -1.54,-2.73 -1.54,-4.61 0,-4.83 2.15,-10.03 6.47,-15.61 4.32,-5.58 8.61,-8.36 12.87,-8.36 1.54,0 2.69,0.87 3.45,2.64 0.23,0.58 0.61,0.88 1.13,0.88 1.47,0 2.2,0.57 2.2,1.7 0,0.57 -0.09,1.35 -0.27,2.34 -1,5.42 -1.49,9.25 -1.49,11.47 0,4.45 0.84,7.11 2.53,8 0.81,0.44 1.21,0.98 1.21,1.62 0,0.57 -0.4,1.15 -1.19,1.73 -0.79,0.57 -1.55,0.87 -2.29,0.87 -1.42,0 -2.59,-0.98 -3.5,-2.93 -0.92,-1.95 -1.38,-4.72 -1.38,-8.32zm-1.67 -15.52c-2.43,0 -5.25,2.28 -8.47,6.82 -3.22,4.55 -4.83,8.32 -4.83,11.32 0,2.11 0.71,3.17 2.1,3.17 2.02,0 4.82,-2.04 8.41,-6.12 3.58,-4.07 5.37,-7.83 5.37,-11.24 0,-2.62 -0.87,-3.94 -2.59,-3.94zm21.54 22.35c-0.9,3.31 -1.74,7.95 -2.53,13.92l-0.77 5.2c-0.13,0.73 -0.47,1.47 -1.03,2.19 -0.55,0.72 -1.05,1.09 -1.51,1.09 -0.57,0 -1.21,-0.29 -1.95,-0.87 -0.72,-0.58 -1.08,-1.05 -1.08,-1.39 0,-1.02 0.23,-2.41 0.69,-4.2 3.36,-13.57 5.04,-25.5 5.04,-35.77l-0.03 -2.31c-0.04,-1.99 0.31,-3.43 1.05,-4.33 0.74,-0.9 1.58,-1.35 2.54,-1.35 0.44,0 0.87,0.35 1.27,1.03 0.4,0.69 0.6,1.66 0.6,2.93 0,1.78 -0.18,3.94 -0.54,6.47 -0.48,3.2 -0.73,5.04 -0.74,5.51 2.74,-4.77 5.64,-8.5 8.7,-11.18 3.07,-2.68 5.92,-4.03 8.55,-4.03 1.85,0 3.41,0.7 4.69,2.08 1.28,1.39 1.92,3.11 1.92,5.17 0,5.98 -2.29,11.43 -6.89,16.31 -4.59,4.89 -9.07,7.33 -13.41,7.33 -1.09,0 -1.95,-0.27 -2.58,-0.82 -0.64,-0.55 -1.3,-1.56 -1.98,-3.01zm17.11 -22.18c-2.59,0 -5.8,2.43 -9.61,7.27 -3.82,4.85 -5.73,8.63 -5.73,11.33 0,0.67 0.38,1.31 1.13,1.93 0.75,0.63 1.7,0.94 2.86,0.94 2.63,0 5.65,-1.95 9.07,-5.83 3.42,-3.89 5.13,-7.7 5.13,-11.45 0,-1.35 -0.27,-2.37 -0.81,-3.1 -0.55,-0.73 -1.22,-1.08 -2.03,-1.08z"/>
   <path class="fil1" d="M32.3 142.9c3.48,-0.6 6.61,-2.85 9.37,-6.75 1.3,-1.8 2.43,-3.08 3.41,-3.84 0.98,-0.75 2.02,-1.14 3.12,-1.14 0.44,0 0.88,0.2 1.32,0.59 0.44,0.4 0.66,0.87 0.66,1.42 0,0.72 -0.68,1.29 -2.05,1.7 -0.72,0.22 -1.4,0.59 -2.03,1.12 -0.63,0.53 -1.83,1.79 -3.59,3.79 -1.38,1.56 -2.63,2.65 -3.72,3.28 -0.11,0.06 -0.16,0.11 -0.16,0.16 0,0.06 0.07,0.12 0.2,0.17 1.07,0.58 2.2,1.69 3.4,3.33 1.73,2.39 3.03,3.9 3.9,4.53 0.87,0.63 1.86,0.93 2.98,0.93l0.73 -0.02c0.51,-0.03 0.77,0.2 0.77,0.69 0,0.56 -0.32,1.14 -0.95,1.75 -0.63,0.6 -1.68,0.9 -3.13,0.9 -1.11,0 -2.2,-0.48 -3.25,-1.45 -1.05,-0.96 -2.25,-2.53 -3.6,-4.69 -0.78,-1.28 -1.5,-2.25 -2.18,-2.9 -0.68,-0.66 -1.43,-0.99 -2.25,-0.99 -0.17,0 -0.72,0.14 -1.63,0.44 -0.91,0.29 -1.42,0.58 -1.53,0.85 -0.11,0.27 -0.2,1.25 -0.25,2.93 -0.04,1.68 -0.08,3.04 -0.08,4.06 0,0.55 -0.26,1.03 -0.77,1.46 -0.52,0.42 -1.07,0.64 -1.68,0.64 -0.62,0 -1.1,-0.18 -1.45,-0.54 -0.36,-0.36 -0.54,-0.73 -0.54,-1.11 0,-0.53 0.2,-1.78 0.59,-3.75 0.71,-3.59 1.42,-9.51 2.12,-17.75 0.05,-0.79 0.35,-1.5 0.9,-2.14 0.54,-0.64 1.16,-0.96 1.85,-0.96 0.38,0 0.7,0.21 0.96,0.62 0.25,0.41 0.39,0.94 0.39,1.59 0,0.52 -0.09,1.11 -0.27,1.77 -0.84,3.04 -1.35,6.15 -1.57,9.32zm50.8 9.04c-0.72,2.65 -1.39,6.36 -2.02,11.14l-0.62 4.16c-0.1,0.59 -0.38,1.18 -0.82,1.75 -0.43,0.58 -0.84,0.87 -1.21,0.87 -0.46,0 -0.97,-0.23 -1.56,-0.69 -0.58,-0.47 -0.86,-0.84 -0.86,-1.11 0,-0.81 0.18,-1.93 0.55,-3.36 2.69,-10.86 4.03,-20.4 4.03,-28.61l-0.02 -1.85c-0.03,-1.59 0.25,-2.75 0.84,-3.46 0.6,-0.72 1.26,-1.08 2.03,-1.08 0.35,0 0.69,0.28 1.02,0.83 0.32,0.55 0.48,1.33 0.48,2.35 0,1.42 -0.14,3.15 -0.44,5.18 -0.38,2.56 -0.58,4.03 -0.59,4.41 2.19,-3.81 4.51,-6.8 6.96,-8.95 2.45,-2.14 4.73,-3.22 6.84,-3.22 1.48,0 2.73,0.56 3.76,1.66 1.02,1.11 1.54,2.49 1.54,4.14 0,4.79 -1.84,9.14 -5.52,13.05 -3.67,3.91 -7.25,5.86 -10.73,5.86 -0.87,0 -1.56,-0.22 -2.06,-0.65 -0.51,-0.44 -1.04,-1.25 -1.58,-2.41zm13.69 -17.74c-2.07,0 -4.63,1.94 -7.69,5.81 -3.06,3.88 -4.58,6.9 -4.58,9.06 0,0.53 0.3,1.04 0.9,1.54 0.6,0.5 1.36,0.75 2.29,0.75 2.11,0 4.52,-1.56 7.25,-4.66 2.74,-3.11 4.1,-6.16 4.1,-9.16 0,-1.08 -0.22,-1.9 -0.65,-2.48 -0.44,-0.58 -0.98,-0.86 -1.63,-0.86zm39.38 0.99c-1.19,1.9 -2.87,5.14 -5.03,9.7 -0.48,1.02 -0.98,2.02 -1.48,2.97 -0.17,0.31 -0.47,0.99 -0.93,2.05 -1.54,3.58 -2.89,5.37 -4.04,5.37 -0.91,0 -1.57,-0.1 -1.99,-0.33 -0.41,-0.22 -0.81,-0.82 -1.2,-1.81 -0.38,-0.99 -0.95,-3.3 -1.7,-6.95 -0.87,-4.12 -1.45,-6.67 -1.76,-7.62 -1,2.25 -1.89,4.42 -2.67,6.5 -1.17,3.07 -2.31,5.57 -3.42,7.51 -1.1,1.93 -1.9,3.09 -2.38,3.48 -0.49,0.39 -0.95,0.59 -1.39,0.59 -0.45,0 -0.87,-0.17 -1.24,-0.53 -0.37,-0.35 -0.55,-0.7 -0.55,-1.04 0.09,-0.6 0.19,-0.98 0.31,-1.12 1.28,-1.57 2.38,-3.25 3.3,-5.03 0.93,-1.78 2.11,-4.45 3.55,-8.01 1.43,-3.55 2.35,-6.47 2.74,-8.75 0.19,-0.97 0.9,-1.45 2.14,-1.45 0.72,0 1.22,0.11 1.48,0.33 0.26,0.22 0.53,0.67 0.78,1.34 0.26,0.68 0.41,1.28 0.45,1.81 0.09,0.63 0.34,2.03 0.75,4.21 0.37,2.05 0.62,3.49 0.73,4.34 0.2,1.23 0.57,2.82 1.09,4.81 0.52,1.99 0.93,2.98 1.23,2.98 0.2,0 0.5,-0.45 0.88,-1.35l1.85 -4.28c0.34,-0.78 0.7,-1.54 1.08,-2.29l2.53 -5.19c1.38,-2.85 2.45,-4.91 3.19,-6.2 0.74,-1.29 1.24,-2.06 1.5,-2.33 0.26,-0.27 0.55,-0.4 0.87,-0.4 0.56,0 1.18,0.15 1.87,0.45 0.69,0.3 1.05,0.63 1.08,1 0.03,0.37 0.1,1.9 0.2,4.61l0.28 6.89c0.09,2.19 0.22,4.05 0.4,5.58 0.17,1.54 0.48,2.78 0.92,3.72 0.68,1.5 1.03,2.66 1.03,3.48 0,0.7 -0.29,1.19 -0.87,1.45 -0.59,0.26 -1.12,0.4 -1.63,0.4 -1.02,0 -1.81,-0.83 -2.37,-2.47 -0.55,-1.65 -0.95,-6.37 -1.2,-14.16 -0.09,-2.34 -0.23,-3.77 -0.42,-4.3zm30.22 11.84c0,1.5 -1.33,3.3 -3.97,5.43 -2.66,2.11 -5.4,3.17 -8.22,3.17 -2.36,0 -4.19,-0.69 -5.48,-2.09 -1.29,-1.39 -1.93,-3.34 -1.93,-5.84 0,-4.21 1.41,-8.2 4.25,-11.99 2.84,-3.79 5.94,-5.69 9.31,-5.69 1.1,0 2,0.36 2.7,1.08 0.69,0.71 1.05,1.59 1.05,2.6 0,2.26 -1.12,4.43 -3.33,6.51 -2.22,2.07 -5.19,4.11 -8.9,6.1 -0.77,0.4 -1.14,0.91 -1.14,1.54 0,1.22 0.35,2.2 1.05,2.93 0.71,0.74 1.75,1.1 3.13,1.1 3.16,0 6.39,-1.75 9.68,-5.24 0.49,-0.48 0.86,-0.73 1.11,-0.73 0.47,0 0.7,0.38 0.7,1.13zm-15.32 -3.44c6.24,-3.7 9.36,-6.68 9.36,-8.93 0,-0.88 -0.4,-1.32 -1.2,-1.32 -1.35,0 -2.87,0.99 -4.58,2.98 -1.69,1.99 -2.89,4.41 -3.58,7.28zm-76.88 -1.14c0,5.46 -1.76,9.17 -5.28,11.12 -1.72,0.95 -3.61,1.43 -5.65,1.43 -3.55,0 -6.31,-1.17 -8.26,-3.5 -1.81,-2.17 -2.71,-5.08 -2.71,-8.71 0,-4.33 1.2,-7.53 3.61,-9.62 2.01,-1.73 4.45,-2.6 7.35,-2.6 3.45,0 6.15,1.14 8.12,3.41 1.87,2.16 2.81,4.98 2.81,8.47zm-4.15 -1.9c-0.25,-1.89 -0.86,-3.38 -1.84,-4.46 -1.32,-1.48 -2.96,-2.22 -4.94,-2.22 -2,0 -3.66,0.74 -4.97,2.22 -0.98,1.08 -1.59,2.57 -1.84,4.46l13.59 0zm0.09 3.25l-13.77 0c0.12,2.26 0.71,4.1 1.79,5.52 1.23,1.62 2.94,2.42 5.11,2.42 2.16,0 3.86,-0.81 5.08,-2.44 1.06,-1.41 1.65,-3.25 1.79,-5.5z"/>
   <g id="atau-belgi.svg">
    <path class="fil0 str0" d="M93.65 51.5c-26.28,4.15 -35.05,20.66 -37.63,30.34 -2.26,8.39 -1.61,22.18 17.15,22.64 6.09,0 23.79,-0.05 38.32,0 18.03,0.05 23.06,-14.39 22.64,-26.79 -0.79,-22.52 -21.06,-29.23 -40.49,-26.19z"/>
    <path class="fil2" d="M70.04 83.41c0,-5.23 4.27,-9.5 9.5,-9.5 5.23,0 9.5,4.27 9.5,9.5 0,5.23 -4.27,9.5 -9.5,9.5 -5.23,0 -9.5,-4.27 -9.5,-9.5z"/>
   </g>
  </g>
 </g>
</svg>
