<?xml version="1.0" encoding="UTF-8"?>
<!DOCTYPE svg PUBLIC "-//W3C//DTD SVG 1.1//EN" "http://www.w3.org/Graphics/SVG/1.1/DTD/svg11.dtd">
<!-- Creator: CorelDRAW 2020 -->
<svg xmlns="http://www.w3.org/2000/svg" xml:space="preserve" width="15mm" height="10.3mm" version="1.1" style="shape-rendering:geometricPrecision; text-rendering:geometricPrecision; image-rendering:optimizeQuality; fill-rule:evenodd; clip-rule:evenodd"
viewBox="0 0 250.59 172.07"
 xmlns:xlink="http://www.w3.org/1999/xlink"
 xmlns:xodm="http://www.corel.com/coreldraw/odm/2003">
 <defs>
  <style type="text/css">
   <![CDATA[
    .str1 {stroke:#C6B93A;stroke-width:12.53;stroke-miterlimit:22.9256}
    .str0 {stroke:#C6B93A;stroke-width:3.34;stroke-miterlimit:22.9256}
    .fil0 {fill:none}
    .fil2 {fill:#C6B93A}
    .fil1 {fill:#C6B93A;fill-rule:nonzero}
   ]]>
  </style>
 </defs>
 <g id="Layer_x0020_1">
  <metadata id="CorelCorpID_0Corel-Layer"/>
  <polygon class="fil0" points="-0,0 250.59,0 250.59,170.4 -0,170.4 "/>
  <line class="fil0 str0" x1="12.53" y1="170.4" x2="238.06" y2= "170.4" />
  <path class="fil1" d="M33.41 145.27c0,1.56 -1.38,3.45 -4.15,5.67 -2.77,2.21 -5.63,3.31 -8.58,3.31 -2.47,0 -4.38,-0.72 -5.72,-2.19 -1.34,-1.45 -2.01,-3.49 -2.01,-6.1 0,-4.39 1.48,-8.57 4.44,-12.52 2.96,-3.96 6.21,-5.94 9.72,-5.94 1.15,0 2.09,0.38 2.82,1.13 0.72,0.75 1.09,1.66 1.09,2.71 0,2.36 -1.16,4.63 -3.48,6.8 -2.32,2.16 -5.41,4.29 -9.3,6.37 -0.8,0.42 -1.19,0.95 -1.19,1.61 0,1.27 0.36,2.3 1.1,3.07 0.74,0.77 1.83,1.15 3.27,1.15 3.3,0 6.67,-1.82 10.11,-5.48 0.51,-0.5 0.9,-0.76 1.15,-0.76 0.49,0 0.73,0.39 0.73,1.18zm-16 -3.59c6.51,-3.87 9.77,-6.98 9.77,-9.33 0,-0.92 -0.42,-1.38 -1.25,-1.38 -1.41,0 -3,1.04 -4.78,3.11 -1.77,2.07 -3.02,4.61 -3.74,7.6zm28.73 2.83c-3.5,3.01 -5.81,6.04 -6.92,9.09 -0.43,1.01 -0.87,1.78 -1.31,2.28 -1.83,-0.1 -2.74,-0.96 -2.74,-2.55 0,-2.35 2.62,-5.91 7.85,-10.68l1.11 -1.04c-3.06,-4.59 -4.58,-8.11 -4.58,-10.57 0,-2.18 0.92,-3.27 2.76,-3.27 0.53,0 0.9,0.23 1.14,0.67 0.24,0.45 0.42,1.46 0.57,3.04 0.2,2.44 1.25,5.03 3.15,7.76 4.25,-3.65 7.13,-6.92 8.61,-9.81 0.51,-0.92 0.9,-1.5 1.17,-1.75 0.28,-0.25 0.65,-0.37 1.11,-0.37 0.55,0 1.07,0.21 1.56,0.64 0.48,0.42 0.72,0.97 0.72,1.63 0,1.53 -3.72,5.74 -11.19,12.61 2.57,3.28 5.3,5.75 8.2,7.39 0.35,0.2 0.69,0.4 1.01,0.62 0.06,0.13 0.09,0.35 0.09,0.64 0,0.66 -0.24,1.25 -0.72,1.77 -0.49,0.53 -1.07,0.79 -1.75,0.79 -2.07,0 -5.34,-2.97 -9.83,-8.91zm21.25 1.66c5.71,-10.54 10.41,-15.82 14.11,-15.82 0.98,0 1.78,0.57 2.4,1.68 0.61,1.12 1.11,3.61 1.49,7.46 0.39,4.1 1.25,7.06 2.6,8.89 0.69,0.94 1.04,1.63 1.04,2.07 0,0.4 -0.23,0.77 -0.69,1.11 -0.46,0.34 -0.95,0.5 -1.47,0.5 -1.2,0 -2.26,-0.67 -3.18,-2.01 -0.92,-1.34 -1.51,-3.7 -1.77,-7.08 -0.26,-3.19 -0.54,-5.28 -0.83,-6.26 -0.29,-0.98 -0.77,-1.48 -1.45,-1.48 -1.61,0 -4.86,4.22 -9.74,12.64 -1.46,2.51 -2.54,4.16 -3.23,4.93 -0.69,0.78 -1.32,1.16 -1.89,1.16 -0.67,0 -1.24,-0.2 -1.7,-0.6 -0.46,-0.4 -0.69,-0.89 -0.69,-1.47 0,-0.43 0.13,-1.26 0.37,-2.49 1.89,-9.74 3.38,-19.39 4.47,-28.92 0.24,-2.23 0.64,-3.7 1.19,-4.44 0.54,-0.74 1,-1.11 1.37,-1.11 0.66,0 1.26,0.27 1.79,0.81 0.54,0.53 0.81,1.28 0.81,2.23 0,2.83 -0.69,6.7 -2.07,11.63 -0.68,2.44 -1.39,5.54 -2.14,9.3 -0.76,3.76 -1.13,6.09 -1.13,6.98 0,0.18 0.09,0.27 0.25,0.27l0.09 0zm33.15 -23.92c-0.32,0 -0.57,-0.35 -0.74,-1.04 -0.06,-0.21 -0.14,-0.45 -0.25,-0.72 -0.42,-0.99 -0.62,-1.86 -0.62,-2.6 0,-0.61 0.36,-1.23 1.09,-1.87 0.73,-0.64 1.54,-0.96 2.43,-0.96 0.45,0 0.94,0.17 1.5,0.52 0.55,0.35 0.83,0.67 0.83,1 0,0.51 -0.19,1.37 -0.56,2.59 -0.38,1.21 -0.98,2.03 -1.79,2.45 -0.83,0.42 -1.45,0.63 -1.88,0.63zm-3.02 25.72c0,1.16 0.17,2.47 0.49,3.94 0.06,0.28 0.09,0.5 0.09,0.68 0,0.28 -0.25,0.64 -0.75,1.08 -0.51,0.43 -1.05,0.65 -1.61,0.65 -1.49,0 -2.23,-1.37 -2.23,-4.09 0,-2.83 0.58,-7.29 1.74,-13.4 0.4,-2.14 0.6,-3.45 0.6,-3.94 0,-0.97 0.18,-1.79 0.53,-2.47 0.35,-0.68 0.85,-1.03 1.49,-1.03 0.79,0 1.4,0.19 1.85,0.57 0.46,0.38 0.67,0.79 0.67,1.26 0,0.46 -0.1,1.07 -0.32,1.81 -1.15,4.05 -1.86,6.95 -2.14,8.71 -0.28,1.74 -0.42,3.83 -0.42,6.24zm13.44 -7.99c1.96,-3.58 4.31,-6.48 7.04,-8.69 2.73,-2.22 5.19,-3.32 7.39,-3.32 1.21,0 2.24,0.56 3.08,1.68 0.85,1.12 1.26,2.48 1.26,4.09 0,4.77 -1.8,9.25 -5.4,13.44 -3.6,4.18 -7.39,6.27 -11.4,6.27 -1.09,0 -2.09,-0.3 -3.01,-0.89 -0.91,-0.59 -1.42,-1.33 -1.52,-2.23 -0.06,-0.72 -0.28,-1.26 -0.62,-1.61 -0.66,-0.66 -0.99,-1.37 -0.99,-2.11 0,-1.4 0.38,-4.39 1.15,-8.96l2.37 -13.77c0.81,-4.62 1.41,-7.47 1.78,-8.57 0.38,-1.08 0.79,-1.82 1.26,-2.19 0.46,-0.37 1.02,-0.55 1.7,-0.55 1.08,0 1.61,0.93 1.61,2.78 0,1.77 -0.59,4.23 -1.77,7.42 -1.14,3.05 -2.45,8.79 -3.94,17.19zm-0.56 7.67c0.8,1.49 1.77,2.23 2.91,2.23 1.74,0 3.6,-0.73 5.55,-2.18 1.95,-1.45 3.63,-3.49 5.05,-6.12 1.41,-2.63 2.13,-4.86 2.13,-6.67 0,-0.81 -0.15,-1.51 -0.44,-2.09 -0.29,-0.58 -0.66,-0.88 -1.11,-0.88 -2.13,0 -4.74,1.75 -7.81,5.24 -3.08,3.49 -5.17,6.98 -6.28,10.47zm31.19 -25.4c-0.32,0 -0.57,-0.35 -0.74,-1.04 -0.06,-0.21 -0.14,-0.45 -0.25,-0.72 -0.42,-0.99 -0.62,-1.86 -0.62,-2.6 0,-0.61 0.36,-1.23 1.09,-1.87 0.73,-0.64 1.54,-0.96 2.43,-0.96 0.45,0 0.94,0.17 1.5,0.52 0.55,0.35 0.83,0.67 0.83,1 0,0.51 -0.19,1.37 -0.56,2.59 -0.38,1.21 -0.98,2.03 -1.79,2.45 -0.83,0.42 -1.45,0.63 -1.88,0.63zm-3.02 25.72c0,1.16 0.17,2.47 0.49,3.94 0.06,0.28 0.09,0.5 0.09,0.68 0,0.28 -0.25,0.64 -0.75,1.08 -0.51,0.43 -1.05,0.65 -1.61,0.65 -1.49,0 -2.23,-1.37 -2.23,-4.09 0,-2.83 0.58,-7.29 1.74,-13.4 0.4,-2.14 0.6,-3.45 0.6,-3.94 0,-0.97 0.18,-1.79 0.53,-2.47 0.35,-0.68 0.85,-1.03 1.49,-1.03 0.79,0 1.4,0.19 1.85,0.57 0.46,0.38 0.67,0.79 0.67,1.26 0,0.46 -0.1,1.07 -0.32,1.81 -1.15,4.05 -1.86,6.95 -2.14,8.71 -0.28,1.74 -0.42,3.83 -0.42,6.24zm18.6 -18.12c1.58,-0.13 3.07,-0.27 4.46,-0.44 1.38,-0.15 2.54,-0.23 3.46,-0.23 1.16,0 1.9,0.11 2.21,0.32 0.31,0.21 0.46,0.59 0.46,1.13 0,1.24 -0.87,1.92 -2.6,2.02 -2.23,0.14 -4.28,0.33 -6.15,0.58 -1.87,0.24 -2.88,0.45 -3.03,0.6 -0.14,0.17 -0.6,1.99 -1.39,5.48 -0.79,3.5 -1.18,5.76 -1.18,6.8 0,1.69 0.23,2.81 0.67,3.37 0.45,0.57 1.12,0.84 2,0.84 1.32,0 3.16,-0.99 5.51,-2.97 0.9,-0.81 1.6,-1.22 2.09,-1.22 0.66,0 0.99,0.35 0.99,1.06 0,1.11 -1.06,2.54 -3.19,4.29 -2.12,1.76 -4.3,2.64 -6.52,2.64 -3.72,0 -5.57,-2.19 -5.57,-6.56 0,-1.58 0.38,-4.03 1.15,-7.35 0.76,-3.3 1.13,-5.28 1.13,-5.94 0,-0.23 -0.19,-0.35 -0.55,-0.35l-2.4 0.21c-1.96,0 -2.95,-0.79 -2.95,-2.35 0,-0.89 0.45,-1.33 1.36,-1.33l4.74 0c0.32,0 0.6,-0.15 0.86,-0.44 0.24,-0.29 0.6,-1.26 1.08,-2.93 0.48,-1.67 0.9,-3.32 1.26,-4.94 0.37,-1.61 1.09,-2.41 2.17,-2.41 0.66,0 1.17,0.23 1.54,0.69 0.37,0.46 0.55,0.89 0.55,1.29 0,0.21 -0.28,1.31 -0.83,3.29l-1.34 4.83zm20.15 -7.6c-0.32,0 -0.57,-0.35 -0.74,-1.04 -0.06,-0.21 -0.14,-0.45 -0.25,-0.72 -0.42,-0.99 -0.62,-1.86 -0.62,-2.6 0,-0.61 0.36,-1.23 1.09,-1.87 0.73,-0.64 1.54,-0.96 2.43,-0.96 0.45,0 0.94,0.17 1.5,0.52 0.55,0.35 0.83,0.67 0.83,1 0,0.51 -0.19,1.37 -0.56,2.59 -0.38,1.21 -0.98,2.03 -1.79,2.45 -0.83,0.42 -1.45,0.63 -1.88,0.63zm-3.02 25.72c0,1.16 0.17,2.47 0.49,3.94 0.06,0.28 0.09,0.5 0.09,0.68 0,0.28 -0.25,0.64 -0.75,1.08 -0.51,0.43 -1.05,0.65 -1.61,0.65 -1.49,0 -2.23,-1.37 -2.23,-4.09 0,-2.83 0.58,-7.29 1.74,-13.4 0.4,-2.14 0.6,-3.45 0.6,-3.94 0,-0.97 0.18,-1.79 0.53,-2.47 0.35,-0.68 0.85,-1.03 1.49,-1.03 0.79,0 1.4,0.19 1.85,0.57 0.46,0.38 0.67,0.79 0.67,1.26 0,0.46 -0.1,1.07 -0.32,1.81 -1.15,4.05 -1.86,6.95 -2.14,8.71 -0.28,1.74 -0.42,3.83 -0.42,6.24zm15.95 6.25c-2.1,0 -3.83,-0.79 -5.2,-2.39 -1.37,-1.6 -2.05,-3.57 -2.05,-5.92 0,-3.96 1.33,-7.87 4,-11.71 2.66,-3.84 5.85,-5.77 9.56,-5.77 2.45,0 4.45,0.94 5.97,2.84 1.52,1.89 2.29,4.13 2.29,6.74 0,3.99 -1.58,7.68 -4.73,11.09 -3.16,3.41 -6.44,5.11 -9.85,5.11zm-3.2 -8.9c0,1.55 0.32,2.81 0.97,3.8 0.65,0.98 1.52,1.48 2.59,1.48 2.29,0 4.58,-1.26 6.88,-3.76 2.3,-2.52 3.45,-5.3 3.45,-8.37 0,-1.89 -0.44,-3.42 -1.32,-4.6 -0.88,-1.17 -2.07,-1.76 -3.56,-1.76 -2.47,0 -4.59,1.52 -6.36,4.55 -1.77,3.03 -2.66,5.92 -2.66,8.67zm38.82 -9.95c-0.8,0 -1.67,0.52 -2.62,1.56 -0.94,1.04 -2.38,3.39 -4.31,7.02 -2.55,4.88 -4.2,7.65 -4.93,8.33 -0.75,0.67 -1.37,1.01 -1.85,1.01 -1.82,0 -2.72,-0.87 -2.72,-2.62 0,-0.73 0.13,-1.78 0.37,-3.13 0.84,-4.64 1.27,-9.52 1.27,-14.66 0,-0.59 0.25,-1.23 0.75,-1.95 0.5,-0.72 0.98,-1.07 1.41,-1.07 0.8,0 1.37,0.24 1.71,0.74 0.34,0.49 0.51,1.48 0.51,2.97 0,1.55 -0.46,4.74 -1.38,9.57 -0.31,1.6 -0.46,2.61 -0.46,3.04 0,0.24 0.06,0.37 0.19,0.37 0.23,0 1.3,-1.84 3.2,-5.5 1.92,-3.73 3.6,-6.36 5.04,-7.87 1.45,-1.52 3.03,-2.28 4.77,-2.28 1.38,0 2.51,0.63 3.37,1.89 0.87,1.26 1.5,3.55 1.9,6.88 0.43,3.79 0.82,6.15 1.16,7.08 0.35,0.93 0.9,1.39 1.64,1.39 0.48,0 1.08,-0.17 1.8,-0.5 0.12,-0.06 0.21,-0.1 0.28,-0.1 0.66,0 0.99,0.39 0.99,1.15 0,0.68 -0.45,1.4 -1.36,2.15 -0.9,0.76 -2,1.14 -3.27,1.14 -1.3,0 -2.31,-0.52 -3.03,-1.55 -0.72,-1.04 -1.28,-3.8 -1.7,-8.31 -0.42,-4.51 -1.33,-6.76 -2.71,-6.76z"/>
  <path class="fil2" d="M99.56 79.54c0,-5.47 4.47,-9.94 9.94,-9.94 5.47,0 9.94,4.47 9.94,9.94 0,5.47 -4.47,9.94 -9.94,9.94 -5.47,0 -9.94,-4.47 -9.94,-9.94z"/>
  <path class="fil0 str1" d="M124.26 46.16c-27.49,4.34 -36.66,21.61 -39.36,31.74 -2.36,8.78 -1.69,23.2 17.94,23.68 6.37,0 24.89,-0.05 40.08,0 18.86,0.05 24.12,-15.05 23.69,-28.03 -0.83,-23.56 -22.03,-30.58 -42.35,-27.4z"/>
 </g>
</svg>
