<?xml version="1.0" encoding="UTF-8"?>
<!DOCTYPE svg PUBLIC "-//W3C//DTD SVG 1.1//EN" "http://www.w3.org/Graphics/SVG/1.1/DTD/svg11.dtd">
<!-- Creator: CorelDRAW 2020 -->
<svg xmlns="http://www.w3.org/2000/svg" xml:space="preserve" width="11mm" height="10.2mm" version="1.1" style="shape-rendering:geometricPrecision; text-rendering:geometricPrecision; image-rendering:optimizeQuality; fill-rule:evenodd; clip-rule:evenodd"
viewBox="0 0 94.84 87.94"
 xmlns:xlink="http://www.w3.org/1999/xlink"
 xmlns:xodm="http://www.corel.com/coreldraw/odm/2003">
 <defs>
  <style type="text/css">
   <![CDATA[
    .str0 {stroke:#ACA77B;stroke-width:6.47;stroke-miterlimit:22.9256}
    .fil0 {fill:none}
    .fil1 {fill:#ACA77B}
    .fil2 {fill:#ACA77B;fill-rule:nonzero}
   ]]>
  </style>
 </defs>
 <g id="Layer_x0020_1">
  <metadata id="CorelCorpID_0Corel-Layer"/>
  <g id="_1232641600">
   <g id="atau-belgi.svg">
    <path class="fil0 str0" d="M46.89 23.82c-14.19,2.24 -18.92,11.15 -20.31,16.38 -1.22,4.53 -0.87,11.97 9.26,12.22 3.29,0 12.85,-0.02 20.69,0 9.73,0.03 12.45,-7.77 12.22,-14.46 -0.43,-12.16 -11.37,-15.78 -21.86,-14.14z"/>
    <path class="fil1" d="M34.14 41.05c0,-2.82 2.31,-5.13 5.13,-5.13 2.82,0 5.13,2.31 5.13,5.13 0,2.82 -2.31,5.13 -5.13,5.13 -2.82,0 -5.13,-2.31 -5.13,-5.13z"/>
   </g>
   <polygon class="fil0" points="-0,0 94.84,0 94.84,87.94 -0,87.94 "/>
   <path class="fil2" d="M12.65 72.32c1.88,-0.33 3.56,-1.54 5.05,-3.64 0.7,-0.97 1.31,-1.66 1.84,-2.07 0.53,-0.41 1.09,-0.61 1.68,-0.61 0.24,0 0.48,0.11 0.71,0.32 0.24,0.22 0.36,0.47 0.36,0.76 0,0.39 -0.36,0.69 -1.1,0.92 -0.39,0.12 -0.75,0.32 -1.09,0.6 -0.34,0.28 -0.99,0.97 -1.93,2.04 -0.75,0.84 -1.41,1.43 -2.01,1.77 -0.06,0.03 -0.09,0.06 -0.09,0.09 0,0.03 0.04,0.06 0.11,0.09 0.58,0.31 1.19,0.91 1.83,1.8 0.93,1.29 1.63,2.1 2.1,2.44 0.47,0.34 1,0.5 1.61,0.5l0.39 -0.01c0.28,-0.02 0.41,0.11 0.41,0.37 0,0.3 -0.17,0.62 -0.51,0.94 -0.34,0.32 -0.9,0.49 -1.69,0.49 -0.6,0 -1.18,-0.26 -1.75,-0.78 -0.57,-0.52 -1.21,-1.36 -1.94,-2.53 -0.42,-0.69 -0.81,-1.21 -1.18,-1.57 -0.36,-0.36 -0.77,-0.54 -1.21,-0.54 -0.09,0 -0.39,0.08 -0.88,0.24 -0.49,0.16 -0.77,0.31 -0.82,0.46 -0.06,0.15 -0.11,0.67 -0.13,1.58 -0.02,0.9 -0.04,1.64 -0.04,2.19 0,0.3 -0.14,0.56 -0.41,0.79 -0.28,0.23 -0.58,0.34 -0.9,0.34 -0.33,0 -0.59,-0.1 -0.78,-0.29 -0.19,-0.19 -0.29,-0.39 -0.29,-0.6 0,-0.28 0.11,-0.96 0.32,-2.02 0.38,-1.93 0.76,-5.12 1.14,-9.57 0.03,-0.43 0.19,-0.81 0.49,-1.16 0.29,-0.34 0.62,-0.52 1,-0.52 0.21,0 0.38,0.11 0.52,0.33 0.14,0.22 0.21,0.51 0.21,0.86 0,0.28 -0.05,0.6 -0.15,0.95 -0.45,1.64 -0.73,3.31 -0.84,5.02zm27.37 4.87c-0.39,1.43 -0.75,3.43 -1.09,6l-0.33 2.24c-0.06,0.32 -0.2,0.63 -0.44,0.94 -0.23,0.31 -0.45,0.47 -0.65,0.47 -0.25,0 -0.52,-0.13 -0.84,-0.37 -0.31,-0.25 -0.47,-0.45 -0.47,-0.6 0,-0.44 0.1,-1.04 0.3,-1.81 1.45,-5.85 2.17,-10.99 2.17,-15.42l-0.01 -1c-0.02,-0.86 0.13,-1.48 0.45,-1.87 0.32,-0.39 0.68,-0.58 1.09,-0.58 0.19,0 0.37,0.15 0.55,0.45 0.17,0.3 0.26,0.72 0.26,1.27 0,0.77 -0.08,1.7 -0.24,2.79 -0.21,1.38 -0.31,2.17 -0.32,2.38 1.18,-2.06 2.43,-3.67 3.75,-4.82 1.32,-1.16 2.55,-1.74 3.69,-1.74 0.8,0 1.47,0.3 2.02,0.9 0.55,0.6 0.83,1.34 0.83,2.23 0,2.58 -0.99,4.93 -2.97,7.03 -1.98,2.11 -3.91,3.16 -5.78,3.16 -0.47,0 -0.84,-0.12 -1.11,-0.35 -0.28,-0.24 -0.56,-0.67 -0.85,-1.3zm7.38 -9.56c-1.12,0 -2.5,1.05 -4.14,3.13 -1.65,2.09 -2.47,3.72 -2.47,4.88 0,0.29 0.16,0.56 0.49,0.83 0.32,0.27 0.73,0.41 1.23,0.41 1.14,0 2.44,-0.84 3.91,-2.51 1.48,-1.68 2.21,-3.32 2.21,-4.94 0,-0.58 -0.12,-1.02 -0.35,-1.34 -0.24,-0.31 -0.53,-0.47 -0.88,-0.47zm21.22 0.53c-0.64,1.03 -1.55,2.77 -2.71,5.23 -0.26,0.55 -0.53,1.09 -0.79,1.6 -0.09,0.17 -0.26,0.54 -0.5,1.11 -0.83,1.93 -1.56,2.9 -2.18,2.9 -0.49,0 -0.85,-0.06 -1.07,-0.18 -0.22,-0.12 -0.44,-0.44 -0.64,-0.97 -0.21,-0.53 -0.51,-1.78 -0.92,-3.74 -0.47,-2.22 -0.78,-3.59 -0.95,-4.11 -0.54,1.21 -1.02,2.38 -1.44,3.5 -0.63,1.65 -1.25,3 -1.84,4.05 -0.59,1.04 -1.02,1.67 -1.28,1.87 -0.26,0.21 -0.51,0.32 -0.75,0.32 -0.24,0 -0.47,-0.09 -0.67,-0.28 -0.2,-0.19 -0.3,-0.38 -0.3,-0.56 0.05,-0.33 0.1,-0.53 0.17,-0.6 0.69,-0.85 1.28,-1.75 1.78,-2.71 0.5,-0.96 1.14,-2.4 1.91,-4.32 0.77,-1.91 1.26,-3.49 1.48,-4.72 0.11,-0.52 0.49,-0.78 1.15,-0.78 0.39,0 0.66,0.06 0.8,0.18 0.14,0.12 0.28,0.36 0.42,0.72 0.14,0.36 0.22,0.69 0.24,0.98 0.05,0.34 0.18,1.09 0.4,2.27 0.2,1.1 0.33,1.88 0.39,2.34 0.11,0.66 0.31,1.52 0.59,2.59 0.28,1.07 0.5,1.61 0.66,1.61 0.11,0 0.27,-0.24 0.47,-0.73l1 -2.31c0.18,-0.42 0.38,-0.83 0.58,-1.23l1.36 -2.79c0.75,-1.54 1.32,-2.65 1.72,-3.34 0.4,-0.69 0.67,-1.11 0.81,-1.25 0.14,-0.15 0.3,-0.21 0.47,-0.21 0.3,0 0.64,0.08 1.01,0.24 0.37,0.16 0.56,0.34 0.58,0.54 0.02,0.2 0.05,1.03 0.11,2.48l0.15 3.71c0.05,1.18 0.12,2.18 0.22,3.01 0.09,0.83 0.26,1.5 0.5,2 0.37,0.81 0.56,1.43 0.56,1.88 0,0.38 -0.15,0.64 -0.47,0.78 -0.32,0.14 -0.6,0.22 -0.88,0.22 -0.55,0 -0.98,-0.45 -1.28,-1.33 -0.3,-0.89 -0.51,-3.43 -0.64,-7.63 -0.05,-1.26 -0.13,-2.03 -0.23,-2.32zm16.29 6.38c0,0.81 -0.71,1.78 -2.14,2.92 -1.43,1.14 -2.91,1.71 -4.43,1.71 -1.27,0 -2.26,-0.37 -2.95,-1.13 -0.69,-0.75 -1.04,-1.8 -1.04,-3.15 0,-2.27 0.76,-4.42 2.29,-6.46 1.53,-2.04 3.2,-3.07 5.02,-3.07 0.59,0 1.08,0.19 1.46,0.58 0.37,0.39 0.56,0.86 0.56,1.4 0,1.22 -0.6,2.39 -1.8,3.51 -1.2,1.12 -2.79,2.21 -4.8,3.29 -0.41,0.21 -0.62,0.49 -0.62,0.83 0,0.66 0.19,1.18 0.57,1.58 0.38,0.4 0.94,0.59 1.69,0.59 1.7,0 3.44,-0.94 5.22,-2.83 0.26,-0.26 0.46,-0.39 0.6,-0.39 0.25,0 0.38,0.2 0.38,0.61zm-8.26 -1.85c3.36,-2 5.04,-3.6 5.04,-4.81 0,-0.47 -0.22,-0.71 -0.64,-0.71 -0.73,0 -1.55,0.53 -2.47,1.61 -0.91,1.07 -1.56,2.38 -1.93,3.92zm-41.43 -0.61c0,2.94 -0.95,4.94 -2.85,5.99 -0.92,0.51 -1.94,0.77 -3.05,0.77 -1.91,0 -3.4,-0.63 -4.45,-1.89 -0.97,-1.17 -1.46,-2.74 -1.46,-4.7 0,-2.33 0.65,-4.06 1.95,-5.18 1.08,-0.93 2.4,-1.4 3.96,-1.4 1.86,0 3.31,0.61 4.38,1.84 1.01,1.16 1.52,2.68 1.52,4.57zm-2.24 -1.03c-0.13,-1.02 -0.47,-1.82 -0.99,-2.4 -0.71,-0.8 -1.6,-1.2 -2.66,-1.2 -1.08,0 -1.97,0.4 -2.68,1.2 -0.53,0.58 -0.86,1.39 -0.99,2.4l7.32 0zm0.05 1.75l-7.42 0c0.07,1.22 0.39,2.21 0.97,2.98 0.66,0.87 1.59,1.31 2.75,1.31 1.16,0 2.08,-0.44 2.74,-1.32 0.57,-0.76 0.89,-1.75 0.96,-2.97z"/>
  </g>
 </g>
</svg>
