<?xml version="1.0" encoding="UTF-8"?>
<!DOCTYPE svg PUBLIC "-//W3C//DTD SVG 1.1//EN" "http://www.w3.org/Graphics/SVG/1.1/DTD/svg11.dtd">
<!-- Creator: CorelDRAW 2020 -->
<svg xmlns="http://www.w3.org/2000/svg" xml:space="preserve" width="11mm" height="10mm" version="1.1" style="shape-rendering:geometricPrecision; text-rendering:geometricPrecision; image-rendering:optimizeQuality; fill-rule:evenodd; clip-rule:evenodd"
viewBox="0 0 75.76 68.87"
 xmlns:xlink="http://www.w3.org/1999/xlink"
 xmlns:xodm="http://www.corel.com/coreldraw/odm/2003">
 <defs>
  <style type="text/css">
   <![CDATA[
    .str0 {stroke:#ACA77B;stroke-width:5.17;stroke-miterlimit:22.9256}
    .fil0 {fill:none}
    .fil1 {fill:#ACA77B}
    .fil2 {fill:#ACA77B;fill-rule:nonzero}
   ]]>
  </style>
 </defs>
 <g id="Layer_x0020_1">
  <metadata id="CorelCorpID_0Corel-Layer"/>
  <g id="_1231433688">
   <g id="atau-belgi.svg">
    <path class="fil0 str0" d="M37.45 18.34c-11.33,1.79 -15.11,8.91 -16.23,13.08 -0.97,3.62 -0.7,9.56 7.4,9.76 2.63,0 10.26,-0.02 16.52,0 7.78,0.02 9.94,-6.2 9.77,-11.55 -0.34,-9.71 -9.08,-12.61 -17.46,-11.29z"/>
    <path class="fil1" d="M27.27 32.1c0,-2.26 1.84,-4.1 4.1,-4.1 2.26,0 4.1,1.84 4.1,4.1 0,2.26 -1.84,4.1 -4.1,4.1 -2.26,0 -4.1,-1.84 -4.1,-4.1z"/>
   </g>
   <polygon class="fil0" points="-0,0 75.76,0 75.76,68.87 -0,68.87 "/>
   <path class="fil2" d="M17.45 56.49l-1.35 0c-0.58,0 -1.24,-0.13 -1.97,-0.4 -0.84,-0.3 -1.58,-0.73 -2.23,-1.26 -0.5,0.62 -1.02,1.06 -1.55,1.3 -0.53,0.24 -1.3,0.36 -2.31,0.36l-2.04 0 0 -2.27 2 0c0.79,0 1.5,-0.2 2.11,-0.6 0.48,-0.32 0.91,-0.75 1.31,-1.32 0.53,-0.77 1.18,-1.43 1.96,-2 0.69,-0.5 1.33,-0.83 1.92,-0.97 0.6,0.91 1.08,1.74 1.43,2.47 0.48,0.99 0.72,1.8 0.72,2.41l0 2.28zm-1.5 -2.58c-0.11,-0.51 -0.29,-1.01 -0.52,-1.5 -0.2,-0.41 -0.47,-0.84 -0.8,-1.27 -0.41,0.11 -0.77,0.3 -1.05,0.59 -0.19,0.18 -0.42,0.49 -0.68,0.93 0.31,0.34 0.75,0.65 1.32,0.92 0.57,0.27 1.1,0.44 1.61,0.5l0.12 -0.17zm12.03 2.58l-1.92 0c-0.57,0 -1.14,-0.13 -1.72,-0.41 -0.69,-0.32 -1.2,-0.77 -1.51,-1.35 -0.58,0.53 -1.25,0.93 -2,1.22 -0.91,0.36 -1.95,0.53 -3.12,0.53l-1.18 0 0 -2.27 1.18 0c0.73,0 1.41,-0.08 2.04,-0.24 0.71,-0.18 1.42,-0.47 2.1,-0.87l-0.55 -0.7c-0.28,-0.33 -0.6,-0.49 -0.94,-0.49 -0.16,0 -0.3,0.03 -0.42,0.08 -0.12,0.06 -0.26,0.18 -0.4,0.37l-0.27 0 0 -0.77c0,-0.96 0.25,-1.62 0.76,-1.98 0.46,-0.33 1.26,-0.49 2.4,-0.49 0.98,0 1.78,0.13 2.4,0.39 0.81,0.34 1.21,0.86 1.21,1.57 0,0.37 -0.16,0.76 -0.48,1.16 -0.23,0.29 -0.66,0.7 -1.28,1.23 0.14,0.21 0.4,0.38 0.8,0.52 0.4,0.14 0.73,0.21 1,0.21l1.92 0 0 2.27zm13.07 -0c0,0.96 -0.41,1.95 -1.23,2.98 -0.71,0.9 -1.6,1.68 -2.66,2.34 -1.01,0.63 -1.84,0.94 -2.49,0.94 -0.6,0 -1.25,-0.09 -1.95,-0.26 -0.53,-0.13 -1.17,-0.34 -1.91,-0.62 -0.62,-0.24 -1.25,-0.47 -1.87,-0.71l0.22 -0.52c0.58,0.12 1.17,0.23 1.8,0.35 0.62,0.12 1.19,0.18 1.69,0.18 1.11,0 2.28,-0.36 3.49,-1.07 1.1,-0.65 2.04,-1.48 2.81,-2.48 0.77,-1 1.16,-1.89 1.16,-2.69 0,-0.69 -0.2,-1.41 -0.6,-2.17 -0.32,-0.61 -0.77,-1.23 -1.35,-1.88l0.73 -2.06c0.71,0.66 1.24,1.32 1.58,1.99 0.38,0.75 0.57,1.59 0.57,2.51l0 3.17zm29.34 0l-15.5 0c-0.26,1.81 -0.89,3.16 -1.88,4.07 -1.23,1.12 -3.12,1.68 -5.65,1.68 -1.74,0 -3.07,-0.3 -4,-0.91 -1.01,-0.67 -1.51,-1.7 -1.51,-3.08 0,-0.75 0.09,-1.51 0.28,-2.27 0.18,-0.77 0.43,-1.54 0.74,-2.31 0.2,-0.47 0.53,-1.19 1,-2.16l0.52 0.24c-0.61,1.25 -1.01,2.24 -1.2,2.96 -0.2,0.72 -0.29,1.38 -0.29,1.98 0,1.08 0.38,1.89 1.15,2.45 0.77,0.56 1.87,0.84 3.3,0.84 1.67,0 3.16,-0.29 4.48,-0.87 1.63,-0.72 2.45,-1.72 2.45,-3.02 0,-0.86 -0.16,-1.69 -0.48,-2.47 -0.25,-0.61 -0.61,-1.21 -1.07,-1.77l1.08 -2.67c0.43,0.71 0.72,1.34 0.87,1.89 0.21,0.77 0.32,1.83 0.32,3.16l0.24 0c1.03,0 2,-0.16 2.89,-0.49 0.77,-0.29 1.57,-0.74 2.41,-1.35 1.29,-0.9 2.06,-1.43 2.31,-1.59 0.71,-0.45 1.35,-0.77 1.92,-0.97 0.64,-0.22 1.35,-0.33 2.12,-0.33 1.19,0 2.08,0.34 2.68,1.03 0.55,0.64 0.82,1.53 0.82,2.67l0 3.3zm-2.11 -3.27c0,-0.42 -0.27,-0.75 -0.8,-0.99 -0.53,-0.24 -1.16,-0.36 -1.88,-0.36 -0.62,0 -1.32,0.14 -2.1,0.41 -0.55,0.2 -1.25,0.52 -2.09,0.95 -0.64,0.33 -1.27,0.66 -1.89,0.99l6.02 0c0.83,0 1.5,-0.08 2,-0.25 0.49,-0.17 0.74,-0.42 0.74,-0.75zm-6.6 -7.57l-1.01 1.89 -2.09 -1.09 0.96 -1.9 2.14 1.1z"/>
  </g>
 </g>
</svg>
