<?xml version="1.0" encoding="UTF-8"?>
<!DOCTYPE svg PUBLIC "-//W3C//DTD SVG 1.1//EN" "http://www.w3.org/Graphics/SVG/1.1/DTD/svg11.dtd">
<!-- Creator: CorelDRAW 2020 -->
<svg xmlns="http://www.w3.org/2000/svg" xml:space="preserve" width="25.9564mm" height="10mm" version="1.1" style="shape-rendering:geometricPrecision; text-rendering:geometricPrecision; image-rendering:optimizeQuality; fill-rule:evenodd; clip-rule:evenodd"
viewBox="0 0 421.82 162.51"
 xmlns:xlink="http://www.w3.org/1999/xlink"
 xmlns:xodm="http://www.corel.com/coreldraw/odm/2003">
 <defs>
  <style type="text/css">
   <![CDATA[
    .str0 {stroke:#6B470F;stroke-width:8.13;stroke-miterlimit:22.9256}
    .fil0 {fill:none}
    .fil2 {fill:#6B470F}
    .fil1 {fill:#6B470F;fill-rule:nonzero}
   ]]>
  </style>
 </defs>
 <g id="Layer_x0020_1">
  <metadata id="CorelCorpID_0Corel-Layer"/>
  <g id="_1067795624">
   <polygon class="fil0" points="-0,0 421.82,0 421.82,162.51 -0,162.51 "/>
   <path class="fil1" d="M23.05 129.8c3.54,-0.61 6.71,-2.9 9.52,-6.86 1.32,-1.83 2.47,-3.13 3.46,-3.91 0.99,-0.76 2.05,-1.15 3.17,-1.15 0.44,0 0.9,0.21 1.34,0.6 0.45,0.41 0.67,0.89 0.67,1.44 0,0.73 -0.69,1.31 -2.08,1.73 -0.73,0.22 -1.42,0.6 -2.06,1.14 -0.64,0.54 -1.86,1.82 -3.65,3.85 -1.41,1.58 -2.67,2.69 -3.78,3.33 -0.11,0.06 -0.16,0.11 -0.16,0.16 0,0.06 0.07,0.12 0.21,0.18 1.09,0.59 2.24,1.71 3.45,3.39 1.76,2.43 3.08,3.97 3.96,4.6 0.89,0.64 1.89,0.95 3.03,0.95l0.74 -0.02c0.52,-0.03 0.78,0.21 0.78,0.7 0,0.57 -0.32,1.16 -0.96,1.77 -0.64,0.61 -1.7,0.92 -3.18,0.92 -1.13,0 -2.23,-0.49 -3.3,-1.47 -1.07,-0.98 -2.28,-2.57 -3.66,-4.76 -0.79,-1.3 -1.53,-2.29 -2.22,-2.95 -0.69,-0.67 -1.45,-1.01 -2.28,-1.01 -0.18,0 -0.73,0.14 -1.66,0.44 -0.92,0.3 -1.44,0.59 -1.55,0.86 -0.11,0.28 -0.2,1.27 -0.25,2.98 -0.05,1.7 -0.08,3.09 -0.08,4.13 0,0.56 -0.26,1.05 -0.78,1.48 -0.53,0.43 -1.09,0.65 -1.7,0.65 -0.63,0 -1.11,-0.18 -1.47,-0.55 -0.36,-0.37 -0.54,-0.74 -0.54,-1.13 0,-0.53 0.21,-1.8 0.6,-3.81 0.72,-3.65 1.44,-9.65 2.16,-18.03 0.05,-0.8 0.36,-1.53 0.92,-2.18 0.55,-0.65 1.18,-0.98 1.88,-0.98 0.39,0 0.71,0.21 0.97,0.63 0.26,0.42 0.4,0.96 0.4,1.61 0,0.53 -0.09,1.12 -0.27,1.8 -0.85,3.09 -1.38,6.25 -1.59,9.47zm42.55 -0.46c0,5.54 -1.79,9.31 -5.37,11.29 -1.74,0.97 -3.66,1.45 -5.74,1.45 -3.61,0 -6.41,-1.18 -8.39,-3.55 -1.83,-2.21 -2.75,-5.16 -2.75,-8.85 0,-4.39 1.22,-7.65 3.67,-9.77 2.04,-1.76 4.53,-2.64 7.47,-2.64 3.5,0 6.24,1.16 8.25,3.46 1.9,2.19 2.86,5.06 2.86,8.61zm-4.22 -1.93c-0.25,-1.92 -0.88,-3.43 -1.87,-4.53 -1.34,-1.5 -3.01,-2.25 -5.02,-2.25 -2.03,0 -3.72,0.75 -5.05,2.25 -0.99,1.1 -1.62,2.61 -1.87,4.53l13.81 0zm0.09 3.3l-13.99 0c0.12,2.29 0.73,4.17 1.82,5.61 1.25,1.64 2.99,2.46 5.19,2.46 2.19,0 3.92,-0.83 5.16,-2.48 1.08,-1.43 1.68,-3.3 1.82,-5.59zm13.18 8.27c-0.73,2.69 -1.41,6.46 -2.06,11.31l-0.63 4.23c-0.11,0.6 -0.38,1.19 -0.83,1.78 -0.44,0.59 -0.85,0.89 -1.23,0.89 -0.47,0 -0.99,-0.24 -1.58,-0.7 -0.59,-0.47 -0.88,-0.85 -0.88,-1.13 0,-0.83 0.18,-1.96 0.56,-3.41 2.73,-11.03 4.1,-20.72 4.1,-29.06l-0.02 -1.88c-0.03,-1.61 0.25,-2.79 0.85,-3.52 0.6,-0.73 1.28,-1.1 2.06,-1.1 0.36,0 0.7,0.28 1.03,0.84 0.33,0.56 0.49,1.35 0.49,2.39 0,1.44 -0.14,3.2 -0.44,5.26 -0.39,2.6 -0.59,4.1 -0.6,4.48 2.22,-3.88 4.58,-6.91 7.07,-9.09 2.49,-2.18 4.81,-3.27 6.95,-3.27 1.51,0 2.78,0.57 3.81,1.69 1.04,1.13 1.56,2.53 1.56,4.2 0,4.86 -1.87,9.29 -5.6,13.25 -3.73,3.98 -7.37,5.95 -10.9,5.95 -0.89,0 -1.58,-0.22 -2.09,-0.66 -0.52,-0.45 -1.05,-1.27 -1.61,-2.45zm13.9 -18.02c-2.1,0 -4.71,1.97 -7.81,5.91 -3.1,3.95 -4.66,7.01 -4.66,9.2 0,0.54 0.31,1.06 0.92,1.57 0.61,0.51 1.38,0.76 2.32,0.76 2.14,0 4.59,-1.58 7.37,-4.74 2.78,-3.16 4.17,-6.25 4.17,-9.3 0,-1.09 -0.22,-1.93 -0.66,-2.52 -0.44,-0.59 -0.99,-0.88 -1.65,-0.88zm40 1.01c-1.21,1.93 -2.91,5.22 -5.11,9.85 -0.49,1.04 -0.99,2.05 -1.5,3.02 -0.17,0.31 -0.48,1.01 -0.94,2.09 -1.57,3.64 -2.93,5.46 -4.11,5.46 -0.92,0 -1.6,-0.11 -2.02,-0.34 -0.42,-0.22 -0.83,-0.83 -1.22,-1.83 -0.39,-1 -0.96,-3.35 -1.73,-7.05 -0.88,-4.19 -1.48,-6.77 -1.79,-7.74 -1.02,2.28 -1.92,4.49 -2.71,6.6 -1.19,3.12 -2.35,5.66 -3.47,7.63 -1.12,1.96 -1.93,3.14 -2.41,3.53 -0.5,0.4 -0.96,0.6 -1.41,0.6 -0.46,0 -0.88,-0.18 -1.25,-0.53 -0.37,-0.36 -0.56,-0.71 -0.56,-1.05 0.09,-0.61 0.19,-0.99 0.31,-1.14 1.3,-1.6 2.41,-3.3 3.35,-5.11 0.94,-1.81 2.14,-4.52 3.6,-8.13 1.45,-3.61 2.38,-6.57 2.78,-8.89 0.2,-0.99 0.92,-1.48 2.17,-1.48 0.73,0 1.24,0.11 1.51,0.34 0.27,0.22 0.53,0.68 0.79,1.36 0.26,0.69 0.41,1.3 0.46,1.84 0.09,0.64 0.34,2.06 0.76,4.27 0.37,2.08 0.63,3.55 0.74,4.41 0.21,1.25 0.58,2.87 1.11,4.89 0.53,2.02 0.95,3.03 1.25,3.03 0.21,0 0.5,-0.46 0.89,-1.37l1.88 -4.35c0.34,-0.79 0.71,-1.57 1.1,-2.32l2.57 -5.27c1.41,-2.9 2.48,-4.99 3.24,-6.3 0.75,-1.31 1.26,-2.09 1.52,-2.36 0.26,-0.27 0.56,-0.4 0.89,-0.4 0.57,0 1.2,0.15 1.9,0.46 0.7,0.31 1.06,0.64 1.09,1.02 0.03,0.38 0.1,1.93 0.21,4.68l0.29 6.99c0.09,2.22 0.22,4.11 0.41,5.67 0.18,1.56 0.49,2.82 0.94,3.78 0.7,1.52 1.05,2.7 1.05,3.54 0,0.71 -0.29,1.21 -0.88,1.48 -0.6,0.27 -1.14,0.41 -1.65,0.41 -1.04,0 -1.84,-0.84 -2.41,-2.51 -0.56,-1.67 -0.96,-6.47 -1.22,-14.38 -0.09,-2.38 -0.24,-3.83 -0.43,-4.37zm30.7 12.02c0,1.52 -1.35,3.36 -4.04,5.51 -2.7,2.15 -5.48,3.22 -8.35,3.22 -2.4,0 -4.26,-0.7 -5.57,-2.13 -1.31,-1.41 -1.96,-3.39 -1.96,-5.93 0,-4.27 1.44,-8.33 4.32,-12.18 2.88,-3.85 6.04,-5.78 9.45,-5.78 1.12,0 2.03,0.37 2.74,1.1 0.7,0.73 1.06,1.61 1.06,2.64 0,2.3 -1.13,4.5 -3.39,6.61 -2.26,2.1 -5.27,4.17 -9.04,6.2 -0.78,0.4 -1.16,0.92 -1.16,1.57 0,1.24 0.35,2.23 1.07,2.98 0.72,0.75 1.78,1.11 3.18,1.11 3.21,0 6.49,-1.77 9.83,-5.33 0.5,-0.49 0.87,-0.74 1.12,-0.74 0.47,0 0.71,0.38 0.71,1.15zm-15.56 -3.49c6.34,-3.76 9.5,-6.79 9.5,-9.07 0,-0.89 -0.41,-1.34 -1.22,-1.34 -1.37,0 -2.92,1.01 -4.65,3.03 -1.72,2.02 -2.93,4.48 -3.64,7.39zm83.08 2.93c-2.09,2.8 -4.16,4.91 -6.2,6.31 -2.05,1.4 -3.92,2.1 -5.63,2.1 -1.15,0 -2.14,-0.48 -2.97,-1.45 -0.84,-0.97 -1.25,-2.22 -1.25,-3.75 0,-3.92 1.75,-8.15 5.26,-12.68 3.51,-4.53 6.99,-6.8 10.46,-6.8 1.25,0 2.19,0.71 2.8,2.15 0.19,0.47 0.5,0.72 0.92,0.72 1.19,0 1.79,0.46 1.79,1.38 0,0.47 -0.08,1.1 -0.22,1.9 -0.81,4.4 -1.21,7.51 -1.21,9.32 0,3.62 0.68,5.78 2.06,6.5 0.66,0.36 0.98,0.79 0.98,1.31 0,0.46 -0.32,0.93 -0.96,1.41 -0.64,0.47 -1.26,0.7 -1.86,0.7 -1.16,0 -2.1,-0.79 -2.84,-2.38 -0.75,-1.58 -1.12,-3.84 -1.12,-6.76zm-1.36 -12.61c-1.97,0 -4.26,1.85 -6.88,5.54 -2.61,3.7 -3.92,6.77 -3.92,9.2 0,1.71 0.57,2.58 1.7,2.58 1.64,0 3.92,-1.66 6.83,-4.98 2.91,-3.31 4.37,-6.36 4.37,-9.13 0,-2.13 -0.7,-3.2 -2.1,-3.2zm30.23 -5.31c-0.53,-2.33 -1.2,-3.96 -2,-4.88 -0.79,-0.92 -1.83,-1.64 -3.13,-2.15 -1.3,-0.5 -2.47,-0.76 -3.52,-0.76 -0.4,0 -0.99,0.15 -1.78,0.46 -0.78,0.31 -1.38,0.59 -1.8,0.84 -0.59,0.34 -1.12,0.52 -1.61,0.52 -0.57,0 -0.86,-0.3 -0.86,-0.9 0,-0.64 0.49,-1.53 1.46,-2.66 0.97,-1.14 2.67,-1.7 5.13,-1.7l0.96 0c2.43,0 4.58,0.64 6.44,1.92 1.87,1.28 3.19,3.1 3.98,5.47 0.79,2.37 1.18,5.56 1.18,9.56 0,2.71 -0.86,6.01 -2.58,9.88 -1.71,3.87 -3.9,6.8 -6.55,8.78 -2.65,1.99 -5.47,2.98 -8.45,2.98 -1.07,0 -2.08,-0.62 -3.02,-1.86 -0.94,-1.24 -1.41,-2.78 -1.41,-4.62 0,-3.39 0.74,-6.38 2.23,-8.97 1.48,-2.59 3.15,-4.69 4.99,-6.31 1.84,-1.61 4.39,-2.91 7.65,-3.9 1.07,-0.31 1.8,-0.56 2.19,-0.73 0.39,-0.18 0.55,-0.5 0.49,-0.96zm0.6 4.56c-3.45,0.7 -6.09,1.82 -7.93,3.34 -4.15,3.88 -6.22,8.23 -6.22,13.06 0,0.64 0.11,1.25 0.34,1.8 0.22,0.56 0.47,0.84 0.76,0.84 1.11,0 2.12,-0.2 3.03,-0.58 0.91,-0.39 2.02,-1.2 3.33,-2.43 1.31,-1.23 2.51,-2.76 3.58,-4.58 1.06,-1.83 1.84,-3.58 2.32,-5.27 0.49,-1.69 0.74,-2.98 0.77,-3.88 0.03,-0.9 0.04,-1.67 0.02,-2.3zm21.63 13.35c-2.09,2.8 -4.16,4.91 -6.2,6.31 -2.05,1.4 -3.92,2.1 -5.63,2.1 -1.15,0 -2.14,-0.48 -2.97,-1.45 -0.84,-0.97 -1.25,-2.22 -1.25,-3.75 0,-3.92 1.75,-8.15 5.26,-12.68 3.51,-4.53 6.99,-6.8 10.46,-6.8 1.25,0 2.19,0.71 2.8,2.15 0.19,0.47 0.5,0.72 0.92,0.72 1.19,0 1.79,0.46 1.79,1.38 0,0.47 -0.08,1.1 -0.22,1.9 -0.81,4.4 -1.21,7.51 -1.21,9.32 0,3.62 0.68,5.78 2.06,6.5 0.66,0.36 0.98,0.79 0.98,1.31 0,0.46 -0.32,0.93 -0.96,1.41 -0.64,0.47 -1.26,0.7 -1.86,0.7 -1.16,0 -2.1,-0.79 -2.84,-2.38 -0.75,-1.58 -1.12,-3.84 -1.12,-6.76zm-1.36 -12.61c-1.97,0 -4.26,1.85 -6.88,5.54 -2.61,3.7 -3.92,6.77 -3.92,9.2 0,1.71 0.57,2.58 1.7,2.58 1.64,0 3.92,-1.66 6.83,-4.98 2.91,-3.31 4.37,-6.36 4.37,-9.13 0,-2.13 -0.7,-3.2 -2.1,-3.2zm41.76 1.15c-1.21,1.93 -2.91,5.22 -5.11,9.85 -0.49,1.04 -0.99,2.05 -1.5,3.02 -0.17,0.31 -0.48,1.01 -0.94,2.09 -1.57,3.64 -2.93,5.46 -4.11,5.46 -0.92,0 -1.6,-0.11 -2.02,-0.34 -0.42,-0.22 -0.83,-0.83 -1.22,-1.83 -0.39,-1 -0.96,-3.35 -1.73,-7.05 -0.88,-4.19 -1.48,-6.77 -1.79,-7.74 -1.02,2.28 -1.92,4.49 -2.71,6.6 -1.19,3.12 -2.35,5.66 -3.47,7.63 -1.12,1.96 -1.93,3.14 -2.41,3.53 -0.5,0.4 -0.96,0.6 -1.41,0.6 -0.46,0 -0.88,-0.18 -1.25,-0.53 -0.37,-0.36 -0.56,-0.71 -0.56,-1.05 0.09,-0.61 0.19,-0.99 0.31,-1.14 1.3,-1.6 2.41,-3.3 3.35,-5.11 0.94,-1.81 2.14,-4.52 3.6,-8.13 1.45,-3.61 2.38,-6.57 2.78,-8.89 0.2,-0.99 0.92,-1.48 2.17,-1.48 0.73,0 1.24,0.11 1.51,0.34 0.27,0.22 0.53,0.68 0.79,1.36 0.26,0.69 0.41,1.3 0.46,1.84 0.09,0.64 0.34,2.06 0.76,4.27 0.37,2.08 0.63,3.55 0.74,4.41 0.21,1.25 0.58,2.87 1.11,4.89 0.53,2.02 0.95,3.03 1.25,3.03 0.21,0 0.5,-0.46 0.89,-1.37l1.88 -4.35c0.34,-0.79 0.71,-1.57 1.1,-2.32l2.57 -5.27c1.41,-2.9 2.48,-4.99 3.24,-6.3 0.75,-1.31 1.26,-2.09 1.52,-2.36 0.26,-0.27 0.56,-0.4 0.89,-0.4 0.57,0 1.2,0.15 1.9,0.46 0.7,0.31 1.06,0.64 1.09,1.02 0.03,0.38 0.1,1.93 0.21,4.68l0.29 6.99c0.09,2.22 0.22,4.11 0.41,5.67 0.18,1.56 0.49,2.82 0.94,3.78 0.7,1.52 1.05,2.7 1.05,3.54 0,0.71 -0.29,1.21 -0.88,1.48 -0.6,0.27 -1.14,0.41 -1.65,0.41 -1.04,0 -1.84,-0.84 -2.41,-2.51 -0.56,-1.67 -0.96,-6.47 -1.22,-14.38 -0.09,-2.38 -0.24,-3.83 -0.43,-4.37zm28.57 -6.45c-0.53,-2.33 -1.2,-3.96 -2,-4.88 -0.79,-0.92 -1.83,-1.64 -3.13,-2.15 -1.3,-0.5 -2.47,-0.76 -3.52,-0.76 -0.4,0 -0.99,0.15 -1.78,0.46 -0.78,0.31 -1.38,0.59 -1.8,0.84 -0.59,0.34 -1.12,0.52 -1.61,0.52 -0.57,0 -0.86,-0.3 -0.86,-0.9 0,-0.64 0.49,-1.53 1.46,-2.66 0.97,-1.14 2.67,-1.7 5.13,-1.7l0.96 0c2.43,0 4.58,0.64 6.44,1.92 1.87,1.28 3.19,3.1 3.98,5.47 0.79,2.37 1.18,5.56 1.18,9.56 0,2.71 -0.86,6.01 -2.58,9.88 -1.71,3.87 -3.9,6.8 -6.55,8.78 -2.65,1.99 -5.47,2.98 -8.45,2.98 -1.07,0 -2.08,-0.62 -3.02,-1.86 -0.94,-1.24 -1.41,-2.78 -1.41,-4.62 0,-3.39 0.74,-6.38 2.23,-8.97 1.48,-2.59 3.15,-4.69 4.99,-6.31 1.84,-1.61 4.39,-2.91 7.65,-3.9 1.07,-0.31 1.8,-0.56 2.19,-0.73 0.39,-0.18 0.55,-0.5 0.49,-0.96zm0.6 4.56c-3.45,0.7 -6.09,1.82 -7.93,3.34 -4.15,3.88 -6.22,8.23 -6.22,13.06 0,0.64 0.11,1.25 0.34,1.8 0.22,0.56 0.47,0.84 0.76,0.84 1.11,0 2.12,-0.2 3.03,-0.58 0.91,-0.39 2.02,-1.2 3.33,-2.43 1.31,-1.23 2.51,-2.76 3.58,-4.58 1.06,-1.83 1.84,-3.58 2.32,-5.27 0.49,-1.69 0.74,-2.98 0.77,-3.88 0.03,-0.9 0.04,-1.67 0.02,-2.3zm21.63 13.35c-2.09,2.8 -4.16,4.91 -6.2,6.31 -2.05,1.4 -3.92,2.1 -5.63,2.1 -1.15,0 -2.14,-0.48 -2.97,-1.45 -0.84,-0.97 -1.25,-2.22 -1.25,-3.75 0,-3.92 1.75,-8.15 5.26,-12.68 3.51,-4.53 6.99,-6.8 10.46,-6.8 1.25,0 2.19,0.71 2.8,2.15 0.19,0.47 0.5,0.72 0.92,0.72 1.19,0 1.79,0.46 1.79,1.38 0,0.47 -0.08,1.1 -0.22,1.9 -0.81,4.4 -1.21,7.51 -1.21,9.32 0,3.62 0.68,5.78 2.06,6.5 0.66,0.36 0.98,0.79 0.98,1.31 0,0.46 -0.32,0.93 -0.96,1.41 -0.64,0.47 -1.26,0.7 -1.86,0.7 -1.16,0 -2.1,-0.79 -2.84,-2.38 -0.75,-1.58 -1.12,-3.84 -1.12,-6.76zm-1.36 -12.61c-1.97,0 -4.26,1.85 -6.88,5.54 -2.61,3.7 -3.92,6.77 -3.92,9.2 0,1.71 0.57,2.58 1.7,2.58 1.64,0 3.92,-1.66 6.83,-4.98 2.91,-3.31 4.37,-6.36 4.37,-9.13 0,-2.13 -0.7,-3.2 -2.1,-3.2zm17.51 18.16c-0.73,2.69 -1.41,6.46 -2.06,11.31l-0.63 4.23c-0.11,0.6 -0.38,1.19 -0.83,1.78 -0.44,0.59 -0.85,0.89 -1.23,0.89 -0.47,0 -0.99,-0.24 -1.58,-0.7 -0.59,-0.47 -0.88,-0.85 -0.88,-1.13 0,-0.83 0.18,-1.96 0.56,-3.41 2.73,-11.03 4.1,-20.72 4.1,-29.06l-0.02 -1.88c-0.03,-1.61 0.25,-2.79 0.85,-3.52 0.6,-0.73 1.28,-1.1 2.06,-1.1 0.36,0 0.7,0.28 1.03,0.84 0.33,0.56 0.49,1.35 0.49,2.39 0,1.44 -0.14,3.2 -0.44,5.26 -0.39,2.6 -0.59,4.1 -0.6,4.48 2.22,-3.88 4.58,-6.91 7.07,-9.09 2.49,-2.18 4.81,-3.27 6.95,-3.27 1.51,0 2.78,0.57 3.81,1.69 1.04,1.13 1.56,2.53 1.56,4.2 0,4.86 -1.87,9.29 -5.6,13.25 -3.73,3.98 -7.37,5.95 -10.9,5.95 -0.89,0 -1.58,-0.22 -2.09,-0.66 -0.52,-0.45 -1.05,-1.27 -1.61,-2.45zm13.9 -18.02c-2.1,0 -4.71,1.97 -7.81,5.91 -3.1,3.95 -4.66,7.01 -4.66,9.2 0,0.54 0.31,1.06 0.92,1.57 0.61,0.51 1.38,0.76 2.32,0.76 2.14,0 4.59,-1.58 7.37,-4.74 2.78,-3.16 4.17,-6.25 4.17,-9.3 0,-1.09 -0.22,-1.93 -0.66,-2.52 -0.44,-0.59 -0.99,-0.88 -1.65,-0.88zm-223.72 6.05l1.64 0c2.77,0 4.84,-0.1 6.2,-0.29 0.66,-0.09 1.31,-0.14 1.97,-0.14 0.28,0 0.86,0.18 1.73,0.51 0.87,0.34 1.39,0.63 1.56,0.86 0.16,0.24 0.25,0.54 0.25,0.93 0,0.55 -0.12,0.94 -0.34,1.16 -0.22,0.22 -0.71,0.34 -1.46,0.34 -0.33,0 -0.79,-0.1 -1.38,-0.29 -0.6,-0.19 -1.1,-0.29 -1.51,-0.29 -0.16,0 -0.7,0.04 -1.63,0.11 -0.5,0.04 -1.39,0.01 -2.69,-0.11 -1,-0.09 -1.74,-0.14 -2.24,-0.14 -0.69,0 -1.73,0.05 -3.11,0.14 -1.39,0.09 -2.44,0.14 -3.16,0.14 -0.72,0 -1.3,-0.08 -1.73,-0.24 -0.44,-0.16 -0.67,-0.51 -0.67,-1.06 0,-0.25 0.1,-0.52 0.31,-0.84 0.2,-0.32 0.89,-0.57 2.05,-0.76 1.16,-0.18 2,-0.28 2.51,-0.28l1.7 0.25z"/>
   <g id="atau-belgi.svg">
    <path class="fil0 str0" d="M85.61 47.08c-24.03,3.79 -32.04,18.88 -34.4,27.73 -2.07,7.67 -1.48,20.27 15.68,20.7 5.56,0 21.75,-0.04 35.03,0 16.48,0.04 21.08,-13.15 20.7,-24.49 -0.72,-20.59 -19.25,-26.72 -37.01,-23.94z"/>
    <path class="fil2" d="M64.02 76.25c0,-4.78 3.9,-8.69 8.69,-8.69 4.78,0 8.69,3.91 8.69,8.69 0,4.78 -3.91,8.69 -8.69,8.69 -4.78,0 -8.69,-3.91 -8.69,-8.69z"/>
   </g>
  </g>
 </g>
</svg>
