<?xml version="1.0" encoding="UTF-8"?>
<!DOCTYPE svg PUBLIC "-//W3C//DTD SVG 1.1//EN" "http://www.w3.org/Graphics/SVG/1.1/DTD/svg11.dtd">
<!-- Creator: CorelDRAW 2020 -->
<svg xmlns="http://www.w3.org/2000/svg" xml:space="preserve" width="15mm" height="10.1mm" version="1.1" style="shape-rendering:geometricPrecision; text-rendering:geometricPrecision; image-rendering:optimizeQuality; fill-rule:evenodd; clip-rule:evenodd"
viewBox="0 0 137.43 92.54"
 xmlns:xlink="http://www.w3.org/1999/xlink"
 xmlns:xodm="http://www.corel.com/coreldraw/odm/2003">
 <defs>
  <style type="text/css">
   <![CDATA[
    .str1 {stroke:#C6B93A;stroke-width:4.58;stroke-miterlimit:22.9256}
    .str0 {stroke:#C6B93A;stroke-width:1.83;stroke-miterlimit:22.9256}
    .fil0 {fill:none}
    .fil2 {fill:#C6B93A}
    .fil1 {fill:#C6B93A;fill-rule:nonzero}
   ]]>
  </style>
 </defs>
 <g id="Layer_x0020_1">
  <metadata id="CorelCorpID_0Corel-Layer"/>
  <polygon class="fil0" points="-0,0 137.43,0 137.43,91.62 -0,91.62 "/>
  <line class="fil0 str0" x1="6.87" y1="91.62" x2="130.56" y2= "91.62" />
  <path class="fil1" d="M18.24 77.15c0,0.86 -0.76,1.89 -2.28,3.11 -1.52,1.21 -3.09,1.81 -4.71,1.81 -1.35,0 -2.4,-0.4 -3.14,-1.2 -0.74,-0.8 -1.1,-1.91 -1.1,-3.34 0,-2.41 0.81,-4.7 2.44,-6.87 1.62,-2.17 3.4,-3.26 5.33,-3.26 0.63,0 1.15,0.21 1.55,0.62 0.4,0.41 0.6,0.91 0.6,1.49 0,1.3 -0.64,2.54 -1.91,3.73 -1.27,1.19 -2.97,2.35 -5.1,3.5 -0.44,0.23 -0.66,0.52 -0.66,0.88 0,0.7 0.2,1.26 0.6,1.68 0.4,0.42 1,0.63 1.79,0.63 1.81,0 3.66,-1 5.54,-3 0.28,-0.28 0.49,-0.42 0.63,-0.42 0.27,0 0.4,0.22 0.4,0.65zm-8.77 -1.97c3.57,-2.12 5.36,-3.83 5.36,-5.12 0,-0.5 -0.23,-0.76 -0.69,-0.76 -0.77,0 -1.65,0.57 -2.62,1.71 -0.97,1.14 -1.65,2.53 -2.05,4.17zm15.75 1.55c-1.92,1.65 -3.18,3.31 -3.8,4.99 -0.24,0.56 -0.48,0.97 -0.72,1.25 -1,-0.06 -1.5,-0.53 -1.5,-1.4 0,-1.29 1.43,-3.24 4.31,-5.86l0.61 -0.57c-1.68,-2.52 -2.51,-4.45 -2.51,-5.8 0,-1.19 0.5,-1.79 1.51,-1.79 0.29,0 0.5,0.13 0.62,0.37 0.13,0.25 0.23,0.8 0.31,1.67 0.11,1.34 0.69,2.76 1.73,4.25 2.33,-2 3.91,-3.8 4.72,-5.38 0.28,-0.5 0.49,-0.82 0.64,-0.96 0.15,-0.14 0.36,-0.2 0.61,-0.2 0.3,0 0.59,0.12 0.85,0.35 0.26,0.23 0.4,0.53 0.4,0.9 0,0.84 -2.04,3.15 -6.14,6.92 1.41,1.8 2.9,3.15 4.49,4.06 0.19,0.11 0.38,0.22 0.56,0.34 0.03,0.07 0.05,0.19 0.05,0.35 0,0.36 -0.13,0.69 -0.4,0.97 -0.27,0.29 -0.59,0.43 -0.96,0.43 -1.13,0 -2.93,-1.63 -5.39,-4.89zm11.65 0.91c3.13,-5.78 5.71,-8.67 7.74,-8.67 0.54,0 0.98,0.31 1.31,0.92 0.34,0.62 0.61,1.98 0.82,4.09 0.21,2.25 0.69,3.87 1.43,4.87 0.38,0.51 0.57,0.89 0.57,1.14 0,0.22 -0.12,0.42 -0.38,0.61 -0.25,0.19 -0.52,0.28 -0.81,0.28 -0.66,0 -1.24,-0.37 -1.75,-1.1 -0.5,-0.74 -0.83,-2.03 -0.97,-3.88 -0.14,-1.75 -0.3,-2.9 -0.46,-3.43 -0.16,-0.54 -0.42,-0.81 -0.79,-0.81 -0.88,0 -2.66,2.31 -5.34,6.93 -0.8,1.38 -1.39,2.28 -1.77,2.71 -0.38,0.43 -0.72,0.64 -1.03,0.64 -0.37,0 -0.68,-0.11 -0.93,-0.33 -0.25,-0.22 -0.38,-0.49 -0.38,-0.81 0,-0.24 0.07,-0.69 0.2,-1.37 1.04,-5.34 1.85,-10.63 2.45,-15.86 0.13,-1.22 0.35,-2.03 0.65,-2.44 0.3,-0.4 0.55,-0.61 0.75,-0.61 0.36,0 0.69,0.15 0.98,0.44 0.3,0.29 0.44,0.7 0.44,1.22 0,1.55 -0.38,3.68 -1.14,6.38 -0.37,1.34 -0.76,3.04 -1.17,5.1 -0.41,2.06 -0.62,3.34 -0.62,3.83 0,0.1 0.05,0.15 0.14,0.15l0.05 0zm18.18 -13.12c-0.18,0 -0.31,-0.19 -0.4,-0.57 -0.03,-0.12 -0.08,-0.25 -0.14,-0.39 -0.23,-0.54 -0.34,-1.02 -0.34,-1.43 0,-0.34 0.2,-0.68 0.6,-1.03 0.4,-0.35 0.84,-0.53 1.33,-0.53 0.25,0 0.52,0.1 0.82,0.28 0.3,0.19 0.45,0.37 0.45,0.55 0,0.28 -0.1,0.75 -0.31,1.42 -0.21,0.66 -0.54,1.11 -0.98,1.34 -0.45,0.23 -0.79,0.35 -1.03,0.35zm-1.65 14.1c0,0.64 0.09,1.36 0.27,2.16 0.03,0.15 0.05,0.28 0.05,0.37 0,0.16 -0.14,0.35 -0.41,0.59 -0.28,0.24 -0.57,0.36 -0.88,0.36 -0.82,0 -1.22,-0.75 -1.22,-2.24 0,-1.55 0.32,-4 0.96,-7.35 0.22,-1.17 0.33,-1.89 0.33,-2.16 0,-0.53 0.1,-0.98 0.29,-1.36 0.19,-0.38 0.47,-0.57 0.82,-0.57 0.43,0 0.77,0.1 1.02,0.31 0.25,0.21 0.37,0.44 0.37,0.69 0,0.25 -0.06,0.59 -0.18,0.99 -0.63,2.22 -1.02,3.81 -1.17,4.78 -0.15,0.96 -0.23,2.1 -0.23,3.42zm7.37 -4.38c1.08,-1.96 2.37,-3.55 3.86,-4.77 1.5,-1.22 2.85,-1.82 4.06,-1.82 0.66,0 1.23,0.31 1.69,0.92 0.47,0.61 0.69,1.36 0.69,2.24 0,2.62 -0.99,5.07 -2.96,7.37 -1.97,2.29 -4.06,3.44 -6.25,3.44 -0.6,0 -1.15,-0.16 -1.65,-0.49 -0.5,-0.32 -0.78,-0.73 -0.84,-1.22 -0.03,-0.39 -0.15,-0.69 -0.34,-0.88 -0.36,-0.36 -0.54,-0.75 -0.54,-1.16 0,-0.77 0.21,-2.41 0.63,-4.91l1.3 -7.55c0.44,-2.53 0.77,-4.1 0.98,-4.7 0.21,-0.59 0.44,-1 0.69,-1.2 0.25,-0.2 0.56,-0.3 0.93,-0.3 0.59,0 0.88,0.51 0.88,1.53 0,0.97 -0.32,2.32 -0.97,4.07 -0.62,1.67 -1.34,4.82 -2.16,9.43zm-0.31 4.21c0.44,0.81 0.97,1.22 1.59,1.22 0.96,0 1.97,-0.4 3.04,-1.19 1.07,-0.8 1.99,-1.91 2.77,-3.36 0.78,-1.44 1.17,-2.66 1.17,-3.66 0,-0.44 -0.08,-0.83 -0.24,-1.15 -0.16,-0.32 -0.36,-0.48 -0.61,-0.48 -1.17,0 -2.6,0.96 -4.28,2.87 -1.69,1.91 -2.84,3.83 -3.44,5.74zm17.11 -13.93c-0.18,0 -0.31,-0.19 -0.4,-0.57 -0.03,-0.12 -0.08,-0.25 -0.14,-0.39 -0.23,-0.54 -0.34,-1.02 -0.34,-1.43 0,-0.34 0.2,-0.68 0.6,-1.03 0.4,-0.35 0.84,-0.53 1.33,-0.53 0.25,0 0.52,0.1 0.82,0.28 0.3,0.19 0.45,0.37 0.45,0.55 0,0.28 -0.1,0.75 -0.31,1.42 -0.21,0.66 -0.54,1.11 -0.98,1.34 -0.45,0.23 -0.79,0.35 -1.03,0.35zm-1.65 14.1c0,0.64 0.09,1.36 0.27,2.16 0.03,0.15 0.05,0.28 0.05,0.37 0,0.16 -0.14,0.35 -0.41,0.59 -0.28,0.24 -0.57,0.36 -0.88,0.36 -0.82,0 -1.22,-0.75 -1.22,-2.24 0,-1.55 0.32,-4 0.96,-7.35 0.22,-1.17 0.33,-1.89 0.33,-2.16 0,-0.53 0.1,-0.98 0.29,-1.36 0.19,-0.38 0.47,-0.57 0.82,-0.57 0.43,0 0.77,0.1 1.02,0.31 0.25,0.21 0.37,0.44 0.37,0.69 0,0.25 -0.06,0.59 -0.18,0.99 -0.63,2.22 -1.02,3.81 -1.17,4.78 -0.15,0.96 -0.23,2.1 -0.23,3.42zm10.2 -9.94c0.87,-0.07 1.68,-0.15 2.45,-0.24 0.76,-0.08 1.39,-0.13 1.9,-0.13 0.64,0 1.04,0.06 1.21,0.18 0.17,0.12 0.25,0.32 0.25,0.62 0,0.68 -0.48,1.05 -1.43,1.11 -1.22,0.08 -2.34,0.18 -3.37,0.32 -1.03,0.13 -1.58,0.25 -1.66,0.33 -0.08,0.09 -0.33,1.09 -0.76,3 -0.43,1.92 -0.65,3.16 -0.65,3.73 0,0.93 0.12,1.54 0.37,1.85 0.25,0.31 0.61,0.46 1.1,0.46 0.72,0 1.73,-0.54 3.02,-1.63 0.5,-0.44 0.88,-0.67 1.15,-0.67 0.36,0 0.54,0.19 0.54,0.58 0,0.61 -0.58,1.39 -1.75,2.35 -1.16,0.96 -2.36,1.45 -3.58,1.45 -2.04,0 -3.05,-1.2 -3.05,-3.6 0,-0.87 0.21,-2.21 0.63,-4.03 0.41,-1.81 0.62,-2.9 0.62,-3.26 0,-0.13 -0.1,-0.19 -0.3,-0.19l-1.31 0.12c-1.08,0 -1.62,-0.43 -1.62,-1.29 0,-0.49 0.25,-0.73 0.75,-0.73l2.6 0c0.18,0 0.33,-0.08 0.47,-0.24 0.13,-0.16 0.33,-0.69 0.59,-1.61 0.26,-0.91 0.5,-1.82 0.69,-2.71 0.2,-0.88 0.6,-1.32 1.19,-1.32 0.36,0 0.64,0.12 0.84,0.38 0.2,0.25 0.3,0.49 0.3,0.71 0,0.12 -0.15,0.72 -0.45,1.81l-0.73 2.65zm11.05 -4.17c-0.18,0 -0.31,-0.19 -0.4,-0.57 -0.03,-0.12 -0.08,-0.25 -0.14,-0.39 -0.23,-0.54 -0.34,-1.02 -0.34,-1.43 0,-0.34 0.2,-0.68 0.6,-1.03 0.4,-0.35 0.84,-0.53 1.33,-0.53 0.25,0 0.52,0.1 0.82,0.28 0.3,0.19 0.45,0.37 0.45,0.55 0,0.28 -0.1,0.75 -0.31,1.42 -0.21,0.66 -0.54,1.11 -0.98,1.34 -0.45,0.23 -0.79,0.35 -1.03,0.35zm-1.65 14.1c0,0.64 0.09,1.36 0.27,2.16 0.03,0.15 0.05,0.28 0.05,0.37 0,0.16 -0.14,0.35 -0.41,0.59 -0.28,0.24 -0.57,0.36 -0.88,0.36 -0.82,0 -1.22,-0.75 -1.22,-2.24 0,-1.55 0.32,-4 0.96,-7.35 0.22,-1.17 0.33,-1.89 0.33,-2.16 0,-0.53 0.1,-0.98 0.29,-1.36 0.19,-0.38 0.47,-0.57 0.82,-0.57 0.43,0 0.77,0.1 1.02,0.31 0.25,0.21 0.37,0.44 0.37,0.69 0,0.25 -0.06,0.59 -0.18,0.99 -0.63,2.22 -1.02,3.81 -1.17,4.78 -0.15,0.96 -0.23,2.1 -0.23,3.42zm8.75 3.43c-1.15,0 -2.1,-0.44 -2.85,-1.31 -0.75,-0.87 -1.12,-1.96 -1.12,-3.25 0,-2.17 0.73,-4.31 2.19,-6.42 1.46,-2.11 3.21,-3.16 5.24,-3.16 1.34,0 2.44,0.52 3.28,1.56 0.84,1.03 1.26,2.27 1.26,3.7 0,2.19 -0.87,4.21 -2.59,6.08 -1.73,1.87 -3.53,2.8 -5.4,2.8zm-1.75 -4.88c0,0.85 0.18,1.54 0.53,2.08 0.36,0.54 0.83,0.81 1.42,0.81 1.25,0 2.51,-0.69 3.78,-2.06 1.26,-1.38 1.89,-2.91 1.89,-4.59 0,-1.04 -0.24,-1.87 -0.72,-2.52 -0.48,-0.64 -1.13,-0.97 -1.95,-0.97 -1.35,0 -2.52,0.83 -3.49,2.49 -0.97,1.66 -1.46,3.25 -1.46,4.75zm21.29 -5.46c-0.44,0 -0.92,0.28 -1.43,0.86 -0.52,0.57 -1.31,1.86 -2.37,3.85 -1.4,2.68 -2.3,4.2 -2.71,4.57 -0.41,0.37 -0.75,0.56 -1.02,0.56 -1,0 -1.49,-0.48 -1.49,-1.44 0,-0.4 0.07,-0.97 0.2,-1.72 0.46,-2.54 0.69,-5.22 0.69,-8.04 0,-0.32 0.14,-0.68 0.41,-1.07 0.28,-0.39 0.54,-0.59 0.78,-0.59 0.44,0 0.75,0.13 0.94,0.4 0.19,0.27 0.28,0.81 0.28,1.63 0,0.85 -0.25,2.6 -0.76,5.25 -0.17,0.87 -0.25,1.43 -0.25,1.67 0,0.13 0.03,0.2 0.1,0.2 0.12,0 0.71,-1.01 1.75,-3.02 1.05,-2.05 1.97,-3.49 2.76,-4.32 0.79,-0.84 1.66,-1.25 2.62,-1.25 0.76,0 1.37,0.34 1.85,1.03 0.47,0.69 0.82,1.95 1.04,3.77 0.24,2.08 0.45,3.37 0.64,3.88 0.19,0.51 0.49,0.76 0.9,0.76 0.26,0 0.59,-0.09 0.99,-0.28 0.07,-0.03 0.12,-0.05 0.15,-0.05 0.36,0 0.54,0.21 0.54,0.63 0,0.37 -0.25,0.77 -0.74,1.18 -0.5,0.42 -1.09,0.62 -1.79,0.62 -0.72,0 -1.27,-0.28 -1.66,-0.85 -0.39,-0.57 -0.7,-2.09 -0.93,-4.56 -0.23,-2.47 -0.73,-3.71 -1.49,-3.71z"/>
  <g id="atau-belgi.svg">
   <path class="fil0 str1" d="M66.59 28.58c-13.55,2.14 -18.06,10.65 -19.39,15.64 -1.16,4.33 -0.83,11.43 8.84,11.67 3.14,0 12.26,-0.02 19.75,0 9.29,0.02 11.88,-7.41 11.67,-13.81 -0.41,-11.61 -10.85,-15.06 -20.87,-13.5z"/>
   <path class="fil2" d="M54.42 45.02c0,-2.7 2.2,-4.9 4.9,-4.9 2.7,0 4.9,2.2 4.9,4.9 0,2.7 -2.2,4.9 -4.9,4.9 -2.7,0 -4.9,-2.2 -4.9,-4.9z"/>
  </g>
 </g>
</svg>
