<?xml version="1.0" encoding="UTF-8"?>
<!DOCTYPE svg PUBLIC "-//W3C//DTD SVG 1.1//EN" "http://www.w3.org/Graphics/SVG/1.1/DTD/svg11.dtd">
<!-- Creator: CorelDRAW 2020 -->
<svg xmlns="http://www.w3.org/2000/svg" xml:space="preserve" width="37.11mm" height="10mm" version="1.1" style="shape-rendering:geometricPrecision; text-rendering:geometricPrecision; image-rendering:optimizeQuality; fill-rule:evenodd; clip-rule:evenodd"
viewBox="0 0 894.67 241.09"
 xmlns:xlink="http://www.w3.org/1999/xlink"
 xmlns:xodm="http://www.corel.com/coreldraw/odm/2003">
 <defs>
  <style type="text/css">
   <![CDATA[
    .str0 {stroke:#6B470F;stroke-width:12.05;stroke-miterlimit:22.9256}
    .fil0 {fill:none}
    .fil2 {fill:#6B470F}
    .fil1 {fill:#6B470F;fill-rule:nonzero}
   ]]>
  </style>
 </defs>
 <g id="Layer_x0020_1">
  <metadata id="CorelCorpID_0Corel-Layer"/>
  <g id="_550962056">
   <polygon class="fil0" points="-0,0 265.19,0 265.19,241.09 -0,241.09 "/>
   <path class="fil1" d="M231.38 122.36c0.23,1.54 0.18,3.53 -0.15,5.97 -0.74,5.26 -1.12,8.6 -1.12,10.01 0,1.22 -0.65,2.36 -1.95,3.41 -1.31,1.05 -2.76,1.57 -4.33,1.57 -1.94,0 -2.91,-1.58 -2.91,-4.75 0,-0.37 0.13,-2.18 0.37,-5.42l0.68 -8.41c0.13,-1.7 0.38,-7.95 0.78,-18.77 0.41,-10.81 0.6,-16.97 0.6,-18.46 0,-1.77 0.59,-3.15 1.73,-4.17 1.16,-1.01 2.46,-1.51 3.92,-1.51 1.31,0 2.4,0.54 3.24,1.61 0.86,1.07 1.28,2.1 1.28,3.1 0,5.65 -0.42,11.9 -1.26,18.73l0 -0.04c-0.23,2.86 -0.34,5.03 -0.34,6.49 3.04,-2.16 7.02,-5.7 11.93,-10.61 4.81,-4.68 8.39,-7.9 10.75,-9.63 0.28,-0.26 0.64,-0.61 1.08,-1.08 2.05,-2.07 4.02,-3.5 5.91,-4.26l-0.04 0c0.28,-0.15 0.71,-0.23 1.31,-0.23 1.22,0 2.49,0.5 3.81,1.49 1.31,0.99 1.98,1.85 1.98,2.55 0,0.47 -0.26,0.88 -0.75,1.22 -2.12,2.54 -6.07,6.24 -11.88,11.1 -6.06,5.04 -10.79,9.29 -14.2,12.74 4.98,2.12 9.77,3.92 14.38,5.38 0.02,0 0.18,0.07 0.46,0.19 1.52,0.77 2.45,1.21 2.79,1.3 1.1,0.31 2.7,0.93 4.82,1.88 2.69,1.2 5.31,2.16 7.85,2.9 2.55,0.74 3.98,1.1 4.3,1.1 0.2,-0.42 0.83,-0.62 1.88,-0.62 1.34,0 2.55,0.68 3.62,2.03 1.07,1.37 1.61,2.44 1.61,3.24 0,1.36 -0.52,2.52 -1.58,3.49 -1.07,0.96 -2.36,1.43 -3.88,1.43 -1.62,0 -4.48,-0.7 -8.6,-2.1 -4.11,-1.42 -7.53,-2.72 -10.27,-3.9 -4.07,-1.75 -9.08,-3.76 -15.07,-6.03 -5.98,-2.28 -9.43,-3.43 -10.35,-3.43 -0.99,0 -1.8,0.17 -2.4,0.5zm113.21 16.48c-0.5,2.02 -1.12,5.73 -1.86,11.15 -0.75,5.42 -1.2,9.06 -1.35,10.92 -0.14,1.85 -0.79,3.43 -1.91,4.72 -1.14,1.3 -2.16,1.94 -3.05,1.95 -1.12,-0.01 -2.23,-0.43 -3.33,-1.28 -1.1,-0.86 -1.65,-1.77 -1.65,-2.77 0,-2.02 0.32,-4.35 0.93,-6.99 3.74,-14.93 5.78,-30.31 6.14,-46.16l0 -0.75c0,-3.09 0.1,-5.17 0.29,-6.25 0.2,-1.08 0.83,-2.13 1.88,-3.12 1.05,-1 2.27,-1.49 3.7,-1.49 1.19,0 2.17,0.54 2.93,1.61 0.75,1.07 1.14,2.62 1.14,4.63 0,2.04 -0.37,5.63 -1.12,10.73 2.77,-4.6 6.07,-8.43 9.93,-11.46 3.85,-3.02 7.36,-4.54 10.53,-4.54 2.79,0 5.17,0.99 7.12,2.98 1.95,2 2.93,4.5 2.93,7.51 0,8.05 -3.13,15.37 -9.36,21.97 -6.24,6.58 -12.41,9.87 -18.52,9.87 -2.83,0 -4.62,-1.08 -5.34,-3.24zm21.71 -30.62c-3.04,0 -6.98,2.97 -11.83,8.89 -4.85,5.93 -7.27,10.59 -7.27,13.98 0,0.87 0.43,1.66 1.29,2.33 0.87,0.69 1.88,1.03 3.01,1.03 3.16,0 6.8,-2.49 10.89,-7.46 4.11,-4.96 6.15,-9.77 6.15,-14.4 0,-1.55 -0.23,-2.67 -0.7,-3.34 -0.47,-0.69 -1,-1.03 -1.55,-1.03zm17.31 30.39c2.19,-2.19 4.75,-6.71 7.65,-13.57 0.41,-0.92 0.86,-1.88 1.35,-2.87 0.47,-0.99 0.88,-1.98 1.22,-2.96 0.2,-0.5 0.43,-1.01 0.68,-1.53 0.9,-1.94 1.8,-4.44 2.69,-7.51 0.89,-3.06 1.45,-5.23 1.69,-6.49 0.37,-2.14 1.99,-3.21 4.86,-3.21 1.84,0 2.98,0.32 3.42,0.97 0.43,0.65 0.91,1.43 1.4,2.35 0.5,0.93 1.08,3.34 1.77,7.23 0.69,3.9 1.22,7.21 1.62,9.93 0.5,3.24 1.35,6.62 2.55,10.13 3.06,-7.07 5.79,-13.08 8.2,-17.99 2.4,-4.92 4.34,-8.59 5.79,-10.97 1.45,-2.4 2.5,-3.88 3.14,-4.43 0.64,-0.56 1.28,-0.84 1.93,-0.84 1.19,0 2.49,0.34 3.88,1.05 1.4,0.69 2.21,1.39 2.44,2.09 0.24,3.36 0.52,9.66 0.82,18.91 0.13,3.32 0.34,6.26 0.64,8.86 0.31,2.6 0.84,4.74 1.61,6.47 1.07,2.14 1.61,3.98 1.61,5.5 0,1.22 -0.48,2.23 -1.45,3.02 -0.97,0.81 -2.36,1.2 -4.15,1.2 -2.62,0 -4.35,-1.79 -5.18,-5.35 -0.84,-3.56 -1.25,-9.87 -1.25,-18.94 0,-1.35 0.11,-3.92 0.37,-7.71l0.12 -2.38c-3.45,6.59 -6.34,12.51 -8.71,17.74 -3.24,7.16 -5.46,11.49 -6.65,13.01 -1.2,1.52 -2.51,2.28 -3.93,2.28l-0.6 0c-1.81,0 -3.2,-0.47 -4.15,-1.39 -0.94,-0.92 -1.98,-3.66 -3.1,-8.2 -1.12,-4.54 -1.95,-8.96 -2.5,-13.22 -0.26,-1.74 -0.48,-2.9 -0.68,-3.47 -1,3.58 -1.63,5.72 -1.91,6.39 -0.05,0.1 -0.13,0.33 -0.26,0.72 -0.75,2.28 -1.9,5.19 -3.46,8.72 -1.55,3.52 -3,6.29 -4.31,8.29 -1.33,2 -2.34,3.24 -3.04,3.7 -0.69,0.46 -1.52,0.69 -2.46,0.69 -1.02,0 -2.03,-0.38 -3.02,-1.17 -1.01,-0.78 -1.51,-1.67 -1.51,-2.67 0,-0.9 0.27,-1.66 0.79,-2.28l0.08 -0.08zm101.65 -10.21c0,2.59 -2.18,5.69 -6.54,9.29 -4.35,3.6 -9.27,5.41 -14.76,5.41 -4.21,0 -7.53,-1.33 -9.94,-3.98 -2.42,-2.65 -3.62,-6.35 -3.62,-11.09 0,-6.98 2.46,-13.52 7.4,-19.62 4.94,-6.11 10.21,-9.16 15.81,-9.16 2.79,0 5.04,0.88 6.72,2.65 1.7,1.77 2.55,3.88 2.55,6.32 0,4.34 -2.08,8.47 -6.25,12.39 -4.16,3.93 -9.49,6.63 -16,8.14 -0.74,0.17 -1.11,0.61 -1.11,1.34 0,1.2 0.52,2.34 1.58,3.42 1.06,1.08 2.47,1.63 4.25,1.63 5,0 9.98,-2.59 14.91,-7.74 0.95,-1 1.86,-1.49 2.76,-1.49 1.5,0 2.24,0.83 2.24,2.5zm-25.08 -6.61c3.94,-0.8 7.41,-2.49 10.41,-5.05 3.01,-2.56 4.5,-4.9 4.5,-6.99 0,-0.82 -0.23,-1.51 -0.69,-2.07 -0.46,-0.56 -1.05,-0.84 -1.77,-0.84 -2.17,0 -4.57,1.6 -7.22,4.78 -2.64,3.19 -4.38,6.57 -5.23,10.17zm136.19 7.02c-6.49,8.6 -12.76,12.9 -18.75,12.9 -2.24,0 -4.19,-0.88 -5.79,-2.65 -1.62,-1.77 -2.44,-4.02 -2.44,-6.76 0,-6.61 2.95,-13.64 8.83,-21.1 5.87,-7.46 11.8,-11.19 17.78,-11.19 3.04,0 5.04,1.53 5.98,4.59 2.86,0 4.3,1.1 4.3,3.29 0,1.05 -0.28,2.93 -0.83,5.68 -0.99,5.13 -1.49,9.24 -1.49,12.3 0,3.19 0.22,5.43 0.65,6.72 0.45,1.3 0.75,2.14 0.96,2.55 0.2,0.4 0.8,0.82 1.8,1.26 1,0.47 1.49,1.14 1.49,1.98 0,1.28 -0.64,2.33 -1.93,3.18 -1.29,0.85 -2.63,1.28 -4.02,1.28 -2.35,0 -4.03,-1.17 -5.06,-3.51 -1.03,-2.35 -1.55,-5.09 -1.55,-8.23l0 -1.12c0,-0.37 0.01,-0.75 0.07,-1.16zm-2.02 -20.81c-2.51,0 -5.79,2.78 -9.81,8.34 -4.02,5.58 -6.03,10.3 -6.03,14.19 0,2.04 0.42,3.06 1.28,3.06 2.93,0 6.56,-2.6 10.86,-7.82 4.3,-5.23 6.44,-9.79 6.44,-13.7 0,-1.25 -0.28,-2.23 -0.84,-2.97 -0.56,-0.74 -1.19,-1.1 -1.89,-1.1zm48.22 -8.79c0,-0.03 0,-0.05 0.01,-0.09 0.01,-0.04 0.06,-0.12 0.13,-0.2 0.1,-0.18 0.15,-0.4 0.15,-0.64 0,-1.57 -0.57,-3.38 -1.74,-5.42 -1.16,-2.04 -2.77,-3.52 -4.82,-4.45 -2.05,-0.92 -3.95,-1.38 -5.7,-1.38 -0.84,0 -2.39,0.56 -4.63,1.69 -1.65,0.81 -2.88,1.24 -3.7,1.24 -1.88,0 -2.81,-0.86 -2.81,-2.55 0,-1.12 0.89,-2.74 2.69,-4.87 1.8,-2.13 4.9,-3.19 9.31,-3.19 5.5,0 9.86,1.21 13.09,3.64 3.23,2.44 5.45,5.59 6.66,9.48 1.21,3.88 1.81,8.93 1.81,15.13 0,4.16 -1.47,9.59 -4.39,16.28 -2.93,6.7 -6.65,11.61 -11.16,14.75 -4.5,3.14 -9.19,4.71 -14.05,4.71 -2.09,0 -4.05,-1.1 -5.86,-3.31 -1.8,-2.21 -2.7,-4.91 -2.7,-8.12 0,-5.59 1.26,-10.58 3.79,-14.95 2.53,-4.39 5.37,-7.91 8.51,-10.58 3.14,-2.67 7.22,-4.69 12.26,-6.1 1.42,-0.4 2.46,-0.74 3.14,-1.05zm1.49 7.92c-4.34,0.97 -7.9,2.59 -10.69,4.86 -2.04,1.88 -4.08,4.45 -6.12,7.73 -2.05,3.29 -3.07,7.39 -3.07,12.26 0,0.68 0.18,1.31 0.52,1.93 0.36,0.61 0.66,0.92 0.93,0.92 4.2,0 8.32,-3.01 12.4,-9.02 4.07,-6.02 6.08,-12.25 6.03,-18.68zm37.29 21.67c-6.49,8.6 -12.76,12.9 -18.75,12.9 -2.24,0 -4.19,-0.88 -5.79,-2.65 -1.62,-1.77 -2.44,-4.02 -2.44,-6.76 0,-6.61 2.95,-13.64 8.83,-21.1 5.87,-7.46 11.8,-11.19 17.78,-11.19 3.04,0 5.04,1.53 5.98,4.59 2.86,0 4.3,1.1 4.3,3.29 0,1.05 -0.28,2.93 -0.83,5.68 -0.99,5.13 -1.49,9.24 -1.49,12.3 0,3.19 0.22,5.43 0.65,6.72 0.45,1.3 0.75,2.14 0.96,2.55 0.2,0.4 0.8,0.82 1.8,1.26 1,0.47 1.49,1.14 1.49,1.98 0,1.28 -0.64,2.33 -1.93,3.18 -1.29,0.85 -2.63,1.28 -4.02,1.28 -2.35,0 -4.03,-1.17 -5.06,-3.51 -1.03,-2.35 -1.55,-5.09 -1.55,-8.23l0 -1.12c0,-0.37 0.01,-0.75 0.07,-1.16zm-2.02 -20.81c-2.51,0 -5.79,2.78 -9.81,8.34 -4.02,5.58 -6.03,10.3 -6.03,14.19 0,2.04 0.42,3.06 1.28,3.06 2.93,0 6.56,-2.6 10.86,-7.82 4.3,-5.23 6.44,-9.79 6.44,-13.7 0,-1.25 -0.28,-2.23 -0.84,-2.97 -0.56,-0.74 -1.19,-1.1 -1.89,-1.1zm20 30.6c2.19,-2.19 4.75,-6.71 7.65,-13.57 0.41,-0.92 0.86,-1.88 1.35,-2.87 0.47,-0.99 0.88,-1.98 1.22,-2.96 0.2,-0.5 0.43,-1.01 0.68,-1.53 0.9,-1.94 1.8,-4.44 2.69,-7.51 0.89,-3.06 1.45,-5.23 1.69,-6.49 0.37,-2.14 1.99,-3.21 4.86,-3.21 1.84,0 2.98,0.32 3.42,0.97 0.43,0.65 0.91,1.43 1.4,2.35 0.5,0.93 1.08,3.34 1.77,7.23 0.69,3.9 1.22,7.21 1.62,9.93 0.5,3.24 1.35,6.62 2.55,10.13 3.06,-7.07 5.79,-13.08 8.2,-17.99 2.4,-4.92 4.34,-8.59 5.79,-10.97 1.45,-2.4 2.5,-3.88 3.14,-4.43 0.64,-0.56 1.28,-0.84 1.93,-0.84 1.19,0 2.49,0.34 3.88,1.05 1.4,0.69 2.21,1.39 2.44,2.09 0.24,3.36 0.52,9.66 0.82,18.91 0.13,3.32 0.34,6.26 0.64,8.86 0.31,2.6 0.84,4.74 1.61,6.47 1.07,2.14 1.61,3.98 1.61,5.5 0,1.22 -0.48,2.23 -1.45,3.02 -0.97,0.81 -2.36,1.2 -4.15,1.2 -2.62,0 -4.35,-1.79 -5.18,-5.35 -0.84,-3.56 -1.25,-9.87 -1.25,-18.94 0,-1.35 0.11,-3.92 0.37,-7.71l0.12 -2.38c-3.45,6.59 -6.34,12.51 -8.71,17.74 -3.24,7.16 -5.46,11.49 -6.65,13.01 -1.2,1.52 -2.51,2.28 -3.93,2.28l-0.6 0c-1.81,0 -3.2,-0.47 -4.15,-1.39 -0.94,-0.92 -1.98,-3.66 -3.1,-8.2 -1.12,-4.54 -1.95,-8.96 -2.5,-13.22 -0.26,-1.74 -0.48,-2.9 -0.68,-3.47 -1,3.58 -1.63,5.72 -1.91,6.39 -0.05,0.1 -0.13,0.33 -0.26,0.72 -0.75,2.28 -1.9,5.19 -3.46,8.72 -1.55,3.52 -3,6.29 -4.31,8.29 -1.33,2 -2.34,3.24 -3.04,3.7 -0.69,0.46 -1.52,0.69 -2.46,0.69 -1.02,0 -2.03,-0.38 -3.02,-1.17 -1.01,-0.78 -1.51,-1.67 -1.51,-2.67 0,-0.9 0.27,-1.66 0.79,-2.28l0.08 -0.08zm95 -39.39c0,-0.03 0,-0.05 0.01,-0.09 0.01,-0.04 0.06,-0.12 0.13,-0.2 0.1,-0.18 0.15,-0.4 0.15,-0.64 0,-1.57 -0.57,-3.38 -1.74,-5.42 -1.16,-2.04 -2.77,-3.52 -4.82,-4.45 -2.05,-0.92 -3.95,-1.38 -5.7,-1.38 -0.84,0 -2.39,0.56 -4.63,1.69 -1.65,0.81 -2.88,1.24 -3.7,1.24 -1.88,0 -2.81,-0.86 -2.81,-2.55 0,-1.12 0.89,-2.74 2.69,-4.87 1.8,-2.13 4.9,-3.19 9.31,-3.19 5.5,0 9.86,1.21 13.09,3.64 3.23,2.44 5.45,5.59 6.66,9.48 1.21,3.88 1.81,8.93 1.81,15.13 0,4.16 -1.47,9.59 -4.39,16.28 -2.93,6.7 -6.65,11.61 -11.16,14.75 -4.5,3.14 -9.19,4.71 -14.05,4.71 -2.09,0 -4.05,-1.1 -5.86,-3.31 -1.8,-2.21 -2.7,-4.91 -2.7,-8.12 0,-5.59 1.26,-10.58 3.79,-14.95 2.53,-4.39 5.37,-7.91 8.51,-10.58 3.14,-2.67 7.22,-4.69 12.26,-6.1 1.42,-0.4 2.46,-0.74 3.14,-1.05zm1.49 7.92c-4.34,0.97 -7.9,2.59 -10.69,4.86 -2.04,1.88 -4.08,4.45 -6.12,7.73 -2.05,3.29 -3.07,7.39 -3.07,12.26 0,0.68 0.18,1.31 0.52,1.93 0.36,0.61 0.66,0.92 0.93,0.92 4.2,0 8.32,-3.01 12.4,-9.02 4.07,-6.02 6.08,-12.25 6.03,-18.68zm37.29 21.67c-6.49,8.6 -12.76,12.9 -18.75,12.9 -2.24,0 -4.19,-0.88 -5.79,-2.65 -1.62,-1.77 -2.44,-4.02 -2.44,-6.76 0,-6.61 2.95,-13.64 8.83,-21.1 5.87,-7.46 11.8,-11.19 17.78,-11.19 3.04,0 5.04,1.53 5.98,4.59 2.86,0 4.3,1.1 4.3,3.29 0,1.05 -0.28,2.93 -0.83,5.68 -0.99,5.13 -1.49,9.24 -1.49,12.3 0,3.19 0.22,5.43 0.65,6.72 0.45,1.3 0.75,2.14 0.96,2.55 0.2,0.4 0.8,0.82 1.8,1.26 1,0.47 1.49,1.14 1.49,1.98 0,1.28 -0.64,2.33 -1.93,3.18 -1.29,0.85 -2.63,1.28 -4.02,1.28 -2.35,0 -4.03,-1.17 -5.06,-3.51 -1.03,-2.35 -1.55,-5.09 -1.55,-8.23l0 -1.12c0,-0.37 0.01,-0.75 0.07,-1.16zm-2.02 -20.81c-2.51,0 -5.79,2.78 -9.81,8.34 -4.02,5.58 -6.03,10.3 -6.03,14.19 0,2.04 0.42,3.06 1.28,3.06 2.93,0 6.56,-2.6 10.86,-7.82 4.3,-5.23 6.44,-9.79 6.44,-13.7 0,-1.25 -0.28,-2.23 -0.84,-2.97 -0.56,-0.74 -1.19,-1.1 -1.89,-1.1zm30.31 30.83c-0.5,2.02 -1.12,5.73 -1.86,11.15 -0.75,5.42 -1.2,9.06 -1.35,10.92 -0.14,1.85 -0.79,3.43 -1.91,4.72 -1.14,1.3 -2.16,1.94 -3.05,1.95 -1.12,-0.01 -2.23,-0.43 -3.33,-1.28 -1.1,-0.86 -1.65,-1.77 -1.65,-2.77 0,-2.02 0.32,-4.35 0.93,-6.99 3.74,-14.93 5.78,-30.31 6.14,-46.16l0 -0.75c0,-3.09 0.1,-5.17 0.29,-6.25 0.2,-1.08 0.83,-2.13 1.88,-3.12 1.05,-1 2.27,-1.49 3.7,-1.49 1.19,0 2.17,0.54 2.93,1.61 0.75,1.07 1.14,2.62 1.14,4.63 0,2.04 -0.37,5.63 -1.12,10.73 2.77,-4.6 6.07,-8.43 9.93,-11.46 3.85,-3.02 7.36,-4.54 10.53,-4.54 2.79,0 5.17,0.99 7.12,2.98 1.95,2 2.93,4.5 2.93,7.51 0,8.05 -3.13,15.37 -9.36,21.97 -6.24,6.58 -12.41,9.87 -18.52,9.87 -2.83,0 -4.62,-1.08 -5.34,-3.24zm21.71 -30.62c-3.04,0 -6.98,2.97 -11.83,8.89 -4.85,5.93 -7.27,10.59 -7.27,13.98 0,0.87 0.43,1.66 1.29,2.33 0.87,0.69 1.88,1.03 3.01,1.03 3.16,0 6.8,-2.49 10.89,-7.46 4.11,-4.96 6.15,-9.77 6.15,-14.4 0,-1.55 -0.23,-2.67 -0.7,-3.34 -0.47,-0.69 -1,-1.03 -1.55,-1.03zm-554.42 13.14c0,6 -1.91,10.97 -5.75,14.94 -3.84,3.97 -8.73,5.96 -14.68,5.96 -3.74,0 -7.18,-0.82 -10.35,-2.44 -3.37,-1.75 -5.91,-4.2 -7.6,-7.36 -1.71,-3.15 -2.57,-7 -2.57,-11.55 0,-3.62 0.86,-7.02 2.58,-10.18 1.8,-3.28 4.25,-5.77 7.39,-7.48 3.12,-1.71 6.61,-2.57 10.47,-2.57 6.03,0 10.96,1.94 14.77,5.81 3.83,3.87 5.74,8.83 5.74,14.86zm-11.1 -3.29c-0.45,-2.58 -1.46,-4.66 -3.03,-6.25 -1.71,-1.7 -3.84,-2.55 -6.36,-2.55 -2.74,0 -5.04,1.05 -6.9,3.15 -1.3,1.44 -2.14,3.33 -2.54,5.65l18.83 0zm0.04 6.43l-18.91 0c0.4,2.68 1.39,4.83 2.98,6.48 1.71,1.8 3.88,2.7 6.49,2.7 2.6,0 4.77,-0.91 6.48,-2.7 1.57,-1.65 2.55,-3.8 2.95,-6.48zm188.94 -8.73c5.75,0 9.87,-0.17 12.36,-0.48 1.05,-0.15 2.16,-0.23 3.33,-0.23 0.57,0 1.73,0.32 3.47,0.94 1.75,0.61 2.79,1.28 3.15,1.95 0.34,0.69 0.52,1.31 0.52,1.89 0,2.32 -1.45,3.48 -4.34,3.48 -0.33,0 -1.56,-0.27 -3.7,-0.79 -0.42,-0.1 -0.73,-0.14 -0.91,-0.14l-3.39 0.22c-0.52,0 -2.44,-0.13 -5.72,-0.37 -1.02,-0.08 -4.13,0.03 -9.31,0.29 -2.93,0.15 -4.91,-0.01 -5.92,-0.48 -1.01,-0.47 -1.52,-1.34 -1.52,-2.62 0,-1.34 0.91,-2.36 2.72,-3.05 1.8,-0.68 3.98,-1.02 6.52,-1.02 0.6,0 1.51,0.13 2.73,0.41z"/>
   <g id="atau-belgi.svg">
    <path class="fil0 str0" d="M127 69.84c-35.65,5.63 -47.53,28.01 -51.03,41.14 -3.06,11.38 -2.19,30.08 23.26,30.7 8.25,0 32.27,-0.06 51.97,0 24.45,0.06 31.27,-19.51 30.71,-36.33 -1.07,-30.54 -28.56,-39.64 -54.9,-35.52z"/>
    <path class="fil2" d="M94.98 113.11c0,-7.09 5.79,-12.89 12.89,-12.89 7.09,0 12.89,5.79 12.89,12.89 0,7.09 -5.79,12.89 -12.89,12.89 -7.1,0 -12.89,-5.79 -12.89,-12.89z"/>
   </g>
  </g>
 </g>
</svg>
