<?xml version="1.0" encoding="UTF-8"?>
<!DOCTYPE svg PUBLIC "-//W3C//DTD SVG 1.1//EN" "http://www.w3.org/Graphics/SVG/1.1/DTD/svg11.dtd">
<!-- Creator: CorelDRAW 2020 -->
<svg xmlns="http://www.w3.org/2000/svg" xml:space="preserve" width="15mm" height="10.3mm" version="1.1" style="shape-rendering:geometricPrecision; text-rendering:geometricPrecision; image-rendering:optimizeQuality; fill-rule:evenodd; clip-rule:evenodd"
viewBox="0 0 136.92 94.02"
 xmlns:xlink="http://www.w3.org/1999/xlink"
 xmlns:xodm="http://www.corel.com/coreldraw/odm/2003">
 <defs>
  <style type="text/css">
   <![CDATA[
    .str0 {stroke:#C6B93A;stroke-width:6.85;stroke-miterlimit:22.9256}
    .str1 {stroke:#C6B93A;stroke-width:1.83;stroke-miterlimit:22.9256}
    .fil0 {fill:none}
    .fil1 {fill:#C6B93A}
    .fil2 {fill:#C6B93A;fill-rule:nonzero}
   ]]>
  </style>
 </defs>
 <g id="Layer_x0020_1">
  <metadata id="CorelCorpID_0Corel-Layer"/>
  <g id="_1543674376">
   <g id="korme-agylhyn-janyu.svg">
    <path class="fil0 str0" d="M67.9 25.22c-15.02,2.37 -20.03,11.81 -21.51,17.34 -1.29,4.8 -0.92,12.68 9.8,12.94 3.48,0 13.6,-0.03 21.9,0 10.31,0.03 13.18,-8.22 12.94,-15.31 -0.45,-12.87 -12.04,-16.71 -23.14,-14.97z"/>
    <path class="fil1" d="M54.4 43.46c0,-2.99 2.44,-5.43 5.43,-5.43 2.99,0 5.43,2.44 5.43,5.43 0,2.99 -2.44,5.43 -5.43,5.43 -2.99,0 -5.43,-2.44 -5.43,-5.43z"/>
   </g>
   <polygon class="fil0" points="-0,0 136.92,0 136.92,93.1 -0,93.1 "/>
   <line class="fil0 str1" x1="7.3" y1="93.1" x2="129.62" y2= "93.1" />
   <path class="fil2" d="M18.26 79.38c0,0.85 -0.76,1.88 -2.27,3.1 -1.52,1.21 -3.08,1.81 -4.69,1.81 -1.35,0 -2.39,-0.4 -3.13,-1.19 -0.73,-0.79 -1.1,-1.91 -1.1,-3.33 0,-2.4 0.81,-4.68 2.43,-6.84 1.62,-2.16 3.39,-3.25 5.31,-3.25 0.63,0 1.14,0.21 1.54,0.62 0.4,0.41 0.6,0.91 0.6,1.48 0,1.29 -0.64,2.53 -1.9,3.71 -1.27,1.18 -2.96,2.34 -5.08,3.48 -0.44,0.23 -0.65,0.52 -0.65,0.88 0,0.7 0.2,1.25 0.6,1.67 0.4,0.42 1,0.63 1.79,0.63 1.8,0 3.64,-1 5.52,-2.99 0.28,-0.27 0.49,-0.42 0.63,-0.42 0.27,0 0.4,0.21 0.4,0.64zm-8.74 -1.96c3.56,-2.11 5.34,-3.81 5.34,-5.1 0,-0.5 -0.23,-0.75 -0.68,-0.75 -0.77,0 -1.64,0.57 -2.61,1.7 -0.97,1.13 -1.65,2.52 -2.04,4.15zm15.7 1.55c-1.91,1.64 -3.17,3.3 -3.78,4.97 -0.24,0.55 -0.48,0.97 -0.72,1.25 -1,-0.06 -1.5,-0.52 -1.5,-1.39 0,-1.28 1.43,-3.23 4.29,-5.84l0.61 -0.57c-1.67,-2.51 -2.5,-4.43 -2.5,-5.77 0,-1.19 0.5,-1.79 1.51,-1.79 0.29,0 0.49,0.13 0.62,0.37 0.13,0.24 0.23,0.8 0.31,1.66 0.11,1.33 0.68,2.75 1.72,4.24 2.32,-2 3.89,-3.78 4.71,-5.36 0.28,-0.5 0.49,-0.82 0.64,-0.95 0.15,-0.14 0.36,-0.2 0.61,-0.2 0.3,0 0.58,0.12 0.85,0.35 0.26,0.23 0.4,0.53 0.4,0.89 0,0.84 -2.03,3.13 -6.11,6.89 1.4,1.79 2.89,3.14 4.48,4.04 0.19,0.11 0.38,0.22 0.55,0.34 0.03,0.07 0.05,0.19 0.05,0.35 0,0.36 -0.13,0.68 -0.39,0.97 -0.27,0.29 -0.58,0.43 -0.95,0.43 -1.13,0 -2.92,-1.62 -5.37,-4.87zm11.61 0.91c3.12,-5.76 5.69,-8.64 7.71,-8.64 0.54,0 0.97,0.31 1.31,0.92 0.33,0.61 0.61,1.97 0.82,4.07 0.21,2.24 0.68,3.86 1.42,4.86 0.38,0.51 0.57,0.89 0.57,1.13 0,0.22 -0.12,0.42 -0.38,0.61 -0.25,0.18 -0.52,0.27 -0.8,0.27 -0.66,0 -1.23,-0.37 -1.74,-1.1 -0.5,-0.73 -0.83,-2.02 -0.97,-3.87 -0.14,-1.74 -0.3,-2.89 -0.45,-3.42 -0.16,-0.54 -0.42,-0.81 -0.79,-0.81 -0.88,0 -2.65,2.31 -5.32,6.91 -0.8,1.37 -1.39,2.28 -1.76,2.7 -0.38,0.43 -0.72,0.64 -1.03,0.64 -0.37,0 -0.68,-0.11 -0.93,-0.33 -0.25,-0.22 -0.38,-0.49 -0.38,-0.8 0,-0.24 0.07,-0.69 0.2,-1.36 1.03,-5.32 1.85,-10.59 2.44,-15.8 0.13,-1.22 0.35,-2.02 0.65,-2.43 0.3,-0.4 0.55,-0.61 0.75,-0.61 0.36,0 0.69,0.15 0.98,0.44 0.3,0.29 0.44,0.7 0.44,1.22 0,1.55 -0.38,3.66 -1.13,6.35 -0.37,1.33 -0.76,3.03 -1.17,5.08 -0.41,2.06 -0.62,3.33 -0.62,3.81 0,0.1 0.05,0.15 0.14,0.15l0.05 0zm18.11 -13.07c-0.18,0 -0.31,-0.19 -0.4,-0.57 -0.03,-0.12 -0.08,-0.24 -0.14,-0.39 -0.23,-0.54 -0.34,-1.02 -0.34,-1.42 0,-0.33 0.2,-0.67 0.6,-1.02 0.4,-0.35 0.84,-0.52 1.33,-0.52 0.24,0 0.51,0.09 0.82,0.28 0.3,0.19 0.45,0.37 0.45,0.54 0,0.28 -0.1,0.75 -0.31,1.41 -0.21,0.66 -0.53,1.11 -0.98,1.34 -0.45,0.23 -0.79,0.34 -1.03,0.34zm-1.65 14.05c0,0.64 0.09,1.35 0.27,2.15 0.03,0.15 0.05,0.27 0.05,0.37 0,0.16 -0.14,0.35 -0.41,0.59 -0.28,0.24 -0.57,0.36 -0.88,0.36 -0.82,0 -1.22,-0.75 -1.22,-2.24 0,-1.55 0.32,-3.98 0.95,-7.32 0.22,-1.17 0.33,-1.88 0.33,-2.15 0,-0.53 0.1,-0.98 0.29,-1.35 0.19,-0.37 0.46,-0.56 0.82,-0.56 0.43,0 0.76,0.1 1.01,0.31 0.25,0.21 0.37,0.43 0.37,0.69 0,0.25 -0.06,0.58 -0.18,0.99 -0.63,2.22 -1.02,3.8 -1.17,4.76 -0.15,0.95 -0.23,2.09 -0.23,3.41zm7.35 -4.37c1.07,-1.95 2.36,-3.54 3.85,-4.75 1.49,-1.21 2.84,-1.82 4.04,-1.82 0.66,0 1.22,0.3 1.68,0.92 0.46,0.61 0.69,1.36 0.69,2.24 0,2.61 -0.98,5.05 -2.95,7.34 -1.97,2.28 -4.04,3.43 -6.23,3.43 -0.6,0 -1.14,-0.16 -1.64,-0.48 -0.5,-0.32 -0.78,-0.73 -0.83,-1.22 -0.03,-0.39 -0.15,-0.69 -0.34,-0.88 -0.36,-0.36 -0.54,-0.75 -0.54,-1.15 0,-0.76 0.21,-2.4 0.63,-4.89l1.3 -7.52c0.44,-2.52 0.77,-4.08 0.97,-4.68 0.21,-0.59 0.43,-0.99 0.69,-1.19 0.25,-0.2 0.56,-0.3 0.93,-0.3 0.59,0 0.88,0.51 0.88,1.52 0,0.97 -0.32,2.31 -0.97,4.05 -0.62,1.67 -1.34,4.8 -2.15,9.39zm-0.3 4.19c0.44,0.81 0.97,1.22 1.59,1.22 0.95,0 1.97,-0.4 3.03,-1.19 1.06,-0.79 1.98,-1.91 2.76,-3.34 0.77,-1.44 1.16,-2.65 1.16,-3.65 0,-0.44 -0.08,-0.82 -0.24,-1.14 -0.16,-0.32 -0.36,-0.48 -0.61,-0.48 -1.16,0 -2.59,0.96 -4.27,2.86 -1.68,1.91 -2.83,3.81 -3.43,5.72zm17.04 -13.88c-0.18,0 -0.31,-0.19 -0.4,-0.57 -0.03,-0.12 -0.08,-0.24 -0.14,-0.39 -0.23,-0.54 -0.34,-1.02 -0.34,-1.42 0,-0.33 0.2,-0.67 0.6,-1.02 0.4,-0.35 0.84,-0.52 1.33,-0.52 0.24,0 0.51,0.09 0.82,0.28 0.3,0.19 0.45,0.37 0.45,0.54 0,0.28 -0.1,0.75 -0.31,1.41 -0.21,0.66 -0.53,1.11 -0.98,1.34 -0.45,0.23 -0.79,0.34 -1.03,0.34zm-1.65 14.05c0,0.64 0.09,1.35 0.27,2.15 0.03,0.15 0.05,0.27 0.05,0.37 0,0.16 -0.14,0.35 -0.41,0.59 -0.28,0.24 -0.57,0.36 -0.88,0.36 -0.82,0 -1.22,-0.75 -1.22,-2.24 0,-1.55 0.32,-3.98 0.95,-7.32 0.22,-1.17 0.33,-1.88 0.33,-2.15 0,-0.53 0.1,-0.98 0.29,-1.35 0.19,-0.37 0.46,-0.56 0.82,-0.56 0.43,0 0.76,0.1 1.01,0.31 0.25,0.21 0.37,0.43 0.37,0.69 0,0.25 -0.06,0.58 -0.18,0.99 -0.63,2.22 -1.02,3.8 -1.17,4.76 -0.15,0.95 -0.23,2.09 -0.23,3.41zm10.16 -9.9c0.86,-0.07 1.68,-0.15 2.44,-0.24 0.76,-0.08 1.39,-0.13 1.89,-0.13 0.64,0 1.04,0.06 1.21,0.18 0.17,0.12 0.25,0.32 0.25,0.62 0,0.68 -0.48,1.05 -1.42,1.1 -1.22,0.08 -2.34,0.18 -3.36,0.32 -1.02,0.13 -1.57,0.24 -1.65,0.33 -0.08,0.09 -0.33,1.09 -0.76,2.99 -0.43,1.91 -0.64,3.15 -0.64,3.72 0,0.92 0.12,1.54 0.37,1.84 0.24,0.31 0.61,0.46 1.09,0.46 0.72,0 1.73,-0.54 3.01,-1.62 0.49,-0.44 0.88,-0.67 1.14,-0.67 0.36,0 0.54,0.19 0.54,0.58 0,0.61 -0.58,1.39 -1.74,2.34 -1.16,0.96 -2.35,1.44 -3.56,1.44 -2.03,0 -3.04,-1.2 -3.04,-3.59 0,-0.86 0.21,-2.2 0.63,-4.01 0.41,-1.8 0.62,-2.89 0.62,-3.25 0,-0.13 -0.1,-0.19 -0.3,-0.19l-1.31 0.12c-1.07,0 -1.61,-0.43 -1.61,-1.28 0,-0.48 0.24,-0.73 0.74,-0.73l2.59 0c0.18,0 0.33,-0.08 0.47,-0.24 0.13,-0.16 0.33,-0.69 0.59,-1.6 0.26,-0.91 0.49,-1.81 0.69,-2.7 0.2,-0.88 0.6,-1.32 1.19,-1.32 0.36,0 0.64,0.12 0.84,0.38 0.2,0.25 0.3,0.48 0.3,0.7 0,0.12 -0.15,0.72 -0.45,1.8l-0.73 2.64zm11.01 -4.15c-0.18,0 -0.31,-0.19 -0.4,-0.57 -0.03,-0.12 -0.08,-0.24 -0.14,-0.39 -0.23,-0.54 -0.34,-1.02 -0.34,-1.42 0,-0.33 0.2,-0.67 0.6,-1.02 0.4,-0.35 0.84,-0.52 1.33,-0.52 0.24,0 0.51,0.09 0.82,0.28 0.3,0.19 0.45,0.37 0.45,0.54 0,0.28 -0.1,0.75 -0.31,1.41 -0.21,0.66 -0.53,1.11 -0.98,1.34 -0.45,0.23 -0.79,0.34 -1.03,0.34zm-1.65 14.05c0,0.64 0.09,1.35 0.27,2.15 0.03,0.15 0.05,0.27 0.05,0.37 0,0.16 -0.14,0.35 -0.41,0.59 -0.28,0.24 -0.57,0.36 -0.88,0.36 -0.82,0 -1.22,-0.75 -1.22,-2.24 0,-1.55 0.32,-3.98 0.95,-7.32 0.22,-1.17 0.33,-1.88 0.33,-2.15 0,-0.53 0.1,-0.98 0.29,-1.35 0.19,-0.37 0.46,-0.56 0.82,-0.56 0.43,0 0.76,0.1 1.01,0.31 0.25,0.21 0.37,0.43 0.37,0.69 0,0.25 -0.06,0.58 -0.18,0.99 -0.63,2.22 -1.02,3.8 -1.17,4.76 -0.15,0.95 -0.23,2.09 -0.23,3.41zm8.72 3.42c-1.15,0 -2.09,-0.43 -2.84,-1.31 -0.75,-0.87 -1.12,-1.95 -1.12,-3.23 0,-2.16 0.73,-4.3 2.19,-6.4 1.45,-2.1 3.19,-3.15 5.22,-3.15 1.34,0 2.43,0.51 3.26,1.55 0.83,1.03 1.25,2.26 1.25,3.68 0,2.18 -0.86,4.2 -2.58,6.06 -1.73,1.86 -3.52,2.79 -5.38,2.79zm-1.75 -4.87c0,0.85 0.18,1.54 0.53,2.07 0.36,0.54 0.83,0.81 1.42,0.81 1.25,0 2.5,-0.69 3.76,-2.06 1.26,-1.37 1.88,-2.9 1.88,-4.57 0,-1.03 -0.24,-1.87 -0.72,-2.51 -0.48,-0.64 -1.13,-0.96 -1.95,-0.96 -1.35,0 -2.51,0.83 -3.48,2.49 -0.97,1.65 -1.45,3.23 -1.45,4.74zm21.21 -5.43c-0.44,0 -0.91,0.28 -1.43,0.85 -0.52,0.57 -1.3,1.85 -2.36,3.84 -1.39,2.67 -2.29,4.18 -2.7,4.55 -0.41,0.37 -0.75,0.55 -1.01,0.55 -0.99,0 -1.49,-0.48 -1.49,-1.43 0,-0.4 0.07,-0.97 0.2,-1.71 0.46,-2.53 0.69,-5.2 0.69,-8.01 0,-0.32 0.14,-0.67 0.41,-1.06 0.27,-0.39 0.53,-0.58 0.77,-0.58 0.44,0 0.75,0.13 0.93,0.4 0.18,0.27 0.28,0.81 0.28,1.62 0,0.85 -0.25,2.59 -0.75,5.23 -0.17,0.87 -0.25,1.43 -0.25,1.66 0,0.13 0.03,0.2 0.1,0.2 0.12,0 0.71,-1 1.75,-3.01 1.05,-2.04 1.97,-3.47 2.75,-4.3 0.79,-0.83 1.66,-1.25 2.61,-1.25 0.75,0 1.37,0.34 1.84,1.03 0.47,0.69 0.82,1.94 1.04,3.76 0.24,2.07 0.45,3.36 0.64,3.87 0.19,0.51 0.49,0.76 0.9,0.76 0.26,0 0.59,-0.09 0.98,-0.27 0.06,-0.03 0.12,-0.05 0.15,-0.05 0.36,0 0.54,0.21 0.54,0.63 0,0.37 -0.25,0.76 -0.74,1.18 -0.49,0.42 -1.09,0.62 -1.79,0.62 -0.71,0 -1.26,-0.28 -1.65,-0.85 -0.39,-0.57 -0.7,-2.08 -0.93,-4.54 -0.23,-2.46 -0.73,-3.7 -1.48,-3.7z"/>
  </g>
 </g>
</svg>
