<?xml version="1.0" encoding="UTF-8"?>
<!DOCTYPE svg PUBLIC "-//W3C//DTD SVG 1.1//EN" "http://www.w3.org/Graphics/SVG/1.1/DTD/svg11.dtd">
<!-- Creator: CorelDRAW 2020 -->
<svg xmlns="http://www.w3.org/2000/svg" xml:space="preserve" width="18mm" height="10mm" version="1.1" style="shape-rendering:geometricPrecision; text-rendering:geometricPrecision; image-rendering:optimizeQuality; fill-rule:evenodd; clip-rule:evenodd"
viewBox="0 0 194.34 107.97"
 xmlns:xlink="http://www.w3.org/1999/xlink"
 xmlns:xodm="http://www.corel.com/coreldraw/odm/2003">
 <defs>
  <style type="text/css">
   <![CDATA[
    .str0 {stroke:#ACA77B;stroke-width:8.1;stroke-miterlimit:22.9256}
    .fil0 {fill:none}
    .fil1 {fill:#ACA77B}
    .fil2 {fill:#ACA77B;fill-rule:nonzero}
   ]]>
  </style>
 </defs>
 <g id="Layer_x0020_1">
  <metadata id="CorelCorpID_0Corel-Layer"/>
  <g id="_1235193920">
   <g id="atau-belgi.svg">
    <path class="fil0 str0" d="M96.5 28.75c-17.77,2.8 -23.69,13.97 -25.44,20.51 -1.53,5.67 -1.09,14.99 11.6,15.31 4.12,0 16.09,-0.03 25.91,0 12.19,0.03 15.59,-9.73 15.31,-18.11 -0.53,-15.23 -14.24,-19.76 -27.37,-17.71z"/>
    <path class="fil1" d="M80.54 50.32c0,-3.54 2.89,-6.42 6.42,-6.42 3.54,0 6.42,2.89 6.42,6.42 0,3.54 -2.89,6.42 -6.42,6.42 -3.54,0 -6.42,-2.89 -6.42,-6.42z"/>
   </g>
   <polygon class="fil0" points="-0,0 194.34,0 194.34,107.97 -0,107.97 "/>
   <path class="fil2" d="M26.95 92.67l-18.57 0 0 -1.64 8.44 0 0 -9.79 -6.76 0 0 -1.65 15.21 0 0 1.65 -6.75 0 0 9.79 8.43 0 0 1.64zm25.54 -5.96l-6.55 1.78 1.49 7.66 -1.75 0.52 -1.47 -7.7 -7.46 1.96 -0.55 -1.67 7.72 -1.9 -0.86 -4.51 -5.22 1.33 -0.49 -1.68 5.43 -1.25 -1.04 -5.4 1.75 -0.57 0.99 5.55 5.15 -1.3 0.32 1.56 -5.14 1.28 0.84 4.52 6.54 -1.68 0.31 1.51zm18.53 -7.19l-1.15 1.08c-1.04,-1.63 -2.45,-2.96 -4.24,-4l0.94 -1.09c1.78,1.03 3.27,2.36 4.45,4.01zm8.01 5.69c-1.34,2.28 -3.09,4.35 -5.26,6.19 -2.36,2 -4.98,3.52 -7.85,4.59l-1.25 -1.63c2.79,-0.91 5.38,-2.29 7.77,-4.13 2.39,-1.84 4.26,-3.91 5.59,-6.2l1 1.19zm-10.29 0.97l-1.07 1.06c-1.44,-1.86 -3.18,-3.23 -5.22,-4.13l0.94 -1.33c2.13,0.96 3.91,2.42 5.35,4.4zm39.33 -9.41l-0.98 1.15c-0.82,-1.43 -2.03,-2.53 -3.6,-3.31l0.88 -1.12c1.53,0.76 2.76,1.86 3.7,3.28zm-1.76 1.6l-0.98 1.14c-0.83,-1.43 -2.03,-2.54 -3.61,-3.32l0.88 -1.11c1.53,0.76 2.76,1.86 3.7,3.28zm-2.1 16.45l-8.94 0c-1.78,0 -2.92,-0.22 -3.43,-0.67 -0.52,-0.44 -0.77,-1.44 -0.77,-2.99l0 -13.14 1.73 0 0 7.97c3.6,-1.19 7.01,-3.17 10.22,-5.95l0.95 1.39c-3.43,2.73 -7.15,4.8 -11.17,6.2l0 3.36c0,1 0.18,1.64 0.55,1.91 0.27,0.19 0.9,0.29 1.9,0.29l8.97 0 0 1.63zm20.12 -15.31l-1.15 1.08c-1.04,-1.63 -2.45,-2.96 -4.24,-4l0.94 -1.09c1.78,1.03 3.27,2.36 4.45,4.01zm8.01 5.69c-1.34,2.28 -3.09,4.35 -5.26,6.19 -2.36,2 -4.98,3.52 -7.85,4.59l-1.25 -1.63c2.79,-0.91 5.38,-2.29 7.77,-4.13 2.39,-1.84 4.26,-3.91 5.59,-6.2l1 1.19zm-10.29 0.97l-1.07 1.06c-1.44,-1.86 -3.18,-3.23 -5.22,-4.13l0.94 -1.33c2.13,0.96 3.91,2.42 5.35,4.4zm34.84 9.51l-1.73 0 0 -1.04 -9.54 0 0 -1.65 9.54 0 0 -3.87 -9.1 0 0 -1.65 9.1 0 0 -3.49 -9.54 0 0 -1.65 11.27 0 0 13.36zm20.47 -14.76l-1.45 1.59c-1.37,-1.9 -2.87,-3.38 -4.49,-4.45l1.01 -1.32c2,1.25 3.65,2.64 4.92,4.18zm8.36 2.9c-1.47,2.41 -3.4,4.68 -5.81,6.8 -2.44,2.14 -5.05,3.86 -7.82,5.14l-1.42 -1.58c2.96,-1.2 5.73,-2.92 8.3,-5.14 2.44,-2.09 4.29,-4.26 5.56,-6.51l1.19 1.29z"/>
  </g>
 </g>
</svg>
