<?xml version="1.0" encoding="UTF-8"?>
<!DOCTYPE svg PUBLIC "-//W3C//DTD SVG 1.1//EN" "http://www.w3.org/Graphics/SVG/1.1/DTD/svg11.dtd">
<!-- Creator: CorelDRAW 2020 -->
<svg xmlns="http://www.w3.org/2000/svg" xml:space="preserve" width="11mm" height="10mm" version="1.1" style="shape-rendering:geometricPrecision; text-rendering:geometricPrecision; image-rendering:optimizeQuality; fill-rule:evenodd; clip-rule:evenodd"
viewBox="0 0 75.76 68.87"
 xmlns:xlink="http://www.w3.org/1999/xlink"
 xmlns:xodm="http://www.corel.com/coreldraw/odm/2003">
 <defs>
  <style type="text/css">
   <![CDATA[
    .str0 {stroke:#B2AD81;stroke-width:3.44;stroke-miterlimit:22.9256}
    .fil0 {fill:none}
    .fil2 {fill:#B2AD81}
    .fil1 {fill:#B2AD81;fill-rule:nonzero}
   ]]>
  </style>
 </defs>
 <g id="Layer_x0020_1">
  <metadata id="CorelCorpID_0Corel-Layer"/>
  <polygon class="fil0" points="-0,0 75.76,0 75.76,68.87 -0,68.87 "/>
  <path class="fil1" d="M15.24 58.89l-1.48 0c-0.64,0 -1.35,-0.15 -2.15,-0.43 -0.92,-0.33 -1.73,-0.79 -2.43,-1.37 -0.55,0.68 -1.11,1.15 -1.69,1.41 -0.57,0.26 -1.41,0.39 -2.52,0.39l-2.22 0 0 -2.48 2.18 0c0.86,0 1.63,-0.22 2.3,-0.66 0.52,-0.35 1,-0.82 1.42,-1.44 0.58,-0.84 1.29,-1.56 2.14,-2.18 0.76,-0.55 1.45,-0.9 2.09,-1.05 0.66,1 1.18,1.9 1.56,2.7 0.52,1.08 0.78,1.96 0.78,2.63l0 2.48zm-1.63 -2.81c-0.12,-0.55 -0.31,-1.1 -0.57,-1.63 -0.22,-0.45 -0.51,-0.91 -0.87,-1.39 -0.45,0.12 -0.84,0.33 -1.15,0.65 -0.21,0.2 -0.46,0.54 -0.74,1.02 0.34,0.37 0.82,0.7 1.44,1 0.62,0.3 1.21,0.48 1.75,0.54l0.13 -0.18zm13.12 2.81l-2.09 0c-0.62,0 -1.24,-0.15 -1.88,-0.44 -0.76,-0.35 -1.31,-0.84 -1.65,-1.47 -0.64,0.57 -1.37,1.01 -2.18,1.33 -1,0.39 -2.13,0.58 -3.4,0.58l-1.28 0 0 -2.48 1.28 0c0.8,0 1.54,-0.09 2.23,-0.26 0.78,-0.19 1.54,-0.51 2.29,-0.95l-0.6 -0.76c-0.31,-0.36 -0.65,-0.54 -1.03,-0.54 -0.17,0 -0.33,0.03 -0.46,0.09 -0.13,0.06 -0.28,0.19 -0.44,0.4l-0.29 0 0 -0.84c0,-1.05 0.28,-1.77 0.83,-2.16 0.5,-0.35 1.37,-0.53 2.61,-0.53 1.07,0 1.94,0.14 2.61,0.43 0.88,0.37 1.32,0.94 1.32,1.71 0,0.41 -0.17,0.83 -0.52,1.27 -0.25,0.32 -0.72,0.77 -1.4,1.34 0.15,0.22 0.44,0.41 0.87,0.56 0.43,0.15 0.79,0.23 1.09,0.23l2.09 0 0 2.48zm14.26 -0c0,1.04 -0.45,2.13 -1.34,3.25 -0.78,0.99 -1.74,1.84 -2.91,2.55 -1.1,0.68 -2.01,1.02 -2.72,1.02 -0.66,0 -1.36,-0.1 -2.12,-0.29 -0.58,-0.14 -1.27,-0.37 -2.08,-0.68 -0.68,-0.26 -1.36,-0.52 -2.04,-0.77l0.24 -0.57c0.63,0.13 1.28,0.25 1.96,0.38 0.68,0.13 1.3,0.2 1.85,0.2 1.21,0 2.48,-0.39 3.81,-1.17 1.2,-0.71 2.22,-1.61 3.07,-2.7 0.85,-1.09 1.27,-2.06 1.27,-2.94 0,-0.75 -0.22,-1.54 -0.65,-2.37 -0.35,-0.67 -0.85,-1.35 -1.48,-2.05l0.8 -2.24c0.78,0.72 1.35,1.44 1.72,2.17 0.42,0.82 0.63,1.73 0.63,2.74l0 3.46zm32.01 0l-16.91 0c-0.29,1.97 -0.97,3.45 -2.05,4.44 -1.35,1.22 -3.41,1.83 -6.17,1.83 -1.9,0 -3.35,-0.33 -4.36,-1 -1.1,-0.73 -1.65,-1.85 -1.65,-3.36 0,-0.82 0.1,-1.64 0.3,-2.48 0.2,-0.84 0.47,-1.68 0.81,-2.52 0.21,-0.51 0.57,-1.3 1.09,-2.36l0.57 0.26c-0.66,1.37 -1.1,2.44 -1.31,3.23 -0.21,0.79 -0.32,1.51 -0.32,2.16 0,1.18 0.42,2.06 1.26,2.68 0.84,0.61 2.04,0.92 3.6,0.92 1.82,0 3.45,-0.32 4.88,-0.95 1.78,-0.78 2.68,-1.88 2.68,-3.29 0,-0.94 -0.17,-1.84 -0.52,-2.69 -0.28,-0.67 -0.67,-1.32 -1.17,-1.93l1.18 -2.92c0.47,0.78 0.78,1.46 0.95,2.06 0.23,0.84 0.35,1.99 0.35,3.45l0.26 0c1.13,0 2.18,-0.18 3.15,-0.54 0.84,-0.32 1.71,-0.81 2.63,-1.48 1.4,-0.98 2.24,-1.56 2.52,-1.73 0.78,-0.5 1.48,-0.85 2.09,-1.05 0.7,-0.24 1.48,-0.35 2.32,-0.35 1.3,0 2.27,0.37 2.92,1.12 0.6,0.69 0.9,1.67 0.9,2.92l0 3.6zm-2.3 -3.57c0,-0.46 -0.29,-0.82 -0.87,-1.08 -0.58,-0.26 -1.26,-0.39 -2.05,-0.39 -0.68,0 -1.44,0.15 -2.29,0.45 -0.6,0.22 -1.36,0.56 -2.28,1.04 -0.69,0.36 -1.38,0.72 -2.07,1.08l6.56 0c0.91,0 1.64,-0.09 2.18,-0.28 0.54,-0.18 0.81,-0.46 0.81,-0.82zm-7.2 -8.26l-1.1 2.06 -2.28 -1.19 1.04 -2.07 2.34 1.2z"/>
  <g id="atau-belgi.svg">
   <path class="fil0 str0" d="M36.28 21.48c-10.18,1.61 -13.58,8 -14.58,11.75 -0.88,3.25 -0.63,8.59 6.65,8.77 2.36,0 9.22,-0.02 14.84,0 6.99,0.02 8.93,-5.57 8.77,-10.38 -0.31,-8.72 -8.16,-11.32 -15.68,-10.15z"/>
   <path class="fil2" d="M27.13 33.84c0,-2.03 1.65,-3.68 3.68,-3.68 2.03,0 3.68,1.65 3.68,3.68 0,2.03 -1.65,3.68 -3.68,3.68 -2.03,0 -3.68,-1.65 -3.68,-3.68z"/>
  </g>
 </g>
</svg>
