<?xml version="1.0" encoding="UTF-8"?>
<!DOCTYPE svg PUBLIC "-//W3C//DTD SVG 1.1//EN" "http://www.w3.org/Graphics/SVG/1.1/DTD/svg11.dtd">
<!-- Creator: CorelDRAW 2020 -->
<svg xmlns="http://www.w3.org/2000/svg" xml:space="preserve" width="11mm" height="10mm" version="1.1" style="shape-rendering:geometricPrecision; text-rendering:geometricPrecision; image-rendering:optimizeQuality; fill-rule:evenodd; clip-rule:evenodd"
viewBox="0 0 75.76 68.87"
 xmlns:xlink="http://www.w3.org/1999/xlink"
 xmlns:xodm="http://www.corel.com/coreldraw/odm/2003">
 <defs>
  <style type="text/css">
   <![CDATA[
    .str0 {stroke:#6B470F;stroke-width:3.44;stroke-miterlimit:22.9256}
    .fil2 {fill:none}
    .fil0 {fill:none}
    .fil3 {fill:#6B470F}
    .fil1 {fill:#6B470F;fill-rule:nonzero}
   ]]>
  </style>
 </defs>
 <g id="Layer_x0020_1">
  <metadata id="CorelCorpID_0Corel-Layer"/>
  <g id="_1025187688">
   <polygon class="fil0" points="-0,0 75.76,0 75.76,68.87 -0,68.87 "/>
   <path class="fil1" d="M12.51 55.36c1.35,-0.23 2.56,-1.1 3.63,-2.62 0.5,-0.7 0.94,-1.19 1.32,-1.49 0.38,-0.29 0.78,-0.44 1.21,-0.44 0.17,0 0.34,0.08 0.51,0.23 0.17,0.15 0.26,0.34 0.26,0.55 0,0.28 -0.26,0.5 -0.79,0.66 -0.28,0.08 -0.54,0.23 -0.79,0.43 -0.24,0.2 -0.71,0.69 -1.39,1.47 -0.54,0.6 -1.02,1.03 -1.44,1.27 -0.04,0.02 -0.06,0.04 -0.06,0.06 0,0.02 0.03,0.05 0.08,0.07 0.41,0.22 0.85,0.65 1.32,1.29 0.67,0.93 1.17,1.51 1.51,1.75 0.34,0.24 0.72,0.36 1.15,0.36l0.28 -0.01c0.2,-0.01 0.3,0.08 0.3,0.27 0,0.22 -0.12,0.44 -0.37,0.68 -0.24,0.23 -0.65,0.35 -1.21,0.35 -0.43,0 -0.85,-0.19 -1.26,-0.56 -0.41,-0.37 -0.87,-0.98 -1.4,-1.82 -0.3,-0.5 -0.58,-0.87 -0.85,-1.13 -0.26,-0.26 -0.55,-0.38 -0.87,-0.38 -0.07,0 -0.28,0.06 -0.63,0.17 -0.35,0.11 -0.55,0.22 -0.59,0.33 -0.04,0.11 -0.08,0.48 -0.1,1.14 -0.02,0.65 -0.03,1.18 -0.03,1.57 0,0.21 -0.1,0.4 -0.3,0.57 -0.2,0.16 -0.42,0.25 -0.65,0.25 -0.24,0 -0.42,-0.07 -0.56,-0.21 -0.14,-0.14 -0.21,-0.28 -0.21,-0.43 0,-0.2 0.08,-0.69 0.23,-1.45 0.27,-1.39 0.55,-3.68 0.82,-6.88 0.02,-0.31 0.14,-0.58 0.35,-0.83 0.21,-0.25 0.45,-0.37 0.72,-0.37 0.15,0 0.27,0.08 0.37,0.24 0.1,0.16 0.15,0.36 0.15,0.62 0,0.2 -0.03,0.43 -0.1,0.69 -0.32,1.18 -0.52,2.38 -0.61,3.61zm19.68 3.5c-0.28,1.03 -0.54,2.46 -0.78,4.31l-0.24 1.61c-0.04,0.23 -0.15,0.46 -0.32,0.68 -0.17,0.22 -0.33,0.34 -0.47,0.34 -0.18,0 -0.38,-0.09 -0.6,-0.27 -0.22,-0.18 -0.33,-0.32 -0.33,-0.43 0,-0.31 0.07,-0.75 0.21,-1.3 1.04,-4.21 1.56,-7.9 1.56,-11.08l-0.01 -0.72c-0.01,-0.62 0.1,-1.06 0.32,-1.34 0.23,-0.28 0.49,-0.42 0.79,-0.42 0.14,0 0.27,0.11 0.39,0.32 0.13,0.21 0.19,0.52 0.19,0.91 0,0.55 -0.06,1.22 -0.17,2.01 -0.15,0.99 -0.22,1.56 -0.23,1.71 0.85,-1.48 1.75,-2.64 2.7,-3.47 0.95,-0.83 1.83,-1.25 2.65,-1.25 0.58,0 1.06,0.22 1.46,0.64 0.4,0.43 0.6,0.96 0.6,1.6 0,1.85 -0.71,3.54 -2.14,5.06 -1.42,1.52 -2.81,2.27 -4.16,2.27 -0.34,0 -0.6,-0.08 -0.8,-0.25 -0.2,-0.17 -0.4,-0.48 -0.61,-0.93zm5.3 -6.87c-0.8,0 -1.8,0.75 -2.98,2.25 -1.18,1.5 -1.78,2.67 -1.78,3.51 0,0.21 0.12,0.4 0.35,0.6 0.23,0.2 0.53,0.29 0.89,0.29 0.82,0 1.75,-0.6 2.81,-1.81 1.06,-1.2 1.59,-2.38 1.59,-3.55 0,-0.42 -0.08,-0.73 -0.25,-0.96 -0.17,-0.22 -0.38,-0.33 -0.63,-0.33zm15.26 0.38c-0.46,0.74 -1.11,1.99 -1.95,3.76 -0.19,0.4 -0.38,0.78 -0.57,1.15 -0.06,0.12 -0.18,0.38 -0.36,0.8 -0.6,1.39 -1.12,2.08 -1.57,2.08 -0.35,0 -0.61,-0.04 -0.77,-0.13 -0.16,-0.08 -0.31,-0.32 -0.46,-0.7 -0.15,-0.38 -0.37,-1.28 -0.66,-2.69 -0.34,-1.6 -0.56,-2.58 -0.68,-2.95 -0.39,0.87 -0.73,1.71 -1.03,2.52 -0.45,1.19 -0.9,2.16 -1.32,2.91 -0.43,0.75 -0.73,1.2 -0.92,1.35 -0.19,0.15 -0.37,0.23 -0.54,0.23 -0.18,0 -0.34,-0.07 -0.48,-0.2 -0.14,-0.14 -0.21,-0.27 -0.21,-0.4 0.03,-0.23 0.07,-0.38 0.12,-0.43 0.5,-0.61 0.92,-1.26 1.28,-1.95 0.36,-0.69 0.82,-1.72 1.37,-3.1 0.55,-1.38 0.91,-2.51 1.06,-3.39 0.08,-0.38 0.35,-0.56 0.83,-0.56 0.28,0 0.47,0.04 0.57,0.13 0.1,0.08 0.2,0.26 0.3,0.52 0.1,0.26 0.16,0.5 0.17,0.7 0.04,0.25 0.13,0.79 0.29,1.63 0.14,0.79 0.24,1.35 0.28,1.68 0.08,0.48 0.22,1.09 0.42,1.86 0.2,0.77 0.36,1.15 0.48,1.15 0.08,0 0.19,-0.17 0.34,-0.52l0.72 -1.66c0.13,-0.3 0.27,-0.6 0.42,-0.89l0.98 -2.01c0.54,-1.1 0.95,-1.9 1.24,-2.4 0.29,-0.5 0.48,-0.8 0.58,-0.9 0.1,-0.1 0.21,-0.15 0.34,-0.15 0.22,0 0.46,0.06 0.73,0.17 0.27,0.12 0.4,0.24 0.42,0.39 0.01,0.14 0.04,0.74 0.08,1.78l0.11 2.67c0.04,0.85 0.08,1.57 0.15,2.16 0.07,0.6 0.19,1.08 0.36,1.44 0.27,0.58 0.4,1.03 0.4,1.35 0,0.27 -0.11,0.46 -0.34,0.56 -0.23,0.1 -0.43,0.15 -0.63,0.15 -0.4,0 -0.7,-0.32 -0.92,-0.96 -0.21,-0.64 -0.37,-2.47 -0.46,-5.48 -0.03,-0.91 -0.09,-1.46 -0.16,-1.66zm11.71 4.59c0,0.58 -0.51,1.28 -1.54,2.1 -1.03,0.82 -2.09,1.23 -3.18,1.23 -0.92,0 -1.62,-0.27 -2.12,-0.81 -0.5,-0.54 -0.75,-1.29 -0.75,-2.26 0,-1.63 0.55,-3.18 1.65,-4.65 1.1,-1.47 2.3,-2.2 3.61,-2.2 0.43,0 0.78,0.14 1.05,0.42 0.27,0.28 0.41,0.62 0.41,1.01 0,0.88 -0.43,1.72 -1.29,2.52 -0.86,0.8 -2.01,1.59 -3.45,2.36 -0.3,0.15 -0.44,0.35 -0.44,0.6 0,0.47 0.13,0.85 0.41,1.14 0.27,0.29 0.68,0.43 1.21,0.43 1.22,0 2.48,-0.68 3.75,-2.03 0.19,-0.19 0.33,-0.28 0.43,-0.28 0.18,0 0.27,0.15 0.27,0.44zm-5.94 -1.33c2.42,-1.44 3.62,-2.59 3.62,-3.46 0,-0.34 -0.15,-0.51 -0.46,-0.51 -0.52,0 -1.11,0.38 -1.77,1.15 -0.66,0.77 -1.12,1.71 -1.39,2.82zm-29.78 -0.44c0,2.11 -0.68,3.55 -2.05,4.31 -0.66,0.37 -1.4,0.55 -2.19,0.55 -1.38,0 -2.44,-0.45 -3.2,-1.36 -0.7,-0.84 -1.05,-1.97 -1.05,-3.38 0,-1.68 0.47,-2.92 1.4,-3.73 0.78,-0.67 1.73,-1.01 2.85,-1.01 1.34,0 2.38,0.44 3.15,1.32 0.73,0.84 1.09,1.93 1.09,3.28zm-1.61 -0.74c-0.1,-0.73 -0.33,-1.31 -0.71,-1.73 -0.51,-0.57 -1.15,-0.86 -1.92,-0.86 -0.78,0 -1.42,0.29 -1.92,0.86 -0.38,0.42 -0.62,1 -0.71,1.73l5.27 0zm0.04 1.26l-5.34 0c0.05,0.87 0.28,1.59 0.69,2.14 0.48,0.63 1.14,0.94 1.98,0.94 0.84,0 1.5,-0.31 1.97,-0.95 0.41,-0.55 0.64,-1.26 0.69,-2.13z"/>
   <g id="atau-belgi.svg">
    <path class="fil2 str0" d="M36.28 19.95c-10.18,1.61 -13.58,8 -14.58,11.75 -0.88,3.25 -0.63,8.59 6.65,8.77 2.36,0 9.22,-0.02 14.84,0 6.99,0.02 8.93,-5.57 8.77,-10.38 -0.31,-8.72 -8.16,-11.32 -15.68,-10.15z"/>
    <path class="fil3" d="M27.13 32.31c0,-2.03 1.65,-3.68 3.68,-3.68 2.03,0 3.68,1.65 3.68,3.68 0,2.03 -1.65,3.68 -3.68,3.68 -2.03,0 -3.68,-1.65 -3.68,-3.68z"/>
   </g>
  </g>
 </g>
</svg>
