<?xml version="1.0" encoding="UTF-8"?>
<!DOCTYPE svg PUBLIC "-//W3C//DTD SVG 1.1//EN" "http://www.w3.org/Graphics/SVG/1.1/DTD/svg11.dtd">
<!-- Creator: CorelDRAW 2020 -->
<svg xmlns="http://www.w3.org/2000/svg" xml:space="preserve" width="8.6924mm" height="9.5019mm" version="1.1" style="shape-rendering:geometricPrecision; text-rendering:geometricPrecision; image-rendering:optimizeQuality; fill-rule:evenodd; clip-rule:evenodd"
viewBox="0 0 38.79 42.4"
 xmlns:xlink="http://www.w3.org/1999/xlink"
 xmlns:xodm="http://www.corel.com/coreldraw/odm/2003">
 <defs>
  <style type="text/css">
   <![CDATA[
    .str0 {stroke:#6B470F;stroke-width:3.35;stroke-miterlimit:22.9256}
    .str1 {stroke:#6B470F;stroke-width:2.23;stroke-miterlimit:22.9256}
    .fil0 {fill:none}
    .fil3 {fill:none}
    .fil1 {fill:#6B470F}
    .fil2 {fill:#6B470F;fill-rule:nonzero}
   ]]>
  </style>
 </defs>
 <g id="Layer_x0020_1">
  <metadata id="CorelCorpID_0Corel-Layer"/>
  <g id="atau-belgi.svg">
   <path class="fil0 str0" d="M19.48 8.37c-6.6,1.04 -8.8,5.19 -9.45,7.62 -0.57,2.11 -0.4,5.57 4.31,5.68 1.53,0 5.97,-0.01 9.62,0 4.53,0.01 5.79,-3.61 5.68,-6.73 -0.2,-5.65 -5.29,-7.34 -10.16,-6.57z"/>
   <path class="fil1" d="M13.55 16.38c0,-1.31 1.07,-2.39 2.39,-2.39 1.31,0 2.39,1.07 2.39,2.39 0,1.31 -1.07,2.39 -2.39,2.39 -1.31,0 -2.39,-1.07 -2.39,-2.39z"/>
  </g>
  <line class="fil0 str1" x1="4.18" y1="25.44" x2="34.09" y2= "25.44" />
  <path class="fil2" d="M1.39 34.88c0.97,-0.17 1.84,-0.8 2.61,-1.88 0.36,-0.5 0.68,-0.86 0.95,-1.07 0.27,-0.21 0.56,-0.32 0.87,-0.32 0.12,0 0.25,0.06 0.37,0.17 0.12,0.11 0.18,0.24 0.18,0.39 0,0.2 -0.19,0.36 -0.57,0.47 -0.2,0.06 -0.39,0.17 -0.57,0.31 -0.18,0.15 -0.51,0.5 -1,1.06 -0.39,0.43 -0.73,0.74 -1.04,0.92 -0.03,0.02 -0.04,0.03 -0.04,0.04 0,0.02 0.02,0.03 0.06,0.05 0.3,0.16 0.61,0.47 0.95,0.93 0.48,0.67 0.85,1.09 1.09,1.26 0.24,0.17 0.52,0.26 0.83,0.26l0.2 -0.01c0.14,-0.01 0.21,0.06 0.21,0.19 0,0.16 -0.09,0.32 -0.26,0.49 -0.18,0.17 -0.47,0.25 -0.87,0.25 -0.31,0 -0.61,-0.13 -0.91,-0.4 -0.29,-0.27 -0.63,-0.71 -1.01,-1.31 -0.22,-0.36 -0.42,-0.63 -0.61,-0.81 -0.19,-0.18 -0.4,-0.28 -0.63,-0.28 -0.05,0 -0.2,0.04 -0.46,0.12 -0.25,0.08 -0.4,0.16 -0.43,0.24 -0.03,0.08 -0.05,0.35 -0.07,0.82 -0.01,0.47 -0.02,0.85 -0.02,1.13 0,0.15 -0.07,0.29 -0.21,0.41 -0.14,0.12 -0.3,0.18 -0.47,0.18 -0.17,0 -0.31,-0.05 -0.4,-0.15 -0.1,-0.1 -0.15,-0.2 -0.15,-0.31 0,-0.15 0.06,-0.5 0.17,-1.05 0.2,-1 0.39,-2.65 0.59,-4.95 0.01,-0.22 0.1,-0.42 0.25,-0.6 0.15,-0.18 0.32,-0.27 0.52,-0.27 0.11,0 0.2,0.06 0.27,0.17 0.07,0.12 0.11,0.26 0.11,0.44 0,0.15 -0.02,0.31 -0.08,0.49 -0.23,0.85 -0.38,1.71 -0.44,2.6zm14.17 2.52c-0.2,0.74 -0.39,1.77 -0.56,3.11l-0.17 1.16c-0.03,0.16 -0.1,0.33 -0.23,0.49 -0.12,0.16 -0.23,0.24 -0.34,0.24 -0.13,0 -0.27,-0.07 -0.43,-0.19 -0.16,-0.13 -0.24,-0.23 -0.24,-0.31 0,-0.23 0.05,-0.54 0.15,-0.94 0.75,-3.03 1.12,-5.69 1.12,-7.98l-0.01 -0.52c-0.01,-0.44 0.07,-0.77 0.23,-0.97 0.17,-0.2 0.35,-0.3 0.57,-0.3 0.1,0 0.19,0.08 0.28,0.23 0.09,0.15 0.13,0.37 0.13,0.66 0,0.4 -0.04,0.88 -0.12,1.44 -0.11,0.71 -0.16,1.12 -0.17,1.23 0.61,-1.06 1.26,-1.9 1.94,-2.5 0.68,-0.6 1.32,-0.9 1.91,-0.9 0.41,0 0.76,0.16 1.05,0.46 0.29,0.31 0.43,0.69 0.43,1.15 0,1.33 -0.51,2.55 -1.54,3.64 -1.02,1.09 -2.02,1.64 -2.99,1.64 -0.24,0 -0.43,-0.06 -0.58,-0.18 -0.14,-0.12 -0.29,-0.35 -0.44,-0.67zm3.82 -4.95c-0.58,0 -1.29,0.54 -2.15,1.62 -0.85,1.08 -1.28,1.93 -1.28,2.53 0,0.15 0.08,0.29 0.25,0.43 0.17,0.14 0.38,0.21 0.64,0.21 0.59,0 1.26,-0.43 2.02,-1.3 0.76,-0.87 1.14,-1.72 1.14,-2.55 0,-0.3 -0.06,-0.53 -0.18,-0.69 -0.12,-0.16 -0.27,-0.24 -0.45,-0.24zm10.98 0.28c-0.33,0.53 -0.8,1.43 -1.4,2.71 -0.13,0.29 -0.27,0.56 -0.41,0.83 -0.05,0.09 -0.13,0.28 -0.26,0.57 -0.43,1 -0.81,1.5 -1.13,1.5 -0.25,0 -0.44,-0.03 -0.56,-0.09 -0.12,-0.06 -0.23,-0.23 -0.33,-0.5 -0.11,-0.27 -0.26,-0.92 -0.47,-1.94 -0.24,-1.15 -0.41,-1.86 -0.49,-2.13 -0.28,0.63 -0.53,1.23 -0.74,1.81 -0.33,0.86 -0.64,1.56 -0.95,2.09 -0.31,0.54 -0.53,0.86 -0.66,0.97 -0.14,0.11 -0.26,0.16 -0.39,0.16 -0.13,0 -0.24,-0.05 -0.34,-0.15 -0.1,-0.1 -0.15,-0.2 -0.15,-0.29 0.02,-0.17 0.05,-0.27 0.09,-0.31 0.36,-0.44 0.66,-0.91 0.92,-1.4 0.26,-0.5 0.59,-1.24 0.99,-2.23 0.4,-0.99 0.65,-1.81 0.76,-2.44 0.05,-0.27 0.25,-0.41 0.6,-0.41 0.2,0 0.34,0.03 0.41,0.09 0.07,0.06 0.15,0.19 0.22,0.37 0.07,0.19 0.11,0.36 0.13,0.51 0.02,0.18 0.09,0.57 0.21,1.17 0.1,0.57 0.17,0.97 0.2,1.21 0.06,0.34 0.16,0.79 0.3,1.34 0.14,0.55 0.26,0.83 0.34,0.83 0.06,0 0.14,-0.13 0.25,-0.38l0.52 -1.19c0.09,-0.22 0.2,-0.43 0.3,-0.64l0.71 -1.45c0.39,-0.8 0.68,-1.37 0.89,-1.73 0.21,-0.36 0.35,-0.57 0.42,-0.65 0.07,-0.08 0.15,-0.11 0.24,-0.11 0.16,0 0.33,0.04 0.52,0.13 0.19,0.08 0.29,0.18 0.3,0.28 0.01,0.1 0.03,0.53 0.06,1.28l0.08 1.92c0.03,0.61 0.06,1.13 0.11,1.56 0.05,0.43 0.13,0.77 0.26,1.04 0.19,0.42 0.29,0.74 0.29,0.97 0,0.2 -0.08,0.33 -0.24,0.41 -0.16,0.07 -0.31,0.11 -0.45,0.11 -0.29,0 -0.51,-0.23 -0.66,-0.69 -0.15,-0.46 -0.26,-1.78 -0.33,-3.95 -0.02,-0.65 -0.07,-1.05 -0.12,-1.2zm8.43 3.3c0,0.42 -0.37,0.92 -1.11,1.51 -0.74,0.59 -1.51,0.88 -2.29,0.88 -0.66,0 -1.17,-0.19 -1.53,-0.58 -0.36,-0.39 -0.54,-0.93 -0.54,-1.63 0,-1.17 0.39,-2.29 1.19,-3.35 0.79,-1.06 1.66,-1.59 2.6,-1.59 0.31,0 0.56,0.1 0.75,0.3 0.19,0.2 0.29,0.44 0.29,0.72 0,0.63 -0.31,1.24 -0.93,1.82 -0.62,0.58 -1.45,1.15 -2.48,1.7 -0.21,0.11 -0.32,0.25 -0.32,0.43 0,0.34 0.1,0.61 0.29,0.82 0.2,0.21 0.49,0.31 0.87,0.31 0.88,0 1.78,-0.49 2.7,-1.46 0.14,-0.13 0.24,-0.2 0.31,-0.2 0.13,0 0.2,0.1 0.2,0.31zm-4.27 -0.96c1.74,-1.03 2.61,-1.86 2.61,-2.49 0,-0.25 -0.11,-0.37 -0.33,-0.37 -0.38,0 -0.8,0.28 -1.28,0.83 -0.47,0.55 -0.81,1.23 -1,2.03zm-21.44 -0.32c0,1.52 -0.49,2.56 -1.47,3.1 -0.48,0.27 -1.01,0.4 -1.58,0.4 -0.99,0 -1.76,-0.33 -2.3,-0.98 -0.5,-0.61 -0.76,-1.42 -0.76,-2.43 0,-1.21 0.34,-2.1 1.01,-2.68 0.56,-0.48 1.24,-0.72 2.05,-0.72 0.96,0 1.71,0.32 2.26,0.95 0.52,0.6 0.78,1.39 0.78,2.36zm-1.16 -0.53c-0.07,-0.53 -0.24,-0.94 -0.51,-1.24 -0.37,-0.41 -0.83,-0.62 -1.38,-0.62 -0.56,0 -1.02,0.21 -1.39,0.62 -0.27,0.3 -0.44,0.72 -0.51,1.24l3.79 0zm0.02 0.91l-3.84 0c0.03,0.63 0.2,1.14 0.5,1.54 0.34,0.45 0.82,0.68 1.43,0.68 0.6,0 1.08,-0.23 1.42,-0.68 0.3,-0.39 0.46,-0.9 0.5,-1.53z"/>
  <polygon class="fil3" points="4.19,0 34.09,0 34.09,25.44 4.19,25.44 "/>
 </g>
</svg>
