<?xml version="1.0" encoding="UTF-8"?>
<!DOCTYPE svg PUBLIC "-//W3C//DTD SVG 1.1//EN" "http://www.w3.org/Graphics/SVG/1.1/DTD/svg11.dtd">
<!-- Creator: CorelDRAW 2020 -->
<svg xmlns="http://www.w3.org/2000/svg" xml:space="preserve" width="18mm" height="10.1mm" version="1.1" style="shape-rendering:geometricPrecision; text-rendering:geometricPrecision; image-rendering:optimizeQuality; fill-rule:evenodd; clip-rule:evenodd"
viewBox="0 0 194.34 109.04"
 xmlns:xlink="http://www.w3.org/1999/xlink"
 xmlns:xodm="http://www.corel.com/coreldraw/odm/2003">
 <defs>
  <style type="text/css">
   <![CDATA[
    .str1 {stroke:#C6B93A;stroke-width:5.4;stroke-miterlimit:22.9256}
    .str0 {stroke:#C6B93A;stroke-width:2.16;stroke-miterlimit:22.9256}
    .fil0 {fill:none}
    .fil2 {fill:#C6B93A}
    .fil1 {fill:#C6B93A;fill-rule:nonzero}
   ]]>
  </style>
 </defs>
 <g id="Layer_x0020_1">
  <metadata id="CorelCorpID_0Corel-Layer"/>
  <polygon class="fil0" points="-0,0 194.34,0 194.34,107.97 -0,107.97 "/>
  <line class="fil0 str0" x1="8.64" y1="107.97" x2="185.7" y2= "107.97" />
  <path class="fil1" d="M27.01 92.88l-18.43 0 0 -2.5 7.85 0 0 -7.95 -6.23 0 0 -2.5 15.18 0 0 2.5 -6.21 0 0 7.95 7.83 0 0 2.5zm25.62 -5.19l-5.92 1.71 1.28 6.77 -2.6 0.78 -1.34 -6.83 -6.77 1.71 -0.84 -2.6 7.11 -1.77 -0.61 -3.24 -4.66 1.17 -0.69 -2.64 4.87 -1.12 -1 -5.22 2.6 -0.83 1.07 5.34 4.58 -1.12 0.56 2.47 -4.66 1.17 0.64 3.26 5.92 -1.47 0.48 2.48zm18.58 -7.91l-1.79 1.68c-1.03,-1.6 -2.47,-2.9 -4.32,-3.89l1.6 -1.85c1.83,1.08 3.33,2.44 4.51,4.06zm7.86 5.73c-1.72,2.68 -3.62,4.88 -5.67,6.58 -2.06,1.71 -4.49,3.1 -7.3,4.15l-1.73 -2.04c2.98,-1.02 5.5,-2.33 7.58,-3.93 2.27,-1.73 4.23,-3.98 5.88,-6.74l1.25 1.98zm-9.67 0.51l-1.7 1.68c-1.68,-1.95 -3.45,-3.34 -5.29,-4.16l1.42 -2.12c2.26,1.1 4.12,2.64 5.57,4.61zm38.92 -8.98l-1.63 1.63c-0.94,-1.36 -2.12,-2.49 -3.57,-3.39l1.46 -1.63c1.49,0.76 2.74,1.89 3.74,3.39zm-2.5 1.99l-1.72 1.6c-0.73,-1.28 -1.89,-2.41 -3.49,-3.38l1.47 -1.6c1.48,0.77 2.72,1.9 3.74,3.39zm-1.29 3.31c-3.44,2.76 -6.96,4.79 -10.56,6.08l0 2.54c0,0.67 0.12,1.1 0.38,1.3 0.2,0.16 0.63,0.25 1.3,0.25l8.72 0 0 2.55 -8.75 0c-1.88,0 -3.08,-0.23 -3.58,-0.68 -0.53,-0.46 -0.8,-1.55 -0.8,-3.29l0 -12.72 2.72 0 0 7.33c3.36,-1.39 6.38,-3.23 9.07,-5.55l1.48 2.19zm20 -2.55l-1.79 1.68c-1.03,-1.6 -2.47,-2.9 -4.32,-3.89l1.6 -1.85c1.83,1.08 3.33,2.44 4.51,4.06zm7.86 5.73c-1.72,2.68 -3.62,4.88 -5.67,6.58 -2.06,1.71 -4.49,3.1 -7.3,4.15l-1.73 -2.04c2.98,-1.02 5.5,-2.33 7.58,-3.93 2.27,-1.73 4.23,-3.98 5.88,-6.74l1.25 1.98zm-9.67 0.51l-1.7 1.68c-1.68,-1.95 -3.45,-3.34 -5.29,-4.16l1.42 -2.12c2.26,1.1 4.12,2.64 5.57,4.61zm34.24 9.97l-2.64 0 0 -1.09 -8.5 0 0 -2.54 8.5 0 0 -2.42 -8.08 0 0 -2.54 8.08 0 0 -2.21 -8.5 0 0 -2.5 11.15 0 0 13.3zm20.63 -14.69l-1.82 2.21c-1.28,-1.59 -2.85,-3.07 -4.69,-4.43l1.68 -2.15c1.82,1.21 3.43,2.66 4.83,4.36zm8.18 2.94c-3.04,5.03 -7.5,8.96 -13.41,11.78l-1.91 -2.25c2.66,-1.16 5.12,-2.6 7.38,-4.33 2.82,-2.17 5.03,-4.58 6.61,-7.23l1.33 2.03z"/>
  <g id="atau-belgi.svg">
   <path class="fil0 str1" d="M94.66 33.68c-15.96,2.52 -21.28,12.55 -22.85,18.43 -1.37,5.1 -0.98,13.47 10.42,13.75 3.7,0 14.45,-0.03 23.27,0 10.95,0.03 14,-8.74 13.75,-16.27 -0.48,-13.68 -12.79,-17.75 -24.59,-15.91z"/>
   <path class="fil2" d="M80.32 53.06c0,-3.18 2.59,-5.77 5.77,-5.77 3.18,0 5.77,2.59 5.77,5.77 0,3.18 -2.59,5.77 -5.77,5.77 -3.18,0 -5.77,-2.59 -5.77,-5.77z"/>
  </g>
 </g>
</svg>
