<?xml version="1.0" encoding="UTF-8"?>
<!DOCTYPE svg PUBLIC "-//W3C//DTD SVG 1.1//EN" "http://www.w3.org/Graphics/SVG/1.1/DTD/svg11.dtd">
<!-- Creator: CorelDRAW 2020 -->
<svg xmlns="http://www.w3.org/2000/svg" xml:space="preserve" width="11mm" height="10.2mm" version="1.1" style="shape-rendering:geometricPrecision; text-rendering:geometricPrecision; image-rendering:optimizeQuality; fill-rule:evenodd; clip-rule:evenodd"
viewBox="0 0 84.8 78.64"
 xmlns:xlink="http://www.w3.org/1999/xlink"
 xmlns:xodm="http://www.corel.com/coreldraw/odm/2003">
 <defs>
  <style type="text/css">
   <![CDATA[
    .str0 {stroke:#ACA77B;stroke-width:5.78;stroke-miterlimit:22.9256}
    .fil0 {fill:none}
    .fil1 {fill:#ACA77B}
    .fil2 {fill:#ACA77B;fill-rule:nonzero}
   ]]>
  </style>
 </defs>
 <g id="Layer_x0020_1">
  <metadata id="CorelCorpID_0Corel-Layer"/>
  <g id="_1232610280">
   <g id="atau-belgi.svg">
    <path class="fil0 str0" d="M41.93 21.3c-12.69,2 -16.92,9.97 -18.16,14.65 -1.09,4.05 -0.78,10.71 8.28,10.93 2.94,0 11.49,-0.02 18.5,0 8.7,0.02 11.13,-6.95 10.93,-12.93 -0.38,-10.87 -10.17,-14.11 -19.54,-12.64z"/>
    <path class="fil1" d="M30.53 36.7c0,-2.52 2.06,-4.59 4.59,-4.59 2.52,0 4.59,2.06 4.59,4.59 0,2.52 -2.06,4.59 -4.59,4.59 -2.53,0 -4.59,-2.06 -4.59,-4.59z"/>
   </g>
   <polygon class="fil0" points="-0,0 84.8,0 84.8,78.64 -0,78.64 "/>
   <path class="fil2" d="M19.18 66.87l-1.52 0c-0.65,0 -1.39,-0.15 -2.2,-0.44 -0.94,-0.34 -1.77,-0.81 -2.49,-1.41 -0.56,0.7 -1.14,1.18 -1.73,1.45 -0.59,0.27 -1.45,0.4 -2.58,0.4l-2.28 0 0 -2.54 2.23 0c0.89,0 1.68,-0.22 2.36,-0.67 0.54,-0.35 1.02,-0.84 1.46,-1.48 0.59,-0.86 1.33,-1.61 2.19,-2.24 0.78,-0.56 1.49,-0.93 2.14,-1.08 0.67,1.02 1.21,1.94 1.61,2.77 0.53,1.11 0.8,2.01 0.8,2.7l0 2.55zm-1.68 -2.88c-0.12,-0.57 -0.32,-1.13 -0.58,-1.68 -0.22,-0.46 -0.52,-0.94 -0.89,-1.43 -0.46,0.12 -0.86,0.34 -1.18,0.66 -0.21,0.2 -0.47,0.55 -0.76,1.04 0.35,0.38 0.84,0.72 1.48,1.03 0.63,0.3 1.24,0.49 1.8,0.56l0.13 -0.19zm13.46 2.88l-2.14 0c-0.63,0 -1.27,-0.15 -1.92,-0.45 -0.78,-0.36 -1.34,-0.86 -1.69,-1.51 -0.65,0.59 -1.4,1.04 -2.24,1.36 -1.02,0.4 -2.18,0.6 -3.49,0.6l-1.32 0 0 -2.54 1.32 0c0.82,0 1.58,-0.09 2.28,-0.26 0.8,-0.2 1.59,-0.52 2.35,-0.97l-0.62 -0.78c-0.31,-0.37 -0.67,-0.55 -1.06,-0.55 -0.18,0 -0.33,0.03 -0.47,0.09 -0.13,0.06 -0.29,0.2 -0.45,0.41l-0.3 0 0 -0.86c0,-1.08 0.28,-1.82 0.85,-2.21 0.51,-0.36 1.41,-0.54 2.68,-0.54 1.1,0 1.99,0.14 2.68,0.44 0.9,0.38 1.36,0.97 1.36,1.76 0,0.42 -0.18,0.85 -0.54,1.3 -0.26,0.33 -0.74,0.79 -1.44,1.38 0.15,0.23 0.45,0.42 0.9,0.58 0.44,0.15 0.81,0.23 1.12,0.23l2.14 0 0 2.54zm14.63 -0.01c0,1.07 -0.46,2.18 -1.38,3.34 -0.8,1.01 -1.79,1.88 -2.98,2.62 -1.13,0.7 -2.06,1.05 -2.79,1.05 -0.67,0 -1.4,-0.1 -2.18,-0.29 -0.59,-0.14 -1.31,-0.38 -2.13,-0.69 -0.7,-0.26 -1.4,-0.53 -2.09,-0.79l0.25 -0.58c0.64,0.13 1.31,0.26 2.01,0.39 0.7,0.13 1.33,0.2 1.89,0.2 1.25,0 2.55,-0.4 3.9,-1.2 1.23,-0.73 2.28,-1.66 3.15,-2.77 0.87,-1.12 1.3,-2.12 1.3,-3.02 0,-0.77 -0.22,-1.58 -0.67,-2.43 -0.36,-0.68 -0.87,-1.38 -1.52,-2.1l0.82 -2.3c0.8,0.74 1.39,1.48 1.77,2.22 0.43,0.84 0.64,1.77 0.64,2.81l0 3.55zm32.84 0.01l-17.35 0c-0.29,2.02 -0.99,3.54 -2.1,4.55 -1.38,1.25 -3.5,1.88 -6.33,1.88 -1.95,0 -3.44,-0.34 -4.47,-1.02 -1.13,-0.75 -1.7,-1.9 -1.7,-3.45 0,-0.84 0.1,-1.69 0.31,-2.54 0.2,-0.86 0.48,-1.72 0.83,-2.59 0.22,-0.52 0.59,-1.33 1.12,-2.42l0.58 0.26c-0.68,1.4 -1.13,2.5 -1.35,3.31 -0.22,0.81 -0.33,1.55 -0.33,2.22 0,1.21 0.43,2.12 1.29,2.75 0.86,0.63 2.09,0.94 3.69,0.94 1.87,0 3.54,-0.32 5.01,-0.98 1.83,-0.8 2.75,-1.93 2.75,-3.38 0,-0.97 -0.18,-1.89 -0.54,-2.76 -0.28,-0.69 -0.68,-1.35 -1.2,-1.98l1.21 -2.99c0.48,0.8 0.8,1.5 0.97,2.11 0.24,0.86 0.36,2.04 0.36,3.54l0.26 0c1.16,0 2.23,-0.18 3.23,-0.55 0.86,-0.32 1.75,-0.83 2.7,-1.52 1.44,-1 2.3,-1.6 2.59,-1.78 0.8,-0.51 1.52,-0.87 2.15,-1.08 0.72,-0.24 1.52,-0.36 2.38,-0.36 1.34,0 2.33,0.38 3,1.15 0.61,0.71 0.92,1.71 0.92,2.99l0 3.7zm-2.36 -3.67c0,-0.47 -0.3,-0.84 -0.9,-1.11 -0.6,-0.26 -1.3,-0.4 -2.1,-0.4 -0.7,0 -1.48,0.15 -2.35,0.46 -0.61,0.22 -1.4,0.58 -2.34,1.06 -0.71,0.37 -1.42,0.74 -2.12,1.11l6.74 0c0.93,0 1.68,-0.09 2.23,-0.28 0.55,-0.19 0.83,-0.47 0.83,-0.84zm-7.39 -8.47l-1.13 2.11 -2.34 -1.22 1.07 -2.13 2.4 1.24z"/>
  </g>
 </g>
</svg>
