<?xml version="1.0" encoding="UTF-8"?>
<!DOCTYPE svg PUBLIC "-//W3C//DTD SVG 1.1//EN" "http://www.w3.org/Graphics/SVG/1.1/DTD/svg11.dtd">
<!-- Creator: CorelDRAW 2020 -->
<svg xmlns="http://www.w3.org/2000/svg" xml:space="preserve" width="16.4116mm" height="10mm" version="1.1" style="shape-rendering:geometricPrecision; text-rendering:geometricPrecision; image-rendering:optimizeQuality; fill-rule:evenodd; clip-rule:evenodd"
viewBox="0 0 163.11 99.38"
 xmlns:xlink="http://www.w3.org/1999/xlink"
 xmlns:xodm="http://www.corel.com/coreldraw/odm/2003">
 <defs>
  <style type="text/css">
   <![CDATA[
    .str0 {stroke:#C6B93A;stroke-width:4.97;stroke-miterlimit:22.9256}
    .fil0 {fill:none}
    .fil2 {fill:#C6B93A}
    .fil1 {fill:#C6B93A;fill-rule:nonzero}
   ]]>
  </style>
 </defs>
 <g id="Layer_x0020_1">
  <metadata id="CorelCorpID_0Corel-Layer"/>
  <g id="_1377765536">
   <polygon class="fil0" points="26.89,0 136.21,0 136.21,99.38 26.89,99.38 "/>
   <path class="fil1" d="M16.97 85.5l-16.97 0 0 -2.3 7.23 0 0 -7.32 -5.73 0 0 -2.3 13.97 0 0 2.3 -5.71 0 0 7.32 7.21 0 0 2.3zm23.58 -4.78l-5.45 1.57 1.17 6.23 -2.4 0.72 -1.24 -6.29 -6.23 1.57 -0.78 -2.4 6.54 -1.63 -0.56 -2.99 -4.29 1.08 -0.64 -2.43 4.48 -1.03 -0.92 -4.81 2.39 -0.76 0.99 4.91 4.22 -1.03 0.52 2.28 -4.29 1.08 0.59 3 5.45 -1.35 0.44 2.29zm17.1 -7.28l-1.64 1.55c-0.95,-1.48 -2.27,-2.67 -3.98,-3.58l1.47 -1.7c1.69,1 3.07,2.25 4.15,3.74zm7.24 5.27c-1.59,2.47 -3.33,4.49 -5.22,6.06 -1.89,1.58 -4.14,2.85 -6.72,3.82l-1.59 -1.88c2.74,-0.94 5.06,-2.15 6.97,-3.62 2.09,-1.6 3.89,-3.67 5.42,-6.21l1.15 1.82zm-8.9 0.47l-1.57 1.55c-1.55,-1.8 -3.17,-3.08 -4.87,-3.83l1.31 -1.95c2.08,1.01 3.79,2.43 5.13,4.24zm35.83 -8.27l-1.5 1.5c-0.86,-1.26 -1.95,-2.29 -3.28,-3.12l1.34 -1.5c1.37,0.7 2.52,1.74 3.44,3.12zm-2.3 1.83l-1.58 1.47c-0.67,-1.18 -1.74,-2.22 -3.21,-3.11l1.35 -1.48c1.36,0.71 2.5,1.75 3.44,3.12zm-1.19 3.04c-3.17,2.54 -6.41,4.4 -9.72,5.6l0 2.34c0,0.61 0.11,1.01 0.35,1.2 0.18,0.15 0.58,0.23 1.2,0.23l8.03 0 0 2.35 -8.05 0c-1.73,0 -2.83,-0.21 -3.3,-0.63 -0.49,-0.42 -0.73,-1.43 -0.73,-3.03l0 -11.71 2.51 0 0 6.74c3.09,-1.28 5.87,-2.98 8.35,-5.1l1.37 2.01zm18.41 -2.35l-1.64 1.55c-0.95,-1.48 -2.27,-2.67 -3.98,-3.58l1.47 -1.7c1.69,1 3.07,2.25 4.15,3.74zm7.24 5.27c-1.59,2.47 -3.33,4.49 -5.22,6.06 -1.89,1.58 -4.14,2.85 -6.72,3.82l-1.59 -1.88c2.74,-0.94 5.06,-2.15 6.97,-3.62 2.09,-1.6 3.89,-3.67 5.42,-6.21l1.15 1.82zm-8.9 0.47l-1.57 1.55c-1.55,-1.8 -3.17,-3.08 -4.87,-3.83l1.31 -1.95c2.08,1.01 3.79,2.43 5.13,4.24zm31.52 9.18l-2.43 0 0 -1.01 -7.83 0 0 -2.34 7.83 0 0 -2.23 -7.44 0 0 -2.34 7.44 0 0 -2.04 -7.83 0 0 -2.3 10.26 0 0 12.25zm18.99 -13.53l-1.68 2.04c-1.18,-1.46 -2.62,-2.82 -4.32,-4.07l1.55 -1.98c1.68,1.11 3.16,2.45 4.45,4.02zm7.53 2.71c-2.8,4.63 -6.91,8.25 -12.34,10.84l-1.76 -2.07c2.45,-1.07 4.72,-2.4 6.79,-3.99 2.6,-2 4.63,-4.21 6.09,-6.65l1.22 1.87z"/>
   <g id="atau-belgi.svg">
    <path class="fil0 str0" d="M79.25 28.79c-14.7,2.32 -19.59,11.55 -21.04,16.96 -1.26,4.69 -0.9,12.4 9.59,12.66 3.4,0 13.3,-0.03 21.42,0 10.08,0.03 12.89,-8.04 12.66,-14.98 -0.44,-12.59 -11.77,-16.34 -22.63,-14.64z"/>
    <path class="fil2" d="M66.05 46.63c0,-2.92 2.39,-5.31 5.31,-5.31 2.92,0 5.31,2.39 5.31,5.31 0,2.92 -2.39,5.31 -5.31,5.31 -2.92,0 -5.31,-2.39 -5.31,-5.31z"/>
   </g>
  </g>
 </g>
</svg>
