<?xml version="1.0" encoding="UTF-8"?>
<!DOCTYPE svg PUBLIC "-//W3C//DTD SVG 1.1//EN" "http://www.w3.org/Graphics/SVG/1.1/DTD/svg11.dtd">
<!-- Creator: CorelDRAW 2020 -->
<svg xmlns="http://www.w3.org/2000/svg" xml:space="preserve" width="11mm" height="10mm" version="1.1" style="shape-rendering:geometricPrecision; text-rendering:geometricPrecision; image-rendering:optimizeQuality; fill-rule:evenodd; clip-rule:evenodd"
viewBox="0 0 436.5 396.82"
 xmlns:xlink="http://www.w3.org/1999/xlink"
 xmlns:xodm="http://www.corel.com/coreldraw/odm/2003">
 <defs>
  <style type="text/css">
   <![CDATA[
    .str0 {stroke:#D7B56D;stroke-width:7.94;stroke-miterlimit:22.9256}
    .fil0 {fill:none}
    .fil1 {fill:#D7B56D}
    .fil2 {fill:#AF9778;fill-rule:nonzero}
   ]]>
  </style>
 </defs>
 <g id="Layer_x0020_1">
  <metadata id="CorelCorpID_0Corel-Layer"/>
  <g id="_1090627800">
   <polygon class="fil0" points="-0,0 436.5,0 436.5,396.82 -0,396.82 "/>
   <g>
    <g>
     <polygon class="fil0 str0" points="111.93,171.5 170.67,171.5 170.67,241.82 111.93,241.82 "/>
     <polygon class="fil0 str0" points="111.93,86.67 170.67,86.67 170.67,155.02 111.93,155.02 "/>
     <polygon class="fil1" points="170.67,241.82 170.67,171.5 111.93,171.5 111.93,241.82 "/>
     <polygon class="fil1" points="111.93,155.02 170.67,155.02 170.67,86.67 111.93,86.67 "/>
     <path class="fil0 str0" d="M334.3 109.6c0.38,-3.17 0.58,-6.41 0.58,-9.71 0,-38.82 -27.4,-70.29 -61.21,-70.29 -33.8,0 -61.21,31.47 -61.21,70.29 0,3.29 0.19,6.54 0.58,9.71"/>
     <line class="fil0 str0" x1="189.97" y1="109.6" x2="341.86" y2= "109.6" />
     <polyline class="fil0 str0" points="191.84,196.11 286.53,208.88 286.53,175.36 "/>
     <path class="fil1 str0" d="M329.27 158.48l-42.17 0c-4.64,0 -8.43,3.79 -8.43,8.43l0 0.01c0,4.63 3.79,8.43 8.43,8.43l42.17 0c4.64,0 8.43,-3.8 8.43,-8.43l0 -0.01c0,-4.64 -3.79,-8.43 -8.43,-8.43z"/>
     <path class="fil1" d="M213.04 109.6l121.27 0c0.38,-3.16 0.58,-6.41 0.58,-9.7 0,-38.83 -27.4,-70.3 -61.21,-70.3 -33.8,0 -61.21,31.47 -61.21,70.3 0,3.29 0.19,6.54 0.58,9.7z"/>
    </g>
    <path class="fil2" d="M88.06 359.59l-7.26 0 0 -14.82 -1.23 0 -9.56 -16.21c-1.57,-2.66 -2.91,-4.52 -4.05,-5.56 -1.71,-1.61 -3.76,-2.42 -6.13,-2.42l0 24.19 -8.87 0 0 -52.31 8.87 0 0 22.58c3.29,0 5.75,-1.06 7.33,-3.19 0.52,-0.69 1.73,-3.33 3.59,-7.88 1.3,-3.14 2.29,-5.24 2.94,-6.3 1.44,-2.38 3.13,-3.9 5.04,-4.52 1.43,-0.46 3.69,-0.69 6.84,-0.69l1.78 0 0 7.36 -2.47 -0.05c-2.47,-0.04 -4.2,0.6 -5.23,1.91 -0.33,0.44 -1.13,2.29 -2.42,5.56 -1.21,3.09 -2.29,5.24 -3.19,6.45 -1.26,1.63 -3.14,3.04 -5.68,4.22 3.85,1 7.59,4.57 11.25,10.67l5.38 8.94 3.06 0 0 22.07zm49.94 -67.13l-19.76 52.31 15.83 0 0 6.45 -15.83 0 0 13.61 -8.87 0 0 -13.61 -15.92 0 0 -6.45 15.92 0 -19.85 -52.31 9.47 0 10.99 30.29c1.53,4.18 2.8,8.21 3.83,12.13 0.94,-3.58 2.23,-7.63 3.83,-12.13l10.89 -30.29 9.47 0zm16.95 46.6c-1.61,5.92 -3.11,14.19 -4.52,24.86l-1.38 9.29c-0.24,1.31 -0.84,2.62 -1.83,3.91 -0.98,1.29 -1.88,1.95 -2.71,1.95 -1.02,0 -2.16,-0.52 -3.48,-1.54 -1.29,-1.04 -1.93,-1.87 -1.93,-2.49 0,-1.81 0.4,-4.3 1.23,-7.49 6,-24.24 9,-45.54 9,-63.87l-0.05 -4.13c-0.07,-3.54 0.56,-6.13 1.87,-7.73 1.33,-1.61 2.82,-2.42 4.54,-2.42 0.79,0 1.54,0.62 2.27,1.85 0.72,1.23 1.07,2.97 1.07,5.24 0,3.17 -0.32,7.04 -0.97,11.56 -0.86,5.71 -1.29,9.01 -1.33,9.85 4.89,-8.52 10.06,-15.19 15.54,-19.97 5.48,-4.79 10.57,-7.19 15.27,-7.19 3.31,0 6.1,1.24 8.38,3.71 2.29,2.49 3.42,5.56 3.42,9.24 0,10.68 -4.1,20.41 -12.31,29.13 -8.2,8.74 -16.2,13.09 -23.96,13.09 -1.95,0 -3.48,-0.49 -4.6,-1.46 -1.14,-0.99 -2.32,-2.79 -3.53,-5.38zm30.55 -39.61c-4.62,0 -10.35,4.33 -17.17,12.99 -6.82,8.67 -10.23,15.4 -10.23,20.22 0,1.19 0.67,2.33 2.02,3.44 1.35,1.13 3.04,1.68 5.11,1.68 4.71,0 10.1,-3.48 16.19,-10.42 6.11,-6.94 9.15,-13.74 9.15,-20.44 0,-2.4 -0.48,-4.23 -1.44,-5.54 -0.97,-1.29 -2.18,-1.93 -3.63,-1.93zm52.71 5.21c-0.79,-0.03 -1.56,0.72 -2.3,2.27 -6.8,13.59 -11.93,22.8 -15.4,27.67 -0.3,0.42 -0.69,1.04 -1.14,1.87 -4.1,7.31 -7.11,10.97 -9,10.97 -2.55,0 -3.83,-1.23 -3.83,-3.69 0,-2.22 1.58,-5.26 4.77,-9.1 3.08,-3.63 7.12,-9.81 12.15,-18.53 5.02,-8.7 9.09,-16.52 12.21,-23.45 0.59,-1.24 1.48,-1.86 2.65,-1.86 0.48,0 1.38,0.21 2.63,0.67 1.26,0.44 2.06,0.92 2.44,1.44 0.35,0.52 1.16,3.58 2.4,9.15 4.05,20.11 8.3,32.04 12.75,35.78 1.06,0.92 1.68,1.53 1.88,1.85 0.18,0.3 0.29,0.74 0.29,1.29 0,1.02 -0.32,1.95 -0.98,2.79 -0.67,0.84 -1.31,1.36 -1.93,1.6 -0.62,0.24 -1.9,0.35 -3.83,0.35 -0.69,0 -2.3,-1.69 -4.82,-5.1 -2.54,-3.39 -5.5,-12.65 -8.87,-27.77 -0.82,-4.08 -1.51,-6.81 -2.07,-8.18zm44 -15.64c0.44,-0.3 0.91,-0.46 1.43,-0.46 0.82,0 1.51,1.11 2.06,3.31 0,1.41 -0.37,3.19 -1.12,5.36 -2.23,6.2 -3.34,10.53 -3.34,12.98 0,0.65 0.18,1.03 0.59,1.1 7.54,-7.26 14.53,-10.89 20.96,-10.89 3.96,0 7.31,1.51 10,4.5 2.69,3 4.03,5.76 4.03,8.25 0,7.61 -3.88,14.92 -11.64,21.92 -7.77,7.01 -15.58,10.52 -23.46,10.52 -3.51,0 -6.25,-1.46 -8.2,-4.35 -1.95,-2.9 -2.92,-7.08 -2.92,-12.48 0,-5.88 0.74,-12.36 2.22,-19.48 1.48,-7.13 2.65,-11.88 3.54,-14.28 0.35,-1.02 0.69,-2.05 0.97,-3.11 0.34,-1.31 1.96,-2.27 4.87,-2.89zm-2.3 30.86c-0.65,3.63 -0.99,7.27 -0.99,10.92 0,4.96 1.94,7.42 5.86,7.42 4.39,0 9.31,-2.62 14.77,-7.86 5.44,-5.26 8.17,-10.36 8.17,-15.32 0,-2.04 -0.54,-3.73 -1.63,-5.11 -1.08,-1.38 -2.57,-2.06 -4.47,-2.06 -2.61,0 -5.16,0.63 -7.66,1.93 -2.5,1.31 -5.31,3.39 -8.38,6.28 -1.19,1.11 -2.13,1.98 -2.84,2.59 -0.7,0.6 -1.65,1.01 -2.82,1.21zm49.55 11.31c0,2.5 0.34,5.31 1.03,8.41 0.13,0.61 0.2,1.1 0.2,1.48 0,0.59 -0.54,1.36 -1.63,2.3 -1.08,0.92 -2.22,1.39 -3.44,1.39 -3.17,0 -4.77,-2.92 -4.77,-8.77 0,-5.8 1.26,-15.54 3.8,-29.23 0.9,-4.98 1.37,-8 1.37,-9.05 0,-2.07 0.37,-3.83 1.13,-5.29 0.76,-1.46 1.83,-2.18 3.21,-2.18 1.66,0 2.99,0.4 3.95,1.21 0.97,0.81 1.46,1.7 1.46,2.67 0,0.99 -0.23,2.35 -0.69,4.08 -2.57,9.36 -4.13,15.91 -4.72,19.64 -0.61,3.75 -0.89,8.2 -0.89,13.34zm29.59 16.4c-4.92,0 -8.72,-1.41 -11.36,-4.24 -2.64,-2.82 -3.96,-6.77 -3.96,-11.86 0,-8.57 3.39,-17.59 10.19,-27.09 6.79,-9.49 13.11,-14.25 18.95,-14.25 2.65,0 4.94,1.43 6.85,4.3 1.93,2.87 2.89,5.92 2.89,9.14 0,1.93 -0.42,3.6 -1.26,4.99 -0.84,1.4 -1.68,2.1 -2.54,2.1 -1.9,0 -3.24,-1.93 -4.03,-5.76 -0.89,-4.13 -2.17,-6.2 -3.85,-6.2 -3.41,0 -7.44,4.05 -12.09,12.15 -4.67,8.11 -6.99,14.95 -6.99,20.53 0,5.58 3.16,8.36 9.49,8.36 4.82,0 10.5,-2.27 17.03,-6.79 2.3,-1.61 3.98,-2.42 5.08,-2.42 1.11,0 1.66,0.64 1.66,1.93 0,2.49 -2.94,5.63 -8.8,9.42 -5.88,3.78 -11.64,5.68 -17.27,5.68z"/>
   </g>
  </g>
 </g>
</svg>
