<?xml version="1.0" encoding="UTF-8"?>
<!DOCTYPE svg PUBLIC "-//W3C//DTD SVG 1.1//EN" "http://www.w3.org/Graphics/SVG/1.1/DTD/svg11.dtd">
<!-- Creator: CorelDRAW 2020 -->
<svg xmlns="http://www.w3.org/2000/svg" xml:space="preserve" width="9.4736mm" height="9.5922mm" version="1.1" style="shape-rendering:geometricPrecision; text-rendering:geometricPrecision; image-rendering:optimizeQuality; fill-rule:evenodd; clip-rule:evenodd"
viewBox="0 0 156.89 158.86"
 xmlns:xlink="http://www.w3.org/1999/xlink"
 xmlns:xodm="http://www.corel.com/coreldraw/odm/2003">
 <defs>
  <style type="text/css">
   <![CDATA[
    .str0 {stroke:#C6B93A;stroke-width:8.28;stroke-miterlimit:22.9256}
    .str1 {stroke:#C6B93A;stroke-width:3.31;stroke-miterlimit:22.9256}
    .fil0 {fill:none}
    .fil1 {fill:#C6B93A}
    .fil2 {fill:#C6B93A;fill-rule:nonzero}
   ]]>
  </style>
 </defs>
 <g id="Layer_x0020_1">
  <metadata id="CorelCorpID_0Corel-Layer"/>
  <line class="fil0 str0" x1="23.07" y1="94.53" x2="134.08" y2= "94.53" />
  <rect class="fil0 str1" x="33.72" y="60.88" width="24.52" height="29.35"/>
  <rect class="fil0 str1" x="33.72" y="25.47" width="24.52" height="28.53"/>
  <polygon class="fil1" points="58.23,90.22 58.23,60.87 33.72,60.87 33.72,90.22 "/>
  <polygon class="fil1" points="33.72,54 58.23,54 58.23,25.47 33.72,25.47 "/>
  <path class="fil0 str1" d="M126.52 35.04c0.16,-1.32 0.24,-2.68 0.24,-4.05 0,-16.2 -11.44,-29.34 -25.55,-29.34 -14.11,0 -25.55,13.13 -25.55,29.34 0,1.37 0.08,2.73 0.24,4.05"/>
  <line class="fil0 str1" x1="66.29" y1="35.04" x2="129.68" y2= "35.04" />
  <polyline class="fil0 str1" points="67.07,71.15 106.59,76.48 106.59,62.48 "/>
  <rect class="fil1 str1" x="103.3" y="55.44" width="24.64" height="7.04" rx="4.2" ry="3.52"/>
  <path class="fil1" d="M75.91 35.04l50.61 0c0.16,-1.32 0.24,-2.67 0.24,-4.05 0,-16.2 -11.44,-29.34 -25.55,-29.34 -14.11,0 -25.55,13.13 -25.55,29.34 0,1.37 0.08,2.73 0.24,4.05z"/>
  <path class="fil2" d="M17.42 149.71l-3.41 0 0 -6.96 -0.58 0 -4.49 -7.61c-0.74,-1.25 -1.36,-2.12 -1.9,-2.61 -0.8,-0.76 -1.77,-1.14 -2.88,-1.14l0 11.36 -4.17 0 0 -24.56 4.17 0 0 10.6c1.55,0 2.7,-0.5 3.44,-1.5 0.25,-0.32 0.81,-1.56 1.69,-3.7 0.61,-1.48 1.07,-2.46 1.38,-2.96 0.68,-1.12 1.47,-1.83 2.37,-2.12 0.67,-0.21 1.74,-0.32 3.21,-0.32l0.84 0 0 3.45 -1.16 -0.02c-1.16,-0.02 -1.97,0.28 -2.45,0.9 -0.16,0.2 -0.53,1.07 -1.14,2.61 -0.57,1.45 -1.07,2.46 -1.5,3.03 -0.59,0.77 -1.48,1.43 -2.67,1.98 1.81,0.47 3.57,2.14 5.28,5.01l2.53 4.19 1.44 0 0 10.36zm23.45 -31.52l-9.27 24.56 7.43 0 0 3.03 -7.43 0 0 6.39 -4.17 0 0 -6.39 -7.48 0 0 -3.03 7.48 0 -9.32 -24.56 4.45 0 5.16 14.22c0.72,1.96 1.32,3.86 1.8,5.69 0.44,-1.68 1.05,-3.58 1.8,-5.69l5.11 -14.22 4.45 0zm7.96 21.88c-0.76,2.78 -1.46,6.66 -2.12,11.67l-0.65 4.36c-0.11,0.61 -0.39,1.23 -0.86,1.84 -0.46,0.61 -0.88,0.92 -1.27,0.92 -0.48,0 -1.02,-0.25 -1.63,-0.73 -0.61,-0.49 -0.91,-0.88 -0.91,-1.17 0,-0.85 0.19,-2.02 0.58,-3.52 2.82,-11.38 4.23,-21.38 4.23,-29.99l-0.02 -1.94c-0.03,-1.66 0.26,-2.88 0.88,-3.63 0.62,-0.76 1.32,-1.13 2.13,-1.13 0.37,0 0.73,0.29 1.07,0.87 0.34,0.58 0.5,1.4 0.5,2.46 0,1.49 -0.15,3.31 -0.46,5.43 -0.4,2.68 -0.61,4.23 -0.63,4.62 2.3,-4 4.72,-7.13 7.3,-9.38 2.57,-2.25 4.96,-3.38 7.17,-3.38 1.56,0 2.86,0.58 3.94,1.74 1.07,1.17 1.61,2.61 1.61,4.34 0,5.01 -1.92,9.58 -5.78,13.67 -3.85,4.1 -7.6,6.15 -11.25,6.15 -0.91,0 -1.63,-0.23 -2.16,-0.69 -0.54,-0.47 -1.09,-1.31 -1.66,-2.52zm14.35 -18.6c-2.17,0 -4.86,2.04 -8.06,6.1 -3.2,4.07 -4.8,7.23 -4.8,9.5 0,0.56 0.32,1.1 0.95,1.62 0.63,0.53 1.43,0.79 2.4,0.79 2.21,0 4.74,-1.63 7.6,-4.89 2.87,-3.26 4.3,-6.45 4.3,-9.6 0,-1.13 -0.23,-1.99 -0.68,-2.6 -0.46,-0.61 -1.03,-0.91 -1.7,-0.91zm24.75 2.44c-0.37,-0.01 -0.73,0.34 -1.08,1.07 -3.19,6.38 -5.6,10.7 -7.23,12.99 -0.14,0.2 -0.32,0.49 -0.54,0.88 -1.92,3.43 -3.34,5.15 -4.23,5.15 -1.2,0 -1.8,-0.57 -1.8,-1.74 0,-1.04 0.74,-2.47 2.24,-4.27 1.44,-1.7 3.34,-4.61 5.7,-8.7 2.36,-4.09 4.26,-7.75 5.73,-11.01 0.27,-0.58 0.69,-0.87 1.25,-0.87 0.23,0 0.65,0.1 1.24,0.31 0.59,0.21 0.97,0.43 1.14,0.68 0.16,0.24 0.54,1.68 1.13,4.3 1.9,9.44 3.9,15.04 5.99,16.8 0.5,0.43 0.79,0.72 0.88,0.87 0.09,0.14 0.13,0.35 0.13,0.61 0,0.48 -0.15,0.92 -0.46,1.31 -0.32,0.4 -0.62,0.64 -0.91,0.75 -0.29,0.11 -0.89,0.17 -1.8,0.17 -0.32,0 -1.08,-0.8 -2.26,-2.4 -1.19,-1.59 -2.58,-5.94 -4.17,-13.04 -0.39,-1.92 -0.71,-3.19 -0.97,-3.84zm20.66 -7.34c0.2,-0.14 0.43,-0.21 0.67,-0.21 0.39,0 0.71,0.52 0.97,1.56 0,0.66 -0.17,1.5 -0.53,2.52 -1.05,2.91 -1.57,4.94 -1.57,6.1 0,0.31 0.09,0.48 0.28,0.51 3.54,-3.41 6.82,-5.11 9.84,-5.11 1.86,0 3.43,0.71 4.7,2.11 1.26,1.41 1.89,2.7 1.89,3.87 0,3.57 -1.82,7 -5.47,10.29 -3.64,3.29 -7.31,4.94 -11.01,4.94 -1.65,0 -2.93,-0.69 -3.85,-2.04 -0.91,-1.36 -1.37,-3.32 -1.37,-5.86 0,-2.76 0.35,-5.8 1.04,-9.15 0.69,-3.35 1.25,-5.58 1.66,-6.7 0.17,-0.48 0.32,-0.96 0.46,-1.46 0.16,-0.62 0.92,-1.06 2.29,-1.36zm-1.08 14.49c-0.31,1.7 -0.47,3.41 -0.47,5.13 0,2.33 0.91,3.49 2.75,3.49 2.06,0 4.37,-1.23 6.93,-3.69 2.55,-2.47 3.83,-4.87 3.83,-7.19 0,-0.96 -0.25,-1.75 -0.77,-2.4 -0.5,-0.65 -1.21,-0.97 -2.1,-0.97 -1.22,0 -2.42,0.3 -3.6,0.91 -1.18,0.61 -2.49,1.59 -3.94,2.95 -0.56,0.52 -1,0.93 -1.33,1.22 -0.33,0.28 -0.77,0.47 -1.32,0.57zm23.27 5.31c0,1.17 0.16,2.49 0.48,3.95 0.06,0.28 0.09,0.51 0.09,0.69 0,0.27 -0.25,0.64 -0.77,1.08 -0.5,0.43 -1.04,0.66 -1.62,0.66 -1.49,0 -2.24,-1.37 -2.24,-4.12 0,-2.72 0.59,-7.3 1.78,-13.73 0.42,-2.34 0.65,-3.75 0.65,-4.25 0,-0.97 0.17,-1.8 0.53,-2.49 0.35,-0.69 0.86,-1.03 1.51,-1.03 0.78,0 1.4,0.19 1.85,0.57 0.46,0.38 0.69,0.8 0.69,1.26 0,0.47 -0.11,1.1 -0.32,1.91 -1.21,4.4 -1.94,7.47 -2.22,9.22 -0.28,1.76 -0.42,3.85 -0.42,6.26zm13.89 7.7c-2.31,0 -4.09,-0.66 -5.33,-1.99 -1.24,-1.33 -1.86,-3.18 -1.86,-5.57 0,-4.02 1.59,-8.26 4.79,-12.72 3.19,-4.46 6.15,-6.69 8.9,-6.69 1.25,0 2.32,0.67 3.22,2.02 0.91,1.35 1.36,2.78 1.36,4.29 0,0.91 -0.2,1.69 -0.59,2.34 -0.39,0.66 -0.79,0.99 -1.19,0.99 -0.89,0 -1.52,-0.91 -1.89,-2.71 -0.42,-1.94 -1.02,-2.91 -1.8,-2.91 -1.6,0 -3.5,1.9 -5.68,5.7 -2.19,3.81 -3.28,7.02 -3.28,9.64 0,2.62 1.48,3.93 4.46,3.93 2.26,0 4.93,-1.07 8,-3.19 1.08,-0.76 1.87,-1.14 2.38,-1.14 0.52,0 0.78,0.3 0.78,0.91 0,1.17 -1.38,2.64 -4.13,4.43 -2.76,1.78 -5.47,2.67 -8.11,2.67z"/>
 </g>
</svg>
