<?xml version="1.0" encoding="UTF-8"?>
<!DOCTYPE svg PUBLIC "-//W3C//DTD SVG 1.1//EN" "http://www.w3.org/Graphics/SVG/1.1/DTD/svg11.dtd">
<!-- Creator: CorelDRAW 2020 -->
<svg xmlns="http://www.w3.org/2000/svg" xml:space="preserve" width="11mm" height="10mm" version="1.1" style="shape-rendering:geometricPrecision; text-rendering:geometricPrecision; image-rendering:optimizeQuality; fill-rule:evenodd; clip-rule:evenodd"
viewBox="0 0 436.5 396.82"
 xmlns:xlink="http://www.w3.org/1999/xlink"
 xmlns:xodm="http://www.corel.com/coreldraw/odm/2003">
 <defs>
  <style type="text/css">
   <![CDATA[
    .str0 {stroke:#C6B93A;stroke-width:7.94;stroke-miterlimit:22.9256}
    .fil0 {fill:none}
    .fil1 {fill:#C6B93A}
    .fil2 {fill:#C6B93A;fill-rule:nonzero}
   ]]>
  </style>
 </defs>
 <g id="Layer_x0020_1">
  <metadata id="CorelCorpID_0Corel-Layer"/>
  <g id="_956274472">
   <polygon class="fil0" points="-0,0 436.5,0 436.5,396.82 -0,396.82 "/>
   <g>
    <g>
     <polygon class="fil0 str0" points="111.93,171.5 170.67,171.5 170.67,241.82 111.93,241.82 "/>
     <polygon class="fil0 str0" points="111.93,86.67 170.67,86.67 170.67,155.02 111.93,155.02 "/>
     <polygon class="fil1" points="170.67,241.82 170.67,171.5 111.93,171.5 111.93,241.82 "/>
     <polygon class="fil1" points="111.93,155.02 170.67,155.02 170.67,86.67 111.93,86.67 "/>
     <path class="fil0 str0" d="M334.3 109.6c0.38,-3.17 0.58,-6.41 0.58,-9.71 0,-38.82 -27.4,-70.29 -61.21,-70.29 -33.8,0 -61.21,31.47 -61.21,70.29 0,3.29 0.19,6.54 0.58,9.71"/>
     <line class="fil0 str0" x1="189.97" y1="109.6" x2="341.86" y2= "109.6" />
     <polyline class="fil0 str0" points="191.84,196.11 286.53,208.88 286.53,175.36 "/>
     <path class="fil1 str0" d="M329.27 158.48l-42.17 0c-4.64,0 -8.43,3.79 -8.43,8.43l0 0.01c0,4.63 3.79,8.43 8.43,8.43l42.17 0c4.64,0 8.43,-3.8 8.43,-8.43l0 -0.01c0,-4.64 -3.79,-8.43 -8.43,-8.43z"/>
     <path class="fil1" d="M213.04 109.6l121.27 0c0.38,-3.16 0.58,-6.41 0.58,-9.7 0,-38.83 -27.4,-70.3 -61.21,-70.3 -33.8,0 -61.21,31.47 -61.21,70.3 0,3.29 0.19,6.54 0.58,9.7z"/>
    </g>
    <path class="fil2" d="M71.82 362.81l-8.17 0 0 -16.67 -1.38 0 -10.75 -18.24c-1.76,-2.99 -3.27,-5.09 -4.56,-6.26 -1.93,-1.81 -4.23,-2.72 -6.9,-2.72l0 27.22 -9.98 0 0 -58.85 9.98 0 0 25.4c3.7,0 6.46,-1.19 8.24,-3.59 0.59,-0.78 1.94,-3.74 4.04,-8.86 1.46,-3.54 2.57,-5.9 3.31,-7.09 1.63,-2.68 3.52,-4.38 5.67,-5.08 1.61,-0.51 4.16,-0.78 7.69,-0.78l2 0 0 8.28 -2.78 -0.06c-2.78,-0.04 -4.73,0.68 -5.88,2.15 -0.38,0.49 -1.27,2.57 -2.72,6.25 -1.36,3.48 -2.57,5.9 -3.59,7.25 -1.42,1.84 -3.54,3.42 -6.39,4.75 4.33,1.13 8.54,5.14 12.66,12l6.05 10.05 3.44 0 0 24.83zm56.18 -75.52l-22.22 58.85 17.8 0 0 7.25 -17.8 0 0 15.31 -9.98 0 0 -15.31 -17.91 0 0 -7.25 17.91 0 -22.33 -58.85 10.65 0 12.36 34.07c1.72,4.7 3.15,9.24 4.31,13.64 1.06,-4.02 2.52,-8.58 4.31,-13.64l12.25 -34.07 10.65 0zm19.07 52.42c-1.81,6.65 -3.5,15.97 -5.08,27.97l-1.55 10.45c-0.26,1.47 -0.94,2.94 -2.06,4.4 -1.1,1.46 -2.12,2.19 -3.04,2.19 -1.15,0 -2.44,-0.59 -3.91,-1.74 -1.46,-1.17 -2.17,-2.1 -2.17,-2.8 0,-2.04 0.46,-4.84 1.38,-8.43 6.75,-27.27 10.13,-51.24 10.13,-71.85l-0.06 -4.65c-0.08,-3.99 0.62,-6.9 2.1,-8.69 1.49,-1.81 3.17,-2.72 5.1,-2.72 0.89,0 1.74,0.69 2.56,2.08 0.81,1.38 1.21,3.35 1.21,5.9 0,3.57 -0.36,7.92 -1.09,13 -0.96,6.43 -1.46,10.13 -1.5,11.08 5.5,-9.58 11.32,-17.08 17.48,-22.47 6.16,-5.39 11.89,-8.09 17.18,-8.09 3.73,0 6.86,1.4 9.43,4.17 2.57,2.8 3.85,6.26 3.85,10.4 0,12.02 -4.61,22.96 -13.85,32.77 -9.23,9.83 -18.22,14.73 -26.95,14.73 -2.19,0 -3.91,-0.55 -5.18,-1.65 -1.29,-1.12 -2.61,-3.13 -3.97,-6.05zm34.38 -44.56c-5.2,0 -11.64,4.88 -19.31,14.61 -7.67,9.75 -11.51,17.33 -11.51,22.75 0,1.34 0.76,2.63 2.27,3.87 1.51,1.27 3.42,1.89 5.75,1.89 5.29,0 11.36,-3.92 18.22,-11.72 6.88,-7.81 10.3,-15.46 10.3,-23 0,-2.71 -0.55,-4.77 -1.62,-6.24 -1.1,-1.46 -2.46,-2.17 -4.08,-2.17zm59.3 5.86c-0.89,-0.04 -1.76,0.81 -2.59,2.56 -7.65,15.29 -13.42,25.65 -17.33,31.12 -0.34,0.48 -0.77,1.17 -1.29,2.1 -4.61,8.22 -8,12.34 -10.13,12.34 -2.87,0 -4.31,-1.38 -4.31,-4.16 0,-2.5 1.78,-5.91 5.37,-10.24 3.46,-4.08 8.01,-11.04 13.67,-20.84 5.65,-9.79 10.22,-18.58 13.74,-26.38 0.66,-1.4 1.66,-2.1 2.98,-2.1 0.55,0 1.55,0.24 2.97,0.75 1.42,0.49 2.32,1.04 2.74,1.63 0.39,0.58 1.3,4.02 2.7,10.3 4.55,22.62 9.33,36.04 14.34,40.26 1.19,1.04 1.89,1.72 2.12,2.08 0.21,0.34 0.32,0.83 0.32,1.45 0,1.15 -0.36,2.19 -1.1,3.13 -0.76,0.95 -1.48,1.53 -2.17,1.8 -0.7,0.27 -2.14,0.4 -4.31,0.4 -0.77,0 -2.59,-1.91 -5.42,-5.74 -2.85,-3.82 -6.18,-14.23 -9.98,-31.24 -0.92,-4.59 -1.7,-7.65 -2.32,-9.21zm49.49 -17.59c0.49,-0.34 1.02,-0.51 1.61,-0.51 0.92,0 1.7,1.25 2.32,3.73 0,1.58 -0.42,3.59 -1.27,6.03 -2.52,6.97 -3.76,11.84 -3.76,14.61 0,0.73 0.21,1.15 0.66,1.23 8.48,-8.17 16.34,-12.25 23.58,-12.25 4.46,0 8.22,1.7 11.25,5.07 3.02,3.38 4.54,6.48 4.54,9.28 0,8.56 -4.37,16.78 -13.1,24.66 -8.73,7.88 -17.52,11.83 -26.38,11.83 -3.95,0 -7.03,-1.65 -9.22,-4.9 -2.19,-3.27 -3.29,-7.96 -3.29,-14.04 0,-6.61 0.83,-13.9 2.5,-21.92 1.66,-8.02 2.99,-13.36 3.99,-16.06 0.4,-1.15 0.77,-2.31 1.1,-3.5 0.38,-1.48 2.21,-2.55 5.48,-3.25zm-2.59 34.72c-0.74,4.08 -1.12,8.18 -1.12,12.28 0,5.58 2.19,8.35 6.6,8.35 4.94,0 10.47,-2.95 16.61,-8.84 6.12,-5.92 9.18,-11.66 9.18,-17.24 0,-2.29 -0.61,-4.19 -1.83,-5.75 -1.21,-1.55 -2.89,-2.33 -5.03,-2.33 -2.93,0 -5.8,0.72 -8.61,2.17 -2.82,1.47 -5.97,3.82 -9.43,7.07 -1.35,1.25 -2.4,2.23 -3.19,2.91 -0.79,0.68 -1.85,1.13 -3.17,1.36zm55.75 12.72c0,2.81 0.38,5.97 1.15,9.47 0.15,0.68 0.23,1.23 0.23,1.66 0,0.66 -0.61,1.53 -1.83,2.59 -1.21,1.04 -2.49,1.57 -3.88,1.57 -3.57,0 -5.36,-3.29 -5.36,-9.86 0,-6.52 1.42,-17.48 4.27,-32.89 1.02,-5.61 1.55,-9 1.55,-10.18 0,-2.33 0.42,-4.31 1.27,-5.96 0.85,-1.64 2.06,-2.46 3.61,-2.46 1.87,0 3.37,0.45 4.44,1.36 1.1,0.91 1.65,1.91 1.65,3.01 0,1.12 -0.27,2.64 -0.78,4.59 -2.89,10.53 -4.65,17.9 -5.31,22.09 -0.68,4.21 -1,9.22 -1,15.01zm33.28 18.44c-5.54,0 -9.81,-1.59 -12.77,-4.76 -2.97,-3.18 -4.46,-7.61 -4.46,-13.34 0,-9.63 3.82,-19.79 11.47,-30.48 7.63,-10.68 14.74,-16.03 21.32,-16.03 2.98,0 5.56,1.61 7.71,4.84 2.17,3.23 3.25,6.65 3.25,10.28 0,2.17 -0.47,4.04 -1.42,5.61 -0.94,1.57 -1.89,2.37 -2.86,2.37 -2.13,0 -3.64,-2.17 -4.54,-6.48 -1,-4.65 -2.43,-6.98 -4.32,-6.98 -3.84,0 -8.38,4.56 -13.61,13.67 -5.25,9.13 -7.86,16.82 -7.86,23.09 0,6.27 3.55,9.41 10.68,9.41 5.42,0 11.81,-2.56 19.16,-7.63 2.59,-1.82 4.48,-2.72 5.71,-2.72 1.25,0 1.87,0.72 1.87,2.17 0,2.8 -3.31,6.33 -9.9,10.6 -6.61,4.25 -13.09,6.39 -19.43,6.39z"/>
   </g>
   <line class="fil0 str0" x1="19.84" y1="389.89" x2="416.66" y2= "389.89" />
  </g>
 </g>
</svg>
