<?xml version="1.0" encoding="UTF-8"?>
<!DOCTYPE svg PUBLIC "-//W3C//DTD SVG 1.1//EN" "http://www.w3.org/Graphics/SVG/1.1/DTD/svg11.dtd">
<!-- Creator: CorelDRAW 2020 -->
<svg xmlns="http://www.w3.org/2000/svg" xml:space="preserve" width="11.4186mm" height="9.0401mm" version="1.1" style="shape-rendering:geometricPrecision; text-rendering:geometricPrecision; image-rendering:optimizeQuality; fill-rule:evenodd; clip-rule:evenodd"
viewBox="0 0 159.19 126.03"
 xmlns:xlink="http://www.w3.org/1999/xlink"
 xmlns:xodm="http://www.corel.com/coreldraw/odm/2003">
 <defs>
  <style type="text/css">
   <![CDATA[
    .str0 {stroke:#F5874F;stroke-width:6.97;stroke-miterlimit:22.9256}
    .str1 {stroke:#F5874F;stroke-width:2.79;stroke-miterlimit:22.9256}
    .fil0 {fill:none}
    .fil1 {fill:#F5874F}
    .fil2 {fill:#F5874F;fill-rule:nonzero}
   ]]>
  </style>
 </defs>
 <g id="Layer_x0020_1">
  <metadata id="CorelCorpID_0Corel-Layer"/>
  <line class="fil0 str0" x1="30.71" y1="79.58" x2="124.16" y2= "79.58" />
  <path class="fil0 str1" d="M105.25 23.4c0.11,-0.87 0.17,-1.76 0.17,-2.67 0,-10.68 -7.99,-19.34 -17.85,-19.34 -9.86,0 -17.85,8.66 -17.85,19.34 0,0.91 0.06,1.8 0.17,2.67"/>
  <line class="fil0 str1" x1="63.16" y1="23.4" x2="107.45" y2= "23.4" />
  <path class="fil1" d="M69.89 23.4l35.36 0c0.11,-0.87 0.17,-1.76 0.17,-2.67 0,-10.68 -7.99,-19.34 -17.85,-19.34 -9.86,0 -17.85,8.66 -17.85,19.34 0,0.9 0.06,1.8 0.17,2.67z"/>
  <path class="fil1 str1" d="M39.84 50.62l21.28 0 0 14.57c0,5.85 -4.79,10.64 -10.64,10.64l0 0c-5.85,0 -10.64,-4.79 -10.64,-10.64l0 -14.57z"/>
  <line class="fil0 str0" x1="50.48" y1="50.62" x2="50.48" y2= "0.12" />
  <path class="fil2" d="M14.66 126.03l-2.87 0 0 -5.86 -0.49 0 -3.78 -6.41c-0.62,-1.05 -1.15,-1.79 -1.6,-2.2 -0.68,-0.64 -1.49,-0.96 -2.42,-0.96l0 9.56 -3.51 0 0 -20.67 3.51 0 0 8.92c1.3,0 2.27,-0.42 2.89,-1.26 0.21,-0.27 0.68,-1.31 1.42,-3.11 0.51,-1.24 0.9,-2.07 1.16,-2.49 0.57,-0.94 1.24,-1.54 1.99,-1.79 0.56,-0.18 1.46,-0.27 2.7,-0.27l0.7 0 0 2.91 -0.98 -0.02c-0.98,-0.01 -1.66,0.24 -2.06,0.76 -0.13,0.17 -0.45,0.9 -0.96,2.2 -0.48,1.22 -0.9,2.07 -1.26,2.55 -0.5,0.65 -1.24,1.2 -2.24,1.67 1.52,0.4 3,1.81 4.45,4.22l2.12 3.53 1.21 0 0 8.72zm7.28 -27.89c0.17,-0.12 0.36,-0.18 0.56,-0.18 0.32,0 0.6,0.44 0.82,1.31 0,0.56 -0.14,1.26 -0.44,2.12 -0.88,2.45 -1.32,4.16 -1.32,5.13 0,0.26 0.07,0.4 0.23,0.43 2.98,-2.87 5.74,-4.3 8.29,-4.3 1.57,0 2.89,0.6 3.95,1.78 1.06,1.19 1.59,2.28 1.59,3.26 0,3.01 -1.53,5.9 -4.6,8.66 -3.07,2.77 -6.16,4.16 -9.27,4.16 -1.39,0 -2.47,-0.58 -3.24,-1.72 -0.77,-1.15 -1.16,-2.8 -1.16,-4.93 0,-2.32 0.29,-4.89 0.88,-7.7 0.58,-2.82 1.05,-4.69 1.4,-5.64 0.14,-0.41 0.27,-0.81 0.39,-1.23 0.13,-0.52 0.78,-0.9 1.93,-1.14zm-0.91 12.2c-0.26,1.43 -0.39,2.87 -0.39,4.31 0,1.96 0.77,2.94 2.32,2.94 1.73,0 3.68,-1.04 5.84,-3.11 2.15,-2.08 3.23,-4.1 3.23,-6.05 0,-0.8 -0.21,-1.47 -0.65,-2.02 -0.42,-0.55 -1.01,-0.82 -1.76,-0.82 -1.03,0 -2.04,0.25 -3.03,0.76 -0.99,0.52 -2.1,1.34 -3.31,2.48 -0.47,0.44 -0.84,0.78 -1.12,1.02 -0.28,0.24 -0.65,0.4 -1.12,0.48zm19.59 4.47c0,0.99 0.13,2.1 0.4,3.33 0.05,0.24 0.08,0.43 0.08,0.59 0,0.23 -0.21,0.54 -0.65,0.91 -0.42,0.37 -0.88,0.55 -1.36,0.55 -1.25,0 -1.88,-1.16 -1.88,-3.47 0,-2.29 0.5,-6.14 1.5,-11.55 0.36,-1.97 0.54,-3.16 0.54,-3.58 0,-0.82 0.15,-1.51 0.45,-2.09 0.3,-0.58 0.72,-0.86 1.27,-0.86 0.66,0 1.18,0.16 1.56,0.48 0.39,0.32 0.58,0.67 0.58,1.06 0,0.39 -0.09,0.93 -0.27,1.61 -1.02,3.7 -1.63,6.29 -1.87,7.76 -0.24,1.48 -0.35,3.24 -0.35,5.27zm15.89 -6.59c1.67,0.27 2.98,0.89 3.91,1.85 0.94,0.96 1.4,2.13 1.4,3.52 0,2.19 -0.93,4.02 -2.78,5.48 -1.85,1.45 -4.29,2.18 -7.31,2.18 -1.81,0 -3.36,-0.38 -4.66,-1.17 -1.3,-0.78 -1.96,-1.64 -1.96,-2.58 0,-0.78 0.45,-1.17 1.35,-1.17 0.13,0 0.33,0.11 0.6,0.33 1.43,1.23 3.12,1.85 5.08,1.85 1.73,0 3.21,-0.45 4.46,-1.36 1.25,-0.91 1.87,-2.09 1.87,-3.54 0,-0.96 -0.35,-1.76 -1.06,-2.4 -0.71,-0.65 -1.53,-0.96 -2.46,-0.96 -0.71,0 -1.97,0.28 -3.75,0.84 -0.35,0.11 -0.73,0.17 -1.13,0.17 -0.78,0 -1.17,-0.52 -1.17,-1.57 0,-0.37 0.19,-0.66 0.55,-0.88 0.37,-0.22 1.17,-0.47 2.38,-0.76 3.7,-0.84 5.54,-2.34 5.54,-4.49 0,-0.65 -0.23,-1.18 -0.69,-1.61 -0.46,-0.42 -1.05,-0.63 -1.78,-0.63 -1.35,0 -2.79,0.6 -4.32,1.79 -0.9,0.7 -1.58,1.05 -2.05,1.05 -0.79,0 -1.19,-0.37 -1.19,-1.11 0,-0.98 0.92,-1.96 2.75,-2.99 1.83,-1.02 3.59,-1.53 5.28,-1.53 1.69,0 3.01,0.45 3.98,1.34 0.96,0.9 1.45,1.84 1.45,2.82 0,2.35 -1.43,4.19 -4.3,5.52zm34.47 -5.07c-1.05,1.68 -2.53,4.54 -4.44,8.56 -0.42,0.9 -0.86,1.78 -1.3,2.62 -0.14,0.27 -0.42,0.88 -0.82,1.81 -1.36,3.16 -2.55,4.74 -3.56,4.74 -0.8,0 -1.39,-0.09 -1.76,-0.29 -0.37,-0.19 -0.72,-0.72 -1.06,-1.59 -0.34,-0.87 -0.84,-2.91 -1.5,-6.13 -0.76,-3.64 -1.28,-5.88 -1.55,-6.73 -0.88,1.99 -1.67,3.9 -2.36,5.74 -1.04,2.71 -2.04,4.92 -3.01,6.63 -0.97,1.7 -1.67,2.73 -2.1,3.07 -0.43,0.34 -0.84,0.52 -1.23,0.52 -0.4,0 -0.76,-0.15 -1.09,-0.47 -0.33,-0.31 -0.49,-0.62 -0.49,-0.92 0.08,-0.53 0.17,-0.86 0.27,-0.99 1.13,-1.39 2.1,-2.87 2.92,-4.43 0.82,-1.57 1.86,-3.93 3.13,-7.07 1.26,-3.13 2.07,-5.71 2.42,-7.72 0.17,-0.86 0.8,-1.28 1.89,-1.28 0.64,0 1.07,0.09 1.31,0.29 0.23,0.19 0.47,0.59 0.69,1.18 0.23,0.6 0.36,1.13 0.4,1.6 0.08,0.56 0.3,1.79 0.66,3.71 0.32,1.81 0.55,3.08 0.64,3.83 0.18,1.08 0.5,2.49 0.96,4.24 0.46,1.75 0.82,2.63 1.08,2.63 0.18,0 0.44,-0.4 0.78,-1.19l1.63 -3.78c0.3,-0.68 0.62,-1.36 0.96,-2.02l2.23 -4.57c1.22,-2.52 2.16,-4.34 2.81,-5.47 0.65,-1.14 1.1,-1.82 1.32,-2.05 0.23,-0.24 0.49,-0.35 0.77,-0.35 0.49,0 1.04,0.13 1.65,0.4 0.61,0.26 0.92,0.56 0.95,0.88 0.03,0.32 0.09,1.68 0.18,4.06l0.25 6.08c0.08,1.93 0.19,3.57 0.35,4.93 0.15,1.36 0.43,2.45 0.82,3.28 0.61,1.32 0.91,2.34 0.91,3.07 0,0.62 -0.25,1.05 -0.76,1.28 -0.52,0.23 -0.99,0.35 -1.43,0.35 -0.9,0 -1.6,-0.73 -2.09,-2.18 -0.49,-1.45 -0.84,-5.62 -1.06,-12.49 -0.08,-2.07 -0.2,-3.33 -0.37,-3.79zm26.66 10.44c0,1.32 -1.17,2.91 -3.51,4.79 -2.34,1.87 -4.76,2.79 -7.25,2.79 -2.08,0 -3.7,-0.61 -4.83,-1.85 -1.13,-1.23 -1.7,-2.95 -1.7,-5.15 0,-3.71 1.25,-7.24 3.75,-10.58 2.5,-3.35 5.25,-5.02 8.21,-5.02 0.97,0 1.77,0.32 2.38,0.95 0.61,0.63 0.92,1.4 0.92,2.29 0,2 -0.98,3.91 -2.94,5.74 -1.96,1.83 -4.57,3.62 -7.85,5.38 -0.68,0.35 -1.01,0.8 -1.01,1.36 0,1.08 0.3,1.94 0.93,2.59 0.62,0.65 1.55,0.97 2.76,0.97 2.79,0 5.64,-1.54 8.54,-4.63 0.43,-0.43 0.76,-0.64 0.98,-0.64 0.41,0 0.62,0.33 0.62,1zm-13.52 -3.04c5.51,-3.27 8.25,-5.9 8.25,-7.88 0,-0.78 -0.35,-1.17 -1.06,-1.17 -1.19,0 -2.54,0.88 -4.04,2.63 -1.49,1.75 -2.55,3.89 -3.16,6.42zm32.28 -5.76c-1.21,0.03 -3.79,3.6 -7.74,10.72 -1.34,2.4 -2.12,3.71 -2.34,3.92 -0.22,0.21 -0.62,0.41 -1.21,0.58 -0.59,0.17 -1.08,0.25 -1.47,0.25 -0.87,0 -1.31,-1.69 -1.31,-5.08 0,-1.91 0.41,-5.36 1.23,-10.35 0.34,-2.02 0.5,-3.47 0.5,-4.34 0,-0.86 0.38,-1.28 1.15,-1.28 1.44,0 2.16,1.04 2.16,3.11 0,0.98 -0.24,2.88 -0.72,5.72 -0.56,3.24 -0.84,5.21 -0.86,5.91 0.8,-0.78 1.99,-2.48 3.54,-5.11 2.2,-3.61 3.83,-5.89 4.87,-6.86 1.04,-0.96 2.12,-1.45 3.24,-1.45 0.84,0 1.52,0.56 2.01,1.69 0.5,1.13 0.8,3.82 0.9,8.07 0.03,1.06 0.13,1.85 0.29,2.37 0.17,0.52 0.29,0.78 0.37,0.78 0.61,0 1.93,-2.07 3.97,-6.22 1.09,-2.19 2.14,-3.86 3.18,-5 1.03,-1.14 2.17,-1.71 3.43,-1.71 1.05,0 1.81,0.54 2.29,1.63 0.49,1.08 0.82,2.68 1.04,4.81 0.19,2.15 0.49,4.12 0.9,5.91 0.4,1.79 1.16,2.94 2.24,3.45 0.74,0.35 1.11,0.76 1.11,1.23 0,0.45 -0.31,0.92 -0.93,1.39 -0.62,0.48 -1.19,0.72 -1.71,0.72 -1.04,0 -1.96,-0.64 -2.78,-1.91 -0.82,-1.28 -1.43,-4.02 -1.85,-8.25 -0.19,-1.7 -0.36,-2.91 -0.53,-3.62 -0.17,-0.72 -0.43,-1.07 -0.8,-1.07 -0.55,0 -1.19,0.52 -1.93,1.56 -0.75,1.04 -1.95,3.15 -3.61,6.32 -1.3,2.48 -2.28,4.13 -2.95,4.95 -0.66,0.82 -1.31,1.24 -1.93,1.24 -0.56,0 -1.06,-0.23 -1.5,-0.67 -0.44,-0.45 -0.72,-0.99 -0.84,-1.62 -0.11,-0.62 -0.24,-2.17 -0.37,-4.63 -0.2,-4.1 -0.55,-6.49 -1.07,-7.16z"/>
  <polyline class="fil0 str0" points="67.08,32.21 77.63,71.61 110.79,74.46 "/>
  <circle class="fil1 str1" cx="77.63" cy="71.61" r="2.52"/>
  <polygon class="fil0 str0" points="88.72,36.94 111.22,60.66 88.72,60.66 "/>
 </g>
</svg>
