<?xml version="1.0" encoding="UTF-8"?>
<!DOCTYPE svg PUBLIC "-//W3C//DTD SVG 1.1//EN" "http://www.w3.org/Graphics/SVG/1.1/DTD/svg11.dtd">
<!-- Creator: CorelDRAW 2020 -->
<svg xmlns="http://www.w3.org/2000/svg" xml:space="preserve" width="8.8811mm" height="7.9108mm" version="1.1" style="shape-rendering:geometricPrecision; text-rendering:geometricPrecision; image-rendering:optimizeQuality; fill-rule:evenodd; clip-rule:evenodd"
viewBox="0 0 93.4 83.2"
 xmlns:xlink="http://www.w3.org/1999/xlink"
 xmlns:xodm="http://www.corel.com/coreldraw/odm/2003">
 <defs>
  <style type="text/css">
   <![CDATA[
    .str1 {stroke:#F08143;stroke-width:5.26;stroke-miterlimit:22.9256}
    .str0 {stroke:#F08143;stroke-width:2.1;stroke-miterlimit:22.9256}
    .fil0 {fill:none}
    .fil1 {fill:#F08143}
    .fil2 {fill:#F08143;fill-rule:nonzero}
   ]]>
  </style>
 </defs>
 <g id="Layer_x0020_1">
  <metadata id="CorelCorpID_0Corel-Layer"/>
  <g id="_977626592">
   <path class="fil0 str0" d="M66.05 17.65c0.08,-0.66 0.13,-1.33 0.13,-2.01 0,-8.06 -6.03,-14.59 -13.46,-14.59 -7.44,0 -13.47,6.53 -13.47,14.59 0,0.68 0.04,1.36 0.13,2.01"/>
   <line class="fil0 str0" x1="34.3" y1="17.65" x2="67.72" y2= "17.65" />
   <path class="fil1" d="M39.38 17.65l26.68 0c0.08,-0.66 0.13,-1.33 0.13,-2.01 0,-8.06 -6.03,-14.59 -13.46,-14.59 -7.44,0 -13.47,6.53 -13.47,14.59 0,0.68 0.04,1.36 0.13,2.01z"/>
   <path class="fil1 str0" d="M16.71 38.19l16.05 0 0 10.99c0,4.42 -3.61,8.03 -8.03,8.03l0 0c-4.42,0 -8.03,-3.61 -8.03,-8.03l0 -10.99z"/>
   <line class="fil0 str1" x1="24.74" y1="38.19" x2="24.74" y2= "0.09" />
   <polyline class="fil0 str1" points="37.26,24.3 45.22,54.02 70.23,56.17 "/>
   <path class="fil1 str0" d="M45.22 52.12c-1.05,0 -1.9,0.85 -1.9,1.9 0,1.05 0.85,1.9 1.9,1.9 1.05,0 1.9,-0.85 1.9,-1.9 0,-1.05 -0.85,-1.9 -1.9,-1.9z"/>
   <polygon class="fil0 str1" points="53.58,27.87 70.56,45.76 53.58,45.76 "/>
   <path class="fil2" d="M8.6 83.2l-1.68 0 0 -3.44 -0.28 0 -2.22 -3.76c-0.36,-0.62 -0.68,-1.05 -0.94,-1.29 -0.4,-0.37 -0.87,-0.56 -1.42,-0.56l0 5.61 -2.06 0 0 -12.13 2.06 0 0 5.24c0.76,0 1.33,-0.25 1.7,-0.74 0.12,-0.16 0.4,-0.77 0.83,-1.83 0.3,-0.73 0.53,-1.22 0.68,-1.46 0.34,-0.55 0.73,-0.9 1.17,-1.05 0.33,-0.11 0.86,-0.16 1.59,-0.16l0.41 0 0 1.71 -0.57 -0.01c-0.57,-0.01 -0.97,0.14 -1.21,0.44 -0.08,0.1 -0.26,0.53 -0.56,1.29 -0.28,0.72 -0.53,1.22 -0.74,1.5 -0.29,0.38 -0.73,0.7 -1.32,0.98 0.89,0.23 1.76,1.06 2.61,2.47l1.25 2.07 0.71 0 0 5.12zm4.27 -16.36c0.1,-0.07 0.21,-0.11 0.33,-0.11 0.19,0 0.35,0.26 0.48,0.77 0,0.33 -0.09,0.74 -0.26,1.24 -0.52,1.44 -0.78,2.44 -0.78,3.01 0,0.15 0.04,0.24 0.14,0.25 1.75,-1.68 3.37,-2.52 4.86,-2.52 0.92,0 1.69,0.35 2.32,1.04 0.62,0.7 0.93,1.34 0.93,1.91 0,1.76 -0.9,3.46 -2.7,5.08 -1.8,1.62 -3.61,2.44 -5.44,2.44 -0.81,0 -1.45,-0.34 -1.9,-1.01 -0.45,-0.67 -0.68,-1.64 -0.68,-2.89 0,-1.36 0.17,-2.87 0.51,-4.52 0.34,-1.65 0.62,-2.75 0.82,-3.31 0.08,-0.24 0.16,-0.48 0.23,-0.72 0.08,-0.31 0.46,-0.53 1.13,-0.67zm-0.53 7.16c-0.15,0.84 -0.23,1.69 -0.23,2.53 0,1.15 0.45,1.72 1.36,1.72 1.02,0 2.16,-0.61 3.42,-1.82 1.26,-1.22 1.89,-2.4 1.89,-3.55 0,-0.47 -0.13,-0.86 -0.38,-1.18 -0.25,-0.32 -0.6,-0.48 -1.04,-0.48 -0.6,0 -1.2,0.15 -1.78,0.45 -0.58,0.3 -1.23,0.79 -1.94,1.46 -0.28,0.26 -0.49,0.46 -0.66,0.6 -0.16,0.14 -0.38,0.23 -0.65,0.28zm11.49 2.62c0,0.58 0.08,1.23 0.24,1.95 0.03,0.14 0.05,0.25 0.05,0.34 0,0.14 -0.13,0.31 -0.38,0.53 -0.25,0.21 -0.51,0.32 -0.8,0.32 -0.74,0 -1.11,-0.68 -1.11,-2.03 0,-1.34 0.29,-3.6 0.88,-6.78 0.21,-1.16 0.32,-1.86 0.32,-2.1 0,-0.48 0.09,-0.89 0.26,-1.23 0.18,-0.34 0.42,-0.51 0.74,-0.51 0.39,0 0.69,0.09 0.92,0.28 0.23,0.19 0.34,0.39 0.34,0.62 0,0.23 -0.05,0.54 -0.16,0.95 -0.6,2.17 -0.96,3.69 -1.09,4.55 -0.14,0.87 -0.21,1.9 -0.21,3.09zm9.32 -3.87c0.98,0.16 1.75,0.52 2.29,1.09 0.55,0.56 0.82,1.25 0.82,2.06 0,1.29 -0.55,2.36 -1.63,3.21 -1.09,0.85 -2.52,1.28 -4.29,1.28 -1.06,0 -1.97,-0.23 -2.73,-0.69 -0.76,-0.46 -1.15,-0.96 -1.15,-1.52 0,-0.46 0.26,-0.69 0.79,-0.69 0.07,0 0.19,0.06 0.35,0.19 0.84,0.72 1.83,1.08 2.98,1.08 1.01,0 1.89,-0.27 2.61,-0.8 0.73,-0.53 1.09,-1.23 1.09,-2.08 0,-0.56 -0.21,-1.03 -0.62,-1.41 -0.42,-0.38 -0.9,-0.57 -1.45,-0.57 -0.42,0 -1.15,0.16 -2.2,0.49 -0.21,0.07 -0.43,0.1 -0.66,0.1 -0.46,0 -0.69,-0.31 -0.69,-0.92 0,-0.21 0.11,-0.39 0.32,-0.51 0.22,-0.13 0.68,-0.28 1.4,-0.44 2.17,-0.49 3.25,-1.37 3.25,-2.64 0,-0.38 -0.13,-0.69 -0.4,-0.94 -0.27,-0.25 -0.62,-0.37 -1.04,-0.37 -0.79,0 -1.64,0.35 -2.53,1.05 -0.53,0.41 -0.93,0.62 -1.2,0.62 -0.46,0 -0.7,-0.22 -0.7,-0.65 0,-0.57 0.54,-1.15 1.62,-1.75 1.07,-0.6 2.11,-0.9 3.1,-0.9 0.99,0 1.77,0.27 2.34,0.79 0.56,0.53 0.85,1.08 0.85,1.66 0,1.38 -0.84,2.46 -2.53,3.24zm20.23 -2.98c-0.62,0.99 -1.49,2.66 -2.6,5.02 -0.25,0.53 -0.51,1.04 -0.76,1.54 -0.09,0.16 -0.25,0.51 -0.48,1.06 -0.8,1.86 -1.5,2.78 -2.09,2.78 -0.47,0 -0.81,-0.05 -1.03,-0.17 -0.21,-0.11 -0.42,-0.42 -0.62,-0.93 -0.2,-0.51 -0.49,-1.71 -0.88,-3.6 -0.45,-2.14 -0.75,-3.45 -0.91,-3.95 -0.52,1.17 -0.98,2.29 -1.38,3.37 -0.61,1.59 -1.2,2.89 -1.77,3.89 -0.57,1 -0.98,1.6 -1.23,1.8 -0.25,0.2 -0.49,0.3 -0.72,0.3 -0.23,0 -0.45,-0.09 -0.64,-0.27 -0.19,-0.18 -0.29,-0.36 -0.29,-0.54 0.05,-0.31 0.1,-0.51 0.16,-0.58 0.66,-0.81 1.23,-1.68 1.71,-2.6 0.48,-0.92 1.09,-2.3 1.84,-4.15 0.74,-1.84 1.21,-3.35 1.42,-4.53 0.1,-0.5 0.47,-0.75 1.11,-0.75 0.37,0 0.63,0.05 0.77,0.17 0.14,0.11 0.27,0.35 0.41,0.69 0.13,0.35 0.21,0.66 0.23,0.94 0.05,0.33 0.17,1.05 0.39,2.18 0.19,1.06 0.32,1.81 0.38,2.25 0.11,0.64 0.3,1.46 0.56,2.49 0.27,1.03 0.48,1.54 0.64,1.54 0.11,0 0.26,-0.23 0.46,-0.7l0.96 -2.22c0.18,-0.4 0.36,-0.8 0.56,-1.18l1.31 -2.69c0.72,-1.48 1.27,-2.54 1.65,-3.21 0.38,-0.67 0.64,-1.07 0.78,-1.2 0.13,-0.14 0.28,-0.21 0.45,-0.21 0.29,0 0.61,0.08 0.97,0.23 0.36,0.16 0.54,0.33 0.56,0.52 0.02,0.19 0.05,0.99 0.11,2.38l0.15 3.57c0.05,1.13 0.11,2.1 0.21,2.89 0.09,0.8 0.25,1.44 0.48,1.92 0.36,0.78 0.53,1.38 0.53,1.8 0,0.36 -0.15,0.62 -0.45,0.75 -0.3,0.14 -0.58,0.21 -0.84,0.21 -0.53,0 -0.94,-0.43 -1.23,-1.28 -0.29,-0.85 -0.49,-3.3 -0.62,-7.33 -0.05,-1.21 -0.12,-1.95 -0.22,-2.22zm15.64 6.13c0,0.78 -0.68,1.71 -2.06,2.81 -1.38,1.09 -2.79,1.64 -4.26,1.64 -1.22,0 -2.17,-0.36 -2.84,-1.08 -0.67,-0.72 -1,-1.73 -1,-3.02 0,-2.18 0.73,-4.25 2.2,-6.21 1.47,-1.96 3.08,-2.94 4.82,-2.94 0.57,0 1.04,0.19 1.4,0.56 0.36,0.37 0.54,0.82 0.54,1.34 0,1.17 -0.58,2.29 -1.73,3.37 -1.15,1.07 -2.68,2.13 -4.61,3.16 -0.4,0.21 -0.59,0.47 -0.59,0.8 0,0.63 0.18,1.14 0.55,1.52 0.37,0.38 0.91,0.57 1.62,0.57 1.64,0 3.31,-0.9 5.01,-2.72 0.25,-0.25 0.44,-0.38 0.57,-0.38 0.24,0 0.36,0.19 0.36,0.58zm-7.93 -1.78c3.23,-1.92 4.84,-3.46 4.84,-4.62 0,-0.46 -0.21,-0.69 -0.62,-0.69 -0.7,0 -1.49,0.51 -2.37,1.54 -0.88,1.03 -1.5,2.28 -1.85,3.77zm18.94 -3.38c-0.71,0.02 -2.23,2.11 -4.54,6.29 -0.79,1.41 -1.24,2.17 -1.37,2.3 -0.13,0.12 -0.37,0.24 -0.71,0.34 -0.35,0.1 -0.64,0.15 -0.86,0.15 -0.51,0 -0.77,-0.99 -0.77,-2.98 0,-1.12 0.24,-3.14 0.72,-6.07 0.2,-1.18 0.3,-2.03 0.3,-2.54 0,-0.5 0.23,-0.75 0.67,-0.75 0.85,0 1.27,0.61 1.27,1.82 0,0.57 -0.14,1.69 -0.42,3.36 -0.33,1.9 -0.49,3.06 -0.5,3.47 0.47,-0.46 1.16,-1.46 2.08,-3 1.29,-2.12 2.25,-3.46 2.86,-4.02 0.61,-0.57 1.25,-0.85 1.9,-0.85 0.49,0 0.89,0.33 1.18,0.99 0.29,0.66 0.47,2.24 0.53,4.74 0.02,0.62 0.07,1.09 0.17,1.39 0.1,0.3 0.17,0.46 0.22,0.46 0.36,0 1.13,-1.21 2.33,-3.65 0.64,-1.29 1.26,-2.26 1.87,-2.93 0.6,-0.67 1.27,-1 2.01,-1 0.62,0 1.06,0.32 1.34,0.95 0.28,0.63 0.48,1.57 0.61,2.82 0.11,1.26 0.29,2.42 0.53,3.47 0.24,1.05 0.68,1.73 1.32,2.02 0.44,0.21 0.65,0.44 0.65,0.72 0,0.27 -0.18,0.54 -0.55,0.82 -0.37,0.28 -0.7,0.42 -1,0.42 -0.61,0 -1.15,-0.37 -1.63,-1.12 -0.48,-0.75 -0.84,-2.36 -1.08,-4.84 -0.11,-1 -0.21,-1.71 -0.31,-2.12 -0.1,-0.42 -0.25,-0.63 -0.47,-0.63 -0.32,0 -0.7,0.31 -1.13,0.92 -0.44,0.61 -1.15,1.85 -2.12,3.71 -0.76,1.45 -1.34,2.42 -1.73,2.91 -0.39,0.48 -0.77,0.72 -1.13,0.72 -0.33,0 -0.62,-0.13 -0.88,-0.39 -0.26,-0.26 -0.42,-0.58 -0.49,-0.95 -0.07,-0.36 -0.14,-1.27 -0.21,-2.72 -0.12,-2.4 -0.32,-3.81 -0.63,-4.2z"/>
  </g>
 </g>
</svg>
