<?xml version="1.0" encoding="UTF-8"?>
<!DOCTYPE svg PUBLIC "-//W3C//DTD SVG 1.1//EN" "http://www.w3.org/Graphics/SVG/1.1/DTD/svg11.dtd">
<!-- Creator: CorelDRAW 2020 -->
<svg xmlns="http://www.w3.org/2000/svg" xml:space="preserve" width="13mm" height="10mm" version="1.1" style="shape-rendering:geometricPrecision; text-rendering:geometricPrecision; image-rendering:optimizeQuality; fill-rule:evenodd; clip-rule:evenodd"
viewBox="0 0 200.52 154.25"
 xmlns:xlink="http://www.w3.org/1999/xlink"
 xmlns:xodm="http://www.corel.com/coreldraw/odm/2003">
 <defs>
  <style type="text/css">
   <![CDATA[
    .str0 {stroke:#B2AD81;stroke-width:7.71;stroke-miterlimit:22.9256}
    .str1 {stroke:#B2AD81;stroke-width:3.08;stroke-miterlimit:22.9256}
    .fil0 {fill:none}
    .fil1 {fill:#B2AD81}
    .fil2 {fill:#B2AD81;fill-rule:nonzero}
   ]]>
  </style>
 </defs>
 <g id="Layer_x0020_1">
  <metadata id="CorelCorpID_0Corel-Layer"/>
  <g id="_1489517552">
   <polygon class="fil0" points="-0,0 200.52,0 200.52,154.25 -0,154.25 "/>
   <g>
    <path class="fil1" d="M52.07 67.04l25.9 0 0 17.73c0,7.12 -5.82,12.95 -12.95,12.95l0 0c-7.12,0 -12.95,-5.82 -12.95,-12.95l0 -17.73z"/>
    <line class="fil0 str0" x1="65.02" y1="68.43" x2="65.02" y2= "12.56" />
    <polyline class="fil0 str0" points="90.53,45.84 102.21,89.43 138.89,92.59 "/>
    <path class="fil0 str1" d="M102.21 86.01c-1.54,0 -2.79,1.25 -2.79,2.79 0,1.54 1.25,2.78 2.79,2.78 1.54,0 2.78,-1.25 2.78,-2.78 0,-1.54 -1.25,-2.79 -2.78,-2.79z"/>
    <polygon class="fil0 str0" points="110.78,34.8 135.68,72.41 110.78,72.41 "/>
   </g>
   <path class="fil2" d="M28.81 141.43l-3.17 0 0 -6.48 -0.54 0 -4.18 -7.09c-0.68,-1.16 -1.27,-1.98 -1.77,-2.43 -0.75,-0.7 -1.65,-1.06 -2.68,-1.06l0 10.58 -3.88 0 0 -22.88 3.88 0 0 9.87c1.44,0 2.51,-0.46 3.2,-1.4 0.23,-0.3 0.76,-1.45 1.57,-3.44 0.57,-1.37 1,-2.29 1.29,-2.75 0.63,-1.04 1.37,-1.7 2.2,-1.98 0.62,-0.2 1.61,-0.3 2.99,-0.3l0.78 0 0 3.22 -1.08 -0.02c-1.08,-0.02 -1.84,0.26 -2.28,0.84 -0.15,0.19 -0.49,1 -1.06,2.43 -0.53,1.35 -1,2.29 -1.4,2.82 -0.55,0.71 -1.37,1.33 -2.48,1.84 1.68,0.44 3.32,2 4.92,4.66l2.35 3.91 1.34 0 0 9.65zm8.05 -30.86c0.19,-0.13 0.4,-0.2 0.62,-0.2 0.36,0 0.66,0.48 0.9,1.45 0,0.62 -0.16,1.4 -0.49,2.34 -0.98,2.71 -1.46,4.6 -1.46,5.68 0,0.29 0.08,0.45 0.26,0.48 3.3,-3.17 6.36,-4.76 9.17,-4.76 1.73,0 3.2,0.66 4.37,1.97 1.17,1.32 1.76,2.52 1.76,3.61 0,3.33 -1.7,6.52 -5.09,9.59 -3.4,3.06 -6.81,4.6 -10.26,4.6 -1.53,0 -2.73,-0.64 -3.58,-1.9 -0.85,-1.27 -1.28,-3.09 -1.28,-5.46 0,-2.57 0.32,-5.41 0.97,-8.52 0.64,-3.12 1.16,-5.19 1.55,-6.24 0.15,-0.45 0.3,-0.9 0.43,-1.36 0.15,-0.57 0.86,-0.99 2.13,-1.26zm-1.01 13.5c-0.29,1.59 -0.43,3.18 -0.43,4.77 0,2.17 0.85,3.25 2.56,3.25 1.92,0 4.07,-1.15 6.46,-3.44 2.38,-2.3 3.57,-4.53 3.57,-6.7 0,-0.89 -0.24,-1.63 -0.71,-2.23 -0.47,-0.6 -1.12,-0.9 -1.95,-0.9 -1.14,0 -2.26,0.28 -3.35,0.85 -1.1,0.57 -2.32,1.48 -3.67,2.75 -0.52,0.48 -0.93,0.87 -1.24,1.13 -0.31,0.26 -0.72,0.44 -1.23,0.53zm21.67 4.94c0,1.09 0.15,2.32 0.45,3.68 0.06,0.27 0.09,0.48 0.09,0.65 0,0.26 -0.24,0.59 -0.71,1.01 -0.47,0.4 -0.97,0.61 -1.51,0.61 -1.39,0 -2.09,-1.28 -2.09,-3.83 0,-2.53 0.55,-6.79 1.66,-12.78 0.4,-2.18 0.6,-3.5 0.6,-3.96 0,-0.9 0.16,-1.67 0.49,-2.31 0.33,-0.64 0.8,-0.95 1.4,-0.95 0.73,0 1.31,0.18 1.72,0.53 0.43,0.35 0.64,0.74 0.64,1.17 0,0.43 -0.1,1.03 -0.3,1.78 -1.12,4.09 -1.81,6.96 -2.06,8.59 -0.27,1.64 -0.39,3.59 -0.39,5.83zm17.58 -7.29c1.85,0.3 3.3,0.98 4.33,2.05 1.04,1.06 1.55,2.36 1.55,3.89 0,2.42 -1.03,4.44 -3.08,6.06 -2.05,1.61 -4.75,2.42 -8.09,2.42 -2,0 -3.72,-0.43 -5.15,-1.29 -1.44,-0.86 -2.17,-1.81 -2.17,-2.86 0,-0.87 0.5,-1.29 1.49,-1.29 0.14,0 0.36,0.12 0.66,0.37 1.58,1.36 3.45,2.04 5.62,2.04 1.91,0 3.56,-0.5 4.93,-1.51 1.38,-1.01 2.06,-2.31 2.06,-3.92 0,-1.06 -0.39,-1.95 -1.17,-2.66 -0.79,-0.71 -1.69,-1.07 -2.73,-1.07 -0.79,0 -2.17,0.31 -4.15,0.93 -0.39,0.12 -0.81,0.19 -1.25,0.19 -0.87,0 -1.29,-0.58 -1.29,-1.74 0,-0.4 0.21,-0.73 0.61,-0.97 0.41,-0.24 1.29,-0.52 2.64,-0.84 4.09,-0.93 6.13,-2.59 6.13,-4.97 0,-0.72 -0.25,-1.31 -0.76,-1.78 -0.51,-0.46 -1.16,-0.7 -1.97,-0.7 -1.49,0 -3.09,0.66 -4.78,1.98 -0.99,0.77 -1.75,1.16 -2.26,1.16 -0.87,0 -1.31,-0.41 -1.31,-1.23 0,-1.08 1.02,-2.17 3.05,-3.31 2.03,-1.12 3.97,-1.69 5.84,-1.69 1.87,0 3.33,0.5 4.41,1.48 1.06,0.99 1.6,2.03 1.6,3.12 0,2.6 -1.59,4.64 -4.76,6.11zm38.14 -5.61c-1.16,1.86 -2.8,5.02 -4.91,9.47 -0.47,1 -0.95,1.97 -1.44,2.9 -0.16,0.3 -0.46,0.97 -0.9,2 -1.51,3.5 -2.82,5.25 -3.94,5.25 -0.89,0 -1.53,-0.1 -1.95,-0.32 -0.4,-0.21 -0.79,-0.8 -1.17,-1.76 -0.37,-0.96 -0.93,-3.22 -1.66,-6.78 -0.85,-4.03 -1.42,-6.51 -1.72,-7.44 -0.98,2.2 -1.84,4.31 -2.61,6.35 -1.15,3 -2.26,5.44 -3.33,7.33 -1.07,1.88 -1.85,3.02 -2.32,3.4 -0.48,0.38 -0.93,0.57 -1.36,0.57 -0.44,0 -0.85,-0.17 -1.2,-0.52 -0.36,-0.34 -0.54,-0.68 -0.54,-1.01 0.09,-0.59 0.18,-0.95 0.3,-1.09 1.25,-1.53 2.32,-3.17 3.23,-4.91 0.9,-1.74 2.06,-4.34 3.46,-7.82 1.4,-3.47 2.29,-6.32 2.67,-8.54 0.19,-0.95 0.88,-1.42 2.09,-1.42 0.7,0 1.19,0.1 1.45,0.32 0.26,0.21 0.52,0.65 0.77,1.31 0.25,0.66 0.4,1.25 0.44,1.77 0.09,0.62 0.33,1.98 0.73,4.11 0.36,2 0.6,3.41 0.71,4.24 0.2,1.2 0.56,2.76 1.07,4.7 0.51,1.94 0.91,2.91 1.2,2.91 0.2,0 0.48,-0.44 0.86,-1.31l1.81 -4.18c0.33,-0.76 0.68,-1.51 1.06,-2.23l2.47 -5.06c1.35,-2.78 2.39,-4.8 3.11,-6.05 0.72,-1.26 1.21,-2.01 1.46,-2.27 0.25,-0.27 0.54,-0.39 0.85,-0.39 0.54,0 1.15,0.15 1.83,0.44 0.68,0.29 1.02,0.62 1.05,0.98 0.03,0.36 0.1,1.86 0.2,4.49l0.28 6.72c0.09,2.14 0.21,3.95 0.39,5.45 0.17,1.5 0.47,2.71 0.9,3.63 0.67,1.46 1.01,2.59 1.01,3.4 0,0.68 -0.28,1.16 -0.84,1.42 -0.57,0.26 -1.1,0.39 -1.59,0.39 -1,0 -1.77,-0.81 -2.31,-2.41 -0.54,-1.61 -0.93,-6.21 -1.17,-13.82 -0.09,-2.29 -0.23,-3.68 -0.41,-4.19zm29.5 11.55c0,1.46 -1.29,3.22 -3.88,5.3 -2.59,2.06 -5.27,3.09 -8.02,3.09 -2.31,0 -4.09,-0.67 -5.35,-2.04 -1.26,-1.36 -1.88,-3.26 -1.88,-5.7 0,-4.11 1.38,-8.01 4.15,-11.71 2.77,-3.7 5.8,-5.55 9.09,-5.55 1.07,0 1.95,0.35 2.64,1.06 0.68,0.7 1.02,1.55 1.02,2.53 0,2.21 -1.09,4.33 -3.25,6.36 -2.17,2.02 -5.06,4.01 -8.69,5.96 -0.75,0.39 -1.12,0.89 -1.12,1.51 0,1.19 0.34,2.15 1.03,2.87 0.69,0.72 1.71,1.07 3.06,1.07 3.08,0 6.24,-1.7 9.45,-5.12 0.48,-0.47 0.84,-0.71 1.08,-0.71 0.46,0 0.68,0.37 0.68,1.1zm-14.96 -3.36c6.09,-3.61 9.13,-6.52 9.13,-8.72 0,-0.86 -0.39,-1.29 -1.17,-1.29 -1.32,0 -2.81,0.97 -4.47,2.91 -1.65,1.94 -2.82,4.31 -3.5,7.1zm35.71 -6.37c-1.34,0.03 -4.2,3.98 -8.57,11.86 -1.48,2.65 -2.34,4.1 -2.59,4.33 -0.24,0.23 -0.69,0.45 -1.34,0.64 -0.65,0.19 -1.2,0.28 -1.62,0.28 -0.96,0 -1.45,-1.87 -1.45,-5.62 0,-2.11 0.46,-5.93 1.36,-11.45 0.37,-2.24 0.56,-3.84 0.56,-4.8 0,-0.95 0.43,-1.42 1.27,-1.42 1.59,0 2.39,1.15 2.39,3.44 0,1.08 -0.26,3.19 -0.79,6.33 -0.62,3.58 -0.93,5.77 -0.95,6.54 0.89,-0.86 2.2,-2.75 3.92,-5.66 2.44,-3.99 4.24,-6.52 5.39,-7.59 1.15,-1.07 2.35,-1.6 3.58,-1.6 0.93,0 1.68,0.62 2.23,1.87 0.55,1.25 0.89,4.22 1,8.93 0.03,1.18 0.14,2.05 0.32,2.62 0.19,0.57 0.32,0.86 0.41,0.86 0.68,0 2.14,-2.29 4.39,-6.88 1.2,-2.42 2.37,-4.27 3.52,-5.53 1.14,-1.26 2.4,-1.89 3.8,-1.89 1.16,0 2.01,0.6 2.53,1.8 0.54,1.2 0.91,2.97 1.15,5.32 0.21,2.38 0.54,4.56 1,6.54 0.45,1.98 1.28,3.25 2.48,3.81 0.82,0.39 1.22,0.84 1.22,1.36 0,0.5 -0.34,1.01 -1.03,1.54 -0.69,0.54 -1.32,0.8 -1.9,0.8 -1.15,0 -2.17,-0.7 -3.08,-2.11 -0.9,-1.41 -1.59,-4.45 -2.04,-9.12 -0.21,-1.88 -0.4,-3.22 -0.59,-4 -0.19,-0.79 -0.48,-1.19 -0.88,-1.19 -0.6,0 -1.32,0.58 -2.14,1.73 -0.83,1.15 -2.16,3.48 -4,6.99 -1.43,2.74 -2.52,4.57 -3.26,5.48 -0.74,0.91 -1.45,1.37 -2.14,1.37 -0.62,0 -1.17,-0.25 -1.66,-0.74 -0.49,-0.5 -0.79,-1.09 -0.93,-1.79 -0.12,-0.69 -0.27,-2.4 -0.4,-5.13 -0.22,-4.53 -0.61,-7.18 -1.18,-7.92z"/>
  </g>
 </g>
</svg>
