<?xml version="1.0" encoding="UTF-8"?>
<!DOCTYPE svg PUBLIC "-//W3C//DTD SVG 1.1//EN" "http://www.w3.org/Graphics/SVG/1.1/DTD/svg11.dtd">
<!-- Creator: CorelDRAW 2020 -->
<svg xmlns="http://www.w3.org/2000/svg" xml:space="preserve" width="11mm" height="10mm" version="1.1" style="shape-rendering:geometricPrecision; text-rendering:geometricPrecision; image-rendering:optimizeQuality; fill-rule:evenodd; clip-rule:evenodd"
viewBox="0 0 147.06 133.69"
 xmlns:xlink="http://www.w3.org/1999/xlink"
 xmlns:xodm="http://www.corel.com/coreldraw/odm/2003">
 <defs>
  <style type="text/css">
   <![CDATA[
    .str1 {stroke:#F08143;stroke-width:6.68;stroke-miterlimit:22.9256}
    .str0 {stroke:#F08143;stroke-width:2.67;stroke-miterlimit:22.9256}
    .fil0 {fill:none}
    .fil1 {fill:#F08143}
    .fil2 {fill:#F08143;fill-rule:nonzero}
   ]]>
  </style>
 </defs>
 <g id="Layer_x0020_1">
  <metadata id="CorelCorpID_0Corel-Layer"/>
  <polygon class="fil0" points="-0,0 147.06,0 147.06,133.69 -0,133.69 "/>
  <g id="_1080793928">
   <g>
    <path class="fil0 str0" d="M101.7 30.73c0.11,-0.84 0.16,-1.69 0.16,-2.56 0,-10.24 -7.66,-18.54 -17.12,-18.54 -9.45,0 -17.12,8.3 -17.12,18.54 0,0.87 0.05,1.72 0.16,2.56"/>
    <line class="fil0 str0" x1="61.34" y1="30.73" x2="103.81" y2= "30.73" />
    <path class="fil1" d="M67.79 30.73l33.91 0c0.11,-0.83 0.16,-1.69 0.16,-2.56 0,-10.24 -7.66,-18.54 -17.12,-18.54 -9.45,0 -17.12,8.3 -17.12,18.54 0,0.87 0.05,1.72 0.16,2.56z"/>
    <path class="fil1 str0" d="M32.78 57.72l20.4 0 0 13.97c0,5.61 -4.59,10.2 -10.2,10.2l0 0c-5.61,0 -10.2,-4.59 -10.2,-10.2l0 -13.97z"/>
    <line class="fil0 str1" x1="42.99" y1="57.72" x2="42.99" y2= "9.29" />
    <polyline class="fil0 str1" points="65.09,39.73 75.22,77.51 107.01,80.25 "/>
    <path class="fil1 str0" d="M75.22 74.55c-1.33,0 -2.41,1.08 -2.41,2.41 0,1.33 1.08,2.41 2.41,2.41 1.33,0 2.41,-1.08 2.41,-2.41 0,-1.33 -1.08,-2.41 -2.41,-2.41z"/>
    <polygon class="fil0 str1" points="85.85,43.72 107.43,66.46 85.85,66.46 "/>
   </g>
   <path class="fil2" d="M18.52 121.05l-2.45 0 0 -4.99 -0.41 0 -3.22 -5.46c-0.53,-0.9 -0.98,-1.52 -1.36,-1.87 -0.58,-0.54 -1.27,-0.82 -2.06,-0.82l0 8.15 -2.99 0 0 -17.62 2.99 0 0 7.61c1.11,0 1.94,-0.36 2.47,-1.08 0.18,-0.23 0.58,-1.12 1.21,-2.65 0.44,-1.06 0.77,-1.77 0.99,-2.12 0.49,-0.8 1.05,-1.31 1.7,-1.52 0.48,-0.15 1.24,-0.23 2.3,-0.23l0.6 0 0 2.48 -0.83 -0.02c-0.83,-0.01 -1.42,0.2 -1.76,0.64 -0.11,0.15 -0.38,0.77 -0.82,1.87 -0.41,1.04 -0.77,1.77 -1.07,2.17 -0.42,0.55 -1.06,1.03 -1.91,1.42 1.3,0.34 2.56,1.54 3.79,3.59l1.81 3.01 1.03 0 0 7.44zm6.2 -23.78c0.15,-0.1 0.3,-0.15 0.48,-0.15 0.28,0 0.51,0.37 0.7,1.11 0,0.47 -0.12,1.07 -0.38,1.8 -0.75,2.09 -1.13,3.55 -1.13,4.37 0,0.22 0.06,0.35 0.2,0.37 2.54,-2.45 4.9,-3.67 7.06,-3.67 1.34,0 2.46,0.51 3.37,1.52 0.91,1.01 1.36,1.94 1.36,2.78 0,2.56 -1.31,5.03 -3.92,7.39 -2.61,2.36 -5.25,3.54 -7.9,3.54 -1.18,0 -2.1,-0.49 -2.76,-1.47 -0.66,-0.98 -0.99,-2.38 -0.99,-4.21 0,-1.98 0.25,-4.16 0.75,-6.56 0.5,-2.4 0.89,-4 1.19,-4.81 0.12,-0.34 0.23,-0.69 0.33,-1.05 0.11,-0.44 0.66,-0.76 1.64,-0.97zm-0.78 10.4c-0.22,1.22 -0.33,2.45 -0.33,3.68 0,1.67 0.66,2.5 1.97,2.5 1.48,0 3.14,-0.88 4.97,-2.65 1.83,-1.77 2.75,-3.49 2.75,-5.16 0,-0.69 -0.18,-1.26 -0.55,-1.72 -0.36,-0.46 -0.86,-0.7 -1.51,-0.7 -0.88,0 -1.74,0.21 -2.58,0.65 -0.84,0.44 -1.79,1.14 -2.82,2.12 -0.4,0.37 -0.72,0.67 -0.96,0.87 -0.24,0.2 -0.55,0.34 -0.95,0.41zm16.69 3.81c0,0.84 0.11,1.79 0.35,2.83 0.04,0.2 0.07,0.37 0.07,0.5 0,0.2 -0.18,0.46 -0.55,0.78 -0.36,0.31 -0.75,0.47 -1.16,0.47 -1.07,0 -1.61,-0.98 -1.61,-2.95 0,-1.95 0.43,-5.24 1.28,-9.85 0.3,-1.68 0.46,-2.69 0.46,-3.05 0,-0.7 0.12,-1.29 0.38,-1.78 0.26,-0.49 0.62,-0.74 1.08,-0.74 0.56,0 1.01,0.14 1.33,0.41 0.33,0.27 0.49,0.57 0.49,0.9 0,0.33 -0.08,0.79 -0.23,1.37 -0.87,3.15 -1.39,5.36 -1.59,6.62 -0.2,1.26 -0.3,2.76 -0.3,4.49zm13.54 -5.62c1.43,0.23 2.54,0.76 3.33,1.58 0.8,0.82 1.2,1.82 1.2,3 0,1.87 -0.79,3.43 -2.37,4.67 -1.58,1.24 -3.66,1.86 -6.23,1.86 -1.54,0 -2.86,-0.33 -3.97,-1 -1.11,-0.66 -1.67,-1.4 -1.67,-2.2 0,-0.67 0.38,-1 1.15,-1 0.11,0 0.28,0.09 0.51,0.28 1.22,1.05 2.66,1.57 4.33,1.57 1.47,0 2.74,-0.38 3.8,-1.16 1.06,-0.78 1.59,-1.78 1.59,-3.02 0,-0.82 -0.3,-1.5 -0.9,-2.05 -0.61,-0.55 -1.3,-0.82 -2.1,-0.82 -0.61,0 -1.68,0.24 -3.2,0.71 -0.3,0.1 -0.62,0.15 -0.96,0.15 -0.67,0 -0.99,-0.45 -0.99,-1.34 0,-0.31 0.16,-0.56 0.47,-0.75 0.32,-0.19 1,-0.4 2.03,-0.64 3.15,-0.72 4.72,-2 4.72,-3.83 0,-0.55 -0.19,-1.01 -0.59,-1.37 -0.39,-0.36 -0.89,-0.54 -1.52,-0.54 -1.15,0 -2.38,0.51 -3.68,1.53 -0.76,0.59 -1.35,0.89 -1.74,0.89 -0.67,0 -1.01,-0.32 -1.01,-0.95 0,-0.83 0.79,-1.68 2.35,-2.55 1.56,-0.87 3.06,-1.3 4.5,-1.3 1.44,0 2.57,0.39 3.4,1.14 0.82,0.76 1.23,1.57 1.23,2.41 0,2 -1.22,3.57 -3.67,4.71zm29.39 -4.32c-0.89,1.43 -2.16,3.87 -3.78,7.3 -0.36,0.77 -0.74,1.52 -1.11,2.24 -0.12,0.23 -0.36,0.75 -0.7,1.54 -1.16,2.69 -2.17,4.04 -3.04,4.04 -0.69,0 -1.18,-0.08 -1.5,-0.25 -0.31,-0.16 -0.61,-0.62 -0.9,-1.36 -0.29,-0.74 -0.71,-2.48 -1.28,-5.22 -0.65,-3.1 -1.09,-5.02 -1.32,-5.73 -0.75,1.69 -1.42,3.32 -2.01,4.89 -0.88,2.31 -1.74,4.19 -2.57,5.65 -0.83,1.45 -1.43,2.33 -1.79,2.61 -0.37,0.29 -0.71,0.44 -1.05,0.44 -0.34,0 -0.65,-0.13 -0.93,-0.4 -0.28,-0.27 -0.41,-0.53 -0.41,-0.78 0.07,-0.45 0.14,-0.74 0.23,-0.84 0.96,-1.18 1.79,-2.44 2.49,-3.78 0.7,-1.34 1.58,-3.34 2.67,-6.02 1.07,-2.67 1.77,-4.87 2.06,-6.58 0.15,-0.73 0.68,-1.09 1.61,-1.09 0.54,0 0.92,0.08 1.11,0.25 0.2,0.16 0.4,0.5 0.59,1.01 0.19,0.51 0.3,0.96 0.34,1.36 0.07,0.47 0.26,1.53 0.56,3.16 0.28,1.54 0.47,2.63 0.55,3.26 0.15,0.92 0.43,2.12 0.82,3.62 0.39,1.49 0.7,2.24 0.92,2.24 0.15,0 0.37,-0.34 0.66,-1.01l1.39 -3.22c0.25,-0.58 0.53,-1.16 0.81,-1.72l1.9 -3.9c1.04,-2.14 1.84,-3.7 2.4,-4.66 0.55,-0.97 0.93,-1.55 1.13,-1.75 0.19,-0.2 0.41,-0.3 0.66,-0.3 0.42,0 0.89,0.11 1.41,0.34 0.52,0.23 0.79,0.47 0.81,0.75 0.02,0.28 0.07,1.43 0.15,3.46l0.22 5.18c0.07,1.65 0.16,3.05 0.3,4.2 0.13,1.15 0.36,2.09 0.7,2.8 0.51,1.13 0.78,2 0.78,2.62 0,0.53 -0.22,0.89 -0.65,1.09 -0.44,0.2 -0.84,0.3 -1.22,0.3 -0.77,0 -1.36,-0.62 -1.78,-1.86 -0.41,-1.24 -0.71,-4.79 -0.9,-10.65 -0.07,-1.76 -0.18,-2.84 -0.32,-3.23zm22.73 8.9c0,1.13 -1,2.49 -2.99,4.08 -2,1.59 -4.06,2.38 -6.18,2.38 -1.78,0 -3.15,-0.52 -4.12,-1.57 -0.97,-1.05 -1.45,-2.51 -1.45,-4.39 0,-3.16 1.06,-6.17 3.2,-9.02 2.13,-2.85 4.47,-4.28 7,-4.28 0.83,0 1.51,0.27 2.03,0.82 0.52,0.54 0.79,1.19 0.79,1.95 0,1.7 -0.84,3.33 -2.51,4.9 -1.67,1.56 -3.9,3.09 -6.7,4.59 -0.58,0.3 -0.86,0.68 -0.86,1.16 0,0.92 0.26,1.65 0.79,2.21 0.53,0.55 1.32,0.83 2.35,0.83 2.38,0 4.8,-1.31 7.28,-3.95 0.37,-0.36 0.64,-0.55 0.83,-0.55 0.35,0 0.53,0.28 0.53,0.85zm-11.52 -2.59c4.69,-2.78 7.04,-5.03 7.04,-6.72 0,-0.66 -0.3,-1 -0.9,-1 -1.01,0 -2.16,0.75 -3.44,2.24 -1.27,1.49 -2.17,3.32 -2.7,5.47zm27.51 -4.91c-1.03,0.02 -3.23,3.07 -6.6,9.13 -1.14,2.04 -1.81,3.16 -1.99,3.34 -0.19,0.18 -0.53,0.34 -1.03,0.49 -0.5,0.14 -0.92,0.22 -1.25,0.22 -0.74,0 -1.11,-1.44 -1.11,-4.33 0,-1.62 0.35,-4.57 1.05,-8.82 0.29,-1.72 0.43,-2.95 0.43,-3.7 0,-0.73 0.33,-1.09 0.98,-1.09 1.23,0 1.84,0.88 1.84,2.65 0,0.83 -0.2,2.46 -0.61,4.88 -0.48,2.76 -0.72,4.44 -0.73,5.04 0.68,-0.66 1.69,-2.12 3.02,-4.36 1.88,-3.07 3.26,-5.02 4.15,-5.85 0.89,-0.82 1.81,-1.23 2.76,-1.23 0.72,0 1.29,0.48 1.72,1.44 0.42,0.96 0.69,3.26 0.77,6.88 0.02,0.91 0.11,1.58 0.25,2.02 0.15,0.44 0.25,0.66 0.32,0.66 0.52,0 1.65,-1.77 3.39,-5.3 0.93,-1.87 1.83,-3.29 2.71,-4.26 0.88,-0.97 1.85,-1.46 2.93,-1.46 0.89,0 1.55,0.46 1.95,1.39 0.41,0.92 0.7,2.28 0.88,4.1 0.16,1.83 0.42,3.51 0.77,5.04 0.34,1.53 0.99,2.51 1.91,2.94 0.63,0.3 0.94,0.65 0.94,1.05 0,0.39 -0.26,0.78 -0.79,1.19 -0.53,0.41 -1.02,0.62 -1.46,0.62 -0.89,0 -1.68,-0.54 -2.37,-1.62 -0.7,-1.09 -1.22,-3.43 -1.57,-7.03 -0.16,-1.45 -0.31,-2.48 -0.45,-3.08 -0.14,-0.61 -0.37,-0.92 -0.68,-0.92 -0.46,0 -1.01,0.45 -1.65,1.33 -0.64,0.88 -1.66,2.68 -3.08,5.39 -1.1,2.11 -1.94,3.52 -2.51,4.22 -0.57,0.7 -1.11,1.05 -1.65,1.05 -0.48,0 -0.9,-0.19 -1.28,-0.57 -0.37,-0.38 -0.61,-0.84 -0.71,-1.38 -0.1,-0.53 -0.2,-1.85 -0.31,-3.95 -0.17,-3.49 -0.47,-5.53 -0.91,-6.1z"/>
  </g>
 </g>
</svg>
