<?xml version="1.0" encoding="UTF-8"?>
<!DOCTYPE svg PUBLIC "-//W3C//DTD SVG 1.1//EN" "http://www.w3.org/Graphics/SVG/1.1/DTD/svg11.dtd">
<!-- Creator: CorelDRAW 2020 -->
<svg xmlns="http://www.w3.org/2000/svg" xml:space="preserve" width="15mm" height="10.3mm" version="1.1" style="shape-rendering:geometricPrecision; text-rendering:geometricPrecision; image-rendering:optimizeQuality; fill-rule:evenodd; clip-rule:evenodd"
viewBox="0 0 266.97 183.32"
 xmlns:xlink="http://www.w3.org/1999/xlink"
 xmlns:xodm="http://www.corel.com/coreldraw/odm/2003">
 <defs>
  <style type="text/css">
   <![CDATA[
    .str1 {stroke:#C6B93A;stroke-width:8.9;stroke-miterlimit:22.9256}
    .str0 {stroke:#C6B93A;stroke-width:3.56;stroke-miterlimit:22.9256}
    .fil0 {fill:none}
    .fil2 {fill:#C6B93A}
    .fil1 {fill:#C6B93A;fill-rule:nonzero}
   ]]>
  </style>
 </defs>
 <g id="Layer_x0020_1">
  <metadata id="CorelCorpID_0Corel-Layer"/>
  <g id="_1197283520">
   <polygon class="fil0" points="-0,0 266.97,0 266.97,181.54 -0,181.54 "/>
   <line class="fil0 str0" x1="14.24" y1="181.54" x2="252.73" y2= "181.54" />
   <path class="fil1" d="M33.05 169.41l-3.62 0 0 -7.38 -0.61 0 -4.76 -8.08c-0.78,-1.32 -1.45,-2.25 -2.02,-2.77 -0.85,-0.8 -1.88,-1.2 -3.06,-1.2l0 12.05 -4.42 0 0 -26.07 4.42 0 0 11.25c1.64,0 2.86,-0.53 3.65,-1.59 0.26,-0.34 0.86,-1.66 1.79,-3.93 0.65,-1.57 1.14,-2.61 1.46,-3.14 0.72,-1.19 1.56,-1.94 2.51,-2.25 0.71,-0.23 1.84,-0.34 3.41,-0.34l0.89 0 0 3.67 -1.23 -0.02c-1.23,-0.02 -2.09,0.3 -2.6,0.95 -0.17,0.22 -0.56,1.14 -1.2,2.77 -0.6,1.54 -1.14,2.61 -1.59,3.21 -0.63,0.81 -1.56,1.52 -2.83,2.1 1.92,0.5 3.78,2.28 5.61,5.32l2.68 4.45 1.52 0 0 11zm9.17 -35.17c0.22,-0.15 0.45,-0.23 0.71,-0.23 0.41,0 0.75,0.55 1.03,1.65 0,0.7 -0.19,1.59 -0.56,2.67 -1.11,3.09 -1.67,5.25 -1.67,6.47 0,0.33 0.09,0.51 0.29,0.54 3.76,-3.62 7.24,-5.42 10.45,-5.42 1.98,0 3.64,0.75 4.98,2.24 1.34,1.5 2.01,2.87 2.01,4.11 0,3.79 -1.93,7.43 -5.8,10.93 -3.87,3.49 -7.76,5.24 -11.69,5.24 -1.75,0 -3.11,-0.73 -4.09,-2.17 -0.97,-1.45 -1.46,-3.52 -1.46,-6.22 0,-2.93 0.37,-6.16 1.11,-9.71 0.74,-3.55 1.32,-5.92 1.77,-7.12 0.18,-0.51 0.34,-1.02 0.49,-1.55 0.17,-0.65 0.98,-1.13 2.43,-1.44zm-1.15 15.38c-0.33,1.81 -0.49,3.63 -0.49,5.44 0,2.47 0.97,3.7 2.92,3.7 2.19,0 4.64,-1.31 7.36,-3.92 2.71,-2.62 4.07,-5.16 4.07,-7.63 0,-1.01 -0.27,-1.86 -0.81,-2.55 -0.54,-0.69 -1.28,-1.03 -2.23,-1.03 -1.3,0 -2.57,0.32 -3.82,0.96 -1.25,0.65 -2.64,1.69 -4.18,3.13 -0.59,0.55 -1.06,0.99 -1.41,1.29 -0.35,0.3 -0.82,0.5 -1.41,0.6zm24.7 5.63c0,1.25 0.17,2.64 0.51,4.19 0.07,0.3 0.1,0.54 0.1,0.74 0,0.29 -0.27,0.68 -0.81,1.15 -0.54,0.46 -1.11,0.69 -1.72,0.69 -1.58,0 -2.38,-1.46 -2.38,-4.37 0,-2.89 0.63,-7.74 1.89,-14.57 0.45,-2.49 0.69,-3.98 0.69,-4.51 0,-1.03 0.19,-1.91 0.56,-2.64 0.38,-0.73 0.91,-1.09 1.6,-1.09 0.83,0 1.49,0.2 1.97,0.6 0.49,0.4 0.73,0.85 0.73,1.33 0,0.49 -0.12,1.17 -0.34,2.03 -1.28,4.66 -2.06,7.93 -2.35,9.79 -0.3,1.87 -0.44,4.08 -0.44,6.65zm20.03 -8.31c2.11,0.34 3.76,1.12 4.93,2.34 1.18,1.21 1.77,2.69 1.77,4.44 0,2.76 -1.17,5.07 -3.51,6.91 -2.34,1.83 -5.41,2.75 -9.22,2.75 -2.28,0 -4.24,-0.49 -5.88,-1.47 -1.64,-0.98 -2.47,-2.07 -2.47,-3.26 0,-0.99 0.57,-1.47 1.7,-1.47 0.16,0 0.41,0.13 0.75,0.42 1.8,1.55 3.94,2.33 6.4,2.33 2.18,0 4.05,-0.57 5.62,-1.72 1.57,-1.15 2.35,-2.64 2.35,-4.46 0,-1.21 -0.44,-2.22 -1.33,-3.03 -0.9,-0.81 -1.92,-1.21 -3.11,-1.21 -0.9,0 -2.48,0.35 -4.73,1.05 -0.44,0.14 -0.92,0.22 -1.42,0.22 -0.99,0 -1.47,-0.66 -1.47,-1.98 0,-0.46 0.23,-0.83 0.7,-1.11 0.47,-0.28 1.47,-0.59 3,-0.95 4.66,-1.06 6.99,-2.96 6.99,-5.67 0,-0.82 -0.28,-1.49 -0.87,-2.03 -0.58,-0.53 -1.32,-0.8 -2.24,-0.8 -1.7,0 -3.52,0.75 -5.44,2.26 -1.13,0.88 -1.99,1.32 -2.58,1.32 -1,0 -1.5,-0.47 -1.5,-1.4 0,-1.23 1.16,-2.48 3.47,-3.77 2.31,-1.28 4.53,-1.93 6.65,-1.93 2.13,0 3.8,0.57 5.02,1.69 1.21,1.13 1.82,2.32 1.82,3.56 0,2.96 -1.81,5.28 -5.42,6.96zm17.86 -12.7c0.22,-0.15 0.45,-0.23 0.71,-0.23 0.41,0 0.75,0.55 1.03,1.65 0,0.7 -0.19,1.59 -0.56,2.67 -1.11,3.09 -1.67,5.25 -1.67,6.47 0,0.33 0.09,0.51 0.29,0.54 3.76,-3.62 7.24,-5.42 10.45,-5.42 1.98,0 3.64,0.75 4.98,2.24 1.34,1.5 2.01,2.87 2.01,4.11 0,3.79 -1.93,7.43 -5.8,10.93 -3.87,3.49 -7.76,5.24 -11.69,5.24 -1.75,0 -3.11,-0.73 -4.09,-2.17 -0.97,-1.45 -1.46,-3.52 -1.46,-6.22 0,-2.93 0.37,-6.16 1.11,-9.71 0.74,-3.55 1.32,-5.92 1.77,-7.12 0.18,-0.51 0.34,-1.02 0.49,-1.55 0.17,-0.65 0.98,-1.13 2.43,-1.44zm-1.15 15.38c-0.33,1.81 -0.49,3.63 -0.49,5.44 0,2.47 0.97,3.7 2.92,3.7 2.19,0 4.64,-1.31 7.36,-3.92 2.71,-2.62 4.07,-5.16 4.07,-7.63 0,-1.01 -0.27,-1.86 -0.81,-2.55 -0.54,-0.69 -1.28,-1.03 -2.23,-1.03 -1.3,0 -2.57,0.32 -3.82,0.96 -1.25,0.65 -2.64,1.69 -4.18,3.13 -0.59,0.55 -1.06,0.99 -1.41,1.29 -0.35,0.3 -0.82,0.5 -1.41,0.6zm24.7 5.63c0,1.25 0.17,2.64 0.51,4.19 0.07,0.3 0.1,0.54 0.1,0.74 0,0.29 -0.27,0.68 -0.81,1.15 -0.54,0.46 -1.11,0.69 -1.72,0.69 -1.58,0 -2.38,-1.46 -2.38,-4.37 0,-2.89 0.63,-7.74 1.89,-14.57 0.45,-2.49 0.69,-3.98 0.69,-4.51 0,-1.03 0.19,-1.91 0.56,-2.64 0.38,-0.73 0.91,-1.09 1.6,-1.09 0.83,0 1.49,0.2 1.97,0.6 0.49,0.4 0.73,0.85 0.73,1.33 0,0.49 -0.12,1.17 -0.34,2.03 -1.28,4.66 -2.06,7.93 -2.35,9.79 -0.3,1.87 -0.44,4.08 -0.44,6.65zm39.34 -14.71c-1.32,2.12 -3.19,5.72 -5.59,10.79 -0.54,1.14 -1.09,2.24 -1.64,3.31 -0.19,0.34 -0.53,1.11 -1.03,2.29 -1.72,3.98 -3.21,5.98 -4.5,5.98 -1.01,0 -1.75,-0.12 -2.22,-0.37 -0.46,-0.24 -0.9,-0.91 -1.33,-2.01 -0.43,-1.1 -1.06,-3.67 -1.89,-7.73 -0.96,-4.59 -1.62,-7.42 -1.96,-8.48 -1.11,2.5 -2.1,4.91 -2.97,7.23 -1.31,3.42 -2.57,6.2 -3.8,8.35 -1.22,2.14 -2.11,3.44 -2.64,3.87 -0.54,0.44 -1.06,0.65 -1.55,0.65 -0.5,0 -0.96,-0.19 -1.37,-0.59 -0.41,-0.39 -0.61,-0.78 -0.61,-1.16 0.1,-0.67 0.21,-1.09 0.34,-1.25 1.42,-1.75 2.64,-3.62 3.67,-5.59 1.03,-1.98 2.35,-4.95 3.94,-8.91 1.59,-3.95 2.61,-7.2 3.05,-9.74 0.22,-1.08 1,-1.62 2.38,-1.62 0.8,0 1.36,0.12 1.65,0.37 0.29,0.24 0.59,0.74 0.87,1.49 0.28,0.75 0.45,1.42 0.5,2.02 0.1,0.7 0.38,2.26 0.83,4.68 0.41,2.28 0.69,3.88 0.81,4.83 0.23,1.37 0.64,3.14 1.21,5.35 0.58,2.21 1.04,3.31 1.37,3.31 0.23,0 0.55,-0.5 0.98,-1.5l2.06 -4.76c0.38,-0.86 0.78,-1.72 1.2,-2.55l2.81 -5.77c1.54,-3.17 2.72,-5.47 3.55,-6.9 0.82,-1.43 1.38,-2.29 1.67,-2.59 0.28,-0.3 0.61,-0.44 0.97,-0.44 0.62,0 1.31,0.17 2.08,0.5 0.77,0.33 1.16,0.7 1.2,1.11 0.03,0.41 0.11,2.12 0.23,5.12l0.32 7.66c0.1,2.44 0.24,4.5 0.44,6.21 0.19,1.71 0.54,3.09 1.03,4.14 0.76,1.67 1.15,2.95 1.15,3.87 0,0.78 -0.32,1.32 -0.96,1.62 -0.65,0.29 -1.25,0.44 -1.81,0.44 -1.14,0 -2.02,-0.92 -2.64,-2.75 -0.61,-1.83 -1.06,-7.08 -1.33,-15.75 -0.1,-2.6 -0.26,-4.19 -0.47,-4.78zm33.62 13.17c0,1.67 -1.47,3.68 -4.42,6.04 -2.95,2.35 -6,3.52 -9.14,3.52 -2.63,0 -4.66,-0.77 -6.1,-2.33 -1.43,-1.55 -2.14,-3.72 -2.14,-6.5 0,-4.68 1.57,-9.13 4.73,-13.34 3.16,-4.22 6.61,-6.33 10.35,-6.33 1.22,0 2.23,0.4 3.01,1.2 0.77,0.8 1.16,1.77 1.16,2.89 0,2.52 -1.24,4.93 -3.71,7.24 -2.47,2.3 -5.77,4.57 -9.9,6.79 -0.85,0.44 -1.27,1.01 -1.27,1.72 0,1.36 0.39,2.45 1.17,3.27 0.79,0.82 1.95,1.22 3.48,1.22 3.52,0 7.11,-1.94 10.77,-5.83 0.54,-0.54 0.95,-0.81 1.23,-0.81 0.52,0 0.78,0.42 0.78,1.25zm-17.05 -3.82c6.94,-4.12 10.41,-7.43 10.41,-9.94 0,-0.98 -0.44,-1.47 -1.33,-1.47 -1.5,0 -3.2,1.1 -5.09,3.31 -1.88,2.21 -3.21,4.91 -3.98,8.1zm40.69 -7.26c-1.52,0.03 -4.78,4.54 -9.76,13.51 -1.69,3.02 -2.67,4.67 -2.95,4.94 -0.28,0.27 -0.79,0.51 -1.53,0.73 -0.75,0.21 -1.37,0.32 -1.85,0.32 -1.1,0 -1.65,-2.13 -1.65,-6.4 0,-2.4 0.52,-6.76 1.55,-13.05 0.43,-2.55 0.64,-4.37 0.64,-5.47 0,-1.08 0.48,-1.62 1.45,-1.62 1.82,0 2.72,1.31 2.72,3.92 0,1.23 -0.3,3.63 -0.9,7.22 -0.7,4.08 -1.06,6.57 -1.08,7.45 1.01,-0.98 2.5,-3.13 4.46,-6.45 2.78,-4.55 4.83,-7.43 6.15,-8.65 1.31,-1.21 2.68,-1.82 4.08,-1.82 1.06,0 1.91,0.71 2.54,2.13 0.63,1.42 1.01,4.81 1.14,10.18 0.03,1.34 0.16,2.34 0.37,2.99 0.22,0.65 0.37,0.98 0.47,0.98 0.77,0 2.44,-2.61 5.01,-7.84 1.37,-2.76 2.7,-4.86 4.01,-6.3 1.3,-1.44 2.74,-2.16 4.33,-2.16 1.32,0 2.29,0.69 2.89,2.05 0.61,1.37 1.04,3.38 1.31,6.07 0.24,2.71 0.62,5.2 1.14,7.45 0.51,2.26 1.46,3.71 2.83,4.34 0.94,0.44 1.4,0.95 1.4,1.55 0,0.57 -0.39,1.16 -1.17,1.76 -0.79,0.61 -1.51,0.91 -2.16,0.91 -1.32,0 -2.48,-0.8 -3.51,-2.4 -1.03,-1.61 -1.81,-5.07 -2.33,-10.4 -0.23,-2.14 -0.45,-3.67 -0.67,-4.56 -0.21,-0.9 -0.54,-1.36 -1.01,-1.36 -0.69,0 -1.5,0.66 -2.43,1.97 -0.95,1.31 -2.46,3.97 -4.55,7.97 -1.63,3.12 -2.87,5.21 -3.72,6.25 -0.84,1.04 -1.65,1.56 -2.43,1.56 -0.7,0 -1.33,-0.28 -1.89,-0.85 -0.55,-0.57 -0.9,-1.25 -1.06,-2.04 -0.14,-0.79 -0.3,-2.74 -0.46,-5.84 -0.25,-5.16 -0.69,-8.18 -1.35,-9.02z"/>
   <g>
    <path class="fil2" d="M85.3 79.13l29.88 0 0 20.46c0,8.22 -6.72,14.94 -14.94,14.94l0 0c-8.22,0 -14.94,-6.72 -14.94,-14.94l0 -20.46z"/>
    <line class="fil0 str1" x1="100.24" y1="80.74" x2="100.24" y2= "16.27" />
    <path class="fil0 str1" d="M127.32 57.43l12.6 47.04m4.02 3.37l39 3.36m-42.19 -6.84c-0.29,0 -0.56,0.04 -0.83,0.11 -1.37,0.36 -2.37,1.61 -2.37,3.1 0,1.77 1.43,3.2 3.2,3.2 1.68,0 3.05,-1.29 3.19,-2.93 0.01,-0.09 0.01,-0.18 0.01,-0.28 0,-1.77 -1.43,-3.2 -3.2,-3.2z"/>
    <polygon class="fil0 str1" points="153.04,41.93 181.77,85.33 153.04,85.33 "/>
   </g>
  </g>
 </g>
</svg>
