<?xml version="1.0" encoding="UTF-8"?>
<!DOCTYPE svg PUBLIC "-//W3C//DTD SVG 1.1//EN" "http://www.w3.org/Graphics/SVG/1.1/DTD/svg11.dtd">
<!-- Creator: CorelDRAW 2020 -->
<svg xmlns="http://www.w3.org/2000/svg" xml:space="preserve" width="11mm" height="10mm" version="1.1" style="shape-rendering:geometricPrecision; text-rendering:geometricPrecision; image-rendering:optimizeQuality; fill-rule:evenodd; clip-rule:evenodd"
viewBox="0 0 87.86 79.87"
 xmlns:xlink="http://www.w3.org/1999/xlink"
 xmlns:xodm="http://www.corel.com/coreldraw/odm/2003">
 <defs>
  <style type="text/css">
   <![CDATA[
    .fil0 {fill:none}
    .fil2 {fill:#B2AD81}
    .fil1 {fill:#B2AD81;fill-rule:nonzero}
   ]]>
  </style>
 </defs>
 <g id="Layer_x0020_1">
  <metadata id="CorelCorpID_0Corel-Layer"/>
  <polygon class="fil0" points="-0,0 87.86,0 87.86,79.87 -0,79.87 "/>
  <path class="fil1" d="M27.01 59.98c-0.6,0.96 -1.45,2.6 -2.54,4.9 -0.24,0.52 -0.49,1.02 -0.75,1.5 -0.08,0.16 -0.24,0.5 -0.47,1.04 -0.78,1.81 -1.46,2.72 -2.04,2.72 -0.46,0 -0.79,-0.05 -1.01,-0.17 -0.21,-0.11 -0.41,-0.41 -0.6,-0.91 -0.19,-0.5 -0.48,-1.67 -0.86,-3.51 -0.44,-2.08 -0.73,-3.37 -0.89,-3.85 -0.51,1.14 -0.96,2.23 -1.35,3.29 -0.59,1.55 -1.17,2.82 -1.73,3.8 -0.56,0.97 -0.96,1.56 -1.2,1.76 -0.25,0.2 -0.48,0.3 -0.7,0.3 -0.23,0 -0.44,-0.09 -0.62,-0.27 -0.19,-0.18 -0.28,-0.35 -0.28,-0.52 0.05,-0.3 0.1,-0.49 0.16,-0.57 0.65,-0.8 1.2,-1.64 1.67,-2.54 0.47,-0.9 1.07,-2.25 1.79,-4.05 0.72,-1.79 1.19,-3.27 1.38,-4.42 0.1,-0.49 0.46,-0.73 1.08,-0.73 0.37,0 0.62,0.05 0.75,0.17 0.13,0.11 0.27,0.34 0.4,0.68 0.13,0.34 0.2,0.65 0.23,0.92 0.05,0.32 0.17,1.03 0.38,2.13 0.19,1.03 0.31,1.76 0.37,2.19 0.1,0.62 0.29,1.43 0.55,2.43 0.26,1 0.47,1.51 0.62,1.51 0.1,0 0.25,-0.23 0.44,-0.68l0.94 -2.16c0.17,-0.39 0.35,-0.78 0.55,-1.16l1.28 -2.62c0.7,-1.44 1.24,-2.48 1.61,-3.13 0.37,-0.65 0.63,-1.04 0.76,-1.17 0.13,-0.14 0.28,-0.2 0.44,-0.2 0.28,0 0.6,0.08 0.95,0.23 0.35,0.15 0.53,0.32 0.54,0.51 0.02,0.19 0.05,0.96 0.1,2.33l0.14 3.48c0.04,1.11 0.11,2.05 0.2,2.82 0.09,0.78 0.24,1.4 0.47,1.88 0.35,0.76 0.52,1.34 0.52,1.76 0,0.35 -0.14,0.6 -0.44,0.73 -0.3,0.13 -0.57,0.2 -0.82,0.2 -0.52,0 -0.92,-0.42 -1.2,-1.25 -0.28,-0.83 -0.48,-3.22 -0.61,-7.16 -0.05,-1.18 -0.12,-1.91 -0.21,-2.17zm23.4 0.68c-0.18,-0.01 -0.35,0.16 -0.52,0.51 -1.54,3.08 -2.7,5.16 -3.49,6.26 -0.07,0.1 -0.16,0.24 -0.26,0.42 -0.93,1.65 -1.61,2.48 -2.04,2.48 -0.58,0 -0.87,-0.28 -0.87,-0.84 0,-0.5 0.36,-1.19 1.08,-2.06 0.7,-0.82 1.61,-2.22 2.75,-4.2 1.14,-1.97 2.06,-3.74 2.77,-5.31 0.13,-0.28 0.33,-0.42 0.6,-0.42 0.11,0 0.31,0.05 0.6,0.15 0.28,0.1 0.47,0.21 0.55,0.33 0.08,0.12 0.26,0.81 0.54,2.07 0.92,4.55 1.88,7.25 2.89,8.1 0.24,0.21 0.38,0.35 0.43,0.42 0.04,0.07 0.06,0.17 0.06,0.29 0,0.23 -0.07,0.44 -0.22,0.63 -0.15,0.19 -0.3,0.31 -0.44,0.36 -0.14,0.05 -0.43,0.08 -0.87,0.08 -0.16,0 -0.52,-0.38 -1.09,-1.16 -0.57,-0.77 -1.24,-2.87 -2.01,-6.29 -0.19,-0.92 -0.34,-1.54 -0.47,-1.85zm10.97 -5.84c-0.16,0 -0.27,-0.17 -0.36,-0.5 -0.03,-0.1 -0.07,-0.22 -0.12,-0.35 -0.2,-0.48 -0.3,-0.9 -0.3,-1.26 0,-0.3 0.17,-0.6 0.53,-0.9 0.35,-0.31 0.75,-0.46 1.17,-0.46 0.22,0 0.46,0.08 0.73,0.25 0.27,0.17 0.4,0.33 0.4,0.48 0,0.25 -0.09,0.66 -0.27,1.25 -0.18,0.59 -0.47,0.98 -0.87,1.19 -0.4,0.2 -0.7,0.3 -0.91,0.3zm-1.46 12.45c0,0.56 0.08,1.2 0.24,1.91 0.03,0.13 0.04,0.24 0.04,0.33 0,0.14 -0.12,0.31 -0.37,0.52 -0.25,0.21 -0.51,0.32 -0.78,0.32 -0.72,0 -1.08,-0.66 -1.08,-1.98 0,-1.37 0.28,-3.53 0.84,-6.49 0.19,-1.04 0.29,-1.67 0.29,-1.91 0,-0.47 0.09,-0.87 0.26,-1.2 0.17,-0.33 0.41,-0.5 0.72,-0.5 0.38,0 0.68,0.09 0.9,0.27 0.22,0.18 0.33,0.38 0.33,0.61 0,0.22 -0.05,0.52 -0.16,0.88 -0.56,1.96 -0.9,3.37 -1.04,4.21 -0.13,0.84 -0.2,1.85 -0.2,3.02zm6.73 -3.39c1.76,-0.31 3.34,-1.44 4.74,-3.41 0.65,-0.91 1.23,-1.56 1.72,-1.94 0.5,-0.38 1.02,-0.57 1.58,-0.57 0.22,0 0.44,0.1 0.67,0.3 0.23,0.2 0.34,0.44 0.34,0.72 0,0.37 -0.34,0.65 -1.03,0.86 -0.37,0.11 -0.71,0.3 -1.03,0.57 -0.32,0.27 -0.92,0.9 -1.81,1.92 -0.7,0.79 -1.33,1.34 -1.88,1.66 -0.05,0.03 -0.08,0.06 -0.08,0.08 0,0.03 0.03,0.06 0.1,0.09 0.54,0.29 1.12,0.85 1.72,1.68 0.87,1.21 1.53,1.98 1.97,2.29 0.44,0.32 0.94,0.47 1.51,0.47l0.37 -0.01c0.26,-0.02 0.39,0.1 0.39,0.35 0,0.28 -0.16,0.58 -0.48,0.88 -0.32,0.3 -0.85,0.46 -1.58,0.46 -0.56,0 -1.11,-0.24 -1.64,-0.73 -0.53,-0.49 -1.14,-1.28 -1.82,-2.37 -0.4,-0.65 -0.76,-1.14 -1.1,-1.47 -0.34,-0.34 -0.72,-0.5 -1.14,-0.5 -0.09,0 -0.37,0.07 -0.83,0.22 -0.46,0.15 -0.72,0.29 -0.77,0.43 -0.06,0.14 -0.1,0.63 -0.13,1.48 -0.02,0.85 -0.04,1.54 -0.04,2.05 0,0.28 -0.13,0.52 -0.39,0.74 -0.26,0.21 -0.54,0.32 -0.85,0.32 -0.31,0 -0.56,-0.09 -0.73,-0.27 -0.18,-0.18 -0.27,-0.37 -0.27,-0.56 0,-0.27 0.1,-0.9 0.3,-1.89 0.36,-1.81 0.72,-4.8 1.07,-8.97 0.03,-0.4 0.18,-0.76 0.46,-1.08 0.27,-0.32 0.59,-0.49 0.94,-0.49 0.19,0 0.35,0.11 0.48,0.31 0.13,0.21 0.2,0.48 0.2,0.8 0,0.26 -0.05,0.56 -0.14,0.89 -0.42,1.54 -0.69,3.11 -0.79,4.71zm-24.17 -5.98l-4.47 11.85 0 4.54 -2.01 0 0 -4.54 -4.5 -11.85 2.14 0 2.49 6.86c0.35,0.95 0.63,1.86 0.87,2.75 0.21,-0.81 0.51,-1.73 0.87,-2.75l2.46 -6.86 2.15 0z"/>
  <path class="fil2" d="M43.42 35.3l9.15 0 0 10.95 -9.15 0 0 -10.95zm-4.73 15.52l33.36 0 0 -18.66 -16.68 -15.13 -16.68 15.13 0 18.66z"/>
  <path class="fil2" d="M28.01 47.32c10.59,-0.18 1.22,-2.94 4.35,-4.82 4.29,-2.59 4.11,-4.67 3.71,-4.99 -10,-7.92 -5.23,-14.51 -5.23,-23.82 0,-10.09 -4.7,-8.92 -5.52,-4.84 -2.06,10.22 -6.99,6.85 -3.79,14.31 2.18,15.28 -5.43,9.41 -5.94,13.66 -0.76,6.23 3.62,8.82 8.43,9.91l0 4.17 4 0 0 -3.57z"/>
 </g>
</svg>
