<?xml version="1.0" encoding="UTF-8"?>
<!DOCTYPE svg PUBLIC "-//W3C//DTD SVG 1.1//EN" "http://www.w3.org/Graphics/SVG/1.1/DTD/svg11.dtd">
<!-- Creator: CorelDRAW 2020 -->
<svg xmlns="http://www.w3.org/2000/svg" xml:space="preserve" width="8.0044mm" height="9.1819mm" version="1.1" style="shape-rendering:geometricPrecision; text-rendering:geometricPrecision; image-rendering:optimizeQuality; fill-rule:evenodd; clip-rule:evenodd"
viewBox="0 0 38.74 44.44"
 xmlns:xlink="http://www.w3.org/1999/xlink"
 xmlns:xodm="http://www.corel.com/coreldraw/odm/2003">
 <defs>
  <style type="text/css">
   <![CDATA[
    .str1 {stroke:#ACA77B;stroke-width:2.42;stroke-miterlimit:22.9256}
    .str2 {stroke:#ACA77B;stroke-width:1.94;stroke-miterlimit:22.9256}
    .str0 {stroke:#ACA77B;stroke-width:0.97;stroke-miterlimit:22.9256}
    .fil0 {fill:none}
    .fil1 {fill:#ACA77B}
    .fil2 {fill:#666633;fill-rule:nonzero}
   ]]>
  </style>
 </defs>
 <g id="Layer_x0020_1">
  <metadata id="CorelCorpID_0Corel-Layer"/>
  <rect class="fil0 str0" x="16.77" y="17.23" width="5.54" height="6.64"/>
  <path class="fil1" d="M16.77 17.23l5.54 0 0 6.64 -5.54 0 0 -6.64zm-2.87 9.4l20.22 0 0 -11.31 -10.11 -9.17 -10.11 9.17 0 11.31z"/>
  <path class="fil1" d="M10.89 25.12c-2.89,-0.33 -6.45,-1.56 -5.99,-6.37 0.25,-2.58 3.93,0.98 2.88,-8.28 -1.55,-4.52 0.83,-2.48 1.83,-8.67 0.4,-2.47 2.67,-3.18 2.67,2.93 0,5.64 -2.31,9.63 2.53,14.43 0.2,0.19 0.28,1.45 -1.79,3.02 -1.51,1.15 3.04,2.82 -2.13,2.92z"/>
  <path class="fil2" d="M9.12 35.77c-0.36,0.58 -0.88,1.57 -1.54,2.97 -0.15,0.31 -0.3,0.62 -0.45,0.91 -0.05,0.09 -0.15,0.3 -0.28,0.63 -0.47,1.1 -0.89,1.65 -1.24,1.65 -0.28,0 -0.48,-0.03 -0.61,-0.1 -0.13,-0.07 -0.25,-0.25 -0.37,-0.55 -0.12,-0.3 -0.29,-1.01 -0.52,-2.13 -0.27,-1.26 -0.44,-2.04 -0.54,-2.34 -0.31,0.69 -0.58,1.35 -0.82,1.99 -0.36,0.94 -0.71,1.71 -1.05,2.3 -0.34,0.59 -0.58,0.95 -0.73,1.06 -0.15,0.12 -0.29,0.18 -0.43,0.18 -0.14,0 -0.27,-0.05 -0.38,-0.16 -0.11,-0.11 -0.17,-0.21 -0.17,-0.32 0.03,-0.18 0.06,-0.3 0.09,-0.34 0.39,-0.48 0.73,-1 1.01,-1.54 0.28,-0.55 0.65,-1.36 1.09,-2.45 0.44,-1.09 0.72,-1.98 0.84,-2.68 0.06,-0.3 0.28,-0.44 0.65,-0.44 0.22,0 0.37,0.03 0.45,0.1 0.08,0.07 0.16,0.21 0.24,0.41 0.08,0.21 0.12,0.39 0.14,0.56 0.03,0.19 0.1,0.62 0.23,1.29 0.11,0.63 0.19,1.07 0.22,1.33 0.06,0.38 0.17,0.86 0.33,1.47 0.16,0.61 0.29,0.91 0.38,0.91 0.06,0 0.15,-0.14 0.27,-0.41l0.57 -1.31c0.1,-0.24 0.21,-0.47 0.33,-0.7l0.77 -1.59c0.42,-0.87 0.75,-1.5 0.98,-1.9 0.23,-0.39 0.38,-0.63 0.46,-0.71 0.08,-0.08 0.17,-0.12 0.27,-0.12 0.17,0 0.36,0.05 0.57,0.14 0.21,0.09 0.32,0.19 0.33,0.31 0.01,0.11 0.03,0.58 0.06,1.41l0.09 2.11c0.03,0.67 0.07,1.24 0.12,1.71 0.05,0.47 0.15,0.85 0.28,1.14 0.21,0.46 0.32,0.81 0.32,1.07 0,0.21 -0.09,0.36 -0.26,0.44 -0.18,0.08 -0.34,0.12 -0.5,0.12 -0.31,0 -0.56,-0.25 -0.73,-0.76 -0.17,-0.5 -0.29,-1.95 -0.37,-4.34 -0.03,-0.72 -0.07,-1.15 -0.13,-1.32zm14.18 0.41c-0.11,-0 -0.21,0.1 -0.32,0.31 -0.93,1.86 -1.64,3.13 -2.11,3.8 -0.04,0.06 -0.09,0.14 -0.16,0.26 -0.56,1 -0.98,1.5 -1.24,1.5 -0.35,0 -0.53,-0.17 -0.53,-0.51 0,-0.3 0.22,-0.72 0.65,-1.25 0.42,-0.5 0.98,-1.35 1.67,-2.54 0.69,-1.19 1.25,-2.27 1.68,-3.22 0.08,-0.17 0.2,-0.26 0.36,-0.26 0.07,0 0.19,0.03 0.36,0.09 0.17,0.06 0.28,0.13 0.33,0.2 0.05,0.07 0.16,0.49 0.33,1.26 0.56,2.76 1.14,4.4 1.75,4.91 0.15,0.13 0.23,0.21 0.26,0.25 0.03,0.04 0.04,0.1 0.04,0.18 0,0.14 -0.04,0.27 -0.13,0.38 -0.09,0.12 -0.18,0.19 -0.27,0.22 -0.09,0.03 -0.26,0.05 -0.53,0.05 -0.09,0 -0.32,-0.23 -0.66,-0.7 -0.35,-0.47 -0.75,-1.74 -1.22,-3.81 -0.11,-0.56 -0.21,-0.93 -0.28,-1.12zm6.65 -3.54c-0.09,0 -0.17,-0.1 -0.22,-0.3 -0.02,-0.06 -0.04,-0.13 -0.07,-0.21 -0.12,-0.29 -0.18,-0.55 -0.18,-0.76 0,-0.18 0.11,-0.36 0.32,-0.55 0.21,-0.19 0.45,-0.28 0.71,-0.28 0.13,0 0.28,0.05 0.44,0.15 0.16,0.1 0.24,0.2 0.24,0.29 0,0.15 -0.06,0.4 -0.17,0.76 -0.11,0.35 -0.29,0.59 -0.53,0.72 -0.24,0.12 -0.42,0.18 -0.55,0.18zm-0.89 7.54c0,0.34 0.05,0.73 0.14,1.15 0.02,0.08 0.03,0.15 0.03,0.2 0,0.08 -0.07,0.19 -0.22,0.32 -0.15,0.13 -0.31,0.19 -0.47,0.19 -0.44,0 -0.65,-0.4 -0.65,-1.2 0,-0.83 0.17,-2.14 0.51,-3.93 0.12,-0.63 0.18,-1.01 0.18,-1.15 0,-0.28 0.05,-0.53 0.16,-0.73 0.1,-0.2 0.25,-0.3 0.44,-0.3 0.23,0 0.41,0.06 0.54,0.17 0.13,0.11 0.2,0.23 0.2,0.37 0,0.13 -0.03,0.31 -0.09,0.53 -0.34,1.19 -0.55,2.04 -0.63,2.55 -0.08,0.51 -0.12,1.12 -0.12,1.83zm4.08 -2.05c1.07,-0.18 2.02,-0.87 2.87,-2.07 0.4,-0.55 0.74,-0.95 1.04,-1.18 0.3,-0.23 0.62,-0.35 0.96,-0.35 0.13,0 0.27,0.06 0.4,0.18 0.14,0.12 0.2,0.27 0.2,0.43 0,0.22 -0.21,0.39 -0.63,0.52 -0.22,0.07 -0.43,0.18 -0.62,0.34 -0.19,0.16 -0.56,0.55 -1.1,1.16 -0.42,0.48 -0.8,0.81 -1.14,1 -0.03,0.02 -0.05,0.03 -0.05,0.05 0,0.02 0.02,0.04 0.06,0.05 0.33,0.18 0.68,0.52 1.04,1.02 0.53,0.73 0.93,1.2 1.19,1.39 0.27,0.19 0.57,0.29 0.91,0.29l0.22 -0.01c0.16,-0.01 0.23,0.06 0.23,0.21 0,0.17 -0.1,0.35 -0.29,0.53 -0.19,0.18 -0.51,0.28 -0.96,0.28 -0.34,0 -0.67,-0.15 -1,-0.44 -0.32,-0.29 -0.69,-0.77 -1.1,-1.44 -0.24,-0.39 -0.46,-0.69 -0.67,-0.89 -0.21,-0.2 -0.44,-0.3 -0.69,-0.3 -0.05,0 -0.22,0.04 -0.5,0.13 -0.28,0.09 -0.44,0.18 -0.47,0.26 -0.03,0.08 -0.06,0.38 -0.08,0.9 -0.01,0.51 -0.02,0.93 -0.02,1.24 0,0.17 -0.08,0.32 -0.24,0.45 -0.16,0.13 -0.33,0.2 -0.51,0.2 -0.19,0 -0.34,-0.06 -0.44,-0.17 -0.11,-0.11 -0.16,-0.22 -0.16,-0.34 0,-0.16 0.06,-0.54 0.18,-1.15 0.22,-1.1 0.43,-2.91 0.65,-5.44 0.02,-0.24 0.11,-0.46 0.28,-0.66 0.17,-0.2 0.35,-0.29 0.57,-0.29 0.12,0 0.21,0.06 0.29,0.19 0.08,0.13 0.12,0.29 0.12,0.49 0,0.16 -0.03,0.34 -0.08,0.54 -0.26,0.93 -0.42,1.88 -0.48,2.86zm-14.65 -3.63l-2.71 7.18 0 2.75 -1.22 0 0 -2.75 -2.72 -7.18 1.3 0 1.51 4.16c0.21,0.57 0.38,1.13 0.53,1.66 0.13,-0.49 0.31,-1.05 0.53,-1.66l1.49 -4.16 1.3 0z"/>
  <line class="fil0 str1" x1="4.52" y1="27.59" x2="36.96" y2= "27.59" />
  <line class="fil0 str2" x1="10.17" y1="24.41" x2="10.17" y2= "27.16" />
 </g>
</svg>
