<?xml version="1.0" encoding="UTF-8"?>
<!DOCTYPE svg PUBLIC "-//W3C//DTD SVG 1.1//EN" "http://www.w3.org/Graphics/SVG/1.1/DTD/svg11.dtd">
<!-- Creator: CorelDRAW 2020 -->
<svg xmlns="http://www.w3.org/2000/svg" xml:space="preserve" width="11mm" height="10mm" version="1.1" style="shape-rendering:geometricPrecision; text-rendering:geometricPrecision; image-rendering:optimizeQuality; fill-rule:evenodd; clip-rule:evenodd"
viewBox="0 0 87.86 79.87"
 xmlns:xlink="http://www.w3.org/1999/xlink"
 xmlns:xodm="http://www.corel.com/coreldraw/odm/2003">
 <defs>
  <style type="text/css">
   <![CDATA[
    .str1 {stroke:#C6B93A;stroke-width:3.19;stroke-miterlimit:22.9256}
    .str0 {stroke:#C6B93A;stroke-width:1.6;stroke-miterlimit:22.9256}
    .fil0 {fill:none}
    .fil2 {fill:#C6B93A}
    .fil1 {fill:#C6B93A;fill-rule:nonzero}
   ]]>
  </style>
 </defs>
 <g id="Layer_x0020_1">
  <metadata id="CorelCorpID_0Corel-Layer"/>
  <g id="_1033949144">
   <polygon class="fil0" points="-0,0 87.86,0 87.86,79.87 -0,79.87 "/>
   <g>
    <path class="fil1" d="M26.72 61c-0.53,0.86 -1.29,2.31 -2.26,4.36 -0.22,0.46 -0.44,0.91 -0.66,1.34 -0.07,0.14 -0.21,0.45 -0.42,0.92 -0.69,1.61 -1.3,2.41 -1.82,2.41 -0.41,0 -0.71,-0.05 -0.9,-0.15 -0.19,-0.1 -0.37,-0.37 -0.54,-0.81 -0.17,-0.44 -0.43,-1.48 -0.76,-3.12 -0.39,-1.85 -0.65,-3 -0.79,-3.43 -0.45,1.01 -0.85,1.98 -1.2,2.92 -0.53,1.38 -1.04,2.5 -1.54,3.37 -0.49,0.87 -0.85,1.39 -1.07,1.56 -0.22,0.18 -0.43,0.26 -0.63,0.26 -0.2,0 -0.39,-0.08 -0.55,-0.24 -0.17,-0.16 -0.25,-0.31 -0.25,-0.47 0.04,-0.27 0.09,-0.44 0.14,-0.5 0.58,-0.71 1.07,-1.46 1.48,-2.26 0.42,-0.8 0.95,-2 1.59,-3.6 0.64,-1.6 1.06,-2.91 1.23,-3.93 0.09,-0.44 0.41,-0.65 0.96,-0.65 0.32,0 0.55,0.05 0.67,0.15 0.12,0.1 0.24,0.3 0.35,0.6 0.12,0.3 0.18,0.57 0.2,0.81 0.04,0.28 0.15,0.91 0.33,1.89 0.17,0.92 0.28,1.57 0.33,1.95 0.09,0.55 0.26,1.27 0.49,2.16 0.23,0.89 0.42,1.34 0.55,1.34 0.09,0 0.22,-0.2 0.4,-0.6l0.83 -1.92c0.15,-0.35 0.31,-0.69 0.49,-1.03l1.14 -2.33c0.62,-1.28 1.1,-2.21 1.43,-2.79 0.33,-0.58 0.56,-0.93 0.67,-1.04 0.12,-0.12 0.25,-0.18 0.39,-0.18 0.25,0 0.53,0.07 0.84,0.2 0.31,0.13 0.47,0.28 0.48,0.45 0.01,0.17 0.04,0.86 0.09,2.07l0.13 3.09c0.04,0.98 0.1,1.82 0.18,2.51 0.08,0.69 0.22,1.25 0.42,1.67 0.31,0.67 0.46,1.19 0.46,1.57 0,0.31 -0.13,0.53 -0.39,0.65 -0.26,0.12 -0.5,0.18 -0.73,0.18 -0.46,0 -0.82,-0.37 -1.07,-1.11 -0.25,-0.74 -0.43,-2.86 -0.54,-6.36 -0.04,-1.05 -0.1,-1.69 -0.19,-1.93zm20.8 0.6c-0.16,-0.01 -0.31,0.15 -0.46,0.46 -1.37,2.74 -2.4,4.59 -3.1,5.57 -0.06,0.08 -0.14,0.21 -0.23,0.38 -0.83,1.47 -1.43,2.21 -1.81,2.21 -0.51,0 -0.77,-0.25 -0.77,-0.74 0,-0.45 0.32,-1.06 0.96,-1.83 0.62,-0.73 1.43,-1.98 2.44,-3.73 1.01,-1.75 1.83,-3.32 2.46,-4.72 0.12,-0.25 0.3,-0.38 0.53,-0.38 0.1,0 0.28,0.04 0.53,0.13 0.25,0.09 0.42,0.19 0.49,0.29 0.07,0.1 0.23,0.72 0.48,1.84 0.81,4.05 1.67,6.45 2.57,7.2 0.21,0.19 0.34,0.31 0.38,0.37 0.04,0.06 0.06,0.15 0.06,0.26 0,0.21 -0.06,0.39 -0.2,0.56 -0.14,0.17 -0.26,0.27 -0.39,0.32 -0.13,0.05 -0.38,0.07 -0.77,0.07 -0.14,0 -0.46,-0.34 -0.97,-1.03 -0.51,-0.68 -1.11,-2.55 -1.79,-5.59 -0.17,-0.82 -0.3,-1.37 -0.42,-1.65zm9.75 -5.19c-0.14,0 -0.24,-0.15 -0.32,-0.45 -0.03,-0.09 -0.06,-0.19 -0.11,-0.31 -0.18,-0.43 -0.27,-0.8 -0.27,-1.12 0,-0.26 0.15,-0.53 0.47,-0.8 0.31,-0.27 0.66,-0.41 1.04,-0.41 0.19,0 0.41,0.08 0.65,0.22 0.24,0.15 0.36,0.29 0.36,0.43 0,0.22 -0.08,0.59 -0.24,1.11 -0.16,0.52 -0.42,0.87 -0.77,1.05 -0.36,0.18 -0.62,0.27 -0.81,0.27zm-1.3 11.07c0,0.5 0.07,1.06 0.21,1.69 0.03,0.12 0.04,0.22 0.04,0.29 0,0.12 -0.11,0.27 -0.33,0.46 -0.22,0.19 -0.45,0.28 -0.69,0.28 -0.64,0 -0.96,-0.59 -0.96,-1.76 0,-1.22 0.25,-3.14 0.75,-5.77 0.17,-0.92 0.26,-1.48 0.26,-1.69 0,-0.42 0.08,-0.77 0.23,-1.06 0.15,-0.29 0.37,-0.44 0.64,-0.44 0.34,0 0.6,0.08 0.8,0.24 0.2,0.16 0.29,0.34 0.29,0.54 0,0.2 -0.04,0.46 -0.14,0.78 -0.49,1.74 -0.8,2.99 -0.92,3.75 -0.12,0.75 -0.18,1.65 -0.18,2.68zm5.98 -3.01c1.57,-0.27 2.97,-1.28 4.21,-3.03 0.58,-0.81 1.09,-1.39 1.53,-1.73 0.44,-0.34 0.91,-0.51 1.4,-0.51 0.2,0 0.4,0.09 0.59,0.27 0.2,0.18 0.3,0.39 0.3,0.64 0,0.32 -0.3,0.58 -0.92,0.76 -0.32,0.1 -0.63,0.27 -0.91,0.5 -0.28,0.24 -0.82,0.8 -1.61,1.7 -0.62,0.7 -1.18,1.19 -1.67,1.47 -0.05,0.03 -0.07,0.05 -0.07,0.07 0,0.03 0.03,0.05 0.09,0.08 0.48,0.26 0.99,0.76 1.53,1.5 0.78,1.08 1.36,1.75 1.75,2.04 0.39,0.28 0.83,0.42 1.34,0.42l0.33 -0.01c0.23,-0.01 0.34,0.09 0.34,0.31 0,0.25 -0.14,0.51 -0.43,0.78 -0.28,0.27 -0.75,0.41 -1.41,0.41 -0.5,0 -0.99,-0.22 -1.46,-0.65 -0.47,-0.43 -1.01,-1.14 -1.62,-2.11 -0.35,-0.58 -0.68,-1.01 -0.98,-1.31 -0.3,-0.3 -0.64,-0.45 -1.01,-0.45 -0.08,0 -0.32,0.06 -0.73,0.2 -0.41,0.13 -0.64,0.26 -0.69,0.38 -0.05,0.12 -0.09,0.56 -0.11,1.32 -0.02,0.75 -0.03,1.37 -0.03,1.83 0,0.25 -0.12,0.46 -0.35,0.66 -0.23,0.19 -0.48,0.29 -0.75,0.29 -0.28,0 -0.49,-0.08 -0.65,-0.24 -0.16,-0.16 -0.24,-0.33 -0.24,-0.5 0,-0.24 0.09,-0.8 0.27,-1.68 0.32,-1.61 0.64,-4.27 0.95,-7.98 0.02,-0.36 0.16,-0.68 0.41,-0.96 0.24,-0.29 0.52,-0.43 0.83,-0.43 0.17,0 0.31,0.09 0.43,0.28 0.12,0.19 0.18,0.42 0.18,0.71 0,0.23 -0.04,0.5 -0.12,0.79 -0.38,1.37 -0.61,2.76 -0.7,4.19zm-21.49 -5.32l-3.98 10.53 0 4.04 -1.79 0 0 -4.04 -4 -10.53 1.91 0 2.21 6.1c0.31,0.84 0.56,1.65 0.77,2.44 0.19,-0.72 0.45,-1.54 0.77,-2.44l2.19 -6.1 1.91 0z"/>
    <g>
     <polygon class="fil0 str0" points="39.57,35.3 48.72,35.3 48.72,46.25 39.57,46.25 "/>
     <path class="fil2" d="M39.57 35.3l9.15 0 0 10.95 -9.15 0 0 -10.95zm-4.73 15.52l33.36 0 0 -18.66 -16.68 -15.13 -16.68 15.13 0 18.66z"/>
     <path class="fil2" d="M23.67 47.32c-4.77,-0.54 -10.65,-2.57 -9.88,-10.5 0.41,-4.25 6.48,1.62 4.75,-13.66 -2.56,-7.46 1.38,-4.09 3.02,-14.31 0.66,-4.08 4.41,-5.25 4.41,4.84 0,9.31 -3.81,15.9 4.18,23.82 0.32,0.32 0.47,2.4 -2.96,4.99 -2.5,1.89 5.02,4.65 -3.52,4.82z"/>
     <line class="fil0 str1" x1="22.12" y1="46.38" x2="22.12" y2= "50.91" />
    </g>
   </g>
   <line class="fil0 str0" x1="11.98" y1="78.48" x2="75.88" y2= "78.48" />
  </g>
 </g>
</svg>
