<?xml version="1.0" encoding="UTF-8"?>
<!DOCTYPE svg PUBLIC "-//W3C//DTD SVG 1.1//EN" "http://www.w3.org/Graphics/SVG/1.1/DTD/svg11.dtd">
<!-- Creator: CorelDRAW 2020 -->
<svg xmlns="http://www.w3.org/2000/svg" xml:space="preserve" width="12mm" height="10.2mm" version="1.1" style="shape-rendering:geometricPrecision; text-rendering:geometricPrecision; image-rendering:optimizeQuality; fill-rule:evenodd; clip-rule:evenodd"
viewBox="0 0 119.72 101.76"
 xmlns:xlink="http://www.w3.org/1999/xlink"
 xmlns:xodm="http://www.corel.com/coreldraw/odm/2003">
 <defs>
  <style type="text/css">
   <![CDATA[
    .fil0 {fill:none}
    .fil2 {fill:#ACA77B}
    .fil1 {fill:#ACA77B;fill-rule:nonzero}
   ]]>
  </style>
 </defs>
 <g id="Layer_x0020_1">
  <metadata id="CorelCorpID_0Corel-Layer"/>
  <g id="_1221259176">
   <polygon class="fil0" points="-0,0 119.72,0 119.72,101.76 -0,101.76 "/>
   <path class="fil1" d="M23.13 83.79c0,3.4 -1.1,5.72 -3.29,6.93 -1.07,0.6 -2.25,0.89 -3.52,0.89 -2.22,0 -3.93,-0.73 -5.15,-2.18 -1.13,-1.36 -1.69,-3.17 -1.69,-5.43 0,-2.7 0.75,-4.7 2.25,-6 1.25,-1.08 2.78,-1.62 4.59,-1.62 2.15,0 3.83,0.71 5.06,2.13 1.17,1.35 1.75,3.11 1.75,5.28zm-2.59 -1.19c-0.16,-1.18 -0.54,-2.11 -1.15,-2.78 -0.82,-0.92 -1.85,-1.38 -3.08,-1.38 -1.25,0 -2.28,0.46 -3.1,1.38 -0.61,0.68 -0.99,1.61 -1.15,2.78l8.48 0zm0.06 2.03l-8.59 0c0.08,1.41 0.45,2.56 1.12,3.44 0.77,1.01 1.83,1.51 3.19,1.51 1.35,0 2.41,-0.51 3.17,-1.52 0.66,-0.88 1.03,-2.02 1.12,-3.43zm9.19 7.46c-1.37,0 -2.44,-0.4 -3.17,-1.18 -0.74,-0.79 -1.11,-1.89 -1.11,-3.31 0,-2.39 0.95,-4.91 2.85,-7.57 1.9,-2.65 3.66,-3.98 5.29,-3.98 0.74,0 1.38,0.4 1.92,1.2 0.54,0.8 0.81,1.65 0.81,2.55 0,0.54 -0.12,1 -0.35,1.39 -0.23,0.39 -0.47,0.59 -0.71,0.59 -0.53,0 -0.91,-0.54 -1.13,-1.61 -0.25,-1.15 -0.61,-1.73 -1.07,-1.73 -0.95,0 -2.08,1.13 -3.38,3.39 -1.3,2.27 -1.95,4.18 -1.95,5.73 0,1.56 0.88,2.34 2.65,2.34 1.35,0 2.93,-0.63 4.76,-1.9 0.64,-0.45 1.11,-0.68 1.42,-0.68 0.31,0 0.46,0.18 0.46,0.54 0,0.69 -0.82,1.57 -2.46,2.63 -1.64,1.06 -3.25,1.59 -4.82,1.59zm14.94 -19.19c-0.19,0 -0.34,-0.21 -0.44,-0.62 -0.04,-0.13 -0.08,-0.27 -0.15,-0.43 -0.25,-0.59 -0.37,-1.11 -0.37,-1.55 0,-0.37 0.22,-0.74 0.65,-1.12 0.44,-0.38 0.92,-0.57 1.45,-0.57 0.27,0 0.56,0.1 0.9,0.31 0.33,0.21 0.49,0.4 0.49,0.6 0,0.31 -0.11,0.82 -0.34,1.54 -0.23,0.72 -0.58,1.21 -1.07,1.46 -0.49,0.25 -0.86,0.38 -1.12,0.38zm-1.8 15.36c0,0.69 0.1,1.48 0.29,2.35 0.04,0.16 0.05,0.3 0.05,0.41 0,0.17 -0.15,0.38 -0.45,0.64 -0.31,0.26 -0.62,0.39 -0.96,0.39 -0.89,0 -1.33,-0.82 -1.33,-2.44 0,-1.69 0.35,-4.35 1.04,-8 0.24,-1.28 0.36,-2.06 0.36,-2.35 0,-0.58 0.11,-1.07 0.32,-1.48 0.21,-0.41 0.51,-0.62 0.89,-0.62 0.47,0 0.84,0.11 1.11,0.34 0.27,0.23 0.4,0.47 0.4,0.75 0,0.27 -0.06,0.64 -0.19,1.08 -0.68,2.42 -1.11,4.15 -1.28,5.2 -0.16,1.04 -0.25,2.29 -0.25,3.73zm23.06 -8.99c-0.74,1.19 -1.79,3.21 -3.13,6.05 -0.3,0.64 -0.61,1.26 -0.92,1.85 -0.1,0.19 -0.3,0.62 -0.58,1.28 -0.96,2.23 -1.8,3.35 -2.52,3.35 -0.57,0 -0.98,-0.07 -1.24,-0.21 -0.26,-0.14 -0.51,-0.51 -0.75,-1.13 -0.24,-0.61 -0.59,-2.06 -1.06,-4.33 -0.54,-2.57 -0.91,-4.16 -1.1,-4.75 -0.62,1.4 -1.18,2.75 -1.67,4.05 -0.73,1.91 -1.44,3.48 -2.13,4.68 -0.69,1.2 -1.18,1.93 -1.48,2.17 -0.31,0.24 -0.59,0.37 -0.87,0.37 -0.28,0 -0.54,-0.11 -0.77,-0.33 -0.23,-0.22 -0.34,-0.44 -0.34,-0.65 0.06,-0.38 0.12,-0.61 0.19,-0.7 0.8,-0.98 1.48,-2.03 2.06,-3.13 0.58,-1.11 1.31,-2.77 2.21,-4.99 0.89,-2.21 1.46,-4.04 1.71,-5.46 0.12,-0.61 0.56,-0.91 1.33,-0.91 0.45,0 0.76,0.07 0.92,0.21 0.16,0.14 0.33,0.42 0.49,0.84 0.16,0.42 0.25,0.8 0.28,1.13 0.06,0.39 0.21,1.27 0.46,2.62 0.23,1.28 0.38,2.18 0.45,2.71 0.13,0.77 0.36,1.76 0.68,3 0.32,1.24 0.58,1.86 0.77,1.86 0.13,0 0.31,-0.28 0.55,-0.84l1.15 -2.67c0.21,-0.48 0.44,-0.96 0.68,-1.43l1.58 -3.23c0.86,-1.78 1.52,-3.06 1.99,-3.87 0.46,-0.8 0.77,-1.29 0.93,-1.45 0.16,-0.17 0.34,-0.25 0.54,-0.25 0.35,0 0.74,0.09 1.17,0.28 0.43,0.19 0.65,0.39 0.67,0.62 0.02,0.23 0.06,1.19 0.13,2.87l0.18 4.29c0.06,1.37 0.14,2.53 0.25,3.48 0.11,0.96 0.3,1.73 0.58,2.32 0.43,0.93 0.64,1.66 0.64,2.17 0,0.44 -0.18,0.74 -0.54,0.91 -0.37,0.16 -0.7,0.25 -1.01,0.25 -0.64,0 -1.13,-0.52 -1.48,-1.54 -0.34,-1.03 -0.59,-3.97 -0.75,-8.83 -0.06,-1.46 -0.15,-2.35 -0.26,-2.68zm17.54 -3.96c-0.33,-1.43 -0.74,-2.43 -1.23,-3 -0.48,-0.57 -1.13,-1.01 -1.92,-1.32 -0.8,-0.31 -1.52,-0.47 -2.16,-0.47 -0.24,0 -0.61,0.09 -1.09,0.28 -0.48,0.19 -0.85,0.36 -1.1,0.52 -0.36,0.21 -0.69,0.32 -0.99,0.32 -0.35,0 -0.53,-0.18 -0.53,-0.55 0,-0.39 0.3,-0.94 0.9,-1.63 0.6,-0.7 1.64,-1.05 3.15,-1.05l0.59 0c1.49,0 2.81,0.4 3.96,1.18 1.15,0.78 1.96,1.9 2.44,3.36 0.48,1.45 0.72,3.41 0.72,5.87 0,1.67 -0.53,3.69 -1.58,6.06 -1.05,2.37 -2.39,4.17 -4.02,5.39 -1.62,1.22 -3.36,1.83 -5.19,1.83 -0.66,0 -1.28,-0.38 -1.85,-1.14 -0.58,-0.76 -0.87,-1.7 -0.87,-2.83 0,-2.08 0.45,-3.91 1.37,-5.51 0.91,-1.59 1.93,-2.88 3.06,-3.87 1.13,-0.99 2.7,-1.79 4.7,-2.39 0.66,-0.19 1.11,-0.34 1.35,-0.45 0.24,-0.11 0.34,-0.31 0.3,-0.59zm0.37 2.8c-2.12,0.43 -3.74,1.12 -4.87,2.05 -2.55,2.38 -3.82,5.05 -3.82,8.02 0,0.39 0.07,0.77 0.21,1.11 0.14,0.34 0.29,0.52 0.46,0.52 0.68,0 1.3,-0.12 1.86,-0.36 0.56,-0.24 1.24,-0.74 2.05,-1.49 0.81,-0.76 1.54,-1.69 2.2,-2.81 0.65,-1.12 1.13,-2.2 1.43,-3.23 0.3,-1.04 0.46,-1.83 0.47,-2.38 0.02,-0.55 0.02,-1.03 0.01,-1.41zm8.44 -5.21c-0.19,0 -0.34,-0.21 -0.44,-0.62 -0.04,-0.13 -0.08,-0.27 -0.15,-0.43 -0.25,-0.59 -0.37,-1.11 -0.37,-1.55 0,-0.37 0.22,-0.74 0.65,-1.12 0.44,-0.38 0.92,-0.57 1.45,-0.57 0.27,0 0.56,0.1 0.9,0.31 0.33,0.21 0.49,0.4 0.49,0.6 0,0.31 -0.11,0.82 -0.34,1.54 -0.23,0.72 -0.58,1.21 -1.07,1.46 -0.49,0.25 -0.86,0.38 -1.12,0.38zm-1.8 15.36c0,0.69 0.1,1.48 0.29,2.35 0.04,0.16 0.05,0.3 0.05,0.41 0,0.17 -0.15,0.38 -0.45,0.64 -0.31,0.26 -0.62,0.39 -0.96,0.39 -0.89,0 -1.33,-0.82 -1.33,-2.44 0,-1.69 0.35,-4.35 1.04,-8 0.24,-1.28 0.36,-2.06 0.36,-2.35 0,-0.58 0.11,-1.07 0.32,-1.48 0.21,-0.41 0.51,-0.62 0.89,-0.62 0.47,0 0.84,0.11 1.11,0.34 0.27,0.23 0.4,0.47 0.4,0.75 0,0.27 -0.06,0.64 -0.19,1.08 -0.68,2.42 -1.11,4.15 -1.28,5.2 -0.16,1.04 -0.25,2.29 -0.25,3.73zm8.3 -4.18c2.17,-0.38 4.12,-1.78 5.84,-4.21 0.81,-1.13 1.52,-1.92 2.13,-2.4 0.61,-0.47 1.26,-0.71 1.95,-0.71 0.27,0 0.55,0.13 0.82,0.37 0.28,0.25 0.41,0.54 0.41,0.88 0,0.45 -0.42,0.8 -1.28,1.06 -0.45,0.14 -0.87,0.37 -1.27,0.7 -0.39,0.33 -1.14,1.12 -2.24,2.37 -0.86,0.97 -1.64,1.65 -2.32,2.05 -0.07,0.04 -0.1,0.07 -0.1,0.1 0,0.04 0.04,0.07 0.13,0.11 0.67,0.36 1.37,1.05 2.12,2.08 1.08,1.49 1.89,2.44 2.43,2.82 0.54,0.39 1.16,0.58 1.86,0.58l0.45 -0.01c0.32,-0.02 0.48,0.13 0.48,0.43 0,0.35 -0.2,0.71 -0.59,1.09 -0.39,0.38 -1.05,0.56 -1.95,0.56 -0.69,0 -1.37,-0.3 -2.03,-0.9 -0.66,-0.6 -1.4,-1.58 -2.25,-2.92 -0.49,-0.8 -0.94,-1.4 -1.36,-1.81 -0.42,-0.41 -0.89,-0.62 -1.4,-0.62 -0.11,0 -0.45,0.09 -1.02,0.27 -0.57,0.18 -0.89,0.36 -0.95,0.53 -0.07,0.17 -0.12,0.78 -0.15,1.83 -0.03,1.05 -0.05,1.9 -0.05,2.53 0,0.34 -0.16,0.64 -0.48,0.91 -0.32,0.26 -0.67,0.4 -1.05,0.4 -0.38,0 -0.68,-0.11 -0.9,-0.34 -0.22,-0.22 -0.33,-0.45 -0.33,-0.69 0,-0.33 0.13,-1.11 0.37,-2.34 0.44,-2.24 0.88,-5.93 1.32,-11.07 0.03,-0.49 0.22,-0.94 0.56,-1.34 0.34,-0.4 0.72,-0.6 1.15,-0.6 0.24,0 0.44,0.13 0.6,0.39 0.16,0.26 0.24,0.59 0.24,0.99 0,0.32 -0.06,0.69 -0.17,1.1 -0.52,1.9 -0.85,3.83 -0.98,5.81z"/>
   <path class="fil2" d="M39.97 60.11c13.23,-0.22 1.53,-3.67 5.43,-6.03 5.36,-3.24 5.13,-5.83 4.63,-6.23 -12.49,-9.89 -6.53,-18.12 -6.53,-29.75 0,-12.61 -5.87,-11.14 -6.9,-6.05 -2.58,12.77 -8.73,8.56 -4.73,17.88 2.72,19.09 -6.78,11.75 -7.43,17.06 -0.94,7.78 4.53,11.02 10.53,12.37l0 5.21 5 0 0 -4.46z"/>
   <path class="fil2" d="M60.76 62.05c8.63,-0.13 1,-2.07 3.54,-3.39 3.5,-1.82 3.35,-3.29 3.02,-3.51 -5.33,-3.64 -6.2,-31.12 -8.77,-20.16 -0.84,3.6 -7.89,19.37 -7.93,19.68 -0.62,4.38 2.95,6.2 6.87,6.97l0 2.94 3.26 0 0 -2.51z"/>
   <path class="fil2" d="M90.31 64.04c9.04,-7.23 -11.38,-10.15 -18.8,-5.73 -3.56,2.12 0.97,4.32 0.15,4.58 -8.04,2.57 -53.77,-5.18 -41.8,1.06l0 0.61 60.45 0 0 -0.53z"/>
  </g>
 </g>
</svg>
