<svg xmlns="http://www.w3.org/2000/svg" xmlns:xlink="http://www.w3.org/1999/xlink" viewBox="0 0 58.9 5.4" height="20.409" width="222.614" xmlns:v="https://vecta.io/nano"><style><![CDATA[.K{fill:#917c6f}.L{font-size:3.528px}.M{font-family:Segoe Print}.N{word-spacing:0px}.O{writing-mode:lr-tb}]]></style><text letter-spacing="0" xml:space="preserve" x="114.134" y="-37.218" class="K L M N O"><tspan x="114.134" y="-37.218">адамдар</tspan><tspan x="114.134" y="-30.068">бөлме ғимарат жобалар</tspan><tspan x="114.134" y="-22.918">ғарыш тылсым әлем</tspan><tspan x="114.134" y="-15.767">гүлдер</tspan><tspan x="114.134" y="-8.617">өсімдіктер</tspan><tspan x="114.134" y="-1.466">қалыпталған кескіндер</tspan><tspan x="114.134" y="5.684">қолданыс заттары</tspan><tspan x="114.134" y="12.74">жаныуарлар</tspan><tspan x="114.134" y="19.89">өнер білім спорт</tspan><tspan x="114.134" y="26.946">art education sports</tspan><tspan x="114.134" y="34.107">美術教育スポーツ</tspan><tspan x="114.134" y="41.257">الرياضة التربية الفنية</tspan><tspan x="114.134" y="48.408">сән үлгілері</tspan><tspan x="114.134" y="55.558">тәбіиғат</tspan><tspan x="114.134" y="62.614">елмекен</tspan></text><text letter-spacing="0" xml:space="preserve" x="162.734" y="-37.24" class="K L M N O"><tspan x="162.734" y="-37.24">үи</tspan><tspan x="162.734" y="-30.09">пәтер</tspan><tspan x="162.734" y="-22.939">бөлме алаң</tspan><tspan x="162.734" y="-15.789">ғимарат</tspan><tspan x="162.734" y="-8.733">жер телімі</tspan><tspan x="162.734" y="-1.583">қызымет</tspan></text><text letter-spacing="0" xml:space="preserve" x="190.455" y="-37.864" class="K L M N O"><tspan x="190.455" y="-37.864">жеңіл</tspan><tspan x="190.455" y="-30.808">жолаушылар</tspan><tspan x="190.455" y="-23.658">жүк</tspan><tspan x="190.455" y="-16.507">қызыметтік</tspan><tspan x="190.455" y="-9.452">белсебет</tspan><tspan x="190.455" y="-2.396">мотосекл</tspan><tspan x="190.455" y="4.754">сұу</tspan><tspan x="190.455" y="11.905">әуе</tspan><tspan x="190.455" y="19.055">қызымет</tspan></text><text letter-spacing="0" xml:space="preserve" x="223.203" y="-37.768" class="K L M N O"><tspan x="223.203" y="-37.768">нан өнімдері</tspan><tspan x="223.203" y="-30.617">сұусын</tspan><tspan x="223.203" y="-23.467">кәмпит</tspan><tspan x="223.203" y="-16.411">торт</tspan><tspan x="223.203" y="-9.261">жеміс жидек көкөніс</tspan><tspan x="223.203" y="-2.11">қаинатпа</tspan><tspan x="223.203" y="5.04">тұздалған</tspan><tspan x="223.203" y="12.19">қызымет</tspan></text><text letter-spacing="0" xml:space="preserve" x="265.973" y="-37.893" class="K L M N O"><tspan x="265.973" y="-37.893">бас кіиім</tspan><tspan x="265.973" y="-30.742">үстіңгі</tspan><tspan x="265.973" y="-23.592">астыңғы</tspan><tspan x="265.973" y="-16.442">аиақ</tspan><tspan x="265.973" y="-9.386">спорт</tspan><tspan x="265.973" y="-2.33">балалар</tspan><tspan x="265.973" y="4.725">арнаиы</tspan><tspan x="265.973" y="11.876">қызымет</tspan></text><text letter-spacing="0" xml:space="preserve" x="288.034" y="-38.091" class="K L M N O"><tspan x="288.034" y="-38.091">ас үи</tspan><tspan x="288.034" y="-30.941">құрал</tspan><tspan x="288.034" y="-23.79">құрылғы</tspan><tspan x="288.034" y="-16.64">бақша</tspan><tspan x="288.034" y="-9.584">оиын</tspan><tspan x="288.034" y="-2.434">зат-қызымет</tspan></text><text letter-spacing="0" xml:space="preserve" x="319.277" y="-38.166" class="K L M N O"><tspan x="319.277" y="-38.166">әк үнтақ</tspan><tspan x="319.277" y="-31.111">боиау</tspan><tspan x="319.277" y="-23.96">түс қағаз</tspan><tspan x="319.277" y="-16.81">кірпіш тұтас бетон</tspan><tspan x="319.277" y="-9.659">ағаш пластік ұқсастар</tspan><tspan x="319.277" y="-2.509">метал көмпөзіт ұқсастар</tspan><tspan x="319.277" y="4.547">есік терезе</tspan><tspan x="319.277" y="11.697">су кәріз жылытыу ауа тораптары</tspan><tspan x="319.277" y="18.848">електр басқа желілер</tspan><tspan x="319.277" y="25.998">сәулет сәндеу жобалау</tspan><tspan x="319.277" y="33.149">қызымет</tspan></text><text letter-spacing="0" xml:space="preserve" x="391.499" y="-38.443" class="K L M N O"><tspan x="391.499" y="-38.443">тазартыу</tspan><tspan x="391.499" y="-31.293">әтір саулық</tspan><tspan x="391.499" y="-24.143">қызымет</tspan></text><text letter-spacing="0" xml:space="preserve" x="421.027" y="-38.187" class="K L M N O"><tspan x="421.027" y="-38.187">ас үи</tspan><tspan x="421.027" y="-31.036">қонақ</tspan><tspan x="421.027" y="-23.981">жатын</tspan><tspan x="421.027" y="-16.83">кеңсе</tspan><tspan x="421.027" y="-9.68">көпшілік</tspan><tspan x="421.027" y="-2.624">арнаиы</tspan><tspan x="421.027" y="4.526">қызымет</tspan><tspan x="421.027" y="18.732">дәптер</tspan><tspan x="421.027" y="25.883">кітәп</tspan><tspan x="421.027" y="32.939">жазыу сызыу</tspan><tspan x="421.027" y="39.994">боиау</tspan><tspan x="421.027" y="47.145">қағаз</tspan><tspan x="421.027" y="54.295">құрал</tspan><tspan x="421.027" y="61.445">қызымет</tspan><tspan x="421.027" y="75.651">ағаш</tspan><tspan x="421.027" y="82.802">шөп</tspan><tspan x="421.027" y="89.952">гүл</tspan><tspan x="421.027" y="97.103">саңырауқұлақ</tspan><tspan x="421.027" y="104.253">дәнді-дақыл</tspan><tspan x="421.027" y="111.404">қызымет</tspan><tspan x="421.027" y="125.61">үи жаныуары</tspan><tspan x="421.027" y="132.76">тәбіиғат жаныуары</tspan><tspan x="421.027" y="139.911">қызымет</tspan><tspan x="421.027" y="154.117">көмекші</tspan><tspan x="421.027" y="161.172">емдеу</tspan><tspan x="421.027" y="168.323">сымбат саулық</tspan><tspan x="421.027" y="175.473">заңгерлік</tspan></text><g class="K"><use xlink:href="#B"/><path d="M6.367 3.093q0 .176-.312.424-.31.248-.641.248-.277 0-.429-.164-.15-.164-.15-.456 0-.493.332-.937.332-.444.727-.444.129 0 .21.084.083.084.083.203 0 .265-.26.508-.26.243-.696.477-.09.047-.09.121 0 .143.083.229.083.086.245.086.37 0 .756-.41.057-.057.086-.057.055 0 .055.088zM5.17 2.825q.73-.434.73-.698 0-.103-.093-.103-.158 0-.358.233-.198.233-.279.568z"/><use xlink:href="#C"/><use xlink:href="#D"/><use xlink:href="#E"/><use xlink:href="#F"/><use xlink:href="#G"/><use xlink:href="#C" x="-2.319" y="7.055"/><use xlink:href="#C" x="-0.324" y="7.055"/><use xlink:href="#H"/><use xlink:href="#I"/><use xlink:href="#J"/><use xlink:href="#K"/><use xlink:href="#E" x="7.657" y="7.056"/><use xlink:href="#L"/><use xlink:href="#K" x="4.362"/><use xlink:href="#M"/><use xlink:href="#N"/><use xlink:href="#D" x="20.075" y="7.055"/><use xlink:href="#G" x="28.465"/><use xlink:href="#C" x="26.147" y="7.055"/><path d="M35.349 7.948h.005q.048 0 .145.034.096.034.126.059.031.022.031.078 0 .107-.098.188-.098.079-.146.079-.083 0-.145-.072-.062-.072-.062-.145 0-.186.145-.22zm-.698 3.879q-.205 0-.396-.172-.193-.171-.193-.295 0-.034.024-.069.024-.033.036-.033.012 0 .053.034.27.238.436.238.136 0 .234-.131.098-.129.141-.482.043-.351.081-1.094.026-.536.045-.68.021-.145.083-.202.062-.059.158-.059.05 0 .093.04.045.038.045.093 0 .031-.012.084-.126.544-.164 1.418-.024.527-.098.78-.074.253-.229.391-.153.138-.338.138z"/><use xlink:href="#F" x="23.994" y="7.056"/><use xlink:href="#O"/><use xlink:href="#P"/><use xlink:href="#Q"/><use xlink:href="#R"/><path d="M4.548 17.272q.641-1.183 1.056-1.183.11 0 .179.126.069.126.112.558.043.46.195.665.077.105.077.155 0 .045-.052.083-.052.038-.11.038-.134 0-.238-.15-.103-.152-.133-.531-.029-.358-.062-.469-.033-.11-.109-.11-.181 0-.729.946-.164.283-.241.37-.078.086-.141.086-.076 0-.127-.045-.052-.045-.052-.11 0-.048.028-.186.212-1.094.334-2.164.028-.25.088-.332.062-.083.103-.083.074 0 .134.06.06.06.06.167 0 .317-.155.87-.076.274-.16.696-.084.422-.084.522 0 .021.019.021z"/><use xlink:href="#F" x="-5.538" y="14.112"/><use xlink:href="#H" x="1.322" y="7.055"/><use xlink:href="#S"/><use xlink:href="#Q" x="-25.852" y="7.055"/><use xlink:href="#P" x="-22.702" y="7.056"/><use xlink:href="#F" x="6.568" y="14.112"/><path d="M20.762 17.105q.017-.031.041-.086.117-.269.215-.42.098-.153.215-.293.119-.14.215-.212.098-.072.177-.1.079-.029.153-.029.15 0 .245.091.095.09.095.21 0 .053-.034.096-.033.043-.102.043-.072 0-.133-.064-.062-.064-.129-.064-.179 0-.496.434-.317.434-.386.956-.017.134-.065.177-.048.043-.136.043-.084 0-.122-.126-.038-.126-.038-.424 0-.081.008-.357.01-.326.041-.525.005-.033.017-.153.012-.133.029-.184.019-.052.074-.096.057-.045.122-.045.064 0 .095.041.033.04.033.086 0 .067-.034.189-.04.136-.047.188-.005.059-.019.122-.017.074-.034.389l-.003.064z"/><use xlink:href="#K" x="4.606" y="7.055"/><use xlink:href="#C" x="16.538" y="14.111"/><use xlink:href="#J" x="9.772" y="7.056"/><use xlink:href="#T"/><use xlink:href="#U"/><use xlink:href="#C" x="26.702" y="14.111"/><use xlink:href="#G" x="32.811" y="7.056"/><use xlink:href="#V"/><use xlink:href="#L" x="18.612" y="7.056"/><use xlink:href="#C" x="35.297" y="14.111"/><use xlink:href="#W"/><use xlink:href="#T" x="19.333"/><use xlink:href="#B" x="45.63" y="14.111"/><use xlink:href="#X"/><use xlink:href="#O" x="14.753" y="7.056"/><use xlink:href="#F" x="42.369" y="14.112"/><use xlink:href="#W" x="-41.408" y="7.056"/><use xlink:href="#E" x="-7.076" y="21.167"/><use xlink:href="#C" x="-1.792" y="21.167"/><use xlink:href="#U" x="-23.39" y="7.056"/><use xlink:href="#F" x="-1.972" y="21.168"/><use xlink:href="#G" x="9.262" y="14.112"/><use xlink:href="#Y"/><use xlink:href="#B" y="28.222"/><use xlink:href="#V" x="-32.38" y="14.111"/><use xlink:href="#X" x="-44.62" y="14.111"/><use xlink:href="#M" x="-15.049" y="21.168"/><use xlink:href="#P" x="-29.316" y="21.167"/><use xlink:href="#T" x="-15.446" y="14.112"/><use xlink:href="#H" x="-5.786" y="28.222"/><use xlink:href="#C" x="-0.489" y="35.278"/><use xlink:href="#V" x="-29.04" y="21.167"/><use xlink:href="#L" x="-10.427" y="28.223"/><use xlink:href="#F" x="-0.437" y="35.279"/><use xlink:href="#L" x="-6.26" y="28.223"/><use xlink:href="#K" x="-0.487" y="28.222"/><use xlink:href="#H" x="9.774" y="28.222"/><use xlink:href="#X" x="-28.724" y="21.167"/><use xlink:href="#N" x="-1.492" y="28.222"/><use xlink:href="#F" x="13.883" y="35.279"/><use xlink:href="#Y" x="13.989" y="14.111"/><use xlink:href="#Z"/><use xlink:href="#C" x="-2.327" y="42.334"/><use xlink:href="#M" x="-16.627" y="35.279"/><use xlink:href="#Q" x="-32.548" y="35.278"/><use xlink:href="#a"/><use xlink:href="#H" x="3.985" y="35.278"/><use xlink:href="#X" x="-34.514" y="28.223"/><use xlink:href="#I" x="4.644" y="35.279"/><use xlink:href="#E" x="9.13" y="42.334"/><use xlink:href="#F" x="9.13" y="42.335"/><use xlink:href="#Q" x="-18.306" y="35.278"/><use xlink:href="#X" x="-47.91" y="35.278"/><use xlink:href="#M" x="-18.339" y="42.335"/><use xlink:href="#K" x="-10.618" y="42.334"/><path d="M9.342 51.705q-.16.003-.686.949-.177.319-.207.348-.029.028-.109.05-.078.022-.129.022-.115 0-.115-.45 0-.253.109-.916.045-.269.045-.384 0-.114.102-.114.191 0 .191.276 0 .129-.064.506-.074.431-.076.524.107-.103.313-.453.293-.479.431-.606.14-.129.288-.129.112 0 .177.15.067.15.081.715.003.141.026.21.022.069.033.069.081 0 .351-.551.145-.291.281-.443.138-.152.305-.152.14 0 .203.145.064.143.091.425.026.286.079.524.055.238.2.305.098.047.098.109 0 .06-.083.124-.083.064-.152.064-.138 0-.246-.169-.109-.169-.164-.73-.024-.226-.046-.32-.022-.095-.071-.095-.072 0-.172.138-.098.138-.319.56-.172.329-.262.439-.088.109-.171.109-.074 0-.133-.059-.059-.06-.074-.143-.016-.084-.033-.412-.026-.544-.095-.634z"/><use xlink:href="#X" x="-38.855" y="35.278"/><use xlink:href="#E" x="2.736" y="49.39"/><use xlink:href="#Y" x="1.008" y="28.223"/><use xlink:href="#X" x="-47.91" y="42.334"/><use xlink:href="#G" x="2.07" y="49.39"/><use xlink:href="#b"/><use xlink:href="#F" x="-2.313" y="56.446"/><use xlink:href="#L" x="-8.136" y="49.39"/><use xlink:href="#J" x="-1.623" y="49.39"/><use xlink:href="#Z" x="13.405" y="14.111"/><use xlink:href="#X" x="-32.717" y="42.334"/><use xlink:href="#R" x="17.263" y="42.334"/><use xlink:href="#K" x="3.89" y="49.39"/><use xlink:href="#C" x="15.822" y="56.445"/><use xlink:href="#M" x="1.523" y="49.39"/><use xlink:href="#Q" x="-12.988" y="49.39"/><use xlink:href="#B" x="27.179" y="56.445"/><use xlink:href="#C" x="25.344" y="56.445"/><use xlink:href="#G" x="31.454" y="49.39"/><use xlink:href="#b" x="29.384"/><use xlink:href="#Q" x="-3.61" y="49.39"/><use xlink:href="#W" x="-41.408" y="49.39"/><use xlink:href="#X" x="-46.596" y="49.39"/><use xlink:href="#T" x="-21.415" y="49.39"/><path d="M7.776 66.662q.641-1.183 1.056-1.183.11 0 .179.126.069.126.112.558.043.46.195.665.078.105.078.155 0 .045-.052.083-.052.038-.11.038-.134 0-.238-.15-.103-.152-.133-.531-.029-.358-.062-.469-.033-.11-.109-.11-.181 0-.729.946-.164.283-.241.37-.077.086-.141.086-.076 0-.127-.045-.052-.045-.052-.11 0-.048.028-.186.212-1.094.334-2.164.028-.25.088-.332.062-.083.103-.083.074 0 .134.06.06.06.06.167 0 .317-.155.87-.076.274-.16.696-.084.422-.084.522 0 .021.019.021z"/><use xlink:href="#K" x="-7.938" y="56.445"/><use xlink:href="#C" x="3.994" y="63.501"/><use xlink:href="#c"/><path d="M17.767 65.816q-.16.003-.686.949-.177.319-.207.348-.029.028-.109.05-.077.022-.129.022-.115 0-.115-.45 0-.253.109-.916.045-.269.045-.384 0-.114.102-.114.191 0 .191.276 0 .129-.064.506-.074.431-.076.524.107-.103.314-.453.293-.479.431-.606.14-.129.288-.129.112 0 .177.15.067.15.081.715.003.141.026.21.022.069.033.069.081 0 .351-.551.145-.291.281-.443.138-.152.305-.152.14 0 .203.145.064.143.091.425.026.286.079.524.055.238.2.305.098.047.098.109 0 .06-.083.124-.083.064-.152.064-.138 0-.246-.169-.109-.169-.164-.73-.024-.226-.047-.32-.022-.095-.071-.095-.072 0-.172.138-.098.138-.319.56-.172.329-.262.439-.088.109-.171.109-.074 0-.133-.059-.059-.06-.074-.143-.015-.084-.033-.412-.026-.544-.095-.634z"/><use xlink:href="#C" x="13.365" y="63.501"/><use xlink:href="#L" x="2.418" y="56.446"/><use xlink:href="#F" x="12.408" y="63.502"/><use xlink:href="#E" x="15.252" y="63.501"/><use xlink:href="#T" x="-0.148" y="49.39"/><use xlink:href="#c" x="-10.104" y="7.056"/><use xlink:href="#X" x="-45.571" y="56.445"/><use xlink:href="#P" x="-32.607" y="63.501"/><use xlink:href="#a" x="-1.556" y="28.223"/><use xlink:href="#G" x="8.215" y="63.502"/><use xlink:href="#F" x="0.629" y="70.558"/><use xlink:href="#V" x="-34.661" y="63.501"/><use xlink:href="#C" x="-3.106" y="77.612"/><use xlink:href="#Z" x="3.004" y="35.278"/><use xlink:href="#X" x="-43.118" y="63.501"/><use xlink:href="#V" x="-27.798" y="63.501"/><path d="M11.038 78.984q-.036 0-.055-.078-.007-.024-.019-.053-.046-.112-.046-.195 0-.069.081-.14.083-.072.183-.072.05 0 .112.04.062.038.062.074 0 .057-.043.193-.041.136-.134.184-.091.047-.14.047zm-.226 1.924q0 .131.036.295.007.031.007.052 0 .031-.057.079-.057.05-.121.05-.167 0-.167-.307 0-.317.131-1.003.045-.239.045-.295 0-.109.04-.184.04-.078.112-.078.088 0 .138.043.052.041.052.093 0 .052-.024.136-.129.455-.16.651-.031.196-.031.467z"/><use xlink:href="#P" x="-28.124" y="70.557"/><use xlink:href="#S" x="-0.188" y="63.501"/></g><defs ><path id="B" d="M2.944 3.478q-.084.31-.158.87l-.048.326q-.012.069-.064.136-.052.069-.095.069-.053 0-.122-.055-.067-.053-.067-.086 0-.095.043-.262.315-1.273.315-2.236l-.003-.145q-.003-.186.065-.27.069-.084.158-.084.041 0 .079.065.038.064.038.183 0 .167-.034.405-.045.3-.047.345.257-.448.544-.699.288-.251.534-.251.174 0 .293.131.121.129.121.322 0 .562-.431 1.02-.431.458-.839.458-.102 0-.162-.052-.059-.052-.122-.188zm1.07-1.387q-.243 0-.601.455-.358.455-.358.708 0 .062.071.121.071.059.179.059.246 0 .567-.363.32-.365.32-.717 0-.126-.052-.193-.05-.069-.126-.069z"/><path id="C" d="M7.23 3.764q-.236 0-.389-.179-.153-.179-.153-.443 0-.444.298-.875.3-.432.717-.432.276 0 .446.212.172.212.172.505 0 .448-.355.83-.353.382-.736.382zm-.239-.667q0 .174.072.284.074.11.195.11.257 0 .515-.281.258-.283.258-.627 0-.212-.1-.343-.098-.133-.265-.133-.277 0-.477.341-.198.339-.198.648z"/><path id="D" d="M9.054 3.478q-.084.31-.158.87l-.048.326q-.012.069-.064.136-.052.069-.095.069-.053 0-.122-.055-.067-.053-.067-.086 0-.095.043-.262.315-1.273.315-2.236l-.003-.145q-.003-.186.065-.27.069-.084.158-.084.041 0 .079.065.038.064.038.183 0 .167-.034.405-.045.3-.046.345.257-.448.544-.699.288-.251.534-.251.174 0 .293.131.121.129.121.322 0 .562-.431 1.02-.431.458-.839.458-.102 0-.162-.052-.059-.052-.122-.188zm1.07-1.387q-.243 0-.601.455-.358.455-.358.708 0 .062.071.121.071.059.179.059.246 0 .567-.363.32-.365.32-.717 0-.126-.052-.193-.05-.069-.126-.069z"/><path id="E" d="M11.605.761q.124 0 .124.158 0 .141-.15.672-.095.334-.146.737-.052.403-.052.632 0 .284.036.565.007.053.007.078 0 .086-.059.148-.059.062-.124.062-.091 0-.127-.114-.034-.114-.034-.367 0-.577.138-1.43.14-.853.22-.997.083-.145.167-.145z"/><path id="F" d="M13.486 3.093q0 .176-.312.424-.31.248-.641.248-.277 0-.429-.164-.15-.164-.15-.456 0-.493.332-.937.332-.444.727-.444.129 0 .21.084.083.084.083.203 0 .265-.26.508-.26.243-.696.477-.09.047-.09.121 0 .143.083.229.083.086.245.086.37 0 .756-.41.057-.057.086-.057.055 0 .055.088zm-1.197-.269q.73-.434.73-.698 0-.103-.093-.103-.158 0-.358.233-.198.233-.279.568z"/><path id="G" d="M2.96 10.049q.017-.031.041-.086.117-.269.215-.42.098-.153.215-.293.119-.14.215-.212.098-.072.177-.1.079-.029.153-.029.15 0 .245.091.095.09.095.21 0 .053-.034.096-.033.043-.102.043-.072 0-.133-.064-.062-.064-.129-.064-.179 0-.496.434-.317.434-.386.956-.017.134-.065.177-.048.043-.136.043-.084 0-.122-.126-.038-.126-.038-.424 0-.081.009-.357.01-.326.041-.525.005-.033.017-.153.012-.133.029-.184.019-.052.074-.096.057-.045.122-.045.064 0 .095.041.033.04.033.086 0 .067-.034.189-.04.136-.047.188-.005.059-.019.122-.017.074-.034.389l-.003.064z"/><path id="H" d="M9.698 9.371q-.16.003-.686.949-.177.319-.207.348-.029.028-.109.05-.077.022-.129.022-.115 0-.115-.45 0-.253.109-.916.045-.269.045-.384 0-.114.102-.114.191 0 .191.276 0 .129-.064.506-.074.431-.076.524.107-.103.314-.453.293-.479.431-.606.14-.129.288-.129.112 0 .177.15.067.15.081.715.003.141.026.21.022.069.033.069.081 0 .351-.551.145-.291.281-.443.138-.152.305-.152.14 0 .203.145.064.143.091.425.026.286.079.524.055.238.2.305.098.047.098.109 0 .06-.083.124-.083.064-.152.064-.138 0-.246-.169-.109-.169-.164-.73-.024-.226-.047-.32-.022-.095-.071-.095-.072 0-.172.138-.098.138-.319.56-.172.329-.262.439-.088.109-.171.109-.074 0-.133-.059-.059-.06-.074-.143-.016-.084-.033-.412-.026-.544-.095-.634z"/><path id="I" d="M13.75 9.753q.22-.401.527-.649.307-.25.553-.25.136 0 .231.126.095.126.095.307 0 .536-.405 1.006-.403.469-.853.469-.122 0-.226-.065-.102-.067-.114-.167-.007-.081-.047-.121-.074-.074-.074-.158 0-.157.086-.67l.177-1.03q.091-.518.133-.641.043-.122.095-.164.052-.041.127-.041.121 0 .121.208 0 .198-.133.555-.127.343-.295 1.287zm-.041.574q.09.167.217.167.196 0 .415-.162.219-.164.377-.458.16-.296.16-.5 0-.091-.033-.157-.033-.065-.083-.065-.239 0-.586.393-.345.391-.469.782z"/><path id="J" d="M16.704 9.984q-.22.37-.451.574-.231.203-.429.203-.114 0-.233-.133-.117-.133-.117-.408 0-.226.109-.665.091-.367.091-.515.05-.103.157-.103.072 0 .115.052.043.05.043.105 0 .121-.084.343-.16.432-.16.742 0 .283.131.283.167 0 .425-.284.258-.284.443-.792.072-.203.117-.264.047-.062.124-.062.117 0 .117.155 0 .019-.033.126-.103.377-.103.713 0 .403.133.522.069.064.069.103 0 .048-.071.088-.069.04-.126.04-.121 0-.195-.179-.074-.179-.074-.529v-.057q0-.028.003-.057z"/><path id="K" d="M18.194 8.427q-.036 0-.055-.078-.007-.024-.019-.053-.047-.112-.047-.195 0-.069.081-.14.083-.072.183-.072.05 0 .112.04.062.038.062.074 0 .057-.043.193-.041.136-.134.184-.091.047-.14.047zm-.226 1.924q0 .131.036.295.007.031.007.052 0 .031-.057.079-.057.05-.121.05-.167 0-.167-.307 0-.317.131-1.003.045-.239.045-.295 0-.109.04-.184.04-.078.112-.078.088 0 .138.043.052.041.052.093 0 .052-.024.136-.129.455-.16.651-.031.196-.031.467z"/><path id="L" d="M20.904 10.02q-.231.37-.489.572-.258.2-.475.2-.167 0-.265-.127-.096-.129-.096-.343 0-.436.353-.894.355-.458.765-.458.179 0 .332.153l.241-1.127q.026-.115.095-.155.071-.04.11-.04.121 0 .121.214 0 .038-.079.283-.126.379-.239.932-.112.551-.112.885 0 .345.15.345.096 0 .2-.064.043-.031.081-.031.055 0 .055.072 0 .088-.155.203-.153.115-.315.115-.284 0-.284-.548 0-.093.009-.188zm-.226-.806q-.279 0-.553.379-.274.377-.274.698 0 .215.143.215.134 0 .326-.141.193-.141.396-.45.203-.31.203-.465 0-.076-.071-.155-.069-.081-.171-.081z"/><path id="M" d="M24.194 9.408q-.09 0-.196.117-.105.117-.322.525-.286.548-.37.624-.083.076-.138.076-.203 0-.203-.196 0-.083.028-.234.095-.52.095-1.097 0-.065.055-.145.057-.081.107-.081.09 0 .127.055.038.055.038.222 0 .174-.103.717-.034.179-.034.227 0 .028.014.028.026 0 .239-.412.215-.419.377-.589.162-.171.357-.171.155 0 .251.141.098.141.143.515.048.425.086.531.04.103.124.103.053 0 .134-.038.014-.007.021-.007.074 0 .074.086 0 .076-.102.162-.102.084-.245.084-.146 0-.227-.115-.079-.117-.126-.622-.048-.506-.203-.506z"/><path id="N" d="M26.578 10.11q-.021-.016-.115.096-.157.184-.401.327-.243.143-.451.143-.155 0-.243-.096-.088-.098-.088-.27 0-.267.202-.594.202-.329.563-.574.363-.245.636-.245.143 0 .251.083.026.021.045.034.031.022.059.091.028.067.028.109 0 .026-.019.079-.105.286-.143.474-.038.188-.083.632-.041.4-.09.615-.048.215-.174.417-.126.202-.301.301-.176.102-.362.102-.322 0-.636-.222-.314-.222-.314-.357 0-.084.064-.084.031 0 .184.102.405.27.729.27.283 0 .429-.301.148-.301.202-.901.012-.136.029-.231zm-.003-.946q-.146 0-.367.152-.219.152-.425.444-.207.293-.207.491 0 .067.041.107.043.038.095.038.153 0 .4-.158.248-.158.425-.439.179-.283.179-.443 0-.191-.141-.191z"/><path id="O" d="M38.31 10.831q-.258 0-.398-.148-.138-.148-.138-.415 0-.45.357-.947.357-.5.663-.5.14 0 .239.152.102.15.102.319 0 .102-.045.176-.043.072-.088.072-.1 0-.141-.202-.046-.217-.134-.217-.179 0-.424.425-.245.425-.245.718 0 .293.332.293.253 0 .596-.238.121-.084.177-.084.059 0 .059.067 0 .131-.308.331-.308.198-.605.198z"/><path id="P" d="M40.329 8.995q.177-.014.334-.033.155-.017.258-.017.131 0 .165.024.034.024.034.084 0 .14-.195.152-.25.016-.46.043-.21.028-.227.047-.016.017-.103.41-.088.391-.088.508 0 .189.05.253.05.062.15.062.148 0 .412-.222.102-.091.157-.091.074 0 .074.079 0 .124-.239.322-.238.196-.488.196-.417 0-.417-.491 0-.177.086-.55.084-.37.084-.444 0-.026-.041-.026l-.179.016q-.22 0-.22-.176 0-.1.102-.1h.355q.036 0 .064-.033.028-.033.081-.219.053-.188.095-.37.041-.181.162-.181.074 0 .115.052.041.052.041.096 0 .024-.062.246z"/><path id="Q" d="M42.148 10.339q0-.112-.276-.255-.35-.179-.474-.286-.122-.109-.122-.241 0-.343.343-.568.345-.226.562-.226.14 0 .202.048.064.048.064.167 0 .053-.047.091-.045.038-.071.038-.019 0-.074-.026-.055-.024-.072-.024-.086 0-.35.126-.264.126-.264.284 0 .096.093.176.093.078.334.191.195.093.31.2.117.105.117.248 0 .264-.363.413-.363.148-.694.148-.279 0-.279-.189 0-.065.062-.096.064-.031.127-.031.026 0 .098.017.071.017.093.017.191 0 .41-.064.219-.064.27-.158z"/><path id="R" d="M3.313 16.051q.177-.014.334-.033.155-.017.258-.017.131 0 .165.024.034.024.034.084 0 .14-.195.152-.25.016-.46.043-.21.028-.227.047-.016.017-.103.41-.088.391-.088.508 0 .189.05.253.05.062.15.062.148 0 .412-.222.102-.091.157-.091.074 0 .074.079 0 .124-.239.322-.238.196-.487.196-.417 0-.417-.491 0-.177.086-.55.084-.37.084-.444 0-.026-.041-.026l-.179.016q-.22 0-.22-.176 0-.1.102-.1h.355q.036 0 .064-.033.028-.033.081-.219.053-.188.095-.37.041-.181.162-.181.074 0 .115.052.041.052.041.096 0 .024-.062.246z"/><path id="S" d="M14.618 17.181q-.317.276-.558.401-.239.124-.367.124-.171 0-.262-.141-.09-.143-.09-.332 0-.265.107-.655.109-.391.16-.463.053-.074.169-.074.048 0 .079.057.031.057.031.129 0 .043-.04.112-.093.162-.098.179-.003.017-.065.208-.062.189-.062.357 0 .059.028.183.029.124.119.124.095 0 .233-.057.14-.059.314-.189.174-.131.234-.212.06-.081.084-.184.026-.103.036-.448.01-.345.167-.345.093 0 .121.05.028.048.028.186 0 .114-.016.284-.019.215-.024.307-.024.474-.124.953-.098.477-.288.798-.189.322-.522.322-.338 0-.601-.177-.262-.176-.262-.298 0-.057.026-.112.028-.055.069-.055.021 0 .045.033.226.346.71.346.25 0 .419-.439.171-.438.188-.822.003-.074.014-.148z"/><path id="T" d="M28.278 17.394q0-.112-.276-.255-.35-.179-.474-.286-.122-.109-.122-.241 0-.343.343-.568.345-.226.562-.226.14 0 .202.048.064.048.064.167 0 .053-.046.091-.045.038-.071.038-.019 0-.074-.026-.055-.024-.072-.024-.086 0-.35.126-.264.126-.264.284 0 .096.093.176.093.078.334.191.195.093.31.2.117.105.117.248 0 .264-.363.413-.363.148-.694.148-.279 0-.279-.189 0-.065.062-.096.064-.031.127-.031.026 0 .098.017.071.017.093.017.191 0 .41-.064.219-.064.27-.158z"/><path id="U" d="M31.684 16.648q-.048.002-.233.401-.152.329-.31.587-.158.257-.233.257-.214 0-.396-.634-.181-.636-.181-1.023 0-.126.062-.208.064-.083.15-.09.012-.002.043.002.031.002.076.057.045.053.045.105v.007q0 .021-.019.172-.016.112-.016.274 0 .257.098.567.098.31.165.31.048 0 .319-.524.171-.332.245-.458l.055-.103q.119-.227.226-.314.148.019.148.148 0 .043-.007.072-.007.029-.007.072 0 .319.165.668.165.348.236.348.052 0 .164-.365.152-.496.279-.744.129-.248.189-.295.06-.047.136-.047.043 0 .072.038.031.036.031.079 0 .064-.019.088-.214.281-.41.877-.167.512-.229.643-.062.131-.103.131-.208 0-.341-.152-.133-.153-.351-.811-.026-.078-.05-.136z"/><path id="V" d="M37.875 14.873q.124 0 .124.158 0 .141-.15.672-.095.334-.146.737-.052.403-.052.632 0 .284.036.565.007.053.007.078 0 .086-.059.148-.059.062-.124.062-.091 0-.127-.114-.034-.114-.034-.367 0-.577.138-1.43.14-.853.221-.997.083-.145.167-.145z"/><path id="W" d="M44.362 17.868q-.012.043-.065.072-.053.029-.107.029-.176 0-.176-.257 0-.122.081-.692.05-.35.05-.531 0-.031-.072-.081-.074-.048-.074-.095 0-.074.112-.16.086-.067.105-.15.021-.083.047-.229.088-.534.274-.77.188-.236.477-.236.153 0 .26.105.107.103.107.258 0 .126-.06.286-.059.158-.134.158-.057 0-.057-.057l.012-.167q0-.332-.186-.332-.202 0-.334.396-.133.394-.133.643 0 .079.103.079.45 0 .529-.003.081-.003.081.067 0 .071-.088.109-.086.036-.379.065-.25.026-.283.043-.115.641-.115 1.142 0 .15.014.222.012.067.012.084z"/><path id="X" d="M51.683 17.162q-.241.324-.477.486-.236.162-.432.162-.133 0-.229-.112-.096-.112-.096-.288 0-.453.405-.975.405-.524.804-.524.145 0 .215.165.022.055.071.055.138 0 .138.107 0 .053-.017.146-.093.508-.093.717 0 .417.158.5.076.041.076.102 0 .053-.074.107-.074.055-.143.055-.133 0-.219-.183-.086-.183-.086-.52zm-.105-.97q-.227 0-.529.427-.301.425-.301.706 0 .198.131.198.189 0 .525-.382.336-.382.336-.703 0-.246-.162-.246z"/><path id="Y" d="M14.606 24.45q0-.112-.276-.255-.35-.179-.474-.286-.122-.109-.122-.241 0-.343.343-.568.344-.226.562-.226.14 0 .202.048.064.048.064.167 0 .053-.047.091-.045.038-.071.038-.019 0-.074-.026-.055-.024-.072-.024-.086 0-.35.126-.264.126-.264.284 0 .096.093.176.093.078.334.191.195.093.31.2.117.105.117.248 0 .264-.363.413-.363.148-.694.148-.279 0-.279-.189 0-.065.062-.096.064-.031.127-.031.026 0 .098.017.071.017.093.017.191 0 .41-.064.219-.064.27-.158z"/><path id="Z" d="M3.082 46.11q-.258 0-.398-.148-.138-.148-.138-.415 0-.45.357-.947.357-.5.663-.5.14 0 .239.152.102.15.102.319 0 .102-.045.176-.043.072-.088.072-.1 0-.141-.202-.047-.217-.134-.217-.179 0-.424.425-.245.425-.245.718 0 .293.332.293.253 0 .596-.238.121-.084.177-.084.059 0 .059.067 0 .131-.308.331-.308.198-.605.198z"/><path id="a" d="M11.447 45.262q-.221.37-.451.574-.231.203-.429.203-.114 0-.233-.133-.117-.133-.117-.408 0-.226.109-.665.091-.367.091-.515.05-.103.157-.103.072 0 .115.052.043.05.043.105 0 .121-.084.343-.16.432-.16.742 0 .283.131.283.167 0 .425-.284.258-.284.443-.792.072-.203.117-.264.047-.062.124-.062.117 0 .117.155 0 .019-.033.126-.103.377-.103.713 0 .403.133.522.069.064.069.103 0 .048-.071.088-.069.04-.126.04-.121 0-.195-.179-.074-.179-.074-.529v-.057q0-.028.003-.057z"/><path id="b" d="M7.335 58.385q.177-.014.334-.033.155-.017.258-.017.131 0 .165.024.034.024.034.084 0 .14-.195.152-.25.016-.46.043-.21.028-.227.047-.016.017-.103.41-.088.391-.088.508 0 .189.05.253.05.062.15.062.148 0 .412-.222.102-.091.157-.091.074 0 .074.079 0 .124-.239.322-.238.196-.487.196-.417 0-.417-.491 0-.177.086-.55.084-.37.084-.444 0-.026-.041-.026l-.179.016q-.221 0-.221-.176 0-.1.102-.1h.355q.036 0 .064-.033.028-.033.081-.219.053-.188.095-.37.041-.181.162-.181.074 0 .115.052.041.052.041.096 0 .024-.062.246z"/><path id="c" d="M13.889 65.854q-.09 0-.196.117-.105.117-.322.525-.286.548-.37.624-.083.076-.138.076-.203 0-.203-.196 0-.083.028-.234.095-.52.095-1.097 0-.065.055-.145.057-.081.107-.081.09 0 .127.055.038.055.038.222 0 .174-.103.717-.034.179-.034.227 0 .028.014.028.026 0 .239-.412.215-.419.377-.589.162-.171.357-.171.155 0 .252.141.098.141.143.515.048.425.086.531.04.103.124.103.053 0 .134-.038.014-.007.021-.007.074 0 .074.086 0 .076-.102.162-.102.084-.245.084-.146 0-.227-.115-.079-.117-.126-.622-.048-.506-.203-.506z"/></defs></svg>