<?xml version="1.0" encoding="UTF-8"?>
<!DOCTYPE svg PUBLIC "-//W3C//DTD SVG 1.1//EN" "http://www.w3.org/Graphics/SVG/1.1/DTD/svg11.dtd">
<!-- Creator: CorelDRAW 2020 -->
<svg xmlns="http://www.w3.org/2000/svg" xml:space="preserve" width="13.7336mm" height="9.5842mm" version="1.1" style="shape-rendering:geometricPrecision; text-rendering:geometricPrecision; image-rendering:optimizeQuality; fill-rule:evenodd; clip-rule:evenodd"
viewBox="0 0 586.01 408.95"
 xmlns:xlink="http://www.w3.org/1999/xlink"
 xmlns:xodm="http://www.corel.com/coreldraw/odm/2003">
 <defs>
  <style type="text/css">
   <![CDATA[
    .str2 {stroke:#C6B93A;stroke-width:32;stroke-miterlimit:22.9256}
    .str0 {stroke:#C6B93A;stroke-width:21.33;stroke-miterlimit:22.9256}
    .str1 {stroke:#C6B93A;stroke-width:8.53;stroke-miterlimit:22.9256}
    .fil0 {fill:none}
    .fil1 {fill:#C6B93A}
    .fil2 {fill:#C6B93A;fill-rule:nonzero}
   ]]>
  </style>
 </defs>
 <g id="Layer_x0020_1">
  <metadata id="CorelCorpID_0Corel-Layer"/>
  <line class="fil0 str0" x1="145.92" y1="243.22" x2="431.94" y2= "243.22" />
  <polygon class="fil0 str1" points="180.42,45.32 225.86,16.75 271.29,45.32 271.29,230.02 180.42,230.02 "/>
  <line class="fil0 str2" x1="225.86" y1="26.57" x2="225.86" y2= "0" />
  <polygon class="fil1" points="271.29,230.02 271.29,45.32 225.86,16.75 180.42,45.32 180.42,230.02 "/>
  <polygon class="fil0 str1" points="298.92,167.57 349.39,157.91 399.86,167.57 399.86,230.02 298.92,230.02 "/>
  <line class="fil0 str0" x1="349.39" y1="161.22" x2="349.39" y2= "132.73" />
  <polygon class="fil1" points="399.86,230.02 399.86,167.57 349.39,157.9 298.92,167.57 298.92,230.02 "/>
  <line class="fil0 str0" x1="331.38" y1="130.44" x2="366.62" y2= "130.44" />
  <path class="fil2" d="M43.06 320.37c-3.7,0.08 -11.61,11.01 -23.69,32.8 -4.1,7.33 -6.49,11.34 -7.16,11.99 -0.67,0.65 -1.91,1.24 -3.72,1.77 -1.81,0.51 -3.32,0.78 -4.49,0.78 -2.66,0 -4,-5.18 -4,-15.55 0,-5.83 1.26,-16.4 3.76,-31.68 1.04,-6.18 1.54,-10.61 1.54,-13.27 0,-2.62 1.18,-3.92 3.51,-3.92 4.41,0 6.61,3.17 6.61,9.51 0,2.99 -0.73,8.82 -2.19,17.52 -1.71,9.92 -2.58,15.95 -2.62,18.08 2.46,-2.38 6.08,-7.6 10.83,-15.65 6.74,-11.03 11.72,-18.02 14.91,-20.99 3.19,-2.95 6.5,-4.43 9.92,-4.43 2.58,0 4.63,1.73 6.16,5.18 1.52,3.46 2.46,11.68 2.76,24.71 0.08,3.25 0.39,5.67 0.89,7.25 0.53,1.59 0.9,2.38 1.14,2.38 1.87,0 5.91,-6.34 12.15,-19.04 3.33,-6.7 6.56,-11.81 9.73,-15.3 3.15,-3.49 6.65,-5.24 10.51,-5.24 3.21,0 5.55,1.67 7.01,4.98 1.48,3.31 2.52,8.21 3.17,14.73 0.59,6.58 1.51,12.62 2.76,18.09 1.24,5.48 3.54,9 6.87,10.54 2.27,1.08 3.39,2.32 3.39,3.76 0,1.38 -0.95,2.8 -2.85,4.27 -1.91,1.48 -3.66,2.21 -5.24,2.21 -3.19,0 -6.02,-1.95 -8.52,-5.83 -2.5,-3.9 -4.39,-12.31 -5.65,-25.23 -0.57,-5.21 -1.1,-8.91 -1.62,-11.08 -0.51,-2.19 -1.32,-3.29 -2.44,-3.29 -1.66,0 -3.64,1.6 -5.91,4.77 -2.3,3.17 -5.97,9.63 -11.06,19.35 -3.96,7.58 -6.97,12.63 -9.02,15.16 -2.03,2.52 -4,3.78 -5.91,3.78 -1.71,0 -3.23,-0.69 -4.59,-2.05 -1.34,-1.38 -2.2,-3.03 -2.56,-4.96 -0.35,-1.91 -0.73,-6.64 -1.12,-14.18 -0.61,-12.54 -1.69,-19.85 -3.27,-21.91zm120.49 25.42c-5.55,7.46 -11.06,13.04 -16.48,16.79 -5.44,3.72 -10.42,5.59 -14.96,5.59 -3.05,0 -5.69,-1.28 -7.9,-3.86 -2.24,-2.58 -3.34,-5.9 -3.34,-9.96 0,-10.43 4.66,-21.66 13.98,-33.71 9.33,-12.05 18.6,-18.07 27.8,-18.07 3.34,0 5.81,1.89 7.46,5.71 0.51,1.26 1.32,1.91 2.44,1.91 3.17,0 4.75,1.22 4.75,3.68 0,1.24 -0.2,2.93 -0.59,5.06 -2.15,11.71 -3.21,19.98 -3.21,24.77 0,9.61 1.81,15.37 5.47,17.27 1.75,0.96 2.62,2.11 2.62,3.49 0,1.24 -0.86,2.48 -2.56,3.74 -1.71,1.24 -3.35,1.87 -4.94,1.87 -3.07,0 -5.59,-2.12 -7.56,-6.32 -1.99,-4.21 -2.98,-10.2 -2.98,-17.96zm-3.62 -33.53c-5.24,0 -11.34,4.92 -18.29,14.73 -6.95,9.84 -10.43,17.99 -10.43,24.45 0,4.55 1.52,6.84 4.54,6.84 4.37,0 10.42,-4.41 18.16,-13.22 7.74,-8.8 11.61,-16.91 11.61,-24.29 0,-5.67 -1.87,-8.51 -5.59,-8.51zm64.15 18.57c5.12,0.84 9.12,2.72 11.97,5.68 2.86,2.92 4.29,6.52 4.29,10.77 0,6.71 -2.85,12.3 -8.51,16.77 -5.67,4.45 -13.13,6.68 -22.38,6.68 -5.53,0 -10.28,-1.18 -14.26,-3.57 -3.98,-2.38 -6,-5.02 -6,-7.91 0,-2.39 1.38,-3.57 4.13,-3.57 0.38,0 0.99,0.32 1.83,1.01 4.37,3.76 9.55,5.65 15.54,5.65 5.29,0 9.84,-1.38 13.64,-4.16 3.82,-2.78 5.71,-6.4 5.71,-10.83 0,-2.95 -1.08,-5.38 -3.23,-7.36 -2.18,-1.98 -4.68,-2.95 -7.54,-2.95 -2.17,0 -6.01,0.86 -11.48,2.56 -1.08,0.35 -2.24,0.53 -3.46,0.53 -2.4,0 -3.58,-1.6 -3.58,-4.81 0,-1.12 0.57,-2.01 1.69,-2.68 1.14,-0.67 3.58,-1.45 7.3,-2.32 11.32,-2.58 16.97,-7.17 16.97,-13.76 0,-1.99 -0.69,-3.62 -2.11,-4.92 -1.4,-1.28 -3.21,-1.93 -5.44,-1.93 -4.13,0 -8.53,1.83 -13.21,5.49 -2.74,2.13 -4.83,3.21 -6.26,3.21 -2.42,0 -3.64,-1.14 -3.64,-3.4 0,-2.99 2.82,-6.01 8.43,-9.14 5.61,-3.11 11,-4.68 16.16,-4.68 5.16,0 9.22,1.38 12.19,4.1 2.94,2.74 4.43,5.63 4.43,8.64 0,7.19 -4.39,12.83 -13.17,16.91zm69.67 14.96c-5.55,7.46 -11.06,13.04 -16.48,16.79 -5.44,3.72 -10.43,5.59 -14.96,5.59 -3.04,0 -5.69,-1.28 -7.9,-3.86 -2.24,-2.58 -3.33,-5.9 -3.33,-9.96 0,-10.43 4.66,-21.66 13.98,-33.71 9.33,-12.05 18.6,-18.07 27.8,-18.07 3.33,0 5.81,1.89 7.46,5.71 0.5,1.26 1.32,1.91 2.44,1.91 3.17,0 4.75,1.22 4.75,3.68 0,1.24 -0.2,2.93 -0.58,5.06 -2.15,11.71 -3.22,19.98 -3.22,24.77 0,9.61 1.81,15.37 5.47,17.27 1.75,0.96 2.62,2.11 2.62,3.49 0,1.24 -0.86,2.48 -2.56,3.74 -1.71,1.24 -3.35,1.87 -4.94,1.87 -3.07,0 -5.59,-2.12 -7.56,-6.32 -1.99,-4.21 -2.98,-10.2 -2.98,-17.96zm-3.62 -33.53c-5.25,0 -11.34,4.92 -18.29,14.73 -6.95,9.84 -10.42,17.99 -10.42,24.45 0,4.55 1.52,6.84 4.54,6.84 4.37,0 10.42,-4.41 18.16,-13.22 7.74,-8.8 11.6,-16.91 11.6,-24.29 0,-5.67 -1.87,-8.51 -5.59,-8.51zm46.54 48.28c-1.95,7.15 -3.76,17.17 -5.47,30.07l-1.66 11.24c-0.29,1.58 -1.02,3.17 -2.22,4.73 -1.18,1.57 -2.27,2.36 -3.27,2.36 -1.24,0 -2.62,-0.63 -4.21,-1.87 -1.56,-1.26 -2.33,-2.26 -2.33,-3.01 0,-2.2 0.49,-5.2 1.48,-9.06 7.25,-29.32 10.89,-55.09 10.89,-77.26l-0.06 -5c-0.08,-4.29 0.67,-7.42 2.26,-9.34 1.6,-1.95 3.41,-2.93 5.48,-2.93 0.96,0 1.87,0.75 2.74,2.24 0.87,1.48 1.3,3.59 1.3,6.34 0,3.84 -0.38,8.52 -1.17,13.98 -1.04,6.91 -1.57,10.9 -1.61,11.91 5.91,-10.3 12.17,-18.36 18.8,-24.16 6.63,-5.79 12.79,-8.7 18.47,-8.7 4.01,0 7.38,1.5 10.14,4.49 2.76,3.01 4.14,6.73 4.14,11.18 0,12.92 -4.95,24.69 -14.89,35.23 -9.92,10.57 -19.59,15.83 -28.98,15.83 -2.36,0 -4.21,-0.59 -5.57,-1.77 -1.38,-1.2 -2.8,-3.37 -4.27,-6.5zm36.96 -47.92c-5.59,0 -12.52,5.24 -20.77,15.71 -8.25,10.48 -12.37,18.63 -12.37,24.47 0,1.44 0.81,2.82 2.44,4.16 1.63,1.36 3.68,2.04 6.18,2.04 5.69,0 12.21,-4.21 19.59,-12.6 7.39,-8.4 11.08,-16.62 11.08,-24.73 0,-2.91 -0.59,-5.12 -1.75,-6.71 -1.18,-1.57 -2.64,-2.34 -4.39,-2.34zm75.33 7.74c-3.7,0.08 -11.61,11.01 -23.69,32.8 -4.1,7.33 -6.48,11.34 -7.16,11.99 -0.67,0.65 -1.91,1.24 -3.72,1.77 -1.81,0.51 -3.32,0.78 -4.49,0.78 -2.66,0 -4,-5.18 -4,-15.55 0,-5.83 1.26,-16.4 3.76,-31.68 1.04,-6.18 1.54,-10.61 1.54,-13.27 0,-2.62 1.18,-3.92 3.52,-3.92 4.41,0 6.61,3.17 6.61,9.51 0,2.99 -0.73,8.82 -2.19,17.52 -1.71,9.92 -2.58,15.95 -2.62,18.08 2.46,-2.38 6.08,-7.6 10.83,-15.65 6.74,-11.03 11.72,-18.02 14.91,-20.99 3.19,-2.95 6.5,-4.43 9.92,-4.43 2.58,0 4.63,1.73 6.16,5.18 1.52,3.46 2.46,11.68 2.76,24.71 0.08,3.25 0.39,5.67 0.9,7.25 0.52,1.59 0.89,2.38 1.14,2.38 1.87,0 5.91,-6.34 12.15,-19.04 3.33,-6.7 6.57,-11.81 9.73,-15.3 3.15,-3.49 6.65,-5.24 10.51,-5.24 3.21,0 5.55,1.67 7.01,4.98 1.48,3.31 2.52,8.21 3.17,14.73 0.59,6.58 1.51,12.62 2.76,18.09 1.24,5.48 3.54,9 6.87,10.54 2.27,1.08 3.39,2.32 3.39,3.76 0,1.38 -0.95,2.8 -2.85,4.27 -1.91,1.48 -3.66,2.21 -5.24,2.21 -3.19,0 -6.02,-1.95 -8.52,-5.83 -2.5,-3.9 -4.39,-12.31 -5.65,-25.23 -0.57,-5.21 -1.1,-8.91 -1.63,-11.08 -0.51,-2.19 -1.32,-3.29 -2.44,-3.29 -1.66,0 -3.64,1.6 -5.91,4.77 -2.3,3.17 -5.97,9.63 -11.06,19.35 -3.96,7.58 -6.97,12.63 -9.02,15.16 -2.03,2.52 -4,3.78 -5.91,3.78 -1.71,0 -3.23,-0.69 -4.59,-2.05 -1.34,-1.38 -2.2,-3.03 -2.56,-4.96 -0.35,-1.91 -0.73,-6.64 -1.11,-14.18 -0.61,-12.54 -1.69,-19.85 -3.27,-21.91zm124.36 26.07c-6.03,5.67 -12.07,10.12 -18.1,13.33 -6.03,3.21 -10.65,4.81 -13.88,4.81 -3.68,0 -6.62,-1.57 -8.84,-4.73 -2.19,-3.15 -3.29,-7.03 -3.29,-11.63 0,-6.7 1.28,-14.65 3.84,-23.79 2.56,-9.15 4.51,-14.33 5.85,-15.57 1.36,-1.22 3.15,-1.85 5.36,-1.85 1.2,0 2.13,0.71 2.8,2.11 0.67,1.42 1.02,2.85 1.02,4.33 0,0.99 -0.47,2.27 -1.38,3.86 -5.2,9.02 -7.8,18.34 -7.8,27.92 0,2.24 0.43,4.19 1.26,5.87 0.83,1.69 2.09,2.52 3.8,2.52 2.19,0 4.88,-0.65 8.07,-1.99 3.21,-1.32 6.81,-3.49 10.81,-6.52 4,-3 6.71,-5.44 8.11,-7.31 1.38,-1.87 2.36,-3.99 2.94,-6.36 0.58,-2.39 0.98,-7.56 1.22,-15.48 0.22,-7.95 2.15,-11.91 5.77,-11.91 2.13,0 3.53,0.57 4.17,1.69 0.63,1.14 0.95,3.29 0.95,6.46 0,2.38 -0.37,7.54 -1.08,15.48 -0.17,1.79 -0.26,3.43 -0.31,4.94 -1.14,21.19 -4.33,37.8 -9.51,49.83 -5.21,12.03 -12.76,18.04 -22.7,18.04 -7.76,0 -14.7,-2.03 -20.75,-6.09 -6.03,-4.09 -9.06,-7.52 -9.06,-10.35 0,-1.3 0.31,-2.6 0.91,-3.86 0.61,-1.28 1.4,-1.91 2.36,-1.91 0.47,0 0.99,0.39 1.54,1.14 5.2,7.97 13.19,11.97 24,11.97 6.84,0 11.99,-4.21 15.4,-12.6 3.41,-8.39 5.59,-19.18 6.5,-32.35z"/>
 </g>
</svg>
