<?xml version="1.0" encoding="UTF-8"?>
<!DOCTYPE svg PUBLIC "-//W3C//DTD SVG 1.1//EN" "http://www.w3.org/Graphics/SVG/1.1/DTD/svg11.dtd">
<!-- Creator: CorelDRAW 2020 -->
<svg xmlns="http://www.w3.org/2000/svg" xml:space="preserve" width="32mm" height="32mm" version="1.1" style="shape-rendering:geometricPrecision; text-rendering:geometricPrecision; image-rendering:optimizeQuality; fill-rule:evenodd; clip-rule:evenodd"
viewBox="0 0 2733.38 2733.38"
 xmlns:xlink="http://www.w3.org/1999/xlink"
 xmlns:xodm="http://www.corel.com/coreldraw/odm/2003">
 <defs>
  <style type="text/css">
   <![CDATA[
    .str0 {stroke:#6B470F;stroke-width:341.67;stroke-miterlimit:22.9256}
    .fil0 {fill:none}
    .fil1 {fill:#6B470F}
   ]]>
  </style>
 </defs>
 <g id="Layer_x0020_1">
  <metadata id="CorelCorpID_0Corel-Layer"/>
  <polygon class="fil0" points="-0,0 2733.38,0 2733.38,2733.38 -0,2733.38 "/>
  <g id="atau-belgi.svg">
   <path class="fil0 str0" d="M1338.13 607.48c-763.18,120.49 -1017.56,599.84 -1092.57,881 -65.6,243.67 -46.84,644.02 498.08,657.42 176.74,0 690.89,-1.32 1112.59,0 523.56,1.33 669.5,-417.75 657.45,-777.91 -22.91,-653.98 -611.53,-848.73 -1175.56,-760.51z"/>
   <path class="fil1" d="M629.43 1533.99c0,-164.58 134.39,-298.97 298.96,-298.97 164.57,0 298.96,134.39 298.96,298.97 0,164.57 -134.39,298.96 -298.96,298.96 -164.57,0 -298.96,-134.39 -298.96,-298.96z"/>
  </g>
 </g>
</svg>
