<?xml version="1.0" encoding="UTF-8"?>
<!DOCTYPE svg PUBLIC "-//W3C//DTD SVG 1.1//EN" "http://www.w3.org/Graphics/SVG/1.1/DTD/svg11.dtd">
<!-- Creator: CorelDRAW 2020 -->
<svg xmlns="http://www.w3.org/2000/svg" xml:space="preserve" width="32mm" height="32mm" version="1.1" style="shape-rendering:geometricPrecision; text-rendering:geometricPrecision; image-rendering:optimizeQuality; fill-rule:evenodd; clip-rule:evenodd"
viewBox="0 0 632.1 632.1"
 xmlns:xlink="http://www.w3.org/1999/xlink"
 xmlns:xodm="http://www.corel.com/coreldraw/odm/2003">
 <defs>
  <style type="text/css">
   <![CDATA[
    .str0 {stroke:#6B470F;stroke-width:79.01;stroke-miterlimit:22.9256}
    .fil0 {fill:none}
    .fil1 {fill:#6B470F}
   ]]>
  </style>
 </defs>
 <g id="Layer_x0020_1">
  <metadata id="CorelCorpID_0Corel-Layer"/>
  <polygon class="fil0" points="-0,0 632.1,0 632.1,632.1 -0,632.1 "/>
  <g id="atau-belgi.svg">
   <path class="fil0 str0" d="M309.44 140.47c-176.49,27.86 -235.31,138.71 -252.66,203.73 -15.17,56.35 -10.83,148.93 115.18,152.03 40.87,0 159.77,-0.31 257.29,0 121.07,0.31 154.82,-96.6 152.04,-179.89 -5.3,-151.23 -141.42,-196.27 -271.85,-175.87z"/>
   <path class="fil1" d="M150.89 354.73c0,-35.12 28.68,-63.8 63.8,-63.8 35.12,0 63.8,28.68 63.8,63.8 0,35.12 -28.68,63.8 -63.8,63.8 -35.12,0 -63.8,-28.68 -63.8,-63.8z"/>
  </g>
 </g>
</svg>
