<?xml version="1.0" encoding="UTF-8"?>
<!DOCTYPE svg PUBLIC "-//W3C//DTD SVG 1.1//EN" "http://www.w3.org/Graphics/SVG/1.1/DTD/svg11.dtd">
<!-- Creator: CorelDRAW 2020 -->
<svg xmlns="http://www.w3.org/2000/svg" xml:space="preserve" width="32mm" height="32mm" version="1.1" style="shape-rendering:geometricPrecision; text-rendering:geometricPrecision; image-rendering:optimizeQuality; fill-rule:evenodd; clip-rule:evenodd"
viewBox="0 0 638.26 638.26"
 xmlns:xlink="http://www.w3.org/1999/xlink"
 xmlns:xodm="http://www.corel.com/coreldraw/odm/2003">
 <defs>
  <style type="text/css">
   <![CDATA[
    .str0 {stroke:#6B470F;stroke-width:79.78;stroke-miterlimit:22.9256}
    .fil0 {fill:none}
    .fil1 {fill:#6B470F}
   ]]>
  </style>
 </defs>
 <g id="Layer_x0020_1">
  <metadata id="CorelCorpID_0Corel-Layer"/>
  <polygon class="fil0" points="-0,0 638.26,0 638.26,638.26 -0,638.26 "/>
  <g id="atau-belgi.svg">
   <path class="fil0 str0" d="M312.46 141.85c-178.21,28.14 -237.6,140.07 -255.12,205.72 -15.32,56.9 -10.94,150.38 116.3,153.51 41.27,0 161.33,-0.31 259.79,0 122.25,0.31 156.33,-97.55 153.52,-181.65 -5.35,-152.71 -142.79,-198.18 -274.5,-177.58z"/>
   <path class="fil1" d="M146.97 358.19c0,-38.43 31.38,-69.81 69.81,-69.81 38.43,0 69.81,31.38 69.81,69.81 0,38.43 -31.38,69.81 -69.81,69.81 -38.43,0 -69.81,-31.38 -69.81,-69.81z"/>
  </g>
 </g>
</svg>
