<?xml version="1.0" encoding="UTF-8"?>
<!DOCTYPE svg PUBLIC "-//W3C//DTD SVG 1.1//EN" "http://www.w3.org/Graphics/SVG/1.1/DTD/svg11.dtd">
<!-- Creator: CorelDRAW 2020 -->
<svg xmlns="http://www.w3.org/2000/svg" xml:space="preserve" width="11mm" height="10.1998mm" version="1.1" style="shape-rendering:geometricPrecision; text-rendering:geometricPrecision; image-rendering:optimizeQuality; fill-rule:evenodd; clip-rule:evenodd"
viewBox="0 0 2115.16 1961.29"
 xmlns:xlink="http://www.w3.org/1999/xlink"
 xmlns:xodm="http://www.corel.com/coreldraw/odm/2003">
 <defs>
  <style type="text/css">
   <![CDATA[
    .fil0 {fill:none}
    .fil1 {fill:#ACA77B}
    .fil2 {fill:#ACA77B;fill-rule:nonzero}
   ]]>
  </style>
 </defs>
 <g id="Layer_x0020_1">
  <metadata id="CorelCorpID_0Corel-Layer"/>
  <g id="_1197308120">
   <polygon class="fil0" points="-0,0 2115.16,0 2115.16,1961.29 -0,1961.29 "/>
   <polygon class="fil1" points="1554.28,962.9 1359.3,928.29 1359.3,847.43 1418.12,847.43 1418.12,787.26 1235.6,787.26 1235.6,847.43 1294.42,847.43 1294.42,928.29 1099.4,962.9 1099.4,1223.89 1554.28,1223.89 "/>
   <polygon class="fil1" points="971.74,1222.64 562.21,1222.64 562.21,450.86 694.18,373.9 693.39,263.8 838.39,261.43 839.82,373.9 971.74,450.86 "/>
   <path class="fil2" d="M329.87 1667.46c-39.84,31.8 -66.15,63.84 -78.9,96.07 -4.9,10.71 -9.94,18.75 -14.94,24.07 -20.86,-1.08 -31.25,-10.11 -31.25,-27 0,-24.81 29.82,-62.42 89.45,-112.83l12.63 -10.94c-34.84,-48.49 -52.21,-85.68 -52.21,-111.68 0,-23 10.46,-34.53 31.42,-34.53 6,0 10.31,2.4 13,7.06 2.77,4.73 4.83,15.44 6.42,32.13 2.25,25.73 14.27,53.13 35.92,81.95 48.44,-38.61 81.22,-73.15 98.14,-103.62 5.83,-9.71 10.19,-15.86 13.34,-18.44 3.21,-2.63 7.42,-3.9 12.61,-3.9 6.27,0 12.17,2.25 17.75,6.81 5.44,4.5 8.23,10.31 8.23,17.29 0,16.17 -42.44,60.61 -127.51,133.26 29.27,34.71 60.34,60.78 93.37,78.13 4.04,2.08 7.9,4.25 11.56,6.56 0.71,1.4 1.08,3.75 1.08,6.81 0,6.98 -2.77,13.21 -8.23,18.69 -5.56,5.58 -12.19,8.29 -19.88,8.29 -23.56,0 -60.9,-31.38 -112.03,-94.14zm384.34 -15.27c-22.4,34.78 -45.34,61.86 -68.8,80.93 -23.36,19.19 -45.11,28.75 -65.26,28.75 -11.56,0 -23.27,-6.25 -35.28,-18.77 -12,-12.46 -18,-31.73 -18,-57.63 0,-21.25 5.56,-52.55 16.58,-93.91 9.23,-34.53 13.88,-58.78 13.88,-72.72 5.1,-9.71 13.08,-14.61 23.9,-14.61 7.35,0 13.15,2.42 17.56,7.23 4.38,4.73 6.54,9.71 6.54,14.94 0,11.36 -4.31,27.48 -12.83,48.4 -16.29,40.71 -24.42,75.65 -24.42,104.87 0,26.57 6.61,39.84 19.96,39.84 16.92,0 38.57,-13.36 64.72,-40.09 26.25,-26.82 48.71,-64.11 67.44,-111.91 7.35,-19.11 13.34,-31.57 18,-37.36 4.65,-5.73 10.94,-8.65 18.81,-8.65 11.83,0 17.81,7.31 17.81,21.92 0,1.75 -1.69,7.73 -5.02,17.77 -10.46,35.53 -15.75,69.09 -15.75,100.72 0,37.94 6.81,62.51 20.25,73.65 6.98,6.06 10.46,10.88 10.46,14.61 0,4.56 -3.48,8.73 -10.63,12.44 -7.1,3.75 -13.44,5.58 -19.27,5.58 -12.27,0 -22.11,-8.48 -29.63,-25.32 -7.52,-16.86 -11.29,-41.76 -11.29,-74.65l0 -8.06c0,-2.58 0.1,-5.23 0.29,-7.96zm477.16 -107.28c-14.15,21 -34.13,56.71 -59.82,107.03 -5.73,11.29 -11.63,22.25 -17.54,32.79 -2,3.42 -5.65,10.96 -11.02,22.67 -18.36,39.52 -34.4,59.28 -48.09,59.28 -10.85,0 -18.71,-1.17 -23.73,-3.65 -4.92,-2.42 -9.67,-9.04 -14.23,-19.92 -4.58,-10.88 -11.31,-36.38 -20.25,-76.65 -10.31,-45.5 -17.29,-73.57 -20.96,-84.09 -11.9,24.81 -22.46,48.71 -31.79,71.72 -13.96,33.86 -27.48,61.53 -40.63,82.86 -13.09,21.27 -22.57,34.13 -28.3,38.36 -5.83,4.33 -11.31,6.48 -16.56,6.48 -5.38,0 -10.31,-1.9 -14.71,-5.81 -4.38,-3.9 -6.54,-7.73 -6.54,-11.48 1.08,-6.61 2.25,-10.79 3.69,-12.34 15.23,-17.36 28.29,-35.88 39.28,-55.47 11.02,-19.67 25.09,-49.07 42.19,-88.34 17.02,-39.21 27.94,-71.42 32.59,-96.57 2.33,-10.71 10.75,-16.02 25.42,-16.02 8.61,0 14.52,1.15 17.63,3.63 3.15,2.42 6.29,7.4 9.35,14.79 3.04,7.48 4.81,14.13 5.36,20.02 1.06,6.98 4.02,22.42 8.86,46.42 4.38,22.57 7.35,38.52 8.67,47.9 2.42,13.54 6.81,31.15 12.98,53.05 6.17,21.92 11.11,32.88 14.59,32.88 2.44,0 5.92,-4.98 10.5,-14.86l22.02 -47.25c4.02,-8.56 8.33,-17.02 12.9,-25.25l30.07 -57.19c16.48,-31.48 29.11,-54.23 37.98,-68.44 8.77,-14.19 14.77,-22.75 17.81,-25.65 3.04,-2.98 6.54,-4.38 10.38,-4.38 6.63,0 14.08,1.63 22.32,4.98 8.21,3.31 12.42,6.96 12.79,11.04 0.37,4.06 1.17,21 2.4,50.82l3.42 75.95c1.08,24.17 2.6,44.69 4.73,61.61 2.08,16.94 5.73,30.63 11.02,41.03 8.15,16.52 12.27,29.3 12.27,38.44 0,7.71 -3.4,13.09 -10.31,16.02 -6.98,2.9 -13.34,4.4 -19.32,4.4 -12.19,0 -21.57,-9.15 -28.21,-27.25 -6.54,-18.19 -11.29,-70.24 -14.25,-156.16 -1.08,-25.82 -2.77,-41.59 -5,-47.42zm320.29 107.28c-22.4,34.78 -45.32,61.86 -68.78,80.93 -23.38,19.19 -45.13,28.75 -65.28,28.75 -11.56,0 -23.27,-6.25 -35.28,-18.77 -11.98,-12.46 -18,-31.73 -18,-57.63 0,-21.25 5.56,-52.55 16.59,-93.91 9.21,-34.53 13.86,-58.78 13.86,-72.72 5.1,-9.71 13.08,-14.61 23.9,-14.61 7.35,0 13.15,2.42 17.56,7.23 4.38,4.73 6.54,9.71 6.54,14.94 0,11.36 -4.29,27.48 -12.83,48.4 -16.29,40.71 -24.42,75.65 -24.42,104.87 0,26.57 6.61,39.84 19.96,39.84 16.92,0 38.59,-13.36 64.72,-40.09 26.25,-26.82 48.73,-64.11 67.44,-111.91 7.35,-19.11 13.34,-31.57 18,-37.36 4.65,-5.73 10.94,-8.65 18.81,-8.65 11.83,0 17.81,7.31 17.81,21.92 0,1.75 -1.69,7.73 -5,17.77 -10.48,35.53 -15.77,69.09 -15.77,100.72 0,37.94 6.81,62.51 20.25,73.65 6.98,6.06 10.46,10.88 10.46,14.61 0,4.56 -3.48,8.73 -10.63,12.44 -7.08,3.75 -13.42,5.58 -19.27,5.58 -12.27,0 -22.11,-8.48 -29.63,-25.32 -7.52,-16.86 -11.27,-41.76 -11.27,-74.65l0 -8.06c0,-2.58 0.08,-5.23 0.27,-7.96zm319.22 17.25c-24.44,30.5 -48.71,53.32 -72.63,68.59 -24,15.21 -45.92,22.84 -65.9,22.84 -13.42,0 -25.07,-5.25 -34.82,-15.77 -9.86,-10.56 -14.69,-24.09 -14.69,-40.69 0,-42.59 20.5,-88.51 61.59,-137.75 41.11,-49.23 81.95,-73.8 122.49,-73.8 14.71,0 25.63,7.71 32.88,23.32 2.23,5.15 5.81,7.79 10.75,7.79 13.96,0 20.96,4.98 20.96,15.06 0,5.06 -0.92,11.94 -2.62,20.67 -9.48,47.8 -14.13,81.61 -14.13,101.2 0,39.28 7.96,62.78 24.07,70.59 7.71,3.9 11.56,8.61 11.56,14.27 0,5.06 -3.77,10.13 -11.29,15.29 -7.52,5.06 -14.77,7.63 -21.75,7.63 -13.54,0 -24.63,-8.63 -33.32,-25.82 -8.77,-17.19 -13.15,-41.69 -13.15,-73.42zm-15.94 -136.99c-23.09,0 -49.96,20.09 -80.59,60.19 -30.63,40.19 -45.94,73.49 -45.94,99.89 0,18.59 6.71,28 19.96,28 19.27,0 45.94,-18.04 80.05,-54.07 34.13,-35.94 51.13,-69.07 51.13,-99.22 0,-23.15 -8.23,-34.78 -24.61,-34.78z"/>
  </g>
 </g>
</svg>
