<?xml version="1.0" encoding="UTF-8"?>
<!DOCTYPE svg PUBLIC "-//W3C//DTD SVG 1.1//EN" "http://www.w3.org/Graphics/SVG/1.1/DTD/svg11.dtd">
<!-- Creator: CorelDRAW 2020 -->
<svg xmlns="http://www.w3.org/2000/svg" xml:space="preserve" width="11mm" height="10mm" version="1.1" style="shape-rendering:geometricPrecision; text-rendering:geometricPrecision; image-rendering:optimizeQuality; fill-rule:evenodd; clip-rule:evenodd"
viewBox="0 0 2115.16 1922.88"
 xmlns:xlink="http://www.w3.org/1999/xlink"
 xmlns:xodm="http://www.corel.com/coreldraw/odm/2003">
 <defs>
  <style type="text/css">
   <![CDATA[
    .str1 {stroke:#748187;stroke-width:144.22;stroke-miterlimit:22.9256}
    .str2 {stroke:#748187;stroke-width:96.14;stroke-miterlimit:22.9256}
    .str0 {stroke:#748187;stroke-width:38.46;stroke-miterlimit:22.9256}
    .fil0 {fill:none}
    .fil1 {fill:#748187}
    .fil2 {fill:#748187;fill-rule:nonzero}
   ]]>
  </style>
 </defs>
 <g id="Layer_x0020_1">
  <metadata id="CorelCorpID_0Corel-Layer"/>
  <g id="_970400224">
   <polygon class="fil0" points="-0,0 2115.16,0 2115.16,1922.88 -0,1922.88 "/>
   <g>
    <g>
     <polygon class="fil0 str0" points="597.17,334.12 801.95,205.36 1006.7,334.12 1006.7,1166.45 597.17,1166.45 "/>
     <line class="fil0 str1" x1="801.95" y1="249.59" x2="801.95" y2= "129.87" />
     <polygon class="fil1" points="1006.7,1166.45 1006.7,334.12 801.95,205.36 597.17,334.12 597.17,1166.45 "/>
     <polygon class="fil0 str0" points="1131.19,885 1358.65,841.47 1586.06,885 1586.06,1166.45 1131.19,1166.45 "/>
     <line class="fil0 str2" x1="1358.65" y1="856.39" x2="1358.65" y2= "728.02" />
     <polygon class="fil1" points="1586.06,1166.45 1586.06,885 1358.65,841.45 1131.19,885 1131.19,1166.45 "/>
     <line class="fil0 str2" x1="1277.48" y1="717.69" x2="1436.31" y2= "717.69" />
    </g>
    <path class="fil2" d="M417.61 1590.7c-36.23,31.17 -60.15,62.59 -71.72,94.18 -4.46,10.5 -9.04,18.38 -13.59,23.59 -18.96,-1.06 -28.4,-9.92 -28.4,-26.46 0,-24.32 27.11,-61.21 81.32,-110.62l11.48 -10.73c-31.67,-47.55 -47.46,-84.01 -47.46,-109.49 0,-22.56 9.52,-33.86 28.57,-33.86 5.44,0 9.36,2.35 11.81,6.92 2.52,4.63 4.38,15.13 5.85,31.5 2.04,25.23 12.96,52.09 32.65,80.34 44.03,-37.84 73.84,-71.7 89.22,-101.59 5.29,-9.52 9.27,-15.56 12.13,-18.08 2.92,-2.6 6.75,-3.83 11.46,-3.83 5.71,0 11.08,2.19 16.13,6.67 4.96,4.4 7.48,10.1 7.48,16.94 0,15.86 -38.57,59.42 -115.91,130.64 26.61,34.03 54.86,59.59 84.89,76.61 3.67,2.04 7.17,4.15 10.5,6.42 0.65,1.38 0.98,3.67 0.98,6.67 0,6.85 -2.52,12.96 -7.48,18.33 -5.06,5.46 -11.08,8.13 -18.08,8.13 -21.42,0 -55.36,-30.77 -101.84,-92.3zm349.39 -14.98c-20.36,34.11 -41.21,60.65 -62.53,79.36 -21.25,18.81 -41.01,28.17 -59.34,28.17 -10.5,0 -21.15,-6.11 -32.07,-18.4 -10.9,-12.21 -16.36,-31.09 -16.36,-56.49 0,-20.82 5.06,-51.51 15.08,-92.07 8.38,-33.86 12.61,-57.63 12.61,-71.3 4.63,-9.52 11.88,-14.33 21.73,-14.33 6.67,0 11.96,2.37 15.96,7.08 3.98,4.65 5.94,9.54 5.94,14.65 0,11.15 -3.9,26.94 -11.65,47.46 -14.81,39.9 -22.21,74.17 -22.21,102.82 0,26.05 6.02,39.07 18.15,39.07 15.38,0 35.07,-13.11 58.84,-39.32 23.86,-26.29 44.28,-62.84 61.3,-109.72 6.67,-18.73 12.13,-30.94 16.36,-36.63 4.23,-5.61 9.94,-8.48 17.09,-8.48 10.75,0 16.19,7.17 16.19,21.5 0,1.71 -1.54,7.58 -4.56,17.42 -9.52,34.84 -14.33,67.72 -14.33,98.74 0,37.21 6.19,61.3 18.4,72.2 6.35,5.94 9.52,10.67 9.52,14.33 0,4.48 -3.17,8.56 -9.67,12.21 -6.44,3.67 -12.21,5.46 -17.52,5.46 -11.15,0 -20.09,-8.31 -26.94,-24.82 -6.83,-16.54 -10.25,-40.96 -10.25,-73.18l0 -7.9c0,-2.52 0.08,-5.13 0.25,-7.81zm433.78 -105.18c-12.86,20.59 -31.02,55.61 -54.38,104.93 -5.21,11.08 -10.58,21.82 -15.94,32.15 -1.81,3.35 -5.13,10.75 -10.02,22.23 -16.69,38.75 -31.27,58.11 -43.71,58.11 -9.86,0 -17.02,-1.13 -21.57,-3.58 -4.48,-2.37 -8.79,-8.86 -12.94,-19.54 -4.15,-10.65 -10.27,-35.65 -18.4,-75.13 -9.36,-44.61 -15.71,-72.13 -19.06,-82.45 -10.83,24.32 -20.42,47.76 -28.9,70.32 -12.69,33.21 -24.98,60.32 -36.94,81.24 -11.9,20.84 -20.52,33.46 -25.73,37.61 -5.29,4.23 -10.27,6.35 -15.06,6.35 -4.88,0 -9.36,-1.87 -13.36,-5.69 -3.98,-3.83 -5.94,-7.58 -5.94,-11.25 0.98,-6.5 2.04,-10.58 3.35,-12.11 13.84,-17.02 25.73,-35.17 35.73,-54.38 10.02,-19.29 22.81,-48.11 38.34,-86.61 15.48,-38.44 25.4,-70.01 29.63,-94.68 2.12,-10.5 9.77,-15.71 23.11,-15.71 7.83,0 13.19,1.13 16.04,3.58 2.87,2.37 5.71,7.25 8.48,14.5 2.77,7.33 4.38,13.84 4.88,19.61 0.96,6.85 3.65,21.98 8.06,45.51 3.98,22.13 6.67,37.77 7.88,46.96 2.21,13.27 6.19,30.54 11.81,52.01 5.61,21.5 10.1,32.25 13.27,32.25 2.21,0 5.38,-4.88 9.54,-14.58l20.02 -46.32c3.65,-8.38 7.58,-16.69 11.73,-24.75l27.34 -56.07c14.98,-30.86 26.46,-53.17 34.52,-67.09 7.98,-13.92 13.42,-22.31 16.19,-25.15 2.77,-2.92 5.94,-4.31 9.44,-4.31 6.04,0 12.79,1.62 20.29,4.88 7.48,3.25 11.31,6.83 11.63,10.83 0.33,3.98 1.06,20.59 2.19,49.82l3.1 74.47c0.98,23.69 2.37,43.8 4.31,60.4 1.88,16.61 5.21,30.04 10.02,40.23 7.4,16.19 11.15,28.73 11.15,37.69 0,7.56 -3.1,12.84 -9.36,15.71 -6.35,2.85 -12.13,4.31 -17.58,4.31 -11.08,0 -19.61,-8.96 -25.65,-26.71 -5.94,-17.83 -10.25,-68.86 -12.94,-153.1 -0.98,-25.32 -2.52,-40.78 -4.56,-46.5zm291.18 105.18c-20.36,34.11 -41.21,60.65 -62.53,79.36 -21.25,18.81 -41.01,28.17 -59.34,28.17 -10.5,0 -21.15,-6.11 -32.07,-18.4 -10.9,-12.21 -16.36,-31.09 -16.36,-56.49 0,-20.82 5.06,-51.51 15.08,-92.07 8.38,-33.86 12.61,-57.63 12.61,-71.3 4.63,-9.52 11.88,-14.33 21.73,-14.33 6.67,0 11.96,2.37 15.96,7.08 3.98,4.65 5.94,9.54 5.94,14.65 0,11.15 -3.9,26.94 -11.65,47.46 -14.81,39.9 -22.21,74.17 -22.21,102.82 0,26.05 6.02,39.07 18.15,39.07 15.38,0 35.07,-13.11 58.84,-39.32 23.86,-26.29 44.28,-62.84 61.3,-109.72 6.67,-18.73 12.13,-30.94 16.36,-36.63 4.23,-5.61 9.94,-8.48 17.09,-8.48 10.75,0 16.19,7.17 16.19,21.5 0,1.71 -1.54,7.58 -4.56,17.42 -9.52,34.84 -14.33,67.72 -14.33,98.74 0,37.21 6.19,61.3 18.4,72.2 6.35,5.94 9.52,10.67 9.52,14.33 0,4.48 -3.17,8.56 -9.67,12.21 -6.44,3.67 -12.21,5.46 -17.52,5.46 -11.15,0 -20.09,-8.31 -26.94,-24.82 -6.83,-16.54 -10.25,-40.96 -10.25,-73.18l0 -7.9c0,-2.52 0.08,-5.13 0.25,-7.81zm290.2 16.92c-22.23,29.88 -44.28,52.26 -66.03,67.24 -21.81,14.9 -41.75,22.38 -59.9,22.38 -12.21,0 -22.81,-5.13 -31.67,-15.46 -8.96,-10.35 -13.34,-23.61 -13.34,-39.88 0,-41.76 18.63,-86.78 55.99,-135.06 37.36,-48.26 74.49,-72.36 111.35,-72.36 13.36,0 23.29,7.58 29.88,22.88 2.04,5.04 5.29,7.63 9.77,7.63 12.69,0 19.06,4.88 19.06,14.75 0,4.96 -0.83,11.71 -2.37,20.27 -8.63,46.88 -12.86,80.01 -12.86,99.22 0,38.52 7.25,61.55 21.9,69.2 7,3.83 10.5,8.46 10.5,14 0,4.96 -3.42,9.92 -10.27,14.98 -6.83,4.96 -13.42,7.48 -19.77,7.48 -12.31,0 -22.38,-8.46 -30.29,-25.31 -7.98,-16.86 -11.96,-40.88 -11.96,-71.97zm-14.5 -134.31c-21,0 -45.42,19.71 -73.26,59.01 -27.84,39.4 -41.76,72.05 -41.76,97.93 0,18.23 6.11,27.44 18.15,27.44 17.52,0 41.76,-17.67 72.78,-52.99 31.02,-35.25 46.48,-67.72 46.48,-97.28 0,-22.71 -7.48,-34.11 -22.38,-34.11z"/>
   </g>
  </g>
 </g>
</svg>
