<?xml version="1.0" encoding="UTF-8"?>
<!DOCTYPE svg PUBLIC "-//W3C//DTD SVG 1.1//EN" "http://www.w3.org/Graphics/SVG/1.1/DTD/svg11.dtd">
<!-- Creator: CorelDRAW 2020 -->
<svg xmlns="http://www.w3.org/2000/svg" xml:space="preserve" width="11mm" height="10mm" version="1.1" style="shape-rendering:geometricPrecision; text-rendering:geometricPrecision; image-rendering:optimizeQuality; fill-rule:evenodd; clip-rule:evenodd"
viewBox="0 0 2115.16 1922.88"
 xmlns:xlink="http://www.w3.org/1999/xlink"
 xmlns:xodm="http://www.corel.com/coreldraw/odm/2003">
 <defs>
  <style type="text/css">
   <![CDATA[
    .fil0 {fill:none}
    .fil1 {fill:#B2AD81}
    .fil2 {fill:#B2AD81;fill-rule:nonzero}
   ]]>
  </style>
 </defs>
 <g id="Layer_x0020_1">
  <metadata id="CorelCorpID_0Corel-Layer"/>
  <g id="_910515304">
   <polygon class="fil0" points="-0,0 2115.16,0 2115.16,1922.88 -0,1922.88 "/>
   <polygon class="fil1" points="1584.16,942.31 1389.18,904.96 1389.18,817.76 1448,817.76 1448,752.88 1265.48,752.88 1265.48,817.76 1324.3,817.76 1324.3,904.96 1129.29,942.31 1129.29,1223.76 1584.16,1223.76 "/>
   <polygon class="fil1" points="1001.63,1222.41 592.09,1222.41 592.09,390.07 724.06,307.08 723.27,188.35 868.27,185.81 869.7,307.1 1001.63,390.07 "/>
   <path class="fil2" d="M329.87 1594.43c-39.84,34.28 -66.15,68.84 -78.9,103.59 -4.9,11.56 -9.94,20.23 -14.94,25.96 -20.86,-1.15 -31.25,-10.92 -31.25,-29.11 0,-26.75 29.82,-67.32 89.45,-121.68l12.63 -11.81c-34.84,-52.3 -52.21,-92.41 -52.21,-120.43 0,-24.81 10.46,-37.25 31.42,-37.25 6,0 10.31,2.58 13,7.61 2.77,5.1 4.83,16.63 6.42,34.65 2.25,27.75 14.27,57.28 35.92,88.36 48.44,-41.61 81.22,-78.88 98.14,-111.74 5.83,-10.46 10.19,-17.11 13.34,-19.88 3.21,-2.85 7.42,-4.21 12.61,-4.21 6.27,0 12.17,2.42 17.75,7.35 5.44,4.85 8.23,11.09 8.23,18.63 0,17.44 -42.44,65.36 -127.51,143.7 29.27,37.44 60.34,65.55 93.37,84.28 4.04,2.23 7.9,4.56 11.56,7.06 0.71,1.52 1.08,4.04 1.08,7.35 0,7.54 -2.77,14.25 -8.23,20.15 -5.56,6.02 -12.19,8.96 -19.88,8.96 -23.56,0 -60.9,-33.84 -112.03,-101.53zm384.34 -16.48c-22.4,37.52 -45.34,66.7 -68.8,87.28 -23.36,20.69 -45.11,31 -65.26,31 -11.56,0 -23.27,-6.73 -35.28,-20.25 -12,-13.42 -18,-34.21 -18,-62.15 0,-22.9 5.56,-56.67 16.58,-101.28 9.23,-37.25 13.88,-63.38 13.88,-78.41 5.1,-10.48 13.08,-15.77 23.9,-15.77 7.35,0 13.15,2.6 17.56,7.79 4.38,5.11 6.54,10.5 6.54,16.11 0,12.27 -4.31,29.63 -12.83,52.21 -16.29,43.88 -24.42,81.59 -24.42,113.1 0,28.65 6.61,42.98 19.96,42.98 16.92,0 38.57,-14.42 64.72,-43.26 26.25,-28.9 48.71,-69.11 67.44,-120.68 7.35,-20.61 13.34,-34.03 18,-40.3 4.65,-6.17 10.94,-9.33 18.81,-9.33 11.83,0 17.81,7.88 17.81,23.65 0,1.88 -1.69,8.33 -5.02,19.17 -10.46,38.32 -15.75,74.49 -15.75,108.6 0,40.94 6.81,67.44 20.25,79.43 6.98,6.54 10.46,11.73 10.46,15.75 0,4.92 -3.48,9.42 -10.63,13.44 -7.1,4.04 -13.44,6 -19.27,6 -12.27,0 -22.11,-9.13 -29.63,-27.3 -7.52,-18.19 -11.29,-45.05 -11.29,-80.51l0 -8.69c0,-2.77 0.1,-5.63 0.29,-8.58zm477.16 -115.7c-14.15,22.65 -34.13,61.17 -59.82,115.41 -5.73,12.19 -11.63,24.02 -17.54,35.38 -2,3.67 -5.65,11.81 -11.02,24.44 -18.36,42.63 -34.4,63.92 -48.09,63.92 -10.85,0 -18.71,-1.25 -23.73,-3.92 -4.92,-2.62 -9.67,-9.75 -14.23,-21.5 -4.58,-11.71 -11.31,-39.21 -20.25,-82.65 -10.31,-49.07 -17.29,-79.34 -20.96,-90.68 -11.9,26.75 -22.46,52.53 -31.79,77.34 -13.96,36.53 -27.48,66.36 -40.63,89.38 -13.09,22.92 -22.57,36.8 -28.3,41.36 -5.83,4.65 -11.31,6.98 -16.56,6.98 -5.38,0 -10.31,-2.04 -14.71,-6.25 -4.38,-4.21 -6.54,-8.35 -6.54,-12.38 1.08,-7.13 2.25,-11.63 3.69,-13.33 15.23,-18.71 28.29,-38.69 39.28,-59.8 11.02,-21.23 25.09,-52.94 42.19,-95.28 17.02,-42.28 27.94,-77.01 32.59,-104.14 2.33,-11.56 10.75,-17.29 25.42,-17.29 8.61,0 14.52,1.25 17.63,3.94 3.15,2.6 6.29,7.96 9.35,15.94 3.04,8.06 4.81,15.23 5.36,21.57 1.06,7.54 4.02,24.17 8.86,50.07 4.38,24.34 7.35,41.53 8.67,51.65 2.42,14.59 6.81,33.59 12.98,57.21 6.17,23.65 11.11,35.48 14.59,35.48 2.44,0 5.92,-5.36 10.5,-16.04l22.02 -50.96c4.02,-9.21 8.33,-18.34 12.9,-27.21l30.07 -61.69c16.48,-33.94 29.11,-58.47 37.98,-73.8 8.77,-15.31 14.77,-24.54 17.81,-27.67 3.04,-3.21 6.54,-4.73 10.38,-4.73 6.63,0 14.08,1.77 22.32,5.36 8.21,3.58 12.42,7.52 12.79,11.92 0.37,4.36 1.17,22.65 2.4,54.8l3.42 81.91c1.08,26.05 2.6,48.19 4.73,66.44 2.08,18.29 5.73,33.03 11.02,44.25 8.15,17.83 12.27,31.61 12.27,41.46 0,8.33 -3.4,14.13 -10.31,17.29 -6.98,3.13 -13.34,4.75 -19.32,4.75 -12.19,0 -21.57,-9.86 -28.21,-29.38 -6.54,-19.61 -11.29,-75.74 -14.25,-168.42 -1.08,-27.84 -2.77,-44.86 -5,-51.13zm320.29 115.7c-22.4,37.52 -45.32,66.7 -68.78,87.28 -23.38,20.69 -45.13,31 -65.28,31 -11.56,0 -23.27,-6.73 -35.28,-20.25 -11.98,-13.42 -18,-34.21 -18,-62.15 0,-22.9 5.56,-56.67 16.59,-101.28 9.21,-37.25 13.86,-63.38 13.86,-78.41 5.1,-10.48 13.08,-15.77 23.9,-15.77 7.35,0 13.15,2.6 17.56,7.79 4.38,5.11 6.54,10.5 6.54,16.11 0,12.27 -4.29,29.63 -12.83,52.21 -16.29,43.88 -24.42,81.59 -24.42,113.1 0,28.65 6.61,42.98 19.96,42.98 16.92,0 38.59,-14.42 64.72,-43.26 26.25,-28.9 48.73,-69.11 67.44,-120.68 7.35,-20.61 13.34,-34.03 18,-40.3 4.65,-6.17 10.94,-9.33 18.81,-9.33 11.83,0 17.81,7.88 17.81,23.65 0,1.88 -1.69,8.33 -5,19.17 -10.48,38.32 -15.77,74.49 -15.77,108.6 0,40.94 6.81,67.44 20.25,79.43 6.98,6.54 10.46,11.73 10.46,15.75 0,4.92 -3.48,9.42 -10.63,13.44 -7.08,4.04 -13.42,6 -19.27,6 -12.27,0 -22.11,-9.13 -29.63,-27.3 -7.52,-18.19 -11.27,-45.05 -11.27,-80.51l0 -8.69c0,-2.77 0.08,-5.63 0.27,-8.58zm319.22 18.61c-24.44,32.86 -48.71,57.47 -72.63,73.95 -24,16.4 -45.92,24.63 -65.9,24.63 -13.42,0 -25.07,-5.65 -34.82,-17.02 -9.86,-11.36 -14.69,-25.96 -14.69,-43.86 0,-45.94 20.5,-95.45 61.59,-148.58 41.11,-53.09 81.95,-79.59 122.49,-79.59 14.71,0 25.63,8.35 32.88,25.17 2.23,5.54 5.81,8.4 10.75,8.4 13.96,0 20.96,5.36 20.96,16.23 0,5.44 -0.92,12.86 -2.62,22.29 -9.48,51.57 -14.13,88.01 -14.13,109.14 0,42.36 7.96,67.7 24.07,76.13 7.71,4.21 11.56,9.31 11.56,15.4 0,5.46 -3.77,10.9 -11.29,16.48 -7.52,5.44 -14.77,8.23 -21.75,8.23 -13.54,0 -24.63,-9.31 -33.32,-27.84 -8.77,-18.56 -13.15,-44.98 -13.15,-79.16zm-15.94 -147.75c-23.09,0 -49.96,21.69 -80.59,64.92 -30.63,43.34 -45.94,79.26 -45.94,107.72 0,20.06 6.71,30.19 19.96,30.19 19.27,0 45.94,-19.44 80.05,-58.3 34.13,-38.77 51.13,-74.49 51.13,-107.01 0,-24.98 -8.23,-37.52 -24.61,-37.52z"/>
  </g>
 </g>
</svg>
