<?xml version="1.0" encoding="UTF-8"?>
<!DOCTYPE svg PUBLIC "-//W3C//DTD SVG 1.1//EN" "http://www.w3.org/Graphics/SVG/1.1/DTD/svg11.dtd">
<!-- Creator: CorelDRAW 2020 -->
<svg xmlns="http://www.w3.org/2000/svg" xml:space="preserve" width="11mm" height="10mm" version="1.1" style="shape-rendering:geometricPrecision; text-rendering:geometricPrecision; image-rendering:optimizeQuality; fill-rule:evenodd; clip-rule:evenodd"
viewBox="0 0 243.36 221.24"
 xmlns:xlink="http://www.w3.org/1999/xlink"
 xmlns:xodm="http://www.corel.com/coreldraw/odm/2003">
 <defs>
  <style type="text/css">
   <![CDATA[
    .str0 {stroke:#C6B93A;stroke-width:11.06;stroke-miterlimit:22.9256}
    .str1 {stroke:#C6B93A;stroke-width:4.42;stroke-miterlimit:22.9256}
    .str2 {stroke:#C6B93A;stroke-width:1.69;stroke-miterlimit:22.9256}
    .fil0 {fill:none}
    .fil2 {fill:#56698F}
    .fil1 {fill:#C6B93A}
    .fil3 {fill:#C6B93A;fill-rule:nonzero}
   ]]>
  </style>
 </defs>
 <g id="Layer_x0020_1">
  <metadata id="CorelCorpID_0Corel-Layer"/>
  <g id="_1146868336">
   <polygon class="fil0" points="-0,0 243.36,0 243.36,221.24 -0,221.24 "/>
   <g>
    <g>
     <polyline class="fil0 str0" points="110.66,66.1 127.35,128.43 179.8,132.94 "/>
     <path class="fil1 str1" d="M127.35 124.44c-2.2,0 -3.98,1.78 -3.98,3.98 0,2.2 1.78,3.98 3.98,3.98 2.2,0 3.98,-1.78 3.98,-3.98 0,-2.2 -1.78,-3.98 -3.98,-3.98z"/>
     <path class="fil1 str1" d="M73.44 18.71l-2.17 0c-7.42,0 -13.49,6.07 -13.49,13.49l0 70.66c0,1.68 1.37,3.05 3.05,3.05l23.06 0c1.68,0 3.05,-1.37 3.05,-3.05l0 -70.66c0,-7.42 -6.07,-13.49 -13.5,-13.49z"/>
     <path class="fil2 str1" d="M75.01 105.92l-7.27 0c-0.58,0 -1.05,0.47 -1.05,1.05l0 18.03c0,0.58 0.47,1.05 1.05,1.05l7.27 0c0.58,0 1.05,-0.47 1.05,-1.05l0 -18.03c0,-0.58 -0.47,-1.05 -1.05,-1.05z"/>
     <line class="fil0 str1" x1="71.37" y1="126.05" x2="71.37" y2= "136.83" />
     <path class="fil2 str1" d="M88.55 48.45l20.05 0c3.1,0 5.64,2.54 5.64,5.64l0 0c0,3.1 -2.54,5.64 -5.64,5.64l-20.05 0c-0.89,0 -1.62,-0.73 -1.62,-1.62l0 -8.05c0,-0.89 0.73,-1.62 1.62,-1.62z"/>
     <polygon class="fil1" points="86.93,48.46 114.24,48.46 114.24,59.74 86.93,59.74 "/>
     <polygon class="fil1 str2" points="66.69,105.92 76.06,105.92 76.06,126.05 71.37,126.05 66.69,126.05 "/>
     <path class="fil1" d="M159.03 62.87c14.66,0 26.55,11.88 26.55,26.55 0,14.66 -11.88,26.55 -26.55,26.55 -14.66,0 -26.55,-11.88 -26.55,-26.55 0,-14.66 11.88,-26.55 26.55,-26.55z"/>
    </g>
    <path class="fil3" d="M75.82 176.26c2.6,0.42 4.63,1.38 6.07,2.88 1.45,1.48 2.17,3.31 2.17,5.46 0,3.4 -1.44,6.23 -4.32,8.5 -2.87,2.26 -6.66,3.39 -11.34,3.39 -2.8,0 -5.21,-0.6 -7.23,-1.81 -2.02,-1.21 -3.04,-2.55 -3.04,-4.01 0,-1.22 0.7,-1.81 2.09,-1.81 0.19,0 0.5,0.16 0.93,0.51 2.21,1.91 4.84,2.87 7.88,2.87 2.68,0 4.99,-0.7 6.91,-2.11 1.94,-1.41 2.89,-3.25 2.89,-5.49 0,-1.49 -0.54,-2.73 -1.64,-3.73 -1.1,-1 -2.37,-1.49 -3.82,-1.49 -1.1,0 -3.05,0.43 -5.82,1.3 -0.55,0.17 -1.13,0.27 -1.75,0.27 -1.21,0 -1.81,-0.81 -1.81,-2.44 0,-0.57 0.29,-1.02 0.86,-1.36 0.58,-0.34 1.81,-0.73 3.69,-1.18 5.74,-1.31 8.6,-3.63 8.6,-6.97 0,-1.01 -0.35,-1.84 -1.07,-2.5 -0.71,-0.65 -1.63,-0.98 -2.76,-0.98 -2.09,0 -4.33,0.93 -6.69,2.78 -1.39,1.08 -2.45,1.63 -3.17,1.63 -1.23,0 -1.85,-0.58 -1.85,-1.72 0,-1.52 1.43,-3.05 4.28,-4.64 2.84,-1.58 5.57,-2.37 8.19,-2.37 2.62,0 4.68,0.7 6.18,2.08 1.5,1.39 2.25,2.85 2.25,4.38 0,3.65 -2.23,6.5 -6.68,8.57zm35.32 7.58c-2.81,3.78 -5.61,6.61 -8.36,8.51 -2.76,1.88 -5.28,2.83 -7.58,2.83 -1.55,0 -2.89,-0.65 -4.01,-1.96 -1.13,-1.31 -1.69,-2.99 -1.69,-5.05 0,-5.29 2.36,-10.98 7.09,-17.09 4.73,-6.11 9.43,-9.16 14.09,-9.16 1.69,0 2.95,0.96 3.78,2.9 0.26,0.64 0.67,0.97 1.24,0.97 1.61,0 2.41,0.62 2.41,1.87 0,0.63 -0.1,1.48 -0.3,2.56 -1.09,5.93 -1.63,10.13 -1.63,12.56 0,4.88 0.92,7.79 2.77,8.76 0.88,0.48 1.33,1.07 1.33,1.77 0,0.63 -0.43,1.26 -1.3,1.9 -0.86,0.63 -1.7,0.95 -2.5,0.95 -1.56,0 -2.83,-1.07 -3.83,-3.2 -1.01,-2.13 -1.51,-5.17 -1.51,-9.11zm-1.84 -17c-2.66,0 -5.75,2.5 -9.27,7.47 -3.52,4.99 -5.29,9.12 -5.29,12.4 0,2.31 0.77,3.47 2.3,3.47 2.22,0 5.29,-2.24 9.21,-6.71 3.92,-4.46 5.88,-8.57 5.88,-12.31 0,-2.87 -0.95,-4.32 -2.83,-4.32zm40.56 4.11c-1.87,0.04 -5.88,5.59 -12.01,16.63 -2.08,3.72 -3.29,5.75 -3.63,6.08 -0.34,0.33 -0.97,0.63 -1.88,0.89 -0.92,0.26 -1.68,0.39 -2.28,0.39 -1.35,0 -2.03,-2.63 -2.03,-7.88 0,-2.96 0.64,-8.31 1.9,-16.06 0.53,-3.13 0.79,-5.38 0.79,-6.73 0,-1.33 0.6,-1.99 1.78,-1.99 2.24,0 3.35,1.61 3.35,4.82 0,1.52 -0.37,4.47 -1.11,8.88 -0.87,5.03 -1.31,8.09 -1.33,9.17 1.25,-1.2 3.08,-3.85 5.49,-7.93 3.42,-5.59 5.94,-9.13 7.56,-10.64 1.62,-1.49 3.3,-2.25 5.03,-2.25 1.31,0 2.35,0.87 3.12,2.63 0.77,1.75 1.25,5.92 1.4,12.53 0.04,1.65 0.2,2.87 0.45,3.68 0.27,0.8 0.45,1.21 0.58,1.21 0.95,0 3,-3.21 6.16,-9.65 1.69,-3.4 3.33,-5.99 4.94,-7.76 1.6,-1.77 3.37,-2.66 5.33,-2.66 1.63,0 2.81,0.85 3.55,2.52 0.75,1.68 1.28,4.16 1.61,7.47 0.3,3.34 0.76,6.4 1.4,9.17 0.63,2.78 1.79,4.56 3.48,5.35 1.15,0.55 1.72,1.18 1.72,1.91 0,0.7 -0.48,1.42 -1.44,2.16 -0.97,0.75 -1.85,1.12 -2.66,1.12 -1.62,0 -3.05,-0.99 -4.31,-2.96 -1.27,-1.98 -2.23,-6.24 -2.87,-12.8 -0.29,-2.64 -0.56,-4.51 -0.83,-5.61 -0.26,-1.12 -0.67,-1.67 -1.24,-1.67 -0.84,0 -1.85,0.81 -3,2.42 -1.16,1.61 -3.03,4.88 -5.6,9.81 -2.01,3.84 -3.54,6.41 -4.57,7.69 -1.03,1.28 -2.03,1.91 -3,1.91 -0.87,0 -1.64,-0.35 -2.33,-1.04 -0.68,-0.7 -1.11,-1.54 -1.3,-2.52 -0.18,-0.97 -0.37,-3.37 -0.57,-7.19 -0.31,-6.36 -0.86,-10.07 -1.66,-11.11z"/>
   </g>
   <line class="fil0 str1" x1="33.19" y1="217.37" x2="210.18" y2= "217.37" />
  </g>
 </g>
</svg>
