<?xml version="1.0" encoding="UTF-8"?>
<!DOCTYPE svg PUBLIC "-//W3C//DTD SVG 1.1//EN" "http://www.w3.org/Graphics/SVG/1.1/DTD/svg11.dtd">
<!-- Creator: CorelDRAW 2020 -->
<svg xmlns="http://www.w3.org/2000/svg" xml:space="preserve" width="11mm" height="10mm" version="1.1" style="shape-rendering:geometricPrecision; text-rendering:geometricPrecision; image-rendering:optimizeQuality; fill-rule:evenodd; clip-rule:evenodd"
viewBox="0 0 243.36 221.24"
 xmlns:xlink="http://www.w3.org/1999/xlink"
 xmlns:xodm="http://www.corel.com/coreldraw/odm/2003">
 <defs>
  <style type="text/css">
   <![CDATA[
    .str0 {stroke:#56698F;stroke-width:11.06;stroke-miterlimit:22.9256}
    .str1 {stroke:#56698F;stroke-width:4.42;stroke-miterlimit:22.9256}
    .fil0 {fill:none}
    .fil1 {fill:#56698F}
    .fil2 {fill:#56698F;fill-rule:nonzero}
   ]]>
  </style>
 </defs>
 <g id="Layer_x0020_1">
  <metadata id="CorelCorpID_0Corel-Layer"/>
  <g id="_1033940344">
   <polygon class="fil0" points="-0,0 243.36,0 243.36,221.24 -0,221.24 "/>
   <g>
    <g>
     <polyline class="fil0 str0" points="110.66,66.1 127.35,128.43 179.8,132.94 "/>
     <path class="fil1 str1" d="M127.35 124.44c-2.2,0 -3.98,1.78 -3.98,3.98 0,2.2 1.78,3.98 3.98,3.98 2.2,0 3.98,-1.78 3.98,-3.98 0,-2.2 -1.78,-3.98 -3.98,-3.98z"/>
     <path class="fil1 str1" d="M73.44 18.71l-2.17 0c-7.42,0 -13.49,6.07 -13.49,13.49l0 70.66c0,1.68 1.37,3.05 3.05,3.05l23.06 0c1.68,0 3.05,-1.37 3.05,-3.05l0 -70.66c0,-7.42 -6.07,-13.49 -13.5,-13.49z"/>
     <path class="fil1 str1" d="M75.01 105.92l-7.27 0c-0.58,0 -1.05,0.47 -1.05,1.05l0 18.03c0,0.58 0.47,1.05 1.05,1.05l7.27 0c0.58,0 1.05,-0.47 1.05,-1.05l0 -18.03c0,-0.58 -0.47,-1.05 -1.05,-1.05z"/>
     <line class="fil0 str1" x1="71.37" y1="126.05" x2="71.37" y2= "136.83" />
     <path class="fil1 str1" d="M88.55 48.45l20.05 0c3.1,0 5.64,2.54 5.64,5.64l0 0c0,3.1 -2.54,5.64 -5.64,5.64l-20.05 0c-0.89,0 -1.62,-0.73 -1.62,-1.62l0 -8.05c0,-0.89 0.73,-1.62 1.62,-1.62z"/>
     <polygon class="fil1" points="86.93,48.46 114.24,48.46 114.24,59.74 86.93,59.74 "/>
     <polygon class="fil1" points="66.69,105.92 76.06,105.92 76.06,126.05 71.37,126.05 66.69,126.05 "/>
     <path class="fil1" d="M159.03 62.87c14.66,0 26.55,11.88 26.55,26.55 0,14.66 -11.88,26.55 -26.55,26.55 -14.66,0 -26.55,-11.88 -26.55,-26.55 0,-14.66 11.88,-26.55 26.55,-26.55z"/>
    </g>
    <path class="fil2" d="M79.99 176.5c2.36,0.38 4.21,1.25 5.52,2.61 1.32,1.35 1.98,3.01 1.98,4.96 0,3.09 -1.31,5.67 -3.92,7.73 -2.61,2.05 -6.05,3.08 -10.31,3.08 -2.55,0 -4.74,-0.54 -6.58,-1.65 -1.83,-1.1 -2.76,-2.31 -2.76,-3.64 0,-1.11 0.64,-1.65 1.9,-1.65 0.18,0 0.46,0.15 0.84,0.47 2.01,1.73 4.4,2.6 7.16,2.6 2.44,0 4.53,-0.64 6.29,-1.92 1.76,-1.28 2.63,-2.95 2.63,-4.99 0,-1.36 -0.5,-2.48 -1.49,-3.39 -1,-0.91 -2.15,-1.36 -3.47,-1.36 -1,0 -2.77,0.39 -5.29,1.18 -0.5,0.16 -1.03,0.24 -1.59,0.24 -1.1,0 -1.65,-0.74 -1.65,-2.22 0,-0.52 0.26,-0.93 0.78,-1.24 0.52,-0.31 1.65,-0.66 3.36,-1.07 5.22,-1.19 7.82,-3.31 7.82,-6.34 0,-0.92 -0.32,-1.67 -0.97,-2.27 -0.65,-0.59 -1.48,-0.89 -2.51,-0.89 -1.9,0 -3.93,0.84 -6.09,2.53 -1.27,0.98 -2.23,1.48 -2.88,1.48 -1.12,0 -1.68,-0.52 -1.68,-1.56 0,-1.38 1.3,-2.77 3.89,-4.21 2.58,-1.43 5.07,-2.15 7.44,-2.15 2.38,0 4.25,0.64 5.62,1.89 1.36,1.27 2.04,2.6 2.04,3.98 0,3.32 -2.02,5.91 -6.07,7.79zm32.11 6.89c-2.56,3.44 -5.1,6.01 -7.6,7.74 -2.51,1.71 -4.8,2.58 -6.89,2.58 -1.4,0 -2.62,-0.59 -3.64,-1.78 -1.03,-1.19 -1.54,-2.72 -1.54,-4.59 0,-4.81 2.14,-9.98 6.44,-15.54 4.3,-5.55 8.57,-8.33 12.81,-8.33 1.54,0 2.68,0.87 3.44,2.63 0.23,0.58 0.61,0.88 1.12,0.88 1.46,0 2.19,0.56 2.19,1.7 0,0.57 -0.1,1.35 -0.27,2.33 -0.99,5.39 -1.48,9.21 -1.48,11.42 0,4.43 0.83,7.08 2.52,7.96 0.81,0.44 1.21,0.97 1.21,1.61 0,0.57 -0.39,1.14 -1.18,1.72 -0.79,0.57 -1.54,0.86 -2.27,0.86 -1.42,0 -2.58,-0.97 -3.48,-2.91 -0.92,-1.94 -1.38,-4.7 -1.38,-8.28zm-1.67 -15.45c-2.42,0 -5.23,2.27 -8.43,6.79 -3.2,4.53 -4.81,8.29 -4.81,11.27 0,2.1 0.7,3.16 2.09,3.16 2.02,0 4.81,-2.03 8.37,-6.1 3.57,-4.06 5.35,-7.79 5.35,-11.19 0,-2.61 -0.86,-3.92 -2.58,-3.92zm36.87 3.74c-1.7,0.04 -5.35,5.08 -10.92,15.12 -1.89,3.38 -2.99,5.23 -3.3,5.53 -0.31,0.3 -0.88,0.57 -1.71,0.81 -0.83,0.23 -1.53,0.36 -2.07,0.36 -1.23,0 -1.85,-2.39 -1.85,-7.17 0,-2.69 0.58,-7.56 1.73,-14.6 0.48,-2.85 0.71,-4.89 0.71,-6.12 0,-1.21 0.54,-1.81 1.62,-1.81 2.03,0 3.04,1.46 3.04,4.38 0,1.38 -0.34,4.07 -1.01,8.07 -0.79,4.57 -1.19,7.35 -1.21,8.34 1.13,-1.1 2.8,-3.5 4.99,-7.21 3.11,-5.08 5.4,-8.31 6.87,-9.67 1.47,-1.36 3,-2.04 4.57,-2.04 1.19,0 2.13,0.79 2.84,2.39 0.7,1.59 1.13,5.38 1.27,11.39 0.04,1.5 0.18,2.61 0.41,3.34 0.24,0.73 0.41,1.1 0.52,1.1 0.86,0 2.73,-2.92 5.6,-8.77 1.54,-3.09 3.03,-5.44 4.49,-7.05 1.45,-1.61 3.06,-2.42 4.84,-2.42 1.48,0 2.56,0.77 3.23,2.29 0.68,1.53 1.16,3.78 1.46,6.79 0.27,3.04 0.69,5.82 1.27,8.34 0.57,2.53 1.63,4.15 3.17,4.86 1.05,0.5 1.56,1.07 1.56,1.73 0,0.64 -0.44,1.29 -1.31,1.97 -0.88,0.68 -1.69,1.02 -2.42,1.02 -1.47,0 -2.77,-0.9 -3.92,-2.69 -1.15,-1.8 -2.02,-5.68 -2.6,-11.63 -0.26,-2.4 -0.51,-4.1 -0.75,-5.1 -0.23,-1.01 -0.61,-1.52 -1.12,-1.52 -0.77,0 -1.68,0.74 -2.73,2.2 -1.06,1.46 -2.75,4.44 -5.1,8.92 -1.83,3.49 -3.21,5.83 -4.16,6.99 -0.94,1.16 -1.85,1.74 -2.73,1.74 -0.79,0 -1.49,-0.32 -2.12,-0.94 -0.62,-0.64 -1.01,-1.4 -1.18,-2.29 -0.16,-0.88 -0.34,-3.06 -0.52,-6.54 -0.28,-5.78 -0.78,-9.15 -1.51,-10.1z"/>
   </g>
  </g>
 </g>
</svg>
