<?xml version="1.0" encoding="UTF-8"?>
<!DOCTYPE svg PUBLIC "-//W3C//DTD SVG 1.1//EN" "http://www.w3.org/Graphics/SVG/1.1/DTD/svg11.dtd">
<!-- Creator: CorelDRAW 2020 -->
<svg xmlns="http://www.w3.org/2000/svg" xml:space="preserve" width="12.1145mm" height="9.5171mm" version="1.1" style="shape-rendering:geometricPrecision; text-rendering:geometricPrecision; image-rendering:optimizeQuality; fill-rule:evenodd; clip-rule:evenodd"
viewBox="0 0 169.74 133.34"
 xmlns:xlink="http://www.w3.org/1999/xlink"
 xmlns:xodm="http://www.corel.com/coreldraw/odm/2003">
 <defs>
  <style type="text/css">
   <![CDATA[
    .str0 {stroke:#C6B93A;stroke-width:7.01;stroke-miterlimit:22.9256}
    .str1 {stroke:#C6B93A;stroke-width:2.8;stroke-miterlimit:22.9256}
    .fil0 {fill:none}
    .fil2 {fill:#52658C}
    .fil1 {fill:#C6B93A}
    .fil3 {fill:#C6B93A;fill-rule:nonzero}
   ]]>
  </style>
 </defs>
 <g id="Layer_x0020_1">
  <metadata id="CorelCorpID_0Corel-Layer"/>
  <line class="fil0 str0" x1="40.26" y1="79.31" x2="134.18" y2= "79.31" />
  <polyline class="fil0 str0" points="79.88,31.41 90.45,70.88 123.66,73.74 "/>
  <circle class="fil1 str1" cx="90.45" cy="70.88" r="2.52"/>
  <path class="fil1 str1" d="M56.31 1.4l-1.38 0c-4.7,0 -8.54,3.84 -8.54,8.55l0 44.75c0,1.06 0.87,1.93 1.93,1.93l14.6 0c1.06,0 1.93,-0.87 1.93,-1.93l0 -44.75c0,-4.7 -3.84,-8.55 -8.55,-8.55z"/>
  <rect class="fil2 str1" x="52.03" y="56.63" width="5.94" height="12.75" rx="0.67" ry="0.74"/>
  <line class="fil0 str1" x1="54.99" y1="69.38" x2="54.99" y2= "76.2" />
  <path class="fil2 str1" d="M65.88 20.23l12.7 0c1.97,0 3.57,1.61 3.57,3.57l0 0c0,1.97 -1.61,3.57 -3.57,3.57l-12.7 0c-0.56,0 -1.02,-0.46 -1.02,-1.02l0 -5.1c0,-0.56 0.46,-1.02 1.02,-1.02z"/>
  <polygon class="fil1" points="64.85,20.24 82.15,20.24 82.15,27.38 64.85,27.38 "/>
  <polygon class="fil1" points="52.03,56.63 57.96,56.63 57.96,69.38 55,69.38 52.03,69.38 "/>
  <path class="fil3" d="M11.32 108.01c1.66,0.27 2.96,0.88 3.88,1.84 0.93,0.95 1.39,2.12 1.39,3.49 0,2.17 -0.92,3.99 -2.76,5.44 -1.84,1.44 -4.26,2.17 -7.26,2.17 -1.79,0 -3.33,-0.38 -4.63,-1.16 -1.29,-0.77 -1.94,-1.63 -1.94,-2.56 0,-0.78 0.45,-1.16 1.34,-1.16 0.12,0 0.32,0.11 0.59,0.33 1.42,1.22 3.1,1.83 5.04,1.83 1.71,0 3.19,-0.45 4.42,-1.35 1.24,-0.9 1.85,-2.08 1.85,-3.51 0,-0.96 -0.35,-1.75 -1.05,-2.38 -0.7,-0.64 -1.51,-0.96 -2.44,-0.96 -0.7,0 -1.95,0.28 -3.72,0.83 -0.35,0.11 -0.73,0.17 -1.12,0.17 -0.78,0 -1.16,-0.52 -1.16,-1.56 0,-0.36 0.18,-0.65 0.55,-0.87 0.37,-0.22 1.16,-0.47 2.37,-0.75 3.67,-0.84 5.5,-2.33 5.5,-4.46 0,-0.65 -0.22,-1.17 -0.69,-1.59 -0.46,-0.41 -1.04,-0.63 -1.77,-0.63 -1.34,0 -2.77,0.59 -4.28,1.78 -0.89,0.69 -1.57,1.04 -2.03,1.04 -0.78,0 -1.18,-0.37 -1.18,-1.1 0,-0.97 0.92,-1.95 2.73,-2.97 1.82,-1.01 3.57,-1.52 5.24,-1.52 1.67,0 2.99,0.45 3.96,1.33 0.96,0.89 1.44,1.83 1.44,2.8 0,2.33 -1.42,4.16 -4.27,5.48zm22.59 4.85c-1.8,2.42 -3.58,4.23 -5.34,5.44 -1.77,1.21 -3.38,1.81 -4.85,1.81 -0.99,0 -1.85,-0.42 -2.56,-1.25 -0.72,-0.84 -1.08,-1.91 -1.08,-3.23 0,-3.38 1.51,-7.03 4.53,-10.93 3.02,-3.91 6.03,-5.86 9.02,-5.86 1.08,0 1.88,0.61 2.42,1.85 0.16,0.41 0.43,0.62 0.79,0.62 1.03,0 1.54,0.4 1.54,1.19 0,0.4 -0.07,0.95 -0.19,1.64 -0.7,3.8 -1.04,6.48 -1.04,8.03 0,3.12 0.59,4.98 1.77,5.6 0.57,0.31 0.85,0.69 0.85,1.13 0,0.4 -0.28,0.8 -0.83,1.21 -0.55,0.4 -1.09,0.61 -1.6,0.61 -1,0 -1.81,-0.69 -2.45,-2.05 -0.65,-1.36 -0.97,-3.31 -0.97,-5.83zm-1.17 -10.87c-1.7,0 -3.68,1.59 -5.93,4.78 -2.25,3.19 -3.38,5.83 -3.38,7.93 0,1.48 0.49,2.22 1.47,2.22 1.42,0 3.38,-1.43 5.89,-4.29 2.51,-2.85 3.76,-5.48 3.76,-7.88 0,-1.84 -0.61,-2.76 -1.81,-2.76zm25.95 2.63c-1.2,0.03 -3.76,3.57 -7.69,10.64 -1.33,2.38 -2.1,3.68 -2.32,3.89 -0.22,0.21 -0.62,0.4 -1.21,0.57 -0.59,0.16 -1.07,0.25 -1.46,0.25 -0.86,0 -1.3,-1.68 -1.3,-5.04 0,-1.89 0.41,-5.32 1.22,-10.27 0.34,-2 0.5,-3.44 0.5,-4.3 0,-0.85 0.38,-1.27 1.14,-1.27 1.43,0 2.14,1.03 2.14,3.08 0,0.97 -0.24,2.86 -0.71,5.68 -0.55,3.22 -0.84,5.17 -0.85,5.87 0.8,-0.77 1.97,-2.46 3.51,-5.07 2.19,-3.58 3.8,-5.85 4.84,-6.81 1.03,-0.96 2.11,-1.44 3.22,-1.44 0.84,0 1.5,0.56 2,1.68 0.49,1.12 0.8,3.79 0.9,8.01 0.03,1.06 0.12,1.84 0.29,2.35 0.17,0.51 0.29,0.77 0.37,0.77 0.61,0 1.92,-2.06 3.94,-6.17 1.08,-2.17 2.13,-3.83 3.16,-4.96 1.02,-1.13 2.15,-1.7 3.41,-1.7 1.04,0 1.8,0.54 2.27,1.61 0.48,1.07 0.82,2.66 1.03,4.78 0.19,2.14 0.49,4.09 0.9,5.87 0.4,1.78 1.15,2.92 2.23,3.42 0.74,0.35 1.1,0.75 1.1,1.22 0,0.45 -0.31,0.91 -0.92,1.38 -0.62,0.48 -1.19,0.72 -1.7,0.72 -1.04,0 -1.95,-0.63 -2.76,-1.89 -0.81,-1.27 -1.42,-3.99 -1.83,-8.18 -0.18,-1.69 -0.36,-2.89 -0.53,-3.59 -0.17,-0.71 -0.43,-1.07 -0.79,-1.07 -0.54,0 -1.18,0.52 -1.92,1.55 -0.75,1.03 -1.94,3.12 -3.59,6.27 -1.28,2.46 -2.26,4.1 -2.93,4.92 -0.66,0.82 -1.3,1.23 -1.92,1.23 -0.55,0 -1.05,-0.22 -1.49,-0.67 -0.44,-0.45 -0.71,-0.98 -0.83,-1.61 -0.11,-0.62 -0.24,-2.15 -0.36,-4.6 -0.2,-4.07 -0.55,-6.44 -1.06,-7.1zm40.64 0c-1.2,0.03 -3.76,3.57 -7.69,10.64 -1.33,2.38 -2.1,3.68 -2.32,3.89 -0.22,0.21 -0.62,0.4 -1.21,0.57 -0.59,0.16 -1.07,0.25 -1.46,0.25 -0.86,0 -1.3,-1.68 -1.3,-5.04 0,-1.89 0.41,-5.32 1.22,-10.27 0.34,-2 0.5,-3.44 0.5,-4.3 0,-0.85 0.38,-1.27 1.14,-1.27 1.43,0 2.14,1.03 2.14,3.08 0,0.97 -0.24,2.86 -0.71,5.68 -0.55,3.22 -0.84,5.17 -0.85,5.87 0.8,-0.77 1.97,-2.46 3.51,-5.07 2.19,-3.58 3.8,-5.85 4.84,-6.81 1.03,-0.96 2.11,-1.44 3.22,-1.44 0.84,0 1.5,0.56 2,1.68 0.49,1.12 0.8,3.79 0.9,8.01 0.03,1.06 0.12,1.84 0.29,2.35 0.17,0.51 0.29,0.77 0.37,0.77 0.61,0 1.92,-2.06 3.94,-6.17 1.08,-2.17 2.13,-3.83 3.16,-4.96 1.02,-1.13 2.15,-1.7 3.41,-1.7 1.04,0 1.8,0.54 2.27,1.61 0.48,1.07 0.82,2.66 1.03,4.78 0.19,2.14 0.49,4.09 0.9,5.87 0.4,1.78 1.15,2.92 2.23,3.42 0.74,0.35 1.1,0.75 1.1,1.22 0,0.45 -0.31,0.91 -0.92,1.38 -0.62,0.48 -1.19,0.72 -1.7,0.72 -1.04,0 -1.95,-0.63 -2.76,-1.89 -0.81,-1.27 -1.42,-3.99 -1.83,-8.18 -0.18,-1.69 -0.36,-2.89 -0.53,-3.59 -0.17,-0.71 -0.43,-1.07 -0.79,-1.07 -0.54,0 -1.18,0.52 -1.92,1.55 -0.75,1.03 -1.94,3.12 -3.59,6.27 -1.28,2.46 -2.26,4.1 -2.93,4.92 -0.66,0.82 -1.3,1.23 -1.92,1.23 -0.55,0 -1.05,-0.22 -1.49,-0.67 -0.44,-0.45 -0.71,-0.98 -0.83,-1.61 -0.11,-0.62 -0.24,-2.15 -0.36,-4.6 -0.2,-4.07 -0.55,-6.44 -1.06,-7.1zm39.07 8.24c-1.8,2.42 -3.58,4.23 -5.34,5.44 -1.77,1.21 -3.38,1.81 -4.85,1.81 -0.99,0 -1.85,-0.42 -2.56,-1.25 -0.72,-0.84 -1.08,-1.91 -1.08,-3.23 0,-3.38 1.51,-7.03 4.53,-10.93 3.02,-3.91 6.03,-5.86 9.02,-5.86 1.08,0 1.88,0.61 2.42,1.85 0.16,0.41 0.43,0.62 0.79,0.62 1.03,0 1.54,0.4 1.54,1.19 0,0.4 -0.07,0.95 -0.19,1.64 -0.7,3.8 -1.04,6.48 -1.04,8.03 0,3.12 0.59,4.98 1.77,5.6 0.57,0.31 0.85,0.69 0.85,1.13 0,0.4 -0.28,0.8 -0.83,1.21 -0.55,0.4 -1.09,0.61 -1.6,0.61 -1,0 -1.81,-0.69 -2.45,-2.05 -0.65,-1.36 -0.97,-3.31 -0.97,-5.83zm-1.17 -10.87c-1.7,0 -3.68,1.59 -5.93,4.78 -2.25,3.19 -3.38,5.83 -3.38,7.93 0,1.48 0.49,2.22 1.47,2.22 1.42,0 3.38,-1.43 5.89,-4.29 2.51,-2.85 3.76,-5.48 3.76,-7.88 0,-1.84 -0.61,-2.76 -1.81,-2.76zm15.09 15.66c-0.63,2.32 -1.22,5.57 -1.77,9.75l-0.54 3.64c-0.09,0.51 -0.33,1.03 -0.72,1.54 -0.38,0.51 -0.74,0.77 -1.06,0.77 -0.4,0 -0.85,-0.2 -1.36,-0.61 -0.51,-0.41 -0.76,-0.73 -0.76,-0.98 0,-0.71 0.16,-1.69 0.48,-2.94 2.35,-9.51 3.53,-17.87 3.53,-25.06l-0.02 -1.62c-0.03,-1.39 0.22,-2.41 0.73,-3.03 0.52,-0.63 1.11,-0.95 1.78,-0.95 0.31,0 0.61,0.24 0.89,0.72 0.28,0.48 0.42,1.17 0.42,2.06 0,1.25 -0.12,2.76 -0.38,4.53 -0.34,2.24 -0.51,3.53 -0.52,3.86 1.92,-3.34 3.95,-5.96 6.09,-7.84 2.15,-1.88 4.15,-2.82 5.99,-2.82 1.3,0 2.39,0.49 3.29,1.46 0.9,0.98 1.35,2.18 1.35,3.62 0,4.19 -1.61,8.01 -4.83,11.43 -3.22,3.43 -6.35,5.13 -9.4,5.13 -0.77,0 -1.36,-0.19 -1.81,-0.57 -0.45,-0.39 -0.91,-1.09 -1.38,-2.11zm11.99 -15.54c-1.81,0 -4.06,1.7 -6.74,5.09 -2.68,3.4 -4.01,6.04 -4.01,7.94 0,0.47 0.26,0.91 0.79,1.35 0.53,0.44 1.19,0.66 2,0.66 1.85,0 3.96,-1.36 6.35,-4.09 2.4,-2.72 3.59,-5.39 3.59,-8.02 0,-0.94 -0.19,-1.66 -0.57,-2.18 -0.38,-0.51 -0.86,-0.76 -1.42,-0.76z"/>
  <circle class="fil1" cx="110.51" cy="46.18" r="16.81"/>
 </g>
</svg>
