<?xml version="1.0" encoding="UTF-8" standalone="no"?>
<svg
   xmlns:dc="http://purl.org/dc/elements/1.1/"
   xmlns:cc="http://creativecommons.org/ns#"
   xmlns:rdf="http://www.w3.org/1999/02/22-rdf-syntax-ns#"
   xmlns:svg="http://www.w3.org/2000/svg"
   xmlns="http://www.w3.org/2000/svg"
   id="svg8"
   version="1.1"
   viewBox="0 0 20.000001 1.6"
   height="1.6mm"
   width="20mm">
  <defs
     id="defs2" />
  <metadata
     id="metadata5">
    <rdf:RDF>
      <cc:Work
         rdf:about="">
        <dc:format>image/svg+xml</dc:format>
        <dc:type
           rdf:resource="http://purl.org/dc/dcmitype/StillImage" />
        <dc:title></dc:title>
      </cc:Work>
    </rdf:RDF>
  </metadata>
  <g
     transform="translate(0,-295.39999)"
     id="layer1">
    <g
       id="g62">
      <g
         id="g129">
        <g
           aria-label="адамдар"
           style="font-style:normal;font-weight:normal;font-size:3.17499995px;line-height:1.25;font-family:sans-serif;letter-spacing:0px;word-spacing:0px;fill:#000000;fill-opacity:1;stroke:none;stroke-width:0.26458332"
           id="text85">
          <path
             d="m 0.81727357,296.20824 q -0.15365126,0 -0.2129069,0.0351 -0.0592556,0.0351 -0.0592556,0.11989 0,0.0675 0.0440972,0.10749 0.0447862,0.0393 0.12126736,0.0393 0.10541992,0 0.16880968,-0.0744 0.0640788,-0.0751 0.0640788,-0.19913 v -0.0283 z m 0.25287003,-0.0524 v 0.44028 H 0.94336407 v -0.11713 q -0.0434082,0.0703 -0.108176,0.10404 -0.0647678,0.0331 -0.1584744,0.0331 -0.11851128,0 -0.18879123,-0.0661 -0.0695909,-0.0668 -0.0695909,-0.17846 0,-0.13022 0.0868164,-0.19637 0.0875054,-0.0661 0.26044922,-0.0661 h 0.17776693 v -0.0124 q 0,-0.0875 -0.0578776,-0.13505 -0.0571886,-0.0482 -0.16123047,-0.0482 -0.0661458,0 -0.12884657,0.0159 -0.0627007,0.0159 -0.12057834,0.0475 v -0.11713 q 0.0695909,-0.0269 0.13504774,-0.04 0.0654568,-0.0138 0.12746854,-0.0138 0.16743164,0 0.25011393,0.0868 0.0826823,0.0868 0.0826823,0.26321 z"
             style="font-size:1.41111112px;fill:#504416;stroke-width:0.26458332"
             id="path106" />
          <path
             d="m 1.5035366,296.49488 h 0.3679362 v -0.56913 H 1.6048224 v 0.0965 q 0,0.28387 -0.081304,0.43546 z m -0.1839681,0 q 0.062701,-0.0276 0.090261,-0.0861 0.067524,-0.14539 0.067524,-0.43822 v -0.14607 h 0.5215874 v 0.67042 h 0.1012858 v 0.29627 H 1.9989413 v -0.19499 H 1.373312 v 0.19499 H 1.2720262 v -0.29627 z"
             style="font-size:1.41111112px;fill:#504416;stroke-width:0.26458332"
             id="path108" />
          <path
             d="m 2.6576435,296.20824 q -0.1536512,0 -0.2129069,0.0351 -0.059256,0.0351 -0.059256,0.11989 0,0.0675 0.044097,0.10749 0.044786,0.0393 0.1212674,0.0393 0.1054199,0 0.1688096,-0.0744 0.064079,-0.0751 0.064079,-0.19913 v -0.0283 z m 0.25287,-0.0524 v 0.44028 H 2.783734 v -0.11713 q -0.043408,0.0703 -0.108176,0.10404 -0.064768,0.0331 -0.1584744,0.0331 -0.1185113,0 -0.1887912,-0.0661 -0.069591,-0.0668 -0.069591,-0.17846 0,-0.13022 0.086816,-0.19637 0.087505,-0.0661 0.2604492,-0.0661 H 2.783734 v -0.0124 q 0,-0.0875 -0.057878,-0.13505 -0.057189,-0.0482 -0.1612305,-0.0482 -0.066146,0 -0.1288465,0.0159 -0.062701,0.0159 -0.1205784,0.0475 v -0.11713 q 0.069591,-0.0269 0.1350478,-0.04 0.065457,-0.0138 0.1274685,-0.0138 0.1674316,0 0.2501139,0.0868 0.082682,0.0868 0.082682,0.26321 z"
             style="font-size:1.41111112px;fill:#504416;stroke-width:0.26458332"
             id="path110" />
          <path
             d="m 3.1668288,295.82446 h 0.1853461 l 0.2191081,0.51676 0.2197971,-0.51676 h 0.1839681 v 0.7717 H 3.8475797 v -0.65043 l -0.2129069,0.50229 H 3.5078933 l -0.213596,-0.50229 v 0.65043 H 3.1668288 Z"
             style="font-size:1.41111112px;fill:#504416;stroke-width:0.26458332"
             id="path112" />
          <path
             d="m 4.4084411,296.49488 h 0.3679362 v -0.56913 H 4.5097269 v 0.0965 q 0,0.28387 -0.081304,0.43546 z m -0.1839681,0 q 0.062701,-0.0276 0.090262,-0.0861 0.067524,-0.14539 0.067524,-0.43822 v -0.14607 h 0.5215875 v 0.67042 h 0.1012858 v 0.29627 H 4.9038459 v -0.19499 H 4.2782165 v 0.19499 H 4.1769307 v -0.29627 z"
             style="font-size:1.41111112px;fill:#504416;stroke-width:0.26458332"
             id="path114" />
          <path
             d="m 5.5625481,296.20824 q -0.1536512,0 -0.2129069,0.0351 -0.059256,0.0351 -0.059256,0.11989 0,0.0675 0.044097,0.10749 0.044786,0.0393 0.1212674,0.0393 0.1054199,0 0.1688096,-0.0744 0.064079,-0.0751 0.064079,-0.19913 v -0.0283 z m 0.25287,-0.0524 v 0.44028 H 5.6886386 v -0.11713 q -0.043408,0.0703 -0.108176,0.10404 -0.064768,0.0331 -0.1584744,0.0331 -0.1185113,0 -0.1887912,-0.0661 -0.069591,-0.0668 -0.069591,-0.17846 0,-0.13022 0.086816,-0.19637 0.087505,-0.0661 0.2604492,-0.0661 h 0.1777669 v -0.0124 q 0,-0.0875 -0.057878,-0.13505 -0.057189,-0.0482 -0.1612305,-0.0482 -0.066146,0 -0.1288465,0.0159 -0.062701,0.0159 -0.1205784,0.0475 v -0.11713 q 0.069591,-0.0269 0.1350478,-0.04 0.065457,-0.0138 0.1274685,-0.0138 0.1674316,0 0.2501139,0.0868 0.082682,0.0868 0.082682,0.26321 z"
             style="font-size:1.41111112px;fill:#504416;stroke-width:0.26458332"
             id="path116" />
          <path
             d="m 6.1992017,296.48041 v 0.40927 H 6.0717332 v -1.06522 h 0.1274685 v 0.11713 q 0.039963,-0.0689 0.1005968,-0.10197 0.061323,-0.0338 0.146072,-0.0338 0.1405599,0 0.2280654,0.11162 0.088194,0.11162 0.088194,0.29352 0,0.1819 -0.088194,0.29352 -0.087505,0.11162 -0.2280654,0.11162 -0.084749,0 -0.146072,-0.0331 -0.060634,-0.0338 -0.1005968,-0.10266 z m 0.431326,-0.26941 q 0,-0.13987 -0.057878,-0.21911 -0.057189,-0.0799 -0.1577854,-0.0799 -0.1005968,0 -0.1584744,0.0799 -0.057189,0.0792 -0.057189,0.21911 0,0.13987 0.057189,0.2198 0.057878,0.0792 0.1584744,0.0792 0.1005968,0 0.1577854,-0.0792 0.057878,-0.0799 0.057878,-0.2198 z"
             style="font-size:1.41111112px;fill:#504416;stroke-width:0.26458332"
             id="path118" />
        </g>
      </g>
    </g>
  </g>
</svg>
