<?xml version="1.0" encoding="UTF-8" standalone="no"?>
<svg
   xmlns:dc="http://purl.org/dc/elements/1.1/"
   xmlns:cc="http://creativecommons.org/ns#"
   xmlns:rdf="http://www.w3.org/1999/02/22-rdf-syntax-ns#"
   xmlns:svg="http://www.w3.org/2000/svg"
   xmlns="http://www.w3.org/2000/svg"
   id="svg8"
   version="1.1"
   viewBox="0 0 600.00003 40.599998"
   height="40.599998mm"
   width="600mm">
  <defs
     id="defs2" />
  <metadata
     id="metadata5">
    <rdf:RDF>
      <cc:Work
         rdf:about="">
        <dc:format>image/svg+xml</dc:format>
        <dc:type
           rdf:resource="http://purl.org/dc/dcmitype/StillImage" />
        <dc:title></dc:title>
      </cc:Work>
    </rdf:RDF>
  </metadata>
  <g
     transform="translate(0,-256.39999)"
     id="layer1">
    <g
       id="g62">
      <g
         id="text376"
         style="font-style:normal;font-variant:normal;font-weight:normal;font-stretch:normal;font-size:19.7555542px;line-height:1.25;font-family:Ubuntu;-inkscape-font-specification:Ubuntu;letter-spacing:0px;word-spacing:0px;fill:#000000;fill-opacity:1;stroke:none;stroke-width:0.26458332"
         aria-label="адамдар">
        <path
           id="path424"
           style="font-size:31.75px;fill:#aa8800;stroke-width:0.26458332"
           d="m 18.343102,282.95512 q 1.04775,0 1.8415,-0.0318 0.8255,-0.0635 1.36525,-0.1905 v -4.92125 q -0.3175,-0.15875 -1.04775,-0.254 -0.6985,-0.127 -1.7145,-0.127 -0.66675,0 -1.42875,0.0953 -0.73025,0.0953 -1.36525,0.41275 -0.60325,0.28575 -1.016,0.8255 -0.41275,0.508 -0.41275,1.36525 0,1.5875 1.016,2.2225 1.016,0.60325 2.76225,0.60325 z m -0.254,-14.7955 q 1.778,0 2.9845,0.47625 1.23825,0.4445 1.9685,1.30175 0.762,0.8255 1.0795,2.00025 0.3175,1.143 0.3175,2.54 v 10.31875 q -0.381,0.0635 -1.0795,0.1905 -0.66675,0.0953 -1.524,0.1905 -0.85725,0.0953 -1.87325,0.15875 -0.98425,0.0953 -1.9685,0.0953 -1.397,0 -2.57175,-0.28575 -1.17475,-0.28575 -2.032,-0.889 -0.85725,-0.635 -1.3335,-1.651 -0.47625,-1.016 -0.47625,-2.44475 0,-1.36525 0.53975,-2.3495 0.5715,-0.98425 1.524,-1.5875 0.9525,-0.60325 2.2225,-0.889 1.27,-0.28575 2.667,-0.28575 0.4445,0 0.92075,0.0635 0.47625,0.0317 0.889,0.127 0.4445,0.0635 0.762,0.127 0.3175,0.0635 0.4445,0.0953 v -0.8255 q 0,-0.73025 -0.15875,-1.42875 -0.15875,-0.73025 -0.5715,-1.27 -0.41275,-0.5715 -1.143,-0.889 -0.6985,-0.34925 -1.8415,-0.34925 -1.4605,0 -2.57175,0.22225 -1.0795,0.1905 -1.61925,0.41275 l -0.34925,-2.44475 q 0.5715,-0.254 1.905,-0.47625 1.3335,-0.254 2.88925,-0.254 z" />
        <path
           id="path426"
           style="font-size:31.75px;fill:#aa8800;stroke-width:0.26458332"
           d="m 27.296581,282.66937 h 1.778 q 1.04775,-1.524 1.651,-3.14325 0.635,-1.61925 0.9525,-3.33375 0.3175,-1.74625 0.41275,-3.6195 0.09525,-1.905 0.127,-4.0005 h 10.82675 v 14.097 h 2.2225 v 7.01675 h -2.794 v -4.60375 h -12.3825 v 4.60375 h -2.794 z m 12.79525,0 v -11.6205 h -5.17525 q -0.03175,1.49225 -0.15875,3.01625 -0.127,1.49225 -0.41275,2.9845 -0.28575,1.4605 -0.8255,2.88925 -0.508,1.397 -1.30175,2.7305 z" />
        <path
           id="path428"
           style="font-size:31.75px;fill:#aa8800;stroke-width:0.26458332"
           d="m 54.061791,282.95512 q 1.04775,0 1.8415,-0.0318 0.8255,-0.0635 1.36525,-0.1905 v -4.92125 q -0.3175,-0.15875 -1.04775,-0.254 -0.6985,-0.127 -1.7145,-0.127 -0.66675,0 -1.42875,0.0953 -0.73025,0.0953 -1.36525,0.41275 -0.60325,0.28575 -1.016,0.8255 -0.41275,0.508 -0.41275,1.36525 0,1.5875 1.016,2.2225 1.016,0.60325 2.76225,0.60325 z m -0.254,-14.7955 q 1.778,0 2.9845,0.47625 1.23825,0.4445 1.9685,1.30175 0.762,0.8255 1.0795,2.00025 0.3175,1.143 0.3175,2.54 v 10.31875 q -0.381,0.0635 -1.0795,0.1905 -0.66675,0.0953 -1.524,0.1905 -0.85725,0.0953 -1.87325,0.15875 -0.98425,0.0953 -1.9685,0.0953 -1.397,0 -2.57175,-0.28575 -1.17475,-0.28575 -2.032,-0.889 -0.85725,-0.635 -1.3335,-1.651 -0.47625,-1.016 -0.47625,-2.44475 0,-1.36525 0.53975,-2.3495 0.5715,-0.98425 1.524,-1.5875 0.9525,-0.60325 2.2225,-0.889 1.27,-0.28575 2.667,-0.28575 0.4445,0 0.92075,0.0635 0.47625,0.0317 0.889,0.127 0.4445,0.0635 0.762,0.127 0.3175,0.0635 0.4445,0.0953 v -0.8255 q 0,-0.73025 -0.15875,-1.42875 -0.15875,-0.73025 -0.5715,-1.27 -0.41275,-0.5715 -1.143,-0.889 -0.6985,-0.34925 -1.8415,-0.34925 -1.4605,0 -2.57175,0.22225 -1.0795,0.1905 -1.61925,0.41275 l -0.34925,-2.44475 q 0.5715,-0.254 1.905,-0.47625 1.3335,-0.254 2.88925,-0.254 z" />
        <path
           id="path430"
           style="font-size:31.75px;fill:#aa8800;stroke-width:0.26458332"
           d="m 68.19052,272.92212 q -0.3175,3.14325 -0.47625,6.2865 -0.15875,3.1115 -0.254,5.87375 h -2.82575 q 0.0635,-1.93675 0.1905,-4.03225 0.127,-2.12725 0.28575,-4.2545 0.15875,-2.159 0.34925,-4.22275 0.1905,-2.0955 0.41275,-4.0005 h 2.69875 q 1.016,1.651 2.38125,4.54025 1.36525,2.8575 3.14325,6.604 1.778,-3.7465 3.14325,-6.604 1.36525,-2.88925 2.38125,-4.54025 h 2.7305 q 0.22225,1.905 0.41275,4.0005 0.1905,2.06375 0.34925,4.22275 0.15875,2.12725 0.28575,4.2545 0.127,2.0955 0.1905,4.03225 h -2.921 q -0.09525,-2.76225 -0.254,-5.87375 -0.15875,-3.14325 -0.47625,-6.2865 -0.508,0.98425 -1.17475,2.38125 -0.66675,1.36525 -1.3335,2.794 -0.635,1.42875 -1.2065,2.7305 -0.5715,1.30175 -0.889,2.06375 h -2.4765 q -0.34925,-0.79375 -0.9525,-2.0955 -0.5715,-1.30175 -1.23825,-2.7305 -0.635,-1.4605 -1.30175,-2.82575 -0.66675,-1.397 -1.17475,-2.31775 z" />
        <path
           id="path432"
           style="font-size:31.75px;fill:#aa8800;stroke-width:0.26458332"
           d="m 86.224491,282.66937 h 1.778 q 1.04775,-1.524 1.651,-3.14325 0.635,-1.61925 0.9525,-3.33375 0.3175,-1.74625 0.41275,-3.6195 0.09525,-1.905 0.127,-4.0005 h 10.826749 v 14.097 h 2.2225 v 7.01675 h -2.794 v -4.60375 H 89.018491 v 4.60375 h -2.794 z m 12.79525,0 v -11.6205 h -5.17525 q -0.03175,1.49225 -0.15875,3.01625 -0.127,1.49225 -0.41275,2.9845 -0.28575,1.4605 -0.8255,2.88925 -0.508,1.397 -1.30175,2.7305 z" />
        <path
           id="path434"
           style="font-size:31.75px;fill:#aa8800;stroke-width:0.26458332"
           d="m 112.98969,282.95512 q 1.04775,0 1.8415,-0.0318 0.8255,-0.0635 1.36525,-0.1905 v -4.92125 q -0.3175,-0.15875 -1.04775,-0.254 -0.6985,-0.127 -1.7145,-0.127 -0.66675,0 -1.42875,0.0953 -0.73025,0.0953 -1.36525,0.41275 -0.60325,0.28575 -1.016,0.8255 -0.41275,0.508 -0.41275,1.36525 0,1.5875 1.016,2.2225 1.016,0.60325 2.76225,0.60325 z m -0.254,-14.7955 q 1.778,0 2.9845,0.47625 1.23825,0.4445 1.9685,1.30175 0.762,0.8255 1.0795,2.00025 0.3175,1.143 0.3175,2.54 v 10.31875 q -0.381,0.0635 -1.0795,0.1905 -0.66675,0.0953 -1.524,0.1905 -0.85725,0.0953 -1.87325,0.15875 -0.98425,0.0953 -1.9685,0.0953 -1.397,0 -2.57175,-0.28575 -1.17475,-0.28575 -2.032,-0.889 -0.85725,-0.635 -1.3335,-1.651 -0.47625,-1.016 -0.47625,-2.44475 0,-1.36525 0.53975,-2.3495 0.5715,-0.98425 1.524,-1.5875 0.9525,-0.60325 2.2225,-0.889 1.27,-0.28575 2.667,-0.28575 0.4445,0 0.92075,0.0635 0.47625,0.0317 0.889,0.127 0.4445,0.0635 0.762,0.127 0.3175,0.0635 0.4445,0.0953 v -0.8255 q 0,-0.73025 -0.15875,-1.42875 -0.15875,-0.73025 -0.5715,-1.27 -0.41275,-0.5715 -1.143,-0.889 -0.6985,-0.34925 -1.8415,-0.34925 -1.4605,0 -2.57175,0.22225 -1.0795,0.1905 -1.61925,0.41275 l -0.34925,-2.44475 q 0.5715,-0.254 1.905,-0.47625 1.3335,-0.254 2.88925,-0.254 z" />
        <path
           id="path436"
           style="font-size:31.75px;fill:#aa8800;stroke-width:0.26458332"
           d="m 135.43693,276.85912 q 0,-2.88925 -1.42875,-4.445 -1.42875,-1.55575 -3.81,-1.55575 -1.3335,0 -2.0955,0.0953 -0.73025,0.0953 -1.17475,0.22225 v 10.414 q 0.53975,0.4445 1.55575,0.85725 1.016,0.41275 2.2225,0.41275 1.27,0 2.159,-0.4445 0.92075,-0.47625 1.49225,-1.27 0.5715,-0.8255 0.8255,-1.905 0.254,-1.11125 0.254,-2.38125 z m 3.07975,0 q 0,1.87325 -0.508,3.46075 -0.47625,1.5875 -1.42875,2.7305 -0.9525,1.143 -2.3495,1.778 -1.36525,0.635 -3.14325,0.635 -1.42875,0 -2.54,-0.381 -1.0795,-0.381 -1.61925,-0.73025 v 6.604 h -2.95275 v -21.87575 q 1.04775,-0.254 2.6035,-0.53975 1.5875,-0.3175 3.65125,-0.3175 1.905,0 3.429,0.60325 1.524,0.60325 2.6035,1.7145 1.0795,1.11125 1.651,2.7305 0.60325,1.5875 0.60325,3.58775 z" />
      </g>
    </g>
  </g>
</svg>
