<?xml version="1.0" encoding="UTF-8" standalone="no"?>
<svg
   xmlns:dc="http://purl.org/dc/elements/1.1/"
   xmlns:cc="http://creativecommons.org/ns#"
   xmlns:rdf="http://www.w3.org/1999/02/22-rdf-syntax-ns#"
   xmlns:svg="http://www.w3.org/2000/svg"
   xmlns="http://www.w3.org/2000/svg"
   id="svg8"
   version="1.1"
   viewBox="0 0 600.00003 40.599998"
   height="40.599998mm"
   width="600mm">
  <defs
     id="defs2" />
  <metadata
     id="metadata5">
    <rdf:RDF>
      <cc:Work
         rdf:about="">
        <dc:format>image/svg+xml</dc:format>
        <dc:type
           rdf:resource="http://purl.org/dc/dcmitype/StillImage" />
        <dc:title></dc:title>
      </cc:Work>
    </rdf:RDF>
  </metadata>
  <g
     transform="translate(0,-256.39999)"
     id="layer1">
    <g
       id="g62">
      <g
         id="text274"
         style="font-style:normal;font-variant:normal;font-weight:normal;font-stretch:normal;font-size:42.33333206px;line-height:1.25;font-family:Ubuntu;-inkscape-font-specification:Ubuntu;letter-spacing:0px;word-spacing:0px;fill:#000000;fill-opacity:1;stroke:none;stroke-width:0.26458332"
         aria-label="адамдар">
        <path
           id="path325"
           style="font-size:42.33333206px;fill:#aa8800;stroke-width:0.26458332"
           d="m 17.647404,283.94855 q 1.396999,0 2.455333,-0.0423 1.100666,-0.0847 1.820333,-0.254 v -6.56167 q -0.423333,-0.21167 -1.397,-0.33867 -0.931333,-0.16933 -2.286,-0.16933 -0.889,0 -1.905,0.127 -0.973666,0.127 -1.820333,0.55033 -0.804333,0.381 -1.354667,1.10067 -0.550333,0.67733 -0.550333,1.82033 0,2.11667 1.354667,2.96334 1.354666,0.80433 3.683,0.80433 z m -0.338667,-19.72733 q 2.370666,0 3.979333,0.635 1.651,0.59266 2.624667,1.73566 1.016,1.10067 1.439333,2.667 0.423333,1.524 0.423333,3.38667 v 13.75833 q -0.508,0.0847 -1.439333,0.254 -0.889,0.127 -2.032,0.254 -1.143,0.127 -2.497667,0.21167 -1.312333,0.127 -2.624666,0.127 -1.862667,0 -3.429,-0.381 -1.566333,-0.381 -2.709333,-1.18534 -1.1430002,-0.84666 -1.7780002,-2.20133 -0.635,-1.35466 -0.635,-3.25966 0,-1.82034 0.7196666,-3.13267 0.7619996,-1.31233 2.0319996,-2.11667 1.27,-0.80433 2.963334,-1.18533 1.693333,-0.381 3.556,-0.381 0.592666,0 1.227666,0.0847 0.635,0.0423 1.185333,0.16933 0.592667,0.0847 1.016,0.16933 0.423334,0.0847 0.592667,0.127 v -1.10066 q 0,-0.97367 -0.211667,-1.905 -0.211666,-0.97367 -0.762,-1.69334 -0.550333,-0.762 -1.524,-1.18533 -0.931333,-0.46567 -2.455333,-0.46567 -1.947333,0 -3.429,0.29634 -1.439333,0.254 -2.159,0.55033 l -0.465666,-3.25967 q 0.762,-0.33866 2.54,-0.635 1.778,-0.33866 3.852333,-0.33866 z" />
        <path
           id="path327"
           style="font-size:42.33333206px;fill:#aa8800;stroke-width:0.26458332"
           d="m 29.585377,283.56755 h 2.370666 q 1.397,-2.032 2.201334,-4.191 0.846666,-2.159 1.27,-4.445 0.423333,-2.32833 0.550333,-4.826 0.127,-2.54 0.169333,-5.334 h 14.435666 v 18.796 h 2.963334 v 9.35566 h -3.725334 v -6.13833 H 33.31071 v 6.13833 h -3.725333 z m 17.060333,0 v -15.494 h -6.900334 q -0.04233,1.98967 -0.211666,4.02167 -0.169334,1.98966 -0.550334,3.97933 -0.381,1.94733 -1.100666,3.85233 -0.677334,1.86267 -1.735667,3.64067 z" />
        <path
           id="path329"
           style="font-size:42.33333206px;fill:#aa8800;stroke-width:0.26458332"
           d="m 65.27232,283.94855 q 1.397,0 2.455333,-0.0423 1.100666,-0.0847 1.820333,-0.254 v -6.56167 q -0.423333,-0.21167 -1.397,-0.33867 -0.931333,-0.16933 -2.286,-0.16933 -0.889,0 -1.905,0.127 -0.973666,0.127 -1.820333,0.55033 -0.804333,0.381 -1.354667,1.10067 -0.550333,0.67733 -0.550333,1.82033 0,2.11667 1.354667,2.96334 1.354666,0.80433 3.683,0.80433 z m -0.338667,-19.72733 q 2.370667,0 3.979333,0.635 1.651,0.59266 2.624667,1.73566 1.016,1.10067 1.439333,2.667 0.423333,1.524 0.423333,3.38667 v 13.75833 q -0.508,0.0847 -1.439333,0.254 -0.889,0.127 -2.032,0.254 -1.143,0.127 -2.497666,0.21167 -1.312334,0.127 -2.624667,0.127 -1.862667,0 -3.429,-0.381 -1.566333,-0.381 -2.709333,-1.18534 -1.143,-0.84666 -1.778,-2.20133 -0.635,-1.35466 -0.635,-3.25966 0,-1.82034 0.719667,-3.13267 0.761999,-1.31233 2.031999,-2.11667 1.27,-0.80433 2.963334,-1.18533 1.693333,-0.381 3.556,-0.381 0.592666,0 1.227666,0.0847 0.635,0.0423 1.185334,0.16933 0.592666,0.0847 1.015999,0.16933 0.423334,0.0847 0.592667,0.127 v -1.10066 q 0,-0.97367 -0.211667,-1.905 -0.211666,-0.97367 -0.762,-1.69334 -0.550333,-0.762 -1.523999,-1.18533 -0.931334,-0.46567 -2.455334,-0.46567 -1.947333,0 -3.429,0.29634 -1.439333,0.254 -2.159,0.55033 l -0.465666,-3.25967 q 0.762,-0.33866 2.54,-0.635 1.778,-0.33866 3.852333,-0.33866 z" />
        <path
           id="path331"
           style="font-size:42.33333206px;fill:#aa8800;stroke-width:0.26458332"
           d="m 84.11063,270.57122 q -0.423334,4.191 -0.635,8.382 -0.211667,4.14866 -0.338667,7.83166 h -3.767666 q 0.08467,-2.58233 0.254,-5.37633 0.169333,-2.83633 0.381,-5.67267 0.211666,-2.87866 0.465666,-5.63033 0.254,-2.794 0.550333,-5.334 h 3.598334 q 1.354666,2.20133 3.175,6.05367 1.820333,3.81 4.190999,8.80533 2.370667,-4.99533 4.191,-8.80533 1.820334,-3.85234 3.175,-6.05367 h 3.640671 q 0.29633,2.54 0.55033,5.334 0.254,2.75167 0.46567,5.63033 0.21166,2.83634 0.381,5.67267 0.16933,2.794 0.254,5.37633 h -3.89467 q -0.127,-3.683 -0.33867,-7.83166 -0.21166,-4.191 -0.634997,-8.382 -0.677334,1.31233 -1.566334,3.175 -0.889,1.82033 -1.778,3.72533 -0.846666,1.905 -1.608666,3.64067 -0.762,1.73566 -1.185334,2.75166 H 90.33363 q -0.465667,-1.05833 -1.27,-2.794 -0.762,-1.73566 -1.651,-3.64066 -0.846667,-1.94734 -1.735667,-3.76767 -0.889,-1.86267 -1.566333,-3.09033 z" />
        <path
           id="path333"
           style="font-size:42.33333206px;fill:#aa8800;stroke-width:0.26458332"
           d="m 108.15592,283.56755 h 2.37067 q 1.397,-2.032 2.20133,-4.191 0.84667,-2.159 1.27,-4.445 0.42334,-2.32833 0.55034,-4.826 0.127,-2.54 0.16933,-5.334 h 14.43566 v 18.796 h 2.96334 v 9.35566 h -3.72534 v -6.13833 h -16.50999 v 6.13833 h -3.72534 z m 17.06033,0 v -15.494 h -6.90033 q -0.0423,1.98967 -0.21167,4.02167 -0.16933,1.98966 -0.55033,3.97933 -0.381,1.94733 -1.10067,3.85233 -0.67733,1.86267 -1.73566,3.64067 z" />
        <path
           id="path335"
           style="font-size:42.33333206px;fill:#aa8800;stroke-width:0.26458332"
           d="m 143.84286,283.94855 q 1.397,0 2.45533,-0.0423 1.10067,-0.0847 1.82034,-0.254 v -6.56167 q -0.42334,-0.21167 -1.397,-0.33867 -0.93134,-0.16933 -2.286,-0.16933 -0.889,0 -1.905,0.127 -0.97367,0.127 -1.82034,0.55033 -0.80433,0.381 -1.35466,1.10067 -0.55034,0.67733 -0.55034,1.82033 0,2.11667 1.35467,2.96334 1.35467,0.80433 3.683,0.80433 z m -0.33867,-19.72733 q 2.37067,0 3.97934,0.635 1.651,0.59266 2.62466,1.73566 1.016,1.10067 1.43934,2.667 0.42333,1.524 0.42333,3.38667 v 13.75833 q -0.508,0.0847 -1.43933,0.254 -0.889,0.127 -2.032,0.254 -1.143,0.127 -2.49767,0.21167 -1.31233,0.127 -2.62467,0.127 -1.86266,0 -3.429,-0.381 -1.56633,-0.381 -2.70933,-1.18534 -1.143,-0.84666 -1.778,-2.20133 -0.635,-1.35466 -0.635,-3.25966 0,-1.82034 0.71967,-3.13267 0.762,-1.31233 2.032,-2.11667 1.27,-0.80433 2.96333,-1.18533 1.69333,-0.381 3.556,-0.381 0.59267,0 1.22767,0.0847 0.635,0.0423 1.18533,0.16933 0.59267,0.0847 1.016,0.16933 0.42333,0.0847 0.59267,0.127 v -1.10066 q 0,-0.97367 -0.21167,-1.905 -0.21167,-0.97367 -0.762,-1.69334 -0.55033,-0.762 -1.524,-1.18533 -0.93133,-0.46567 -2.45533,-0.46567 -1.94734,0 -3.429,0.29634 -1.43934,0.254 -2.159,0.55033 l -0.46567,-3.25967 q 0.762,-0.33866 2.54,-0.635 1.778,-0.33866 3.85233,-0.33866 z" />
        <path
           id="path337"
           style="font-size:42.33333206px;fill:#aa8800;stroke-width:0.26458332"
           d="m 173.7725,275.82055 q 0,-3.85233 -1.905,-5.92667 -1.905,-2.07433 -5.08,-2.07433 -1.778,0 -2.794,0.127 -0.97367,0.127 -1.56634,0.29633 v 13.88534 q 0.71967,0.59266 2.07434,1.143 1.35466,0.55033 2.96333,0.55033 1.69333,0 2.87867,-0.59267 1.22766,-0.635 1.98966,-1.69333 0.762,-1.10067 1.10067,-2.54 0.33867,-1.48167 0.33867,-3.175 z m 4.10633,0 q 0,2.49767 -0.67733,4.61433 -0.635,2.11667 -1.905,3.64067 -1.27,1.524 -3.13267,2.37066 -1.82033,0.84667 -4.191,0.84667 -1.905,0 -3.38667,-0.508 -1.43933,-0.508 -2.159,-0.97367 v 8.80534 h -3.937 v -29.16767 q 1.397,-0.33866 3.47134,-0.71966 2.11666,-0.42334 4.86833,-0.42334 2.54,0 4.572,0.80434 2.032,0.80433 3.47133,2.286 1.43934,1.48166 2.20134,3.64066 0.80433,2.11667 0.80433,4.78367 z" />
      </g>
    </g>
  </g>
</svg>
