<?xml version="1.0" encoding="UTF-8" standalone="no"?>
<svg
   xmlns:dc="http://purl.org/dc/elements/1.1/"
   xmlns:cc="http://creativecommons.org/ns#"
   xmlns:rdf="http://www.w3.org/1999/02/22-rdf-syntax-ns#"
   xmlns:svg="http://www.w3.org/2000/svg"
   xmlns="http://www.w3.org/2000/svg"
   id="svg8"
   version="1.1"
   viewBox="0 0 60.000003 4.5999999"
   height="4.5999999mm"
   width="60mm">
  <defs
     id="defs2" />
  <metadata
     id="metadata5">
    <rdf:RDF>
      <cc:Work
         rdf:about="">
        <dc:format>image/svg+xml</dc:format>
        <dc:type
           rdf:resource="http://purl.org/dc/dcmitype/StillImage" />
        <dc:title></dc:title>
      </cc:Work>
    </rdf:RDF>
  </metadata>
  <g
     transform="translate(0,-292.39999)"
     id="layer1">
    <g
       id="g62">
      <g
         id="text220"
         style="font-style:normal;font-variant:normal;font-weight:normal;font-stretch:normal;font-size:4.23333311px;line-height:1.25;font-family:Ubuntu;-inkscape-font-specification:Ubuntu;letter-spacing:0px;word-spacing:0px;fill:#000000;fill-opacity:1;stroke:none;stroke-width:0.26458332"
         aria-label="адамдар">
        <path
           id="path222"
           style="font-style:normal;font-variant:normal;font-weight:normal;font-stretch:normal;font-family:Ubuntu;-inkscape-font-specification:Ubuntu;fill:#806600;stroke-width:0.26458332"
           d="m 2.0550066,295.42849 q 0.1397,0 0.2455333,-0.004 0.1100667,-0.008 0.1820333,-0.0254 v -0.65617 q -0.042333,-0.0212 -0.1397,-0.0339 -0.093133,-0.0169 -0.2286,-0.0169 -0.0889,0 -0.1904999,0.0127 -0.097367,0.0127 -0.1820334,0.055 -0.080433,0.0381 -0.1354666,0.11006 -0.055033,0.0677 -0.055033,0.18204 0,0.21166 0.1354667,0.29633 0.1354667,0.0804 0.3683,0.0804 z m -0.033867,-1.97273 q 0.2370667,0 0.3979333,0.0635 0.1651,0.0593 0.2624667,0.17357 0.1016,0.11006 0.1439333,0.2667 0.042333,0.1524 0.042333,0.33866 v 1.37584 q -0.0508,0.008 -0.1439333,0.0254 -0.0889,0.0127 -0.2032,0.0254 -0.1143,0.0127 -0.2497666,0.0212 -0.1312334,0.0127 -0.2624667,0.0127 -0.1862666,0 -0.3429,-0.0381 -0.1566333,-0.0381 -0.2709333,-0.11853 -0.1143,-0.0847 -0.1778,-0.22013 -0.0635,-0.13547 -0.0635,-0.32597 0,-0.18203 0.071967,-0.31327 0.0762,-0.13123 0.2032,-0.21166 0.127,-0.0804 0.2963333,-0.11854 0.1693333,-0.0381 0.3556,-0.0381 0.059267,0 0.1227666,0.008 0.0635,0.004 0.1185334,0.0169 0.059267,0.008 0.1016,0.0169 0.042333,0.008 0.059267,0.0127 v -0.11007 q 0,-0.0974 -0.021167,-0.1905 -0.021167,-0.0974 -0.0762,-0.16933 -0.055033,-0.0762 -0.1524,-0.11854 -0.093133,-0.0466 -0.2455334,-0.0466 -0.1947333,0 -0.3428999,0.0296 -0.1439334,0.0254 -0.2159,0.055 l -0.046567,-0.32596 q 0.0762,-0.0339 0.254,-0.0635 0.1778,-0.0339 0.3852333,-0.0339 z" />
        <path
           id="path224"
           style="font-style:normal;font-variant:normal;font-weight:normal;font-stretch:normal;font-family:Ubuntu;-inkscape-font-specification:Ubuntu;fill:#806600;stroke-width:0.26458332"
           d="m 3.2488038,295.39039 h 0.2370666 q 0.1397,-0.2032 0.2201334,-0.4191 0.084667,-0.2159 0.1269999,-0.4445 0.042333,-0.23283 0.055033,-0.4826 0.0127,-0.254 0.016933,-0.5334 H 5.348537 v 1.8796 h 0.2963333 v 0.93557 H 5.272337 v -0.61383 H 3.6213371 v 0.61383 H 3.2488038 Z m 1.7060332,0 v -1.5494 H 4.2648037 q -0.00423,0.19897 -0.021167,0.40217 -0.016933,0.19897 -0.055033,0.39793 -0.0381,0.19474 -0.1100666,0.38524 -0.067733,0.18626 -0.1735667,0.36406 z" />
        <path
           id="path226"
           style="font-style:normal;font-variant:normal;font-weight:normal;font-stretch:normal;font-family:Ubuntu;-inkscape-font-specification:Ubuntu;fill:#806600;stroke-width:0.26458332"
           d="m 6.8174983,295.42849 q 0.1397,0 0.2455333,-0.004 0.1100667,-0.008 0.1820333,-0.0254 v -0.65617 q -0.042333,-0.0212 -0.1397,-0.0339 -0.093133,-0.0169 -0.2286,-0.0169 -0.0889,0 -0.1904999,0.0127 -0.097367,0.0127 -0.1820334,0.055 -0.080433,0.0381 -0.1354666,0.11006 -0.055033,0.0677 -0.055033,0.18204 0,0.21166 0.1354667,0.29633 0.1354667,0.0804 0.3683,0.0804 z m -0.033867,-1.97273 q 0.2370667,0 0.3979333,0.0635 0.1651,0.0593 0.2624667,0.17357 0.1016,0.11006 0.1439333,0.2667 0.042333,0.1524 0.042333,0.33866 v 1.37584 q -0.0508,0.008 -0.1439333,0.0254 -0.0889,0.0127 -0.2032,0.0254 -0.1143,0.0127 -0.2497666,0.0212 -0.1312334,0.0127 -0.2624667,0.0127 -0.1862666,0 -0.3429,-0.0381 -0.1566333,-0.0381 -0.2709333,-0.11853 -0.1143,-0.0847 -0.1778,-0.22013 -0.0635,-0.13547 -0.0635,-0.32597 0,-0.18203 0.071967,-0.31327 0.0762,-0.13123 0.2032,-0.21166 0.127,-0.0804 0.2963333,-0.11854 0.1693333,-0.0381 0.3556,-0.0381 0.059267,0 0.1227666,0.008 0.0635,0.004 0.1185334,0.0169 0.059267,0.008 0.1016,0.0169 0.042333,0.008 0.059267,0.0127 v -0.11007 q 0,-0.0974 -0.021167,-0.1905 -0.021167,-0.0974 -0.0762,-0.16933 -0.055033,-0.0762 -0.1524,-0.11854 -0.093133,-0.0466 -0.2455333,-0.0466 -0.1947334,0 -0.3429,0.0296 -0.1439334,0.0254 -0.2159,0.055 l -0.046567,-0.32596 q 0.0762,-0.0339 0.254,-0.0635 0.1778,-0.0339 0.3852333,-0.0339 z" />
        <path
           id="path228"
           style="font-style:normal;font-variant:normal;font-weight:normal;font-stretch:normal;font-family:Ubuntu;-inkscape-font-specification:Ubuntu;fill:#806600;stroke-width:0.26458332"
           d="m 8.701329,294.09076 q -0.042333,0.4191 -0.0635,0.8382 -0.021167,0.41487 -0.033867,0.78317 H 8.2271957 q 0.00847,-0.25824 0.0254,-0.53764 0.016933,-0.28363 0.0381,-0.56726 0.021167,-0.28787 0.046567,-0.56304 0.0254,-0.2794 0.055033,-0.5334 H 8.752129 q 0.1354667,0.22014 0.3175,0.60537 0.1820333,0.381 0.4191,0.88053 0.2370666,-0.49953 0.4191,-0.88053 0.182033,-0.38523 0.3175,-0.60537 h 0.364067 q 0.02963,0.254 0.05503,0.5334 0.0254,0.27517 0.04657,0.56304 0.02117,0.28363 0.0381,0.56726 0.01693,0.2794 0.0254,0.53764 h -0.389467 q -0.0127,-0.3683 -0.03387,-0.78317 -0.02117,-0.4191 -0.0635,-0.8382 -0.06773,0.13123 -0.156633,0.3175 -0.0889,0.18203 -0.1778,0.37253 -0.084667,0.1905 -0.1608667,0.36407 -0.0762,0.17357 -0.1185333,0.27517 h -0.3302 q -0.046567,-0.10584 -0.127,-0.2794 -0.0762,-0.17357 -0.1651,-0.36407 -0.084667,-0.19473 -0.1735667,-0.37677 -0.0889,-0.18626 -0.1566333,-0.30903 z" />
        <path
           id="path230"
           style="font-style:normal;font-variant:normal;font-weight:normal;font-stretch:normal;font-family:Ubuntu;-inkscape-font-specification:Ubuntu;fill:#806600;stroke-width:0.26458332"
           d="m 11.105857,295.39039 h 0.237067 q 0.1397,-0.2032 0.220133,-0.4191 0.08467,-0.2159 0.127,-0.4445 0.04233,-0.23283 0.05503,-0.4826 0.0127,-0.254 0.01693,-0.5334 h 1.443567 v 1.8796 h 0.296333 v 0.93557 h -0.372533 v -0.61383 h -1.651 v 0.61383 h -0.372534 z m 1.706034,0 v -1.5494 h -0.690034 q -0.0042,0.19897 -0.02117,0.40217 -0.01693,0.19897 -0.05503,0.39793 -0.0381,0.19474 -0.110066,0.38524 -0.06773,0.18626 -0.173567,0.36406 z" />
        <path
           id="path232"
           style="font-style:normal;font-variant:normal;font-weight:normal;font-stretch:normal;font-family:Ubuntu;-inkscape-font-specification:Ubuntu;fill:#806600;stroke-width:0.26458332"
           d="m 14.674553,295.42849 q 0.1397,0 0.245533,-0.004 0.110066,-0.008 0.182033,-0.0254 v -0.65617 q -0.04233,-0.0212 -0.1397,-0.0339 -0.09313,-0.0169 -0.2286,-0.0169 -0.0889,0 -0.1905,0.0127 -0.09737,0.0127 -0.182033,0.055 -0.08043,0.0381 -0.135467,0.11006 -0.05503,0.0677 -0.05503,0.18204 0,0.21166 0.135467,0.29633 0.135466,0.0804 0.3683,0.0804 z m -0.03387,-1.97273 q 0.237067,0 0.397933,0.0635 0.1651,0.0593 0.262467,0.17357 0.1016,0.11006 0.143933,0.2667 0.04233,0.1524 0.04233,0.33866 v 1.37584 q -0.0508,0.008 -0.143933,0.0254 -0.0889,0.0127 -0.2032,0.0254 -0.1143,0.0127 -0.249766,0.0212 -0.131234,0.0127 -0.262467,0.0127 -0.186267,0 -0.3429,-0.0381 -0.156633,-0.0381 -0.270933,-0.11853 -0.1143,-0.0847 -0.1778,-0.22013 -0.0635,-0.13547 -0.0635,-0.32597 0,-0.18203 0.07197,-0.31327 0.0762,-0.13123 0.2032,-0.21166 0.127,-0.0804 0.296334,-0.11854 0.169333,-0.0381 0.3556,-0.0381 0.05927,0 0.122766,0.008 0.0635,0.004 0.118534,0.0169 0.05927,0.008 0.101599,0.0169 0.04233,0.008 0.05927,0.0127 v -0.11007 q 0,-0.0974 -0.02117,-0.1905 -0.02117,-0.0974 -0.0762,-0.16933 -0.05503,-0.0762 -0.152399,-0.11854 -0.09313,-0.0466 -0.245534,-0.0466 -0.194733,0 -0.3429,0.0296 -0.143933,0.0254 -0.2159,0.055 l -0.04657,-0.32596 q 0.0762,-0.0339 0.254,-0.0635 0.1778,-0.0339 0.385233,-0.0339 z" />
        <path
           id="path234"
           style="font-style:normal;font-variant:normal;font-weight:normal;font-stretch:normal;font-family:Ubuntu;-inkscape-font-specification:Ubuntu;fill:#806600;stroke-width:0.26458332"
           d="m 17.667516,294.61569 q 0,-0.38523 -0.1905,-0.59266 -0.1905,-0.20744 -0.508,-0.20744 -0.1778,0 -0.2794,0.0127 -0.09737,0.0127 -0.156633,0.0296 v 1.38853 q 0.07197,0.0593 0.207433,0.1143 0.135467,0.055 0.296333,0.055 0.169334,0 0.287867,-0.0593 0.122767,-0.0635 0.198967,-0.16934 0.0762,-0.11006 0.110066,-0.254 0.03387,-0.14816 0.03387,-0.3175 z m 0.410633,0 q 0,0.24977 -0.06773,0.46144 -0.0635,0.21166 -0.1905,0.36406 -0.127,0.1524 -0.313267,0.23707 -0.182033,0.0847 -0.4191,0.0847 -0.1905,0 -0.338666,-0.0508 -0.143934,-0.0508 -0.2159,-0.0974 v 0.88053 h -0.3937 v -2.91676 q 0.1397,-0.0339 0.347133,-0.072 0.211667,-0.0423 0.486833,-0.0423 0.254,0 0.4572,0.0804 0.2032,0.0804 0.347134,0.2286 0.143933,0.14817 0.220133,0.36407 0.08043,0.21166 0.08043,0.47836 z" />
      </g>
    </g>
  </g>
</svg>
