<?xml version="1.0" encoding="UTF-8" standalone="no"?>
<svg
   xmlns:dc="http://purl.org/dc/elements/1.1/"
   xmlns:cc="http://creativecommons.org/ns#"
   xmlns:rdf="http://www.w3.org/1999/02/22-rdf-syntax-ns#"
   xmlns:svg="http://www.w3.org/2000/svg"
   xmlns="http://www.w3.org/2000/svg"
   id="svg8"
   version="1.1"
   viewBox="0 0 60.000003 4.5999999"
   height="4.5999999mm"
   width="60mm">
  <defs
     id="defs2" />
  <metadata
     id="metadata5">
    <rdf:RDF>
      <cc:Work
         rdf:about="">
        <dc:format>image/svg+xml</dc:format>
        <dc:type
           rdf:resource="http://purl.org/dc/dcmitype/StillImage" />
        <dc:title></dc:title>
      </cc:Work>
    </rdf:RDF>
  </metadata>
  <g
     transform="translate(0,-292.39999)"
     id="layer1">
    <g
       id="g62">
      <text
         id="text468"
         y="165.90617"
         x="21.281464"
         style="font-style:normal;font-variant:normal;font-weight:normal;font-stretch:normal;font-size:6.3499999px;line-height:1.25;font-family:Ubuntu;-inkscape-font-specification:Ubuntu;letter-spacing:0px;word-spacing:0px;fill:#806600;fill-opacity:1;stroke:none;stroke-width:0.26458332"
         xml:space="preserve"><tspan
           style="font-size:6.3499999px;fill:#806600;stroke-width:0.26458332"
           y="171.8275"
           x="21.281464"
           id="tspan466" /></text>
      <g
         id="flowRoot470"
         style="font-style:normal;font-variant:normal;font-weight:normal;font-stretch:normal;font-size:18.66666603px;line-height:1.25;font-family:Ubuntu;-inkscape-font-specification:Ubuntu;letter-spacing:0px;word-spacing:0px;fill:#000000;fill-opacity:1;stroke:none"
         transform="matrix(0.26458333,0,0,0.26458333,-15.746939,390.05655)"
         aria-label="адамдар">
        <path
           id="path512"
           style="fill:#806600"
           d="m 67.43101,-357.01211 q 0.616,0 1.082667,-0.0187 0.485333,-0.0373 0.802667,-0.112 v -2.89333 q -0.186667,-0.0933 -0.616,-0.14934 -0.410667,-0.0747 -1.008,-0.0747 -0.392,0 -0.84,0.056 -0.429334,0.056 -0.802667,0.24266 -0.354667,0.168 -0.597333,0.48534 -0.242667,0.29866 -0.242667,0.80266 0,0.93334 0.597333,1.30667 0.597334,0.35467 1.624,0.35467 z m -0.149333,-8.69867 q 1.045333,0 1.754667,0.28 0.728,0.26133 1.157333,0.76533 0.448,0.48534 0.634666,1.176 0.186667,0.672 0.186667,1.49334 v 6.06666 q -0.224,0.0373 -0.634667,0.112 -0.391999,0.056 -0.895999,0.112 -0.504,0.056 -1.101334,0.0933 -0.578666,0.056 -1.157333,0.056 -0.821333,0 -1.512,-0.168 -0.690667,-0.168 -1.194667,-0.52266 -0.504,-0.37333 -0.784,-0.97067 -0.28,-0.59733 -0.28,-1.43733 0,-0.80267 0.317334,-1.38133 0.336,-0.57867 0.896,-0.93334 0.56,-0.35466 1.306666,-0.52266 0.746667,-0.168 1.568,-0.168 0.261334,0 0.541334,0.0373 0.28,0.0187 0.522666,0.0747 0.261334,0.0373 0.448,0.0747 0.186667,0.0373 0.261334,0.056 v -0.48533 q 0,-0.42933 -0.09333,-0.84 -0.09333,-0.42933 -0.336,-0.74667 -0.242666,-0.336 -0.672,-0.52266 -0.410666,-0.20534 -1.082666,-0.20534 -0.858667,0 -1.512,0.13067 -0.634667,0.112 -0.952,0.24267 l -0.205334,-1.43734 q 0.336,-0.14933 1.12,-0.28 0.784,-0.14933 1.698667,-0.14933 z" />
        <path
           id="path514"
           style="fill:#806600"
           d="m 72.694998,-357.18011 h 1.045334 q 0.616,-0.896 0.970666,-1.848 0.373334,-0.952 0.56,-1.96 0.186667,-1.02667 0.242667,-2.128 0.056,-1.12 0.07467,-2.352 h 6.365333 v 8.288 h 1.306666 v 4.12533 h -1.642666 v -2.70667 h -7.28 v 2.70667 h -1.642667 z m 7.522667,0 v -6.832 h -3.042667 q -0.01867,0.87733 -0.09333,1.77333 -0.07467,0.87733 -0.242667,1.75467 -0.168,0.85866 -0.485333,1.69866 -0.298667,0.82134 -0.765333,1.60534 z" />
        <path
           id="path516"
           style="fill:#806600"
           d="m 88.430974,-357.01211 q 0.616,0 1.082667,-0.0187 0.485333,-0.0373 0.802666,-0.112 v -2.89333 q -0.186666,-0.0933 -0.616,-0.14934 -0.410666,-0.0747 -1.008,-0.0747 -0.392,0 -0.84,0.056 -0.429333,0.056 -0.802666,0.24266 -0.354667,0.168 -0.597334,0.48534 -0.242666,0.29866 -0.242666,0.80266 0,0.93334 0.597333,1.30667 0.597333,0.35467 1.624,0.35467 z m -0.149333,-8.69867 q 1.045333,0 1.754666,0.28 0.728,0.26133 1.157334,0.76533 0.448,0.48534 0.634666,1.176 0.186667,0.672 0.186667,1.49334 v 6.06666 q -0.224,0.0373 -0.634667,0.112 -0.392,0.056 -0.896,0.112 -0.504,0.056 -1.101333,0.0933 -0.578667,0.056 -1.157333,0.056 -0.821334,0 -1.512,-0.168 -0.690667,-0.168 -1.194667,-0.52266 -0.504,-0.37333 -0.784,-0.97067 -0.28,-0.59733 -0.28,-1.43733 0,-0.80267 0.317333,-1.38133 0.336,-0.57867 0.896,-0.93334 0.56,-0.35466 1.306667,-0.52266 0.746667,-0.168 1.568,-0.168 0.261333,0 0.541333,0.0373 0.28,0.0187 0.522667,0.0747 0.261333,0.0373 0.448,0.0747 0.186667,0.0373 0.261333,0.056 v -0.48533 q 0,-0.42933 -0.09333,-0.84 -0.09333,-0.42933 -0.336,-0.74667 -0.242667,-0.336 -0.672,-0.52266 -0.410667,-0.20534 -1.082667,-0.20534 -0.858666,0 -1.512,0.13067 -0.634666,0.112 -0.952,0.24267 l -0.205333,-1.43734 q 0.336,-0.14933 1.12,-0.28 0.784,-0.14933 1.698667,-0.14933 z" />
        <path
           id="path518"
           style="fill:#806600"
           d="m 96.737629,-362.91078 q -0.186667,1.848 -0.28,3.696 -0.09333,1.82933 -0.149334,3.45333 h -1.661333 q 0.03733,-1.13866 0.112,-2.37066 0.07467,-1.25067 0.168,-2.50134 0.09333,-1.26933 0.205333,-2.48266 0.112,-1.232 0.242667,-2.352 h 1.586667 q 0.597333,0.97066 1.4,2.66933 0.802666,1.68 1.848001,3.88267 1.04533,-2.20267 1.848,-3.88267 0.80267,-1.69867 1.4,-2.66933 h 1.60533 q 0.13067,1.12 0.24267,2.352 0.112,1.21333 0.20533,2.48266 0.0933,1.25067 0.168,2.50134 0.0747,1.232 0.112,2.37066 h -1.71733 q -0.056,-1.624 -0.14933,-3.45333 -0.0933,-1.848 -0.28,-3.696 -0.29867,0.57867 -0.69067,1.4 -0.392,0.80267 -0.784,1.64267 -0.37333,0.84 -0.70933,1.60533 -0.336,0.76533 -0.52267,1.21333 h -1.456001 q -0.205334,-0.46666 -0.56,-1.232 -0.336,-0.76533 -0.728,-1.60533 -0.373334,-0.85867 -0.765334,-1.66133 -0.392,-0.82134 -0.690666,-1.36267 z" />
        <path
           id="path520"
           style="fill:#806600"
           d="m 107.34028,-357.18011 h 1.04533 q 0.616,-0.896 0.97067,-1.848 0.37333,-0.952 0.56,-1.96 0.18666,-1.02667 0.24266,-2.128 0.056,-1.12 0.0747,-2.352 h 6.36533 v 8.288 h 1.30667 v 4.12533 h -1.64267 v -2.70667 h -7.28 v 2.70667 h -1.64266 z m 7.52266,0 v -6.832 h -3.04266 q -0.0187,0.87733 -0.0933,1.77333 -0.0747,0.87733 -0.24266,1.75467 -0.168,0.85866 -0.48534,1.69866 -0.29866,0.82134 -0.76533,1.60534 z" />
        <path
           id="path522"
           style="fill:#806600"
           d="m 123.07625,-357.01211 q 0.616,0 1.08267,-0.0187 0.48533,-0.0373 0.80266,-0.112 v -2.89333 q -0.18666,-0.0933 -0.616,-0.14934 -0.41066,-0.0747 -1.008,-0.0747 -0.392,0 -0.84,0.056 -0.42933,0.056 -0.80266,0.24266 -0.35467,0.168 -0.59734,0.48534 -0.24266,0.29866 -0.24266,0.80266 0,0.93334 0.59733,1.30667 0.59733,0.35467 1.624,0.35467 z m -0.14933,-8.69867 q 1.04533,0 1.75466,0.28 0.728,0.26133 1.15734,0.76533 0.448,0.48534 0.63466,1.176 0.18667,0.672 0.18667,1.49334 v 6.06666 q -0.224,0.0373 -0.63467,0.112 -0.392,0.056 -0.896,0.112 -0.504,0.056 -1.10133,0.0933 -0.57867,0.056 -1.15733,0.056 -0.82134,0 -1.512,-0.168 -0.69067,-0.168 -1.19467,-0.52266 -0.504,-0.37333 -0.784,-0.97067 -0.28,-0.59733 -0.28,-1.43733 0,-0.80267 0.31733,-1.38133 0.336,-0.57867 0.896,-0.93334 0.56,-0.35466 1.30667,-0.52266 0.74667,-0.168 1.568,-0.168 0.26133,0 0.54133,0.0373 0.28,0.0187 0.52267,0.0747 0.26133,0.0373 0.448,0.0747 0.18667,0.0373 0.26133,0.056 v -0.48533 q 0,-0.42933 -0.0933,-0.84 -0.0933,-0.42933 -0.336,-0.74667 -0.24267,-0.336 -0.672,-0.52266 -0.41067,-0.20534 -1.08267,-0.20534 -0.85866,0 -1.512,0.13067 -0.63466,0.112 -0.952,0.24267 l -0.20533,-1.43734 q 0.336,-0.14933 1.12,-0.28 0.784,-0.14933 1.69867,-0.14933 z" />
        <path
           id="path524"
           style="fill:#806600"
           d="m 136.27357,-360.59611 q 0,-1.69867 -0.84,-2.61334 -0.84,-0.91466 -2.24,-0.91466 -0.784,0 -1.232,0.056 -0.42933,0.056 -0.69066,0.13066 v 6.12267 q 0.31733,0.26133 0.91466,0.504 0.59734,0.24267 1.30667,0.24267 0.74667,0 1.26933,-0.26134 0.54134,-0.28 0.87734,-0.74666 0.336,-0.48534 0.48533,-1.12 0.14933,-0.65334 0.14933,-1.4 z m 1.81067,0 q 0,1.10133 -0.29867,2.03466 -0.28,0.93334 -0.84,1.60534 -0.56,0.67199 -1.38133,1.04533 -0.80267,0.37333 -1.848,0.37333 -0.84,0 -1.49333,-0.224 -0.63467,-0.224 -0.952,-0.42933 v 3.88266 h -1.736 v -12.86133 q 0.616,-0.14933 1.53066,-0.31733 0.93334,-0.18667 2.14667,-0.18667 1.12,0 2.016,0.35467 0.896,0.35467 1.53067,1.008 0.63466,0.65333 0.97066,1.60533 0.35467,0.93334 0.35467,2.10934 z" />
      </g>
    </g>
  </g>
</svg>
