<?xml version="1.0" encoding="UTF-8" standalone="no"?>
<svg
   xmlns:dc="http://purl.org/dc/elements/1.1/"
   xmlns:cc="http://creativecommons.org/ns#"
   xmlns:rdf="http://www.w3.org/1999/02/22-rdf-syntax-ns#"
   xmlns:svg="http://www.w3.org/2000/svg"
   xmlns="http://www.w3.org/2000/svg"
   id="svg8"
   version="1.1"
   viewBox="0 0 60.000003 4.5999999"
   height="4.5999999mm"
   width="60mm">
  <defs
     id="defs2" />
  <metadata
     id="metadata5">
    <rdf:RDF>
      <cc:Work
         rdf:about="">
        <dc:format>image/svg+xml</dc:format>
        <dc:type
           rdf:resource="http://purl.org/dc/dcmitype/StillImage" />
        <dc:title></dc:title>
      </cc:Work>
    </rdf:RDF>
  </metadata>
  <g
     transform="translate(0,-292.39999)"
     id="layer1">
    <g
       id="g62">
      <text
         id="text468"
         y="165.90617"
         x="21.281464"
         style="font-style:normal;font-variant:normal;font-weight:normal;font-stretch:normal;font-size:6.3499999px;line-height:1.25;font-family:Ubuntu;-inkscape-font-specification:Ubuntu;letter-spacing:0px;word-spacing:0px;fill:#806600;fill-opacity:1;stroke:none;stroke-width:0.26458332"
         xml:space="preserve"><tspan
           style="font-size:6.3499999px;fill:#806600;stroke-width:0.26458332"
           y="171.8275"
           x="21.281464"
           id="tspan466" /></text>
      <g
         id="text630"
         style="font-style:normal;font-variant:normal;font-weight:normal;font-stretch:normal;font-size:4.23333311px;line-height:1.25;font-family:Ubuntu;-inkscape-font-specification:Ubuntu;letter-spacing:0px;word-spacing:0px;fill:#000000;fill-opacity:1;stroke:none;stroke-width:0.26458332"
         aria-label="адамдар">
        <path
           id="path662"
           style="fill:#aa8800;stroke-width:0.26458332"
           d="m 2.0614162,295.49423 q 0.1397,0 0.2455333,-0.004 0.1100667,-0.008 0.1820334,-0.0254 v -0.65617 q -0.042333,-0.0212 -0.1397,-0.0339 -0.093133,-0.0169 -0.2286,-0.0169 -0.0889,0 -0.1905,0.0127 -0.097367,0.0127 -0.1820333,0.055 -0.080433,0.0381 -0.1354667,0.11007 -0.055033,0.0677 -0.055033,0.18203 0,0.21167 0.1354666,0.29634 0.1354667,0.0804 0.3683,0.0804 z m -0.033867,-1.97273 q 0.2370666,0 0.3979333,0.0635 0.1651,0.0593 0.2624666,0.17356 0.1016,0.11007 0.1439334,0.2667 0.042333,0.1524 0.042333,0.33867 v 1.37583 q -0.0508,0.008 -0.1439333,0.0254 -0.0889,0.0127 -0.2032,0.0254 -0.1143,0.0127 -0.2497667,0.0212 -0.1312333,0.0127 -0.2624666,0.0127 -0.1862667,0 -0.3429,-0.0381 -0.1566333,-0.0381 -0.2709333,-0.11853 -0.1143,-0.0847 -0.1778,-0.22014 -0.0635,-0.13546 -0.0635,-0.32596 0,-0.18204 0.071967,-0.31327 0.0762,-0.13123 0.2032,-0.21167 0.127,-0.0804 0.2963333,-0.11853 0.1693334,-0.0381 0.3556,-0.0381 0.059267,0 0.1227667,0.008 0.0635,0.004 0.1185333,0.0169 0.059267,0.008 0.1016,0.0169 0.042333,0.008 0.059267,0.0127 v -0.11006 q 0,-0.0974 -0.021167,-0.1905 -0.021167,-0.0974 -0.0762,-0.16934 -0.055033,-0.0762 -0.1524,-0.11853 -0.093133,-0.0466 -0.2455333,-0.0466 -0.1947333,0 -0.3429,0.0296 -0.1439333,0.0254 -0.2159,0.055 l -0.046567,-0.32597 q 0.0762,-0.0339 0.2539999,-0.0635 0.1778,-0.0339 0.3852334,-0.0339 z" />
        <path
           id="path664"
           style="fill:#aa8800;stroke-width:0.26458332"
           d="m 3.2552134,295.45613 h 0.2370667 q 0.1397,-0.2032 0.2201333,-0.4191 0.084667,-0.2159 0.127,-0.4445 0.042333,-0.23283 0.055033,-0.4826 0.0127,-0.254 0.016933,-0.5334 h 1.4435665 v 1.8796 H 5.65128 v 0.93557 H 5.2787466 v -0.61384 H 3.6277467 v 0.61384 H 3.2552134 Z m 1.7060333,0 v -1.5494 H 4.2712134 q -0.00423,0.19897 -0.021167,0.40217 -0.016933,0.19896 -0.055033,0.39793 -0.0381,0.19473 -0.1100667,0.38523 -0.067733,0.18627 -0.1735666,0.36407 z" />
        <path
           id="path666"
           style="fill:#aa8800;stroke-width:0.26458332"
           d="m 6.8239079,295.49423 q 0.1397,0 0.2455333,-0.004 0.1100667,-0.008 0.1820334,-0.0254 v -0.65617 q -0.042333,-0.0212 -0.1397,-0.0339 -0.093133,-0.0169 -0.2286,-0.0169 -0.0889,0 -0.1905,0.0127 -0.097367,0.0127 -0.1820333,0.055 -0.080433,0.0381 -0.1354667,0.11007 -0.055033,0.0677 -0.055033,0.18203 0,0.21167 0.1354666,0.29634 0.1354667,0.0804 0.3683,0.0804 z m -0.033867,-1.97273 q 0.2370666,0 0.3979333,0.0635 0.1651,0.0593 0.2624666,0.17356 0.1016,0.11007 0.1439334,0.2667 0.042333,0.1524 0.042333,0.33867 v 1.37583 q -0.0508,0.008 -0.1439333,0.0254 -0.0889,0.0127 -0.2032,0.0254 -0.1143,0.0127 -0.2497667,0.0212 -0.1312333,0.0127 -0.2624666,0.0127 -0.1862667,0 -0.3429,-0.0381 -0.1566333,-0.0381 -0.2709333,-0.11853 -0.1143,-0.0847 -0.1778,-0.22014 -0.0635,-0.13546 -0.0635,-0.32596 0,-0.18204 0.071967,-0.31327 0.0762,-0.13123 0.2032,-0.21167 0.127,-0.0804 0.2963333,-0.11853 0.1693334,-0.0381 0.3556,-0.0381 0.059267,0 0.1227667,0.008 0.0635,0.004 0.1185333,0.0169 0.059267,0.008 0.1016,0.0169 0.042333,0.008 0.059267,0.0127 v -0.11006 q 0,-0.0974 -0.021167,-0.1905 -0.021167,-0.0974 -0.0762,-0.16934 -0.055033,-0.0762 -0.1524,-0.11853 -0.093133,-0.0466 -0.2455333,-0.0466 -0.1947333,0 -0.3429,0.0296 -0.1439333,0.0254 -0.2159,0.055 l -0.046567,-0.32597 q 0.0762,-0.0339 0.2539999,-0.0635 0.1778,-0.0339 0.3852334,-0.0339 z" />
        <path
           id="path668"
           style="fill:#aa8800;stroke-width:0.26458332"
           d="m 8.7077387,294.1565 q -0.042333,0.4191 -0.0635,0.8382 -0.021167,0.41486 -0.033867,0.78316 H 8.2336054 q 0.00847,-0.25823 0.0254,-0.53763 0.016933,-0.28363 0.0381,-0.56727 0.021167,-0.28786 0.046567,-0.56303 0.0254,-0.2794 0.055033,-0.5334 h 0.3598334 q 0.1354666,0.22013 0.3174999,0.60537 0.1820334,0.381 0.4191,0.88053 0.2370667,-0.49953 0.4191,-0.88053 0.1820334,-0.38524 0.3175004,-0.60537 h 0.364066 q 0.02963,0.254 0.05503,0.5334 0.0254,0.27517 0.04657,0.56303 0.02117,0.28364 0.0381,0.56727 0.01693,0.2794 0.0254,0.53763 h -0.389466 q -0.0127,-0.3683 -0.03387,-0.78316 -0.02117,-0.4191 -0.0635,-0.8382 -0.06773,0.13123 -0.156633,0.3175 -0.0889,0.18203 -0.1778004,0.37253 -0.084667,0.1905 -0.1608667,0.36407 -0.0762,0.17356 -0.1185333,0.27516 h -0.3302 q -0.046567,-0.10583 -0.127,-0.2794 -0.0762,-0.17356 -0.1651,-0.36406 -0.084667,-0.19474 -0.1735666,-0.37677 -0.0889,-0.18627 -0.1566333,-0.30903 z" />
        <path
           id="path670"
           style="fill:#aa8800;stroke-width:0.26458332"
           d="m 11.112267,295.45613 h 0.237067 q 0.1397,-0.2032 0.220133,-0.4191 0.08467,-0.2159 0.127,-0.4445 0.04233,-0.23283 0.05503,-0.4826 0.0127,-0.254 0.01693,-0.5334 H 13.212 v 1.8796 h 0.296333 v 0.93557 H 13.1358 v -0.61384 h -1.651 v 0.61384 h -0.372533 z m 1.706033,0 v -1.5494 h -0.690033 q -0.0042,0.19897 -0.02117,0.40217 -0.01693,0.19896 -0.05503,0.39793 -0.0381,0.19473 -0.110067,0.38523 -0.06773,0.18627 -0.173566,0.36407 z" />
        <path
           id="path672"
           style="fill:#aa8800;stroke-width:0.26458332"
           d="m 14.680962,295.49423 q 0.1397,0 0.245533,-0.004 0.110067,-0.008 0.182034,-0.0254 v -0.65617 q -0.04233,-0.0212 -0.1397,-0.0339 -0.09313,-0.0169 -0.2286,-0.0169 -0.0889,0 -0.1905,0.0127 -0.09737,0.0127 -0.182033,0.055 -0.08043,0.0381 -0.135467,0.11007 -0.05503,0.0677 -0.05503,0.18203 0,0.21167 0.135466,0.29634 0.135467,0.0804 0.3683,0.0804 z m -0.03387,-1.97273 q 0.237067,0 0.397934,0.0635 0.1651,0.0593 0.262466,0.17356 0.1016,0.11007 0.143934,0.2667 0.04233,0.1524 0.04233,0.33867 v 1.37583 q -0.0508,0.008 -0.143933,0.0254 -0.0889,0.0127 -0.2032,0.0254 -0.1143,0.0127 -0.249767,0.0212 -0.131233,0.0127 -0.262467,0.0127 -0.186266,0 -0.342899,-0.0381 -0.156634,-0.0381 -0.270934,-0.11853 -0.1143,-0.0847 -0.1778,-0.22014 -0.0635,-0.13546 -0.0635,-0.32596 0,-0.18204 0.07197,-0.31327 0.0762,-0.13123 0.2032,-0.21167 0.127,-0.0804 0.296333,-0.11853 0.169334,-0.0381 0.3556,-0.0381 0.05927,0 0.122767,0.008 0.0635,0.004 0.118533,0.0169 0.05927,0.008 0.1016,0.0169 0.04233,0.008 0.05927,0.0127 v -0.11006 q 0,-0.0974 -0.02117,-0.1905 -0.02117,-0.0974 -0.0762,-0.16934 -0.05503,-0.0762 -0.1524,-0.11853 -0.09313,-0.0466 -0.245533,-0.0466 -0.194733,0 -0.3429,0.0296 -0.143933,0.0254 -0.2159,0.055 l -0.04657,-0.32597 q 0.0762,-0.0339 0.254,-0.0635 0.1778,-0.0339 0.385233,-0.0339 z" />
        <path
           id="path674"
           style="fill:#aa8800;stroke-width:0.26458332"
           d="m 17.673926,294.68143 q 0,-0.38523 -0.1905,-0.59267 -0.1905,-0.20743 -0.508,-0.20743 -0.1778,0 -0.2794,0.0127 -0.09737,0.0127 -0.156634,0.0296 v 1.38854 q 0.07197,0.0593 0.207434,0.1143 0.135466,0.055 0.296333,0.055 0.169333,0 0.287867,-0.0593 0.122766,-0.0635 0.198966,-0.16933 0.0762,-0.11007 0.110067,-0.254 0.03387,-0.14817 0.03387,-0.3175 z m 0.410633,0 q 0,0.24977 -0.06773,0.46143 -0.0635,0.21167 -0.1905,0.36407 -0.127,0.1524 -0.313267,0.23707 -0.182033,0.0847 -0.4191,0.0847 -0.1905,0 -0.338667,-0.0508 -0.143933,-0.0508 -0.2159,-0.0974 v 0.88053 h -0.3937 v -2.91677 q 0.1397,-0.0339 0.347134,-0.072 0.211666,-0.0423 0.486833,-0.0423 0.254,0 0.4572,0.0804 0.2032,0.0804 0.347133,0.2286 0.143934,0.14816 0.220134,0.36406 0.08043,0.21167 0.08043,0.47837 z" />
      </g>
    </g>
  </g>
</svg>
