<?xml version="1.0" encoding="UTF-8" standalone="no"?>
<svg
   xmlns:dc="http://purl.org/dc/elements/1.1/"
   xmlns:cc="http://creativecommons.org/ns#"
   xmlns:rdf="http://www.w3.org/1999/02/22-rdf-syntax-ns#"
   xmlns:svg="http://www.w3.org/2000/svg"
   xmlns="http://www.w3.org/2000/svg"
   id="svg8"
   version="1.1"
   viewBox="0 0 60.000003 4.5999999"
   height="4.5999999mm"
   width="60mm">
  <defs
     id="defs2" />
  <metadata
     id="metadata5">
    <rdf:RDF>
      <cc:Work
         rdf:about="">
        <dc:format>image/svg+xml</dc:format>
        <dc:type
           rdf:resource="http://purl.org/dc/dcmitype/StillImage" />
        <dc:title></dc:title>
      </cc:Work>
    </rdf:RDF>
  </metadata>
  <g
     transform="translate(0,-292.39999)"
     id="layer1">
    <g
       id="g62">
      <text
         id="text468"
         y="165.90617"
         x="21.281464"
         style="font-style:normal;font-variant:normal;font-weight:normal;font-stretch:normal;font-size:6.3499999px;line-height:1.25;font-family:Ubuntu;-inkscape-font-specification:Ubuntu;letter-spacing:0px;word-spacing:0px;fill:#806600;fill-opacity:1;stroke:none;stroke-width:0.26458332"
         xml:space="preserve"><tspan
           style="font-size:6.3499999px;fill:#806600;stroke-width:0.26458332"
           y="171.8275"
           x="21.281464"
           id="tspan466" /></text>
      <g
         id="text548"
         style="font-style:normal;font-variant:normal;font-weight:normal;font-stretch:normal;font-size:3.17499995px;line-height:1.25;font-family:Ubuntu;-inkscape-font-specification:Ubuntu;letter-spacing:0px;word-spacing:0px;fill:#000000;fill-opacity:1;stroke:none;stroke-width:0.26458332"
         aria-label="адамдар">
        <path
           id="path577"
           style="fill:#aa8800;stroke-width:0.26458332"
           d="m 2.0349038,295.32072 q 0.104775,0 0.18415,-0.003 0.08255,-0.006 0.136525,-0.019 v -0.49213 q -0.03175,-0.0159 -0.104775,-0.0254 -0.06985,-0.0127 -0.17145,-0.0127 -0.066675,0 -0.142875,0.01 -0.073025,0.01 -0.136525,0.0413 -0.060325,0.0286 -0.1016,0.0825 -0.041275,0.0508 -0.041275,0.13653 0,0.15875 0.1016,0.22225 0.1016,0.0603 0.276225,0.0603 z m -0.0254,-1.47955 q 0.1778,0 0.29845,0.0476 0.123825,0.0444 0.19685,0.13017 0.0762,0.0825 0.10795,0.20003 0.03175,0.1143 0.03175,0.254 v 1.03187 q -0.0381,0.006 -0.10795,0.019 -0.066675,0.01 -0.1524,0.0191 -0.085725,0.01 -0.187325,0.0159 -0.098425,0.01 -0.19685,0.01 -0.1397,0 -0.257175,-0.0286 -0.117475,-0.0286 -0.2032,-0.0889 -0.085725,-0.0635 -0.13335,-0.1651 -0.047625,-0.1016 -0.047625,-0.24448 0,-0.13652 0.053975,-0.23495 0.05715,-0.0984 0.1524,-0.15875 0.09525,-0.0603 0.22225,-0.0889 0.127,-0.0286 0.2667,-0.0286 0.04445,0 0.092075,0.006 0.047625,0.003 0.0889,0.0127 0.04445,0.006 0.0762,0.0127 0.03175,0.006 0.04445,0.01 v -0.0825 q 0,-0.073 -0.015875,-0.14287 -0.015875,-0.073 -0.05715,-0.127 -0.041275,-0.0571 -0.1143,-0.0889 -0.06985,-0.0349 -0.18415,-0.0349 -0.14605,0 -0.257175,0.0222 -0.10795,0.0191 -0.161925,0.0413 l -0.034925,-0.24447 q 0.05715,-0.0254 0.1905,-0.0476 0.13335,-0.0254 0.288925,-0.0254 z" />
        <path
           id="path579"
           style="fill:#aa8800;stroke-width:0.26458332"
           d="m 2.9302518,295.29215 h 0.1777999 q 0.104775,-0.1524 0.1651,-0.31433 0.0635,-0.16192 0.09525,-0.33337 0.03175,-0.17463 0.041275,-0.36195 0.00953,-0.1905 0.0127,-0.40005 h 1.082675 v 1.4097 h 0.22225 v 0.70167 h -0.2794 v -0.46037 h -1.23825 v 0.46037 H 2.9302518 Z m 1.2795249,0 v -1.16205 h -0.517525 q -0.00317,0.14922 -0.015875,0.30162 -0.0127,0.14923 -0.041275,0.29845 -0.028575,0.14605 -0.08255,0.28893 -0.0508,0.1397 -0.130175,0.27305 z" />
        <path
           id="path581"
           style="fill:#aa8800;stroke-width:0.26458332"
           d="m 5.6067727,295.32072 q 0.104775,0 0.18415,-0.003 0.08255,-0.006 0.136525,-0.019 v -0.49213 q -0.03175,-0.0159 -0.104775,-0.0254 -0.06985,-0.0127 -0.17145,-0.0127 -0.066675,0 -0.142875,0.01 -0.073025,0.01 -0.136525,0.0413 -0.060325,0.0286 -0.1016,0.0825 -0.041275,0.0508 -0.041275,0.13653 0,0.15875 0.1016,0.22225 0.1016,0.0603 0.276225,0.0603 z m -0.0254,-1.47955 q 0.1778,0 0.29845,0.0476 0.123825,0.0444 0.19685,0.13017 0.0762,0.0825 0.10795,0.20003 0.03175,0.1143 0.03175,0.254 v 1.03187 q -0.0381,0.006 -0.10795,0.019 -0.066675,0.01 -0.1524,0.0191 -0.085725,0.01 -0.187325,0.0159 -0.098425,0.01 -0.19685,0.01 -0.1397,0 -0.257175,-0.0286 -0.117475,-0.0286 -0.2032,-0.0889 -0.085725,-0.0635 -0.13335,-0.1651 -0.047625,-0.1016 -0.047625,-0.24448 0,-0.13652 0.053975,-0.23495 0.05715,-0.0984 0.1524,-0.15875 0.09525,-0.0603 0.22225,-0.0889 0.127,-0.0286 0.2667,-0.0286 0.04445,0 0.092075,0.006 0.047625,0.003 0.0889,0.0127 0.04445,0.006 0.0762,0.0127 0.03175,0.006 0.04445,0.01 v -0.0825 q 0,-0.073 -0.015875,-0.14287 -0.015875,-0.073 -0.05715,-0.127 -0.041275,-0.0571 -0.1143,-0.0889 -0.06985,-0.0349 -0.18415,-0.0349 -0.14605,0 -0.257175,0.0222 -0.10795,0.0191 -0.161925,0.0413 l -0.034925,-0.24447 q 0.05715,-0.0254 0.1905,-0.0476 0.13335,-0.0254 0.288925,-0.0254 z" />
        <path
           id="path583"
           style="fill:#aa8800;stroke-width:0.26458332"
           d="m 7.0196454,294.31742 q -0.03175,0.31433 -0.047625,0.62865 -0.015875,0.31115 -0.0254,0.58738 h -0.282575 q 0.00635,-0.19368 0.01905,-0.40323 0.0127,-0.21272 0.028575,-0.42545 0.015875,-0.2159 0.034925,-0.42227 0.01905,-0.20955 0.041275,-0.40005 h 0.269875 q 0.1016,0.1651 0.238125,0.45402 0.136525,0.28575 0.314325,0.6604 0.1778,-0.37465 0.314325,-0.6604 0.136525,-0.28892 0.238125,-0.45402 h 0.27305 q 0.022225,0.1905 0.041275,0.40005 0.01905,0.20637 0.034925,0.42227 0.015875,0.21273 0.028575,0.42545 0.0127,0.20955 0.01905,0.40323 h -0.2921 q -0.00953,-0.27623 -0.0254,-0.58738 -0.015875,-0.31432 -0.047625,-0.62865 -0.0508,0.0984 -0.117475,0.23813 -0.066675,0.13652 -0.13335,0.2794 -0.0635,0.14287 -0.12065,0.27305 -0.05715,0.13017 -0.0889,0.20637 h -0.24765 q -0.034925,-0.0794 -0.09525,-0.20955 -0.05715,-0.13017 -0.123825,-0.27305 -0.0635,-0.14605 -0.130175,-0.28257 -0.066675,-0.1397 -0.117475,-0.23178 z" />
        <path
           id="path585"
           style="fill:#aa8800;stroke-width:0.26458332"
           d="m 8.8230423,295.29215 h 0.1778 q 0.104775,-0.1524 0.1651,-0.31433 0.0635,-0.16192 0.09525,-0.33337 0.03175,-0.17463 0.041275,-0.36195 0.00953,-0.1905 0.0127,-0.40005 h 1.0826747 v 1.4097 h 0.22225 v 0.70167 h -0.2794 v -0.46037 H 9.1024423 v 0.46037 h -0.2794 z m 1.2795247,0 V 294.1301 H 9.5850423 q -0.00317,0.14922 -0.015875,0.30162 -0.0127,0.14923 -0.041275,0.29845 -0.028575,0.14605 -0.08255,0.28893 -0.0508,0.1397 -0.130175,0.27305 z" />
        <path
           id="path587"
           style="fill:#aa8800;stroke-width:0.26458332"
           d="m 11.499564,295.32072 q 0.104775,0 0.18415,-0.003 0.08255,-0.006 0.136525,-0.019 v -0.49213 q -0.03175,-0.0159 -0.104775,-0.0254 -0.06985,-0.0127 -0.17145,-0.0127 -0.06668,0 -0.142875,0.01 -0.07303,0.01 -0.136525,0.0413 -0.06033,0.0286 -0.1016,0.0825 -0.04128,0.0508 -0.04128,0.13653 0,0.15875 0.1016,0.22225 0.1016,0.0603 0.276225,0.0603 z m -0.0254,-1.47955 q 0.1778,0 0.29845,0.0476 0.123825,0.0444 0.19685,0.13017 0.0762,0.0825 0.10795,0.20003 0.03175,0.1143 0.03175,0.254 v 1.03187 q -0.0381,0.006 -0.10795,0.019 -0.06668,0.01 -0.1524,0.0191 -0.08573,0.01 -0.187325,0.0159 -0.09842,0.01 -0.19685,0.01 -0.1397,0 -0.257175,-0.0286 -0.117475,-0.0286 -0.2032,-0.0889 -0.08572,-0.0635 -0.13335,-0.1651 -0.04763,-0.1016 -0.04763,-0.24448 0,-0.13652 0.05397,-0.23495 0.05715,-0.0984 0.1524,-0.15875 0.09525,-0.0603 0.22225,-0.0889 0.127,-0.0286 0.2667,-0.0286 0.04445,0 0.09208,0.006 0.04763,0.003 0.0889,0.0127 0.04445,0.006 0.0762,0.0127 0.03175,0.006 0.04445,0.01 v -0.0825 q 0,-0.073 -0.01588,-0.14287 -0.01587,-0.073 -0.05715,-0.127 -0.04127,-0.0571 -0.1143,-0.0889 -0.06985,-0.0349 -0.18415,-0.0349 -0.14605,0 -0.257175,0.0222 -0.10795,0.0191 -0.161925,0.0413 l -0.03493,-0.24447 q 0.05715,-0.0254 0.1905,-0.0476 0.13335,-0.0254 0.288925,-0.0254 z" />
        <path
           id="path589"
           style="fill:#aa8800;stroke-width:0.26458332"
           d="m 13.744286,294.71112 q 0,-0.28892 -0.142875,-0.4445 -0.142875,-0.15557 -0.381,-0.15557 -0.13335,0 -0.20955,0.01 -0.07302,0.01 -0.117475,0.0222 v 1.0414 q 0.05398,0.0445 0.155575,0.0857 0.1016,0.0413 0.22225,0.0413 0.127,0 0.2159,-0.0444 0.09207,-0.0476 0.149225,-0.127 0.05715,-0.0825 0.08255,-0.1905 0.0254,-0.11113 0.0254,-0.23813 z m 0.307975,0 q 0,0.18733 -0.0508,0.34608 -0.04763,0.15875 -0.142875,0.27305 -0.09525,0.1143 -0.23495,0.1778 -0.136525,0.0635 -0.314325,0.0635 -0.142875,0 -0.254,-0.0381 -0.10795,-0.0381 -0.161925,-0.073 v 0.6604 h -0.295275 v -2.18757 q 0.104775,-0.0254 0.26035,-0.054 0.15875,-0.0318 0.365125,-0.0318 0.1905,0 0.3429,0.0603 0.1524,0.0603 0.26035,0.17145 0.10795,0.11112 0.1651,0.27305 0.06032,0.15875 0.06032,0.35877 z" />
      </g>
    </g>
  </g>
</svg>
