<?xml version="1.0" encoding="UTF-8" standalone="no"?>
<svg
   xmlns:dc="http://purl.org/dc/elements/1.1/"
   xmlns:cc="http://creativecommons.org/ns#"
   xmlns:rdf="http://www.w3.org/1999/02/22-rdf-syntax-ns#"
   xmlns:svg="http://www.w3.org/2000/svg"
   xmlns="http://www.w3.org/2000/svg"
   id="svg8"
   version="1.1"
   viewBox="0 0 60.000003 4.5999999"
   height="4.5999999mm"
   width="60mm">
  <defs
     id="defs2" />
  <metadata
     id="metadata5">
    <rdf:RDF>
      <cc:Work
         rdf:about="">
        <dc:format>image/svg+xml</dc:format>
        <dc:type
           rdf:resource="http://purl.org/dc/dcmitype/StillImage" />
        <dc:title></dc:title>
      </cc:Work>
    </rdf:RDF>
  </metadata>
  <g
     transform="translate(0,-292.39999)"
     id="layer1">
    <g
       id="g62">
      <text
         id="text468"
         y="165.90617"
         x="21.281464"
         style="font-style:normal;font-variant:normal;font-weight:normal;font-stretch:normal;font-size:6.3499999px;line-height:1.25;font-family:Ubuntu;-inkscape-font-specification:Ubuntu;letter-spacing:0px;word-spacing:0px;fill:#806600;fill-opacity:1;stroke:none;stroke-width:0.26458332"
         xml:space="preserve"><tspan
           style="font-size:6.3499999px;fill:#806600;stroke-width:0.26458332"
           y="171.8275"
           x="21.281464"
           id="tspan466" /></text>
      <g
         id="text715"
         style="font-style:normal;font-variant:normal;font-weight:normal;font-stretch:normal;font-size:3.52777767px;line-height:1.25;font-family:Ubuntu;-inkscape-font-specification:Ubuntu;letter-spacing:0px;word-spacing:0px;fill:#000000;fill-opacity:1;stroke:none;stroke-width:0.26458332"
         aria-label="адамдар">
        <path
           id="path747"
           style="fill:#d4aa00;stroke-width:0.26458332"
           d="m 2.1932982,295.39615 q 0.1164167,0 0.2046111,-0.004 0.091722,-0.007 0.1516944,-0.0212 v -0.5468 q -0.035278,-0.0176 -0.1164166,-0.0282 -0.077611,-0.0141 -0.1905,-0.0141 -0.074083,0 -0.15875,0.0106 -0.081139,0.0106 -0.1516944,0.0459 -0.067028,0.0318 -0.1128889,0.0917 -0.045861,0.0564 -0.045861,0.15169 0,0.17639 0.1128888,0.24695 0.1128889,0.067 0.3069167,0.067 z M 2.165076,293.7522 q 0.1975555,0 0.3316111,0.0529 0.1375833,0.0494 0.2187222,0.14464 0.084667,0.0917 0.1199444,0.22225 0.035278,0.127 0.035278,0.28222 v 1.14653 q -0.042333,0.007 -0.1199444,0.0212 -0.074083,0.0106 -0.1693334,0.0212 -0.09525,0.0106 -0.2081388,0.0176 -0.1093611,0.0106 -0.2187222,0.0106 -0.1552223,0 -0.28575,-0.0317 -0.1305278,-0.0318 -0.2257778,-0.0988 -0.09525,-0.0706 -0.1481667,-0.18345 -0.052917,-0.11289 -0.052917,-0.27164 0,-0.15169 0.059972,-0.26105 0.0635,-0.10936 0.1693333,-0.17639 0.1058333,-0.067 0.2469444,-0.0988 0.1411112,-0.0318 0.2963334,-0.0318 0.049389,0 0.1023055,0.007 0.052917,0.004 0.098778,0.0141 0.049389,0.007 0.084667,0.0141 0.035278,0.007 0.049389,0.0106 v -0.0917 q 0,-0.0811 -0.017639,-0.15875 -0.017639,-0.0811 -0.0635,-0.14111 -0.045861,-0.0635 -0.127,-0.0988 -0.077611,-0.0388 -0.2046111,-0.0388 -0.1622778,0 -0.28575,0.0247 -0.1199445,0.0212 -0.1799167,0.0459 l -0.038806,-0.27164 q 0.0635,-0.0282 0.2116666,-0.0529 0.1481667,-0.0282 0.3210278,-0.0282 z" />
        <path
           id="path749"
           style="fill:#d4aa00;stroke-width:0.26458332"
           d="m 3.1881292,295.3644 h 0.1975556 q 0.1164166,-0.16934 0.1834444,-0.34925 0.070556,-0.17992 0.1058333,-0.37042 0.035278,-0.19403 0.045861,-0.40217 0.010583,-0.21166 0.014111,-0.4445 h 1.2029721 v 1.56634 h 0.2469445 v 0.77964 H 4.8744069 v -0.51153 H 3.4985737 v 0.51153 H 3.1881292 Z m 1.4216944,0 v -1.29117 H 4.0347959 q -0.00353,0.16581 -0.017639,0.33514 -0.014111,0.1658 -0.045861,0.33161 -0.03175,0.16228 -0.091722,0.32103 -0.056444,0.15522 -0.1446388,0.30339 z" />
        <path
           id="path751"
           style="fill:#d4aa00;stroke-width:0.26458332"
           d="m 6.1620413,295.39615 q 0.1164167,0 0.2046111,-0.004 0.091722,-0.007 0.1516944,-0.0212 v -0.5468 q -0.035278,-0.0176 -0.1164166,-0.0282 -0.077611,-0.0141 -0.1905,-0.0141 -0.074083,0 -0.15875,0.0106 -0.081139,0.0106 -0.1516945,0.0459 -0.067028,0.0318 -0.1128888,0.0917 -0.045861,0.0564 -0.045861,0.15169 0,0.17639 0.1128889,0.24695 0.1128889,0.067 0.3069167,0.067 z m -0.028222,-1.64395 q 0.1975555,0 0.3316111,0.0529 0.1375833,0.0494 0.2187222,0.14464 0.084667,0.0917 0.1199444,0.22225 0.035278,0.127 0.035278,0.28222 v 1.14653 q -0.042333,0.007 -0.1199444,0.0212 -0.074083,0.0106 -0.1693334,0.0212 -0.09525,0.0106 -0.2081388,0.0176 -0.1093612,0.0106 -0.2187223,0.0106 -0.1552222,0 -0.28575,-0.0317 -0.1305277,-0.0318 -0.2257777,-0.0988 -0.09525,-0.0706 -0.1481667,-0.18345 -0.052917,-0.11289 -0.052917,-0.27164 0,-0.15169 0.059972,-0.26105 0.0635,-0.10936 0.1693333,-0.17639 0.1058333,-0.067 0.2469444,-0.0988 0.1411111,-0.0318 0.2963334,-0.0318 0.049389,0 0.1023055,0.007 0.052917,0.004 0.098778,0.0141 0.049389,0.007 0.084667,0.0141 0.035278,0.007 0.049389,0.0106 v -0.0917 q 0,-0.0811 -0.017639,-0.15875 -0.017639,-0.0811 -0.0635,-0.14111 -0.045861,-0.0635 -0.1269999,-0.0988 -0.077611,-0.0388 -0.2046112,-0.0388 -0.1622777,0 -0.2857499,0.0247 -0.1199445,0.0212 -0.1799167,0.0459 l -0.038806,-0.27164 q 0.0635,-0.0282 0.2116667,-0.0529 0.1481667,-0.0282 0.3210278,-0.0282 z" />
        <path
           id="path753"
           style="fill:#d4aa00;stroke-width:0.26458332"
           d="m 7.7319001,294.28137 q -0.035278,0.34925 -0.052917,0.6985 -0.017639,0.34572 -0.028222,0.65264 H 7.336789 q 0.00706,-0.2152 0.021167,-0.44803 0.014111,-0.23636 0.03175,-0.47272 0.017639,-0.23989 0.038806,-0.4692 0.021167,-0.23283 0.045861,-0.4445 h 0.2998611 q 0.1128889,0.18345 0.2645833,0.50448 0.1516945,0.3175 0.34925,0.73377 0.1975556,-0.41627 0.34925,-0.73377 0.1516944,-0.32103 0.2645833,-0.50448 h 0.3033889 q 0.024694,0.21167 0.045861,0.4445 0.021167,0.22931 0.038806,0.4692 0.017639,0.23636 0.03175,0.47272 0.014111,0.23283 0.021167,0.44803 H 9.1183167 q -0.010583,-0.30692 -0.028222,-0.65264 -0.017639,-0.34925 -0.052917,-0.6985 -0.056444,0.10936 -0.1305278,0.26458 -0.074083,0.1517 -0.1481666,0.31045 -0.070556,0.15875 -0.1340556,0.30339 -0.0635,0.14463 -0.098778,0.2293 H 8.2504834 q -0.038806,-0.0882 -0.1058333,-0.23283 -0.0635,-0.14464 -0.1375834,-0.30339 -0.070555,-0.16228 -0.1446389,-0.31397 -0.074083,-0.15523 -0.1305277,-0.25753 z" />
        <path
           id="path755"
           style="fill:#d4aa00;stroke-width:0.26458332"
           d="M 9.7356744,295.3644 H 9.93323 q 0.116417,-0.16934 0.183444,-0.34925 0.07056,-0.17992 0.105834,-0.37042 0.03528,-0.19403 0.04586,-0.40217 0.01058,-0.21166 0.01411,-0.4445 h 1.202972 v 1.56634 h 0.246945 v 0.77964 h -0.310445 v -0.51153 h -1.375833 v 0.51153 H 9.7356744 Z m 1.4216946,0 v -1.29117 h -0.575028 q -0.0035,0.16581 -0.01764,0.33514 -0.01411,0.1658 -0.04586,0.33161 -0.03175,0.16228 -0.09172,0.32103 -0.05645,0.15522 -0.144639,0.30339 z" />
        <path
           id="path757"
           style="fill:#d4aa00;stroke-width:0.26458332"
           d="m 12.709586,295.39615 q 0.116417,0 0.204611,-0.004 0.09172,-0.007 0.151695,-0.0212 v -0.5468 q -0.03528,-0.0176 -0.116417,-0.0282 -0.07761,-0.0141 -0.1905,-0.0141 -0.07408,0 -0.15875,0.0106 -0.08114,0.0106 -0.151695,0.0459 -0.06703,0.0318 -0.112888,0.0917 -0.04586,0.0564 -0.04586,0.15169 0,0.17639 0.112889,0.24695 0.112889,0.067 0.306917,0.067 z m -0.02822,-1.64395 q 0.197555,0 0.331611,0.0529 0.137583,0.0494 0.218722,0.14464 0.08467,0.0917 0.119945,0.22225 0.03528,0.127 0.03528,0.28222 v 1.14653 q -0.04233,0.007 -0.119944,0.0212 -0.07408,0.0106 -0.169333,0.0212 -0.09525,0.0106 -0.208139,0.0176 -0.109361,0.0106 -0.218723,0.0106 -0.155222,0 -0.28575,-0.0317 -0.130527,-0.0318 -0.225777,-0.0988 -0.09525,-0.0706 -0.148167,-0.18345 -0.05292,-0.11289 -0.05292,-0.27164 0,-0.15169 0.05997,-0.26105 0.0635,-0.10936 0.169333,-0.17639 0.105833,-0.067 0.246944,-0.0988 0.141111,-0.0318 0.296334,-0.0318 0.04939,0 0.102305,0.007 0.05292,0.004 0.09878,0.0141 0.04939,0.007 0.08467,0.0141 0.03528,0.007 0.04939,0.0106 v -0.0917 q 0,-0.0811 -0.01764,-0.15875 -0.01764,-0.0811 -0.0635,-0.14111 -0.04586,-0.0635 -0.127,-0.0988 -0.07761,-0.0388 -0.204611,-0.0388 -0.162278,0 -0.28575,0.0247 -0.119945,0.0212 -0.179917,0.0459 l -0.03881,-0.27164 q 0.0635,-0.0282 0.211667,-0.0529 0.148167,-0.0282 0.321028,-0.0282 z" />
        <path
           id="path759"
           style="fill:#d4aa00;stroke-width:0.26458332"
           d="m 15.203723,294.71881 q 0,-0.32102 -0.15875,-0.49389 -0.15875,-0.17286 -0.423333,-0.17286 -0.148167,0 -0.232833,0.0106 -0.08114,0.0106 -0.130528,0.0247 v 1.15711 q 0.05997,0.0494 0.172861,0.0953 0.112889,0.0459 0.246944,0.0459 0.141111,0 0.239889,-0.0494 0.102306,-0.0529 0.165806,-0.14111 0.0635,-0.0917 0.09172,-0.21166 0.02822,-0.12348 0.02822,-0.26459 z m 0.342195,0 q 0,0.20814 -0.05645,0.38453 -0.05292,0.17639 -0.15875,0.30339 -0.105833,0.127 -0.261055,0.19756 -0.151695,0.0706 -0.34925,0.0706 -0.15875,0 -0.282223,-0.0423 -0.119944,-0.0423 -0.179916,-0.0811 v 0.73378 h -0.328083 v -2.43064 q 0.116416,-0.0282 0.289277,-0.06 0.176389,-0.0353 0.405695,-0.0353 0.211666,0 0.381,0.067 0.169333,0.067 0.289277,0.1905 0.119945,0.12347 0.183445,0.30338 0.06703,0.17639 0.06703,0.39864 z" />
      </g>
    </g>
  </g>
</svg>
