<svg xmlns="http://www.w3.org/2000/svg" xmlns:xlink="http://www.w3.org/1999/xlink" width="82.772" height="20.409" viewBox="0 0 21.9 5.4" xmlns:v="https://vecta.io/nano"><style><![CDATA[.B{font-size:3.528px}.C{font-family:Segoe Print}.D{word-spacing:0px}.E{writing-mode:lr-tb}.F{fill:#917c6f}]]></style><text y="-37.218" x="114.134" xml:space="preserve" letter-spacing="0" class="B C D E F"><tspan y="-37.218" x="114.134">адамдар</tspan><tspan y="-30.068" x="114.134">бөлме ғимарат жобалар</tspan><tspan y="-22.918" x="114.134">ғарыш тылсым әлем</tspan><tspan y="-15.767" x="114.134">гүлдер</tspan><tspan y="-8.617" x="114.134">өсімдіктер</tspan><tspan y="-1.466" x="114.134">қалыпталған кескіндер</tspan><tspan y="5.684" x="114.134">қолданыс заттары</tspan><tspan y="12.74" x="114.134">жаныуарлар</tspan><tspan y="19.89" x="114.134">өнер білім спорт</tspan><tspan y="26.946" x="114.134">art education sports</tspan><tspan y="34.107" x="114.134">美術教育スポーツ</tspan><tspan y="41.257" x="114.134">الرياضة التربية الفنية</tspan><tspan y="48.408" x="114.134">сән үлгілері</tspan><tspan y="55.558" x="114.134">тәбіиғат</tspan><tspan y="62.614" x="114.134">елмекен</tspan></text><text y="-37.24" x="162.734" xml:space="preserve" letter-spacing="0" class="B C D E F"><tspan y="-37.24" x="162.734">үи</tspan><tspan y="-30.09" x="162.734">пәтер</tspan><tspan y="-22.939" x="162.734">бөлме алаң</tspan><tspan y="-15.789" x="162.734">ғимарат</tspan><tspan y="-8.733" x="162.734">жер телімі</tspan><tspan y="-1.583" x="162.734">қызымет</tspan></text><text y="-37.864" x="190.455" xml:space="preserve" letter-spacing="0" class="B C D E F"><tspan y="-37.864" x="190.455">жеңіл</tspan><tspan y="-30.808" x="190.455">жолаушылар</tspan><tspan y="-23.658" x="190.455">жүк</tspan><tspan y="-16.507" x="190.455">қызыметтік</tspan><tspan y="-9.452" x="190.455">белсебет</tspan><tspan y="-2.396" x="190.455">мотосекл</tspan><tspan y="4.754" x="190.455">сұу</tspan><tspan y="11.905" x="190.455">әуе</tspan><tspan y="19.055" x="190.455">қызымет</tspan></text><text y="-37.893" x="265.973" xml:space="preserve" letter-spacing="0" class="B C D E F"><tspan y="-37.893" x="265.973">бас кіиім</tspan><tspan y="-30.742" x="265.973">үстіңгі</tspan><tspan y="-23.592" x="265.973">астыңғы</tspan><tspan y="-16.442" x="265.973">аиақ</tspan><tspan y="-9.386" x="265.973">спорт</tspan><tspan y="-2.33" x="265.973">балалар</tspan><tspan y="4.725" x="265.973">арнаиы</tspan><tspan y="11.876" x="265.973">қызымет</tspan></text><text y="-38.091" x="288.034" xml:space="preserve" letter-spacing="0" class="B C D E F"><tspan y="-38.091" x="288.034">ас үи</tspan><tspan y="-30.941" x="288.034">құрал</tspan><tspan y="-23.79" x="288.034">құрылғы</tspan><tspan y="-16.64" x="288.034">бақша</tspan><tspan y="-9.584" x="288.034">оиын</tspan><tspan y="-2.434" x="288.034">зат-қызымет</tspan></text><text y="-38.166" x="319.277" xml:space="preserve" letter-spacing="0" class="B C D E F"><tspan y="-38.166" x="319.277">әк үнтақ</tspan><tspan y="-31.111" x="319.277">боиау</tspan><tspan y="-23.96" x="319.277">түс қағаз</tspan><tspan y="-16.81" x="319.277">кірпіш тұтас бетон</tspan><tspan y="-9.659" x="319.277">ағаш пластік ұқсастар</tspan><tspan y="-2.509" x="319.277">метал көмпөзіт ұқсастар</tspan><tspan y="4.547" x="319.277">есік терезе</tspan><tspan y="11.697" x="319.277">су кәріз жылытыу ауа тораптары</tspan><tspan y="18.848" x="319.277">електр басқа желілер</tspan><tspan y="25.998" x="319.277">сәулет сәндеу жобалау</tspan><tspan y="33.149" x="319.277">қызымет</tspan></text><text y="-38.443" x="391.499" xml:space="preserve" letter-spacing="0" class="B C D E F"><tspan y="-38.443" x="391.499">тазартыу</tspan><tspan y="-31.293" x="391.499">әтір саулық</tspan><tspan y="-24.143" x="391.499">қызымет</tspan></text><text y="-38.187" x="421.027" xml:space="preserve" letter-spacing="0" class="B C D E F"><tspan y="-38.187" x="421.027">ас үи</tspan><tspan y="-31.036" x="421.027">қонақ</tspan><tspan y="-23.981" x="421.027">жатын</tspan><tspan y="-16.83" x="421.027">кеңсе</tspan><tspan y="-9.68" x="421.027">көпшілік</tspan><tspan y="-2.624" x="421.027">арнаиы</tspan><tspan y="4.526" x="421.027">қызымет</tspan><tspan y="18.732" x="421.027">дәптер</tspan><tspan y="25.883" x="421.027">кітәп</tspan><tspan y="32.939" x="421.027">жазыу сызыу</tspan><tspan y="39.994" x="421.027">боиау</tspan><tspan y="47.145" x="421.027">қағаз</tspan><tspan y="54.295" x="421.027">құрал</tspan><tspan y="61.445" x="421.027">қызымет</tspan><tspan y="75.651" x="421.027">ағаш</tspan><tspan y="82.802" x="421.027">шөп</tspan><tspan y="89.952" x="421.027">гүл</tspan><tspan y="97.103" x="421.027">саңырауқұлақ</tspan><tspan y="104.253" x="421.027">дәнді-дақыл</tspan><tspan y="111.404" x="421.027">қызымет</tspan><tspan y="125.61" x="421.027">үи жаныуары</tspan><tspan y="132.76" x="421.027">тәбіиғат жаныуары</tspan><tspan y="139.911" x="421.027">қызымет</tspan><tspan y="154.117" x="421.027">көмекші</tspan><tspan y="161.172" x="421.027">емдеу</tspan><tspan y="168.323" x="421.027">сымбат саулық</tspan><tspan y="175.473" x="421.027">заңгерлік</tspan></text><g class="F"><use xlink:href="#B"/><use xlink:href="#C"/><use xlink:href="#D"/><path d="M9.782-11.451q.408-.071.732-.527.152-.212.265-.3.115-.09.245-.09.052 0 .103.047.052.047.052.11 0 .084-.16.133-.084.026-.158.088-.074.062-.281.296-.162.183-.291.257-.012.007-.012.012 0 .007.015.014.126.067.265.26.203.281.305.355.102.072.233.072l.057-.002q.06-.003.06.053 0 .065-.074.136-.074.071-.245.071-.131 0-.255-.112-.122-.114-.281-.367-.091-.15-.171-.227-.079-.078-.176-.078-.021 0-.127.034-.107.034-.121.067-.012.031-.019.229-.005.196-.005.317 0 .064-.06.114-.06.05-.131.05-.072 0-.114-.043-.041-.041-.041-.086 0-.062.047-.293.083-.42.165-1.387.007-.093.071-.167.064-.076.145-.076.045 0 .074.048.031.048.031.124 0 .06-.021.138-.098.357-.122.729z"/><use xlink:href="#E"/><use xlink:href="#F"/><use xlink:href="#E" x="3.172"/><use xlink:href="#G"/><path d="M3.337-3.426v.765h-.336v-.765l-.78-1.898h.336l.603 1.509.603-1.509h.336z"/><use xlink:href="#D" x="-1.802" y="7.151"/><use xlink:href="#H"/><use xlink:href="#E" x="-1.61" y="7.151"/><path d="M10.969-5.324h.317v.794h1.032v-.794h.317v1.666h.317v.751h-.317v-.487h-.317v-.889h-1.032v.889h-.317z"/><path d="M13.157-3.693l-.003-.036q-.017-.174.107-.365.126-.191.629-.444.32-.162.32-.295 0-.071-.059-.109-.059-.038-.102-.038-.129 0-.496.183-.029.016-.034.016-.141 0-.141-.1 0-.162.279-.269.279-.109.486-.109.129 0 .27.103.141.102.141.274 0 .141-.091.272-.091.131-.456.332-.3.165-.407.272-.105.107-.105.241 0 .098.091.129.091.031.138.031.324 0 .579-.134.088-.045.131-.045.09 0 .09.1 0 .152-.245.253-.245.102-.62.102-.179 0-.332-.102-.153-.103-.169-.264z"/><use xlink:href="#E" x="3.452" y="7.151"/><use xlink:href="#C" x="-1.82" y="14.301"/><use xlink:href="#D" x="-1.819" y="14.301"/><use xlink:href="#H" x="-0.017" y="7.15"/><use xlink:href="#I"/><path d="M12.551 1.827h.317v.794H13.9v-.794h.317v1.666h.317v.751h-.317v-.487H13.9v-.889h-1.032v.889h-.317zm2.547 1.929v-.861h-.453v-.293h.453v-.775h1.361v.27h-1.044v.505h.717v.293h-.717v.861z"/><use xlink:href="#I" x="7.031"/><use xlink:href="#C" x="-1.82" y="21.451"/><use xlink:href="#F" x="-8.062" y="21.451"/><use xlink:href="#C" x="2.402" y="21.451"/><use xlink:href="#J"/><use xlink:href="#D" x="-3.889" y="28.507"/><path d="M5.306 16.637q-.09 0-.196.117-.105.117-.322.525-.286.548-.37.624-.083.076-.138.076-.203 0-.203-.196 0-.083.028-.234.095-.52.095-1.097 0-.065.055-.145.057-.081.107-.081.09 0 .127.055.038.055.038.222 0 .174-.103.717-.034.179-.034.227 0 .028.014.028.026 0 .239-.412.215-.419.377-.589.162-.171.357-.171.155 0 .251.141.098.141.143.515.048.425.086.531.04.103.124.103.053 0 .134-.038.014-.007.021-.007.074 0 .074.086 0 .076-.102.162-.102.084-.245.084-.146 0-.227-.115-.079-.117-.126-.622-.048-.506-.203-.506zm1.669 1.411q-.236 0-.389-.179-.153-.179-.153-.443 0-.444.298-.875.3-.432.717-.432.276 0 .446.212.172.212.172.505 0 .448-.355.83-.353.382-.736.382zm-.239-.667q0 .174.072.284.074.11.195.11.257 0 .515-.281.258-.282.258-.627 0-.212-.1-.343-.098-.133-.265-.133-.277 0-.477.341-.198.339-.198.648z"/><use xlink:href="#K"/><use xlink:href="#L"/><use xlink:href="#B" y="35.563"/><use xlink:href="#C" y="35.562"/><path d="M7.2 23.613q-.041-.002-.081.079-.357.713-.539.968-.016.022-.04.065-.215.384-.315.384-.134 0-.134-.129 0-.117.167-.319.162-.191.425-.648.264-.458.427-.822.031-.065.093-.065.026 0 .091.024.067.022.086.05.019.028.084.32.212 1.056.446 1.252.055.048.065.065.01.015.01.045 0 .053-.034.098-.034.043-.067.055-.033.012-.134.012-.036 0-.169-.177-.133-.179-.31-.973-.043-.214-.072-.286z"/><use xlink:href="#C" x="4.177" y="35.562"/><path d="M11.378 23.613q-.041-.002-.081.079-.357.713-.539.968-.015.022-.04.065-.215.384-.315.384-.134 0-.134-.129 0-.117.167-.319.162-.191.425-.648.264-.458.427-.822.031-.065.093-.065.026 0 .091.024.067.022.086.05.019.028.084.32.212 1.056.446 1.252.055.048.065.065.01.015.01.045 0 .053-.034.098-.034.043-.067.055-.033.012-.134.012-.036 0-.169-.177-.133-.179-.31-.973-.043-.214-.072-.286z"/><use xlink:href="#C" x="8.354" y="35.562"/><use xlink:href="#K" x="6.122" y="7.056"/><use xlink:href="#C" x="-1.82" y="42.618"/><use xlink:href="#K" x="-4.052" y="14.111"/><path d="M7.963 30.948q.019-.036.06-.432.031-.317.202-.317.14 0 .14.14 0 .033-.024.133-.133.549-.133.922 0 .403.133.522.069.064.069.103 0 .048-.071.088-.069.04-.126.04-.269 0-.269-.83 0-.055-.041-.055-.162 0-.396.019-.234.019-.336.048-.1.029-.124.055-.022.024-.041.133-.017.107-.017.222v.212q0 .184-.169.184-.141 0-.141-.184 0-.121.031-.307.057-.341.114-1.175.007-.109.019-.138.012-.029.062-.064.052-.036.112-.036.124 0 .124.102 0 .016-.04.258-.041.243-.041.377 0 .095.065.095.131 0 .479-.043.348-.045.36-.071z"/><use xlink:href="#C" x="4.607" y="42.618"/><use xlink:href="#F" x="-1.635" y="42.618"/><use xlink:href="#I" x="3.164" y="28.317"/><use xlink:href="#J" x="-6.292" y="28.317"/><use xlink:href="#I" x="-5.354" y="35.468"/><path d="M7.936 38.164q.222.036.346.164.124.127.124.312 0 .291-.246.486-.246.193-.648.193-.239 0-.413-.103-.172-.103-.172-.229 0-.103.119-.103.017 0 .053.029.189.164.45.164.229 0 .394-.121.165-.121.165-.314 0-.127-.095-.212-.093-.086-.217-.086-.095 0-.332.074-.047.016-.1.016-.103 0-.103-.14 0-.048.048-.078.05-.029.212-.067.491-.112.491-.398 0-.086-.062-.141-.06-.057-.157-.057-.179 0-.382.158-.119.093-.181.093-.105 0-.105-.098 0-.129.243-.264.245-.136.469-.136.224 0 .351.119.129.119.129.25 0 .312-.381.489z"/><use xlink:href="#I" x="-1.039" y="35.468"/><use xlink:href="#G" x="-4.239" y="49.768"/><path d="M15.968 38.639q0 .176-.312.424-.31.248-.641.248-.277 0-.429-.164-.15-.164-.15-.456 0-.493.332-.937.332-.444.727-.444.129 0 .21.084.083.084.083.203 0 .265-.26.508-.26.243-.696.477-.09.047-.09.121 0 .143.083.229.083.086.245.086.37 0 .756-.41.057-.057.086-.057.055 0 .055.088zm-1.197-.269q.73-.434.73-.698 0-.103-.093-.103-.158 0-.358.233-.198.233-.279.568z"/><use xlink:href="#L" x="5.581" y="21.262"/></g><defs ><path id="B" d="M3.357-12.335q-.065-.177-.303-.384-.224-.193-.224-.331 0-.11.072-.177.072-.069.269-.124.245-.067.498-.152.253-.086.305-.11.033-.016.067-.016.057 0 .057.102 0 .057-.138.155-.138.098-.487.183-.22.055-.27.083-.048.026-.048.053 0 .062.134.179.506.443.506 1.111 0 .288-.152.617-.152.327-.405.487-.251.16-.493.16-.217 0-.329-.212-.112-.212-.112-.467 0-.451.277-.851.279-.4.589-.4.041 0 .103.053.057.052.083.04zm-.751 1.164q0 .191.05.3.052.109.134.109.11 0 .298-.136.188-.136.301-.403.115-.267.115-.5 0-.193-.055-.312-.053-.121-.1-.121-.307 0-.525.374-.219.374-.219.689z"/><path id="C" d="M5.325-11.172q-.241.324-.477.486-.236.162-.432.162-.133 0-.229-.112-.096-.112-.096-.288 0-.453.405-.975.405-.524.804-.524.145 0 .215.165.022.055.071.055.138 0 .138.107 0 .053-.017.146-.093.508-.093.717 0 .417.158.5.076.041.076.102 0 .053-.074.107-.074.055-.143.055-.133 0-.219-.183-.086-.183-.086-.52zm-.105-.97q-.227 0-.529.427-.301.425-.301.706 0 .198.131.198.189 0 .525-.382.336-.382.336-.703 0-.246-.162-.246z"/><path id="D" d="M6.704-10.447q-.258 0-.398-.148-.138-.148-.138-.415 0-.45.357-.947.357-.5.663-.5.14 0 .239.152.102.15.102.319 0 .102-.045.176-.043.072-.088.072-.1 0-.141-.202-.047-.217-.134-.217-.179 0-.424.425-.245.425-.245.718 0 .293.332.293.253 0 .596-.238.121-.084.177-.084.059 0 .059.067 0 .131-.308.331-.308.198-.605.198z"/><path id="E" d="M12.011-12.852q-.036 0-.055-.078-.007-.024-.019-.053-.047-.112-.047-.195 0-.069.081-.14.083-.072.183-.072.05 0 .112.04.062.038.062.074 0 .057-.043.193-.041.136-.134.184-.091.047-.14.047zm-.226 1.924q0 .131.036.295.007.031.007.052 0 .031-.057.079-.057.05-.121.05-.167 0-.167-.307 0-.317.131-1.003.045-.239.045-.295 0-.109.04-.184.04-.078.112-.078.088 0 .138.043.052.041.052.093 0 .052-.024.136-.129.455-.16.651-.031.196-.031.467z"/><path id="F" d="M13.693-11.294q-.22.37-.451.574-.231.203-.429.203-.114 0-.233-.133-.117-.133-.117-.408 0-.226.109-.665.091-.367.091-.515.05-.103.157-.103.072 0 .115.052.043.05.043.105 0 .121-.084.343-.16.432-.16.742 0 .282.131.282.167 0 .425-.284.258-.284.443-.792.072-.203.117-.264.047-.062.124-.062.117 0 .117.155 0 .019-.033.126-.103.377-.103.713 0 .403.133.522.069.064.069.103 0 .048-.071.088-.069.04-.126.04-.121 0-.195-.179-.074-.179-.074-.529v-.057q0-.028.002-.057z"/><path id="G" d="M17.846-12.054q-.14.224-.393.758-.057.121-.115.233-.019.036-.072.16-.181.42-.315.42-.107 0-.157-.026-.048-.026-.093-.141-.045-.115-.133-.543-.102-.484-.138-.596-.117.264-.208.508-.138.36-.267.587-.129.226-.186.27-.057.047-.109.047-.053 0-.096-.041-.043-.041-.043-.081.01-.071.024-.088.15-.184.258-.393.109-.208.276-.625.169-.417.215-.684.022-.114.167-.114.084 0 .115.026.031.026.06.105.031.079.036.141.01.074.059.329.043.239.057.339.024.143.084.376.062.233.096.233.024 0 .069-.105l.145-.334q.04-.091.084-.179l.198-.405q.162-.334.248-.484.088-.152.117-.183.031-.031.069-.031.065 0 .146.036.081.034.084.078.003.043.015.36l.022.537q.01.257.031.438.021.179.072.289.081.176.081.272 0 .083-.069.114-.067.031-.126.031-.121 0-.186-.193-.064-.193-.093-1.106-.01-.274-.033-.336z"/><path id="H" d="M7.521-4.757q-.16.003-.686.949-.177.319-.207.348-.029.028-.109.05-.078.022-.129.022-.115 0-.115-.45 0-.253.109-.916.045-.269.045-.384 0-.114.102-.114.191 0 .191.276 0 .129-.064.506-.074.431-.076.524.107-.103.314-.453.293-.479.431-.606.14-.129.288-.129.112 0 .177.15.067.15.081.715.003.141.026.21.022.069.033.069.081 0 .351-.551.145-.291.281-.443.138-.152.305-.152.14 0 .203.145.064.143.091.425.026.286.079.524.055.238.2.305.098.047.098.109 0 .06-.083.124-.083.064-.152.064-.138 0-.246-.169-.109-.169-.164-.73-.024-.226-.047-.32-.022-.095-.071-.095-.072 0-.172.138-.098.138-.319.56-.172.329-.262.439-.088.109-.171.109-.074 0-.133-.059-.059-.06-.074-.143-.016-.084-.033-.412-.026-.544-.095-.634z"/><path id="I" d="M10.229 1.804q.022-.016.05-.016.043 0 .072.115 0 .074-.04.188-.117.326-.117.455 0 .034.021.038.396-.381.734-.381.208 0 .35.158.141.157.141.288 0 .4-.408.768-.407.367-.82.367-.184 0-.288-.152-.102-.153-.102-.438 0-.308.078-.682.078-.374.124-.5.019-.053.034-.109.017-.069.171-.102zm-.081 1.08q-.034.191-.034.382 0 .26.205.26.231 0 .517-.276.286-.276.286-.536 0-.107-.057-.179-.057-.072-.157-.072-.136 0-.269.069-.131.067-.293.219-.062.059-.1.091-.036.031-.098.041zm1.735.396q0 .131.036.295.007.031.007.052 0 .031-.057.081-.057.048-.121.048-.167 0-.167-.307 0-.305.133-1.023.048-.262.048-.317 0-.109.04-.184.04-.078.112-.078.088 0 .138.043.052.041.052.093 0 .052-.024.143-.134.491-.165.687-.031.196-.031.467z"/><path id="J" d="M8.728 8.977h.315v.906l.894-.906h.389l-.737.746.646.92h.245v.751h-.317v-.487h-.096l-.684-.973-.339.345v.629h-.315z"/><path id="K" d="M8.799 17.762q-.084.31-.158.87l-.048.326q-.012.069-.064.136-.052.069-.095.069-.053 0-.122-.055-.067-.053-.067-.086 0-.095.043-.262.315-1.273.315-2.236l-.002-.145q-.003-.186.065-.27.069-.084.158-.084.041 0 .079.065.038.064.038.183 0 .167-.034.405-.045.3-.047.345.257-.448.544-.699.288-.251.534-.251.174 0 .293.131.121.129.121.322 0 .562-.431 1.02-.431.458-.839.458-.102 0-.162-.052-.059-.052-.122-.188zm1.07-1.387q-.243 0-.601.455-.358.455-.358.708 0 .062.071.121.071.059.179.059.246 0 .567-.363.32-.365.32-.717 0-.126-.052-.193-.05-.069-.126-.069z"/><path id="L" d="M12.048 16.599q-.16.003-.686.949-.177.319-.207.348-.029.028-.109.05-.078.022-.129.022-.115 0-.115-.45 0-.253.109-.916.045-.269.045-.384 0-.114.102-.114.191 0 .191.276 0 .129-.064.506-.074.431-.076.524.107-.103.314-.453.293-.479.431-.606.14-.129.288-.129.112 0 .177.15.067.15.081.715.003.141.026.21.022.069.033.069.081 0 .351-.551.145-.291.281-.443.138-.152.305-.152.14 0 .203.145.064.143.091.425.026.286.079.524.055.238.2.305.098.047.098.109 0 .06-.083.124-.083.064-.152.064-.138 0-.246-.169-.109-.169-.164-.73-.024-.226-.047-.32-.022-.095-.071-.095-.072 0-.172.138-.098.138-.319.56-.172.329-.262.439-.088.109-.171.109-.074 0-.133-.059-.059-.06-.074-.143-.015-.084-.033-.412-.026-.544-.095-.634z"/></defs></svg>