<svg xmlns="http://www.w3.org/2000/svg" viewBox="0 0 50.9 5.4" height="20.409" width="192.378"><g transform="translate(0 -291.6)" font-weight="400" font-family="Segoe Print" letter-spacing="0" word-spacing="0"><flowRoot transform="matrix(.26458 0 0 .26458 0 226.6)" style="line-height:1.25;-inkscape-font-specification:'Segoe Print';font-variant-ligatures:normal;font-variant-caps:normal;font-variant-numeric:normal;font-feature-settings:normal;text-align:start" xml:space="preserve" font-style="normal" font-variant="normal" font-stretch="normal" font-size="13.333" writing-mode="lr-tb" text-anchor="start" fill="#000" fill-opacity="1" stroke="none"><flowRegion><path d="M7.239 212.992h60.325V251.6H7.239z"/></flowRegion><flowPara/></flowRoot><text y="254.382" x="54.898" style="line-height:2;-inkscape-font-specification:'Segoe Print';font-variant-ligatures:normal;font-variant-caps:normal;font-variant-numeric:normal;font-feature-settings:normal;text-align:start" font-size="3.528" fill="#917c6f" stroke-width=".265"><tspan y="254.382" x="54.898">адамдар</tspan><tspan y="261.532" x="54.898">бөлме ғимарат жобалар</tspan><tspan y="268.682" x="54.898">ғарыш тылсым әлем</tspan><tspan y="275.833" x="54.898">гүлдер</tspan><tspan y="282.983" x="54.898">өсімдіктер</tspan><tspan y="290.134" x="54.898">қалыпталған кескіндер</tspan><tspan y="297.284" x="54.898">қолданыс заттары</tspan><tspan y="304.34" x="54.898">жаныуарлар</tspan><tspan y="311.49" x="54.898">өнер білім спорт</tspan><tspan y="318.546" x="54.898">art education sports</tspan><tspan y="325.707" x="54.898">美術教育スポーツ</tspan><tspan y="332.857" x="54.898">الرياضة التربية الفنية</tspan><tspan y="340.008" x="54.898">сән үлгілері</tspan><tspan y="347.158" x="54.898">тәбиғат</tspan><tspan y="354.214" x="54.898">елмекен</tspan></text><text y="254.36" x="103.499" style="line-height:2;-inkscape-font-specification:'Segoe Print';font-variant-ligatures:normal;font-variant-caps:normal;font-variant-numeric:normal;font-feature-settings:normal;text-align:start" font-size="3.528" fill="#917c6f" stroke-width=".265"><tspan y="254.36" x="103.499">үи</tspan><tspan y="261.51" x="103.499">пәтер</tspan><tspan y="268.661" x="103.499">бөлме алаң</tspan><tspan y="275.811" x="103.499">ғимарат</tspan><tspan y="282.867" x="103.499">жер телімі</tspan><tspan y="290.017" x="103.499">қызымет</tspan></text><text y="253.736" x="131.219" style="line-height:2;-inkscape-font-specification:'Segoe Print';font-variant-ligatures:normal;font-variant-caps:normal;font-variant-numeric:normal;font-feature-settings:normal;text-align:start" font-size="3.528" fill="#917c6f" stroke-width=".265"><tspan y="253.736" x="131.219">жеңіл</tspan><tspan y="260.792" x="131.219">жолаушылар</tspan><tspan y="267.942" x="131.219">жүк</tspan><tspan y="275.093" x="131.219">қызыметтік</tspan><tspan y="282.148" x="131.219">белсебет</tspan><tspan y="289.204" x="131.219">мотосекл</tspan><tspan y="296.354" x="131.219">сұу</tspan><tspan y="303.505" x="131.219">әуе</tspan><tspan y="310.655" x="131.219">қызымет</tspan></text><text y="253.832" x="163.967" style="line-height:2;-inkscape-font-specification:'Segoe Print';font-variant-ligatures:normal;font-variant-caps:normal;font-variant-numeric:normal;font-feature-settings:normal;text-align:start" font-size="3.528" fill="#917c6f" stroke-width=".265"><tspan y="253.832" x="163.967">нан өнімдері</tspan><tspan y="260.983" x="163.967">сұусын</tspan><tspan y="268.133" x="163.967">кәмпит</tspan><tspan y="275.189" x="163.967">торт</tspan><tspan y="282.339" x="163.967">жеміс жидек көкөніс</tspan><tspan y="289.49" x="163.967">қаинатпа</tspan><tspan y="296.64" x="163.967">тұздалған</tspan><tspan y="303.79" x="163.967">қызымет</tspan></text><text y="253.707" x="206.738" style="line-height:2;-inkscape-font-specification:'Segoe Print';font-variant-ligatures:normal;font-variant-caps:normal;font-variant-numeric:normal;font-feature-settings:normal;text-align:start" font-size="3.528" fill="#917c6f" stroke-width=".265"><tspan y="253.707" x="206.738">бас кіиім</tspan><tspan y="260.858" x="206.738">үстіңгі</tspan><tspan y="268.008" x="206.738">астыңғы</tspan><tspan y="275.158" x="206.738">аиақ</tspan><tspan y="282.214" x="206.738">спорт</tspan><tspan y="289.27" x="206.738">балалар</tspan><tspan y="296.325" x="206.738">арнаиы</tspan><tspan y="303.476" x="206.738">қызымет</tspan></text><g style="line-height:2;-inkscape-font-specification:'Segoe Print';font-variant-ligatures:normal;font-variant-caps:normal;font-variant-numeric:normal;font-feature-settings:normal;text-align:start" aria-label="бас кіиім үстіңгі астыңғы аиақ спорт балалар арнаиы қызымет" font-size="3.528" fill="#917c6f" stroke-width=".265"><path d="M3.147 293.512q-.066-.177-.303-.384-.224-.193-.224-.33 0-.11.072-.178.072-.069.269-.124.244-.067.498-.151.253-.087.304-.11.033-.016.068-.016.057 0 .057.101 0 .057-.138.155-.138.099-.488.183-.22.055-.27.083-.048.026-.048.053 0 .062.134.18.506.442.506 1.11 0 .288-.151.617-.152.327-.405.487-.252.16-.493.16-.217 0-.329-.211-.112-.212-.112-.467 0-.451.278-.851.279-.4.589-.4.041 0 .103.054.057.052.083.04zm-.751 1.165q0 .191.05.3.051.108.134.108.11 0 .298-.136t.302-.403q.115-.267.115-.5 0-.193-.055-.311-.054-.121-.1-.121-.307 0-.525.374-.22.374-.22.689zM5.114 294.675q-.241.324-.477.486-.236.162-.433.162-.132 0-.229-.112-.096-.112-.096-.288 0-.453.405-.975.405-.523.804-.523.145 0 .215.165.023.055.071.055.138 0 .138.107 0 .053-.017.146-.093.508-.093.717 0 .417.158.5.076.04.076.101 0 .053-.074.107-.074.055-.143.055-.133 0-.219-.183-.086-.182-.086-.52zm-.105-.97q-.227 0-.529.428-.301.425-.301.706 0 .198.13.198.19 0 .526-.383.336-.382.336-.702 0-.247-.162-.247zM6.494 295.4q-.259 0-.398-.148-.138-.148-.138-.415 0-.45.357-.947.356-.5.663-.5.14 0 .24.152.1.15.1.318 0 .102-.044.176-.043.072-.088.072-.1 0-.141-.201-.047-.217-.134-.217-.18 0-.424.425-.245.426-.245.719 0 .292.333.292.253 0 .596-.237.12-.085.177-.085.059 0 .059.067 0 .131-.309.331-.308.198-.604.198zM9.572 294.396q.408-.07.732-.527.152-.212.265-.3.116-.09.245-.09.052 0 .103.047.052.047.052.11 0 .085-.16.133-.085.026-.159.088t-.28.296q-.162.183-.292.257-.012.007-.012.012 0 .007.016.014.126.067.265.26.203.28.305.355.102.072.233.072l.056-.002q.06-.003.06.053 0 .066-.073.136-.075.071-.245.071-.13 0-.255-.112-.122-.114-.28-.367-.092-.15-.171-.227-.08-.078-.176-.078-.02 0-.127.035-.107.034-.121.067-.012.031-.019.23-.005.195-.005.316 0 .064-.06.114t-.131.05q-.073 0-.114-.044-.041-.04-.041-.086 0-.062.046-.292.083-.42.165-1.387.007-.093.071-.167.064-.076.145-.076.045 0 .074.048.03.048.03.124 0 .06-.02.138-.098.357-.122.729zM11.8 292.996q-.035 0-.054-.078-.007-.024-.02-.053-.046-.112-.046-.195 0-.069.081-.14.083-.072.183-.072.05 0 .112.04.062.038.062.074 0 .057-.043.193-.042.136-.135.184-.09.047-.14.047zm-.225 1.924q0 .13.036.294.007.031.007.052 0 .031-.057.08-.056.05-.12.05-.167 0-.167-.308 0-.316.13-1.002.046-.24.046-.295 0-.108.04-.184.039-.077.111-.077.088 0 .138.043.052.041.052.093 0 .051-.025.136-.129.455-.16.65-.03.197-.03.468zM13.482 294.553q-.22.37-.451.573-.231.204-.43.204-.113 0-.232-.133-.117-.133-.117-.408 0-.226.109-.665.091-.367.091-.515.05-.103.157-.103.072 0 .115.051.043.05.043.105 0 .12-.084.343-.16.432-.16.742 0 .283.13.283.168 0 .426-.284t.443-.793q.072-.203.117-.263.046-.062.124-.062.117 0 .117.155 0 .019-.033.126-.103.377-.103.713 0 .403.133.522.068.063.068.103 0 .048-.07.088-.069.04-.126.04-.12 0-.195-.18-.074-.179-.074-.528v-.057l.002-.057zM14.972 292.996q-.036 0-.055-.078-.007-.024-.019-.053-.046-.112-.046-.195 0-.069.08-.14.083-.072.183-.072.05 0 .112.04.062.038.062.074 0 .057-.043.193-.041.136-.134.184-.092.047-.14.047zm-.226 1.924q0 .13.037.294.007.031.007.052 0 .031-.057.08-.057.05-.12.05-.168 0-.168-.308 0-.316.13-1.002.046-.24.046-.295 0-.108.04-.184.039-.077.111-.077.088 0 .138.043.052.041.052.093 0 .051-.024.136-.13.455-.16.65-.032.197-.032.468zM17.635 293.793q-.14.224-.393.758-.056.12-.115.233-.019.036-.072.16-.181.42-.316.42-.106 0-.156-.026-.049-.025-.093-.14-.045-.116-.133-.544-.102-.484-.138-.596-.117.264-.208.509-.138.36-.267.587-.13.226-.186.27-.057.047-.109.047-.053 0-.096-.041-.043-.042-.043-.081.01-.07.024-.088.15-.184.258-.393.109-.208.276-.625.169-.417.215-.684.023-.114.167-.114.085 0 .116.026.03.026.06.105.031.08.036.141.01.075.059.33.043.239.057.339.024.143.084.375.062.233.096.233.025 0 .07-.105l.144-.334q.04-.092.084-.18l.198-.404q.162-.335.249-.484.087-.152.117-.183.03-.031.069-.031.065 0 .146.036.08.035.084.078.004.043.016.36l.022.537q.01.257.031.438.02.179.073.29.08.175.08.271 0 .083-.068.114-.067.03-.126.03-.12 0-.186-.192-.064-.193-.093-1.106-.01-.274-.033-.336zM3.126 302.422v.764H2.79v-.764l-.78-1.899h.336l.603 1.51.603-1.51h.336zM4.692 302.55q-.258 0-.398-.147-.138-.148-.138-.415 0-.45.357-.948.356-.5.663-.5.14 0 .24.152.101.15.101.319 0 .101-.045.176-.043.072-.088.072-.1 0-.14-.202-.047-.217-.135-.217-.18 0-.424.426-.245.425-.245.718t.333.293q.253 0 .596-.238.12-.084.177-.084.059 0 .059.067 0 .131-.308.33-.309.199-.605.199zM7.31 301.09q-.16.003-.685.95-.178.318-.207.347-.03.028-.109.05-.077.023-.129.023-.115 0-.115-.45 0-.253.108-.916.045-.27.045-.385 0-.113.102-.113.191 0 .191.275 0 .13-.064.507-.074.43-.076.523.107-.103.314-.453.293-.478.43-.606.14-.13.288-.13.112 0 .178.15.067.15.08.716.004.14.026.21.023.069.033.069.081 0 .352-.552.144-.29.28-.442.138-.152.305-.152.14 0 .204.145.063.143.09.425.027.286.08.524.055.238.2.305.098.046.098.108 0 .06-.083.124-.082.064-.151.064-.138 0-.247-.169-.108-.169-.163-.73-.024-.226-.047-.32-.022-.095-.07-.095-.073 0-.173.138-.098.137-.318.56-.172.328-.262.439-.088.108-.17.108-.075 0-.133-.058-.059-.06-.074-.143-.016-.085-.033-.412-.026-.544-.095-.634zM10.19 300.146q-.036 0-.055-.077-.007-.024-.019-.054-.046-.112-.046-.194 0-.07.08-.14.083-.072.183-.072.05 0 .112.04.062.037.062.073 0 .057-.043.193-.041.136-.134.185-.091.046-.14.046zm-.225 1.924q0 .131.036.295.007.03.007.051 0 .031-.057.08-.057.05-.12.05-.168 0-.168-.307 0-.317.131-1.002.045-.24.045-.295 0-.109.04-.184.04-.078.112-.078.087 0 .137.043.052.042.052.093 0 .052-.024.136-.13.455-.16.651-.031.197-.031.467zM10.759 300.523h.317v.794h1.032v-.794h.316v1.666h.317v.751h-.317v-.487h-.316v-.89h-1.032v.89h-.317zM12.946 302.155l-.003-.037q-.017-.174.107-.365.126-.191.629-.444.32-.162.32-.295 0-.07-.059-.108-.058-.038-.101-.038-.13 0-.496.182-.03.016-.035.016-.141 0-.141-.1 0-.162.279-.269.279-.108.486-.108.129 0 .27.103.141.102.141.274 0 .141-.09.272-.092.131-.457.333-.3.165-.407.272-.105.107-.105.241 0 .098.091.13.092.03.138.03.324 0 .579-.134.088-.045.13-.045.09 0 .09.1 0 .151-.244.253-.245.102-.62.102-.18 0-.333-.102-.153-.103-.169-.263zM15.253 300.146q-.036 0-.055-.077-.007-.024-.02-.054-.046-.112-.046-.194 0-.07.081-.14.083-.072.183-.072.05 0 .112.04.062.037.062.073 0 .057-.043.193-.042.136-.135.185-.09.046-.14.046zm-.226 1.924q0 .131.036.295.007.03.007.051 0 .031-.057.08-.056.05-.12.05-.167 0-.167-.307 0-.317.13-1.002.046-.24.046-.295 0-.109.04-.184.039-.078.111-.078.088 0 .138.043.052.042.052.093 0 .052-.025.136-.129.455-.16.651-.03.197-.03.467zM3.295 308.976q-.241.324-.477.486-.236.162-.433.162-.132 0-.229-.112-.096-.112-.096-.288 0-.453.405-.975.404-.524.804-.524.145 0 .215.166.023.055.071.055.138 0 .138.107 0 .053-.017.146-.093.508-.093.717 0 .417.158.5.076.04.076.1 0 .054-.074.108-.074.055-.143.055-.133 0-.219-.183-.086-.182-.086-.52zm-.105-.97q-.227 0-.529.427-.301.426-.301.707 0 .198.13.198.19 0 .526-.383.336-.382.336-.702 0-.247-.162-.247zM4.675 309.701q-.259 0-.398-.148-.138-.148-.138-.415 0-.45.357-.947.356-.5.663-.5.14 0 .24.152.1.15.1.318 0 .102-.044.176-.043.072-.088.072-.1 0-.141-.201-.047-.217-.134-.217-.18 0-.424.425-.245.426-.245.718 0 .293.333.293.253 0 .596-.237.12-.085.177-.085.059 0 .059.067 0 .131-.309.331-.308.198-.604.198zM7.293 308.24q-.16.004-.686.95-.177.318-.206.348-.03.027-.109.05-.077.022-.129.022-.115 0-.115-.45 0-.253.108-.916.045-.269.045-.384 0-.114.102-.114.19 0 .19.276 0 .129-.063.506-.074.43-.076.524.107-.103.314-.453.293-.479.43-.606.14-.13.288-.13.112 0 .177.15.068.15.081.715.004.141.026.21.023.07.033.07.08 0 .351-.552.145-.291.281-.443.138-.151.305-.151.14 0 .203.144.064.143.092.426.025.286.079.523.055.238.2.305.098.047.098.109 0 .06-.083.124t-.151.064q-.138 0-.247-.17-.108-.168-.163-.73-.025-.225-.047-.32t-.07-.095q-.073 0-.173.138-.098.138-.318.56-.173.329-.262.44-.088.108-.17.108-.075 0-.133-.059-.059-.06-.075-.143-.015-.084-.032-.412-.026-.544-.095-.633zM10.018 307.651q.022-.015.05-.015.043 0 .072.115 0 .074-.04.188-.116.326-.116.455 0 .034.02.038.396-.38.734-.38.209 0 .35.158.141.156.141.287 0 .4-.408.768-.407.367-.82.367-.184 0-.288-.151-.101-.154-.101-.438 0-.308.077-.682.078-.374.124-.5.019-.053.035-.108.017-.069.17-.102zm-.08 1.08q-.035.192-.035.383 0 .26.205.26.23 0 .516-.276.286-.275.286-.535 0-.107-.056-.18-.057-.072-.157-.072-.136 0-.269.069-.13.067-.293.219-.062.058-.1.091-.036.031-.098.041zm1.734.397q0 .13.036.294.007.031.007.052 0 .03-.057.08t-.12.05q-.168 0-.168-.308 0-.304.133-1.023.048-.262.048-.317 0-.108.04-.184.04-.077.112-.077.088 0 .138.043.051.04.051.093 0 .051-.024.143-.134.49-.165.687-.031.196-.031.467zM12.34 307.674h.317v.794h1.032v-.794h.317v1.666h.317v.75h-.317v-.487h-.317v-.889h-1.032v.89h-.317zM14.888 309.603v-.861h-.453v-.293h.453v-.775h1.36v.27h-1.043v.505h.716v.293h-.716v.861zM17.05 307.651q.022-.015.05-.015.043 0 .072.115 0 .074-.04.188-.117.326-.117.455 0 .034.02.038.397-.38.735-.38.208 0 .35.158.14.156.14.287 0 .4-.408.768-.406.367-.82.367-.184 0-.287-.151-.102-.154-.102-.438 0-.308.077-.682.078-.374.125-.5.018-.053.034-.108.017-.069.17-.102zm-.081 1.08q-.035.192-.035.383 0 .26.205.26.23 0 .517-.276.286-.275.286-.535 0-.107-.057-.18-.057-.072-.157-.072-.136 0-.269.069-.13.067-.292.219-.062.058-.1.091-.036.031-.098.041zm1.734.397q0 .13.036.294.007.031.007.052 0 .03-.057.08-.056.05-.12.05-.167 0-.167-.308 0-.304.132-1.023.049-.262.049-.317 0-.108.04-.184.039-.077.111-.077.088 0 .138.043.052.04.052.093 0 .051-.024.143-.135.49-.166.687-.03.196-.03.467zM3.295 316.127q-.241.323-.477.485-.236.162-.433.162-.132 0-.229-.112-.096-.112-.096-.287 0-.453.405-.975.404-.524.804-.524.145 0 .215.165.023.055.071.055.138 0 .138.107 0 .054-.017.147-.093.508-.093.716 0 .417.158.5.076.041.076.101 0 .054-.074.107-.074.055-.143.055-.133 0-.219-.182-.086-.183-.086-.52zm-.105-.97q-.227 0-.529.427-.301.425-.301.706 0 .198.13.198.19 0 .526-.382.336-.383.336-.703 0-.246-.162-.246zM5.42 316.004q-.22.37-.45.574-.232.203-.43.203-.113 0-.232-.133-.117-.132-.117-.408 0-.225.108-.665.091-.367.091-.515.05-.103.157-.103.073 0 .116.052.043.05.043.105 0 .12-.085.343-.16.432-.16.742 0 .282.131.282.167 0 .425-.284.259-.284.443-.792.073-.203.117-.264.047-.062.124-.062.117 0 .117.155 0 .02-.032.126-.104.377-.104.713 0 .403.133.522.069.064.069.103 0 .049-.07.088-.07.04-.126.04-.121 0-.195-.18-.074-.178-.074-.528v-.057l.002-.057zM7.517 316.127q-.241.323-.477.485-.236.162-.433.162-.132 0-.229-.112-.096-.112-.096-.287 0-.453.405-.975.404-.524.804-.524.145 0 .215.165.023.055.071.055.138 0 .138.107 0 .054-.017.147-.093.508-.093.716 0 .417.158.5.076.041.076.101 0 .054-.074.107-.074.055-.143.055-.133 0-.219-.182-.086-.183-.086-.52zm-.105-.97q-.228 0-.529.427-.301.425-.301.706 0 .198.13.198.19 0 .526-.382.336-.383.336-.703 0-.246-.162-.246zM8.518 314.824h.315v.906l.894-.906h.39l-.738.746.646.92h.245v.751h-.317v-.487h-.097l-.684-.974-.339.345v.629h-.315zM2.604 323.907q-.258 0-.398-.148-.137-.148-.137-.415 0-.45.356-.947.357-.5.663-.5.14 0 .24.152.101.15.101.318 0 .102-.044.176-.044.072-.088.072-.1 0-.142-.201-.046-.217-.134-.217-.18 0-.424.425-.244.426-.244.719 0 .292.332.292.253 0 .596-.237.12-.085.178-.085.058 0 .058.067 0 .131-.308.331-.308.198-.605.198zM5.095 322.484q-.09 0-.196.118-.105.117-.322.525-.286.548-.37.624-.083.075-.139.075-.203 0-.203-.196 0-.083.028-.234.094-.52.094-1.098 0-.065.056-.144.056-.081.106-.081.09 0 .128.055.038.055.038.222 0 .174-.104.717-.034.179-.034.227 0 .028.014.028.026 0 .24-.412.214-.419.376-.59.162-.17.357-.17.155 0 .251.142.099.14.143.515.049.425.087.53.04.103.124.103.053 0 .134-.037.014-.007.02-.007.075 0 .075.086 0 .075-.102.162-.102.084-.245.084-.146 0-.227-.115-.08-.118-.126-.622-.048-.507-.203-.507zM6.764 323.895q-.236 0-.39-.179-.152-.18-.152-.443 0-.444.298-.875.3-.432.716-.432.276 0 .446.212.173.212.173.505 0 .447-.355.83-.353.382-.736.382zm-.24-.666q0 .174.073.284.074.11.195.11.256 0 .515-.28.258-.283.258-.628 0-.212-.1-.342-.098-.133-.265-.133-.277 0-.477.34-.198.34-.198.649zM8.588 323.61q-.084.31-.158.87l-.048.325q-.012.069-.064.136-.052.069-.095.069-.053 0-.122-.055-.067-.054-.067-.086 0-.095.043-.262.315-1.273.315-2.236l-.002-.145q-.003-.186.066-.27.069-.085.158-.085.042 0 .08.066.037.063.037.182 0 .167-.034.405-.045.3-.047.345.257-.448.545-.7.287-.251.534-.251.174 0 .293.13.12.13.12.323 0 .561-.43 1.02-.431.458-.84.458-.101 0-.161-.052-.059-.052-.123-.188zm1.07-1.387q-.243 0-.601.454-.358.455-.358.708 0 .062.07.12.07.06.18.06.246 0 .566-.364.32-.365.32-.717 0-.125-.051-.192-.05-.07-.126-.07zM11.837 322.447q-.16.003-.685.949-.178.318-.207.348-.03.027-.109.05-.077.022-.129.022-.115 0-.115-.45 0-.253.108-.916.045-.269.045-.384 0-.114.102-.114.19 0 .19.276 0 .129-.063.506-.074.43-.076.524.107-.103.314-.453.293-.479.43-.606.14-.13.288-.13.112 0 .178.15.067.15.08.715.004.141.026.21.023.07.033.07.081 0 .351-.552.145-.291.281-.443.138-.151.305-.151.14 0 .203.144.064.143.092.426.026.286.079.523.055.238.2.305.098.047.098.109 0 .06-.083.124-.082.064-.151.064-.138 0-.247-.17-.108-.168-.163-.73-.024-.225-.047-.32-.022-.095-.07-.095-.073 0-.173.138-.098.138-.318.56-.173.329-.262.44-.088.108-.17.108-.075 0-.133-.059-.059-.06-.074-.143-.016-.084-.033-.412-.026-.544-.095-.633zM3.147 329.075q-.066-.177-.303-.384-.224-.193-.224-.33 0-.111.072-.178.072-.07.269-.124.244-.068.498-.152.253-.086.304-.11.033-.016.068-.016.057 0 .057.102 0 .057-.138.155t-.488.183q-.22.055-.27.082-.048.026-.048.054 0 .062.134.179.506.442.506 1.11 0 .289-.151.618-.152.327-.405.487-.252.16-.493.16-.217 0-.329-.212-.112-.212-.112-.466 0-.452.278-.851.279-.4.589-.4.041 0 .103.053.057.052.083.04zm-.751 1.164q0 .192.05.3.051.109.134.109.11 0 .298-.136.188-.137.302-.404.115-.267.115-.5 0-.192-.055-.31-.054-.121-.1-.121-.307 0-.525.373-.22.374-.22.69zM5.114 330.238q-.241.323-.477.485-.236.162-.433.162-.132 0-.229-.112-.096-.112-.096-.287 0-.453.405-.975.405-.524.804-.524.145 0 .215.165.023.056.071.056.138 0 .138.106 0 .054-.017.147-.093.508-.093.716 0 .417.158.5.076.041.076.102 0 .053-.074.106-.074.055-.143.055-.133 0-.219-.182-.086-.183-.086-.52zm-.105-.97q-.227 0-.529.427-.301.426-.301.706 0 .198.13.198.19 0 .526-.382t.336-.703q0-.246-.162-.246zM6.99 329.46q-.042-.001-.081.08-.357.713-.54.968-.015.022-.039.066-.215.384-.315.384-.134 0-.134-.13 0-.117.167-.318.162-.191.425-.648.264-.458.427-.822.031-.065.093-.065.026 0 .092.024.067.022.086.05.019.028.084.32.212 1.056.446 1.253.055.048.066.065.01.016.01.045 0 .053-.034.098-.035.043-.068.055-.032.012-.134.012-.036 0-.169-.177-.132-.18-.31-.973-.043-.214-.072-.286zM9.291 330.238q-.241.323-.477.485-.236.162-.432.162-.133 0-.23-.112-.096-.112-.096-.287 0-.453.405-.975.405-.524.804-.524.145 0 .216.165.022.056.07.056.138 0 .138.106 0 .054-.017.147-.093.508-.093.716 0 .417.158.5.076.041.076.102 0 .053-.074.106-.074.055-.143.055-.133 0-.219-.182-.086-.183-.086-.52zm-.105-.97q-.227 0-.529.427-.301.426-.301.706 0 .198.13.198.19 0 .526-.382t.336-.703q0-.246-.162-.246zM11.167 329.46q-.041-.001-.081.08-.357.713-.54.968-.015.022-.039.066-.215.384-.315.384-.134 0-.134-.13 0-.117.167-.318.162-.191.425-.648.264-.458.427-.822.031-.065.093-.065.026 0 .092.024.067.022.086.05.019.028.084.32.212 1.056.446 1.253.056.048.066.065.01.016.01.045 0 .053-.034.098-.035.043-.067.055-.033.012-.135.012-.036 0-.169-.177-.132-.18-.31-.973-.043-.214-.072-.286zM13.468 330.238q-.24.323-.477.485-.236.162-.432.162-.133 0-.23-.112-.096-.112-.096-.287 0-.453.405-.975.405-.524.804-.524.145 0 .216.165.022.056.07.056.138 0 .138.106 0 .054-.017.147-.093.508-.093.716 0 .417.158.5.076.041.076.102 0 .053-.074.106-.074.055-.143.055-.132 0-.219-.182-.086-.183-.086-.52zm-.105-.97q-.227 0-.529.427-.301.426-.301.706 0 .198.13.198.19 0 .526-.382t.336-.703q0-.246-.162-.246zM14.71 330.665q-.084.31-.158.87l-.048.325q-.012.07-.064.136-.052.07-.095.07-.053 0-.122-.056-.067-.053-.067-.086 0-.095.043-.262.315-1.273.315-2.236l-.002-.144q-.003-.186.066-.27.069-.085.158-.085.041 0 .08.065.037.064.037.183 0 .167-.034.405-.045.3-.047.344.257-.448.545-.7.287-.25.534-.25.174 0 .292.13.121.13.121.322 0 .562-.43 1.02-.431.458-.84.458-.101 0-.161-.051-.059-.052-.123-.188zm1.07-1.387q-.243 0-.601.455t-.358.708q0 .062.07.12.07.06.18.06.246 0 .566-.364.32-.366.32-.717 0-.126-.051-.193-.05-.069-.126-.069zM3.295 337.293q-.241.324-.477.486-.236.162-.433.162-.132 0-.229-.112-.096-.112-.096-.288 0-.453.405-.975.404-.523.804-.523.145 0 .215.165.023.055.071.055.138 0 .138.107 0 .053-.017.146-.093.508-.093.717 0 .417.158.5.076.04.076.101 0 .053-.074.107-.074.055-.143.055-.133 0-.219-.183-.086-.182-.086-.52zm-.105-.97q-.227 0-.529.428-.301.425-.301.706 0 .198.13.198.19 0 .526-.382.336-.383.336-.703 0-.247-.162-.247zM4.537 337.72q-.084.31-.159.87l-.048.326q-.012.069-.064.136-.051.069-.094.069-.054 0-.123-.055-.067-.054-.067-.086 0-.095.043-.262.316-1.273.316-2.236l-.002-.145q-.004-.186.065-.27.07-.085.159-.085.041 0 .079.066.038.064.038.182 0 .167-.035.405-.044.3-.046.345.257-.448.544-.7.288-.251.534-.251.174 0 .293.13.12.13.12.323 0 .561-.43 1.02-.43.458-.839.458-.101 0-.162-.052-.058-.052-.122-.188zm1.07-1.386q-.243 0-.602.455-.358.454-.358.707 0 .062.07.121.071.059.18.059.246 0 .567-.364.32-.365.32-.716 0-.126-.052-.193-.05-.07-.125-.07zM7.753 336.795q.019-.036.06-.432.031-.317.202-.317.14 0 .14.14 0 .032-.025.132-.132.55-.132.922 0 .403.132.522.07.063.07.103 0 .048-.072.088-.068.04-.125.04-.269 0-.269-.83 0-.056-.041-.056-.162 0-.397.02-.234.018-.335.047-.1.03-.124.055-.023.025-.042.133-.017.107-.017.222v.212q0 .184-.169.184-.141 0-.141-.184 0-.12.03-.306.058-.342.115-1.175.006-.109.019-.138.012-.03.062-.064.051-.036.112-.036.124 0 .124.102 0 .015-.04.258-.041.243-.041.377 0 .095.065.095.131 0 .479-.043.348-.045.36-.07zM9.722 337.293q-.241.324-.477.486-.236.162-.433.162-.132 0-.229-.112-.096-.112-.096-.288 0-.453.405-.975.404-.523.804-.523.145 0 .215.165.023.055.07.055.139 0 .139.107 0 .053-.018.146-.093.508-.093.717 0 .417.159.5.076.04.076.101 0 .053-.074.107-.074.055-.143.055-.133 0-.22-.183-.085-.182-.085-.52zm-.105-.97q-.228 0-.53.428-.3.425-.3.706 0 .198.13.198.19 0 .526-.382.336-.383.336-.703 0-.247-.162-.247zM11.847 337.17q-.22.371-.45.575-.232.203-.43.203-.113 0-.232-.133-.117-.132-.117-.408 0-.226.108-.665.091-.367.091-.515.05-.103.157-.103.072 0 .115.051.044.05.044.105 0 .12-.085.343-.16.433-.16.743 0 .282.13.282.168 0 .426-.284.259-.284.443-.793.072-.203.117-.263.047-.062.124-.062.117 0 .117.155 0 .019-.032.126-.104.377-.104.713 0 .403.133.522.069.063.069.103 0 .048-.07.088-.07.04-.127.04-.12 0-.194-.18-.074-.179-.074-.528v-.057l.001-.057zM13.182 335.969q.023-.016.05-.016.043 0 .073.115 0 .075-.04.188-.117.326-.117.455 0 .034.02.038.397-.38.734-.38.209 0 .35.158.141.156.141.287 0 .4-.408.769-.406.366-.82.366-.184 0-.288-.151-.101-.153-.101-.438 0-.308.077-.682.078-.374.124-.5.02-.053.035-.108.017-.069.17-.101zm-.08 1.08q-.035.19-.035.382 0 .26.205.26.23 0 .517-.275.286-.276.286-.536 0-.107-.057-.18-.057-.072-.157-.072-.136 0-.269.07-.13.066-.292.218-.062.059-.1.091-.037.031-.099.042zm1.734.396q0 .13.036.294.007.031.007.052 0 .031-.057.081-.057.048-.12.048-.167 0-.167-.306 0-.305.132-1.024.048-.261.048-.317 0-.108.04-.184.04-.077.112-.077.088 0 .138.043.052.041.052.093 0 .051-.025.143-.134.49-.165.687-.031.196-.031.467zM2.225 343.141h.315v.906l.894-.906h.39l-.737.746.645.92h.245v.751H3.66v-.487h-.096l-.684-.974-.34.345v.629h-.315zM4.664 343.119q.023-.015.05-.015.043 0 .073.115 0 .074-.04.188-.117.325-.117.454 0 .035.02.038.397-.38.734-.38.209 0 .35.158.141.157.141.288 0 .4-.408.768-.406.367-.82.367-.184 0-.288-.152-.101-.153-.101-.437 0-.308.077-.682.078-.374.124-.5.02-.053.035-.108.017-.07.17-.102zm-.08 1.08q-.035.191-.035.382 0 .26.205.26.23 0 .517-.275.286-.276.286-.536 0-.107-.057-.179t-.157-.072q-.136 0-.269.069-.13.067-.292.218-.062.06-.1.092-.037.03-.099.041zm1.734.396q0 .131.036.295.007.03.007.052 0 .03-.057.08-.057.049-.12.049-.167 0-.167-.307 0-.305.132-1.023.048-.262.048-.317 0-.109.04-.184.04-.078.112-.078.088 0 .138.043.052.042.052.093 0 .052-.025.143-.134.491-.165.688-.031.196-.031.466zM7.725 344.011q.223.037.347.164.124.127.124.312 0 .29-.247.486-.246.192-.647.192-.24 0-.414-.103-.172-.103-.172-.229 0-.103.119-.103.017 0 .053.029.19.164.45.164.229 0 .394-.121.166-.12.166-.314 0-.127-.095-.211-.093-.086-.217-.086-.095 0-.333.074-.046.015-.1.015-.103 0-.103-.14 0-.048.048-.077.05-.03.212-.067.491-.112.491-.398 0-.086-.062-.141-.06-.057-.157-.057-.179 0-.382.158-.119.093-.18.093-.106 0-.106-.098 0-.129.243-.263.245-.136.468-.136.224 0 .352.118.129.12.129.25 0 .312-.38.49zM8.98 343.119q.022-.015.05-.015.042 0 .072.115 0 .074-.04.188-.117.325-.117.454 0 .035.02.038.397-.38.734-.38.209 0 .35.158.141.157.141.288 0 .4-.408.768-.406.367-.82.367-.184 0-.288-.152-.101-.153-.101-.437 0-.308.077-.682.078-.374.124-.5.02-.053.035-.108.017-.07.17-.102zm-.082 1.08q-.034.191-.034.382 0 .26.205.26.23 0 .517-.275.286-.276.286-.536 0-.107-.057-.179t-.157-.072q-.136 0-.269.069-.13.067-.292.218-.062.06-.1.092-.037.03-.099.041zm1.735.396q0 .131.036.295.007.03.007.052 0 .03-.057.08-.057.049-.12.049-.167 0-.167-.307 0-.305.132-1.023.048-.262.048-.317 0-.109.04-.184.04-.078.112-.078.088 0 .138.043.052.042.052.093 0 .052-.025.143-.134.491-.165.688-.031.196-.031.466zM13.396 343.562q-.14.224-.393.758-.057.12-.115.232-.02.036-.073.16-.18.42-.315.42-.107 0-.156-.025-.049-.026-.094-.141-.044-.116-.132-.543-.102-.484-.138-.596-.117.264-.208.508-.138.36-.267.588-.13.225-.186.27-.057.047-.109.047-.053 0-.096-.042-.043-.041-.043-.08.01-.071.024-.089.15-.184.258-.392.109-.209.276-.626.168-.417.215-.684.022-.113.167-.113.084 0 .115.026.031.025.06.105.032.079.037.14.01.075.059.33.043.24.056.34.024.142.085.375.062.232.096.232.024 0 .07-.105l.144-.334q.04-.091.084-.18l.198-.404q.162-.334.248-.484.088-.152.117-.183.031-.03.07-.03.065 0 .146.036.08.034.084.077.004.043.016.36l.022.538q.01.256.031.437.02.18.072.29.081.175.081.272 0 .082-.068.113t-.126.031q-.12 0-.186-.193-.064-.192-.093-1.105-.01-.274-.033-.336zM15.758 344.487q0 .175-.312.423-.31.249-.641.249-.277 0-.429-.164-.15-.164-.15-.457 0-.492.333-.937.332-.444.727-.444.129 0 .21.084.082.085.082.204 0 .265-.26.508t-.696.477q-.09.046-.09.12 0 .143.084.23.082.086.244.086.37 0 .756-.41.057-.057.086-.057.056 0 .056.088zm-1.198-.269q.73-.434.73-.698 0-.103-.092-.103-.159 0-.359.233-.198.232-.279.568zM17.418 343.708q-.16.003-.685.95-.178.318-.207.347-.03.028-.109.05-.077.023-.129.023-.115 0-.115-.45 0-.253.108-.916.045-.27.045-.384 0-.114.102-.114.19 0 .19.275 0 .13-.063.507-.074.43-.076.524.107-.104.314-.454.293-.478.43-.606.14-.129.288-.129.112 0 .178.15.067.15.08.715.004.14.026.21.023.069.033.069.081 0 .352-.551.144-.292.28-.443.138-.152.305-.152.14 0 .203.145.064.143.092.425.026.286.079.524.055.238.2.305.098.046.098.108 0 .06-.083.124-.082.064-.151.064-.138 0-.247-.169-.108-.168-.163-.73-.024-.226-.047-.32-.022-.095-.07-.095-.073 0-.173.138-.098.138-.318.56-.173.329-.262.439-.088.108-.17.108-.075 0-.133-.058-.059-.06-.074-.143-.016-.085-.033-.412-.026-.544-.095-.634z"/></g></g></svg>