<svg xmlns="http://www.w3.org/2000/svg" viewBox="0 0 50.9 5.4" height="20.409" width="192.378"><g transform="translate(0 -291.6)" font-weight="400" font-family="Segoe Print" letter-spacing="0" word-spacing="0"><flowRoot transform="matrix(.26458 0 0 .26458 0 226.6)" style="line-height:1.25;-inkscape-font-specification:'Segoe Print';font-variant-ligatures:normal;font-variant-caps:normal;font-variant-numeric:normal;font-feature-settings:normal;text-align:start" xml:space="preserve" font-style="normal" font-variant="normal" font-stretch="normal" font-size="13.333" writing-mode="lr-tb" text-anchor="start" fill="#000" fill-opacity="1" stroke="none"><flowRegion><path d="M7.239 212.992h60.325V251.6H7.239z"/></flowRegion><flowPara/></flowRoot><text y="254.382" x="54.898" style="line-height:2;-inkscape-font-specification:'Segoe Print';font-variant-ligatures:normal;font-variant-caps:normal;font-variant-numeric:normal;font-feature-settings:normal;text-align:start" font-size="3.528" fill="#917c6f" stroke-width=".265"><tspan y="254.382" x="54.898">адамдар</tspan><tspan y="261.532" x="54.898">бөлме ғимарат жобалар</tspan><tspan y="268.682" x="54.898">ғарыш тылсым әлем</tspan><tspan y="275.833" x="54.898">гүлдер</tspan><tspan y="282.983" x="54.898">өсімдіктер</tspan><tspan y="290.134" x="54.898">қалыпталған кескіндер</tspan><tspan y="297.284" x="54.898">қолданыс заттары</tspan><tspan y="304.34" x="54.898">жаныуарлар</tspan><tspan y="311.49" x="54.898">өнер білім спорт</tspan><tspan y="318.546" x="54.898">art education sports</tspan><tspan y="325.707" x="54.898">美術教育スポーツ</tspan><tspan y="332.857" x="54.898">الرياضة التربية الفنية</tspan><tspan y="340.008" x="54.898">сән үлгілері</tspan><tspan y="347.158" x="54.898">тәбиғат</tspan><tspan y="354.214" x="54.898">елмекен</tspan></text><text y="254.36" x="103.499" style="line-height:2;-inkscape-font-specification:'Segoe Print';font-variant-ligatures:normal;font-variant-caps:normal;font-variant-numeric:normal;font-feature-settings:normal;text-align:start" font-size="3.528" fill="#917c6f" stroke-width=".265"><tspan y="254.36" x="103.499">үи</tspan><tspan y="261.51" x="103.499">пәтер</tspan><tspan y="268.661" x="103.499">бөлме алаң</tspan><tspan y="275.811" x="103.499">ғимарат</tspan><tspan y="282.867" x="103.499">жер телімі</tspan><tspan y="290.017" x="103.499">қызымет</tspan></text><text y="253.736" x="131.219" style="line-height:2;-inkscape-font-specification:'Segoe Print';font-variant-ligatures:normal;font-variant-caps:normal;font-variant-numeric:normal;font-feature-settings:normal;text-align:start" font-size="3.528" fill="#917c6f" stroke-width=".265"><tspan y="253.736" x="131.219">жеңіл</tspan><tspan y="260.792" x="131.219">жолаушылар</tspan><tspan y="267.942" x="131.219">жүк</tspan><tspan y="275.093" x="131.219">қызыметтік</tspan><tspan y="282.148" x="131.219">белсебет</tspan><tspan y="289.204" x="131.219">мотосекл</tspan><tspan y="296.354" x="131.219">сұу</tspan><tspan y="303.505" x="131.219">әуе</tspan><tspan y="310.655" x="131.219">қызымет</tspan></text><text y="253.832" x="163.967" style="line-height:2;-inkscape-font-specification:'Segoe Print';font-variant-ligatures:normal;font-variant-caps:normal;font-variant-numeric:normal;font-feature-settings:normal;text-align:start" font-size="3.528" fill="#917c6f" stroke-width=".265"><tspan y="253.832" x="163.967">нан өнімдері</tspan><tspan y="260.983" x="163.967">сұусын</tspan><tspan y="268.133" x="163.967">кәмпит</tspan><tspan y="275.189" x="163.967">торт</tspan><tspan y="282.339" x="163.967">жеміс жидек көкөніс</tspan><tspan y="289.49" x="163.967">қаинатпа</tspan><tspan y="296.64" x="163.967">тұздалған</tspan><tspan y="303.79" x="163.967">қызымет</tspan></text><text y="253.707" x="206.738" style="line-height:2;-inkscape-font-specification:'Segoe Print';font-variant-ligatures:normal;font-variant-caps:normal;font-variant-numeric:normal;font-feature-settings:normal;text-align:start" font-size="3.528" fill="#917c6f" stroke-width=".265"><tspan y="253.707" x="206.738">бас кіиім</tspan><tspan y="260.858" x="206.738">үстіңгі</tspan><tspan y="268.008" x="206.738">астыңғы</tspan><tspan y="275.158" x="206.738">аиақ</tspan><tspan y="282.214" x="206.738">спорт</tspan><tspan y="289.27" x="206.738">балалар</tspan><tspan y="296.325" x="206.738">арнаиы</tspan><tspan y="303.476" x="206.738">қызымет</tspan></text><g style="line-height:2;-inkscape-font-specification:'Segoe Print';font-variant-ligatures:normal;font-variant-caps:normal;font-variant-numeric:normal;font-feature-settings:normal;text-align:start" aria-label="бас кіиім үстіңгі астыңғы аиақ спорт балалар арнаиы қызымет" font-size="3.528" fill="#917c6f" stroke-width=".265"><path d="M3.42 258.027q-.065-.178-.302-.384-.224-.193-.224-.331 0-.11.072-.178.072-.069.269-.124.244-.067.497-.151.254-.086.305-.11.033-.016.068-.016.056 0 .056.102 0 .056-.137.155-.138.098-.488.182-.22.055-.27.083-.049.026-.049.053 0 .062.135.18.506.442.506 1.11 0 .288-.151.617-.152.328-.405.488-.252.16-.493.16-.217 0-.329-.212-.112-.212-.112-.467 0-.451.278-.85.279-.4.589-.4.041 0 .103.053.057.052.083.04zm-.75 1.164q0 .191.05.3.051.108.134.108.11 0 .298-.136t.301-.403q.116-.267.116-.5 0-.192-.055-.311-.054-.12-.1-.12-.307 0-.526.373-.218.374-.218.69zM5.388 259.19q-.241.323-.477.485-.236.162-.433.162-.132 0-.229-.112-.096-.112-.096-.288 0-.453.405-.975.404-.523.804-.523.145 0 .215.165.023.055.07.055.139 0 .139.107 0 .053-.017.146-.094.509-.094.717 0 .417.159.5.076.04.076.101 0 .054-.074.107-.074.055-.143.055-.133 0-.22-.182-.085-.183-.085-.52zm-.105-.97q-.228 0-.53.427-.3.425-.3.706 0 .198.13.198.19 0 .526-.382.336-.383.336-.703 0-.246-.162-.246zM6.768 259.915q-.259 0-.398-.149-.138-.148-.138-.415 0-.45.356-.947.357-.5.664-.5.14 0 .24.152.1.15.1.319 0 .101-.044.175-.043.073-.088.073-.1 0-.141-.202-.047-.217-.135-.217-.179 0-.423.425-.245.426-.245.719t.333.293q.253 0 .596-.238.12-.084.177-.084.059 0 .059.067 0 .13-.309.33-.308.199-.604.199zM9.846 258.91q.408-.07.732-.527.151-.212.265-.3.116-.09.245-.09.051 0 .103.047t.052.11q0 .085-.16.133-.085.026-.159.088t-.28.296q-.163.183-.292.257-.012.007-.012.012 0 .007.016.014.125.067.265.26.203.28.305.355.101.072.232.072l.057-.002q.06-.003.06.054 0 .065-.074.136-.074.07-.244.07-.131 0-.255-.112-.122-.113-.28-.367-.092-.15-.171-.227-.08-.077-.176-.077-.02 0-.128.034-.106.034-.12.067-.012.031-.02.23-.004.196-.004.316 0 .064-.06.114t-.132.05q-.072 0-.113-.043-.042-.042-.042-.086 0-.062.047-.293.083-.42.165-1.387.007-.093.07-.167.065-.076.146-.076.044 0 .074.048.03.049.03.124 0 .06-.02.138-.098.357-.122.729zM12.075 257.51q-.036 0-.055-.078-.007-.024-.02-.053-.046-.112-.046-.195 0-.069.081-.14.083-.071.183-.071.05 0 .112.04.062.037.062.073 0 .057-.043.193-.042.136-.135.184-.091.047-.14.047zm-.226 1.924q0 .13.036.295.007.03.007.051 0 .031-.057.08-.057.05-.12.05-.167 0-.167-.307 0-.317.13-1.003.045-.24.045-.294 0-.109.04-.185.04-.077.112-.077.088 0 .138.043.051.041.051.093t-.024.136q-.129.455-.16.651-.03.197-.03.467zM13.756 259.067q-.22.37-.451.574-.231.203-.43.203-.113 0-.232-.133-.117-.132-.117-.408 0-.226.109-.665.09-.367.09-.515.05-.103.158-.103.072 0 .115.051.043.05.043.106 0 .12-.084.342-.16.433-.16.743 0 .282.13.282.167 0 .426-.284.258-.284.443-.792.072-.204.117-.264.046-.062.124-.062.117 0 .117.155 0 .019-.033.126-.103.377-.103.713 0 .403.132.522.07.064.07.103 0 .048-.071.088-.07.04-.126.04-.12 0-.195-.18-.074-.178-.074-.528v-.057l.002-.057zM15.246 257.51q-.036 0-.055-.078-.007-.024-.02-.053-.046-.112-.046-.195 0-.069.081-.14.083-.071.183-.071.05 0 .112.04.062.037.062.073 0 .057-.043.193-.041.136-.135.184-.09.047-.139.047zm-.226 1.924q0 .13.036.295.007.03.007.051 0 .031-.056.08-.057.05-.121.05-.167 0-.167-.307 0-.317.13-1.003.046-.24.046-.294 0-.109.04-.185.039-.077.111-.077.088 0 .138.043.052.041.052.093t-.024.136q-.13.455-.16.651-.032.197-.032.467zM17.909 258.307q-.14.224-.393.758-.057.12-.115.233-.02.036-.072.16-.181.42-.316.42-.107 0-.156-.025-.049-.026-.093-.142-.045-.115-.133-.542-.102-.484-.138-.596-.117.263-.208.508-.138.36-.267.587-.13.226-.186.27-.057.047-.109.047-.053 0-.096-.041-.043-.041-.043-.081.01-.07.024-.088.15-.184.258-.393.109-.208.276-.625.169-.417.215-.684.022-.113.167-.113.084 0 .116.025.03.026.06.105.03.08.036.142.01.074.059.329.043.24.056.339.024.143.085.376.062.232.096.232.024 0 .07-.105l.144-.334q.04-.091.084-.18l.198-.404q.162-.334.248-.484.088-.152.118-.183.03-.03.068-.03.066 0 .147.035.08.035.084.078.004.043.016.36l.022.537q.01.257.031.438.02.18.072.29.081.175.081.271 0 .083-.068.114t-.126.031q-.12 0-.186-.193-.064-.193-.093-1.106-.01-.274-.033-.336zM3.4 266.936v.765h-.336v-.765l-.78-1.898h.336l.603 1.509.602-1.51h.336zM4.966 267.065q-.259 0-.398-.148-.138-.148-.138-.415 0-.45.357-.948.356-.5.663-.5.14 0 .24.152.1.15.1.32 0 .1-.044.175-.043.072-.088.072-.1 0-.141-.201-.047-.217-.134-.217-.18 0-.424.425-.245.426-.245.718 0 .293.333.293.253 0 .596-.238.12-.084.177-.084.059 0 .059.067 0 .131-.309.331-.308.198-.604.198zM7.584 265.604q-.16.003-.686.95-.177.318-.206.347-.03.028-.109.05-.077.023-.129.023-.115 0-.115-.45 0-.253.108-.916.045-.269.045-.384 0-.114.102-.114.19 0 .19.276 0 .129-.063.506-.074.43-.076.524.107-.104.314-.453.293-.48.43-.607.14-.129.288-.129.112 0 .178.15.067.15.08.715.004.141.026.21.023.069.033.069.081 0 .351-.551.145-.291.281-.443.138-.152.305-.152.14 0 .203.145.064.143.092.426.026.286.079.523.055.238.2.305.098.047.098.109 0 .06-.083.124-.082.063-.151.063-.138 0-.247-.168-.108-.17-.163-.73-.024-.226-.047-.321-.022-.095-.07-.095-.073 0-.173.138-.098.138-.318.56-.173.329-.262.439-.088.108-.17.108-.075 0-.133-.058-.059-.06-.074-.143-.016-.084-.033-.412-.026-.544-.095-.634zM10.464 264.66q-.036 0-.055-.077-.007-.024-.019-.054-.046-.111-.046-.194 0-.07.08-.14.083-.072.183-.072.05 0 .112.04.062.037.062.074 0 .056-.043.193-.041.136-.134.184-.092.046-.14.046zm-.225 1.924q0 .131.036.295.007.031.007.052 0 .03-.057.079-.057.05-.12.05-.168 0-.168-.307 0-.317.131-1.002.045-.24.045-.295 0-.108.04-.184.039-.078.111-.078.088 0 .138.044.052.04.052.093 0 .051-.024.136-.13.454-.16.65-.031.197-.031.468zM11.033 265.038h.317v.794h1.031v-.794h.317v1.665h.317v.751h-.317v-.487h-.317v-.889H11.35v.889h-.317zM13.22 266.669l-.003-.036q-.017-.174.107-.366.125-.19.628-.444.32-.162.32-.294 0-.071-.058-.109-.058-.038-.101-.038-.13 0-.497.183-.029.015-.034.015-.141 0-.141-.1 0-.162.279-.268.279-.109.486-.109.129 0 .27.103.141.102.141.274 0 .142-.091.272-.091.131-.456.333-.3.165-.407.272-.105.107-.105.241 0 .098.091.13.092.03.138.03.324 0 .579-.134.088-.045.13-.045.09 0 .09.1 0 .152-.244.253-.245.102-.62.102-.18 0-.333-.102-.153-.103-.169-.263zM15.527 264.66q-.036 0-.055-.077-.007-.024-.02-.054-.046-.111-.046-.194 0-.07.081-.14.083-.072.183-.072.05 0 .112.04.062.037.062.074 0 .056-.043.193-.042.136-.135.184-.091.046-.14.046zm-.226 1.924q0 .131.036.295.007.031.007.052 0 .03-.057.079-.057.05-.12.05-.167 0-.167-.307 0-.317.13-1.002.045-.24.045-.295 0-.108.04-.184.04-.078.112-.078.088 0 .138.044.051.04.051.093 0 .051-.024.136-.129.454-.16.65-.03.197-.03.468zM3.569 273.49q-.241.324-.477.486-.236.162-.433.162-.132 0-.229-.112-.096-.112-.096-.288 0-.453.405-.975.404-.523.804-.523.145 0 .215.165.023.055.07.055.139 0 .139.107 0 .053-.018.146-.093.509-.093.717 0 .417.159.5.076.04.076.101 0 .054-.074.107-.074.055-.143.055-.133 0-.22-.183-.085-.182-.085-.52zm-.105-.97q-.228 0-.53.428-.3.425-.3.706 0 .198.13.198.19 0 .526-.382.336-.383.336-.703 0-.246-.162-.246zM4.949 274.216q-.259 0-.398-.149-.138-.148-.138-.415 0-.45.356-.947.357-.5.664-.5.14 0 .239.152.102.15.102.319 0 .101-.045.175-.043.073-.088.073-.1 0-.141-.202-.047-.217-.135-.217-.179 0-.423.425-.245.426-.245.719t.333.293q.253 0 .596-.238.12-.085.177-.085.059 0 .059.068 0 .13-.309.33-.308.198-.604.198zM7.567 272.755q-.16.003-.686.949-.177.319-.206.348-.03.027-.109.05-.077.022-.13.022-.115 0-.115-.45 0-.253.109-.916.045-.268.045-.384 0-.114.101-.114.192 0 .192.276 0 .13-.064.507-.074.43-.076.523.107-.103.314-.453.292-.479.43-.606.14-.13.288-.13.112 0 .177.15.067.15.081.715.004.142.026.21.022.07.033.07.08 0 .351-.552.145-.291.281-.443.138-.151.305-.151.14 0 .203.145.064.143.091.425.026.286.08.524.055.237.2.305.098.046.098.108 0 .06-.083.124t-.152.064q-.137 0-.246-.169-.108-.169-.164-.73-.024-.226-.046-.32-.022-.095-.07-.095-.073 0-.173.137-.098.138-.319.56-.172.33-.261.44-.088.108-.171.108-.074 0-.133-.059-.058-.06-.074-.143-.015-.084-.032-.411-.026-.545-.095-.634zM10.292 272.166q.022-.016.05-.016.043 0 .072.116 0 .074-.04.187-.117.326-.117.455 0 .034.021.038.396-.38.734-.38.208 0 .35.158.14.157.14.287 0 .4-.407.769-.407.367-.82.367-.185 0-.288-.152-.102-.153-.102-.438 0-.308.078-.682.077-.373.124-.5.019-.053.034-.108.018-.069.17-.101zm-.081 1.08q-.034.19-.034.382 0 .26.204.26.231 0 .517-.275.286-.276.286-.536 0-.107-.057-.18-.056-.072-.156-.072-.136 0-.27.07-.13.066-.292.218-.062.059-.1.091-.036.031-.098.042zm1.735.396q0 .13.036.294.007.031.007.052 0 .031-.057.081-.057.048-.12.048-.168 0-.168-.306 0-.305.133-1.023.048-.262.048-.317 0-.109.04-.185.04-.077.112-.077.087 0 .137.043.052.041.052.093t-.024.143q-.134.49-.165.687-.031.197-.031.467zM12.614 272.188h.317v.794h1.032v-.794h.317v1.666h.317v.75h-.317v-.487h-.317v-.889H12.93v.89h-.317zM15.162 274.117v-.86h-.453v-.294h.453v-.775h1.36v.27H15.48v.505h.716v.293h-.716v.861zM17.323 272.166q.023-.016.05-.016.043 0 .073.116 0 .074-.04.187-.117.326-.117.455 0 .034.02.038.397-.38.734-.38.209 0 .35.158.141.157.141.287 0 .4-.408.769-.406.367-.82.367-.184 0-.288-.152-.101-.153-.101-.438 0-.308.077-.682.078-.373.124-.5.02-.053.035-.108.017-.069.17-.101zm-.08 1.08q-.035.19-.035.382 0 .26.205.26.23 0 .517-.275.286-.276.286-.536 0-.107-.057-.18-.057-.072-.157-.072-.136 0-.269.07-.13.066-.293.218-.062.059-.1.091-.036.031-.098.042zm1.734.396q0 .13.036.294.007.031.007.052 0 .031-.057.081-.057.048-.12.048-.167 0-.167-.306 0-.305.132-1.023.048-.262.048-.317 0-.109.04-.185.04-.077.112-.077.088 0 .138.043.051.041.051.093t-.024.143q-.134.49-.165.687-.031.197-.031.467zM3.569 280.64q-.241.325-.477.487-.236.161-.433.161-.132 0-.229-.111-.096-.112-.096-.288 0-.453.405-.975.404-.524.804-.524.145 0 .215.166.023.055.07.055.139 0 .139.106 0 .054-.018.147-.093.508-.093.716 0 .417.159.5.076.041.076.102 0 .053-.074.106-.074.056-.143.056-.133 0-.22-.183-.085-.183-.085-.52zm-.105-.969q-.228 0-.53.427-.3.426-.3.706 0 .199.13.199.19 0 .526-.383.336-.382.336-.703 0-.246-.162-.246zM5.694 280.518q-.22.37-.45.574-.232.203-.43.203-.113 0-.232-.132-.117-.133-.117-.409 0-.225.108-.664.091-.367.091-.515.05-.104.157-.104.072 0 .116.052.043.05.043.105 0 .12-.085.343-.16.432-.16.742 0 .283.13.283.168 0 .426-.285.259-.284.443-.792.072-.203.117-.263.047-.062.124-.062.117 0 .117.155 0 .018-.032.125-.104.378-.104.713 0 .404.133.522.069.064.069.104 0 .048-.07.088-.07.04-.127.04-.12 0-.194-.18-.074-.18-.074-.529v-.057l.001-.056zM7.79 280.64q-.24.325-.476.487-.236.161-.433.161-.132 0-.229-.111-.096-.112-.096-.288 0-.453.405-.975.404-.524.804-.524.145 0 .215.166.023.055.07.055.139 0 .139.106 0 .054-.018.147-.093.508-.093.716 0 .417.159.5.076.041.076.102 0 .053-.074.106-.074.056-.143.056-.133 0-.22-.183-.085-.183-.085-.52zm-.104-.969q-.228 0-.53.427-.3.426-.3.706 0 .199.13.199.19 0 .526-.383.336-.382.336-.703 0-.246-.162-.246zM8.792 279.339h.315v.906l.894-.906h.39l-.738.745.646.92h.244v.751h-.317v-.487h-.096l-.684-.973-.34.344v.629h-.314zM2.878 288.422q-.258 0-.398-.149-.138-.148-.138-.415 0-.45.357-.947.356-.5.663-.5.14 0 .24.152.101.15.101.319 0 .101-.045.175-.043.073-.087.073-.1 0-.142-.202-.046-.217-.134-.217-.18 0-.424.425-.244.426-.244.719t.332.293q.253 0 .596-.238.12-.085.177-.085.059 0 .059.068 0 .13-.308.33-.309.199-.605.199zM5.369 286.999q-.09 0-.196.117-.106.117-.323.525-.286.548-.37.624-.083.076-.138.076-.203 0-.203-.197 0-.082.028-.234.094-.52.094-1.097 0-.066.055-.145.057-.081.107-.081.09 0 .128.055.038.055.038.222 0 .174-.104.717-.034.179-.034.227 0 .028.014.028.025 0 .239-.412.215-.418.377-.589.162-.17.357-.17.155 0 .251.14.098.142.143.516.048.425.086.53.04.104.124.104.054 0 .135-.038.014-.007.02-.007.074 0 .074.086 0 .076-.101.162-.102.084-.245.084-.146 0-.227-.115-.08-.117-.126-.622-.048-.506-.203-.506zM7.038 288.41q-.236 0-.39-.18-.153-.179-.153-.442 0-.445.298-.875.3-.433.717-.433.276 0 .446.212.172.212.172.505 0 .448-.354.83-.354.382-.736.382zm-.24-.667q0 .174.073.284.074.11.195.11.256 0 .515-.28.258-.283.258-.627 0-.212-.1-.343-.098-.133-.265-.133-.278 0-.477.341-.198.34-.198.648zM8.862 288.124q-.084.31-.158.87l-.049.325q-.012.069-.063.136-.052.069-.095.069-.053 0-.122-.055-.067-.054-.067-.086 0-.095.043-.262.315-1.273.315-2.236l-.002-.145q-.003-.186.066-.27.068-.084.158-.084.041 0 .08.065.037.064.037.183 0 .167-.034.404-.045.3-.047.345.257-.448.545-.7.287-.25.534-.25.174 0 .292.13.121.13.121.322 0 .562-.43 1.02-.431.458-.84.458-.101 0-.161-.052-.059-.051-.123-.187zm1.07-1.387q-.243 0-.601.455-.359.454-.359.708 0 .062.071.12.07.059.18.059.246 0 .566-.364.32-.365.32-.716 0-.126-.051-.193-.05-.07-.126-.07zM12.11 286.96q-.16.004-.685.95-.177.319-.206.348-.03.027-.109.05-.077.022-.13.022-.114 0-.114-.45 0-.253.108-.916.045-.268.045-.384 0-.114.101-.114.192 0 .192.276 0 .13-.064.507-.074.43-.076.523.107-.103.314-.453.292-.479.43-.606.14-.13.288-.13.112 0 .177.15.068.15.081.715.004.142.026.21.023.07.033.07.08 0 .351-.552.145-.29.281-.443.138-.151.305-.151.14 0 .203.145.064.143.092.425.025.286.079.524.055.237.2.305.098.046.098.108 0 .06-.083.124t-.151.064q-.138 0-.247-.169-.108-.169-.163-.73-.025-.226-.047-.32-.022-.095-.07-.095-.073 0-.173.137-.098.138-.319.56-.172.33-.261.44-.088.108-.17.108-.075 0-.134-.059-.058-.06-.074-.143-.015-.084-.032-.411-.026-.545-.095-.634zM3.42 293.59q-.065-.178-.302-.385-.224-.193-.224-.33 0-.11.072-.178.072-.069.269-.124.244-.067.497-.152.254-.086.305-.11.033-.015.068-.015.056 0 .056.101 0 .057-.137.155-.138.098-.488.183-.22.055-.27.083-.049.025-.049.053 0 .062.135.179.506.443.506 1.111 0 .288-.151.617-.152.327-.405.487-.252.16-.493.16-.217 0-.329-.211-.112-.212-.112-.467 0-.452.278-.851.279-.4.589-.4.041 0 .103.054.057.051.083.04zm-.75 1.164q0 .19.05.3.051.108.134.108.11 0 .298-.136t.301-.403q.116-.267.116-.5 0-.193-.055-.312-.054-.12-.1-.12-.307 0-.526.374-.218.373-.218.689zM5.388 294.752q-.241.324-.477.486-.236.162-.433.162-.132 0-.229-.112-.096-.112-.096-.288 0-.453.405-.975.404-.524.804-.524.145 0 .215.166.023.055.07.055.139 0 .139.107 0 .053-.017.146-.094.508-.094.717 0 .416.159.5.076.04.076.1 0 .054-.074.108-.074.055-.143.055-.133 0-.22-.183-.085-.183-.085-.52zm-.105-.97q-.228 0-.53.427-.3.426-.3.707 0 .198.13.198.19 0 .526-.383.336-.382.336-.703 0-.246-.162-.246zM7.264 293.975q-.042-.002-.081.08-.357.712-.54.967l-.04.066q-.214.384-.314.384-.135 0-.135-.13 0-.116.167-.318.162-.191.426-.648.263-.458.427-.821.031-.066.093-.066.026 0 .091.024.068.023.087.05.018.028.084.32.212 1.057.446 1.253.055.048.066.065.01.016.01.045 0 .054-.035.098-.034.043-.067.055-.032.012-.134.012-.036 0-.169-.177-.133-.18-.31-.973-.043-.214-.072-.286zM9.565 294.752q-.241.324-.477.486-.236.162-.433.162-.132 0-.229-.112-.096-.112-.096-.288 0-.453.405-.975.405-.524.804-.524.145 0 .215.166.023.055.071.055.138 0 .138.107 0 .053-.017.146-.093.508-.093.717 0 .416.158.5.076.04.076.1 0 .054-.074.108-.074.055-.143.055-.133 0-.219-.183t-.086-.52zm-.105-.97q-.227 0-.529.427-.301.426-.301.707 0 .198.13.198.19 0 .526-.383.336-.382.336-.703 0-.246-.162-.246zM11.44 293.975q-.04-.002-.08.08-.357.712-.54.967-.015.023-.039.066-.215.384-.315.384-.134 0-.134-.13 0-.116.167-.318.162-.191.425-.648.264-.458.427-.821.031-.066.093-.066.026 0 .092.024.067.023.086.05.019.028.084.32.212 1.057.446 1.253.055.048.066.065.01.016.01.045 0 .054-.034.098-.035.043-.068.055-.032.012-.134.012-.036 0-.169-.177-.132-.18-.31-.973-.043-.214-.072-.286zM13.742 294.752q-.241.324-.477.486-.236.162-.432.162-.133 0-.23-.112-.096-.112-.096-.288 0-.453.405-.975.405-.524.804-.524.145 0 .216.166.022.055.07.055.138 0 .138.107 0 .053-.017.146-.093.508-.093.717 0 .416.158.5.076.04.076.1 0 .054-.074.108-.074.055-.143.055-.133 0-.219-.183t-.086-.52zm-.105-.97q-.227 0-.529.427-.301.426-.301.707 0 .198.13.198.19 0 .526-.383.336-.382.336-.703 0-.246-.162-.246zM14.984 295.18q-.084.31-.158.869l-.049.326q-.012.068-.063.136-.052.069-.095.069-.053 0-.122-.056-.068-.053-.068-.086 0-.094.044-.261.315-1.273.315-2.236l-.002-.145q-.003-.186.066-.27.068-.085.158-.085.041 0 .08.066.037.063.037.182 0 .167-.034.405-.045.3-.047.344.257-.447.545-.699.287-.251.533-.251.174 0 .293.13.12.13.12.323 0 .561-.43 1.02-.43.458-.839.458-.101 0-.162-.052-.058-.052-.122-.188zm1.07-1.388q-.243 0-.601.455-.359.455-.359.708 0 .062.071.12.07.06.18.06.245 0 .566-.364.32-.365.32-.717 0-.125-.051-.193-.05-.069-.126-.069zM3.569 301.807q-.241.324-.477.486-.236.162-.433.162-.132 0-.229-.112-.096-.112-.096-.287 0-.454.405-.975.404-.524.804-.524.145 0 .215.165.023.055.07.055.139 0 .139.107 0 .054-.018.147-.093.508-.093.716 0 .417.159.5.076.041.076.101 0 .054-.074.107-.074.055-.143.055-.133 0-.22-.182-.085-.183-.085-.52zm-.105-.97q-.228 0-.53.428-.3.425-.3.706 0 .198.13.198.19 0 .526-.382.336-.383.336-.703 0-.246-.162-.246zM4.81 302.235q-.084.31-.158.87l-.048.325q-.012.069-.064.136-.051.07-.094.07-.054 0-.123-.056-.067-.053-.067-.086 0-.095.043-.262.315-1.273.315-2.236l-.001-.145q-.004-.186.065-.27.07-.084.159-.084.041 0 .079.065.038.064.038.183 0 .167-.035.404-.044.3-.046.345.256-.448.544-.7.288-.25.534-.25.174 0 .293.13.12.13.12.322 0 .562-.43 1.02-.43.458-.839.458-.102 0-.162-.052-.058-.051-.122-.187zm1.07-1.387q-.242 0-.6.455-.359.455-.359.708 0 .062.07.12.071.059.18.059.246 0 .566-.364.32-.365.32-.716 0-.126-.05-.193-.05-.069-.127-.069zM8.027 301.31q.019-.037.06-.433.031-.317.202-.317.14 0 .14.14 0 .033-.025.132-.133.55-.133.922 0 .403.133.522.069.064.069.103 0 .049-.07.088-.07.04-.126.04-.27 0-.27-.83 0-.056-.04-.056-.162 0-.397.02-.234.018-.336.048-.1.029-.124.055-.022.024-.041.132-.017.107-.017.223v.211q0 .185-.169.185-.141 0-.141-.185 0-.12.03-.306.058-.341.114-1.175.007-.109.02-.138.011-.03.061-.064.052-.036.112-.036.124 0 .124.102 0 .015-.04.258t-.04.378q0 .094.065.094.13 0 .479-.043.348-.045.36-.07zM9.996 301.807q-.242.324-.478.486-.235.162-.432.162-.133 0-.229-.112t-.096-.287q0-.454.404-.975.405-.524.805-.524.144 0 .215.165.023.055.07.055.139 0 .139.107 0 .054-.018.147-.093.508-.093.716 0 .417.159.5.076.041.076.101 0 .054-.075.107-.074.055-.142.055-.133 0-.22-.182-.085-.183-.085-.52zm-.105-.97q-.228 0-.53.428-.3.425-.3.706 0 .198.13.198.19 0 .526-.382.335-.383.335-.703 0-.246-.161-.246zM12.121 301.685q-.22.37-.451.574-.23.203-.429.203-.114 0-.233-.133-.117-.132-.117-.408 0-.226.109-.665.091-.367.091-.515.05-.103.157-.103.072 0 .115.052.043.05.043.105 0 .12-.084.342-.16.433-.16.743 0 .282.13.282.168 0 .426-.284.259-.284.443-.792.072-.204.117-.264.047-.062.124-.062.117 0 .117.155 0 .02-.033.126-.103.377-.103.713 0 .403.133.522.069.064.069.103 0 .049-.071.088-.069.04-.126.04-.12 0-.194-.18-.074-.178-.074-.528v-.057l.001-.057zM13.456 300.483q.023-.016.05-.016.043 0 .073.116 0 .074-.04.187-.117.326-.117.455 0 .035.02.038.397-.38.734-.38.209 0 .35.158.141.157.141.288 0 .4-.408.768-.407.367-.82.367-.184 0-.288-.152-.101-.153-.101-.437 0-.309.077-.682.078-.374.124-.5.02-.053.035-.109.017-.068.17-.101zm-.08 1.08q-.035.191-.035.382 0 .26.205.26.23 0 .517-.275.286-.276.286-.536 0-.107-.057-.18-.057-.071-.157-.071-.136 0-.269.068-.13.068-.293.22-.062.058-.1.09-.036.031-.098.042zm1.734.396q0 .131.036.295.007.03.007.051 0 .031-.057.081-.057.048-.12.048-.168 0-.168-.306 0-.305.133-1.023.048-.262.048-.317 0-.109.04-.185.04-.077.112-.077.088 0 .138.043.051.041.051.093t-.024.143q-.134.49-.165.687-.031.197-.031.467zM2.5 307.656h.314v.906l.894-.906h.39l-.738.746.646.92h.245v.75h-.317v-.487h-.096l-.684-.973-.34.344v.629H2.5zM4.938 307.633q.023-.015.05-.015.043 0 .073.115 0 .074-.04.188-.117.326-.117.455 0 .034.02.038.397-.381.734-.381.209 0 .35.158.141.157.141.288 0 .4-.408.768-.407.367-.82.367-.184 0-.288-.151-.101-.154-.101-.438 0-.308.077-.682.078-.374.124-.5.02-.053.035-.108.017-.069.17-.102zm-.08 1.08q-.035.192-.035.383 0 .26.205.26.23 0 .517-.276.286-.275.286-.535 0-.107-.057-.18-.057-.072-.157-.072-.136 0-.269.069-.13.067-.293.219-.062.058-.1.091-.036.031-.098.041zm1.734.397q0 .13.036.294.007.031.007.052 0 .03-.057.08-.057.049-.12.049-.168 0-.168-.307 0-.305.133-1.023.048-.262.048-.317 0-.108.04-.184.04-.078.112-.078.088 0 .138.044.051.04.051.093 0 .051-.024.142-.134.491-.165.688-.031.196-.031.467zM8 308.526q.221.036.345.163.124.128.124.312 0 .291-.246.486-.246.193-.648.193-.239 0-.413-.104-.172-.103-.172-.229 0-.103.119-.103.017 0 .053.03.19.163.45.163.229 0 .394-.12.165-.121.165-.314 0-.128-.094-.212-.093-.086-.217-.086-.095 0-.333.074-.046.015-.1.015-.103 0-.103-.14 0-.047.048-.077.05-.029.212-.067.491-.112.491-.398 0-.086-.062-.141-.06-.057-.157-.057-.179 0-.382.159-.119.093-.181.093-.105 0-.105-.099 0-.129.243-.263.244-.136.468-.136.224 0 .352.119.129.119.129.25 0 .311-.38.489zM9.253 307.633q.023-.015.05-.015.043 0 .073.115 0 .074-.04.188-.117.326-.117.455 0 .034.02.038.397-.381.734-.381.209 0 .35.158.141.157.141.288 0 .4-.408.768-.407.367-.82.367-.184 0-.288-.151-.101-.154-.101-.438 0-.308.077-.682.078-.374.124-.5.02-.053.035-.108.017-.069.17-.102zm-.08 1.08q-.035.192-.035.383 0 .26.205.26.23 0 .517-.276.286-.275.286-.535 0-.107-.057-.18-.057-.072-.157-.072-.136 0-.269.069-.13.067-.293.219-.062.058-.1.091-.036.031-.098.041zm1.734.397q0 .13.036.294.007.031.007.052 0 .03-.057.08-.057.049-.12.049-.168 0-.168-.307 0-.305.133-1.023.048-.262.048-.317 0-.108.04-.184.04-.078.112-.078.088 0 .138.044.051.04.051.093 0 .051-.024.142-.134.491-.165.688-.031.196-.031.467zM13.67 308.076q-.14.224-.393.758-.057.12-.115.232-.02.037-.073.16-.18.421-.315.421-.107 0-.157-.026-.048-.026-.093-.141-.044-.116-.132-.543-.102-.484-.138-.596-.117.264-.209.508-.137.36-.267.588-.129.225-.186.27-.056.047-.108.047-.053 0-.097-.042-.043-.04-.043-.08.01-.071.025-.088.15-.185.258-.393.108-.209.276-.625.168-.417.215-.684.022-.114.167-.114.084 0 .115.026t.06.105q.032.08.037.141.01.074.058.33.043.239.057.338.024.143.085.376.062.233.096.233.024 0 .069-.106l.145-.334q.04-.091.084-.179l.198-.405q.162-.334.248-.484.088-.151.117-.182.031-.031.07-.031.065 0 .146.036.08.034.084.077.003.044.016.36l.022.538q.01.257.03.437.022.18.073.29.081.175.081.272 0 .083-.069.114-.067.03-.125.03-.121 0-.186-.192-.064-.193-.093-1.106-.01-.274-.033-.336zM16.031 309.001q0 .176-.311.424-.31.248-.641.248-.277 0-.429-.164-.15-.163-.15-.456 0-.493.333-.937.332-.445.726-.445.13 0 .21.085.083.084.083.203 0 .265-.26.508t-.696.477q-.09.047-.09.12 0 .144.083.23.083.086.245.086.37 0 .756-.41.057-.057.086-.057.055 0 .055.088zm-1.197-.269q.73-.434.73-.697 0-.104-.092-.104-.159 0-.359.233-.198.232-.279.568zM17.692 308.222q-.16.003-.686.95-.177.318-.206.347-.03.028-.109.05-.077.023-.129.023-.115 0-.115-.45 0-.253.108-.916.045-.269.045-.384 0-.114.102-.114.19 0 .19.276 0 .129-.063.506-.074.43-.076.524.107-.104.314-.453.293-.48.43-.607.14-.129.288-.129.112 0 .177.15.068.15.081.715.004.141.026.21.023.069.033.069.08 0 .351-.551.145-.291.281-.443.138-.152.305-.152.14 0 .203.145.064.143.092.426.025.286.079.523.055.238.2.305.098.047.098.109 0 .06-.083.124-.083.063-.151.063-.138 0-.247-.168-.108-.17-.163-.73-.025-.226-.047-.321t-.07-.095q-.073 0-.173.138-.098.138-.318.56-.173.329-.262.44-.088.108-.17.108-.075 0-.133-.059-.059-.06-.075-.143-.015-.084-.032-.412-.026-.544-.095-.634z"/></g></g></svg>