<svg xmlns="http://www.w3.org/2000/svg" viewBox="0 0 50.9 5.4" height="20.409" width="192.378"><g transform="translate(0 -291.6)" font-weight="400" font-family="Segoe Print" letter-spacing="0" word-spacing="0"><flowRoot transform="matrix(.26458 0 0 .26458 0 226.6)" style="line-height:1.25;-inkscape-font-specification:'Segoe Print';font-variant-ligatures:normal;font-variant-caps:normal;font-variant-numeric:normal;font-feature-settings:normal;text-align:start" xml:space="preserve" font-style="normal" font-variant="normal" font-stretch="normal" font-size="13.333" writing-mode="lr-tb" text-anchor="start" fill="#000" fill-opacity="1" stroke="none"><flowRegion><path d="M7.239 212.992h60.325V251.6H7.239z"/></flowRegion><flowPara/></flowRoot><text y="254.382" x="54.898" style="line-height:2;-inkscape-font-specification:'Segoe Print';font-variant-ligatures:normal;font-variant-caps:normal;font-variant-numeric:normal;font-feature-settings:normal;text-align:start" font-size="3.528" fill="#917c6f" stroke-width=".265"><tspan y="254.382" x="54.898">адамдар</tspan><tspan y="261.532" x="54.898">бөлме ғимарат жобалар</tspan><tspan y="268.682" x="54.898">ғарыш тылсым әлем</tspan><tspan y="275.833" x="54.898">гүлдер</tspan><tspan y="282.983" x="54.898">өсімдіктер</tspan><tspan y="290.134" x="54.898">қалыпталған кескіндер</tspan><tspan y="297.284" x="54.898">қолданыс заттары</tspan><tspan y="304.34" x="54.898">жаныуарлар</tspan><tspan y="311.49" x="54.898">өнер білім спорт</tspan><tspan y="318.546" x="54.898">art education sports</tspan><tspan y="325.707" x="54.898">美術教育スポーツ</tspan><tspan y="332.857" x="54.898">الرياضة التربية الفنية</tspan><tspan y="340.008" x="54.898">сән үлгілері</tspan><tspan y="347.158" x="54.898">тәбиғат</tspan><tspan y="354.214" x="54.898">елмекен</tspan></text><text y="254.36" x="103.499" style="line-height:2;-inkscape-font-specification:'Segoe Print';font-variant-ligatures:normal;font-variant-caps:normal;font-variant-numeric:normal;font-feature-settings:normal;text-align:start" font-size="3.528" fill="#917c6f" stroke-width=".265"><tspan y="254.36" x="103.499">үи</tspan><tspan y="261.51" x="103.499">пәтер</tspan><tspan y="268.661" x="103.499">бөлме алаң</tspan><tspan y="275.811" x="103.499">ғимарат</tspan><tspan y="282.867" x="103.499">жер телімі</tspan><tspan y="290.017" x="103.499">қызымет</tspan></text><g style="line-height:2;-inkscape-font-specification:'Segoe Print';font-variant-ligatures:normal;font-variant-caps:normal;font-variant-numeric:normal;font-feature-settings:normal;text-align:start" aria-label="үи пәтер бөлме алаң ғимарат жер телімі қызымет" font-size="3.528" fill="#917c6f" stroke-width=".265"><path d="M3.192 280.922v.765h-.336v-.765l-.78-1.898h.336l.603 1.51.603-1.51h.336zM5.504 280.204q-.22.37-.451.574-.231.203-.43.203-.113 0-.232-.133-.117-.132-.117-.408 0-.226.108-.665.092-.367.092-.515.05-.103.157-.103.072 0 .115.051.043.05.043.106 0 .12-.084.342-.16.433-.16.743 0 .282.13.282.167 0 .426-.284.258-.284.442-.792.073-.204.118-.264.046-.062.124-.062.117 0 .117.155 0 .02-.033.126-.103.377-.103.713 0 .403.132.522.07.064.07.103 0 .048-.071.088-.07.04-.126.04-.12 0-.195-.18-.074-.179-.074-.528v-.057l.002-.057zM3.373 286.78q-.09 0-.196.116-.105.117-.322.526-.286.547-.37.623-.083.076-.139.076-.203 0-.203-.196 0-.083.028-.235.094-.52.094-1.097 0-.065.056-.145.056-.08.106-.08.09 0 .128.055.038.055.038.222 0 .174-.104.716-.034.18-.034.228 0 .027.014.027.026 0 .24-.411.214-.419.376-.59.162-.17.357-.17.155 0 .251.141.099.142.143.515.049.426.087.53.04.104.124.104.053 0 .134-.038.014-.007.02-.007.075 0 .075.086 0 .076-.102.162-.102.085-.245.085-.146 0-.227-.116-.08-.117-.126-.622-.048-.506-.203-.506zM4.505 287.222v-.155h1.457q-.02-.327-.198-.498-.176-.172-.491-.172-.183 0-.355.045-.17.044-.34.134v-.3q.171-.072.35-.11.18-.038.364-.038.462 0 .73.269.27.269.27.727 0 .473-.256.752-.255.278-.689.278-.39 0-.617-.25-.225-.251-.225-.682zm.317.093q.003.26.144.415.143.155.378.155.265 0 .423-.15.16-.15.185-.422zM8.01 286.741q-.16.003-.685.95-.178.318-.207.347-.03.028-.109.05-.077.023-.129.023-.115 0-.115-.45 0-.253.108-.916.045-.269.045-.384 0-.114.102-.114.19 0 .19.276 0 .129-.063.506-.074.43-.076.524.107-.104.314-.453.293-.48.43-.607.14-.129.288-.129.112 0 .178.15.067.15.08.715.004.141.026.21.023.069.033.069.081 0 .352-.551.144-.291.28-.443.138-.152.305-.152.14 0 .203.145.064.143.092.426.026.285.079.523.055.238.2.305.098.047.098.109 0 .06-.083.124-.082.063-.151.063-.138 0-.247-.168-.108-.17-.163-.73-.024-.226-.047-.321-.022-.095-.07-.095-.073 0-.173.138-.098.138-.318.56-.173.329-.262.439-.088.108-.17.108-.075 0-.133-.058-.059-.06-.074-.143-.016-.084-.033-.412-.026-.544-.095-.634zM11.81 287.52q0 .176-.312.424-.31.248-.64.248-.278 0-.43-.164-.15-.164-.15-.456 0-.493.333-.938.333-.444.727-.444.13 0 .21.084.083.085.083.204 0 .265-.26.508t-.696.477q-.09.047-.09.12 0 .144.083.23.083.086.245.086.37 0 .756-.41.057-.057.086-.057.055 0 .055.088zm-1.197-.269q.73-.434.73-.697 0-.104-.093-.104-.158 0-.358.233-.198.232-.28.568zM12.503 287.904q-.085.31-.159.87l-.048.325q-.012.07-.064.137-.052.068-.095.068-.053 0-.122-.055-.067-.053-.067-.086 0-.094.043-.262.315-1.273.315-2.235l-.001-.145q-.004-.186.065-.27.069-.085.158-.085.042 0 .08.066.038.063.038.182 0 .167-.035.405-.045.3-.046.344.256-.447.544-.699.288-.251.534-.251.174 0 .293.13.12.13.12.323 0 .561-.43 1.02-.43.458-.84.458-.1 0-.161-.052-.059-.052-.122-.188zm1.07-1.387q-.244 0-.602.455t-.358.708q0 .062.07.12.071.06.18.06.246 0 .566-.364.32-.365.32-.717 0-.126-.051-.193-.05-.069-.126-.069zM3.213 293.465q-.066-.178-.303-.385-.224-.192-.224-.33 0-.11.072-.178.072-.069.269-.124.244-.067.498-.151.253-.086.305-.11.032-.016.067-.016.057 0 .057.102 0 .056-.138.155-.138.098-.488.182-.22.055-.27.083-.048.026-.048.053 0 .062.134.18.506.442.506 1.11 0 .288-.151.617-.152.327-.405.488-.251.16-.493.16-.217 0-.329-.212-.112-.212-.112-.467 0-.451.278-.85.279-.4.589-.4.041 0 .103.053.057.052.083.04zm-.751 1.164q0 .191.05.3.051.108.134.108.11 0 .298-.136t.302-.403q.115-.267.115-.5 0-.192-.055-.311-.053-.12-.1-.12-.307 0-.525.373-.22.374-.22.689zM4.867 293.547q-.254 0-.383.167-.127.166-.158.384h1.081q-.03-.218-.16-.384-.127-.167-.38-.167zm.001 1.489q.257 0 .402-.2.144-.2.144-.455H4.322q0 .255.145.455t.401.2zm.002-1.757q.413 0 .65.268.235.269.235.744 0 .474-.236.745-.236.268-.649.268-.415 0-.651-.268-.234-.27-.234-.745t.234-.744q.236-.268.651-.268zM7.144 293.85q-.042-.002-.081.08-.357.713-.54.968-.015.022-.039.065-.215.384-.315.384-.135 0-.135-.129 0-.117.168-.319.161-.19.425-.647.264-.458.427-.822.031-.065.093-.065.026 0 .091.024.068.022.087.05.019.027.084.32.212 1.056.446 1.252.055.049.066.066.01.015.01.045 0 .053-.035.098-.034.043-.067.055-.032.012-.134.012-.036 0-.169-.177-.132-.18-.31-.974-.043-.213-.072-.286zM10.482 293.745q-.14.224-.393.758-.057.12-.115.233-.02.036-.072.16-.181.42-.316.42-.106 0-.156-.025-.049-.026-.093-.142-.045-.115-.133-.542-.102-.484-.138-.596-.117.263-.208.508-.138.36-.267.587-.13.226-.186.27-.057.047-.109.047-.053 0-.096-.041-.043-.041-.043-.081.01-.07.024-.088.15-.184.258-.393.109-.208.276-.625.169-.417.215-.684.022-.114.167-.114.085 0 .116.026.03.026.06.105.03.08.036.142.01.074.059.329.043.239.056.339.025.143.085.375.062.233.096.233.024 0 .07-.105l.144-.334q.04-.092.084-.18l.198-.404q.162-.334.248-.484.088-.152.118-.183.03-.03.068-.03.066 0 .147.035.08.035.084.078.004.043.016.36l.022.537q.01.257.031.438.02.179.073.29.08.175.08.271 0 .083-.068.114t-.126.031q-.12 0-.186-.193-.064-.193-.093-1.106-.01-.274-.033-.336zM12.844 294.67q0 .176-.312.424-.31.248-.64.248-.278 0-.43-.163-.15-.164-.15-.457 0-.493.333-.937.332-.444.727-.444.129 0 .21.084.082.084.082.203 0 .265-.26.508t-.696.478q-.09.046-.09.12 0 .143.084.23.082.085.244.085.37 0 .756-.41.057-.056.087-.056.055 0 .055.087zm-1.198-.268q.73-.434.73-.698 0-.103-.092-.103-.159 0-.358.232-.199.233-.28.569zM15.775 294.627q-.24.324-.477.486-.236.162-.432.162-.133 0-.23-.112-.096-.112-.096-.288 0-.453.405-.975.405-.523.805-.523.144 0 .215.165.022.055.07.055.138 0 .138.107 0 .053-.017.146-.093.509-.093.717 0 .417.159.5.075.04.075.101 0 .054-.074.107-.074.055-.143.055-.132 0-.218-.183-.087-.182-.087-.52zm-.105-.97q-.227 0-.528.428-.302.425-.302.706 0 .198.131.198.19 0 .525-.382.336-.383.336-.703 0-.246-.162-.246zM17.651 293.85q-.041-.002-.08.08-.357.713-.54.968-.015.022-.04.065-.215.384-.315.384-.134 0-.134-.129 0-.117.167-.319.162-.19.426-.647.263-.458.427-.822.03-.065.093-.065.026 0 .091.024.067.022.086.05.02.027.085.32.211 1.056.446 1.252.055.049.065.066.01.015.01.045 0 .053-.034.098-.034.043-.067.055-.033.012-.134.012-.037 0-.17-.177-.132-.18-.31-.974-.042-.213-.072-.286zM19.953 294.627q-.242.324-.478.486-.236.162-.432.162-.133 0-.229-.112t-.096-.288q0-.453.404-.975.405-.523.805-.523.144 0 .215.165.022.055.07.055.139 0 .139.107 0 .053-.018.146-.093.509-.093.717 0 .417.159.5.076.04.076.101 0 .054-.075.107-.074.055-.143.055-.132 0-.218-.183-.086-.182-.086-.52zm-.105-.97q-.228 0-.53.428-.3.425-.3.706 0 .198.13.198.19 0 .526-.382.335-.383.335-.703 0-.246-.161-.246zM20.965 293.325h.317v.794h1.032v-.794h.317v1.666h.317v.75h-.317v-.487h-.317v-.889h-1.032v.89h-.317zM2.52 302.405v-.861h-.453v-.293h.453v-.775h1.361v.27H2.837v.505h.717v.293h-.717v.86zM5.499 301.655q-.22.37-.452.574-.23.203-.429.203-.113 0-.232-.132-.117-.133-.117-.409 0-.225.108-.664.092-.367.092-.515.05-.104.156-.104.073 0 .116.052.043.05.043.105 0 .12-.085.343-.16.432-.16.742 0 .283.131.283.167 0 .426-.285.258-.284.442-.792.073-.203.117-.263.047-.062.124-.062.118 0 .118.155 0 .018-.033.125-.103.378-.103.713 0 .403.132.522.07.064.07.104 0 .048-.072.088-.068.04-.125.04-.12 0-.195-.18-.074-.18-.074-.529v-.057l.002-.056zM8.632 300.896q-.14.224-.393.758-.057.12-.115.232-.02.036-.072.16-.181.42-.316.42-.107 0-.156-.025-.049-.026-.093-.141-.045-.116-.133-.543-.102-.484-.138-.596-.117.264-.208.508-.138.36-.267.588-.13.225-.186.27-.057.047-.109.047-.053 0-.096-.042-.043-.041-.043-.08.01-.071.024-.089.15-.184.258-.392.109-.209.276-.626.168-.416.215-.683.022-.114.167-.114.084 0 .115.026.032.025.06.105.032.079.037.141.01.074.059.329.043.24.056.34.024.142.085.375.062.232.096.232.024 0 .07-.105l.144-.334q.04-.091.084-.179l.198-.405q.162-.334.248-.484.088-.151.118-.182t.068-.031q.066 0 .147.036.08.034.084.077.004.043.016.36l.022.538q.01.256.031.437.02.18.072.29.081.175.081.272 0 .082-.068.113t-.126.031q-.12 0-.186-.192-.064-.193-.093-1.106-.01-.274-.033-.336zM10.68 301.778q-.241.324-.477.486-.236.161-.432.161-.133 0-.23-.112-.096-.111-.096-.287 0-.453.405-.975.405-.524.804-.524.145 0 .216.166.022.055.07.055.138 0 .138.106 0 .054-.017.147-.093.508-.093.716 0 .417.158.5.076.041.076.102 0 .053-.074.106-.074.056-.143.056-.133 0-.219-.183t-.086-.52zm-.105-.97q-.227 0-.529.427-.301.426-.301.706 0 .199.13.199.19 0 .526-.383.336-.382.336-.703 0-.246-.162-.246zM11.922 302.205q-.084.31-.158.87l-.049.325q-.012.07-.063.136-.052.07-.095.07-.053 0-.122-.056-.068-.053-.068-.086 0-.095.043-.262.316-1.273.316-2.235l-.002-.145q-.003-.186.065-.27.07-.085.159-.085.041 0 .08.065.037.064.037.183 0 .167-.034.405-.045.3-.047.344.257-.448.544-.7.288-.25.534-.25.174 0 .293.13.12.13.12.322 0 .562-.43 1.02-.43.458-.839.458-.101 0-.162-.051-.058-.052-.122-.188zm1.07-1.387q-.243 0-.601.455-.359.455-.359.708 0 .062.07.12.072.06.18.06.246 0 .567-.364.32-.365.32-.717 0-.126-.051-.193-.05-.069-.126-.069zM15.031 301.778q-.24.324-.477.486-.236.161-.432.161-.133 0-.23-.112-.096-.111-.096-.287 0-.453.405-.975.405-.524.804-.524.145 0 .216.166.022.055.07.055.138 0 .138.106 0 .054-.017.147-.093.508-.093.716 0 .417.158.5.076.041.076.102 0 .053-.074.106-.074.056-.143.056-.132 0-.219-.183-.086-.183-.086-.52zm-.105-.97q-.227 0-.529.427-.301.426-.301.706 0 .199.13.199.19 0 .526-.383.336-.382.336-.703 0-.246-.162-.246zM17.241 301.042q-.16.003-.685.95-.178.318-.207.347-.03.028-.108.05-.078.023-.13.023-.115 0-.115-.45 0-.253.108-.916.045-.269.045-.384 0-.114.102-.114.191 0 .191.276 0 .129-.064.506-.074.43-.075.524.106-.104.313-.453.293-.48.43-.607.14-.129.288-.129.112 0 .178.15.067.15.08.715.004.141.027.21.022.069.032.069.081 0 .352-.551.144-.291.28-.443.138-.152.305-.152.14 0 .204.145.063.143.09.426.027.285.08.523.055.238.2.305.098.047.098.109 0 .06-.083.124-.082.063-.151.063-.138 0-.246-.169-.109-.168-.164-.73-.024-.226-.047-.32-.022-.095-.07-.095-.073 0-.172.138-.099.138-.32.56-.171.329-.261.439-.088.108-.17.108-.075 0-.133-.058-.059-.06-.074-.143-.016-.085-.033-.412-.026-.544-.095-.634zM3.65 308.677q-.022.387-.074.76-.025.07-.13.07-.152 0-.152-.155 0-.064.036-.238.026-.152.028-.205.001-.055.008-.119.007-.065-.002-.103-.087.012-.358.21-.27.198-.463.393v-.002q-.012.007-.076.129-.091.183-.202.183-.051 0-.115-.045-.062-.045-.062-.09 0-.107.2-.317.201-.212.444-.362.297-.182.409-.294-.05-.07-.195-.155-.147-.086-.272-.193l-.042-.031q-.222-.15-.296-.224-.072-.076-.072-.162 0-.057.043-.103.043-.048.084-.048.026 0 .093.027.067.028.097.059l.084.079q.446.437.706.556.014 0 .035-.032.017-.059.017-.188 0-.12-.026-.27-.014-.078-.014-.102 0-.081.062-.131.064-.05.138-.05.085 0 .116.034.03.035.03.117l-.022.548v.035q0 .024.002.04.06 0 .126-.047.065-.048.194-.19.567-.587.657-.587.05 0 .091.041.041.042.041.097 0 .027-.19.234-.187.205-.387.377-.256.22-.256.23 0 .011.213.178.231.181.319.257.012.01.034.023.255.156.319.234.064.077.064.13 0 .05-.043.104-.043.052-.085.052-.153 0-.711-.515-.248-.231-.3-.243-.022-.003-.034-.01-.018-.004-.062-.001-.045.002-.049.014zM6.735 308.876q0 .176-.311.424-.31.248-.641.248-.277 0-.429-.163-.15-.164-.15-.457 0-.493.333-.937.332-.444.727-.444.129 0 .21.084.082.084.082.203 0 .266-.26.508-.26.243-.696.478-.09.046-.09.12 0 .143.083.23.083.085.245.085.37 0 .756-.41.057-.056.086-.056.055 0 .055.087zm-1.197-.268q.73-.434.73-.698 0-.103-.092-.103-.159 0-.359.232-.198.233-.279.569zM7.428 309.26q-.084.31-.159.87l-.048.326q-.012.069-.063.136-.052.069-.095.069-.054 0-.123-.055-.067-.054-.067-.086 0-.095.043-.262.316-1.273.316-2.236l-.002-.145q-.004-.186.065-.27.07-.084.159-.084.041 0 .079.065.038.064.038.183 0 .167-.035.404-.044.3-.046.345.257-.448.544-.7.288-.25.534-.25.174 0 .293.13.12.13.12.322 0 .562-.43 1.02-.43.458-.839.458-.101 0-.162-.052-.058-.051-.122-.187zm1.07-1.386q-.243 0-.602.455-.358.454-.358.708 0 .062.07.12.071.059.18.059.246 0 .567-.364.32-.365.32-.716 0-.126-.052-.193-.05-.07-.125-.07zM12.087 308.098q-.16.003-.685.949-.178.319-.207.348-.03.027-.108.05-.078.022-.13.022-.115 0-.115-.45 0-.253.109-.916.044-.268.044-.384 0-.114.102-.114.191 0 .191.276 0 .13-.064.507-.074.43-.075.523.106-.103.313-.453.293-.479.43-.606.14-.13.288-.13.112 0 .178.15.067.15.08.715.004.142.027.21.022.07.032.07.081 0 .352-.552.145-.29.28-.443.138-.151.305-.151.14 0 .204.145.063.143.091.425.026.286.08.524.054.237.2.305.097.046.097.108 0 .06-.082.124-.083.064-.152.064-.138 0-.246-.169-.109-.169-.164-.73-.024-.226-.046-.32-.023-.095-.071-.095-.072 0-.172.137-.099.138-.319.56-.172.33-.262.44-.088.108-.17.108-.074 0-.133-.059-.059-.06-.074-.143-.016-.084-.033-.411-.026-.545-.095-.634zM15.887 308.876q0 .176-.311.424-.31.248-.641.248-.278 0-.43-.163-.149-.164-.149-.457 0-.493.332-.937.333-.444.727-.444.13 0 .21.084.083.084.083.203 0 .266-.26.508-.26.243-.696.478-.09.046-.09.12 0 .143.083.23.083.085.245.085.37 0 .756-.41.057-.056.086-.056.055 0 .055.087zm-1.197-.268q.73-.434.73-.698 0-.103-.092-.103-.159 0-.359.232-.198.233-.279.569zM17.214 308.056q-.042-.002-.081.08-.357.713-.54.968-.015.022-.039.065-.215.384-.315.384-.135 0-.135-.129 0-.117.168-.319.161-.19.425-.647.264-.458.427-.822.031-.065.093-.065.026 0 .091.024.068.022.087.05.019.027.084.32.212 1.056.446 1.252.055.049.066.066.01.015.01.045 0 .053-.034.098-.035.043-.068.055-.032.012-.134.012-.036 0-.169-.177-.132-.18-.31-.974-.043-.213-.072-.286zM18.909 307.154q-.036 0-.055-.078-.007-.024-.02-.053-.046-.112-.046-.195 0-.069.081-.14.083-.072.183-.072.05 0 .112.04.062.038.062.074 0 .057-.043.193-.042.136-.135.184-.091.047-.14.047zm-.226 1.924q0 .13.036.294.007.031.007.052 0 .031-.057.08-.057.05-.12.05-.167 0-.167-.307 0-.317.13-1.003.045-.24.045-.294 0-.109.04-.185.04-.077.112-.077.088 0 .138.043.051.041.051.093t-.024.136q-.129.455-.16.651-.03.197-.03.467zM21.572 307.951q-.14.224-.393.758-.057.12-.115.233-.02.036-.073.16-.18.42-.315.42-.107 0-.157-.025-.048-.026-.093-.142-.044-.115-.132-.542-.102-.484-.138-.596-.117.263-.209.508-.137.36-.267.587-.129.226-.186.27-.056.047-.108.047-.054 0-.097-.041-.043-.041-.043-.081.01-.07.024-.088.15-.184.259-.393.108-.208.275-.625.17-.417.216-.684.022-.114.167-.114.084 0 .115.026t.06.105q.032.08.037.142.01.074.058.329.043.239.057.339.024.143.085.375.062.233.096.233.024 0 .069-.105l.145-.334q.04-.092.084-.18l.198-.404q.162-.334.248-.484.088-.152.117-.183.031-.03.07-.03.065 0 .146.035.08.035.084.078.003.043.016.36l.022.537q.01.257.03.438.022.179.073.29.081.175.081.271 0 .083-.069.114-.067.031-.125.031-.121 0-.186-.193-.064-.193-.093-1.106-.01-.274-.033-.336zM23.014 307.154q-.037 0-.056-.078-.006-.024-.019-.053-.046-.112-.046-.195 0-.069.08-.14.084-.072.184-.072.05 0 .112.04.062.038.062.074 0 .057-.044.193-.04.136-.134.184-.091.047-.14.047zm-.226 1.924q0 .13.036.294.007.031.007.052 0 .031-.057.08-.057.05-.12.05-.168 0-.168-.307 0-.317.131-1.003.045-.24.045-.294 0-.109.04-.185.04-.077.112-.077.088 0 .138.043.051.041.051.093t-.024.136q-.13.455-.16.651-.031.197-.031.467zM2.291 314.682h.316v.906l.894-.906h.389l-.737.745.646.92h.244v.751h-.317v-.487H3.63l-.684-.973-.34.344v.629h-.315zM4.73 314.66q.023-.016.05-.016.043 0 .073.115 0 .074-.04.188-.117.325-.117.455 0 .034.02.037.397-.38.734-.38.209 0 .35.158.141.157.141.288 0 .4-.408.768-.406.367-.82.367-.184 0-.287-.151-.102-.154-.102-.438 0-.308.077-.682.078-.374.124-.5.02-.053.035-.108.017-.07.17-.102zm-.08 1.08q-.035.19-.035.382 0 .26.205.26.23 0 .517-.276.286-.276.286-.536 0-.106-.057-.179-.057-.072-.157-.072-.136 0-.269.069-.13.067-.292.219-.062.058-.1.09-.037.032-.099.042zm1.734.395q0 .131.036.295.007.03.007.052 0 .03-.057.08-.057.049-.12.049-.167 0-.167-.307 0-.305.132-1.023.049-.262.049-.317 0-.108.04-.184.039-.078.111-.078.088 0 .138.043.052.042.052.093 0 .052-.025.143-.134.491-.165.688-.03.196-.03.466zM7.791 315.551q.223.037.347.164.124.128.124.312 0 .291-.247.486-.246.193-.647.193-.24 0-.414-.104-.172-.103-.172-.229 0-.103.119-.103.017 0 .053.029.19.164.45.164.229 0 .394-.12.166-.121.166-.314 0-.128-.095-.212-.093-.086-.217-.086-.095 0-.333.074-.046.015-.1.015-.103 0-.103-.14 0-.047.048-.077.05-.03.212-.067.491-.112.491-.398 0-.086-.062-.141-.06-.057-.157-.057-.179 0-.382.159-.119.093-.18.093-.106 0-.106-.099 0-.129.243-.263.245-.136.469-.136.223 0 .35.119.13.118.13.25 0 .311-.38.489zM9.045 314.66q.023-.016.05-.016.043 0 .073.115 0 .074-.04.188-.117.325-.117.455 0 .034.02.037.397-.38.734-.38.209 0 .35.158.141.157.141.288 0 .4-.408.768-.406.367-.82.367-.184 0-.287-.151-.102-.154-.102-.438 0-.308.077-.682.078-.374.124-.5.02-.053.035-.108.017-.07.17-.102zm-.08 1.08q-.035.19-.035.382 0 .26.205.26.23 0 .517-.276.286-.276.286-.536 0-.106-.057-.179-.057-.072-.157-.072-.136 0-.269.069-.13.067-.292.219-.062.058-.1.09-.037.032-.099.042zm1.734.395q0 .131.036.295.007.03.007.052 0 .03-.057.08-.057.049-.12.049-.167 0-.167-.307 0-.305.132-1.023.049-.262.049-.317 0-.108.04-.184.039-.078.111-.078.088 0 .138.043.052.042.052.093 0 .052-.025.143-.134.491-.165.688-.03.196-.03.466zM13.462 315.102q-.14.224-.393.758-.057.12-.115.232-.02.037-.072.16-.181.42-.316.42-.106 0-.156-.025-.049-.026-.093-.141-.045-.116-.133-.543-.102-.484-.138-.596-.117.264-.208.508-.138.36-.267.588-.13.225-.186.27-.057.047-.109.047-.053 0-.096-.042-.043-.041-.043-.08.01-.071.024-.089.15-.184.258-.392.109-.209.276-.626.169-.416.215-.683.022-.114.167-.114.085 0 .116.026.03.025.06.105.03.079.036.141.01.074.059.329.043.24.056.34.025.142.085.375.062.232.096.232.024 0 .07-.105l.144-.334q.04-.091.084-.179l.198-.405q.162-.334.248-.484.088-.151.118-.182t.068-.031q.066 0 .147.036.08.034.084.077.004.043.016.36l.022.538q.01.256.031.437.02.18.073.29.08.175.08.272 0 .083-.068.113-.068.031-.126.031-.12 0-.186-.192-.064-.193-.093-1.106-.01-.274-.033-.336zM15.824 316.027q0 .176-.312.424-.31.248-.64.248-.278 0-.43-.164-.15-.164-.15-.456 0-.493.333-.938.332-.444.727-.444.129 0 .21.084.083.085.083.204 0 .265-.26.508t-.697.477q-.09.047-.09.12 0 .144.084.23.082.086.244.086.37 0 .756-.41.057-.057.087-.057.055 0 .055.088zm-1.198-.269q.73-.434.73-.697 0-.104-.092-.104-.159 0-.358.233-.199.232-.28.568zM17.484 315.248q-.16.003-.685.95-.178.318-.207.347-.03.028-.109.05-.077.023-.129.023-.115 0-.115-.45 0-.253.108-.916.045-.269.045-.384 0-.114.102-.114.19 0 .19.276 0 .129-.063.506-.074.43-.076.524.107-.104.314-.453.293-.48.43-.607.14-.129.288-.129.112 0 .178.15.067.15.08.715.004.141.026.21.023.069.033.069.081 0 .352-.551.144-.291.28-.443.138-.152.305-.152.14 0 .203.145.064.143.092.426.026.285.079.523.055.238.2.305.098.047.098.109 0 .06-.083.124-.082.063-.151.063-.138 0-.247-.168-.108-.17-.163-.73-.024-.226-.047-.321-.022-.095-.07-.095-.073 0-.173.138-.098.138-.318.56-.173.329-.262.439-.088.108-.17.108-.075 0-.133-.058-.059-.06-.074-.143-.016-.085-.033-.412-.026-.544-.095-.634z"/></g></g></svg>