<svg xmlns="http://www.w3.org/2000/svg" xmlns:xlink="http://www.w3.org/1999/xlink" width="192.378" height="20.409" viewBox="0 0 50.9 5.4" xmlns:v="https://vecta.io/nano"><style><![CDATA[.B{font-size:3.528px}.C{font-family:Segoe Print}.D{word-spacing:0px}.E{writing-mode:lr-tb}.F{fill:#917c6f}]]></style><text y="-37.218" x="114.134" xml:space="preserve" letter-spacing="0" class="B C D E F"><tspan y="-37.218" x="114.134">адамдар</tspan><tspan y="-30.068" x="114.134">бөлме ғимарат жобалар</tspan><tspan y="-22.918" x="114.134">ғарыш тылсым әлем</tspan><tspan y="-15.767" x="114.134">гүлдер</tspan><tspan y="-8.617" x="114.134">өсімдіктер</tspan><tspan y="-1.466" x="114.134">қалыпталған кескіндер</tspan><tspan y="5.684" x="114.134">қолданыс заттары</tspan><tspan y="12.74" x="114.134">жаныуарлар</tspan><tspan y="19.89" x="114.134">өнер білім спорт</tspan><tspan y="26.946" x="114.134">art education sports</tspan><tspan y="34.107" x="114.134">美術教育スポーツ</tspan><tspan y="41.257" x="114.134">الرياضة التربية الفنية</tspan><tspan y="48.408" x="114.134">сән үлгілері</tspan><tspan y="55.558" x="114.134">тәбіиғат</tspan><tspan y="62.614" x="114.134">елмекен</tspan></text><text y="-37.24" x="162.734" xml:space="preserve" letter-spacing="0" class="B C D E F"><tspan y="-37.24" x="162.734">үи</tspan><tspan y="-30.09" x="162.734">пәтер</tspan><tspan y="-22.939" x="162.734">бөлме алаң</tspan><tspan y="-15.789" x="162.734">ғимарат</tspan><tspan y="-8.733" x="162.734">жер телімі</tspan><tspan y="-1.583" x="162.734">қызымет</tspan></text><text y="-37.864" x="190.455" xml:space="preserve" letter-spacing="0" class="B C D E F"><tspan y="-37.864" x="190.455">жеңіл</tspan><tspan y="-30.808" x="190.455">жолаушылар</tspan><tspan y="-23.658" x="190.455">жүк</tspan><tspan y="-16.507" x="190.455">қызыметтік</tspan><tspan y="-9.452" x="190.455">белсебет</tspan><tspan y="-2.396" x="190.455">мотосекл</tspan><tspan y="4.754" x="190.455">сұу</tspan><tspan y="11.905" x="190.455">әуе</tspan><tspan y="19.055" x="190.455">қызымет</tspan></text><text y="-37.768" x="223.203" xml:space="preserve" letter-spacing="0" class="B C D E F"><tspan y="-37.768" x="223.203">нан өнімдері</tspan><tspan y="-30.617" x="223.203">сұусын</tspan><tspan y="-23.467" x="223.203">кәмпит</tspan><tspan y="-16.411" x="223.203">торт</tspan><tspan y="-9.261" x="223.203">жеміс жидек көкөніс</tspan><tspan y="-2.11" x="223.203">қаинатпа</tspan><tspan y="5.04" x="223.203">тұздалған</tspan><tspan y="12.19" x="223.203">қызымет</tspan></text><text y="-37.893" x="265.973" xml:space="preserve" letter-spacing="0" class="B C D E F"><tspan y="-37.893" x="265.973">бас кіиім</tspan><tspan y="-30.742" x="265.973">үстіңгі</tspan><tspan y="-23.592" x="265.973">астыңғы</tspan><tspan y="-16.442" x="265.973">аиақ</tspan><tspan y="-9.386" x="265.973">спорт</tspan><tspan y="-2.33" x="265.973">балалар</tspan><tspan y="4.725" x="265.973">арнаиы</tspan><tspan y="11.876" x="265.973">қызымет</tspan></text><text y="-38.091" x="288.034" xml:space="preserve" letter-spacing="0" class="B C D E F"><tspan y="-38.091" x="288.034">ас үи</tspan><tspan y="-30.941" x="288.034">құрал</tspan><tspan y="-23.79" x="288.034">құрылғы</tspan><tspan y="-16.64" x="288.034">бақша</tspan><tspan y="-9.584" x="288.034">оиын</tspan><tspan y="-2.434" x="288.034">зат-қызымет</tspan></text><text y="-38.166" x="319.277" xml:space="preserve" letter-spacing="0" class="B C D E F"><tspan y="-38.166" x="319.277">әк үнтақ</tspan><tspan y="-31.111" x="319.277">боиау</tspan><tspan y="-23.96" x="319.277">түс қағаз</tspan><tspan y="-16.81" x="319.277">кірпіш тұтас бетон</tspan><tspan y="-9.659" x="319.277">ағаш пластік ұқсастар</tspan><tspan y="-2.509" x="319.277">метал көмпөзіт ұқсастар</tspan><tspan y="4.547" x="319.277">есік терезе</tspan><tspan y="11.697" x="319.277">су кәріз жылытыу ауа тораптары</tspan><tspan y="18.848" x="319.277">електр басқа желілер</tspan><tspan y="25.998" x="319.277">сәулет сәндеу жобалау</tspan><tspan y="33.149" x="319.277">қызымет</tspan></text><text y="-38.443" x="391.499" xml:space="preserve" letter-spacing="0" class="B C D E F"><tspan y="-38.443" x="391.499">тазартыу</tspan><tspan y="-31.293" x="391.499">әтір саулық</tspan><tspan y="-24.143" x="391.499">қызымет</tspan></text><text y="-38.187" x="421.027" xml:space="preserve" letter-spacing="0" class="B C D E F"><tspan y="-38.187" x="421.027">ас үи</tspan><tspan y="-31.036" x="421.027">қонақ</tspan><tspan y="-23.981" x="421.027">жатын</tspan><tspan y="-16.83" x="421.027">кеңсе</tspan><tspan y="-9.68" x="421.027">көпшілік</tspan><tspan y="-2.624" x="421.027">арнаиы</tspan><tspan y="4.526" x="421.027">қызымет</tspan><tspan y="18.732" x="421.027">дәптер</tspan><tspan y="25.883" x="421.027">кітәп</tspan><tspan y="32.939" x="421.027">жазыу сызыу</tspan><tspan y="39.994" x="421.027">боиау</tspan><tspan y="47.145" x="421.027">қағаз</tspan><tspan y="54.295" x="421.027">құрал</tspan><tspan y="61.445" x="421.027">қызымет</tspan><tspan y="75.651" x="421.027">ағаш</tspan><tspan y="82.802" x="421.027">шөп</tspan><tspan y="89.952" x="421.027">гүл</tspan><tspan y="97.103" x="421.027">саңырауқұлақ</tspan><tspan y="104.253" x="421.027">дәнді-дақыл</tspan><tspan y="111.404" x="421.027">қызымет</tspan><tspan y="125.61" x="421.027">үи жаныуары</tspan><tspan y="132.76" x="421.027">тәбіиғат жаныуары</tspan><tspan y="139.911" x="421.027">қызымет</tspan><tspan y="154.117" x="421.027">көмекші</tspan><tspan y="161.172" x="421.027">емдеу</tspan><tspan y="168.323" x="421.027">сымбат саулық</tspan><tspan y="175.473" x="421.027">заңгерлік</tspan></text><g class="F"><use xlink:href="#B"/><use xlink:href="#C"/><use xlink:href="#B" x="3.931"/><use xlink:href="#D"/><use xlink:href="#C" x="7.016"/><use xlink:href="#B" x="10.947"/><use xlink:href="#E"/><use xlink:href="#F"/><path d="M5.044-12.304q-.253 0-.382.167-.127.165-.158.384h1.082q-.031-.219-.16-.384-.127-.167-.381-.167zm.002 1.488q.257 0 .401-.2.145-.2.145-.455H4.499q0 .255.145.455.145.2.401.2zm.002-1.757q.413 0 .649.269.236.269.236.744 0 .474-.236.744-.236.269-.649.269-.415 0-.651-.269-.234-.27-.234-.744 0-.475.234-.744.236-.269.651-.269z"/><use xlink:href="#G"/><use xlink:href="#D" x="0.082" y="7.151"/><use xlink:href="#H"/><path d="M15.112-10.596v-.861h-.453v-.293h.453v-.775h1.361v.27h-1.044v.505h.717v.293h-.717v.861z"/><use xlink:href="#I"/><use xlink:href="#D" x="10.647" y="7.151"/><use xlink:href="#B" x="19.734" y="7.15"/><use xlink:href="#E" x="8.787" y="7.151"/><use xlink:href="#B" x="24.085" y="7.15"/><use xlink:href="#J"/><use xlink:href="#K"/><use xlink:href="#L"/><use xlink:href="#F" x="36.248"/><use xlink:href="#B" x="38.067" y="7.15"/><use xlink:href="#G" x="36.16"/><use xlink:href="#B" x="42.244" y="7.15"/><use xlink:href="#E" x="31.297" y="7.151"/><path d="M2.698-3.446v-.861h-.453V-4.6h.453v-.775h1.361v.27H3.015v.505h.717v.293h-.717v.861z"/><use xlink:href="#B" x="2.083" y="14.301"/><use xlink:href="#E" x="-8.864" y="14.301"/><use xlink:href="#M"/><path d="M13.775-4.195q-.22.37-.451.574-.231.203-.429.203-.114 0-.233-.133-.117-.133-.117-.408 0-.141.029-.312-.164.324-.42.556-.257.233-.458.233-.096 0-.212-.114-.114-.114-.114-.307 0-.222.019-.334.015-.102.026-.21.01-.086.024-.162.067-.37.052-.477.036-.122.167-.122.052 0 .1.043.05.041.05.138 0 .158-.071.396-.095.319-.095.565 0 .134.019.208.021.074.09.074.227 0 .512-.403.286-.403.453-.841.074-.198.186-.198.072 0 .115.052.043.05.043.105 0 .121-.084.343-.16.425-.16.725 0 .282.131.282.059 0 .143-.041.086-.041.212-.167.126-.127.245-.312.121-.186.152-.269.031-.084.126-.394.06-.202.11-.272.052-.072.133-.072.117 0 .117.155 0 .019-.033.126-.048.165-.081.42-.033.253-.033.419 0 .403.133.522.069.064.069.103 0 .048-.071.088-.069.04-.126.04-.121 0-.195-.179-.074-.179-.074-.529v-.057q0-.028.002-.057z"/><use xlink:href="#J" x="-12.475" y="7.15"/><use xlink:href="#M" x="10.872"/><path d="M23.268-4.85q-.041-.002-.081.079-.357.713-.539.968-.015.022-.04.065-.215.384-.315.384-.134 0-.134-.129 0-.117.167-.319.162-.191.425-.648.264-.458.427-.822.031-.065.093-.065.026 0 .091.024.067.022.086.05.019.028.084.32.212 1.056.446 1.252.055.048.065.065.01.015.01.045 0 .053-.034.098-.034.043-.067.055-.033.012-.134.012-.036 0-.169-.177-.133-.179-.31-.973-.043-.214-.072-.286z"/><use xlink:href="#N"/><use xlink:href="#M" x="17.385"/><use xlink:href="#D" x="20.436" y="14.301"/><use xlink:href="#O"/><use xlink:href="#P"/><use xlink:href="#H" x="26.041" y="7.15"/><use xlink:href="#Q"/><path d="M2.338 3.406l-.003-.036q-.017-.174.107-.365.126-.191.629-.444.32-.162.32-.295 0-.071-.059-.109-.059-.038-.102-.038-.129 0-.496.183-.029.015-.034.015-.141 0-.141-.1 0-.162.279-.269.279-.109.486-.109.129 0 .27.103.141.102.141.274 0 .141-.091.272-.091.131-.456.332-.3.165-.407.272-.105.107-.105.241 0 .098.091.129.091.031.138.031.324 0 .579-.134.088-.045.131-.045.09 0 .09.1 0 .152-.245.253-.245.102-.62.102-.179 0-.332-.102-.153-.103-.169-.264zm2.744.267v.765h-.336v-.765l-.78-1.898h.336l.603 1.509.603-1.509h.336z"/><use xlink:href="#P" x="-29.304" y="7.151"/><use xlink:href="#C" x="3.836" y="21.451"/><use xlink:href="#H" x="-1.299" y="14.301"/><use xlink:href="#E" x="-3.312" y="21.452"/><use xlink:href="#R"/><use xlink:href="#N" x="-19.873" y="14.301"/><use xlink:href="#S"/><use xlink:href="#Q" x="-32.079" y="14.301"/><use xlink:href="#C" x="5.98" y="28.602"/><use xlink:href="#S" x="5.965"/><use xlink:href="#T"/><use xlink:href="#J" x="-13.2" y="21.451"/><use xlink:href="#H" x="7.412" y="21.451"/><use xlink:href="#E" x="5.398" y="28.602"/><use xlink:href="#U"/><use xlink:href="#B" x="2.131" y="35.752"/><use xlink:href="#G" x="0.224" y="28.602"/><path d="M9.085 16.054q.022-.015.05-.015.043 0 .072.115 0 .074-.04.188-.117.326-.117.455 0 .034.021.038.396-.381.734-.381.208 0 .35.158.141.157.141.288 0 .4-.408.768-.407.367-.82.367-.184 0-.288-.152-.102-.153-.102-.438 0-.308.078-.682.078-.374.124-.5.019-.053.034-.109.017-.069.171-.102zm-.081 1.08q-.034.191-.034.382 0 .26.205.26.231 0 .517-.276.286-.276.286-.536 0-.107-.057-.179-.057-.072-.157-.072-.136 0-.269.069-.131.067-.293.219-.062.059-.1.091-.036.031-.098.041zm1.735.396q0 .131.036.295.007.031.007.052 0 .031-.057.081-.057.048-.121.048-.167 0-.167-.307 0-.305.133-1.023.048-.262.048-.317 0-.109.04-.184.04-.078.112-.078.088 0 .138.043.052.041.052.093 0 .052-.024.143-.134.491-.165.687-.031.196-.031.467z"/><use xlink:href="#V"/><use xlink:href="#J" x="-14.89" y="28.602"/><use xlink:href="#B" x="14.892" y="35.752"/><use xlink:href="#W"/><path d="M21.766 18.005v-.861h-.453v-.293h.453v-.775h1.361v.27h-1.044v.505h.717v.293h-.717v.861z"/><use xlink:href="#B" x="21.151" y="35.752"/><use xlink:href="#X"/><use xlink:href="#T" x="15.777" y="7.15"/><use xlink:href="#H" x="19.563" y="28.601"/><use xlink:href="#N" x="8.535" y="21.452"/><path d="M35.082 17.099q.408-.071.732-.527.152-.212.265-.3.115-.09.245-.09.052 0 .103.047.052.047.052.11 0 .084-.16.133-.084.026-.158.088-.074.062-.281.296-.162.183-.291.257-.012.007-.012.012 0 .007.016.014.126.067.265.26.203.281.305.355.102.072.233.072l.057-.002q.06-.003.06.053 0 .065-.074.136-.074.071-.245.071-.131 0-.255-.112-.122-.114-.281-.367-.091-.15-.171-.227-.079-.078-.176-.078-.021 0-.127.034-.107.034-.121.067-.012.031-.019.229-.005.196-.005.317 0 .064-.06.114-.06.05-.131.05-.072 0-.114-.043-.041-.041-.041-.086 0-.062.047-.293.083-.42.165-1.387.007-.093.071-.167.064-.076.145-.076.045 0 .074.048.031.048.031.124 0 .06-.021.138-.098.357-.122.729z"/><use xlink:href="#S" x="30.433" y="7.151"/><use xlink:href="#X" x="12.176"/><use xlink:href="#C" x="35.403" y="35.752"/><use xlink:href="#H" x="30.268" y="28.601"/><use xlink:href="#E" x="28.255" y="35.753"/><use xlink:href="#U" y="7.151"/><use xlink:href="#L" x="-32.122" y="35.752"/><use xlink:href="#G" x="0.148" y="35.752"/><use xlink:href="#C" x="4.161" y="42.903"/><use xlink:href="#B" x="8.093" y="42.903"/><use xlink:href="#Y"/><use xlink:href="#M" x="5.805" y="28.602"/><use xlink:href="#N" x="-7.175" y="28.602"/><path d="M21.275 24.097q.222.036.346.164.124.127.124.312 0 .291-.246.486-.246.193-.648.193-.239 0-.413-.103-.172-.103-.172-.229 0-.103.119-.103.017 0 .053.029.189.164.45.164.229 0 .394-.121.165-.121.165-.314 0-.127-.095-.212-.093-.086-.217-.086-.095 0-.332.074-.047.016-.1.016-.103 0-.103-.14 0-.048.048-.078.05-.029.212-.067.491-.112.491-.398 0-.086-.062-.141-.06-.057-.157-.057-.179 0-.382.158-.119.093-.181.093-.105 0-.105-.098 0-.129.243-.264.245-.136.469-.136.224 0 .351.119.129.119.129.25 0 .312-.381.489z"/><use xlink:href="#B" x="19.753" y="42.903"/><use xlink:href="#J" x="-4.332" y="35.752"/><use xlink:href="#J" x="-0.706" y="35.752"/><use xlink:href="#B" x="29.075" y="42.903"/><use xlink:href="#E" x="18.128" y="42.903"/><use xlink:href="#M" x="26.992" y="28.602"/><use xlink:href="#K" x="-31.192" y="42.808"/><use xlink:href="#B" x="3.061" y="49.958"/><use xlink:href="#Y" x="-5.032" y="7.056"/><use xlink:href="#M" x="0.773" y="35.658"/><path d="M13.476 31.603q-.262.246-.524.386-.262.14-.401.14-.16 0-.257-.136-.095-.138-.095-.338 0-.291.11-.687.112-.398.171-.451.059-.053.155-.053.052 0 .081.062.029.06.029.124 0 .043-.04.112-.226.391-.226.808 0 .096.036.171.036.072.11.072.095 0 .233-.057.14-.059.314-.189.174-.131.234-.212.06-.081.084-.184.026-.103.036-.448.01-.345.167-.345.093 0 .121.05.028.048.028.186 0 .103-.031.448-.007.078-.009.143-.05.92-.276 1.442-.226.522-.656.522-.338 0-.601-.177-.262-.176-.262-.298 0-.057.026-.112.028-.055.069-.055.021 0 .045.033.226.346.694.346.298 0 .446-.365.148-.363.188-.935z"/><use xlink:href="#B" x="11.91" y="49.958"/><use xlink:href="#E" x="0.963" y="49.959"/><use xlink:href="#W" x="-0.702" y="14.206"/><use xlink:href="#B" x="18.368" y="49.958"/><use xlink:href="#E" x="7.421" y="49.959"/><use xlink:href="#R" y="28.507"/><use xlink:href="#Y" x="-8.005" y="14.206"/><use xlink:href="#H" x="-4.935" y="49.958"/><use xlink:href="#E" x="-6.949" y="57.109"/><use xlink:href="#F" x="9.76" y="49.958"/><use xlink:href="#S" x="7.633" y="28.507"/><use xlink:href="#W" x="-4.364" y="21.356"/><use xlink:href="#S" x="10.759" y="28.507"/><use xlink:href="#D" x="9.723" y="57.109"/><use xlink:href="#N" x="-1.811" y="42.808"/><use xlink:href="#V" x="13.082" y="21.356"/><use xlink:href="#L" x="-9.905" y="49.958"/><use xlink:href="#E" x="13.326" y="57.109"/><use xlink:href="#Z"/><use xlink:href="#B" y="64.164"/><use xlink:href="#a"/><use xlink:href="#b"/><use xlink:href="#H" x="-2.083" y="57.014"/><path d="M12.533 45.704q-.231.37-.489.572-.258.2-.475.2-.167 0-.265-.127-.096-.129-.096-.343 0-.436.353-.894.355-.458.765-.458.179 0 .332.153l.241-1.127q.026-.115.095-.155.071-.04.11-.04.121 0 .121.214 0 .038-.079.282-.126.379-.239.932-.112.551-.112.885 0 .345.15.345.096 0 .2-.064.043-.031.081-.031.055 0 .055.072 0 .088-.155.203-.153.115-.315.115-.284 0-.284-.548 0-.093.009-.188zm-.226-.806q-.279 0-.553.379-.274.377-.274.698 0 .215.143.215.134 0 .326-.141.193-.141.396-.45.203-.31.203-.465 0-.076-.071-.155-.069-.081-.171-.081z"/><use xlink:href="#I" x="-3.243" y="57.014"/><use xlink:href="#N" x="-8.627" y="49.864"/><use xlink:href="#B" x="15.193" y="64.164"/><path d="M20.342 44.679q.177-.014.334-.033.155-.017.258-.017.131 0 .165.024.034.024.034.084 0 .14-.195.152-.25.016-.46.043-.21.028-.227.047-.015.017-.103.41-.088.391-.088.508 0 .189.05.253.05.062.15.062.148 0 .412-.222.102-.091.157-.091.074 0 .074.079 0 .124-.239.322-.238.196-.487.196-.417 0-.417-.491 0-.177.086-.549.084-.37.084-.444 0-.026-.041-.026l-.179.016q-.22 0-.22-.176 0-.1.102-.1h.355q.036 0 .064-.033.028-.033.081-.219.053-.188.095-.37.041-.181.162-.181.074 0 .115.052.041.052.041.096 0 .024-.062.246z"/><use xlink:href="#S" x="14.971" y="35.563"/><use xlink:href="#L" x="-14.316" y="57.014"/><use xlink:href="#V" x="13.005" y="28.412"/><use xlink:href="#c"/><use xlink:href="#E" x="14.161" y="64.165"/><use xlink:href="#L" x="-4.794" y="57.014"/><use xlink:href="#a" x="29.383"/><use xlink:href="#b" x="29.384"/><use xlink:href="#c" x="9.378"/><path d="M4.532 50.726l.303.083-.276.358h.73v.262H4.05v.289h1.13v.262H4.05v.289h1.337v.248H2.438v-.248H3.76v-.289H2.63v-.262h1.13v-.289H2.506v-.262h.758l-.234-.303.234-.152.345.455h.634zm-2.191 2.108h1.392l.069-.262.276.041-.055.22h1.461v.248h-1.24q.345.386 1.24.537l-.138.276q-1.02-.234-1.419-.813-.303.606-1.475.785l-.124-.262q.965-.138 1.268-.524H2.341z"/><path d="M6.434 50.726l.234.124q-.248.551-.648.896l-.165-.22q.386-.358.579-.799zm.069.772l.234.124-.276.551v1.723H6.2v-1.35l-.22.248-.165-.234q.469-.496.689-1.061zm1.626-.579h.841v.262h-.841zm-.083.896h.992v.262h-.234v1.447q0 .22-.083.276-.083.069-.51.069l-.041-.262.262.014q.11 0 .11-.138v-1.406h-.496zm-1.268-.358h.469v-.717h.248v.717h.441v.248h-.441v.179l.565.758-.193.276-.372-.703v1.681h-.248v-1.599q-.207.675-.469 1.006l-.207-.193q.386-.496.565-1.406h-.358zm.992-.675l.179.413-.22.096-.165-.413zm2.012 1.294h.193l.303-.303h-.882v-.234h.62v-.303h-.482v-.234h.482v-.289h.262v.289h.413v.234h-.413v.303h.207l.455-.606.234.124-.358.482h.234v.234h-.427l-.262.303h.482v.248l-.427.413v.165l.606-.138.041.248-.648.152v.427q0 .276-.386.276l-.276-.041-.041-.262q.11.041.262.041.152 0 .152-.055v-.331l-.675.124-.055-.276.73-.11V52.6l.372-.303h-.386l-.62.496-.152-.22.441-.331zm1.778-.772h.923v.262h-.152q-.083.965-.386 1.461.248.331.634.606l-.207.262q-.317-.262-.593-.62-.276.372-.675.634l-.193-.248q.413-.248.689-.648l-.358-.744-.11.234-.22-.165q.345-.73.496-1.612l.276.083zm.496.262h-.565l-.096.317q.165.496.372.854.179-.386.262-.937v-.014zm3.569.565v1.447q0 .317-.413.317l-.427-.041-.069-.248.482.041q.179 0 .179-.124v-.193h-1.764v.565h-.276v-1.764zm-2.012.496h1.764v-.248h-1.764zm0 .469h1.764v-.234h-1.764zm.965-2.398l.152.303h1.24v.262h-1.736q-.234.317-.482.482l1.461-.152-.152-.124.234-.165.593.551-.22.179-.22-.234q-1.02.138-2.164.193l-.069-.22q.4-.179.703-.51h-.91v-.262h1.406l-.124-.22zm4.92 2.908l-.276.22q-.606-.73-1.047-1.102-.51.62-1.406 1.075l-.22-.276q1.502-.717 1.984-2.095l-.028-.014-1.034.028h-.537v-.331h1.709l.069-.055q.276.193.276.234 0 .041-.055.096-.041.041-.055.096l-.289.634-.22.358q.565.455 1.13 1.13zm2.88-2.605q0-.152.11-.262.11-.11.262-.11.152 0 .248.11.11.11.11.262 0 .152-.11.262-.096.096-.248.096-.152 0-.262-.096-.11-.11-.11-.262zm.207 0q0 .165.165.165.165 0 .165-.165 0-.165-.165-.165-.165 0-.165.165zm.4.717h-1.282v1.695q-.014.372-.427.372l-.331-.041-.041-.345.372.055q.11 0 .11-.138v-1.599h-1.268v-.331l1.254.014v-.551h.331v.551h1.282zm.096 1.612l-.276.193q-.496-.758-.758-1.543l.303-.11q.248.73.73 1.461zm-2.108-1.323q-.207.896-.661 1.53l-.289-.179q.413-.565.648-1.447zm5.373.496h-2.549v-.4h2.549zm2.509-.51l-.289.165-.524-.978.276-.165zm1.171-.744q-.165 1.226-.579 1.75-.413.51-1.475.827l-.165-.317q.923-.234 1.309-.675.4-.441.579-1.64zM28 52.283l-.289.179-.537-.978.276-.165zm3.552 5.765h.317v2.68h-.317z"/><use xlink:href="#d"/><use xlink:href="#e"/><path d="M27.731 60.58q-.124.148-.394.148h-.155v-.317h.06q.171 0 .246-.076.084-.084.084-.267v-.374h.317v.374q0 .322-.158.512zm.086.407h.258v.258h-.258zm-.431 0h.258v.258h-.258z"/><path d="M26.474 60.09v-2.041h.317v2.021q0 .183.084.267.076.076.246.076h.129v.317h-.224q-.265 0-.403-.158-.15-.174-.15-.481zm-1.647-.199q-.289.186-.539.52h.322q.408 0 .63-.109.32-.157.32-.277 0-.233-.239-.265-.064-.009-.146-.009-.131 0-.348.14zm-.103.837h-.475q-.127 0-.262-.072-.112-.06-.179-.165-.176.238-.472.238h-.224v-.317h.129q.171 0 .246-.076.138-.138.138-.31v-.196h.317v.134q0 .041.015.11.015.069.093.155.174-.231.338-.376.264-.236.512-.345.129-.057.276-.057.198 0 .382.067.32.117.32.524 0 .291-.317.479-.348.207-.837.207zm-.76-1.636h.258v.258h-.258z"/><use xlink:href="#f"/><path d="M19.486 58.048h.317v2.68h-.317z"/><use xlink:href="#d" x="-12.066"/><path d="M17.529 60.58q-.133.148-.394.148h-.155v-.317h.06q.171 0 .246-.076.084-.084.084-.267v-.374h.317v.374q0 .183.084.267.076.076.246.076h.095v.317h-.189q-.258 0-.394-.148zm.086-1.574h.258v.258h-.258zm-.431 0h.258v.258h-.258z"/><use xlink:href="#e" x="-13.131"/><path d="M14.6 60.58q-.124.148-.394.148h-.155v-.317h.06q.171 0 .246-.076.084-.084.084-.267v-.374h.317v.374q0 .322-.158.512zm-.129.407h.258v.258h-.258z"/><path d="M13.536 60.58q-.133.148-.394.148h-.155v-.317h.06q.171 0 .246-.076.084-.084.084-.267v-.374h.317v.374q0 .183.084.267.076.076.246.076h.095v.317h-.189q-.258 0-.394-.148zm.086.407h.258v.258h-.258zm-.431 0h.258v.258h-.258z"/><use xlink:href="#f" x="-10.125"/><path d="M9.36 58.048h.317v2.68H9.36z"/><use xlink:href="#d" x="-22.191"/><path d="M7.226 59.416q.315.138.357.396.014.086.014.158 0 .126-.036.21-.05.115-.112.202.067.029.32.029h.219v.317h-.374q-.234 0-.553-.098-.319.098-.553.098h-.374v-.317h.219q.253 0 .32-.029-.05-.069-.112-.202-.036-.079-.036-.21 0-.076.014-.158.04-.246.358-.396.052-.024.164-.024.109 0 .165.024zm-.165.293q-.026 0-.057.017-.096.055-.138.146-.017.036-.017.086 0 .074.041.165.053.117.171.155.109-.036.171-.155.043-.086.043-.165 0-.041-.019-.086-.04-.09-.138-.146-.033-.017-.057-.017zm-.129-.961h.258v.258h-.258z"/><path d="M5.49 59.006h.258v.258H5.49zm.129 1.574q-.133.148-.394.148H5.07v-.317h.06q.171 0 .246-.076.084-.084.084-.267v-.374h.317v.374q0 .183.084.267.076.076.246.076h.095v.317h-.189q-.258 0-.394-.148z"/><path d="M4.555 60.58q-.133.148-.394.148h-.155v-.317h.06q.171 0 .246-.076.084-.084.084-.267v-.374h.317v.374q0 .183.084.267.076.076.246.076h.095v.317h-.189q-.258 0-.394-.148zm.086.407h.258v.258h-.258zm-.431 0h.258v.258H4.21z"/><path d="M3.313 60.243q-.026-.072-.048-.157-.022-.086-.043-.26-.207.021-.348.136-.191.153-.188.26.002.071.157.114.155.043.47-.093zm-.115-.665q-.007-.067-.012-.141h.317q.002.289.064.589.036.174.133.31.053.076.246.076h.129v.317H3.85q-.155 0-.281-.088-.078-.053-.143-.155-.238.126-.506.126-.096 0-.196-.026-.326-.083-.326-.348 0-.298.351-.517.188-.117.448-.143zm-.016-.658h.258v.258h-.258zm-.431 0h.258v.258h-.258z"/><use xlink:href="#N" x="-22.032" y="71.325"/><use xlink:href="#O" x="-29.145" y="71.325"/><use xlink:href="#Y" x="-6.205" y="42.723"/><path d="M10.814 67.848v.765h-.336v-.765l-.78-1.898h.336l.603 1.509.603-1.509h.336z"/><use xlink:href="#W" x="-7.43" y="49.873"/><path d="M13.977 67.581l-.003-.036q-.017-.174.107-.365.126-.191.629-.444.32-.162.32-.295 0-.071-.059-.109-.059-.038-.102-.038-.129 0-.496.183-.029.016-.034.016-.141 0-.141-.1 0-.162.279-.269.279-.109.486-.109.129 0 .27.103.141.102.141.274 0 .141-.091.272-.091.131-.456.332-.3.165-.407.272-.105.107-.105.241 0 .098.091.129.091.031.138.031.324 0 .579-.134.088-.045.131-.045.09 0 .09.1 0 .152-.245.253-.245.102-.62.102-.179 0-.332-.102-.153-.103-.169-.264z"/><use xlink:href="#S" x="9.405" y="57.025"/><use xlink:href="#W" x="-2.591" y="49.873"/><use xlink:href="#H" x="7.309" y="78.475"/><use xlink:href="#E" x="5.295" y="85.626"/><use xlink:href="#S" x="16.647" y="57.025"/><use xlink:href="#Z" x="-28.623" y="35.668"/><use xlink:href="#O" x="-27.307" y="78.476"/><use xlink:href="#F" x="5.796" y="85.626"/><use xlink:href="#S" x="3.669" y="64.175"/><use xlink:href="#I" x="-5.862" y="85.626"/><path d="M13.484 75.03v-.861h-.453v-.293h.453V73.1h1.361v.27h-1.044v.505h.717v.293h-.717v.861z"/><use xlink:href="#B" x="12.869" y="92.777"/><use xlink:href="#J" x="-11.216" y="85.626"/><use xlink:href="#H" x="-9.169" y="92.681"/><use xlink:href="#G" x="-2.143" y="92.681"/><use xlink:href="#Q" x="-33.104" y="85.531"/><use xlink:href="#H" x="-2.143" y="92.681"/><use xlink:href="#T" x="-2.07" y="71.23"/><use xlink:href="#H" x="1.716" y="92.681"/><use xlink:href="#Y" x="2.556" y="56.929"/></g><defs ><path id="B" d="M3.538-18.374q-.241.324-.477.486-.236.162-.432.162-.133 0-.229-.112-.096-.112-.096-.288 0-.453.405-.975.405-.524.804-.524.145 0 .215.165.022.055.071.055.138 0 .138.107 0 .053-.017.146-.093.508-.093.717 0 .417.158.5.076.041.076.102 0 .053-.074.107-.074.055-.143.055-.133 0-.219-.183-.086-.183-.086-.52zm-.105-.97q-.227 0-.529.427-.301.425-.301.706 0 .198.131.198.189 0 .525-.382.336-.382.336-.703 0-.246-.162-.246z"/><path id="C" d="M5.759-19.752q-.062-.269-.153-.376-.091-.107-.241-.165-.15-.059-.27-.059-.047 0-.138.036-.09.034-.138.064-.067.04-.124.04-.065 0-.065-.069 0-.074.112-.205.112-.131.394-.131h.074q.281 0 .496.148.215.146.305.42.091.274.091.736 0 .314-.198.76-.198.446-.505.675-.305.229-.649.229-.124 0-.233-.143-.109-.143-.109-.355 0-.391.171-.689.172-.3.384-.486.214-.186.589-.3.124-.036.169-.057.045-.021.038-.074zm.047.351q-.398.081-.61.257-.479.448-.479 1.004 0 .074.026.14.026.064.059.064.127 0 .233-.045.105-.045.257-.186.152-.143.274-.353.124-.21.179-.405.057-.195.06-.298.003-.105.002-.177z"/><path id="D" d="M10.577-19.256q-.14.224-.393.758-.057.121-.115.233-.019.036-.072.16-.181.42-.315.42-.107 0-.157-.026-.048-.026-.093-.141-.045-.115-.133-.543-.102-.484-.138-.596-.117.264-.208.508-.138.36-.267.587-.129.226-.186.27-.057.047-.109.047-.053 0-.096-.041-.043-.041-.043-.081.01-.071.024-.088.15-.184.258-.393.109-.208.276-.625.169-.417.215-.684.022-.114.167-.114.084 0 .115.026.031.026.06.105.031.079.036.141.01.074.059.329.043.239.057.339.024.143.084.376.062.233.096.233.024 0 .069-.105l.145-.334q.04-.091.084-.179l.198-.405q.162-.334.248-.484.088-.152.117-.183.031-.031.069-.031.065 0 .146.036.081.034.084.078.003.043.015.36l.022.537q.01.257.031.438.021.179.072.289.081.176.081.272 0 .083-.069.114-.067.031-.126.031-.121 0-.186-.193-.064-.193-.093-1.106-.01-.274-.033-.336z"/><path id="E" d="M15.727-17.947q-.084.31-.158.87l-.048.326q-.012.069-.064.136-.052.069-.095.069-.053 0-.122-.055-.067-.053-.067-.086 0-.095.043-.262.315-1.273.315-2.236l-.002-.145q-.003-.186.065-.27.069-.084.158-.084.041 0 .079.065.038.064.038.183 0 .167-.034.405-.045.3-.047.345.257-.448.544-.699.288-.251.534-.251.174 0 .293.131.121.129.121.322 0 .562-.431 1.02-.431.458-.839.458-.102 0-.162-.052-.059-.052-.122-.188zm1.07-1.387q-.243 0-.601.455-.358.455-.358.708 0 .062.071.121.071.059.179.059.246 0 .567-.363.32-.365.32-.717 0-.126-.052-.193-.05-.069-.126-.069z"/><path id="F" d="M3.39-12.386q-.065-.177-.303-.384-.224-.193-.224-.331 0-.11.072-.177.072-.069.269-.124.245-.067.498-.152.253-.086.305-.11.033-.016.067-.016.057 0 .057.102 0 .057-.138.155-.138.098-.487.183-.22.055-.27.083-.048.026-.048.053 0 .062.134.179.506.443.506 1.111 0 .288-.152.617-.152.327-.405.487-.251.16-.493.16-.217 0-.329-.212-.112-.212-.112-.467 0-.451.277-.851.279-.4.589-.4.041 0 .103.053.057.052.083.04zm-.751 1.164q0 .191.05.3.052.109.134.109.11 0 .298-.136.188-.136.301-.403.115-.267.115-.5 0-.193-.055-.312-.053-.121-.1-.121-.307 0-.525.374-.219.374-.219.689z"/><path id="G" d="M7.321-12q-.041-.002-.081.079-.357.713-.539.968-.016.022-.04.065-.215.384-.315.384-.134 0-.134-.129 0-.117.167-.319.162-.191.425-.648.264-.458.427-.822.031-.065.093-.065.026 0 .091.024.067.022.086.05.019.028.084.32.212 1.056.446 1.252.055.048.065.065.01.016.01.045 0 .053-.034.098-.034.043-.067.055-.033.012-.134.012-.036 0-.169-.177-.133-.179-.31-.973-.043-.214-.072-.286z"/><path id="H" d="M13.021-11.18q0 .176-.312.424-.31.248-.641.248-.277 0-.429-.164-.15-.164-.15-.456 0-.493.332-.937.332-.444.727-.444.129 0 .21.084.083.084.083.203 0 .265-.26.508-.26.243-.696.477-.09.047-.09.121 0 .143.083.229.083.086.245.086.37 0 .756-.41.057-.057.086-.057.055 0 .055.088zm-1.197-.269q.73-.434.73-.698 0-.103-.093-.103-.158 0-.358.233-.198.233-.279.568z"/><path id="I" d="M18.09-11.346q-.22.37-.451.574-.231.203-.429.203-.114 0-.233-.133-.117-.133-.117-.408 0-.226.109-.665.091-.367.091-.515.05-.103.157-.103.072 0 .115.052.043.05.043.105 0 .121-.084.343-.16.432-.16.742 0 .282.131.282.167 0 .425-.284.258-.284.443-.792.072-.203.117-.264.047-.062.124-.062.117 0 .117.155 0 .019-.033.126-.103.377-.103.713 0 .403.133.522.069.064.069.103 0 .048-.071.088-.069.04-.126.04-.121 0-.195-.179-.074-.179-.074-.529v-.057q0-.028.002-.057z"/><path id="J" d="M29.833-11.959q-.16.003-.686.949-.177.319-.207.348-.029.028-.109.05-.078.022-.129.022-.115 0-.115-.45 0-.253.109-.916.045-.269.045-.384 0-.114.102-.114.191 0 .191.276 0 .129-.064.506-.074.431-.076.524.107-.103.314-.453.293-.479.431-.606.14-.129.288-.129.112 0 .177.15.067.15.081.715.003.141.026.21.022.069.033.069.081 0 .351-.551.145-.291.281-.443.138-.152.305-.152.14 0 .203.145.064.143.091.425.026.286.079.524.055.238.2.305.098.047.098.109 0 .06-.083.124-.083.064-.152.064-.138 0-.246-.169-.109-.169-.164-.73-.024-.226-.047-.32-.022-.095-.071-.095-.072 0-.172.138-.098.138-.319.56-.172.329-.262.439-.088.109-.171.109-.074 0-.133-.059-.059-.06-.074-.143-.015-.084-.033-.412-.026-.544-.095-.634z"/><path id="K" d="M35.02-11.38q-.022.388-.074.76-.026.071-.131.071-.152 0-.152-.155 0-.064.036-.238.026-.152.028-.205.002-.055.009-.119.007-.065-.002-.103-.088.012-.358.21-.27.198-.463.393v-.002q-.012.007-.076.129-.091.183-.202.183-.052 0-.115-.045-.062-.045-.062-.09 0-.107.2-.317.202-.212.444-.362.296-.183.408-.295-.05-.071-.195-.155-.146-.086-.272-.193-.017-.014-.041-.031-.222-.15-.296-.224-.072-.076-.072-.162 0-.057.043-.103.043-.048.084-.048.026 0 .093.028.067.028.096.059l.084.079q.446.438.706.556.014 0 .034-.033.017-.059.017-.188 0-.121-.026-.27-.014-.078-.014-.102 0-.081.062-.131.064-.05.138-.05.084 0 .115.034.031.034.031.117l-.022.548v.034q0 .024.002.04.06 0 .126-.047.065-.048.195-.189.567-.587.656-.587.05 0 .091.041.041.041.041.096 0 .028-.189.234-.188.205-.388.377-.257.22-.257.229 0 .012.214.179.231.181.319.257.012.009.034.022.255.157.319.234.064.078.064.131 0 .05-.043.103-.043.052-.084.052-.153 0-.711-.515-.248-.231-.3-.243-.022-.003-.034-.009-.017-.005-.062-.002-.045.002-.048.014z"/><path id="L" d="M37.133-10.51q-.236 0-.389-.179-.153-.179-.153-.443 0-.444.298-.875.3-.432.717-.432.276 0 .446.212.172.212.172.505 0 .448-.355.83-.353.382-.736.382zm-.239-.667q0 .174.072.284.074.11.195.11.257 0 .515-.281.258-.282.258-.627 0-.212-.1-.343-.098-.133-.265-.133-.277 0-.477.341-.198.339-.198.648z"/><path id="M" d="M9.211-5.398q.022-.016.05-.016.043 0 .072.115 0 .074-.04.188-.117.326-.117.455 0 .034.021.038.396-.381.734-.381.208 0 .35.158.141.157.141.288 0 .4-.408.768-.407.367-.82.367-.184 0-.288-.152-.102-.153-.102-.438 0-.308.078-.682.078-.374.124-.5.019-.053.034-.109.017-.069.171-.102zm-.081 1.08q-.034.191-.034.382 0 .26.205.26.231 0 .517-.276.286-.276.286-.536 0-.107-.057-.179-.057-.072-.157-.072-.136 0-.269.069-.131.067-.293.219-.062.059-.1.091-.036.031-.098.041zm1.735.396q0 .131.036.295.007.031.007.052 0 .031-.057.081-.057.048-.121.048-.167 0-.167-.307 0-.305.133-1.023.048-.262.048-.317 0-.109.04-.184.04-.078.112-.078.088 0 .138.043.052.041.052.093 0 .052-.024.143-.134.491-.165.687-.031.196-.031.467z"/><path id="N" d="M24.879-3.348q-.258 0-.398-.148-.138-.148-.138-.415 0-.45.357-.947.357-.5.663-.5.14 0 .239.152.102.15.102.319 0 .102-.045.176-.043.072-.088.072-.1 0-.141-.202-.047-.217-.134-.217-.179 0-.424.425-.245.425-.245.718 0 .293.332.293.253 0 .596-.238.121-.084.177-.084.059 0 .059.067 0 .131-.308.331-.308.198-.605.198z"/><path id="O" d="M33.276-4.328v-.155h1.457q-.021-.327-.198-.498-.176-.172-.491-.172-.183 0-.355.045-.171.045-.339.134v-.3q.171-.072.35-.11.179-.038.363-.038.462 0 .73.269.27.269.27.727 0 .474-.257.753-.255.277-.689.277-.389 0-.617-.25-.226-.251-.226-.682zm.317.093q.003.26.145.415.143.155.377.155.265 0 .424-.15.16-.15.184-.422z"/><path id="P" d="M36.448-4.85q-.041-.002-.081.079-.357.713-.539.968-.016.022-.04.065-.215.384-.315.384-.134 0-.134-.129 0-.117.167-.319.162-.191.425-.648.264-.458.427-.822.031-.065.093-.065.026 0 .091.024.067.022.086.05.019.028.084.32.212 1.056.446 1.252.055.048.065.065.01.015.01.045 0 .053-.034.098-.034.043-.067.055-.033.012-.134.012-.036 0-.169-.177-.133-.179-.31-.973-.043-.214-.072-.286z"/><path id="Q" d="M41.62-4.955q-.14.224-.393.758-.057.121-.115.233-.019.036-.072.16-.181.42-.315.42-.107 0-.157-.026-.048-.026-.093-.141-.045-.115-.133-.543-.102-.484-.138-.596-.117.264-.208.508-.138.36-.267.587-.129.226-.186.27-.057.047-.109.047-.053 0-.096-.041-.043-.041-.043-.081.01-.071.024-.088.15-.184.258-.393.109-.208.276-.625.169-.417.215-.684.022-.114.167-.114.084 0 .115.026.031.026.06.105.031.079.036.141.01.074.059.329.043.239.057.339.024.143.084.376.062.233.096.233.024 0 .069-.105l.145-.334q.04-.091.084-.179l.198-.405q.162-.334.248-.484.088-.152.117-.183.031-.031.069-.031.065 0 .146.036.081.034.084.078.003.043.016.36l.022.537q.01.257.031.438.021.179.072.289.081.176.081.272 0 .083-.069.114-.067.031-.126.031-.121 0-.186-.193-.064-.193-.093-1.106-.01-.274-.033-.336z"/><path id="R" d="M3.225 9.148q-.253 0-.382.167-.127.165-.158.384h1.082q-.031-.219-.16-.384-.127-.167-.381-.167zm.002 1.488q.257 0 .401-.2.145-.2.145-.455H2.68q0 .255.145.455.145.2.401.2zm.002-1.757q.413 0 .649.269.236.269.236.744 0 .474-.236.744-.236.269-.649.269-.415 0-.651-.269-.234-.27-.234-.744 0-.475.234-.744.236-.269.651-.269z"/><path id="S" d="M6.878 8.548q-.036 0-.055-.078-.007-.024-.019-.053-.047-.112-.047-.195 0-.069.081-.14.083-.072.183-.072.05 0 .112.04.062.038.062.074 0 .057-.043.193-.041.136-.134.184-.091.047-.14.047zm-.226 1.924q0 .131.036.295.007.031.007.052 0 .031-.057.079-.057.05-.121.05-.167 0-.167-.307 0-.317.131-1.003.045-.239.045-.295 0-.109.04-.184.04-.078.112-.078.088 0 .138.043.052.041.052.093 0 .052-.024.136-.129.455-.16.651-.031.196-.031.467z"/><path id="T" d="M13.658 9.949q.408-.071.732-.527.152-.212.265-.3.115-.09.245-.09.052 0 .103.047.052.047.052.11 0 .084-.16.133-.084.026-.158.088-.074.062-.281.296-.162.183-.291.257-.012.007-.012.012 0 .007.015.014.126.067.265.26.203.281.305.355.102.072.233.072l.057-.002q.06-.003.06.053 0 .065-.074.136-.074.071-.245.071-.131 0-.255-.112-.122-.114-.281-.367-.091-.15-.171-.227-.079-.078-.176-.078-.021 0-.127.034-.107.034-.121.067-.012.031-.019.229-.005.196-.005.317 0 .064-.06.114-.06.05-.131.05-.072 0-.114-.043-.041-.041-.041-.086 0-.062.047-.293.083-.42.165-1.387.007-.093.071-.167.064-.076.145-.076.045 0 .074.048.031.048.031.124 0 .06-.021.138-.098.357-.122.729z"/><path id="U" d="M2.469 16.076h.315v.906l.894-.906h.389l-.737.746.646.92h.245v.751h-.317v-.487h-.096l-.684-.973-.339.345v.629h-.315z"/><path id="V" d="M12.477 16.681q-.09 0-.196.117-.105.117-.322.525-.286.548-.37.624-.083.076-.138.076-.203 0-.203-.196 0-.083.028-.234.095-.52.095-1.097 0-.065.055-.145.057-.081.107-.081.09 0 .127.055.038.055.038.222 0 .174-.103.717-.034.179-.034.227 0 .028.014.028.026 0 .239-.412.215-.419.377-.589.162-.171.357-.171.155 0 .251.141.098.141.143.515.048.425.086.531.04.103.124.103.053 0 .134-.038.014-.007.021-.007.074 0 .074.086 0 .076-.102.162-.102.084-.245.084-.146 0-.227-.115-.079-.117-.126-.622-.048-.506-.203-.506z"/><path id="W" d="M20.306 16.602q-.041-.002-.081.079-.357.713-.539.968-.015.022-.04.065-.215.384-.315.384-.134 0-.134-.129 0-.117.167-.319.162-.191.425-.648.264-.458.427-.822.031-.065.093-.065.026 0 .091.024.067.022.086.05.019.028.084.32.212 1.056.446 1.252.055.048.065.065.01.016.01.045 0 .053-.034.098-.034.043-.067.055-.033.012-.134.012-.036 0-.169-.177-.133-.179-.31-.973-.043-.214-.072-.286z"/><path id="X" d="M26.867 16.881q.019-.036.06-.432.031-.317.202-.317.14 0 .14.14 0 .033-.024.133-.133.549-.133.922 0 .403.133.522.069.064.069.103 0 .048-.071.088-.069.04-.126.04-.269 0-.269-.83 0-.055-.041-.055-.162 0-.396.019-.234.019-.336.048-.1.029-.124.055-.022.024-.041.133-.017.107-.017.222v.212q0 .184-.169.184-.141 0-.141-.184 0-.121.031-.307.057-.341.114-1.175.007-.109.019-.138.012-.029.062-.064.052-.036.112-.036.124 0 .124.102 0 .015-.04.258-.041.243-.041.377 0 .095.065.095.131 0 .479-.043.348-.045.36-.071z"/><path id="Y" d="M13.808 24.031q.019-.036.06-.432.031-.317.202-.317.14 0 .14.14 0 .033-.024.133-.133.549-.133.922 0 .403.133.522.069.064.069.103 0 .048-.071.088-.069.04-.126.04-.269 0-.269-.83 0-.055-.041-.055-.162 0-.396.019-.234.019-.336.048-.1.029-.124.055-.022.024-.041.133-.017.107-.017.222v.212q0 .184-.169.184-.141 0-.141-.184 0-.121.031-.307.057-.341.114-1.175.007-.109.019-.138.012-.029.062-.064.052-.036.112-.036.124 0 .124.102 0 .016-.04.258-.041.243-.041.377 0 .095.065.095.131 0 .479-.043.348-.045.36-.071z"/><path id="Z" d="M32.301 37.999q-.16.003-.686.949-.177.319-.207.348-.029.028-.109.05-.078.022-.129.022-.115 0-.115-.45 0-.253.109-.916.045-.269.045-.384 0-.114.102-.114.191 0 .191.276 0 .129-.064.506-.074.431-.076.524.107-.103.314-.453.293-.479.431-.606.14-.129.288-.129.112 0 .177.15.067.15.081.715.003.141.026.21.022.069.033.069.081 0 .351-.551.145-.291.281-.443.138-.152.305-.152.14 0 .203.145.064.143.091.425.026.286.079.524.055.238.2.305.098.047.098.109 0 .06-.083.124-.083.064-.152.064-.138 0-.246-.169-.109-.169-.164-.73-.024-.226-.047-.32-.022-.095-.071-.095-.072 0-.172.138-.098.138-.319.56-.172.329-.262.439-.088.109-.171.109-.074 0-.133-.059-.059-.06-.074-.143-.016-.084-.033-.412-.026-.544-.095-.634z"/><path id="a" d="M4.796 45.734q.017-.031.041-.086.117-.269.215-.42.098-.153.215-.293.119-.14.215-.212.098-.072.177-.1.079-.029.153-.029.15 0 .245.091.095.09.095.21 0 .053-.034.096-.033.043-.102.043-.072 0-.133-.064-.062-.064-.129-.064-.179 0-.496.434-.317.434-.386.956-.017.134-.065.177-.048.043-.136.043-.084 0-.122-.126-.038-.126-.038-.424 0-.081.009-.357.01-.326.041-.525.005-.033.017-.153.012-.133.029-.184.019-.052.074-.096.057-.045.122-.045.064 0 .095.041.033.04.033.086 0 .067-.034.189-.04.136-.047.188-.005.059-.019.122-.017.074-.034.389l-.002.064z"/><path id="b" d="M7.1 44.679q.177-.014.334-.033.155-.017.258-.017.131 0 .165.024.034.024.034.084 0 .14-.195.152-.25.016-.46.043-.21.028-.227.047-.016.017-.103.41-.088.391-.088.508 0 .189.05.253.05.062.15.062.148 0 .412-.222.102-.091.157-.091.074 0 .074.079 0 .124-.239.322-.238.196-.487.196-.417 0-.417-.491 0-.177.086-.549.084-.37.084-.444 0-.026-.041-.026l-.179.016q-.22 0-.22-.176 0-.1.102-.1h.355q.036 0 .064-.033.028-.033.081-.219.053-.188.095-.37.041-.181.162-.181.074 0 .115.052.041.052.041.096 0 .024-.062.246z"/><path id="c" d="M28.925 46.023q0-.112-.276-.255-.35-.179-.474-.286-.122-.109-.122-.241 0-.343.343-.568.345-.226.562-.226.14 0 .202.048.064.048.064.167 0 .053-.047.091-.045.038-.071.038-.019 0-.074-.026-.055-.024-.072-.024-.086 0-.35.126-.264.126-.264.284 0 .096.093.176.093.078.334.191.195.093.31.2.117.105.117.248 0 .264-.363.413-.363.148-.694.148-.279 0-.279-.189 0-.065.062-.096.064-.031.127-.031.026 0 .098.017.071.017.093.017.191 0 .41-.064.219-.064.27-.158z"/><path id="d" d="M30.887 60.09q0 .307-.15.481-.138.158-.403.158h-.224v-.317h.129q.171 0 .246-.076.084-.084.084-.267v-2.021h.317z"/><path id="e" d="M29.287 59.781h.317q.052.193.057.245.017.177.143.31.072.076.246.076h.129v.317h-.224q-.224 0-.31-.107-.117.479-.549.708-.489.26-1.044.26v-.317q.524 0 .873-.22.376-.238.436-.596.017-.1.017-.224 0-.217-.091-.451z"/><path id="f" d="M22.419 60.243q-.026-.072-.048-.157-.022-.086-.043-.26-.207.021-.348.136-.191.153-.188.26.002.071.157.114.155.043.47-.093zm-.115-.665q-.007-.067-.012-.141h.317q.002.289.064.589.036.174.133.31.053.076.246.076h.129v.317h-.224q-.155 0-.281-.088-.078-.053-.143-.155-.238.126-.506.126-.096 0-.196-.026-.326-.083-.326-.348 0-.298.351-.517.188-.117.448-.143zm-.015-.658h.258v.258h-.258zm-.431 0h.258v.258h-.258z"/></defs></svg>