<svg xmlns="http://www.w3.org/2000/svg" xmlns:xlink="http://www.w3.org/1999/xlink" width="109.228" height="20.409" viewBox="0 0 28.9 5.4" xmlns:v="https://vecta.io/nano"><style><![CDATA[.B{font-size:3.528px}.C{font-family:Segoe Print}.D{word-spacing:0px}.E{writing-mode:lr-tb}.F{fill:#917c6f}]]></style><text y="-37.218" x="114.134" xml:space="preserve" letter-spacing="0" class="B C D E F"><tspan y="-37.218" x="114.134">адамдар</tspan><tspan y="-30.068" x="114.134">бөлме ғимарат жобалар</tspan><tspan y="-22.918" x="114.134">ғарыш тылсым әлем</tspan><tspan y="-15.767" x="114.134">гүлдер</tspan><tspan y="-8.617" x="114.134">өсімдіктер</tspan><tspan y="-1.466" x="114.134">қалыпталған кескіндер</tspan><tspan y="5.684" x="114.134">қолданыс заттары</tspan><tspan y="12.74" x="114.134">жаныуарлар</tspan><tspan y="19.89" x="114.134">өнер білім спорт</tspan><tspan y="26.946" x="114.134">art education sports</tspan><tspan y="34.107" x="114.134">美術教育スポーツ</tspan><tspan y="41.257" x="114.134">الرياضة التربية الفنية</tspan><tspan y="48.408" x="114.134">сән үлгілері</tspan><tspan y="55.558" x="114.134">тәбіиғат</tspan><tspan y="62.614" x="114.134">елмекен</tspan></text><text y="-37.24" x="162.734" xml:space="preserve" letter-spacing="0" class="B C D E F"><tspan y="-37.24" x="162.734">үи</tspan><tspan y="-30.09" x="162.734">пәтер</tspan><tspan y="-22.939" x="162.734">бөлме алаң</tspan><tspan y="-15.789" x="162.734">ғимарат</tspan><tspan y="-8.733" x="162.734">жер телімі</tspan><tspan y="-1.583" x="162.734">қызымет</tspan></text><text y="-37.864" x="190.455" xml:space="preserve" letter-spacing="0" class="B C D E F"><tspan y="-37.864" x="190.455">жеңіл</tspan><tspan y="-30.808" x="190.455">жолаушылар</tspan><tspan y="-23.658" x="190.455">жүк</tspan><tspan y="-16.507" x="190.455">қызыметтік</tspan><tspan y="-9.452" x="190.455">белсебет</tspan><tspan y="-2.396" x="190.455">мотосекл</tspan><tspan y="4.754" x="190.455">сұу</tspan><tspan y="11.905" x="190.455">әуе</tspan><tspan y="19.055" x="190.455">қызымет</tspan></text><text y="-37.893" x="265.973" xml:space="preserve" letter-spacing="0" class="B C D E F"><tspan y="-37.893" x="265.973">бас кіиім</tspan><tspan y="-30.742" x="265.973">үстіңгі</tspan><tspan y="-23.592" x="265.973">астыңғы</tspan><tspan y="-16.442" x="265.973">аиақ</tspan><tspan y="-9.386" x="265.973">спорт</tspan><tspan y="-2.33" x="265.973">балалар</tspan><tspan y="4.725" x="265.973">арнаиы</tspan><tspan y="11.876" x="265.973">қызымет</tspan></text><text y="-38.091" x="288.034" xml:space="preserve" letter-spacing="0" class="B C D E F"><tspan y="-38.091" x="288.034">ас үи</tspan><tspan y="-30.941" x="288.034">құрал</tspan><tspan y="-23.79" x="288.034">құрылғы</tspan><tspan y="-16.64" x="288.034">бақша</tspan><tspan y="-9.584" x="288.034">оиын</tspan><tspan y="-2.434" x="288.034">зат-қызымет</tspan></text><text y="-38.166" x="319.277" xml:space="preserve" letter-spacing="0" class="B C D E F"><tspan y="-38.166" x="319.277">әк үнтақ</tspan><tspan y="-31.111" x="319.277">боиау</tspan><tspan y="-23.96" x="319.277">түс қағаз</tspan><tspan y="-16.81" x="319.277">кірпіш тұтас бетон</tspan><tspan y="-9.659" x="319.277">ағаш пластік ұқсастар</tspan><tspan y="-2.509" x="319.277">метал көмпөзіт ұқсастар</tspan><tspan y="4.547" x="319.277">есік терезе</tspan><tspan y="11.697" x="319.277">су кәріз жылытыу ауа тораптары</tspan><tspan y="18.848" x="319.277">електр басқа желілер</tspan><tspan y="25.998" x="319.277">сәулет сәндеу жобалау</tspan><tspan y="33.149" x="319.277">қызымет</tspan></text><text y="-38.443" x="391.499" xml:space="preserve" letter-spacing="0" class="B C D E F"><tspan y="-38.443" x="391.499">тазартыу</tspan><tspan y="-31.293" x="391.499">әтір саулық</tspan><tspan y="-24.143" x="391.499">қызымет</tspan></text><text y="-38.187" x="421.027" xml:space="preserve" letter-spacing="0" class="B C D E F"><tspan y="-38.187" x="421.027">ас үи</tspan><tspan y="-31.036" x="421.027">қонақ</tspan><tspan y="-23.981" x="421.027">жатын</tspan><tspan y="-16.83" x="421.027">кеңсе</tspan><tspan y="-9.68" x="421.027">көпшілік</tspan><tspan y="-2.624" x="421.027">арнаиы</tspan><tspan y="4.526" x="421.027">қызымет</tspan><tspan y="18.732" x="421.027">дәптер</tspan><tspan y="25.883" x="421.027">кітәп</tspan><tspan y="32.939" x="421.027">жазыу сызыу</tspan><tspan y="39.994" x="421.027">боиау</tspan><tspan y="47.145" x="421.027">қағаз</tspan><tspan y="54.295" x="421.027">құрал</tspan><tspan y="61.445" x="421.027">қызымет</tspan><tspan y="75.651" x="421.027">ағаш</tspan><tspan y="82.802" x="421.027">шөп</tspan><tspan y="89.952" x="421.027">гүл</tspan><tspan y="97.103" x="421.027">саңырауқұлақ</tspan><tspan y="104.253" x="421.027">дәнді-дақыл</tspan><tspan y="111.404" x="421.027">қызымет</tspan><tspan y="125.61" x="421.027">үи жаныуары</tspan><tspan y="132.76" x="421.027">тәбіиғат жаныуары</tspan><tspan y="139.911" x="421.027">қызымет</tspan><tspan y="154.117" x="421.027">көмекші</tspan><tspan y="161.172" x="421.027">емдеу</tspan><tspan y="168.323" x="421.027">сымбат саулық</tspan><tspan y="175.473" x="421.027">заңгерлік</tspan></text><g class="F"><path d="M4.231-12.544l-.761 1.898v.152h.451v.293H3.47v.32h-.336v-.32h-.47v-.293h.47v-.152l-.78-1.898h.336l.603 1.509.603-1.509z"/><use xlink:href="#B"/><path d="M8.899-12.322q-.253 0-.382.167-.127.165-.158.384H9.44q-.031-.219-.16-.384-.127-.167-.381-.167zm.002 1.488q.257 0 .401-.2.145-.2.145-.455H8.355q0 .255.145.455.145.2.401.2zm.002-1.757q.413 0 .649.269.236.269.236.744 0 .474-.236.744-.236.269-.649.269-.415 0-.651-.269-.234-.27-.234-.744 0-.475.234-.744.236-.269.651-.269z"/><use xlink:href="#B" x="5.645"/><use xlink:href="#C"/><use xlink:href="#D"/><use xlink:href="#E"/><use xlink:href="#F"/><use xlink:href="#G"/><use xlink:href="#C" x="10.184"/><use xlink:href="#H"/><path d="M5.258-3.496v.765h-.336v-.765l-.78-1.898h.336l.603 1.509.603-1.509h.336z"/><use xlink:href="#I"/><path d="M12.237-5.172q-.253 0-.382.167-.127.165-.158.384h1.082q-.031-.219-.16-.384-.127-.167-.381-.167zm.002 1.488q.257 0 .401-.2.145-.2.145-.455h-1.092q0 .255.145.455.145.2.401.2zm.002-1.757q.413 0 .649.269.236.269.236.744 0 .474-.236.744-.236.269-.649.269-.415 0-.651-.269-.234-.27-.234-.744 0-.475.234-.744.236-.269.651-.269z"/><use xlink:href="#B" x="8.983" y="7.151"/><use xlink:href="#C" x="3.339" y="7.151"/><use xlink:href="#D" x="3.339" y="7.15"/><use xlink:href="#E" x="3.339" y="7.15"/><use xlink:href="#F" x="3.338" y="7.15"/><use xlink:href="#G" x="3.338" y="7.151"/><use xlink:href="#C" x="13.522" y="7.151"/><use xlink:href="#F" x="-15.877" y="14.301"/><use xlink:href="#I" x="-2.041" y="7.15"/><path d="M10.196 1.979q-.253 0-.382.167-.127.165-.158.384h1.082q-.031-.219-.16-.384-.127-.167-.381-.167zm.002 1.488q.257 0 .401-.2.145-.2.145-.455H9.652q0 .255.145.455.145.2.401.2zM10.2 1.71q.413 0 .649.269.236.269.236.744 0 .474-.236.744-.236.269-.649.269-.415 0-.651-.269-.234-.27-.234-.744 0-.475.234-.744.236-.269.651-.269z"/><use xlink:href="#B" x="6.942" y="14.301"/><use xlink:href="#C" x="1.297" y="14.301"/><use xlink:href="#D" x="1.297" y="14.301"/><use xlink:href="#E" x="1.297" y="14.301"/><use xlink:href="#F" x="1.297" y="14.301"/><use xlink:href="#G" x="1.297" y="14.301"/><use xlink:href="#C" x="11.481" y="14.301"/><use xlink:href="#H" y="14.301"/><path d="M6.019 8.907l-.761 1.898v.152h.451v.293h-.451v.32h-.336v-.32h-.47v-.293h.47v-.152l-.78-1.898h.336l.603 1.509.603-1.509z"/><use xlink:href="#J"/><use xlink:href="#H" x="5.96" y="14.301"/><use xlink:href="#K"/><use xlink:href="#B" x="8.279" y="21.451"/><use xlink:href="#L"/><path d="M4.467 17.105v-.155h1.457q-.021-.327-.198-.498-.176-.172-.491-.172-.183 0-.355.045-.171.045-.339.134v-.3q.171-.072.35-.11.179-.038.363-.038.462 0 .73.269.27.269.27.727 0 .474-.257.753-.255.277-.689.277-.389 0-.617-.25-.226-.251-.226-.682zm.317.093q.003.26.145.415.143.155.377.155.265 0 .424-.15.16-.15.184-.422z"/><use xlink:href="#D" x="-6.633" y="28.602"/><use xlink:href="#M"/><use xlink:href="#C" x="-0.189" y="28.602"/><use xlink:href="#N"/><use xlink:href="#I" x="8.914" y="21.451"/><use xlink:href="#I" x="-3.876" y="28.507"/><path d="M6.606 25.128q-.236 0-.389-.179-.153-.179-.153-.443 0-.444.298-.875.3-.432.717-.432.276 0 .446.212.172.212.172.505 0 .448-.355.83-.353.382-.736.382zm-.239-.667q0 .174.072.284.074.11.195.11.257 0 .515-.281.258-.282.258-.627 0-.212-.1-.343-.098-.133-.265-.133-.277 0-.477.341-.198.339-.198.648z"/><use xlink:href="#G" x="-12.09" y="35.658"/><use xlink:href="#I" x="4.025" y="28.507"/><use xlink:href="#O"/><use xlink:href="#F" x="-12.816" y="42.713"/><use xlink:href="#D" x="-5.932" y="42.713"/><use xlink:href="#C" x="-1.827" y="42.713"/><use xlink:href="#H" x="9" y="35.562"/><use xlink:href="#O" x="12.199"/><use xlink:href="#N" x="4.622" y="14.112"/><use xlink:href="#E" x="3.499" y="42.713"/><use xlink:href="#F" x="3.498" y="42.713"/><use xlink:href="#L" x="21.21" y="14.111"/><use xlink:href="#L" y="21.261"/><path d="M5.349 37.541q-.253 0-.382.167-.127.165-.158.384H5.89q-.031-.219-.16-.384-.127-.167-.381-.167zm.002 1.488q.257 0 .401-.2.145-.2.145-.455H4.805q0 .255.145.455.145.2.401.2zm.002-1.757q.413 0 .649.269.236.269.236.744 0 .474-.236.744-.236.269-.649.269-.415 0-.651-.269-.234-.27-.234-.744 0-.475.234-.744.236-.269.651-.269z"/><use xlink:href="#L" x="4.183" y="21.261"/><path d="M9.531 37.541q-.253 0-.382.167-.127.165-.158.384h1.082q-.031-.219-.16-.384-.127-.167-.381-.167zm.002 1.488q.257 0 .401-.2.145-.2.145-.455H8.987q0 .255.145.455.145.2.401.2zm.002-1.757q.413 0 .649.269.236.269.236.744 0 .474-.236.744-.236.269-.649.269-.415 0-.651-.269-.234-.27-.234-.744 0-.475.234-.744.236-.269.651-.269z"/><use xlink:href="#B" x="6.277" y="49.864"/><use xlink:href="#C" x="0.632" y="49.864"/><use xlink:href="#H" x="11.46" y="42.713"/><use xlink:href="#P"/><use xlink:href="#Q"/><use xlink:href="#N" x="-6.437" y="28.413"/><use xlink:href="#B" x="4.265" y="57.014"/><use xlink:href="#Q" x="6.298"/><use xlink:href="#I" x="6.623" y="49.863"/><use xlink:href="#M" x="6.845" y="28.412"/><use xlink:href="#Q" x="14.334"/><use xlink:href="#I" x="-3.876" y="57.014"/><path d="M7.857 51.62l-.761 1.898v.152h.451v.293h-.451v.32H6.76v-.32h-.47v-.293h.47v-.152l-.78-1.898h.336l.603 1.509.603-1.509z"/><use xlink:href="#R"/><use xlink:href="#E" x="-6.502" y="64.164"/><use xlink:href="#Q" x="7.14" y="7.15"/><use xlink:href="#S"/><use xlink:href="#T"/><use xlink:href="#Q" x="13.4" y="7.15"/><use xlink:href="#B" x="15.513" y="64.164"/><use xlink:href="#L" y="42.618"/><use xlink:href="#F" x="-13.853" y="71.22"/><use xlink:href="#M" x="-3.421" y="42.618"/><use xlink:href="#I" x="2.322" y="64.069"/><use xlink:href="#C" x="0.016" y="71.22"/><use xlink:href="#G" x="-6.868" y="71.22"/><use xlink:href="#C" x="3.316" y="71.22"/><use xlink:href="#S" x="2.803" y="7.056"/><path d="M18.688 60.307l-.003-.036q-.017-.174.107-.365.126-.191.629-.444.32-.162.32-.295 0-.071-.059-.109-.059-.038-.102-.038-.129 0-.496.183-.029.016-.034.016-.141 0-.141-.1 0-.162.279-.269.279-.109.486-.109.129 0 .27.103.141.102.141.274 0 .141-.091.272-.091.131-.456.332-.3.165-.407.272-.105.107-.105.241 0 .098.091.129.091.031.138.031.324 0 .579-.134.088-.045.131-.045.09 0 .09.1 0 .152-.245.253-.245.102-.62.102-.179 0-.332-.102-.153-.103-.169-.264z"/><use xlink:href="#F" x="2.137" y="71.22"/><use xlink:href="#B" x="17.761" y="71.22"/><use xlink:href="#H" y="71.219"/><use xlink:href="#Q" x="-0.343" y="21.356"/><use xlink:href="#P" x="3.858" y="21.356"/><use xlink:href="#I" x="2.113" y="71.22"/><use xlink:href="#Q" x="7.485" y="21.356"/><use xlink:href="#S" x="0.345" y="14.206"/><use xlink:href="#T" x="0.344" y="14.206"/><use xlink:href="#Q" x="13.744" y="21.356"/><use xlink:href="#B" x="15.858" y="78.37"/><use xlink:href="#E" x="-13.913" y="85.521"/><use xlink:href="#Q" x="-0.27" y="28.507"/><use xlink:href="#N" x="-6.708" y="56.919"/><use xlink:href="#K" x="-1.666" y="64.069"/><use xlink:href="#B" x="6.613" y="85.521"/><use xlink:href="#E" x="-3.136" y="85.521"/><use xlink:href="#Q" x="10.506" y="28.507"/><use xlink:href="#S" x="3.366" y="21.357"/><use xlink:href="#T" x="3.366" y="21.357"/><use xlink:href="#Q" x="16.766" y="28.507"/><use xlink:href="#B" x="18.879" y="85.521"/><path d="M3.325 80.349q-.253 0-.382.167-.127.165-.158.384h1.082q-.031-.219-.16-.384-.127-.167-.381-.167zm.002 1.488q.257 0 .401-.2.145-.2.145-.455H2.781q0 .255.145.455.145.2.401.2zm.002-1.757q.413 0 .649.269.236.269.236.744 0 .474-.236.744-.236.269-.649.269-.415 0-.651-.269-.234-.27-.234-.744 0-.475.234-.744.236-.269.651-.269z"/><use xlink:href="#S" x="-9.183" y="28.507"/><path d="M9.089 81.307q-.22.37-.451.574-.231.203-.429.203-.114 0-.233-.133-.117-.133-.117-.408 0-.141.029-.312-.164.324-.42.556-.257.233-.458.233-.096 0-.212-.114-.114-.114-.114-.307 0-.222.019-.334.016-.102.026-.21.01-.086.024-.162.067-.37.052-.477.036-.122.167-.122.052 0 .1.043.05.041.05.138 0 .158-.071.396-.095.319-.095.565 0 .134.019.208.021.074.09.074.227 0 .512-.403.286-.403.453-.841.074-.198.186-.198.072 0 .115.052.043.05.043.105 0 .121-.084.343-.16.425-.16.725 0 .282.131.282.059 0 .143-.041.086-.041.212-.167.126-.127.245-.312.121-.186.152-.269.031-.084.126-.394.06-.202.11-.272.052-.072.133-.072.117 0 .117.155 0 .019-.033.126-.048.165-.081.42-.033.253-.033.419 0 .403.133.522.069.064.069.103 0 .048-.071.088-.069.04-.126.04-.121 0-.195-.179-.074-.179-.074-.529v-.057q0-.028.002-.057z"/><use xlink:href="#F" x="-8.394" y="92.671"/><use xlink:href="#J" x="5.442" y="71.22"/><use xlink:href="#S" x="0.06" y="28.507"/><use xlink:href="#C" x="3.7" y="92.672"/><use xlink:href="#P" y="41.485"/><use xlink:href="#K" x="-5.617" y="77.047"/><use xlink:href="#R" x="-0.964" y="34.334"/><use xlink:href="#K" x="-1.302" y="77.047"/><use xlink:href="#D" x="-1.764" y="98.499"/><use xlink:href="#F" x="-3.728" y="98.499"/><use xlink:href="#I" x="10.108" y="91.348"/></g><defs ><path id="B" d="M5.833-11.74q.019-.036.06-.432.031-.317.202-.317.14 0 .14.14 0 .033-.024.133-.133.549-.133.922 0 .403.133.522.069.064.069.103 0 .048-.071.088-.069.04-.126.04-.269 0-.269-.83 0-.055-.041-.055-.162 0-.396.019-.234.019-.336.048-.1.029-.124.055-.022.024-.041.133-.017.107-.017.222v.212q0 .184-.169.184-.141 0-.141-.184 0-.121.031-.307.057-.341.114-1.175.007-.109.019-.138.012-.029.062-.064.052-.036.112-.036.124 0 .124.102 0 .016-.04.258-.041.243-.041.377 0 .095.065.095.131 0 .479-.043.348-.045.36-.071z"/><path id="C" d="M12.84-12.922q-.036 0-.055-.078-.007-.024-.019-.053-.047-.112-.047-.195 0-.069.081-.14.083-.072.183-.072.05 0 .112.04.062.038.062.074 0 .057-.043.193-.041.136-.134.184-.091.047-.14.047zm-.226 1.924q0 .131.036.295.007.031.007.052 0 .031-.057.079-.057.05-.121.05-.167 0-.167-.307 0-.317.131-1.003.045-.239.045-.295 0-.109.04-.184.04-.078.112-.078.088 0 .138.043.052.041.052.093 0 .052-.024.136-.129.455-.16.651-.031.196-.031.467z"/><path id="D" d="M15.503-12.124q-.14.224-.393.758-.057.121-.115.233-.019.036-.072.16-.181.42-.315.42-.107 0-.157-.026-.048-.026-.093-.141-.045-.115-.133-.543-.102-.484-.138-.596-.117.264-.208.508-.138.36-.267.587-.129.226-.186.27-.057.047-.109.047-.053 0-.096-.041-.043-.041-.043-.081.01-.071.024-.088.15-.184.258-.393.109-.208.276-.625.169-.417.215-.684.022-.114.167-.114.084 0 .115.026.031.026.06.105.031.079.036.141.01.074.059.329.043.239.057.339.024.143.084.376.062.233.096.233.024 0 .069-.105l.145-.334q.04-.091.084-.179l.198-.405q.162-.334.248-.484.088-.152.117-.183.031-.031.069-.031.065 0 .146.036.081.034.084.078.003.043.016.36l.022.537q.01.257.031.438.021.179.072.289.081.176.081.272 0 .083-.069.114-.067.031-.126.031-.121 0-.186-.193-.064-.193-.093-1.106-.01-.274-.033-.336z"/><path id="E" d="M17.701-12.62q-.062-.269-.153-.376-.091-.107-.241-.165-.15-.059-.27-.059-.047 0-.138.036-.09.034-.138.064-.067.04-.124.04-.065 0-.065-.069 0-.074.112-.205.112-.131.394-.131h.074q.281 0 .496.148.215.146.305.42.091.274.091.736 0 .314-.198.76-.198.446-.505.675-.305.229-.649.229-.124 0-.233-.143-.109-.143-.109-.355 0-.391.171-.689.172-.3.384-.486.214-.186.589-.3.124-.036.169-.057.045-.021.038-.074zm.047.351q-.398.081-.61.257-.479.448-.479 1.004 0 .074.026.14.026.064.059.064.127 0 .233-.045.105-.045.257-.186.152-.143.274-.353.124-.21.179-.405.057-.195.06-.298.003-.105.002-.177z"/><path id="F" d="M19.829-11.199q0 .176-.312.424-.31.248-.641.248-.277 0-.429-.164-.15-.164-.15-.456 0-.493.332-.937.332-.444.727-.444.129 0 .21.084.083.084.083.203 0 .265-.26.508-.26.243-.696.477-.09.047-.09.121 0 .143.083.229.083.086.245.086.37 0 .756-.41.057-.057.086-.057.055 0 .055.088zm-1.197-.269q.73-.434.73-.698 0-.103-.093-.103-.158 0-.358.233-.198.233-.279.568z"/><path id="G" d="M20.521-10.815q-.084.31-.158.87l-.048.326q-.012.069-.064.136-.052.069-.095.069-.053 0-.122-.055-.067-.053-.067-.086 0-.095.043-.262.315-1.273.315-2.236l-.002-.145q-.003-.186.065-.27.069-.084.158-.084.041 0 .079.065.038.064.038.183 0 .167-.034.405-.045.3-.047.345.257-.448.544-.699.288-.251.534-.251.174 0 .293.131.121.129.121.322 0 .562-.431 1.02-.431.458-.839.458-.102 0-.162-.052-.059-.052-.122-.188zm1.07-1.387q-.243 0-.601.455-.358.455-.358.708 0 .062.071.121.071.059.179.059.246 0 .567-.363.32-.365.32-.717 0-.126-.052-.193-.05-.069-.126-.069z"/><path id="H" d="M2.948-3.366q-.258 0-.398-.148-.138-.148-.138-.415 0-.45.357-.947.357-.5.663-.5.14 0 .239.152.102.15.102.319 0 .102-.045.176-.043.072-.088.072-.1 0-.141-.202-.047-.217-.134-.217-.179 0-.424.425-.245.425-.245.718 0 .293.332.293.253 0 .596-.238.121-.084.177-.084.059 0 .059.067 0 .131-.308.331-.308.198-.605.198z"/><path id="I" d="M7.654-4.827q-.16.003-.686.949-.177.319-.207.348-.029.028-.109.05-.078.022-.129.022-.115 0-.115-.45 0-.253.109-.916.045-.269.045-.384 0-.114.102-.114.191 0 .191.276 0 .129-.064.506-.074.431-.076.524.107-.103.314-.453.293-.479.431-.606.14-.129.288-.129.112 0 .177.15.067.15.081.715.003.141.026.21.022.069.033.069.081 0 .351-.551.145-.291.281-.443.138-.152.305-.152.14 0 .203.145.064.143.091.425.026.286.079.524.055.238.2.305.098.047.098.109 0 .06-.083.124-.083.064-.152.064-.138 0-.246-.169-.109-.169-.164-.73-.024-.226-.047-.32-.022-.095-.071-.095-.072 0-.172.138-.098.138-.319.56-.172.329-.262.439-.088.109-.171.109-.074 0-.133-.059-.059-.06-.074-.143-.016-.084-.033-.412-.026-.544-.095-.634z"/><path id="J" d="M7.626 10.228q-.262.246-.524.386-.262.14-.401.14-.16 0-.257-.136-.095-.138-.095-.338 0-.291.11-.687.112-.398.171-.451.059-.053.155-.053.052 0 .081.062.029.06.029.124 0 .043-.04.112-.226.391-.226.808 0 .096.036.171.036.072.11.072.095 0 .233-.057.14-.059.314-.189.174-.131.234-.212.06-.081.084-.184.026-.103.036-.448.01-.345.167-.345.093 0 .121.05.028.048.028.186 0 .103-.031.448-.007.078-.009.143-.05.92-.276 1.442-.226.522-.656.522-.338 0-.601-.177-.262-.176-.262-.298 0-.057.026-.112.028-.055.069-.055.021 0 .045.033.226.346.694.346.298 0 .446-.365.148-.363.188-.935z"/><path id="K" d="M10.625 8.885q.022-.016.05-.016.043 0 .072.115 0 .074-.04.188-.117.326-.117.455 0 .034.021.038.396-.381.734-.381.208 0 .35.158.141.157.141.288 0 .4-.408.768-.407.367-.82.367-.184 0-.288-.152-.102-.153-.102-.438 0-.308.078-.682.078-.374.124-.5.019-.053.034-.109.017-.069.171-.102zm-.081 1.08q-.034.191-.034.382 0 .26.205.26.231 0 .517-.276.286-.276.286-.536 0-.107-.057-.179-.057-.072-.157-.072-.136 0-.269.069-.131.067-.293.219-.062.059-.1.091-.036.031-.098.041zm1.735.396q0 .131.036.295.007.031.007.052 0 .031-.057.081-.057.048-.121.048-.167 0-.167-.307 0-.305.133-1.023.048-.262.048-.317 0-.109.04-.184.04-.078.112-.078.088 0 .138.043.052.041.052.093 0 .052-.024.143-.134.491-.165.687-.031.196-.031.467z"/><path id="L" d="M2.827 17.081q.408-.071.732-.527.152-.212.265-.3.115-.09.245-.09.052 0 .103.047.052.047.052.11 0 .084-.16.133-.084.026-.158.088-.074.062-.281.296-.162.183-.291.257-.012.007-.012.012 0 .007.016.014.126.067.265.26.203.281.305.355.102.072.233.072l.057-.002q.06-.003.06.053 0 .065-.074.136-.074.071-.245.071-.131 0-.255-.112-.122-.114-.281-.367-.091-.15-.171-.227-.079-.078-.176-.078-.021 0-.127.034-.107.034-.121.067-.012.031-.019.229-.005.196-.005.317 0 .064-.06.114-.06.05-.131.05-.072 0-.114-.043-.041-.041-.041-.086 0-.062.047-.293.083-.42.165-1.387.007-.093.071-.167.064-.076.145-.076.045 0 .074.048.031.048.031.124 0 .06-.021.138-.098.357-.122.729z"/><path id="M" d="M10.93 16.662q-.09 0-.196.117-.105.117-.322.525-.286.548-.37.624-.083.076-.138.076-.203 0-.203-.196 0-.083.028-.234.095-.52.095-1.097 0-.065.055-.145.057-.081.107-.081.09 0 .127.055.038.055.038.222 0 .174-.103.717-.034.179-.034.227 0 .028.014.028.026 0 .239-.412.215-.419.377-.589.162-.171.357-.171.155 0 .251.141.098.141.143.515.048.425.086.531.04.103.124.103.053 0 .134-.038.014-.007.021-.007.074 0 .074.086 0 .076-.102.162-.102.084-.245.084-.146 0-.227-.115-.079-.117-.126-.622-.048-.506-.203-.506z"/><path id="N" d="M14.332 17.237q-.22.37-.451.574-.231.203-.429.203-.114 0-.233-.133-.117-.133-.117-.408 0-.226.109-.665.091-.367.091-.515.05-.103.157-.103.072 0 .115.052.043.05.043.105 0 .121-.084.343-.16.432-.16.742 0 .282.131.282.167 0 .425-.284.258-.284.443-.792.072-.203.117-.264.047-.062.124-.062.117 0 .117.155 0 .019-.033.126-.103.377-.103.713 0 .403.133.522.069.064.069.103 0 .048-.071.088-.069.04-.126.04-.121 0-.195-.179-.074-.179-.074-.529v-.057q0-.028.002-.057z"/><path id="O" d="M3.928 31.314q-.022.388-.074.76-.026.071-.131.071-.152 0-.152-.155 0-.064.036-.238.026-.152.028-.205.002-.055.009-.119.007-.065-.002-.103-.088.012-.358.21-.27.198-.463.393v-.002q-.012.007-.076.129-.091.183-.202.183-.052 0-.115-.045-.062-.045-.062-.09 0-.107.2-.317.202-.212.444-.362.296-.183.408-.295-.05-.071-.195-.155-.146-.086-.272-.193-.017-.014-.041-.031-.222-.15-.296-.224-.072-.076-.072-.162 0-.057.043-.103.043-.048.084-.048.026 0 .093.028.067.028.096.059l.084.079q.446.438.706.556.014 0 .034-.033.017-.059.017-.188 0-.121-.026-.27-.014-.078-.014-.102 0-.081.062-.131.064-.05.138-.05.084 0 .115.034.031.034.031.117l-.022.548v.034q0 .024.002.04.06 0 .126-.047.065-.048.195-.189.567-.587.656-.587.05 0 .091.041.041.041.041.096 0 .028-.189.234-.188.205-.388.377-.257.22-.257.229 0 .012.214.179.231.181.319.257.012.009.034.022.255.157.319.234.064.078.064.131 0 .05-.043.103-.043.052-.084.052-.153 0-.711-.515-.248-.231-.3-.243-.022-.003-.034-.009-.017-.005-.062-.002-.045.002-.048.014z"/><path id="P" d="M2.569 44.47h.315v.906l.894-.906h.389l-.737.746.646.92h.245v.751h-.317v-.487h-.096l-.684-.973-.339.345v.629h-.315z"/><path id="Q" d="M5.769 45.772q-.241.324-.477.486-.236.162-.432.162-.133 0-.229-.112-.096-.112-.096-.288 0-.453.405-.975.405-.524.804-.524.145 0 .215.165.022.055.071.055.138 0 .138.107 0 .053-.017.146-.093.508-.093.717 0 .417.158.5.076.041.076.102 0 .053-.074.107-.074.055-.143.055-.133 0-.219-.183-.086-.183-.086-.52zm-.105-.97q-.227 0-.529.427-.301.425-.301.706 0 .198.131.198.189 0 .525-.382.336-.382.336-.703 0-.246-.162-.246z"/><path id="R" d="M9.033 52.49q.222.036.346.164.124.127.124.312 0 .291-.246.486-.246.193-.648.193-.239 0-.413-.103-.172-.103-.172-.229 0-.103.119-.103.017 0 .053.029.189.164.45.164.229 0 .394-.121.165-.121.165-.314 0-.127-.095-.212-.093-.086-.217-.086-.095 0-.332.074-.047.016-.1.016-.103 0-.103-.14 0-.048.048-.078.05-.029.212-.067.491-.112.491-.398 0-.086-.062-.141-.06-.057-.157-.057-.179 0-.382.158-.119.093-.181.093-.105 0-.105-.098 0-.129.243-.264.245-.136.469-.136.224 0 .351.119.129.119.129.25 0 .312-.381.489z"/><path id="S" d="M14.785 52.145q-.041-.002-.081.079-.357.713-.539.968-.016.022-.04.065-.215.384-.315.384-.134 0-.134-.129 0-.117.167-.319.162-.191.425-.648.264-.458.427-.822.031-.065.093-.065.026 0 .091.024.067.022.086.05.019.028.084.32.212 1.056.446 1.252.055.048.065.065.01.016.01.045 0 .053-.034.098-.034.043-.067.055-.033.012-.134.012-.036 0-.169-.177-.133-.179-.31-.973-.043-.214-.072-.286z"/><path id="T" d="M16.246 53.549v-.861h-.453v-.293h.453v-.775h1.361v.27h-1.044v.505h.717v.293h-.717v.861z"/></defs></svg>