<svg xmlns="http://www.w3.org/2000/svg" viewBox="0 0 50.9 5.4" height="20.409" width="192.378"><g transform="translate(0 -291.6)" font-weight="400" font-family="Segoe Print" letter-spacing="0" word-spacing="0"><flowRoot transform="matrix(.26458 0 0 .26458 0 226.6)" style="line-height:1.25;-inkscape-font-specification:'Segoe Print';font-variant-ligatures:normal;font-variant-caps:normal;font-variant-numeric:normal;font-feature-settings:normal;text-align:start" xml:space="preserve" font-style="normal" font-variant="normal" font-stretch="normal" font-size="13.333" writing-mode="lr-tb" text-anchor="start" fill="#000" fill-opacity="1" stroke="none"><flowRegion><path d="M7.239 212.992h60.325V251.6H7.239z"/></flowRegion><flowPara/></flowRoot><text y="254.382" x="54.898" style="line-height:2;-inkscape-font-specification:'Segoe Print';font-variant-ligatures:normal;font-variant-caps:normal;font-variant-numeric:normal;font-feature-settings:normal;text-align:start" font-size="3.528" fill="#917c6f" stroke-width=".265"><tspan y="254.382" x="54.898">адамдар</tspan><tspan y="261.532" x="54.898">бөлме ғимарат жобалар</tspan><tspan y="268.682" x="54.898">ғарыш тылсым әлем</tspan><tspan y="275.833" x="54.898">гүлдер</tspan><tspan y="282.983" x="54.898">өсімдіктер</tspan><tspan y="290.134" x="54.898">қалыпталған кескіндер</tspan><tspan y="297.284" x="54.898">қолданыс заттары</tspan><tspan y="304.34" x="54.898">жаныуарлар</tspan><tspan y="311.49" x="54.898">өнер білім спорт</tspan><tspan y="318.546" x="54.898">art education sports</tspan><tspan y="325.707" x="54.898">美術教育スポーツ</tspan><tspan y="332.857" x="54.898">الرياضة التربية الفنية</tspan><tspan y="340.008" x="54.898">сән үлгілері</tspan><tspan y="347.158" x="54.898">тәбиғат</tspan><tspan y="354.214" x="54.898">елмекен</tspan></text><text y="254.36" x="103.499" style="line-height:2;-inkscape-font-specification:'Segoe Print';font-variant-ligatures:normal;font-variant-caps:normal;font-variant-numeric:normal;font-feature-settings:normal;text-align:start" font-size="3.528" fill="#917c6f" stroke-width=".265"><tspan y="254.36" x="103.499">үи</tspan><tspan y="261.51" x="103.499">пәтер</tspan><tspan y="268.661" x="103.499">бөлме алаң</tspan><tspan y="275.811" x="103.499">ғимарат</tspan><tspan y="282.867" x="103.499">жер телімі</tspan><tspan y="290.017" x="103.499">қызымет</tspan></text><text y="253.736" x="131.219" style="line-height:2;-inkscape-font-specification:'Segoe Print';font-variant-ligatures:normal;font-variant-caps:normal;font-variant-numeric:normal;font-feature-settings:normal;text-align:start" font-size="3.528" fill="#917c6f" stroke-width=".265"><tspan y="253.736" x="131.219">жеңіл</tspan><tspan y="260.792" x="131.219">жолаушылар</tspan><tspan y="267.942" x="131.219">жүк</tspan><tspan y="275.093" x="131.219">қызыметтік</tspan><tspan y="282.148" x="131.219">белсебет</tspan><tspan y="289.204" x="131.219">мотосекл</tspan><tspan y="296.354" x="131.219">сұу</tspan><tspan y="303.505" x="131.219">әуе</tspan><tspan y="310.655" x="131.219">қызымет</tspan></text><text y="253.832" x="163.967" style="line-height:2;-inkscape-font-specification:'Segoe Print';font-variant-ligatures:normal;font-variant-caps:normal;font-variant-numeric:normal;font-feature-settings:normal;text-align:start" font-size="3.528" fill="#917c6f" stroke-width=".265"><tspan y="253.832" x="163.967">нан өнімдері</tspan><tspan y="260.983" x="163.967">сұусын</tspan><tspan y="268.133" x="163.967">кәмпит</tspan><tspan y="275.189" x="163.967">торт</tspan><tspan y="282.339" x="163.967">жеміс жидек көкөніс</tspan><tspan y="289.49" x="163.967">қаинатпа</tspan><tspan y="296.64" x="163.967">тұздалған</tspan><tspan y="303.79" x="163.967">қызымет</tspan></text><g style="line-height:2;-inkscape-font-specification:'Segoe Print';font-variant-ligatures:normal;font-variant-caps:normal;font-variant-numeric:normal;font-feature-settings:normal;text-align:start" aria-label="нан өнімдері сұусын кәмпит торт жеміс жидек көкөніс қаинатпа тұздалған қызымет" font-size="3.528" fill="#917c6f" stroke-width=".265"><path d="M3.544 265.693q.019-.036.06-.432.031-.317.202-.317.14 0 .14.14 0 .032-.025.132-.133.55-.133.922 0 .403.133.522.069.063.069.103 0 .048-.07.088-.07.04-.126.04-.27 0-.27-.83 0-.056-.04-.056-.162 0-.397.019-.234.019-.336.048-.1.03-.124.055-.022.024-.04.133-.018.107-.018.222v.212q0 .184-.169.184-.141 0-.141-.184 0-.12.03-.307.058-.34.114-1.174.007-.109.02-.138.011-.03.061-.064.052-.036.112-.036.124 0 .124.102 0 .015-.04.258t-.04.377q0 .095.065.095.13 0 .479-.043.348-.045.36-.07zM5.513 266.191q-.241.324-.477.486-.236.162-.433.162-.132 0-.229-.112-.096-.112-.096-.288 0-.453.404-.975.405-.524.805-.524.145 0 .215.166.023.055.07.055.139 0 .139.107 0 .053-.018.146-.093.508-.093.717 0 .417.159.5.076.04.076.1 0 .054-.074.108-.075.055-.143.055-.133 0-.22-.183-.085-.182-.085-.52zm-.105-.97q-.228 0-.53.427-.3.426-.3.707 0 .198.13.198.19 0 .526-.383.336-.382.336-.702 0-.247-.162-.247zM7.69 265.693q.019-.036.06-.432.031-.317.202-.317.14 0 .14.14 0 .032-.025.132-.132.55-.132.922 0 .403.132.522.07.063.07.103 0 .048-.072.088-.068.04-.125.04-.269 0-.269-.83 0-.056-.041-.056-.162 0-.396.019-.235.019-.336.048-.1.03-.124.055-.023.024-.042.133-.017.107-.017.222v.212q0 .184-.169.184-.141 0-.141-.184 0-.12.031-.307.057-.34.114-1.174.007-.109.019-.138.012-.03.062-.064.051-.036.112-.036.124 0 .124.102 0 .015-.04.258-.041.243-.041.377 0 .095.065.095.131 0 .479-.043.348-.045.36-.07zM10.756 265.11q-.253 0-.382.168-.128.165-.159.384h1.082q-.031-.219-.16-.384-.128-.167-.38-.167zm.002 1.49q.256 0 .401-.2.145-.2.145-.455h-1.092q0 .255.144.454.145.2.402.2zm.002-1.758q.413 0 .649.269.236.269.236.744 0 .474-.236.744-.236.269-.65.269-.415 0-.65-.269-.235-.27-.235-.744 0-.475.234-.744.236-.269.652-.269zM13.335 265.693q.019-.036.06-.432.031-.317.202-.317.14 0 .14.14 0 .032-.025.132-.133.55-.133.922 0 .403.133.522.069.063.069.103 0 .048-.07.088-.07.04-.126.04-.27 0-.27-.83 0-.056-.04-.056-.162 0-.397.019-.234.019-.336.048-.1.03-.124.055-.022.024-.041.133-.017.107-.017.222v.212q0 .184-.169.184-.141 0-.141-.184 0-.12.03-.307.058-.34.114-1.174.007-.109.02-.138.011-.03.061-.064.052-.036.112-.036.124 0 .124.102 0 .015-.04.258t-.04.377q0 .095.065.095.13 0 .479-.043.348-.045.36-.07zM14.697 264.511q-.036 0-.055-.077-.007-.024-.019-.053-.046-.112-.046-.195 0-.069.08-.14.083-.072.183-.072.05 0 .112.04.062.038.062.074 0 .057-.043.193-.041.136-.134.184-.091.046-.14.046zm-.225 1.925q0 .13.036.294.007.031.007.052 0 .03-.057.079-.057.05-.12.05-.168 0-.168-.307 0-.317.131-1.002.045-.24.045-.295 0-.108.04-.184.04-.077.112-.077.087 0 .137.043.052.04.052.093 0 .051-.024.136-.13.454-.16.65-.031.197-.031.468zM17.36 265.309q-.14.224-.392.758-.057.12-.116.232-.019.037-.072.16-.181.421-.315.421-.107 0-.157-.026-.048-.026-.093-.141-.045-.115-.133-.543-.101-.484-.138-.596-.117.264-.208.508-.138.36-.267.588-.13.226-.186.27-.057.047-.109.047-.053 0-.096-.041-.043-.042-.043-.081.01-.071.024-.088.15-.185.258-.393.109-.209.276-.625.169-.417.215-.684.023-.114.167-.114.085 0 .116.026.03.026.06.105.031.08.036.141.01.074.059.33.043.239.057.339.024.143.084.375.062.233.097.233.024 0 .068-.105l.145-.335q.04-.091.085-.179l.198-.405q.162-.334.248-.484.088-.151.117-.182.03-.031.069-.031.065 0 .146.036.081.034.085.077.003.044.015.36l.022.538q.01.257.031.437.021.18.073.29.08.176.08.272 0 .083-.068.114-.067.03-.126.03-.12 0-.186-.192-.064-.193-.093-1.106-.01-.274-.033-.336zM19.558 264.813q-.062-.269-.153-.376-.091-.106-.241-.165-.15-.059-.27-.059-.047 0-.138.037-.09.034-.138.063-.067.04-.124.04-.066 0-.066-.069 0-.074.112-.205.112-.13.395-.13h.074q.28 0 .496.147.215.147.305.42.091.274.091.736 0 .314-.198.76t-.505.675q-.305.23-.65.23-.123 0-.232-.144-.108-.143-.108-.355 0-.39.17-.689.173-.3.385-.485.213-.187.589-.3.124-.036.168-.057.045-.02.038-.074zm.047.351q-.398.081-.61.257-.479.448-.479 1.004 0 .074.026.14.026.063.059.063.127 0 .232-.044.105-.045.257-.186.151-.143.274-.353.124-.21.179-.405.057-.195.06-.298.004-.105.002-.178zM21.686 266.234q0 .176-.312.424-.31.248-.64.248-.278 0-.43-.164-.15-.163-.15-.456 0-.493.333-.937.332-.445.727-.445.129 0 .21.085.083.084.083.203 0 .265-.26.508t-.696.477q-.09.047-.09.12 0 .144.083.23.082.086.244.086.37 0 .756-.41.057-.057.087-.057.055 0 .055.088zm-1.197-.269q.73-.434.73-.697 0-.104-.093-.104-.159 0-.358.233-.199.232-.28.568zM22.378 266.618q-.084.31-.158.87l-.049.326q-.012.069-.063.136-.052.069-.095.069-.053 0-.122-.056-.068-.053-.068-.086 0-.094.044-.261.315-1.273.315-2.236l-.002-.145q-.003-.186.066-.27.068-.085.158-.085.041 0 .08.066.037.063.037.182 0 .167-.034.405-.045.3-.047.345.257-.448.545-.7.287-.251.534-.251.173 0 .292.13.12.13.12.323 0 .561-.43 1.02-.43.458-.839.458-.101 0-.162-.052-.058-.052-.122-.188zm1.07-1.386q-.243 0-.601.454-.359.455-.359.708 0 .062.071.12.07.06.18.06.245 0 .566-.364.32-.365.32-.717 0-.125-.051-.193-.05-.068-.126-.068zM24.881 264.511q-.036 0-.055-.077-.007-.024-.02-.053-.046-.112-.046-.195 0-.069.081-.14.083-.072.183-.072.05 0 .112.04.062.038.062.074 0 .057-.043.193-.041.136-.134.184-.092.046-.14.046zm-.226 1.925q0 .13.037.294.006.031.006.052 0 .03-.056.079-.057.05-.121.05-.167 0-.167-.307 0-.317.13-1.002.046-.24.046-.295 0-.108.04-.184.039-.077.111-.077.088 0 .138.043.052.04.052.093 0 .051-.024.136-.13.454-.16.65-.032.197-.032.468zM2.746 274.067q-.258 0-.398-.148-.137-.149-.137-.416 0-.45.356-.947.357-.5.663-.5.14 0 .24.152.101.15.101.319 0 .101-.044.175-.043.073-.088.073-.1 0-.142-.202-.046-.217-.134-.217-.179 0-.424.426-.244.425-.244.718t.332.293q.253 0 .596-.238.12-.084.178-.084.058 0 .058.067 0 .13-.308.33-.308.199-.605.199zM5.818 272.04l-.762 1.897v.152h.452v.293h-.452v.32H4.72v-.32h-.47v-.293h.47v-.152l-.78-1.898h.336l.603 1.51.603-1.51zM7.425 273.36q-.262.247-.524.386-.262.14-.401.14-.16 0-.257-.136-.095-.138-.095-.338 0-.291.11-.687.113-.398.171-.452.059-.053.155-.053.052 0 .081.062.03.06.03.124 0 .043-.04.112-.226.391-.226.808 0 .096.036.17.036.073.11.073.095 0 .233-.057.14-.059.314-.19.174-.13.234-.211.06-.081.084-.185.026-.103.036-.448.01-.344.167-.344.093 0 .121.05.028.048.028.186 0 .103-.031.448-.007.077-.009.143-.05.92-.276 1.441-.225.522-.656.522-.338 0-.601-.177-.262-.176-.262-.298 0-.057.026-.112.027-.055.069-.055.02 0 .045.033.225.346.694.346.298 0 .446-.365.148-.364.188-.936zM8.706 274.067q-.258 0-.398-.148-.137-.149-.137-.416 0-.45.356-.947.357-.5.663-.5.14 0 .24.152.101.15.101.319 0 .101-.044.175-.043.073-.088.073-.1 0-.142-.202-.046-.217-.134-.217-.179 0-.424.426-.244.425-.244.718t.332.293q.253 0 .596-.238.12-.084.178-.084.058 0 .058.067 0 .13-.308.33-.308.199-.605.199zM10.424 272.017q.022-.016.05-.016.043 0 .072.116 0 .074-.04.187-.117.326-.117.455 0 .035.02.038.397-.38.735-.38.208 0 .35.158.14.157.14.288 0 .4-.408.768-.406.367-.82.367-.184 0-.287-.152-.102-.153-.102-.437 0-.309.078-.682.077-.374.124-.5.019-.053.034-.109.017-.068.17-.101zm-.081 1.08q-.035.191-.035.382 0 .26.205.26.231 0 .517-.275.286-.276.286-.536 0-.107-.057-.18-.057-.072-.157-.072-.136 0-.268.07-.131.067-.293.218-.062.059-.1.091-.036.031-.098.042zm1.734.396q0 .13.036.295.007.03.007.051 0 .031-.056.081-.057.048-.121.048-.167 0-.167-.306 0-.305.133-1.023.048-.262.048-.317 0-.109.04-.185.039-.077.111-.077.088 0 .138.043.052.041.052.093t-.024.143q-.135.49-.166.687-.03.197-.03.467zM13.91 272.844q.019-.037.06-.433.031-.317.202-.317.14 0 .14.14 0 .033-.025.132-.132.55-.132.922 0 .403.132.522.07.064.07.103 0 .049-.071.088-.07.04-.126.04-.269 0-.269-.83 0-.056-.041-.056-.162 0-.396.02-.235.018-.336.048-.1.029-.124.055-.023.024-.042.132-.017.107-.017.223v.211q0 .185-.169.185-.14 0-.14-.185 0-.12.03-.306.057-.341.114-1.175.007-.109.019-.138.012-.03.062-.064.051-.036.112-.036.124 0 .124.102 0 .015-.04.258-.041.243-.041.378 0 .094.065.094.131 0 .48-.043.347-.045.36-.07zM2.626 280.213q.408-.07.732-.527.151-.212.265-.3.115-.09.245-.09.051 0 .103.047.052.046.052.11 0 .085-.16.133-.085.026-.159.088t-.28.296q-.163.183-.292.257-.012.007-.012.012 0 .007.016.014.125.067.265.26.203.28.305.355.101.072.232.072l.057-.002q.06-.003.06.053 0 .066-.074.136t-.244.07q-.131 0-.255-.111-.123-.114-.281-.367-.091-.15-.17-.227-.08-.078-.176-.078-.02 0-.128.035-.106.034-.12.067-.012.03-.02.229-.004.196-.004.317 0 .063-.06.113-.061.05-.132.05-.072 0-.113-.043-.042-.04-.042-.086 0-.062.047-.293.083-.42.165-1.386.007-.093.07-.167.065-.076.146-.076.044 0 .074.048t.03.124q0 .06-.02.138-.098.357-.122.729zM4.266 280.237v-.155h1.457q-.02-.327-.198-.498-.176-.172-.491-.172-.183 0-.355.045-.17.044-.34.134v-.3q.171-.072.35-.11.18-.038.364-.038.461 0 .73.269.27.269.27.727 0 .474-.256.753-.255.277-.69.277-.388 0-.616-.25-.225-.251-.225-.682zm.317.093q.003.26.144.415.143.155.377.155.266 0 .424-.15.16-.15.184-.422zM8.668 279.61q-.14.224-.392.758-.057.12-.116.232-.019.037-.072.16-.181.42-.315.42-.107 0-.157-.025-.048-.026-.093-.141-.045-.116-.133-.543-.101-.484-.138-.596-.117.264-.208.508-.138.36-.267.588-.13.225-.186.27-.057.047-.109.047-.053 0-.096-.042-.043-.04-.043-.08.01-.071.024-.088.15-.185.258-.393.109-.209.276-.625.169-.417.215-.684.023-.114.167-.114.085 0 .116.026.03.026.06.105.031.08.036.141.01.074.059.33.043.239.057.338.024.143.084.376.062.233.097.233.024 0 .069-.106l.144-.334q.04-.091.085-.179l.198-.405q.162-.334.248-.484.088-.151.117-.182.03-.031.069-.031.065 0 .146.036.081.034.085.077.003.044.015.36l.023.538q.01.257.03.437.021.18.073.29.08.175.08.272 0 .083-.068.114-.067.03-.126.03-.12 0-.186-.192-.064-.193-.093-1.106-.01-.274-.033-.336zM10.729 279.794q-.09 0-.197.117-.105.118-.322.526-.286.548-.37.623-.083.076-.138.076-.203 0-.203-.196 0-.083.027-.234.095-.52.095-1.098 0-.065.055-.144.057-.081.107-.081.09 0 .127.055.038.055.038.222 0 .174-.103.716-.035.18-.035.228 0 .027.014.027.026 0 .24-.411.215-.419.377-.59.162-.17.356-.17.155 0 .252.141.098.142.143.515.048.426.086.53.04.104.124.104.053 0 .134-.038.014-.007.021-.007.074 0 .074.086 0 .076-.101.162-.102.085-.245.085-.146 0-.227-.116-.08-.117-.126-.621-.048-.507-.203-.507zM13.11 280.37q-.22.37-.45.573-.231.203-.43.203-.113 0-.232-.132-.117-.133-.117-.408 0-.226.108-.665.092-.367.092-.515.05-.104.157-.104.072 0 .115.052.043.05.043.105 0 .12-.084.343-.16.432-.16.742 0 .283.13.283.167 0 .426-.284.258-.285.442-.793.073-.203.118-.263.046-.062.124-.062.117 0 .117.155 0 .019-.033.125-.103.378-.103.714 0 .403.132.521.07.064.07.104 0 .048-.071.088-.07.04-.126.04-.12 0-.195-.18-.074-.179-.074-.529v-.057l.002-.056zM15.347 279.756q-.16.003-.686.95-.177.318-.207.347-.029.028-.108.05-.078.023-.13.023-.115 0-.115-.45 0-.253.109-.916.045-.269.045-.384 0-.114.101-.114.191 0 .191.276 0 .129-.063.506-.074.43-.076.524.107-.104.313-.453.293-.48.431-.607.14-.129.288-.129.112 0 .177.15.067.15.081.715.004.141.026.21t.033.069q.08 0 .351-.551.145-.291.28-.443.139-.152.306-.152.14 0 .203.145.064.143.091.426.026.286.08.523.055.238.2.305.098.047.098.109 0 .06-.083.124-.083.063-.152.063-.138 0-.246-.168-.109-.17-.164-.73-.024-.226-.046-.321-.023-.095-.07-.095-.073 0-.173.138-.098.138-.319.56-.172.329-.262.439-.087.109-.17.109-.074 0-.133-.059-.058-.06-.074-.143-.015-.084-.033-.412-.025-.544-.094-.634zM3.577 286.812q-.16.003-.686.95-.177.318-.207.347-.029.028-.108.05-.078.022-.13.022-.115 0-.115-.45 0-.252.109-.916.044-.268.044-.384 0-.113.102-.113.191 0 .191.275 0 .13-.063.507-.075.43-.076.523.107-.103.313-.453.293-.479.43-.606.14-.13.289-.13.112 0 .177.15.067.15.08.715.004.142.027.21.022.07.033.07.08 0 .35-.552.146-.29.282-.442.137-.152.305-.152.14 0 .203.145.064.143.091.425.026.286.08.524.054.237.2.305.097.046.097.108 0 .06-.082.124-.083.064-.152.064-.138 0-.246-.169-.109-.169-.164-.73-.024-.226-.046-.32-.023-.095-.071-.095-.072 0-.172.137-.098.138-.319.56-.172.33-.262.44-.088.108-.17.108-.074 0-.133-.059-.058-.06-.074-.143-.015-.084-.033-.411-.026-.545-.094-.634zM6.405 288.26q-.236 0-.39-.179-.153-.179-.153-.442 0-.445.298-.875.3-.433.717-.433.276 0 .446.212.172.212.172.505 0 .448-.355.83-.353.383-.735.383zm-.24-.666q0 .174.073.284.074.11.195.11.256 0 .515-.28.258-.283.258-.627 0-.212-.1-.343-.098-.133-.265-.133-.278 0-.477.341-.198.34-.198.648zM8.23 287.975q-.085.31-.16.87l-.048.325q-.012.069-.063.136-.052.07-.095.07-.053 0-.122-.056-.068-.053-.068-.086 0-.095.044-.262.315-1.273.315-2.236l-.002-.144q-.003-.187.066-.27.068-.085.158-.085.041 0 .08.065.037.064.037.183 0 .167-.034.404-.045.3-.047.345.257-.448.544-.7.288-.25.534-.25.174 0 .293.13.12.13.12.322 0 .562-.43 1.02-.43.458-.839.458-.101 0-.162-.052-.058-.051-.122-.187zm1.069-1.387q-.243 0-.601.455-.359.455-.359.708 0 .062.071.12.07.059.18.059.245 0 .566-.364.32-.365.32-.716 0-.126-.051-.193-.05-.069-.126-.069zM11.478 286.812q-.16.003-.686.95-.177.318-.206.347-.03.028-.109.05-.077.022-.13.022-.115 0-.115-.45 0-.252.109-.916.045-.268.045-.384 0-.113.101-.113.192 0 .192.275 0 .13-.064.507-.074.43-.076.523.107-.103.314-.453.292-.479.43-.606.14-.13.288-.13.112 0 .177.15.067.15.081.715.004.142.026.21.023.07.033.07.08 0 .351-.552.145-.29.281-.442.138-.152.305-.152.14 0 .203.145.064.143.091.425.026.286.08.524.055.237.2.305.098.046.098.108 0 .06-.083.124t-.152.064q-.137 0-.246-.169-.108-.169-.164-.73-.024-.226-.046-.32-.022-.095-.07-.095-.073 0-.173.137-.098.138-.319.56-.172.33-.261.44-.088.108-.17.108-.075 0-.134-.059-.058-.06-.074-.143-.015-.084-.032-.411-.026-.545-.095-.634zM3.726 294.541q-.022.388-.074.76-.026.07-.13.07-.152 0-.152-.155 0-.063.036-.237.026-.152.028-.205.001-.055.008-.12t-.002-.102q-.087.012-.358.21-.27.198-.463.392v-.002q-.012.007-.076.13-.091.182-.202.182-.051 0-.115-.045-.062-.044-.062-.09 0-.106.2-.316.201-.212.444-.362.297-.182.409-.294-.05-.071-.195-.155-.147-.087-.272-.193l-.042-.031q-.222-.15-.296-.224-.072-.076-.072-.162 0-.057.043-.104.043-.048.084-.048.026 0 .093.028.067.027.097.058l.084.08q.446.437.706.556.014 0 .035-.033.017-.058.017-.187 0-.121-.026-.27-.014-.078-.014-.103 0-.08.062-.13.064-.05.138-.05.085 0 .116.034.03.034.03.117l-.022.548v.034q0 .024.002.04.06 0 .126-.047.065-.048.194-.19.567-.587.657-.587.05 0 .09.042.042.041.042.096 0 .028-.19.235-.187.205-.387.377-.256.22-.256.229 0 .012.213.179.231.18.319.257.012.009.034.022.255.157.319.234.064.078.064.131 0 .05-.043.104-.043.051-.085.051-.153 0-.711-.515-.248-.23-.3-.243-.022-.003-.034-.009-.018-.005-.062-.002-.045.002-.049.014zM6.811 294.741q0 .176-.311.424-.31.248-.641.248-.277 0-.429-.164-.15-.163-.15-.456 0-.493.333-.937.332-.445.727-.445.129 0 .21.085.082.084.082.203 0 .265-.26.508t-.696.477q-.09.047-.09.12 0 .144.083.23.083.086.245.086.37 0 .756-.41.057-.057.086-.057.055 0 .055.088zm-1.197-.269q.73-.434.73-.697 0-.104-.092-.104-.159 0-.359.233-.198.232-.279.568zM9.37 293.816q-.14.224-.393.758-.057.12-.116.232-.019.037-.072.16-.18.421-.315.421-.107 0-.157-.026-.048-.026-.093-.141-.045-.115-.133-.543-.101-.484-.137-.596-.118.264-.209.508-.138.36-.267.588-.13.226-.186.27-.057.047-.108.047-.054 0-.097-.041-.043-.042-.043-.081.01-.071.024-.088.15-.185.259-.393.108-.209.275-.625.169-.417.215-.684.023-.114.168-.114.084 0 .115.026t.06.105q.031.08.036.141.01.074.059.33.043.239.057.339.024.142.084.375.062.233.097.233.024 0 .069-.106l.144-.334q.04-.091.085-.179l.198-.405q.162-.334.248-.484.088-.151.117-.182.031-.031.069-.031.065 0 .146.036.081.034.085.077.003.044.015.36l.023.538q.01.257.03.437.021.18.073.29.08.176.08.272 0 .083-.068.114-.067.03-.126.03-.12 0-.186-.192-.064-.193-.093-1.106-.01-.274-.033-.336zM10.811 293.018q-.036 0-.055-.077-.007-.024-.019-.053-.046-.112-.046-.195 0-.069.08-.14.083-.072.183-.072.05 0 .112.04.062.038.062.074 0 .057-.043.193-.041.136-.134.184-.092.046-.14.046zm-.225 1.925q0 .13.036.294.007.031.007.052 0 .03-.057.079-.057.05-.12.05-.168 0-.168-.307 0-.317.131-1.002.045-.24.045-.295 0-.108.04-.184.04-.077.111-.077.088 0 .138.043.052.04.052.093 0 .051-.024.136-.13.454-.16.65-.031.197-.031.468zM11.747 295.423q-.259 0-.398-.148-.138-.148-.138-.415 0-.45.356-.948.357-.5.664-.5.14 0 .239.153.102.15.102.318 0 .102-.045.176-.043.072-.088.072-.1 0-.141-.201-.047-.217-.135-.217-.179 0-.423.425-.245.426-.245.718 0 .293.333.293.253 0 .596-.237.12-.085.177-.085.059 0 .059.067 0 .131-.309.331-.308.198-.604.198zM15.925 294.541q-.022.388-.074.76-.025.07-.13.07-.152 0-.152-.155 0-.063.036-.237.026-.152.028-.205.001-.055.008-.12t-.001-.102q-.088.012-.359.21-.27.198-.463.392v-.002q-.012.007-.076.13-.091.182-.201.182-.052 0-.116-.045-.062-.044-.062-.09 0-.106.2-.316.201-.212.444-.362.297-.182.409-.294-.05-.071-.195-.155-.146-.087-.272-.193-.017-.014-.042-.031-.222-.15-.296-.224-.072-.076-.072-.162 0-.057.043-.104.043-.048.084-.048.026 0 .093.028.068.027.097.058l.084.08q.446.437.706.556.014 0 .035-.033.017-.058.017-.187 0-.121-.026-.27-.014-.078-.014-.103 0-.08.062-.13.064-.05.138-.05.085 0 .116.034.03.034.03.117l-.022.548v.034q0 .024.002.04.06 0 .126-.047.065-.048.194-.19.567-.587.657-.587.05 0 .091.042.041.041.041.096 0 .028-.19.235-.187.205-.387.377-.256.22-.256.229 0 .012.213.179.231.18.319.257.012.009.034.022.255.157.319.234.064.078.064.131 0 .05-.043.104-.043.051-.085.051-.153 0-.711-.515-.248-.23-.3-.243-.022-.003-.034-.009-.018-.005-.062-.002-.045.002-.049.014zM18.752 294.576q-.22.37-.451.573-.23.204-.429.204-.114 0-.233-.133-.117-.133-.117-.408 0-.226.109-.665.091-.367.091-.515.05-.104.157-.104.072 0 .115.052.043.05.043.105 0 .12-.084.343-.16.432-.16.742 0 .283.13.283.168 0 .426-.284.258-.285.443-.793.072-.203.117-.263.046-.062.124-.062.117 0 .117.155 0 .019-.033.125-.103.378-.103.714 0 .403.133.522.069.063.069.103 0 .048-.071.088-.069.04-.126.04-.12 0-.194-.18-.075-.179-.075-.529v-.056l.002-.057zM20.998 293.32q-.062-.269-.153-.376-.091-.106-.241-.165-.15-.059-.27-.059-.047 0-.138.037-.09.034-.138.063-.067.04-.124.04-.066 0-.066-.069 0-.074.112-.205.112-.13.395-.13h.074q.28 0 .496.147.215.147.305.42.091.274.091.736 0 .314-.198.76t-.505.675q-.305.23-.649.23-.124 0-.233-.144-.108-.143-.108-.355 0-.39.17-.689.173-.3.385-.486.213-.186.589-.3.124-.035.168-.056.045-.02.038-.074zm.047.351q-.398.081-.61.257-.479.448-.479 1.004 0 .074.026.14.026.063.059.063.127 0 .232-.044.105-.045.257-.186.151-.143.274-.354.124-.21.179-.404.057-.195.06-.298.004-.105.002-.178zM23.126 294.741q0 .176-.312.424-.31.248-.64.248-.278 0-.43-.164-.15-.163-.15-.456 0-.493.333-.937.332-.445.727-.445.129 0 .21.085.083.084.083.203 0 .265-.26.508t-.696.477q-.09.047-.09.12 0 .144.083.23.082.086.244.086.37 0 .756-.41.057-.057.087-.057.055 0 .055.088zm-1.197-.269q.73-.434.73-.697 0-.104-.093-.104-.159 0-.358.233-.198.232-.28.568zM23.835 294.419q.409-.07.733-.527.151-.212.265-.3.115-.09.244-.09.052 0 .104.047.051.046.051.11 0 .085-.16.133-.084.026-.158.088t-.281.296q-.162.183-.291.257-.012.007-.012.012 0 .007.015.014.126.067.266.26.203.28.304.355.102.072.233.072l.057-.002q.06-.003.06.053 0 .066-.074.136t-.245.07q-.13 0-.254-.111-.123-.114-.281-.367-.092-.15-.17-.227-.08-.078-.176-.078-.021 0-.128.035-.107.034-.12.067-.013.03-.02.229-.005.196-.005.317 0 .064-.06.114t-.13.05q-.073 0-.115-.044-.04-.04-.04-.086 0-.062.046-.293.082-.42.165-1.386.007-.093.07-.167.064-.076.145-.076.045 0 .074.048.031.048.031.124 0 .06-.02.138-.099.357-.123.729zM27.27 294.419q.408-.07.732-.527.152-.212.266-.3.115-.09.244-.09.052 0 .103.047.052.046.052.11 0 .085-.16.133-.084.026-.159.088-.074.062-.28.296-.162.183-.291.257-.012.007-.012.012 0 .007.015.014.126.067.265.26.204.28.305.355.102.072.233.072l.057-.002q.06-.003.06.053 0 .066-.074.136t-.245.07q-.13 0-.255-.111-.122-.114-.28-.367-.092-.15-.171-.227-.08-.078-.176-.078-.02 0-.127.035-.107.034-.12.067-.013.03-.02.229-.005.196-.005.317 0 .064-.06.114t-.131.05q-.072 0-.114-.044-.041-.04-.041-.086 0-.062.046-.293.083-.42.166-1.386.007-.093.07-.167.064-.076.145-.076.045 0 .074.048.031.048.031.124 0 .06-.02.138-.099.357-.123.729zM29.792 293.618q-.253 0-.382.167-.128.165-.159.384h1.082q-.031-.219-.16-.384-.128-.167-.381-.167zm.002 1.488q.256 0 .401-.2.145-.2.145-.454h-1.092q0 .255.144.454.145.2.402.2zm.001-1.757q.414 0 .65.269.236.269.236.744 0 .474-.236.744-.236.269-.65.269-.415 0-.65-.269-.235-.27-.235-.744 0-.475.234-.744.236-.269.651-.269zM31.453 294.419q.408-.07.732-.527.151-.212.265-.3.115-.09.244-.09.052 0 .104.047.052.046.052.11 0 .085-.16.133-.085.026-.16.088-.073.062-.28.296-.162.183-.291.257-.012.007-.012.012 0 .007.015.014.126.067.266.26.203.28.305.355.101.072.232.072l.057-.002q.06-.003.06.053 0 .066-.074.136t-.244.07q-.131 0-.255-.111-.123-.114-.281-.367-.091-.15-.17-.227-.08-.078-.176-.078-.021 0-.128.035-.107.034-.12.067-.012.03-.02.229-.005.196-.005.317 0 .064-.06.114t-.13.05q-.073 0-.114-.044-.042-.04-.042-.086 0-.062.047-.293.082-.42.165-1.386.007-.093.07-.167.064-.076.145-.076.045 0 .074.048.031.048.031.124 0 .06-.02.138-.098.357-.123.729zM33.974 293.618q-.253 0-.382.167-.128.165-.159.384h1.082q-.03-.219-.16-.384-.127-.167-.38-.167zm.002 1.488q.257 0 .401-.2.145-.2.145-.454H33.43q0 .255.145.454.144.2.401.2zm.002-1.757q.413 0 .65.269.235.269.235.744 0 .474-.236.744-.236.269-.65.269-.414 0-.65-.269-.235-.27-.235-.744 0-.475.235-.744.236-.269.65-.269zM36.553 294.2q.019-.036.06-.432.031-.317.202-.317.14 0 .14.14 0 .032-.025.132-.132.55-.132.922 0 .403.132.521.07.064.07.104 0 .048-.071.088-.07.04-.126.04-.269 0-.269-.83 0-.056-.041-.056-.162 0-.396.019-.235.019-.336.048-.1.03-.124.055-.023.024-.042.133-.017.107-.017.222v.212q0 .184-.169.184-.141 0-.141-.184 0-.12.031-.307.057-.34.114-1.174.007-.109.019-.138.012-.03.062-.064.051-.036.112-.036.124 0 .124.102 0 .015-.04.258-.041.243-.041.377 0 .095.065.095.131 0 .479-.043.348-.045.36-.07zM37.916 293.018q-.037 0-.056-.077-.006-.024-.019-.053-.046-.112-.046-.195 0-.069.08-.14.084-.072.183-.072.05 0 .112.04.062.038.062.074 0 .057-.043.193-.04.136-.134.184-.091.046-.14.046zm-.226 1.925q0 .13.036.294.007.031.007.052 0 .03-.057.079-.057.05-.12.05-.168 0-.168-.307 0-.317.131-1.002.045-.24.045-.295 0-.108.04-.184.04-.077.112-.077.088 0 .138.043.051.04.051.093 0 .051-.024.136-.13.454-.16.65-.031.197-.031.468zM38.85 295.423q-.258 0-.397-.148-.138-.148-.138-.415 0-.45.357-.948.356-.5.663-.5.14 0 .24.153.101.15.101.318 0 .102-.045.176-.043.072-.088.072-.1 0-.14-.201-.047-.217-.135-.217-.18 0-.424.425-.245.426-.245.718 0 .293.333.293.253 0 .596-.237.12-.085.177-.085.059 0 .059.067 0 .131-.309.331-.308.198-.604.198zM2.367 300.546h.316v.906l.894-.906h.389l-.737.746.646.92h.244v.75h-.317v-.487h-.096l-.684-.973-.34.345v.628h-.315zM5.568 301.848q-.241.324-.477.486-.236.162-.433.162-.132 0-.229-.112-.096-.112-.096-.288 0-.453.405-.974.404-.524.804-.524.145 0 .215.165.023.055.07.055.139 0 .139.107 0 .054-.018.147-.093.508-.093.716 0 .417.159.5.076.041.076.101 0 .054-.074.107-.074.055-.143.055-.133 0-.22-.182-.085-.183-.085-.52zm-.105-.97q-.228 0-.53.428-.3.425-.3.706 0 .198.13.198.19 0 .526-.382.336-.383.336-.703 0-.246-.162-.246zM7.693 301.726q-.22.37-.45.574-.232.203-.43.203-.113 0-.232-.133-.117-.132-.117-.408 0-.226.108-.665.091-.367.091-.515.05-.103.157-.103.072 0 .116.052.043.05.043.105 0 .12-.085.342-.16.433-.16.743 0 .282.13.282.168 0 .426-.284.259-.284.443-.792.072-.204.117-.264.047-.062.124-.062.117 0 .117.155 0 .02-.032.126-.104.377-.104.713 0 .403.133.522.069.064.069.103 0 .049-.07.088-.07.04-.127.04-.12 0-.194-.18-.074-.178-.074-.528v-.057l.001-.057zM9.897 301.35q.019-.036.06-.432.03-.317.201-.317.14 0 .14.14 0 .033-.024.132-.133.55-.133.922 0 .403.133.522.069.064.069.103 0 .049-.07.088-.07.04-.127.04-.268 0-.268-.83 0-.056-.042-.056-.162 0-.396.02-.234.018-.336.048-.1.029-.124.055-.022.024-.041.132-.017.107-.017.222v.212q0 .185-.17.185-.14 0-.14-.185 0-.12.03-.306.057-.341.114-1.175.007-.109.02-.138.011-.03.061-.064.052-.036.112-.036.124 0 .124.102 0 .015-.04.258t-.04.378q0 .094.065.094.13 0 .479-.043.348-.045.36-.07zM11.865 301.848q-.24.324-.477.486-.236.162-.432.162-.133 0-.23-.112-.096-.112-.096-.288 0-.453.405-.974.405-.524.805-.524.144 0 .215.165.022.055.07.055.138 0 .138.107 0 .054-.017.147-.093.508-.093.716 0 .417.159.5.075.041.075.101 0 .054-.074.107-.074.055-.143.055-.132 0-.218-.182-.087-.183-.087-.52zm-.105-.97q-.227 0-.528.428-.302.425-.302.706 0 .198.131.198.19 0 .525-.382.336-.383.336-.703 0-.246-.162-.246zM14.075 301.113q-.16.003-.685.949-.178.319-.207.348-.03.028-.108.05-.078.022-.13.022-.115 0-.115-.45 0-.252.109-.916.044-.268.044-.384 0-.113.102-.113.191 0 .191.275 0 .13-.064.507-.074.43-.075.523.106-.103.313-.453.293-.479.43-.606.14-.13.288-.13.112 0 .178.15.067.15.08.715.004.142.027.21.022.07.032.07.081 0 .352-.552.145-.29.28-.442.138-.152.306-.152.139 0 .203.145.063.143.091.425.026.286.08.524.054.238.2.305.097.046.097.108 0 .06-.082.124-.083.064-.152.064-.138 0-.246-.169-.109-.169-.164-.73-.024-.226-.046-.32-.023-.095-.071-.095-.072 0-.172.137-.098.138-.319.56-.172.33-.262.44-.088.108-.17.108-.074 0-.133-.059-.059-.06-.074-.142-.016-.085-.033-.412-.026-.544-.095-.634zM17.574 301.15q-.09 0-.196.118-.105.117-.323.525-.285.548-.37.624-.083.076-.138.076-.203 0-.203-.197 0-.082.028-.234.094-.52.094-1.097 0-.066.055-.145.057-.08.107-.08.09 0 .128.054.038.055.038.222 0 .174-.104.717-.034.18-.034.227 0 .028.014.028.025 0 .24-.412.214-.418.376-.589.162-.17.357-.17.155 0 .251.14.099.142.143.516.049.425.086.53.04.104.124.104.054 0 .135-.038.014-.007.02-.007.075 0 .075.086 0 .076-.102.162-.102.084-.245.084-.146 0-.227-.115-.08-.117-.126-.622-.048-.506-.203-.506zM19.901 301.848q-.241.324-.477.486-.236.162-.432.162-.133 0-.23-.112-.096-.112-.096-.288 0-.453.405-.974.405-.524.804-.524.145 0 .216.165.022.055.07.055.138 0 .138.107 0 .054-.017.147-.093.508-.093.716 0 .417.158.5.076.041.076.101 0 .054-.074.107-.074.055-.143.055-.133 0-.219-.182-.086-.183-.086-.52zm-.105-.97q-.227 0-.529.428-.301.425-.301.706 0 .198.13.198.19 0 .526-.382.336-.383.336-.703 0-.246-.162-.246zM3.577 308.263q-.16.003-.686.95-.177.318-.207.347-.029.028-.108.05-.078.023-.13.023-.115 0-.115-.45 0-.253.109-.916.044-.269.044-.384 0-.114.102-.114.191 0 .191.276 0 .129-.063.506-.075.43-.076.524.107-.104.313-.453.293-.48.43-.607.14-.129.289-.129.112 0 .177.15.067.15.08.715.004.141.027.21.022.069.033.069.08 0 .35-.551.146-.291.282-.443.137-.152.305-.152.14 0 .203.145.064.143.091.426.026.285.08.523.054.238.2.305.097.047.097.109 0 .06-.082.124-.083.063-.152.063-.138 0-.246-.168-.109-.17-.164-.73-.024-.227-.046-.321-.023-.095-.071-.095-.072 0-.172.138-.098.138-.319.56-.172.329-.262.439-.088.108-.17.108-.074 0-.133-.058-.058-.06-.074-.143-.015-.085-.033-.412-.026-.544-.094-.634zM7.656 307.697l-.762 1.898v.151h.451v.293h-.45v.32h-.337v-.32h-.47v-.293h.47v-.151l-.78-1.898h.336l.603 1.509.603-1.51zM8.832 308.567q.222.036.346.163.124.128.124.312 0 .291-.246.486-.246.193-.648.193-.24 0-.413-.104-.172-.103-.172-.229 0-.103.118-.103.018 0 .054.03.19.163.45.163.229 0 .394-.12.165-.121.165-.314 0-.128-.094-.212-.093-.086-.217-.086-.095 0-.333.074-.046.015-.1.015-.103 0-.103-.14 0-.047.048-.077.05-.029.212-.067.49-.112.49-.398 0-.086-.061-.141-.06-.057-.157-.057-.18 0-.382.159-.12.093-.181.093-.105 0-.105-.099 0-.129.243-.263.244-.136.468-.136.224 0 .352.119.129.119.129.25 0 .311-.381.489zM10.997 307.62q-.062-.268-.153-.375-.091-.106-.241-.165-.15-.059-.27-.059-.047 0-.138.037-.09.034-.138.063-.067.04-.124.04-.066 0-.066-.069 0-.074.112-.205.112-.13.395-.13h.074q.28 0 .496.147.215.147.305.42.091.274.091.736 0 .314-.198.76t-.505.675q-.305.229-.65.229-.123 0-.232-.143-.108-.143-.108-.355 0-.39.17-.689.173-.3.384-.486.214-.186.59-.3.124-.035.168-.056.045-.02.038-.074zm.047.352q-.398.081-.61.257-.479.448-.479 1.004 0 .074.026.14.026.063.059.063.127 0 .232-.044.105-.045.257-.186.151-.143.274-.354.124-.21.179-.404.057-.195.06-.298.003-.105.002-.178zM12.708 308.999q-.241.324-.477.486-.236.162-.433.162-.132 0-.229-.112-.096-.112-.096-.288 0-.453.404-.975.405-.524.805-.524.145 0 .215.166.023.055.07.055.139 0 .139.107 0 .053-.018.146-.093.508-.093.717 0 .416.159.5.076.04.076.1 0 .054-.074.108-.074.055-.143.055-.133 0-.22-.183-.085-.183-.085-.52zm-.105-.97q-.228 0-.53.427-.3.426-.3.707 0 .198.13.198.19 0 .526-.383.336-.382.336-.703 0-.246-.162-.246zM14.584 308.222q-.042-.002-.081.08-.357.712-.54.967l-.04.066q-.214.384-.314.384-.135 0-.135-.13 0-.116.167-.318.162-.191.426-.648.263-.458.427-.821.031-.066.093-.066.026 0 .091.024.068.023.086.05.02.028.085.32.212 1.057.446 1.253.055.048.066.065.01.016.01.045 0 .054-.035.098-.034.044-.067.056-.033.012-.134.012-.036 0-.169-.178-.133-.179-.31-.973-.043-.214-.072-.286zM16.044 309.626v-.861h-.453v-.293h.453v-.775h1.361v.27h-1.044v.505h.717v.293h-.717v.86zM18.967 308.999q-.24.324-.477.486-.236.162-.432.162-.133 0-.23-.112-.096-.112-.096-.288 0-.453.405-.975.405-.524.805-.524.144 0 .215.166.022.055.07.055.138 0 .138.107 0 .053-.017.146-.093.508-.093.717 0 .416.159.5.075.04.075.1 0 .054-.074.108-.074.055-.143.055-.132 0-.218-.183-.087-.183-.087-.52zm-.105-.97q-.227 0-.528.427-.302.426-.302.707 0 .198.131.198.19 0 .525-.383.336-.382.336-.703 0-.246-.162-.246zM21.145 308.501q.019-.036.06-.432.031-.317.202-.317.14 0 .14.14 0 .032-.025.132-.133.55-.133.922 0 .403.133.521.069.064.069.104 0 .048-.07.088-.07.04-.126.04-.27 0-.27-.831 0-.055-.04-.055-.162 0-.397.019-.234.019-.336.048-.1.03-.124.055-.022.024-.04.133-.018.107-.018.222v.212q0 .184-.169.184-.141 0-.141-.184 0-.12.03-.307.058-.34.114-1.175.007-.108.02-.137.011-.03.061-.064.052-.036.112-.036.124 0 .124.101 0 .016-.04.259t-.04.377q0 .095.065.095.13 0 .479-.043.348-.045.36-.071zM2.367 314.847h.316v.906l.894-.906h.389l-.737.746.646.92h.244v.75h-.317v-.487h-.096l-.684-.973-.34.345v.628h-.315zM4.806 314.825q.023-.016.05-.016.043 0 .073.116 0 .074-.04.187-.117.326-.117.455 0 .035.02.038.397-.38.734-.38.209 0 .35.158.141.157.141.288 0 .4-.408.768-.406.367-.82.367-.184 0-.287-.152-.102-.153-.102-.437 0-.309.077-.683.078-.373.124-.5.02-.053.035-.108.017-.069.17-.101zm-.08 1.08q-.035.191-.035.382 0 .26.205.26.23 0 .517-.275.286-.276.286-.536 0-.107-.057-.18-.057-.072-.157-.072-.136 0-.269.07-.13.067-.292.218-.062.059-.1.091-.037.031-.099.042zm1.734.396q0 .13.036.295.007.03.007.051 0 .031-.057.081-.057.048-.12.048-.167 0-.167-.306 0-.305.132-1.023.048-.262.048-.317 0-.109.04-.185.04-.077.112-.077.088 0 .138.043.052.041.052.093t-.025.143q-.134.49-.165.687-.03.197-.03.467zM7.867 315.717q.223.036.347.164.124.127.124.311 0 .292-.247.486-.246.193-.647.193-.24 0-.414-.103-.172-.104-.172-.23 0-.103.119-.103.017 0 .053.03.19.163.45.163.229 0 .394-.12.166-.12.166-.314 0-.127-.095-.212-.093-.086-.217-.086-.095 0-.333.074-.046.016-.1.016-.103 0-.103-.14 0-.048.048-.077.05-.03.212-.067.491-.112.491-.398 0-.086-.062-.142-.06-.056-.157-.056-.179 0-.382.158-.119.093-.18.093-.106 0-.106-.098 0-.13.243-.264.245-.136.468-.136.224 0 .352.12.13.118.13.249 0 .312-.382.49zM9.121 314.825q.023-.016.05-.016.043 0 .073.116 0 .074-.04.187-.117.326-.117.455 0 .035.02.038.397-.38.734-.38.209 0 .35.158.141.157.141.288 0 .4-.408.768-.406.367-.82.367-.184 0-.287-.152-.102-.153-.102-.437 0-.309.077-.683.078-.373.124-.5.02-.053.035-.108.017-.069.17-.101zm-.08 1.08q-.035.191-.035.382 0 .26.205.26.23 0 .517-.275.286-.276.286-.536 0-.107-.057-.18-.057-.072-.157-.072-.136 0-.269.07-.13.067-.292.218-.062.059-.1.091-.037.031-.099.042zm1.734.396q0 .13.036.295.007.03.007.051 0 .031-.057.081-.057.048-.12.048-.167 0-.167-.306 0-.305.132-1.023.048-.262.048-.317 0-.109.04-.185.04-.077.112-.077.088 0 .138.043.052.041.052.093t-.025.143q-.134.49-.165.687-.03.197-.03.467zM13.538 315.267q-.14.224-.393.758-.057.12-.115.233-.02.036-.072.16-.181.42-.316.42-.106 0-.156-.025-.049-.026-.093-.142-.045-.115-.133-.542-.102-.484-.138-.596-.117.263-.208.508-.138.36-.267.587-.13.226-.186.27-.057.047-.109.047-.053 0-.096-.041-.043-.041-.043-.081.01-.07.024-.088.15-.184.258-.393.109-.208.276-.625.169-.417.215-.684.022-.114.167-.114.085 0 .116.026.03.026.06.105.03.08.036.142.01.074.059.329.043.239.056.339.025.143.085.375.062.233.096.233.024 0 .07-.105l.144-.334q.04-.092.084-.18l.198-.404q.162-.334.248-.484.088-.152.118-.183.03-.03.068-.03.066 0 .147.035.08.035.084.078.004.043.016.36l.022.537q.01.257.031.438.02.179.072.29.081.175.081.271 0 .083-.068.114t-.126.031q-.12 0-.186-.193-.064-.193-.093-1.106-.01-.274-.033-.336zM15.9 316.192q0 .176-.312.424-.31.248-.64.248-.278 0-.43-.163-.15-.164-.15-.457 0-.493.333-.937.332-.444.727-.444.129 0 .21.084.082.084.082.203 0 .266-.26.508-.26.243-.696.478-.09.046-.09.12 0 .143.084.23.082.085.244.085.37 0 .756-.41.057-.056.087-.056.055 0 .055.088zm-1.198-.268q.73-.434.73-.698 0-.103-.092-.103-.159 0-.358.232-.199.233-.28.569zM17.56 315.414q-.16.003-.685.949-.178.319-.207.348-.03.028-.109.05-.077.022-.129.022-.115 0-.115-.45 0-.252.108-.916.045-.268.045-.384 0-.113.102-.113.19 0 .19.275 0 .13-.063.507-.074.43-.076.523.107-.103.314-.453.293-.479.43-.606.14-.13.288-.13.112 0 .178.15.067.15.08.715.004.142.026.21.023.07.033.07.081 0 .352-.552.144-.29.28-.442.138-.152.305-.152.14 0 .203.145.064.143.092.425.026.286.079.524.055.237.2.305.098.046.098.108 0 .06-.083.124-.082.064-.151.064-.138 0-.247-.169-.108-.169-.163-.73-.024-.226-.047-.32-.022-.095-.07-.095-.073 0-.173.137-.098.138-.318.56-.173.33-.262.44-.088.108-.17.108-.075 0-.133-.059-.059-.06-.074-.143-.016-.084-.033-.411-.026-.545-.095-.634z"/></g></g></svg>