<svg xmlns="http://www.w3.org/2000/svg" viewBox="0 0 50.9 5.4" height="20.409" width="192.378"><g transform="translate(0 -291.6)" font-weight="400" font-family="Segoe Print" letter-spacing="0" word-spacing="0"><flowRoot transform="matrix(.26458 0 0 .26458 0 226.6)" style="line-height:1.25;-inkscape-font-specification:'Segoe Print';font-variant-ligatures:normal;font-variant-caps:normal;font-variant-numeric:normal;font-feature-settings:normal;text-align:start" xml:space="preserve" font-style="normal" font-variant="normal" font-stretch="normal" font-size="13.333" writing-mode="lr-tb" text-anchor="start" fill="#000" fill-opacity="1" stroke="none"><flowRegion><path d="M7.239 212.992h60.325V251.6H7.239z"/></flowRegion><flowPara/></flowRoot><text y="254.382" x="54.898" style="line-height:2;-inkscape-font-specification:'Segoe Print';font-variant-ligatures:normal;font-variant-caps:normal;font-variant-numeric:normal;font-feature-settings:normal;text-align:start" font-size="3.528" fill="#917c6f" stroke-width=".265"><tspan y="254.382" x="54.898">адамдар</tspan><tspan y="261.532" x="54.898">бөлме ғимарат жобалар</tspan><tspan y="268.682" x="54.898">ғарыш тылсым әлем</tspan><tspan y="275.833" x="54.898">гүлдер</tspan><tspan y="282.983" x="54.898">өсімдіктер</tspan><tspan y="290.134" x="54.898">қалыпталған кескіндер</tspan><tspan y="297.284" x="54.898">қолданыс заттары</tspan><tspan y="304.34" x="54.898">жаныуарлар</tspan><tspan y="311.49" x="54.898">өнер білім спорт</tspan><tspan y="318.546" x="54.898">art education sports</tspan><tspan y="325.707" x="54.898">美術教育スポーツ</tspan><tspan y="332.857" x="54.898">الرياضة التربية الفنية</tspan><tspan y="340.008" x="54.898">сән үлгілері</tspan><tspan y="347.158" x="54.898">тәбиғат</tspan><tspan y="354.214" x="54.898">елмекен</tspan></text><text y="254.36" x="103.499" style="line-height:2;-inkscape-font-specification:'Segoe Print';font-variant-ligatures:normal;font-variant-caps:normal;font-variant-numeric:normal;font-feature-settings:normal;text-align:start" font-size="3.528" fill="#917c6f" stroke-width=".265"><tspan y="254.36" x="103.499">үи</tspan><tspan y="261.51" x="103.499">пәтер</tspan><tspan y="268.661" x="103.499">бөлме алаң</tspan><tspan y="275.811" x="103.499">ғимарат</tspan><tspan y="282.867" x="103.499">жер телімі</tspan><tspan y="290.017" x="103.499">қызымет</tspan></text><g style="line-height:2;-inkscape-font-specification:'Segoe Print';font-variant-ligatures:normal;font-variant-caps:normal;font-variant-numeric:normal;font-feature-settings:normal;text-align:start" aria-label="үи пәтер бөлме алаң ғимарат жер телімі қызымет" font-size="3.528" fill="#917c6f" stroke-width=".265"><path d="M3.192 266.855v.765h-.336v-.765l-.78-1.899h.336l.603 1.51.603-1.51h.336zM5.504 266.136q-.22.37-.451.574-.231.203-.43.203-.113 0-.232-.132-.117-.133-.117-.409 0-.225.108-.665.092-.366.092-.515.05-.103.157-.103.072 0 .115.052.043.05.043.105 0 .12-.084.343-.16.432-.16.742 0 .283.13.283.167 0 .426-.285.258-.284.442-.792.073-.203.118-.264.046-.062.124-.062.117 0 .117.155 0 .02-.033.126-.103.377-.103.713 0 .403.132.522.07.064.07.104 0 .048-.071.088-.07.04-.126.04-.12 0-.195-.18-.074-.18-.074-.529v-.057l.002-.056zM3.373 272.712q-.09 0-.196.117-.105.117-.322.525-.286.548-.37.624-.083.075-.139.075-.203 0-.203-.196 0-.083.028-.234.094-.52.094-1.097 0-.066.056-.145.056-.081.106-.081.09 0 .128.055.038.055.038.222 0 .174-.104.717-.034.179-.034.227 0 .028.014.028.026 0 .24-.412.214-.419.376-.59.162-.17.357-.17.155 0 .251.142.099.14.143.515.049.425.087.53.04.104.124.104.053 0 .134-.038.014-.007.02-.007.075 0 .075.086 0 .076-.102.162-.102.084-.245.084-.146 0-.227-.115-.08-.117-.126-.622-.048-.507-.203-.507zM4.505 273.154V273h1.457q-.02-.327-.198-.498-.176-.172-.491-.172-.183 0-.355.045-.17.045-.34.134v-.3q.171-.072.35-.11.18-.038.364-.038.462 0 .73.27.27.268.27.726 0 .474-.256.753-.255.277-.689.277-.39 0-.617-.25-.225-.251-.225-.682zm.317.093q.003.26.144.415.143.155.378.155.265 0 .423-.15.16-.15.185-.421zM8.01 272.674q-.16.003-.685.949-.178.318-.207.348-.03.027-.109.05-.077.022-.129.022-.115 0-.115-.45 0-.253.108-.916.045-.269.045-.384 0-.114.102-.114.19 0 .19.276 0 .13-.063.506-.074.431-.076.524.107-.103.314-.453.293-.479.43-.606.14-.13.288-.13.112 0 .178.15.067.15.08.715.004.141.026.21.023.07.033.07.081 0 .352-.552.144-.291.28-.443.138-.151.305-.151.14 0 .203.144.064.143.092.426.026.286.079.524.055.237.2.304.098.047.098.109 0 .06-.083.124-.082.064-.151.064-.138 0-.247-.17-.108-.168-.163-.73-.024-.225-.047-.32-.022-.095-.07-.095-.073 0-.173.138-.098.138-.318.56-.173.33-.262.44-.088.108-.17.108-.075 0-.133-.059-.059-.06-.074-.143-.016-.084-.033-.411-.026-.545-.095-.634zM11.81 273.452q0 .176-.312.424-.31.248-.64.248-.278 0-.43-.164-.15-.163-.15-.456 0-.493.333-.937.333-.445.727-.445.13 0 .21.085.083.084.083.203 0 .265-.26.508t-.696.477q-.09.047-.09.121 0 .143.083.23.083.085.245.085.37 0 .756-.41.057-.057.086-.057.055 0 .055.088zm-1.197-.268q.73-.435.73-.698 0-.103-.093-.103-.158 0-.358.232-.198.233-.28.569zM12.503 273.836q-.085.31-.159.87l-.048.326q-.012.069-.064.136-.052.069-.095.069-.053 0-.122-.055-.067-.054-.067-.086 0-.095.043-.262.315-1.273.315-2.236l-.001-.145q-.004-.186.065-.27.069-.085.158-.085.042 0 .08.066.038.064.038.182 0 .168-.035.405-.045.3-.046.345.256-.448.544-.7.288-.251.534-.251.174 0 .293.13.12.13.12.323 0 .561-.43 1.02-.43.458-.84.458-.1 0-.161-.052-.059-.052-.122-.188zm1.07-1.386q-.244 0-.602.454-.358.455-.358.708 0 .062.07.121.071.059.18.059.246 0 .566-.364.32-.365.32-.716 0-.126-.051-.193-.05-.07-.126-.07zM3.213 279.397q-.066-.177-.303-.384-.224-.193-.224-.33 0-.111.072-.178.072-.07.269-.124.244-.068.498-.152.253-.086.305-.11.032-.016.067-.016.057 0 .057.102 0 .057-.138.155t-.488.183q-.22.055-.27.082-.048.026-.048.054 0 .062.134.179.506.442.506 1.11 0 .288-.151.618-.152.327-.405.487-.251.16-.493.16-.217 0-.329-.212-.112-.212-.112-.467 0-.45.278-.85.279-.4.589-.4.041 0 .103.053.057.052.083.04zm-.751 1.164q0 .192.05.3.051.109.134.109.11 0 .298-.136.188-.137.302-.404.115-.267.115-.5 0-.192-.055-.31-.053-.121-.1-.121-.307 0-.525.373-.22.374-.22.69zM4.867 279.48q-.254 0-.383.167-.127.165-.158.384h1.081q-.03-.219-.16-.384-.127-.167-.38-.167zm.001 1.488q.257 0 .402-.2.144-.2.144-.455H4.322q0 .255.145.455t.401.2zm.002-1.757q.413 0 .65.269.235.268.235.744 0 .473-.236.744-.236.269-.649.269-.415 0-.651-.27-.234-.27-.234-.743 0-.476.234-.744.236-.27.651-.27zM7.144 279.783q-.042-.002-.081.079-.357.713-.54.968-.015.022-.039.066-.215.384-.315.384-.135 0-.135-.13 0-.117.168-.318.161-.191.425-.648.264-.458.427-.822.031-.065.093-.065.026 0 .091.024.068.022.087.05.019.028.084.32.212 1.056.446 1.253.055.048.066.065.01.016.01.045 0 .053-.035.098-.034.043-.067.055-.032.012-.134.012-.036 0-.169-.177-.132-.18-.31-.973-.043-.214-.072-.286zM10.482 279.678q-.14.224-.393.758-.057.12-.115.232-.02.036-.072.16-.181.42-.316.42-.106 0-.156-.025-.049-.026-.093-.141-.045-.116-.133-.543-.102-.484-.138-.596-.117.264-.208.508-.138.36-.267.588-.13.225-.186.27-.057.046-.109.046-.053 0-.096-.04-.043-.042-.043-.082.01-.07.024-.088.15-.184.258-.392.109-.209.276-.626.169-.416.215-.683.022-.114.167-.114.085 0 .116.026.03.025.06.105.03.079.036.141.01.074.059.329.043.24.056.34.025.142.085.375.062.232.096.232.024 0 .07-.105l.144-.334q.04-.091.084-.179l.198-.405q.162-.334.248-.484.088-.151.118-.182t.068-.031q.066 0 .147.036.08.034.084.077.004.043.016.36l.022.538q.01.256.031.437.02.18.073.29.08.175.08.272 0 .082-.068.113t-.126.031q-.12 0-.186-.192-.064-.193-.093-1.106-.01-.274-.033-.336zM12.844 280.603q0 .175-.312.423-.31.249-.64.249-.278 0-.43-.164-.15-.164-.15-.457 0-.492.333-.937.332-.444.727-.444.129 0 .21.084.082.085.082.204 0 .265-.26.508t-.696.477q-.09.046-.09.12 0 .143.084.23.082.086.244.086.37 0 .756-.41.057-.057.087-.057.055 0 .055.088zm-1.198-.269q.73-.434.73-.698 0-.103-.092-.103-.159 0-.358.233-.199.232-.28.568zM15.775 280.56q-.24.323-.477.485-.236.162-.432.162-.133 0-.23-.112-.096-.112-.096-.287 0-.453.405-.975.405-.524.805-.524.144 0 .215.165.022.056.07.056.138 0 .138.106 0 .054-.017.147-.093.508-.093.716 0 .417.159.5.075.041.075.102 0 .053-.074.106-.074.055-.143.055-.132 0-.218-.182-.087-.183-.087-.52zm-.105-.97q-.227 0-.528.427-.302.426-.302.706 0 .198.131.198.19 0 .525-.382.336-.382.336-.703 0-.246-.162-.246zM17.651 279.783q-.041-.002-.08.079-.357.713-.54.968-.015.022-.04.066-.215.384-.315.384-.134 0-.134-.13 0-.117.167-.318.162-.191.426-.648.263-.458.427-.822.03-.065.093-.065.026 0 .091.024.067.022.086.05.02.028.085.32.211 1.056.446 1.253.055.048.065.065.01.016.01.045 0 .053-.034.098-.034.043-.067.055-.033.012-.134.012-.037 0-.17-.177-.132-.18-.31-.973-.042-.214-.072-.286zM19.953 280.56q-.242.323-.478.485-.236.162-.432.162-.133 0-.229-.112t-.096-.287q0-.453.404-.975.405-.524.805-.524.144 0 .215.165.022.056.07.056.139 0 .139.106 0 .054-.018.147-.093.508-.093.716 0 .417.159.5.076.041.076.102 0 .053-.075.106-.074.055-.143.055-.132 0-.218-.182-.086-.183-.086-.52zm-.105-.97q-.228 0-.53.427-.3.426-.3.706 0 .198.13.198.19 0 .526-.382.335-.382.335-.703 0-.246-.161-.246zM20.965 279.257h.317v.794h1.032v-.794h.317v1.666h.317v.751h-.317v-.487h-.317v-.89h-1.032v.89h-.317zM2.52 288.337v-.861h-.453v-.293h.453v-.775h1.361v.27H2.837v.505h.717v.293h-.717v.861zM5.499 287.588q-.22.37-.452.573-.23.204-.429.204-.113 0-.232-.133-.117-.133-.117-.408 0-.226.108-.665.092-.367.092-.515.05-.103.156-.103.073 0 .116.051.043.05.043.105 0 .12-.085.343-.16.432-.16.742 0 .283.131.283.167 0 .426-.284.258-.284.442-.793.073-.203.117-.263.047-.062.124-.062.118 0 .118.155 0 .019-.033.126-.103.377-.103.713 0 .403.132.522.07.063.07.103 0 .048-.072.088-.068.04-.125.04-.12 0-.195-.18-.074-.179-.074-.528v-.057l.002-.057zM8.632 286.828q-.14.224-.393.758-.057.12-.115.233-.02.036-.072.16-.181.42-.316.42-.107 0-.156-.026-.049-.025-.093-.14-.045-.116-.133-.544-.102-.484-.138-.596-.117.264-.208.509-.138.36-.267.587-.13.226-.186.27-.057.047-.109.047-.053 0-.096-.041-.043-.042-.043-.081.01-.07.024-.088.15-.185.258-.393.109-.208.276-.625.168-.417.215-.684.022-.114.167-.114.084 0 .115.026.032.026.06.105.032.08.037.141.01.074.059.33.043.239.056.339.024.143.085.375.062.233.096.233.024 0 .07-.105l.144-.335q.04-.09.084-.179l.198-.404q.162-.335.248-.484.088-.152.118-.183t.068-.031q.066 0 .147.036.08.035.084.078.004.043.016.36l.022.537q.01.257.031.438.02.179.072.289.081.176.081.272 0 .083-.068.114-.068.03-.126.03-.12 0-.186-.192-.064-.193-.093-1.106-.01-.274-.033-.336zM10.68 287.71q-.241.324-.477.486-.236.162-.432.162-.133 0-.23-.112-.096-.112-.096-.288 0-.453.405-.975.405-.523.804-.523.145 0 .216.165.022.055.07.055.138 0 .138.107 0 .053-.017.146-.093.508-.093.717 0 .417.158.5.076.04.076.101 0 .053-.074.107-.074.055-.143.055-.133 0-.219-.183-.086-.182-.086-.52zm-.105-.97q-.227 0-.529.428-.301.425-.301.706 0 .198.13.198.19 0 .526-.383.336-.382.336-.702 0-.247-.162-.247zM11.922 288.137q-.084.31-.158.87l-.049.326q-.012.069-.063.136-.052.069-.095.069-.053 0-.122-.055-.068-.054-.068-.086 0-.095.043-.262.316-1.273.316-2.236l-.002-.145q-.003-.186.065-.27.07-.085.159-.085.041 0 .08.066.037.063.037.182 0 .167-.034.405-.045.3-.047.345.257-.448.544-.7.288-.251.534-.251.174 0 .293.13.12.13.12.323 0 .561-.43 1.02-.43.458-.839.458-.101 0-.162-.052-.058-.052-.122-.188zm1.07-1.386q-.243 0-.601.454-.359.455-.359.708 0 .062.07.121.072.059.18.059.246 0 .567-.364.32-.365.32-.716 0-.126-.051-.193-.05-.07-.126-.07zM15.031 287.71q-.24.324-.477.486-.236.162-.432.162-.133 0-.23-.112-.096-.112-.096-.288 0-.453.405-.975.405-.523.804-.523.145 0 .216.165.022.055.07.055.138 0 .138.107 0 .053-.017.146-.093.508-.093.717 0 .417.158.5.076.04.076.101 0 .053-.074.107-.074.055-.143.055-.132 0-.219-.183-.086-.182-.086-.52zm-.105-.97q-.227 0-.529.428-.301.425-.301.706 0 .198.13.198.19 0 .526-.383.336-.382.336-.702 0-.247-.162-.247zM17.241 286.975q-.16.003-.685.949-.178.318-.207.348-.03.027-.108.05-.078.022-.13.022-.115 0-.115-.45 0-.253.108-.916.045-.269.045-.384 0-.114.102-.114.191 0 .191.276 0 .13-.064.506-.074.431-.075.524.106-.103.313-.453.293-.479.43-.606.14-.13.288-.13.112 0 .178.15.067.15.08.715.004.141.027.21.022.07.032.07.081 0 .352-.552.144-.291.28-.443.138-.151.305-.151.14 0 .204.144.063.143.09.426.027.286.08.524.055.237.2.304.098.047.098.109 0 .06-.083.124-.082.064-.151.064-.138 0-.246-.17-.109-.168-.164-.73-.024-.225-.047-.32-.022-.095-.07-.095-.073 0-.172.138-.099.138-.32.56-.171.329-.261.44-.088.108-.17.108-.075 0-.133-.059-.059-.06-.074-.143-.016-.084-.033-.411-.026-.545-.095-.634zM3.65 294.609q-.022.388-.074.76-.025.07-.13.07-.152 0-.152-.155 0-.064.036-.238.026-.151.028-.205.001-.055.008-.118.007-.066-.002-.104-.087.012-.358.21-.27.198-.463.393v-.002q-.012.007-.076.13-.091.182-.202.182-.051 0-.115-.045-.062-.045-.062-.09 0-.106.2-.316.201-.212.444-.362.297-.183.409-.295-.05-.07-.195-.155-.147-.086-.272-.193l-.042-.03q-.222-.15-.296-.225-.072-.075-.072-.162 0-.056.043-.103.043-.048.084-.048.026 0 .093.028.067.027.097.058l.084.08q.446.437.706.556.014 0 .035-.033.017-.059.017-.188 0-.12-.026-.27-.014-.078-.014-.102 0-.08.062-.13.064-.05.138-.05.085 0 .116.034.03.034.03.117l-.022.548v.034q0 .024.002.04.06 0 .126-.047.065-.048.194-.19.567-.587.657-.587.05 0 .091.042.041.04.041.096 0 .028-.19.234-.187.205-.387.378-.256.22-.256.229 0 .012.213.179.231.18.319.256.012.01.034.023.255.157.319.234.064.078.064.131 0 .05-.043.103-.043.052-.085.052-.153 0-.711-.515-.248-.23-.3-.243-.022-.003-.034-.009-.018-.005-.062-.002-.045.002-.049.014zM6.735 294.809q0 .175-.311.423-.31.249-.641.249-.277 0-.429-.164-.15-.164-.15-.457 0-.492.333-.937.332-.444.727-.444.129 0 .21.084.082.085.082.204 0 .265-.26.508t-.696.477q-.09.046-.09.12 0 .143.083.23.083.086.245.086.37 0 .756-.41.057-.057.086-.057.055 0 .055.088zm-1.197-.269q.73-.434.73-.698 0-.103-.092-.103-.159 0-.359.233-.198.232-.279.568zM7.428 295.193q-.084.31-.159.87l-.048.325q-.012.07-.063.136-.052.07-.095.07-.054 0-.123-.056-.067-.053-.067-.086 0-.095.043-.262.316-1.273.316-2.236l-.002-.144q-.004-.186.065-.27.07-.085.159-.085.041 0 .079.065.038.064.038.183 0 .167-.035.405-.044.3-.046.344.257-.448.544-.7.288-.25.534-.25.174 0 .293.13.12.13.12.322 0 .562-.43 1.02-.43.458-.839.458-.101 0-.162-.051-.058-.052-.122-.188zm1.07-1.387q-.243 0-.602.455-.358.455-.358.708 0 .062.07.12.071.06.18.06.246 0 .567-.364.32-.366.32-.717 0-.126-.052-.193-.05-.069-.125-.069zM12.087 294.03q-.16.003-.685.95-.178.318-.207.347-.03.028-.108.05-.078.023-.13.023-.115 0-.115-.45 0-.253.109-.916.044-.27.044-.384 0-.114.102-.114.191 0 .191.275 0 .13-.064.507-.074.43-.075.524.106-.104.313-.454.293-.478.43-.606.14-.129.288-.129.112 0 .178.15.067.15.08.715.004.14.027.21.022.069.032.069.081 0 .352-.551.145-.292.28-.443.138-.152.305-.152.14 0 .204.145.063.143.091.425.026.286.08.524.054.238.2.305.097.046.097.108 0 .06-.082.124-.083.064-.152.064-.138 0-.246-.169-.109-.168-.164-.73-.024-.226-.046-.32-.023-.095-.071-.095-.072 0-.172.138-.099.138-.319.56-.172.329-.262.439-.088.108-.17.108-.074 0-.133-.058-.059-.06-.074-.143-.016-.085-.033-.412-.026-.544-.095-.634zM15.887 294.809q0 .175-.311.423-.31.249-.641.249-.278 0-.43-.164-.149-.164-.149-.457 0-.492.332-.937.333-.444.727-.444.13 0 .21.084.083.085.083.204 0 .265-.26.508t-.696.477q-.09.046-.09.12 0 .143.083.23.083.086.245.086.37 0 .756-.41.057-.057.086-.057.055 0 .055.088zm-1.197-.269q.73-.434.73-.698 0-.103-.092-.103-.159 0-.359.233-.198.232-.279.568zM17.214 293.989q-.042-.002-.081.079-.357.713-.54.968-.015.022-.039.066-.215.384-.315.384-.135 0-.135-.13 0-.117.168-.318.161-.191.425-.648.264-.458.427-.821.031-.066.093-.066.026 0 .091.024.068.023.087.05.019.028.084.32.212 1.056.446 1.253.055.048.066.065.01.016.01.045 0 .053-.034.098-.035.043-.068.055-.032.012-.134.012-.036 0-.169-.177-.132-.18-.31-.973-.043-.214-.072-.286zM18.909 293.086q-.036 0-.055-.077-.007-.024-.02-.054-.046-.112-.046-.194 0-.07.081-.14.083-.072.183-.072.05 0 .112.04.062.037.062.074 0 .056-.043.192-.042.137-.135.185-.091.046-.14.046zm-.226 1.924q0 .131.036.295.007.03.007.052 0 .03-.057.079-.057.05-.12.05-.167 0-.167-.307 0-.317.13-1.002.045-.24.045-.295 0-.108.04-.184.04-.078.112-.078.088 0 .138.043.051.042.051.093 0 .052-.024.136-.129.455-.16.652-.03.196-.03.466zM21.572 293.884q-.14.224-.393.758-.057.12-.115.232-.02.036-.073.16-.18.42-.315.42-.107 0-.157-.025-.048-.026-.093-.141-.044-.116-.132-.543-.102-.484-.138-.596-.117.264-.209.508-.137.36-.267.588-.129.225-.186.27-.056.047-.108.047-.054 0-.097-.042-.043-.041-.043-.08.01-.071.024-.089.15-.184.259-.392.108-.209.275-.626.17-.417.216-.684.022-.113.167-.113.084 0 .115.026.031.025.06.105.032.079.037.14.01.075.058.33.043.24.057.34.024.142.085.375.062.232.096.232.024 0 .069-.105l.145-.334q.04-.091.084-.18l.198-.404q.162-.334.248-.484.088-.152.117-.183.031-.03.07-.03.065 0 .146.036.08.034.084.077.003.043.016.36l.022.538q.01.256.03.437.022.18.073.29.081.175.081.272 0 .082-.069.113-.067.031-.125.031-.121 0-.186-.193-.064-.192-.093-1.105-.01-.274-.033-.336zM23.014 293.086q-.037 0-.056-.077-.006-.024-.019-.054-.046-.112-.046-.194 0-.07.08-.14.084-.072.184-.072.05 0 .112.04.062.037.062.074 0 .056-.044.192-.04.137-.134.185-.091.046-.14.046zm-.226 1.924q0 .131.036.295.007.03.007.052 0 .03-.057.079-.057.05-.12.05-.168 0-.168-.307 0-.317.131-1.002.045-.24.045-.295 0-.108.04-.184.04-.078.112-.078.088 0 .138.043.051.042.051.093 0 .052-.024.136-.13.455-.16.652-.031.196-.031.466zM2.291 300.614h.316v.906l.894-.906h.389l-.737.746.646.92h.244v.75h-.317v-.487H3.63l-.684-.973-.34.344v.63h-.315zM4.73 300.592q.023-.016.05-.016.043 0 .073.115 0 .075-.04.188-.117.326-.117.455 0 .034.02.038.397-.38.734-.38.209 0 .35.158.141.156.141.287 0 .4-.408.769-.406.366-.82.366-.184 0-.287-.151-.102-.153-.102-.438 0-.308.077-.682.078-.374.124-.5.02-.053.035-.108.017-.069.17-.101zm-.08 1.08q-.035.19-.035.382 0 .26.205.26.23 0 .517-.276.286-.275.286-.535 0-.107-.057-.18-.057-.072-.157-.072-.136 0-.269.07-.13.066-.292.218-.062.059-.1.091-.037.031-.099.042zm1.734.396q0 .13.036.294.007.031.007.052 0 .031-.057.081-.057.048-.12.048-.167 0-.167-.306 0-.305.132-1.024.049-.261.049-.317 0-.108.04-.184.039-.077.111-.077.088 0 .138.043.052.041.052.093 0 .051-.025.143-.134.49-.165.687-.03.196-.03.467zM7.791 301.484q.223.036.347.163.124.128.124.312 0 .291-.247.486-.246.193-.647.193-.24 0-.414-.103-.172-.104-.172-.23 0-.103.119-.103.017 0 .053.03.19.163.45.163.229 0 .394-.12.166-.121.166-.314 0-.128-.095-.212-.093-.086-.217-.086-.095 0-.333.074-.046.016-.1.016-.103 0-.103-.14 0-.048.048-.077.05-.03.212-.068.491-.112.491-.398 0-.086-.062-.14-.06-.058-.157-.058-.179 0-.382.159-.119.093-.18.093-.106 0-.106-.098 0-.13.243-.264.245-.136.469-.136.223 0 .35.119.13.119.13.25 0 .311-.38.489zM9.045 300.592q.023-.016.05-.016.043 0 .073.115 0 .075-.04.188-.117.326-.117.455 0 .034.02.038.397-.38.734-.38.209 0 .35.158.141.156.141.287 0 .4-.408.769-.406.366-.82.366-.184 0-.287-.151-.102-.153-.102-.438 0-.308.077-.682.078-.374.124-.5.02-.053.035-.108.017-.069.17-.101zm-.08 1.08q-.035.19-.035.382 0 .26.205.26.23 0 .517-.276.286-.275.286-.535 0-.107-.057-.18-.057-.072-.157-.072-.136 0-.269.07-.13.066-.292.218-.062.059-.1.091-.037.031-.099.042zm1.734.396q0 .13.036.294.007.031.007.052 0 .031-.057.081-.057.048-.12.048-.167 0-.167-.306 0-.305.132-1.024.049-.261.049-.317 0-.108.04-.184.039-.077.111-.077.088 0 .138.043.052.041.052.093 0 .051-.025.143-.134.49-.165.687-.03.196-.03.467zM13.462 301.034q-.14.224-.393.758-.057.12-.115.233-.02.036-.072.16-.181.42-.316.42-.106 0-.156-.026-.049-.025-.093-.14-.045-.116-.133-.543-.102-.485-.138-.596-.117.263-.208.508-.138.36-.267.587-.13.226-.186.27-.057.047-.109.047-.053 0-.096-.041-.043-.042-.043-.081.01-.07.024-.088.15-.185.258-.393.109-.208.276-.625.169-.417.215-.684.022-.114.167-.114.085 0 .116.026.03.026.06.105.03.08.036.141.01.074.059.33.043.239.056.339.025.143.085.375.062.233.096.233.024 0 .07-.105l.144-.334q.04-.092.084-.18l.198-.404q.162-.335.248-.484.088-.152.118-.183t.068-.031q.066 0 .147.036.08.035.084.078.004.043.016.36l.022.537q.01.257.031.438.02.179.073.289.08.176.08.272 0 .083-.068.114-.068.03-.126.03-.12 0-.186-.192-.064-.193-.093-1.106-.01-.274-.033-.336zM15.824 301.96q0 .175-.312.423-.31.248-.64.248-.278 0-.43-.164-.15-.163-.15-.456 0-.493.333-.937.332-.445.727-.445.129 0 .21.085.083.084.083.203 0 .265-.26.508t-.697.477q-.09.047-.09.12 0 .144.084.23.082.086.244.086.37 0 .756-.41.057-.057.087-.057.055 0 .055.088zm-1.198-.27q.73-.434.73-.697 0-.103-.092-.103-.159 0-.358.232-.199.233-.28.569zM17.484 301.18q-.16.004-.685.95-.178.318-.207.348-.03.027-.109.05-.077.022-.129.022-.115 0-.115-.45 0-.253.108-.916.045-.269.045-.384 0-.114.102-.114.19 0 .19.276 0 .13-.063.506-.074.431-.076.524.107-.103.314-.453.293-.479.43-.606.14-.13.288-.13.112 0 .178.15.067.15.08.715.004.141.026.21.023.07.033.07.081 0 .352-.552.144-.291.28-.443.138-.151.305-.151.14 0 .203.144.064.143.092.426.026.286.079.524.055.237.2.304.098.047.098.109 0 .06-.083.124-.082.064-.151.064-.138 0-.247-.17-.108-.168-.163-.73-.024-.225-.047-.32-.022-.095-.07-.095-.073 0-.173.138-.098.138-.318.56-.173.33-.262.44-.088.108-.17.108-.075 0-.133-.059-.059-.06-.074-.143-.016-.084-.033-.411-.026-.545-.095-.634z"/></g></g></svg>