<svg xmlns="http://www.w3.org/2000/svg" viewBox="0 0 50.9 5.4" height="20.409" width="192.378"><g transform="translate(0 -291.6)" font-weight="400" font-family="Segoe Print" letter-spacing="0" word-spacing="0"><flowRoot transform="matrix(.26458 0 0 .26458 0 226.6)" style="line-height:1.25;-inkscape-font-specification:'Segoe Print';font-variant-ligatures:normal;font-variant-caps:normal;font-variant-numeric:normal;font-feature-settings:normal;text-align:start" xml:space="preserve" font-style="normal" font-variant="normal" font-stretch="normal" font-size="13.333" writing-mode="lr-tb" text-anchor="start" fill="#000" fill-opacity="1" stroke="none"><flowRegion><path d="M7.239 212.992h60.325V251.6H7.239z"/></flowRegion><flowPara/></flowRoot><text y="254.382" x="54.898" style="line-height:2;-inkscape-font-specification:'Segoe Print';font-variant-ligatures:normal;font-variant-caps:normal;font-variant-numeric:normal;font-feature-settings:normal;text-align:start" font-size="3.528" fill="#917c6f" stroke-width=".265"><tspan y="254.382" x="54.898">адамдар</tspan><tspan y="261.532" x="54.898">бөлме ғимарат жобалар</tspan><tspan y="268.682" x="54.898">ғарыш тылсым әлем</tspan><tspan y="275.833" x="54.898">гүлдер</tspan><tspan y="282.983" x="54.898">өсімдіктер</tspan><tspan y="290.134" x="54.898">қалыпталған кескіндер</tspan><tspan y="297.284" x="54.898">қолданыс заттары</tspan><tspan y="304.34" x="54.898">жаныуарлар</tspan><tspan y="311.49" x="54.898">өнер білім спорт</tspan><tspan y="318.546" x="54.898">art education sports</tspan><tspan y="325.707" x="54.898">美術教育スポーツ</tspan><tspan y="332.857" x="54.898">الرياضة التربية الفنية</tspan><tspan y="340.008" x="54.898">сән үлгілері</tspan><tspan y="347.158" x="54.898">тәбиғат</tspan><tspan y="354.214" x="54.898">елмекен</tspan></text><text y="254.36" x="103.499" style="line-height:2;-inkscape-font-specification:'Segoe Print';font-variant-ligatures:normal;font-variant-caps:normal;font-variant-numeric:normal;font-feature-settings:normal;text-align:start" font-size="3.528" fill="#917c6f" stroke-width=".265"><tspan y="254.36" x="103.499">үи</tspan><tspan y="261.51" x="103.499">пәтер</tspan><tspan y="268.661" x="103.499">бөлме алаң</tspan><tspan y="275.811" x="103.499">ғимарат</tspan><tspan y="282.867" x="103.499">жер телімі</tspan><tspan y="290.017" x="103.499">қызымет</tspan></text><text y="253.736" x="131.219" style="line-height:2;-inkscape-font-specification:'Segoe Print';font-variant-ligatures:normal;font-variant-caps:normal;font-variant-numeric:normal;font-feature-settings:normal;text-align:start" font-size="3.528" fill="#917c6f" stroke-width=".265"><tspan y="253.736" x="131.219">жеңіл</tspan><tspan y="260.792" x="131.219">жолаушылар</tspan><tspan y="267.942" x="131.219">жүк</tspan><tspan y="275.093" x="131.219">қызыметтік</tspan><tspan y="282.148" x="131.219">белсебет</tspan><tspan y="289.204" x="131.219">мотосекл</tspan><tspan y="296.354" x="131.219">сұу</tspan><tspan y="303.505" x="131.219">әуе</tspan><tspan y="310.655" x="131.219">көлік-қызымет</tspan></text><g style="line-height:2;-inkscape-font-specification:'Segoe Print';font-variant-ligatures:normal;font-variant-caps:normal;font-variant-numeric:normal;font-feature-settings:normal;text-align:start" aria-label="жеңіл жолаушылар жүк қызыметтік белсебет мотосекл сұу әуе көлік-қызымет" font-size="3.528" fill="#917c6f" stroke-width=".265"><path d="M3.862 287.375q-.022.388-.074.76-.026.07-.131.07-.152 0-.152-.154 0-.064.037-.238.025-.152.027-.205.002-.055.009-.119.007-.065-.002-.103-.088.012-.358.21-.27.198-.464.393v-.002q-.012.007-.075.129-.092.182-.202.182-.052 0-.115-.044-.062-.045-.062-.09 0-.107.2-.317.201-.212.444-.362.296-.182.408-.294-.05-.07-.194-.155-.147-.086-.273-.193l-.041-.031q-.222-.15-.296-.224-.073-.076-.073-.162 0-.057.043-.103.044-.049.085-.049.026 0 .093.028t.096.059l.085.079q.446.437.706.556.014 0 .034-.033.018-.058.018-.187 0-.12-.026-.27-.014-.078-.014-.102 0-.081.062-.131.064-.05.138-.05.084 0 .115.034.031.035.031.117l-.022.548v.035q0 .024.002.04.06 0 .125-.047.066-.048.195-.19.567-.587.656-.587.05 0 .092.041.04.041.04.097 0 .027-.189.234-.187.205-.387.377-.257.22-.257.23 0 .011.214.178.23.181.318.257.013.01.035.022.255.157.319.235.063.077.063.13 0 .05-.043.104-.043.052-.084.052-.153 0-.712-.515-.248-.231-.3-.243-.022-.003-.034-.01-.017-.004-.062-.001-.045.002-.048.014zM6.947 287.575q0 .176-.312.424-.31.248-.64.248-.278 0-.43-.164-.15-.163-.15-.456 0-.493.333-.937.333-.445.727-.445.13 0 .21.085.083.084.083.203 0 .265-.26.508t-.696.477q-.09.047-.09.12 0 .144.083.23.083.086.245.086.37 0 .756-.41.057-.057.086-.057.055 0 .055.088zm-1.197-.269q.73-.434.73-.697 0-.103-.093-.103-.158 0-.358.232-.198.233-.28.568zM7.41 286.23h.317v.794H8.76v-.794h.317v1.666h.317v.75h-.317v-.487H8.76v-.889H7.727v.89H7.41zM10.192 285.853q-.036 0-.055-.078-.007-.024-.019-.053-.046-.112-.046-.195 0-.069.08-.14.083-.072.183-.072.05 0 .112.04.062.038.062.074 0 .057-.043.193-.041.136-.134.184-.091.047-.14.047zm-.225 1.924q0 .13.036.294.007.031.007.052 0 .031-.057.08-.057.05-.12.05-.168 0-.168-.307 0-.317.131-1.003.045-.24.045-.294 0-.109.04-.185.04-.077.112-.077.087 0 .137.043.052.041.052.093t-.024.136q-.13.455-.16.651-.031.196-.031.467zM11.624 286.755q-.042-.002-.081.08-.357.713-.54.968-.015.022-.039.065-.215.384-.315.384-.134 0-.134-.13 0-.116.167-.318.162-.191.425-.647.264-.459.427-.822.031-.066.093-.066.026 0 .092.025.067.022.086.05.019.027.084.32.212 1.056.446 1.252.055.048.066.066.01.015.01.044 0 .054-.034.099-.035.043-.068.055-.032.012-.134.012-.036 0-.169-.178-.132-.179-.31-.973-.043-.213-.072-.286zM3.862 294.431q-.022.388-.074.76-.026.07-.131.07-.152 0-.152-.155 0-.064.037-.238.025-.151.027-.205.002-.055.009-.118.007-.066-.002-.104-.088.012-.358.21-.27.199-.464.393v-.002q-.012.007-.075.13-.092.182-.202.182-.052 0-.115-.045-.062-.045-.062-.09 0-.106.2-.316.201-.212.444-.362.296-.183.408-.295-.05-.07-.194-.155-.147-.086-.273-.193l-.041-.03q-.222-.15-.296-.225-.073-.075-.073-.162 0-.056.043-.103.044-.048.085-.048.026 0 .093.028.067.027.096.058l.085.08q.446.437.706.556.014 0 .034-.033.018-.059.018-.188 0-.12-.026-.27-.014-.078-.014-.102 0-.08.062-.13.064-.05.138-.05.084 0 .115.034t.031.117l-.022.548v.034q0 .024.002.04.06 0 .125-.047.066-.048.195-.19.567-.587.656-.587.05 0 .092.042.04.04.04.096 0 .028-.189.234-.187.205-.387.378-.257.22-.257.229 0 .012.214.179.23.18.318.256.013.01.035.023.255.157.319.234.063.078.063.131 0 .05-.043.103-.043.052-.084.052-.153 0-.712-.515-.248-.23-.3-.243-.022-.003-.034-.009-.017-.005-.062-.002-.045.002-.048.014zM5.976 295.3q-.236 0-.39-.178-.153-.18-.153-.443 0-.444.298-.875.3-.432.717-.432.275 0 .446.211.172.212.172.505 0 .448-.355.83-.353.383-.735.383zm-.24-.666q0 .174.073.284.074.11.194.11.257 0 .515-.28.259-.283.259-.627 0-.212-.1-.343-.099-.133-.266-.133-.277 0-.477.342-.198.339-.198.647zM8.434 293.81q-.042-.001-.081.08-.357.713-.54.968l-.04.066q-.214.384-.314.384-.135 0-.135-.13 0-.117.167-.318.162-.191.426-.648.263-.458.427-.821.031-.066.093-.066.026 0 .091.024.068.023.087.05.018.028.084.32.212 1.056.446 1.253.055.048.066.065.01.016.01.045 0 .054-.035.098-.034.043-.067.055-.032.013-.134.013-.036 0-.169-.178-.133-.179-.31-.973-.043-.214-.072-.286zM10.735 294.588q-.241.324-.477.485-.236.162-.433.162-.132 0-.229-.112-.096-.112-.096-.287 0-.453.405-.975.405-.524.804-.524.145 0 .215.166.023.055.071.055.138 0 .138.106 0 .054-.017.147-.093.508-.093.716 0 .417.158.5.076.041.076.102 0 .053-.074.106-.074.055-.143.055-.133 0-.219-.182-.086-.183-.086-.52zm-.105-.97q-.227 0-.529.427-.301.426-.301.706 0 .198.13.198.19 0 .526-.382t.336-.703q0-.246-.162-.246zM12.917 294.607q-.261.246-.523.386-.262.139-.402.139-.16 0-.256-.136-.095-.138-.095-.338 0-.29.11-.687.112-.398.17-.451.06-.054.156-.054.052 0 .08.062.03.06.03.124 0 .043-.04.112-.225.391-.225.808 0 .097.036.17.036.073.11.073.095 0 .233-.057.14-.058.313-.19.174-.13.235-.211.06-.081.084-.184.026-.104.036-.448.01-.345.167-.345.093 0 .12.05.028.048.028.186 0 .104-.03.448-.008.078-.01.143-.05.92-.275 1.442-.226.522-.656.522-.338 0-.601-.178-.262-.175-.262-.298 0-.056.026-.112.027-.055.069-.055.02 0 .044.033.226.346.695.346.298 0 .446-.365.148-.363.187-.935zM16.075 294.465q-.22.37-.451.574-.231.203-.43.203-.113 0-.232-.132-.117-.133-.117-.409 0-.14.03-.311-.164.323-.421.556-.257.233-.458.233-.097 0-.212-.114-.114-.114-.114-.307 0-.222.02-.334.015-.102.025-.21.01-.086.024-.162.067-.37.052-.477.036-.122.167-.122.052 0 .1.043.05.04.05.137 0 .159-.07.397-.096.318-.096.565 0 .134.02.208.02.074.089.074.227 0 .512-.403.285-.403.453-.84.074-.199.186-.199.072 0 .115.052.043.05.043.105 0 .12-.084.343-.16.425-.16.725 0 .283.13.283.059 0 .143-.042.086-.041.212-.167.126-.127.245-.312.12-.186.151-.268.031-.085.126-.395.06-.201.11-.272.052-.072.133-.072.117 0 .117.155 0 .019-.033.126-.048.165-.08.42-.033.253-.033.418 0 .404.132.522.07.064.07.104 0 .048-.071.088-.07.04-.126.04-.12 0-.195-.18-.074-.179-.074-.529v-.057l.002-.056zM17.346 293.263q.023-.015.05-.015.043 0 .072.115 0 .074-.04.188-.116.325-.116.454 0 .035.02.038.397-.38.734-.38.209 0 .35.158.141.157.141.288 0 .4-.408.768-.407.367-.82.367-.184 0-.288-.152-.101-.153-.101-.437 0-.308.077-.682.078-.374.124-.5.02-.053.035-.108.017-.07.17-.102zm-.08 1.08q-.035.191-.035.383 0 .26.205.26.23 0 .516-.276.286-.276.286-.536 0-.107-.056-.179-.057-.072-.157-.072-.136 0-.269.069-.13.067-.293.218-.062.059-.1.092-.036.03-.098.041zm1.734.396q0 .131.036.295.007.03.007.052 0 .03-.057.08-.057.049-.12.049-.168 0-.168-.307 0-.305.133-1.023.048-.262.048-.317 0-.109.04-.184.04-.078.112-.078.088 0 .138.043.051.042.051.093 0 .052-.024.143-.134.491-.165.688-.031.196-.031.466zM20.531 293.81q-.041-.001-.08.08-.357.713-.54.968l-.04.066q-.215.384-.315.384-.134 0-.134-.13 0-.117.167-.318.162-.191.425-.648.264-.458.428-.821.03-.066.093-.066.025 0 .09.024.068.023.087.05.019.028.084.32.212 1.056.447 1.253.055.048.065.065.01.016.01.045 0 .054-.034.098-.035.043-.067.055-.033.013-.135.013-.036 0-.168-.178-.133-.179-.31-.973-.044-.214-.073-.286zM22.832 294.588q-.24.324-.477.485-.236.162-.432.162-.133 0-.23-.112-.096-.112-.096-.287 0-.453.405-.975.405-.524.805-.524.144 0 .215.166.022.055.07.055.138 0 .138.106 0 .054-.017.147-.093.508-.093.716 0 .417.159.5.075.041.075.102 0 .053-.074.106-.074.055-.143.055-.132 0-.218-.182-.087-.183-.087-.52zm-.105-.97q-.227 0-.528.427-.302.426-.302.706 0 .198.131.198.19 0 .525-.382.336-.382.336-.703 0-.246-.162-.246zM24.074 295.015q-.084.31-.158.87l-.048.325q-.012.07-.064.136-.052.07-.095.07-.053 0-.122-.056-.067-.053-.067-.086 0-.095.043-.262.315-1.273.315-2.236l-.002-.144q-.003-.186.066-.27.069-.085.158-.085.042 0 .08.065.037.064.037.183 0 .167-.034.405-.045.3-.047.344.257-.448.545-.7.287-.25.534-.25.174 0 .293.13.12.13.12.322 0 .562-.43 1.02-.431.458-.84.458-.101 0-.161-.051-.059-.052-.123-.188zm1.07-1.387q-.243 0-.601.455t-.358.708q0 .062.07.12.07.06.18.06.246 0 .566-.364.32-.365.32-.717 0-.126-.051-.193-.05-.069-.126-.069zM3.862 301.581q-.022.388-.074.76-.026.07-.131.07-.152 0-.152-.154 0-.064.037-.238.025-.152.027-.205.002-.055.009-.119.007-.065-.002-.103-.088.012-.358.21-.27.198-.464.393v-.002q-.012.007-.075.129-.092.182-.202.182-.052 0-.115-.044-.062-.045-.062-.09 0-.107.2-.317.201-.212.444-.362.296-.182.408-.294-.05-.07-.194-.155-.147-.086-.273-.193l-.041-.031q-.222-.15-.296-.224-.073-.076-.073-.162 0-.057.043-.103.044-.049.085-.049.026 0 .093.028t.096.059l.085.079q.446.437.706.556.014 0 .034-.032.018-.06.018-.188 0-.12-.026-.27-.014-.078-.014-.102 0-.081.062-.131.064-.05.138-.05.084 0 .115.034.031.035.031.117l-.022.548v.035q0 .024.002.04.06 0 .125-.047.066-.048.195-.19.567-.587.656-.587.05 0 .092.041.04.041.04.097 0 .027-.189.234-.187.205-.387.377-.257.22-.257.23 0 .011.214.178.23.181.318.257.013.01.035.023.255.156.319.234.063.077.063.13 0 .05-.043.104-.043.052-.084.052-.153 0-.712-.515-.248-.231-.3-.243-.022-.003-.034-.01-.017-.004-.062-.001-.045.002-.048.014zM6.465 302.334v.765h-.336v-.765l-.78-1.898h.335l.603 1.509.603-1.51h.336zM7.91 301.46q.408-.071.732-.528.152-.212.265-.3.116-.09.245-.09.052 0 .103.047.052.047.052.11 0 .085-.16.133-.085.026-.159.088t-.28.296q-.162.183-.292.257-.012.007-.012.012 0 .007.016.014.126.067.265.26.203.28.305.355.102.072.233.072l.056-.002q.06-.003.06.054 0 .065-.073.136-.074.07-.245.07-.13 0-.255-.112-.122-.113-.28-.367-.092-.15-.171-.227-.08-.077-.176-.077-.02 0-.127.034t-.12.067q-.013.031-.02.23-.005.196-.005.316 0 .064-.06.114t-.131.05q-.073 0-.114-.043-.041-.042-.041-.086 0-.062.046-.293.083-.42.166-1.387.006-.093.07-.167.064-.076.145-.076.045 0 .074.048.031.049.031.125 0 .06-.02.137-.099.357-.123.729zM2.503 307.586h.315v.906l.894-.906h.39l-.738.746.646.92h.245v.751h-.317v-.487H3.84l-.683-.974-.34.345v.629h-.315zM4.942 307.564q.022-.015.05-.015.043 0 .072.115 0 .074-.04.188-.116.325-.116.454 0 .035.02.038.396-.38.734-.38.209 0 .35.158.141.157.141.288 0 .4-.408.768-.407.367-.82.367-.184 0-.288-.152-.101-.153-.101-.437 0-.309.077-.682.078-.374.124-.5.019-.053.035-.108.017-.07.17-.102zm-.08 1.08q-.035.191-.035.382 0 .26.205.26.23 0 .516-.275.286-.276.286-.536 0-.107-.056-.179-.057-.072-.157-.072-.136 0-.269.069-.13.067-.293.218-.062.06-.1.092-.036.03-.098.041zm1.734.396q0 .131.036.295.007.03.007.051 0 .031-.057.081-.057.049-.12.049-.168 0-.168-.307 0-.305.133-1.023.048-.262.048-.317 0-.109.04-.184.04-.078.112-.078.088 0 .138.043.051.042.051.093 0 .052-.024.143-.134.491-.165.687-.031.197-.031.467zM8.003 308.456q.222.036.346.164.124.127.124.312 0 .29-.246.485-.246.193-.648.193-.24 0-.413-.103-.172-.103-.172-.229 0-.103.118-.103.018 0 .054.029.19.164.45.164.229 0 .394-.121.165-.12.165-.314 0-.127-.094-.211-.093-.087-.217-.087-.095 0-.333.075-.046.015-.1.015-.103 0-.103-.14 0-.048.048-.077.05-.03.212-.067.49-.112.49-.398 0-.086-.061-.141-.06-.057-.157-.057-.18 0-.382.158-.12.093-.181.093-.105 0-.105-.098 0-.129.243-.263.244-.136.468-.136.224 0 .352.118.129.12.129.25 0 .312-.381.49zM9.257 307.564q.022-.015.05-.015.043 0 .072.115 0 .074-.04.188-.116.325-.116.454 0 .035.02.038.396-.38.734-.38.208 0 .35.158.141.157.141.288 0 .4-.408.768-.407.367-.82.367-.184 0-.288-.152-.101-.153-.101-.437 0-.309.077-.682.078-.374.124-.5.019-.053.035-.108.017-.07.17-.102zm-.08 1.08q-.035.191-.035.382 0 .26.205.26.23 0 .516-.275.286-.276.286-.536 0-.107-.057-.179-.056-.072-.156-.072-.136 0-.269.069-.13.067-.293.218-.062.06-.1.092-.036.03-.098.041zm1.734.396q0 .131.036.295.007.03.007.051 0 .031-.057.081-.057.049-.12.049-.168 0-.168-.307 0-.305.133-1.023.048-.262.048-.317 0-.109.04-.184.04-.078.112-.078.088 0 .138.043.051.042.051.093 0 .052-.024.143-.134.491-.165.687-.031.197-.031.467zM13.674 308.007q-.14.224-.393.758-.057.12-.115.232-.02.036-.073.16-.18.42-.315.42-.107 0-.157-.025-.048-.026-.093-.141-.045-.116-.132-.543-.102-.484-.138-.596-.117.264-.209.508-.138.36-.267.588-.129.225-.186.27-.057.047-.108.047-.054 0-.097-.042-.043-.041-.043-.08.01-.071.024-.089.15-.184.259-.392.108-.209.275-.626.17-.417.216-.684.022-.113.167-.113.084 0 .115.026.031.025.06.105.031.079.037.14.01.075.058.33.043.24.057.34.024.142.084.375.062.232.097.232.024 0 .069-.105l.144-.334q.04-.091.085-.18l.198-.404q.162-.334.248-.484.088-.152.117-.183.031-.03.07-.03.065 0 .145.036.081.034.085.077.003.043.015.36l.023.538q.01.256.03.437.021.18.073.29.081.175.081.272 0 .082-.069.113-.067.031-.126.031-.12 0-.186-.193-.063-.192-.093-1.105-.01-.274-.032-.336zM16.035 308.932q0 .175-.312.423-.31.249-.64.249-.278 0-.43-.164-.15-.164-.15-.457 0-.492.333-.937.333-.444.727-.444.13 0 .21.084.083.085.083.204 0 .265-.26.508t-.696.477q-.09.046-.09.12 0 .143.083.23.083.086.245.086.37 0 .756-.41.057-.057.086-.057.055 0 .055.088zm-1.197-.269q.73-.434.73-.698 0-.103-.093-.103-.158 0-.358.233-.198.232-.279.568zM17.696 308.153q-.16.003-.686.95-.177.318-.206.347-.03.028-.109.05-.078.023-.13.023-.115 0-.115-.45 0-.253.109-.916.045-.27.045-.385 0-.113.101-.113.192 0 .192.275 0 .13-.064.507-.074.43-.076.523.107-.103.314-.453.292-.478.43-.606.14-.13.288-.13.112 0 .177.15.067.15.081.716.004.14.026.21.022.069.033.069.08 0 .351-.552.145-.29.281-.442.138-.152.305-.152.14 0 .203.145.064.143.091.425.026.286.08.524.055.238.2.305.098.046.098.108 0 .06-.083.124t-.152.064q-.137 0-.246-.169-.108-.168-.164-.73-.024-.226-.046-.32-.022-.095-.07-.095-.073 0-.173.138-.098.137-.319.56-.172.329-.261.439-.088.108-.171.108-.074 0-.133-.058-.058-.06-.074-.143-.015-.085-.032-.412-.026-.544-.095-.634zM21.322 308.153q-.16.003-.686.95-.177.318-.207.347-.029.028-.108.05-.078.023-.13.023-.115 0-.115-.45 0-.253.109-.916.045-.27.045-.385 0-.113.101-.113.192 0 .192.275 0 .13-.064.507-.074.43-.076.523.107-.103.313-.453.293-.478.431-.606.14-.13.288-.13.112 0 .177.15.067.15.081.716.004.14.026.21.022.069.033.069.08 0 .351-.552.145-.29.28-.442.139-.152.306-.152.14 0 .203.145.064.143.091.425.026.286.08.524.055.238.2.305.098.046.098.108 0 .06-.083.124t-.152.064q-.137 0-.246-.169-.109-.168-.164-.73-.024-.226-.046-.32-.023-.095-.07-.095-.073 0-.173.138-.098.137-.319.56-.172.329-.262.439-.087.108-.17.108-.074 0-.133-.058-.058-.06-.074-.143-.015-.085-.032-.412-.026-.544-.095-.634zM24.202 307.21q-.036 0-.055-.078-.007-.024-.02-.054-.046-.112-.046-.194 0-.07.081-.14.083-.072.183-.072.05 0 .112.04.062.037.062.074 0 .056-.043.192-.042.137-.135.185-.09.046-.14.046zm-.226 1.923q0 .131.036.295.007.03.007.052 0 .03-.057.079-.056.05-.12.05-.167 0-.167-.307 0-.317.13-1.002.045-.24.045-.295 0-.109.04-.184.04-.078.112-.078.088 0 .138.043.052.042.052.093 0 .052-.025.136-.129.455-.16.652-.03.196-.03.466zM25.017 308.61q.408-.071.732-.527.151-.212.265-.3.115-.09.245-.09.051 0 .103.047.052.046.052.11 0 .084-.16.133-.085.025-.159.087-.074.062-.28.297-.163.182-.292.256-.012.007-.012.012 0 .007.016.014.125.067.265.26.203.281.305.355.101.073.232.073l.057-.002q.06-.003.06.053 0 .065-.074.136-.074.07-.244.07-.131 0-.255-.111-.123-.114-.281-.367-.091-.15-.17-.228-.08-.077-.176-.077-.02 0-.128.034-.107.035-.12.067-.012.031-.02.23-.004.196-.004.317 0 .063-.06.113-.061.05-.132.05-.072 0-.113-.043-.042-.041-.042-.086 0-.062.047-.293.082-.42.165-1.386.007-.093.07-.168.065-.075.145-.075.045 0 .075.048t.03.124q0 .06-.02.138-.098.356-.122.728zM3.425 314.781q-.066-.177-.304-.384-.224-.193-.224-.33 0-.11.073-.178.072-.069.268-.124.245-.067.498-.151.253-.086.305-.11.033-.016.067-.016.057 0 .057.101 0 .057-.138.156-.137.098-.487.182-.22.055-.27.083-.049.026-.049.053 0 .062.135.18.506.442.506 1.11 0 .288-.152.617-.151.327-.404.488-.252.16-.493.16-.217 0-.329-.212-.112-.212-.112-.467 0-.451.277-.85.28-.4.59-.4.04 0 .103.053.057.052.083.04zm-.752 1.165q0 .191.05.3.052.108.135.108.11 0 .298-.136t.301-.403q.116-.267.116-.5 0-.192-.055-.311-.054-.12-.1-.12-.307 0-.526.373-.219.374-.219.689zM5.774 315.987q0 .176-.312.424-.31.248-.64.248-.278 0-.43-.164-.15-.163-.15-.456 0-.493.333-.937.333-.445.727-.445.13 0 .21.085.083.084.083.203 0 .265-.26.508t-.696.477q-.09.047-.09.121 0 .143.083.23.083.085.245.085.37 0 .756-.41.057-.057.086-.057.055 0 .055.088zm-1.197-.268q.73-.435.73-.698 0-.103-.093-.103-.158 0-.358.232-.198.233-.28.569zM7.1 315.167q-.04-.002-.08.08-.357.713-.54.968-.015.022-.04.065-.215.384-.315.384-.134 0-.134-.129 0-.117.167-.319.162-.19.426-.647.263-.459.427-.822.03-.065.093-.065.026 0 .091.024.067.022.086.05.02.027.085.32.212 1.056.446 1.252.055.049.065.066.01.015.01.045 0 .053-.034.098-.034.043-.067.055-.033.012-.134.012-.037 0-.17-.177-.132-.18-.31-.974-.042-.213-.072-.286zM8.711 316.67q-.258 0-.398-.149-.138-.148-.138-.415 0-.45.357-.947.356-.5.663-.5.14 0 .24.152.101.15.101.318 0 .102-.045.176-.043.073-.088.073-.1 0-.14-.202-.047-.217-.135-.217-.18 0-.424.425-.244.426-.244.719t.332.293q.253 0 .596-.238.12-.085.177-.085.059 0 .059.068 0 .13-.308.33-.309.198-.605.198zM11.503 315.987q0 .176-.312.424-.31.248-.64.248-.278 0-.43-.164-.15-.163-.15-.456 0-.493.333-.937.333-.445.727-.445.13 0 .21.085.083.084.083.203 0 .265-.26.508t-.696.477q-.09.047-.09.121 0 .143.083.23.083.085.245.085.37 0 .756-.41.057-.057.086-.057.055 0 .055.088zm-1.197-.268q.73-.435.73-.698 0-.103-.093-.103-.158 0-.358.232-.198.233-.279.569zM12.876 314.781q-.065-.177-.303-.384-.224-.193-.224-.33 0-.11.072-.178.073-.069.27-.124.244-.067.497-.151.253-.086.305-.11.033-.016.067-.016.057 0 .057.101 0 .057-.138.156-.138.098-.487.182-.221.055-.27.083-.05.026-.05.053 0 .062.135.18.507.442.507 1.11 0 .288-.152.617-.152.327-.405.488-.251.16-.492.16-.217 0-.33-.212-.111-.212-.111-.467 0-.451.277-.85.279-.4.59-.4.04 0 .102.053.057.052.083.04zm-.75 1.165q0 .191.049.3.052.108.134.108.11 0 .298-.136t.302-.403q.115-.267.115-.5 0-.192-.055-.311-.053-.12-.1-.12-.306 0-.525.373-.219.374-.219.689zM15.226 315.987q0 .176-.312.424-.31.248-.64.248-.278 0-.43-.164-.15-.163-.15-.456 0-.493.333-.937.332-.445.727-.445.129 0 .21.085.083.084.083.203 0 .265-.26.508t-.696.477q-.09.047-.09.121 0 .143.083.23.082.085.244.085.37 0 .756-.41.057-.057.087-.057.055 0 .055.088zm-1.197-.268q.73-.435.73-.698 0-.103-.093-.103-.159 0-.358.232-.199.233-.28.569zM16.886 315.209q-.16.003-.685.949-.178.318-.207.348-.03.027-.109.05-.077.022-.129.022-.115 0-.115-.45 0-.253.108-.916.045-.269.045-.384 0-.114.102-.114.191 0 .191.276 0 .13-.064.506-.074.431-.076.524.107-.103.314-.453.293-.479.43-.606.14-.13.288-.13.112 0 .178.15.067.15.08.715.004.141.026.21.023.07.033.07.081 0 .352-.552.144-.291.28-.443.138-.151.305-.151.14 0 .204.144.063.143.09.426.027.286.08.524.055.237.2.304.098.047.098.109 0 .06-.083.124-.082.064-.151.064-.138 0-.247-.17-.108-.168-.163-.73-.024-.225-.047-.32-.022-.095-.07-.095-.073 0-.173.138-.098.138-.318.56-.172.33-.262.44-.088.108-.17.108-.075 0-.133-.059-.059-.06-.074-.143-.016-.084-.033-.411-.026-.545-.095-.634zM4.61 322.118q-.14.224-.393.758-.057.12-.116.232-.018.036-.072.16-.18.42-.315.42-.107 0-.157-.025-.048-.026-.093-.141-.045-.116-.133-.543-.101-.484-.137-.596-.117.264-.209.508-.138.36-.267.588-.129.225-.186.27-.057.047-.108.047-.054 0-.097-.042-.043-.041-.043-.08.01-.071.024-.089.15-.184.259-.392.108-.209.275-.626.17-.416.216-.683.022-.114.167-.114.084 0 .115.026.031.025.06.105.031.079.037.141.01.074.058.329.043.24.057.34.024.142.084.375.062.232.097.232.024 0 .069-.105l.144-.334q.04-.091.085-.179l.198-.405q.162-.334.248-.484.088-.151.117-.182.031-.031.069-.031.065 0 .146.036.081.034.085.077.003.043.015.36l.023.538q.01.256.03.437.021.18.073.29.081.175.081.272 0 .082-.069.113-.067.031-.126.031-.12 0-.186-.192-.063-.193-.093-1.106-.01-.274-.032-.336zM6 323.713q-.236 0-.39-.18-.153-.178-.153-.442 0-.444.298-.875.3-.432.717-.432.275 0 .446.212.172.211.172.504 0 .448-.355.83-.353.383-.735.383zm-.24-.667q0 .174.073.284.074.11.194.11.257 0 .515-.28.259-.283.259-.627 0-.212-.1-.343-.098-.132-.265-.132-.278 0-.478.34-.198.34-.198.648zM8.792 322.264q-.16.003-.686.95-.177.318-.206.347-.03.028-.109.05-.077.023-.129.023-.115 0-.115-.45 0-.253.108-.916.045-.269.045-.384 0-.114.101-.114.192 0 .192.276 0 .129-.064.506-.074.43-.076.524.107-.104.314-.453.293-.48.43-.607.14-.129.288-.129.112 0 .177.15.068.15.081.715.004.141.026.21.023.069.033.069.08 0 .351-.551.145-.292.281-.443.138-.152.305-.152.14 0 .203.145.064.143.092.425.025.286.079.524.055.238.2.305.098.047.098.109 0 .06-.083.124-.083.063-.151.063-.138 0-.247-.169-.108-.168-.163-.73-.025-.226-.047-.32-.022-.095-.07-.095-.073 0-.173.138-.098.138-.319.56-.172.329-.261.439-.088.108-.17.108-.075 0-.133-.058-.06-.06-.075-.143-.015-.085-.032-.412-.026-.544-.095-.634zM11.62 323.713q-.236 0-.389-.18-.153-.178-.153-.442 0-.444.298-.875.3-.432.716-.432.276 0 .446.212.173.211.173.504 0 .448-.355.83-.353.383-.736.383zm-.24-.667q0 .174.073.284.074.11.195.11.257 0 .515-.28.258-.283.258-.627 0-.212-.1-.343-.098-.132-.265-.132-.277 0-.477.34-.198.34-.198.648zM13.582 323.725q-.258 0-.398-.148-.137-.148-.137-.415 0-.45.356-.948.357-.5.663-.5.14 0 .24.152.101.15.101.319 0 .102-.044.176-.043.072-.088.072-.1 0-.141-.202-.047-.217-.135-.217-.179 0-.424.426-.244.425-.244.718t.332.293q.254 0 .596-.238.12-.084.178-.084.058 0 .058.067 0 .131-.308.33t-.605.199zM16.375 323.043q0 .176-.312.424-.31.248-.641.248-.277 0-.429-.164-.15-.164-.15-.456 0-.493.333-.938.332-.444.727-.444.129 0 .21.084.082.085.082.204 0 .265-.26.508t-.696.477q-.09.046-.09.12 0 .144.084.23.082.086.244.086.37 0 .756-.41.057-.057.086-.057.056 0 .056.088zm-1.198-.269q.73-.434.73-.698 0-.103-.092-.103-.159 0-.359.233-.198.232-.279.568zM17.084 322.72q.409-.07.732-.526.152-.212.266-.3.115-.09.244-.09.052 0 .104.047.051.046.051.11 0 .084-.16.133-.084.025-.158.088-.074.062-.281.296-.162.182-.291.257-.012.007-.012.012 0 .007.015.013.126.068.265.26.204.281.305.355.102.073.233.073l.057-.002q.06-.003.06.053 0 .066-.074.136t-.245.07q-.13 0-.255-.111-.122-.114-.28-.367-.092-.15-.17-.228-.08-.077-.177-.077-.02 0-.127.034-.107.035-.12.068-.013.03-.02.229-.005.196-.005.317 0 .063-.06.113t-.131.05q-.072 0-.114-.043-.041-.041-.041-.086 0-.062.046-.293.083-.42.166-1.386.007-.093.07-.167.064-.076.145-.076.045 0 .074.048.031.048.031.124 0 .06-.02.138-.099.356-.123.728zM19.725 322.223q-.041-.002-.081.08-.357.712-.54.967-.015.023-.039.066-.215.384-.315.384-.134 0-.134-.13 0-.117.167-.318.162-.191.425-.648.264-.458.427-.821.031-.066.093-.066.026 0 .092.024.067.023.086.05.019.028.084.32.212 1.057.446 1.253.056.048.066.065.01.016.01.045 0 .054-.034.098-.035.043-.067.055-.033.013-.135.013-.036 0-.169-.178-.132-.179-.31-.973-.043-.214-.072-.286zM2.882 330.875q-.258 0-.398-.148-.138-.148-.138-.415 0-.45.357-.947.356-.5.663-.5.14 0 .24.152.101.15.101.318 0 .102-.045.176-.043.072-.088.072-.1 0-.14-.201-.047-.217-.135-.217-.18 0-.424.425-.245.426-.245.719 0 .292.333.292.253 0 .596-.237.12-.085.177-.085.059 0 .059.068 0 .13-.308.33-.309.198-.605.198zM5.953 328.848l-.761 1.898v.152h.451v.293h-.451v.32h-.336v-.32h-.47v-.293h.47v-.152l-.78-1.898h.336l.602 1.509.603-1.509zM7.56 330.17q-.261.246-.523.385-.262.14-.402.14-.16 0-.256-.137-.095-.137-.095-.337 0-.291.11-.687.112-.398.17-.452.06-.053.156-.053.051 0 .08.062.03.06.03.124 0 .043-.04.112-.225.39-.225.808 0 .096.036.17.036.073.11.073.095 0 .233-.057.14-.059.313-.19.174-.13.234-.212.06-.08.085-.184.026-.103.036-.448.01-.344.167-.344.093 0 .12.05.028.048.028.186 0 .103-.03.448-.008.077-.01.142-.05.92-.275 1.442-.226.522-.656.522-.338 0-.601-.177-.262-.176-.262-.298 0-.057.026-.112.027-.055.068-.055.021 0 .045.032.226.347.694.347.298 0 .447-.366.148-.363.187-.935zM2.377 337.046v-.155h1.457q-.02-.328-.198-.498-.175-.172-.49-.172-.183 0-.355.044-.17.045-.34.135v-.3q.17-.072.35-.11.18-.038.363-.038.462 0 .73.269.271.268.271.727 0 .473-.256.752-.255.278-.69.278-.389 0-.616-.25-.226-.252-.226-.682zm.317.093q.004.26.145.415.143.155.377.155.265 0 .424-.15.16-.15.184-.422zM5.855 337.32q-.262.246-.524.386-.261.139-.401.139-.16 0-.257-.136-.094-.138-.094-.338 0-.29.11-.687.112-.398.17-.451.059-.054.155-.054.052 0 .081.062.03.06.03.124 0 .043-.04.112-.226.391-.226.808 0 .097.037.17.036.073.11.073.095 0 .232-.057.14-.058.314-.19.174-.13.234-.211.06-.081.085-.184.025-.104.036-.448.01-.345.167-.345.093 0 .12.05.028.048.028.186 0 .104-.031.448-.007.078-.009.143-.05.92-.275 1.442-.226.522-.657.522-.337 0-.6-.178-.263-.175-.263-.298 0-.056.026-.112.028-.055.07-.055.02 0 .044.033.226.346.694.346.298 0 .446-.365.148-.363.188-.935zM8.21 337.344q0 .175-.312.424-.31.248-.64.248-.278 0-.43-.164-.15-.164-.15-.457 0-.492.333-.937.332-.444.727-.444.129 0 .21.084.083.085.083.204 0 .265-.26.508t-.696.477q-.09.046-.09.12 0 .143.083.23.082.086.244.086.37 0 .756-.41.057-.057.087-.057.055 0 .055.088zm-1.197-.269q.73-.434.73-.698 0-.103-.093-.103-.159 0-.358.233-.198.232-.28.568zM2.761 344.172q.409-.07.732-.527.152-.212.266-.3.115-.09.244-.09.052 0 .104.047.051.047.051.11 0 .085-.16.133-.084.026-.158.088t-.281.296q-.162.183-.291.257-.012.007-.012.012 0 .007.015.014.126.067.265.26.204.28.305.355.102.072.233.072l.057-.002q.06-.003.06.054 0 .065-.074.136-.074.07-.245.07-.13 0-.255-.112-.122-.113-.28-.367-.092-.15-.17-.227-.08-.077-.177-.077-.02 0-.127.034t-.12.067q-.013.031-.02.23-.005.196-.005.316 0 .064-.06.114t-.131.05q-.072 0-.114-.043-.041-.042-.041-.086 0-.062.047-.293.082-.42.165-1.387.007-.093.07-.167.064-.076.145-.076.045 0 .074.048.031.049.031.124 0 .06-.02.138-.099.357-.123.729zM5.283 343.371q-.253 0-.382.167-.128.166-.159.384h1.082q-.031-.218-.16-.384-.128-.167-.38-.167zm.002 1.488q.257 0 .401-.2.145-.2.145-.454H4.739q0 .255.144.455.145.2.402.2zm.002-1.757q.413 0 .649.27.236.268.236.743 0 .474-.236.744t-.65.27q-.415 0-.65-.27-.235-.27-.235-.744 0-.475.234-.744.236-.269.652-.269zM7.56 343.674q-.041-.002-.08.08-.357.713-.54.968-.015.022-.04.065-.215.384-.315.384-.134 0-.134-.129 0-.117.167-.319.162-.19.426-.647.263-.459.427-.822.03-.065.093-.065.026 0 .091.024.067.022.086.05.02.027.085.32.211 1.056.446 1.252.055.049.065.066.01.015.01.045 0 .053-.034.098-.034.043-.067.055-.033.012-.134.012-.037 0-.17-.177-.132-.18-.31-.974-.042-.213-.072-.286zM9.255 342.772q-.036 0-.055-.078-.007-.024-.019-.053-.046-.112-.046-.195 0-.069.08-.14.083-.072.183-.072.05 0 .112.04.062.038.062.074 0 .057-.043.193-.041.136-.134.184-.091.047-.14.047zm-.225 1.924q0 .13.036.294.007.031.007.052 0 .031-.057.08-.057.05-.12.05-.168 0-.168-.307 0-.317.131-1.003.045-.24.045-.294 0-.109.04-.185.04-.077.112-.077.087 0 .137.043.052.041.052.093t-.024.136q-.13.455-.16.651-.031.196-.031.467zM10.07 344.172q.408-.07.732-.527.152-.212.265-.3.116-.09.245-.09.052 0 .103.047.052.047.052.11 0 .085-.16.133-.085.026-.159.088t-.28.296q-.162.183-.291.257-.013.007-.013.012 0 .007.016.014.126.067.265.26.203.28.305.355.102.072.233.072l.057-.002q.06-.003.06.054 0 .065-.074.136-.074.07-.245.07-.13 0-.255-.112-.122-.113-.28-.367-.092-.15-.171-.227-.08-.077-.176-.077-.02 0-.127.034t-.12.067q-.013.031-.02.23-.005.196-.005.316 0 .064-.06.114t-.131.05q-.073 0-.114-.043-.041-.042-.041-.086 0-.062.046-.293.083-.42.166-1.387.007-.093.07-.167.064-.076.145-.076.045 0 .074.048.031.049.031.124 0 .06-.02.138-.099.357-.123.729zM12.626 343.957h.126q.32 0 .477-.023.076-.01.152-.01.033 0 .132.04.102.04.121.067.019.026.019.07 0 .064-.026.09-.026.026-.112.026-.038 0-.107-.022-.069-.023-.115-.023-.019 0-.126.01-.057.004-.206-.01-.116-.01-.173-.01-.079 0-.24.01-.16.01-.242.01-.083 0-.134-.017-.05-.019-.05-.082 0-.028.022-.064.024-.038.159-.059.134-.022.192-.022zM14.097 343.149h.316v.906l.894-.906h.389l-.737.746.646.92h.244v.75h-.317v-.487h-.096l-.684-.973-.34.344v.63h-.315zM16.537 343.127q.022-.016.05-.016.043 0 .072.115 0 .075-.04.188-.117.326-.117.455 0 .034.02.038.397-.38.735-.38.208 0 .35.158.14.156.14.287 0 .4-.408.769-.406.366-.82.366-.184 0-.287-.151-.102-.153-.102-.438 0-.308.078-.682.077-.374.124-.5.018-.053.034-.108.017-.069.17-.101zm-.081 1.08q-.035.19-.035.382 0 .26.205.26.23 0 .517-.276.286-.275.286-.535 0-.107-.057-.18-.057-.072-.157-.072-.136 0-.268.07-.131.066-.293.218-.062.059-.1.091-.036.031-.098.042zm1.734.396q0 .13.036.294.007.031.007.052 0 .031-.057.081-.056.048-.12.048-.167 0-.167-.306 0-.305.132-1.024.049-.261.049-.317 0-.108.04-.184.039-.077.111-.077.088 0 .138.043.052.041.052.093 0 .051-.024.143-.135.49-.166.687-.03.196-.03.467zM19.598 344.019q.222.036.346.163.124.128.124.312 0 .291-.247.486-.246.193-.647.193-.24 0-.414-.103-.172-.104-.172-.23 0-.103.119-.103.017 0 .053.03.19.163.45.163.229 0 .394-.12.166-.121.166-.314 0-.127-.095-.212-.093-.086-.217-.086-.095 0-.332.074-.047.016-.1.016-.104 0-.104-.14 0-.048.048-.077.05-.03.212-.068.491-.112.491-.398 0-.086-.062-.14-.06-.058-.156-.058-.18 0-.383.159-.119.093-.18.093-.106 0-.106-.098 0-.13.243-.264.245-.136.469-.136.224 0 .351.119.13.119.13.25 0 .311-.381.489zM20.852 343.127q.022-.016.05-.016.043 0 .072.115 0 .075-.04.188-.117.326-.117.455 0 .034.02.038.397-.38.735-.38.208 0 .35.158.14.156.14.287 0 .4-.408.769-.406.366-.82.366-.184 0-.287-.151-.102-.153-.102-.438 0-.308.078-.682.077-.374.124-.5.018-.053.034-.108.017-.069.17-.101zm-.081 1.08q-.035.19-.035.382 0 .26.205.26.23 0 .517-.276.286-.275.286-.535 0-.107-.057-.18-.057-.072-.157-.072-.136 0-.269.07-.13.066-.292.218-.062.059-.1.091-.036.031-.098.042zm1.734.396q0 .13.036.294.007.031.007.052 0 .031-.057.081-.056.048-.12.048-.167 0-.167-.306 0-.305.132-1.024.049-.261.049-.317 0-.108.04-.184.039-.077.111-.077.088 0 .138.043.052.041.052.093 0 .051-.024.143-.135.49-.166.687-.03.196-.03.467zM25.268 343.57q-.14.223-.393.757-.056.12-.115.233-.019.036-.072.16-.181.42-.316.42-.106 0-.156-.026-.049-.025-.093-.14-.045-.116-.133-.543-.102-.484-.138-.596-.117.263-.208.508-.138.36-.267.587-.13.226-.186.27-.057.047-.109.047-.053 0-.096-.041-.043-.042-.043-.081.01-.07.024-.088.15-.184.258-.393.109-.208.276-.625.169-.417.215-.684.023-.114.167-.114.085 0 .116.026.03.026.06.105.03.08.036.141.01.074.059.33.043.239.056.339.025.143.085.375.062.233.096.233.024 0 .07-.105l.144-.334q.04-.092.084-.18l.198-.404q.162-.335.248-.484.088-.152.118-.183t.069-.031q.065 0 .146.036.08.035.084.078.004.043.016.36l.022.537q.01.257.031.438.02.179.073.289.08.176.08.272 0 .083-.068.114-.068.03-.126.03-.12 0-.186-.192-.064-.193-.093-1.106-.01-.274-.033-.336zM27.63 344.494q0 .176-.312.424-.31.248-.64.248-.278 0-.43-.164-.15-.163-.15-.456 0-.493.333-.937.332-.445.727-.445.129 0 .21.085.083.084.083.203 0 .265-.26.508t-.696.477q-.09.047-.09.121 0 .143.083.23.082.085.244.085.37 0 .756-.41.057-.057.087-.057.055 0 .055.088zm-1.197-.268q.73-.435.73-.698 0-.103-.093-.103-.159 0-.358.232-.198.233-.28.569zM29.29 343.716q-.16.003-.685.949-.178.318-.207.348-.03.027-.109.05-.077.022-.129.022-.115 0-.115-.45 0-.253.108-.916.045-.269.045-.384 0-.114.102-.114.191 0 .191.276 0 .13-.064.506-.074.431-.076.524.107-.103.314-.453.293-.479.43-.606.14-.13.288-.13.112 0 .178.15.067.15.08.715.004.141.027.21.022.07.032.07.081 0 .352-.552.144-.291.28-.443.138-.151.305-.151.14 0 .204.144.063.143.09.426.027.286.08.524.055.237.2.304.098.047.098.109 0 .06-.083.124-.082.064-.151.064-.138 0-.246-.17-.109-.168-.164-.73-.024-.225-.047-.32-.022-.095-.07-.095-.073 0-.172.138-.099.138-.32.56-.171.33-.261.44-.088.108-.17.108-.075 0-.133-.059-.059-.06-.074-.143-.016-.084-.033-.411-.026-.545-.095-.634z"/></g></g></svg>