<svg xmlns="http://www.w3.org/2000/svg" viewBox="0 0 50.9 5.4" height="20.409" width="192.378"><g transform="translate(0 -291.6)" font-weight="400" font-family="Segoe Print" letter-spacing="0" word-spacing="0"><flowRoot transform="matrix(.26458 0 0 .26458 0 226.6)" style="line-height:1.25;-inkscape-font-specification:'Segoe Print';font-variant-ligatures:normal;font-variant-caps:normal;font-variant-numeric:normal;font-feature-settings:normal;text-align:start" xml:space="preserve" font-style="normal" font-variant="normal" font-stretch="normal" font-size="13.333" writing-mode="lr-tb" text-anchor="start" fill="#000" fill-opacity="1" stroke="none"><flowRegion><path d="M7.239 212.992h60.325V251.6H7.239z"/></flowRegion><flowPara/></flowRoot><text y="254.382" x="54.898" style="line-height:2;-inkscape-font-specification:'Segoe Print';font-variant-ligatures:normal;font-variant-caps:normal;font-variant-numeric:normal;font-feature-settings:normal;text-align:start" font-size="3.528" fill="#917c6f" stroke-width=".265"><tspan y="254.382" x="54.898">адамдар</tspan><tspan y="261.532" x="54.898">бөлме ғимарат жобалар</tspan><tspan y="268.682" x="54.898">ғарыш тылсым әлем</tspan><tspan y="275.833" x="54.898">гүлдер</tspan><tspan y="282.983" x="54.898">өсімдіктер</tspan><tspan y="290.134" x="54.898">қалыпталған кескіндер</tspan><tspan y="297.284" x="54.898">қолданыс заттары</tspan><tspan y="304.34" x="54.898">жаныуарлар</tspan><tspan y="311.49" x="54.898">өнер білім спорт</tspan><tspan y="318.546" x="54.898">art education sports</tspan><tspan y="325.707" x="54.898">美術教育スポーツ</tspan><tspan y="332.857" x="54.898">الرياضة التربية الفنية</tspan><tspan y="340.008" x="54.898">сән үлгілері</tspan><tspan y="347.158" x="54.898">тәбиғат</tspan><tspan y="354.214" x="54.898">елмекен</tspan></text><text y="254.36" x="103.499" style="line-height:2;-inkscape-font-specification:'Segoe Print';font-variant-ligatures:normal;font-variant-caps:normal;font-variant-numeric:normal;font-feature-settings:normal;text-align:start" font-size="3.528" fill="#917c6f" stroke-width=".265"><tspan y="254.36" x="103.499">үи</tspan><tspan y="261.51" x="103.499">пәтер</tspan><tspan y="268.661" x="103.499">бөлме алаң</tspan><tspan y="275.811" x="103.499">ғимарат</tspan><tspan y="282.867" x="103.499">жер телімі</tspan><tspan y="290.017" x="103.499">қызымет</tspan></text><text y="253.736" x="131.219" style="line-height:2;-inkscape-font-specification:'Segoe Print';font-variant-ligatures:normal;font-variant-caps:normal;font-variant-numeric:normal;font-feature-settings:normal;text-align:start" font-size="3.528" fill="#917c6f" stroke-width=".265"><tspan y="253.736" x="131.219">жеңіл</tspan><tspan y="260.792" x="131.219">жолаушылар</tspan><tspan y="267.942" x="131.219">жүк</tspan><tspan y="275.093" x="131.219">қызыметтік</tspan><tspan y="282.148" x="131.219">белсебет</tspan><tspan y="289.204" x="131.219">мотосекл</tspan><tspan y="296.354" x="131.219">сұу</tspan><tspan y="303.505" x="131.219">әуе</tspan><tspan y="310.655" x="131.219">көлік-қызымет</tspan></text><g style="line-height:2;-inkscape-font-specification:'Segoe Print';font-variant-ligatures:normal;font-variant-caps:normal;font-variant-numeric:normal;font-feature-settings:normal;text-align:start" aria-label="жеңіл жолаушылар жүк қызыметтік белсебет мотосекл сұу әуе көлік-қызымет" font-size="3.528" fill="#917c6f" stroke-width=".265"><path d="M3.862 280.342q-.022.388-.074.76-.026.07-.131.07-.152 0-.152-.155 0-.063.037-.237.025-.152.027-.205.002-.056.009-.12.007-.065-.002-.103-.088.012-.358.21-.27.199-.464.393v-.002q-.012.007-.075.13-.092.182-.202.182-.052 0-.115-.045-.062-.045-.062-.09 0-.106.2-.316.201-.212.444-.362.296-.183.408-.295-.05-.07-.194-.155-.147-.086-.273-.193l-.041-.03q-.222-.15-.296-.224-.073-.076-.073-.162 0-.057.043-.104.044-.048.085-.048.026 0 .093.028.067.027.096.058l.085.08q.446.437.706.556.014 0 .034-.033.018-.058.018-.188 0-.12-.026-.27-.014-.078-.014-.102 0-.08.062-.13.064-.05.138-.05.084 0 .115.034t.031.117l-.022.548v.034q0 .024.002.04.06 0 .125-.047.066-.048.195-.19.567-.586.656-.586.05 0 .092.04.04.042.04.097 0 .028-.189.235-.187.205-.387.377-.257.22-.257.229 0 .012.214.18.23.18.318.256l.035.022q.255.157.319.234.063.078.063.131 0 .05-.043.104-.043.051-.084.051-.153 0-.712-.515-.248-.23-.3-.243-.022-.003-.034-.009-.017-.005-.062-.002-.045.002-.048.014zM6.947 280.542q0 .176-.312.424-.31.248-.64.248-.278 0-.43-.164-.15-.164-.15-.456 0-.493.333-.938.333-.444.727-.444.13 0 .21.084.083.085.083.204 0 .265-.26.508t-.696.477q-.09.047-.09.12 0 .144.083.23.083.086.245.086.37 0 .756-.41.057-.057.086-.057.055 0 .055.088zm-1.197-.269q.73-.434.73-.697 0-.104-.093-.104-.158 0-.358.233-.198.232-.28.568zM7.41 279.197h.317v.794H8.76v-.794h.317v1.665h.317v.751h-.317v-.487H8.76v-.889H7.727v.889H7.41zM10.192 278.82q-.036 0-.055-.078-.007-.024-.019-.054-.046-.112-.046-.194 0-.07.08-.14.083-.072.183-.072.05 0 .112.04.062.037.062.074 0 .056-.043.193-.041.136-.134.184-.091.046-.14.046zm-.225 1.923q0 .131.036.295.007.031.007.052 0 .03-.057.079-.057.05-.12.05-.168 0-.168-.307 0-.317.131-1.002.045-.24.045-.295 0-.108.04-.184.04-.078.112-.078.087 0 .137.043.052.042.052.093 0 .052-.024.137-.13.454-.16.65-.031.197-.031.467zM11.624 279.722q-.042-.002-.081.08-.357.712-.54.967-.015.023-.039.066-.215.384-.315.384-.134 0-.134-.13 0-.117.167-.318.162-.191.425-.648.264-.458.427-.821.031-.066.093-.066.026 0 .092.024.067.023.086.05.019.028.084.32.212 1.056.446 1.253.055.048.066.065.01.016.01.045 0 .054-.034.098-.035.043-.068.055-.032.013-.134.013-.036 0-.169-.178-.132-.179-.31-.973-.043-.214-.072-.286zM3.862 287.398q-.022.387-.074.76-.026.07-.131.07-.152 0-.152-.155 0-.064.037-.238.025-.151.027-.205.002-.055.009-.119.007-.065-.002-.103-.088.012-.358.21-.27.198-.464.393v-.002q-.012.007-.075.129-.092.183-.202.183-.052 0-.115-.045-.062-.045-.062-.09 0-.107.2-.317.201-.212.444-.361.296-.183.408-.295-.05-.07-.194-.155-.147-.086-.273-.193l-.041-.031q-.222-.15-.296-.224-.073-.076-.073-.162 0-.057.043-.103.044-.048.085-.048.026 0 .093.027.067.028.096.059l.085.079q.446.438.706.556.014 0 .034-.032.018-.059.018-.188 0-.12-.026-.27-.014-.078-.014-.102 0-.081.062-.131.064-.05.138-.05.084 0 .115.034.031.035.031.117l-.022.548v.035q0 .024.002.04.06 0 .125-.047.066-.048.195-.19.567-.587.656-.587.05 0 .092.041.04.041.04.097 0 .027-.189.234-.187.205-.387.377-.257.22-.257.23 0 .011.214.178.23.181.318.257.013.01.035.022.255.157.319.235.063.077.063.13 0 .05-.043.104-.043.052-.084.052-.153 0-.712-.515-.248-.231-.3-.243-.022-.003-.034-.01-.017-.004-.062-.001-.045.002-.048.014zM5.976 288.268q-.236 0-.39-.18-.153-.179-.153-.442 0-.445.298-.875.3-.433.717-.433.275 0 .446.212.172.212.172.505 0 .448-.355.83-.353.383-.735.383zm-.24-.667q0 .174.073.284.074.11.194.11.257 0 .515-.28.259-.283.259-.627 0-.212-.1-.343-.099-.133-.266-.133-.277 0-.477.341-.198.34-.198.648zM8.434 286.777q-.042-.002-.081.08-.357.713-.54.968-.015.022-.04.065-.214.384-.314.384-.135 0-.135-.129 0-.117.167-.318.162-.192.426-.648.263-.458.427-.822.031-.065.093-.065.026 0 .091.024.068.022.087.05.018.027.084.32.212 1.056.446 1.252.055.049.066.066.01.015.01.045 0 .053-.035.098-.034.043-.067.055-.032.012-.134.012-.036 0-.169-.177-.133-.18-.31-.973-.043-.214-.072-.286zM10.735 287.554q-.241.324-.477.486-.236.162-.433.162-.132 0-.229-.112-.096-.112-.096-.288 0-.453.405-.975.405-.523.804-.523.145 0 .215.165.023.055.071.055.138 0 .138.107 0 .053-.017.146-.093.509-.093.717 0 .417.158.5.076.04.076.101 0 .054-.074.107-.074.055-.143.055-.133 0-.219-.182-.086-.183-.086-.52zm-.105-.97q-.227 0-.529.428-.301.425-.301.706 0 .198.13.198.19 0 .526-.382.336-.383.336-.703 0-.246-.162-.246zM12.917 287.573q-.261.247-.523.386-.262.14-.402.14-.16 0-.256-.136-.095-.138-.095-.338 0-.291.11-.687.112-.398.17-.452.06-.053.156-.053.052 0 .08.062.03.06.03.124 0 .043-.04.112-.225.391-.225.808 0 .096.036.17.036.073.11.073.095 0 .233-.057.14-.059.313-.19.174-.13.235-.211.06-.081.084-.185.026-.103.036-.448.01-.344.167-.344.093 0 .12.05.028.048.028.186 0 .103-.03.448-.008.077-.01.143-.05.92-.275 1.442-.226.522-.656.522-.338 0-.601-.178-.262-.176-.262-.298 0-.057.026-.112.027-.055.069-.055.02 0 .044.033.226.346.695.346.298 0 .446-.365.148-.364.187-.936zM16.075 287.432q-.22.37-.451.574-.231.203-.43.203-.113 0-.232-.133-.117-.132-.117-.408 0-.141.03-.312-.164.324-.421.557-.257.232-.458.232-.097 0-.212-.113-.114-.114-.114-.307 0-.222.02-.334.015-.102.025-.21.01-.087.024-.162.067-.37.052-.477.036-.123.167-.123.052 0 .1.043.05.042.05.138 0 .159-.07.396-.096.319-.096.565 0 .135.02.209.02.074.089.074.227 0 .512-.403.285-.403.453-.84.074-.199.186-.199.072 0 .115.052.043.05.043.105 0 .12-.084.343-.16.425-.16.725 0 .282.13.282.059 0 .143-.041.086-.041.212-.167.126-.128.245-.312.12-.186.151-.269.031-.084.126-.394.06-.202.11-.272.052-.073.133-.073.117 0 .117.156 0 .018-.033.125-.048.166-.08.42-.033.254-.033.42 0 .402.132.521.07.064.07.103 0 .049-.071.088-.07.04-.126.04-.12 0-.195-.18-.074-.178-.074-.528v-.057l.002-.057zM17.346 286.23q.023-.016.05-.016.043 0 .072.116 0 .074-.04.187-.116.326-.116.455 0 .035.02.038.397-.38.734-.38.209 0 .35.158.141.157.141.287 0 .4-.408.769-.407.367-.82.367-.184 0-.288-.152-.101-.153-.101-.437 0-.309.077-.683.078-.373.124-.5.02-.053.035-.108.017-.069.17-.101zm-.08 1.08q-.035.191-.035.382 0 .26.205.26.23 0 .516-.275.286-.276.286-.536 0-.107-.056-.18-.057-.072-.157-.072-.136 0-.269.07-.13.067-.293.218-.062.059-.1.091-.036.031-.098.042zm1.734.396q0 .13.036.295.007.03.007.051 0 .031-.057.081-.057.048-.12.048-.168 0-.168-.306 0-.305.133-1.023.048-.262.048-.317 0-.109.04-.185.04-.077.112-.077.088 0 .138.043.051.041.051.093t-.024.143q-.134.49-.165.687-.031.197-.031.467zM20.531 286.777q-.041-.002-.08.08-.357.713-.54.968-.015.022-.04.065-.215.384-.315.384-.134 0-.134-.129 0-.117.167-.318.162-.192.425-.648.264-.458.428-.822.03-.065.093-.065.025 0 .09.024.068.022.087.05.019.027.084.32.212 1.056.447 1.252.055.049.065.066.01.015.01.045 0 .053-.034.098-.035.043-.067.055-.033.012-.135.012-.036 0-.168-.177-.133-.18-.31-.973-.044-.214-.073-.286zM22.832 287.554q-.24.324-.477.486-.236.162-.432.162-.133 0-.23-.112-.096-.112-.096-.288 0-.453.405-.975.405-.523.805-.523.144 0 .215.165.022.055.07.055.138 0 .138.107 0 .053-.017.146-.093.509-.093.717 0 .417.159.5.075.04.075.101 0 .054-.074.107-.074.055-.143.055-.132 0-.218-.182-.087-.183-.087-.52zm-.105-.97q-.227 0-.528.428-.302.425-.302.706 0 .198.131.198.19 0 .525-.382.336-.383.336-.703 0-.246-.162-.246zM24.074 287.982q-.084.31-.158.87l-.048.325q-.012.069-.064.136-.052.069-.095.069-.053 0-.122-.055-.067-.054-.067-.086 0-.095.043-.262.315-1.273.315-2.236l-.002-.145q-.003-.186.066-.27.069-.084.158-.084.042 0 .08.065.037.064.037.183 0 .167-.034.404-.045.3-.047.345.257-.448.545-.7.287-.25.534-.25.174 0 .293.13.12.13.12.322 0 .562-.43 1.02-.431.458-.84.458-.101 0-.161-.052-.059-.051-.123-.187zm1.07-1.387q-.243 0-.601.455-.358.454-.358.708 0 .062.07.12.07.059.18.059.246 0 .566-.364.32-.365.32-.716 0-.126-.051-.193-.05-.07-.126-.07zM3.862 294.548q-.022.388-.074.76-.026.07-.131.07-.152 0-.152-.155 0-.063.037-.237.025-.152.027-.205.002-.055.009-.12.007-.065-.002-.103-.088.013-.358.21-.27.199-.464.393v-.002q-.012.007-.075.13-.092.182-.202.182-.052 0-.115-.045-.062-.045-.062-.09 0-.106.2-.316.201-.212.444-.362.296-.183.408-.295-.05-.07-.194-.155-.147-.086-.273-.193l-.041-.03q-.222-.15-.296-.224-.073-.076-.073-.162 0-.057.043-.104.044-.048.085-.048.026 0 .093.028.067.027.096.058l.085.08q.446.437.706.556.014 0 .034-.033.018-.058.018-.188 0-.12-.026-.27-.014-.078-.014-.102 0-.08.062-.13.064-.05.138-.05.084 0 .115.034t.031.117l-.022.548v.034q0 .024.002.04.06 0 .125-.047.066-.048.195-.19.567-.586.656-.586.05 0 .092.04.04.042.04.097 0 .028-.189.235-.187.205-.387.377-.257.22-.257.229 0 .012.214.18.23.18.318.256l.035.022q.255.157.319.234.063.078.063.131 0 .05-.043.104-.043.051-.084.051-.153 0-.712-.515-.248-.23-.3-.243-.022-.003-.034-.009-.017-.005-.062-.002-.045.002-.048.014zM6.465 295.3v.766h-.336v-.765l-.78-1.898h.335l.603 1.509.603-1.51h.336zM7.91 294.426q.408-.07.732-.527.152-.212.265-.3.116-.09.245-.09.052 0 .103.047.052.046.052.11 0 .085-.16.133-.085.026-.159.088t-.28.296q-.162.183-.292.257-.012.007-.012.012 0 .007.016.013.126.068.265.26.203.281.305.355.102.073.233.073l.056-.002q.06-.003.06.053 0 .066-.073.136-.074.07-.245.07-.13 0-.255-.111-.122-.114-.28-.367-.092-.15-.171-.227-.08-.078-.176-.078-.02 0-.127.035-.107.034-.12.067-.013.03-.02.229-.005.196-.005.317 0 .064-.06.114t-.131.05q-.073 0-.114-.044-.041-.04-.041-.086 0-.062.046-.293.083-.42.166-1.386.006-.093.07-.167.064-.076.145-.076.045 0 .074.048.031.048.031.124 0 .06-.02.138-.099.357-.123.729zM2.503 300.553h.315v.906l.894-.906h.39l-.738.746.646.92h.245v.75h-.317v-.487H3.84l-.683-.973-.34.345v.628h-.315zM4.942 300.53q.022-.015.05-.015.043 0 .072.116 0 .074-.04.187-.116.326-.116.455 0 .034.02.038.396-.38.734-.38.209 0 .35.158.141.157.141.287 0 .4-.408.769-.407.367-.82.367-.184 0-.288-.152-.101-.153-.101-.438 0-.308.077-.682.078-.373.124-.5.019-.053.035-.108.017-.069.17-.101zm-.08 1.08q-.035.192-.035.383 0 .26.205.26.23 0 .516-.275.286-.276.286-.536 0-.107-.056-.18-.057-.072-.157-.072-.136 0-.269.07-.13.067-.293.218-.062.059-.1.091-.036.031-.098.042zm1.734.397q0 .13.036.294.007.031.007.052 0 .031-.057.081-.057.048-.12.048-.168 0-.168-.306 0-.305.133-1.023.048-.262.048-.317 0-.109.04-.185.04-.077.112-.077.088 0 .138.043.051.041.051.093t-.024.143q-.134.49-.165.687-.031.197-.031.467zM8.003 301.423q.222.036.346.164.124.127.124.311 0 .291-.246.486-.246.193-.648.193-.24 0-.413-.103-.172-.104-.172-.23 0-.103.118-.103.018 0 .054.03.19.163.45.163.229 0 .394-.12.165-.121.165-.314 0-.127-.094-.212-.093-.086-.217-.086-.095 0-.333.074-.046.016-.1.016-.103 0-.103-.14 0-.048.048-.077.05-.03.212-.067.49-.112.49-.398 0-.087-.061-.142-.06-.056-.157-.056-.18 0-.382.158-.12.093-.181.093-.105 0-.105-.098 0-.13.243-.264.244-.136.468-.136.224 0 .352.119.129.119.129.25 0 .312-.381.489zM9.257 300.53q.022-.015.05-.015.043 0 .072.116 0 .074-.04.187-.116.326-.116.455 0 .034.02.038.396-.38.734-.38.208 0 .35.158.141.157.141.287 0 .4-.408.769-.407.367-.82.367-.184 0-.288-.152-.101-.153-.101-.438 0-.308.077-.682.078-.373.124-.5.019-.053.035-.108.017-.069.17-.101zm-.08 1.08q-.035.192-.035.383 0 .26.205.26.23 0 .516-.275.286-.276.286-.536 0-.107-.057-.18-.056-.072-.156-.072-.136 0-.269.07-.13.067-.293.218-.062.059-.1.091-.036.031-.098.042zm1.734.397q0 .13.036.294.007.031.007.052 0 .031-.057.081-.057.048-.12.048-.168 0-.168-.306 0-.305.133-1.023.048-.262.048-.317 0-.109.04-.185.04-.077.112-.077.088 0 .138.043.051.041.051.093t-.024.143q-.134.49-.165.687-.031.197-.031.467zM13.674 300.973q-.14.224-.393.758-.057.12-.115.233-.02.036-.073.16-.18.42-.315.42-.107 0-.157-.025-.048-.026-.093-.142-.045-.115-.132-.542-.102-.484-.138-.596-.117.263-.209.508-.138.36-.267.587-.129.226-.186.27-.057.047-.108.047-.054 0-.097-.041-.043-.042-.043-.081.01-.07.024-.088.15-.184.259-.393.108-.208.275-.625.17-.417.216-.684.022-.114.167-.114.084 0 .115.026t.06.105q.031.08.037.142.01.074.058.329.043.239.057.339.024.143.084.375.062.233.097.233.024 0 .069-.105l.144-.334q.04-.092.085-.18l.198-.404q.162-.334.248-.484.088-.152.117-.183.031-.03.07-.03.065 0 .145.035.081.035.085.078.003.043.015.36l.023.537q.01.257.03.438.021.179.073.29.081.175.081.271 0 .083-.069.114-.067.031-.126.031-.12 0-.186-.193-.063-.193-.093-1.106-.01-.274-.032-.336zM16.035 301.898q0 .176-.312.424-.31.248-.64.248-.278 0-.43-.163-.15-.164-.15-.457 0-.493.333-.937.333-.444.727-.444.13 0 .21.084.083.084.083.203 0 .266-.26.508-.26.243-.696.478-.09.046-.09.12 0 .143.083.23.083.085.245.085.37 0 .756-.41.057-.056.086-.056.055 0 .055.087zm-1.197-.268q.73-.434.73-.698 0-.103-.093-.103-.158 0-.358.232-.198.233-.279.569zM17.696 301.12q-.16.003-.686.949-.177.319-.206.348-.03.027-.109.05-.078.022-.13.022-.115 0-.115-.45 0-.253.109-.916.045-.268.045-.384 0-.114.101-.114.192 0 .192.276 0 .13-.064.507-.074.43-.076.523.107-.103.314-.453.292-.479.43-.606.14-.13.288-.13.112 0 .177.15.067.15.081.715.004.142.026.21.022.07.033.07.08 0 .351-.552.145-.291.281-.443.138-.151.305-.151.14 0 .203.145.064.143.091.425.026.286.08.524.055.237.2.305.098.046.098.108 0 .06-.083.124t-.152.064q-.137 0-.246-.169-.108-.169-.164-.73-.024-.226-.046-.32-.022-.095-.07-.095-.073 0-.173.137-.098.138-.319.56-.172.33-.261.44-.088.108-.171.108-.074 0-.133-.059-.058-.06-.074-.143-.015-.084-.032-.411-.026-.545-.095-.634zM21.322 301.12q-.16.003-.686.949-.177.319-.207.348-.029.027-.108.05-.078.022-.13.022-.115 0-.115-.45 0-.253.109-.916.045-.268.045-.384 0-.114.101-.114.192 0 .192.276 0 .13-.064.507-.074.43-.076.523.107-.103.313-.453.293-.479.431-.606.14-.13.288-.13.112 0 .177.15.067.15.081.715.004.142.026.21.022.07.033.07.08 0 .351-.552.145-.291.28-.443.139-.151.306-.151.14 0 .203.145.064.143.091.425.026.286.08.524.055.237.2.305.098.046.098.108 0 .06-.083.124t-.152.064q-.137 0-.246-.169-.109-.169-.164-.73-.024-.226-.046-.32-.023-.095-.07-.095-.073 0-.173.137-.098.138-.319.56-.172.33-.262.44-.087.108-.17.108-.074 0-.133-.059-.058-.06-.074-.143-.015-.084-.032-.411-.026-.545-.095-.634zM24.202 300.176q-.036 0-.055-.078-.007-.024-.02-.053-.046-.112-.046-.195 0-.069.081-.14.083-.072.183-.072.05 0 .112.04.062.038.062.074 0 .057-.043.193-.042.136-.135.184-.09.047-.14.047zm-.226 1.924q0 .13.036.294.007.031.007.052 0 .031-.057.08-.056.05-.12.05-.167 0-.167-.307 0-.317.13-1.003.045-.24.045-.294 0-.109.04-.185.04-.077.112-.077.088 0 .138.043.052.041.052.093t-.025.136q-.129.455-.16.651-.03.197-.03.467zM25.017 301.576q.408-.07.732-.527.151-.212.265-.3.115-.09.245-.09.051 0 .103.047t.052.11q0 .085-.16.133-.085.026-.159.088t-.28.296q-.163.183-.292.257-.012.007-.012.012 0 .007.016.014.125.067.265.26.203.28.305.355.101.072.232.072l.057-.002q.06-.003.06.054 0 .065-.074.136-.074.07-.244.07-.131 0-.255-.112-.123-.113-.281-.367-.091-.15-.17-.227-.08-.077-.176-.077-.02 0-.128.034-.107.034-.12.067-.012.031-.02.23-.004.196-.004.316 0 .064-.06.114-.061.05-.132.05-.072 0-.113-.043-.042-.042-.042-.086 0-.062.047-.293.082-.42.165-1.387.007-.093.07-.167.065-.076.145-.076.045 0 .075.049.03.048.03.124 0 .06-.02.137-.098.357-.122.729zM3.425 307.748q-.066-.177-.304-.384-.224-.193-.224-.33 0-.11.073-.178.072-.069.268-.124.245-.067.498-.152.253-.086.305-.11.033-.015.067-.015.057 0 .057.101 0 .057-.138.155-.137.098-.487.183-.22.055-.27.082-.049.026-.049.054 0 .062.135.179.506.443.506 1.111 0 .288-.152.617-.151.327-.404.487-.252.16-.493.16-.217 0-.329-.211-.112-.212-.112-.467 0-.452.277-.851.28-.4.59-.4.04 0 .103.054.057.051.083.04zm-.752 1.165q0 .19.05.3.052.108.135.108.11 0 .298-.136t.301-.403q.116-.267.116-.5 0-.193-.055-.312-.054-.12-.1-.12-.307 0-.526.374-.219.373-.219.689zM5.774 308.954q0 .176-.312.424-.31.248-.64.248-.278 0-.43-.164-.15-.164-.15-.456 0-.493.333-.937.333-.445.727-.445.13 0 .21.085.083.084.083.203 0 .265-.26.508t-.696.477q-.09.047-.09.12 0 .144.083.23.083.086.245.086.37 0 .756-.41.057-.057.086-.057.055 0 .055.088zm-1.197-.269q.73-.434.73-.697 0-.104-.093-.104-.158 0-.358.233-.198.232-.28.568zM7.1 308.134q-.04-.002-.08.08-.357.712-.54.967l-.04.066q-.215.384-.315.384-.134 0-.134-.13 0-.117.167-.318.162-.191.426-.648.263-.458.427-.821.03-.066.093-.066.026 0 .091.024.067.023.086.05.02.028.085.32.212 1.057.446 1.253.055.048.065.065.01.016.01.045 0 .054-.034.098-.034.044-.067.056-.033.012-.134.012-.037 0-.17-.178-.132-.179-.31-.973-.042-.214-.072-.286zM8.711 309.636q-.258 0-.398-.148-.138-.148-.138-.415 0-.45.357-.948.356-.5.663-.5.14 0 .24.152.101.15.101.32 0 .1-.045.175-.043.072-.088.072-.1 0-.14-.201-.047-.217-.135-.217-.18 0-.424.425-.244.426-.244.718 0 .293.332.293.253 0 .596-.237.12-.085.177-.085.059 0 .059.067 0 .131-.308.331-.309.198-.605.198zM11.503 308.954q0 .176-.312.424-.31.248-.64.248-.278 0-.43-.164-.15-.164-.15-.456 0-.493.333-.937.333-.445.727-.445.13 0 .21.085.083.084.083.203 0 .265-.26.508t-.696.477q-.09.047-.09.12 0 .144.083.23.083.086.245.086.37 0 .756-.41.057-.057.086-.057.055 0 .055.088zm-1.197-.269q.73-.434.73-.697 0-.104-.093-.104-.158 0-.358.233-.198.232-.279.568zM12.876 307.748q-.065-.177-.303-.384-.224-.193-.224-.33 0-.11.072-.178.073-.069.27-.124.244-.067.497-.152.253-.086.305-.11.033-.015.067-.015.057 0 .057.101 0 .057-.138.155t-.487.183q-.221.055-.27.082-.05.026-.05.054 0 .062.135.179.507.443.507 1.111 0 .288-.152.617-.152.327-.405.487-.251.16-.492.16-.217 0-.33-.211-.111-.212-.111-.467 0-.452.277-.851.279-.4.59-.4.04 0 .102.054.057.051.083.04zm-.75 1.165q0 .19.049.3.052.108.134.108.11 0 .298-.136t.302-.403q.115-.267.115-.5 0-.193-.055-.312-.053-.12-.1-.12-.306 0-.525.374-.219.373-.219.689zM15.226 308.954q0 .176-.312.424-.31.248-.64.248-.278 0-.43-.164-.15-.164-.15-.456 0-.493.333-.937.332-.445.727-.445.129 0 .21.085.083.084.083.203 0 .265-.26.508t-.696.477q-.09.047-.09.12 0 .144.083.23.082.086.244.086.37 0 .756-.41.057-.057.087-.057.055 0 .055.088zm-1.197-.269q.73-.434.73-.697 0-.104-.093-.104-.159 0-.358.233-.199.232-.28.568zM16.886 308.175q-.16.003-.685.95-.178.318-.207.347-.03.028-.109.05-.077.023-.129.023-.115 0-.115-.45 0-.253.108-.916.045-.269.045-.384 0-.114.102-.114.191 0 .191.276 0 .129-.064.506-.074.43-.076.524.107-.104.314-.453.293-.48.43-.607.14-.129.288-.129.112 0 .178.15.067.15.08.715.004.141.026.21.023.069.033.069.081 0 .352-.551.144-.291.28-.443.138-.152.305-.152.14 0 .204.145.063.143.09.426.027.286.08.523.055.238.2.305.098.047.098.109 0 .06-.083.124-.082.063-.151.063-.138 0-.247-.168-.108-.17-.163-.73-.024-.226-.047-.321-.022-.095-.07-.095-.073 0-.173.138-.098.138-.318.56-.172.329-.262.439-.088.109-.17.109-.075 0-.133-.06-.059-.06-.074-.142-.016-.084-.033-.412-.026-.544-.095-.634zM4.61 315.084q-.14.224-.393.758-.057.121-.116.233-.018.036-.072.16-.18.42-.315.42-.107 0-.157-.025-.048-.026-.093-.142-.045-.115-.133-.542-.101-.484-.137-.596-.117.263-.209.508-.138.36-.267.587-.129.226-.186.27-.057.047-.108.047-.054 0-.097-.041-.043-.041-.043-.081.01-.07.024-.088.15-.184.259-.393.108-.208.275-.625.17-.417.216-.684.022-.113.167-.113.084 0 .115.025.031.026.06.105.031.08.037.142.01.074.058.329.043.24.057.339.024.143.084.375.062.233.097.233.024 0 .069-.105l.144-.334q.04-.092.085-.18l.198-.404q.162-.334.248-.484.088-.152.117-.183.031-.03.069-.03.065 0 .146.035.081.035.085.078.003.043.015.36l.023.537q.01.257.03.438.021.179.073.29.081.175.081.271 0 .083-.069.114-.067.031-.126.031-.12 0-.186-.193-.063-.193-.093-1.106-.01-.274-.032-.336zM6 316.68q-.236 0-.39-.18-.153-.179-.153-.442 0-.445.298-.875.3-.433.717-.433.275 0 .446.212.172.212.172.505 0 .448-.355.83-.353.383-.735.383zm-.24-.667q0 .174.073.284.074.11.194.11.257 0 .515-.28.259-.283.259-.627 0-.212-.1-.343-.098-.133-.265-.133-.278 0-.478.341-.198.34-.198.648zM8.792 315.23q-.16.004-.686.95-.177.319-.206.348-.03.028-.109.05-.077.022-.129.022-.115 0-.115-.45 0-.252.108-.916.045-.268.045-.384 0-.113.101-.113.192 0 .192.275 0 .13-.064.507-.074.43-.076.523.107-.103.314-.453.293-.479.43-.606.14-.13.288-.13.112 0 .177.15.068.15.081.715.004.142.026.21.023.07.033.07.08 0 .351-.552.145-.29.281-.442.138-.152.305-.152.14 0 .203.145.064.143.092.425.025.286.079.524.055.238.2.305.098.046.098.108 0 .06-.083.124t-.151.064q-.138 0-.247-.169-.108-.169-.163-.73-.025-.226-.047-.32-.022-.095-.07-.095-.073 0-.173.137-.098.138-.319.56-.172.33-.261.44-.088.108-.17.108-.075 0-.133-.059-.06-.06-.075-.142-.015-.085-.032-.412-.026-.545-.095-.634zM11.62 316.68q-.236 0-.389-.18-.153-.179-.153-.442 0-.445.298-.875.3-.433.716-.433.276 0 .446.212.173.212.173.505 0 .448-.355.83-.353.383-.736.383zm-.24-.667q0 .174.073.284.074.11.195.11.257 0 .515-.28.258-.283.258-.627 0-.212-.1-.343-.098-.133-.265-.133-.277 0-.477.341-.198.34-.198.648zM13.582 316.692q-.258 0-.398-.149-.137-.148-.137-.415 0-.45.356-.947.357-.5.663-.5.14 0 .24.152.101.15.101.319 0 .101-.044.175-.043.073-.088.073-.1 0-.141-.202-.047-.217-.135-.217-.179 0-.424.426-.244.425-.244.718t.332.293q.254 0 .596-.238.12-.084.178-.084.058 0 .058.067 0 .13-.308.33-.308.199-.605.199zM16.375 316.01q0 .175-.312.423-.31.248-.641.248-.277 0-.429-.163-.15-.164-.15-.457 0-.492.333-.937.332-.444.727-.444.129 0 .21.084.082.084.082.203 0 .266-.26.508-.26.243-.696.478-.09.046-.09.12 0 .143.084.23.082.085.244.085.37 0 .756-.41.057-.056.086-.056.056 0 .056.088zm-1.198-.27q.73-.433.73-.697 0-.103-.092-.103-.159 0-.359.232-.198.233-.279.569zM17.084 315.687q.409-.07.732-.527.152-.212.266-.3.115-.089.244-.089.052 0 .104.046.051.047.051.11 0 .085-.16.133-.084.026-.158.088t-.281.297q-.162.182-.291.256-.012.007-.012.012 0 .007.015.014.126.067.265.26.204.281.305.355.102.072.233.072l.057-.002q.06-.003.06.054 0 .065-.074.136-.074.07-.245.07-.13 0-.255-.112-.122-.113-.28-.366-.092-.15-.17-.228-.08-.077-.177-.077-.02 0-.127.034t-.12.067q-.013.031-.02.23-.005.196-.005.316 0 .064-.06.114t-.131.05q-.072 0-.114-.043-.041-.041-.041-.086 0-.062.046-.293.083-.42.166-1.387.007-.093.07-.167.064-.076.145-.076.045 0 .074.049.031.048.031.124 0 .06-.02.137-.099.357-.123.73zM19.725 315.19q-.041-.002-.081.079-.357.713-.54.968-.015.022-.039.065-.215.384-.315.384-.134 0-.134-.129 0-.117.167-.318.162-.192.425-.648.264-.458.427-.822.031-.065.093-.065.026 0 .092.024.067.022.086.05.019.027.084.32.212 1.056.446 1.253.056.048.066.065.01.016.01.045 0 .053-.034.098-.035.043-.067.055-.033.012-.135.012-.036 0-.169-.177-.132-.18-.31-.973-.043-.214-.072-.286zM2.882 323.842q-.258 0-.398-.148-.138-.148-.138-.415 0-.45.357-.948.356-.5.663-.5.14 0 .24.152.101.15.101.32 0 .1-.045.175-.043.072-.088.072-.1 0-.14-.201-.047-.217-.135-.217-.18 0-.424.425-.245.425-.245.718t.333.293q.253 0 .596-.238.12-.084.177-.084.059 0 .059.067 0 .131-.308.331-.309.198-.605.198zM5.953 321.815l-.761 1.898v.151h.451v.293h-.451v.32h-.336v-.32h-.47v-.293h.47v-.151l-.78-1.898h.336l.602 1.509.603-1.51zM7.56 323.136q-.261.246-.523.386t-.402.14q-.16 0-.256-.137-.095-.138-.095-.337 0-.292.11-.688.112-.398.17-.451.06-.053.156-.053.051 0 .08.062.03.06.03.124 0 .043-.04.112-.225.39-.225.807 0 .097.036.17.036.073.11.073.095 0 .233-.057.14-.058.313-.19.174-.13.234-.21.06-.082.085-.185.026-.104.036-.448.01-.345.167-.345.093 0 .12.05.028.048.028.186 0 .104-.03.448-.008.078-.01.143-.05.92-.275 1.442-.226.522-.656.522-.338 0-.601-.178-.262-.175-.262-.298 0-.056.026-.112.027-.055.068-.055.021 0 .045.033.226.346.694.346.298 0 .447-.365.148-.363.187-.935zM2.377 330.012v-.155h1.457q-.02-.327-.198-.497-.175-.173-.49-.173-.183 0-.355.045-.17.045-.34.134v-.3q.17-.072.35-.11.18-.037.363-.037.462 0 .73.268.271.27.271.727 0 .474-.256.753-.255.277-.69.277-.389 0-.616-.25-.226-.25-.226-.682zm.317.093q.004.26.145.416.143.155.377.155.265 0 .424-.15.16-.15.184-.422zM5.855 330.286q-.262.247-.524.386-.261.14-.401.14-.16 0-.257-.136-.094-.138-.094-.338 0-.291.11-.687.112-.398.17-.452.059-.053.155-.053.052 0 .081.062.03.06.03.124 0 .043-.04.112-.226.391-.226.808 0 .096.037.17.036.073.11.073.095 0 .232-.057.14-.059.314-.19.174-.13.234-.211.06-.081.085-.185.025-.103.036-.448.01-.344.167-.344.093 0 .12.05.028.048.028.186 0 .103-.031.448-.007.077-.009.143-.05.92-.275 1.441-.226.522-.657.522-.337 0-.6-.177-.263-.176-.263-.298 0-.057.026-.112.028-.055.07-.055.02 0 .044.033.226.346.694.346.298 0 .446-.365.148-.364.188-.936zM8.21 330.31q0 .176-.312.424-.31.248-.64.248-.278 0-.43-.163-.15-.164-.15-.457 0-.493.333-.937.332-.444.727-.444.129 0 .21.084.083.084.083.203 0 .266-.26.508-.26.243-.696.478-.09.046-.09.12 0 .143.083.23.082.085.244.085.37 0 .756-.41.057-.056.087-.056.055 0 .055.088zm-1.197-.268q.73-.434.73-.698 0-.103-.093-.103-.159 0-.358.232-.198.233-.28.569zM2.761 337.139q.409-.07.732-.527.152-.212.266-.3.115-.09.244-.09.052 0 .104.047.051.046.051.11 0 .085-.16.133-.084.026-.158.088t-.281.296q-.162.183-.291.257-.012.007-.012.012 0 .007.015.013.126.068.265.26.204.281.305.355.102.073.233.073l.057-.002q.06-.003.06.053 0 .066-.074.136t-.245.07q-.13 0-.255-.111-.122-.114-.28-.367-.092-.15-.17-.227-.08-.078-.177-.078-.02 0-.127.035-.107.034-.12.067-.013.03-.02.229-.005.196-.005.317 0 .064-.06.114t-.131.05q-.072 0-.114-.044-.041-.04-.041-.086 0-.062.047-.293.082-.42.165-1.386.007-.093.07-.167.064-.076.145-.076.045 0 .074.048.031.048.031.124 0 .06-.02.138-.099.357-.123.729zM5.283 336.338q-.253 0-.382.167-.128.165-.159.384h1.082q-.031-.219-.16-.384-.128-.167-.38-.167zm.002 1.488q.257 0 .401-.2.145-.2.145-.454H4.739q0 .254.144.454.145.2.402.2zm.002-1.757q.413 0 .649.269.236.269.236.744 0 .474-.236.744-.236.269-.65.269-.415 0-.65-.269-.235-.27-.235-.744 0-.475.234-.744.236-.269.652-.269zM7.56 336.641q-.041-.002-.08.08-.357.712-.54.967l-.04.066q-.215.384-.315.384-.134 0-.134-.13 0-.116.167-.318.162-.191.426-.648.263-.458.427-.821.03-.066.093-.066.026 0 .091.024.067.023.086.05.02.028.085.32.211 1.057.446 1.253.055.048.065.066.01.015.01.044 0 .054-.034.099-.034.043-.067.055-.033.012-.134.012-.037 0-.17-.178-.132-.179-.31-.973-.042-.214-.072-.286zM9.255 335.738q-.036 0-.055-.077-.007-.024-.019-.054-.046-.112-.046-.194 0-.07.08-.14.083-.072.183-.072.05 0 .112.04.062.037.062.074 0 .056-.043.193-.041.136-.134.184-.091.046-.14.046zm-.225 1.924q0 .131.036.295.007.031.007.052 0 .03-.057.079-.057.05-.12.05-.168 0-.168-.307 0-.317.131-1.002.045-.24.045-.295 0-.108.04-.184.04-.078.112-.078.087 0 .137.043.052.042.052.093 0 .052-.024.137-.13.454-.16.65-.031.197-.031.468zM10.07 337.139q.408-.07.732-.527.152-.212.265-.3.116-.09.245-.09.052 0 .103.047.052.046.052.11 0 .085-.16.133-.085.026-.159.088t-.28.296q-.162.183-.291.257-.013.007-.013.012 0 .007.016.013.126.068.265.26.203.281.305.355.102.073.233.073l.057-.002q.06-.003.06.053 0 .066-.074.136t-.245.07q-.13 0-.255-.111-.122-.114-.28-.367-.092-.15-.171-.227-.08-.078-.176-.078-.02 0-.127.035-.107.034-.12.067-.013.03-.02.229-.005.196-.005.317 0 .064-.06.114t-.131.05q-.073 0-.114-.044-.041-.04-.041-.086 0-.062.046-.293.083-.42.166-1.386.007-.093.07-.167.064-.076.145-.076.045 0 .074.048.031.048.031.124 0 .06-.02.138-.099.357-.123.729zM12.626 336.923h.126q.32 0 .477-.022.076-.01.152-.01.033 0 .132.04.102.039.121.067.019.025.019.07 0 .064-.026.09-.026.026-.112.026-.038 0-.107-.023-.069-.022-.115-.022-.019 0-.126.009-.057.005-.206-.01-.116-.01-.173-.01-.079 0-.24.01-.16.011-.242.011-.083 0-.134-.017-.05-.02-.05-.083 0-.027.022-.064.024-.037.159-.058.134-.023.192-.023zM14.097 336.116h.316v.906l.894-.906h.389l-.737.745.646.92h.244v.751h-.317v-.487h-.096l-.684-.973-.34.344v.629h-.315zM16.537 336.093q.022-.015.05-.015.043 0 .072.115 0 .074-.04.188-.117.325-.117.455 0 .034.02.038.397-.381.735-.381.208 0 .35.158.14.157.14.288 0 .4-.408.768-.406.367-.82.367-.184 0-.287-.151-.102-.154-.102-.438 0-.308.078-.682.077-.374.124-.5.018-.053.034-.108.017-.07.17-.102zm-.081 1.08q-.035.191-.035.383 0 .26.205.26.23 0 .517-.276.286-.275.286-.536 0-.106-.057-.179-.057-.072-.157-.072-.136 0-.268.069-.131.067-.293.219-.062.058-.1.091-.036.031-.098.041zm1.734.396q0 .131.036.295.007.031.007.052 0 .03-.057.08-.056.049-.12.049-.167 0-.167-.307 0-.305.132-1.023.049-.262.049-.317 0-.108.04-.184.039-.078.111-.078.088 0 .138.043.052.042.052.093 0 .052-.024.143-.135.491-.166.688-.03.196-.03.466zM19.598 336.985q.222.037.346.164.124.128.124.312 0 .291-.247.486-.246.193-.647.193-.24 0-.414-.104-.172-.103-.172-.229 0-.103.119-.103.017 0 .053.03.19.163.45.163.229 0 .394-.12.166-.121.166-.314 0-.128-.095-.212-.093-.086-.217-.086-.095 0-.332.074-.047.015-.1.015-.104 0-.104-.14 0-.047.048-.077.05-.029.212-.067.491-.112.491-.398 0-.086-.062-.141-.06-.057-.156-.057-.18 0-.383.159-.119.093-.18.093-.106 0-.106-.099 0-.129.243-.263.245-.136.469-.136.224 0 .351.119.13.118.13.25 0 .311-.381.489zM20.852 336.093q.022-.015.05-.015.043 0 .072.115 0 .074-.04.188-.117.325-.117.455 0 .034.02.038.397-.381.735-.381.208 0 .35.158.14.157.14.288 0 .4-.408.768-.406.367-.82.367-.184 0-.287-.151-.102-.154-.102-.438 0-.308.078-.682.077-.374.124-.5.018-.053.034-.108.017-.07.17-.102zm-.081 1.08q-.035.191-.035.383 0 .26.205.26.23 0 .517-.276.286-.275.286-.536 0-.106-.057-.179-.057-.072-.157-.072-.136 0-.269.069-.13.067-.292.219-.062.058-.1.091-.036.031-.098.041zm1.734.396q0 .131.036.295.007.031.007.052 0 .03-.057.08-.056.049-.12.049-.167 0-.167-.307 0-.305.132-1.023.049-.262.049-.317 0-.108.04-.184.039-.078.111-.078.088 0 .138.043.052.042.052.093 0 .052-.024.143-.135.491-.166.688-.03.196-.03.466zM25.268 336.536q-.14.224-.393.758-.056.12-.115.232-.019.037-.072.16-.181.42-.316.42-.106 0-.156-.025-.049-.026-.093-.141-.045-.116-.133-.543-.102-.484-.138-.596-.117.264-.208.508-.138.36-.267.588-.13.225-.186.27-.057.047-.109.047-.053 0-.096-.042-.043-.04-.043-.08.01-.071.024-.089.15-.184.258-.392.109-.209.276-.626.169-.416.215-.683.023-.114.167-.114.085 0 .116.026.03.026.06.105t.036.141q.01.074.059.33.043.238.056.338.025.143.085.376.062.232.096.232.024 0 .07-.105l.144-.334q.04-.091.084-.179l.198-.405q.162-.334.248-.484.088-.151.118-.182t.069-.031q.065 0 .146.036.08.034.084.077.004.043.016.36l.022.538q.01.256.031.437.02.18.073.29.08.175.08.272 0 .083-.068.114-.068.03-.126.03-.12 0-.186-.192-.064-.193-.093-1.106-.01-.274-.033-.336zM27.63 337.46q0 .177-.312.425-.31.248-.64.248-.278 0-.43-.164-.15-.164-.15-.456 0-.493.333-.937.332-.445.727-.445.129 0 .21.085.083.084.083.203 0 .265-.26.508t-.696.477q-.09.047-.09.12 0 .144.083.23.082.086.244.086.37 0 .756-.41.057-.057.087-.057.055 0 .055.088zm-1.197-.268q.73-.434.73-.697 0-.104-.093-.104-.159 0-.358.233-.198.232-.28.568zM29.29 336.682q-.16.003-.685.95-.178.318-.207.347-.03.028-.109.05-.077.023-.129.023-.115 0-.115-.45 0-.253.108-.916.045-.269.045-.384 0-.114.102-.114.191 0 .191.276 0 .129-.064.506-.074.43-.076.524.107-.104.314-.453.293-.48.43-.607.14-.129.288-.129.112 0 .178.15.067.15.08.715.004.141.027.21.022.069.032.069.081 0 .352-.551.144-.291.28-.443.138-.152.305-.152.14 0 .204.145.063.143.09.426.027.286.08.523.055.238.2.305.098.047.098.109 0 .06-.083.124-.082.063-.151.063-.138 0-.246-.168-.109-.17-.164-.73-.024-.226-.047-.321-.022-.095-.07-.095-.073 0-.172.138-.099.138-.32.56-.171.329-.261.439-.088.109-.17.109-.075 0-.133-.06-.059-.06-.074-.142-.016-.084-.033-.412-.026-.544-.095-.634z"/></g></g></svg>