<svg xmlns="http://www.w3.org/2000/svg" viewBox="0 0 50.9 5.4" height="20.409" width="192.378"><g transform="translate(0 -291.6)" font-weight="400" font-family="Segoe Print" letter-spacing="0" word-spacing="0"><flowRoot transform="matrix(.26458 0 0 .26458 0 226.6)" style="line-height:1.25;-inkscape-font-specification:'Segoe Print';font-variant-ligatures:normal;font-variant-caps:normal;font-variant-numeric:normal;font-feature-settings:normal;text-align:start" xml:space="preserve" font-style="normal" font-variant="normal" font-stretch="normal" font-size="13.333" writing-mode="lr-tb" text-anchor="start" fill="#000" fill-opacity="1" stroke="none"><flowRegion><path d="M7.239 212.992h60.325V251.6H7.239z"/></flowRegion><flowPara/></flowRoot><text y="254.382" x="54.898" style="line-height:2;-inkscape-font-specification:'Segoe Print';font-variant-ligatures:normal;font-variant-caps:normal;font-variant-numeric:normal;font-feature-settings:normal;text-align:start" font-size="3.528" fill="#917c6f" stroke-width=".265"><tspan y="254.382" x="54.898">адамдар</tspan><tspan y="261.532" x="54.898">бөлме ғимарат жобалар</tspan><tspan y="268.682" x="54.898">ғарыш тылсым әлем</tspan><tspan y="275.833" x="54.898">гүлдер</tspan><tspan y="282.983" x="54.898">өсімдіктер</tspan><tspan y="290.134" x="54.898">қалыпталған кескіндер</tspan><tspan y="297.284" x="54.898">қолданыс заттары</tspan><tspan y="304.34" x="54.898">жаныуарлар</tspan><tspan y="311.49" x="54.898">өнер білім спорт</tspan><tspan y="318.546" x="54.898">art education sports</tspan><tspan y="325.707" x="54.898">美術教育スポーツ</tspan><tspan y="332.857" x="54.898">الرياضة التربية الفنية</tspan><tspan y="340.008" x="54.898">сән үлгілері</tspan><tspan y="347.158" x="54.898">тәбиғат</tspan><tspan y="354.214" x="54.898">елмекен</tspan></text><text y="254.36" x="103.499" style="line-height:2;-inkscape-font-specification:'Segoe Print';font-variant-ligatures:normal;font-variant-caps:normal;font-variant-numeric:normal;font-feature-settings:normal;text-align:start" font-size="3.528" fill="#917c6f" stroke-width=".265"><tspan y="254.36" x="103.499">үи</tspan><tspan y="261.51" x="103.499">пәтер</tspan><tspan y="268.661" x="103.499">бөлме алаң</tspan><tspan y="275.811" x="103.499">ғимарат</tspan><tspan y="282.867" x="103.499">жер телімі</tspan><tspan y="290.017" x="103.499">қызымет</tspan></text><text y="253.736" x="131.219" style="line-height:2;-inkscape-font-specification:'Segoe Print';font-variant-ligatures:normal;font-variant-caps:normal;font-variant-numeric:normal;font-feature-settings:normal;text-align:start" font-size="3.528" fill="#917c6f" stroke-width=".265"><tspan y="253.736" x="131.219">жеңіл</tspan><tspan y="260.792" x="131.219">жолаушылар</tspan><tspan y="267.942" x="131.219">жүк</tspan><tspan y="275.093" x="131.219">қызыметтік</tspan><tspan y="282.148" x="131.219">белсебет</tspan><tspan y="289.204" x="131.219">мотосекл</tspan><tspan y="296.354" x="131.219">сұу</tspan><tspan y="303.505" x="131.219">әуе</tspan><tspan y="310.655" x="131.219">қызымет</tspan></text><text y="253.832" x="163.967" style="line-height:2;-inkscape-font-specification:'Segoe Print';font-variant-ligatures:normal;font-variant-caps:normal;font-variant-numeric:normal;font-feature-settings:normal;text-align:start" font-size="3.528" fill="#917c6f" stroke-width=".265"><tspan y="253.832" x="163.967">нан өнімдері</tspan><tspan y="260.983" x="163.967">сұусын</tspan><tspan y="268.133" x="163.967">кәмпит</tspan><tspan y="275.189" x="163.967">торт</tspan><tspan y="282.339" x="163.967">жеміс жидек көкөніс</tspan><tspan y="289.49" x="163.967">қаинатпа</tspan><tspan y="296.64" x="163.967">тұздалған</tspan><tspan y="303.79" x="163.967">қызымет</tspan></text><text y="253.707" x="206.738" style="line-height:2;-inkscape-font-specification:'Segoe Print';font-variant-ligatures:normal;font-variant-caps:normal;font-variant-numeric:normal;font-feature-settings:normal;text-align:start" font-size="3.528" fill="#917c6f" stroke-width=".265"><tspan y="253.707" x="206.738">бас кіиім</tspan><tspan y="260.858" x="206.738">үстіңгі</tspan><tspan y="268.008" x="206.738">астыңғы</tspan><tspan y="275.158" x="206.738">аиақ</tspan><tspan y="282.214" x="206.738">спорт</tspan><tspan y="289.27" x="206.738">балалар</tspan><tspan y="296.325" x="206.738">арнаиы</tspan><tspan y="303.476" x="206.738">қызымет</tspan></text><g style="line-height:2;-inkscape-font-specification:'Segoe Print';font-variant-ligatures:normal;font-variant-caps:normal;font-variant-numeric:normal;font-feature-settings:normal;text-align:start" aria-label="бас кіиім үстіңгі астыңғы аиақ спорт балалар арнаиы қызымет" font-size="3.528" fill="#917c6f" stroke-width=".265"><path d="M3.42 243.84q-.065-.177-.302-.384-.224-.193-.224-.33 0-.11.072-.178.072-.069.269-.124.244-.067.497-.151.254-.087.305-.11.033-.016.068-.016.056 0 .056.101 0 .057-.137.156-.138.098-.488.182-.22.055-.27.083-.049.026-.049.053 0 .062.135.18.506.442.506 1.11 0 .288-.151.617-.152.327-.405.488-.252.16-.493.16-.217 0-.329-.212-.112-.212-.112-.467 0-.451.278-.85.279-.4.589-.4.041 0 .103.053.057.052.083.04zm-.75 1.165q0 .191.05.3.051.108.134.108.11 0 .298-.136t.301-.403q.116-.267.116-.5 0-.192-.055-.311-.054-.12-.1-.12-.307 0-.526.373-.218.374-.218.689zM5.388 245.003q-.241.324-.477.486-.236.162-.433.162-.132 0-.229-.112-.096-.112-.096-.288 0-.453.405-.975.404-.523.804-.523.145 0 .215.165.023.055.07.055.139 0 .139.107 0 .053-.017.146-.094.508-.094.717 0 .417.159.5.076.04.076.101 0 .053-.074.107-.074.055-.143.055-.133 0-.22-.183-.085-.182-.085-.52zm-.105-.97q-.228 0-.53.428-.3.425-.3.706 0 .198.13.198.19 0 .526-.382.336-.383.336-.703 0-.247-.162-.247zM6.768 245.728q-.259 0-.398-.148-.138-.148-.138-.415 0-.45.356-.947.357-.5.664-.5.14 0 .24.152.1.15.1.318 0 .102-.044.176-.043.072-.088.072-.1 0-.141-.201-.047-.217-.135-.217-.179 0-.423.425-.245.426-.245.719 0 .292.333.292.253 0 .596-.237.12-.085.177-.085.059 0 .059.068 0 .13-.309.33-.308.198-.604.198zM9.846 244.724q.408-.07.732-.527.151-.212.265-.3.116-.09.245-.09.051 0 .103.047t.052.11q0 .085-.16.133-.085.026-.159.088t-.28.296q-.163.183-.292.257-.012.007-.012.012 0 .007.016.014.125.067.265.26.203.28.305.355.101.072.232.072l.057-.002q.06-.003.06.053 0 .066-.074.137-.074.07-.244.07-.131 0-.255-.112-.122-.113-.28-.367-.092-.15-.171-.227-.08-.078-.176-.078-.02 0-.128.035-.106.034-.12.067-.012.031-.02.23-.004.195-.004.316 0 .064-.06.114t-.132.05q-.072 0-.113-.043-.042-.042-.042-.087 0-.062.047-.292.083-.42.165-1.387.007-.093.07-.167.065-.076.146-.076.044 0 .074.048t.03.124q0 .06-.02.138-.098.357-.122.729zM12.075 243.324q-.036 0-.055-.078-.007-.024-.02-.053-.046-.112-.046-.195 0-.069.081-.14.083-.072.183-.072.05 0 .112.04.062.038.062.074 0 .057-.043.193-.042.136-.135.184-.091.047-.14.047zm-.226 1.924q0 .13.036.294.007.031.007.052 0 .031-.057.08-.057.05-.12.05-.167 0-.167-.307 0-.317.13-1.003.045-.24.045-.295 0-.108.04-.184.04-.077.112-.077.088 0 .138.043.051.041.051.093 0 .051-.024.136-.129.455-.16.651-.03.196-.03.467zM13.756 244.88q-.22.371-.451.574-.231.204-.43.204-.113 0-.232-.133-.117-.133-.117-.408 0-.226.109-.665.09-.367.09-.515.05-.103.158-.103.072 0 .115.051.043.05.043.105 0 .12-.084.343-.16.433-.16.743 0 .282.13.282.167 0 .426-.284.258-.284.443-.793.072-.203.117-.263.046-.062.124-.062.117 0 .117.155 0 .019-.033.126-.103.377-.103.713 0 .403.132.522.07.063.07.103 0 .048-.071.088-.07.04-.126.04-.12 0-.195-.18-.074-.179-.074-.528v-.057l.002-.057zM15.246 243.324q-.036 0-.055-.078-.007-.024-.02-.053-.046-.112-.046-.195 0-.069.081-.14.083-.072.183-.072.05 0 .112.04.062.038.062.074 0 .057-.043.193-.041.136-.135.184-.09.047-.139.047zm-.226 1.924q0 .13.036.294.007.031.007.052 0 .031-.056.08-.057.05-.121.05-.167 0-.167-.307 0-.317.13-1.003.046-.24.046-.295 0-.108.04-.184.039-.077.111-.077.088 0 .138.043.052.041.052.093 0 .051-.024.136-.13.455-.16.651-.032.196-.032.467zM17.909 244.121q-.14.224-.393.758-.057.12-.115.233-.02.036-.072.16-.181.42-.316.42-.107 0-.156-.026-.049-.025-.093-.14-.045-.116-.133-.543-.102-.484-.138-.596-.117.263-.208.508-.138.36-.267.587-.13.226-.186.27-.057.047-.109.047-.053 0-.096-.041-.043-.042-.043-.081.01-.07.024-.088.15-.184.258-.393.109-.208.276-.625.169-.417.215-.684.022-.114.167-.114.084 0 .116.026.03.026.06.105.03.08.036.141.01.075.059.33.043.239.056.339.024.143.085.375.062.233.096.233.024 0 .07-.105l.144-.334q.04-.092.084-.18l.198-.404q.162-.334.248-.484.088-.152.118-.183.03-.03.068-.03.066 0 .147.035.08.035.084.078.004.043.016.36l.022.537q.01.257.031.438.02.179.072.29.081.175.081.271 0 .083-.068.114t-.126.031q-.12 0-.186-.193-.064-.193-.093-1.106-.01-.274-.033-.336zM3.4 252.75v.764h-.336v-.764l-.78-1.899h.336l.603 1.51.602-1.51h.336zM4.966 252.879q-.259 0-.398-.148-.138-.148-.138-.415 0-.45.357-.948.356-.5.663-.5.14 0 .24.152.1.15.1.319 0 .102-.044.176-.043.072-.088.072-.1 0-.141-.202-.047-.217-.134-.217-.18 0-.424.426-.245.425-.245.718t.333.293q.253 0 .596-.238.12-.084.177-.084.059 0 .059.067 0 .131-.309.33-.308.199-.604.199zM7.584 251.418q-.16.003-.686.95-.177.318-.206.347-.03.028-.109.05-.077.023-.129.023-.115 0-.115-.45 0-.253.108-.916.045-.27.045-.384 0-.114.102-.114.19 0 .19.275 0 .13-.063.507-.074.43-.076.524.107-.104.314-.454.293-.478.43-.606.14-.13.288-.13.112 0 .178.15.067.15.08.716.004.14.026.21.023.069.033.069.081 0 .351-.552.145-.29.281-.442.138-.152.305-.152.14 0 .203.145.064.143.092.425.026.286.079.524.055.238.2.305.098.046.098.108 0 .06-.083.124-.082.064-.151.064-.138 0-.247-.169-.108-.168-.163-.73-.024-.226-.047-.32-.022-.095-.07-.095-.073 0-.173.138-.098.138-.318.56-.173.329-.262.439-.088.108-.17.108-.075 0-.133-.058-.059-.06-.074-.143-.016-.085-.033-.412-.026-.544-.095-.634zM10.464 250.474q-.036 0-.055-.077-.007-.024-.019-.054-.046-.112-.046-.194 0-.07.08-.14.083-.072.183-.072.05 0 .112.04.062.037.062.073 0 .057-.043.193-.041.136-.134.185-.092.046-.14.046zm-.225 1.924q0 .131.036.295.007.03.007.052 0 .03-.057.079-.057.05-.12.05-.168 0-.168-.307 0-.317.131-1.002.045-.24.045-.295 0-.108.04-.184.039-.078.111-.078.088 0 .138.043.052.042.052.093 0 .052-.024.136-.13.455-.16.652-.031.196-.031.466zM11.033 250.851h.317v.795h1.031v-.795h.317v1.666h.317v.751h-.317v-.487h-.317v-.89H11.35v.89h-.317zM13.22 252.483l-.003-.037q-.017-.173.107-.365.125-.19.628-.444.32-.162.32-.295 0-.07-.058-.108-.058-.038-.101-.038-.13 0-.497.182-.029.016-.034.016-.141 0-.141-.1 0-.162.279-.269.279-.108.486-.108.129 0 .27.103.141.102.141.274 0 .141-.091.272-.091.131-.456.333-.3.165-.407.272-.105.107-.105.241 0 .098.091.13.092.03.138.03.324 0 .579-.134.088-.045.13-.045.09 0 .09.1 0 .152-.244.253-.245.102-.62.102-.18 0-.333-.102-.153-.103-.169-.263zM15.527 250.474q-.036 0-.055-.077-.007-.024-.02-.054-.046-.112-.046-.194 0-.07.081-.14.083-.072.183-.072.05 0 .112.04.062.037.062.073 0 .057-.043.193-.042.136-.135.185-.091.046-.14.046zm-.226 1.924q0 .131.036.295.007.03.007.052 0 .03-.057.079-.057.05-.12.05-.167 0-.167-.307 0-.317.13-1.002.045-.24.045-.295 0-.108.04-.184.04-.078.112-.078.088 0 .138.043.051.042.051.093 0 .052-.024.136-.129.455-.16.652-.03.196-.03.466zM3.569 259.304q-.241.324-.477.486-.236.162-.433.162-.132 0-.229-.112-.096-.112-.096-.288 0-.453.405-.975.404-.523.804-.523.145 0 .215.165.023.055.07.055.139 0 .139.107 0 .053-.018.146-.093.508-.093.717 0 .417.159.5.076.04.076.101 0 .053-.074.107-.074.055-.143.055-.133 0-.22-.183-.085-.182-.085-.52zm-.105-.97q-.228 0-.53.428-.3.425-.3.706 0 .198.13.198.19 0 .526-.383.336-.382.336-.702 0-.247-.162-.247zM4.949 260.03q-.259 0-.398-.149-.138-.148-.138-.415 0-.45.356-.947.357-.5.664-.5.14 0 .239.152.102.15.102.318 0 .102-.045.176-.043.072-.088.072-.1 0-.141-.201-.047-.217-.135-.217-.179 0-.423.425-.245.426-.245.719 0 .292.333.292.253 0 .596-.237.12-.085.177-.085.059 0 .059.067 0 .131-.309.331-.308.198-.604.198zM7.567 258.569q-.16.003-.686.949-.177.318-.206.348-.03.027-.109.05-.077.022-.13.022-.115 0-.115-.45 0-.253.109-.916.045-.269.045-.384 0-.114.101-.114.192 0 .192.276 0 .13-.064.506-.074.431-.076.524.107-.103.314-.453.292-.479.43-.606.14-.13.288-.13.112 0 .177.15.067.15.081.715.004.141.026.21.022.07.033.07.08 0 .351-.552.145-.291.281-.443.138-.151.305-.151.14 0 .203.144.064.143.091.426.026.286.08.524.055.237.2.304.098.047.098.109 0 .06-.083.124t-.152.064q-.137 0-.246-.17-.108-.168-.164-.73-.024-.225-.046-.32t-.07-.095q-.073 0-.173.138-.098.138-.319.56-.172.329-.261.44-.088.108-.171.108-.074 0-.133-.059-.058-.06-.074-.143-.015-.084-.032-.411-.026-.545-.095-.634zM10.292 257.98q.022-.016.05-.016.043 0 .072.115 0 .075-.04.188-.117.326-.117.455 0 .034.021.038.396-.38.734-.38.208 0 .35.158.14.156.14.287 0 .4-.407.769-.407.366-.82.366-.185 0-.288-.151-.102-.153-.102-.438 0-.308.078-.682.077-.374.124-.5.019-.053.034-.108.018-.069.17-.102zm-.081 1.08q-.034.19-.034.382 0 .26.204.26.231 0 .517-.276.286-.275.286-.535 0-.107-.057-.18-.056-.072-.156-.072-.136 0-.27.07-.13.066-.292.218-.062.058-.1.091-.036.031-.098.041zm1.735.396q0 .13.036.294.007.031.007.052 0 .031-.057.081-.057.048-.12.048-.168 0-.168-.306 0-.305.133-1.024.048-.261.048-.317 0-.108.04-.184.04-.077.112-.077.087 0 .137.043.052.041.052.093 0 .051-.024.143-.134.49-.165.687-.031.196-.031.467zM12.614 258.002h.317v.794h1.032v-.794h.317v1.666h.317v.75h-.317v-.487h-.317v-.889H12.93v.89h-.317zM15.162 259.931v-.861h-.453v-.293h.453v-.775h1.36v.27H15.48v.505h.716v.293h-.716v.861zM17.323 257.98q.023-.016.05-.016.043 0 .073.115 0 .075-.04.188-.117.326-.117.455 0 .034.02.038.397-.38.734-.38.209 0 .35.158.141.156.141.287 0 .4-.408.769-.406.366-.82.366-.184 0-.288-.151-.101-.153-.101-.438 0-.308.077-.682.078-.374.124-.5.02-.053.035-.108.017-.069.17-.102zm-.08 1.08q-.035.19-.035.382 0 .26.205.26.23 0 .517-.276.286-.275.286-.535 0-.107-.057-.18-.057-.072-.157-.072-.136 0-.269.07-.13.066-.293.218-.062.058-.1.091-.036.031-.098.041zm1.734.396q0 .13.036.294.007.031.007.052 0 .031-.057.081-.057.048-.12.048-.167 0-.167-.306 0-.305.132-1.024.048-.261.048-.317 0-.108.04-.184.04-.077.112-.077.088 0 .138.043.051.041.051.093 0 .051-.024.143-.134.49-.165.687-.031.196-.031.467zM3.569 266.455q-.241.323-.477.485-.236.162-.433.162-.132 0-.229-.112-.096-.112-.096-.287 0-.453.405-.975.404-.524.804-.524.145 0 .215.165.023.056.07.056.139 0 .139.106 0 .054-.018.147-.093.508-.093.716 0 .417.159.5.076.041.076.101 0 .054-.074.107-.074.055-.143.055-.133 0-.22-.182-.085-.183-.085-.52zm-.105-.97q-.228 0-.53.427-.3.425-.3.706 0 .198.13.198.19 0 .526-.382t.336-.703q0-.246-.162-.246zM5.694 266.332q-.22.37-.45.574-.232.203-.43.203-.113 0-.232-.132-.117-.133-.117-.409 0-.225.108-.665.091-.367.091-.515.05-.103.157-.103.072 0 .116.052.043.05.043.105 0 .12-.085.343-.16.432-.16.742 0 .282.13.282.168 0 .426-.284.259-.284.443-.792.072-.203.117-.264.047-.062.124-.062.117 0 .117.155 0 .02-.032.126-.104.377-.104.713 0 .403.133.522.069.064.069.104 0 .048-.07.087-.07.04-.127.04-.12 0-.194-.18-.074-.178-.074-.528v-.057l.001-.057zM7.79 266.455q-.24.323-.476.485-.236.162-.433.162-.132 0-.229-.112-.096-.112-.096-.287 0-.453.405-.975.404-.524.804-.524.145 0 .215.165.023.056.07.056.139 0 .139.106 0 .054-.018.147-.093.508-.093.716 0 .417.159.5.076.041.076.101 0 .054-.074.107-.074.055-.143.055-.133 0-.22-.182-.085-.183-.085-.52zm-.104-.97q-.228 0-.53.427-.3.425-.3.706 0 .198.13.198.19 0 .526-.382t.336-.703q0-.246-.162-.246zM8.792 265.152h.315v.906l.894-.906h.39l-.738.746.646.92h.244v.751h-.317v-.487h-.096l-.684-.974-.34.345v.629h-.314zM2.878 274.235q-.258 0-.398-.148-.138-.148-.138-.415 0-.45.357-.947.356-.5.663-.5.14 0 .24.152.101.15.101.318 0 .102-.045.176-.043.072-.087.072-.1 0-.142-.201-.046-.217-.134-.217-.18 0-.424.425-.244.426-.244.719 0 .292.332.292.253 0 .596-.237.12-.085.177-.085.059 0 .059.068 0 .13-.308.33-.309.198-.605.198zM5.369 272.813q-.09 0-.196.117-.106.117-.323.525-.286.548-.37.624-.083.075-.138.075-.203 0-.203-.196 0-.083.028-.234.094-.52.094-1.097 0-.066.055-.145.057-.081.107-.081.09 0 .128.055.038.055.038.222 0 .174-.104.717-.034.179-.034.227 0 .028.014.028.025 0 .239-.412.215-.419.377-.59.162-.17.357-.17.155 0 .251.142.098.14.143.515.048.425.086.53.04.104.124.104.054 0 .135-.038.014-.007.02-.007.074 0 .074.086 0 .076-.101.162-.102.084-.245.084-.146 0-.227-.115-.08-.117-.126-.622-.048-.507-.203-.507zM7.038 274.223q-.236 0-.39-.179-.153-.179-.153-.443 0-.444.298-.875.3-.432.717-.432.276 0 .446.212.172.212.172.505 0 .447-.354.83-.354.382-.736.382zm-.24-.666q0 .174.073.284.074.11.195.11.256 0 .515-.28.258-.283.258-.628 0-.212-.1-.342-.098-.133-.265-.133-.278 0-.477.341-.198.34-.198.648zM8.862 273.937q-.084.31-.158.87l-.049.326q-.012.069-.063.136-.052.069-.095.069-.053 0-.122-.055-.067-.054-.067-.086 0-.095.043-.262.315-1.273.315-2.236l-.002-.145q-.003-.186.066-.27.068-.085.158-.085.041 0 .08.066.037.064.037.182 0 .168-.034.405-.045.3-.047.345.257-.448.545-.7.287-.251.534-.251.174 0 .292.13.121.13.121.323 0 .561-.43 1.02-.431.458-.84.458-.101 0-.161-.052-.059-.052-.123-.188zm1.07-1.386q-.243 0-.601.454-.359.455-.359.708 0 .062.071.121.07.059.18.059.246 0 .566-.364.32-.365.32-.716 0-.126-.051-.193-.05-.07-.126-.07zM12.11 272.775q-.16.003-.685.949-.177.318-.206.348-.03.027-.109.05-.077.022-.13.022-.114 0-.114-.45 0-.253.108-.916.045-.269.045-.384 0-.114.101-.114.192 0 .192.276 0 .13-.064.506-.074.431-.076.524.107-.103.314-.453.292-.479.43-.606.14-.13.288-.13.112 0 .177.15.068.15.081.715.004.141.026.21.023.07.033.07.08 0 .351-.552.145-.291.281-.443.138-.151.305-.151.14 0 .203.144.064.143.092.426.025.286.079.524.055.237.2.304.098.047.098.109 0 .06-.083.124t-.151.064q-.138 0-.247-.17-.108-.168-.163-.73-.025-.225-.047-.32t-.07-.095q-.073 0-.173.138-.098.138-.319.56-.172.33-.261.44-.088.108-.17.108-.075 0-.134-.059-.058-.06-.074-.143-.015-.084-.032-.411-.026-.545-.095-.634zM3.42 279.403q-.065-.177-.302-.384-.224-.193-.224-.33 0-.111.072-.178.072-.07.269-.124.244-.067.497-.152.254-.086.305-.11.033-.016.068-.016.056 0 .056.102 0 .057-.137.155-.138.098-.488.183-.22.055-.27.082-.049.026-.049.054 0 .062.135.179.506.443.506 1.11 0 .289-.151.618-.152.327-.405.487-.252.16-.493.16-.217 0-.329-.212-.112-.211-.112-.466 0-.452.278-.851.279-.4.589-.4.041 0 .103.053.057.052.083.04zm-.75 1.164q0 .192.05.3.051.109.134.109.11 0 .298-.136t.301-.403q.116-.267.116-.5 0-.193-.055-.312-.054-.12-.1-.12-.307 0-.526.373-.218.374-.218.69zM5.388 280.566q-.241.324-.477.485-.236.162-.433.162-.132 0-.229-.112-.096-.112-.096-.287 0-.453.405-.975.404-.524.804-.524.145 0 .215.166.023.055.07.055.139 0 .139.106 0 .054-.017.147-.094.508-.094.716 0 .417.159.5.076.041.076.102 0 .053-.074.106-.074.055-.143.055-.133 0-.22-.182-.085-.183-.085-.52zm-.105-.97q-.228 0-.53.427-.3.426-.3.706 0 .198.13.198.19 0 .526-.382t.336-.703q0-.246-.162-.246zM7.264 279.789q-.042-.002-.081.08-.357.712-.54.967l-.04.066q-.214.384-.314.384-.135 0-.135-.13 0-.117.167-.318.162-.191.426-.648.263-.458.427-.821.031-.066.093-.066.026 0 .091.024.068.023.087.05.018.028.084.32.212 1.056.446 1.253.055.048.066.065.01.016.01.045 0 .053-.035.098-.034.043-.067.055-.032.012-.134.012-.036 0-.169-.177-.133-.18-.31-.973-.043-.214-.072-.286zM9.565 280.566q-.241.324-.477.485-.236.162-.433.162-.132 0-.229-.112-.096-.112-.096-.287 0-.453.405-.975.405-.524.804-.524.145 0 .215.166.023.055.071.055.138 0 .138.106 0 .054-.017.147-.093.508-.093.716 0 .417.158.5.076.041.076.102 0 .053-.074.106-.074.055-.143.055-.133 0-.219-.182-.086-.183-.086-.52zm-.105-.97q-.227 0-.529.427-.301.426-.301.706 0 .198.13.198.19 0 .526-.382t.336-.703q0-.246-.162-.246zM11.44 279.789q-.04-.002-.08.08-.357.712-.54.967-.015.023-.039.066-.215.384-.315.384-.134 0-.134-.13 0-.117.167-.318.162-.191.425-.648.264-.458.427-.821.031-.066.093-.066.026 0 .092.024.067.023.086.05.019.028.084.32.212 1.056.446 1.253.055.048.066.065.01.016.01.045 0 .053-.034.098-.035.043-.068.055-.032.012-.134.012-.036 0-.169-.177-.132-.18-.31-.973-.043-.214-.072-.286zM13.742 280.566q-.241.324-.477.485-.236.162-.432.162-.133 0-.23-.112-.096-.112-.096-.287 0-.453.405-.975.405-.524.804-.524.145 0 .216.166.022.055.07.055.138 0 .138.106 0 .054-.017.147-.093.508-.093.716 0 .417.158.5.076.041.076.102 0 .053-.074.106-.074.055-.143.055-.133 0-.219-.182-.086-.183-.086-.52zm-.105-.97q-.227 0-.529.427-.301.426-.301.706 0 .198.13.198.19 0 .526-.382t.336-.703q0-.246-.162-.246zM14.984 280.993q-.084.31-.158.87l-.049.325q-.012.07-.063.136-.052.07-.095.07-.053 0-.122-.056-.068-.053-.068-.086 0-.095.044-.262.315-1.273.315-2.236l-.002-.144q-.003-.186.066-.27.068-.085.158-.085.041 0 .08.065.037.064.037.183 0 .167-.034.405-.045.3-.047.344.257-.448.545-.699.287-.252.533-.252.174 0 .293.131.12.13.12.322 0 .562-.43 1.02-.43.458-.839.458-.101 0-.162-.051-.058-.052-.122-.188zm1.07-1.387q-.243 0-.601.455-.359.455-.359.708 0 .062.071.12.07.06.18.06.245 0 .566-.364.32-.365.32-.717 0-.126-.051-.193-.05-.069-.126-.069zM3.569 287.621q-.241.324-.477.486-.236.162-.433.162-.132 0-.229-.112-.096-.112-.096-.288 0-.453.405-.975.404-.523.804-.523.145 0 .215.165.023.055.07.055.139 0 .139.107 0 .053-.018.146-.093.509-.093.717 0 .417.159.5.076.04.076.101 0 .054-.074.107-.074.055-.143.055-.133 0-.22-.183-.085-.182-.085-.52zm-.105-.97q-.228 0-.53.428-.3.425-.3.706 0 .198.13.198.19 0 .526-.382.336-.383.336-.703 0-.247-.162-.247zM4.81 288.048q-.084.31-.158.87l-.048.326q-.012.069-.064.136-.051.069-.094.069-.054 0-.123-.055-.067-.054-.067-.086 0-.095.043-.262.315-1.273.315-2.236l-.001-.145q-.004-.186.065-.27.07-.085.159-.085.041 0 .079.066.038.064.038.182 0 .168-.035.405-.044.3-.046.345.256-.448.544-.7.288-.251.534-.251.174 0 .293.13.12.13.12.323 0 .562-.43 1.02-.43.458-.839.458-.102 0-.162-.052-.058-.051-.122-.188zm1.07-1.386q-.242 0-.6.455-.359.454-.359.708 0 .062.07.12.071.059.18.059.246 0 .566-.364.32-.365.32-.716 0-.126-.05-.193-.05-.07-.127-.07zM8.027 287.123q.019-.036.06-.432.031-.317.202-.317.14 0 .14.14 0 .032-.025.132-.133.55-.133.922 0 .403.133.522.069.064.069.103 0 .048-.07.088-.07.04-.126.04-.27 0-.27-.83 0-.056-.04-.056-.162 0-.397.02-.234.018-.336.047-.1.03-.124.055-.022.025-.041.133-.017.107-.017.222v.212q0 .185-.169.185-.141 0-.141-.185 0-.12.03-.306.058-.341.114-1.175.007-.109.02-.138.011-.03.061-.064.052-.036.112-.036.124 0 .124.102 0 .015-.04.258t-.04.377q0 .095.065.095.13 0 .479-.043.348-.045.36-.07zM9.996 287.621q-.242.324-.478.486-.235.162-.432.162-.133 0-.229-.112t-.096-.288q0-.453.404-.975.405-.523.805-.523.144 0 .215.165.023.055.07.055.139 0 .139.107 0 .053-.018.146-.093.509-.093.717 0 .417.159.5.076.04.076.101 0 .054-.075.107-.074.055-.142.055-.133 0-.22-.183-.085-.182-.085-.52zm-.105-.97q-.228 0-.53.428-.3.425-.3.706 0 .198.13.198.19 0 .526-.382.335-.383.335-.703 0-.247-.161-.247zM12.121 287.499q-.22.37-.451.574-.23.203-.429.203-.114 0-.233-.133-.117-.132-.117-.408 0-.226.109-.665.091-.367.091-.515.05-.103.157-.103.072 0 .115.051.043.05.043.105 0 .121-.084.343-.16.433-.16.743 0 .282.13.282.168 0 .426-.284.259-.284.443-.792.072-.204.117-.264.047-.062.124-.062.117 0 .117.155 0 .019-.033.126-.103.377-.103.713 0 .403.133.522.069.064.069.103 0 .048-.071.088-.069.04-.126.04-.12 0-.194-.18-.074-.179-.074-.528v-.057l.001-.057zM13.456 286.297q.023-.016.05-.016.043 0 .073.116 0 .074-.04.187-.117.326-.117.455 0 .034.02.038.397-.38.734-.38.209 0 .35.158.141.156.141.287 0 .4-.408.769-.407.367-.82.367-.184 0-.288-.152-.101-.153-.101-.438 0-.308.077-.682.078-.373.124-.5.02-.053.035-.108.017-.069.17-.101zm-.08 1.08q-.035.19-.035.382 0 .26.205.26.23 0 .517-.275.286-.276.286-.536 0-.107-.057-.18-.057-.072-.157-.072-.136 0-.269.07-.13.066-.293.218-.062.059-.1.091-.036.031-.098.042zm1.734.396q0 .13.036.294.007.031.007.052 0 .031-.057.081-.057.048-.12.048-.168 0-.168-.306 0-.305.133-1.023.048-.262.048-.317 0-.109.04-.185.04-.077.112-.077.088 0 .138.043.051.041.051.093t-.024.143q-.134.49-.165.687-.031.196-.031.467zM2.5 293.47h.314v.906l.894-.906h.39l-.738.745.646.92h.245v.751h-.317v-.487h-.096l-.684-.973-.34.344v.629H2.5zM4.938 293.447q.023-.015.05-.015.043 0 .073.115 0 .074-.04.188-.117.325-.117.455 0 .034.02.037.397-.38.734-.38.209 0 .35.158.141.157.141.288 0 .4-.408.768-.407.367-.82.367-.184 0-.288-.152-.101-.153-.101-.437 0-.308.077-.682.078-.374.124-.5.02-.053.035-.108.017-.07.17-.102zm-.08 1.08q-.035.191-.035.383 0 .26.205.26.23 0 .517-.276.286-.276.286-.536 0-.106-.057-.179-.057-.072-.157-.072-.136 0-.269.069-.13.067-.293.219-.062.058-.1.09-.036.032-.098.042zm1.734.396q0 .131.036.295.007.03.007.052 0 .03-.057.08-.057.049-.12.049-.168 0-.168-.307 0-.305.133-1.023.048-.262.048-.317 0-.108.04-.184.04-.078.112-.078.088 0 .138.043.051.042.051.093 0 .052-.024.143-.134.491-.165.688-.031.196-.031.466zM8 294.34q.221.036.345.163.124.128.124.312 0 .29-.246.486-.246.193-.648.193-.239 0-.413-.104-.172-.103-.172-.229 0-.103.119-.103.017 0 .053.029.19.164.45.164.229 0 .394-.12.165-.122.165-.314 0-.128-.094-.212-.093-.086-.217-.086-.095 0-.333.074-.046.015-.1.015-.103 0-.103-.14 0-.048.048-.077.05-.03.212-.067.491-.112.491-.398 0-.086-.062-.141-.06-.057-.157-.057-.179 0-.382.158-.119.093-.181.093-.105 0-.105-.098 0-.129.243-.263.244-.136.468-.136.224 0 .352.119.129.118.129.25 0 .311-.38.488zM9.253 293.447q.023-.015.05-.015.043 0 .073.115 0 .074-.04.188-.117.325-.117.455 0 .034.02.037.397-.38.734-.38.209 0 .35.158.141.157.141.288 0 .4-.408.768-.407.367-.82.367-.184 0-.288-.152-.101-.153-.101-.437 0-.308.077-.682.078-.374.124-.5.02-.053.035-.108.017-.07.17-.102zm-.08 1.08q-.035.191-.035.383 0 .26.205.26.23 0 .517-.276.286-.276.286-.536 0-.106-.057-.179-.057-.072-.157-.072-.136 0-.269.069-.13.067-.293.219-.062.058-.1.09-.036.032-.098.042zm1.734.396q0 .131.036.295.007.03.007.052 0 .03-.057.08-.057.049-.12.049-.168 0-.168-.307 0-.305.133-1.023.048-.262.048-.317 0-.108.04-.184.04-.078.112-.078.088 0 .138.043.051.042.051.093 0 .052-.024.143-.134.491-.165.688-.031.196-.031.466zM13.67 293.89q-.14.224-.393.758-.057.12-.115.232-.02.036-.073.16-.18.42-.315.42-.107 0-.157-.025-.048-.026-.093-.141-.044-.116-.132-.543-.102-.484-.138-.596-.117.264-.209.508-.137.36-.267.588-.129.225-.186.27-.056.047-.108.047-.053 0-.097-.042-.043-.041-.043-.08.01-.071.025-.089.15-.184.258-.392.108-.209.276-.626.168-.416.215-.683.022-.114.167-.114.084 0 .115.026.031.025.06.105.032.079.037.141.01.074.058.329.043.24.057.34.024.142.085.375.062.232.096.232.024 0 .069-.105l.145-.334q.04-.091.084-.179l.198-.405q.162-.334.248-.484.088-.151.117-.182.031-.031.07-.031.065 0 .146.036.08.034.084.077.003.043.016.36l.022.538q.01.256.03.437.022.18.073.29.081.175.081.272 0 .082-.069.113-.067.031-.125.031-.121 0-.186-.192-.064-.193-.093-1.106-.01-.274-.033-.336zM16.031 294.815q0 .176-.311.424-.31.248-.641.248-.277 0-.429-.164-.15-.164-.15-.457 0-.492.333-.937.332-.444.726-.444.13 0 .21.084.083.085.083.204 0 .265-.26.508t-.696.477q-.09.046-.09.12 0 .144.083.23.083.086.245.086.37 0 .756-.41.057-.057.086-.057.055 0 .055.088zm-1.197-.269q.73-.434.73-.698 0-.103-.092-.103-.159 0-.359.233-.198.232-.279.568zM17.692 294.036q-.16.003-.686.95-.177.318-.206.347-.03.028-.109.05-.077.023-.129.023-.115 0-.115-.45 0-.253.108-.916.045-.269.045-.384 0-.114.102-.114.19 0 .19.276 0 .129-.063.506-.074.43-.076.524.107-.104.314-.453.293-.48.43-.607.14-.129.288-.129.112 0 .177.15.068.15.081.715.004.141.026.21.023.069.033.069.08 0 .351-.551.145-.292.281-.443.138-.152.305-.152.14 0 .203.145.064.143.092.425.025.286.079.524.055.238.2.305.098.047.098.109 0 .06-.083.124-.083.063-.151.063-.138 0-.247-.169-.108-.168-.163-.73-.025-.226-.047-.32-.022-.095-.07-.095-.073 0-.173.138-.098.138-.318.56-.173.329-.262.439-.088.108-.17.108-.075 0-.133-.058-.059-.06-.075-.143-.015-.085-.032-.412-.026-.544-.095-.634z"/></g></g></svg>