<svg xmlns="http://www.w3.org/2000/svg" viewBox="0 0 50.9 5.4" height="20.409" width="192.378"><g transform="translate(0 -291.6)" font-weight="400" font-family="Segoe Print" letter-spacing="0" word-spacing="0"><flowRoot transform="matrix(.26458 0 0 .26458 0 226.6)" style="line-height:1.25;-inkscape-font-specification:'Segoe Print';font-variant-ligatures:normal;font-variant-caps:normal;font-variant-numeric:normal;font-feature-settings:normal;text-align:start" xml:space="preserve" font-style="normal" font-variant="normal" font-stretch="normal" font-size="13.333" writing-mode="lr-tb" text-anchor="start" fill="#000" fill-opacity="1" stroke="none"><flowRegion><path d="M7.239 212.992h60.325V251.6H7.239z"/></flowRegion><flowPara/></flowRoot><text y="254.382" x="54.898" style="line-height:2;-inkscape-font-specification:'Segoe Print';font-variant-ligatures:normal;font-variant-caps:normal;font-variant-numeric:normal;font-feature-settings:normal;text-align:start" font-size="3.528" fill="#917c6f" stroke-width=".265"><tspan y="254.382" x="54.898">адамдар</tspan><tspan y="261.532" x="54.898">бөлме ғимарат жобалар</tspan><tspan y="268.682" x="54.898">ғарыш тылсым әлем</tspan><tspan y="275.833" x="54.898">гүлдер</tspan><tspan y="282.983" x="54.898">өсімдіктер</tspan><tspan y="290.134" x="54.898">қалыпталған кескіндер</tspan><tspan y="297.284" x="54.898">қолданыс заттары</tspan><tspan y="304.34" x="54.898">жаныуарлар</tspan><tspan y="311.49" x="54.898">өнер білім спорт</tspan><tspan y="318.546" x="54.898">art education sports</tspan><tspan y="325.707" x="54.898">美術教育スポーツ</tspan><tspan y="332.857" x="54.898">الرياضة التربية الفنية</tspan><tspan y="340.008" x="54.898">сән үлгілері</tspan><tspan y="347.158" x="54.898">тәбиғат</tspan><tspan y="354.214" x="54.898">елмекен</tspan></text><text y="254.36" x="103.499" style="line-height:2;-inkscape-font-specification:'Segoe Print';font-variant-ligatures:normal;font-variant-caps:normal;font-variant-numeric:normal;font-feature-settings:normal;text-align:start" font-size="3.528" fill="#917c6f" stroke-width=".265"><tspan y="254.36" x="103.499">үи</tspan><tspan y="261.51" x="103.499">пәтер</tspan><tspan y="268.661" x="103.499">бөлме алаң</tspan><tspan y="275.811" x="103.499">ғимарат</tspan><tspan y="282.867" x="103.499">жер телімі</tspan><tspan y="290.017" x="103.499">қызымет</tspan></text><g style="line-height:2;-inkscape-font-specification:'Segoe Print';font-variant-ligatures:normal;font-variant-caps:normal;font-variant-numeric:normal;font-feature-settings:normal;text-align:start" aria-label="үи пәтер бөлме алаң ғимарат жер телімі қызымет" font-size="3.528" fill="#917c6f" stroke-width=".265"><path d="M3.35 288.045v.765h-.336v-.765l-.78-1.898h.336l.603 1.509.603-1.51h.335zM5.662 287.327q-.22.37-.452.573-.23.204-.428.204-.114 0-.233-.133-.117-.133-.117-.408 0-.226.108-.665.092-.367.092-.515.05-.104.156-.104.073 0 .116.052.043.05.043.105 0 .12-.085.343-.16.432-.16.742 0 .283.131.283.167 0 .426-.284.258-.285.442-.793.073-.203.117-.263.047-.062.125-.062.117 0 .117.155 0 .019-.033.126-.103.377-.103.713 0 .403.132.522.07.063.07.103 0 .048-.072.088-.068.04-.125.04-.12 0-.195-.18-.074-.179-.074-.529v-.056l.002-.057zM3.531 293.902q-.09 0-.196.117-.105.117-.323.525-.285.548-.37.624-.083.076-.138.076-.203 0-.203-.197 0-.082.028-.234.094-.52.094-1.097 0-.066.055-.145.057-.08.107-.08.09 0 .128.054.038.055.038.222 0 .174-.104.717-.034.18-.034.227 0 .028.014.028.025 0 .239-.412.215-.418.377-.589.162-.17.357-.17.155 0 .251.141.099.141.143.515.049.425.086.53.04.104.124.104.054 0 .135-.038.014-.007.02-.007.075 0 .075.086 0 .076-.102.162-.102.084-.245.084-.146 0-.227-.115-.08-.117-.126-.622-.048-.506-.203-.506zM4.663 294.345v-.155H6.12q-.02-.328-.198-.498-.176-.173-.491-.173-.183 0-.355.045-.17.045-.34.135v-.3q.171-.072.35-.11.18-.038.364-.038.462 0 .73.268.27.27.27.727 0 .474-.256.753-.255.277-.689.277-.39 0-.617-.25-.225-.25-.225-.681zm.317.093q.003.26.144.415.143.155.378.155.265 0 .423-.15.16-.15.185-.422zM8.168 293.864q-.16.003-.686.95-.177.318-.206.347-.03.028-.109.05-.077.022-.129.022-.115 0-.115-.45 0-.252.108-.916.045-.268.045-.384 0-.113.102-.113.19 0 .19.275 0 .13-.063.507-.074.43-.076.523.107-.103.314-.453.293-.479.43-.606.14-.13.288-.13.112 0 .177.15.068.15.081.716.004.14.026.21.023.069.033.069.081 0 .351-.552.145-.29.281-.442.138-.152.305-.152.14 0 .203.145.064.143.092.425.025.286.079.524.055.238.2.305.098.046.098.108 0 .06-.083.124-.082.064-.151.064-.138 0-.247-.169-.108-.169-.163-.73-.024-.226-.047-.32-.022-.095-.07-.095-.073 0-.173.138-.098.137-.318.56-.173.328-.262.439-.088.108-.17.108-.075 0-.133-.058-.059-.06-.074-.143-.016-.085-.033-.412-.026-.544-.095-.634zM11.968 294.643q0 .175-.312.423-.31.248-.64.248-.278 0-.43-.163-.15-.164-.15-.457 0-.492.333-.937.333-.444.727-.444.13 0 .21.084.083.085.083.203 0 .266-.26.509-.26.242-.696.477-.09.046-.09.12 0 .143.083.23.083.086.245.086.37 0 .756-.41.057-.057.086-.057.055 0 .055.088zm-1.197-.27q.73-.433.73-.697 0-.103-.093-.103-.158 0-.358.232-.198.233-.28.569zM12.66 295.027q-.084.31-.158.87l-.048.325q-.012.07-.064.136-.052.07-.095.07-.053 0-.122-.056-.067-.053-.067-.086 0-.095.043-.262.315-1.273.315-2.236l-.002-.144q-.003-.186.066-.27.069-.085.158-.085.042 0 .08.065.037.064.037.183 0 .167-.034.405-.045.3-.046.344.256-.448.544-.7.287-.25.534-.25.174 0 .293.13.12.13.12.322 0 .562-.43 1.02-.431.458-.84.458-.1 0-.161-.051-.059-.052-.123-.188zm1.07-1.387q-.243 0-.601.455t-.358.708q0 .062.07.12.07.059.18.059.246 0 .566-.363.32-.366.32-.717 0-.126-.051-.193-.05-.069-.126-.069zM3.37 300.587q-.065-.177-.302-.384-.224-.193-.224-.33 0-.11.072-.178.072-.069.269-.124.244-.067.498-.152.253-.086.304-.11.033-.015.068-.015.056 0 .056.101 0 .057-.137.155-.138.099-.488.183-.22.055-.27.083-.049.025-.049.053 0 .062.135.18.506.442.506 1.11 0 .288-.151.617-.152.327-.405.487-.252.16-.493.16-.217 0-.329-.211-.112-.212-.112-.467 0-.451.278-.851.279-.4.589-.4.041 0 .103.054.057.051.083.04zm-.75 1.165q0 .19.05.3.051.108.134.108.11 0 .298-.136t.301-.403q.116-.267.116-.5 0-.193-.055-.312-.054-.12-.1-.12-.307 0-.526.374-.218.373-.218.689zM5.024 300.67q-.253 0-.382.167-.127.165-.158.384h1.081q-.03-.219-.16-.384-.127-.167-.38-.167zm.002 1.488q.257 0 .401-.2.145-.2.145-.454H4.48q0 .255.145.454.144.2.401.2zm.002-1.757q.413 0 .65.269.235.269.235.744 0 .474-.236.744-.236.269-.65.269-.414 0-.65-.269-.235-.27-.235-.744 0-.475.235-.744.236-.269.65-.269zM7.302 300.973q-.042-.002-.081.08-.357.712-.54.967l-.04.066q-.214.384-.314.384-.135 0-.135-.13 0-.116.167-.318.162-.191.426-.648.263-.458.427-.821.031-.066.093-.066.026 0 .091.024.068.023.086.05.02.028.085.32.212 1.057.446 1.253.055.048.065.066.01.015.01.044 0 .054-.034.099-.034.043-.067.055-.033.012-.134.012-.036 0-.169-.178-.133-.179-.31-.973-.043-.214-.072-.286zM10.64 300.868q-.14.224-.393.758-.057.12-.115.233-.02.036-.073.16-.18.42-.315.42-.107 0-.157-.026-.048-.026-.093-.141-.044-.115-.132-.543-.102-.484-.138-.596-.117.264-.208.509-.138.36-.267.587-.13.226-.186.27-.057.047-.109.047-.053 0-.096-.041-.044-.042-.044-.081.01-.071.025-.088.15-.185.258-.393.108-.208.276-.625.168-.417.215-.684.022-.114.167-.114.084 0 .115.026t.06.105q.032.08.037.141.01.074.058.33.043.239.057.339.024.143.085.375.062.233.096.233.024 0 .069-.105l.145-.335q.04-.09.084-.179l.198-.404q.162-.335.248-.485.088-.151.117-.182.031-.031.07-.031.065 0 .146.036.08.034.084.078.004.043.016.36l.022.537q.01.257.031.438.02.179.072.289.081.176.081.272 0 .083-.069.114-.067.03-.125.03-.12 0-.186-.192-.064-.193-.093-1.106-.01-.274-.033-.336zM13.002 301.793q0 .176-.312.424-.31.248-.641.248-.277 0-.429-.164-.15-.163-.15-.456 0-.493.333-.937.332-.445.727-.445.129 0 .21.085.082.084.082.203 0 .265-.26.508t-.696.477q-.09.047-.09.12 0 .144.083.23.083.086.245.086.37 0 .756-.41.057-.057.086-.057.056 0 .056.088zm-1.198-.269q.73-.434.73-.697 0-.104-.092-.104-.159 0-.359.233-.198.232-.279.568zM15.933 301.75q-.24.324-.477.486-.236.162-.432.162-.133 0-.23-.112-.096-.112-.096-.288 0-.453.405-.975.405-.524.804-.524.145 0 .216.166.022.055.07.055.138 0 .138.107 0 .053-.017.146-.093.508-.093.717 0 .417.158.5.076.04.076.1 0 .054-.074.108-.074.055-.143.055-.132 0-.219-.183-.086-.182-.086-.52zm-.105-.97q-.227 0-.529.427-.301.426-.301.707 0 .198.13.198.19 0 .526-.383.336-.382.336-.702 0-.247-.162-.247zM17.81 300.973q-.042-.002-.082.08-.356.712-.539.967l-.04.066q-.215.384-.315.384-.134 0-.134-.13 0-.116.167-.318.162-.191.425-.648.264-.458.428-.821.03-.066.093-.066.025 0 .09.024.068.023.087.05.019.028.084.32.212 1.057.447 1.253.055.048.065.066.01.015.01.044 0 .054-.034.099-.035.043-.067.055-.033.012-.135.012-.036 0-.168-.178-.133-.179-.31-.973-.044-.214-.073-.286zM20.11 301.75q-.24.324-.477.486-.236.162-.432.162-.133 0-.23-.112-.096-.112-.096-.288 0-.453.405-.975.405-.524.805-.524.144 0 .215.166.022.055.07.055.138 0 .138.107 0 .053-.017.146-.093.508-.093.717 0 .417.159.5.075.04.075.1 0 .054-.074.108-.074.055-.143.055-.132 0-.218-.183-.087-.182-.087-.52zm-.105-.97q-.227 0-.528.427-.302.426-.302.707 0 .198.131.198.19 0 .525-.383.336-.382.336-.702 0-.247-.162-.247zM21.123 300.448h.317v.794h1.032v-.794h.317v1.665h.317v.751h-.317v-.487h-.317v-.889H21.44v.889h-.317zM2.678 309.527v-.86h-.453v-.294h.453v-.775H4.04v.27H2.995v.505h.717v.293h-.717v.861zM5.657 308.778q-.22.37-.452.574-.23.203-.429.203-.113 0-.232-.133-.117-.132-.117-.408 0-.225.108-.665.091-.367.091-.515.05-.103.157-.103.073 0 .116.052.043.05.043.105 0 .12-.085.342-.16.433-.16.743 0 .282.131.282.167 0 .426-.284.258-.284.442-.792.073-.204.117-.264.047-.062.124-.062.117 0 .117.155 0 .02-.032.126-.104.377-.104.713 0 .403.133.522.069.064.069.103 0 .049-.07.088-.07.04-.126.04-.121 0-.195-.18-.074-.178-.074-.528v-.057l.002-.057zM8.79 308.019q-.14.223-.393.757-.057.121-.115.233-.02.036-.073.16-.18.42-.315.42-.107 0-.157-.025-.048-.026-.093-.142-.044-.115-.132-.542-.102-.484-.138-.596-.117.263-.208.508-.138.36-.267.587-.13.226-.187.27-.056.047-.108.047-.053 0-.096-.041-.044-.041-.044-.081.01-.07.025-.088.15-.184.258-.393.108-.208.276-.625.168-.417.215-.684.022-.113.167-.113.084 0 .115.025.031.026.06.105.032.08.037.142.01.074.058.329.043.24.057.339.024.143.085.376.062.232.096.232.024 0 .069-.105l.145-.334q.04-.091.084-.18l.198-.404q.162-.334.248-.484.088-.152.117-.183.031-.03.07-.03.065 0 .146.035.08.035.084.078.004.043.016.36l.022.537q.01.257.031.438.02.18.072.29.081.175.081.271 0 .083-.069.114-.067.031-.125.031-.12 0-.186-.193-.064-.193-.093-1.106-.01-.274-.033-.336zM10.838 308.9q-.241.324-.477.486-.236.162-.433.162-.132 0-.229-.112-.096-.112-.096-.287 0-.454.405-.975.405-.524.804-.524.145 0 .215.165.023.055.071.055.138 0 .138.107 0 .054-.017.147-.093.508-.093.716 0 .417.158.5.076.041.076.101 0 .054-.074.107-.074.055-.143.055-.133 0-.219-.182-.086-.183-.086-.52zm-.105-.97q-.227 0-.529.428-.301.425-.301.706 0 .198.13.198.19 0 .526-.382.336-.383.336-.703 0-.246-.162-.246zM12.08 309.328q-.084.31-.159.87l-.048.325q-.012.069-.063.136-.052.07-.095.07-.054 0-.123-.056-.067-.053-.067-.086 0-.095.043-.262.316-1.273.316-2.236l-.002-.144q-.004-.187.065-.27.07-.085.159-.085.041 0 .08.065.037.064.037.183 0 .167-.034.404-.045.3-.047.345.257-.448.544-.7.288-.25.534-.25.174 0 .293.13.12.13.12.322 0 .562-.43 1.02-.43.458-.839.458-.101 0-.162-.052-.058-.051-.122-.187zm1.07-1.387q-.243 0-.602.455-.358.455-.358.708 0 .062.07.12.071.059.18.059.246 0 .567-.364.32-.365.32-.716 0-.126-.052-.193-.05-.069-.125-.069zM15.19 308.9q-.242.324-.478.486-.236.162-.432.162-.133 0-.23-.112-.096-.112-.096-.287 0-.454.405-.975.405-.524.804-.524.145 0 .216.165.022.055.07.055.138 0 .138.107 0 .054-.017.147-.093.508-.093.716 0 .417.158.5.076.041.076.101 0 .054-.074.107-.074.055-.143.055-.133 0-.219-.182-.086-.183-.086-.52zm-.106-.97q-.227 0-.529.428-.301.425-.301.706 0 .198.13.198.19 0 .526-.382.336-.383.336-.703 0-.246-.162-.246zM17.4 308.165q-.161.003-.686.95-.178.318-.207.347-.03.028-.109.05-.077.022-.129.022-.115 0-.115-.45 0-.252.108-.916.045-.268.045-.384 0-.113.102-.113.19 0 .19.275 0 .13-.063.507-.074.43-.076.523.107-.103.314-.453.293-.479.43-.606.14-.13.288-.13.112 0 .178.15.067.15.08.715.004.142.026.21.023.07.033.07.081 0 .352-.552.144-.29.28-.442.138-.152.305-.152.14 0 .203.145.064.143.092.425.026.286.079.524.055.238.2.305.098.046.098.108 0 .06-.083.124-.082.064-.151.064-.138 0-.247-.169-.108-.169-.163-.73-.024-.226-.047-.32-.022-.095-.07-.095-.073 0-.173.138-.098.137-.318.56-.173.328-.262.439-.088.108-.17.108-.075 0-.133-.058-.059-.06-.074-.143-.016-.085-.033-.412-.026-.544-.095-.634zM3.808 315.8q-.022.387-.074.759-.026.07-.13.07-.152 0-.152-.155 0-.063.036-.237.026-.152.027-.205.002-.055.01-.12.006-.065-.003-.102-.088.012-.358.21-.27.198-.463.392v-.002q-.012.007-.076.13-.091.182-.202.182-.051 0-.115-.045-.062-.044-.062-.09 0-.106.2-.316.201-.212.444-.362.296-.182.408-.294-.05-.071-.194-.155-.147-.087-.272-.193l-.042-.031q-.222-.15-.296-.224-.072-.076-.072-.162 0-.057.043-.104.043-.048.084-.048.026 0 .093.028.067.027.097.058l.084.08q.446.437.706.556.014 0 .035-.033.017-.058.017-.187 0-.121-.026-.27-.014-.078-.014-.102 0-.081.062-.131.064-.05.138-.05.085 0 .116.034.03.034.03.117l-.022.548v.034q0 .024.002.04.06 0 .126-.047.065-.048.194-.189.567-.587.657-.587.05 0 .09.04.042.042.042.097 0 .028-.19.235-.187.205-.387.377-.257.22-.257.229 0 .012.214.18.23.18.319.256.012.009.034.022.255.157.319.234.064.078.064.131 0 .05-.043.104-.044.051-.085.051-.153 0-.711-.515-.248-.23-.3-.242-.022-.003-.034-.01-.018-.004-.062-.001-.045.002-.049.013zM6.893 316q0 .175-.311.423-.31.248-.641.248-.278 0-.43-.164-.149-.163-.149-.456 0-.493.332-.937.333-.445.727-.445.13 0 .21.085.083.084.083.203 0 .265-.26.508t-.696.477q-.09.047-.09.12 0 .144.083.23.083.086.245.086.37 0 .756-.41.057-.057.086-.057.055 0 .055.088zm-1.197-.27q.73-.434.73-.697 0-.104-.092-.104-.159 0-.359.233-.198.232-.279.568zM7.586 316.383q-.085.31-.159.87l-.048.326q-.012.069-.064.136-.051.069-.094.069-.054 0-.123-.055-.067-.054-.067-.087 0-.094.043-.261.315-1.273.315-2.236L7.388 315q-.004-.186.065-.27.07-.085.159-.085.041 0 .079.066.038.063.038.182 0 .167-.035.405-.044.3-.046.345.257-.448.544-.7.288-.251.534-.251.174 0 .293.13.12.13.12.323 0 .561-.43 1.02-.43.458-.839.458-.102 0-.162-.052-.058-.052-.122-.188zm1.07-1.386q-.243 0-.602.454-.358.455-.358.708 0 .062.07.12.071.06.18.06.246 0 .567-.364.32-.365.32-.717 0-.125-.052-.193-.05-.068-.125-.068zM12.245 315.22q-.16.003-.685.95-.178.318-.207.348-.03.027-.108.05-.078.022-.13.022-.115 0-.115-.45 0-.253.108-.916.045-.269.045-.384 0-.114.102-.114.191 0 .191.276 0 .129-.064.506-.074.43-.075.524.106-.103.313-.453.293-.479.43-.606.14-.13.288-.13.112 0 .178.15.067.15.08.715.004.141.027.21.022.07.032.07.081 0 .352-.552.144-.291.28-.443.138-.151.305-.151.14 0 .204.144.063.143.09.426.027.286.08.523.055.238.2.305.098.047.098.109 0 .06-.083.124-.082.064-.151.064-.138 0-.246-.17-.109-.168-.164-.73-.024-.225-.047-.32-.022-.095-.07-.095-.073 0-.172.138-.099.138-.32.56-.171.329-.261.44-.088.108-.17.108-.075 0-.133-.059-.059-.06-.074-.143-.016-.084-.033-.412-.026-.544-.095-.633zM16.045 316q0 .175-.312.423-.31.248-.64.248-.278 0-.43-.164-.15-.163-.15-.456 0-.493.333-.937.333-.445.727-.445.13 0 .21.085.083.084.083.203 0 .265-.26.508t-.696.477q-.09.047-.09.12 0 .144.083.23.083.086.245.086.37 0 .756-.41.057-.057.086-.057.055 0 .055.088zm-1.197-.27q.73-.434.73-.697 0-.104-.093-.104-.158 0-.358.233-.198.232-.279.568zM17.372 315.18q-.042-.003-.081.078-.357.713-.54.968l-.04.066q-.214.384-.314.384-.135 0-.135-.13 0-.116.167-.318.162-.191.426-.647.263-.459.427-.822.031-.066.093-.066.026 0 .091.024.068.023.087.05.018.028.084.32.212 1.057.446 1.253.055.048.066.066.01.015.01.044 0 .054-.035.099-.034.043-.067.055-.033.012-.134.012-.036 0-.169-.178-.133-.179-.31-.973-.043-.214-.072-.286zM19.067 314.277q-.037 0-.056-.078-.006-.024-.018-.053-.047-.112-.047-.195 0-.069.081-.14.083-.072.183-.072.05 0 .112.04.062.038.062.074 0 .057-.044.193-.04.136-.134.184-.091.047-.14.047zm-.226 1.924q0 .13.036.294.007.031.007.052 0 .03-.057.08t-.12.05q-.167 0-.167-.308 0-.316.13-1.002.045-.24.045-.295 0-.108.04-.184.04-.077.112-.077.088 0 .138.043.051.041.051.093 0 .051-.024.136-.129.455-.16.65-.031.197-.031.468zM21.73 315.074q-.14.224-.393.758-.057.12-.115.233-.02.036-.073.16-.18.42-.315.42-.107 0-.157-.026-.048-.026-.093-.141-.045-.115-.132-.543-.102-.484-.138-.596-.117.264-.209.509-.138.36-.267.587-.129.226-.186.27-.057.047-.108.047-.054 0-.097-.041-.043-.042-.043-.081.01-.071.024-.088.15-.185.259-.393.108-.208.275-.625.17-.417.216-.684.022-.114.167-.114.084 0 .115.026t.06.105q.031.08.037.141.01.074.058.33.043.239.057.339.024.143.084.375.062.233.097.233.024 0 .069-.105l.144-.335q.04-.09.085-.179l.198-.405q.162-.334.248-.484.088-.151.117-.182.031-.031.07-.031.065 0 .145.036.081.034.085.078.003.043.015.36l.023.537q.01.257.03.437.021.18.073.29.081.176.081.272 0 .083-.069.114-.067.03-.126.03-.12 0-.186-.192-.063-.193-.093-1.106-.01-.274-.032-.336zM23.171 314.277q-.036 0-.055-.078-.007-.024-.019-.053-.046-.112-.046-.195 0-.069.08-.14.084-.072.183-.072.05 0 .112.04.062.038.062.074 0 .057-.043.193-.041.136-.134.184-.091.047-.14.047zm-.225 1.924q0 .13.036.294.007.031.007.052 0 .03-.057.08t-.12.05q-.168 0-.168-.308 0-.316.131-1.002.045-.24.045-.295 0-.108.04-.184.04-.077.112-.077.087 0 .137.043.052.041.052.093 0 .051-.024.136-.13.455-.16.65-.031.197-.031.468zM2.45 321.804h.314v.906l.894-.906h.39l-.738.746.646.92h.245v.751h-.317v-.487h-.096l-.684-.974-.34.345v.629H2.45zM4.888 321.782q.023-.016.05-.016.043 0 .073.116 0 .074-.04.188-.117.325-.117.454 0 .035.02.038.397-.38.734-.38.209 0 .35.158.141.157.141.288 0 .4-.408.768-.406.367-.82.367-.184 0-.288-.152-.101-.153-.101-.437 0-.309.077-.682.078-.374.124-.5.02-.053.035-.108.017-.07.17-.102zm-.08 1.08q-.035.191-.035.382 0 .26.205.26.23 0 .517-.275.286-.276.286-.536 0-.107-.057-.18-.057-.071-.157-.071-.136 0-.269.069-.13.067-.293.218-.062.059-.1.092-.036.03-.098.04zm1.734.396q0 .131.036.295.007.03.007.051 0 .031-.057.081-.057.049-.12.049-.167 0-.167-.307 0-.305.132-1.023.048-.262.048-.317 0-.109.04-.185.04-.077.112-.077.088 0 .138.043.051.041.051.093t-.024.143q-.134.491-.165.687-.031.197-.031.467zM7.95 322.674q.221.036.346.164.124.127.124.312 0 .29-.247.485-.246.193-.647.193-.24 0-.414-.103-.172-.103-.172-.23 0-.103.119-.103.017 0 .053.03.19.163.45.163.229 0 .394-.12.166-.12.166-.314 0-.127-.095-.212-.093-.086-.217-.086-.095 0-.333.074-.046.016-.1.016-.103 0-.103-.14 0-.048.048-.077.05-.03.212-.067.491-.112.491-.398 0-.086-.062-.141-.06-.057-.157-.057-.179 0-.382.158-.119.093-.181.093-.105 0-.105-.098 0-.13.243-.264.244-.136.468-.136.224 0 .352.12.129.118.129.249 0 .312-.38.49zM9.203 321.782q.023-.016.05-.016.043 0 .073.116 0 .074-.04.188-.117.325-.117.454 0 .035.02.038.397-.38.734-.38.209 0 .35.158.141.157.141.288 0 .4-.408.768-.407.367-.82.367-.184 0-.288-.152-.101-.153-.101-.437 0-.309.077-.682.078-.374.124-.5.02-.053.035-.108.017-.07.17-.102zm-.08 1.08q-.035.191-.035.382 0 .26.205.26.23 0 .517-.275.286-.276.286-.536 0-.107-.057-.18-.057-.071-.157-.071-.136 0-.269.069-.13.067-.293.218-.062.059-.1.092-.036.03-.098.04zm1.734.396q0 .131.036.295.007.03.007.051 0 .031-.057.081-.057.049-.12.049-.167 0-.167-.307 0-.305.132-1.023.048-.262.048-.317 0-.109.04-.185.04-.077.112-.077.088 0 .138.043.051.041.051.093t-.024.143q-.134.491-.165.687-.031.197-.031.467zM13.62 322.225q-.14.223-.393.757-.057.121-.115.233-.02.036-.073.16-.18.42-.315.42-.107 0-.157-.025-.048-.026-.093-.142-.044-.115-.132-.542-.102-.484-.138-.596-.117.263-.208.508-.138.36-.267.587-.13.226-.186.27-.057.047-.109.047-.053 0-.096-.041-.044-.041-.044-.081.01-.07.025-.088.15-.184.258-.393.108-.208.276-.625.168-.417.215-.684.022-.113.167-.113.084 0 .115.025.031.026.06.105.032.08.037.142.01.074.058.329.043.24.057.339.024.143.085.376.062.232.096.232.024 0 .069-.105l.145-.334q.04-.091.084-.18l.198-.404q.162-.334.248-.484.088-.152.117-.183.031-.03.07-.03.065 0 .146.035.08.035.084.078.004.043.016.36l.022.537q.01.257.031.438.02.18.072.29.081.175.081.272 0 .082-.069.113-.067.031-.125.031-.12 0-.186-.193-.064-.193-.093-1.106-.01-.273-.033-.336zM15.982 323.15q0 .175-.312.423-.31.248-.641.248-.277 0-.429-.163-.15-.164-.15-.457 0-.492.333-.937.332-.444.727-.444.129 0 .21.084.082.085.082.203 0 .266-.26.509-.26.242-.696.477-.09.046-.09.12 0 .143.083.23.083.085.245.085.37 0 .756-.41.057-.056.086-.056.056 0 .056.088zm-1.198-.27q.73-.433.73-.697 0-.103-.092-.103-.159 0-.359.232-.198.233-.279.569zM17.642 322.371q-.16.003-.686.95-.177.318-.206.347-.03.028-.109.05-.077.022-.129.022-.115 0-.115-.45 0-.252.108-.916.045-.268.045-.384 0-.113.102-.113.19 0 .19.275 0 .13-.063.507-.074.43-.076.523.107-.103.314-.453.293-.479.43-.606.14-.13.288-.13.112 0 .178.15.067.15.08.716.004.14.026.21.023.069.033.069.081 0 .351-.552.145-.29.281-.442.138-.152.305-.152.14 0 .203.145.064.143.092.425.025.286.079.524.055.238.2.305.098.046.098.108 0 .06-.083.124-.082.064-.151.064-.138 0-.247-.169-.108-.169-.163-.73-.024-.226-.047-.32-.022-.095-.07-.095-.073 0-.173.138-.098.137-.318.56-.173.328-.262.439-.088.108-.17.108-.075 0-.133-.058-.059-.06-.074-.143-.016-.085-.033-.412-.026-.544-.095-.634z"/></g></g></svg>