<svg xmlns="http://www.w3.org/2000/svg" viewBox="0 0 70.9 5.4" height="20.409" width="267.969"><g transform="translate(0 -291.6)" font-weight="400" font-family="Segoe Print" letter-spacing="0" word-spacing="0"><flowRoot transform="matrix(.26458 0 0 .26458 0 226.6)" style="line-height:1.25;-inkscape-font-specification:'Segoe Print';font-variant-ligatures:normal;font-variant-caps:normal;font-variant-numeric:normal;font-feature-settings:normal;text-align:start" xml:space="preserve" font-style="normal" font-variant="normal" font-stretch="normal" font-size="13.333" writing-mode="lr-tb" text-anchor="start" fill="#000" fill-opacity="1" stroke="none"><flowRegion><path d="M7.239 212.992h60.325V251.6H7.239z"/></flowRegion><flowPara/></flowRoot><text y="254.382" x="114.134" style="line-height:2;-inkscape-font-specification:'Segoe Print';font-variant-ligatures:normal;font-variant-caps:normal;font-variant-numeric:normal;font-feature-settings:normal;text-align:start" font-size="3.528" fill="#917c6f" stroke-width=".265"><tspan y="254.382" x="114.134">адамдар</tspan><tspan y="261.532" x="114.134">бөлме ғимарат жобалар</tspan><tspan y="268.682" x="114.134">ғарыш тылсым әлем</tspan><tspan y="275.833" x="114.134">гүлдер</tspan><tspan y="282.983" x="114.134">өсімдіктер</tspan><tspan y="290.134" x="114.134">қалыпталған кескіндер</tspan><tspan y="297.284" x="114.134">қолданыс заттары</tspan><tspan y="304.34" x="114.134">жаныуарлар</tspan><tspan y="311.49" x="114.134">өнер білім спорт</tspan><tspan y="318.546" x="114.134">art education sports</tspan><tspan y="325.707" x="114.134">美術教育スポーツ</tspan><tspan y="332.857" x="114.134">الرياضة التربية الفنية</tspan><tspan y="340.008" x="114.134">сән үлгілері</tspan><tspan y="347.158" x="114.134">тәбиғат</tspan><tspan y="354.214" x="114.134">елмекен</tspan></text><text y="254.36" x="162.734" style="line-height:2;-inkscape-font-specification:'Segoe Print';font-variant-ligatures:normal;font-variant-caps:normal;font-variant-numeric:normal;font-feature-settings:normal;text-align:start" font-size="3.528" fill="#917c6f" stroke-width=".265"><tspan y="254.36" x="162.734">үи</tspan><tspan y="261.51" x="162.734">пәтер</tspan><tspan y="268.661" x="162.734">бөлме алаң</tspan><tspan y="275.811" x="162.734">ғимарат</tspan><tspan y="282.867" x="162.734">жер телімі</tspan><tspan y="290.017" x="162.734">қызымет</tspan></text><text y="253.736" x="190.455" style="line-height:2;-inkscape-font-specification:'Segoe Print';font-variant-ligatures:normal;font-variant-caps:normal;font-variant-numeric:normal;font-feature-settings:normal;text-align:start" font-size="3.528" fill="#917c6f" stroke-width=".265"><tspan y="253.736" x="190.455">жеңіл</tspan><tspan y="260.792" x="190.455">жолаушылар</tspan><tspan y="267.942" x="190.455">жүк</tspan><tspan y="275.093" x="190.455">қызыметтік</tspan><tspan y="282.148" x="190.455">белсебет</tspan><tspan y="289.204" x="190.455">мотосекл</tspan><tspan y="296.354" x="190.455">сұу</tspan><tspan y="303.505" x="190.455">әуе</tspan><tspan y="310.655" x="190.455">қызымет</tspan></text><text y="253.832" x="223.203" style="line-height:2;-inkscape-font-specification:'Segoe Print';font-variant-ligatures:normal;font-variant-caps:normal;font-variant-numeric:normal;font-feature-settings:normal;text-align:start" font-size="3.528" fill="#917c6f" stroke-width=".265"><tspan y="253.832" x="223.203">нан өнімдері</tspan><tspan y="260.983" x="223.203">сұусын</tspan><tspan y="268.133" x="223.203">кәмпит</tspan><tspan y="275.189" x="223.203">торт</tspan><tspan y="282.339" x="223.203">жеміс жидек көкөніс</tspan><tspan y="289.49" x="223.203">қаинатпа</tspan><tspan y="296.64" x="223.203">тұздалған</tspan><tspan y="303.79" x="223.203">қызымет</tspan></text><text y="253.707" x="265.973" style="line-height:2;-inkscape-font-specification:'Segoe Print';font-variant-ligatures:normal;font-variant-caps:normal;font-variant-numeric:normal;font-feature-settings:normal;text-align:start" font-size="3.528" fill="#917c6f" stroke-width=".265"><tspan y="253.707" x="265.973">бас кіиім</tspan><tspan y="260.858" x="265.973">үстіңгі</tspan><tspan y="268.008" x="265.973">астыңғы</tspan><tspan y="275.158" x="265.973">аиақ</tspan><tspan y="282.214" x="265.973">спорт</tspan><tspan y="289.27" x="265.973">балалар</tspan><tspan y="296.325" x="265.973">арнаиы</tspan><tspan y="303.476" x="265.973">қызымет</tspan></text><text y="253.509" x="288.034" style="line-height:2;-inkscape-font-specification:'Segoe Print';font-variant-ligatures:normal;font-variant-caps:normal;font-variant-numeric:normal;font-feature-settings:normal;text-align:start" font-size="3.528" fill="#917c6f" stroke-width=".265"><tspan y="253.509" x="288.034">ас үи</tspan><tspan y="260.659" x="288.034">құрал</tspan><tspan y="267.81" x="288.034">құрылғы</tspan><tspan y="274.96" x="288.034">бақша</tspan><tspan y="282.016" x="288.034">оиын</tspan><tspan y="289.166" x="288.034">зат-қызымет</tspan></text><text y="253.434" x="319.277" style="line-height:2;-inkscape-font-specification:'Segoe Print';font-variant-ligatures:normal;font-variant-caps:normal;font-variant-numeric:normal;font-feature-settings:normal;text-align:start" font-size="3.528" fill="#917c6f" stroke-width=".265"><tspan y="253.434" x="319.277">әк үнтақ</tspan><tspan y="260.489" x="319.277">боиау</tspan><tspan y="267.64" x="319.277">түс қағаз</tspan><tspan y="274.79" x="319.277">кірпіш тұтас бетон</tspan><tspan y="281.941" x="319.277">ағаш пластік ұқсастар</tspan><tspan y="289.091" x="319.277">метал көмпөзіт ұқсастар</tspan><tspan y="296.147" x="319.277">есік терезе</tspan><tspan y="303.297" x="319.277">су кәріз жылытыу ауа тораптары</tspan><tspan y="310.448" x="319.277">електр басқа желілер</tspan><tspan y="317.598" x="319.277">сәулет сәндеу жобалау</tspan><tspan y="324.749" x="319.277">қызымет</tspan></text><text y="309.637" x="300.914" style="line-height:1.25;-inkscape-font-specification:'Segoe Print';font-variant-ligatures:normal;font-variant-caps:normal;font-variant-numeric:normal;font-feature-settings:normal;text-align:start" font-size="3.528" stroke-width=".265"/><g style="line-height:2;-inkscape-font-specification:'Segoe Print';font-variant-ligatures:normal;font-variant-caps:normal;font-variant-numeric:normal;font-feature-settings:normal;text-align:start" aria-label="әк үнтақ боиау түс қағаз кірпіш тұтас бетон ағаш пластік ұқсастар метал көмпөзіт ұқсастар есік терезе су кәріз жылытыу ауа тораптары електр басқа желілер сәулет сәндеу жобалау қызымет" font-size="3.528" fill="#917c6f" stroke-width=".265"><path d="M2.192 244.54v-.155H3.65q-.02-.327-.198-.498-.175-.172-.49-.172-.183 0-.355.045-.171.045-.34.134v-.3q.17-.072.35-.11.179-.038.363-.038.462 0 .73.27.271.268.271.726 0 .474-.257.753-.254.277-.689.277-.389 0-.616-.25-.226-.251-.226-.682zm.317.093q.004.26.145.415.143.155.377.155.265 0 .424-.15.16-.15.184-.421zM4.747 244.516q.408-.07.732-.527.151-.212.265-.3.115-.09.245-.09.051 0 .103.047t.052.11q0 .085-.16.133-.085.026-.159.088t-.28.296q-.163.183-.292.257-.012.007-.012.012 0 .007.016.014.125.067.265.26.203.28.305.355.101.072.232.072l.057-.002q.06-.003.06.054 0 .065-.074.136-.074.07-.244.07-.131 0-.255-.112-.123-.113-.281-.367-.091-.15-.17-.227-.08-.078-.176-.078-.02 0-.128.035-.107.034-.12.067-.012.031-.02.23-.004.196-.004.316 0 .064-.06.114-.061.05-.132.05-.072 0-.113-.043-.042-.042-.042-.086 0-.062.047-.293.083-.42.165-1.387.007-.093.07-.167.065-.076.146-.076.044 0 .074.048.03.049.03.124 0 .06-.02.138-.098.357-.122.729zM8.824 245.391v.765h-.336v-.765l-.78-1.898h.336l.602 1.509.603-1.509h.336zM11.187 244.297q.02-.036.06-.432.032-.317.202-.317.14 0 .14.14 0 .032-.025.132-.132.55-.132.922 0 .403.132.522.07.063.07.103 0 .048-.071.088-.07.04-.126.04-.269 0-.269-.83 0-.056-.041-.056-.162 0-.396.02-.234.018-.336.047-.1.03-.124.055-.023.025-.041.133-.018.107-.018.222v.212q0 .185-.169.185-.14 0-.14-.185 0-.12.03-.306.057-.341.114-1.175.007-.109.019-.138.012-.03.062-.064.052-.036.112-.036.124 0 .124.102 0 .015-.04.258-.041.243-.041.377 0 .095.065.095.131 0 .48-.043.347-.045.36-.07zM13.296 244.06q-.16.003-.686.949-.177.319-.207.348-.029.027-.108.05-.078.022-.13.022-.115 0-.115-.45 0-.253.109-.916.045-.269.045-.384 0-.114.101-.114.191 0 .191.276 0 .13-.063.506-.074.431-.076.524.107-.103.313-.453.293-.479.431-.606.14-.13.288-.13.112 0 .177.15.067.15.081.715.003.141.026.21.022.07.033.07.08 0 .351-.552.145-.291.28-.443.139-.151.306-.151.14 0 .203.144.064.143.091.426.026.286.08.524.055.237.2.304.097.047.097.109 0 .06-.082.124-.083.064-.152.064-.138 0-.246-.17-.109-.168-.164-.73-.024-.225-.046-.32-.023-.095-.07-.095-.073 0-.173.138-.098.138-.319.56-.172.329-.262.44-.087.108-.17.108-.074 0-.133-.059-.058-.06-.074-.143-.015-.084-.033-.411-.025-.545-.094-.634zM16.782 244.795q-.241.324-.477.486-.236.162-.432.162-.133 0-.23-.112-.096-.112-.096-.288 0-.453.405-.975.405-.523.804-.523.145 0 .216.165.022.055.07.055.138 0 .138.107 0 .053-.017.146-.093.509-.093.717 0 .417.158.5.076.04.076.101 0 .054-.074.107-.074.055-.143.055-.133 0-.219-.183-.086-.182-.086-.52zm-.105-.97q-.227 0-.529.428-.301.425-.301.706 0 .198.13.198.19 0 .526-.382.336-.383.336-.703 0-.247-.162-.247zM17.783 243.493h.315v.906l.894-.906h.39l-.738.746.646.92h.245v.75h-.317v-.487h-.097l-.684-.973-.339.345v.628h-.315zM3.24 250.688q-.066-.177-.304-.384-.224-.193-.224-.33 0-.111.073-.178.072-.07.268-.124.245-.067.498-.152.253-.086.305-.11.033-.016.067-.016.057 0 .057.102 0 .057-.138.155-.137.098-.487.183-.22.055-.27.082-.049.026-.049.054 0 .062.135.179.506.443.506 1.111 0 .288-.152.617-.151.327-.404.487-.252.16-.493.16-.217 0-.33-.212-.111-.211-.111-.466 0-.452.277-.851.28-.4.59-.4.04 0 .103.053.057.052.082.04zm-.752 1.165q0 .19.05.3.052.108.135.108.11 0 .298-.136.187-.136.301-.403.116-.267.116-.5 0-.193-.056-.312-.053-.12-.1-.12-.306 0-.525.374-.219.373-.219.689zM4.549 252.564q-.236 0-.39-.18-.153-.178-.153-.442 0-.444.298-.875.3-.432.717-.432.275 0 .446.212.172.211.172.504 0 .448-.355.83-.353.383-.735.383zm-.24-.667q0 .174.072.285.075.11.195.11.257 0 .515-.281.259-.282.259-.627 0-.212-.1-.343-.099-.132-.266-.132-.277 0-.477.34-.198.34-.198.648zM7.256 251.728q-.22.37-.45.574-.232.203-.43.203-.114 0-.232-.132-.118-.133-.118-.409 0-.225.109-.664.091-.367.091-.515.05-.104.157-.104.072 0 .115.052.044.05.044.105 0 .12-.085.343-.16.432-.16.742 0 .283.13.283.168 0 .426-.285.259-.284.443-.792.072-.203.117-.263.047-.062.124-.062.117 0 .117.155 0 .018-.032.125-.104.378-.104.713 0 .404.133.522.069.064.069.104 0 .048-.07.088-.07.04-.127.04-.12 0-.194-.18-.074-.18-.074-.529v-.057l.001-.056zM9.353 251.85q-.241.325-.477.487-.236.161-.433.161-.132 0-.229-.111-.096-.112-.096-.288 0-.453.404-.975.405-.524.805-.524.145 0 .215.166.023.055.07.055.139 0 .139.106 0 .054-.018.147-.093.508-.093.716 0 .417.159.5.076.041.076.102 0 .053-.074.106-.074.056-.143.056-.133 0-.22-.183-.085-.183-.085-.52zm-.105-.969q-.228 0-.53.427-.3.426-.3.706 0 .199.13.199.19 0 .526-.383.336-.382.336-.703 0-.246-.162-.246zM11.535 251.87q-.262.246-.523.386-.262.14-.402.14-.16 0-.256-.137-.095-.138-.095-.338 0-.29.11-.687.112-.398.17-.451.06-.054.156-.054.051 0 .08.062.03.06.03.124 0 .044-.04.112-.225.391-.225.808 0 .097.036.17.036.073.11.073.095 0 .233-.057.14-.058.313-.19.174-.13.234-.21.06-.082.085-.185.026-.104.036-.448.01-.345.167-.345.093 0 .12.05.028.049.028.186 0 .104-.03.448-.008.078-.01.143-.05.92-.275 1.442-.226.522-.656.522-.338 0-.602-.177-.261-.176-.261-.298 0-.057.025-.112.028-.056.07-.056.02 0 .044.033.226.346.694.346.298 0 .446-.365.149-.363.188-.935zM3.527 258.266q-.16.003-.685.949-.178.319-.207.348-.03.027-.109.05-.077.022-.129.022-.115 0-.115-.45 0-.253.108-.916.045-.269.045-.384 0-.114.102-.114.19 0 .19.276 0 .13-.063.506-.074.431-.076.524.107-.103.314-.453.293-.479.43-.606.14-.13.288-.13.112 0 .178.15.067.15.08.715.004.141.026.21.023.07.033.07.081 0 .351-.552.145-.291.281-.443.138-.151.305-.151.14 0 .203.144.064.143.092.426.026.286.079.524.055.237.2.304.098.047.098.109 0 .06-.083.124-.082.064-.151.064-.138 0-.247-.17-.108-.168-.163-.73-.024-.225-.047-.32-.022-.095-.07-.095-.073 0-.173.138-.098.138-.318.56-.173.329-.262.44-.088.108-.17.108-.075 0-.133-.059-.059-.06-.074-.143-.016-.084-.033-.411-.026-.545-.095-.634zM6.845 259.597v.765h-.336v-.765l-.78-1.898h.335l.603 1.509.603-1.509h.336zM8.41 259.726q-.258 0-.397-.148-.138-.148-.138-.415 0-.45.356-.947.357-.5.664-.5.14 0 .239.152.102.15.102.319 0 .101-.045.175-.043.073-.088.073-.1 0-.141-.202-.047-.217-.135-.217-.179 0-.423.425-.245.426-.245.719t.332.293q.254 0 .596-.238.121-.084.178-.084.058 0 .058.067 0 .13-.308.33-.308.199-.604.199zM11.23 257.699h.316v.906l.894-.906h.389l-.737.746.646.92h.244v.75h-.317v-.487h-.096l-.684-.973-.34.345v.628h-.315zM14.43 259.001q-.24.324-.476.486-.236.162-.433.162-.132 0-.229-.112-.096-.112-.096-.288 0-.453.405-.975.404-.523.804-.523.145 0 .215.165.023.055.07.055.139 0 .139.107 0 .053-.018.146-.093.509-.093.717 0 .417.159.5.076.04.076.101 0 .054-.074.107-.074.055-.143.055-.133 0-.22-.183-.085-.182-.085-.52zm-.104-.97q-.228 0-.53.428-.3.425-.3.706 0 .198.13.198.19 0 .526-.382.336-.383.336-.703 0-.247-.162-.247zM15.66 259.628v-.861h-.452v-.293h.453v-.775h1.36v.27h-1.043v.505h.716v.293h-.716v.861zM18.584 259.001q-.241.324-.477.486-.236.162-.433.162-.132 0-.229-.112-.096-.112-.096-.288 0-.453.405-.975.404-.523.804-.523.145 0 .215.165.023.055.071.055.138 0 .138.107 0 .053-.017.146-.093.509-.093.717 0 .417.158.5.076.04.076.101 0 .054-.074.107-.074.055-.143.055-.133 0-.219-.183-.086-.182-.086-.52zm-.105-.97q-.228 0-.529.428-.301.425-.301.706 0 .198.13.198.19 0 .526-.382.336-.383.336-.703 0-.247-.162-.247zM20.336 258.569q.222.036.346.164.124.127.124.311 0 .291-.246.486-.247.193-.648.193-.24 0-.413-.103-.173-.104-.173-.23 0-.103.12-.103.016 0 .053.03.189.163.45.163.228 0 .394-.12.165-.121.165-.314 0-.127-.095-.212-.093-.086-.217-.086-.095 0-.332.074-.047.016-.1.016-.104 0-.104-.14 0-.048.049-.077.05-.03.212-.068.49-.112.49-.397 0-.087-.062-.142-.06-.056-.156-.056-.18 0-.383.158-.119.093-.18.093-.106 0-.106-.098 0-.13.243-.264.245-.136.469-.136.224 0 .351.119.13.119.13.25 0 .312-.381.489zM2.576 265.873q.408-.07.732-.527.152-.212.266-.3.115-.09.244-.09.052 0 .104.047.051.046.051.11 0 .084-.16.133-.084.025-.158.088-.075.062-.281.296-.162.182-.291.257-.012.007-.012.012 0 .007.015.013.126.068.265.26.204.281.305.355.102.073.233.073l.057-.002q.06-.003.06.053 0 .066-.074.136t-.245.07q-.13 0-.255-.111-.122-.114-.28-.367-.092-.15-.171-.227-.08-.078-.176-.078-.02 0-.127.034-.107.035-.12.068-.013.03-.02.229-.005.196-.005.317 0 .063-.06.113t-.131.05q-.072 0-.114-.043-.041-.041-.041-.086 0-.062.046-.293.083-.42.166-1.386.007-.093.07-.167.064-.076.145-.076.045 0 .074.048.031.048.031.124 0 .06-.02.138-.099.356-.123.729zM4.805 264.472q-.036 0-.055-.077-.007-.024-.019-.054-.046-.112-.046-.194 0-.07.08-.14.083-.072.183-.072.05 0 .112.04.062.037.062.074 0 .056-.043.193-.041.136-.134.184-.092.046-.14.046zm-.225 1.924q0 .131.036.295.007.03.007.052 0 .03-.057.079-.057.05-.12.05-.168 0-.168-.307 0-.317.131-1.002.045-.24.045-.295 0-.108.04-.184.04-.078.111-.078.088 0 .138.043.052.042.052.093 0 .052-.024.136-.13.455-.16.652-.031.196-.031.466zM5.603 266.579q-.085.31-.159.87l-.048.325q-.012.07-.064.136-.051.07-.094.07-.054 0-.123-.056-.067-.053-.067-.086 0-.095.043-.262.315-1.273.315-2.236l-.001-.144q-.004-.186.065-.27.069-.085.159-.085.04 0 .079.065.038.064.038.183 0 .167-.035.405-.045.3-.046.344.256-.448.544-.699.288-.252.534-.252.174 0 .293.131.12.13.12.323 0 .561-.43 1.02-.43.457-.839.457-.102 0-.162-.051-.059-.052-.122-.188zm1.07-1.387q-.243 0-.602.455-.358.455-.358.708 0 .062.07.12.071.06.18.06.246 0 .566-.364.32-.365.32-.717 0-.126-.05-.193-.05-.069-.127-.069zM8.724 265.454q-.09 0-.196.117-.105.117-.322.526-.286.547-.37.623-.084.076-.139.076-.203 0-.203-.196 0-.083.028-.235.094-.52.094-1.097 0-.065.056-.145.056-.08.106-.08.09 0 .128.054.038.056.038.223 0 .174-.104.716-.034.18-.034.228 0 .027.014.027.026 0 .24-.411.214-.419.376-.59.162-.17.357-.17.155 0 .251.141.099.141.143.515.049.426.087.53.04.104.124.104.053 0 .134-.038.014-.007.02-.007.075 0 .075.086 0 .076-.102.162-.102.085-.245.085-.146 0-.227-.116-.08-.117-.126-.622-.048-.506-.203-.506zM10.445 264.472q-.036 0-.055-.077-.007-.024-.02-.054-.046-.112-.046-.194 0-.07.081-.14.083-.072.183-.072.05 0 .112.04.062.037.062.074 0 .056-.043.193-.042.136-.135.184-.09.046-.14.046zm-.226 1.924q0 .131.036.295.007.03.007.052 0 .03-.057.079-.056.05-.12.05-.167 0-.167-.307 0-.317.13-1.002.045-.24.045-.295 0-.108.04-.184.04-.078.112-.078.088 0 .138.043.052.042.052.093 0 .052-.025.136-.129.455-.16.652-.03.196-.03.466zM13.256 266.03q-.22.37-.451.573-.231.203-.43.203-.113 0-.232-.132-.117-.133-.117-.409 0-.14.03-.311-.164.323-.42.556-.258.233-.46.233-.096 0-.211-.114-.114-.114-.114-.307 0-.222.02-.334.015-.102.025-.21.01-.086.024-.162.067-.37.052-.477.036-.122.167-.122.052 0 .1.043.05.041.05.137 0 .159-.07.397-.095.318-.095.565 0 .134.018.208.021.074.09.074.227 0 .512-.403.286-.403.453-.84.074-.199.186-.199.072 0 .115.052.043.05.043.105 0 .12-.084.343-.16.425-.16.725 0 .283.13.283.06 0 .143-.042.087-.04.212-.167.126-.127.245-.311.12-.187.152-.27.03-.084.125-.394.06-.201.11-.272.052-.072.133-.072.117 0 .117.155 0 .019-.032.126-.049.165-.081.42-.033.253-.033.418 0 .403.132.522.07.064.07.104 0 .048-.071.088-.07.04-.126.04-.12 0-.195-.18-.074-.18-.074-.529v-.057l.002-.056zM16.839 265.416q-.16.003-.686.95-.177.318-.206.347-.03.028-.109.05-.077.023-.13.023-.114 0-.114-.45 0-.253.108-.916.045-.269.045-.384 0-.114.101-.114.192 0 .192.276 0 .129-.064.506-.074.43-.076.524.107-.104.314-.453.292-.48.43-.607.14-.129.288-.129.112 0 .177.15.068.15.081.715.004.141.026.21.023.069.033.069.08 0 .351-.551.145-.292.281-.443.138-.152.305-.152.14 0 .203.145.064.143.092.425.025.286.079.524.055.238.2.305.098.047.098.109 0 .06-.083.124-.083.063-.151.063-.138 0-.247-.169-.108-.168-.163-.73-.025-.226-.047-.32-.022-.095-.07-.095-.073 0-.173.138-.098.138-.319.56-.172.329-.261.439-.088.108-.17.108-.075 0-.134-.058-.058-.06-.074-.143-.015-.085-.032-.412-.026-.544-.095-.634zM20.918 264.85l-.761 1.898v.151h.45v.293h-.45v.32h-.336v-.32h-.47v-.293h.47v-.151l-.78-1.898h.335l.603 1.508.603-1.508zM22.553 265.416q-.16.003-.686.95-.177.318-.207.347-.029.028-.108.05-.078.023-.13.023-.115 0-.115-.45 0-.253.109-.916.045-.269.045-.384 0-.114.101-.114.191 0 .191.276 0 .129-.063.506-.074.43-.076.524.107-.104.313-.453.293-.48.431-.607.14-.129.288-.129.112 0 .177.15.067.15.081.715.003.141.026.21.022.069.033.069.08 0 .351-.551.145-.292.28-.443.139-.152.306-.152.14 0 .203.145.064.143.091.425.026.286.08.524.055.238.2.305.097.047.097.109 0 .06-.082.124-.083.063-.152.063-.138 0-.246-.169-.109-.168-.164-.73-.024-.226-.046-.32-.023-.095-.07-.095-.073 0-.173.138-.098.138-.319.56-.172.329-.262.439-.088.108-.17.108-.074 0-.133-.058-.058-.06-.074-.143-.015-.085-.033-.412-.025-.544-.094-.634zM26.04 266.152q-.242.324-.478.486-.236.161-.432.161-.133 0-.23-.112-.096-.111-.096-.287 0-.453.405-.975.405-.524.804-.524.145 0 .216.166.022.055.07.055.138 0 .138.106 0 .054-.017.147-.093.508-.093.716 0 .417.158.5.076.041.076.102 0 .053-.074.106-.074.056-.143.056-.133 0-.219-.183t-.086-.52zm-.106-.97q-.227 0-.529.427-.301.426-.301.706 0 .198.13.198.19 0 .526-.382t.336-.703q0-.246-.162-.246zM27.419 266.877q-.259 0-.398-.148-.138-.148-.138-.415 0-.45.357-.948.356-.5.663-.5.14 0 .24.152.1.15.1.319 0 .102-.044.176-.043.072-.088.072-.1 0-.141-.202-.046-.217-.134-.217-.18 0-.424.426-.245.425-.245.718t.333.293q.253 0 .596-.238.12-.084.177-.084.059 0 .059.067 0 .131-.309.33-.308.199-.604.199zM31.16 264.989q-.065-.177-.303-.384-.224-.193-.224-.33 0-.111.072-.178.073-.07.27-.124.244-.067.497-.152.253-.086.305-.11.033-.016.067-.016.057 0 .057.102 0 .057-.138.155t-.487.183q-.22.055-.27.082-.05.026-.05.054 0 .062.135.179.507.443.507 1.11 0 .289-.152.618-.151.327-.405.487-.251.16-.492.16-.217 0-.33-.212-.111-.211-.111-.466 0-.452.277-.851.28-.4.59-.4.04 0 .103.053.056.052.082.04zm-.75 1.164q0 .192.05.3.05.109.133.109.11 0 .298-.136t.302-.403q.115-.267.115-.5 0-.193-.055-.312-.053-.12-.1-.12-.306 0-.525.373-.219.374-.219.69zM33.51 266.195q0 .176-.312.424-.31.248-.64.248-.278 0-.43-.164-.15-.164-.15-.457 0-.492.333-.937.332-.444.727-.444.129 0 .21.084.083.085.083.204 0 .265-.26.508t-.696.477q-.09.046-.09.12 0 .144.083.23.082.086.244.086.37 0 .756-.41.057-.057.087-.057.055 0 .055.088zm-1.197-.269q.73-.434.73-.698 0-.103-.093-.103-.159 0-.358.233-.198.232-.28.568zM35.17 265.416q-.16.003-.685.95-.178.318-.207.347-.03.028-.109.05-.077.023-.129.023-.115 0-.115-.45 0-.253.108-.916.045-.269.045-.384 0-.114.102-.114.191 0 .191.276 0 .129-.064.506-.074.43-.076.524.107-.104.314-.453.293-.48.43-.607.14-.129.288-.129.112 0 .178.15.067.15.08.715.004.141.027.21.022.069.032.069.081 0 .352-.551.144-.292.28-.443.138-.152.305-.152.14 0 .204.145.063.143.09.425.027.286.08.524.055.238.2.305.098.047.098.109 0 .06-.083.124-.082.063-.151.063-.138 0-.246-.169-.109-.168-.164-.73-.024-.226-.047-.32-.022-.095-.07-.095-.073 0-.172.138-.099.138-.32.56-.171.329-.261.439-.088.108-.17.108-.075 0-.133-.058-.059-.06-.074-.143-.016-.085-.033-.412-.026-.544-.095-.634zM37.999 266.865q-.236 0-.39-.18-.153-.178-.153-.442 0-.444.298-.875.3-.432.717-.432.275 0 .446.212.172.211.172.504 0 .448-.355.83-.353.383-.735.383zm-.24-.667q0 .174.073.284.074.11.194.11.257 0 .515-.28.259-.283.259-.627 0-.212-.1-.343-.098-.132-.265-.132-.278 0-.478.34-.198.34-.198.648zM40.758 265.654q.02-.036.06-.432.032-.317.202-.317.14 0 .14.14 0 .032-.025.132-.132.55-.132.921 0 .403.132.522.07.064.07.104 0 .048-.071.088-.07.04-.126.04-.269 0-.269-.831 0-.055-.041-.055-.162 0-.396.019-.235.019-.336.048-.1.03-.124.055-.023.024-.042.133-.017.106-.017.222v.212q0 .184-.169.184-.14 0-.14-.184 0-.12.03-.307.057-.341.114-1.175.007-.108.019-.138.012-.029.062-.063.052-.036.112-.036.124 0 .124.101 0 .016-.04.259-.041.242-.041.377 0 .095.065.095.131 0 .48-.044.347-.044.36-.07zM3.388 273.302q-.242.324-.478.486-.236.162-.432.162-.133 0-.229-.112-.097-.112-.097-.288 0-.453.405-.975.405-.523.805-.523.144 0 .215.165.022.055.07.055.138 0 .138.107 0 .053-.017.146-.093.508-.093.717 0 .417.159.5.075.04.075.101 0 .053-.074.107-.074.055-.143.055-.132 0-.218-.183-.086-.182-.086-.52zm-.106-.97q-.227 0-.528.428-.302.425-.302.706 0 .198.131.198.19 0 .526-.382.335-.383.335-.703 0-.247-.162-.247zM4.617 273.93v-.862h-.453v-.293h.453V272h1.361v.27H4.934v.505h.717v.293h-.717v.861zM7.54 273.302q-.24.324-.477.486-.236.162-.432.162-.133 0-.229-.112t-.096-.288q0-.453.404-.975.405-.523.805-.523.144 0 .215.165.022.055.07.055.139 0 .139.107 0 .053-.018.146-.093.508-.093.717 0 .417.159.5.076.04.076.101 0 .053-.075.107-.074.055-.142.055-.133 0-.22-.183-.085-.182-.085-.52zm-.104-.97q-.228 0-.53.428-.3.425-.3.706 0 .198.13.198.19 0 .526-.382.335-.383.335-.703 0-.247-.161-.247zM10.796 273.18q-.22.37-.451.574-.23.203-.429.203-.114 0-.233-.133-.117-.132-.117-.408 0-.141.03-.312-.164.324-.42.557-.257.232-.459.232-.096 0-.212-.114-.113-.113-.113-.306 0-.222.019-.334.015-.102.025-.21.01-.087.024-.162.068-.37.052-.478.036-.122.167-.122.052 0 .1.043.05.041.05.138 0 .158-.07.396-.095.319-.095.565 0 .135.019.209.02.074.09.074.227 0 .51-.403.287-.403.454-.841.074-.198.186-.198.072 0 .115.052.043.05.043.105 0 .12-.084.342-.16.426-.16.726 0 .282.13.282.06 0 .144-.041.086-.041.212-.167.125-.128.244-.312.12-.186.152-.269.03-.084.125-.394.06-.202.11-.272.052-.073.133-.073.117 0 .117.155 0 .02-.032.126-.048.165-.081.42-.033.254-.033.419 0 .403.133.522.069.064.069.103 0 .048-.071.088-.069.04-.126.04-.12 0-.194-.18-.074-.179-.074-.528v-.057l.001-.057zM14.252 272.605q-.09 0-.197.117-.105.117-.322.525-.286.548-.37.624-.083.075-.138.075-.203 0-.203-.196 0-.083.027-.234.095-.52.095-1.097 0-.066.055-.145.057-.081.107-.081.09 0 .127.055.038.055.038.222 0 .174-.103.717-.034.179-.034.227 0 .028.013.028.026 0 .24-.412.215-.419.377-.59.162-.17.357-.17.155 0 .251.142.098.14.143.515.048.425.086.53.04.104.124.104.054 0 .135-.038.013-.007.02-.007.074 0 .074.086 0 .076-.101.162-.102.084-.245.084-.146 0-.227-.115-.08-.117-.126-.622-.048-.507-.203-.507zM16.384 272.525q-.041-.002-.08.08-.357.713-.54.968-.015.022-.04.065-.215.384-.315.384-.134 0-.134-.129 0-.117.167-.319.162-.19.425-.647.264-.459.428-.822.03-.066.093-.066.025 0 .09.025.068.022.087.05.019.027.084.32.212 1.056.447 1.252.055.048.065.066.01.015.01.044 0 .054-.034.099-.035.043-.067.055-.033.012-.135.012-.036 0-.168-.178-.133-.179-.31-.973-.044-.213-.073-.286zM18.686 273.302q-.242.324-.478.486-.236.162-.432.162-.133 0-.23-.112-.096-.112-.096-.288 0-.453.405-.975.405-.523.805-.523.144 0 .215.165.022.055.07.055.138 0 .138.107 0 .053-.017.146-.093.508-.093.717 0 .417.159.5.075.04.075.101 0 .053-.074.107-.074.055-.143.055-.132 0-.218-.183-.087-.182-.087-.52zm-.106-.97q-.227 0-.528.428-.302.425-.302.706 0 .198.131.198.19 0 .525-.382.336-.383.336-.703 0-.247-.162-.247zM20.065 274.027q-.258 0-.398-.148-.137-.148-.137-.415 0-.45.356-.947.357-.5.663-.5.14 0 .24.152.101.15.101.318 0 .102-.044.176-.043.073-.088.073-.1 0-.142-.202-.046-.217-.134-.217-.179 0-.424.425-.244.426-.244.719t.332.293q.253 0 .596-.238.12-.085.178-.085.058 0 .058.068 0 .13-.308.33-.308.198-.605.198zM22.684 272.567q-.16.003-.686.949-.177.318-.207.348-.029.027-.108.05-.078.022-.13.022-.115 0-.115-.45 0-.253.109-.916.044-.269.044-.384 0-.114.102-.114.191 0 .191.276 0 .13-.063.506-.075.43-.076.524.107-.103.313-.453.293-.479.43-.606.14-.13.289-.13.112 0 .177.15.067.15.08.715.004.141.027.21.022.07.033.07.08 0 .35-.552.146-.291.282-.443.137-.151.305-.151.14 0 .203.144.064.143.091.426.026.286.08.524.055.237.2.304.097.047.097.109 0 .06-.082.124-.083.064-.152.064-.138 0-.246-.17-.109-.168-.164-.73-.024-.225-.046-.32-.023-.095-.071-.095-.072 0-.172.138-.098.138-.319.56-.172.329-.262.44-.088.108-.17.108-.074 0-.133-.059-.058-.06-.074-.143-.015-.084-.033-.411-.026-.545-.094-.634zM25.564 271.623q-.037 0-.055-.078-.007-.024-.02-.053-.046-.112-.046-.195 0-.069.081-.14.083-.072.183-.072.05 0 .112.04.062.038.062.074 0 .057-.043.193-.042.136-.135.184-.091.047-.14.047zm-.226 1.924q0 .13.036.294.007.031.007.052 0 .031-.057.08-.057.05-.12.05-.167 0-.167-.307 0-.317.13-1.003.045-.24.045-.295 0-.108.04-.184.04-.077.112-.077.088 0 .138.043.051.041.051.093 0 .051-.024.136-.129.455-.16.651t-.031.467zM26.378 273.023q.409-.07.732-.527.152-.212.266-.3.115-.09.244-.09.052 0 .104.047.051.047.051.11 0 .085-.16.133-.084.026-.158.088t-.281.296q-.162.183-.291.257-.012.007-.012.012 0 .007.015.014.126.067.266.26.203.28.304.355.102.072.233.072l.057-.002q.06-.003.06.053 0 .066-.074.136-.074.071-.245.071-.13 0-.254-.112-.123-.114-.281-.367-.092-.15-.17-.227-.08-.078-.177-.078-.02 0-.127.035-.107.034-.12.067-.013.031-.02.23-.005.195-.005.316 0 .064-.06.114t-.13.05q-.073 0-.115-.044-.04-.04-.04-.086 0-.062.046-.292.082-.42.165-1.387.007-.093.07-.167.064-.076.145-.076.045 0 .074.048.031.048.031.124 0 .06-.02.138-.099.357-.123.729zM31.217 272l-.761 1.898v.152h.451v.293h-.451v.32h-.336v-.32h-.47v-.293h.47v-.152L29.34 272h.335l.603 1.509.603-1.509zM31.643 272h.315v.906l.894-.906h.389l-.737.746.646.92h.244v.75h-.317v-.487h-.096l-.684-.973-.34.345v.628h-.314zM34.152 274.027q-.258 0-.398-.148-.137-.148-.137-.415 0-.45.356-.947.357-.5.663-.5.14 0 .24.152.101.15.101.318 0 .102-.044.176-.043.073-.088.073-.1 0-.142-.202-.046-.217-.134-.217-.179 0-.424.425-.244.426-.244.719t.332.293q.253 0 .596-.238.12-.085.178-.085.058 0 .058.068 0 .13-.308.33-.308.198-.605.198zM36.631 273.302q-.241.324-.477.486-.236.162-.433.162-.132 0-.229-.112-.096-.112-.096-.288 0-.453.405-.975.405-.523.804-.523.145 0 .215.165.023.055.071.055.138 0 .138.107 0 .053-.017.146-.093.508-.093.717 0 .417.158.5.076.04.076.101 0 .053-.074.107-.074.055-.143.055-.133 0-.219-.183-.086-.182-.086-.52zm-.105-.97q-.227 0-.529.428-.301.425-.301.706 0 .198.13.198.19 0 .526-.382.336-.383.336-.703 0-.247-.162-.247zM38.01 274.027q-.258 0-.397-.148-.138-.148-.138-.415 0-.45.357-.947.356-.5.663-.5.14 0 .24.152.1.15.1.318 0 .102-.044.176-.043.073-.088.073-.1 0-.141-.202-.047-.217-.134-.217-.18 0-.424.425-.245.426-.245.719t.333.293q.253 0 .596-.238.12-.085.177-.085.059 0 .059.068 0 .13-.309.33-.308.198-.604.198zM40.629 272.567q-.16.003-.686.949-.177.318-.206.348-.03.027-.109.05-.077.022-.129.022-.115 0-.115-.45 0-.253.108-.916.045-.269.045-.384 0-.114.102-.114.19 0 .19.276 0 .13-.063.506-.074.43-.076.524.107-.103.314-.453.293-.479.43-.606.14-.13.288-.13.112 0 .177.15.068.15.081.715.004.141.026.21.023.07.033.07.081 0 .351-.552.145-.291.281-.443.138-.151.305-.151.14 0 .203.144.064.143.092.426.025.286.079.524.055.237.2.304.098.047.098.109 0 .06-.083.124-.082.064-.151.064-.138 0-.247-.17-.108-.168-.163-.73-.024-.225-.047-.32-.022-.095-.07-.095-.073 0-.173.138-.098.138-.318.56-.173.329-.262.44-.088.108-.17.108-.075 0-.133-.059-.059-.06-.074-.143-.016-.084-.033-.411-.026-.545-.095-.634zM44.115 273.302q-.24.324-.477.486-.236.162-.432.162-.133 0-.23-.112-.096-.112-.096-.288 0-.453.405-.975.405-.523.805-.523.144 0 .215.165.022.055.07.055.138 0 .138.107 0 .053-.017.146-.093.508-.093.717 0 .417.159.5.075.04.075.101 0 .053-.074.107-.074.055-.143.055-.132 0-.218-.183-.087-.182-.087-.52zm-.105-.97q-.227 0-.528.428-.302.425-.302.706 0 .198.131.198.19 0 .525-.382.336-.383.336-.703 0-.247-.162-.247zM45.357 273.73q-.084.31-.158.87l-.048.325q-.012.069-.064.136-.052.069-.095.069-.053 0-.122-.055-.067-.054-.067-.086 0-.095.043-.262.315-1.273.315-2.236l-.002-.145q-.003-.186.066-.27.069-.085.158-.085.042 0 .08.066.037.064.037.183 0 .167-.034.404-.045.3-.047.345.257-.448.545-.7.287-.251.534-.251.174 0 .293.13.12.13.12.323 0 .562-.43 1.02-.431.458-.84.458-.1 0-.161-.052-.059-.051-.123-.188zm1.07-1.387q-.243 0-.601.455-.358.454-.358.707 0 .062.07.121t.18.059q.246 0 .566-.364.32-.365.32-.716 0-.126-.051-.193-.05-.07-.126-.07zM4.425 279.57q-.14.225-.393.759-.057.12-.116.232-.019.036-.072.16-.18.42-.315.42-.107 0-.157-.025-.048-.026-.093-.141-.045-.116-.133-.543-.101-.484-.137-.596-.118.264-.209.508-.138.36-.267.588-.129.225-.186.27-.057.047-.108.047-.054 0-.097-.042-.043-.041-.043-.08.01-.071.024-.089.15-.184.259-.392.108-.209.275-.626.169-.417.216-.684.022-.113.167-.113.084 0 .115.026.031.025.06.105.031.079.036.14.01.075.059.33.043.24.057.34.024.142.084.375.062.232.097.232.024 0 .069-.105l.144-.334q.04-.091.085-.18l.198-.404q.162-.334.248-.484.088-.152.117-.183.031-.03.069-.03.065 0 .146.036.081.034.085.077.003.043.015.36l.023.538q.01.256.03.437.021.18.073.29.081.175.081.272 0 .082-.069.113-.067.031-.126.031-.12 0-.186-.193-.063-.192-.093-1.105-.01-.274-.032-.336zM6.786 280.496q0 .175-.312.424-.31.248-.64.248-.278 0-.43-.164-.15-.164-.15-.457 0-.492.333-.937.333-.444.727-.444.13 0 .21.084.083.085.083.204 0 .265-.26.508t-.696.477q-.09.046-.09.12 0 .143.083.23.083.086.245.086.37 0 .756-.41.057-.057.086-.057.055 0 .055.088zm-1.197-.269q.73-.434.73-.698 0-.103-.093-.103-.158 0-.358.233-.198.232-.279.568zM8.447 279.717q-.16.003-.686.95-.177.318-.207.347-.029.028-.108.05-.078.023-.13.023-.115 0-.115-.45 0-.253.109-.916.045-.269.045-.384 0-.114.101-.114.191 0 .191.275 0 .13-.063.507-.074.43-.076.524.107-.104.313-.453.293-.48.431-.607.14-.129.288-.129.112 0 .177.15.067.15.081.715.004.141.026.21t.033.069q.08 0 .351-.551.145-.292.28-.443.139-.152.306-.152.14 0 .203.145.064.143.091.425.026.286.08.524.055.238.2.305.097.046.097.108 0 .06-.082.125-.083.063-.152.063-.138 0-.246-.169-.109-.168-.164-.73-.024-.226-.046-.32-.023-.095-.07-.095-.073 0-.173.138-.098.138-.319.56-.172.329-.262.439-.087.108-.17.108-.074 0-.133-.058-.058-.06-.074-.143-.015-.085-.033-.412-.025-.544-.094-.634zM11.933 280.453q-.241.324-.477.485-.236.162-.432.162-.133 0-.23-.112-.096-.112-.096-.287 0-.453.405-.975.405-.524.804-.524.145 0 .216.166.022.055.07.055.138 0 .138.106 0 .054-.017.147-.093.508-.093.716 0 .417.158.5.076.041.076.102 0 .053-.074.106-.074.055-.143.055-.133 0-.219-.182-.086-.183-.086-.52zm-.105-.97q-.227 0-.529.427-.301.426-.301.706 0 .198.13.198.19 0 .526-.382t.336-.703q0-.246-.162-.246zM13.809 279.676q-.041-.002-.081.079-.357.713-.54.968-.015.023-.039.066-.215.384-.315.384-.134 0-.134-.13 0-.117.167-.318.162-.191.425-.648.264-.458.427-.821.031-.066.093-.066.026 0 .092.024.067.023.086.05.019.028.084.32.212 1.056.446 1.253.056.048.066.065.01.016.01.045 0 .053-.034.098-.035.043-.067.055-.033.012-.135.012-.036 0-.169-.177-.132-.18-.31-.973-.043-.214-.072-.286zM16.71 280.174q.408-.07.732-.527.151-.212.265-.3.116-.09.245-.09.051 0 .103.047.052.046.052.11 0 .084-.16.133-.085.025-.159.088-.074.062-.28.296-.163.182-.292.256-.012.007-.012.013 0 .007.016.013.125.068.265.26.203.281.305.355.101.073.232.073l.057-.002q.06-.003.06.053 0 .066-.074.136t-.244.07q-.131 0-.255-.111-.122-.114-.28-.367-.092-.15-.171-.228-.08-.077-.176-.077-.02 0-.128.034-.106.035-.12.068-.012.03-.02.229-.004.196-.004.317 0 .063-.06.113t-.132.05q-.072 0-.113-.043-.042-.041-.042-.086 0-.062.047-.293.083-.42.165-1.386.007-.093.07-.168.065-.075.146-.075.044 0 .074.048t.03.124q0 .06-.02.138-.098.356-.122.728zM19.232 279.373q-.254 0-.383.167-.127.165-.158.384h1.081q-.03-.219-.16-.384-.127-.167-.38-.167zm.001 1.488q.257 0 .402-.2.144-.2.144-.455h-1.092q0 .255.145.455t.401.2zm.002-1.757q.413 0 .65.269.235.268.235.744 0 .474-.236.744-.236.269-.65.269-.414 0-.65-.269-.234-.27-.234-.744 0-.476.234-.744.236-.269.65-.269zM22.74 279.57q-.14.225-.392.759-.057.12-.116.232-.019.036-.072.16-.181.42-.315.42-.107 0-.157-.025-.048-.026-.093-.141-.045-.116-.133-.543-.101-.484-.138-.596-.117.264-.208.508-.138.36-.267.588-.13.225-.186.27-.057.047-.109.047-.053 0-.096-.042-.043-.041-.043-.08.01-.071.024-.089.15-.184.258-.392.109-.209.276-.626.169-.417.215-.684.023-.113.167-.113.085 0 .116.026.03.025.06.105.031.079.036.14.01.075.059.33.043.24.057.34.024.142.084.375.062.232.097.232.024 0 .069-.105l.144-.334q.04-.091.085-.18l.198-.404q.162-.334.248-.484.088-.152.117-.183.03-.03.069-.03.065 0 .146.036.081.034.085.077.003.043.015.36l.022.538q.01.256.032.437.02.18.072.29.08.175.08.272 0 .082-.068.113-.067.031-.126.031-.12 0-.186-.193-.064-.192-.093-1.105-.01-.274-.033-.336zM24.8 279.755q-.089 0-.196.117-.105.117-.322.526-.286.547-.37.623-.083.076-.138.076-.203 0-.203-.196 0-.083.027-.235.095-.52.095-1.097 0-.065.055-.145.057-.08.107-.08.09 0 .127.054.038.056.038.223 0 .174-.103.716-.035.18-.035.228 0 .027.014.027.026 0 .24-.411.215-.42.377-.59.162-.17.356-.17.155 0 .252.141.098.141.143.515.048.426.086.53.04.104.124.104.053 0 .134-.038.014-.007.021-.007.074 0 .074.086 0 .076-.101.162-.102.085-.245.085-.146 0-.227-.116-.08-.117-.126-.622-.048-.506-.203-.506zM26.814 279.373q-.253 0-.382.167-.128.165-.159.384h1.082q-.03-.219-.16-.384-.128-.167-.38-.167zm.002 1.488q.257 0 .401-.2.145-.2.145-.455H26.27q0 .255.145.455.144.2.4.2zm.002-1.757q.413 0 .649.269.236.268.236.744 0 .474-.236.744-.236.269-.65.269-.415 0-.65-.269-.235-.27-.235-.744 0-.476.234-.744.236-.269.652-.269zM28.967 280.02q.223.037.347.164.124.127.124.312 0 .29-.247.486-.246.192-.647.192-.24 0-.414-.103-.172-.103-.172-.229 0-.103.119-.103.017 0 .053.029.19.164.45.164.229 0 .394-.121.166-.12.166-.314 0-.127-.095-.211-.093-.086-.217-.086-.095 0-.333.074-.046.015-.1.015-.103 0-.103-.14 0-.048.048-.077.05-.03.212-.067.491-.112.491-.398 0-.086-.062-.141-.06-.057-.157-.057-.179 0-.382.158-.119.093-.18.093-.106 0-.106-.098 0-.129.243-.263.245-.136.468-.136.224 0 .352.118.13.12.13.25 0 .312-.382.49zM30.376 278.773q-.036 0-.055-.077-.007-.024-.019-.054-.046-.112-.046-.194 0-.07.08-.14.083-.072.183-.072.05 0 .112.04.062.037.062.074 0 .056-.043.192-.041.137-.134.185-.091.046-.14.046zm-.225 1.924q0 .131.036.295.007.03.007.052 0 .03-.057.079-.057.05-.12.05-.168 0-.168-.307 0-.317.131-1.002.045-.24.045-.295 0-.108.04-.184.04-.078.112-.078.087 0 .137.043.052.042.052.093 0 .052-.024.136-.13.455-.16.652-.031.196-.031.466zM32.142 279.717q-.16.003-.686.95-.177.318-.206.347-.03.028-.109.05-.077.023-.129.023-.115 0-.115-.45 0-.253.108-.916.045-.269.045-.384 0-.114.102-.114.19 0 .19.275 0 .13-.063.507-.074.43-.076.524.107-.104.314-.453.293-.48.43-.607.14-.129.288-.129.112 0 .177.15.068.15.081.715.004.141.026.21.023.069.033.069.081 0 .351-.551.145-.292.281-.443.138-.152.305-.152.14 0 .203.145.064.143.092.425.025.286.079.524.055.238.2.305.098.046.098.108 0 .06-.083.125-.082.063-.151.063-.138 0-.247-.169-.108-.168-.163-.73-.024-.226-.047-.32-.022-.095-.07-.095-.073 0-.173.138-.098.138-.318.56-.173.329-.262.439-.088.108-.17.108-.075 0-.133-.058-.059-.06-.074-.143-.016-.085-.033-.412-.026-.544-.095-.634zM37.632 279.15l-.762 1.899v.151h.452v.293h-.452v.32h-.335v-.32h-.47v-.293h.47v-.151l-.78-1.899h.335l.603 1.51.603-1.51zM38.057 279.15h.316v.907l.894-.907h.389l-.737.746.646.92h.244v.751h-.317v-.487h-.096l-.684-.974-.34.345v.629h-.315zM40.567 281.178q-.258 0-.398-.148-.138-.148-.138-.415 0-.45.357-.948.356-.5.663-.5.14 0 .24.152.101.15.101.319 0 .102-.045.176-.043.072-.088.072-.1 0-.14-.202-.047-.217-.135-.217-.18 0-.424.426-.244.425-.244.718t.332.293q.253 0 .596-.238.12-.084.177-.084.059 0 .059.067 0 .131-.308.33-.309.199-.605.199zM43.046 280.453q-.241.324-.477.485-.236.162-.433.162-.132 0-.229-.112-.096-.112-.096-.287 0-.453.405-.975.404-.524.804-.524.145 0 .215.166.023.055.07.055.139 0 .139.106 0 .054-.018.147-.093.508-.093.716 0 .417.159.5.076.041.076.102 0 .053-.074.106-.074.055-.143.055-.133 0-.22-.182-.085-.183-.085-.52zm-.105-.97q-.228 0-.53.427-.3.426-.3.706 0 .198.13.198.19 0 .526-.382t.336-.703q0-.246-.162-.246zM44.426 281.178q-.259 0-.398-.148-.138-.148-.138-.415 0-.45.356-.948.357-.5.664-.5.14 0 .239.152.102.15.102.319 0 .102-.045.176-.043.072-.088.072-.1 0-.141-.202-.047-.217-.135-.217-.179 0-.423.426-.245.425-.245.718t.332.293q.254 0 .596-.238.121-.084.178-.084.058 0 .058.067 0 .131-.308.33t-.604.199zM47.044 279.717q-.16.003-.686.95-.177.318-.206.347-.03.028-.109.05-.078.023-.13.023-.115 0-.115-.45 0-.253.109-.916.045-.269.045-.384 0-.114.101-.114.192 0 .192.275 0 .13-.064.507-.074.43-.076.524.107-.104.314-.453.292-.48.43-.607.14-.129.288-.129.112 0 .177.15.067.15.081.715.004.141.026.21t.033.069q.08 0 .351-.551.145-.292.281-.443.138-.152.305-.152.14 0 .203.145.064.143.091.425.026.286.08.524.055.238.2.305.098.046.098.108 0 .06-.083.125-.083.063-.152.063-.137 0-.246-.169-.108-.168-.164-.73-.024-.226-.046-.32-.022-.095-.07-.095-.073 0-.173.138-.098.138-.319.56-.172.329-.261.439-.088.108-.171.108-.074 0-.133-.058-.058-.06-.074-.143-.015-.085-.032-.412-.026-.544-.095-.634zM50.53 280.453q-.24.324-.477.485-.236.162-.432.162-.133 0-.23-.112-.096-.112-.096-.287 0-.453.405-.975.405-.524.804-.524.145 0 .216.166.022.055.07.055.138 0 .138.106 0 .054-.017.147-.093.508-.093.716 0 .417.158.5.076.041.076.102 0 .053-.074.106-.074.055-.143.055-.133 0-.219-.182-.086-.183-.086-.52zm-.105-.97q-.227 0-.529.427-.301.426-.301.706 0 .198.13.198.19 0 .526-.382t.336-.703q0-.246-.162-.246zM51.772 280.88q-.084.31-.158.87l-.049.325q-.012.07-.063.136-.052.07-.095.07-.053 0-.122-.056-.067-.053-.067-.086 0-.095.043-.262.315-1.273.315-2.236l-.002-.144q-.003-.186.066-.27.068-.085.158-.085.041 0 .08.065.037.064.037.183 0 .167-.034.405-.045.3-.047.344.257-.448.545-.7.287-.25.534-.25.174 0 .292.13.121.13.121.322 0 .562-.43 1.02-.431.458-.84.458-.101 0-.161-.051-.059-.052-.123-.188zm1.07-1.387q-.243 0-.601.455-.359.455-.359.708 0 .062.071.12.07.06.18.06.246 0 .566-.364.32-.365.32-.717 0-.126-.051-.193-.05-.069-.126-.069zM3.701 287.551q0 .176-.312.424-.31.248-.64.248-.278 0-.43-.164-.15-.163-.15-.456 0-.493.333-.937.333-.444.727-.444.13 0 .21.084.083.084.083.203 0 .265-.26.508t-.696.477q-.09.047-.09.121 0 .143.083.23.083.085.245.085.37 0 .756-.41.057-.057.086-.057.055 0 .055.088zm-1.197-.268q.73-.434.73-.698 0-.103-.093-.103-.158 0-.358.232-.198.233-.28.569zM4.531 288.233q-.258 0-.398-.148-.137-.148-.137-.415 0-.45.356-.947.357-.5.663-.5.14 0 .24.152.101.15.101.318 0 .102-.044.176-.043.073-.088.073-.1 0-.141-.202-.047-.217-.135-.217-.179 0-.424.425-.244.426-.244.719t.332.293q.254 0 .596-.238.12-.084.178-.084.058 0 .058.067 0 .13-.308.33-.308.199-.605.199zM6.404 285.829q-.036 0-.055-.078-.007-.024-.02-.053-.046-.112-.046-.195 0-.069.081-.14.083-.072.183-.072.05 0 .112.04.062.038.062.074 0 .057-.043.193-.042.136-.135.184-.091.047-.14.047zm-.226 1.924q0 .13.036.294.007.031.007.052 0 .031-.057.08-.057.05-.12.05-.167 0-.167-.307 0-.317.13-1.003.045-.24.045-.294 0-.109.04-.185.04-.077.112-.077.088 0 .138.043.051.041.051.093t-.024.136q-.129.455-.16.651-.03.196-.03.467zM7.219 287.23q.408-.071.732-.528.151-.212.265-.3.115-.09.244-.09.052 0 .104.047.051.047.051.11 0 .085-.16.133-.084.026-.158.088t-.281.296q-.162.183-.291.257-.012.007-.012.012 0 .007.015.014.126.067.266.26.203.28.305.355.101.072.232.072l.057-.002q.06-.003.06.054 0 .065-.074.136-.074.07-.244.07-.131 0-.255-.112-.123-.113-.281-.367-.091-.15-.17-.227-.08-.078-.176-.078-.021 0-.128.035-.107.034-.12.067-.013.031-.02.23-.005.196-.005.316 0 .064-.06.114t-.13.05q-.073 0-.114-.043-.042-.042-.042-.086 0-.062.047-.293.082-.42.165-1.387.007-.093.07-.167.064-.076.145-.076.045 0 .074.048.031.049.031.124 0 .06-.02.138-.098.357-.122.729zM11.604 286.773q-.16.003-.685.949-.178.319-.207.348-.03.027-.109.05-.077.022-.129.022-.115 0-.115-.45 0-.253.108-.916.045-.269.045-.384 0-.114.102-.114.19 0 .19.276 0 .13-.063.506-.074.431-.076.524.107-.103.314-.453.293-.479.43-.606.14-.13.288-.13.112 0 .178.15.067.15.08.715.004.141.026.21.023.07.033.07.081 0 .351-.552.145-.291.281-.443.138-.151.305-.151.14 0 .203.144.064.143.092.426.026.286.079.524.055.237.2.304.098.047.098.109 0 .06-.083.124-.082.064-.151.064-.138 0-.247-.17-.108-.168-.163-.73-.024-.225-.047-.32-.022-.095-.07-.095-.073 0-.173.138-.098.138-.318.56-.173.329-.262.44-.088.108-.17.108-.075 0-.133-.059-.059-.06-.074-.143-.016-.084-.033-.411-.026-.545-.095-.634zM15.404 287.551q0 .176-.312.424-.31.248-.64.248-.278 0-.43-.164-.15-.163-.15-.456 0-.493.333-.937.333-.444.727-.444.13 0 .21.084.083.084.083.203 0 .265-.26.508t-.696.477q-.09.047-.09.121 0 .143.083.23.083.085.245.085.37 0 .756-.41.057-.057.086-.057.055 0 .055.088zm-1.197-.268q.73-.434.73-.698 0-.103-.093-.103-.158 0-.358.232-.198.233-.28.569zM16.097 287.935q-.085.31-.159.87l-.048.326q-.012.069-.064.136-.052.069-.095.069-.053 0-.122-.055-.067-.054-.067-.086 0-.095.043-.262.315-1.273.315-2.236l-.002-.145q-.003-.186.066-.27.069-.085.158-.085.042 0 .08.066.038.064.038.183 0 .167-.035.404-.045.3-.046.345.256-.448.544-.7.288-.251.534-.251.174 0 .293.13.12.13.12.323 0 .562-.43 1.02-.431.458-.84.458-.1 0-.161-.052-.059-.051-.122-.187zm1.07-1.386q-.244 0-.602.455-.358.454-.358.708 0 .062.07.12.071.059.18.059.246 0 .566-.364.32-.365.32-.716 0-.126-.051-.193-.05-.07-.126-.07zM19.562 287.551q0 .176-.312.424-.31.248-.64.248-.278 0-.43-.164-.15-.163-.15-.456 0-.493.333-.937.333-.444.727-.444.13 0 .21.084.083.084.083.203 0 .265-.26.508t-.696.477q-.09.047-.09.121 0 .143.083.23.083.085.245.085.37 0 .756-.41.057-.057.086-.057.055 0 .055.088zm-1.197-.268q.73-.434.73-.698 0-.103-.093-.103-.158 0-.358.232-.198.233-.279.569zM20.765 287.076q.222.036.346.164.124.127.124.311 0 .291-.246.486-.247.193-.648.193-.24 0-.414-.103-.172-.104-.172-.23 0-.103.12-.103.016 0 .052.03.19.163.45.163.23 0 .395-.12.165-.121.165-.314 0-.127-.095-.212-.093-.086-.217-.086-.095 0-.332.074-.047.016-.1.016-.104 0-.104-.14 0-.048.049-.077.05-.03.211-.068.491-.111.491-.397 0-.087-.062-.142-.06-.056-.156-.056-.18 0-.383.158-.119.093-.18.093-.106 0-.106-.098 0-.13.243-.264.245-.136.469-.136.224 0 .351.119.13.119.13.25 0 .312-.381.489zM23.162 287.551q0 .176-.311.424-.31.248-.641.248-.277 0-.43-.164-.149-.163-.149-.456 0-.493.333-.937.332-.444.726-.444.13 0 .21.084.083.084.083.203 0 .265-.26.508t-.696.477q-.09.047-.09.121 0 .143.083.23.083.085.245.085.37 0 .756-.41.057-.057.086-.057.055 0 .055.088zm-1.197-.268q.73-.434.73-.698 0-.103-.092-.103-.159 0-.359.232-.198.233-.279.569zM2.697 295.384q-.259 0-.398-.148-.138-.148-.138-.415 0-.45.357-.948.356-.5.663-.5.14 0 .24.152.1.15.1.319 0 .102-.044.176-.043.072-.088.072-.1 0-.141-.202-.046-.217-.134-.217-.18 0-.424.426-.245.425-.245.718t.333.293q.253 0 .596-.238.12-.084.177-.084.059 0 .059.067 0 .131-.309.33-.308.199-.604.199zM5.288 294.678q-.262.246-.524.386t-.401.14q-.16 0-.257-.137-.095-.138-.095-.338 0-.29.11-.687.112-.398.17-.451.06-.054.156-.054.052 0 .08.062.03.06.03.124 0 .043-.04.112-.225.391-.225.808 0 .097.036.17.036.073.11.073.095 0 .233-.057.14-.058.313-.19.174-.13.235-.211.06-.081.084-.184.026-.104.036-.448.01-.345.167-.345.093 0 .12.05.028.049.028.186 0 .104-.03.448-.007.078-.01.143-.05.92-.275 1.442-.225.522-.656.522-.338 0-.601-.178-.262-.175-.262-.298 0-.056.026-.111.027-.056.069-.056.02 0 .044.033.226.346.695.346.298 0 .446-.365.148-.363.188-.935zM7.86 294.38q.408-.07.731-.527.152-.212.266-.3.115-.09.244-.09.052 0 .104.047.051.046.051.11 0 .084-.16.133-.084.025-.158.088-.074.062-.281.296-.162.182-.291.256-.012.007-.012.013 0 .007.015.013.126.068.265.26.204.281.305.355.102.073.233.073l.057-.002q.06-.003.06.053 0 .066-.074.136t-.245.07q-.13 0-.255-.111-.122-.114-.28-.367-.092-.15-.17-.228-.08-.077-.177-.077-.02 0-.127.034-.107.035-.12.068-.013.03-.02.229-.005.196-.005.317 0 .063-.06.113t-.131.05q-.072 0-.114-.043-.041-.041-.041-.086 0-.062.047-.293.082-.42.165-1.386.007-.093.07-.167.064-.076.145-.076.045 0 .074.048.031.048.031.124 0 .06-.02.138-.099.356-.123.728zM9.5 294.404v-.155h1.456q-.02-.328-.198-.498-.175-.172-.49-.172-.183 0-.355.044-.171.045-.34.135v-.3q.17-.072.35-.11.179-.038.363-.038.462 0 .73.269.271.268.271.727 0 .473-.256.752-.255.278-.69.278-.389 0-.616-.25-.226-.252-.226-.682zm.316.093q.004.26.145.415.143.155.377.155.265 0 .424-.15.16-.15.184-.422zM12.036 295.086q-.084.31-.158.87l-.048.325q-.012.07-.064.136-.052.07-.095.07-.053 0-.122-.056-.067-.053-.067-.086 0-.095.043-.262.315-1.273.315-2.236l-.002-.144q-.003-.186.066-.27.069-.085.158-.085.042 0 .08.065.037.064.037.183 0 .167-.034.405-.045.3-.046.344.256-.448.544-.699.288-.252.534-.252.174 0 .293.131.12.13.12.323 0 .561-.43 1.02-.431.457-.84.457-.1 0-.161-.051-.059-.052-.122-.188zm1.07-1.387q-.243 0-.601.455t-.358.708q0 .062.07.12.071.06.18.06.246 0 .566-.364.32-.365.32-.717 0-.126-.051-.193-.05-.069-.126-.069zM14.54 292.98q-.037 0-.056-.078-.007-.024-.019-.054-.046-.112-.046-.194 0-.07.08-.14.083-.072.183-.072.05 0 .112.04.062.037.062.074 0 .056-.043.193-.041.136-.134.184-.091.046-.14.046zm-.226 1.923q0 .131.036.295.007.03.007.052 0 .03-.057.079-.057.05-.12.05-.168 0-.168-.307 0-.317.131-1.002.045-.24.045-.295 0-.108.04-.184.04-.078.112-.078.087 0 .137.043.052.042.052.093 0 .052-.024.136-.13.455-.16.652-.031.196-.031.466zM15.847 294.226q.222.037.346.164.124.127.124.312 0 .29-.246.486-.247.192-.648.192-.24 0-.413-.103t-.173-.229q0-.103.12-.103.016 0 .053.029.19.164.45.164.228 0 .394-.121.165-.12.165-.313 0-.128-.095-.212-.093-.086-.217-.086-.095 0-.332.074-.047.015-.1.015-.103 0-.103-.14 0-.048.048-.077.05-.03.212-.067.49-.112.49-.398 0-.086-.061-.141-.06-.057-.157-.057-.18 0-.383.158-.118.093-.18.093-.106 0-.106-.098 0-.129.243-.263.245-.136.469-.136.224 0 .351.118.13.12.13.25 0 .312-.381.49zM19.562 294.502q-.022.388-.074.76-.026.07-.13.07-.152 0-.152-.155 0-.064.036-.238.026-.151.027-.205.002-.055.009-.118.007-.066-.002-.104-.088.012-.358.21-.27.199-.463.393v-.002q-.012.007-.076.13-.091.182-.202.182-.051 0-.115-.045-.062-.045-.062-.09 0-.106.2-.316.201-.212.444-.362.296-.183.408-.295-.05-.07-.194-.155-.147-.086-.272-.193l-.042-.03q-.222-.15-.296-.225-.072-.075-.072-.161 0-.057.043-.104.043-.048.084-.048.026 0 .093.028.067.027.097.058l.084.08q.446.437.706.556.014 0 .035-.033.017-.059.017-.188 0-.12-.026-.27-.014-.078-.014-.102 0-.08.062-.13.064-.05.138-.05.085 0 .116.034.03.034.03.117l-.022.548v.034q0 .024.002.04.06 0 .126-.047.065-.048.194-.19.567-.587.657-.587.05 0 .09.042.042.04.042.096 0 .028-.19.234-.187.205-.387.378-.257.22-.257.229 0 .012.214.179.23.18.319.257.012.009.034.022.255.157.319.234.064.078.064.131 0 .05-.043.103-.044.052-.085.052-.153 0-.711-.515-.248-.23-.3-.243-.022-.003-.034-.009-.018-.005-.063-.002-.044.002-.048.014zM21.572 293.334q.023-.015.05-.015.044 0 .073.115 0 .074-.04.188-.117.325-.117.455 0 .034.02.037.397-.38.735-.38.208 0 .35.158.14.157.14.288 0 .4-.408.768-.406.367-.82.367-.184 0-.287-.152-.102-.153-.102-.437 0-.308.077-.682.078-.374.125-.5.018-.053.034-.108.017-.07.17-.102zm-.08 1.08q-.035.191-.035.383 0 .26.205.26.23 0 .517-.276.286-.276.286-.536 0-.106-.057-.179-.057-.072-.157-.072-.136 0-.269.069-.13.067-.292.219-.062.058-.1.09-.036.032-.098.042zm1.734.396q0 .131.036.295.007.03.007.052 0 .03-.057.08-.056.049-.12.049-.167 0-.167-.307 0-.305.132-1.023.049-.262.049-.317 0-.109.04-.184.039-.078.111-.078.088 0 .138.043.052.042.052.093 0 .052-.024.143-.135.491-.166.688-.03.196-.03.466zM24.757 293.882q-.04-.002-.08.08-.357.712-.54.967l-.04.066q-.215.384-.314.384-.135 0-.135-.13 0-.117.167-.318.162-.191.426-.648.263-.458.427-.821.03-.066.093-.066.026 0 .091.024.067.023.086.05.02.028.085.32.212 1.056.446 1.253.055.048.065.065.01.016.01.045 0 .053-.034.098-.034.043-.067.055-.033.012-.134.012-.036 0-.17-.177-.132-.18-.31-.973-.042-.214-.072-.286zM26.297 293.334q.023-.015.05-.015.043 0 .073.115 0 .074-.04.188-.117.325-.117.455 0 .034.02.037.397-.38.734-.38.209 0 .35.158.141.157.141.288 0 .4-.408.768-.406.367-.82.367-.184 0-.287-.152-.102-.153-.102-.437 0-.308.077-.682.078-.374.124-.5.02-.053.035-.108.017-.07.17-.102zm-.08 1.08q-.035.191-.035.383 0 .26.205.26.23 0 .517-.276.286-.276.286-.536 0-.106-.057-.179-.057-.072-.157-.072-.136 0-.269.069-.13.067-.292.219-.062.058-.1.09-.037.032-.099.042zm1.734.396q0 .131.036.295.007.03.007.052 0 .03-.057.08-.057.049-.12.049-.167 0-.167-.307 0-.305.132-1.023.049-.262.049-.317 0-.109.04-.184.039-.078.111-.078.088 0 .138.043.052.042.052.093 0 .052-.025.143-.134.491-.165.688-.03.196-.03.466zM29.817 293.923q-.16.003-.686.95-.177.318-.207.347-.029.028-.108.05-.078.023-.13.023-.115 0-.115-.45 0-.253.109-.916.045-.269.045-.384 0-.114.101-.114.191 0 .191.275 0 .13-.063.507-.074.43-.076.524.107-.104.313-.453.293-.48.431-.607.14-.129.288-.129.112 0 .177.15.067.15.081.715.003.141.026.21.022.069.033.069.08 0 .351-.551.145-.292.28-.443.139-.152.306-.152.14 0 .203.145.064.143.091.425.026.286.08.524.055.238.2.305.097.046.097.109 0 .06-.082.124-.083.063-.152.063-.138 0-.246-.169-.109-.168-.164-.73-.024-.226-.046-.32-.023-.095-.07-.095-.073 0-.173.138-.098.138-.319.56-.172.329-.262.439-.088.108-.17.108-.074 0-.133-.058-.058-.06-.074-.143-.015-.085-.033-.412-.025-.544-.094-.634zM32.542 293.334q.022-.015.05-.015.043 0 .072.115 0 .074-.04.188-.117.325-.117.455 0 .034.02.037.397-.38.735-.38.208 0 .35.158.14.157.14.288 0 .4-.408.768-.406.367-.82.367-.184 0-.287-.152-.102-.153-.102-.437 0-.308.078-.682.077-.374.124-.5.019-.053.034-.108.017-.07.17-.102zm-.081 1.08q-.035.191-.035.383 0 .26.205.26.231 0 .517-.276.286-.276.286-.536 0-.106-.057-.179-.057-.072-.157-.072-.136 0-.268.069-.131.067-.293.219-.062.058-.1.09-.036.032-.098.042zm1.734.396q0 .131.036.295.007.03.007.052 0 .03-.056.08-.057.049-.121.049-.167 0-.167-.307 0-.305.133-1.023.048-.262.048-.317 0-.109.04-.184.039-.078.111-.078.088 0 .138.043.052.042.052.093 0 .052-.024.143-.135.491-.166.688-.03.196-.03.466zM36.033 294.678q-.262.246-.523.386-.262.14-.402.14-.16 0-.256-.137-.095-.138-.095-.338 0-.29.11-.687.112-.398.17-.451.06-.054.156-.054.051 0 .08.062.03.06.03.124 0 .043-.04.112-.225.391-.225.808 0 .097.036.17.036.073.11.073.095 0 .233-.057.14-.058.313-.19.174-.13.234-.211.06-.081.085-.184.026-.104.036-.448.01-.345.167-.345.093 0 .12.05.028.049.028.186 0 .104-.03.448-.008.078-.01.143-.05.92-.275 1.442-.226.522-.656.522-.338 0-.601-.178-.262-.175-.262-.298 0-.056.026-.111.027-.056.068-.056.021 0 .045.033.226.346.694.346.298 0 .447-.365.148-.363.187-.935zM39.416 294.659q-.24.324-.477.485-.236.162-.432.162-.133 0-.23-.112-.096-.112-.096-.287 0-.453.405-.975.405-.524.805-.524.144 0 .215.166.022.055.07.055.138 0 .138.106 0 .054-.017.147-.093.508-.093.716 0 .417.158.5.076.041.076.102 0 .053-.074.106-.074.055-.143.055-.132 0-.219-.182-.086-.183-.086-.52zm-.105-.97q-.227 0-.529.427-.301.426-.301.706 0 .198.13.198.19 0 .526-.382t.336-.703q0-.246-.162-.246zM41.599 294.678q-.262.246-.524.386t-.401.14q-.16 0-.257-.137-.095-.138-.095-.338 0-.29.11-.687.113-.398.171-.451.059-.054.155-.054.052 0 .081.062.03.06.03.124 0 .043-.04.112-.226.391-.226.808 0 .097.036.17.037.073.11.073.095 0 .233-.057.14-.058.314-.19.174-.13.234-.211.06-.081.084-.184.026-.104.036-.448.01-.345.168-.345.093 0 .12.05.028.049.028.186 0 .104-.031.448-.007.078-.009.143-.05.92-.275 1.442-.226.522-.657.522-.337 0-.601-.178-.262-.175-.262-.298 0-.056.026-.111.028-.056.069-.056.02 0 .045.033.225.346.694.346.298 0 .446-.365.148-.363.188-.935zM43.571 294.659q-.241.324-.477.485-.236.162-.432.162-.133 0-.23-.112-.096-.112-.096-.287 0-.453.405-.975.405-.524.804-.524.145 0 .216.166.022.055.07.055.138 0 .138.106 0 .054-.017.147-.093.508-.093.716 0 .417.158.5.076.041.076.102 0 .053-.074.106-.074.055-.143.055-.133 0-.219-.182-.086-.183-.086-.52zm-.105-.97q-.227 0-.529.427-.301.426-.301.706 0 .198.13.198.19 0 .526-.382t.336-.703q0-.246-.162-.246zM47.192 293.923q-.16.003-.686.95-.177.318-.206.347-.03.028-.109.05-.077.023-.129.023-.115 0-.115-.45 0-.253.108-.916.045-.269.045-.384 0-.114.101-.114.192 0 .192.275 0 .13-.064.507-.074.43-.076.524.107-.104.314-.453.293-.48.43-.607.14-.129.288-.129.112 0 .177.15.068.15.081.715.004.141.026.21.023.069.033.069.08 0 .351-.551.145-.292.281-.443.138-.152.305-.152.14 0 .203.145.064.143.092.425.025.286.079.524.055.238.2.305.098.046.098.109 0 .06-.083.124-.083.063-.151.063-.138 0-.247-.169-.108-.168-.163-.73-.025-.226-.047-.32-.022-.095-.07-.095-.073 0-.173.138-.098.138-.318.56-.173.329-.262.439-.088.108-.17.108-.075 0-.133-.058-.06-.06-.075-.143-.015-.085-.032-.412-.026-.544-.095-.634zM50.02 295.372q-.236 0-.389-.18-.153-.178-.153-.442 0-.444.298-.875.3-.432.716-.432.276 0 .446.211.173.212.173.505 0 .448-.355.83-.353.383-.736.383zm-.24-.667q0 .174.073.284.074.11.195.11.257 0 .515-.28.258-.283.258-.627 0-.212-.1-.343-.098-.132-.265-.132-.277 0-.477.34-.198.34-.198.648zM51.845 295.086q-.085.31-.159.87l-.048.325q-.012.07-.064.136-.052.07-.095.07-.053 0-.122-.056-.067-.053-.067-.086 0-.095.043-.262.315-1.273.315-2.236l-.002-.144q-.003-.186.066-.27.069-.085.158-.085.042 0 .08.065.038.064.038.183 0 .167-.035.405-.045.3-.046.344.256-.448.544-.699.288-.252.534-.252.174 0 .293.131.12.13.12.323 0 .561-.43 1.02-.431.457-.84.457-.1 0-.161-.051-.059-.052-.122-.188zm1.07-1.387q-.244 0-.602.455t-.358.708q0 .062.07.12.071.06.18.06.246 0 .566-.364.32-.365.32-.717 0-.126-.051-.193-.05-.069-.126-.069zM54.954 294.659q-.241.324-.477.485-.236.162-.433.162-.132 0-.229-.112-.096-.112-.096-.287 0-.453.404-.975.405-.524.805-.524.145 0 .215.166.023.055.07.055.139 0 .139.106 0 .054-.018.147-.093.508-.093.716 0 .417.159.5.076.041.076.102 0 .053-.074.106-.074.055-.143.055-.133 0-.22-.182-.085-.183-.085-.52zm-.105-.97q-.228 0-.53.427-.3.426-.3.706 0 .198.13.198.19 0 .526-.382t.336-.703q0-.246-.162-.246zM57.036 293.961q-.09 0-.196.117-.105.117-.322.526-.286.547-.37.623-.083.076-.138.076-.204 0-.204-.196 0-.083.028-.235.095-.52.095-1.097 0-.065.055-.145.057-.08.107-.08.09 0 .127.054.038.056.038.223 0 .174-.103.716-.035.18-.035.228 0 .027.014.027.026 0 .24-.411.215-.419.377-.59.162-.17.356-.17.155 0 .252.141.098.141.143.515.048.426.086.53.04.104.124.104.053 0 .134-.038.014-.007.02-.007.075 0 .075.086 0 .076-.102.162-.101.085-.244.085-.147 0-.228-.116-.079-.117-.125-.622-.049-.506-.204-.506zM59.503 293.923q-.16.003-.686.95-.177.318-.206.347-.03.028-.109.05-.077.023-.129.023-.115 0-.115-.45 0-.253.108-.916.045-.269.045-.384 0-.114.102-.114.19 0 .19.275 0 .13-.063.507-.074.43-.076.524.107-.104.314-.453.293-.48.43-.607.14-.129.288-.129.112 0 .177.15.068.15.081.715.004.141.026.21.023.069.033.069.08 0 .351-.551.145-.292.281-.443.138-.152.305-.152.14 0 .203.145.064.143.092.425.025.286.079.524.055.238.2.305.098.046.098.109 0 .06-.083.124-.083.063-.151.063-.138 0-.247-.169-.108-.168-.163-.73-.025-.226-.047-.32-.022-.095-.07-.095-.073 0-.173.138-.098.138-.318.56-.173.329-.262.439-.088.108-.17.108-.075 0-.133-.058-.059-.06-.075-.143-.015-.085-.032-.412-.026-.544-.095-.634zM62.99 294.659q-.242.324-.478.485-.236.162-.432.162-.133 0-.23-.112-.096-.112-.096-.287 0-.453.405-.975.405-.524.805-.524.144 0 .215.166.022.055.07.055.138 0 .138.106 0 .054-.017.147-.093.508-.093.716 0 .417.159.5.075.041.075.102 0 .053-.074.106-.074.055-.143.055-.132 0-.218-.182-.087-.183-.087-.52zm-.106-.97q-.227 0-.528.427-.302.426-.302.706 0 .198.131.198.19 0 .525-.382.336-.382.336-.703 0-.246-.162-.246zM64.231 295.086q-.084.31-.158.87l-.048.325q-.012.07-.064.136-.052.07-.095.07-.053 0-.122-.056-.067-.053-.067-.086 0-.095.043-.262.315-1.273.315-2.236l-.002-.144q-.003-.186.066-.27.069-.085.158-.085.042 0 .08.065.037.064.037.183 0 .167-.034.405-.045.3-.047.344.257-.448.545-.699.287-.252.534-.252.174 0 .293.131.12.13.12.323 0 .561-.43 1.02-.431.457-.84.457-.101 0-.161-.051-.059-.052-.123-.188zm1.07-1.387q-.243 0-.601.455t-.358.708q0 .062.07.12.07.06.18.06.246 0 .566-.364.32-.365.32-.717 0-.126-.051-.193-.05-.069-.126-.069zM66.58 293.334q.022-.015.05-.015.042 0 .072.115 0 .074-.04.188-.117.325-.117.455 0 .034.02.037.397-.38.734-.38.209 0 .35.158.141.157.141.288 0 .4-.408.768-.407.367-.82.367-.184 0-.288-.152-.101-.153-.101-.437 0-.308.077-.682.078-.374.124-.5.02-.053.035-.108.017-.07.17-.102zm-.082 1.08q-.034.191-.034.383 0 .26.205.26.23 0 .517-.276.286-.276.286-.536 0-.106-.057-.179-.057-.072-.157-.072-.136 0-.269.069-.13.067-.293.219-.062.058-.1.09-.036.032-.098.042zm1.735.396q0 .131.036.295.007.03.007.052 0 .03-.057.08-.057.049-.12.049-.168 0-.168-.307 0-.305.133-1.023.048-.262.048-.317 0-.109.04-.184.04-.078.112-.078.088 0 .138.043.051.042.051.093 0 .052-.024.143-.134.491-.165.688-.031.196-.031.466zM3.701 301.852q0 .176-.312.424-.31.248-.64.248-.278 0-.43-.164-.15-.163-.15-.456 0-.493.333-.937.333-.445.727-.445.13 0 .21.085.083.084.083.203 0 .265-.26.508t-.696.477q-.09.047-.09.121 0 .143.083.23.083.085.245.085.37 0 .756-.41.057-.057.086-.057.055 0 .055.088zm-1.197-.268q.73-.435.73-.698 0-.103-.093-.103-.158 0-.358.232-.198.233-.28.569zM5.027 301.032q-.04-.002-.08.08-.357.713-.54.968-.015.022-.04.065-.215.384-.315.384-.134 0-.134-.129 0-.117.167-.319.162-.19.426-.647.263-.459.427-.822.03-.065.093-.065.026 0 .091.024.067.022.086.05.02.027.085.32.212 1.056.446 1.252.055.049.065.066.01.015.01.045 0 .053-.034.098-.034.043-.067.055-.033.012-.134.012-.037 0-.17-.177-.132-.18-.31-.974-.042-.213-.072-.286zM7.642 301.852q0 .176-.312.424-.31.248-.64.248-.278 0-.43-.164-.15-.163-.15-.456 0-.493.333-.937.333-.445.727-.445.13 0 .21.085.083.084.083.203 0 .265-.26.508t-.696.477q-.09.047-.09.121 0 .143.083.23.083.085.245.085.37 0 .756-.41.057-.057.086-.057.055 0 .055.088zm-1.197-.268q.73-.435.73-.698 0-.103-.093-.103-.158 0-.358.232-.198.233-.279.569zM8.352 301.53q.408-.07.732-.527.152-.212.265-.3.116-.09.245-.09.052 0 .103.047.052.047.052.11 0 .085-.16.133-.085.026-.159.088t-.28.296q-.162.183-.292.257-.012.007-.012.012 0 .007.016.014.126.067.265.26.203.28.305.355.102.072.233.072l.056-.002q.06-.003.06.053 0 .066-.073.136-.074.071-.245.071-.13 0-.255-.112-.122-.114-.28-.367-.092-.15-.171-.227-.08-.078-.176-.078-.02 0-.127.035-.107.034-.121.067-.012.031-.019.23-.005.195-.005.316 0 .064-.06.114t-.131.05q-.073 0-.114-.044-.041-.04-.041-.086 0-.062.046-.292.083-.42.166-1.387.006-.093.07-.167.064-.076.145-.076.045 0 .074.048.03.048.03.124 0 .06-.02.138-.098.357-.122.729zM11.327 301.074q-.16.003-.686.949-.177.318-.207.348-.029.027-.108.05-.078.022-.13.022-.115 0-.115-.45 0-.253.109-.916.045-.269.045-.384 0-.114.101-.114.192 0 .192.276 0 .13-.064.506-.074.43-.076.524.107-.103.314-.453.292-.479.43-.606.14-.13.288-.13.112 0 .177.15.067.15.081.715.004.141.026.21.022.07.033.07.08 0 .351-.552.145-.291.28-.443.139-.151.306-.151.14 0 .203.144.064.143.091.426.026.286.08.523.055.238.2.305.098.047.098.109 0 .06-.083.124t-.152.064q-.137 0-.246-.17-.108-.168-.164-.73-.024-.225-.046-.32-.023-.095-.07-.095-.073 0-.173.138-.098.138-.319.56-.172.329-.261.44-.088.108-.171.108-.074 0-.133-.059-.058-.06-.074-.143-.015-.084-.032-.412-.026-.544-.095-.633zM13.985 302.236q-.085.31-.159.87l-.048.326q-.012.069-.064.136-.051.069-.095.069-.053 0-.122-.055-.067-.054-.067-.086 0-.095.043-.262.315-1.273.315-2.236l-.001-.145q-.004-.186.065-.27.069-.085.159-.085.04 0 .079.066.038.064.038.182 0 .167-.035.405-.045.3-.046.345.256-.448.544-.7.288-.251.534-.251.174 0 .293.13.12.13.12.323 0 .561-.43 1.02-.43.458-.84.458-.1 0-.161-.052-.059-.052-.122-.188zm1.07-1.386q-.244 0-.602.455-.358.454-.358.707 0 .062.07.121.071.059.18.059.246 0 .566-.364.32-.365.32-.716 0-.126-.05-.193-.05-.07-.127-.07zM18.356 300.646q-.065-.177-.303-.384-.224-.193-.224-.33 0-.11.073-.178.072-.069.268-.124.245-.067.498-.151.253-.087.305-.11.033-.016.067-.016.057 0 .057.101 0 .057-.138.156-.137.098-.487.182-.22.055-.27.083-.049.026-.049.053 0 .062.135.18.506.442.506 1.11 0 .288-.152.617-.151.327-.404.488-.252.16-.493.16-.217 0-.329-.212-.112-.212-.112-.467 0-.451.277-.85.28-.4.59-.4.04 0 .103.053.057.052.082.04zm-.75 1.165q0 .191.05.3.051.108.134.108.11 0 .298-.136t.301-.403q.116-.267.116-.5 0-.192-.055-.311-.054-.12-.1-.12-.307 0-.526.373-.219.374-.219.689zM20.324 301.81q-.242.323-.478.485-.235.162-.432.162-.132 0-.229-.112-.096-.112-.096-.288 0-.453.404-.975.405-.523.805-.523.145 0 .215.165.023.055.07.055.139 0 .139.107 0 .053-.018.146-.093.508-.093.717 0 .417.159.5.076.04.076.101 0 .053-.075.107-.074.055-.142.055-.133 0-.22-.183-.085-.182-.085-.52zm-.105-.97q-.228 0-.53.427-.3.425-.3.706 0 .198.13.198.19 0 .526-.382.335-.383.335-.703 0-.247-.161-.247zM21.703 302.534q-.258 0-.398-.148-.137-.148-.137-.415 0-.45.356-.947.357-.5.663-.5.14 0 .24.152.102.15.102.318 0 .102-.045.176-.043.073-.088.073-.1 0-.141-.202-.047-.217-.135-.217-.179 0-.423.425-.245.426-.245.719t.332.293q.254 0 .596-.238.12-.085.178-.085.058 0 .058.068 0 .13-.308.33-.308.198-.605.198zM23.112 300.507h.316v.906l.894-.906h.389l-.737.746.646.92h.244v.75h-.317v-.487h-.096l-.684-.973-.34.344v.63h-.315zM26.313 301.81q-.241.323-.477.485-.236.162-.433.162-.132 0-.229-.112-.096-.112-.096-.288 0-.453.405-.975.404-.523.804-.523.145 0 .215.165.023.055.071.055.138 0 .138.107 0 .053-.017.146-.093.508-.093.717 0 .417.158.5.076.04.076.101 0 .053-.074.107-.074.055-.143.055-.133 0-.219-.183-.086-.182-.086-.52zm-.105-.97q-.228 0-.529.427-.301.425-.301.706 0 .198.13.198.19 0 .526-.382.336-.383.336-.703 0-.247-.162-.247zM30.084 301.652q-.023.388-.074.76-.026.07-.131.07-.152 0-.152-.154 0-.064.036-.238.026-.152.028-.205.001-.055.008-.119.007-.065-.001-.103-.088.012-.359.21-.27.198-.463.393v-.002q-.012.007-.076.129-.091.182-.201.182-.052 0-.116-.044-.062-.045-.062-.09 0-.107.2-.317.202-.212.444-.362.297-.182.409-.294-.05-.07-.195-.155-.146-.086-.272-.193l-.041-.031q-.223-.15-.297-.224-.072-.076-.072-.162 0-.057.043-.103.043-.049.084-.049.026 0 .093.028.068.028.097.059l.084.079q.446.437.707.556.013 0 .034-.032.017-.06.017-.188 0-.12-.026-.27-.013-.078-.013-.102 0-.081.062-.131.063-.05.137-.05.085 0 .116.034.03.035.03.117l-.022.548v.034q0 .025.002.04.06 0 .126-.046.065-.049.195-.19.566-.587.656-.587.05 0 .091.041.041.041.041.097 0 .027-.189.234-.188.205-.388.377-.256.22-.256.23 0 .011.213.178.231.181.319.257.012.009.034.022.255.157.32.235.063.077.063.13 0 .05-.043.104-.043.052-.085.052-.153 0-.711-.515-.248-.231-.3-.243-.022-.003-.034-.01-.017-.004-.062-.001-.045.002-.048.014zM33.169 301.852q0 .176-.312.424-.31.248-.64.248-.278 0-.43-.164-.15-.163-.15-.456 0-.493.333-.937.332-.445.727-.445.129 0 .21.085.083.084.083.203 0 .265-.26.508t-.696.477q-.09.047-.09.121 0 .143.083.23.082.085.244.085.37 0 .756-.41.057-.057.087-.057.055 0 .055.088zm-1.197-.268q.73-.435.73-.698 0-.103-.093-.103-.159 0-.358.232-.199.233-.28.569zM34.495 301.032q-.041-.002-.08.08-.357.713-.54.968-.016.022-.04.065-.215.384-.315.384-.134 0-.134-.129 0-.117.167-.319.162-.19.425-.647.264-.459.427-.822.031-.065.093-.065.026 0 .092.024.067.022.086.05.019.027.084.32.212 1.056.446 1.252.056.049.066.066.01.015.01.045 0 .053-.034.098-.035.043-.067.055-.033.012-.135.012-.036 0-.169-.177-.132-.18-.31-.974-.043-.213-.072-.286zM36.19 300.13q-.036 0-.055-.078-.007-.024-.019-.053-.047-.112-.047-.195 0-.069.081-.14.083-.072.183-.072.05 0 .112.04.062.038.062.074 0 .057-.043.193-.041.136-.134.184-.092.047-.14.047zm-.226 1.924q0 .13.037.294.006.031.006.052 0 .031-.056.08-.057.05-.121.05-.167 0-.167-.307 0-.317.13-1.003.046-.24.046-.295 0-.108.04-.184.039-.077.111-.077.088 0 .138.043.052.041.052.093 0 .051-.024.136-.13.455-.16.651-.032.196-.032.467zM37.621 301.032q-.04-.002-.08.08-.357.713-.54.968-.015.022-.04.065-.215.384-.314.384-.135 0-.135-.129 0-.117.167-.319.162-.19.426-.647.263-.459.427-.822.03-.065.093-.065.026 0 .091.024.067.022.086.05.02.027.085.32.212 1.056.446 1.252.055.049.065.066.01.015.01.045 0 .053-.034.098-.034.043-.067.055-.033.012-.134.012-.036 0-.17-.177-.132-.18-.31-.974-.042-.213-.072-.286zM40.236 301.852q0 .176-.311.424-.31.248-.641.248-.278 0-.43-.164-.149-.163-.149-.456 0-.493.332-.937.333-.445.727-.445.13 0 .21.085.083.084.083.203 0 .265-.26.508t-.696.477q-.09.047-.09.121 0 .143.083.23.083.085.245.085.37 0 .756-.41.057-.057.086-.057.055 0 .055.088zm-1.197-.268q.73-.435.73-.698 0-.103-.093-.103-.158 0-.358.232-.198.233-.279.569zM40.929 302.236q-.085.31-.159.87l-.048.326q-.012.069-.064.136-.051.069-.094.069-.054 0-.123-.055-.067-.054-.067-.086 0-.095.043-.262.315-1.273.315-2.236l-.001-.145q-.004-.186.065-.27.07-.085.159-.085.041 0 .079.066.038.064.038.182 0 .167-.035.405-.044.3-.046.345.256-.448.544-.7.288-.251.534-.251.174 0 .293.13.12.13.12.323 0 .561-.43 1.02-.43.458-.839.458-.102 0-.162-.052-.058-.052-.122-.188zm1.07-1.386q-.243 0-.602.455-.358.454-.358.707 0 .062.07.121.071.059.18.059.246 0 .566-.364.32-.365.32-.716 0-.126-.05-.193-.05-.07-.127-.07zM2.697 309.685q-.259 0-.398-.148-.138-.148-.138-.415 0-.45.357-.948.356-.5.663-.5.14 0 .24.152.1.15.1.319 0 .102-.044.176-.043.072-.088.072-.1 0-.141-.202-.046-.217-.134-.217-.18 0-.424.426-.245.425-.245.718t.333.293q.253 0 .596-.238.12-.084.177-.084.059 0 .059.067 0 .131-.309.33-.308.199-.604.199zM3.98 308.705v-.155h1.457q-.02-.328-.198-.498-.175-.172-.49-.172-.183 0-.355.044-.171.045-.34.135v-.3q.17-.072.35-.11.179-.038.363-.038.462 0 .73.269.271.268.271.727 0 .473-.257.752-.254.278-.689.278-.389 0-.616-.25-.226-.252-.226-.682zm.317.093q.004.26.145.415.143.155.377.155.265 0 .424-.15.16-.15.184-.422zM7.458 308.979q-.262.246-.524.385-.262.14-.401.14-.16 0-.257-.136-.094-.138-.094-.338 0-.29.11-.687.112-.398.17-.451.059-.054.155-.054.052 0 .081.062.03.06.03.124 0 .043-.04.112-.226.391-.226.808 0 .097.036.17.037.073.11.073.095 0 .233-.057.14-.058.314-.19.174-.13.234-.211.06-.081.084-.184.026-.104.037-.448.01-.345.167-.345.093 0 .12.05.028.048.028.186 0 .104-.031.448-.007.078-.009.143-.05.92-.275 1.442-.226.522-.657.522-.337 0-.6-.178-.263-.175-.263-.298 0-.056.026-.112.028-.055.07-.055.02 0 .044.033.226.346.694.346.298 0 .446-.365.148-.363.188-.935zM9.236 308.183q-.042-.002-.081.079-.357.713-.54.968-.015.022-.04.066-.214.384-.314.384-.135 0-.135-.13 0-.117.167-.318.162-.191.426-.648.263-.458.427-.821.031-.066.093-.066.026 0 .091.024.068.023.086.05.02.028.085.32.212 1.056.446 1.253.055.048.065.065.01.016.01.045 0 .053-.034.098-.034.043-.067.055-.033.012-.134.012-.036 0-.169-.177-.133-.18-.31-.973-.043-.214-.072-.286zM11.85 309.003q0 .175-.311.423-.31.249-.641.249-.277 0-.429-.164-.15-.164-.15-.457 0-.492.333-.937.332-.444.726-.444.13 0 .21.084.083.085.083.204 0 .265-.26.508t-.696.477q-.09.046-.09.12 0 .143.083.23.083.086.245.086.37 0 .756-.41.057-.057.086-.057.055 0 .055.088zm-1.197-.269q.73-.434.73-.698 0-.103-.092-.103-.159 0-.359.233-.198.232-.279.568zM13.511 308.224q-.16.003-.686.95-.177.318-.206.347-.03.028-.109.05-.077.023-.129.023-.115 0-.115-.45 0-.253.108-.916.045-.27.045-.384 0-.114.102-.114.19 0 .19.275 0 .13-.063.507-.074.43-.076.524.107-.104.314-.454.293-.478.43-.606.14-.129.288-.129.112 0 .177.15.068.15.081.715.004.14.026.21.023.069.033.069.08 0 .351-.551.145-.292.281-.443.138-.152.305-.152.14 0 .203.145.064.143.092.425.025.286.079.524.055.238.2.305.098.046.098.108 0 .06-.083.124t-.151.064q-.138 0-.247-.169-.108-.168-.163-.73-.025-.226-.047-.32-.022-.095-.07-.095-.073 0-.173.138-.098.138-.318.56-.173.329-.262.439-.088.108-.17.108-.075 0-.133-.058-.059-.06-.075-.143-.015-.085-.032-.412-.026-.544-.095-.634zM17.717 309.685q-.258 0-.397-.148-.138-.148-.138-.415 0-.45.356-.948.357-.5.663-.5.14 0 .24.152.102.15.102.319 0 .102-.045.176-.043.072-.088.072-.1 0-.141-.202-.047-.217-.135-.217-.179 0-.423.426-.245.425-.245.718t.332.293q.254 0 .596-.238.121-.084.178-.084.058 0 .058.067 0 .131-.308.33t-.605.199zM19 308.705v-.155h1.458q-.02-.328-.198-.498-.176-.172-.491-.172-.183 0-.355.044-.17.045-.34.135v-.3q.171-.072.35-.11.18-.038.364-.038.462 0 .73.269.27.268.27.727 0 .473-.256.752-.255.278-.689.278-.39 0-.617-.25-.225-.252-.225-.682zm.318.093q.003.26.144.415.143.155.378.155.265 0 .423-.15.16-.15.185-.422zM22.473 308.462q.02-.036.06-.432.032-.317.202-.317.14 0 .14.14 0 .032-.024.132-.133.55-.133.921 0 .403.133.522.069.064.069.104 0 .048-.071.087-.069.04-.126.04-.269 0-.269-.83 0-.055-.04-.055-.163 0-.397.019t-.336.048q-.1.03-.124.055-.022.024-.041.133-.018.106-.018.222v.212q0 .184-.168.184-.142 0-.142-.184 0-.121.031-.307.057-.341.114-1.175.007-.108.019-.138.012-.029.062-.063.052-.036.112-.036.124 0 .124.101 0 .016-.04.259-.04.242-.04.377 0 .094.065.094.13 0 .478-.043.348-.044.36-.07zM24.592 307.582q-.062-.27-.153-.376-.091-.107-.241-.165-.15-.059-.27-.059-.047 0-.139.036-.09.035-.137.064-.068.04-.124.04-.066 0-.066-.07 0-.073.112-.204t.395-.131h.074q.28 0 .496.148.215.146.305.42t.09.736q0 .313-.197.76-.198.446-.505.675-.305.229-.65.229-.123 0-.232-.143-.108-.143-.108-.355 0-.391.17-.689.172-.3.384-.486.214-.186.59-.3.123-.036.168-.056.045-.021.038-.074zm.047.351q-.398.081-.61.257-.479.448-.479 1.004 0 .074.026.14.026.063.058.063.128 0 .233-.045.105-.044.257-.186.151-.143.273-.353.125-.21.18-.405.056-.194.06-.298.003-.105.002-.177zM26.72 309.003q0 .175-.312.423-.31.249-.641.249-.277 0-.429-.164-.15-.164-.15-.457 0-.492.333-.937.332-.444.726-.444.13 0 .21.084.083.085.083.204 0 .265-.26.508t-.696.477q-.09.046-.09.12 0 .143.083.23.083.086.245.086.37 0 .756-.41.057-.057.086-.057.055 0 .055.088zm-1.198-.269q.73-.434.73-.698 0-.103-.092-.103-.159 0-.359.233-.198.232-.279.568zM28.352 308.979q-.261.246-.523.385-.262.14-.402.14-.16 0-.256-.136-.095-.138-.095-.338 0-.29.11-.687.112-.398.17-.451.06-.054.156-.054.052 0 .08.062.03.06.03.124 0 .043-.04.112-.225.391-.225.808 0 .097.036.17.036.073.11.073.095 0 .233-.057.14-.058.313-.19.174-.13.235-.211.06-.081.084-.184.026-.104.036-.448.01-.345.167-.345.093 0 .12.05.028.048.028.186 0 .104-.03.448-.008.078-.01.143-.05.92-.275 1.442-.226.522-.656.522-.338 0-.601-.178-.262-.175-.262-.298 0-.056.026-.112.027-.055.069-.055.02 0 .044.033.226.346.695.346.298 0 .446-.365.148-.363.187-.935zM32.025 308.803q-.022.388-.074.76-.026.07-.131.07-.152 0-.152-.155 0-.064.037-.238.025-.151.027-.205.002-.055.009-.118.007-.066-.002-.104-.088.012-.358.21-.27.198-.464.393v-.002q-.012.007-.075.13-.092.182-.202.182-.052 0-.115-.045-.062-.045-.062-.09 0-.106.2-.316.2-.212.444-.362.296-.183.408-.295-.05-.07-.195-.155-.146-.086-.272-.193l-.041-.03q-.222-.15-.296-.225-.073-.075-.073-.162 0-.056.043-.103.043-.048.085-.048.026 0 .093.028.067.027.096.058l.085.08q.446.437.706.556.014 0 .034-.033.018-.059.018-.188 0-.12-.026-.27-.014-.078-.014-.102 0-.08.062-.13.064-.05.138-.05.084 0 .115.034t.031.117l-.022.548v.034l.001.04q.06 0 .126-.047.066-.048.195-.19.567-.587.656-.587.05 0 .091.042.042.04.042.096 0 .028-.19.234-.187.205-.387.378-.257.22-.257.229 0 .012.214.179.23.18.318.256.012.01.035.023.255.157.318.234.064.078.064.131 0 .05-.043.103-.043.052-.084.052-.154 0-.712-.515-.248-.23-.3-.243-.022-.003-.034-.009-.017-.005-.062-.002-.045.002-.048.014zM34.138 309.673q-.236 0-.389-.18-.153-.178-.153-.442 0-.444.298-.875.3-.432.716-.432.276 0 .447.211.172.212.172.505 0 .448-.355.83-.353.383-.736.383zm-.239-.667q0 .174.072.284.074.11.195.11.257 0 .515-.28.258-.283.258-.627 0-.212-.1-.343-.098-.133-.265-.133-.277 0-.477.342-.198.339-.198.647zM36.643 307.797q-.065-.177-.303-.384-.224-.193-.224-.33 0-.111.072-.178.073-.07.269-.124.245-.068.498-.152.253-.086.305-.11.032-.016.067-.016.057 0 .057.102 0 .057-.138.155t-.488.183q-.22.055-.27.082-.048.026-.048.054 0 .062.134.179.507.443.507 1.11 0 .289-.152.618-.152.327-.405.487-.251.16-.492.16-.217 0-.33-.212-.111-.212-.111-.466 0-.452.277-.851.279-.4.589-.4.041 0 .103.053.057.052.083.04zm-.751 1.164q0 .192.05.3.052.109.134.109.11 0 .298-.136.188-.137.302-.404.115-.267.115-.499 0-.193-.055-.312-.053-.12-.1-.12-.306 0-.525.373-.219.374-.219.69zM38.61 308.96q-.24.324-.477.485-.236.162-.432.162-.133 0-.23-.112-.096-.112-.096-.287 0-.453.405-.975.405-.524.804-.524.145 0 .216.165.022.056.07.056.138 0 .138.106 0 .054-.017.147-.093.508-.093.716 0 .417.158.5.076.041.076.102 0 .053-.074.106-.074.055-.143.055-.133 0-.219-.182-.086-.183-.086-.52zm-.105-.97q-.227 0-.529.427-.301.426-.301.706 0 .198.13.198.19 0 .526-.382t.336-.703q0-.246-.162-.246zM40.486 308.183q-.041-.002-.08.079-.357.713-.54.968-.016.022-.04.066-.215.384-.315.384-.134 0-.134-.13 0-.117.167-.318.162-.191.425-.648.264-.458.427-.821.032-.066.094-.066.025 0 .09.024.068.023.087.05.019.028.084.32.212 1.056.446 1.253.056.048.066.065.01.016.01.045 0 .053-.034.098-.035.043-.067.055-.033.012-.135.012-.036 0-.169-.177-.132-.18-.31-.973-.043-.214-.072-.286zM42.787 308.96q-.24.324-.477.485-.236.162-.432.162-.133 0-.23-.112-.096-.112-.096-.287 0-.453.405-.975.405-.524.805-.524.144 0 .215.165.022.056.07.056.138 0 .138.106 0 .054-.017.147-.093.508-.093.716 0 .417.159.5.075.041.075.102 0 .053-.074.106-.074.055-.143.055-.132 0-.218-.182-.087-.183-.087-.52zm-.105-.97q-.227 0-.529.427-.301.426-.301.706 0 .198.131.198.19 0 .525-.382.336-.382.336-.703 0-.246-.162-.246zM44.97 308.979q-.262.246-.524.385-.262.14-.401.14-.16 0-.257-.136-.095-.138-.095-.338 0-.29.11-.687.113-.398.171-.451.059-.054.155-.054.052 0 .081.062.03.06.03.124 0 .043-.04.112-.226.391-.226.808 0 .097.036.17.037.073.11.073.095 0 .233-.057.14-.058.314-.19.174-.13.234-.211.06-.081.084-.184.026-.104.037-.448.01-.345.167-.345.093 0 .12.05.028.048.028.186 0 .104-.031.448-.007.078-.009.143-.05.92-.275 1.442-.226.522-.657.522-.337 0-.6-.178-.263-.175-.263-.298 0-.056.026-.112.028-.055.069-.055.02 0 .045.033.225.346.694.346.298 0 .446-.365.148-.363.188-.935zM2.318 314.808h.315v.906l.894-.906h.39l-.738.746.646.92h.245v.75h-.317v-.487h-.097l-.684-.973-.339.344v.63h-.315zM4.757 314.786q.022-.016.05-.016.043 0 .072.115 0 .075-.04.188-.116.326-.116.455 0 .034.02.038.396-.38.734-.38.208 0 .35.158.14.156.14.287 0 .4-.407.769-.407.366-.82.366-.185 0-.288-.151-.102-.153-.102-.438 0-.308.078-.682.077-.374.124-.5.019-.053.034-.108.018-.069.171-.101zm-.081 1.08q-.034.19-.034.382 0 .26.205.26.23 0 .516-.276.286-.275.286-.535 0-.107-.057-.18-.056-.072-.156-.072-.136 0-.27.07-.13.066-.292.218-.062.058-.1.091-.036.031-.098.041zm1.735.396q0 .13.036.294.007.031.007.052 0 .031-.057.081-.057.048-.12.048-.168 0-.168-.306 0-.305.133-1.024.048-.261.048-.317 0-.108.04-.184.04-.077.112-.077.087 0 .137.043.052.041.052.093 0 .051-.024.143-.134.49-.165.687-.031.196-.031.467zM7.818 315.678q.222.036.346.163.124.128.124.312 0 .291-.246.486-.246.193-.648.193-.24 0-.413-.103-.172-.104-.172-.23 0-.103.118-.103.018 0 .054.03.19.163.45.163.228 0 .394-.12.165-.121.165-.314 0-.128-.095-.212-.093-.086-.217-.086-.094 0-.332.074-.047.016-.1.016-.103 0-.103-.14 0-.048.048-.077.05-.03.212-.068.49-.112.49-.398 0-.086-.061-.14-.06-.058-.157-.058-.18 0-.382.159-.12.093-.181.093-.105 0-.105-.098 0-.13.243-.264.244-.136.468-.136.224 0 .351.119.13.119.13.25 0 .311-.381.489zM9.072 314.786q.022-.016.05-.016.043 0 .072.115 0 .075-.04.188-.116.326-.116.455 0 .034.02.038.396-.38.734-.38.208 0 .35.158.14.156.14.287 0 .4-.407.769-.407.366-.82.366-.185 0-.288-.151-.102-.153-.102-.438 0-.308.078-.682.077-.374.124-.5.019-.053.034-.108.018-.069.171-.101zm-.081 1.08q-.034.19-.034.382 0 .26.205.26.23 0 .516-.276.286-.275.286-.535 0-.107-.057-.18-.056-.072-.156-.072-.136 0-.27.07-.13.066-.292.218-.062.058-.1.091-.036.031-.098.041zm1.735.396q0 .13.036.294.007.031.007.052 0 .031-.057.081-.057.048-.12.048-.168 0-.168-.306 0-.305.133-1.024.048-.261.048-.317 0-.108.04-.184.04-.077.112-.077.087 0 .137.043.052.041.052.093 0 .051-.024.143-.134.49-.165.687-.031.196-.031.467zM13.489 315.228q-.14.224-.393.758-.057.12-.116.233-.019.036-.072.16-.18.42-.315.42-.107 0-.157-.026-.048-.025-.093-.14-.045-.116-.133-.543-.101-.485-.137-.596-.117.263-.209.508-.138.36-.267.587-.129.226-.186.27-.057.047-.108.047-.054 0-.097-.041-.043-.042-.043-.081.01-.07.024-.088.15-.185.259-.393.108-.208.275-.625.17-.417.216-.684.022-.114.167-.114.084 0 .115.026t.06.105q.031.08.037.141.01.074.058.33.043.239.057.339.024.143.084.375.062.233.097.233.024 0 .069-.105l.144-.334q.04-.092.085-.18l.198-.404q.162-.335.248-.484.088-.152.117-.183.031-.031.069-.031.065 0 .146.036.081.035.085.078.003.043.015.36l.023.537q.01.257.03.438.021.179.073.289.081.176.081.272 0 .083-.069.114-.067.03-.126.03-.12 0-.186-.192-.063-.193-.093-1.106-.01-.274-.032-.336zM15.85 316.153q0 .176-.312.424-.31.248-.64.248-.278 0-.43-.164-.15-.163-.15-.456 0-.493.333-.937.333-.445.727-.445.13 0 .21.085.083.084.083.203 0 .265-.26.508t-.696.477q-.09.047-.09.121 0 .143.083.23.083.085.245.085.37 0 .756-.41.057-.057.086-.057.055 0 .055.088zm-1.197-.269q.73-.434.73-.697 0-.103-.093-.103-.158 0-.358.232-.198.233-.279.569zM17.51 315.375q-.16.003-.685.949-.177.318-.207.348-.029.027-.108.05-.078.022-.13.022-.115 0-.115-.45 0-.253.109-.916.045-.269.045-.384 0-.114.101-.114.191 0 .191.276 0 .13-.063.506-.074.431-.076.524.107-.103.313-.453.293-.479.431-.606.14-.13.288-.13.112 0 .177.15.067.15.081.715.004.141.026.21.022.07.033.07.08 0 .351-.552.145-.291.28-.443.139-.151.306-.151.14 0 .203.144.064.143.091.426.026.286.08.524.055.237.2.304.098.047.098.109 0 .06-.083.124t-.152.064q-.137 0-.246-.17-.109-.168-.164-.73-.024-.225-.046-.32-.023-.095-.07-.095-.073 0-.173.138-.098.138-.319.56-.172.329-.262.44-.087.108-.17.108-.074 0-.133-.059-.058-.06-.074-.143-.015-.084-.033-.411-.025-.545-.094-.634z"/></g></g></svg>