<svg xmlns="http://www.w3.org/2000/svg" viewBox="0 0 70.9 5.4" height="20.409" width="267.969"><g transform="translate(0 -291.6)" font-weight="400" font-family="Segoe Print" letter-spacing="0" word-spacing="0"><flowRoot transform="matrix(.26458 0 0 .26458 0 226.6)" style="line-height:1.25;-inkscape-font-specification:'Segoe Print';font-variant-ligatures:normal;font-variant-caps:normal;font-variant-numeric:normal;font-feature-settings:normal;text-align:start" xml:space="preserve" font-style="normal" font-variant="normal" font-stretch="normal" font-size="13.333" writing-mode="lr-tb" text-anchor="start" fill="#000" fill-opacity="1" stroke="none"><flowRegion><path d="M7.239 212.992h60.325V251.6H7.239z"/></flowRegion><flowPara/></flowRoot><text y="254.382" x="114.134" style="line-height:2;-inkscape-font-specification:'Segoe Print';font-variant-ligatures:normal;font-variant-caps:normal;font-variant-numeric:normal;font-feature-settings:normal;text-align:start" font-size="3.528" fill="#917c6f" stroke-width=".265"><tspan y="254.382" x="114.134">адамдар</tspan><tspan y="261.532" x="114.134">бөлме ғимарат жобалар</tspan><tspan y="268.682" x="114.134">ғарыш тылсым әлем</tspan><tspan y="275.833" x="114.134">гүлдер</tspan><tspan y="282.983" x="114.134">өсімдіктер</tspan><tspan y="290.134" x="114.134">қалыпталған кескіндер</tspan><tspan y="297.284" x="114.134">қолданыс заттары</tspan><tspan y="304.34" x="114.134">жаныуарлар</tspan><tspan y="311.49" x="114.134">өнер білім спорт</tspan><tspan y="318.546" x="114.134">art education sports</tspan><tspan y="325.707" x="114.134">美術教育スポーツ</tspan><tspan y="332.857" x="114.134">الرياضة التربية الفنية</tspan><tspan y="340.008" x="114.134">сән үлгілері</tspan><tspan y="347.158" x="114.134">тәбіиғат</tspan><tspan y="354.214" x="114.134">елмекен</tspan></text><text y="254.36" x="162.734" style="line-height:2;-inkscape-font-specification:'Segoe Print';font-variant-ligatures:normal;font-variant-caps:normal;font-variant-numeric:normal;font-feature-settings:normal;text-align:start" font-size="3.528" fill="#917c6f" stroke-width=".265"><tspan y="254.36" x="162.734">үи</tspan><tspan y="261.51" x="162.734">пәтер</tspan><tspan y="268.661" x="162.734">бөлме алаң</tspan><tspan y="275.811" x="162.734">ғимарат</tspan><tspan y="282.867" x="162.734">жер телімі</tspan><tspan y="290.017" x="162.734">қызымет</tspan></text><text y="253.736" x="190.455" style="line-height:2;-inkscape-font-specification:'Segoe Print';font-variant-ligatures:normal;font-variant-caps:normal;font-variant-numeric:normal;font-feature-settings:normal;text-align:start" font-size="3.528" fill="#917c6f" stroke-width=".265"><tspan y="253.736" x="190.455">жеңіл</tspan><tspan y="260.792" x="190.455">жолаушылар</tspan><tspan y="267.942" x="190.455">жүк</tspan><tspan y="275.093" x="190.455">қызыметтік</tspan><tspan y="282.148" x="190.455">белсебет</tspan><tspan y="289.204" x="190.455">мотосекл</tspan><tspan y="296.354" x="190.455">сұу</tspan><tspan y="303.505" x="190.455">әуе</tspan><tspan y="310.655" x="190.455">қызымет</tspan></text><text y="253.832" x="223.203" style="line-height:2;-inkscape-font-specification:'Segoe Print';font-variant-ligatures:normal;font-variant-caps:normal;font-variant-numeric:normal;font-feature-settings:normal;text-align:start" font-size="3.528" fill="#917c6f" stroke-width=".265"><tspan y="253.832" x="223.203">нан өнімдері</tspan><tspan y="260.983" x="223.203">сұусын</tspan><tspan y="268.133" x="223.203">кәмпит</tspan><tspan y="275.189" x="223.203">торт</tspan><tspan y="282.339" x="223.203">жеміс жидек көкөніс</tspan><tspan y="289.49" x="223.203">қаинатпа</tspan><tspan y="296.64" x="223.203">тұздалған</tspan><tspan y="303.79" x="223.203">қызымет</tspan></text><text y="253.707" x="265.973" style="line-height:2;-inkscape-font-specification:'Segoe Print';font-variant-ligatures:normal;font-variant-caps:normal;font-variant-numeric:normal;font-feature-settings:normal;text-align:start" font-size="3.528" fill="#917c6f" stroke-width=".265"><tspan y="253.707" x="265.973">бас кіиім</tspan><tspan y="260.858" x="265.973">үстіңгі</tspan><tspan y="268.008" x="265.973">астыңғы</tspan><tspan y="275.158" x="265.973">аиақ</tspan><tspan y="282.214" x="265.973">спорт</tspan><tspan y="289.27" x="265.973">балалар</tspan><tspan y="296.325" x="265.973">арнаиы</tspan><tspan y="303.476" x="265.973">қызымет</tspan></text><text y="253.509" x="288.034" style="line-height:2;-inkscape-font-specification:'Segoe Print';font-variant-ligatures:normal;font-variant-caps:normal;font-variant-numeric:normal;font-feature-settings:normal;text-align:start" font-size="3.528" fill="#917c6f" stroke-width=".265"><tspan y="253.509" x="288.034">ас үи</tspan><tspan y="260.659" x="288.034">құрал</tspan><tspan y="267.81" x="288.034">құрылғы</tspan><tspan y="274.96" x="288.034">бақша</tspan><tspan y="282.016" x="288.034">оиын</tspan><tspan y="289.166" x="288.034">зат-қызымет</tspan></text><text y="253.434" x="319.277" style="line-height:2;-inkscape-font-specification:'Segoe Print';font-variant-ligatures:normal;font-variant-caps:normal;font-variant-numeric:normal;font-feature-settings:normal;text-align:start" font-size="3.528" fill="#917c6f" stroke-width=".265"><tspan y="253.434" x="319.277">әк үнтақ</tspan><tspan y="260.489" x="319.277">боиау</tspan><tspan y="267.64" x="319.277">түс қағаз</tspan><tspan y="274.79" x="319.277">кірпіш тұтас бетон</tspan><tspan y="281.941" x="319.277">ағаш пластік ұқсастар</tspan><tspan y="289.091" x="319.277">метал көмпөзіт ұқсастар</tspan><tspan y="296.147" x="319.277">есік терезе</tspan><tspan y="303.297" x="319.277">су кәріз жылытыу ауа тораптары</tspan><tspan y="310.448" x="319.277">електр басқа желілер</tspan><tspan y="317.598" x="319.277">сәулет сәндеу жобалау</tspan><tspan y="324.749" x="319.277">қызымет</tspan></text><text y="309.637" x="300.914" style="line-height:1.25;-inkscape-font-specification:'Segoe Print';font-variant-ligatures:normal;font-variant-caps:normal;font-variant-numeric:normal;font-feature-settings:normal;text-align:start" font-size="3.528" stroke-width=".265"/><text y="253.157" x="391.499" style="line-height:2;-inkscape-font-specification:'Segoe Print';font-variant-ligatures:normal;font-variant-caps:normal;font-variant-numeric:normal;font-feature-settings:normal;text-align:start" font-size="3.528" fill="#917c6f" stroke-width=".265"><tspan y="253.157" x="391.499">тазартыу</tspan><tspan y="260.307" x="391.499">әтір саулық</tspan><tspan y="267.457" x="391.499">қызымет</tspan></text><g style="line-height:2;-inkscape-font-specification:'Segoe Print';font-variant-ligatures:normal;font-variant-caps:normal;font-variant-numeric:normal;font-feature-settings:normal;text-align:start" aria-label="тазартыу әтір саулық қызымет" font-size="3.528" fill="#917c6f" stroke-width=".265"><path d="M3.68 294.107q-.16.003-.686.95-.177.318-.206.348-.03.027-.109.05-.077.022-.13.022-.114 0-.114-.45 0-.253.108-.916.045-.269.045-.384 0-.114.101-.114.192 0 .192.276 0 .129-.064.506-.074.43-.076.524.107-.103.314-.453.292-.479.43-.607.14-.129.288-.129.112 0 .177.15.068.15.081.715.004.141.026.21.023.07.033.07.08 0 .351-.552.145-.291.281-.443.138-.151.305-.151.14 0 .203.144.064.143.092.426.025.286.079.523.055.238.2.305.098.047.098.109 0 .06-.083.124t-.152.064q-.137 0-.246-.17-.108-.168-.163-.73-.025-.225-.047-.32t-.07-.095q-.073 0-.173.138-.098.138-.319.56-.172.329-.261.44-.088.108-.17.108-.075 0-.134-.059-.058-.06-.074-.143-.015-.084-.032-.412-.026-.544-.095-.634zM7.166 294.843q-.24.324-.477.486-.236.162-.432.162-.133 0-.23-.112-.096-.112-.096-.288 0-.453.405-.975.405-.524.805-.524.144 0 .215.166.022.055.07.055.138 0 .138.107 0 .053-.017.146-.093.508-.093.717 0 .417.158.5.076.04.076.1 0 .054-.074.108-.074.055-.143.055-.132 0-.219-.183-.086-.182-.086-.52zm-.105-.97q-.227 0-.529.427-.301.426-.301.707 0 .198.13.198.19 0 .526-.383.336-.382.336-.702 0-.247-.162-.247zM8.918 294.41q.222.037.346.164.124.128.124.312 0 .291-.246.486-.246.193-.648.193-.239 0-.413-.104-.172-.103-.172-.229 0-.103.119-.103.017 0 .053.03.19.163.45.163.229 0 .394-.12.165-.121.165-.314 0-.128-.094-.212-.093-.086-.217-.086-.095 0-.333.074-.046.015-.1.015-.103 0-.103-.14 0-.047.048-.077.05-.029.212-.067.491-.112.491-.398 0-.086-.062-.14-.06-.058-.157-.058-.179 0-.382.159-.12.093-.181.093-.105 0-.105-.098 0-.13.243-.264.244-.136.468-.136.224 0 .352.119.129.119.129.25 0 .311-.38.489zM10.934 294.843q-.242.324-.478.486-.236.162-.432.162-.133 0-.23-.112-.096-.112-.096-.288 0-.453.405-.975.405-.524.805-.524.144 0 .215.166.022.055.07.055.138 0 .138.107 0 .053-.017.146-.093.508-.093.717 0 .417.159.5.075.04.075.1 0 .054-.074.108-.074.055-.143.055-.132 0-.218-.183-.086-.182-.086-.52zm-.106-.97q-.227 0-.528.427-.302.426-.302.707 0 .198.131.198.19 0 .525-.383.336-.382.336-.702 0-.247-.162-.247zM12.176 295.27q-.085.31-.159.87l-.048.326q-.012.069-.064.136-.052.069-.095.069-.053 0-.122-.055-.067-.054-.067-.087 0-.094.043-.261.315-1.273.315-2.236l-.002-.145q-.003-.186.066-.27.069-.085.158-.085.042 0 .08.066.038.063.038.182 0 .167-.035.405-.045.3-.046.345.256-.448.544-.7.288-.251.534-.251.174 0 .293.13.12.13.12.323 0 .561-.43 1.02-.431.458-.84.458-.1 0-.161-.052-.059-.052-.122-.188zm1.07-1.386q-.244 0-.602.454-.358.455-.358.708 0 .062.07.12.071.06.18.06.246 0 .566-.364.32-.365.32-.717 0-.125-.051-.193-.05-.068-.126-.068zM15.424 294.107q-.16.003-.685.95-.178.318-.207.348-.03.027-.109.05-.077.022-.129.022-.115 0-.115-.45 0-.253.108-.916.045-.269.045-.384 0-.114.102-.114.191 0 .191.276 0 .129-.064.506-.074.43-.076.524.107-.103.314-.453.293-.479.43-.607.14-.129.288-.129.112 0 .178.15.067.15.08.715.004.141.026.21.023.07.033.07.081 0 .352-.552.144-.291.28-.443.138-.151.305-.151.14 0 .204.144.063.143.09.426.027.286.08.523.055.238.2.305.098.047.098.109 0 .06-.083.124-.082.064-.151.064-.138 0-.247-.17-.108-.168-.163-.73-.024-.225-.047-.32-.022-.095-.07-.095-.073 0-.173.138-.098.138-.318.56-.172.329-.262.44-.088.108-.17.108-.075 0-.133-.059-.059-.06-.074-.143-.016-.084-.033-.412-.026-.544-.095-.634zM18.15 293.518q.022-.015.05-.015.042 0 .072.115 0 .074-.04.188-.117.326-.117.455 0 .034.02.038.397-.381.734-.381.209 0 .35.158.141.157.141.288 0 .4-.408.768-.407.367-.82.367-.184 0-.288-.151-.101-.154-.101-.438 0-.308.077-.682.078-.374.124-.5.02-.053.035-.108.017-.069.17-.102zm-.082 1.08q-.034.192-.034.383 0 .26.205.26.23 0 .517-.276.286-.275.286-.535 0-.107-.057-.18-.057-.072-.157-.072-.136 0-.269.07-.13.066-.293.218-.062.058-.1.091-.036.031-.098.041zm1.735.397q0 .13.036.294.007.031.007.052 0 .03-.057.08t-.12.05q-.167 0-.167-.308 0-.304.132-1.023.048-.262.048-.317 0-.108.04-.184.04-.078.112-.078.088 0 .138.044.051.04.051.093 0 .051-.024.143-.134.49-.165.687-.031.196-.031.467zM21.64 294.862q-.26.246-.523.386-.262.14-.401.14-.16 0-.257-.137-.095-.138-.095-.337 0-.291.11-.688.113-.398.171-.451.059-.053.155-.053.052 0 .081.062.03.06.03.124 0 .043-.04.112-.226.39-.226.807 0 .097.036.171.037.072.11.072.095 0 .233-.056.14-.06.314-.19t.234-.212q.06-.08.084-.184.026-.103.037-.448.01-.345.167-.345.093 0 .12.05.028.049.028.187 0 .103-.031.447-.007.078-.009.143-.05.92-.275 1.442-.226.522-.657.522-.337 0-.6-.177-.263-.176-.263-.298 0-.057.026-.112.028-.055.069-.055.02 0 .045.032.225.347.694.347.298 0 .446-.366.148-.363.188-.935zM2.345 301.739v-.155h1.457q-.02-.328-.198-.498-.176-.173-.49-.173-.183 0-.356.045-.17.045-.339.135v-.3q.17-.072.35-.11.179-.038.363-.038.462 0 .73.268.27.27.27.727 0 .474-.256.753-.255.277-.689.277-.389 0-.616-.25-.226-.25-.226-.681zm.317.093q.003.26.145.415.143.155.377.155.265 0 .424-.15.16-.15.184-.422zM5.85 301.258q-.16.003-.685.95-.178.318-.207.347-.03.028-.108.05-.078.022-.13.022-.115 0-.115-.45 0-.252.108-.916.045-.268.045-.384 0-.113.102-.113.191 0 .191.275 0 .13-.064.507-.074.43-.075.523.106-.103.313-.453.293-.479.43-.606.14-.13.288-.13.112 0 .178.15.067.15.08.715.004.142.027.21.022.07.032.07.081 0 .352-.552.144-.29.28-.442.138-.152.305-.152.14 0 .204.145.063.143.09.425.027.286.08.524.055.238.2.305.098.046.098.108 0 .06-.083.124-.082.064-.151.064-.138 0-.246-.169-.109-.169-.164-.73-.024-.226-.047-.32-.022-.095-.07-.095-.073 0-.172.138-.099.137-.32.56-.171.328-.26.439-.089.108-.171.108-.075 0-.133-.058-.059-.06-.074-.143-.016-.085-.033-.412-.026-.544-.095-.634zM8.73 300.314q-.036 0-.055-.077-.007-.025-.019-.054-.046-.112-.046-.195 0-.068.08-.14.083-.071.183-.071.05 0 .112.04.062.037.062.073 0 .057-.043.193-.041.136-.134.185-.091.046-.14.046zm-.225 1.924q0 .131.036.295.007.03.007.051 0 .031-.057.08-.057.05-.12.05-.168 0-.168-.307 0-.317.131-1.003.045-.239.045-.294 0-.109.04-.184.04-.078.112-.078.087 0 .137.043.052.041.052.093t-.024.136q-.13.455-.16.651-.031.197-.031.467zM9.528 302.42q-.084.31-.159.87l-.048.326q-.012.069-.063.136-.052.07-.095.07-.054 0-.123-.056-.067-.053-.067-.086 0-.095.043-.262.316-1.273.316-2.236l-.002-.144q-.004-.187.065-.27.07-.085.159-.085.041 0 .08.065.037.064.037.183 0 .167-.034.405-.045.3-.047.344.257-.448.544-.7.288-.25.534-.25.174 0 .293.13.12.13.12.322 0 .562-.43 1.02-.43.458-.839.458-.101 0-.162-.051-.058-.052-.122-.188zm1.07-1.386q-.243 0-.602.455-.358.455-.358.708 0 .062.07.12.071.059.18.059.246 0 .567-.364.32-.365.32-.716 0-.126-.052-.193-.05-.069-.125-.069zM13.357 302.719q-.258 0-.398-.148-.138-.149-.138-.416 0-.45.357-.947.357-.5.663-.5.14 0 .24.152.101.15.101.319 0 .101-.045.175-.043.073-.087.073-.1 0-.142-.202-.046-.217-.134-.217-.18 0-.424.426-.244.425-.244.718t.332.293q.253 0 .596-.238.12-.084.178-.084.058 0 .058.067 0 .13-.308.33-.309.199-.605.199zM15.836 301.993q-.241.324-.477.486-.236.162-.433.162-.132 0-.229-.112-.096-.112-.096-.287 0-.453.405-.975.404-.524.804-.524.145 0 .215.165.023.055.071.055.138 0 .138.107 0 .054-.017.147-.093.508-.093.716 0 .417.158.5.076.041.076.101 0 .054-.074.107-.074.055-.143.055-.133 0-.219-.182-.086-.183-.086-.52zm-.105-.97q-.228 0-.529.428-.301.425-.301.706 0 .198.13.198.19 0 .526-.382.336-.383.336-.703 0-.246-.162-.246zM18.018 302.012q-.261.247-.523.386-.262.14-.402.14-.16 0-.256-.136-.095-.138-.095-.338 0-.291.11-.687.112-.398.17-.451.06-.054.156-.054.051 0 .08.062.03.06.03.124 0 .043-.04.112-.225.391-.225.808 0 .096.036.17.036.073.11.073.095 0 .233-.057.14-.059.313-.19.174-.13.234-.211.06-.081.085-.185.026-.103.036-.447.01-.345.167-.345.093 0 .12.05.028.048.028.186 0 .103-.03.448-.008.077-.01.143-.05.92-.275 1.442-.226.522-.656.522-.338 0-.601-.178-.262-.175-.262-.298 0-.057.026-.112.027-.055.069-.055.02 0 .044.033.226.346.694.346.298 0 .447-.365.148-.364.187-.935zM19.796 301.217q-.041-.002-.08.079-.357.713-.54.968-.016.022-.04.065-.215.385-.315.385-.134 0-.134-.13 0-.117.167-.318.162-.192.425-.648.264-.458.427-.822.031-.065.094-.065.025 0 .09.024.068.022.087.05.019.028.084.32.212 1.056.446 1.253.056.048.066.065.01.016.01.045 0 .053-.034.098-.035.043-.067.055-.033.012-.135.012-.036 0-.169-.177-.132-.18-.31-.973-.043-.214-.072-.286zM21.336 300.669q.022-.016.05-.016.043 0 .072.116 0 .074-.04.188-.116.325-.116.454 0 .035.02.038.396-.38.734-.38.208 0 .35.158.141.157.141.288 0 .4-.408.768-.407.367-.82.367-.185 0-.288-.152-.102-.153-.102-.437 0-.309.078-.682.078-.374.124-.5.019-.053.034-.109.018-.068.171-.101zm-.08 1.08q-.035.191-.035.382 0 .26.205.26.23 0 .516-.275.286-.276.286-.536 0-.107-.057-.18-.056-.071-.156-.071-.136 0-.269.068-.13.068-.293.22-.062.058-.1.09-.036.031-.098.042zm1.734.396q0 .131.036.295.007.03.007.051 0 .031-.057.081-.057.049-.12.049-.168 0-.168-.307 0-.305.133-1.023.048-.262.048-.317 0-.109.04-.185.04-.077.112-.077.088 0 .137.043.052.041.052.093t-.024.143q-.134.491-.165.687-.031.197-.031.467zM23.646 300.691h.315v.906l.894-.906h.39l-.738.746.646.92h.245v.751h-.317v-.488h-.097l-.683-.973-.34.345v.628h-.315zM2.47 307.842h.316v.906l.894-.906h.39l-.738.746.646.92h.245v.75h-.317v-.487h-.097l-.684-.973-.34.344v.629h-.314zM4.91 307.82q.022-.016.05-.016.043 0 .072.115 0 .074-.04.188-.117.326-.117.455 0 .034.021.038.396-.381.734-.381.208 0 .35.158.14.157.14.288 0 .4-.407.768-.407.367-.82.367-.185 0-.288-.151-.102-.154-.102-.438 0-.308.078-.682.077-.374.124-.5.019-.053.034-.108.017-.069.17-.102zm-.081 1.08q-.035.19-.035.382 0 .26.205.26.231 0 .517-.276.286-.275.286-.535 0-.107-.057-.18-.057-.072-.157-.072-.136 0-.268.069-.131.067-.293.219-.062.058-.1.091-.036.031-.098.041zm1.734.396q0 .13.037.294.007.031.007.052 0 .03-.057.08-.057.049-.12.049-.168 0-.168-.307 0-.304.133-1.023.048-.262.048-.317 0-.108.04-.184.04-.078.111-.078.088 0 .138.044.052.04.052.093 0 .051-.024.143-.135.49-.166.687-.03.196-.03.467zM7.97 308.712q.223.036.347.163.124.128.124.312 0 .291-.246.486-.247.193-.648.193-.24 0-.413-.104-.173-.103-.173-.229 0-.103.12-.103.016 0 .053.03.19.163.45.163.228 0 .394-.12.165-.121.165-.314 0-.128-.095-.212-.093-.086-.217-.086-.094 0-.332.074-.047.015-.1.015-.103 0-.103-.14 0-.047.048-.077.05-.029.212-.067.49-.112.49-.398 0-.086-.061-.141-.06-.057-.157-.057-.18 0-.383.159-.118.093-.18.093-.106 0-.106-.098 0-.13.243-.264.245-.136.469-.136.224 0 .351.119.13.119.13.25 0 .311-.381.489zM9.225 307.82q.022-.016.05-.016.043 0 .072.115 0 .074-.04.188-.117.326-.117.455 0 .034.021.038.396-.381.734-.381.208 0 .35.158.14.157.14.288 0 .4-.408.768-.406.367-.82.367-.184 0-.287-.151-.102-.154-.102-.438 0-.308.078-.682.077-.374.124-.5.019-.053.034-.108.017-.069.17-.102zm-.081 1.08q-.035.19-.035.382 0 .26.205.26.231 0 .517-.276.286-.275.286-.535 0-.107-.057-.18-.057-.072-.157-.072-.136 0-.268.069-.131.067-.293.219-.062.058-.1.091-.036.031-.098.041zm1.734.396q0 .13.037.294.007.031.007.052 0 .03-.057.08-.057.049-.12.049-.168 0-.168-.307 0-.304.133-1.023.048-.262.048-.317 0-.108.04-.184.04-.078.111-.078.088 0 .138.044.052.04.052.093 0 .051-.024.143-.135.49-.166.687-.03.196-.03.467zM13.641 308.262q-.14.224-.392.758-.057.12-.116.232-.019.037-.072.16-.181.421-.315.421-.107 0-.157-.026-.048-.026-.093-.141-.045-.115-.133-.543-.101-.484-.138-.596-.117.264-.208.508-.138.36-.267.588-.13.226-.186.27-.057.047-.109.047-.053 0-.096-.041-.043-.042-.043-.081.01-.071.024-.088.15-.185.258-.393.109-.209.276-.625.169-.417.215-.684.023-.114.167-.114.085 0 .116.026.03.026.06.105.031.08.036.141.01.074.059.33.043.239.057.339.024.142.084.375.062.233.097.233.024 0 .069-.106l.144-.334q.04-.091.085-.179l.198-.405q.162-.334.248-.484.088-.151.117-.182.03-.031.069-.031.065 0 .146.036.081.034.085.077.003.044.015.36l.022.538q.01.257.031.437.021.18.073.29.08.176.08.272 0 .083-.068.114-.067.03-.126.03-.12 0-.186-.192-.064-.193-.093-1.106-.01-.274-.033-.336zM16.003 309.187q0 .176-.312.424-.31.248-.64.248-.278 0-.43-.164-.15-.163-.15-.456 0-.493.333-.937.333-.445.727-.445.13 0 .21.085.083.084.083.203 0 .265-.26.508t-.696.477q-.09.047-.09.12 0 .144.083.23.083.086.245.086.37 0 .756-.41.057-.057.086-.057.055 0 .055.088zm-1.197-.269q.73-.434.73-.697 0-.104-.093-.104-.158 0-.358.233-.198.232-.28.568zM17.664 308.408q-.16.003-.686.95-.177.318-.207.348-.029.027-.108.05-.078.022-.13.022-.115 0-.115-.45 0-.253.109-.916.044-.269.044-.384 0-.114.102-.114.191 0 .191.276 0 .129-.063.506-.075.43-.076.524.107-.104.313-.453.293-.48.43-.607.14-.129.289-.129.112 0 .177.15.067.15.081.715.003.141.026.21.022.069.033.069.08 0 .35-.551.146-.291.282-.443.138-.151.305-.151.14 0 .203.144.064.143.091.426.026.286.08.523.055.238.2.305.097.047.097.109 0 .06-.082.124-.083.063-.152.063-.138 0-.246-.168-.109-.17-.164-.73-.024-.226-.046-.321-.023-.095-.071-.095-.072 0-.172.138-.098.138-.319.56-.172.329-.262.44-.088.108-.17.108-.074 0-.133-.059-.058-.06-.074-.143-.015-.084-.033-.412-.026-.544-.094-.634z"/></g></g></svg>