<?xml version="1.0" encoding="UTF-8"?>
<!DOCTYPE svg PUBLIC "-//W3C//DTD SVG 1.1//EN" "http://www.w3.org/Graphics/SVG/1.1/DTD/svg11.dtd">
<!-- Creator: CorelDRAW 2020 -->
<svg xmlns="http://www.w3.org/2000/svg" xml:space="preserve" width="16mm" height="16mm" version="1.1" style="shape-rendering:geometricPrecision; text-rendering:geometricPrecision; image-rendering:optimizeQuality; fill-rule:evenodd; clip-rule:evenodd"
viewBox="0 0 143.82 143.82"
 xmlns:xlink="http://www.w3.org/1999/xlink"
 xmlns:xodm="http://www.corel.com/coreldraw/odm/2003">
 <defs>
  <style type="text/css">
   <![CDATA[
    .str0 {stroke:#ACA77B;stroke-width:17.98;stroke-miterlimit:22.9256}
    .fil0 {fill:none}
    .fil1 {fill:#ACA77B}
   ]]>
  </style>
 </defs>
 <g id="Layer_x0020_1">
  <metadata id="CorelCorpID_0Corel-Layer"/>
  <polygon class="fil0" points="-0,0 143.82,0 143.82,143.82 -0,143.82 "/>
  <g id="atau-belgi.svg">
   <path class="fil0 str0" d="M70.57 36.17c-35.93,5.67 -47.9,28.24 -51.44,41.47 -3.09,11.47 -2.2,30.32 23.45,30.95 8.32,0 32.53,-0.06 52.38,0 24.65,0.06 31.52,-19.67 30.95,-36.62 -1.08,-30.79 -28.79,-39.96 -55.34,-35.8z"/>
   <path class="fil1" d="M38.29 79.78c0,-7.15 5.84,-12.99 12.99,-12.99 7.15,0 12.99,5.84 12.99,12.99 0,7.15 -5.84,12.99 -12.99,12.99 -7.15,0 -12.99,-5.84 -12.99,-12.99z"/>
  </g>
 </g>
</svg>
