<svg xmlns="http://www.w3.org/2000/svg" xmlns:xlink="http://www.w3.org/1999/xlink" viewBox="0 0 28.9 5.4" height="20.409" width="109.228" xmlns:v="https://vecta.io/nano"><style><![CDATA[.B{font-size:3.528px}.C{font-family:Segoe Print}.D{word-spacing:0px}.E{writing-mode:lr-tb}.F{fill:#917c6f}]]></style><text xml:space="preserve" x="114.134" y="-37.218" letter-spacing="0" class="B C D E F"><tspan x="114.134" y="-37.218">адамдар</tspan><tspan x="114.134" y="-30.068">бөлме ғимарат жобалар</tspan><tspan x="114.134" y="-22.918">ғарыш тылсым әлем</tspan><tspan x="114.134" y="-15.767">гүлдер</tspan><tspan x="114.134" y="-8.617">өсімдіктер</tspan><tspan x="114.134" y="-1.466">қалыпталған кескіндер</tspan><tspan x="114.134" y="5.684">қолданыс заттары</tspan><tspan x="114.134" y="12.74">жаныуарлар</tspan><tspan x="114.134" y="19.89">өнер білім спорт</tspan><tspan x="114.134" y="26.946">art education sports</tspan><tspan x="114.134" y="34.107">美術教育スポーツ</tspan><tspan x="114.134" y="41.257">الرياضة التربية الفنية</tspan><tspan x="114.134" y="48.408">сән үлгілері</tspan><tspan x="114.134" y="55.558">тәбіиғат</tspan><tspan x="114.134" y="62.614">елмекен</tspan></text><text xml:space="preserve" x="162.734" y="-37.24" letter-spacing="0" class="B C D E F"><tspan x="162.734" y="-37.24">үи</tspan><tspan x="162.734" y="-30.09">пәтер</tspan><tspan x="162.734" y="-22.939">бөлме алаң</tspan><tspan x="162.734" y="-15.789">ғимарат</tspan><tspan x="162.734" y="-8.733">жер телімі</tspan><tspan x="162.734" y="-1.583">қызымет</tspan></text><text xml:space="preserve" x="190.455" y="-37.864" letter-spacing="0" class="B C D E F"><tspan x="190.455" y="-37.864">жеңіл</tspan><tspan x="190.455" y="-30.808">жолаушылар</tspan><tspan x="190.455" y="-23.658">жүк</tspan><tspan x="190.455" y="-16.507">қызыметтік</tspan><tspan x="190.455" y="-9.452">белсебет</tspan><tspan x="190.455" y="-2.396">мотосекл</tspan><tspan x="190.455" y="4.754">сұу</tspan><tspan x="190.455" y="11.905">әуе</tspan><tspan x="190.455" y="19.055">қызымет</tspan></text><text xml:space="preserve" x="223.203" y="-37.768" letter-spacing="0" class="B C D E F"><tspan x="223.203" y="-37.768">нан өнімдері</tspan><tspan x="223.203" y="-30.617">сұусын</tspan><tspan x="223.203" y="-23.467">кәмпит</tspan><tspan x="223.203" y="-16.411">торт</tspan><tspan x="223.203" y="-9.261">жеміс жидек көкөніс</tspan><tspan x="223.203" y="-2.11">қаинатпа</tspan><tspan x="223.203" y="5.04">тұздалған</tspan><tspan x="223.203" y="12.19">қызымет</tspan></text><text xml:space="preserve" x="265.973" y="-37.893" letter-spacing="0" class="B C D E F"><tspan x="265.973" y="-37.893">бас кіиім</tspan><tspan x="265.973" y="-30.742">үстіңгі</tspan><tspan x="265.973" y="-23.592">астыңғы</tspan><tspan x="265.973" y="-16.442">аиақ</tspan><tspan x="265.973" y="-9.386">спорт</tspan><tspan x="265.973" y="-2.33">балалар</tspan><tspan x="265.973" y="4.725">арнаиы</tspan><tspan x="265.973" y="11.876">қызымет</tspan></text><text xml:space="preserve" x="288.034" y="-38.091" letter-spacing="0" class="B C D E F"><tspan x="288.034" y="-38.091">ас үи</tspan><tspan x="288.034" y="-30.941">құрал</tspan><tspan x="288.034" y="-23.79">құрылғы</tspan><tspan x="288.034" y="-16.64">бақша</tspan><tspan x="288.034" y="-9.584">оиын</tspan><tspan x="288.034" y="-2.434">зат-қызымет</tspan></text><text xml:space="preserve" x="319.277" y="-38.166" letter-spacing="0" class="B C D E F"><tspan x="319.277" y="-38.166">әк үнтақ</tspan><tspan x="319.277" y="-31.111">боиау</tspan><tspan x="319.277" y="-23.96">түс қағаз</tspan><tspan x="319.277" y="-16.81">кірпіш тұтас бетон</tspan><tspan x="319.277" y="-9.659">ағаш пластік ұқсастар</tspan><tspan x="319.277" y="-2.509">метал көмпөзіт ұқсастар</tspan><tspan x="319.277" y="4.547">есік терезе</tspan><tspan x="319.277" y="11.697">су кәріз жылытыу ауа тораптары</tspan><tspan x="319.277" y="18.848">електр басқа желілер</tspan><tspan x="319.277" y="25.998">сәулет сәндеу жобалау</tspan><tspan x="319.277" y="33.149">қызымет</tspan></text><text xml:space="preserve" x="391.499" y="-38.443" letter-spacing="0" class="B C D E F"><tspan x="391.499" y="-38.443">тазартыу</tspan><tspan x="391.499" y="-31.293">әтір саулық</tspan><tspan x="391.499" y="-24.143">қызымет</tspan></text><text xml:space="preserve" x="421.027" y="-38.187" letter-spacing="0" class="B C D E F"><tspan x="421.027" y="-38.187">ас үи</tspan><tspan x="421.027" y="-31.036">қонақ</tspan><tspan x="421.027" y="-23.981">жатын</tspan><tspan x="421.027" y="-16.83">кеңсе</tspan><tspan x="421.027" y="-9.68">көпшілік</tspan><tspan x="421.027" y="-2.624">арнаиы</tspan><tspan x="421.027" y="4.526">қызымет</tspan><tspan x="421.027" y="18.732">дәптер</tspan><tspan x="421.027" y="25.883">кітәп</tspan><tspan x="421.027" y="32.939">жазыу сызыу</tspan><tspan x="421.027" y="39.994">боиау</tspan><tspan x="421.027" y="47.145">қағаз</tspan><tspan x="421.027" y="54.295">құрал</tspan><tspan x="421.027" y="61.445">қызымет</tspan><tspan x="421.027" y="75.651">ағаш</tspan><tspan x="421.027" y="82.802">шөп</tspan><tspan x="421.027" y="89.952">гүл</tspan><tspan x="421.027" y="97.103">саңырауқұлақ</tspan><tspan x="421.027" y="104.253">дәнді-дақыл</tspan><tspan x="421.027" y="111.404">қызымет</tspan><tspan x="421.027" y="125.61">үи жаныуары</tspan><tspan x="421.027" y="132.76">тәбіиғат жаныуары</tspan><tspan x="421.027" y="139.911">қызымет</tspan><tspan x="421.027" y="154.117">көмекші</tspan><tspan x="421.027" y="161.172">емдеу</tspan><tspan x="421.027" y="168.323">сымбат саулық</tspan><tspan x="421.027" y="175.473">заңгерлік</tspan></text><g class="F"><use xlink:href="#B"/><use xlink:href="#C"/><use xlink:href="#B" x="4.146"/><use xlink:href="#D"/><use xlink:href="#B" x="9.791"/><use xlink:href="#E"/><use xlink:href="#F"/><use xlink:href="#G"/><use xlink:href="#H"/><use xlink:href="#I"/><use xlink:href="#E" x="10.184"/><use xlink:href="#J"/><path d="M5.171-45.989v.765h-.336v-.765l-.78-1.898h.336l.603 1.509.603-1.509h.336z"/><use xlink:href="#K"/><use xlink:href="#D" x="1.28" y="7.151"/><use xlink:href="#B" x="11.071" y="7.151"/><use xlink:href="#E" x="1.28" y="7.15"/><use xlink:href="#F" x="1.28" y="7.151"/><use xlink:href="#G" x="1.28" y="7.151"/><use xlink:href="#H" x="1.28" y="7.151"/><use xlink:href="#I" x="1.28" y="7.151"/><use xlink:href="#E" x="11.464" y="7.15"/><use xlink:href="#J" y="7.15"/><use xlink:href="#L"/><path d="M7.54-39.416q-.262.246-.524.386-.262.14-.401.14-.16 0-.257-.136-.095-.138-.095-.338 0-.291.11-.687.112-.398.171-.451.059-.053.155-.053.052 0 .081.062.029.06.029.124 0 .043-.04.112-.226.391-.226.808 0 .096.036.171.036.072.11.072.095 0 .233-.057.14-.059.314-.189.174-.131.234-.212.06-.081.084-.184.026-.103.036-.448.01-.345.167-.345.093 0 .121.05.028.048.028.186 0 .103-.031.448-.007.078-.009.143-.05.92-.276 1.442-.226.522-.656.522-.338 0-.601-.177-.262-.176-.262-.298 0-.057.026-.112.028-.055.069-.055.021 0 .045.033.226.346.694.346.298 0 .446-.365.148-.363.188-.935z"/><use xlink:href="#J" x="5.96" y="7.15"/><use xlink:href="#M"/><use xlink:href="#B" x="10.366" y="14.301"/><use xlink:href="#N"/><path d="M4.381-32.539v-.155h1.457q-.021-.327-.198-.498-.176-.172-.491-.172-.183 0-.355.045-.171.045-.339.134v-.3q.171-.072.35-.11.179-.038.363-.038.462 0 .73.269.27.269.27.727 0 .474-.257.753-.255.277-.689.277-.389 0-.617-.25-.226-.251-.226-.682zm.317.093q.003.26.145.415.143.155.377.155.265 0 .424-.15.16-.15.184-.422z"/><use xlink:href="#F" x="-8.692" y="21.452"/><use xlink:href="#O"/><use xlink:href="#E" x="-2.248" y="21.451"/><use xlink:href="#P"/><use xlink:href="#K" x="8.915" y="14.301"/><use xlink:href="#K" x="-3.875" y="21.357"/><path d="M6.52-24.516q-.236 0-.389-.179-.153-.179-.153-.443 0-.444.298-.875.3-.432.717-.432.276 0 .446.212.172.212.172.505 0 .448-.355.83-.353.382-.736.382zm-.239-.667q0 .174.072.284.074.11.195.11.257 0 .515-.281.258-.282.258-.627 0-.212-.1-.343-.098-.133-.265-.133-.277 0-.477.341-.198.339-.198.648z"/><use xlink:href="#I" x="-14.149" y="28.507"/><use xlink:href="#K" x="4.026" y="21.357"/><use xlink:href="#Q"/><use xlink:href="#H" x="-14.874" y="35.563"/><use xlink:href="#F" x="-7.99" y="35.563"/><use xlink:href="#E" x="-3.886" y="35.562"/><use xlink:href="#J" x="9.001" y="28.412"/><use xlink:href="#Q" x="12.199"/><use xlink:href="#P" x="4.621" y="14.111"/><use xlink:href="#G" x="1.44" y="35.563"/><use xlink:href="#H" x="1.44" y="35.563"/><use xlink:href="#N" x="21.21" y="14.112"/><use xlink:href="#N" y="21.262"/><path d="M5.263-12.103q-.253 0-.382.167-.127.165-.158.384h1.082q-.031-.219-.16-.384-.127-.167-.381-.167zm.002 1.488q.257 0 .401-.2.145-.2.145-.455H4.718q0 .255.145.455.145.2.401.2zm.002-1.757q.413 0 .649.269.236.269.236.744 0 .474-.236.744-.236.269-.649.269-.415 0-.651-.269-.234-.27-.234-.744 0-.475.234-.744.236-.269.651-.269z"/><use xlink:href="#N" x="4.182" y="21.262"/><path d="M9.445-12.103q-.253 0-.382.167-.127.165-.158.384h1.082q-.031-.219-.16-.384-.127-.167-.381-.167zm.002 1.488q.257 0 .401-.2.145-.2.145-.455H8.901q0 .255.145.455.145.2.401.2zm.002-1.757q.413 0 .649.269.236.269.236.744 0 .474-.236.744-.236.269-.649.269-.415 0-.651-.269-.234-.27-.234-.744 0-.475.234-.744.236-.269.651-.269z"/><use xlink:href="#B" x="8.365" y="42.713"/><use xlink:href="#E" x="-1.426" y="42.713"/><use xlink:href="#J" x="11.46" y="35.562"/><use xlink:href="#R"/><use xlink:href="#C" x="0.055" y="49.864"/><use xlink:href="#P" x="-6.437" y="28.412"/><use xlink:href="#B" x="6.353" y="49.864"/><use xlink:href="#C" x="6.353" y="49.864"/><use xlink:href="#K" x="6.624" y="42.713"/><use xlink:href="#O" x="6.845" y="28.412"/><use xlink:href="#C" x="14.388" y="49.864"/><use xlink:href="#K" x="-3.875" y="49.863"/><use xlink:href="#L" x="1.838" y="42.713"/><path d="M8.947 2.846q.222.036.346.164.124.127.124.312 0 .291-.246.486Q8.925 4 8.523 4q-.239 0-.413-.103-.172-.103-.172-.229 0-.103.119-.103.017 0 .053.029.189.164.45.164.229 0 .394-.121.165-.121.165-.314 0-.127-.095-.212-.093-.086-.217-.086-.095 0-.332.074-.047.016-.1.016-.103 0-.103-.14 0-.048.048-.078.05-.029.212-.067.491-.112.491-.398 0-.086-.062-.141-.06-.057-.157-.057-.179 0-.382.158-.119.093-.181.093-.105 0-.105-.098 0-.129.243-.264.245-.136.469-.136.224 0 .351.119.129.119.129.25 0 .312-.381.489z"/><use xlink:href="#G" x="-8.561" y="57.014"/><use xlink:href="#C" x="7.195" y="57.014"/><use xlink:href="#S"/><path d="M16.159 3.905v-.861h-.453v-.293h.453v-.775h1.361v.27h-1.044v.505h.717v.293h-.717v.861z"/><use xlink:href="#C" x="13.455" y="57.014"/><use xlink:href="#B" x="17.601" y="57.014"/><use xlink:href="#J" y="57.014"/><use xlink:href="#C" x="-0.288" y="64.164"/><use xlink:href="#R" x="3.859" y="14.301"/><use xlink:href="#K" x="2.114" y="57.014"/><use xlink:href="#C" x="7.539" y="64.164"/><use xlink:href="#S" x="0.344" y="7.151"/><path d="M16.504 11.055v-.861h-.453v-.293h.453v-.775h1.361v.27h-1.044v.505h.717v.293h-.717v.861z"/><use xlink:href="#C" x="13.799" y="64.164"/><use xlink:href="#B" x="17.945" y="64.165"/><use xlink:href="#R" y="20.129"/><use xlink:href="#M" x="-5.617" y="55.691"/><path d="M7.983 15.824q.222.036.346.164.124.127.124.312 0 .291-.246.486-.246.193-.648.193-.239 0-.413-.103-.172-.103-.172-.229 0-.103.119-.103.017 0 .053.029.189.164.45.164.229 0 .394-.121.165-.121.165-.314 0-.127-.095-.212-.093-.086-.217-.086-.095 0-.332.074-.047.016-.1.016-.103 0-.103-.14 0-.048.048-.078.05-.029.212-.067.491-.112.491-.398 0-.086-.062-.141-.06-.057-.157-.057-.179 0-.382.158-.119.093-.181.093-.105 0-.105-.098 0-.129.243-.264.245-.136.469-.136.224 0 .351.119.129.119.129.25 0 .312-.381.489z"/><use xlink:href="#M" x="-1.302" y="55.691"/><use xlink:href="#F" x="-3.822" y="69.992"/><use xlink:href="#H" x="-5.786" y="69.992"/><use xlink:href="#K" x="10.108" y="62.841"/></g><defs ><path id="B" d="M3.659-54.234q.019-.036.06-.432.031-.317.202-.317.14 0 .14.14 0 .033-.024.133-.133.549-.133.922 0 .403.133.522.069.064.069.103 0 .048-.071.088-.069.04-.126.04-.269 0-.269-.83 0-.055-.041-.055-.162 0-.396.019-.234.019-.336.048-.1.029-.124.055-.022.024-.041.133-.017.107-.017.222v.212q0 .184-.169.184-.141 0-.141-.184 0-.121.031-.307.057-.341.114-1.175.007-.109.019-.138.012-.029.062-.064.052-.036.112-.036.124 0 .124.102 0 .016-.04.258-.041.243-.041.377 0 .095.065.095.131 0 .479-.043.348-.045.36-.071z"/><path id="C" d="M5.628-53.736q-.241.324-.477.486-.236.162-.432.162-.133 0-.229-.112-.096-.112-.096-.288 0-.453.405-.975.405-.524.804-.524.145 0 .215.165.022.055.071.055.138 0 .138.107 0 .053-.017.146-.093.508-.093.717 0 .417.158.5.076.041.076.102 0 .053-.074.107-.074.055-.143.055-.133 0-.219-.183-.086-.183-.086-.52zm-.105-.97q-.227 0-.529.427-.301.425-.301.706 0 .198.131.198.189 0 .525-.382.336-.382.336-.703 0-.246-.162-.246z"/><path id="D" d="M10.871-54.816q-.253 0-.382.167-.127.165-.158.384h1.082q-.031-.219-.16-.384-.127-.167-.381-.167zm.002 1.488q.257 0 .401-.2.145-.2.145-.455h-1.092q0 .255.145.455.145.2.401.2zm.002-1.757q.413 0 .649.269.236.269.236.744 0 .474-.236.744-.236.269-.649.269-.415 0-.651-.269-.234-.27-.234-.744 0-.475.234-.744.236-.269.651-.269z"/><path id="E" d="M14.812-55.415q-.036 0-.055-.078-.007-.024-.019-.053-.047-.112-.047-.195 0-.069.081-.14.083-.072.183-.072.05 0 .112.04.062.038.062.074 0 .057-.043.193-.041.136-.134.184-.091.047-.14.047zm-.226 1.924q0 .131.036.295.007.031.007.052 0 .031-.057.079-.057.05-.121.05-.167 0-.167-.307 0-.317.131-1.003.045-.239.045-.295 0-.109.04-.184.04-.078.112-.078.088 0 .138.043.052.041.052.093 0 .052-.024.136-.129.455-.16.651-.031.196-.031.467z"/><path id="F" d="M17.475-54.618q-.14.224-.393.758-.057.121-.115.233-.019.036-.072.16-.181.42-.315.42-.107 0-.157-.026-.048-.026-.093-.141-.045-.115-.133-.543-.102-.484-.138-.596-.117.264-.208.508-.138.36-.267.587-.129.226-.186.27-.057.047-.109.047-.053 0-.096-.041-.043-.041-.043-.081.01-.071.024-.088.15-.184.258-.393.109-.208.276-.625.169-.417.215-.684.022-.114.167-.114.084 0 .115.026.031.026.06.105.031.079.036.141.01.074.059.329.043.239.057.339.024.143.084.376.062.233.096.233.024 0 .069-.105l.145-.334q.04-.091.084-.179l.198-.405q.162-.334.248-.484.088-.152.117-.183.031-.031.069-.031.065 0 .146.036.081.034.084.078.003.043.016.36l.022.537q.01.257.031.438.021.179.072.289.081.176.081.272 0 .083-.069.114-.067.031-.126.031-.121 0-.186-.193-.064-.193-.093-1.106-.01-.274-.033-.336z"/><path id="G" d="M19.673-55.114q-.062-.269-.153-.376-.091-.107-.241-.165-.15-.059-.27-.059-.047 0-.138.036-.09.034-.138.064-.067.04-.124.04-.065 0-.065-.069 0-.074.112-.205.112-.131.394-.131h.074q.281 0 .496.148.215.146.305.42.091.274.091.736 0 .314-.198.76-.198.446-.505.675-.305.229-.649.229-.124 0-.233-.143-.109-.143-.109-.355 0-.391.171-.689.172-.3.384-.486.214-.186.589-.3.124-.036.169-.057.045-.021.038-.074zm.047.351q-.398.081-.61.257-.479.448-.479 1.004 0 .074.026.14.026.064.059.064.127 0 .233-.045.105-.045.257-.186.152-.143.274-.353.124-.21.179-.405.057-.195.06-.298.003-.105.002-.177z"/><path id="H" d="M21.801-53.693q0 .176-.312.424-.31.248-.641.248-.277 0-.429-.164-.15-.164-.15-.456 0-.493.332-.937.332-.444.727-.444.129 0 .21.084.083.084.083.203 0 .265-.26.508-.26.243-.696.477-.09.047-.09.121 0 .143.083.229.083.086.245.086.37 0 .756-.41.057-.057.086-.057.055 0 .055.088zm-1.197-.269q.73-.434.73-.698 0-.103-.093-.103-.158 0-.358.233-.198.233-.279.568z"/><path id="I" d="M22.493-53.309q-.084.31-.158.87l-.048.326q-.012.069-.064.136-.052.069-.095.069-.053 0-.122-.055-.067-.053-.067-.086 0-.095.043-.262.315-1.273.315-2.236l-.002-.145q-.003-.186.065-.27.069-.084.158-.084.041 0 .079.065.038.064.038.183 0 .167-.034.405-.045.3-.047.345.257-.448.544-.699.288-.251.534-.251.174 0 .293.131.121.129.121.322 0 .562-.431 1.02-.431.458-.839.458-.102 0-.162-.052-.059-.052-.122-.188zm1.07-1.387q-.243 0-.601.455-.358.455-.358.708 0 .062.071.121.071.059.179.059.246 0 .567-.363.32-.365.32-.717 0-.126-.052-.193-.05-.069-.126-.069z"/><path id="J" d="M2.861-45.86q-.258 0-.398-.148-.138-.148-.138-.415 0-.45.357-.947.357-.5.663-.5.14 0 .239.152.102.15.102.319 0 .102-.045.176-.043.072-.088.072-.1 0-.141-.202-.047-.217-.134-.217-.179 0-.424.425-.245.425-.245.718 0 .293.332.293.253 0 .596-.238.121-.084.177-.084.059 0 .059.067 0 .131-.308.331-.308.198-.605.198z"/><path id="K" d="M7.567-47.321q-.16.003-.686.949-.177.319-.207.348-.029.028-.109.05-.078.022-.129.022-.115 0-.115-.45 0-.253.109-.916.045-.269.045-.384 0-.114.102-.114.191 0 .191.276 0 .129-.064.506-.074.431-.076.524.107-.103.314-.453.293-.479.431-.606.14-.129.288-.129.112 0 .177.15.067.15.081.715.003.141.026.21.022.069.033.069.081 0 .351-.551.145-.291.281-.443.138-.152.305-.152.14 0 .203.145.064.143.091.425.026.286.079.524.055.238.2.305.098.047.098.109 0 .06-.083.124-.083.064-.152.064-.138 0-.246-.169-.109-.169-.164-.73-.024-.226-.047-.32-.022-.095-.071-.095-.072 0-.172.138-.098.138-.319.56-.172.329-.262.439-.088.109-.171.109-.074 0-.133-.059-.059-.06-.074-.143-.016-.084-.033-.412-.026-.544-.095-.634z"/><path id="L" d="M5.933-40.737l-.761 1.898v.152h.451v.293h-.451v.32h-.336v-.32h-.47v-.293h.47v-.152l-.78-1.898h.336l.603 1.509.603-1.509z"/><path id="M" d="M10.539-40.76q.022-.016.05-.016.043 0 .072.115 0 .074-.04.188-.117.326-.117.455 0 .034.021.038.396-.381.734-.381.208 0 .35.158.141.157.141.288 0 .4-.408.768-.407.367-.82.367-.184 0-.288-.152-.102-.153-.102-.438 0-.308.078-.682.078-.374.124-.5.019-.053.034-.109.017-.069.171-.102zm-.081 1.08q-.034.191-.034.382 0 .26.205.26.231 0 .517-.276.286-.276.286-.536 0-.107-.057-.179-.057-.072-.157-.072-.136 0-.269.069-.131.067-.293.219-.062.059-.1.091-.036.031-.098.041zm1.735.396q0 .131.036.295.007.031.007.052 0 .031-.057.081-.057.048-.121.048-.167 0-.167-.307 0-.305.133-1.023.048-.262.048-.317 0-.109.04-.184.04-.078.112-.078.088 0 .138.043.052.041.052.093 0 .052-.024.143-.134.491-.165.687-.031.196-.031.467z"/><path id="N" d="M2.741-32.564q.408-.071.732-.527.152-.212.265-.3.115-.09.245-.09.052 0 .103.047.052.047.052.11 0 .084-.16.133-.084.026-.158.088-.074.062-.281.296-.162.183-.291.257-.012.007-.012.012 0 .007.016.014.126.067.265.26.203.281.305.355.102.072.233.072l.057-.002q.06-.003.06.053 0 .065-.074.136-.074.071-.245.071-.131 0-.255-.112-.122-.114-.281-.367-.091-.15-.171-.227-.079-.078-.176-.078-.021 0-.127.034-.107.034-.121.067-.012.031-.019.229-.005.196-.005.317 0 .064-.06.114-.06.05-.131.05-.072 0-.114-.043-.041-.041-.041-.086 0-.062.047-.293.083-.42.165-1.387.007-.093.071-.167.064-.076.145-.076.045 0 .074.048.031.048.031.124 0 .06-.021.138-.098.357-.122.729z"/><path id="O" d="M10.844-32.982q-.09 0-.196.117-.105.117-.322.525-.286.548-.37.624-.083.076-.138.076-.203 0-.203-.196 0-.083.028-.234.095-.52.095-1.097 0-.065.055-.145.057-.081.107-.081.09 0 .127.055.038.055.038.222 0 .174-.103.717-.034.179-.034.227 0 .028.014.028.026 0 .239-.412.215-.419.377-.589.162-.171.357-.171.155 0 .251.141.098.141.143.515.048.425.086.531.04.103.124.103.053 0 .134-.038.014-.007.021-.007.074 0 .074.086 0 .076-.102.162-.102.084-.245.084-.146 0-.227-.115-.079-.117-.126-.622-.048-.506-.203-.506z"/><path id="P" d="M14.246-32.407q-.22.37-.451.574-.231.203-.429.203-.114 0-.233-.133-.117-.133-.117-.408 0-.226.109-.665.091-.367.091-.515.05-.103.157-.103.072 0 .115.052.043.05.043.105 0 .121-.084.343-.16.432-.16.742 0 .282.131.282.167 0 .425-.284.258-.284.443-.792.072-.203.117-.264.047-.062.124-.062.117 0 .117.155 0 .019-.033.126-.103.377-.103.713 0 .403.133.522.069.064.069.103 0 .048-.071.088-.069.04-.126.04-.121 0-.195-.179-.074-.179-.074-.529v-.057q0-.028.002-.057z"/><path id="Q" d="M3.842-18.33q-.022.388-.074.76-.026.071-.131.071-.152 0-.152-.155 0-.064.036-.238.026-.152.028-.205.002-.055.009-.119.007-.065-.002-.103-.088.012-.358.21-.27.198-.463.393v-.002q-.012.007-.076.129-.091.183-.202.183-.052 0-.115-.045-.062-.045-.062-.09 0-.107.2-.317.202-.212.444-.362.296-.183.408-.295-.05-.071-.195-.155-.146-.086-.272-.193-.017-.014-.041-.031-.222-.15-.296-.224-.072-.076-.072-.162 0-.057.043-.103.043-.048.084-.048.026 0 .093.028.067.028.096.059l.084.079q.446.438.706.556.014 0 .034-.033.017-.059.017-.188 0-.121-.026-.27-.014-.078-.014-.102 0-.081.062-.131.064-.05.138-.05.084 0 .115.034.031.034.031.117l-.022.548v.034q0 .024.002.04.06 0 .126-.047.065-.048.195-.189.567-.587.656-.587.05 0 .091.041.041.041.041.096 0 .028-.189.234-.188.205-.388.377-.257.22-.257.229 0 .012.214.179.231.181.319.257.012.009.034.022.255.157.319.234.064.078.064.131 0 .05-.043.103-.043.052-.084.052-.153 0-.711-.515-.248-.231-.3-.243-.022-.003-.034-.009-.017-.005-.062-.002-.045.002-.048.014z"/><path id="R" d="M2.482-5.175h.315v.906l.894-.906h.389l-.737.746.646.92h.245v.751h-.317v-.487h-.096l-.684-.973-.339.345v.629h-.315z"/><path id="S" d="M14.699 2.501q-.041-.002-.081.079-.357.713-.539.968-.016.022-.04.065-.215.384-.315.384-.134 0-.134-.129 0-.117.167-.319.162-.191.425-.648.264-.458.427-.822.031-.065.093-.065.026 0 .091.024.067.022.086.05.019.028.084.32.212 1.056.446 1.252.055.048.065.065.01.016.01.045 0 .053-.034.098-.034.043-.067.055-.033.012-.134.012-.036 0-.169-.177-.133-.179-.31-.973-.043-.214-.072-.286z"/></defs></svg>