<svg xmlns="http://www.w3.org/2000/svg" viewBox="0 0 70.9 5.4" height="20.409" width="267.969"><g transform="translate(0 -291.6)" font-weight="400" font-family="Segoe Print" letter-spacing="0" word-spacing="0"><flowRoot transform="matrix(.26458 0 0 .26458 0 226.6)" style="line-height:1.25;-inkscape-font-specification:'Segoe Print';font-variant-ligatures:normal;font-variant-caps:normal;font-variant-numeric:normal;font-feature-settings:normal;text-align:start" xml:space="preserve" font-style="normal" font-variant="normal" font-stretch="normal" font-size="13.333" writing-mode="lr-tb" text-anchor="start" fill="#000" fill-opacity="1" stroke="none"><flowRegion><path d="M7.239 212.992h60.325V251.6H7.239z"/></flowRegion><flowPara/></flowRoot><text y="254.382" x="114.134" style="line-height:2;-inkscape-font-specification:'Segoe Print';font-variant-ligatures:normal;font-variant-caps:normal;font-variant-numeric:normal;font-feature-settings:normal;text-align:start" font-size="3.528" fill="#917c6f" stroke-width=".265"><tspan y="254.382" x="114.134">адамдар</tspan><tspan y="261.532" x="114.134">бөлме ғимарат жобалар</tspan><tspan y="268.682" x="114.134">ғарыш тылсым әлем</tspan><tspan y="275.833" x="114.134">гүлдер</tspan><tspan y="282.983" x="114.134">өсімдіктер</tspan><tspan y="290.134" x="114.134">қалыпталған кескіндер</tspan><tspan y="297.284" x="114.134">қолданыс заттары</tspan><tspan y="304.34" x="114.134">жаныуарлар</tspan><tspan y="311.49" x="114.134">өнер білім спорт</tspan><tspan y="318.546" x="114.134">art education sports</tspan><tspan y="325.707" x="114.134">美術教育スポーツ</tspan><tspan y="332.857" x="114.134">الرياضة التربية الفنية</tspan><tspan y="340.008" x="114.134">сән үлгілері</tspan><tspan y="347.158" x="114.134">тәбіиғат</tspan><tspan y="354.214" x="114.134">елмекен</tspan></text><text y="254.36" x="162.734" style="line-height:2;-inkscape-font-specification:'Segoe Print';font-variant-ligatures:normal;font-variant-caps:normal;font-variant-numeric:normal;font-feature-settings:normal;text-align:start" font-size="3.528" fill="#917c6f" stroke-width=".265"><tspan y="254.36" x="162.734">үи</tspan><tspan y="261.51" x="162.734">пәтер</tspan><tspan y="268.661" x="162.734">бөлме алаң</tspan><tspan y="275.811" x="162.734">ғимарат</tspan><tspan y="282.867" x="162.734">жер телімі</tspan><tspan y="290.017" x="162.734">қызымет</tspan></text><text y="253.736" x="190.455" style="line-height:2;-inkscape-font-specification:'Segoe Print';font-variant-ligatures:normal;font-variant-caps:normal;font-variant-numeric:normal;font-feature-settings:normal;text-align:start" font-size="3.528" fill="#917c6f" stroke-width=".265"><tspan y="253.736" x="190.455">жеңіл</tspan><tspan y="260.792" x="190.455">жолаушылар</tspan><tspan y="267.942" x="190.455">жүк</tspan><tspan y="275.093" x="190.455">қызыметтік</tspan><tspan y="282.148" x="190.455">белсебет</tspan><tspan y="289.204" x="190.455">мотосекл</tspan><tspan y="296.354" x="190.455">сұу</tspan><tspan y="303.505" x="190.455">әуе</tspan><tspan y="310.655" x="190.455">қызымет</tspan></text><text y="253.832" x="223.203" style="line-height:2;-inkscape-font-specification:'Segoe Print';font-variant-ligatures:normal;font-variant-caps:normal;font-variant-numeric:normal;font-feature-settings:normal;text-align:start" font-size="3.528" fill="#917c6f" stroke-width=".265"><tspan y="253.832" x="223.203">нан өнімдері</tspan><tspan y="260.983" x="223.203">сұусын</tspan><tspan y="268.133" x="223.203">кәмпит</tspan><tspan y="275.189" x="223.203">торт</tspan><tspan y="282.339" x="223.203">жеміс жидек көкөніс</tspan><tspan y="289.49" x="223.203">қаинатпа</tspan><tspan y="296.64" x="223.203">тұздалған</tspan><tspan y="303.79" x="223.203">қызымет</tspan></text><text y="253.707" x="265.973" style="line-height:2;-inkscape-font-specification:'Segoe Print';font-variant-ligatures:normal;font-variant-caps:normal;font-variant-numeric:normal;font-feature-settings:normal;text-align:start" font-size="3.528" fill="#917c6f" stroke-width=".265"><tspan y="253.707" x="265.973">бас кіиім</tspan><tspan y="260.858" x="265.973">үстіңгі</tspan><tspan y="268.008" x="265.973">астыңғы</tspan><tspan y="275.158" x="265.973">аиақ</tspan><tspan y="282.214" x="265.973">спорт</tspan><tspan y="289.27" x="265.973">балалар</tspan><tspan y="296.325" x="265.973">арнаиы</tspan><tspan y="303.476" x="265.973">қызымет</tspan></text><text y="253.509" x="288.034" style="line-height:2;-inkscape-font-specification:'Segoe Print';font-variant-ligatures:normal;font-variant-caps:normal;font-variant-numeric:normal;font-feature-settings:normal;text-align:start" font-size="3.528" fill="#917c6f" stroke-width=".265"><tspan y="253.509" x="288.034">ас үи</tspan><tspan y="260.659" x="288.034">құрал</tspan><tspan y="267.81" x="288.034">құрылғы</tspan><tspan y="274.96" x="288.034">бақша</tspan><tspan y="282.016" x="288.034">оиын</tspan><tspan y="289.166" x="288.034">зат-қызымет</tspan></text><text y="253.434" x="319.277" style="line-height:2;-inkscape-font-specification:'Segoe Print';font-variant-ligatures:normal;font-variant-caps:normal;font-variant-numeric:normal;font-feature-settings:normal;text-align:start" font-size="3.528" fill="#917c6f" stroke-width=".265"><tspan y="253.434" x="319.277">әк үнтақ</tspan><tspan y="260.489" x="319.277">боиау</tspan><tspan y="267.64" x="319.277">түс қағаз</tspan><tspan y="274.79" x="319.277">кірпіш тұтас бетон</tspan><tspan y="281.941" x="319.277">ағаш пластік ұқсастар</tspan><tspan y="289.091" x="319.277">метал көмпөзіт ұқсастар</tspan><tspan y="296.147" x="319.277">есік терезе</tspan><tspan y="303.297" x="319.277">су кәріз жылытыу ауа тораптары</tspan><tspan y="310.448" x="319.277">електр басқа желілер</tspan><tspan y="317.598" x="319.277">сәулет сәндеу жобалау</tspan><tspan y="324.749" x="319.277">қызымет</tspan></text><text y="309.637" x="300.914" style="line-height:1.25;-inkscape-font-specification:'Segoe Print';font-variant-ligatures:normal;font-variant-caps:normal;font-variant-numeric:normal;font-feature-settings:normal;text-align:start" font-size="3.528" stroke-width=".265"/><g style="line-height:2;-inkscape-font-specification:'Segoe Print';font-variant-ligatures:normal;font-variant-caps:normal;font-variant-numeric:normal;font-feature-settings:normal;text-align:start" aria-label="адамдар бөлме ғимарат жобалар ғарыш тылсым әлем гүлдер өсімдіктер қалыпталған кескіндер қолданыс заттары жаныуарлар өнер білім спорт art education sports 美術教育スポーツ الرياضة التربية الفنية сән үлгілері тәбіиғат елмекен" font-size="3.528" fill="#917c6f" stroke-width=".265"><path d="M3.815 201.826q-.241.324-.477.486-.236.162-.433.162-.132 0-.229-.112-.096-.112-.096-.287 0-.454.405-.975.404-.524.804-.524.145 0 .215.165.023.055.07.055.139 0 .139.107 0 .054-.018.147-.093.508-.093.716 0 .417.159.5.076.041.076.101 0 .054-.074.107-.074.055-.143.055-.133 0-.22-.182-.085-.183-.085-.52zm-.105-.97q-.228 0-.53.428-.3.425-.3.706 0 .198.13.198.19 0 .526-.382.336-.383.336-.703 0-.246-.162-.246zM6.035 200.448q-.062-.268-.153-.375-.091-.107-.241-.165-.15-.059-.27-.059-.047 0-.139.036-.09.035-.137.064-.068.04-.124.04-.066 0-.066-.07 0-.074.112-.204.112-.131.395-.131h.074q.28 0 .496.148.215.146.305.42t.09.736q0 .313-.197.76-.198.445-.505.675-.305.229-.65.229-.123 0-.232-.143-.108-.143-.108-.355 0-.391.17-.69.172-.299.384-.485.214-.186.59-.3.123-.036.168-.057.045-.02.038-.074zm.047.352q-.398.08-.61.256-.479.448-.479 1.005 0 .074.026.14.026.063.058.063.128 0 .233-.045.105-.045.257-.186.151-.143.274-.353.124-.21.179-.405.056-.194.06-.298.003-.105.002-.177zM7.746 201.826q-.242.324-.478.486-.235.162-.432.162-.132 0-.229-.112-.096-.112-.096-.287 0-.454.404-.975.405-.524.805-.524.145 0 .215.165.023.055.07.055.139 0 .139.107 0 .054-.018.147-.093.508-.093.716 0 .417.159.5.076.041.076.101 0 .054-.074.107-.075.055-.143.055-.133 0-.22-.182-.085-.183-.085-.52zm-.105-.97q-.228 0-.53.428-.3.425-.3.706 0 .198.13.198.19 0 .526-.382.335-.383.335-.703 0-.246-.161-.246zM10.853 200.945q-.14.223-.393.757-.056.121-.115.233-.019.036-.072.16-.181.42-.316.42-.106 0-.156-.025-.049-.026-.093-.142-.045-.115-.133-.542-.102-.484-.138-.596-.117.263-.208.508-.138.36-.267.587-.13.226-.186.27-.057.047-.109.047-.053 0-.096-.041-.043-.041-.043-.081.01-.07.024-.088.15-.184.258-.393.109-.208.276-.625.169-.417.215-.684.022-.113.167-.113.085 0 .116.025.03.026.06.105.03.08.036.142.01.074.059.329.043.24.056.339.025.143.085.376.062.232.096.232.024 0 .07-.105l.144-.334q.04-.091.084-.18l.198-.404q.162-.334.248-.484.088-.152.118-.183.03-.03.069-.03.065 0 .146.035.08.035.084.078.004.043.016.36l.022.537q.01.257.031.438.02.18.073.29.08.175.08.272 0 .082-.068.113t-.126.031q-.12 0-.186-.193-.064-.193-.093-1.106-.01-.273-.033-.336zM13.051 200.448q-.062-.268-.153-.375-.092-.107-.241-.165-.15-.059-.27-.059-.047 0-.139.036-.09.035-.137.064-.068.04-.124.04-.066 0-.066-.07 0-.074.112-.204.112-.131.395-.131h.074q.28 0 .496.148.215.146.305.42t.09.736q0 .313-.197.76-.198.445-.505.675-.305.229-.65.229-.123 0-.232-.143-.108-.143-.108-.355 0-.391.17-.69.172-.299.384-.485.214-.186.59-.3.123-.036.168-.057.045-.02.038-.074zm.047.352q-.398.08-.61.256-.479.448-.479 1.005 0 .074.026.14.026.063.058.063.128 0 .233-.045.105-.045.257-.186.151-.143.273-.353.124-.21.18-.405.056-.194.06-.298.003-.105.002-.177zM14.762 201.826q-.242.324-.478.486-.236.162-.432.162-.133 0-.229-.112t-.096-.287q0-.454.404-.975.405-.524.805-.524.144 0 .215.165.022.055.07.055.138 0 .138.107 0 .054-.017.147-.093.508-.093.716 0 .417.159.5.076.041.076.101 0 .054-.075.107-.074.055-.143.055-.132 0-.218-.182-.086-.183-.086-.52zm-.105-.97q-.228 0-.53.428-.3.425-.3.706 0 .198.13.198.19 0 .526-.382.335-.383.335-.703 0-.246-.161-.246zM16.004 202.254q-.085.31-.159.87l-.048.325q-.012.069-.064.136-.052.07-.095.07-.053 0-.122-.056-.067-.053-.067-.086 0-.095.043-.262.315-1.273.315-2.236l-.002-.144q-.003-.187.066-.27.069-.085.158-.085.042 0 .08.065.038.064.038.183 0 .167-.035.405-.045.3-.046.344.256-.448.544-.7.288-.25.534-.25.174 0 .293.13.12.13.12.322 0 .562-.43 1.02-.431.458-.84.458-.1 0-.161-.052-.059-.051-.122-.187zm1.07-1.387q-.244 0-.602.455t-.358.708q0 .062.07.12.071.059.18.059.246 0 .566-.364.32-.365.32-.716 0-.126-.051-.193-.05-.069-.126-.069zM3.667 207.814q-.066-.177-.304-.384-.223-.193-.223-.33 0-.11.072-.178.072-.069.269-.124.244-.067.497-.152.254-.086.305-.11.033-.015.068-.015.056 0 .056.101 0 .057-.137.155-.138.098-.488.183-.22.055-.27.083-.049.025-.049.053 0 .062.135.18.506.442.506 1.11 0 .288-.151.617-.152.327-.405.487-.252.16-.493.16-.217 0-.329-.211-.112-.212-.112-.467 0-.452.278-.851.279-.4.589-.4.041 0 .103.054.057.051.083.04zm-.751 1.165q0 .19.05.3.051.108.134.108.11 0 .298-.136t.301-.403q.116-.267.116-.5 0-.193-.055-.312-.054-.12-.1-.12-.307 0-.526.374-.218.373-.218.689zM5.32 207.897q-.253 0-.382.167-.128.165-.159.384h1.082q-.03-.219-.16-.384-.127-.167-.38-.167zm.002 1.488q.257 0 .401-.2.145-.2.145-.454H4.776q0 .255.145.454.144.2.401.2zm.002-1.757q.413 0 .65.269.235.269.235.744 0 .474-.236.744-.236.269-.65.269-.414 0-.65-.269-.235-.27-.235-.744 0-.475.235-.744.236-.269.65-.269zM7.598 208.2q-.042-.002-.081.08-.357.712-.54.967l-.04.066q-.215.384-.314.384-.135 0-.135-.13 0-.116.167-.318.162-.191.426-.648.263-.458.427-.821.03-.066.093-.066.026 0 .091.024.067.023.086.05.02.028.085.32.212 1.057.446 1.253.055.048.065.065.01.016.01.045 0 .054-.034.098-.034.044-.067.056-.033.012-.134.012-.036 0-.17-.178-.132-.179-.31-.973-.042-.214-.071-.286zM10.936 208.095q-.14.224-.393.758-.057.12-.115.232-.02.037-.073.16-.18.421-.315.421-.107 0-.157-.026-.048-.026-.093-.141-.044-.116-.132-.543-.102-.484-.138-.596-.117.264-.209.508-.137.36-.267.588-.129.226-.186.27-.056.047-.108.047-.054 0-.097-.042-.043-.04-.043-.08.01-.071.024-.088.15-.185.259-.393.108-.209.275-.625.17-.417.216-.684.022-.114.167-.114.084 0 .115.026t.06.105q.032.08.037.141.01.074.058.33.043.239.057.338.024.143.085.376.062.233.096.233.024 0 .069-.106l.145-.334q.04-.091.084-.179l.198-.405q.162-.334.248-.484.088-.151.117-.182.031-.031.07-.031.065 0 .146.036.08.034.084.077.003.044.016.36l.022.538q.01.257.03.437.022.18.073.29.081.175.081.272 0 .083-.069.114-.067.03-.125.03-.121 0-.186-.192-.064-.193-.093-1.106-.01-.274-.033-.336zM13.297 209.02q0 .176-.311.424-.31.248-.641.248-.277 0-.43-.164-.149-.163-.149-.456 0-.493.333-.937.332-.445.726-.445.13 0 .21.085.083.084.083.203 0 .265-.26.508t-.696.477q-.09.047-.09.12 0 .144.083.23.083.086.245.086.37 0 .756-.41.057-.057.086-.057.055 0 .055.088zm-1.197-.269q.73-.434.73-.697 0-.104-.092-.104-.159 0-.359.233-.198.232-.279.568zM15.389 209.604v-.861h-.453v-.293h.453v-.775h1.36v.27h-1.043v.505h.716v.293h-.716v.861zM18.367 208.855q-.22.37-.451.573-.231.204-.43.204-.113 0-.232-.133-.117-.133-.117-.408 0-.226.108-.665.092-.367.092-.515.05-.104.157-.104.072 0 .115.052.043.05.043.105 0 .12-.084.343-.16.432-.16.742 0 .283.13.283.167 0 .426-.284.258-.285.442-.793.073-.203.118-.263.046-.062.124-.062.117 0 .117.155 0 .019-.033.125-.103.378-.103.714 0 .403.132.522.07.063.07.103 0 .048-.071.088-.07.04-.126.04-.12 0-.195-.18-.074-.179-.074-.529v-.056l.002-.057zM21.5 208.095q-.14.224-.393.758-.056.12-.115.232-.019.037-.072.16-.181.421-.316.421-.106 0-.156-.026-.049-.026-.093-.141-.045-.116-.133-.543-.102-.484-.138-.596-.117.264-.208.508-.138.36-.267.588-.13.226-.186.27-.057.047-.109.047-.053 0-.096-.042-.043-.04-.043-.08.01-.071.024-.088.15-.185.258-.393.109-.209.276-.625.169-.417.215-.684.023-.114.167-.114.085 0 .116.026.03.026.06.105.031.08.036.141.01.074.059.33.043.239.057.338.024.143.084.376.062.233.096.233.025 0 .07-.106l.144-.334q.04-.091.084-.179l.199-.405q.161-.334.248-.484.087-.151.117-.182.03-.031.069-.031.065 0 .146.036.081.034.084.077.004.044.016.36l.022.538q.01.257.031.437.021.18.073.29.08.175.08.272 0 .083-.068.114-.067.03-.126.03-.12 0-.186-.192-.064-.193-.093-1.106-.01-.274-.033-.336zM23.548 208.977q-.24.324-.477.486-.236.162-.432.162-.133 0-.23-.112-.096-.112-.096-.288 0-.453.405-.975.405-.524.804-.524.145 0 .216.166.022.055.07.055.138 0 .138.107 0 .053-.017.146-.093.508-.093.717 0 .416.158.5.076.04.076.1 0 .054-.074.108-.074.055-.143.055-.132 0-.219-.183-.086-.182-.086-.52zm-.105-.97q-.227 0-.529.427-.301.426-.301.707 0 .198.13.198.19 0 .526-.383.336-.382.336-.703 0-.246-.162-.246zM24.79 209.404q-.084.31-.158.87l-.048.326q-.013.068-.064.136-.052.069-.095.069-.053 0-.122-.056-.067-.053-.067-.086 0-.094.043-.261.315-1.273.315-2.236l-.002-.145q-.003-.186.066-.27.069-.085.158-.085.041 0 .08.066.037.063.037.182 0 .167-.034.405-.045.3-.047.345.257-.448.545-.7.287-.251.534-.251.174 0 .292.13.121.13.121.323 0 .561-.43 1.02-.431.458-.84.458-.101 0-.161-.052-.059-.052-.123-.188zm1.07-1.387q-.243 0-.601.455-.359.455-.359.708 0 .062.071.12.07.06.18.06.246 0 .566-.364.32-.365.32-.717 0-.125-.051-.193-.05-.068-.126-.068zM27.9 208.977q-.242.324-.478.486-.236.162-.432.162-.133 0-.23-.112-.096-.112-.096-.288 0-.453.405-.975.405-.524.805-.524.144 0 .215.166.022.055.07.055.138 0 .138.107 0 .053-.017.146-.093.508-.093.717 0 .416.159.5.075.04.075.1 0 .054-.074.108-.074.055-.143.055-.132 0-.218-.183-.087-.182-.087-.52zm-.106-.97q-.227 0-.528.427-.302.426-.302.707 0 .198.131.198.19 0 .525-.383.336-.382.336-.703 0-.246-.162-.246zM30.11 208.241q-.16.003-.686.95-.178.318-.207.347-.03.028-.108.05-.078.023-.13.023-.115 0-.115-.45 0-.253.109-.916.044-.269.044-.384 0-.114.102-.114.191 0 .191.276 0 .129-.064.506-.074.43-.075.524.106-.104.313-.453.293-.48.43-.607.14-.129.288-.129.112 0 .178.15.067.15.08.715.004.141.027.21.022.069.032.069.081 0 .352-.551.145-.291.28-.443.138-.152.306-.152.139 0 .203.145.064.143.091.426.026.286.08.523.054.238.2.305.097.047.097.109 0 .06-.082.124-.083.063-.152.063-.138 0-.246-.168-.109-.17-.164-.73-.024-.226-.046-.321-.023-.095-.071-.095-.072 0-.172.138-.098.138-.319.56-.172.329-.262.44-.088.108-.17.108-.074 0-.133-.059-.059-.06-.074-.143-.016-.084-.033-.412-.026-.544-.095-.634zM35.296 208.82q-.022.388-.074.76-.026.07-.13.07-.152 0-.152-.155 0-.063.036-.237.026-.152.027-.205.002-.055.009-.12.007-.065-.002-.103-.088.012-.358.21-.27.199-.464.393v-.002q-.012.007-.075.13-.092.182-.202.182-.052 0-.115-.045-.062-.044-.062-.09 0-.106.2-.316.201-.212.444-.362.296-.183.408-.294-.05-.071-.194-.156-.147-.086-.273-.192l-.04-.031q-.223-.15-.297-.224-.073-.076-.073-.162 0-.057.043-.104.044-.048.085-.048.026 0 .093.028.067.027.096.058l.085.08q.446.437.706.556.014 0 .034-.033.018-.058.018-.188 0-.12-.026-.27-.014-.077-.014-.102 0-.08.062-.13.064-.05.138-.05.084 0 .115.034t.031.117l-.022.548v.034q0 .024.002.04.06 0 .125-.047.066-.048.195-.19.567-.586.656-.586.05 0 .092.04.04.042.04.097 0 .028-.189.235-.187.205-.387.377-.257.22-.257.229 0 .012.214.18.23.18.318.256l.035.022q.255.157.319.234.063.078.063.131 0 .05-.043.104-.043.051-.084.051-.153 0-.712-.515-.248-.23-.3-.243-.022-.003-.034-.009-.017-.005-.062-.002-.045.002-.048.014zM37.41 209.69q-.236 0-.39-.18-.153-.178-.153-.442 0-.444.298-.875.3-.432.717-.432.275 0 .446.212.172.212.172.504 0 .448-.355.83-.353.383-.735.383zm-.24-.667q0 .174.073.285.074.11.194.11.257 0 .515-.28.259-.283.259-.628 0-.212-.1-.343-.098-.132-.266-.132-.277 0-.477.34-.198.34-.198.648zM39.914 207.814q-.065-.177-.303-.384-.224-.193-.224-.33 0-.11.072-.178.073-.069.27-.124.244-.067.497-.152.253-.086.305-.11.033-.015.067-.015.057 0 .057.101 0 .057-.138.155t-.487.183q-.22.055-.27.083-.049.025-.049.053 0 .062.134.18.507.442.507 1.11 0 .288-.152.617-.151.327-.405.487-.251.16-.492.16-.217 0-.33-.211-.111-.212-.111-.467 0-.452.277-.851.28-.4.59-.4.04 0 .103.054.056.051.082.04zm-.75 1.165q0 .19.05.3.05.108.134.108.11 0 .298-.136.187-.136.3-.403.116-.267.116-.5 0-.193-.055-.312-.053-.12-.1-.12-.306 0-.525.374-.219.373-.219.689zM41.881 208.977q-.24.324-.477.486-.236.162-.432.162-.133 0-.23-.112-.096-.112-.096-.288 0-.453.405-.975.405-.524.805-.524.144 0 .215.166.022.055.07.055.138 0 .138.107 0 .053-.017.146-.093.508-.093.717 0 .416.159.5.075.04.075.1 0 .054-.074.108-.074.055-.143.055-.132 0-.219-.183-.086-.182-.086-.52zm-.105-.97q-.227 0-.529.427-.301.426-.301.707 0 .198.13.198.19 0 .526-.383.336-.382.336-.703 0-.246-.162-.246zM43.757 208.2q-.041-.002-.08.08-.357.712-.54.967l-.04.066q-.215.384-.315.384-.134 0-.134-.13 0-.116.167-.318.162-.191.425-.648.264-.458.428-.821.03-.066.093-.066.026 0 .091.024.067.023.086.05.02.028.085.32.211 1.057.446 1.253.055.048.065.065.01.016.01.045 0 .054-.034.098-.034.044-.067.056-.033.012-.135.012-.036 0-.168-.178-.133-.179-.31-.973-.043-.214-.073-.286zM46.059 208.977q-.242.324-.478.486-.236.162-.432.162-.133 0-.23-.112-.096-.112-.096-.288 0-.453.405-.975.405-.524.805-.524.144 0 .215.166.022.055.07.055.138 0 .138.107 0 .053-.017.146-.093.508-.093.717 0 .416.159.5.075.04.075.1 0 .054-.074.108-.074.055-.143.055-.132 0-.218-.183-.086-.182-.086-.52zm-.106-.97q-.227 0-.528.427-.302.426-.302.707 0 .198.131.198.19 0 .525-.383.336-.382.336-.703 0-.246-.162-.246zM47.3 209.404q-.084.31-.158.87l-.048.326q-.012.068-.064.136-.052.069-.095.069-.053 0-.122-.056-.067-.053-.067-.086 0-.094.043-.261.315-1.273.315-2.236l-.002-.145q-.003-.186.066-.27.069-.085.158-.085.042 0 .08.066.038.063.038.182 0 .167-.035.405-.045.3-.046.345.256-.448.544-.7.288-.251.534-.251.174 0 .293.13.12.13.12.323 0 .561-.43 1.02-.431.458-.84.458-.1 0-.161-.052-.059-.052-.122-.188zm1.07-1.387q-.243 0-.601.455t-.358.708q0 .062.07.12.071.06.18.06.246 0 .566-.364.32-.365.32-.717 0-.125-.051-.193-.05-.068-.126-.068zM2.974 216.754v-.86h-.453v-.294h.453v-.775h1.361v.27H3.291v.505h.717v.293H3.29v.861zM5.897 216.127q-.24.324-.477.486-.236.162-.432.162-.133 0-.23-.112-.096-.112-.096-.288 0-.453.405-.974.405-.524.805-.524.144 0 .215.165.022.055.07.055.138 0 .138.107 0 .054-.017.147-.093.508-.093.716 0 .417.158.5.076.04.076.101 0 .054-.074.107-.074.055-.143.055-.132 0-.219-.182-.086-.183-.086-.52zm-.105-.97q-.227 0-.529.428-.301.425-.301.706 0 .198.13.198.19 0 .526-.382.336-.383.336-.703 0-.246-.162-.246zM7.14 216.555q-.085.31-.16.87l-.047.325q-.012.069-.064.136-.052.069-.095.069-.053 0-.122-.055-.067-.053-.067-.086 0-.095.043-.262.315-1.273.315-2.236l-.002-.145q-.003-.186.066-.27.069-.084.158-.084.041 0 .08.065.037.064.037.183 0 .167-.034.404-.045.3-.047.345.257-.448.545-.7.287-.25.534-.25.174 0 .292.13.121.13.121.322 0 .562-.43 1.02-.431.458-.84.458-.101 0-.161-.052-.059-.051-.123-.187zm1.069-1.387q-.243 0-.601.455-.358.454-.358.708 0 .062.07.12.07.059.18.059.246 0 .566-.364.32-.365.32-.716 0-.126-.051-.193-.05-.069-.126-.069zM9.487 214.803q.023-.016.05-.016.043 0 .072.116 0 .074-.04.187-.116.326-.116.455 0 .035.02.038.397-.38.734-.38.209 0 .35.158.141.157.141.288 0 .4-.408.768-.407.367-.82.367-.184 0-.288-.152-.101-.153-.101-.437 0-.309.077-.683.078-.373.124-.5.02-.052.035-.108.017-.068.17-.101zm-.08 1.08q-.035.191-.035.382 0 .26.205.26.23 0 .516-.275.286-.276.286-.536 0-.107-.056-.18-.057-.072-.157-.072-.136 0-.269.07-.13.067-.293.218-.062.059-.1.091-.036.031-.098.042zm1.734.396q0 .13.036.295.007.03.007.051 0 .031-.057.081-.057.048-.12.048-.168 0-.168-.306 0-.305.133-1.023.048-.262.048-.317 0-.109.04-.185.04-.077.112-.077.088 0 .138.043.051.041.051.093t-.024.143q-.134.49-.165.687-.031.197-.031.467zM14.052 216.005q-.22.37-.451.574-.231.203-.43.203-.113 0-.232-.133-.117-.132-.117-.408 0-.141.03-.312-.164.324-.421.557-.257.232-.458.232-.097 0-.212-.113-.114-.114-.114-.307 0-.222.02-.334.015-.102.025-.21.01-.086.024-.162.067-.37.052-.477.036-.123.167-.123.052 0 .1.043.05.042.05.138 0 .159-.07.396-.096.319-.096.565 0 .135.02.209.02.074.089.074.227 0 .512-.403.285-.403.453-.84.074-.199.186-.199.072 0 .115.052.043.05.043.105 0 .12-.084.343-.16.425-.16.725 0 .282.13.282.059 0 .143-.04.086-.042.212-.168.126-.128.245-.312.12-.186.151-.269.031-.084.126-.394.06-.202.11-.272.052-.073.133-.073.117 0 .117.155 0 .02-.033.126-.048.166-.08.42-.033.254-.033.42 0 .402.132.521.07.064.07.103 0 .049-.071.088-.07.04-.126.04-.12 0-.195-.18-.074-.178-.074-.528v-.057l.002-.057zM17.635 215.392q-.16.003-.686.949-.177.319-.206.348-.03.028-.109.05-.078.022-.13.022-.115 0-.115-.45 0-.253.109-.916.045-.268.045-.384 0-.114.101-.114.192 0 .192.276 0 .13-.064.507-.074.43-.076.523.107-.103.314-.453.292-.479.43-.606.14-.13.288-.13.112 0 .177.15.067.15.081.715.004.142.026.21.022.07.033.07.08 0 .351-.552.145-.29.28-.443.139-.151.306-.151.14 0 .203.145.064.143.091.425.026.286.08.524.055.237.2.305.098.046.098.108 0 .06-.083.124t-.152.064q-.137 0-.246-.169-.108-.169-.164-.73-.024-.226-.046-.32-.022-.095-.07-.095-.073 0-.173.137-.098.138-.319.56-.172.33-.261.44-.088.108-.171.108-.074 0-.133-.059-.058-.06-.074-.143-.015-.084-.032-.411-.026-.545-.095-.634zM20.36 214.803q.022-.016.05-.016.043 0 .072.116 0 .074-.04.187-.117.326-.117.455 0 .035.021.038.396-.38.734-.38.208 0 .35.158.14.157.14.288 0 .4-.407.768-.407.367-.82.367-.185 0-.288-.152-.102-.153-.102-.437 0-.309.078-.683.077-.373.124-.5.019-.052.034-.108.018-.068.17-.101zm-.081 1.08q-.035.191-.035.382 0 .26.205.26.231 0 .517-.275.286-.276.286-.536 0-.107-.057-.18-.057-.072-.156-.072-.137 0-.27.07-.13.067-.292.218-.062.059-.1.091-.036.031-.098.042zm1.735.396q0 .13.036.295.007.03.007.051 0 .031-.057.081-.057.048-.12.048-.168 0-.168-.306 0-.305.133-1.023.048-.262.048-.317 0-.109.04-.185.04-.077.112-.077.087 0 .137.043.052.041.052.093t-.024.143q-.134.49-.165.687-.031.197-.031.467zM23.545 215.35q-.041-.001-.081.08-.357.713-.54.968-.015.022-.039.065-.215.384-.315.384-.134 0-.134-.129 0-.117.167-.319.162-.19.425-.647.264-.458.427-.822.031-.065.093-.065.026 0 .092.024.067.022.086.05.019.027.084.32.212 1.056.446 1.252.055.049.066.066.01.015.01.045 0 .053-.034.098-.035.043-.068.055-.032.012-.134.012-.036 0-.169-.177-.132-.18-.31-.974-.043-.213-.072-.285zM25.155 216.853q-.258 0-.397-.149-.138-.148-.138-.415 0-.45.356-.947.357-.5.663-.5.14 0 .24.152.102.15.102.319 0 .101-.045.175-.043.073-.088.073-.1 0-.141-.202-.047-.217-.135-.217-.179 0-.423.426-.245.425-.245.718t.332.293q.254 0 .596-.238.121-.084.178-.084.058 0 .058.067 0 .13-.308.33-.308.199-.605.199zM26.873 214.803q.022-.016.05-.016.043 0 .072.116 0 .074-.04.187-.117.326-.117.455 0 .035.021.038.396-.38.734-.38.208 0 .35.158.14.157.14.288 0 .4-.407.768-.407.367-.82.367-.185 0-.288-.152-.102-.153-.102-.437 0-.309.078-.683.077-.373.124-.5.019-.052.034-.108.017-.068.17-.101zm-.081 1.08q-.035.191-.035.382 0 .26.205.26.231 0 .517-.275.286-.276.286-.536 0-.107-.057-.18-.057-.072-.156-.072-.137 0-.27.07-.13.067-.292.218-.062.059-.1.091-.036.031-.098.042zm1.734.396q0 .13.037.295.007.03.007.051 0 .031-.057.081-.057.048-.12.048-.168 0-.168-.306 0-.305.133-1.023.048-.262.048-.317 0-.109.04-.185.04-.077.111-.077.088 0 .138.043.052.041.052.093t-.024.143q-.135.49-.166.687-.03.197-.03.467zM31.29 215.245q-.14.224-.393.758-.057.121-.116.233-.019.036-.072.16-.18.42-.315.42-.107 0-.157-.025-.048-.026-.093-.142-.045-.115-.133-.542-.101-.484-.138-.596-.117.263-.208.508-.138.36-.267.587-.13.226-.186.27-.057.047-.108.047-.054 0-.097-.041-.043-.041-.043-.081.01-.07.024-.088.15-.184.258-.393.109-.208.276-.625.169-.417.215-.684.023-.113.168-.113.084 0 .115.025.03.026.06.105.031.08.036.142.01.074.059.329.043.24.057.339.024.143.084.375.062.233.097.233.024 0 .069-.105l.144-.334q.04-.092.085-.18l.198-.404q.162-.334.248-.484.088-.152.117-.183.03-.03.069-.03.065 0 .146.035.081.035.085.078.003.043.015.36l.023.537q.01.257.03.438.021.179.073.29.08.175.08.271 0 .083-.068.114-.067.031-.126.031-.12 0-.186-.193-.064-.193-.093-1.106-.01-.274-.033-.336zM33.553 215.872v-.155h1.457q-.02-.327-.198-.497-.176-.173-.49-.173-.183 0-.356.045-.17.045-.34.135v-.3q.171-.072.35-.11.18-.038.364-.038.462 0 .73.268.27.27.27.727 0 .474-.256.753-.255.277-.689.277-.39 0-.616-.25-.226-.25-.226-.682zm.317.093q.003.26.144.416.143.155.378.155.265 0 .423-.15.16-.15.185-.422zM36.724 215.35q-.041-.001-.08.08-.357.713-.54.968-.016.022-.04.065-.215.384-.315.384-.134 0-.134-.129 0-.117.167-.319.162-.19.425-.647.264-.458.427-.822.032-.065.094-.065.025 0 .09.024.068.022.087.05.019.027.084.32.212 1.056.446 1.252.056.049.066.066.01.015.01.045 0 .053-.034.098-.035.043-.067.055-.033.012-.135.012-.036 0-.169-.177-.132-.18-.31-.974-.043-.213-.072-.285zM39.339 216.17q0 .176-.312.424-.31.248-.64.248-.278 0-.43-.163-.15-.164-.15-.457 0-.492.333-.937.332-.444.727-.444.13 0 .21.084.083.084.083.203 0 .266-.26.508-.26.243-.696.478-.09.046-.09.12 0 .143.083.23.083.085.244.085.37 0 .757-.41.056-.056.086-.056.055 0 .055.088zm-1.197-.268q.73-.434.73-.698 0-.103-.093-.103-.158 0-.358.232-.198.233-.28.569zM41.897 215.245q-.14.224-.393.758-.057.121-.115.233-.02.036-.073.16-.18.42-.315.42-.107 0-.157-.025-.048-.026-.093-.142-.044-.115-.132-.542-.102-.484-.138-.596-.117.263-.208.508-.138.36-.267.587-.13.226-.187.27-.056.047-.108.047-.053 0-.097-.041-.043-.041-.043-.081.01-.07.025-.088.15-.184.258-.393.108-.208.276-.625.168-.417.215-.684.022-.113.167-.113.084 0 .115.025.031.026.06.105.032.08.037.142.01.074.058.329.043.24.057.339.024.143.085.375.062.233.096.233.024 0 .069-.105l.145-.334q.04-.092.084-.18l.198-.404q.162-.334.248-.484.088-.152.117-.183.031-.03.07-.03.065 0 .146.035.08.035.084.078.003.043.016.36l.022.537q.01.257.031.438.02.179.072.29.081.175.081.271 0 .083-.069.114-.067.031-.125.031-.12 0-.186-.193-.064-.193-.093-1.106-.01-.274-.033-.336zM2.614 223.607l-.003-.036q-.018-.174.107-.365.125-.192.628-.445.32-.162.32-.294 0-.071-.058-.109-.058-.038-.102-.038-.129 0-.496.183-.029.015-.034.015-.141 0-.141-.1 0-.162.279-.268.279-.109.485-.109.13 0 .27.103.142.102.142.274 0 .142-.091.272-.091.131-.457.333-.3.165-.406.272-.105.107-.105.241 0 .098.091.13.091.03.138.03.324 0 .579-.134.088-.045.13-.045.09 0 .09.1 0 .152-.244.253-.245.102-.62.102-.18 0-.333-.102-.153-.103-.169-.263zM5.358 223.874v.765h-.336v-.765l-.78-1.898h.336l.603 1.509.603-1.51h.336zM7.42 222.501q-.041-.002-.08.08-.357.712-.54.967-.016.023-.04.066-.215.384-.315.384-.134 0-.134-.13 0-.116.167-.318.162-.191.425-.648.264-.458.428-.821.03-.066.093-.066.025 0 .09.024.068.023.087.05.019.028.084.32.212 1.057.446 1.253.056.048.066.065.01.016.01.045 0 .054-.034.098-.035.044-.067.056-.033.012-.135.012-.036 0-.169-.178-.132-.179-.31-.973-.043-.214-.072-.286zM9.871 221.9q-.062-.269-.153-.376-.091-.106-.241-.165-.15-.059-.27-.059-.047 0-.138.037-.09.034-.138.063-.067.04-.124.04-.066 0-.066-.069 0-.074.112-.205.112-.13.395-.13h.074q.28 0 .496.147.215.147.305.42.091.274.091.736 0 .314-.198.76t-.505.675q-.305.229-.65.229-.123 0-.232-.143-.108-.143-.108-.355 0-.39.17-.689.173-.3.384-.486.214-.186.59-.3.124-.035.168-.056.045-.02.038-.074zm.047.351q-.398.081-.61.257-.479.448-.479 1.004 0 .074.026.14.026.063.059.063.127 0 .232-.044.105-.045.257-.186.151-.143.274-.354.124-.21.179-.404.057-.195.06-.298.004-.105.002-.178zM11.999 223.321q0 .176-.312.424-.31.248-.641.248-.277 0-.429-.164-.15-.164-.15-.456 0-.493.333-.937.332-.445.727-.445.129 0 .21.085.082.084.082.203 0 .265-.26.508t-.696.477q-.09.047-.09.12 0 .144.084.23.082.086.244.086.37 0 .756-.41.057-.057.086-.057.056 0 .056.088zm-1.198-.269q.73-.434.73-.697 0-.104-.092-.104-.159 0-.359.233-.198.232-.279.568zM12.691 223.705q-.084.31-.158.87l-.049.326q-.012.068-.063.136-.052.069-.095.069-.054 0-.122-.056-.068-.053-.068-.086 0-.094.043-.262.316-1.272.316-2.235l-.002-.145q-.003-.186.065-.27.07-.085.159-.085.041 0 .08.066.037.063.037.182 0 .167-.034.405-.045.3-.047.344.257-.447.544-.699.288-.251.534-.251.174 0 .293.13.12.13.12.323 0 .561-.43 1.02-.43.458-.839.458-.101 0-.162-.052-.058-.052-.122-.188zm1.07-1.387q-.243 0-.601.455-.359.455-.359.708 0 .062.07.12.072.06.18.06.246 0 .567-.364.32-.365.32-.717 0-.125-.051-.193-.05-.069-.126-.069zM3.501 229.348q-.253 0-.382.167-.128.166-.159.385h1.082q-.03-.22-.16-.385-.127-.167-.38-.167zm.002 1.489q.257 0 .401-.2.145-.2.145-.455H2.957q0 .255.145.455.144.2.401.2zm.002-1.757q.413 0 .65.268.235.269.235.744 0 .474-.236.745-.236.268-.65.268-.414 0-.65-.268-.235-.27-.235-.745t.235-.744q.236-.268.65-.268zM5.282 231.154q-.258 0-.398-.149-.137-.148-.137-.415 0-.45.356-.947.357-.5.663-.5.14 0 .24.152.102.15.102.319 0 .101-.045.175-.043.073-.088.073-.1 0-.141-.202-.047-.217-.135-.217-.179 0-.423.426-.245.425-.245.718t.332.293q.254 0 .596-.238.12-.084.178-.084.058 0 .058.067 0 .13-.308.33-.308.199-.605.199zM7.155 228.749q-.036 0-.055-.078-.007-.024-.02-.053-.046-.112-.046-.195 0-.069.081-.14.083-.071.183-.071.05 0 .112.04.062.037.062.073 0 .057-.043.193-.042.136-.135.184-.091.047-.14.047zm-.226 1.924q0 .13.036.295.007.03.007.051 0 .031-.057.08-.056.05-.12.05-.167 0-.167-.307 0-.317.13-1.003.045-.24.045-.294 0-.109.04-.185.04-.077.112-.077.088 0 .138.043.051.041.051.093t-.024.136q-.129.455-.16.651-.03.197-.03.467zM9.818 229.546q-.14.224-.393.758-.057.12-.115.233-.02.036-.073.16-.18.42-.315.42-.107 0-.157-.025-.048-.026-.093-.142-.044-.115-.132-.542-.102-.484-.138-.596-.117.263-.208.508-.138.36-.267.587-.13.226-.187.27-.056.047-.108.047-.053 0-.097-.041-.043-.041-.043-.081.01-.07.025-.088.15-.184.258-.393.108-.208.276-.625.168-.417.215-.684.022-.114.167-.114.084 0 .115.026t.06.105q.032.08.037.142.01.074.058.329.043.239.057.339.024.143.085.375.062.233.096.233.024 0 .069-.105l.145-.334q.04-.092.084-.18l.198-.404q.162-.334.248-.484.088-.152.117-.183.031-.03.07-.03.065 0 .146.035.08.035.084.078.003.043.016.36l.022.537q.01.257.031.438.02.179.072.29.081.175.081.271 0 .083-.069.114-.067.031-.125.031-.12 0-.186-.193-.064-.193-.093-1.106-.01-.274-.033-.336zM12.016 229.05q-.062-.268-.153-.375-.092-.107-.242-.166-.15-.058-.27-.058-.047 0-.138.036-.09.034-.138.064-.067.04-.124.04-.065 0-.065-.07 0-.074.112-.205.112-.13.394-.13h.074q.281 0 .496.148.216.146.305.42.092.274.092.736 0 .313-.198.76-.199.445-.505.674-.305.23-.65.23-.124 0-.232-.143-.109-.143-.109-.355 0-.391.17-.69.173-.299.385-.485.214-.186.59-.3.123-.036.168-.057.045-.02.038-.074zm.046.352q-.398.08-.61.256-.478.448-.478 1.005 0 .074.026.14.025.063.058.063.128 0 .233-.045.105-.045.256-.186.152-.143.274-.353.124-.21.18-.405.056-.195.06-.298.003-.105.001-.177zM13.12 228.749q-.036 0-.055-.078-.007-.024-.02-.053-.046-.112-.046-.195 0-.069.081-.14.083-.071.183-.071.05 0 .112.04.062.037.062.073 0 .057-.043.193-.041.136-.134.184-.092.047-.14.047zm-.226 1.924q0 .13.037.295.006.03.006.051 0 .031-.056.08-.057.05-.121.05-.167 0-.167-.307 0-.317.13-1.003.046-.24.046-.294 0-.109.04-.185.039-.077.111-.077.088 0 .138.043.052.041.052.093t-.024.136q-.13.455-.16.651-.032.197-.032.467zM13.935 230.15q.408-.071.732-.528.151-.212.265-.3.116-.09.245-.09.051 0 .103.047t.052.11q0 .085-.16.133-.085.026-.159.088t-.28.296q-.163.183-.292.257-.012.007-.012.012 0 .007.016.014.125.067.265.26.203.28.305.355.101.072.232.072l.057-.002q.06-.003.06.054 0 .065-.074.136-.074.07-.244.07-.131 0-.255-.112-.122-.113-.28-.366-.092-.15-.171-.228-.08-.077-.176-.077-.02 0-.128.034-.106.034-.12.067-.012.031-.02.23-.004.196-.004.316 0 .064-.06.114t-.132.05q-.072 0-.113-.043-.042-.041-.042-.086 0-.062.047-.293.083-.42.165-1.387.007-.093.07-.167.065-.076.146-.076.044 0 .074.049.03.048.03.124 0 .06-.02.137-.098.357-.122.729zM16.91 229.693q-.16.003-.686.949-.177.319-.207.348-.029.028-.108.05-.078.022-.13.022-.115 0-.115-.45 0-.253.109-.916.045-.268.045-.384 0-.114.101-.114.191 0 .191.276 0 .13-.063.506-.074.431-.076.524.107-.103.313-.453.293-.479.431-.606.14-.13.288-.13.112 0 .177.15.067.15.081.715.003.142.026.21.022.07.033.07.08 0 .351-.552.145-.291.28-.443.139-.151.306-.151.14 0 .203.145.064.142.091.425.026.286.08.524.055.237.2.305.097.046.097.108 0 .06-.082.124-.083.064-.152.064-.138 0-.246-.169-.109-.169-.164-.73-.024-.226-.046-.32-.023-.095-.07-.095-.073 0-.173.137-.098.138-.319.56-.172.33-.262.44-.088.108-.17.108-.074 0-.133-.059-.058-.06-.074-.143-.015-.084-.033-.411-.025-.545-.094-.634zM20.71 230.471q0 .176-.312.424-.31.248-.641.248-.277 0-.429-.163-.15-.164-.15-.457 0-.493.333-.937.332-.444.727-.444.129 0 .21.084.082.084.082.203 0 .266-.26.508-.26.243-.696.478-.09.046-.09.12 0 .143.083.23.083.085.245.085.37 0 .756-.41.057-.056.086-.056.056 0 .056.087zm-1.198-.268q.73-.434.73-.698 0-.103-.092-.103-.159 0-.359.232-.198.233-.279.569zM21.402 230.856q-.084.31-.158.87l-.049.325q-.012.069-.063.136-.052.069-.095.069-.054 0-.122-.055-.068-.054-.068-.086 0-.095.043-.262.316-1.273.316-2.236l-.002-.145q-.003-.186.065-.27.07-.084.159-.084.041 0 .08.065.037.064.037.183 0 .167-.034.404-.045.3-.047.345.257-.448.544-.7.288-.251.534-.251.174 0 .293.13.12.13.12.323 0 .562-.43 1.02-.43.458-.839.458-.101 0-.162-.052-.058-.051-.122-.187zm1.07-1.387q-.243 0-.601.455-.359.454-.359.708 0 .062.07.12.071.059.18.059.246 0 .567-.364.32-.365.32-.716 0-.126-.052-.193-.05-.07-.125-.07zM2.745 236.277h.315v.906l.894-.906h.39l-.738.745.646.92h.245v.751H4.18v-.487h-.096l-.684-.973-.34.344v.629h-.315zM5.946 237.579q-.242.324-.478.486-.236.162-.432.162-.133 0-.229-.112t-.096-.288q0-.453.404-.975.405-.524.805-.524.144 0 .215.166.022.055.07.055.138 0 .138.107 0 .053-.017.146-.093.508-.093.717 0 .416.159.5.076.04.076.1 0 .054-.075.107-.074.056-.143.056-.132 0-.218-.183t-.086-.52zm-.105-.97q-.228 0-.53.427-.3.426-.3.706 0 .199.13.199.19 0 .526-.383.335-.382.335-.703 0-.246-.161-.246zM7.821 236.802q-.04-.002-.08.08-.357.712-.54.967l-.04.066q-.215.384-.315.384-.134 0-.134-.13 0-.116.167-.318.162-.191.426-.648.263-.458.427-.821.03-.066.093-.066.026 0 .091.024.067.023.086.05.02.028.085.32.212 1.056.446 1.253.055.048.065.065.01.016.01.045 0 .053-.034.098-.034.043-.067.055-.033.012-.134.012-.037 0-.17-.177-.132-.18-.31-.973-.042-.214-.072-.286zM9.361 236.254q.023-.015.05-.015.043 0 .073.115 0 .074-.04.188-.117.325-.117.455 0 .034.02.038.397-.381.734-.381.209 0 .35.158.141.157.141.288 0 .4-.408.768-.406.367-.82.367-.184 0-.287-.151-.102-.154-.102-.438 0-.308.077-.682.078-.374.124-.5.02-.053.035-.108.017-.07.17-.102zm-.08 1.08q-.035.191-.035.383 0 .26.205.26.23 0 .517-.276.286-.275.286-.536 0-.106-.057-.179-.057-.072-.157-.072-.136 0-.269.069-.13.067-.292.219-.062.058-.1.09-.037.032-.099.042zm1.734.396q0 .131.036.295.007.031.007.052 0 .03-.057.08-.057.049-.12.049-.167 0-.167-.307 0-.305.132-1.023.048-.262.048-.317 0-.108.04-.184.04-.078.112-.078.088 0 .138.043.052.042.052.093 0 .052-.025.143-.134.491-.165.688-.031.196-.031.466zM12.753 236.881q-.09 0-.196.117-.105.117-.322.526-.286.547-.37.623-.083.076-.139.076-.203 0-.203-.196 0-.083.028-.235.094-.52.094-1.097 0-.065.056-.145.056-.08.106-.08.09 0 .128.055.038.055.038.222 0 .174-.104.716-.034.18-.034.228 0 .027.014.027.026 0 .24-.411.215-.419.376-.59.162-.17.357-.17.155 0 .251.141.099.142.143.515.049.426.087.53.04.104.124.104.053 0 .134-.038.014-.007.02-.007.075 0 .075.086 0 .076-.102.162-.102.085-.245.085-.146 0-.227-.116-.08-.117-.126-.622-.048-.506-.203-.506zM15.22 236.843q-.16.003-.686.95-.177.318-.207.347-.029.028-.108.05-.078.023-.13.023-.115 0-.115-.45 0-.253.109-.916.045-.269.045-.384 0-.114.101-.114.192 0 .192.276 0 .129-.064.506-.074.43-.076.524.107-.104.314-.453.292-.48.43-.607.14-.129.288-.129.112 0 .177.15.067.15.081.715.004.141.026.21t.033.069q.08 0 .351-.551.145-.292.28-.443.139-.152.306-.152.14 0 .203.145.064.143.091.425.026.286.08.524.055.238.2.305.098.047.098.109 0 .06-.083.124-.083.063-.152.063-.137 0-.246-.169-.108-.168-.164-.73-.024-.226-.046-.32-.022-.095-.07-.095-.073 0-.173.138-.098.138-.319.56-.172.329-.261.439-.088.108-.171.108-.074 0-.133-.058-.058-.06-.074-.143-.015-.085-.032-.412-.026-.544-.095-.634zM18.706 237.579q-.24.324-.477.486-.236.162-.432.162-.133 0-.23-.112-.096-.112-.096-.288 0-.453.405-.975.405-.524.804-.524.145 0 .216.166.022.055.07.055.138 0 .138.107 0 .053-.017.146-.093.508-.093.717 0 .416.158.5.076.04.076.1 0 .054-.074.107-.074.056-.143.056-.133 0-.219-.183t-.086-.52zm-.105-.97q-.227 0-.529.427-.301.426-.301.706 0 .199.13.199.19 0 .526-.383.336-.382.336-.703 0-.246-.162-.246zM20.582 236.802q-.041-.002-.08.08-.357.712-.54.967-.016.023-.04.066-.215.384-.315.384-.134 0-.134-.13 0-.116.167-.318.162-.191.425-.648.264-.458.427-.821.032-.066.094-.066.025 0 .09.024.068.023.087.05.019.028.084.32.212 1.056.446 1.253.056.048.066.065.01.016.01.045 0 .053-.034.098-.035.043-.067.055-.033.012-.135.012-.036 0-.169-.177-.132-.18-.31-.973-.043-.214-.072-.286zM22.043 238.206v-.861h-.453v-.293h.453v-.775h1.36v.27H22.36v.505h.716v.293h-.716v.86zM24.966 237.579q-.241.324-.477.486-.236.162-.433.162-.132 0-.229-.112-.096-.112-.096-.288 0-.453.405-.975.404-.524.804-.524.145 0 .215.166.023.055.071.055.138 0 .138.107 0 .053-.017.146-.093.508-.093.717 0 .416.158.5.076.04.076.1 0 .054-.074.107-.074.056-.143.056-.133 0-.219-.183t-.086-.52zm-.105-.97q-.227 0-.529.427-.301.426-.301.706 0 .199.13.199.19 0 .526-.383.336-.382.336-.703 0-.246-.162-.246zM27.143 237.081q.02-.036.06-.432.032-.317.202-.317.14 0 .14.14 0 .032-.025.132-.132.55-.132.921 0 .404.132.522.07.064.07.104 0 .048-.071.088-.07.04-.126.04-.269 0-.269-.831 0-.055-.041-.055-.162 0-.396.019t-.336.048q-.1.03-.124.055-.023.024-.041.133-.018.107-.018.222v.212q0 .184-.169.184-.14 0-.14-.184 0-.12.03-.307.057-.34.114-1.175.007-.108.019-.137.012-.03.062-.064.052-.036.112-.036.124 0 .124.101 0 .016-.04.259-.041.243-.041.377 0 .095.065.095.131 0 .48-.043.347-.045.36-.071zM29.712 237.3q.408-.07.732-.527.151-.212.265-.3.115-.09.245-.09.051 0 .103.047.052.046.052.11 0 .085-.16.133-.085.026-.16.088-.073.062-.28.296-.162.183-.291.257-.012.007-.012.012 0 .007.015.013.126.068.266.26.203.281.305.355.101.073.232.073l.057-.002q.06-.003.06.053 0 .066-.074.136t-.244.07q-.131 0-.255-.111-.123-.114-.281-.367-.091-.15-.17-.227-.08-.078-.176-.078-.021 0-.128.035-.107.034-.12.067-.012.03-.02.229-.005.196-.005.317 0 .064-.06.114t-.13.05q-.073 0-.114-.044-.042-.041-.042-.086 0-.062.047-.293.082-.42.165-1.386.007-.093.07-.167.064-.076.145-.076.045 0 .074.048.032.048.032.124 0 .06-.021.138-.098.356-.122.729zM32.86 237.622q0 .176-.311.424-.31.248-.641.248-.278 0-.43-.164-.149-.164-.149-.456 0-.493.332-.937.333-.445.727-.445.13 0 .21.085.083.084.083.203 0 .265-.26.508t-.696.477q-.09.047-.09.12 0 .144.083.23.083.086.245.086.37 0 .756-.41.057-.057.086-.057.055 0 .055.088zm-1.197-.269q.73-.434.73-.697 0-.104-.092-.104-.159 0-.359.233-.198.232-.279.568zM33.69 238.304q-.258 0-.397-.148-.138-.148-.138-.415 0-.45.357-.948.356-.5.663-.5.14 0 .24.152.1.15.1.32 0 .1-.044.175-.043.072-.088.072-.1 0-.141-.201-.047-.217-.134-.217-.18 0-.424.425-.245.426-.245.718 0 .293.333.293.253 0 .596-.238.12-.084.177-.084.059 0 .059.067 0 .131-.309.331-.308.198-.604.198zM35.358 237.3q.408-.07.732-.527.152-.212.265-.3.116-.09.245-.09.052 0 .103.047.052.046.052.11 0 .085-.16.133-.085.026-.159.088t-.28.296q-.162.183-.291.257-.013.007-.013.012 0 .007.016.013.126.068.265.26.203.281.305.355.102.073.233.073l.057-.002q.06-.003.06.053 0 .066-.074.136t-.245.07q-.13 0-.255-.111-.122-.114-.28-.367-.092-.15-.171-.227-.08-.078-.176-.078-.02 0-.127.035-.107.034-.12.067-.013.03-.02.229-.005.196-.005.317 0 .064-.06.114t-.131.05q-.073 0-.114-.044-.041-.041-.041-.086 0-.062.046-.293.083-.42.166-1.386.007-.093.07-.167.064-.076.145-.076.045 0 .074.048.031.048.031.124 0 .06-.02.138-.099.356-.123.729zM37.587 235.9q-.036 0-.055-.078-.007-.024-.019-.054-.047-.112-.047-.194 0-.07.081-.14.083-.072.183-.072.05 0 .112.04.062.037.062.074 0 .056-.043.193-.041.136-.134.184-.092.046-.14.046zm-.226 1.923q0 .131.037.295.006.031.006.052 0 .03-.056.079-.057.05-.12.05-.168 0-.168-.307 0-.317.13-1.002.046-.24.046-.295 0-.108.04-.184.039-.078.111-.078.088 0 .138.043.052.042.052.093 0 .052-.024.136-.13.455-.16.652-.032.196-.032.466zM39.32 237.081q.019-.036.06-.432.031-.317.202-.317.14 0 .14.14 0 .032-.025.132-.132.55-.132.921 0 .404.132.522.07.064.07.104 0 .048-.072.088-.068.04-.125.04-.269 0-.269-.831 0-.055-.041-.055-.162 0-.397.019-.234.019-.335.048-.1.03-.124.055-.023.024-.042.133-.017.107-.017.222v.212q0 .184-.169.184-.141 0-.141-.184 0-.12.03-.307.058-.34.115-1.175.007-.108.019-.137.012-.03.062-.064.051-.036.112-.036.124 0 .124.101 0 .016-.04.259-.041.243-.041.377 0 .095.065.095.131 0 .479-.043.348-.045.36-.071zM41.439 236.2q-.062-.268-.154-.375-.09-.107-.24-.165-.15-.059-.271-.059-.047 0-.138.037-.09.034-.138.063-.067.04-.124.04-.065 0-.065-.07 0-.073.112-.204t.394-.131h.074q.281 0 .496.148.216.147.305.42.091.274.091.736 0 .313-.198.76-.198.446-.504.675-.305.229-.65.229-.124 0-.232-.143-.109-.143-.109-.355 0-.39.17-.689.173-.3.385-.486.213-.186.589-.3.124-.036.169-.056.045-.02.038-.074zm.046.352q-.398.081-.61.257-.478.448-.478 1.004 0 .074.025.14.026.063.059.063.127 0 .232-.044.106-.045.257-.187.152-.142.274-.353.124-.21.18-.404.056-.195.06-.298.003-.105.001-.178zM43.566 237.622q0 .176-.312.424-.31.248-.64.248-.278 0-.43-.164-.15-.164-.15-.456 0-.493.333-.937.333-.445.727-.445.13 0 .21.085.083.084.083.203 0 .265-.26.508t-.696.477q-.09.047-.09.12 0 .144.083.23.083.086.245.086.37 0 .756-.41.057-.057.086-.057.055 0 .055.088zm-1.197-.269q.73-.434.73-.697 0-.104-.093-.104-.158 0-.358.233-.198.232-.28.568zM44.258 238.006q-.084.31-.158.87l-.048.325q-.012.07-.064.137-.052.068-.095.068-.053 0-.122-.055-.067-.053-.067-.086 0-.094.043-.262.315-1.273.315-2.235l-.002-.145q-.003-.186.066-.27.069-.085.158-.085.042 0 .08.066.037.063.037.182 0 .167-.034.405-.045.3-.046.344.256-.447.544-.699.288-.251.534-.251.174 0 .293.13.12.13.12.323 0 .561-.43 1.02-.431.458-.84.458-.1 0-.161-.052-.059-.052-.122-.188zm1.07-1.387q-.243 0-.601.455t-.358.708q0 .062.07.12.071.06.18.06.246 0 .566-.364.32-.365.32-.717 0-.126-.051-.193-.05-.069-.126-.069zM2.745 243.427h.315v.906l.894-.906h.39l-.738.746.646.92h.245v.75H4.18v-.487h-.096l-.684-.973-.34.345v.628h-.315zM5.288 245.442q-.236 0-.39-.179-.153-.179-.153-.442 0-.445.298-.875.3-.433.717-.433.275 0 .446.212.172.212.172.505 0 .448-.355.83-.353.382-.735.382zm-.24-.666q0 .174.072.284.075.11.195.11.257 0 .515-.28.259-.283.259-.627 0-.212-.1-.343-.099-.133-.266-.133-.277 0-.477.341-.198.34-.198.648zM7.746 243.952q-.042-.002-.081.08-.357.713-.54.968-.015.022-.04.065-.214.384-.314.384-.135 0-.135-.129 0-.117.167-.319.162-.19.426-.647.263-.458.427-.822.031-.065.093-.065.026 0 .091.024.068.022.087.05.018.027.084.32.212 1.056.446 1.253.055.048.066.065.01.016.01.045 0 .053-.035.098-.034.043-.067.055-.033.012-.134.012-.036 0-.169-.177-.133-.18-.31-.973-.043-.214-.072-.286zM10.197 243.351q-.062-.268-.153-.375-.092-.107-.242-.166-.15-.058-.27-.058-.047 0-.138.036-.09.034-.138.064-.067.04-.124.04-.065 0-.065-.07 0-.074.112-.205.112-.13.394-.13h.074q.281 0 .496.148.216.146.305.42.092.274.092.735 0 .314-.198.76-.199.446-.505.675-.305.23-.65.23-.124 0-.232-.144-.109-.142-.109-.354 0-.391.17-.69.173-.3.385-.485.214-.186.59-.3.123-.036.168-.057.045-.02.038-.074zm.046.352q-.398.08-.61.256-.478.448-.478 1.005 0 .074.026.14.025.063.058.063.128 0 .233-.045.105-.045.256-.186.152-.143.274-.353.124-.21.18-.405.056-.195.06-.298.003-.105.001-.177zM11.907 244.73q-.24.323-.477.485-.236.162-.432.162-.133 0-.23-.112-.096-.112-.096-.288 0-.453.405-.975.405-.523.804-.523.145 0 .216.165.022.055.07.055.138 0 .138.107 0 .053-.017.146-.093.509-.093.717 0 .417.158.5.076.04.076.101 0 .054-.074.107-.074.055-.143.055-.132 0-.219-.183-.086-.182-.086-.52zm-.105-.97q-.227 0-.529.427-.301.425-.301.706 0 .198.13.198.19 0 .526-.382.336-.383.336-.703 0-.246-.162-.246zM14.085 244.232q.019-.037.06-.433.03-.317.201-.317.14 0 .14.14 0 .032-.024.132-.133.55-.133.922 0 .403.133.522.069.064.069.103 0 .048-.07.088-.07.04-.127.04-.268 0-.268-.83 0-.056-.042-.056-.162 0-.396.02-.234.018-.336.047-.1.03-.124.056-.022.024-.041.132-.017.107-.017.222v.212q0 .185-.17.185-.14 0-.14-.185 0-.12.03-.306.057-.341.114-1.175.007-.109.02-.138.011-.03.061-.064.052-.036.112-.036.124 0 .124.102 0 .015-.04.258t-.04.377q0 .095.065.095.13 0 .479-.043.348-.045.36-.07zM15.292 243.405q.023-.016.05-.016.043 0 .072.116 0 .074-.04.187-.116.326-.116.455 0 .035.02.038.397-.38.734-.38.209 0 .35.158.141.157.141.287 0 .4-.408.769-.407.367-.82.367-.184 0-.288-.152-.101-.153-.101-.438 0-.308.077-.682.078-.373.124-.5.02-.053.035-.108.017-.069.17-.101zm-.08 1.08q-.035.19-.035.382 0 .26.205.26.23 0 .516-.275.286-.276.286-.536 0-.107-.056-.18-.057-.072-.157-.072-.136 0-.269.07-.13.066-.293.218-.062.059-.1.091-.036.031-.098.042zm1.734.396q0 .13.036.294.007.031.007.052 0 .031-.057.081-.057.048-.12.048-.168 0-.168-.306 0-.305.133-1.023.048-.262.048-.317 0-.109.04-.185.04-.077.112-.077.088 0 .138.043.051.041.051.093t-.024.143q-.134.49-.165.687-.031.197-.031.467zM17.981 245.455q-.258 0-.398-.149-.138-.148-.138-.415 0-.45.357-.947.356-.5.663-.5.14 0 .24.152.101.15.101.319 0 .101-.045.175-.043.073-.088.073-.1 0-.14-.202-.047-.217-.135-.217-.18 0-.424.425-.244.426-.244.719t.332.293q.253 0 .596-.238.12-.085.177-.085.059 0 .059.068 0 .13-.308.33-.309.199-.605.199zM21.552 244.297q.222.036.346.164.124.127.124.311 0 .291-.246.486-.247.193-.648.193-.24 0-.413-.103-.173-.104-.173-.23 0-.103.12-.103.017 0 .053.03.19.163.45.163.228 0 .394-.12.165-.121.165-.314 0-.127-.095-.212-.093-.086-.217-.086-.094 0-.332.074-.047.016-.1.016-.103 0-.103-.14 0-.048.048-.077.05-.03.212-.067.49-.112.49-.398 0-.086-.061-.142-.06-.056-.157-.056-.18 0-.383.158-.118.093-.18.093-.105 0-.105-.098 0-.13.242-.264.245-.136.469-.136.224 0 .351.119.13.119.13.25 0 .312-.381.489zM23.567 244.73q-.24.323-.477.485-.236.162-.432.162-.133 0-.23-.112-.096-.112-.096-.288 0-.453.405-.975.405-.523.804-.523.145 0 .216.165.022.055.07.055.138 0 .138.107 0 .053-.017.146-.093.509-.093.717 0 .417.158.5.076.04.076.101 0 .054-.074.107-.074.055-.143.055-.133 0-.219-.183-.086-.182-.086-.52zm-.105-.97q-.227 0-.529.427-.301.425-.301.706 0 .198.13.198.19 0 .526-.382.336-.383.336-.703 0-.246-.162-.246zM25.777 243.994q-.16.003-.685.949-.178.319-.207.348-.03.027-.109.05-.077.022-.129.022-.115 0-.115-.45 0-.253.108-.916.045-.268.045-.384 0-.114.102-.114.191 0 .191.276 0 .13-.064.506-.074.431-.076.524.107-.103.314-.453.293-.479.43-.606.14-.13.288-.13.112 0 .178.15.067.15.08.715.004.142.027.21.022.07.032.07.081 0 .352-.552.144-.291.28-.443.138-.151.305-.151.14 0 .204.145.063.143.09.425.027.286.08.524.055.237.2.305.098.046.098.108 0 .06-.083.124-.082.064-.151.064-.138 0-.246-.169-.109-.169-.164-.73-.024-.226-.047-.32-.022-.095-.07-.095-.073 0-.173.137-.098.138-.318.56-.172.33-.262.44-.088.108-.17.108-.075 0-.133-.059-.059-.06-.074-.143-.016-.084-.033-.411-.026-.545-.095-.634zM29.403 243.994q-.16.003-.685.949-.178.319-.207.348-.03.027-.109.05-.077.022-.129.022-.115 0-.115-.45 0-.253.108-.916.045-.268.045-.384 0-.114.102-.114.191 0 .191.276 0 .13-.064.506-.074.431-.076.524.107-.103.314-.453.293-.479.43-.606.14-.13.288-.13.112 0 .178.15.067.15.08.715.004.142.026.21.023.07.033.07.081 0 .352-.552.144-.291.28-.443.138-.151.305-.151.14 0 .204.145.063.143.09.425.027.286.08.524.055.237.2.305.098.046.098.108 0 .06-.083.124-.082.064-.151.064-.138 0-.247-.169-.108-.169-.163-.73-.024-.226-.047-.32-.022-.095-.07-.095-.073 0-.173.137-.098.138-.318.56-.172.33-.262.44-.088.108-.17.108-.075 0-.133-.059-.059-.06-.074-.143-.016-.084-.033-.411-.026-.545-.095-.634zM32.89 244.73q-.241.323-.477.485-.236.162-.433.162-.132 0-.229-.112-.096-.112-.096-.288 0-.453.404-.975.405-.523.805-.523.145 0 .215.165.023.055.07.055.139 0 .139.107 0 .053-.018.146-.093.509-.093.717 0 .417.159.5.076.04.076.101 0 .054-.074.107-.075.055-.143.055-.133 0-.22-.183-.085-.182-.085-.52zm-.105-.97q-.228 0-.53.427-.3.425-.3.706 0 .198.13.198.19 0 .526-.382.336-.383.336-.703 0-.246-.162-.246zM34.132 245.156q-.085.31-.159.87l-.048.326q-.012.069-.064.136-.051.069-.095.069-.053 0-.122-.055-.067-.054-.067-.086 0-.095.043-.262.315-1.273.315-2.236l-.001-.145q-.004-.186.065-.27.069-.085.158-.085.042 0 .08.066.038.064.038.183 0 .167-.035.404-.045.3-.046.345.256-.448.544-.7.288-.251.534-.251.174 0 .293.131.12.13.12.322 0 .562-.43 1.02-.43.458-.84.458-.1 0-.161-.052-.059-.051-.122-.187zm1.07-1.386q-.244 0-.602.455-.358.454-.358.708 0 .062.07.12.071.059.18.059.246 0 .566-.364.32-.365.32-.716 0-.126-.05-.193-.05-.07-.127-.07zM36.48 243.405q.022-.016.05-.016.042 0 .072.116 0 .074-.04.187-.117.326-.117.455 0 .035.02.038.397-.38.734-.38.209 0 .35.158.141.157.141.287 0 .4-.408.769-.406.367-.82.367-.184 0-.287-.152-.102-.153-.102-.438 0-.308.077-.682.078-.373.124-.5.02-.053.035-.108.017-.069.17-.101zm-.081 1.08q-.035.19-.035.382 0 .26.205.26.23 0 .517-.275.286-.276.286-.536 0-.107-.057-.18-.057-.072-.157-.072-.136 0-.269.07-.13.066-.292.218-.062.059-.1.091-.036.031-.098.042zm1.734.396q0 .13.036.294.007.031.007.052 0 .031-.057.081-.057.048-.12.048-.167 0-.167-.306 0-.305.132-1.023.049-.262.049-.317 0-.109.04-.185.039-.077.111-.077.088 0 .138.043.052.041.052.093t-.025.143q-.134.49-.165.687-.03.197-.03.467zM4.104 251.628q-.022.388-.074.76-.026.07-.13.07-.152 0-.152-.155 0-.063.036-.237.026-.152.027-.205.002-.055.009-.12.007-.065-.002-.103-.088.013-.358.21-.27.199-.463.393v-.002q-.012.007-.076.13-.092.182-.202.182-.051 0-.115-.045-.062-.045-.062-.09 0-.106.2-.316.201-.212.444-.362.296-.183.408-.295-.05-.07-.194-.155-.147-.086-.273-.192l-.04-.031q-.223-.15-.297-.224-.072-.076-.072-.162 0-.057.043-.104.043-.048.084-.048.026 0 .093.028.067.027.096.058l.085.08q.446.437.706.556.014 0 .035-.033.017-.058.017-.188 0-.12-.026-.27-.014-.078-.014-.102 0-.08.062-.13.064-.05.138-.05.084 0 .115.034t.031.117l-.022.548v.034q0 .024.002.04.06 0 .125-.047.066-.048.195-.19.567-.587.656-.587.05 0 .092.042.041.041.041.096 0 .028-.19.234-.187.205-.387.378-.257.22-.257.229 0 .012.214.179.23.18.319.257.012.009.034.022.255.157.319.234.063.078.063.131 0 .05-.043.104-.043.051-.084.051-.153 0-.711-.515-.248-.23-.3-.243-.023-.003-.035-.009-.017-.005-.062-.002-.044.002-.048.014zM6.876 251.785q-.241.324-.477.486-.236.162-.433.162-.132 0-.229-.112-.096-.112-.096-.288 0-.453.404-.975.405-.524.805-.524.145 0 .215.166.023.055.07.055.139 0 .139.107 0 .053-.018.146-.093.508-.093.717 0 .416.159.5.076.04.076.1 0 .054-.074.108-.074.055-.143.055-.133 0-.22-.183-.085-.183-.085-.52zm-.105-.97q-.228 0-.53.427-.3.426-.3.707 0 .198.13.198.19 0 .526-.383.336-.382.336-.703 0-.246-.162-.246zM9.053 251.287q.019-.036.06-.432.031-.317.202-.317.14 0 .14.14 0 .032-.025.132-.132.55-.132.921 0 .404.132.522.07.064.07.104 0 .048-.071.088-.07.04-.126.04-.269 0-.269-.831 0-.055-.041-.055-.162 0-.396.019-.235.019-.336.048-.1.03-.124.055-.023.024-.042.133-.017.107-.017.222v.212q0 .184-.169.184-.141 0-.141-.184 0-.12.031-.307.057-.34.114-1.174.007-.109.019-.138.012-.03.062-.064.051-.036.112-.036.124 0 .124.101 0 .016-.04.259-.041.243-.041.377 0 .095.065.095.131 0 .479-.043.348-.045.36-.07zM10.26 250.46q.023-.015.05-.015.044 0 .073.115 0 .074-.04.188-.117.325-.117.455 0 .034.02.038.397-.381.735-.381.208 0 .35.158.14.157.14.288 0 .4-.408.768-.406.367-.82.367-.184 0-.287-.151-.102-.154-.102-.438 0-.308.078-.682.077-.374.124-.5.019-.053.034-.108.017-.069.17-.102zm-.08 1.08q-.035.191-.035.383 0 .26.205.26.231 0 .517-.276.286-.275.286-.536 0-.106-.057-.179-.057-.072-.157-.072-.136 0-.268.069-.131.067-.293.219-.062.058-.1.09-.036.032-.098.042zm1.734.396q0 .131.036.295.007.031.007.052 0 .03-.057.08-.056.049-.12.049-.167 0-.167-.307 0-.305.132-1.023.049-.262.049-.317 0-.108.04-.184.039-.078.111-.078.088 0 .138.043.052.042.052.093 0 .052-.024.143-.135.491-.166.688-.03.196-.03.467zM13.752 251.804q-.262.246-.523.386-.262.14-.402.14-.16 0-.257-.137-.094-.138-.094-.338 0-.29.11-.687.112-.398.17-.451.06-.054.156-.054.051 0 .08.062.03.06.03.125 0 .043-.04.111-.225.392-.225.808 0 .097.036.17.036.073.11.073.095 0 .232-.057.14-.058.314-.19.174-.13.234-.211.06-.081.085-.184.026-.104.036-.448.01-.345.167-.345.093 0 .12.05.028.049.028.186 0 .104-.03.448-.008.078-.01.143-.05.92-.275 1.442-.226.522-.656.522-.338 0-.602-.177-.261-.176-.261-.298 0-.057.025-.112.028-.056.07-.056.02 0 .044.033.226.346.694.346.298 0 .446-.365.149-.363.188-.935zM15.724 251.785q-.24.324-.477.486-.236.162-.432.162-.133 0-.23-.112-.096-.112-.096-.288 0-.453.405-.975.405-.524.805-.524.144 0 .215.166.022.055.07.055.138 0 .138.107 0 .053-.017.146-.093.508-.093.717 0 .416.159.5.075.04.075.1 0 .054-.074.108-.074.055-.143.055-.132 0-.218-.183-.087-.183-.087-.52zm-.105-.97q-.227 0-.528.427-.302.426-.302.707 0 .198.131.198.19 0 .525-.383.336-.382.336-.703 0-.246-.162-.246zM16.966 252.212q-.084.31-.158.87l-.048.326q-.012.068-.064.136-.052.068-.095.068-.053 0-.122-.055-.067-.053-.067-.086 0-.094.043-.262.315-1.272.315-2.235l-.002-.145q-.003-.186.066-.27.069-.085.158-.085.042 0 .08.066.037.063.037.182 0 .167-.034.405-.045.3-.047.344.257-.447.545-.699.287-.251.534-.251.174 0 .293.13.12.13.12.323 0 .561-.43 1.02-.431.458-.84.458-.1 0-.161-.052-.059-.052-.123-.188zm1.07-1.387q-.243 0-.601.455t-.358.708q0 .062.07.12.07.06.18.06.246 0 .566-.364.32-.365.32-.717 0-.125-.051-.193-.05-.069-.126-.069zM19.881 251.008q-.041-.002-.081.08-.357.712-.54.967-.015.023-.039.066-.215.384-.315.384-.134 0-.134-.13 0-.116.167-.318.162-.191.425-.648.264-.458.427-.821.031-.066.093-.066.026 0 .092.024.067.023.086.05.019.028.084.32.212 1.057.446 1.253.056.048.066.065.01.016.01.045 0 .053-.034.098-.035.043-.067.055-.033.012-.135.012-.036 0-.169-.177-.132-.18-.31-.973-.043-.214-.072-.286zM22.182 251.785q-.24.324-.477.486-.236.162-.432.162-.133 0-.23-.112-.096-.112-.096-.288 0-.453.405-.975.405-.524.804-.524.145 0 .216.166.022.055.07.055.138 0 .138.107 0 .053-.017.146-.093.508-.093.717 0 .416.158.5.076.04.076.1 0 .054-.074.108-.074.055-.143.055-.132 0-.219-.183-.086-.183-.086-.52zm-.105-.97q-.227 0-.529.427-.301.426-.301.707 0 .198.13.198.19 0 .526-.383.336-.382.336-.703 0-.246-.162-.246zM23.424 252.212q-.084.31-.158.87l-.048.326q-.012.068-.064.136-.052.068-.095.068-.053 0-.122-.055-.067-.053-.067-.086 0-.094.043-.262.315-1.272.315-2.235l-.002-.145q-.003-.186.066-.27.069-.085.158-.085.041 0 .08.066.037.063.037.182 0 .167-.034.405-.045.3-.047.344.257-.447.545-.699.287-.251.534-.251.174 0 .292.13.121.13.121.323 0 .561-.43 1.02-.431.458-.84.458-.101 0-.161-.052-.059-.052-.123-.188zm1.07-1.387q-.243 0-.601.455t-.358.708q0 .062.07.12.07.06.18.06.246 0 .566-.364.32-.365.32-.717 0-.125-.051-.193-.05-.069-.126-.069zM3.501 257.855q-.253 0-.382.167-.128.166-.159.385h1.082q-.03-.22-.16-.385-.127-.167-.38-.167zm.002 1.489q.257 0 .401-.2.145-.2.145-.455H2.957q0 .255.145.455.144.2.401.2zm.002-1.757q.413 0 .65.268.235.269.235.744 0 .474-.236.745-.236.268-.65.268-.414 0-.65-.268-.235-.27-.235-.745t.235-.744q.236-.268.65-.268zM6.08 258.438q.019-.037.06-.433.031-.317.202-.317.14 0 .14.14 0 .032-.025.132-.132.55-.132.922 0 .403.132.522.07.064.07.103 0 .048-.072.088-.068.04-.125.04-.269 0-.269-.83 0-.056-.041-.056-.162 0-.397.02-.234.018-.335.048-.1.029-.124.055-.023.024-.042.132-.017.107-.017.222v.212q0 .185-.169.185-.141 0-.141-.185 0-.12.03-.306.058-.341.115-1.175.007-.109.019-.138.012-.03.062-.064.051-.036.112-.036.124 0 .124.102 0 .015-.04.258-.041.243-.041.378 0 .094.065.094.131 0 .479-.043.348-.045.36-.07zM8.362 258.978q0 .176-.311.424-.31.248-.641.248-.278 0-.43-.163-.149-.164-.149-.457 0-.493.332-.937.333-.444.727-.444.13 0 .21.084.083.084.083.203 0 .266-.26.508-.26.243-.696.478-.09.046-.09.12 0 .143.083.23.083.085.245.085.37 0 .756-.41.057-.056.086-.056.055 0 .055.087zm-1.197-.268q.73-.434.73-.698 0-.103-.093-.103-.158 0-.358.232-.198.233-.279.569zM9.055 259.363q-.085.31-.159.87l-.048.325q-.012.069-.064.136-.051.069-.094.069-.054 0-.123-.055-.067-.054-.067-.086 0-.095.043-.262.315-1.273.315-2.236l-.001-.145q-.004-.186.065-.27.07-.084.159-.084.041 0 .079.065.038.064.038.183 0 .167-.035.404-.044.3-.046.345.256-.448.544-.7.288-.25.534-.25.174 0 .293.13.12.13.12.322 0 .562-.43 1.02-.43.458-.839.458-.102 0-.162-.052-.058-.051-.122-.187zm1.07-1.387q-.243 0-.602.455-.358.454-.358.708 0 .062.07.12.071.059.18.059.246 0 .567-.364.32-.365.32-.716 0-.126-.052-.193-.05-.07-.126-.07zM13.427 257.773q-.066-.178-.304-.385-.223-.192-.223-.33 0-.11.072-.178.072-.069.269-.124.244-.067.497-.151.254-.086.305-.11.033-.016.067-.016.057 0 .057.102 0 .056-.138.155-.137.098-.487.182-.22.055-.27.083-.049.026-.049.053 0 .062.135.18.506.442.506 1.11 0 .288-.151.617-.152.327-.405.488-.252.16-.493.16-.217 0-.329-.212-.112-.212-.112-.467 0-.451.277-.85.28-.4.59-.4.04 0 .103.053.057.052.083.04zm-.751 1.164q0 .191.05.3.051.108.134.108.11 0 .298-.136t.301-.403q.116-.267.116-.5 0-.192-.055-.311-.054-.12-.1-.12-.307 0-.526.373-.218.374-.218.69zM14.787 257.256q-.036 0-.055-.078-.007-.024-.019-.053-.046-.112-.046-.195 0-.069.08-.14.083-.072.183-.072.05 0 .112.04.062.038.062.074 0 .057-.043.193-.041.136-.134.184-.091.047-.14.047zm-.225 1.924q0 .13.036.294.007.031.007.052 0 .031-.057.08-.057.05-.12.05-.168 0-.168-.307 0-.317.131-1.003.045-.24.045-.294 0-.109.04-.185.04-.077.112-.077.087 0 .137.043.052.041.052.093t-.024.136q-.13.455-.16.651-.031.197-.031.467zM16.219 258.158q-.041-.002-.081.08-.357.713-.54.968-.015.022-.039.065-.215.384-.315.384-.134 0-.134-.129 0-.117.167-.318.162-.192.425-.648.264-.458.427-.822.031-.065.093-.065.026 0 .092.024.067.022.086.05.019.027.084.32.212 1.056.446 1.252.055.049.066.066.01.015.01.045 0 .053-.034.098-.035.043-.068.055-.032.012-.134.012-.036 0-.169-.177-.132-.18-.31-.973-.043-.214-.072-.286zM17.914 257.256q-.036 0-.055-.078-.007-.024-.02-.053-.046-.112-.046-.195 0-.069.081-.14.083-.072.183-.072.05 0 .112.04.062.038.062.074 0 .057-.043.193-.042.136-.135.184-.09.047-.14.047zm-.226 1.924q0 .13.036.294.007.031.007.052 0 .031-.057.08-.056.05-.12.05-.167 0-.167-.307 0-.317.13-1.003.045-.24.045-.294 0-.109.04-.185.04-.077.112-.077.088 0 .138.043.052.041.052.093t-.025.136q-.129.455-.16.651-.03.197-.03.467zM20.577 258.053q-.14.224-.393.758-.057.12-.115.233-.02.036-.073.16-.18.42-.315.42-.107 0-.157-.025-.048-.026-.093-.142-.044-.115-.132-.542-.102-.484-.138-.596-.117.263-.208.508-.138.36-.267.587-.13.226-.186.27-.057.047-.109.047-.053 0-.096-.041-.044-.041-.044-.081.01-.07.025-.088.15-.184.258-.393.108-.208.276-.625.168-.417.215-.684.022-.114.167-.114.084 0 .115.026t.06.105q.032.08.037.142.01.074.058.329.043.239.057.339.024.143.085.375.062.233.096.233.024 0 .069-.105l.145-.334q.04-.092.084-.18l.198-.404q.162-.334.248-.484.088-.152.117-.183.031-.03.07-.03.065 0 .146.035.08.035.084.078.004.043.016.36l.022.537q.01.257.031.438.02.179.072.29.081.175.081.271 0 .083-.069.114-.067.031-.125.031-.12 0-.186-.193-.064-.193-.093-1.106-.01-.274-.033-.336zM23.345 259.66q-.258 0-.398-.148-.138-.148-.138-.415 0-.45.357-.947.356-.5.663-.5.14 0 .24.152.101.15.101.319 0 .101-.045.175-.043.073-.088.073-.1 0-.14-.202-.047-.217-.135-.217-.18 0-.424.425-.244.426-.244.719t.332.293q.253 0 .596-.238.12-.085.177-.085.059 0 .059.068 0 .13-.308.33-.309.199-.605.199zM25.836 258.238q-.09 0-.197.117-.105.117-.322.525-.286.548-.37.624-.083.076-.138.076-.203 0-.203-.197 0-.082.028-.234.094-.52.094-1.097 0-.066.055-.145.057-.081.107-.081.09 0 .128.055.038.055.038.222 0 .174-.104.717-.034.179-.034.227 0 .028.014.028.025 0 .239-.412.215-.418.377-.589.162-.17.357-.17.155 0 .251.14.098.142.143.516.048.425.086.53.04.104.124.104.054 0 .135-.038.014-.007.02-.007.074 0 .074.086 0 .076-.101.162-.102.084-.245.084-.146 0-.227-.115-.08-.117-.126-.622-.048-.506-.203-.506zM27.505 259.648q-.236 0-.39-.179-.153-.179-.153-.442 0-.445.298-.875.3-.433.717-.433.276 0 .446.212.172.212.172.505 0 .448-.354.83-.354.382-.736.382zm-.24-.666q0 .174.073.284.074.11.195.11.256 0 .515-.28.258-.283.258-.627 0-.212-.1-.343-.098-.133-.265-.133-.278 0-.477.341-.198.34-.198.648zM29.33 259.363q-.085.31-.16.87l-.048.325q-.012.069-.063.136-.052.069-.095.069-.053 0-.122-.055-.067-.054-.067-.086 0-.095.043-.262.315-1.273.315-2.236l-.002-.145q-.003-.186.066-.27.068-.084.158-.084.041 0 .08.065.037.064.037.183 0 .167-.034.404-.045.3-.047.345.257-.448.545-.7.287-.25.534-.25.174 0 .292.13.12.13.12.322 0 .562-.43 1.02-.43.458-.839.458-.101 0-.161-.052-.06-.051-.123-.187zm1.069-1.387q-.243 0-.601.455-.359.454-.359.708 0 .062.071.12.07.059.18.059.245 0 .566-.364.32-.365.32-.716 0-.126-.051-.193-.05-.07-.126-.07zM32.578 258.2q-.16.003-.686.949-.177.319-.206.348-.03.027-.109.05-.077.022-.13.022-.115 0-.115-.45 0-.253.109-.916.045-.268.045-.384 0-.114.101-.114.192 0 .192.276 0 .13-.064.507-.074.43-.076.523.107-.103.314-.453.292-.479.43-.606.14-.13.288-.13.112 0 .177.15.068.15.081.715.004.142.026.21.023.07.033.07.08 0 .351-.552.145-.29.281-.443.138-.151.305-.151.14 0 .203.145.064.143.091.425.026.286.08.524.055.237.2.305.098.046.098.108 0 .06-.083.124t-.152.064q-.137 0-.246-.169-.108-.169-.163-.73-.025-.226-.047-.32-.022-.095-.07-.095-.073 0-.173.137-.098.138-.319.56-.172.33-.261.44-.088.108-.17.108-.075 0-.134-.059-.058-.06-.074-.143-.015-.084-.032-.411-.026-.545-.095-.634zM3.815 265.99q-.241.325-.477.487-.236.162-.433.162-.132 0-.229-.112-.096-.112-.096-.288 0-.453.405-.975.404-.524.804-.524.145 0 .215.166.023.055.07.055.139 0 .139.107 0 .053-.018.146-.093.508-.093.717 0 .416.159.5.076.04.076.1 0 .054-.074.108-.074.055-.143.055-.133 0-.22-.183-.085-.183-.085-.52zm-.105-.969q-.228 0-.53.427-.3.426-.3.707 0 .198.13.198.19 0 .526-.383.336-.382.336-.703 0-.246-.162-.246zM5.072 265.934q.017-.031.042-.086.117-.269.215-.42.098-.154.215-.293.12-.14.216-.212.098-.072.177-.1.08-.03.153-.03.15 0 .245.092.095.09.095.21 0 .054-.035.097-.033.043-.101.043-.073 0-.133-.064-.062-.064-.13-.064-.178 0-.495.434-.317.435-.386.956-.017.135-.066.178-.048.043-.136.043-.084 0-.122-.126-.038-.125-.038-.423 0-.081.009-.357.01-.326.041-.525.005-.033.017-.154.012-.132.03-.184.018-.052.074-.097.056-.044.122-.044.064 0 .095.041.032.04.032.086 0 .067-.034.19-.04.136-.047.187-.005.059-.019.123-.017.074-.034.389l-.002.064zM7.377 264.88q.177-.014.334-.033.155-.017.259-.017.13 0 .165.024.034.024.034.084 0 .14-.194.152-.25.016-.46.043-.21.028-.228.047-.015.017-.103.41-.088.39-.088.508 0 .19.05.253.05.062.15.062.148 0 .412-.222.101-.092.157-.092.074 0 .074.08 0 .124-.24.322-.238.196-.487.196-.417 0-.417-.49 0-.178.086-.55.084-.37.084-.445 0-.025-.041-.025l-.18.015q-.22 0-.22-.176 0-.1.102-.1h.355q.036 0 .064-.032.027-.033.08-.22.054-.187.095-.37.042-.18.162-.18.074 0 .116.051.04.052.04.097 0 .024-.061.246zM11.215 266.034q0 .176-.312.424-.31.248-.64.248-.278 0-.43-.164-.15-.164-.15-.456 0-.493.333-.937.332-.445.727-.445.13 0 .21.085.083.084.083.203 0 .265-.26.508t-.696.477q-.09.047-.09.12 0 .144.083.23.082.086.244.086.37 0 .757-.41.056-.057.086-.057.055 0 .055.088zm-1.197-.269q.73-.434.73-.697 0-.104-.093-.104-.158 0-.358.233-.198.232-.28.568zM12.81 265.905q-.23.37-.49.572-.258.2-.475.2-.167 0-.265-.128-.096-.13-.096-.343 0-.436.353-.894.355-.458.765-.458.179 0 .332.153l.241-1.126q.026-.116.095-.155.07-.04.11-.04.12 0 .12.214 0 .038-.079.282-.125.38-.239.932-.112.551-.112.886 0 .344.15.344.096 0 .2-.064.043-.03.08-.03.056 0 .056.072 0 .088-.155.203-.154.115-.315.115-.285 0-.285-.547 0-.093.009-.188zm-.226-.806q-.279 0-.553.379-.274.377-.274.697 0 .216.143.216.135 0 .326-.142.193-.141.396-.45.203-.31.203-.464 0-.076-.07-.155-.07-.081-.17-.081zM15.123 265.869q-.22.37-.451.573-.23.203-.429.203-.114 0-.232-.132-.118-.133-.118-.408 0-.226.109-.665.091-.367.091-.515.05-.104.157-.104.072 0 .115.052.043.05.043.105 0 .12-.084.343-.16.432-.16.742 0 .283.13.283.168 0 .426-.284.259-.285.443-.793.072-.203.117-.263.047-.062.124-.062.117 0 .117.155 0 .019-.033.125-.103.378-.103.714 0 .403.133.521.069.064.069.104 0 .048-.07.088-.07.04-.127.04-.12 0-.194-.18-.074-.179-.074-.529v-.056l.001-.057zM16.529 266.716q-.258 0-.398-.148-.138-.148-.138-.415 0-.45.357-.948.356-.5.663-.5.14 0 .24.152.101.15.101.32 0 .1-.045.175-.043.072-.088.072-.1 0-.14-.201-.047-.217-.135-.217-.18 0-.424.425-.245.425-.245.718t.333.293q.253 0 .596-.238.12-.084.177-.084.059 0 .059.067 0 .131-.308.331-.309.198-.605.198zM19.008 265.99q-.241.325-.477.487-.236.162-.433.162-.132 0-.229-.112-.096-.112-.096-.288 0-.453.404-.975.405-.524.805-.524.145 0 .215.166.023.055.07.055.139 0 .139.107 0 .053-.018.146-.093.508-.093.717 0 .416.159.5.076.04.076.1 0 .054-.074.108-.075.055-.143.055-.133 0-.22-.183-.085-.183-.085-.52zm-.105-.969q-.228 0-.53.427-.3.426-.3.707 0 .198.13.198.19 0 .526-.383.336-.382.336-.703 0-.246-.162-.246zM20.618 264.88q.178-.014.334-.033.155-.017.259-.017.13 0 .165.024t.035.084q0 .14-.195.152-.25.016-.46.043-.21.028-.227.047-.016.017-.104.41-.088.39-.088.508 0 .19.05.253.05.062.15.062.148 0 .412-.222.102-.092.157-.092.074 0 .074.08 0 .124-.24.322-.237.196-.487.196-.417 0-.417-.49 0-.178.086-.55.085-.37.085-.445 0-.025-.042-.025l-.179.015q-.22 0-.22-.176 0-.1.101-.1h.355q.036 0 .064-.032.027-.033.08-.22.054-.187.095-.37.042-.18.162-.18.074 0 .116.051.041.052.041.097 0 .024-.062.246zM22.125 264.311q-.036 0-.055-.077-.007-.024-.019-.053-.046-.112-.046-.195 0-.069.08-.14.084-.072.183-.072.05 0 .112.04.062.037.062.074 0 .056-.043.193-.041.136-.134.184-.091.046-.14.046zm-.225 1.925q0 .13.036.294.007.031.007.052 0 .03-.057.079-.057.05-.12.05-.168 0-.168-.307 0-.317.131-1.002.045-.24.045-.295 0-.108.04-.184.04-.078.112-.078.088 0 .137.043.052.042.052.093 0 .052-.024.137-.13.454-.16.65-.031.197-.031.467zM23.094 266.704q-.236 0-.39-.18-.153-.178-.153-.442 0-.444.298-.875.3-.432.717-.432.275 0 .446.212.172.212.172.504 0 .448-.355.83-.353.383-.735.383zm-.24-.667q0 .174.072.285.075.11.195.11.257 0 .515-.28.259-.283.259-.628 0-.212-.1-.343-.099-.132-.266-.132-.277 0-.477.34-.198.34-.198.648zM25.758 265.293q-.09 0-.196.117-.105.118-.322.526-.286.548-.37.623-.083.076-.138.076-.204 0-.204-.196 0-.083.028-.235.095-.52.095-1.097 0-.065.055-.144.057-.081.107-.081.09 0 .127.055.038.055.038.222 0 .174-.103.716-.035.18-.035.228 0 .027.014.027.026 0 .24-.411.215-.419.377-.59.162-.17.356-.17.155 0 .252.141.098.142.143.515.048.426.086.53.04.104.124.104.053 0 .134-.038.014-.007.02-.007.075 0 .075.086 0 .076-.102.162-.101.085-.244.085-.147 0-.228-.116-.079-.117-.125-.621-.049-.507-.204-.507zM29.202 266.223q0-.112-.276-.255-.35-.179-.474-.285-.122-.109-.122-.242 0-.342.343-.568.344-.226.561-.226.14 0 .202.049.064.048.064.167 0 .053-.047.09-.045.039-.07.039-.02 0-.075-.026-.055-.024-.072-.024-.086 0-.35.126-.263.125-.263.284 0 .096.093.176.093.077.334.19.195.094.31.2.117.106.117.249 0 .263-.363.413-.364.148-.694.148-.28 0-.28-.19 0-.065.063-.096.063-.03.127-.03.026 0 .098.016.07.018.093.018.191 0 .41-.064.219-.064.27-.159zM30.165 266.418q-.085.31-.159.87l-.048.326q-.012.068-.064.136-.052.069-.095.069-.053 0-.122-.056-.067-.053-.067-.086 0-.094.043-.262.315-1.272.315-2.235l-.001-.145q-.004-.186.065-.27.069-.085.158-.085.042 0 .08.066.038.063.038.182 0 .167-.035.405-.045.3-.046.344.256-.447.544-.699.288-.251.534-.251.174 0 .293.13.12.13.12.323 0 .561-.43 1.02-.43.458-.84.458-.1 0-.161-.052-.059-.052-.122-.188zm1.07-1.387q-.244 0-.602.455t-.358.708q0 .062.07.12.071.06.18.06.246 0 .566-.364.32-.365.32-.717 0-.125-.051-.193-.05-.069-.126-.069zM32.616 266.704q-.236 0-.39-.18-.153-.178-.153-.442 0-.444.298-.875.3-.432.717-.432.275 0 .446.212.172.212.172.504 0 .448-.355.83-.353.383-.735.383zm-.24-.667q0 .174.073.285.074.11.194.11.257 0 .515-.28.259-.283.259-.628 0-.212-.1-.343-.098-.132-.265-.132-.278 0-.478.34-.198.34-.198.648zM34.455 265.934q.018-.031.042-.086.117-.269.215-.42.098-.154.215-.293.12-.14.216-.212.098-.072.177-.1.08-.03.153-.03.15 0 .245.092.095.09.095.21 0 .054-.035.097-.032.043-.101.043-.073 0-.133-.064-.062-.064-.13-.064-.178 0-.495.434-.317.435-.386.956-.017.135-.065.178-.049.043-.137.043-.084 0-.122-.126-.038-.125-.038-.423 0-.081.009-.357.01-.326.041-.525.005-.033.017-.154.012-.132.03-.184.019-.052.074-.097.057-.044.122-.044.064 0 .095.041.033.04.033.086 0 .067-.035.19-.04.136-.046.187-.006.059-.02.123-.017.074-.034.389l-.002.064zM36.76 264.88q.178-.014.334-.033.155-.017.259-.017.13 0 .165.024t.035.084q0 .14-.195.152-.25.016-.46.043-.21.028-.227.047-.016.017-.104.41-.088.39-.088.508 0 .19.05.253.05.062.15.062.148 0 .412-.222.102-.092.157-.092.074 0 .074.08 0 .124-.24.322-.237.196-.487.196-.417 0-.417-.49 0-.178.086-.55.085-.37.085-.445 0-.025-.042-.025l-.179.015q-.22 0-.22-.176 0-.1.101-.1h.355q.036 0 .064-.032.027-.033.08-.22.054-.187.095-.37.042-.18.162-.18.074 0 .116.051.041.052.041.097 0 .024-.062.246zM38.58 266.223q0-.112-.276-.255-.35-.179-.474-.285-.122-.109-.122-.242 0-.342.342-.568.345-.226.562-.226.14 0 .202.049.063.048.063.167 0 .053-.046.09-.045.039-.07.039-.02 0-.075-.026-.055-.024-.072-.024-.086 0-.35.126-.264.125-.264.284 0 .096.093.176.094.077.335.19.194.094.31.2.117.106.117.249 0 .263-.364.413-.363.148-.694.148-.279 0-.279-.19 0-.065.062-.096.064-.03.128-.03.025 0 .098.016.07.018.093.018.191 0 .41-.064.219-.064.27-.159zM4.809 270.926l.303.083-.276.358h.73v.262h-1.24v.29h1.13v.261h-1.13v.29h1.337v.247H2.714v-.248h1.323v-.289h-1.13v-.262h1.13v-.29H2.783v-.261h.758l-.234-.303.234-.152.344.455h.634zm-2.191 2.108h1.391l.07-.261.275.04-.055.221h1.46v.248H4.52q.345.386 1.24.538l-.137.275q-1.02-.234-1.42-.813-.303.607-1.474.786l-.124-.262q.964-.138 1.268-.524H2.618zM6.71 270.926l.235.124q-.248.551-.648.896l-.165-.22q.385-.359.578-.8zm.07.772l.234.124-.276.55v1.723h-.262v-1.35l-.22.248-.166-.234q.469-.496.69-1.061zm1.625-.58h.841v.263h-.84zm-.082.897h.992v.261H9.08v1.447q0 .22-.083.276-.083.069-.51.069l-.041-.262.262.014q.11 0 .11-.138v-1.406h-.496zm-1.268-.359h.468v-.716h.248v.716h.441v.248h-.44v.18l.564.757-.192.276-.373-.703v1.681h-.248v-1.598q-.206.675-.468 1.006l-.207-.193q.386-.496.565-1.406h-.358zm.992-.675l.18.414-.221.096-.166-.413zM10.059 272.276h.193l.303-.303h-.882v-.234h.62v-.303h-.482v-.234h.482v-.29h.262v.29h.414v.234h-.414v.303h.207l.455-.606.234.124-.358.482h.234v.234H10.9l-.262.303h.482v.249l-.427.413v.165l.606-.138.042.249-.648.151v.427q0 .276-.386.276l-.276-.041-.04-.262q.11.041.26.041.153 0 .153-.055v-.33l-.676.123-.055-.275.73-.11v-.359l.373-.303h-.386l-.62.496-.152-.22.441-.331zm1.778-.771h.923v.262h-.152q-.082.964-.385 1.46.248.331.633.607l-.206.261q-.317-.261-.593-.62-.275.372-.675.634l-.193-.248q.413-.248.689-.647l-.358-.745-.11.235-.221-.166q.345-.73.496-1.612l.276.083zm.496.262h-.565l-.097.317q.166.496.372.854.18-.386.262-.937v-.014zM15.902 272.332v1.447q0 .316-.414.316l-.427-.04-.069-.249.483.041q.179 0 .179-.124v-.193H13.89v.565h-.276v-1.763zm-2.012.496h1.764v-.248H13.89zm0 .468h1.764v-.234H13.89zm.965-2.398l.151.304h1.24v.261H14.51q-.234.317-.482.483l1.46-.152-.151-.124.234-.165.593.551-.22.18-.221-.235q-1.02.138-2.164.193l-.069-.22q.4-.18.703-.51h-.91v-.262h1.406l-.124-.22zM19.774 273.806l-.275.22q-.607-.73-1.048-1.102-.51.62-1.405 1.075l-.22-.276q1.501-.716 1.984-2.094l-.028-.014-1.034.028h-.537v-.331h1.709l.069-.055q.275.193.275.234 0 .041-.055.097-.041.04-.055.096l-.29.634-.22.358q.565.455 1.13 1.13zM22.654 271.202q0-.152.11-.262.11-.11.262-.11.152 0 .248.11.11.11.11.262 0 .151-.11.261-.096.097-.248.097-.151 0-.261-.097-.11-.11-.11-.261zm.207 0q0 .165.165.165.166 0 .166-.165 0-.166-.166-.166-.165 0-.165.166zm.4.716h-1.282v1.695q-.014.372-.427.372l-.33-.041-.042-.345.372.055q.11 0 .11-.137v-1.599h-1.268v-.33l1.254.013v-.551h.331v.551h1.282zm.096 1.612l-.276.193q-.496-.757-.757-1.543l.303-.11q.248.73.73 1.46zm-2.108-1.322q-.207.895-.662 1.53l-.29-.18q.414-.565.649-1.447zM26.623 272.704h-2.55v-.4h2.55zM29.131 272.194l-.29.165-.523-.978.276-.166zm1.171-.744q-.165 1.226-.578 1.75-.414.51-1.475.827l-.165-.317q.923-.235 1.309-.676.4-.44.579-1.64zm-2.025 1.033l-.29.18-.537-.98.275-.164zM31.829 278.249h.317v2.68h-.317zM31.164 280.29q0 .307-.15.48-.138.159-.403.159h-.224v-.317h.129q.17 0 .246-.076.085-.084.085-.267v-2.02h.317z"/><path d="M29.563 279.982h.317q.052.193.057.244.017.178.143.31.073.076.247.076h.129v.317h-.224q-.224 0-.31-.107-.117.48-.55.708-.489.26-1.044.26v-.317q.524 0 .874-.22.375-.238.436-.596.017-.1.017-.224 0-.217-.092-.451z"/><path d="M28.008 280.78q-.124.149-.394.149h-.156v-.317h.06q.171 0 .247-.076.084-.084.084-.267v-.374h.317v.374q0 .322-.158.512zm.086.407h.258v.259h-.258zm-.43 0h.258v.259h-.259z"/><path d="M26.75 280.29v-2.041h.317v2.02q0 .183.085.267.076.076.246.076h.13v.317h-.225q-.265 0-.403-.158-.15-.174-.15-.481zM25.104 280.092q-.29.186-.54.52h.323q.408 0 .63-.108.32-.157.32-.278 0-.232-.239-.265-.064-.01-.146-.01-.131 0-.348.14zm-.104.837h-.475q-.127 0-.262-.072-.112-.06-.179-.166-.176.238-.472.238h-.224v-.317h.13q.17 0 .246-.076.137-.137.137-.31v-.196h.317v.134q0 .042.016.11.015.07.093.156.174-.231.338-.376.263-.236.511-.345.13-.056.276-.056.198 0 .382.067.32.117.32.524 0 .29-.316.478-.348.207-.838.207zm-.76-1.636h.26v.258h-.26z"/><path d="M22.696 280.443q-.026-.072-.049-.156-.022-.087-.043-.26-.206.02-.348.135-.19.154-.187.26.001.071.156.114.155.043.47-.093zm-.116-.665q-.007-.067-.012-.14h.317q.002.288.064.588.036.174.132.31.054.076.247.076h.129v.317h-.224q-.155 0-.28-.088-.078-.053-.144-.155-.237.126-.506.126-.097 0-.196-.026-.326-.083-.326-.348 0-.298.351-.517.188-.117.448-.143zm-.015-.658h.258v.259h-.258zm-.43 0h.257v.259h-.258zM19.762 278.249h.317v2.68h-.317zM19.097 280.29q0 .307-.15.48-.137.159-.403.159h-.224v-.317h.13q.17 0 .246-.076.084-.084.084-.267v-2.02h.317z"/><path d="M17.805 280.78q-.132.149-.394.149h-.155v-.317h.06q.17 0 .246-.076.085-.084.085-.267v-.374h.317v.374q0 .183.084.267.076.076.247.076h.094v.317h-.19q-.258 0-.394-.148zm.086-1.574h.259v.259h-.259zm-.43 0h.258v.259h-.258z"/><path d="M16.432 279.982h.317q.052.193.057.244.017.178.143.31.073.076.247.076h.129v.317H17.1q-.224 0-.31-.107-.117.48-.55.708-.489.26-1.044.26v-.317q.524 0 .874-.22.375-.238.436-.596.017-.1.017-.224 0-.217-.092-.451zM14.877 280.78q-.124.149-.394.149h-.156v-.317h.06q.171 0 .247-.076.085-.084.085-.267v-.374h.316v.374q0 .322-.158.512zm-.13.407h.26v.259h-.26z"/><path d="M13.812 280.78q-.132.149-.394.149h-.155v-.317h.06q.17 0 .247-.076.084-.084.084-.267v-.374h.317v.374q0 .183.084.267.076.076.247.076h.094v.317h-.19q-.257 0-.394-.148zm.087.407h.258v.259h-.258zm-.431 0h.258v.259h-.258z"/><path d="M12.57 280.443q-.025-.072-.048-.156-.022-.087-.043-.26-.206.02-.348.135-.19.154-.188.26.002.071.157.114.155.043.47-.093zm-.115-.665q-.007-.067-.012-.14h.317q.002.288.064.588.036.174.132.31.054.076.247.076h.129v.317h-.224q-.155 0-.28-.088-.078-.053-.144-.155-.238.126-.506.126-.097 0-.197-.026-.325-.083-.325-.348 0-.298.351-.517.188-.117.448-.143zm-.015-.658h.258v.259h-.258zm-.431 0h.258v.259h-.258zM9.637 278.249h.317v2.68h-.317zM8.972 280.29q0 .307-.15.48-.138.159-.403.159h-.224v-.317h.13q.17 0 .246-.076.084-.084.084-.267v-2.02h.317z"/><path d="M7.503 279.616q.315.138.356.397.014.086.014.158 0 .126-.036.21-.05.116-.112.202.067.03.32.03h.22v.316H7.89q-.234 0-.553-.098-.318.098-.553.098h-.373v-.317h.218q.254 0 .32-.03-.05-.068-.111-.2-.036-.08-.036-.21 0-.077.013-.16.04-.246.359-.396.051-.024.163-.024.109 0 .166.024zm-.166.293q-.025 0-.056.017-.097.056-.138.147-.017.036-.017.086 0 .074.04.165.054.117.171.155.109-.036.17-.155.044-.086.044-.165 0-.041-.019-.086-.04-.09-.138-.147-.032-.017-.057-.017zm-.129-.96h.259v.257h-.259z"/><path d="M5.766 279.206h.259v.259h-.259zm.13 1.575q-.133.148-.395.148h-.155v-.317h.06q.171 0 .247-.076.084-.084.084-.267v-.374h.317v.374q0 .183.085.267.075.076.246.076h.095v.317h-.19q-.258 0-.394-.148z"/><path d="M4.831 280.78q-.133.149-.394.149h-.155v-.317h.06q.17 0 .246-.076.085-.084.085-.267v-.374h.317v.374q0 .183.084.267.076.076.246.076h.095v.317h-.19q-.258 0-.394-.148zm.086.407h.259v.259h-.259zm-.43 0h.258v.259h-.258z"/><path d="M3.59 280.443q-.027-.072-.05-.156-.021-.087-.042-.26-.207.02-.348.135-.191.154-.188.26.002.071.157.114.155.043.47-.093zm-.116-.665q-.007-.067-.012-.14h.317q.001.288.063.588.037.174.133.31.053.076.246.076h.13v.317h-.224q-.155 0-.281-.088-.078-.053-.143-.155-.238.126-.507.126-.096 0-.196-.026-.326-.083-.326-.348 0-.298.352-.517.188-.117.448-.143zm-.016-.658h.259v.259h-.259zm-.43 0h.258v.259h-.258zM3.124 288.178q-.258 0-.398-.148-.138-.149-.138-.416 0-.45.357-.947.356-.5.663-.5.14 0 .24.152.101.15.101.319 0 .101-.045.175-.043.073-.087.073-.1 0-.142-.202-.046-.217-.134-.217-.18 0-.424.426-.244.425-.244.718t.332.293q.253 0 .596-.238.12-.084.177-.084.059 0 .059.067 0 .13-.308.33-.309.199-.605.199zM4.407 287.198v-.155h1.458q-.021-.328-.198-.498-.176-.173-.491-.173-.183 0-.355.045-.17.045-.34.135v-.3q.17-.072.35-.11.18-.038.364-.038.461 0 .73.268.27.27.27.727 0 .474-.256.753-.255.277-.69.277-.389 0-.616-.25-.226-.25-.226-.681zm.317.093q.004.26.145.415.143.155.377.155.266 0 .424-.15.16-.15.184-.422zM7.88 286.955q.019-.037.06-.433.031-.317.202-.317.14 0 .14.14 0 .033-.025.133-.132.549-.132.921 0 .403.132.522.07.064.07.103 0 .049-.071.088-.07.04-.126.04-.269 0-.269-.83 0-.056-.041-.056-.162 0-.396.02-.235.018-.336.048-.1.029-.124.055-.023.024-.042.132-.017.107-.017.223v.211q0 .185-.169.185-.141 0-.141-.185 0-.12.031-.306.057-.341.114-1.175.007-.108.019-.138.012-.03.062-.063.051-.037.112-.037.124 0 .124.102 0 .015-.04.258-.041.243-.041.378 0 .094.065.094.131 0 .479-.043.348-.045.36-.07zM11.09 288.048v.765h-.335v-.765l-.78-1.898h.336l.602 1.51.603-1.51h.336zM13.153 286.676q-.042-.002-.081.079-.357.713-.54.968-.015.022-.039.065-.215.385-.315.385-.135 0-.135-.13 0-.117.167-.318.162-.192.426-.648.264-.458.427-.822.031-.065.093-.065.026 0 .091.024.068.022.087.05.019.027.084.32.212 1.056.446 1.252.055.049.066.066.01.015.01.045 0 .053-.035.098-.034.043-.067.055-.032.012-.134.012-.036 0-.169-.177-.132-.18-.31-.973-.043-.214-.072-.286zM14.253 287.781l-.003-.036q-.017-.174.107-.365.126-.191.629-.444.32-.162.32-.295 0-.07-.059-.108-.058-.038-.101-.038-.13 0-.496.182-.03.016-.035.016-.141 0-.141-.1 0-.162.279-.269.28-.108.486-.108.129 0 .27.103.141.102.141.274 0 .141-.09.272-.092.131-.457.333-.3.165-.407.272-.105.106-.105.24 0 .099.091.13.092.031.138.031.324 0 .579-.134.088-.045.13-.045.09 0 .09.1 0 .151-.244.253-.245.102-.62.102-.18 0-.333-.102-.153-.103-.169-.264zM16.56 285.773q-.036 0-.055-.077-.007-.025-.02-.054-.046-.112-.046-.195 0-.068.081-.14.083-.071.183-.071.05 0 .112.04.062.037.062.073 0 .057-.043.193-.042.136-.135.185-.09.046-.14.046zm-.226 1.924q0 .131.036.295.007.03.007.051 0 .031-.057.08-.056.05-.12.05-.167 0-.167-.307 0-.317.13-1.003.046-.239.046-.294 0-.109.04-.184.039-.078.111-.078.088 0 .138.043.052.041.052.093t-.025.136q-.129.455-.16.651-.03.197-.03.467zM17.991 286.676q-.041-.002-.08.079-.357.713-.54.968-.015.022-.04.065-.215.385-.315.385-.134 0-.134-.13 0-.117.167-.318.162-.192.426-.648.263-.458.427-.822.03-.065.093-.065.026 0 .091.024.067.022.086.05.02.027.085.32.212 1.056.446 1.252.055.049.065.066.01.015.01.045 0 .053-.034.098-.034.043-.067.055-.033.012-.134.012-.037 0-.17-.177-.132-.18-.31-.973-.042-.214-.072-.286zM20.606 287.496q0 .175-.312.423-.31.248-.64.248-.278 0-.43-.163-.15-.164-.15-.457 0-.492.333-.937.333-.444.727-.444.13 0 .21.084.083.085.083.203 0 .266-.26.509-.26.242-.696.477-.09.046-.09.12 0 .143.083.23.083.085.245.085.37 0 .756-.41.057-.056.086-.056.055 0 .055.088zm-1.197-.27q.73-.433.73-.697 0-.103-.093-.103-.158 0-.358.232-.198.233-.279.569zM21.299 287.88q-.085.31-.159.87l-.048.325q-.012.069-.064.136-.051.07-.095.07-.053 0-.122-.056-.067-.053-.067-.086 0-.095.043-.262.315-1.273.315-2.236l-.001-.144q-.004-.187.065-.27.069-.085.159-.085.04 0 .079.065.038.064.038.183 0 .167-.035.405-.045.3-.046.344.256-.448.544-.7.288-.25.534-.25.174 0 .293.13.12.13.12.322 0 .562-.43 1.02-.43.458-.84.458-.1 0-.161-.052-.059-.051-.122-.187zm1.07-1.387q-.244 0-.602.455t-.358.708q0 .062.07.12.071.059.18.059.246 0 .566-.364.32-.365.32-.716 0-.126-.05-.193-.05-.069-.127-.069zM23.802 285.773q-.037 0-.056-.077-.007-.025-.019-.054-.046-.112-.046-.195 0-.068.08-.14.084-.071.183-.071.05 0 .112.04.062.037.062.073 0 .057-.043.193-.04.136-.134.185-.091.046-.14.046zm-.226 1.924q0 .131.036.295.007.03.007.051 0 .031-.057.08-.057.05-.12.05-.168 0-.168-.307 0-.317.131-1.003.045-.239.045-.294 0-.109.04-.184.04-.078.112-.078.088 0 .138.043.051.041.051.093t-.024.136q-.13.455-.16.651-.031.197-.031.467zM3.954 293.867q-.16.003-.685.95-.178.318-.207.348-.03.027-.108.05-.078.022-.13.022-.115 0-.115-.45 0-.253.108-.916.045-.269.045-.384 0-.114.102-.114.191 0 .191.276 0 .129-.064.506-.074.43-.075.524.106-.104.313-.453.293-.48.43-.607.14-.129.288-.129.112 0 .178.15.067.15.08.715.004.141.027.21.022.069.032.069.081 0 .352-.551.144-.291.28-.443.138-.152.305-.152.14 0 .204.145.063.143.09.426.027.286.08.523.055.238.2.305.098.047.098.109 0 .06-.083.124-.082.063-.151.063-.138 0-.246-.168-.109-.17-.164-.73-.024-.226-.047-.321-.022-.095-.07-.095-.073 0-.172.138-.099.138-.32.56-.171.329-.261.439-.088.109-.17.109-.075 0-.133-.06-.059-.06-.074-.142-.016-.084-.033-.412-.026-.544-.095-.634zM6.245 294.348v-.155h1.458q-.021-.327-.199-.498-.175-.172-.49-.172-.183 0-.355.045-.17.045-.34.134v-.3q.17-.072.35-.11.18-.038.364-.038.461 0 .73.269.27.269.27.727 0 .474-.256.753-.255.277-.69.277-.389 0-.616-.25-.226-.251-.226-.682zm.317.093q.004.26.145.415.143.155.377.155.265 0 .424-.15.16-.15.184-.422zM9.463 293.44q-.065-.177-.303-.384-.224-.193-.224-.33 0-.11.072-.178.073-.069.269-.124.245-.067.498-.152.253-.086.305-.11.032-.015.067-.015.057 0 .057.101 0 .057-.138.155t-.488.183q-.22.055-.27.083-.048.025-.048.053 0 .062.134.18.507.442.507 1.11 0 .288-.152.617-.152.327-.405.487-.251.16-.492.16-.218 0-.33-.211-.111-.212-.111-.467 0-.452.277-.851.279-.4.589-.4.041 0 .103.054.057.051.083.04zm-.751 1.165q0 .19.05.3.052.108.134.108.11 0 .298-.136t.302-.403q.115-.267.115-.5 0-.193-.055-.312-.053-.12-.1-.12-.306 0-.525.374-.219.373-.219.689zM10.824 292.923q-.036 0-.055-.077-.007-.024-.02-.053-.046-.112-.046-.195 0-.069.081-.14.083-.072.183-.072.05 0 .112.04.062.038.062.074 0 .057-.043.193-.042.136-.135.184-.09.047-.14.047zm-.226 1.925q0 .13.036.294.007.031.007.052 0 .03-.057.079-.056.05-.12.05-.167 0-.167-.307 0-.317.13-1.002.045-.24.045-.295 0-.108.04-.184.04-.078.112-.078.088 0 .138.044.052.04.052.093 0 .051-.025.136-.129.454-.16.65-.03.197-.03.468zM12.505 294.48q-.22.371-.451.574-.231.204-.43.204-.113 0-.232-.133-.117-.133-.117-.408 0-.226.109-.665.091-.367.091-.515.05-.104.157-.104.072 0 .115.052.043.05.043.105 0 .12-.084.343-.16.432-.16.742 0 .283.13.283.168 0 .426-.284.258-.285.443-.793.072-.203.117-.263.046-.062.124-.062.117 0 .117.155 0 .019-.033.125-.103.378-.103.714 0 .403.133.522.068.063.068.103 0 .048-.07.088-.07.04-.126.04-.12 0-.195-.18-.074-.179-.074-.529v-.056l.002-.057zM13.76 295.23v-.861h-.452v-.293h.453v-.775h1.36v.27h-1.043v.505h.716v.293h-.716v.861zM16.684 294.603q-.241.324-.477.486-.236.162-.433.162-.132 0-.229-.112-.096-.112-.096-.288 0-.453.405-.975.404-.524.804-.524.145 0 .215.166.023.055.071.055.138 0 .138.107 0 .053-.017.146-.093.508-.093.717 0 .417.158.5.076.04.076.1 0 .054-.074.108-.074.055-.143.055-.133 0-.219-.183-.086-.182-.086-.52zm-.105-.97q-.228 0-.529.427-.301.426-.301.707 0 .198.13.198.19 0 .526-.383.336-.382.336-.703 0-.246-.162-.246zM18.894 293.867q-.16.003-.686.95-.177.318-.206.348-.03.027-.109.05-.077.022-.129.022-.115 0-.115-.45 0-.253.108-.916.045-.269.045-.384 0-.114.102-.114.19 0 .19.276 0 .129-.063.506-.074.43-.076.524.107-.104.314-.453.293-.48.43-.607.14-.129.288-.129.112 0 .177.15.068.15.081.715.004.141.026.21.023.069.033.069.08 0 .351-.551.145-.291.281-.443.138-.152.305-.152.14 0 .203.145.064.143.092.426.025.286.079.523.055.238.2.305.098.047.098.109 0 .06-.083.124-.083.063-.151.063-.138 0-.247-.168-.108-.17-.163-.73-.025-.226-.047-.321t-.07-.095q-.073 0-.173.138-.098.138-.318.56-.173.329-.262.439-.088.109-.17.109-.075 0-.133-.06-.059-.06-.075-.142-.015-.084-.032-.412-.026-.544-.095-.634zM4.128 301.702q0 .175-.311.423-.31.248-.641.248-.278 0-.43-.163-.15-.164-.15-.457 0-.492.333-.937.333-.444.727-.444.13 0 .21.084.083.085.083.203 0 .266-.26.509-.26.242-.696.477-.09.046-.09.12 0 .143.083.23.083.086.245.086.37 0 .756-.41.057-.057.086-.057.055 0 .055.088zm-1.197-.27q.73-.433.73-.697 0-.103-.093-.103-.158 0-.358.232-.198.233-.279.569zM5.455 300.882q-.042-.002-.081.079-.357.713-.54.968-.015.022-.04.065-.214.385-.314.385-.135 0-.135-.13 0-.117.167-.318.162-.192.426-.648.263-.458.427-.822.031-.065.093-.065.026 0 .091.024.068.022.087.05.018.027.084.32.212 1.056.446 1.253.055.048.066.065.01.016.01.045 0 .053-.035.098-.034.043-.067.055-.032.012-.134.012-.036 0-.169-.177-.133-.18-.31-.973-.043-.214-.072-.286zM8.793 300.777q-.14.224-.393.757-.057.121-.115.233-.02.036-.073.16-.18.42-.315.42-.107 0-.157-.025-.048-.026-.093-.142-.044-.115-.132-.542-.102-.484-.138-.596-.117.263-.208.508-.138.36-.267.587-.13.226-.186.27-.057.047-.109.047-.053 0-.096-.04-.043-.042-.043-.082.01-.07.024-.088.15-.184.258-.393.109-.208.276-.625.168-.417.215-.684.022-.113.167-.113.084 0 .115.025.031.026.06.105.032.08.037.142.01.074.058.329.044.24.057.34.024.142.085.375.062.232.096.232.024 0 .07-.105l.144-.334q.04-.091.084-.18l.198-.404q.162-.334.248-.484.088-.152.117-.183.031-.03.07-.03.065 0 .146.035.08.035.084.078.004.043.016.36l.022.537q.01.257.031.438.02.18.072.29.081.175.081.272 0 .082-.069.113-.067.031-.125.031-.12 0-.186-.193-.064-.193-.093-1.106-.01-.273-.033-.335zM11.155 301.702q0 .175-.312.423-.31.248-.641.248-.277 0-.429-.163-.15-.164-.15-.457 0-.492.333-.937.332-.444.727-.444.129 0 .21.084.082.085.082.203 0 .266-.26.509-.26.242-.696.477-.09.046-.09.12 0 .143.084.23.082.086.244.086.37 0 .756-.41.057-.057.086-.057.056 0 .056.088zm-1.198-.27q.73-.433.73-.697 0-.103-.092-.103-.159 0-.359.232-.198.233-.279.569zM11.864 301.38q.408-.071.732-.528.152-.212.266-.3.115-.089.244-.089.052 0 .104.047.051.046.051.11 0 .084-.16.132-.084.026-.158.088t-.281.297q-.162.182-.291.256-.012.007-.012.012 0 .007.015.014.126.067.265.26.204.281.305.355.102.072.233.072l.057-.002q.06-.003.06.054 0 .065-.074.136-.074.07-.245.07-.13 0-.255-.111-.122-.114-.28-.367-.092-.15-.17-.228-.08-.077-.177-.077-.02 0-.127.034-.107.035-.12.067-.013.031-.02.23-.005.196-.005.316 0 .064-.06.114t-.131.05q-.072 0-.114-.043-.041-.041-.041-.086 0-.062.046-.293.083-.42.166-1.387.007-.093.07-.167.064-.075.145-.075.045 0 .074.048.031.048.031.124 0 .06-.02.138-.099.356-.123.728zM15.013 301.702q0 .175-.312.423-.31.248-.64.248-.278 0-.43-.163-.15-.164-.15-.457 0-.492.333-.937.333-.444.727-.444.13 0 .21.084.083.085.083.203 0 .266-.26.509-.26.242-.696.477-.09.046-.09.12 0 .143.083.23.083.086.245.086.37 0 .756-.41.057-.057.086-.057.055 0 .055.088zm-1.197-.27q.73-.433.73-.697 0-.103-.093-.103-.158 0-.358.232-.198.233-.28.569zM16.64 301.16q.02-.036.061-.432.031-.317.202-.317.14 0 .14.14 0 .033-.025.133-.133.549-.133.921 0 .403.133.522.069.064.069.103 0 .049-.07.088-.07.04-.126.04-.27 0-.27-.83 0-.055-.04-.055-.162 0-.397.018-.234.02-.335.049-.1.029-.125.055-.022.024-.04.132-.018.107-.018.223v.211q0 .185-.169.185-.141 0-.141-.185 0-.12.03-.306.058-.341.115-1.175.006-.108.019-.138.012-.029.062-.063.051-.037.111-.037.125 0 .125.102 0 .015-.04.258-.041.243-.041.378 0 .094.065.094.13 0 .479-.043.348-.045.36-.07z"/></g></g></svg>