<svg xmlns="http://www.w3.org/2000/svg" viewBox="0 0 50.9 5.4" height="20.409" width="192.378"><g transform="translate(0 -291.6)" font-weight="400" font-family="Segoe Print" letter-spacing="0" word-spacing="0"><g style="line-height:2;-inkscape-font-specification:'Segoe Print';font-variant-ligatures:normal;font-variant-caps:normal;font-variant-numeric:normal;font-feature-settings:normal;text-align:start" aria-label="адамдар бөлме ғимарат жобалар ғарыш тылсым әлем гүлдер өсімдіктер қалыпталған кескіндер қолданыс заттары жаныуарлар өнер білім спорт art education sports 美術教育スポーツ الرياضة التربية الفنية сән үлгілері табиғат елмекен" font-size="3.528" fill="#917c6f" stroke-width=".265"><path d="M3.432 251.766q-.241.324-.477.485-.236.162-.432.162-.133 0-.23-.112-.096-.112-.096-.287 0-.453.405-.975.405-.524.804-.524.145 0 .216.166.022.055.07.055.138 0 .138.106 0 .054-.017.147-.093.508-.093.716 0 .417.158.5.076.041.076.102 0 .053-.074.106-.074.055-.143.055-.133 0-.219-.182-.086-.183-.086-.52zm-.105-.97q-.227 0-.529.427-.301.426-.301.706 0 .198.13.198.19 0 .526-.382t.336-.703q0-.246-.162-.246zM5.653 250.388q-.063-.269-.154-.376-.091-.107-.241-.165-.15-.059-.27-.059-.047 0-.138.036-.09.035-.138.064-.067.04-.124.04-.065 0-.065-.07 0-.073.111-.204.112-.131.395-.131h.074q.28 0 .496.148.215.146.305.42.091.274.091.736 0 .313-.198.76-.198.446-.505.675-.304.229-.649.229-.124 0-.232-.143-.109-.143-.109-.355 0-.391.17-.689.173-.3.385-.486.213-.186.589-.3.124-.036.169-.056.044-.021.038-.074zm.046.351q-.398.081-.61.257-.479.448-.479 1.004 0 .074.026.14.026.063.059.063.127 0 .232-.045.105-.044.257-.186.152-.143.274-.353.124-.21.179-.405.057-.194.06-.298.004-.105.002-.177zM7.363 251.766q-.241.324-.477.485-.236.162-.433.162-.132 0-.229-.112-.096-.112-.096-.287 0-.453.405-.975.405-.524.804-.524.145 0 .215.166.023.055.071.055.138 0 .138.106 0 .054-.017.147-.093.508-.093.716 0 .417.158.5.076.041.076.102 0 .053-.074.106-.074.055-.143.055-.133 0-.219-.182-.086-.183-.086-.52zm-.105-.97q-.227 0-.529.427-.301.426-.301.706 0 .198.13.198.19 0 .526-.382t.336-.703q0-.246-.162-.246zM10.47 250.884q-.14.224-.392.758-.057.12-.116.232-.019.036-.072.16-.18.42-.315.42-.107 0-.157-.025-.048-.026-.093-.141-.045-.116-.133-.543-.101-.484-.137-.596-.118.264-.209.508-.138.36-.267.588-.13.225-.186.27-.057.047-.108.047-.054 0-.097-.042-.043-.041-.043-.08.01-.071.024-.089.15-.184.259-.392.108-.209.275-.626.169-.417.215-.683.023-.114.168-.114.084 0 .115.026.031.025.06.105.031.079.036.14.01.075.059.33.043.24.057.34.024.142.084.375.062.232.097.232.024 0 .069-.105l.144-.334q.04-.091.085-.179l.198-.405q.162-.334.248-.484.088-.151.117-.182.031-.031.069-.031.065 0 .146.036.081.034.085.077.003.043.015.36l.023.538q.01.256.03.437.021.18.073.29.08.175.08.272 0 .082-.068.113-.067.031-.126.031-.12 0-.186-.192-.064-.193-.093-1.106-.01-.274-.033-.336zM12.668 250.388q-.062-.269-.153-.376-.091-.107-.241-.165-.15-.059-.27-.059-.047 0-.138.036-.09.035-.138.064-.067.04-.124.04-.066 0-.066-.07 0-.073.112-.204t.395-.131h.074q.28 0 .496.148.215.146.305.42.091.274.091.736 0 .313-.198.76-.198.446-.505.675-.304.229-.649.229-.124 0-.233-.143-.108-.143-.108-.355 0-.391.17-.689.173-.3.385-.486.213-.186.589-.3.124-.036.169-.056.044-.021.037-.074zm.047.351q-.398.081-.61.257-.479.448-.479 1.004 0 .074.026.14.026.063.059.063.127 0 .232-.045.105-.044.257-.186.152-.143.274-.353.124-.21.179-.405.057-.194.06-.298.004-.105.002-.177zM14.379 251.766q-.241.324-.477.485-.236.162-.433.162-.132 0-.229-.112-.096-.112-.096-.287 0-.453.405-.975.404-.524.804-.524.145 0 .215.166.023.055.071.055.138 0 .138.106 0 .054-.017.147-.093.508-.093.716 0 .417.158.5.076.041.076.102 0 .053-.074.106-.074.055-.143.055-.133 0-.219-.182-.086-.183-.086-.52zm-.105-.97q-.228 0-.529.427-.301.426-.301.706 0 .198.13.198.19 0 .526-.382t.336-.703q0-.246-.162-.246zM15.62 252.193q-.084.31-.158.87l-.048.325q-.012.07-.064.136-.051.07-.094.07-.054 0-.123-.056-.067-.053-.067-.086 0-.095.043-.262.316-1.273.316-2.236l-.002-.144q-.004-.186.065-.27.07-.085.159-.085.041 0 .079.065.038.064.038.183 0 .167-.035.405-.044.3-.046.344.257-.448.544-.699.288-.252.534-.252.174 0 .293.131.12.13.12.323 0 .561-.43 1.02-.43.457-.839.457-.101 0-.162-.051-.058-.052-.122-.188zm1.07-1.387q-.242 0-.6.455-.359.455-.359.708 0 .062.07.12.071.06.18.06.246 0 .567-.364.32-.365.32-.717 0-.126-.052-.193-.05-.069-.125-.069zM3.284 257.753q-.065-.177-.303-.384-.224-.193-.224-.33 0-.11.072-.178.073-.069.269-.124.245-.067.498-.151.253-.086.305-.11.032-.016.067-.016.057 0 .057.101 0 .057-.138.156-.138.098-.488.182-.22.055-.27.083-.048.026-.048.053 0 .062.134.18.507.442.507 1.11 0 .288-.152.617-.152.327-.405.488-.251.16-.492.16-.218 0-.33-.212-.111-.212-.111-.467 0-.451.277-.85.279-.4.589-.4.041 0 .103.053.057.052.083.04zm-.751 1.165q0 .191.05.3.052.108.134.108.11 0 .298-.136t.302-.403q.115-.267.115-.5 0-.192-.055-.311-.053-.12-.1-.12-.306 0-.525.373-.219.374-.219.689zM4.938 257.836q-.254 0-.383.167-.127.166-.158.384h1.082q-.031-.218-.16-.384-.128-.167-.381-.167zm.001 1.488q.257 0 .402-.2.144-.2.144-.454H4.393q0 .255.145.455t.401.2zm.002-1.757q.414 0 .65.27.235.268.235.743 0 .474-.236.744-.235.27-.649.27-.415 0-.651-.27-.234-.27-.234-.744 0-.475.234-.744.236-.269.651-.269zM7.215 258.14q-.041-.003-.081.079-.357.713-.54.968-.015.022-.039.065-.215.384-.315.384-.134 0-.134-.129 0-.117.167-.319.162-.19.425-.647.264-.459.427-.822.031-.065.093-.065.026 0 .092.024.067.022.086.05.019.027.084.32.212 1.056.446 1.252.055.049.066.066.01.015.01.045 0 .053-.034.098-.035.043-.068.055-.032.012-.134.012-.036 0-.169-.177-.132-.18-.31-.974-.043-.213-.072-.285zM10.553 258.034q-.14.224-.393.758-.056.12-.115.233-.019.036-.072.16-.181.42-.316.42-.106 0-.156-.026-.049-.025-.093-.14-.045-.116-.133-.543-.102-.484-.138-.596-.117.263-.208.508-.138.36-.267.587-.13.226-.186.27-.057.047-.109.047-.053 0-.096-.041-.043-.042-.043-.081.01-.07.024-.088.15-.184.258-.393.109-.208.276-.625.169-.417.215-.684.023-.114.167-.114.085 0 .116.026.03.026.06.105.03.08.036.141.01.075.059.33.043.239.057.339.024.143.084.375.062.233.096.233.024 0 .07-.105l.144-.334q.04-.092.084-.18l.198-.404q.162-.335.249-.484.087-.152.117-.183.03-.031.069-.031.065 0 .146.036.08.035.084.078.004.043.016.36l.022.537q.01.257.031.438.021.179.073.29.08.175.08.271 0 .083-.068.114-.067.03-.126.03-.12 0-.186-.192-.064-.193-.093-1.106-.01-.274-.033-.336zM12.915 258.96q0 .175-.312.423-.31.248-.64.248-.278 0-.43-.164-.15-.163-.15-.456 0-.493.333-.937.332-.445.727-.445.129 0 .21.085.083.084.083.203 0 .265-.26.508t-.696.477q-.09.047-.09.121 0 .143.083.23.082.085.244.085.37 0 .757-.41.056-.057.086-.057.055 0 .055.088zm-1.197-.27q.73-.434.73-.697 0-.103-.093-.103-.159 0-.358.232-.198.233-.28.569zM15.006 259.543v-.861h-.453v-.293h.453v-.775h1.36v.27h-1.043v.505h.716v.293h-.716v.861zM17.984 258.794q-.22.37-.451.574-.23.203-.429.203-.114 0-.233-.133-.117-.132-.117-.408 0-.226.109-.665.091-.367.091-.515.05-.103.157-.103.072 0 .115.051.043.05.043.105 0 .12-.084.343-.16.433-.16.743 0 .282.13.282.168 0 .426-.284.259-.284.443-.793.072-.203.117-.263.046-.062.124-.062.117 0 .117.155 0 .019-.033.126-.103.377-.103.713 0 .403.133.522.069.063.069.103 0 .048-.071.088-.069.04-.126.04-.12 0-.194-.18-.075-.179-.075-.528v-.057l.002-.057zM21.118 258.034q-.14.224-.393.758-.057.12-.116.233-.019.036-.072.16-.18.42-.315.42-.107 0-.157-.026-.048-.025-.093-.14-.045-.116-.133-.543-.101-.484-.137-.596-.118.263-.209.508-.138.36-.267.587-.129.226-.186.27-.057.047-.108.047-.054 0-.097-.041-.043-.042-.043-.081.01-.07.024-.088.15-.184.259-.393.108-.208.275-.625.169-.417.216-.684.022-.114.167-.114.084 0 .115.026t.06.105q.031.08.036.141.01.075.059.33.043.239.057.339.024.143.084.375.062.233.097.233.024 0 .069-.105l.144-.334q.04-.092.085-.18l.198-.404q.162-.335.248-.484.088-.152.117-.183.031-.031.069-.031.065 0 .146.036.081.035.085.078.003.043.015.36l.023.537q.01.257.03.438.021.179.073.29.081.175.081.271 0 .083-.069.114-.067.03-.126.03-.12 0-.186-.192-.063-.193-.093-1.106-.01-.274-.032-.336zM23.166 258.916q-.242.324-.477.486-.236.162-.433.162-.132 0-.229-.112-.096-.112-.096-.288 0-.453.404-.975.405-.523.805-.523.145 0 .215.165.023.055.07.055.139 0 .139.107 0 .053-.018.146-.093.508-.093.717 0 .417.159.5.076.04.076.101 0 .053-.074.107-.075.055-.143.055-.133 0-.22-.183-.085-.182-.085-.52zm-.105-.97q-.228 0-.53.428-.3.425-.3.706 0 .198.13.198.19 0 .526-.382.335-.383.335-.703 0-.247-.161-.247zM24.408 259.343q-.085.31-.159.87l-.048.326q-.012.069-.064.136-.052.069-.095.069-.053 0-.122-.055-.067-.054-.067-.086 0-.095.043-.262.315-1.273.315-2.236l-.001-.145q-.004-.186.065-.27.069-.085.158-.085.042 0 .08.066.038.064.038.182 0 .168-.035.405-.045.3-.046.345.256-.448.544-.7.288-.251.534-.251.174 0 .293.13.12.13.12.323 0 .562-.43 1.02-.43.458-.84.458-.1 0-.161-.052-.059-.051-.122-.188zm1.07-1.386q-.244 0-.602.455-.358.454-.358.707 0 .062.07.121.071.059.18.059.246 0 .566-.364.32-.365.32-.716 0-.126-.051-.193-.05-.07-.126-.07zM27.517 258.916q-.241.324-.477.486-.236.162-.433.162-.132 0-.229-.112-.096-.112-.096-.288 0-.453.405-.975.404-.523.804-.523.145 0 .215.165.023.055.07.055.139 0 .139.107 0 .053-.018.146-.093.508-.093.717 0 .417.159.5.076.04.076.101 0 .053-.074.107-.074.055-.143.055-.133 0-.22-.183-.085-.182-.085-.52zm-.105-.97q-.228 0-.53.428-.3.425-.3.706 0 .198.13.198.19 0 .526-.382.336-.383.336-.703 0-.247-.162-.247zM29.727 258.18q-.16.004-.686.95-.177.318-.206.348-.03.027-.109.05-.077.022-.13.022-.115 0-.115-.45 0-.253.109-.916.045-.269.045-.384 0-.114.101-.114.192 0 .192.276 0 .13-.064.506-.074.431-.076.524.107-.103.314-.453.292-.479.43-.606.14-.13.288-.13.112 0 .177.15.067.15.081.715.004.141.026.21.022.07.033.07.08 0 .351-.552.145-.291.281-.443.138-.151.305-.151.14 0 .203.144.064.143.091.426.026.286.08.524.055.237.2.304.098.047.098.109 0 .06-.083.124t-.152.064q-.137 0-.246-.17-.108-.168-.164-.73-.024-.225-.046-.32t-.07-.095q-.073 0-.173.138-.098.138-.319.56-.172.33-.261.44-.088.108-.171.108-.074 0-.133-.059-.058-.06-.074-.143-.015-.084-.032-.411-.026-.545-.095-.634zM34.913 258.76q-.022.387-.074.76-.025.07-.13.07-.152 0-.152-.155 0-.064.036-.238.026-.152.028-.205.001-.055.008-.119.007-.065-.002-.103-.087.012-.358.21-.27.198-.463.393v-.002q-.012.007-.076.129-.091.182-.201.182-.052 0-.116-.044-.062-.045-.062-.09 0-.107.2-.317.201-.212.444-.362.297-.182.409-.294-.05-.07-.195-.155-.147-.086-.272-.193-.017-.014-.042-.031-.222-.15-.296-.224-.072-.076-.072-.162 0-.057.043-.103.043-.049.084-.049.026 0 .093.028t.097.059l.084.079q.446.437.706.556.014 0 .035-.032.017-.06.017-.188 0-.12-.026-.27-.014-.078-.014-.102 0-.081.062-.131.064-.05.138-.05.085 0 .116.034.03.035.03.117l-.022.548v.035q0 .024.002.04.06 0 .126-.047.065-.049.194-.19.567-.587.657-.587.05 0 .091.041.041.041.041.097 0 .027-.19.234-.187.205-.387.377-.256.22-.256.23 0 .011.213.178.231.181.319.257.012.009.034.022.255.157.319.235.064.077.064.13 0 .05-.043.104-.043.052-.085.052-.153 0-.711-.515-.248-.231-.3-.243-.022-.003-.034-.01-.018-.004-.062-.001-.045.002-.049.014zM37.027 259.63q-.236 0-.39-.18-.153-.179-.153-.442 0-.445.298-.876.3-.432.717-.432.276 0 .446.212.172.212.172.505 0 .448-.354.83-.354.382-.736.382zm-.24-.667q0 .174.073.284.074.11.195.11.256 0 .515-.28.258-.283.258-.628 0-.211-.1-.342-.098-.133-.265-.133-.278 0-.477.341-.198.34-.198.648zM39.532 257.753q-.066-.177-.304-.384-.224-.193-.224-.33 0-.11.073-.178.072-.069.269-.124.244-.067.497-.151.254-.086.305-.11.033-.016.067-.016.057 0 .057.101 0 .057-.138.156-.137.098-.487.182-.22.055-.27.083-.049.026-.049.053 0 .062.135.18.506.442.506 1.11 0 .288-.151.617-.152.327-.405.488-.252.16-.493.16-.217 0-.329-.212-.112-.212-.112-.467 0-.451.277-.85.28-.4.59-.4.04 0 .103.053.057.052.083.04zm-.751 1.165q0 .191.05.3.051.108.134.108.11 0 .298-.136t.301-.403q.116-.267.116-.5 0-.192-.055-.311-.054-.12-.1-.12-.307 0-.526.373-.218.374-.218.689zM41.499 258.916q-.241.324-.477.486-.236.162-.433.162-.132 0-.229-.112-.096-.112-.096-.288 0-.453.404-.975.405-.523.805-.523.145 0 .215.165.023.055.07.055.139 0 .139.107 0 .053-.018.146-.093.508-.093.717 0 .417.159.5.076.04.076.101 0 .053-.074.107-.074.055-.143.055-.133 0-.22-.183-.085-.182-.085-.52zm-.105-.97q-.228 0-.53.428-.3.425-.3.706 0 .198.13.198.19 0 .526-.382.336-.383.336-.703 0-.247-.162-.247zM43.375 258.14q-.042-.003-.081.079-.357.713-.54.968-.015.022-.04.065-.214.384-.314.384-.135 0-.135-.129 0-.117.167-.319.162-.19.426-.647.263-.459.427-.822.031-.065.093-.065.026 0 .091.024.068.022.086.05.02.027.085.32.212 1.056.446 1.252.055.049.065.066.01.015.01.045 0 .053-.034.098-.034.043-.067.055-.033.012-.134.012-.036 0-.169-.177-.133-.18-.31-.974-.043-.213-.072-.285zM45.676 258.916q-.241.324-.477.486-.236.162-.433.162-.132 0-.229-.112-.096-.112-.096-.288 0-.453.405-.975.404-.523.804-.523.145 0 .215.165.023.055.071.055.138 0 .138.107 0 .053-.017.146-.093.508-.093.717 0 .417.158.5.076.04.076.101 0 .053-.074.107-.074.055-.143.055-.133 0-.219-.183-.086-.182-.086-.52zm-.105-.97q-.228 0-.529.428-.301.425-.301.706 0 .198.13.198.19 0 .526-.382.336-.383.336-.703 0-.247-.162-.247zM46.918 259.343q-.085.31-.159.87l-.048.326q-.012.069-.064.136-.051.069-.094.069-.054 0-.123-.055-.067-.054-.067-.086 0-.095.043-.262.315-1.273.315-2.236l-.001-.145q-.004-.186.065-.27.07-.085.159-.085.041 0 .079.066.038.064.038.182 0 .168-.035.405-.044.3-.046.345.257-.448.544-.7.288-.251.534-.251.174 0 .293.13.12.13.12.323 0 .562-.43 1.02-.43.458-.839.458-.102 0-.162-.052-.058-.051-.122-.188zm1.07-1.386q-.243 0-.602.455-.358.454-.358.707 0 .062.07.121.071.059.18.059.246 0 .567-.364.32-.365.32-.716 0-.126-.052-.193-.05-.07-.125-.07zM2.592 266.694v-.862h-.453v-.292h.453v-.776h1.36v.27H2.908v.506h.717v.292h-.717v.862zM5.515 266.067q-.241.324-.477.485-.236.162-.433.162-.132 0-.229-.112-.096-.112-.096-.287 0-.453.404-.975.405-.524.805-.524.145 0 .215.165.023.056.07.056.139 0 .139.106 0 .054-.018.147-.093.508-.093.716 0 .417.159.5.076.041.076.102 0 .053-.074.106-.075.055-.143.055-.133 0-.22-.182-.085-.183-.085-.52zm-.105-.97q-.228 0-.53.427-.3.426-.3.706 0 .198.13.198.19 0 .526-.382t.336-.703q0-.246-.162-.246zM6.757 266.494q-.085.31-.159.87l-.048.325q-.012.07-.064.136-.051.07-.095.07-.053 0-.122-.056-.067-.053-.067-.086 0-.095.043-.262.315-1.273.315-2.236l-.001-.144q-.004-.186.065-.27.069-.085.159-.085.04 0 .079.065.038.064.038.183 0 .167-.035.405-.045.3-.046.344.256-.448.544-.7.288-.25.534-.25.174 0 .293.13.12.13.12.322 0 .562-.43 1.02-.43.458-.84.458-.1 0-.161-.051-.059-.052-.122-.188zm1.07-1.387q-.244 0-.602.455t-.358.708q0 .062.07.12.071.06.18.06.246 0 .566-.364.32-.366.32-.717 0-.126-.05-.193-.05-.069-.127-.069zM9.104 264.742q.023-.015.05-.015.044 0 .073.115 0 .074-.04.188-.117.325-.117.454 0 .035.02.038.397-.38.735-.38.208 0 .35.158.14.157.14.288 0 .4-.408.768-.406.367-.82.367-.184 0-.287-.152-.102-.153-.102-.437 0-.308.077-.682.078-.374.125-.5.018-.053.034-.108.017-.07.17-.102zm-.08 1.08q-.035.191-.035.382 0 .26.205.26.23 0 .517-.275.286-.276.286-.536 0-.107-.057-.179t-.157-.072q-.136 0-.269.069-.13.067-.292.218-.062.059-.1.092-.036.03-.098.041zm1.734.396q0 .131.036.295.007.03.007.052 0 .03-.057.08-.056.049-.12.049-.167 0-.167-.307 0-.305.132-1.023.049-.262.049-.317 0-.109.04-.184.039-.078.111-.078.088 0 .138.043.052.042.052.093 0 .052-.024.143-.135.491-.166.688-.03.196-.03.466zM13.67 265.944q-.221.37-.452.574-.23.203-.429.203-.114 0-.233-.132-.117-.133-.117-.409 0-.14.03-.311-.164.323-.42.556-.257.233-.459.233-.096 0-.212-.114-.113-.114-.113-.307 0-.222.019-.334.015-.102.025-.21.01-.086.024-.162.068-.37.052-.477.036-.122.167-.122.052 0 .1.043.05.04.05.137 0 .159-.07.397-.095.318-.095.565 0 .134.019.208.02.074.09.074.227 0 .51-.403.287-.403.454-.84.074-.199.186-.199.072 0 .115.052.043.05.043.105 0 .12-.084.343-.16.425-.16.725 0 .283.13.283.06 0 .144-.042.086-.041.212-.167.125-.127.244-.312.12-.186.152-.268.03-.085.125-.395.06-.201.11-.272.052-.072.133-.072.117 0 .117.155 0 .019-.032.125-.048.166-.081.42t-.033.42q0 .402.133.521.069.064.069.104 0 .048-.071.088-.069.04-.126.04-.12 0-.194-.18-.074-.18-.074-.529v-.057l.001-.056zM17.252 265.331q-.16.003-.685.95-.178.318-.207.347-.03.028-.109.05-.077.023-.129.023-.115 0-.115-.45 0-.253.108-.916.045-.27.045-.385 0-.113.102-.113.19 0 .19.275 0 .13-.063.507-.074.43-.076.523.107-.103.314-.453.293-.478.43-.606.14-.13.288-.13.112 0 .178.15.067.15.08.716.004.14.026.21.023.069.033.069.081 0 .352-.552.144-.29.28-.442.138-.152.305-.152.14 0 .203.145.064.143.092.425.026.286.079.524.055.238.2.305.098.046.098.108 0 .06-.083.124-.082.064-.151.064-.138 0-.247-.169-.108-.169-.163-.73-.024-.226-.047-.32-.022-.095-.07-.095-.073 0-.173.138-.098.137-.318.56-.173.328-.262.439-.088.108-.17.108-.075 0-.133-.058-.059-.06-.074-.143-.016-.085-.033-.412-.026-.544-.095-.634zM19.977 264.742q.023-.015.05-.015.043 0 .073.115 0 .074-.04.188-.117.325-.117.454 0 .035.02.038.397-.38.734-.38.209 0 .35.158.141.157.141.288 0 .4-.408.768-.407.367-.82.367-.184 0-.288-.152-.101-.153-.101-.437 0-.308.077-.682.078-.374.124-.5.02-.053.035-.108.017-.07.17-.102zm-.08 1.08q-.035.191-.035.382 0 .26.205.26.23 0 .517-.275.285-.276.285-.536 0-.107-.056-.179-.057-.072-.157-.072-.136 0-.269.069-.13.067-.293.218-.062.059-.1.092-.036.03-.098.041zm1.734.396q0 .131.036.295.007.03.007.052 0 .03-.057.08-.057.049-.12.049-.168 0-.168-.307 0-.305.133-1.023.048-.262.048-.317 0-.109.04-.184.04-.078.112-.078.088 0 .138.043.051.042.051.093 0 .052-.024.143-.134.491-.165.688-.031.196-.031.466zM23.162 265.29q-.041-.002-.08.079-.357.713-.54.968-.015.022-.04.065-.215.385-.315.385-.134 0-.134-.13 0-.117.167-.318.162-.191.425-.648.264-.458.428-.822.03-.065.093-.065.025 0 .09.024.068.022.087.05.019.028.084.32.212 1.056.447 1.253.055.048.065.065.01.016.01.045 0 .053-.034.098-.034.043-.067.055-.033.012-.135.012-.036 0-.168-.177-.133-.18-.31-.973-.043-.214-.073-.286zM24.773 266.792q-.259 0-.398-.148-.138-.148-.138-.415 0-.45.357-.948.356-.5.663-.5.14 0 .24.152.1.15.1.319 0 .102-.044.176-.043.072-.088.072-.1 0-.141-.202-.047-.217-.134-.217-.18 0-.424.426-.245.425-.245.718t.333.293q.253 0 .596-.238.12-.084.177-.084.059 0 .059.067 0 .13-.309.33-.308.199-.604.199zM26.49 264.742q.023-.015.05-.015.043 0 .072.115 0 .074-.04.188-.116.325-.116.454 0 .035.02.038.397-.38.734-.38.209 0 .35.158.141.157.141.288 0 .4-.408.768-.407.367-.82.367-.184 0-.288-.152-.101-.153-.101-.437 0-.308.077-.682.078-.374.124-.5.02-.053.035-.108.017-.07.17-.102zm-.08 1.08q-.035.191-.035.382 0 .26.205.26.23 0 .517-.275.285-.276.285-.536 0-.107-.056-.179-.057-.072-.157-.072-.136 0-.269.069-.13.067-.293.218-.062.059-.1.092-.036.03-.098.041zm1.734.396q0 .131.036.295.007.03.007.052 0 .03-.057.08-.057.049-.12.049-.168 0-.168-.307 0-.305.133-1.023.048-.262.048-.317 0-.109.04-.184.04-.078.112-.078.088 0 .138.043.051.042.051.093 0 .052-.024.143-.134.491-.165.688-.031.196-.031.466zM30.907 265.185q-.14.224-.393.758-.057.12-.115.232-.02.036-.073.16-.18.42-.315.42-.107 0-.157-.025-.048-.026-.093-.141-.045-.116-.132-.543-.102-.484-.138-.596-.117.264-.209.508-.137.36-.267.588-.129.225-.186.27-.056.047-.108.047-.054 0-.097-.042-.043-.041-.043-.08.01-.071.024-.089.15-.184.259-.392.108-.209.275-.626.17-.417.216-.684.022-.113.167-.113.084 0 .115.026.031.025.06.105.032.079.037.14.01.075.058.33.043.24.057.34.024.142.085.375.062.232.096.232.024 0 .069-.105l.145-.334q.04-.091.084-.18l.198-.404q.162-.334.248-.484.088-.152.117-.183.031-.03.07-.03.065 0 .146.036.08.034.084.077.003.043.016.36l.022.538q.01.256.03.437.022.18.073.29.081.175.081.272 0 .082-.069.113-.067.031-.125.031-.121 0-.186-.193-.064-.192-.093-1.105-.01-.274-.033-.336zM33.17 265.812v-.155h1.457q-.02-.328-.198-.498-.175-.172-.49-.172-.183 0-.355.044-.17.045-.34.135v-.3q.17-.072.35-.11.18-.038.363-.038.462 0 .73.269.271.268.271.727 0 .473-.256.752-.255.278-.69.278-.389 0-.616-.25-.226-.252-.226-.682zm.317.093q.004.26.145.415.143.155.377.155.265 0 .424-.15.16-.15.184-.422zM36.341 265.29q-.04-.002-.08.079-.357.713-.54.968-.015.022-.04.065-.215.385-.315.385-.134 0-.134-.13 0-.117.167-.318.162-.191.426-.648.263-.458.427-.822.03-.065.093-.065.026 0 .091.024.067.022.086.05.02.028.085.32.212 1.056.446 1.253.055.048.065.065.01.016.01.045 0 .053-.034.098-.034.043-.067.055-.033.012-.134.012-.037 0-.17-.177-.132-.18-.31-.973-.042-.214-.072-.286zM38.956 266.11q0 .175-.312.423-.31.249-.64.249-.278 0-.43-.164-.15-.164-.15-.457 0-.492.333-.937.333-.444.727-.444.13 0 .21.084.083.085.083.204 0 .265-.26.508t-.696.477q-.09.046-.09.12 0 .143.083.23.083.086.245.086.37 0 .756-.41.057-.057.086-.057.055 0 .055.088zm-1.197-.269q.73-.434.73-.698 0-.103-.093-.103-.158 0-.358.233-.198.232-.279.568zM41.514 265.185q-.14.224-.393.758-.056.12-.115.232-.019.036-.072.16-.181.42-.315.42-.107 0-.157-.025-.048-.026-.093-.141-.045-.116-.133-.543-.102-.484-.138-.596-.117.264-.208.508-.138.36-.267.588-.13.225-.186.27-.057.047-.109.047-.053 0-.096-.042-.043-.041-.043-.08.01-.071.024-.089.15-.184.258-.392.109-.209.276-.626.169-.417.215-.684.023-.113.167-.113.085 0 .116.026.03.025.06.105.031.079.036.14.01.075.059.33.043.24.057.34.024.142.084.375.062.232.096.232.025 0 .07-.105l.144-.334q.04-.091.084-.18l.199-.404q.161-.334.248-.484.087-.152.117-.183.03-.03.069-.03.065 0 .146.036.081.034.084.077.004.043.016.36l.022.538q.01.256.031.437.021.18.073.29.08.175.08.272 0 .082-.068.113-.067.031-.126.031-.12 0-.186-.193-.064-.192-.093-1.105-.01-.274-.033-.336zM2.232 273.546l-.004-.036q-.017-.174.107-.365.126-.191.629-.445.32-.162.32-.294 0-.07-.059-.109-.058-.038-.101-.038-.13 0-.496.183-.03.015-.035.015-.141 0-.141-.1 0-.161.28-.268.278-.109.485-.109.129 0 .27.104.142.101.142.274 0 .14-.092.272-.091.13-.456.332-.3.166-.407.272-.105.107-.105.242 0 .098.091.129.092.03.138.03.324 0 .579-.134.088-.044.13-.044.09 0 .09.1 0 .151-.244.253-.245.101-.62.101-.18 0-.333-.101-.153-.104-.168-.264zM4.976 273.813v.765H4.64v-.765l-.78-1.898h.335l.603 1.509.603-1.51h.336zM7.037 272.44q-.04-.002-.08.08-.357.713-.54.968-.015.022-.04.065-.215.384-.315.384-.134 0-.134-.129 0-.117.167-.319.162-.19.426-.647.263-.459.427-.822.03-.066.093-.066.026 0 .091.025.067.022.086.05.02.027.085.32.212 1.056.446 1.252.055.048.065.066.01.015.01.045 0 .053-.034.098-.034.043-.067.055-.033.012-.134.012-.037 0-.17-.177-.132-.18-.31-.974-.042-.213-.072-.286zM9.489 271.84q-.062-.27-.154-.376-.091-.107-.24-.166-.15-.058-.271-.058-.047 0-.138.036-.09.034-.138.064-.067.04-.124.04-.065 0-.065-.07 0-.074.112-.205.112-.13.394-.13h.074q.28 0 .496.147.216.147.305.42.091.275.091.736 0 .314-.198.76t-.504.675q-.305.23-.65.23-.124 0-.232-.144-.109-.143-.109-.355 0-.39.17-.689.173-.3.385-.485.213-.186.589-.3.124-.036.169-.057.045-.02.038-.074zm.046.35q-.398.082-.61.257-.479.448-.479 1.004 0 .075.026.14.026.064.059.064.127 0 .232-.045.106-.045.257-.186.152-.143.274-.353.124-.21.18-.405.056-.195.06-.298.003-.105.001-.178zM11.616 273.26q0 .176-.312.424-.31.248-.64.248-.278 0-.43-.164-.15-.163-.15-.456 0-.493.333-.937.333-.445.727-.445.13 0 .21.085.083.084.083.203 0 .265-.26.508t-.696.477q-.09.047-.09.121 0 .143.083.23.083.085.245.085.37 0 .756-.41.057-.057.086-.057.055 0 .055.088zm-1.197-.268q.73-.435.73-.698 0-.103-.093-.103-.158 0-.358.232-.198.233-.28.569zM12.308 273.644q-.084.31-.158.87l-.048.326q-.012.069-.064.136-.052.069-.095.069-.053 0-.122-.055-.067-.054-.067-.086 0-.095.043-.262.315-1.273.315-2.236l-.002-.145q-.003-.186.066-.27.069-.085.158-.085.042 0 .08.066.037.064.037.182 0 .168-.034.405-.045.3-.047.345.257-.448.545-.7.287-.251.534-.251.174 0 .293.13.12.13.12.323 0 .561-.43 1.02-.431.458-.84.458-.1 0-.161-.052-.059-.052-.123-.188zm1.07-1.386q-.243 0-.601.454-.358.455-.358.708 0 .062.07.121t.18.059q.246 0 .566-.364.32-.365.32-.716 0-.126-.051-.193-.05-.07-.126-.07zM3.119 279.288q-.254 0-.383.167-.127.165-.158.384H3.66q-.031-.219-.16-.384-.128-.167-.381-.167zm.001 1.488q.257 0 .402-.2.144-.2.144-.455H2.574q0 .255.145.455t.401.2zm.002-1.757q.413 0 .65.269.235.268.235.744 0 .473-.236.744-.236.269-.649.269-.415 0-.651-.27-.234-.27-.234-.743 0-.476.234-.744.236-.27.651-.27zM4.9 281.093q-.259 0-.398-.148-.138-.148-.138-.415 0-.45.357-.948.356-.5.663-.5.14 0 .24.152.1.15.1.319 0 .101-.044.176-.043.072-.088.072-.1 0-.141-.202-.047-.217-.134-.217-.18 0-.424.426-.245.425-.245.718t.333.293q.253 0 .596-.238.12-.084.177-.084.059 0 .059.067 0 .13-.309.33-.308.199-.604.199zM6.772 278.688q-.036 0-.055-.077-.007-.024-.019-.054-.046-.112-.046-.194 0-.07.08-.14.083-.072.183-.072.05 0 .112.04.062.037.062.073 0 .057-.043.193-.041.136-.134.185-.092.046-.14.046zm-.225 1.924q0 .131.036.295.007.03.007.051 0 .031-.057.08-.057.05-.12.05-.168 0-.168-.307 0-.317.131-1.003.045-.239.045-.294 0-.109.04-.184.039-.078.111-.078.088 0 .138.043.052.041.052.093t-.024.136q-.13.455-.16.651-.031.197-.031.467zM9.435 279.486q-.14.224-.393.758-.056.12-.115.232-.019.036-.072.16-.181.42-.316.42-.106 0-.156-.025-.048-.026-.093-.141-.045-.116-.133-.543-.102-.484-.138-.596-.117.264-.208.508-.138.36-.267.588-.13.225-.186.27-.057.046-.109.046-.053 0-.096-.04-.043-.042-.043-.082.01-.07.024-.088.15-.184.258-.392.109-.209.276-.626.169-.417.215-.684.023-.113.167-.113.085 0 .116.026.03.025.06.105.031.079.036.14.01.075.059.33.043.24.057.34.024.142.084.375.062.232.096.232.025 0 .07-.105l.144-.334q.04-.091.084-.18l.199-.404q.161-.334.248-.484.087-.152.117-.183.03-.03.069-.03.065 0 .146.036.081.034.084.077.004.043.016.36l.022.538q.01.256.031.437.021.18.073.29.08.175.08.272 0 .082-.068.113-.067.031-.126.031-.12 0-.186-.193-.064-.193-.093-1.105-.01-.274-.033-.336zM11.633 278.99q-.062-.27-.153-.376-.091-.107-.241-.165-.15-.059-.27-.059-.047 0-.139.036-.09.035-.137.064-.067.04-.124.04-.066 0-.066-.07 0-.073.112-.204t.395-.131h.074q.28 0 .496.148.215.146.305.42.091.274.091.736 0 .313-.198.76-.198.446-.505.675-.305.229-.65.229-.123 0-.232-.143-.108-.143-.108-.355 0-.391.17-.69.173-.299.384-.485.214-.186.59-.3.124-.036.168-.056.045-.021.038-.074zm.047.351q-.398.081-.61.257-.479.448-.479 1.004 0 .074.026.14.026.063.058.063.128 0 .233-.045.105-.044.257-.186.151-.143.274-.353.124-.21.179-.405.057-.194.06-.298.003-.105.002-.177zM12.737 278.688q-.036 0-.055-.077-.007-.024-.019-.054-.046-.112-.046-.194 0-.07.08-.14.083-.072.183-.072.05 0 .112.04.062.037.062.073 0 .057-.043.193-.041.136-.134.185-.091.046-.14.046zm-.225 1.924q0 .131.036.295.007.03.007.051 0 .031-.057.08-.057.05-.12.05-.168 0-.168-.307 0-.317.131-1.003.045-.239.045-.294 0-.109.04-.184.04-.078.112-.078.087 0 .137.043.052.041.052.093t-.024.136q-.13.455-.16.651-.031.197-.031.467zM13.552 280.089q.408-.071.732-.528.152-.211.265-.3.116-.089.245-.089.052 0 .103.047.052.046.052.11 0 .084-.16.133-.084.025-.159.087-.074.062-.28.297-.162.182-.291.256-.013.007-.013.012 0 .007.016.014.126.067.265.26.204.281.305.355.102.073.233.073l.057-.002q.06-.003.06.053 0 .065-.074.136-.074.07-.245.07-.13 0-.255-.111-.122-.114-.28-.367-.092-.15-.171-.228-.08-.077-.176-.077-.02 0-.127.034-.107.035-.12.067-.013.031-.02.23-.005.196-.005.317 0 .063-.06.113t-.131.05q-.073 0-.114-.043-.041-.041-.041-.086 0-.062.046-.293.083-.42.166-1.387.007-.093.07-.167.064-.075.145-.075.045 0 .074.048.031.048.031.124 0 .06-.02.138-.099.356-.123.728zM16.527 279.632q-.16.003-.686.95-.177.318-.206.347-.03.028-.109.05-.077.022-.129.022-.115 0-.115-.45 0-.252.108-.915.045-.27.045-.385 0-.113.101-.113.192 0 .192.275 0 .13-.064.507-.074.43-.076.523.107-.103.314-.453.293-.479.43-.606.14-.13.288-.13.112 0 .177.15.068.15.081.716.004.14.026.21.023.069.033.069.08 0 .351-.552.145-.29.281-.442.138-.152.305-.152.14 0 .203.145.064.143.092.425.025.286.079.524.055.238.2.305.098.046.098.108 0 .06-.083.124t-.151.064q-.138 0-.247-.169-.108-.169-.163-.73-.025-.226-.047-.32-.022-.095-.07-.095-.073 0-.173.138-.098.137-.319.56-.172.328-.261.439-.088.108-.17.108-.075 0-.133-.058-.06-.06-.075-.143-.015-.085-.032-.412-.026-.544-.095-.634zM20.327 280.41q0 .176-.312.424-.31.248-.64.248-.278 0-.43-.163-.15-.164-.15-.457 0-.492.333-.937.332-.444.727-.444.13 0 .21.084.083.085.083.204 0 .265-.26.508t-.696.477q-.09.046-.09.12 0 .143.083.23.083.086.244.086.37 0 .757-.41.056-.057.086-.057.055 0 .055.088zm-1.197-.268q.73-.434.73-.698 0-.103-.093-.103-.158 0-.358.233-.198.232-.28.568zM21.02 280.795q-.085.31-.16.87l-.047.325q-.012.07-.064.136-.052.07-.095.07-.053 0-.122-.056-.067-.053-.067-.086 0-.095.043-.262.315-1.273.315-2.236l-.002-.144q-.003-.186.066-.27.069-.085.158-.085.042 0 .08.065.037.064.037.183 0 .167-.034.405-.045.3-.047.344.257-.448.545-.7.287-.25.534-.25.174 0 .293.13.12.13.12.322 0 .562-.43 1.02-.431.458-.84.458-.101 0-.161-.051-.059-.052-.123-.188zm1.07-1.387q-.244 0-.602.455t-.358.708q0 .062.07.12.07.06.18.06.246 0 .566-.364.32-.366.32-.717 0-.126-.051-.193-.05-.069-.126-.069zM2.362 286.216h.316v.906l.894-.906h.389l-.737.746.646.92h.244v.75h-.317v-.487h-.096l-.684-.973-.34.344v.63h-.315zM5.563 287.518q-.241.324-.477.486-.236.162-.433.162-.132 0-.229-.112-.096-.112-.096-.288 0-.453.405-.975.404-.523.804-.523.145 0 .215.165.023.055.071.055.138 0 .138.107 0 .053-.017.146-.093.508-.093.717 0 .417.158.5.076.04.076.101 0 .053-.074.107-.074.055-.143.055-.133 0-.219-.183-.086-.182-.086-.52zm-.105-.97q-.228 0-.529.428-.301.425-.301.706 0 .198.13.198.19 0 .526-.383.336-.382.336-.702 0-.247-.162-.247zM7.439 286.741q-.042-.002-.081.08-.357.713-.54.968-.015.022-.039.065-.215.384-.315.384-.135 0-.135-.13 0-.116.168-.318.161-.19.425-.647.264-.459.427-.822.031-.066.093-.066.026 0 .092.025.067.022.086.05.019.027.084.32.212 1.056.446 1.252.055.048.066.066.01.015.01.044 0 .054-.034.099-.035.043-.068.055-.032.012-.134.012-.036 0-.169-.178-.132-.179-.31-.973-.043-.213-.072-.286zM8.979 286.193q.022-.015.05-.015.043 0 .072.115 0 .074-.04.188-.117.326-.117.455 0 .034.021.038.396-.38.734-.38.208 0 .35.158.14.156.14.287 0 .4-.408.769-.406.366-.82.366-.184 0-.287-.151-.102-.153-.102-.438 0-.308.078-.682.077-.374.124-.5.019-.053.034-.108.017-.069.17-.102zm-.081 1.08q-.035.192-.035.383 0 .26.205.26.231 0 .517-.276.286-.275.286-.535 0-.107-.057-.18-.057-.072-.157-.072-.136 0-.268.07-.131.066-.293.218-.062.059-.1.091-.036.031-.098.042zm1.734.397q0 .13.037.294.006.031.006.052 0 .03-.056.08-.057.05-.121.05-.167 0-.167-.307 0-.305.133-1.024.048-.261.048-.317 0-.108.04-.184.04-.077.111-.077.088 0 .138.043.052.041.052.093 0 .051-.024.143-.135.49-.166.687-.03.196-.03.467zM12.37 286.82q-.09 0-.196.118-.105.117-.322.525-.286.548-.37.624-.083.075-.138.075-.203 0-.203-.196 0-.083.027-.234.095-.52.095-1.098 0-.065.055-.144.057-.081.107-.081.09 0 .127.055.038.055.038.222 0 .174-.103.717-.035.179-.035.227 0 .028.014.028.026 0 .24-.412.215-.419.377-.59.162-.17.356-.17.155 0 .252.142.098.14.143.515.048.425.086.53.04.103.124.103.053 0 .134-.037.014-.007.021-.007.074 0 .074.086 0 .075-.102.162-.101.084-.244.084-.147 0-.228-.115-.079-.118-.125-.622-.049-.507-.204-.507zM14.837 286.783q-.16.003-.685.949-.178.318-.207.348-.03.027-.109.05-.077.022-.129.022-.115 0-.115-.45 0-.253.108-.916.045-.269.045-.384 0-.114.102-.114.19 0 .19.276 0 .129-.063.506-.074.43-.076.524.107-.104.314-.453.293-.48.43-.607.14-.129.288-.129.112 0 .178.15.067.15.08.715.004.141.026.21.023.07.033.07.081 0 .352-.552.144-.291.28-.443.138-.151.305-.151.14 0 .203.144.064.143.092.426.026.286.079.523.055.238.2.305.098.047.098.109 0 .06-.083.124-.082.064-.151.064-.138 0-.247-.17-.108-.168-.163-.73-.024-.225-.047-.32-.022-.095-.07-.095-.073 0-.173.138-.098.138-.318.56-.173.329-.262.44-.088.108-.17.108-.075 0-.133-.059-.059-.06-.074-.143-.016-.084-.033-.412-.026-.544-.095-.634zM18.324 287.518q-.242.324-.478.486-.236.162-.432.162-.133 0-.229-.112t-.096-.288q0-.453.404-.975.405-.523.805-.523.144 0 .215.165.022.055.07.055.138 0 .138.107 0 .053-.017.146-.093.508-.093.717 0 .417.159.5.075.04.075.101 0 .053-.074.107-.074.055-.143.055-.132 0-.218-.183-.086-.182-.086-.52zm-.106-.97q-.227 0-.528.428-.302.425-.302.706 0 .198.131.198.19 0 .526-.383.335-.382.335-.702 0-.247-.162-.247zM20.2 286.741q-.042-.002-.082.08-.356.713-.539.968-.015.022-.04.065-.215.384-.315.384-.134 0-.134-.13 0-.116.167-.318.162-.19.426-.647.263-.459.427-.822.03-.066.093-.066.026 0 .091.025.067.022.086.05.02.027.085.32.212 1.056.446 1.252.055.048.065.066.01.015.01.044 0 .054-.034.099-.034.043-.067.055-.033.012-.134.012-.037 0-.17-.178-.132-.179-.31-.973-.042-.213-.072-.286zM21.66 288.145v-.861h-.453v-.293h.453v-.775h1.361v.27h-1.044v.505h.717v.293h-.717v.861zM24.583 287.518q-.24.324-.477.486-.236.162-.432.162-.133 0-.23-.112-.096-.112-.096-.288 0-.453.405-.975.405-.523.804-.523.145 0 .216.165.022.055.07.055.138 0 .138.107 0 .053-.017.146-.093.508-.093.717 0 .417.158.5.076.04.076.101 0 .053-.074.107-.074.055-.143.055-.132 0-.219-.183-.086-.182-.086-.52zm-.105-.97q-.227 0-.529.428-.301.425-.301.706 0 .198.13.198.19 0 .526-.383.336-.382.336-.702 0-.247-.162-.247zM26.76 287.02q.02-.036.06-.432.032-.317.202-.317.14 0 .14.14 0 .032-.024.132-.133.55-.133.922 0 .403.133.522.069.063.069.103 0 .048-.07.088-.07.04-.127.04-.268 0-.268-.83 0-.056-.042-.056-.162 0-.396.02-.234.018-.336.047-.1.03-.124.055-.022.025-.041.133-.017.107-.017.222v.212q0 .184-.17.184-.14 0-.14-.184 0-.12.03-.306.057-.342.114-1.175.007-.109.02-.138.011-.03.061-.064.052-.036.112-.036.124 0 .124.102 0 .015-.04.258t-.04.377q0 .095.065.095.13 0 .479-.043.348-.045.36-.07zM29.329 287.24q.408-.072.732-.528.152-.212.265-.3.116-.09.245-.09.052 0 .103.047.052.047.052.11 0 .085-.16.133-.085.026-.159.088t-.28.296q-.162.183-.292.257-.012.007-.012.012 0 .007.016.014.126.067.265.26.203.28.305.355.102.072.233.072l.056-.002q.06-.003.06.053 0 .066-.073.136-.075.071-.245.071-.131 0-.255-.112-.122-.114-.28-.367-.092-.15-.171-.227-.08-.078-.176-.078-.02 0-.127.035-.107.034-.121.067-.012.03-.019.229-.005.196-.005.317 0 .064-.06.114t-.131.05q-.073 0-.114-.043-.041-.042-.041-.087 0-.062.046-.292.083-.42.165-1.387.007-.093.071-.167.064-.076.145-.076.045 0 .074.048.03.048.03.124 0 .06-.02.138-.098.357-.122.729zM32.478 287.561q0 .176-.312.424-.31.248-.64.248-.278 0-.43-.164-.15-.163-.15-.456 0-.493.333-.937.332-.445.727-.445.129 0 .21.085.083.084.083.203 0 .265-.26.508t-.696.477q-.09.047-.09.12 0 .144.083.23.082.086.244.086.37 0 .756-.41.057-.057.087-.057.055 0 .055.088zm-1.197-.269q.73-.434.73-.697 0-.104-.093-.104-.159 0-.358.233-.198.233-.28.568zM33.308 288.243q-.258 0-.398-.148-.138-.148-.138-.415 0-.45.357-.947.356-.5.663-.5.14 0 .24.152.101.15.101.318 0 .102-.045.176-.043.072-.088.072-.1 0-.14-.201-.047-.217-.135-.217-.18 0-.424.425-.244.426-.244.719 0 .292.332.292.253 0 .596-.237.12-.085.177-.085.059 0 .059.068 0 .13-.308.33-.309.198-.605.198zM34.975 287.24q.409-.072.733-.528.151-.212.265-.3.115-.09.244-.09.052 0 .104.047.051.047.051.11 0 .085-.16.133-.084.026-.158.088t-.281.296q-.162.183-.291.257-.012.007-.012.012 0 .007.015.014.126.067.266.26.203.28.304.355.102.072.233.072l.057-.002q.06-.003.06.053 0 .066-.074.136-.074.071-.245.071-.13 0-.254-.112-.123-.114-.281-.367-.092-.15-.17-.227-.08-.078-.176-.078-.021 0-.128.035-.107.034-.12.067-.013.03-.02.229-.005.196-.005.317 0 .064-.06.114t-.13.05q-.073 0-.115-.043-.04-.042-.04-.087 0-.062.046-.292.082-.42.165-1.387.007-.093.07-.167.064-.076.145-.076.045 0 .074.048.031.048.031.124 0 .06-.02.138-.098.357-.123.729zM37.204 285.839q-.036 0-.055-.078-.007-.024-.019-.053-.046-.112-.046-.195 0-.069.08-.14.083-.072.183-.072.05 0 .112.04.062.038.062.074 0 .057-.043.193-.041.136-.134.184-.091.047-.14.047zm-.225 1.924q0 .13.036.294.007.031.007.052 0 .031-.057.08-.057.05-.12.05-.168 0-.168-.308 0-.316.131-1.002.045-.24.045-.295 0-.108.04-.184.04-.077.112-.077.087 0 .137.043.052.041.052.093 0 .051-.024.136-.13.454-.16.65-.031.197-.031.468zM38.937 287.02q.02-.036.06-.432.032-.317.202-.317.14 0 .14.14 0 .032-.024.132-.133.55-.133.922 0 .403.133.522.068.063.068.103 0 .048-.07.088-.07.04-.126.04-.269 0-.269-.83 0-.056-.041-.056-.162 0-.396.02-.234.018-.336.047-.1.03-.124.055-.022.025-.041.133-.018.107-.018.222v.212q0 .184-.168.184-.142 0-.142-.184 0-.12.031-.306.057-.342.114-1.175.007-.109.019-.138.012-.03.062-.064.052-.036.112-.036.124 0 .124.102 0 .015-.04.258-.041.243-.041.377 0 .095.065.095.131 0 .48-.043.347-.045.36-.07zM41.056 286.14q-.062-.269-.153-.375-.092-.107-.241-.166-.15-.058-.27-.058-.047 0-.139.036-.09.034-.137.063-.068.04-.125.04-.065 0-.065-.069 0-.074.112-.205.112-.13.394-.13h.075q.28 0 .496.147.215.147.305.42.09.275.09.736 0 .314-.197.76-.198.446-.505.675-.305.23-.65.23-.123 0-.232-.144-.108-.143-.108-.355 0-.39.17-.689.172-.3.384-.485.214-.186.59-.3.123-.036.168-.057.045-.02.038-.074zm.047.351q-.398.081-.61.257-.48.448-.48 1.004 0 .074.027.14.026.064.058.064.128 0 .233-.045.105-.045.257-.186.151-.143.273-.353.124-.21.18-.405.056-.195.06-.298.003-.105.002-.178zM43.183 287.561q0 .176-.311.424-.31.248-.641.248-.278 0-.43-.164-.149-.163-.149-.456 0-.493.332-.937.333-.445.727-.445.13 0 .21.085.083.084.083.203 0 .265-.26.508t-.696.477q-.09.047-.09.12 0 .144.083.23.083.086.245.086.37 0 .756-.41.057-.057.086-.057.055 0 .055.088zm-1.197-.269q.73-.434.73-.697 0-.104-.092-.104-.159 0-.359.233-.198.233-.279.568zM43.876 287.945q-.085.31-.159.87l-.048.326q-.012.069-.064.136-.051.069-.094.069-.054 0-.123-.055-.067-.054-.067-.086 0-.095.043-.262.315-1.273.315-2.236l-.001-.145q-.004-.186.065-.27.07-.085.159-.085.041 0 .079.066.038.064.038.182 0 .167-.035.405-.044.3-.046.345.257-.448.544-.7.288-.251.534-.251.174 0 .293.13.12.13.12.323 0 .561-.43 1.02-.43.458-.839.458-.102 0-.162-.052-.058-.052-.122-.188zm1.07-1.386q-.243 0-.602.454-.358.455-.358.708 0 .062.07.12.071.06.18.06.246 0 .567-.364.32-.365.32-.716 0-.126-.052-.193-.05-.07-.125-.07zM2.362 293.366h.316v.906l.894-.906h.389l-.737.746.646.92h.244v.751h-.317v-.487h-.096l-.684-.974-.34.345v.629h-.315zM4.905 295.382q-.236 0-.39-.18-.153-.179-.153-.442 0-.445.298-.875.3-.433.717-.433.276 0 .446.212.172.212.172.505 0 .448-.355.83-.353.383-.735.383zm-.24-.667q0 .174.073.284.074.11.194.11.257 0 .516-.28.258-.283.258-.627 0-.212-.1-.343-.098-.133-.265-.133-.278 0-.477.341-.199.34-.199.648zM7.363 293.892q-.041-.002-.081.079-.357.713-.54.968-.015.022-.039.065-.215.385-.315.385-.134 0-.134-.13 0-.117.167-.318.162-.191.425-.648.264-.458.427-.822.031-.065.093-.065.026 0 .092.024.067.023.086.05.019.028.084.32.212 1.056.446 1.253.056.048.066.065.01.016.01.045 0 .053-.034.098-.035.043-.067.055-.033.012-.135.012-.036 0-.169-.177-.132-.18-.31-.973-.043-.214-.072-.286zM9.814 293.29q-.062-.268-.153-.375-.091-.107-.241-.165-.15-.059-.27-.059-.047 0-.139.036-.09.035-.137.064-.068.04-.124.04-.066 0-.066-.07 0-.073.112-.204t.395-.131h.074q.28 0 .496.148.215.146.305.42.091.274.091.736 0 .313-.198.76-.198.446-.505.675-.305.229-.65.229-.123 0-.232-.143-.108-.143-.108-.355 0-.391.17-.69.172-.299.384-.485.214-.186.59-.3.124-.036.168-.056.045-.021.038-.074zm.047.352q-.398.08-.61.257-.479.447-.479 1.004 0 .074.026.14.026.063.058.063.128 0 .233-.045.105-.045.257-.186.151-.143.274-.353.124-.21.179-.405.057-.194.06-.298.003-.105.002-.177zM11.525 294.669q-.241.323-.477.485-.236.162-.433.162-.132 0-.229-.112-.096-.112-.096-.287 0-.453.404-.975.405-.524.805-.524.145 0 .215.165.023.055.07.055.139 0 .139.107 0 .054-.018.147-.093.508-.093.716 0 .417.159.5.076.041.076.101 0 .054-.074.107-.075.055-.143.055-.133 0-.22-.182-.085-.183-.085-.52zm-.105-.97q-.228 0-.53.427-.3.425-.3.706 0 .198.13.198.19 0 .526-.382t.336-.703q0-.246-.162-.246zM13.702 294.17q.019-.035.06-.432.031-.317.202-.317.14 0 .14.14 0 .033-.025.133-.132.55-.132.921 0 .403.132.522.07.064.07.103 0 .049-.072.088-.068.04-.125.04-.269 0-.269-.83 0-.055-.041-.055-.162 0-.397.018-.234.02-.335.049-.1.029-.124.055-.023.024-.042.132-.017.107-.017.223v.212q0 .184-.169.184-.141 0-.141-.184 0-.121.031-.307.057-.341.114-1.175.007-.108.019-.138.012-.029.062-.063.051-.037.112-.037.124 0 .124.102 0 .016-.04.258-.041.243-.041.378 0 .094.065.094.131 0 .479-.043.348-.045.36-.07zM14.91 293.344q.022-.016.05-.016.042 0 .072.116 0 .074-.04.188-.117.325-.117.454 0 .035.02.038.397-.38.735-.38.208 0 .35.158.14.157.14.288 0 .4-.408.768-.406.367-.82.367-.184 0-.287-.152-.102-.153-.102-.437 0-.309.077-.682.078-.374.124-.5.02-.053.035-.108.017-.07.17-.102zm-.081 1.08q-.035.191-.035.382 0 .26.205.26.23 0 .517-.275.286-.276.286-.536 0-.107-.057-.179t-.157-.072q-.136 0-.269.069-.13.067-.292.218-.062.059-.1.092-.036.03-.098.04zm1.734.396q0 .131.036.295.007.03.007.051 0 .031-.057.081-.056.049-.12.049-.167 0-.167-.307 0-.305.132-1.023.049-.262.049-.317 0-.109.04-.184.039-.078.111-.078.088 0 .138.043.052.041.052.093t-.024.143q-.135.491-.166.687-.03.197-.03.467zM17.598 295.394q-.258 0-.398-.148-.137-.149-.137-.416 0-.45.356-.947.357-.5.663-.5.14 0 .24.152.101.15.101.319 0 .101-.044.176-.043.072-.088.072-.1 0-.141-.202-.047-.217-.135-.217-.179 0-.424.426-.244.425-.244.718t.332.293q.254 0 .596-.238.12-.084.178-.084.058 0 .058.067 0 .13-.308.33-.308.199-.605.199zM21.17 294.236q.221.036.345.164.124.127.124.312 0 .29-.246.485-.246.193-.648.193-.239 0-.413-.103-.172-.103-.172-.23 0-.102.119-.102.017 0 .053.029.19.163.45.163.229 0 .394-.12t.165-.314q0-.127-.094-.211-.093-.087-.217-.087-.095 0-.333.075-.046.015-.1.015-.103 0-.103-.14 0-.048.048-.077.05-.03.212-.067.491-.112.491-.398 0-.086-.062-.141-.06-.057-.157-.057-.179 0-.382.158-.119.093-.181.093-.105 0-.105-.098 0-.13.243-.263.244-.137.468-.137.224 0 .352.12.129.118.129.25 0 .31-.38.488zM23.185 294.669q-.242.323-.478.485-.236.162-.432.162-.133 0-.229-.112t-.096-.287q0-.453.404-.975.405-.524.805-.524.144 0 .215.165.022.055.07.055.139 0 .139.107 0 .054-.018.147-.093.508-.093.716 0 .417.159.5.076.041.076.101 0 .054-.075.107-.074.055-.143.055-.132 0-.218-.182-.086-.183-.086-.52zm-.105-.97q-.228 0-.53.427-.3.425-.3.706 0 .198.13.198.19 0 .526-.382.335-.382.335-.703 0-.246-.161-.246zM25.395 293.933q-.16.003-.686.95-.177.318-.207.347-.029.028-.108.05-.078.023-.13.023-.115 0-.115-.45 0-.253.109-.916.045-.27.045-.385 0-.113.101-.113.191 0 .191.275 0 .13-.063.507-.074.43-.076.523.107-.103.313-.453.293-.478.431-.606.14-.13.288-.13.112 0 .177.15.067.15.081.716.003.14.026.21.022.069.033.069.08 0 .351-.552.145-.29.28-.442.139-.152.306-.152.14 0 .203.145.064.143.091.425.026.286.08.524.055.238.2.305.097.046.097.108 0 .06-.082.124-.083.064-.152.064-.138 0-.246-.169-.109-.169-.164-.73-.024-.226-.046-.32-.023-.095-.07-.095-.073 0-.173.138-.098.137-.319.56-.172.328-.262.439-.088.108-.17.108-.074 0-.133-.058-.058-.06-.074-.143-.015-.085-.033-.412-.025-.544-.094-.634zM29.02 293.933q-.16.003-.685.95-.177.318-.207.347-.029.028-.108.05-.078.023-.13.023-.115 0-.115-.45 0-.253.109-.916.044-.27.044-.385 0-.113.102-.113.191 0 .191.275 0 .13-.063.507-.074.43-.076.523.107-.103.313-.453.293-.478.43-.606.14-.13.289-.13.112 0 .177.15.067.15.081.716.003.14.026.21.022.069.033.069.08 0 .351-.552.145-.29.28-.442.139-.152.306-.152.14 0 .203.145.064.143.091.425.026.286.08.524.055.238.2.305.097.046.097.108 0 .06-.082.124-.083.064-.152.064-.138 0-.246-.169-.109-.169-.164-.73-.024-.226-.046-.32-.023-.095-.07-.095-.073 0-.173.138-.098.137-.319.56-.172.328-.262.439-.088.108-.17.108-.074 0-.133-.058-.058-.06-.074-.143-.015-.085-.033-.412-.025-.544-.094-.634zM32.507 294.669q-.241.323-.477.485-.236.162-.432.162-.133 0-.23-.112-.096-.112-.096-.287 0-.453.405-.975.405-.524.804-.524.145 0 .216.165.022.055.07.055.138 0 .138.107 0 .054-.017.147-.093.508-.093.716 0 .417.158.5.076.041.076.101 0 .054-.074.107-.074.055-.143.055-.133 0-.219-.182-.086-.183-.086-.52zm-.105-.97q-.227 0-.529.427-.301.425-.301.706 0 .198.13.198.19 0 .526-.382t.336-.703q0-.246-.162-.246zM33.749 295.096q-.084.31-.158.87l-.049.325q-.012.07-.063.136-.052.07-.095.07-.054 0-.122-.056-.068-.053-.068-.086 0-.095.043-.262.316-1.273.316-2.236l-.002-.144q-.003-.186.065-.27.07-.085.159-.085.041 0 .08.065.037.064.037.183 0 .167-.034.405-.045.3-.047.344.257-.448.544-.7.288-.25.534-.25.174 0 .293.13.12.13.12.322 0 .562-.43 1.02-.43.458-.839.458-.101 0-.162-.051-.058-.052-.122-.188zm1.07-1.387q-.243 0-.601.455-.359.455-.359.708 0 .062.07.12.071.059.18.059.246 0 .567-.363.32-.366.32-.717 0-.126-.052-.193-.05-.069-.125-.069zM36.097 293.344q.022-.016.05-.016.043 0 .072.116 0 .074-.04.188-.117.325-.117.454 0 .035.021.038.396-.38.734-.38.208 0 .35.158.14.157.14.288 0 .4-.407.768-.407.367-.82.367-.185 0-.288-.152-.102-.153-.102-.437 0-.309.078-.682.077-.374.124-.5.019-.053.034-.108.018-.07.17-.102zm-.081 1.08q-.035.191-.035.382 0 .26.205.26.231 0 .517-.275.286-.276.286-.536 0-.107-.057-.179t-.156-.072q-.137 0-.27.069-.13.067-.292.218-.062.059-.1.092-.036.03-.098.04zm1.734.396q0 .131.037.295.007.03.007.051 0 .031-.057.081-.057.049-.12.049-.168 0-.168-.307 0-.305.133-1.023.048-.262.048-.317 0-.109.04-.184.04-.078.111-.078.088 0 .138.043.052.041.052.093t-.024.143q-.135.491-.166.687-.03.197-.03.467zM3.722 301.567q-.023.388-.075.76-.025.07-.13.07-.152 0-.152-.154 0-.064.036-.238.026-.152.028-.205.001-.055.008-.119.007-.065-.001-.103-.088.012-.359.21-.27.198-.463.393v-.002q-.012.007-.076.129-.091.182-.201.182-.052 0-.116-.044-.062-.045-.062-.09 0-.107.2-.317.202-.212.444-.362.297-.182.409-.294-.05-.07-.195-.155-.146-.086-.272-.193l-.041-.031q-.223-.15-.297-.224-.072-.076-.072-.162 0-.057.043-.103.043-.049.084-.049.026 0 .093.028.068.028.097.059l.084.079q.446.437.706.556.014 0 .035-.033.017-.058.017-.187 0-.12-.026-.27-.013-.078-.013-.102 0-.081.062-.131.063-.05.137-.05.085 0 .116.034.03.035.03.117l-.022.548v.034q0 .025.002.04.06 0 .126-.046.065-.049.194-.19.567-.587.657-.587.05 0 .091.041.041.041.041.096 0 .028-.19.235-.187.205-.387.377-.256.22-.256.23 0 .011.213.178.231.181.319.257.012.009.034.022.255.157.32.235.063.077.063.13 0 .05-.043.104-.043.052-.085.052-.153 0-.711-.516-.248-.23-.3-.242-.022-.003-.034-.01-.017-.004-.062-.001-.045.002-.048.013zM6.493 301.724q-.241.324-.477.486-.236.162-.432.162-.133 0-.23-.112-.096-.112-.096-.288 0-.453.405-.975.405-.523.804-.523.145 0 .216.165.022.055.07.055.138 0 .138.107 0 .053-.017.146-.093.508-.093.717 0 .417.158.5.076.04.076.101 0 .053-.074.107-.074.055-.143.055-.133 0-.219-.183-.086-.182-.086-.52zm-.105-.97q-.227 0-.529.428-.301.425-.301.706 0 .198.13.198.19 0 .526-.383.336-.382.336-.702 0-.247-.162-.247zM8.67 301.226q.02-.036.06-.432.032-.317.202-.317.14 0 .14.14 0 .032-.024.132-.133.55-.133.922 0 .403.133.522.069.063.069.103 0 .048-.071.088-.069.04-.126.04-.269 0-.269-.83 0-.056-.04-.056-.163 0-.397.02-.234.018-.336.047-.1.03-.124.055-.022.025-.041.133-.018.107-.018.222v.212q0 .184-.168.184-.142 0-.142-.184 0-.12.031-.306.057-.342.114-1.175.007-.109.019-.138.012-.03.062-.064.052-.036.112-.036.124 0 .124.102 0 .015-.04.258t-.04.377q0 .095.065.095.13 0 .478-.043.348-.045.36-.07zM9.878 300.4q.022-.016.05-.016.043 0 .072.115 0 .075-.04.188-.117.326-.117.455 0 .034.021.038.396-.38.734-.38.208 0 .35.158.14.156.14.287 0 .4-.407.769-.407.366-.82.366-.185 0-.288-.151-.102-.153-.102-.438 0-.308.078-.682.077-.374.124-.5.019-.053.034-.108.018-.069.17-.101zm-.081 1.08q-.034.19-.034.382 0 .26.204.26.231 0 .517-.276.286-.275.286-.535 0-.107-.057-.18-.056-.072-.156-.072-.136 0-.27.07-.13.066-.292.218-.062.059-.1.091-.036.031-.098.042zm1.735.396q0 .13.036.294.007.031.007.052 0 .031-.057.081-.057.048-.12.048-.168 0-.168-.306 0-.305.133-1.024.048-.261.048-.317 0-.108.04-.184.04-.077.112-.077.087 0 .137.043.052.041.052.093 0 .051-.024.143-.134.49-.165.687-.031.196-.031.467zM13.37 301.743q-.262.246-.524.386t-.401.14q-.16 0-.257-.137-.095-.137-.095-.337 0-.291.11-.688.112-.397.17-.45.06-.054.156-.054.052 0 .08.062.03.06.03.124 0 .043-.04.112-.225.39-.225.808 0 .096.036.17.036.072.11.072.095 0 .233-.056.14-.059.313-.19.174-.13.235-.212.06-.08.084-.184.026-.103.036-.448.01-.344.167-.344.093 0 .12.05.028.048.028.186 0 .103-.03.448-.007.077-.01.142-.05.92-.275 1.442-.225.522-.656.522-.338 0-.601-.177-.262-.176-.262-.298 0-.057.026-.112.027-.055.069-.055.02 0 .044.032.226.347.695.347.298 0 .446-.366.148-.363.188-.935zM15.342 301.724q-.241.324-.477.486-.236.162-.433.162-.132 0-.229-.112-.096-.112-.096-.288 0-.453.405-.975.404-.523.804-.523.145 0 .215.165.023.055.07.055.139 0 .139.107 0 .053-.017.146-.093.508-.093.717 0 .417.158.5.076.04.076.101 0 .053-.074.107-.074.055-.143.055-.133 0-.219-.183-.086-.182-.086-.52zm-.105-.97q-.228 0-.53.428-.3.425-.3.706 0 .198.13.198.19 0 .526-.383.336-.382.336-.702 0-.247-.162-.247zM16.584 302.151q-.085.31-.159.87l-.048.326q-.012.069-.064.136-.051.069-.094.069-.054 0-.123-.055-.067-.054-.067-.086 0-.095.043-.262.315-1.273.315-2.236l-.001-.145q-.004-.186.065-.27.07-.085.159-.085.041 0 .079.066.038.064.038.182 0 .167-.035.405-.044.3-.046.345.256-.448.544-.7.288-.251.534-.251.174 0 .293.13.12.13.12.323 0 .561-.43 1.02-.43.458-.839.458-.102 0-.162-.052-.058-.052-.122-.188zm1.07-1.386q-.243 0-.602.454-.358.455-.358.708 0 .062.07.121.071.059.18.059.246 0 .567-.364.32-.365.32-.716 0-.126-.052-.193-.05-.07-.126-.07zM19.498 300.947q-.041-.002-.08.08-.357.713-.54.968-.015.022-.04.065-.215.384-.315.384-.134 0-.134-.129 0-.117.167-.319.162-.19.426-.647.263-.459.427-.822.03-.066.093-.066.026 0 .091.025.067.022.086.05.02.027.085.32.212 1.056.446 1.252.055.048.065.066.01.015.01.044 0 .054-.034.099-.034.043-.067.055-.033.012-.134.012-.037 0-.17-.178-.132-.179-.31-.973-.042-.213-.072-.286zM21.8 301.724q-.241.324-.477.486-.236.162-.433.162-.132 0-.229-.112-.096-.112-.096-.288 0-.453.404-.975.405-.523.805-.523.145 0 .215.165.023.055.07.055.139 0 .139.107 0 .053-.018.146-.093.508-.093.717 0 .417.159.5.076.04.076.101 0 .053-.074.107-.075.055-.143.055-.133 0-.22-.183-.085-.182-.085-.52zm-.105-.97q-.228 0-.53.428-.3.425-.3.706 0 .198.13.198.19 0 .526-.383.336-.382.336-.702 0-.247-.162-.247zM23.042 302.151q-.085.31-.159.87l-.048.326q-.012.069-.064.136-.051.069-.095.069-.053 0-.122-.055-.067-.054-.067-.086 0-.095.043-.262.315-1.273.315-2.236l-.001-.145q-.004-.186.065-.27.069-.085.158-.085.042 0 .08.066.038.064.038.182 0 .167-.035.405-.045.3-.046.345.256-.448.544-.7.288-.251.534-.251.174 0 .293.13.12.13.12.323 0 .561-.43 1.02-.43.458-.84.458-.1 0-.161-.052-.059-.052-.122-.188zm1.07-1.386q-.244 0-.602.454-.358.455-.358.708 0 .062.07.121.071.059.18.059.246 0 .566-.364.32-.365.32-.716 0-.126-.05-.193-.05-.07-.127-.07zM3.119 307.795q-.254 0-.383.167-.127.165-.158.384H3.66q-.031-.219-.16-.384-.128-.167-.381-.167zm.001 1.488q.257 0 .402-.2.144-.2.144-.455H2.574q0 .255.145.455t.401.2zm.002-1.757q.413 0 .65.269.235.268.235.744 0 .473-.236.744-.236.269-.649.269-.415 0-.651-.27-.234-.27-.234-.743 0-.476.234-.744.236-.27.651-.27zM5.697 308.377q.02-.036.06-.433.032-.317.202-.317.14 0 .14.14 0 .033-.024.133-.133.55-.133.921 0 .403.133.522.068.064.068.103 0 .049-.07.088-.07.04-.126.04-.269 0-.269-.83 0-.055-.041-.055-.162 0-.396.019-.234.018-.336.048-.1.029-.124.055-.022.024-.041.132-.018.107-.018.223v.212q0 .184-.168.184-.142 0-.142-.184 0-.121.031-.307.057-.341.114-1.175.007-.108.019-.138.012-.029.062-.063.052-.037.112-.037.124 0 .124.102 0 .016-.04.258-.041.243-.041.378 0 .094.065.094.131 0 .48-.043.347-.045.36-.07zM7.98 308.918q0 .175-.312.423-.31.248-.64.248-.278 0-.43-.163-.15-.164-.15-.457 0-.492.333-.937.332-.444.727-.444.129 0 .21.084.083.085.083.204 0 .265-.26.508t-.696.477q-.09.046-.09.12 0 .143.083.23.082.086.244.086.37 0 .756-.41.057-.057.087-.057.055 0 .055.088zm-1.198-.269q.73-.434.73-.698 0-.103-.092-.103-.159 0-.358.233-.199.232-.28.568zM8.672 309.302q-.084.31-.158.87l-.049.325q-.012.07-.063.136-.052.07-.095.07-.053 0-.122-.056-.068-.053-.068-.086 0-.095.044-.262.315-1.273.315-2.236l-.002-.144q-.003-.186.066-.27.068-.085.158-.085.041 0 .08.065.037.064.037.183 0 .167-.034.405-.045.3-.047.344.257-.448.544-.7.288-.25.534-.25.174 0 .293.13.12.13.12.322 0 .562-.43 1.02-.43.458-.839.458-.101 0-.162-.051-.058-.052-.122-.188zm1.07-1.387q-.243 0-.601.455-.359.455-.359.708 0 .062.071.12.07.059.18.059.245 0 .566-.363.32-.366.32-.717 0-.126-.051-.193-.05-.069-.126-.069zM13.044 307.712q-.065-.178-.303-.384-.224-.193-.224-.331 0-.11.072-.177.073-.07.269-.124.245-.068.498-.152.253-.086.305-.11.032-.016.067-.016.057 0 .057.102 0 .057-.138.155t-.488.183q-.22.055-.27.082-.048.026-.048.054 0 .062.134.179.506.442.506 1.11 0 .288-.151.617-.152.328-.405.488-.251.16-.493.16-.217 0-.329-.212-.112-.212-.112-.467 0-.45.278-.85.279-.4.589-.4.041 0 .103.053.057.052.083.04zm-.751 1.164q0 .192.05.3.052.109.134.109.11 0 .298-.137.188-.136.302-.403.115-.267.115-.5 0-.192-.055-.31-.053-.121-.1-.121-.307 0-.525.373-.22.374-.22.69zM14.405 307.195q-.036 0-.055-.077-.007-.024-.02-.054-.046-.112-.046-.194 0-.07.081-.14.083-.072.183-.072.05 0 .112.04.062.037.062.073 0 .057-.043.193-.042.136-.135.185-.091.046-.14.046zm-.226 1.924q0 .131.036.295.007.03.007.051 0 .031-.057.08-.057.05-.12.05-.167 0-.167-.307 0-.317.13-1.002.045-.24.045-.295 0-.109.04-.184.04-.078.112-.078.088 0 .138.043.051.042.051.093 0 .052-.024.136-.129.455-.16.651-.03.197-.03.467zM15.836 308.098q-.041-.002-.08.079-.357.713-.54.968-.015.022-.04.066-.215.384-.315.384-.134 0-.134-.13 0-.117.167-.318.162-.191.425-.648.264-.458.428-.822.03-.065.093-.065.025 0 .09.024.068.023.087.05.019.028.084.32.212 1.056.447 1.253.055.048.065.065.01.016.01.045 0 .053-.034.098-.034.043-.067.055-.033.012-.135.012-.036 0-.168-.177-.133-.18-.31-.973-.043-.214-.073-.286zM17.531 307.195q-.036 0-.055-.077-.007-.024-.019-.054-.046-.112-.046-.194 0-.07.08-.14.083-.072.183-.072.05 0 .112.04.062.037.062.073 0 .057-.043.193-.041.136-.134.185-.092.046-.14.046zm-.225 1.924q0 .131.036.295.007.03.007.051 0 .031-.057.08-.057.05-.12.05-.168 0-.168-.307 0-.317.131-1.002.045-.24.045-.295 0-.109.04-.184.04-.078.111-.078.088 0 .138.043.052.042.052.093 0 .052-.024.136-.13.455-.16.651-.031.197-.031.467zM20.194 307.993q-.14.224-.392.758-.057.12-.116.232-.019.036-.072.16-.181.42-.315.42-.107 0-.157-.025-.048-.026-.093-.141-.045-.116-.133-.543-.102-.484-.138-.596-.117.264-.208.508-.138.36-.267.588-.13.225-.186.27-.057.046-.109.046-.053 0-.096-.04-.043-.042-.043-.082.01-.07.024-.088.15-.184.258-.392.109-.209.276-.626.169-.417.215-.684.023-.113.167-.113.085 0 .116.025.03.026.06.106.031.079.036.14.01.075.059.33.043.24.057.34.024.142.084.375.062.232.096.232.025 0 .07-.105l.144-.334q.04-.091.084-.18l.199-.404q.161-.334.248-.484.087-.152.117-.183.03-.03.069-.03.065 0 .146.036.081.034.084.077.004.043.016.36l.022.538q.01.256.031.437.021.18.073.29.08.175.08.272 0 .082-.068.113-.067.031-.126.031-.12 0-.186-.193-.064-.193-.093-1.105-.01-.274-.033-.336zM22.962 309.6q-.258 0-.398-.148-.137-.148-.137-.415 0-.45.356-.948.357-.5.663-.5.14 0 .24.152.101.15.101.319 0 .101-.044.176-.043.072-.088.072-.1 0-.141-.202-.047-.217-.135-.217-.179 0-.424.426-.244.425-.244.718t.332.293q.254 0 .596-.238.12-.084.178-.084.058 0 .058.067 0 .13-.308.33-.308.199-.605.199zM25.453 308.177q-.09 0-.196.117-.105.117-.322.525-.286.548-.37.624-.083.076-.138.076-.204 0-.204-.197 0-.082.028-.234.095-.52.095-1.097 0-.066.055-.145.057-.08.107-.08.09 0 .127.054.038.055.038.223 0 .174-.103.716-.035.18-.035.228 0 .027.014.027.026 0 .24-.412.215-.418.377-.589.161-.17.356-.17.155 0 .252.141.098.141.143.515.048.426.086.53.04.104.124.104.053 0 .134-.038.014-.007.02-.007.075 0 .075.086 0 .076-.102.162-.101.084-.244.084-.147 0-.228-.115-.079-.117-.126-.622-.048-.506-.203-.506zM27.122 309.588q-.236 0-.389-.18-.153-.179-.153-.442 0-.445.298-.875.3-.433.716-.433.276 0 .446.212.173.212.173.505 0 .448-.355.83-.353.383-.736.383zm-.24-.667q0 .174.073.284.074.11.195.11.257 0 .515-.28.258-.283.258-.627 0-.212-.1-.343-.098-.133-.265-.133-.277 0-.477.341-.198.34-.198.648zM28.947 309.302q-.085.31-.159.87l-.048.325q-.012.07-.064.136-.052.07-.095.07-.053 0-.122-.056-.067-.053-.067-.086 0-.095.043-.262.315-1.273.315-2.236l-.002-.144q-.003-.186.066-.27.069-.085.158-.085.042 0 .08.065.038.064.038.183 0 .167-.035.405-.045.3-.046.344.256-.448.544-.7.288-.25.534-.25.174 0 .293.13.12.13.12.322 0 .562-.43 1.02-.431.458-.84.458-.1 0-.161-.051-.059-.052-.122-.188zm1.07-1.387q-.244 0-.602.455t-.358.708q0 .062.07.12.071.059.18.059.246 0 .566-.363.32-.366.32-.717 0-.126-.051-.193-.05-.069-.126-.069zM32.195 308.14q-.16.002-.685.948-.178.319-.207.348-.03.028-.109.05-.077.023-.129.023-.115 0-.115-.45 0-.253.108-.916.045-.27.045-.385 0-.113.102-.113.191 0 .191.275 0 .13-.064.507-.074.43-.076.523.107-.103.314-.453.293-.478.43-.606.14-.13.288-.13.112 0 .178.15.067.15.08.716.004.14.026.21.023.069.033.069.081 0 .352-.552.144-.29.28-.442.138-.152.305-.152.14 0 .204.145.063.143.09.425.027.286.08.524.055.238.2.305.098.046.098.108 0 .06-.083.124-.082.064-.151.064-.138 0-.246-.169-.109-.168-.164-.73-.024-.226-.047-.32-.022-.095-.07-.095-.073 0-.173.138-.098.137-.318.56-.172.329-.262.439-.088.108-.17.108-.075 0-.133-.058-.059-.06-.074-.143-.016-.085-.033-.412-.026-.544-.095-.634zM3.432 315.93q-.241.324-.477.486-.236.162-.432.162-.133 0-.23-.112-.096-.112-.096-.288 0-.453.405-.975.405-.523.804-.523.145 0 .216.165.022.055.07.055.138 0 .138.107 0 .053-.017.146-.093.508-.093.717 0 .417.158.5.076.04.076.101 0 .053-.074.107-.074.055-.143.055-.133 0-.219-.183-.086-.182-.086-.52zm-.105-.97q-.227 0-.529.428-.301.425-.301.706 0 .198.13.198.19 0 .526-.383.336-.382.336-.702 0-.247-.162-.247zM4.69 315.873q.017-.03.04-.086.118-.269.216-.42.098-.153.216-.293.118-.14.215-.212.098-.072.177-.1.08-.029.154-.029.15 0 .244.091.095.09.095.21 0 .054-.034.097-.033.043-.102.043-.072 0-.133-.064-.062-.063-.129-.063-.18 0-.496.434-.317.434-.386.956-.017.134-.065.177-.049.043-.136.043-.085 0-.123-.125-.038-.126-.038-.424 0-.081.009-.357.01-.325.041-.525.006-.033.018-.153.012-.133.029-.185.019-.051.074-.096.057-.045.122-.045.064 0 .095.041.033.04.033.086 0 .068-.035.19-.04.136-.046.188-.005.058-.02.122-.016.074-.034.39l-.001.063zM6.994 314.82q.178-.015.335-.034.155-.017.258-.017.13 0 .165.024t.035.085q0 .14-.195.151-.25.016-.46.043-.21.028-.227.047-.016.017-.104.41-.087.39-.087.508 0 .19.05.253.05.062.15.062.148 0 .411-.222.102-.091.157-.091.074 0 .074.079 0 .124-.24.322-.237.196-.487.196-.417 0-.417-.49 0-.178.086-.55.085-.37.085-.444 0-.026-.042-.026l-.179.015q-.22 0-.22-.175 0-.1.101-.1h.355q.036 0 .064-.033.027-.033.08-.219.054-.188.096-.37.041-.181.162-.181.074 0 .115.052.041.051.041.096 0 .024-.062.247zM10.832 315.973q0 .176-.312.424-.31.248-.64.248-.278 0-.43-.164-.15-.163-.15-.456 0-.493.333-.937.333-.445.727-.445.13 0 .21.085.083.084.083.203 0 .265-.26.508t-.696.477q-.09.047-.09.121 0 .143.083.229.083.086.245.086.37 0 .756-.41.057-.057.086-.057.055 0 .055.088zm-1.197-.268q.73-.435.73-.698 0-.103-.093-.103-.158 0-.358.232-.198.233-.279.569zM12.427 315.844q-.23.37-.489.572-.258.2-.475.2-.167 0-.266-.128-.096-.129-.096-.343 0-.435.353-.894.355-.458.765-.458.179 0 .332.154l.241-1.127q.026-.115.095-.155.07-.04.11-.04.121 0 .121.214 0 .038-.08.283-.125.378-.239.931-.112.552-.112.886 0 .344.15.344.097 0 .2-.063.043-.031.081-.031.055 0 .055.072 0 .088-.155.203-.153.116-.315.116-.284 0-.284-.548 0-.093.008-.188zm-.225-.806q-.28 0-.553.379-.274.377-.274.697 0 .216.143.216.134 0 .325-.141.193-.142.397-.45.203-.31.203-.465 0-.076-.07-.155-.07-.081-.171-.081zM14.74 315.808q-.22.37-.45.573-.231.204-.43.204-.113 0-.232-.133-.117-.133-.117-.408 0-.226.108-.665.092-.367.092-.515.05-.103.156-.103.073 0 .116.051.043.05.043.105 0 .12-.085.343-.16.432-.16.743 0 .282.131.282.167 0 .426-.284.258-.284.442-.793.073-.203.117-.263.047-.062.124-.062.118 0 .118.155 0 .019-.033.126-.104.377-.104.713 0 .403.133.522.069.063.069.103 0 .048-.07.088-.07.04-.126.04-.12 0-.195-.18-.074-.179-.074-.528v-.057l.002-.057zM16.146 316.655q-.258 0-.398-.148-.137-.148-.137-.415 0-.45.356-.947.357-.5.663-.5.14 0 .24.152.101.15.101.318 0 .102-.044.176-.043.072-.088.072-.1 0-.142-.201-.046-.217-.134-.217-.179 0-.424.425-.244.426-.244.719t.332.293q.253 0 .596-.238.12-.085.178-.085.058 0 .058.068 0 .13-.308.33-.308.198-.605.198zM18.625 315.93q-.241.324-.477.486-.236.162-.432.162-.133 0-.23-.112-.096-.112-.096-.288 0-.453.405-.975.405-.523.804-.523.145 0 .215.165.023.055.071.055.138 0 .138.107 0 .053-.017.146-.093.508-.093.717 0 .417.158.5.076.04.076.101 0 .053-.074.107-.074.055-.143.055-.133 0-.219-.183-.086-.182-.086-.52zm-.105-.97q-.227 0-.529.428-.301.425-.301.706 0 .198.13.198.19 0 .526-.383.336-.382.336-.702 0-.247-.162-.247zM20.236 314.82q.177-.015.334-.034.155-.017.258-.017.131 0 .166.024.034.024.034.085 0 .14-.195.151-.25.016-.46.043-.21.028-.227.047-.015.017-.103.41-.088.39-.088.508 0 .19.05.253.05.062.15.062.148 0 .411-.222.102-.091.157-.091.074 0 .074.079 0 .124-.24.322-.237.196-.487.196-.417 0-.417-.49 0-.178.087-.55.084-.37.084-.444 0-.026-.041-.026l-.18.015q-.22 0-.22-.175 0-.1.102-.1h.354q.037 0 .064-.033.028-.033.081-.219.053-.188.095-.37.041-.181.162-.181.074 0 .115.052.042.051.042.096 0 .024-.063.247zM21.743 314.25q-.036 0-.055-.077-.007-.024-.02-.053-.046-.112-.046-.195 0-.069.081-.14.083-.072.183-.072.05 0 .112.04.062.038.062.074 0 .057-.043.193-.042.136-.135.184-.09.047-.14.047zm-.226 1.925q0 .13.036.294.007.031.007.052 0 .031-.057.08-.056.05-.12.05-.167 0-.167-.307 0-.317.13-1.003.045-.24.045-.294 0-.109.04-.185.04-.077.112-.077.088 0 .138.043.052.041.052.093t-.025.136q-.129.455-.16.651-.03.196-.03.467zM22.71 316.643q-.235 0-.388-.179-.154-.179-.154-.443 0-.444.298-.875.3-.432.717-.432.275 0 .446.212.172.212.172.505 0 .447-.355.83-.353.382-.735.382zm-.239-.666q0 .174.073.284.074.11.194.11.257 0 .516-.28.258-.283.258-.628 0-.212-.1-.342-.098-.133-.265-.133-.278 0-.477.341-.199.34-.199.648zM25.376 315.233q-.09 0-.197.117-.105.117-.322.525-.286.548-.37.624-.083.075-.138.075-.203 0-.203-.196 0-.083.027-.234.095-.52.095-1.097 0-.066.055-.145.057-.081.107-.081.09 0 .127.055.038.055.038.222 0 .174-.103.717-.034.179-.034.227 0 .028.013.028.026 0 .24-.412.215-.419.377-.59.162-.17.357-.17.155 0 .251.142.098.14.143.515.048.425.086.53.04.104.124.104.054 0 .135-.038.013-.007.02-.007.074 0 .074.086 0 .076-.101.162-.102.084-.245.084-.146 0-.227-.115-.08-.117-.126-.622-.048-.507-.203-.507zM28.82 316.163q0-.112-.277-.255-.35-.18-.473-.286-.123-.109-.123-.241 0-.343.343-.569.345-.225.562-.225.14 0 .201.048.064.048.064.167 0 .053-.046.091-.045.038-.071.038-.019 0-.074-.026-.055-.024-.073-.024-.086 0-.35.126-.263.126-.263.284 0 .097.093.176.093.077.334.191.195.093.31.2.118.105.118.248 0 .263-.364.413-.363.148-.694.148-.28 0-.28-.189 0-.066.063-.097.064-.03.127-.03.026 0 .099.017.07.017.093.017.19 0 .41-.064.218-.064.27-.158zM29.782 316.357q-.084.31-.159.87l-.048.326q-.012.069-.063.136-.052.069-.095.069-.054 0-.123-.055-.067-.054-.067-.086 0-.095.043-.262.316-1.273.316-2.236l-.002-.145q-.004-.186.065-.27.07-.085.159-.085.041 0 .08.066.037.064.037.182 0 .168-.034.405-.045.3-.047.345.257-.448.544-.7.288-.251.534-.251.174 0 .293.13.12.13.12.323 0 .561-.43 1.02-.43.458-.839.458-.101 0-.162-.052-.058-.052-.122-.188zm1.07-1.386q-.243 0-.602.454-.358.455-.358.708 0 .062.07.121.071.059.18.059.246 0 .567-.364.32-.365.32-.716 0-.126-.052-.193-.05-.07-.125-.07zM32.233 316.643q-.236 0-.39-.179-.152-.179-.152-.443 0-.444.298-.875.3-.432.716-.432.276 0 .446.212.173.212.173.505 0 .447-.355.83-.353.382-.736.382zm-.24-.666q0 .174.073.284.074.11.195.11.256 0 .515-.28.258-.283.258-.628 0-.212-.1-.342-.098-.133-.265-.133-.277 0-.477.341-.198.34-.198.648zM34.073 315.873q.017-.03.041-.086.117-.269.215-.42.099-.153.216-.293.119-.14.215-.212.098-.072.178-.1.079-.029.153-.029.15 0 .244.091.095.09.095.21 0 .054-.034.097-.033.043-.102.043-.072 0-.133-.064-.062-.063-.129-.063-.179 0-.496.434t-.386.956q-.017.134-.065.177-.048.043-.136.043-.085 0-.123-.125-.037-.126-.037-.424 0-.081.008-.357.01-.325.042-.525.005-.033.017-.153.012-.133.029-.185.019-.051.074-.096.057-.045.122-.045.064 0 .095.041.033.04.033.086 0 .068-.035.19-.04.136-.046.188-.005.058-.019.122-.017.074-.034.39l-.002.063zM36.378 314.82q.177-.015.334-.034.155-.017.258-.017.131 0 .166.024.034.024.034.085 0 .14-.195.151-.25.016-.46.043-.21.028-.227.047-.015.017-.103.41-.088.39-.088.508 0 .19.05.253.05.062.15.062.148 0 .411-.222.102-.091.157-.091.074 0 .074.079 0 .124-.24.322-.237.196-.487.196-.417 0-.417-.49 0-.178.086-.55.085-.37.085-.444 0-.026-.041-.026l-.18.015q-.22 0-.22-.175 0-.1.102-.1h.354q.037 0 .064-.033.028-.033.081-.219.054-.188.095-.37.041-.181.162-.181.074 0 .115.052.042.051.042.096 0 .024-.062.247zM38.197 316.163q0-.112-.276-.255-.35-.18-.474-.286-.122-.109-.122-.241 0-.343.343-.569.344-.225.561-.225.14 0 .202.048.064.048.064.167 0 .053-.047.091-.045.038-.07.038-.02 0-.075-.026-.055-.024-.072-.024-.086 0-.35.126-.263.126-.263.284 0 .097.093.176.093.077.334.191.195.093.31.2.117.105.117.248 0 .263-.363.413-.364.148-.694.148-.28 0-.28-.189 0-.066.063-.097.063-.03.127-.03.026 0 .098.017.07.017.093.017.191 0 .41-.064.219-.064.27-.158zM4.426 320.865l.303.083-.275.358h.73v.262h-1.24v.29h1.13v.261h-1.13v.29H5.28v.248H2.331v-.248h1.323v-.29h-1.13v-.262h1.13v-.289H2.4v-.262h.758l-.234-.303.234-.151.345.454h.634zm-2.191 2.109h1.392l.069-.262.275.041-.055.22h1.46v.249h-1.24q.345.386 1.24.537l-.137.276q-1.02-.235-1.42-.813-.302.606-1.474.785l-.124-.262q.965-.137 1.268-.523H2.235zM6.328 320.865l.234.124q-.248.552-.648.896l-.165-.22q.386-.359.579-.8zm.069.772l.234.124-.276.551v1.723h-.262v-1.35l-.22.247-.165-.234q.468-.496.689-1.061zm1.626-.579h.84v.262h-.84zm-.083.896h.992v.262h-.234v1.447q0 .22-.083.275-.082.07-.51.07l-.04-.263.26.014q.111 0 .111-.138v-1.405H7.94zm-1.268-.358h.469v-.717h.248v.717h.44v.248h-.44v.179l.565.758-.193.275-.372-.702v1.68H7.14v-1.598q-.207.675-.469 1.006l-.206-.193q.385-.496.565-1.405h-.359zm.992-.676l.18.414-.22.096-.166-.413zM9.676 322.216h.193l.303-.303h-.881v-.235h.62v-.303h-.483v-.234h.483v-.29h.261v.29h.414v.234h-.414v.303h.207l.455-.606.234.124-.358.482h.234v.235h-.427l-.262.303h.482v.248l-.427.413v.166l.607-.138.041.248-.648.151v.428q0 .275-.386.275l-.275-.041-.042-.262q.11.041.262.041.152 0 .152-.055v-.33l-.675.124-.055-.276.73-.11v-.359l.372-.303h-.386l-.62.496-.152-.22.441-.33zm1.778-.772h.923v.262h-.151q-.083.964-.386 1.46.248.331.634.607l-.207.262q-.317-.262-.592-.62-.276.372-.676.634l-.193-.249q.414-.248.69-.647l-.359-.744-.11.234-.22-.165q.344-.73.495-1.613l.276.083zm.496.262h-.565l-.096.317q.165.496.372.854.179-.386.262-.937v-.014zM15.52 322.27v1.448q0 .317-.414.317l-.427-.042-.07-.248.483.042q.18 0 .18-.124v-.193h-1.765v.565h-.275v-1.764zm-2.013.497h1.764v-.248h-1.764zm0 .468h1.764v-.234h-1.764zm.965-2.397l.152.303h1.24v.262h-1.737q-.234.317-.482.482l1.46-.152-.15-.124.234-.165.592.551-.22.18-.22-.235q-1.02.138-2.164.193l-.07-.22q.4-.18.703-.51h-.909v-.262h1.406l-.124-.22zM19.392 323.745l-.276.22q-.606-.73-1.047-1.102-.51.62-1.406 1.075l-.22-.275q1.502-.717 1.984-2.095l-.028-.014-1.033.028h-.538v-.33h1.71l.068-.056q.276.193.276.234 0 .042-.055.097-.042.041-.056.096l-.289.634-.22.358q.565.455 1.13 1.13zM22.272 321.14q0-.15.11-.261.11-.11.262-.11.151 0 .248.11.11.11.11.262 0 .151-.11.262-.097.096-.248.096-.152 0-.262-.096-.11-.11-.11-.262zm.206 0q0 .166.166.166.165 0 .165-.165t-.165-.165q-.166 0-.166.165zm.4.717h-1.282v1.695q-.013.373-.427.373l-.33-.042-.042-.344.372.055q.11 0 .11-.138v-1.599h-1.267v-.33l1.254.014v-.552h.33v.552h1.282zm.096 1.613l-.275.193q-.496-.758-.758-1.544l.303-.11q.248.73.73 1.46zm-2.108-1.323q-.207.896-.661 1.53l-.29-.18q.414-.565.648-1.447zM26.24 322.643h-2.549v-.4h2.55zM28.748 322.133l-.289.165-.524-.978.276-.165zm1.172-.744q-.166 1.226-.579 1.75-.413.51-1.475.827l-.165-.317q.923-.234 1.31-.675.399-.441.578-1.64zm-2.026 1.033l-.29.18-.537-.979.276-.165zM31.446 328.188h.317v2.68h-.317zM30.781 330.23q0 .306-.15.48-.138.158-.403.158h-.224v-.317h.13q.17 0 .246-.075.084-.085.084-.267v-2.021h.317z"/><path d="M29.18 329.92h.318q.051.194.057.245.017.178.143.31.072.076.246.076h.13v.317h-.225q-.224 0-.31-.107-.117.48-.55.708-.489.26-1.043.26v-.316q.523 0 .873-.22.376-.239.436-.597.017-.1.017-.224 0-.217-.091-.451z"/><path d="M27.625 330.72q-.124.148-.394.148h-.155v-.317h.06q.17 0 .246-.075.085-.085.085-.267v-.374h.317v.374q0 .322-.159.511zm.086.407h.259v.258h-.259zm-.43 0h.258v.258h-.258z"/><path d="M26.368 330.23v-2.042h.317v2.02q0 .183.084.268.076.075.247.075h.129v.317h-.224q-.265 0-.403-.158-.15-.174-.15-.48zM24.721 330.031q-.29.186-.539.52h.322q.408 0 .63-.108.32-.157.32-.278 0-.232-.239-.265-.063-.009-.146-.009-.13 0-.348.14zm-.103.837h-.476q-.127 0-.261-.072-.112-.06-.18-.165-.175.237-.472.237h-.224v-.317h.13q.17 0 .246-.075.138-.138.138-.31v-.197h.317v.135q0 .04.015.11.016.069.093.155.174-.231.338-.376.263-.236.511-.344.13-.057.276-.057.198 0 .382.067.32.117.32.524 0 .29-.316.479-.348.206-.837.206zm-.76-1.636h.258v.258h-.258z"/><path d="M22.313 330.383q-.026-.073-.048-.157-.023-.086-.043-.26-.207.02-.348.136-.191.153-.188.26.002.07.157.114.155.043.47-.093zm-.115-.665q-.007-.068-.012-.142h.316q.002.29.064.59.036.173.133.31.053.075.246.075h.13v.317h-.225q-.155 0-.28-.088-.078-.053-.143-.155-.238.126-.507.126-.096 0-.196-.026-.326-.082-.326-.348 0-.298.352-.516.187-.118.448-.143zm-.016-.658h.258v.258h-.258zm-.43 0h.258v.258h-.259zM19.38 328.188h.316v2.68h-.317zM18.715 330.23q0 .306-.15.48-.138.158-.403.158h-.224v-.317h.129q.17 0 .246-.075.085-.085.085-.267v-2.021h.317z"/><path d="M17.423 330.72q-.133.148-.395.148h-.155v-.317h.06q.171 0 .247-.075.084-.085.084-.267v-.374h.317v.374q0 .182.085.267.075.075.246.075h.095v.317h-.19q-.258 0-.394-.148zm.086-1.574h.258v.258h-.258zm-.43 0h.258v.258h-.259z"/><path d="M16.05 329.92h.317q.051.194.057.245.017.178.143.31.072.076.246.076h.13v.317h-.225q-.224 0-.31-.107-.117.48-.55.708-.489.26-1.043.26v-.316q.523 0 .873-.22.376-.239.436-.597.017-.1.017-.224 0-.217-.091-.451zM14.494 330.72q-.124.148-.394.148h-.155v-.317h.06q.17 0 .246-.075.085-.085.085-.267v-.374h.317v.374q0 .322-.159.511zm-.129.407h.259v.258h-.259z"/><path d="M13.43 330.72q-.133.148-.395.148h-.155v-.317h.06q.171 0 .247-.075.084-.085.084-.267v-.374h.317v.374q0 .182.085.267.075.075.246.075h.095v.317h-.19q-.258 0-.394-.148zm.086.407h.258v.258h-.258zm-.43 0h.258v.258h-.259z"/><path d="M12.188 330.383q-.026-.073-.048-.157-.023-.086-.043-.26-.207.02-.348.136-.192.153-.188.26.002.07.157.114.155.043.47-.093zm-.116-.665l-.012-.142h.317q.002.29.064.59.036.173.133.31.053.075.246.075h.13v.317h-.225q-.155 0-.28-.088-.078-.053-.143-.155-.238.126-.507.126-.096 0-.196-.026-.326-.082-.326-.348 0-.298.352-.516.187-.118.447-.143zm-.015-.658h.258v.258h-.258zm-.43 0h.258v.258h-.259zM9.254 328.188h.317v2.68h-.317zM8.59 330.23q0 .306-.15.48-.138.158-.403.158h-.224v-.317h.129q.17 0 .246-.075.085-.085.085-.267v-2.021h.316z"/><path d="M7.12 329.556q.315.138.357.396.013.086.013.158 0 .126-.036.21-.05.116-.112.202.068.03.32.03h.22v.316h-.374q-.235 0-.553-.098-.319.098-.553.098h-.374v-.317h.219q.253 0 .32-.029-.05-.069-.112-.201-.036-.08-.036-.21 0-.076.014-.16.04-.245.358-.395.052-.024.164-.024.108 0 .165.024zm-.165.293q-.026 0-.057.017-.097.055-.138.146-.017.036-.017.086 0 .074.041.166.054.117.17.155.11-.037.171-.155.043-.086.043-.166 0-.041-.019-.086-.04-.09-.137-.146-.033-.017-.057-.017zm-.13-.962h.259v.259h-.258z"/><path d="M5.384 329.146h.258v.258h-.258zm.129 1.574q-.133.148-.394.148h-.156v-.317h.06q.171 0 .247-.075.085-.085.085-.267v-.374h.316v.374q0 .182.085.267.076.075.246.075h.095v.317h-.19q-.258 0-.394-.148z"/><path d="M4.448 330.72q-.132.148-.394.148h-.155v-.317h.06q.17 0 .247-.075.084-.085.084-.267v-.374h.317v.374q0 .182.084.267.076.075.247.075h.094v.317h-.19q-.257 0-.394-.148zm.087.407h.258v.258h-.258zm-.431 0h.258v.258h-.258z"/><path d="M3.206 330.383q-.025-.073-.048-.157-.022-.086-.043-.26-.207.02-.348.136-.191.153-.188.26.002.07.157.114.155.043.47-.093zm-.115-.665q-.007-.068-.012-.142h.317q.002.29.064.59.036.173.132.31.054.075.247.075h.129v.317h-.224q-.155 0-.28-.088-.078-.053-.144-.155-.238.126-.506.126-.097 0-.197-.026-.325-.082-.325-.348 0-.298.351-.516.188-.118.448-.143zm-.015-.658h.258v.258h-.258zm-.431 0h.258v.258h-.258zM2.741 338.117q-.258 0-.398-.148-.137-.148-.137-.415 0-.45.356-.948.357-.5.663-.5.14 0 .24.152.102.15.102.319 0 .102-.045.176-.043.072-.088.072-.1 0-.141-.202-.047-.217-.135-.217-.179 0-.423.426-.245.425-.245.718t.332.293q.254 0 .596-.238.12-.084.178-.084.058 0 .058.067 0 .131-.308.33t-.605.199zM4.025 337.137v-.155h1.457q-.02-.328-.198-.498-.176-.172-.491-.172-.183 0-.355.045-.17.044-.34.134v-.3q.171-.072.35-.11.18-.038.364-.038.462 0 .73.269.27.268.27.727 0 .473-.256.752-.255.278-.689.278-.39 0-.617-.25-.225-.252-.225-.682zm.317.093q.003.26.144.415.143.155.378.155.265 0 .423-.15.16-.15.185-.422zM7.497 336.894q.02-.036.06-.432.032-.317.202-.317.14 0 .14.14 0 .032-.024.132-.133.55-.133.921 0 .403.133.522.068.064.068.104 0 .048-.07.088-.069.04-.126.04-.269 0-.269-.831 0-.055-.04-.055-.163 0-.397.019t-.336.048q-.1.03-.124.055-.022.024-.041.133-.018.106-.018.222v.212q0 .184-.168.184-.142 0-.142-.184 0-.12.031-.307.057-.341.114-1.175.007-.108.019-.138.012-.029.062-.063.052-.036.112-.036.124 0 .124.101 0 .016-.04.259-.041.242-.041.377 0 .095.065.095.131 0 .48-.044.347-.044.36-.07zM10.708 337.988v.765h-.336v-.765l-.78-1.898h.336l.603 1.508.603-1.508h.336zM12.77 336.615q-.041-.002-.08.08-.357.712-.54.967-.016.023-.04.066-.215.384-.315.384-.134 0-.134-.13 0-.117.167-.318.162-.191.425-.648.264-.458.428-.821.03-.066.093-.066.025 0 .09.024.068.023.087.05.019.028.084.32.212 1.056.446 1.253.056.048.066.065.01.016.01.045 0 .054-.034.098-.035.043-.067.055-.033.013-.135.013-.036 0-.169-.178-.132-.179-.31-.973-.043-.214-.072-.286zM13.87 337.72l-.003-.035q-.017-.174.107-.366.126-.19.629-.444.32-.162.32-.295 0-.07-.058-.108-.059-.038-.102-.038-.13 0-.496.183-.03.015-.034.015-.142 0-.142-.1 0-.162.28-.269.278-.108.485-.108.13 0 .27.103.142.102.142.274 0 .141-.091.272-.092.131-.457.333-.3.165-.406.272-.106.107-.106.241 0 .098.092.13.091.03.138.03.323 0 .578-.134.088-.045.131-.045.09 0 .09.1 0 .152-.245.253-.244.102-.62.102-.179 0-.332-.102-.154-.103-.17-.263zM16.177 335.712q-.036 0-.055-.077-.007-.024-.019-.054-.046-.112-.046-.194 0-.07.08-.14.083-.072.183-.072.05 0 .112.04.062.037.062.074 0 .056-.043.193-.041.136-.134.184-.091.046-.14.046zm-.225 1.924q0 .131.036.295.007.03.007.052 0 .03-.057.079-.057.05-.12.05-.168 0-.168-.307 0-.317.131-1.002.045-.24.045-.295 0-.108.04-.184.04-.078.111-.078.088 0 .138.043.052.042.052.093 0 .052-.024.136-.13.455-.16.652-.031.196-.031.466zM17.609 336.615q-.042-.002-.081.08-.357.712-.54.967-.015.023-.039.066-.215.384-.315.384-.135 0-.135-.13 0-.117.167-.318.162-.191.426-.648.263-.458.427-.821.031-.066.093-.066.026 0 .091.024.068.023.087.05.019.028.084.32.212 1.056.446 1.253.055.048.066.065.01.016.01.045 0 .054-.035.098-.034.043-.067.055-.032.013-.134.013-.036 0-.169-.178-.133-.179-.31-.973-.043-.214-.072-.286zM20.224 337.435q0 .176-.312.424-.31.248-.641.248-.277 0-.429-.164-.15-.164-.15-.457 0-.492.333-.937.332-.444.727-.444.129 0 .21.084.082.085.082.204 0 .265-.26.508t-.696.477q-.09.046-.09.12 0 .144.083.23.083.086.245.086.37 0 .756-.41.057-.057.086-.057.056 0 .056.088zm-1.198-.269q.73-.434.73-.698 0-.103-.092-.103-.159 0-.359.233-.198.232-.279.568zM20.916 337.819q-.084.31-.158.87l-.049.325q-.012.07-.063.136-.052.07-.095.07-.054 0-.122-.056-.068-.053-.068-.086 0-.095.043-.262.316-1.273.316-2.236l-.002-.144q-.003-.186.065-.27.07-.085.159-.085.041 0 .08.065.037.064.037.183 0 .167-.034.405-.045.3-.047.344.257-.448.544-.699.288-.252.534-.252.174 0 .293.131.12.13.12.323 0 .561-.43 1.02-.43.457-.839.457-.101 0-.162-.051-.058-.052-.122-.188zm1.07-1.387q-.243 0-.601.455-.359.455-.359.708 0 .062.07.12.071.06.18.06.246 0 .567-.364.32-.365.32-.717 0-.126-.052-.193-.05-.069-.125-.069zM23.419 335.712q-.036 0-.055-.077-.007-.024-.02-.054-.046-.112-.046-.194 0-.07.081-.14.083-.072.183-.072.05 0 .112.04.062.037.062.074 0 .056-.043.193-.042.136-.135.184-.09.046-.14.046zm-.226 1.924q0 .131.036.295.007.03.007.052 0 .03-.057.079-.056.05-.12.05-.167 0-.167-.307 0-.317.13-1.002.045-.24.045-.295 0-.108.04-.184.04-.078.112-.078.088 0 .138.043.052.042.052.093 0 .052-.025.136-.129.455-.16.652-.03.196-.03.466zM3.572 343.807q-.16.003-.686.949-.177.318-.207.348-.029.027-.108.05-.078.022-.13.022-.115 0-.115-.45 0-.253.109-.916.045-.269.045-.384 0-.114.101-.114.191 0 .191.276 0 .13-.063.506-.074.431-.076.524.107-.103.313-.453.293-.479.431-.606.14-.13.288-.13.112 0 .177.15.067.15.081.715.004.141.026.21.022.07.033.07.08 0 .351-.552.145-.291.28-.443.139-.151.306-.151.14 0 .203.144.064.143.091.426.026.286.08.524.055.237.2.305.097.046.097.108 0 .06-.082.124-.083.064-.152.064-.138 0-.246-.17-.109-.168-.164-.73-.024-.225-.046-.32-.023-.095-.07-.095-.073 0-.173.138-.098.138-.319.56-.172.33-.262.44-.087.108-.17.108-.074 0-.133-.059-.058-.06-.074-.143-.015-.084-.033-.411-.025-.545-.094-.634zM7.058 344.542q-.241.324-.477.486-.236.162-.432.162-.133 0-.23-.112-.096-.112-.096-.288 0-.453.405-.975.405-.523.804-.523.145 0 .216.165.022.055.07.055.138 0 .138.107 0 .053-.017.146-.093.508-.093.717 0 .417.158.5.076.04.076.101 0 .053-.074.107-.074.055-.143.055-.133 0-.219-.183-.086-.182-.086-.52zm-.105-.97q-.227 0-.529.428-.301.425-.301.706 0 .198.13.198.19 0 .526-.382.336-.383.336-.703 0-.247-.162-.247zM8.98 343.38q-.065-.178-.303-.385-.224-.193-.224-.33 0-.11.073-.178.072-.069.268-.124.245-.067.498-.151.253-.086.305-.11.033-.016.067-.016.057 0 .057.102 0 .056-.138.155-.137.098-.487.182-.22.055-.27.083-.049.026-.049.053 0 .062.135.18.506.442.506 1.11 0 .288-.152.617-.151.327-.404.488-.252.16-.493.16-.217 0-.329-.212-.112-.212-.112-.467 0-.451.277-.85.28-.4.59-.4.04 0 .103.053.057.052.082.04zm-.75 1.164q0 .191.05.3.051.108.134.108.11 0 .298-.136t.301-.403q.116-.267.116-.5 0-.192-.056-.311-.053-.12-.1-.12-.306 0-.525.373-.219.374-.219.689zM11.003 344.42q-.22.37-.452.574-.23.203-.428.203-.114 0-.233-.133-.117-.132-.117-.408 0-.226.108-.665.092-.367.092-.515.05-.103.156-.103.073 0 .116.051.043.05.043.105 0 .121-.085.343-.16.433-.16.743 0 .282.131.282.167 0 .426-.284.258-.284.442-.792.073-.204.117-.264.047-.062.125-.062.117 0 .117.155 0 .019-.033.126-.103.377-.103.713 0 .403.132.522.07.063.07.103 0 .048-.072.088-.068.04-.125.04-.12 0-.195-.18-.074-.179-.074-.528v-.057l.002-.057zM12.258 345.17v-.862h-.453v-.293h.453v-.775h1.361v.27h-1.044v.505h.717v.293h-.717v.861zM15.182 344.542q-.242.324-.478.486-.235.162-.432.162-.132 0-.229-.112-.096-.112-.096-.288 0-.453.404-.975.405-.523.805-.523.145 0 .215.165.023.055.07.055.139 0 .139.107 0 .053-.018.146-.093.508-.093.717 0 .417.159.5.076.04.076.101 0 .053-.074.107-.075.055-.143.055-.133 0-.22-.183-.085-.182-.085-.52zm-.105-.97q-.228 0-.53.428-.3.425-.3.706 0 .198.13.198.19 0 .526-.382.335-.383.335-.703 0-.247-.161-.247zM17.392 343.807q-.16.003-.686.949-.177.318-.207.348-.029.027-.108.05-.078.022-.13.022-.115 0-.115-.45 0-.253.109-.916.045-.269.045-.384 0-.114.101-.114.191 0 .191.276 0 .13-.063.506-.074.431-.076.524.107-.103.313-.453.293-.479.431-.606.14-.13.288-.13.112 0 .177.15.067.15.081.715.003.141.026.21.022.07.033.07.08 0 .351-.552.145-.291.28-.443.139-.151.306-.151.14 0 .203.144.064.143.091.426.026.286.08.524.055.237.2.305.098.046.098.108 0 .06-.083.124t-.152.064q-.138 0-.246-.17-.109-.168-.164-.73-.024-.225-.046-.32-.023-.095-.07-.095-.073 0-.173.138-.098.138-.319.56-.172.33-.262.44-.087.108-.17.108-.074 0-.133-.059-.058-.06-.074-.143-.015-.084-.033-.411-.025-.545-.094-.634zM3.746 351.64q0 .177-.312.425-.31.248-.64.248-.278 0-.43-.164-.15-.164-.15-.456 0-.493.333-.938.332-.444.727-.444.129 0 .21.084.083.085.083.204 0 .265-.26.508t-.697.477q-.09.046-.09.12 0 .144.084.23.082.086.244.086.37 0 .756-.41.057-.057.087-.057.055 0 .055.088zm-1.198-.268q.73-.434.73-.698 0-.103-.092-.103-.159 0-.358.233-.199.232-.28.568zM5.072 350.82q-.041-.001-.081.08-.357.713-.54.968-.015.023-.039.066-.215.384-.315.384-.134 0-.134-.13 0-.117.167-.318.162-.191.425-.648.264-.458.427-.821.031-.066.093-.066.026 0 .092.024.067.023.086.05.019.028.084.32.212 1.057.446 1.253.056.048.066.065.01.016.01.045 0 .054-.034.098-.035.043-.067.055-.033.013-.135.013-.036 0-.169-.178-.132-.179-.31-.973-.043-.214-.072-.286zM8.41 350.716q-.14.224-.392.758-.057.12-.116.232-.019.036-.072.16-.181.42-.315.42-.107 0-.157-.025-.048-.026-.093-.141-.045-.116-.133-.543-.101-.484-.138-.596-.117.264-.208.508-.138.36-.267.588-.13.225-.186.27-.057.047-.109.047-.053 0-.096-.042-.043-.041-.043-.08.01-.071.024-.089.15-.184.258-.392.109-.209.276-.626.169-.416.215-.683.023-.114.167-.114.085 0 .116.026.03.025.06.105.031.079.036.141.01.074.059.329.043.24.057.34.024.142.084.375.062.232.097.232.024 0 .068-.105l.145-.334q.04-.091.085-.179l.198-.405q.162-.334.248-.484.088-.151.117-.182.03-.031.069-.031.065 0 .146.036.081.034.085.077.003.043.015.36l.022.538q.01.256.031.437.021.18.073.29.08.175.08.272 0 .082-.068.113-.067.031-.126.031-.12 0-.186-.192-.064-.193-.093-1.106-.01-.274-.033-.336zM10.772 351.64q0 .177-.312.425-.31.248-.64.248-.278 0-.43-.164-.15-.164-.15-.456 0-.493.333-.938.332-.444.727-.444.13 0 .21.084.083.085.083.204 0 .265-.26.508t-.696.477q-.09.046-.09.12 0 .144.083.23.083.086.244.086.37 0 .757-.41.057-.057.086-.057.055 0 .055.088zm-1.197-.268q.73-.434.73-.698 0-.103-.093-.103-.158 0-.358.233-.198.232-.28.568zM11.482 351.319q.408-.07.732-.527.151-.212.265-.3.115-.09.245-.09.051 0 .103.047.052.046.052.11 0 .084-.16.133-.085.025-.16.088-.073.062-.28.296-.162.182-.291.257-.012.007-.012.012 0 .007.015.013.126.068.266.26.203.281.305.355.101.073.232.073l.057-.002q.06-.003.06.053 0 .066-.074.136t-.244.07q-.131 0-.255-.111-.123-.114-.281-.367-.091-.15-.17-.228-.08-.077-.176-.077-.021 0-.128.034-.107.035-.12.068-.012.03-.02.229-.004.196-.004.317 0 .063-.06.113-.061.05-.132.05-.072 0-.113-.043-.042-.041-.042-.086 0-.062.047-.293.082-.42.165-1.386.007-.093.07-.167.064-.076.145-.076.045 0 .075.048t.03.124q0 .06-.02.138-.098.356-.122.728zM14.63 351.64q0 .177-.311.425-.31.248-.641.248-.277 0-.43-.164-.149-.164-.149-.456 0-.493.333-.938.332-.444.726-.444.13 0 .21.084.083.085.083.204 0 .265-.26.508t-.696.477q-.09.046-.09.12 0 .144.083.23.083.086.245.086.37 0 .756-.41.057-.057.086-.057.055 0 .055.088zm-1.197-.268q.73-.434.73-.698 0-.103-.092-.103-.159 0-.359.233-.198.232-.279.568zM16.258 351.1q.02-.036.06-.432.032-.317.202-.317.14 0 .14.14 0 .032-.025.132-.132.55-.132.921 0 .403.132.522.07.064.07.104 0 .048-.071.088-.07.04-.126.04-.269 0-.269-.831 0-.055-.041-.055-.162 0-.396.019t-.336.048q-.1.03-.124.055-.023.024-.041.133-.018.106-.018.222v.212q0 .184-.169.184-.14 0-.14-.184 0-.12.03-.307.057-.341.114-1.175.007-.108.019-.137.012-.03.062-.064.052-.036.112-.036.124 0 .124.101 0 .016-.04.259-.041.243-.041.377 0 .095.065.095.131 0 .48-.044.347-.044.36-.07z"/></g><flowRoot transform="matrix(.26458 0 0 .26458 0 226.6)" style="line-height:1.25;-inkscape-font-specification:'Segoe Print';font-variant-ligatures:normal;font-variant-caps:normal;font-variant-numeric:normal;font-feature-settings:normal;text-align:start" xml:space="preserve" font-style="normal" font-variant="normal" font-stretch="normal" font-size="13.333" writing-mode="lr-tb" text-anchor="start" fill="#000" fill-opacity="1" stroke="none"><flowRegion><path d="M7.239 212.992h60.325V251.6H7.239z"/></flowRegion><flowPara/></flowRoot><text y="254.382" x="54.898" style="line-height:2;-inkscape-font-specification:'Segoe Print';font-variant-ligatures:normal;font-variant-caps:normal;font-variant-numeric:normal;font-feature-settings:normal;text-align:start" font-size="3.528" fill="#917c6f" stroke-width=".265"><tspan y="254.382" x="54.898">адамдар</tspan><tspan y="261.532" x="54.898">бөлме ғимарат жобалар</tspan><tspan y="268.682" x="54.898">ғарыш тылсым әлем</tspan><tspan y="275.833" x="54.898">гүлдер</tspan><tspan y="282.983" x="54.898">өсімдіктер</tspan><tspan y="290.134" x="54.898">қалыпталған кескіндер</tspan><tspan y="297.284" x="54.898">қолданыс заттары</tspan><tspan y="304.34" x="54.898">жаныуарлар</tspan><tspan y="311.49" x="54.898">өнер білім спорт</tspan><tspan y="318.546" x="54.898">art education sports</tspan><tspan y="325.707" x="54.898">美術教育スポーツ</tspan><tspan y="332.857" x="54.898">الرياضة التربية الفنية</tspan><tspan y="340.008" x="54.898">сән үлгілері</tspan><tspan y="347.158" x="54.898">табиғат</tspan><tspan y="354.214" x="54.898">елмекен</tspan></text></g></svg>