<svg xmlns="http://www.w3.org/2000/svg" viewBox="0 0 50.9 5.4" height="20.409" width="192.378"><g transform="translate(0 -291.6)" font-weight="400" font-family="Segoe Print" letter-spacing="0" word-spacing="0"><flowRoot transform="matrix(.26458 0 0 .26458 0 226.6)" style="line-height:1.25;-inkscape-font-specification:'Segoe Print';font-variant-ligatures:normal;font-variant-caps:normal;font-variant-numeric:normal;font-feature-settings:normal;text-align:start" xml:space="preserve" font-style="normal" font-variant="normal" font-stretch="normal" font-size="13.333" writing-mode="lr-tb" text-anchor="start" fill="#000" fill-opacity="1" stroke="none"><flowRegion><path d="M7.239 212.992h60.325V251.6H7.239z"/></flowRegion><flowPara/></flowRoot><text y="254.382" x="54.898" style="line-height:2;-inkscape-font-specification:'Segoe Print';font-variant-ligatures:normal;font-variant-caps:normal;font-variant-numeric:normal;font-feature-settings:normal;text-align:start" font-size="3.528" fill="#917c6f" stroke-width=".265"><tspan y="254.382" x="54.898">адамдар</tspan><tspan y="261.532" x="54.898">бөлме ғимарат жобалар</tspan><tspan y="268.682" x="54.898">ғарыш тылсым әлем</tspan><tspan y="275.833" x="54.898">гүлдер</tspan><tspan y="282.983" x="54.898">өсімдіктер</tspan><tspan y="290.134" x="54.898">қалыпталған кескіндер</tspan><tspan y="297.284" x="54.898">қолданыс заттары</tspan><tspan y="304.34" x="54.898">жаныуарлар</tspan><tspan y="311.49" x="54.898">өнер білім спорт</tspan><tspan y="318.546" x="54.898">art education sports</tspan><tspan y="325.707" x="54.898">美術教育スポーツ</tspan><tspan y="332.857" x="54.898">الرياضة التربية الفنية</tspan><tspan y="340.008" x="54.898">сән үлгілері</tspan><tspan y="347.158" x="54.898">тәбиғат</tspan><tspan y="354.214" x="54.898">елмекен</tspan></text><text y="254.36" x="103.499" style="line-height:2;-inkscape-font-specification:'Segoe Print';font-variant-ligatures:normal;font-variant-caps:normal;font-variant-numeric:normal;font-feature-settings:normal;text-align:start" font-size="3.528" fill="#917c6f" stroke-width=".265"><tspan y="254.36" x="103.499">үи</tspan><tspan y="261.51" x="103.499">пәтер</tspan><tspan y="268.661" x="103.499">бөлме алаң</tspan><tspan y="275.811" x="103.499">ғимарат</tspan><tspan y="282.867" x="103.499">жер телімі</tspan><tspan y="290.017" x="103.499">қызымет</tspan></text><text y="253.736" x="131.219" style="line-height:2;-inkscape-font-specification:'Segoe Print';font-variant-ligatures:normal;font-variant-caps:normal;font-variant-numeric:normal;font-feature-settings:normal;text-align:start" font-size="3.528" fill="#917c6f" stroke-width=".265"><tspan y="253.736" x="131.219">жеңіл</tspan><tspan y="260.792" x="131.219">жолаушылар</tspan><tspan y="267.942" x="131.219">жүк</tspan><tspan y="275.093" x="131.219">қызыметтік</tspan><tspan y="282.148" x="131.219">белсебет</tspan><tspan y="289.204" x="131.219">мотосекл</tspan><tspan y="296.354" x="131.219">сұу</tspan><tspan y="303.505" x="131.219">әуе</tspan><tspan y="310.655" x="131.219">қызымет</tspan></text><text y="253.832" x="163.967" style="line-height:2;-inkscape-font-specification:'Segoe Print';font-variant-ligatures:normal;font-variant-caps:normal;font-variant-numeric:normal;font-feature-settings:normal;text-align:start" font-size="3.528" fill="#917c6f" stroke-width=".265"><tspan y="253.832" x="163.967">нан өнімдері</tspan><tspan y="260.983" x="163.967">сұусын</tspan><tspan y="268.133" x="163.967">кәмпит</tspan><tspan y="275.189" x="163.967">торт</tspan><tspan y="282.339" x="163.967">жеміс жидек көкөніс</tspan><tspan y="289.49" x="163.967">қаинатпа</tspan><tspan y="296.64" x="163.967">тұздалған</tspan><tspan y="303.79" x="163.967">қызымет</tspan></text><text y="253.707" x="206.738" style="line-height:2;-inkscape-font-specification:'Segoe Print';font-variant-ligatures:normal;font-variant-caps:normal;font-variant-numeric:normal;font-feature-settings:normal;text-align:start" font-size="3.528" fill="#917c6f" stroke-width=".265"><tspan y="253.707" x="206.738">бас кіиім</tspan><tspan y="260.858" x="206.738">үстіңгі</tspan><tspan y="268.008" x="206.738">астыңғы</tspan><tspan y="275.158" x="206.738">аиақ</tspan><tspan y="282.214" x="206.738">спорт</tspan><tspan y="289.27" x="206.738">балалар</tspan><tspan y="296.325" x="206.738">арнаиы</tspan><tspan y="303.476" x="206.738">қызымет</tspan></text><text y="253.509" x="228.799" style="line-height:2;-inkscape-font-specification:'Segoe Print';font-variant-ligatures:normal;font-variant-caps:normal;font-variant-numeric:normal;font-feature-settings:normal;text-align:start" font-size="3.528" fill="#917c6f" stroke-width=".265"><tspan y="253.509" x="228.799">ас үи</tspan><tspan y="260.659" x="228.799">құрал</tspan><tspan y="267.81" x="228.799">құрылғы</tspan><tspan y="274.96" x="228.799">бақша</tspan><tspan y="282.016" x="228.799">оиын</tspan><tspan y="289.166" x="228.799">зат-қызымет</tspan></text><g style="line-height:2;-inkscape-font-specification:'Segoe Print';font-variant-ligatures:normal;font-variant-caps:normal;font-variant-numeric:normal;font-feature-settings:normal;text-align:start" aria-label="ас үи құрал құрылғы бақша оиын зат-қызымет" font-size="3.528" fill="#917c6f" stroke-width=".265"><path d="M3.542 287.55q-.241.325-.477.487-.236.162-.433.162-.132 0-.229-.112-.096-.112-.096-.288 0-.453.405-.975.404-.524.804-.524.145 0 .215.166.023.055.07.055.139 0 .139.107 0 .053-.018.146-.093.508-.093.717 0 .416.159.5.076.04.076.1 0 .054-.074.108-.074.055-.143.055-.133 0-.22-.183-.085-.183-.085-.52zm-.105-.969q-.228 0-.53.427-.3.426-.3.707 0 .198.13.198.19 0 .526-.383.336-.382.336-.703 0-.246-.162-.246zM4.922 288.276q-.259 0-.398-.148-.138-.148-.138-.415 0-.45.356-.948.357-.5.664-.5.14 0 .239.152.102.15.102.32 0 .1-.045.175-.043.072-.088.072-.1 0-.141-.201-.047-.217-.135-.217-.179 0-.423.425-.245.425-.245.718t.333.293q.253 0 .596-.238.12-.084.177-.084.058 0 .058.067 0 .131-.308.331-.308.198-.604.198zM8.642 288.147v.765h-.336v-.765l-.78-1.898h.336l.603 1.509.603-1.51h.336zM10.954 287.429q-.22.37-.451.573-.231.203-.43.203-.113 0-.232-.132-.117-.133-.117-.408 0-.226.109-.665.09-.367.09-.515.05-.104.158-.104.072 0 .115.052.043.05.043.105 0 .12-.084.343-.16.432-.16.742 0 .283.13.283.167 0 .426-.284.258-.285.443-.793.072-.203.117-.263.046-.062.124-.062.117 0 .117.155 0 .019-.033.125-.103.378-.103.714 0 .403.132.521.07.064.07.104 0 .048-.071.088-.07.04-.126.04-.12 0-.195-.18-.074-.179-.074-.529v-.056l.002-.057zM2.472 293.4h.315v.905l.894-.906h.39l-.738.746.646.92h.245v.75h-.317v-.487h-.096l-.684-.973-.34.345v.628h-.315zM6.265 293.4l-.761 1.897v.152h.451v.293h-.451v.32h-.336v-.32h-.47v-.293h.47v-.152l-.78-1.898h.335l.603 1.51.603-1.51zM6.932 295.129q-.085.31-.159.87l-.048.325q-.012.069-.064.136-.051.069-.094.069-.054 0-.123-.055-.067-.054-.067-.086 0-.095.043-.262.315-1.273.315-2.236l-.001-.145q-.004-.186.065-.27.069-.084.159-.084.04 0 .079.065.038.064.038.183 0 .167-.035.404-.045.3-.046.345.256-.448.544-.7.288-.251.534-.251.174 0 .293.13.12.13.12.323 0 .562-.43 1.02-.43.458-.839.458-.102 0-.162-.052-.059-.051-.122-.187zm1.07-1.387q-.243 0-.602.455-.358.454-.358.708 0 .062.07.12.071.059.18.059.246 0 .566-.364.32-.365.32-.716 0-.126-.05-.193-.05-.07-.127-.07zM10.041 294.701q-.241.324-.477.486-.236.162-.433.162-.132 0-.229-.112-.096-.112-.096-.288 0-.453.405-.975.404-.523.804-.523.145 0 .215.165.023.055.071.055.138 0 .138.107 0 .053-.017.146-.093.509-.093.717 0 .417.158.5.076.04.076.101 0 .054-.074.107-.074.055-.143.055-.133 0-.219-.182-.086-.183-.086-.52zm-.105-.97q-.227 0-.529.428-.301.425-.301.706 0 .198.13.198.19 0 .526-.382.336-.383.336-.703 0-.246-.162-.246zM11.917 293.924q-.042-.002-.081.08-.357.713-.54.968-.015.022-.039.065-.215.384-.315.384-.135 0-.135-.129 0-.117.168-.319.161-.19.425-.647.264-.458.427-.822.031-.065.093-.065.026 0 .092.024.067.022.086.05.019.027.084.32.212 1.056.446 1.252.055.049.066.066.01.015.01.045 0 .053-.034.098-.035.043-.068.055-.032.012-.134.012-.036 0-.169-.177-.132-.18-.31-.973-.043-.214-.072-.286zM2.472 300.55h.315v.906l.894-.906h.39l-.738.745.646.92h.245v.751h-.317v-.487h-.096l-.684-.973-.34.344v.629h-.315zM6.265 300.55l-.761 1.898v.151h.451v.293h-.451v.32h-.336v-.32h-.47v-.293h.47v-.151l-.78-1.898h.335l.603 1.509.603-1.51zM6.932 302.279q-.085.31-.159.87l-.048.325q-.012.07-.064.137-.051.068-.094.068-.054 0-.123-.055-.067-.053-.067-.086 0-.094.043-.262.315-1.273.315-2.235l-.001-.145q-.004-.186.065-.27.069-.085.159-.085.04 0 .079.066.038.063.038.182 0 .167-.035.405-.045.3-.046.344.256-.447.544-.699.288-.251.534-.251.174 0 .293.13.12.13.12.323 0 .561-.43 1.02-.43.458-.839.458-.102 0-.162-.052-.059-.052-.122-.188zm1.07-1.387q-.243 0-.602.455-.358.455-.358.708 0 .062.07.12.071.06.18.06.246 0 .566-.364.32-.365.32-.717 0-.126-.05-.193-.05-.069-.127-.069zM9.28 300.527q.022-.015.05-.015.043 0 .072.115 0 .074-.04.188-.117.325-.117.455 0 .034.02.038.397-.381.735-.381.208 0 .35.158.14.157.14.288 0 .4-.408.768-.406.367-.82.367-.184 0-.287-.151-.102-.154-.102-.438 0-.308.078-.682.077-.374.124-.5.019-.053.034-.108.017-.07.17-.102zm-.081 1.08q-.035.191-.035.383 0 .26.205.26.231 0 .517-.276.286-.275.286-.536 0-.106-.057-.179-.057-.072-.157-.072-.136 0-.268.069-.131.067-.293.219-.062.058-.1.09-.036.032-.098.042zm1.734.396q0 .131.036.295.007.031.007.052 0 .03-.057.08-.056.049-.12.049-.167 0-.167-.307 0-.305.132-1.023.049-.262.049-.317 0-.108.04-.184.039-.078.111-.078.088 0 .138.043.052.042.052.093 0 .052-.024.143-.135.491-.166.688-.03.196-.03.466zM12.465 301.075q-.042-.002-.081.08-.357.712-.54.967l-.04.066q-.214.384-.314.384-.135 0-.135-.13 0-.116.167-.318.162-.191.426-.648.263-.458.427-.821.031-.066.093-.066.026 0 .091.024.067.023.086.05.02.028.085.32.212 1.056.446 1.253.055.048.065.065.01.016.01.045 0 .053-.034.098-.034.043-.067.055-.033.012-.134.012-.036 0-.169-.177-.133-.18-.31-.973-.043-.214-.072-.286zM13.925 302.479v-.861h-.453v-.293h.453v-.775h1.361v.27h-1.044v.505h.717v.293h-.717v.86zM16.087 300.527q.022-.015.05-.015.043 0 .072.115 0 .074-.04.188-.116.325-.116.455 0 .034.02.038.397-.381.734-.381.209 0 .35.158.141.157.141.288 0 .4-.408.768-.407.367-.82.367-.184 0-.288-.151-.101-.154-.101-.438 0-.308.077-.682.078-.374.124-.5.02-.053.035-.108.017-.07.17-.102zm-.08 1.08q-.035.191-.035.383 0 .26.205.26.23 0 .516-.276.286-.275.286-.536 0-.106-.056-.179-.057-.072-.157-.072-.136 0-.269.069-.13.067-.293.219-.062.058-.1.09-.036.032-.098.042zm1.734.396q0 .131.036.295.007.031.007.052 0 .03-.057.08-.057.049-.12.049-.168 0-.168-.307 0-.305.133-1.023.048-.262.048-.317 0-.108.04-.184.04-.078.112-.078.088 0 .138.043.051.042.051.093 0 .052-.024.143-.134.491-.165.688-.031.196-.031.466zM3.394 307.84q-.066-.178-.304-.385-.223-.192-.223-.33 0-.11.072-.178.072-.069.269-.124.244-.067.497-.151.254-.086.305-.11.033-.016.067-.016.057 0 .057.102 0 .056-.137.155-.138.098-.488.182-.22.055-.27.083-.049.026-.049.053 0 .062.135.18.506.442.506 1.11 0 .288-.151.617-.152.327-.405.488-.252.16-.493.16-.217 0-.329-.212-.112-.212-.112-.467 0-.451.278-.85.279-.4.589-.4.041 0 .103.053.057.052.083.04zm-.751 1.164q0 .191.05.3.051.108.134.108.11 0 .298-.136t.301-.403q.116-.267.116-.5 0-.192-.055-.311-.054-.12-.1-.12-.307 0-.526.373-.218.374-.218.689zM5.36 309.002q-.24.324-.476.486-.236.162-.433.162-.132 0-.229-.112-.096-.112-.096-.288 0-.453.405-.975.404-.523.804-.523.145 0 .215.165.023.055.07.055.139 0 .139.107 0 .053-.018.146-.093.509-.093.717 0 .417.159.5.076.04.076.101 0 .054-.074.107-.074.055-.143.055-.133 0-.22-.183-.085-.182-.085-.52zm-.104-.97q-.228 0-.53.428-.3.425-.3.706 0 .198.13.198.19 0 .526-.382.336-.383.336-.703 0-.246-.162-.246zM6.362 307.7h.315v.906l.894-.906h.39l-.738.746.646.92h.244v.75h-.317v-.487H7.7l-.684-.973-.34.345v.628h-.314zM10.747 308.88q-.22.37-.451.574-.23.203-.429.203-.114 0-.233-.133-.117-.132-.117-.408 0-.141.03-.312-.164.324-.42.557-.257.232-.459.232-.096 0-.212-.114-.113-.113-.113-.306 0-.222.018-.334.016-.102.026-.21.01-.087.024-.162.068-.37.052-.478.036-.122.167-.122.052 0 .1.043.05.042.05.138 0 .159-.07.396-.095.319-.095.565 0 .135.019.209.02.074.09.074.227 0 .51-.403.287-.403.454-.84.074-.199.186-.199.072 0 .115.052.043.05.043.105 0 .12-.084.343-.16.425-.16.725 0 .282.13.282.06 0 .144-.041.086-.041.212-.167.125-.128.244-.312.12-.186.152-.269.03-.084.125-.394.06-.202.11-.272.052-.073.133-.073.117 0 .117.155 0 .02-.032.126-.049.165-.081.42-.033.254-.033.419 0 .403.133.522.069.064.069.103 0 .048-.071.088-.069.04-.126.04-.12 0-.194-.18-.075-.179-.075-.528v-.057l.002-.057zM12.78 309.002q-.241.324-.477.486-.236.162-.433.162-.132 0-.229-.112-.096-.112-.096-.288 0-.453.405-.975.404-.523.804-.523.145 0 .215.165.023.055.07.055.139 0 .139.107 0 .053-.018.146-.093.509-.093.717 0 .417.159.5.076.04.076.101 0 .054-.074.107-.074.055-.143.055-.133 0-.22-.183-.085-.182-.085-.52zm-.105-.97q-.228 0-.53.428-.3.425-.3.706 0 .198.13.198.19 0 .526-.382.336-.383.336-.703 0-.246-.162-.246zM2.884 316.771q-.236 0-.39-.18-.153-.178-.153-.442 0-.444.298-.875.3-.432.717-.432.275 0 .446.212.172.211.172.504 0 .448-.355.83-.353.383-.735.383zm-.24-.667q0 .174.073.285.074.11.194.11.257 0 .515-.28.259-.283.259-.628 0-.212-.1-.343-.098-.132-.265-.132-.278 0-.478.34-.198.34-.198.648zM5.592 315.936q-.22.37-.452.573-.23.203-.429.203-.113 0-.232-.132-.117-.133-.117-.408 0-.226.108-.665.092-.367.092-.515.05-.104.156-.104.073 0 .116.052.043.05.043.105 0 .12-.085.343-.16.432-.16.742 0 .283.131.283.167 0 .426-.284.258-.285.442-.793.073-.203.117-.263.047-.062.124-.062.118 0 .118.155 0 .019-.033.125-.104.378-.104.713 0 .404.133.522.069.064.069.104 0 .048-.07.088-.07.04-.126.04-.121 0-.195-.18-.074-.179-.074-.529v-.056l.002-.057zM6.927 314.733q.022-.015.05-.015.043 0 .072.115 0 .074-.04.188-.117.325-.117.455 0 .034.02.038.397-.381.735-.381.208 0 .35.158.14.157.14.288 0 .4-.408.768-.406.367-.82.367-.184 0-.287-.151-.102-.154-.102-.438 0-.308.078-.682.077-.374.124-.5.019-.053.034-.108.017-.069.17-.102zm-.081 1.08q-.035.191-.035.383 0 .26.205.26.231 0 .517-.276.286-.275.286-.536 0-.106-.057-.179-.057-.072-.157-.072-.136 0-.268.069-.131.067-.293.219-.062.058-.1.091-.036.031-.098.041zm1.734.396q0 .131.036.295.007.031.007.052 0 .03-.057.08-.056.049-.12.049-.167 0-.167-.307 0-.305.132-1.023.049-.262.049-.317 0-.108.04-.184.039-.078.111-.078.088 0 .138.043.052.042.052.093 0 .052-.024.143-.135.491-.166.688-.03.196-.03.466zM10.413 315.56q.019-.036.06-.432.031-.317.202-.317.14 0 .14.14 0 .032-.025.132-.132.55-.132.921 0 .404.132.522.07.064.07.104 0 .048-.071.088-.07.04-.126.04-.269 0-.269-.831 0-.055-.041-.055-.162 0-.396.019-.235.019-.336.048-.1.03-.124.055-.023.024-.042.133-.017.107-.017.222v.212q0 .184-.169.184-.141 0-.141-.184 0-.12.031-.307.057-.34.114-1.174.007-.109.019-.138.012-.03.062-.064.051-.036.112-.036.124 0 .124.101 0 .016-.04.259-.041.243-.041.377 0 .095.065.095.131 0 .479-.043.348-.045.36-.07zM3.223 322.776q.222.036.346.164.124.127.124.311 0 .292-.246.486-.246.193-.648.193-.24 0-.413-.103-.172-.104-.172-.23 0-.103.119-.103.017 0 .053.03.19.163.45.163.229 0 .394-.12t.165-.314q0-.127-.094-.212-.093-.086-.217-.086-.095 0-.333.074-.046.016-.1.016-.103 0-.103-.14 0-.048.048-.077.05-.03.212-.067.49-.112.49-.398 0-.086-.061-.142-.06-.056-.157-.056-.179 0-.382.158-.12.093-.181.093-.105 0-.105-.098 0-.13.243-.264.244-.136.468-.136.224 0 .352.12.129.118.129.249 0 .312-.38.489zM5.238 323.208q-.24.324-.477.486-.236.162-.432.162-.133 0-.23-.112-.096-.112-.096-.288 0-.453.405-.975.405-.523.805-.523.144 0 .215.165.022.055.07.055.138 0 .138.107 0 .053-.017.146-.093.509-.093.717 0 .417.159.5.075.04.075.101 0 .054-.074.107-.074.055-.143.055-.132 0-.218-.182-.087-.183-.087-.52zm-.105-.97q-.227 0-.528.428-.302.425-.302.706 0 .198.131.198.19 0 .525-.382.336-.383.336-.703 0-.246-.162-.246zM7.449 322.473q-.16.003-.686.949-.177.319-.207.348-.029.027-.108.05-.078.022-.13.022-.115 0-.115-.45 0-.253.109-.916.044-.268.044-.384 0-.114.102-.114.191 0 .191.276 0 .13-.063.507-.075.43-.076.523.107-.103.313-.453.293-.479.43-.606.14-.13.289-.13.112 0 .177.15.067.15.08.715.004.142.027.21.022.07.032.07.081 0 .352-.552.145-.29.28-.443.138-.151.306-.151.14 0 .203.145.064.143.091.425.026.286.08.524.054.237.2.305.097.046.097.108 0 .06-.082.124-.083.064-.152.064-.138 0-.246-.169-.109-.169-.164-.73-.024-.226-.046-.32-.023-.095-.071-.095-.072 0-.172.137-.098.138-.319.56-.172.33-.262.44-.088.108-.17.108-.074 0-.133-.059-.059-.06-.074-.143-.016-.084-.033-.411-.026-.545-.094-.634zM10.656 322.714h.126q.32 0 .477-.022.076-.01.151-.01.033 0 .133.039.102.04.12.067.02.026.02.07 0 .064-.026.09-.026.026-.112.026-.038 0-.107-.022-.069-.023-.115-.023-.02 0-.126.01-.057.004-.207-.01-.115-.01-.172-.01-.08 0-.24.01-.16.01-.242.01-.083 0-.135-.017-.05-.019-.05-.082 0-.028.023-.064.024-.038.158-.059.134-.022.193-.022zM12.127 321.906h.315v.906l.894-.906h.39l-.738.746.646.92h.245v.75h-.317v-.487h-.097l-.683-.973-.34.345v.628h-.315zM14.566 321.884q.022-.016.05-.016.043 0 .072.116 0 .074-.04.187-.116.326-.116.455 0 .035.02.038.396-.38.734-.38.209 0 .35.158.141.157.141.287 0 .4-.408.769-.407.367-.82.367-.184 0-.288-.152-.101-.153-.101-.437 0-.309.077-.683.078-.373.124-.5.02-.053.035-.108.017-.069.17-.101zm-.08 1.08q-.035.19-.035.382 0 .26.205.26.23 0 .516-.275.286-.276.286-.536 0-.107-.056-.18-.057-.072-.157-.072-.136 0-.269.07-.13.066-.293.218-.062.059-.1.091-.036.031-.098.042zm1.734.396q0 .13.036.294.007.031.007.052 0 .031-.057.081-.057.048-.12.048-.168 0-.168-.306 0-.305.133-1.023.048-.262.048-.317 0-.109.04-.185.04-.077.112-.077.088 0 .138.043.051.041.051.093t-.024.143q-.134.49-.165.687-.031.197-.031.467zM17.627 322.776q.222.036.346.164.124.127.124.311 0 .292-.246.486-.246.193-.648.193-.24 0-.413-.103-.172-.104-.172-.23 0-.103.119-.103.017 0 .053.03.19.163.45.163.229 0 .394-.12t.165-.314q0-.127-.094-.212-.093-.086-.217-.086-.095 0-.333.074-.046.016-.1.016-.103 0-.103-.14 0-.048.048-.077.05-.03.212-.067.49-.112.49-.398 0-.086-.061-.142-.06-.056-.157-.056-.18 0-.382.158-.12.093-.181.093-.105 0-.105-.098 0-.13.243-.264.244-.136.468-.136.224 0 .352.12.129.118.129.249 0 .312-.38.489zM18.881 321.884q.022-.016.05-.016.043 0 .072.116 0 .074-.04.187-.116.326-.116.455 0 .035.02.038.396-.38.734-.38.209 0 .35.158.141.157.141.287 0 .4-.408.769-.407.367-.82.367-.184 0-.288-.152-.101-.153-.101-.437 0-.309.077-.683.078-.373.124-.5.019-.053.035-.108.017-.069.17-.101zm-.08 1.08q-.035.19-.035.382 0 .26.205.26.23 0 .516-.275.286-.276.286-.536 0-.107-.056-.18-.057-.072-.157-.072-.136 0-.269.07-.13.066-.293.218-.062.059-.1.091-.036.031-.098.042zm1.734.396q0 .13.036.294.007.031.007.052 0 .031-.057.081-.057.048-.12.048-.168 0-.168-.306 0-.305.133-1.023.048-.262.048-.317 0-.109.04-.185.04-.077.112-.077.088 0 .138.043.051.041.051.093t-.024.143q-.134.49-.165.687-.031.197-.031.467zM23.298 322.326q-.14.224-.393.758-.057.12-.115.233-.02.036-.073.16-.18.42-.315.42-.107 0-.157-.025-.048-.026-.093-.142-.045-.115-.132-.542-.102-.484-.138-.596-.117.263-.209.508-.137.36-.267.587-.129.226-.186.27-.057.047-.108.047-.054 0-.097-.041-.043-.041-.043-.081.01-.07.024-.088.15-.184.259-.393.108-.208.275-.625.17-.417.216-.684.022-.114.167-.114.084 0 .115.026t.06.105q.031.08.037.142.01.074.058.329.043.239.057.339.024.143.084.375.062.233.097.233.024 0 .069-.105l.144-.334q.04-.092.085-.18l.198-.404q.162-.334.248-.484.088-.152.117-.183.031-.03.07-.03.065 0 .145.035.081.035.085.078.003.043.015.36l.023.537q.01.257.03.438.021.179.073.29.081.175.081.271 0 .083-.069.114-.067.031-.126.031-.12 0-.186-.193-.063-.193-.093-1.106-.01-.274-.032-.336zM25.66 323.251q0 .176-.312.424-.31.248-.641.248-.278 0-.43-.163-.149-.164-.149-.457 0-.493.332-.937.333-.444.727-.444.13 0 .21.084.083.084.083.203 0 .266-.26.508-.26.243-.696.478-.09.046-.09.12 0 .143.083.23.083.085.245.085.37 0 .756-.41.057-.056.086-.056.055 0 .055.087zm-1.198-.268q.73-.434.73-.698 0-.103-.093-.103-.158 0-.358.232-.198.233-.279.569zM27.32 322.473q-.16.003-.686.949-.177.319-.206.348-.03.027-.109.05-.077.022-.13.022-.115 0-.115-.45 0-.253.109-.916.045-.268.045-.384 0-.114.101-.114.192 0 .192.276 0 .13-.064.507-.074.43-.076.523.107-.103.314-.453.292-.479.43-.606.14-.13.288-.13.112 0 .177.15.067.15.081.715.004.142.026.21.022.07.033.07.08 0 .351-.552.145-.29.281-.443.138-.151.305-.151.14 0 .203.145.064.143.091.425.026.286.08.524.055.237.2.305.098.046.098.108 0 .06-.083.124t-.152.064q-.137 0-.246-.169-.108-.169-.164-.73-.024-.226-.046-.32-.022-.095-.07-.095-.073 0-.173.137-.098.138-.319.56-.172.33-.261.44-.088.108-.171.108-.074 0-.133-.059-.058-.06-.074-.143-.015-.084-.032-.411-.026-.545-.095-.634z"/></g></g></svg>