<svg xmlns="http://www.w3.org/2000/svg" viewBox="0 0 50.9 5.4" height="20.409" width="192.378"><g transform="translate(0 -291.6)" font-weight="400" font-family="Segoe Print" letter-spacing="0" word-spacing="0"><flowRoot transform="matrix(.26458 0 0 .26458 0 226.6)" style="line-height:1.25;-inkscape-font-specification:'Segoe Print';font-variant-ligatures:normal;font-variant-caps:normal;font-variant-numeric:normal;font-feature-settings:normal;text-align:start" xml:space="preserve" font-style="normal" font-variant="normal" font-stretch="normal" font-size="13.333" writing-mode="lr-tb" text-anchor="start" fill="#000" fill-opacity="1" stroke="none"><flowRegion><path d="M7.239 212.992h60.325V251.6H7.239z"/></flowRegion><flowPara/></flowRoot><text y="254.382" x="114.134" style="line-height:2;-inkscape-font-specification:'Segoe Print';font-variant-ligatures:normal;font-variant-caps:normal;font-variant-numeric:normal;font-feature-settings:normal;text-align:start" font-size="3.528" fill="#917c6f" stroke-width=".265"><tspan y="254.382" x="114.134">адамдар</tspan><tspan y="261.532" x="114.134">бөлме ғимарат жобалар</tspan><tspan y="268.682" x="114.134">ғарыш тылсым әлем</tspan><tspan y="275.833" x="114.134">гүлдер</tspan><tspan y="282.983" x="114.134">өсімдіктер</tspan><tspan y="290.134" x="114.134">қалыпталған кескіндер</tspan><tspan y="297.284" x="114.134">қолданыс заттары</tspan><tspan y="304.34" x="114.134">жаныуарлар</tspan><tspan y="311.49" x="114.134">өнер білім спорт</tspan><tspan y="318.546" x="114.134">art education sports</tspan><tspan y="325.707" x="114.134">美術教育スポーツ</tspan><tspan y="332.857" x="114.134">الرياضة التربية الفنية</tspan><tspan y="340.008" x="114.134">сән үлгілері</tspan><tspan y="347.158" x="114.134">тәбиғат</tspan><tspan y="354.214" x="114.134">елмекен</tspan></text><text y="254.36" x="162.734" style="line-height:2;-inkscape-font-specification:'Segoe Print';font-variant-ligatures:normal;font-variant-caps:normal;font-variant-numeric:normal;font-feature-settings:normal;text-align:start" font-size="3.528" fill="#917c6f" stroke-width=".265"><tspan y="254.36" x="162.734">үи</tspan><tspan y="261.51" x="162.734">пәтер</tspan><tspan y="268.661" x="162.734">бөлме алаң</tspan><tspan y="275.811" x="162.734">ғимарат</tspan><tspan y="282.867" x="162.734">жер телімі</tspan><tspan y="290.017" x="162.734">қызымет</tspan></text><text y="253.736" x="190.455" style="line-height:2;-inkscape-font-specification:'Segoe Print';font-variant-ligatures:normal;font-variant-caps:normal;font-variant-numeric:normal;font-feature-settings:normal;text-align:start" font-size="3.528" fill="#917c6f" stroke-width=".265"><tspan y="253.736" x="190.455">жеңіл</tspan><tspan y="260.792" x="190.455">жолаушылар</tspan><tspan y="267.942" x="190.455">жүк</tspan><tspan y="275.093" x="190.455">қызыметтік</tspan><tspan y="282.148" x="190.455">белсебет</tspan><tspan y="289.204" x="190.455">мотосекл</tspan><tspan y="296.354" x="190.455">сұу</tspan><tspan y="303.505" x="190.455">әуе</tspan><tspan y="310.655" x="190.455">қызымет</tspan></text><text y="253.832" x="223.203" style="line-height:2;-inkscape-font-specification:'Segoe Print';font-variant-ligatures:normal;font-variant-caps:normal;font-variant-numeric:normal;font-feature-settings:normal;text-align:start" font-size="3.528" fill="#917c6f" stroke-width=".265"><tspan y="253.832" x="223.203">нан өнімдері</tspan><tspan y="260.983" x="223.203">сұусын</tspan><tspan y="268.133" x="223.203">кәмпит</tspan><tspan y="275.189" x="223.203">торт</tspan><tspan y="282.339" x="223.203">жеміс жидек көкөніс</tspan><tspan y="289.49" x="223.203">қаинатпа</tspan><tspan y="296.64" x="223.203">тұздалған</tspan><tspan y="303.79" x="223.203">қызымет</tspan></text><text y="253.707" x="265.973" style="line-height:2;-inkscape-font-specification:'Segoe Print';font-variant-ligatures:normal;font-variant-caps:normal;font-variant-numeric:normal;font-feature-settings:normal;text-align:start" font-size="3.528" fill="#917c6f" stroke-width=".265"><tspan y="253.707" x="265.973">бас кіиім</tspan><tspan y="260.858" x="265.973">үстіңгі</tspan><tspan y="268.008" x="265.973">астыңғы</tspan><tspan y="275.158" x="265.973">аиақ</tspan><tspan y="282.214" x="265.973">спорт</tspan><tspan y="289.27" x="265.973">балалар</tspan><tspan y="296.325" x="265.973">арнаиы</tspan><tspan y="303.476" x="265.973">қызымет</tspan></text><text y="253.509" x="288.034" style="line-height:2;-inkscape-font-specification:'Segoe Print';font-variant-ligatures:normal;font-variant-caps:normal;font-variant-numeric:normal;font-feature-settings:normal;text-align:start" font-size="3.528" fill="#917c6f" stroke-width=".265"><tspan y="253.509" x="288.034">ас үи</tspan><tspan y="260.659" x="288.034">құрал</tspan><tspan y="267.81" x="288.034">құрылғы</tspan><tspan y="274.96" x="288.034">бақша</tspan><tspan y="282.016" x="288.034">оиын</tspan><tspan y="289.166" x="288.034">зат-қызымет</tspan></text><text y="253.434" x="319.277" style="line-height:2;-inkscape-font-specification:'Segoe Print';font-variant-ligatures:normal;font-variant-caps:normal;font-variant-numeric:normal;font-feature-settings:normal;text-align:start" font-size="3.528" fill="#917c6f" stroke-width=".265"><tspan y="253.434" x="319.277">әк үнтақ</tspan><tspan y="260.489" x="319.277">боиау</tspan><tspan y="267.64" x="319.277">түс қағаз</tspan><tspan y="274.79" x="319.277">кірпіш тұтас бетон</tspan><tspan y="281.941" x="319.277">ағаш пластік ұқсастар</tspan><tspan y="289.091" x="319.277">метал көмпөзіт ұқсастар</tspan><tspan y="296.147" x="319.277">есік терезе</tspan><tspan y="303.297" x="319.277">су кәріз жылытыу ауа тораптары</tspan><tspan y="310.448" x="319.277">електр басқа желілер</tspan><tspan y="317.598" x="319.277">сәулет сәндеу жобалау</tspan><tspan y="324.749" x="319.277">қызымет</tspan></text><text y="309.637" x="300.914" style="line-height:1.25;-inkscape-font-specification:'Segoe Print';font-variant-ligatures:normal;font-variant-caps:normal;font-variant-numeric:normal;font-feature-settings:normal;text-align:start" font-size="3.528" stroke-width=".265"/><g style="line-height:2;-inkscape-font-specification:'Segoe Print';font-variant-ligatures:normal;font-variant-caps:normal;font-variant-numeric:normal;font-feature-settings:normal;text-align:start" aria-label="әк үнтақ боиау түс қағаз кірпіш тұтас бетон ағаш пластік ұқсастар метал көмпөзіт ұқсастар есік терезе су кәріз жылытыу ауа тораптары електр басқа желілер сәулет сәндеу жобалау қызымет" font-size="3.528" fill="#917c6f" stroke-width=".265"><path d="M2.192 294.395v-.155H3.65q-.02-.327-.198-.498-.175-.172-.49-.172-.183 0-.355.045-.171.045-.34.134v-.3q.17-.072.35-.11.179-.038.363-.038.462 0 .73.269.271.269.271.727 0 .474-.257.753-.254.277-.689.277-.389 0-.616-.25-.226-.251-.226-.682zm.317.093q.004.26.145.415.143.155.377.155.265 0 .424-.15.16-.15.184-.422zM4.747 294.37q.408-.07.732-.526.151-.212.265-.3.115-.09.245-.09.051 0 .103.047.052.046.052.11 0 .085-.16.133-.085.026-.159.088t-.28.296q-.163.183-.292.257-.012.007-.012.012 0 .007.016.014.125.067.265.26.203.28.305.355.101.072.232.072l.057-.002q.06-.003.06.053 0 .066-.074.136t-.244.07q-.131 0-.255-.111-.123-.114-.281-.367-.091-.15-.17-.227-.08-.078-.176-.078-.02 0-.128.035-.107.034-.12.067-.012.03-.02.229-.004.196-.004.317 0 .064-.06.114-.061.05-.132.05-.072 0-.113-.044-.042-.04-.042-.086 0-.062.047-.293.083-.42.165-1.386.007-.093.07-.167.065-.076.146-.076.044 0 .074.048t.03.124q0 .06-.02.138-.098.357-.122.729zM8.824 295.246v.765h-.336v-.765l-.78-1.898h.336l.602 1.509.603-1.51h.336zM11.187 294.152q.02-.036.06-.432.032-.317.202-.317.14 0 .14.14 0 .032-.025.132-.132.55-.132.922 0 .403.132.521.07.064.07.104 0 .048-.071.088-.07.04-.126.04-.269 0-.269-.83 0-.056-.041-.056-.162 0-.396.019t-.336.048q-.1.03-.124.055-.023.024-.041.133-.018.107-.018.222v.212q0 .184-.169.184-.14 0-.14-.184 0-.12.03-.307.057-.34.114-1.174.007-.109.019-.138.012-.03.062-.064.052-.036.112-.036.124 0 .124.101 0 .016-.04.259-.041.243-.041.377 0 .095.065.095.131 0 .48-.043.347-.045.36-.07zM13.296 293.914q-.16.003-.686.95-.177.318-.207.348-.029.027-.108.05-.078.022-.13.022-.115 0-.115-.45 0-.253.109-.916.045-.269.045-.384 0-.114.101-.114.191 0 .191.276 0 .129-.063.506-.074.43-.076.524.107-.104.313-.453.293-.48.431-.607.14-.129.288-.129.112 0 .177.15.067.15.081.715.003.141.026.21.022.069.033.069.08 0 .351-.551.145-.291.28-.443.139-.152.306-.152.14 0 .203.145.064.143.091.426.026.286.08.523.055.238.2.305.097.047.097.109 0 .06-.082.124-.083.063-.152.063-.138 0-.246-.168-.109-.17-.164-.73-.024-.226-.046-.321-.023-.095-.07-.095-.073 0-.173.138-.098.138-.319.56-.172.329-.262.439-.087.108-.17.108-.074 0-.133-.058-.058-.06-.074-.143-.015-.084-.033-.412-.025-.544-.094-.634zM16.782 294.65q-.241.324-.477.486-.236.162-.432.162-.133 0-.23-.112-.096-.112-.096-.288 0-.453.405-.975.405-.524.804-.524.145 0 .216.166.022.055.07.055.138 0 .138.107 0 .053-.017.146-.093.508-.093.717 0 .417.158.5.076.04.076.1 0 .054-.074.108-.074.055-.143.055-.133 0-.219-.183-.086-.182-.086-.52zm-.105-.97q-.227 0-.529.427-.301.426-.301.707 0 .198.13.198.19 0 .526-.383.336-.382.336-.703 0-.246-.162-.246zM17.783 293.348h.315v.906l.894-.906h.39l-.738.746.646.92h.245v.75h-.317v-.487h-.097l-.684-.973-.339.344v.629h-.315zM3.24 300.543q-.066-.178-.304-.384-.224-.193-.224-.331 0-.11.073-.177.072-.07.268-.125.245-.067.498-.151.253-.086.305-.11.033-.016.067-.016.057 0 .057.102 0 .057-.138.155-.137.098-.487.182-.22.056-.27.083-.049.026-.049.054 0 .062.135.179.506.442.506 1.11 0 .288-.152.617-.151.328-.404.488-.252.16-.493.16-.217 0-.33-.212-.111-.212-.111-.467 0-.45.277-.85.28-.4.59-.4.04 0 .103.053.057.052.082.04zm-.752 1.164q0 .191.05.3.052.108.135.108.11 0 .298-.136.187-.136.301-.403.116-.267.116-.5 0-.192-.056-.311-.053-.12-.1-.12-.306 0-.525.373-.219.374-.219.69zM4.549 302.419q-.236 0-.39-.18-.153-.179-.153-.442 0-.445.298-.875.3-.433.717-.433.275 0 .446.212.172.212.172.505 0 .448-.355.83-.353.383-.735.383zm-.24-.667q0 .174.072.284.075.11.195.11.257 0 .515-.28.259-.283.259-.627 0-.212-.1-.343-.099-.133-.266-.133-.277 0-.477.341-.198.34-.198.648zM7.256 301.583q-.22.37-.45.574-.232.203-.43.203-.114 0-.232-.133-.118-.132-.118-.408 0-.225.109-.665.091-.367.091-.515.05-.103.157-.103.072 0 .115.052.044.05.044.105 0 .12-.085.342-.16.433-.16.743 0 .282.13.282.168 0 .426-.284.259-.284.443-.792.072-.203.117-.264.047-.062.124-.062.117 0 .117.155 0 .02-.032.126-.104.377-.104.713 0 .403.133.522.069.064.069.103 0 .049-.07.088-.07.04-.127.04-.12 0-.194-.18-.074-.178-.074-.528v-.057l.001-.057zM9.353 301.706q-.241.323-.477.485-.236.162-.433.162-.132 0-.229-.112-.096-.112-.096-.287 0-.453.404-.975.405-.524.805-.524.145 0 .215.165.023.055.07.055.139 0 .139.107 0 .054-.018.147-.093.508-.093.716 0 .417.159.5.076.041.076.101 0 .054-.074.107-.074.055-.143.055-.133 0-.22-.182-.085-.183-.085-.52zm-.105-.97q-.228 0-.53.427-.3.425-.3.706 0 .198.13.198.19 0 .526-.382.336-.383.336-.703 0-.246-.162-.246zM11.535 301.724q-.262.247-.523.386-.262.14-.402.14-.16 0-.256-.136-.095-.138-.095-.338 0-.291.11-.687.112-.398.17-.451.06-.054.156-.054.051 0 .08.062.03.06.03.124 0 .043-.04.112-.225.391-.225.808 0 .096.036.17.036.073.11.073.095 0 .233-.057.14-.058.313-.19.174-.13.234-.211.06-.081.085-.185.026-.103.036-.447.01-.345.167-.345.093 0 .12.05.028.048.028.186 0 .103-.03.448-.008.077-.01.143-.05.92-.275 1.442-.226.522-.656.522-.338 0-.602-.178-.261-.175-.261-.298 0-.057.025-.112.028-.055.07-.055.02 0 .044.033.226.346.694.346.298 0 .446-.365.149-.364.188-.935zM3.527 308.12q-.16.003-.685.95-.178.318-.207.348-.03.027-.109.05-.077.022-.129.022-.115 0-.115-.45 0-.253.108-.916.045-.269.045-.384 0-.114.102-.114.19 0 .19.276 0 .129-.063.506-.074.43-.076.524.107-.104.314-.453.293-.48.43-.607.14-.129.288-.129.112 0 .178.15.067.15.08.715.004.141.026.21.023.069.033.069.081 0 .351-.551.145-.291.281-.443.138-.152.305-.152.14 0 .203.145.064.143.092.426.026.286.079.523.055.238.2.305.098.047.098.109 0 .06-.083.124-.082.063-.151.063-.138 0-.247-.168-.108-.17-.163-.73-.024-.226-.047-.321-.022-.095-.07-.095-.073 0-.173.138-.098.138-.318.56-.173.329-.262.439-.088.109-.17.109-.075 0-.133-.06-.059-.06-.074-.142-.016-.084-.033-.412-.026-.544-.095-.634zM6.845 309.452v.765h-.336v-.765l-.78-1.898h.335l.603 1.509.603-1.51h.336zM8.41 309.581q-.258 0-.397-.148-.138-.148-.138-.415 0-.45.356-.947.357-.5.664-.5.14 0 .239.152.102.15.102.318 0 .102-.045.176-.043.072-.088.072-.1 0-.141-.201-.047-.217-.135-.217-.179 0-.423.425-.245.426-.245.719 0 .292.332.292.254 0 .596-.237.121-.085.178-.085.058 0 .058.067 0 .131-.308.331-.308.198-.604.198zM11.23 307.554h.316v.906l.894-.906h.389l-.737.746.646.92h.244v.75h-.317v-.487h-.096l-.684-.973-.34.344v.629h-.315zM14.43 308.856q-.24.324-.476.486-.236.162-.433.162-.132 0-.229-.112-.096-.112-.096-.288 0-.453.405-.975.404-.524.804-.524.145 0 .215.166.023.055.07.055.139 0 .139.107 0 .053-.018.146-.093.508-.093.717 0 .417.159.5.076.04.076.1 0 .054-.074.108-.074.055-.143.055-.133 0-.22-.183-.085-.182-.085-.52zm-.104-.97q-.228 0-.53.427-.3.426-.3.707 0 .198.13.198.19 0 .526-.383.336-.382.336-.702 0-.247-.162-.247zM15.66 309.483v-.861h-.452v-.293h.453v-.775h1.36v.27h-1.043v.505h.716v.293h-.716v.861zM18.584 308.856q-.241.324-.477.486-.236.162-.433.162-.132 0-.229-.112-.096-.112-.096-.288 0-.453.405-.975.404-.524.804-.524.145 0 .215.166.023.055.071.055.138 0 .138.107 0 .053-.017.146-.093.508-.093.717 0 .417.158.5.076.04.076.1 0 .054-.074.108-.074.055-.143.055-.133 0-.219-.183-.086-.182-.086-.52zm-.105-.97q-.228 0-.529.427-.301.426-.301.707 0 .198.13.198.19 0 .526-.383.336-.382.336-.702 0-.247-.162-.247zM20.336 308.424q.222.036.346.163.124.128.124.312 0 .291-.246.486-.247.193-.648.193-.24 0-.413-.104-.173-.103-.173-.229 0-.103.12-.103.016 0 .053.03.189.163.45.163.228 0 .394-.12.165-.121.165-.314 0-.128-.095-.212-.093-.086-.217-.086-.095 0-.332.074-.047.015-.1.015-.104 0-.104-.14 0-.047.049-.077.05-.029.212-.067.49-.112.49-.398 0-.086-.062-.141-.06-.057-.156-.057-.18 0-.383.159-.119.093-.18.093-.106 0-.106-.099 0-.129.243-.263.245-.136.469-.136.224 0 .351.119.13.119.13.25 0 .311-.381.489zM2.576 315.727q.408-.07.732-.527.152-.212.266-.3.115-.089.244-.089.052 0 .104.046.051.047.051.11 0 .085-.16.133-.084.026-.158.088-.075.062-.281.297-.162.182-.291.256-.012.007-.012.012 0 .007.015.014.126.067.265.26.204.281.305.355.102.072.233.072l.057-.002q.06-.003.06.054 0 .065-.074.136-.074.07-.245.07-.13 0-.255-.111-.122-.114-.28-.367-.092-.15-.171-.228-.08-.077-.176-.077-.02 0-.127.034-.107.035-.12.067-.013.031-.02.23-.005.196-.005.316 0 .064-.06.114t-.131.05q-.072 0-.114-.043-.041-.041-.041-.086 0-.062.046-.293.083-.42.166-1.387.007-.093.07-.167.064-.075.145-.075.045 0 .074.048.031.048.031.124 0 .06-.02.138-.099.356-.123.728zM4.805 314.327q-.036 0-.055-.078-.007-.024-.019-.053-.046-.112-.046-.195 0-.068.08-.14.083-.071.183-.071.05 0 .112.04.062.037.062.073 0 .057-.043.193-.041.136-.134.185-.092.046-.14.046zm-.225 1.924q0 .131.036.295.007.03.007.051 0 .031-.057.08-.057.05-.12.05-.168 0-.168-.307 0-.317.131-1.003.045-.239.045-.294 0-.109.04-.184.04-.078.111-.078.088 0 .138.043.052.041.052.093t-.024.136q-.13.455-.16.651-.031.197-.031.467zM5.603 316.434q-.085.31-.159.87l-.048.325q-.012.069-.064.136-.051.07-.094.07-.054 0-.123-.056-.067-.053-.067-.086 0-.095.043-.262.315-1.273.315-2.236l-.001-.145q-.004-.186.065-.27.069-.084.159-.084.04 0 .079.065.038.064.038.183 0 .167-.035.405-.045.3-.046.344.256-.448.544-.7.288-.25.534-.25.174 0 .293.13.12.13.12.322 0 .562-.43 1.02-.43.458-.839.458-.102 0-.162-.052-.059-.051-.122-.187zm1.07-1.387q-.243 0-.602.455-.358.455-.358.708 0 .062.07.12.071.059.18.059.246 0 .566-.364.32-.365.32-.716 0-.126-.05-.193-.05-.069-.127-.069zM8.724 315.309q-.09 0-.196.117-.105.117-.322.525-.286.548-.37.624-.084.076-.139.076-.203 0-.203-.197 0-.082.028-.234.094-.52.094-1.097 0-.066.056-.145.056-.08.106-.08.09 0 .128.054.038.055.038.222 0 .174-.104.717-.034.18-.034.227 0 .028.014.028.026 0 .24-.412.214-.418.376-.589.162-.17.357-.17.155 0 .251.14.099.142.143.516.049.425.087.53.04.104.124.104.053 0 .134-.038.014-.007.02-.007.075 0 .075.086 0 .076-.102.162-.102.084-.245.084-.146 0-.227-.115-.08-.117-.126-.622-.048-.506-.203-.506zM10.445 314.327q-.036 0-.055-.078-.007-.024-.02-.053-.046-.112-.046-.195 0-.068.081-.14.083-.071.183-.071.05 0 .112.04.062.037.062.073 0 .057-.043.193-.042.136-.135.185-.09.046-.14.046zm-.226 1.924q0 .131.036.295.007.03.007.051 0 .031-.057.08-.056.05-.12.05-.167 0-.167-.307 0-.317.13-1.003.045-.239.045-.294 0-.109.04-.184.04-.078.112-.078.088 0 .138.043.052.041.052.093t-.025.136q-.129.455-.16.651-.03.197-.03.467zM13.256 315.884q-.22.37-.451.574-.231.203-.43.203-.113 0-.232-.133-.117-.132-.117-.408 0-.141.03-.312-.164.324-.42.557-.258.232-.46.232-.096 0-.211-.113-.114-.114-.114-.307 0-.222.02-.334.015-.102.025-.21.01-.086.024-.162.067-.37.052-.477.036-.123.167-.123.052 0 .1.043.05.042.05.138 0 .159-.07.396-.095.32-.095.565 0 .135.018.209.021.074.09.074.227 0 .512-.403.286-.403.453-.84.074-.199.186-.199.072 0 .115.052.043.05.043.105 0 .12-.084.343-.16.425-.16.725 0 .282.13.282.06 0 .143-.04.087-.042.212-.168.126-.127.245-.312.12-.186.152-.269.03-.084.125-.394.06-.201.11-.272.052-.073.133-.073.117 0 .117.156 0 .019-.032.125-.049.166-.081.42-.033.254-.033.42 0 .402.132.521.07.064.07.103 0 .049-.071.088-.07.04-.126.04-.12 0-.195-.18-.074-.178-.074-.528v-.057l.002-.057zM16.839 315.27q-.16.004-.686.95-.177.319-.206.348-.03.028-.109.05-.077.022-.13.022-.114 0-.114-.45 0-.252.108-.916.045-.268.045-.384 0-.113.101-.113.192 0 .192.275 0 .13-.064.507-.074.43-.076.523.107-.103.314-.453.292-.479.43-.606.14-.13.288-.13.112 0 .177.15.068.15.081.715.004.142.026.21.023.07.033.07.08 0 .351-.552.145-.29.281-.442.138-.152.305-.152.14 0 .203.145.064.143.092.425.025.286.079.524.055.238.2.305.098.046.098.108 0 .06-.083.124t-.151.064q-.138 0-.247-.169-.108-.169-.163-.73-.025-.226-.047-.32-.022-.095-.07-.095-.073 0-.173.138-.098.137-.319.56-.172.328-.261.439-.088.108-.17.108-.075 0-.134-.058-.058-.06-.074-.143-.015-.085-.032-.412-.026-.544-.095-.634zM20.918 314.704l-.761 1.898v.152h.45v.293h-.45v.32h-.336v-.32h-.47v-.293h.47v-.152l-.78-1.898h.335l.603 1.51.603-1.51zM22.553 315.27q-.16.004-.686.95-.177.319-.207.348-.029.028-.108.05-.078.022-.13.022-.115 0-.115-.45 0-.252.109-.916.045-.268.045-.384 0-.113.101-.113.191 0 .191.275 0 .13-.063.507-.074.43-.076.523.107-.103.313-.453.293-.479.431-.606.14-.13.288-.13.112 0 .177.15.067.15.081.715.003.142.026.21.022.07.033.07.08 0 .351-.552.145-.29.28-.442.139-.152.306-.152.14 0 .203.145.064.143.091.425.026.286.08.524.055.238.2.305.097.046.097.108 0 .06-.082.124-.083.064-.152.064-.138 0-.246-.169-.109-.169-.164-.73-.024-.226-.046-.32-.023-.095-.07-.095-.073 0-.173.138-.098.137-.319.56-.172.328-.262.439-.088.108-.17.108-.074 0-.133-.058-.058-.06-.074-.143-.015-.085-.033-.412-.025-.544-.094-.634zM26.04 316.006q-.242.324-.478.486-.236.162-.432.162-.133 0-.23-.112-.096-.112-.096-.287 0-.454.405-.975.405-.524.804-.524.145 0 .216.165.022.055.07.055.138 0 .138.107 0 .054-.017.147-.093.508-.093.716 0 .417.158.5.076.041.076.101 0 .054-.074.107-.074.055-.143.055-.133 0-.219-.182-.086-.183-.086-.52zm-.106-.97q-.227 0-.529.428-.301.425-.301.706 0 .198.13.198.19 0 .526-.382.336-.383.336-.703 0-.246-.162-.246zM27.419 316.732q-.259 0-.398-.148-.138-.149-.138-.416 0-.45.357-.947.356-.5.663-.5.14 0 .24.152.1.15.1.319 0 .101-.044.175-.043.073-.088.073-.1 0-.141-.202-.046-.217-.134-.217-.18 0-.424.426-.245.425-.245.718t.333.293q.253 0 .596-.238.12-.084.177-.084.059 0 .059.067 0 .13-.309.33-.308.199-.604.199zM31.16 314.844q-.065-.178-.303-.384-.224-.193-.224-.331 0-.11.072-.178.073-.068.27-.124.244-.067.497-.151.253-.086.305-.11.033-.016.067-.016.057 0 .057.102 0 .057-.138.155t-.487.182q-.22.055-.27.083-.05.026-.05.053 0 .062.135.18.507.442.507 1.11 0 .288-.152.617-.151.328-.405.488-.251.16-.492.16-.217 0-.33-.212-.111-.212-.111-.467 0-.451.277-.85.28-.4.59-.4.04 0 .103.053.056.052.082.04zm-.75 1.164q0 .191.05.3.05.108.133.108.11 0 .298-.136t.302-.403q.115-.267.115-.5 0-.192-.055-.311-.053-.12-.1-.12-.306 0-.525.373-.219.374-.219.69zM33.51 316.05q0 .175-.312.423-.31.248-.64.248-.278 0-.43-.163-.15-.164-.15-.457 0-.492.333-.937.332-.444.727-.444.129 0 .21.084.083.085.083.203 0 .266-.26.509-.26.242-.696.477-.09.046-.09.12 0 .143.083.23.082.085.244.085.37 0 .756-.41.057-.056.087-.056.055 0 .055.088zm-1.197-.27q.73-.433.73-.697 0-.103-.093-.103-.159 0-.358.232-.198.233-.28.569zM35.17 315.27q-.16.004-.685.95-.178.319-.207.348-.03.028-.109.05-.077.022-.129.022-.115 0-.115-.45 0-.252.108-.916.045-.268.045-.384 0-.113.102-.113.191 0 .191.275 0 .13-.064.507-.074.43-.076.523.107-.103.314-.453.293-.479.43-.606.14-.13.288-.13.112 0 .178.15.067.15.08.715.004.142.027.21.022.07.032.07.081 0 .352-.552.144-.29.28-.442.138-.152.305-.152.14 0 .204.145.063.143.09.425.027.286.08.524.055.238.2.305.098.046.098.108 0 .06-.083.124-.082.064-.151.064-.138 0-.246-.169-.109-.169-.164-.73-.024-.226-.047-.32-.022-.095-.07-.095-.073 0-.172.138-.099.137-.32.56-.171.328-.261.439-.088.108-.17.108-.075 0-.133-.058-.059-.06-.074-.143-.016-.085-.033-.412-.026-.544-.095-.634zM37.999 316.72q-.236 0-.39-.18-.153-.179-.153-.442 0-.445.298-.875.3-.433.717-.433.275 0 .446.212.172.212.172.505 0 .448-.355.83-.353.383-.735.383zm-.24-.667q0 .174.073.284.074.11.194.11.257 0 .515-.28.259-.283.259-.627 0-.212-.1-.343-.098-.133-.265-.133-.278 0-.478.341-.198.34-.198.648zM40.758 315.509q.02-.037.06-.433.032-.317.202-.317.14 0 .14.14 0 .033-.025.132-.132.55-.132.922 0 .403.132.522.07.064.07.103 0 .049-.071.088-.07.04-.126.04-.269 0-.269-.83 0-.056-.041-.056-.162 0-.396.02-.235.018-.336.048-.1.029-.124.055-.023.024-.042.132-.017.107-.017.223v.211q0 .185-.169.185-.14 0-.14-.185 0-.12.03-.306.057-.341.114-1.175.007-.109.019-.138.012-.03.062-.064.052-.036.112-.036.124 0 .124.102 0 .015-.04.258-.041.243-.041.378 0 .094.065.094.131 0 .48-.043.347-.045.36-.07zM3.388 323.157q-.242.324-.478.486-.236.162-.432.162-.133 0-.229-.112-.097-.112-.097-.288 0-.453.405-.975.405-.524.805-.524.144 0 .215.166.022.055.07.055.138 0 .138.107 0 .053-.017.146-.093.508-.093.717 0 .416.159.5.075.04.075.1 0 .054-.074.108-.074.055-.143.055-.132 0-.218-.183-.086-.182-.086-.52zm-.106-.97q-.227 0-.528.427-.302.426-.302.707 0 .198.131.198.19 0 .526-.383.335-.382.335-.703 0-.246-.162-.246zM4.617 323.784v-.861h-.453v-.293h.453v-.775h1.361v.27H4.934v.505h.717v.293h-.717v.86zM7.54 323.157q-.24.324-.477.486-.236.162-.432.162-.133 0-.229-.112t-.096-.288q0-.453.404-.975.405-.524.805-.524.144 0 .215.166.022.055.07.055.139 0 .139.107 0 .053-.018.146-.093.508-.093.717 0 .416.159.5.076.04.076.1 0 .054-.075.108-.074.055-.142.055-.133 0-.22-.183-.085-.182-.085-.52zm-.104-.97q-.228 0-.53.427-.3.426-.3.707 0 .198.13.198.19 0 .526-.383.335-.382.335-.703 0-.246-.161-.246zM10.796 323.035q-.22.37-.451.573-.23.204-.429.204-.114 0-.233-.133-.117-.133-.117-.408 0-.142.03-.312-.164.324-.42.556-.257.233-.459.233-.096 0-.212-.114-.113-.114-.113-.307 0-.222.019-.334.015-.101.025-.21.01-.086.024-.162.068-.37.052-.477.036-.122.167-.122.052 0 .1.043.05.041.05.138 0 .158-.07.396-.095.319-.095.565 0 .134.019.208.02.074.09.074.227 0 .51-.403.287-.403.454-.84.074-.198.186-.198.072 0 .115.051.043.05.043.105 0 .121-.084.343-.16.426-.16.725 0 .283.13.283.06 0 .144-.041.086-.042.212-.168.125-.127.244-.311.12-.186.152-.269.03-.084.125-.394.06-.202.11-.273.052-.072.133-.072.117 0 .117.155 0 .019-.032.126-.048.165-.081.42-.033.253-.033.419 0 .403.133.522.069.063.069.103 0 .048-.071.088-.069.04-.126.04-.12 0-.194-.18-.074-.179-.074-.529v-.056l.001-.057zM14.252 322.46q-.09 0-.197.116-.105.118-.322.526-.286.548-.37.623-.083.076-.138.076-.203 0-.203-.196 0-.083.027-.234.095-.52.095-1.098 0-.065.055-.144.057-.081.107-.081.09 0 .127.055.038.055.038.222 0 .174-.103.716-.034.18-.034.228 0 .027.013.027.026 0 .24-.411.215-.419.377-.59.162-.17.357-.17.155 0 .251.141.098.142.143.515.048.426.086.531.04.103.124.103.054 0 .135-.038.013-.007.02-.007.074 0 .074.087 0 .075-.101.161-.102.085-.245.085-.146 0-.227-.116-.08-.117-.126-.621-.048-.507-.203-.507zM16.384 322.38q-.041-.002-.08.08-.357.712-.54.967l-.04.066q-.215.384-.315.384-.134 0-.134-.13 0-.116.167-.318.162-.191.425-.648.264-.458.428-.821.03-.066.093-.066.025 0 .09.024.068.023.087.05.019.028.084.32.212 1.057.447 1.253.055.048.065.065.01.016.01.045 0 .054-.034.098-.035.043-.067.055-.033.013-.135.013-.036 0-.168-.178-.133-.179-.31-.973-.044-.214-.073-.286zM18.686 323.157q-.242.324-.478.486-.236.162-.432.162-.133 0-.23-.112-.096-.112-.096-.288 0-.453.405-.975.405-.524.805-.524.144 0 .215.166.022.055.07.055.138 0 .138.107 0 .053-.017.146-.093.508-.093.717 0 .416.159.5.075.04.075.1 0 .054-.074.108-.074.055-.143.055-.132 0-.218-.183-.087-.182-.087-.52zm-.106-.97q-.227 0-.528.427-.302.426-.302.707 0 .198.131.198.19 0 .525-.383.336-.382.336-.703 0-.246-.162-.246zM20.065 323.882q-.258 0-.398-.148-.137-.148-.137-.415 0-.45.356-.948.357-.5.663-.5.14 0 .24.153.101.15.101.318 0 .102-.044.176-.043.072-.088.072-.1 0-.142-.201-.046-.217-.134-.217-.179 0-.424.425-.244.426-.244.718 0 .293.332.293.253 0 .596-.237.12-.085.178-.085.058 0 .058.067 0 .131-.308.331-.308.198-.605.198zM22.684 322.421q-.16.003-.686.95-.177.318-.207.347-.029.028-.108.05-.078.023-.13.023-.115 0-.115-.45 0-.253.109-.916.044-.269.044-.384 0-.114.102-.114.191 0 .191.276 0 .129-.063.506-.075.43-.076.524.107-.104.313-.453.293-.48.43-.607.14-.129.289-.129.112 0 .177.15.067.15.08.715.004.141.027.21.022.069.033.069.08 0 .35-.551.146-.291.282-.443.137-.152.305-.152.14 0 .203.145.064.143.091.426.026.286.08.523.055.238.2.305.097.047.097.109 0 .06-.082.124-.083.063-.152.063-.138 0-.246-.168-.109-.17-.164-.73-.024-.226-.046-.321-.023-.095-.071-.095-.072 0-.172.138-.098.138-.319.56-.172.329-.262.439-.088.108-.17.108-.074 0-.133-.058-.058-.06-.074-.143-.015-.084-.033-.412-.026-.544-.094-.634zM25.564 321.477q-.037 0-.055-.077-.007-.024-.02-.053-.046-.112-.046-.195 0-.069.081-.14.083-.072.183-.072.05 0 .112.04.062.037.062.074 0 .056-.043.193-.042.136-.135.184-.091.046-.14.046zm-.226 1.925q0 .13.036.294.007.031.007.052 0 .03-.057.079-.057.05-.12.05-.167 0-.167-.307 0-.317.13-1.002.045-.24.045-.295 0-.108.04-.184.04-.078.112-.078.088 0 .138.043.051.042.051.093 0 .052-.024.137-.129.454-.16.65-.031.197-.031.468zM26.378 322.878q.409-.07.732-.527.152-.212.266-.3.115-.09.244-.09.052 0 .104.047.051.046.051.11 0 .085-.16.133-.084.026-.158.088t-.281.296q-.162.183-.291.257-.012.007-.012.012 0 .007.015.013.126.068.266.26.203.281.304.355.102.073.233.073l.057-.002q.06-.003.06.053 0 .066-.074.136t-.245.07q-.13 0-.254-.111-.123-.114-.281-.367-.092-.15-.17-.227-.08-.078-.177-.078-.02 0-.127.034-.107.035-.12.068-.013.03-.02.229-.005.196-.005.317 0 .063-.06.113t-.13.05q-.073 0-.115-.043-.04-.041-.04-.086 0-.062.046-.293.082-.42.165-1.386.007-.093.07-.167.064-.076.145-.076.045 0 .074.048.031.048.031.124 0 .06-.02.138-.099.356-.123.728zM31.217 321.855l-.761 1.898v.152h.451v.292h-.451v.32h-.336v-.32h-.47v-.292h.47v-.152l-.78-1.898h.335l.603 1.509.603-1.51zM31.643 321.855h.315v.906l.894-.906h.389l-.737.746.646.92h.244v.75h-.317v-.487h-.096l-.684-.973-.34.344v.629h-.314zM34.152 323.882q-.258 0-.398-.148-.137-.148-.137-.415 0-.45.356-.948.357-.5.663-.5.14 0 .24.153.101.15.101.318 0 .102-.044.176-.043.072-.088.072-.1 0-.142-.201-.046-.217-.134-.217-.179 0-.424.425-.244.426-.244.718 0 .293.332.293.253 0 .596-.237.12-.085.178-.085.058 0 .058.067 0 .131-.308.331-.308.198-.605.198zM36.631 323.157q-.241.324-.477.486-.236.162-.433.162-.132 0-.229-.112-.096-.112-.096-.288 0-.453.405-.975.405-.524.804-.524.145 0 .215.166.023.055.071.055.138 0 .138.107 0 .053-.017.146-.093.508-.093.717 0 .416.158.5.076.04.076.1 0 .054-.074.108-.074.055-.143.055-.133 0-.219-.183-.086-.182-.086-.52zm-.105-.97q-.227 0-.529.427-.301.426-.301.707 0 .198.13.198.19 0 .526-.383.336-.382.336-.703 0-.246-.162-.246zM38.01 323.882q-.258 0-.397-.148-.138-.148-.138-.415 0-.45.357-.948.356-.5.663-.5.14 0 .24.153.1.15.1.318 0 .102-.044.176-.043.072-.088.072-.1 0-.141-.201-.047-.217-.134-.217-.18 0-.424.425-.245.426-.245.718 0 .293.333.293.253 0 .596-.237.12-.085.177-.085.059 0 .059.067 0 .131-.309.331-.308.198-.604.198zM40.629 322.421q-.16.003-.686.95-.177.318-.206.347-.03.028-.109.05-.077.023-.129.023-.115 0-.115-.45 0-.253.108-.916.045-.269.045-.384 0-.114.102-.114.19 0 .19.276 0 .129-.063.506-.074.43-.076.524.107-.104.314-.453.293-.48.43-.607.14-.129.288-.129.112 0 .177.15.068.15.081.715.004.141.026.21.023.069.033.069.081 0 .351-.551.145-.291.281-.443.138-.152.305-.152.14 0 .203.145.064.143.092.426.025.286.079.523.055.238.2.305.098.047.098.109 0 .06-.083.124-.082.063-.151.063-.138 0-.247-.168-.108-.17-.163-.73-.024-.226-.047-.321-.022-.095-.07-.095-.073 0-.173.138-.098.138-.318.56-.173.329-.262.439-.088.108-.17.108-.075 0-.133-.058-.059-.06-.074-.143-.016-.084-.033-.412-.026-.544-.095-.634zM44.115 323.157q-.24.324-.477.486-.236.162-.432.162-.133 0-.23-.112-.096-.112-.096-.288 0-.453.405-.975.405-.524.805-.524.144 0 .215.166.022.055.07.055.138 0 .138.107 0 .053-.017.146-.093.508-.093.717 0 .416.159.5.075.04.075.1 0 .054-.074.108-.074.055-.143.055-.132 0-.218-.183-.087-.182-.087-.52zm-.105-.97q-.227 0-.528.427-.302.426-.302.707 0 .198.131.198.19 0 .525-.383.336-.382.336-.703 0-.246-.162-.246zM45.357 323.584q-.084.31-.158.87l-.048.326q-.012.068-.064.136-.052.069-.095.069-.053 0-.122-.056-.067-.053-.067-.086 0-.094.043-.261.315-1.273.315-2.236l-.002-.145q-.003-.186.066-.27.069-.085.158-.085.042 0 .08.066.037.063.037.182 0 .167-.034.405-.045.3-.047.345.257-.448.545-.7.287-.251.534-.251.174 0 .293.13.12.13.12.323 0 .561-.43 1.02-.431.458-.84.458-.1 0-.161-.052-.059-.052-.123-.188zm1.07-1.387q-.243 0-.601.455t-.358.708q0 .062.07.12.07.06.18.06.246 0 .566-.364.32-.365.32-.717 0-.125-.051-.193-.05-.068-.126-.068zM4.425 329.425q-.14.224-.393.758-.057.121-.116.233-.019.036-.072.16-.18.42-.315.42-.107 0-.157-.025-.048-.026-.093-.142-.045-.115-.133-.542-.101-.484-.137-.596-.118.263-.209.508-.138.36-.267.587-.129.226-.186.27-.057.047-.108.047-.054 0-.097-.041-.043-.041-.043-.081.01-.07.024-.088.15-.184.259-.393.108-.208.275-.625.169-.417.216-.684.022-.114.167-.114.084 0 .115.026t.06.105q.031.08.036.142.01.074.059.329.043.24.057.339.024.143.084.375.062.233.097.233.024 0 .069-.105l.144-.334q.04-.092.085-.18l.198-.404q.162-.334.248-.484.088-.152.117-.183.031-.03.069-.03.065 0 .146.035.081.035.085.078.003.043.015.36l.023.537q.01.257.03.438.021.179.073.29.081.175.081.271 0 .083-.069.114-.067.031-.126.031-.12 0-.186-.193-.063-.193-.093-1.106-.01-.274-.032-.336zM6.786 330.35q0 .176-.312.424-.31.248-.64.248-.278 0-.43-.163-.15-.164-.15-.457 0-.492.333-.937.333-.444.727-.444.13 0 .21.084.083.084.083.203 0 .266-.26.508-.26.243-.696.478-.09.046-.09.12 0 .143.083.23.083.085.245.085.37 0 .756-.41.057-.056.086-.056.055 0 .055.088zm-1.197-.268q.73-.434.73-.698 0-.103-.093-.103-.158 0-.358.232-.198.233-.279.569zM8.447 329.572q-.16.003-.686.949-.177.319-.207.348-.029.028-.108.05-.078.022-.13.022-.115 0-.115-.45 0-.252.109-.916.045-.268.045-.384 0-.113.101-.113.191 0 .191.275 0 .13-.063.507-.074.43-.076.523.107-.103.313-.453.293-.479.431-.606.14-.13.288-.13.112 0 .177.15.067.15.081.715.004.142.026.21.022.07.033.07.08 0 .351-.552.145-.29.28-.442.139-.152.306-.152.14 0 .203.145.064.143.091.425.026.286.08.524.055.237.2.305.097.046.097.108 0 .06-.082.124-.083.064-.152.064-.138 0-.246-.169-.109-.169-.164-.73-.024-.226-.046-.32-.023-.095-.07-.095-.073 0-.173.137-.098.138-.319.56-.172.33-.262.44-.087.108-.17.108-.074 0-.133-.059-.058-.06-.074-.143-.015-.084-.033-.411-.025-.545-.094-.634zM11.933 330.307q-.241.324-.477.486-.236.162-.432.162-.133 0-.23-.112-.096-.112-.096-.288 0-.453.405-.974.405-.524.804-.524.145 0 .216.165.022.055.07.055.138 0 .138.107 0 .054-.017.147-.093.508-.093.716 0 .417.158.5.076.04.076.101 0 .054-.074.107-.074.055-.143.055-.133 0-.219-.182-.086-.183-.086-.52zm-.105-.97q-.227 0-.529.428-.301.425-.301.706 0 .198.13.198.19 0 .526-.382.336-.383.336-.703 0-.246-.162-.246zM13.809 329.53q-.041-.001-.081.08-.357.713-.54.968-.015.022-.039.065-.215.384-.315.384-.134 0-.134-.129 0-.117.167-.318.162-.192.425-.648.264-.458.427-.822.031-.065.093-.065.026 0 .092.024.067.022.086.05.019.027.084.32.212 1.056.446 1.252.056.049.066.066.01.015.01.045 0 .053-.034.098-.035.043-.067.055-.033.012-.135.012-.036 0-.169-.177-.132-.18-.31-.974-.043-.213-.072-.285zM16.71 330.028q.408-.07.732-.527.151-.212.265-.3.116-.09.245-.09.051 0 .103.047t.052.11q0 .085-.16.133-.085.026-.159.088t-.28.297q-.163.182-.292.256-.012.007-.012.012 0 .007.016.014.125.067.265.26.203.28.305.355.101.072.232.072l.057-.002q.06-.003.06.054 0 .065-.074.136-.074.07-.244.07-.131 0-.255-.112-.122-.113-.28-.366-.092-.15-.171-.228-.08-.077-.176-.077-.02 0-.128.034-.106.034-.12.067-.012.031-.02.23-.004.196-.004.316 0 .064-.06.114t-.132.05q-.072 0-.113-.043-.042-.041-.042-.086 0-.062.047-.293.083-.42.165-1.387.007-.093.07-.167.065-.076.146-.076.044 0 .074.049.03.048.03.124 0 .06-.02.137-.098.357-.122.73zM19.232 329.227q-.254 0-.383.167-.127.166-.158.385h1.081q-.03-.22-.16-.385-.127-.167-.38-.167zm.001 1.489q.257 0 .402-.2.144-.2.144-.455h-1.092q0 .255.145.455t.401.2zm.002-1.757q.413 0 .65.268.235.27.235.745 0 .473-.236.744-.236.268-.65.268-.414 0-.65-.268-.234-.27-.234-.744 0-.476.234-.745.236-.268.65-.268zM22.74 329.425q-.14.224-.392.758-.057.121-.116.233-.019.036-.072.16-.181.42-.315.42-.107 0-.157-.025-.048-.026-.093-.142-.045-.115-.133-.542-.101-.484-.138-.596-.117.263-.208.508-.138.36-.267.587-.13.226-.186.27-.057.047-.109.047-.053 0-.096-.041-.043-.041-.043-.081.01-.07.024-.088.15-.184.258-.393.109-.208.276-.625.169-.417.215-.684.023-.114.167-.114.085 0 .116.026.03.026.06.105.031.08.036.142.01.074.059.329.043.24.057.339.024.143.084.375.062.233.097.233.024 0 .069-.105l.144-.334q.04-.092.085-.18l.198-.404q.162-.334.248-.484.088-.152.117-.183.03-.03.069-.03.065 0 .146.035.081.035.085.078.003.043.015.36l.022.537q.01.257.032.438.02.179.072.29.08.175.08.271 0 .083-.068.114-.067.031-.126.031-.12 0-.186-.193-.064-.193-.093-1.106-.01-.274-.033-.336zM24.8 329.61q-.089 0-.196.117-.105.117-.322.525-.286.548-.37.624-.083.076-.138.076-.203 0-.203-.197 0-.082.027-.234.095-.52.095-1.097 0-.066.055-.145.057-.08.107-.08.09 0 .127.054.038.055.038.222 0 .174-.103.717-.035.18-.035.227 0 .028.014.028.026 0 .24-.412.215-.418.377-.589.162-.17.356-.17.155 0 .252.14.098.142.143.516.048.425.086.53.04.104.124.104.053 0 .134-.038.014-.007.021-.007.074 0 .074.086 0 .076-.101.162-.102.084-.245.084-.146 0-.227-.115-.08-.117-.126-.622-.048-.506-.203-.506zM26.814 329.227q-.253 0-.382.167-.128.166-.159.385h1.082q-.03-.22-.16-.385-.128-.167-.38-.167zm.002 1.489q.257 0 .401-.2.145-.2.145-.455H26.27q0 .255.145.455.144.2.4.2zm.002-1.757q.413 0 .649.268.236.27.236.745 0 .473-.236.744-.236.268-.65.268-.415 0-.65-.268-.235-.27-.235-.744 0-.476.234-.745.236-.268.652-.268zM28.967 329.875q.223.036.347.164.124.127.124.311 0 .292-.247.486-.246.193-.647.193-.24 0-.414-.103-.172-.104-.172-.23 0-.103.119-.103.017 0 .053.03.19.163.45.163.229 0 .394-.12.166-.12.166-.314 0-.127-.095-.212-.093-.086-.217-.086-.095 0-.333.074-.046.016-.1.016-.103 0-.103-.14 0-.048.048-.077.05-.03.212-.067.491-.112.491-.398 0-.086-.062-.142-.06-.056-.157-.056-.179 0-.382.158-.119.093-.18.093-.106 0-.106-.098 0-.13.243-.264.245-.136.468-.136.224 0 .352.12.13.118.13.249 0 .312-.382.49zM30.376 328.628q-.036 0-.055-.078-.007-.024-.019-.053-.046-.112-.046-.195 0-.069.08-.14.083-.071.183-.071.05 0 .112.04.062.037.062.073 0 .057-.043.193-.041.136-.134.185-.091.046-.14.046zm-.225 1.924q0 .13.036.295.007.03.007.051 0 .031-.057.08-.057.05-.12.05-.168 0-.168-.307 0-.317.131-1.003.045-.24.045-.294 0-.109.04-.185.04-.077.112-.077.087 0 .137.043.052.041.052.093t-.024.136q-.13.455-.16.651-.031.197-.031.467zM32.142 329.572q-.16.003-.686.949-.177.319-.206.348-.03.028-.109.05-.077.022-.129.022-.115 0-.115-.45 0-.252.108-.916.045-.268.045-.384 0-.113.102-.113.19 0 .19.275 0 .13-.063.507-.074.43-.076.523.107-.103.314-.453.293-.479.43-.606.14-.13.288-.13.112 0 .177.15.068.15.081.715.004.142.026.21.023.07.033.07.081 0 .351-.552.145-.29.281-.442.138-.152.305-.152.14 0 .203.145.064.143.092.425.025.286.079.524.055.237.2.305.098.046.098.108 0 .06-.083.124-.082.064-.151.064-.138 0-.247-.169-.108-.169-.163-.73-.024-.226-.047-.32-.022-.095-.07-.095-.073 0-.173.137-.098.138-.318.56-.173.33-.262.44-.088.108-.17.108-.075 0-.133-.059-.059-.06-.074-.143-.016-.084-.033-.411-.026-.545-.095-.634zM37.632 329.005l-.762 1.898v.152h.452v.293h-.452v.32h-.335v-.32h-.47v-.293h.47v-.152l-.78-1.898h.335l.603 1.51.603-1.51zM38.057 329.005h.316v.906l.894-.906h.389l-.737.746.646.92h.244v.75h-.317v-.487h-.096l-.684-.973-.34.345v.628h-.315zM40.567 331.033q-.258 0-.398-.149-.138-.148-.138-.415 0-.45.357-.947.356-.5.663-.5.14 0 .24.152.101.15.101.319 0 .101-.045.175-.043.073-.088.073-.1 0-.14-.202-.047-.217-.135-.217-.18 0-.424.426-.244.425-.244.718t.332.293q.253 0 .596-.238.12-.084.177-.084.059 0 .059.067 0 .13-.308.33-.309.199-.605.199zM43.046 330.307q-.241.324-.477.486-.236.162-.433.162-.132 0-.229-.112-.096-.112-.096-.288 0-.453.405-.974.404-.524.804-.524.145 0 .215.165.023.055.07.055.139 0 .139.107 0 .054-.018.147-.093.508-.093.716 0 .417.159.5.076.04.076.101 0 .054-.074.107-.074.055-.143.055-.133 0-.22-.182-.085-.183-.085-.52zm-.105-.97q-.228 0-.53.428-.3.425-.3.706 0 .198.13.198.19 0 .526-.382.336-.383.336-.703 0-.246-.162-.246zM44.426 331.033q-.259 0-.398-.149-.138-.148-.138-.415 0-.45.356-.947.357-.5.664-.5.14 0 .239.152.102.15.102.319 0 .101-.045.175-.043.073-.088.073-.1 0-.141-.202-.047-.217-.135-.217-.179 0-.423.426-.245.425-.245.718t.332.293q.254 0 .596-.238.121-.084.178-.084.058 0 .058.067 0 .13-.308.33-.308.199-.604.199zM47.044 329.572q-.16.003-.686.949-.177.319-.206.348-.03.028-.109.05-.078.022-.13.022-.115 0-.115-.45 0-.252.109-.916.045-.268.045-.384 0-.113.101-.113.192 0 .192.275 0 .13-.064.507-.074.43-.076.523.107-.103.314-.453.292-.479.43-.606.14-.13.288-.13.112 0 .177.15.067.15.081.715.004.142.026.21.022.07.033.07.08 0 .351-.552.145-.29.281-.442.138-.152.305-.152.14 0 .203.145.064.143.091.425.026.286.08.524.055.237.2.305.098.046.098.108 0 .06-.083.124t-.152.064q-.137 0-.246-.169-.108-.169-.164-.73-.024-.226-.046-.32-.022-.095-.07-.095-.073 0-.173.137-.098.138-.319.56-.172.33-.261.44-.088.108-.171.108-.074 0-.133-.059-.058-.06-.074-.143-.015-.084-.032-.411-.026-.545-.095-.634zM50.53 330.307q-.24.324-.477.486-.236.162-.432.162-.133 0-.23-.112-.096-.112-.096-.288 0-.453.405-.974.405-.524.804-.524.145 0 .216.165.022.055.07.055.138 0 .138.107 0 .054-.017.147-.093.508-.093.716 0 .417.158.5.076.04.076.101 0 .054-.074.107-.074.055-.143.055-.133 0-.219-.182-.086-.183-.086-.52zm-.105-.97q-.227 0-.529.428-.301.425-.301.706 0 .198.13.198.19 0 .526-.382.336-.383.336-.703 0-.246-.162-.246zM51.772 330.735q-.084.31-.158.87l-.049.325q-.012.069-.063.136-.052.069-.095.069-.053 0-.122-.055-.067-.053-.067-.086 0-.095.043-.262.315-1.273.315-2.236l-.002-.145q-.003-.186.066-.27.068-.084.158-.084.041 0 .08.065.037.064.037.183 0 .167-.034.404-.045.3-.047.345.257-.448.545-.7.287-.25.534-.25.174 0 .292.13.121.13.121.322 0 .562-.43 1.02-.431.458-.84.458-.101 0-.161-.052-.059-.051-.123-.187zm1.07-1.387q-.243 0-.601.455-.359.454-.359.708 0 .062.071.12.07.059.18.059.246 0 .566-.364.32-.365.32-.716 0-.126-.051-.193-.05-.069-.126-.069zM3.701 337.406q0 .176-.312.424-.31.248-.64.248-.278 0-.43-.164-.15-.163-.15-.456 0-.493.333-.937.333-.445.727-.445.13 0 .21.085.083.084.083.203 0 .265-.26.508t-.696.477q-.09.047-.09.12 0 .144.083.23.083.086.245.086.37 0 .756-.41.057-.057.086-.057.055 0 .055.088zm-1.197-.269q.73-.434.73-.697 0-.104-.093-.104-.158 0-.358.233-.198.232-.28.568zM4.531 338.088q-.258 0-.398-.148-.137-.148-.137-.415 0-.45.356-.948.357-.499.663-.499.14 0 .24.152.101.15.101.318 0 .102-.044.176-.043.072-.088.072-.1 0-.141-.201-.047-.217-.135-.217-.179 0-.424.425-.244.426-.244.718 0 .293.332.293.254 0 .596-.237.12-.085.178-.085.058 0 .058.067 0 .131-.308.331-.308.198-.605.198zM6.404 335.683q-.036 0-.055-.077-.007-.024-.02-.053-.046-.112-.046-.195 0-.069.081-.14.083-.072.183-.072.05 0 .112.04.062.038.062.074 0 .057-.043.193-.042.136-.135.184-.091.046-.14.046zm-.226 1.925q0 .13.036.294.007.031.007.052 0 .03-.057.079-.057.05-.12.05-.167 0-.167-.307 0-.317.13-1.002.045-.24.045-.295 0-.108.04-.184.04-.078.112-.078.088 0 .138.044.051.04.051.093 0 .051-.024.136-.129.454-.16.65-.03.197-.03.468zM7.219 337.084q.408-.07.732-.527.151-.212.265-.3.115-.09.244-.09.052 0 .104.047.051.046.051.11 0 .085-.16.133-.084.026-.158.088t-.281.296q-.162.183-.291.257-.012.007-.012.012 0 .007.015.014.126.067.266.26.203.28.305.355.101.072.232.072l.057-.002q.06-.003.06.053 0 .066-.074.136t-.244.07q-.131 0-.255-.111-.123-.114-.281-.367-.091-.15-.17-.227-.08-.078-.176-.078-.021 0-.128.035-.107.034-.12.067-.013.03-.02.229-.005.196-.005.317 0 .064-.06.114t-.13.05q-.073 0-.114-.044-.042-.041-.042-.086 0-.062.047-.293.082-.42.165-1.386.007-.093.07-.167.064-.076.145-.076.045 0 .074.048.031.048.031.124 0 .06-.02.138-.098.356-.122.729zM11.604 336.627q-.16.003-.685.95-.178.318-.207.348-.03.027-.109.05-.077.022-.129.022-.115 0-.115-.45 0-.253.108-.916.045-.269.045-.384 0-.114.102-.114.19 0 .19.276 0 .129-.063.506-.074.43-.076.524.107-.104.314-.453.293-.48.43-.607.14-.129.288-.129.112 0 .178.15.067.15.08.715.004.141.026.21.023.069.033.069.081 0 .351-.551.145-.291.281-.443.138-.152.305-.152.14 0 .203.145.064.143.092.426.026.286.079.523.055.238.2.305.098.047.098.109 0 .06-.083.124-.082.063-.151.063-.138 0-.247-.168-.108-.17-.163-.73-.024-.226-.047-.321-.022-.095-.07-.095-.073 0-.173.138-.098.138-.318.56-.173.329-.262.439-.088.109-.17.109-.075 0-.133-.06-.059-.06-.074-.142-.016-.084-.033-.412-.026-.544-.095-.634zM15.404 337.406q0 .176-.312.424-.31.248-.64.248-.278 0-.43-.164-.15-.163-.15-.456 0-.493.333-.937.333-.445.727-.445.13 0 .21.085.083.084.083.203 0 .265-.26.508t-.696.477q-.09.047-.09.12 0 .144.083.23.083.086.245.086.37 0 .756-.41.057-.057.086-.057.055 0 .055.088zm-1.197-.269q.73-.434.73-.697 0-.104-.093-.104-.158 0-.358.233-.198.232-.28.568zM16.097 337.79q-.085.31-.159.87l-.048.326q-.012.069-.064.136-.052.069-.095.069-.053 0-.122-.056-.067-.053-.067-.086 0-.094.043-.261.315-1.273.315-2.236l-.002-.145q-.003-.186.066-.27.069-.085.158-.085.042 0 .08.066.038.063.038.182 0 .167-.035.405-.045.3-.046.345.256-.448.544-.7.288-.251.534-.251.174 0 .293.13.12.13.12.323 0 .561-.43 1.02-.431.458-.84.458-.1 0-.161-.052-.059-.052-.122-.188zm1.07-1.386q-.244 0-.602.454-.358.455-.358.708 0 .062.07.12.071.06.18.06.246 0 .566-.364.32-.365.32-.717 0-.125-.051-.193-.05-.068-.126-.068zM19.562 337.406q0 .176-.312.424-.31.248-.64.248-.278 0-.43-.164-.15-.163-.15-.456 0-.493.333-.937.333-.445.727-.445.13 0 .21.085.083.084.083.203 0 .265-.26.508t-.696.477q-.09.047-.09.12 0 .144.083.23.083.086.245.086.37 0 .756-.41.057-.057.086-.057.055 0 .055.088zm-1.197-.269q.73-.434.73-.697 0-.104-.093-.104-.158 0-.358.233-.198.232-.279.568zM20.765 336.93q.222.037.346.164.124.128.124.312 0 .291-.246.486-.247.193-.648.193-.24 0-.414-.104-.172-.103-.172-.229 0-.103.12-.103.016 0 .052.03.19.163.45.163.23 0 .395-.12.165-.121.165-.314 0-.128-.095-.212-.093-.086-.217-.086-.095 0-.332.074-.047.015-.1.015-.104 0-.104-.14 0-.047.049-.077.05-.029.211-.067.491-.112.491-.398 0-.086-.062-.141-.06-.057-.156-.057-.18 0-.383.159-.119.093-.18.093-.106 0-.106-.098 0-.13.243-.264.245-.136.469-.136.224 0 .351.119.13.119.13.25 0 .311-.381.489zM23.162 337.406q0 .176-.311.424-.31.248-.641.248-.277 0-.43-.164-.149-.163-.149-.456 0-.493.333-.937.332-.445.726-.445.13 0 .21.085.083.084.083.203 0 .265-.26.508t-.696.477q-.09.047-.09.12 0 .144.083.23.083.086.245.086.37 0 .756-.41.057-.057.086-.057.055 0 .055.088zm-1.197-.269q.73-.434.73-.697 0-.104-.092-.104-.159 0-.359.233-.198.232-.279.568zM2.697 345.239q-.259 0-.398-.149-.138-.148-.138-.415 0-.45.357-.947.356-.5.663-.5.14 0 .24.152.1.15.1.319 0 .101-.044.175-.043.073-.088.073-.1 0-.141-.202-.046-.217-.134-.217-.18 0-.424.426-.245.425-.245.718t.333.293q.253 0 .596-.238.12-.084.177-.084.059 0 .059.067 0 .13-.309.33-.308.199-.604.199zM5.288 344.532q-.262.247-.524.386-.262.14-.401.14-.16 0-.257-.136-.095-.138-.095-.338 0-.291.11-.687.112-.398.17-.452.06-.053.156-.053.052 0 .08.062.03.06.03.124 0 .043-.04.112-.225.391-.225.808 0 .096.036.17.036.073.11.073.095 0 .233-.057.14-.059.313-.19.174-.13.235-.211.06-.081.084-.185.026-.103.036-.447.01-.345.167-.345.093 0 .12.05.028.048.028.186 0 .103-.03.448-.007.077-.01.143-.05.92-.275 1.442-.225.522-.656.522-.338 0-.601-.178-.262-.176-.262-.298 0-.057.026-.112.027-.055.069-.055.02 0 .044.033.226.346.695.346.298 0 .446-.365.148-.364.188-.935zM7.86 344.234q.408-.07.731-.527.152-.212.266-.3.115-.089.244-.089.052 0 .104.046.051.047.051.11 0 .085-.16.133-.084.026-.158.088t-.281.297q-.162.182-.291.256-.012.007-.012.012 0 .007.015.014.126.067.265.26.204.281.305.355.102.072.233.072l.057-.002q.06-.003.06.054 0 .065-.074.136-.074.07-.245.07-.13 0-.255-.112-.122-.113-.28-.366-.092-.15-.17-.228-.08-.077-.177-.077-.02 0-.127.034t-.12.067q-.013.031-.02.23-.005.196-.005.316 0 .064-.06.114t-.131.05q-.072 0-.114-.043-.041-.041-.041-.086 0-.062.047-.293.082-.42.165-1.387.007-.093.07-.167.064-.076.145-.076.045 0 .074.049.031.048.031.124 0 .06-.02.137-.099.357-.123.73zM9.5 344.259v-.156h1.456q-.02-.327-.198-.497-.175-.173-.49-.173-.183 0-.355.045-.171.045-.34.135v-.3q.17-.072.35-.11.179-.038.363-.038.462 0 .73.268.271.27.271.727 0 .474-.256.753-.255.277-.69.277-.389 0-.616-.25-.226-.25-.226-.681zm.316.093q.004.26.145.415.143.155.377.155.265 0 .424-.15.16-.15.184-.422zM12.036 344.94q-.084.31-.158.87l-.048.326q-.012.069-.064.136-.052.07-.095.07-.053 0-.122-.056-.067-.053-.067-.086 0-.095.043-.262.315-1.273.315-2.236l-.002-.145q-.003-.186.066-.27.069-.084.158-.084.042 0 .08.065.037.064.037.183 0 .167-.034.405-.045.3-.046.344.256-.448.544-.7.288-.25.534-.25.174 0 .293.13.12.13.12.322 0 .562-.43 1.02-.431.458-.84.458-.1 0-.161-.052-.059-.051-.122-.187zm1.07-1.386q-.243 0-.601.455-.358.454-.358.708 0 .062.07.12.071.059.18.059.246 0 .566-.364.32-.365.32-.716 0-.126-.051-.193-.05-.069-.126-.069zM14.54 342.834q-.037 0-.056-.078-.007-.024-.019-.053-.046-.112-.046-.195 0-.068.08-.14.083-.071.183-.071.05 0 .112.04.062.037.062.073 0 .057-.043.193-.041.136-.134.185-.091.046-.14.046zm-.226 1.924q0 .131.036.295.007.03.007.051 0 .031-.057.08-.057.05-.12.05-.168 0-.168-.307 0-.317.131-1.003.045-.24.045-.294 0-.109.04-.185.04-.077.112-.077.087 0 .137.043.052.041.052.093t-.024.136q-.13.455-.16.651-.031.197-.031.467zM15.847 344.081q.222.036.346.164.124.127.124.311 0 .292-.246.486-.247.193-.648.193-.24 0-.413-.103-.173-.104-.173-.23 0-.103.12-.103.016 0 .053.03.19.163.45.163.228 0 .394-.12.165-.12.165-.314 0-.127-.095-.212-.093-.086-.217-.086-.095 0-.332.074-.047.016-.1.016-.103 0-.103-.14 0-.048.048-.077.05-.03.212-.067.49-.112.49-.398 0-.086-.061-.142-.06-.056-.157-.056-.18 0-.383.158-.118.093-.18.093-.106 0-.106-.098 0-.13.243-.264.245-.136.469-.136.224 0 .351.12.13.118.13.249 0 .312-.381.49zM19.562 344.357q-.022.387-.074.76-.026.07-.13.07-.152 0-.152-.155 0-.064.036-.238.026-.151.027-.205.002-.055.009-.119.007-.065-.002-.103-.088.012-.358.21-.27.198-.463.393v-.002q-.012.007-.076.13-.091.182-.202.182-.051 0-.115-.045-.062-.045-.062-.09 0-.107.2-.317.201-.212.444-.361.296-.183.408-.295-.05-.07-.194-.155-.147-.086-.272-.193l-.042-.03q-.222-.15-.296-.225-.072-.076-.072-.162 0-.057.043-.103.043-.048.084-.048.026 0 .093.027.067.028.097.059l.084.08q.446.437.706.555.014 0 .035-.032.017-.059.017-.188 0-.12-.026-.27-.014-.078-.014-.102 0-.081.062-.131.064-.05.138-.05.085 0 .116.034.03.035.03.118l-.022.547v.035q0 .024.002.04.06 0 .126-.047.065-.048.194-.19.567-.587.657-.587.05 0 .09.041.042.042.042.097 0 .027-.19.234-.187.205-.387.377-.257.22-.257.23 0 .012.214.179.23.18.319.256.012.01.034.023.255.156.319.234.064.077.064.13 0 .05-.043.104-.044.052-.085.052-.153 0-.711-.515-.248-.231-.3-.243-.022-.003-.034-.01-.018-.004-.063-.001-.044.002-.048.014zM21.572 343.189q.023-.016.05-.016.044 0 .073.116 0 .074-.04.187-.117.326-.117.455 0 .035.02.038.397-.38.735-.38.208 0 .35.158.14.157.14.288 0 .4-.408.768-.406.367-.82.367-.184 0-.287-.152-.102-.153-.102-.437 0-.309.077-.683.078-.373.125-.499.018-.053.034-.109.017-.068.17-.101zm-.08 1.08q-.035.191-.035.382 0 .26.205.26.23 0 .517-.275.286-.276.286-.536 0-.107-.057-.18-.057-.071-.157-.071-.136 0-.269.068-.13.068-.292.22-.062.058-.1.09-.036.032-.098.042zm1.734.396q0 .13.036.295.007.03.007.051 0 .031-.057.081-.056.048-.12.048-.167 0-.167-.306 0-.305.132-1.023.049-.262.049-.317 0-.109.04-.185.039-.077.111-.077.088 0 .138.043.052.041.052.093t-.024.143q-.135.49-.166.687-.03.197-.03.467zM24.757 343.737q-.04-.002-.08.079-.357.713-.54.968-.015.022-.04.065-.215.384-.314.384-.135 0-.135-.129 0-.117.167-.318.162-.192.426-.648.263-.458.427-.822.03-.065.093-.065.026 0 .091.024.067.022.086.05.02.027.085.32.212 1.056.446 1.252.055.049.065.066.01.015.01.045 0 .053-.034.098-.034.043-.067.055-.033.012-.134.012-.036 0-.17-.177-.132-.18-.31-.974-.042-.213-.072-.285zM26.297 343.189q.023-.016.05-.016.043 0 .073.116 0 .074-.04.187-.117.326-.117.455 0 .035.02.038.397-.38.734-.38.209 0 .35.158.141.157.141.288 0 .4-.408.768-.406.367-.82.367-.184 0-.287-.152-.102-.153-.102-.437 0-.309.077-.683.078-.373.124-.499.02-.053.035-.109.017-.068.17-.101zm-.08 1.08q-.035.191-.035.382 0 .26.205.26.23 0 .517-.275.286-.276.286-.536 0-.107-.057-.18-.057-.071-.157-.071-.136 0-.269.068-.13.068-.292.22-.062.058-.1.09-.037.032-.099.042zm1.734.396q0 .13.036.295.007.03.007.051 0 .031-.057.081-.057.048-.12.048-.167 0-.167-.306 0-.305.132-1.023.049-.262.049-.317 0-.109.04-.185.039-.077.111-.077.088 0 .138.043.052.041.052.093t-.025.143q-.134.49-.165.687-.03.197-.03.467zM29.817 343.778q-.16.003-.686.949-.177.319-.207.348-.029.028-.108.05-.078.022-.13.022-.115 0-.115-.45 0-.252.109-.916.045-.268.045-.384 0-.113.101-.113.191 0 .191.275 0 .13-.063.507-.074.43-.076.523.107-.103.313-.453.293-.479.431-.606.14-.13.288-.13.112 0 .177.15.067.15.081.715.003.142.026.21.022.07.033.07.08 0 .351-.552.145-.29.28-.442.139-.152.306-.152.14 0 .203.145.064.143.091.425.026.286.08.524.055.238.2.305.097.046.097.108 0 .06-.082.124-.083.064-.152.064-.138 0-.246-.169-.109-.169-.164-.73-.024-.226-.046-.32-.023-.095-.07-.095-.073 0-.173.137-.098.138-.319.56-.172.33-.262.44-.088.108-.17.108-.074 0-.133-.059-.058-.06-.074-.142-.015-.085-.033-.412-.025-.544-.094-.634zM32.542 343.189q.022-.016.05-.016.043 0 .072.116 0 .074-.04.187-.117.326-.117.455 0 .035.02.038.397-.38.735-.38.208 0 .35.158.14.157.14.288 0 .4-.408.768-.406.367-.82.367-.184 0-.287-.152-.102-.153-.102-.437 0-.309.078-.683.077-.373.124-.499.019-.053.034-.109.017-.068.17-.101zm-.081 1.08q-.035.191-.035.382 0 .26.205.26.231 0 .517-.275.286-.276.286-.536 0-.107-.057-.18-.057-.071-.157-.071-.136 0-.268.068-.131.068-.293.22-.062.058-.1.09-.036.032-.098.042zm1.734.396q0 .13.036.295.007.03.007.051 0 .031-.056.081-.057.048-.121.048-.167 0-.167-.306 0-.305.133-1.023.048-.262.048-.317 0-.109.04-.185.039-.077.111-.077.088 0 .138.043.052.041.052.093t-.024.143q-.135.49-.166.687-.03.197-.03.467zM36.033 344.532q-.262.247-.523.386-.262.14-.402.14-.16 0-.256-.136-.095-.138-.095-.338 0-.291.11-.687.112-.398.17-.452.06-.053.156-.053.051 0 .08.062.03.06.03.124 0 .043-.04.112-.225.391-.225.808 0 .096.036.17.036.073.11.073.095 0 .233-.057.14-.059.313-.19.174-.13.234-.211.06-.081.085-.185.026-.103.036-.447.01-.345.167-.345.093 0 .12.05.028.048.028.186 0 .103-.03.448-.008.077-.01.143-.05.92-.275 1.442-.226.522-.656.522-.338 0-.601-.178-.262-.176-.262-.298 0-.057.026-.112.027-.055.068-.055.021 0 .045.033.226.346.694.346.298 0 .447-.365.148-.364.187-.935zM39.416 344.513q-.24.324-.477.486-.236.162-.432.162-.133 0-.23-.112-.096-.112-.096-.288 0-.453.405-.974.405-.524.805-.524.144 0 .215.165.022.055.07.055.138 0 .138.107 0 .054-.017.147-.093.508-.093.716 0 .417.158.5.076.041.076.101 0 .054-.074.107-.074.055-.143.055-.132 0-.219-.182-.086-.183-.086-.52zm-.105-.97q-.227 0-.529.428-.301.425-.301.706 0 .198.13.198.19 0 .526-.382.336-.383.336-.703 0-.246-.162-.246zM41.599 344.532q-.262.247-.524.386-.262.14-.401.14-.16 0-.257-.136-.095-.138-.095-.338 0-.291.11-.687.113-.398.171-.452.059-.053.155-.053.052 0 .081.062.03.06.03.124 0 .043-.04.112-.226.391-.226.808 0 .096.036.17.037.073.11.073.095 0 .233-.057.14-.059.314-.19.174-.13.234-.211.06-.081.084-.185.026-.103.036-.447.01-.345.168-.345.093 0 .12.05.028.048.028.186 0 .103-.031.448-.007.077-.009.143-.05.92-.275 1.442-.226.522-.657.522-.337 0-.601-.178-.262-.176-.262-.298 0-.057.026-.112.028-.055.069-.055.02 0 .045.033.225.346.694.346.298 0 .446-.365.148-.364.188-.935zM43.571 344.513q-.241.324-.477.486-.236.162-.432.162-.133 0-.23-.112-.096-.112-.096-.288 0-.453.405-.974.405-.524.804-.524.145 0 .216.165.022.055.07.055.138 0 .138.107 0 .054-.017.147-.093.508-.093.716 0 .417.158.5.076.041.076.101 0 .054-.074.107-.074.055-.143.055-.133 0-.219-.182-.086-.183-.086-.52zm-.105-.97q-.227 0-.529.428-.301.425-.301.706 0 .198.13.198.19 0 .526-.382.336-.383.336-.703 0-.246-.162-.246zM47.192 343.778q-.16.003-.686.949-.177.319-.206.348-.03.028-.109.05-.077.022-.129.022-.115 0-.115-.45 0-.252.108-.916.045-.268.045-.384 0-.113.101-.113.192 0 .192.275 0 .13-.064.507-.074.43-.076.523.107-.103.314-.453.293-.479.43-.606.14-.13.288-.13.112 0 .177.15.068.15.081.715.004.142.026.21.023.07.033.07.08 0 .351-.552.145-.29.281-.442.138-.152.305-.152.14 0 .203.145.064.143.092.425.025.286.079.524.055.238.2.305.098.046.098.108 0 .06-.083.124t-.151.064q-.138 0-.247-.169-.108-.169-.163-.73-.025-.226-.047-.32-.022-.095-.07-.095-.073 0-.173.137-.098.138-.318.56-.173.33-.262.44-.088.108-.17.108-.075 0-.133-.059-.06-.06-.075-.142-.015-.085-.032-.412-.026-.544-.095-.634zM50.02 345.227q-.236 0-.389-.18-.153-.179-.153-.442 0-.445.298-.875.3-.433.716-.433.276 0 .446.212.173.212.173.505 0 .448-.355.83-.353.383-.736.383zm-.24-.667q0 .174.073.284.074.11.195.11.257 0 .515-.28.258-.283.258-.627 0-.212-.1-.343-.098-.133-.265-.133-.277 0-.477.341-.198.34-.198.648zM51.845 344.94q-.085.31-.159.87l-.048.326q-.012.069-.064.136-.052.07-.095.07-.053 0-.122-.056-.067-.053-.067-.086 0-.095.043-.262.315-1.273.315-2.236l-.002-.145q-.003-.186.066-.27.069-.084.158-.084.042 0 .08.065.038.064.038.183 0 .167-.035.405-.045.3-.046.344.256-.448.544-.7.288-.25.534-.25.174 0 .293.13.12.13.12.322 0 .562-.43 1.02-.431.458-.84.458-.1 0-.161-.052-.059-.051-.122-.187zm1.07-1.386q-.244 0-.602.455-.358.454-.358.708 0 .062.07.12.071.059.18.059.246 0 .566-.364.32-.365.32-.716 0-.126-.051-.193-.05-.069-.126-.069zM54.954 344.513q-.241.324-.477.486-.236.162-.433.162-.132 0-.229-.112-.096-.112-.096-.288 0-.453.404-.974.405-.524.805-.524.145 0 .215.165.023.055.07.055.139 0 .139.107 0 .054-.018.147-.093.508-.093.716 0 .417.159.5.076.041.076.101 0 .054-.074.107-.074.055-.143.055-.133 0-.22-.182-.085-.183-.085-.52zm-.105-.97q-.228 0-.53.428-.3.425-.3.706 0 .198.13.198.19 0 .526-.382.336-.383.336-.703 0-.246-.162-.246zM57.036 343.816q-.09 0-.196.117-.105.117-.322.525-.286.548-.37.624-.083.076-.138.076-.204 0-.204-.197 0-.082.028-.234.095-.52.095-1.097 0-.066.055-.145.057-.08.107-.08.09 0 .127.054.038.055.038.222 0 .174-.103.717-.035.18-.035.227 0 .028.014.028.026 0 .24-.412.215-.418.377-.589.162-.17.356-.17.155 0 .252.14.098.142.143.516.048.425.086.53.04.104.124.104.053 0 .134-.038.014-.007.02-.007.075 0 .075.086 0 .076-.102.162-.101.084-.244.084-.147 0-.228-.115-.079-.117-.125-.622-.049-.506-.204-.506zM59.503 343.778q-.16.003-.686.949-.177.319-.206.348-.03.028-.109.05-.077.022-.129.022-.115 0-.115-.45 0-.252.108-.916.045-.268.045-.384 0-.113.102-.113.19 0 .19.275 0 .13-.063.507-.074.43-.076.523.107-.103.314-.453.293-.479.43-.606.14-.13.288-.13.112 0 .177.15.068.15.081.715.004.142.026.21.023.07.033.07.08 0 .351-.552.145-.29.281-.442.138-.152.305-.152.14 0 .203.145.064.143.092.425.025.286.079.524.055.238.2.305.098.046.098.108 0 .06-.083.124t-.151.064q-.138 0-.247-.169-.108-.169-.163-.73-.025-.226-.047-.32-.022-.095-.07-.095-.073 0-.173.137-.098.138-.318.56-.173.33-.262.44-.088.108-.17.108-.075 0-.133-.059-.059-.06-.075-.142-.015-.085-.032-.412-.026-.544-.095-.634zM62.99 344.513q-.242.324-.478.486-.236.162-.432.162-.133 0-.23-.112-.096-.112-.096-.288 0-.453.405-.974.405-.524.805-.524.144 0 .215.165.022.055.07.055.138 0 .138.107 0 .054-.017.147-.093.508-.093.716 0 .417.159.5.075.041.075.101 0 .054-.074.107-.074.055-.143.055-.132 0-.218-.182-.087-.183-.087-.52zm-.106-.97q-.227 0-.528.428-.302.425-.302.706 0 .198.131.198.19 0 .525-.382.336-.383.336-.703 0-.246-.162-.246zM64.231 344.94q-.084.31-.158.87l-.048.326q-.012.069-.064.136-.052.07-.095.07-.053 0-.122-.056-.067-.053-.067-.086 0-.095.043-.262.315-1.273.315-2.236l-.002-.145q-.003-.186.066-.27.069-.084.158-.084.042 0 .08.065.037.064.037.183 0 .167-.034.405-.045.3-.047.344.257-.448.545-.7.287-.25.534-.25.174 0 .293.13.12.13.12.322 0 .562-.43 1.02-.431.458-.84.458-.101 0-.161-.052-.059-.051-.123-.187zm1.07-1.386q-.243 0-.601.455-.358.454-.358.708 0 .062.07.12.07.059.18.059.246 0 .566-.364.32-.365.32-.716 0-.126-.051-.193-.05-.069-.126-.069zM66.58 343.189q.022-.016.05-.016.042 0 .072.116 0 .074-.04.187-.117.326-.117.455 0 .035.02.038.397-.38.734-.38.209 0 .35.158.141.157.141.288 0 .4-.408.768-.407.367-.82.367-.184 0-.288-.152-.101-.153-.101-.437 0-.309.077-.683.078-.373.124-.499.02-.053.035-.109.017-.068.17-.101zm-.082 1.08q-.034.191-.034.382 0 .26.205.26.23 0 .517-.275.286-.276.286-.536 0-.107-.057-.18-.057-.071-.157-.071-.136 0-.269.068-.13.068-.293.22-.062.058-.1.09-.036.032-.098.042zm1.735.396q0 .13.036.295.007.03.007.051 0 .031-.057.081-.057.048-.12.048-.168 0-.168-.306 0-.305.133-1.023.048-.262.048-.317 0-.109.04-.185.04-.077.112-.077.088 0 .138.043.051.041.051.093t-.024.143q-.134.49-.165.687-.031.197-.031.467zM3.701 351.707q0 .176-.312.424-.31.248-.64.248-.278 0-.43-.164-.15-.164-.15-.456 0-.493.333-.937.333-.445.727-.445.13 0 .21.085.083.084.083.203 0 .265-.26.508t-.696.477q-.09.047-.09.12 0 .144.083.23.083.086.245.086.37 0 .756-.41.057-.057.086-.057.055 0 .055.088zm-1.197-.269q.73-.434.73-.697 0-.104-.093-.104-.158 0-.358.233-.198.232-.28.568zM5.027 350.887q-.04-.002-.08.08-.357.712-.54.967l-.04.066q-.215.384-.315.384-.134 0-.134-.13 0-.116.167-.318.162-.191.426-.648.263-.458.427-.821.03-.066.093-.066.026 0 .091.024.067.023.086.05.02.028.085.32.212 1.057.446 1.253.055.048.065.066.01.015.01.044 0 .054-.034.099-.034.043-.067.055-.033.012-.134.012-.037 0-.17-.178-.132-.179-.31-.973-.042-.214-.072-.286zM7.642 351.707q0 .176-.312.424-.31.248-.64.248-.278 0-.43-.164-.15-.164-.15-.456 0-.493.333-.937.333-.445.727-.445.13 0 .21.085.083.084.083.203 0 .265-.26.508t-.696.477q-.09.047-.09.12 0 .144.083.23.083.086.245.086.37 0 .756-.41.057-.057.086-.057.055 0 .055.088zm-1.197-.269q.73-.434.73-.697 0-.104-.093-.104-.158 0-.358.233-.198.232-.279.568zM8.352 351.385q.408-.07.732-.527.152-.212.265-.3.116-.09.245-.09.052 0 .103.047.052.046.052.11 0 .085-.16.133-.085.026-.159.088t-.28.296q-.162.182-.292.257-.012.007-.012.012 0 .007.016.013.126.068.265.26.203.281.305.355.102.073.233.073l.056-.002q.06-.003.06.053 0 .066-.073.136-.074.07-.245.07-.13 0-.255-.111-.122-.114-.28-.367-.092-.15-.171-.227-.08-.078-.176-.078-.02 0-.127.034-.107.035-.121.068-.012.03-.019.229-.005.196-.005.317 0 .063-.06.113t-.131.05q-.073 0-.114-.043-.041-.041-.041-.086 0-.062.046-.293.083-.42.166-1.386.006-.093.07-.167.064-.076.145-.076.045 0 .074.048.03.048.03.124 0 .06-.02.138-.098.356-.122.728zM11.327 350.928q-.16.003-.686.95-.177.318-.207.347-.029.028-.108.05-.078.023-.13.023-.115 0-.115-.45 0-.253.109-.916.045-.269.045-.384 0-.114.101-.114.192 0 .192.276 0 .129-.064.506-.074.43-.076.524.107-.104.314-.453.292-.48.43-.607.14-.129.288-.129.112 0 .177.15.067.15.081.715.004.141.026.21t.033.069q.08 0 .351-.551.145-.291.28-.443.139-.152.306-.152.14 0 .203.145.064.143.091.426.026.285.08.523.055.238.2.305.098.047.098.109 0 .06-.083.124-.083.063-.152.063-.137 0-.246-.168-.108-.17-.164-.73-.024-.226-.046-.321-.023-.095-.07-.095-.073 0-.173.138-.098.138-.319.56-.172.329-.261.439-.088.108-.171.108-.074 0-.133-.058-.058-.06-.074-.143-.015-.085-.032-.412-.026-.544-.095-.634zM13.985 352.091q-.085.31-.159.87l-.048.326q-.012.068-.064.136-.051.069-.095.069-.053 0-.122-.056-.067-.053-.067-.086 0-.094.043-.261.315-1.273.315-2.236l-.001-.145q-.004-.186.065-.27.069-.085.159-.085.04 0 .079.066.038.063.038.182 0 .167-.035.405-.045.3-.046.344.256-.447.544-.699.288-.251.534-.251.174 0 .293.13.12.13.12.323 0 .561-.43 1.02-.43.458-.84.458-.1 0-.161-.052-.059-.052-.122-.188zm1.07-1.387q-.244 0-.602.455t-.358.708q0 .062.07.12.071.06.18.06.246 0 .566-.364.32-.365.32-.717 0-.125-.05-.193-.05-.069-.127-.069zM18.356 350.501q-.065-.177-.303-.384-.224-.193-.224-.33 0-.11.073-.178.072-.069.268-.124.245-.067.498-.152.253-.086.305-.11.033-.015.067-.015.057 0 .057.101 0 .057-.138.155-.137.098-.487.183-.22.055-.27.083-.049.025-.049.053 0 .062.135.18.506.442.506 1.11 0 .288-.152.617-.151.327-.404.487-.252.16-.493.16-.217 0-.329-.211-.112-.212-.112-.467 0-.452.277-.851.28-.4.59-.4.04 0 .103.054.057.051.082.04zm-.75 1.165q0 .19.05.3.051.108.134.108.11 0 .298-.136t.301-.403q.116-.267.116-.5 0-.193-.055-.312-.054-.12-.1-.12-.307 0-.526.374-.219.373-.219.689zM20.324 351.664q-.242.324-.478.486-.235.162-.432.162-.132 0-.229-.112-.096-.112-.096-.288 0-.453.404-.975.405-.524.805-.524.145 0 .215.166.023.055.07.055.139 0 .139.107 0 .053-.018.146-.093.508-.093.717 0 .416.159.5.076.04.076.1 0 .054-.075.108-.074.055-.142.055-.133 0-.22-.183-.085-.183-.085-.52zm-.105-.97q-.228 0-.53.427-.3.426-.3.707 0 .198.13.198.19 0 .526-.383.335-.382.335-.703 0-.246-.161-.246zM21.703 352.39q-.258 0-.398-.149-.137-.148-.137-.415 0-.45.356-.948.357-.5.663-.5.14 0 .24.152.102.15.102.32 0 .1-.045.175-.043.072-.088.072-.1 0-.141-.201-.047-.217-.135-.217-.179 0-.423.425-.245.426-.245.718 0 .293.332.293.254 0 .596-.237.12-.085.178-.085.058 0 .058.067 0 .131-.308.331-.308.198-.605.198zM23.112 350.362h.316v.906l.894-.906h.389l-.737.746.646.92h.244v.75h-.317v-.487h-.096l-.684-.973-.34.344v.629h-.315zM26.313 351.664q-.241.324-.477.486-.236.162-.433.162-.132 0-.229-.112-.096-.112-.096-.288 0-.453.405-.975.404-.524.804-.524.145 0 .215.166.023.055.071.055.138 0 .138.107 0 .053-.017.146-.093.508-.093.717 0 .416.158.5.076.04.076.1 0 .054-.074.108-.074.055-.143.055-.133 0-.219-.183t-.086-.52zm-.105-.97q-.228 0-.529.427-.301.426-.301.707 0 .198.13.198.19 0 .526-.383.336-.382.336-.703 0-.246-.162-.246zM30.084 351.507q-.023.388-.074.76-.026.07-.131.07-.152 0-.152-.155 0-.063.036-.237.026-.152.028-.205.001-.055.008-.12t-.001-.103q-.088.013-.359.21-.27.199-.463.393v-.002q-.012.007-.076.13-.091.182-.201.182-.052 0-.116-.045-.062-.044-.062-.09 0-.106.2-.316.202-.212.444-.362.297-.183.409-.294-.05-.071-.195-.156-.146-.086-.272-.192l-.041-.031q-.223-.15-.297-.224-.072-.076-.072-.162 0-.057.043-.104.043-.048.084-.048.026 0 .093.028.068.027.097.058l.084.08q.446.437.707.556.013 0 .034-.033.017-.058.017-.188 0-.12-.026-.27-.013-.077-.013-.102 0-.08.062-.13.063-.05.137-.05.085 0 .116.034.03.034.03.117l-.022.548v.034q0 .024.002.04.06 0 .126-.047.065-.048.195-.19.566-.587.656-.587.05 0 .091.042.041.041.041.096 0 .028-.189.235-.188.205-.388.377-.256.22-.256.229 0 .012.213.18.231.18.319.256.012.009.034.022.255.157.32.234.063.078.063.131 0 .05-.043.104-.043.051-.085.051-.153 0-.711-.515-.248-.23-.3-.243-.022-.003-.034-.009-.017-.005-.062-.002-.045.002-.048.014zM33.169 351.707q0 .176-.312.424-.31.248-.64.248-.278 0-.43-.164-.15-.164-.15-.456 0-.493.333-.937.332-.445.727-.445.129 0 .21.085.083.084.083.203 0 .265-.26.508t-.696.477q-.09.047-.09.12 0 .144.083.23.082.086.244.086.37 0 .756-.41.057-.057.087-.057.055 0 .055.088zm-1.197-.269q.73-.434.73-.697 0-.104-.093-.104-.159 0-.358.233-.199.232-.28.568zM34.495 350.887q-.041-.002-.08.08-.357.712-.54.967-.016.023-.04.066-.215.384-.315.384-.134 0-.134-.13 0-.116.167-.318.162-.191.425-.648.264-.458.427-.821.031-.066.093-.066.026 0 .092.024.067.023.086.05.019.028.084.32.212 1.057.446 1.253.056.048.066.066.01.015.01.044 0 .054-.034.099-.035.043-.067.055-.033.012-.135.012-.036 0-.169-.178-.132-.179-.31-.973-.043-.214-.072-.286zM36.19 349.984q-.036 0-.055-.077-.007-.024-.019-.053-.047-.112-.047-.195 0-.069.081-.14.083-.072.183-.072.05 0 .112.04.062.038.062.074 0 .057-.043.193-.041.136-.134.184-.092.046-.14.046zm-.226 1.925q0 .13.037.294.006.031.006.052 0 .03-.056.079-.057.05-.121.05-.167 0-.167-.307 0-.317.13-1.002.046-.24.046-.295 0-.108.04-.184.039-.078.111-.078.088 0 .138.043.052.042.052.093 0 .052-.024.137-.13.454-.16.65-.032.197-.032.467zM37.621 350.887q-.04-.002-.08.08-.357.712-.54.967l-.04.066q-.215.384-.314.384-.135 0-.135-.13 0-.116.167-.318.162-.191.426-.648.263-.458.427-.821.03-.066.093-.066.026 0 .091.024.067.023.086.05.02.028.085.32.212 1.057.446 1.253.055.048.065.066.01.015.01.044 0 .054-.034.099-.034.043-.067.055-.033.012-.134.012-.036 0-.17-.178-.132-.179-.31-.973-.042-.214-.072-.286zM40.236 351.707q0 .176-.311.424-.31.248-.641.248-.278 0-.43-.164-.149-.164-.149-.456 0-.493.332-.937.333-.445.727-.445.13 0 .21.085.083.084.083.203 0 .265-.26.508t-.696.477q-.09.047-.09.12 0 .144.083.23.083.086.245.086.37 0 .756-.41.057-.057.086-.057.055 0 .055.088zm-1.197-.269q.73-.434.73-.697 0-.104-.093-.104-.158 0-.358.233-.198.232-.279.568zM40.929 352.091q-.085.31-.159.87l-.048.326q-.012.068-.064.136-.051.069-.094.069-.054 0-.123-.056-.067-.053-.067-.086 0-.094.043-.261.315-1.273.315-2.236l-.001-.145q-.004-.186.065-.27.07-.085.159-.085.041 0 .079.066.038.063.038.182 0 .167-.035.405-.044.3-.046.344.256-.447.544-.699.288-.251.534-.251.174 0 .293.13.12.13.12.323 0 .561-.43 1.02-.43.458-.839.458-.102 0-.162-.052-.058-.052-.122-.188zm1.07-1.387q-.243 0-.602.455-.358.455-.358.708 0 .062.07.12.071.06.18.06.246 0 .566-.364.32-.365.32-.717 0-.125-.05-.193-.05-.069-.127-.069zM2.697 359.54q-.259 0-.398-.149-.138-.148-.138-.415 0-.45.357-.947.356-.5.663-.5.14 0 .24.152.1.15.1.319 0 .101-.044.175-.043.073-.088.073-.1 0-.141-.202-.046-.217-.134-.217-.18 0-.424.426-.245.425-.245.718t.333.293q.253 0 .596-.238.12-.084.177-.084.059 0 .059.067 0 .13-.309.33-.308.199-.604.199zM3.98 358.56v-.156h1.457q-.02-.327-.198-.497-.175-.173-.49-.173-.183 0-.355.045-.171.045-.34.135v-.3q.17-.073.35-.11.179-.038.363-.038.462 0 .73.268.271.27.271.727 0 .474-.257.753-.254.277-.689.277-.389 0-.616-.25-.226-.25-.226-.682zm.317.092q.004.26.145.416.143.155.377.155.265 0 .424-.15.16-.15.184-.422zM7.458 358.833q-.262.247-.524.386-.262.14-.401.14-.16 0-.257-.136-.094-.138-.094-.338 0-.291.11-.687.112-.398.17-.452.059-.053.155-.053.052 0 .081.062.03.06.03.124 0 .043-.04.112-.226.391-.226.808 0 .096.036.17.037.073.11.073.095 0 .233-.057.14-.059.314-.19.174-.13.234-.211.06-.081.084-.185.026-.103.037-.448.01-.344.167-.344.093 0 .12.05.028.048.028.186 0 .103-.031.448-.007.077-.009.143-.05.92-.275 1.442-.226.522-.657.522-.337 0-.6-.178-.263-.176-.263-.298 0-.057.026-.112.028-.055.07-.055.02 0 .044.033.226.346.694.346.298 0 .446-.365.148-.364.188-.936zM9.236 358.038q-.042-.002-.081.079-.357.713-.54.968-.015.022-.04.065-.214.384-.314.384-.135 0-.135-.129 0-.117.167-.318.162-.192.426-.648.263-.458.427-.822.031-.065.093-.065.026 0 .091.024.068.022.086.05.02.027.085.32.212 1.056.446 1.252.055.049.065.066.01.015.01.045 0 .053-.034.098-.034.043-.067.055-.033.012-.134.012-.036 0-.169-.178-.133-.179-.31-.973-.043-.213-.072-.286zM11.85 358.857q0 .176-.311.424-.31.248-.641.248-.277 0-.429-.163-.15-.164-.15-.457 0-.493.333-.937.332-.444.726-.444.13 0 .21.084.083.084.083.203 0 .266-.26.508-.26.243-.696.478-.09.046-.09.12 0 .143.083.23.083.085.245.085.37 0 .756-.41.057-.056.086-.056.055 0 .055.088zm-1.197-.268q.73-.434.73-.698 0-.103-.092-.103-.159 0-.359.232-.198.233-.279.569zM13.511 358.079q-.16.003-.686.949-.177.319-.206.348-.03.028-.109.05-.077.022-.129.022-.115 0-.115-.45 0-.252.108-.916.045-.268.045-.384 0-.113.102-.113.19 0 .19.275 0 .13-.063.507-.074.43-.076.523.107-.103.314-.453.293-.479.43-.606.14-.13.288-.13.112 0 .177.15.068.15.081.715.004.142.026.21.023.07.033.07.08 0 .351-.552.145-.29.281-.442.138-.152.305-.152.14 0 .203.145.064.143.092.425.025.286.079.524.055.237.2.305.098.046.098.108 0 .06-.083.124t-.151.064q-.138 0-.247-.169-.108-.169-.163-.73-.025-.226-.047-.32-.022-.095-.07-.095-.073 0-.173.137-.098.138-.318.56-.173.33-.262.44-.088.108-.17.108-.075 0-.133-.059-.059-.06-.075-.143-.015-.084-.032-.411-.026-.545-.095-.634zM17.717 359.54q-.258 0-.397-.149-.138-.148-.138-.415 0-.45.356-.947.357-.5.663-.5.14 0 .24.152.102.15.102.319 0 .101-.045.175-.043.073-.088.073-.1 0-.141-.202-.047-.217-.135-.217-.179 0-.423.426-.245.425-.245.718t.332.293q.254 0 .596-.238.121-.084.178-.084.058 0 .058.067 0 .13-.308.33-.308.199-.605.199zM19 358.56v-.156h1.458q-.02-.327-.198-.497-.176-.173-.491-.173-.183 0-.355.045-.17.045-.34.135v-.3q.171-.073.35-.11.18-.038.364-.038.462 0 .73.268.27.27.27.727 0 .474-.256.753-.255.277-.689.277-.39 0-.617-.25-.225-.25-.225-.682zm.318.092q.003.26.144.416.143.155.378.155.265 0 .423-.15.16-.15.185-.422zM22.473 358.317q.02-.037.06-.433.032-.317.202-.317.14 0 .14.14 0 .032-.024.132-.133.55-.133.922 0 .403.133.522.069.064.069.103 0 .048-.071.088-.069.04-.126.04-.269 0-.269-.83 0-.056-.04-.056-.163 0-.397.02-.234.018-.336.048-.1.029-.124.055-.022.024-.041.132-.018.107-.018.222v.212q0 .185-.168.185-.142 0-.142-.185 0-.12.031-.306.057-.341.114-1.175.007-.109.019-.138.012-.03.062-.064.052-.036.112-.036.124 0 .124.102 0 .015-.04.258t-.04.377q0 .095.065.095.13 0 .478-.043.348-.045.36-.07zM24.592 357.436q-.062-.268-.153-.375-.091-.107-.241-.166-.15-.058-.27-.058-.047 0-.139.036-.09.034-.137.064-.068.04-.124.04-.066 0-.066-.07 0-.074.112-.205.112-.13.395-.13h.074q.28 0 .496.148.215.146.305.42t.09.736q0 .313-.197.76-.198.445-.505.674-.305.23-.65.23-.123 0-.232-.143-.108-.143-.108-.355 0-.391.17-.69.172-.299.384-.485.214-.186.59-.3.123-.036.168-.057.045-.02.038-.074zm.047.352q-.398.08-.61.256-.479.448-.479 1.005 0 .074.026.14.026.063.058.063.128 0 .233-.045.105-.045.257-.186.151-.143.273-.353.125-.21.18-.405.056-.195.06-.298.003-.105.002-.177zM26.72 358.857q0 .176-.312.424-.31.248-.641.248-.277 0-.429-.163-.15-.164-.15-.457 0-.493.333-.937.332-.444.726-.444.13 0 .21.084.083.084.083.203 0 .266-.26.508-.26.243-.696.478-.09.046-.09.12 0 .143.083.23.083.085.245.085.37 0 .756-.41.057-.056.086-.056.055 0 .055.088zm-1.198-.268q.73-.434.73-.698 0-.103-.092-.103-.159 0-.359.232-.198.233-.279.569zM28.352 358.833q-.261.247-.523.386-.262.14-.402.14-.16 0-.256-.136-.095-.138-.095-.338 0-.291.11-.687.112-.398.17-.452.06-.053.156-.053.052 0 .08.062.03.06.03.124 0 .043-.04.112-.225.391-.225.808 0 .096.036.17.036.073.11.073.095 0 .233-.057.14-.059.313-.19.174-.13.235-.211.06-.081.084-.185.026-.103.036-.448.01-.344.167-.344.093 0 .12.05.028.048.028.186 0 .103-.03.448-.008.077-.01.143-.05.92-.275 1.442-.226.522-.656.522-.338 0-.601-.178-.262-.176-.262-.298 0-.057.026-.112.027-.055.069-.055.02 0 .044.033.226.346.695.346.298 0 .446-.365.148-.364.187-.936zM32.025 358.658q-.022.387-.074.76-.026.07-.131.07-.152 0-.152-.155 0-.064.037-.238.025-.151.027-.205.002-.055.009-.119.007-.065-.002-.103-.088.012-.358.21-.27.198-.464.393v-.002q-.012.007-.075.129-.092.183-.202.183-.052 0-.115-.045-.062-.045-.062-.09 0-.107.2-.317.2-.212.444-.361.296-.183.408-.295-.05-.07-.195-.155-.146-.086-.272-.193l-.041-.031q-.222-.15-.296-.224-.073-.076-.073-.162 0-.057.043-.103.043-.048.085-.048.026 0 .093.027.067.028.096.059l.085.079q.446.438.706.556.014 0 .034-.032.018-.059.018-.188 0-.12-.026-.27-.014-.078-.014-.102 0-.081.062-.131.064-.05.138-.05.084 0 .115.034.031.035.031.118l-.022.547v.035l.001.04q.06 0 .126-.047.066-.048.195-.19.567-.587.656-.587.05 0 .091.041.042.042.042.097 0 .027-.19.234-.187.205-.387.377-.257.22-.257.23 0 .011.214.178.23.181.318.257.012.01.035.023.255.156.318.234.064.077.064.13 0 .05-.043.104-.043.052-.084.052-.154 0-.712-.515-.248-.231-.3-.243-.022-.003-.034-.01-.017-.004-.062-.001-.045.002-.048.014zM34.138 359.528q-.236 0-.389-.18-.153-.179-.153-.442 0-.445.298-.875.3-.433.716-.433.276 0 .447.212.172.212.172.505 0 .448-.355.83-.353.383-.736.383zm-.239-.667q0 .174.072.284.074.11.195.11.257 0 .515-.28.258-.283.258-.627 0-.212-.1-.343-.098-.133-.265-.133-.277 0-.477.341-.198.34-.198.648zM36.643 357.652q-.065-.178-.303-.384-.224-.193-.224-.331 0-.11.072-.178.073-.069.269-.124.245-.067.498-.151.253-.086.305-.11.032-.016.067-.016.057 0 .057.102 0 .056-.138.155-.138.098-.488.182-.22.055-.27.083-.048.026-.048.053 0 .062.134.18.507.442.507 1.11 0 .288-.152.617-.152.328-.405.488-.251.16-.492.16-.217 0-.33-.212-.111-.212-.111-.467 0-.451.277-.85.279-.4.589-.4.041 0 .103.053.057.052.083.04zm-.751 1.164q0 .191.05.3.052.108.134.108.11 0 .298-.136t.302-.403q.115-.267.115-.5 0-.192-.055-.311-.053-.12-.1-.12-.306 0-.525.373-.219.374-.219.69zM38.61 358.814q-.24.324-.477.486-.236.162-.432.162-.133 0-.23-.112-.096-.112-.096-.288 0-.453.405-.975.405-.523.804-.523.145 0 .216.165.022.055.07.055.138 0 .138.107 0 .053-.017.146-.093.509-.093.717 0 .417.158.5.076.04.076.101 0 .054-.074.107-.074.055-.143.055-.133 0-.219-.182-.086-.183-.086-.52zm-.105-.97q-.227 0-.529.428-.301.425-.301.706 0 .198.13.198.19 0 .526-.382.336-.383.336-.703 0-.246-.162-.246zM40.486 358.038q-.041-.002-.08.079-.357.713-.54.968-.016.022-.04.065-.215.384-.315.384-.134 0-.134-.129 0-.117.167-.318.162-.192.425-.648.264-.458.427-.822.032-.065.094-.065.025 0 .09.024.068.022.087.05.019.027.084.32.212 1.056.446 1.252.056.049.066.066.01.015.01.045 0 .053-.034.098-.035.043-.067.055-.033.012-.135.012-.036 0-.169-.178-.132-.179-.31-.973-.043-.213-.072-.286zM42.787 358.814q-.24.324-.477.486-.236.162-.432.162-.133 0-.23-.112-.096-.112-.096-.288 0-.453.405-.975.405-.523.805-.523.144 0 .215.165.022.055.07.055.138 0 .138.107 0 .053-.017.146-.093.509-.093.717 0 .417.159.5.075.04.075.101 0 .054-.074.107-.074.055-.143.055-.132 0-.218-.182-.087-.183-.087-.52zm-.105-.97q-.227 0-.529.428-.301.425-.301.706 0 .198.131.198.19 0 .525-.382.336-.383.336-.703 0-.246-.162-.246zM44.97 358.833q-.262.247-.524.386-.262.14-.401.14-.16 0-.257-.136-.095-.138-.095-.338 0-.291.11-.687.113-.398.171-.452.059-.053.155-.053.052 0 .081.062.03.06.03.124 0 .043-.04.112-.226.391-.226.808 0 .096.036.17.037.073.11.073.095 0 .233-.057.14-.059.314-.19.174-.13.234-.211.06-.081.084-.185.026-.103.037-.448.01-.344.167-.344.093 0 .12.05.028.048.028.186 0 .103-.031.448-.007.077-.009.143-.05.92-.275 1.442-.226.522-.657.522-.337 0-.6-.178-.263-.176-.263-.298 0-.057.026-.112.028-.055.069-.055.02 0 .045.033.225.346.694.346.298 0 .446-.365.148-.364.188-.936zM2.318 364.663h.315v.906l.894-.906h.39l-.738.745.646.92h.245v.751h-.317v-.487h-.097l-.684-.973-.339.344v.629h-.315zM4.757 364.64q.022-.015.05-.015.043 0 .072.115 0 .074-.04.188-.116.325-.116.455 0 .034.02.038.396-.381.734-.381.208 0 .35.158.14.157.14.288 0 .4-.407.768-.407.367-.82.367-.185 0-.288-.151-.102-.154-.102-.438 0-.308.078-.682.077-.374.124-.5.019-.053.034-.108.018-.069.171-.102zm-.081 1.08q-.034.191-.034.383 0 .26.205.26.23 0 .516-.276.286-.275.286-.536 0-.106-.057-.179-.056-.072-.156-.072-.136 0-.27.069-.13.067-.292.219-.062.058-.1.09-.036.032-.098.042zm1.735.396q0 .131.036.295.007.031.007.052 0 .03-.057.08-.057.049-.12.049-.168 0-.168-.307 0-.305.133-1.023.048-.262.048-.317 0-.108.04-.184.04-.078.112-.078.087 0 .137.043.052.042.052.093 0 .052-.024.143-.134.491-.165.688-.031.196-.031.467zM7.818 365.533q.222.036.346.163.124.128.124.312 0 .291-.246.486-.246.193-.648.193-.24 0-.413-.104-.172-.103-.172-.229 0-.103.118-.103.018 0 .054.03.19.163.45.163.228 0 .394-.12.165-.121.165-.314 0-.128-.095-.212-.093-.086-.217-.086-.094 0-.332.074-.047.015-.1.015-.103 0-.103-.14 0-.047.048-.077.05-.029.212-.067.49-.112.49-.398 0-.086-.061-.141-.06-.057-.157-.057-.18 0-.382.159-.12.093-.181.093-.105 0-.105-.099 0-.129.243-.263.244-.136.468-.136.224 0 .351.119.13.118.13.25 0 .311-.381.489zM9.072 364.64q.022-.015.05-.015.043 0 .072.115 0 .074-.04.188-.116.325-.116.455 0 .034.02.038.396-.381.734-.381.208 0 .35.158.14.157.14.288 0 .4-.407.768-.407.367-.82.367-.185 0-.288-.151-.102-.154-.102-.438 0-.308.078-.682.077-.374.124-.5.019-.053.034-.108.018-.069.171-.102zm-.081 1.08q-.034.191-.034.383 0 .26.205.26.23 0 .516-.276.286-.275.286-.536 0-.106-.057-.179-.056-.072-.156-.072-.136 0-.27.069-.13.067-.292.219-.062.058-.1.09-.036.032-.098.042zm1.735.396q0 .131.036.295.007.031.007.052 0 .03-.057.08-.057.049-.12.049-.168 0-.168-.307 0-.305.133-1.023.048-.262.048-.317 0-.108.04-.184.04-.078.112-.078.087 0 .137.043.052.042.052.093 0 .052-.024.143-.134.491-.165.688-.031.196-.031.467zM13.489 365.083q-.14.224-.393.758-.057.12-.116.232-.019.037-.072.16-.18.42-.315.42-.107 0-.157-.025-.048-.026-.093-.141-.045-.116-.133-.543-.101-.484-.137-.596-.117.264-.209.508-.138.36-.267.588-.129.225-.186.27-.057.047-.108.047-.054 0-.097-.042-.043-.04-.043-.08.01-.071.024-.088.15-.185.259-.393.108-.209.275-.626.17-.416.216-.683.022-.114.167-.114.084 0 .115.026t.06.105q.031.079.037.141.01.074.058.33.043.239.057.338.024.143.084.376.062.232.097.232.024 0 .069-.105l.144-.334q.04-.091.085-.179l.198-.405q.162-.334.248-.484.088-.151.117-.182.031-.031.069-.031.065 0 .146.036.081.034.085.077.003.043.015.36l.023.538q.01.256.03.437.021.18.073.29.081.175.081.272 0 .083-.069.114-.067.03-.126.03-.12 0-.186-.192-.063-.193-.093-1.106-.01-.274-.032-.336zM15.85 366.008q0 .176-.312.424-.31.248-.64.248-.278 0-.43-.164-.15-.164-.15-.456 0-.493.333-.937.333-.445.727-.445.13 0 .21.085.083.084.083.203 0 .265-.26.508t-.696.477q-.09.047-.09.12 0 .144.083.23.083.086.245.086.37 0 .756-.41.057-.057.086-.057.055 0 .055.088zm-1.197-.269q.73-.434.73-.697 0-.104-.093-.104-.158 0-.358.233-.198.232-.279.568zM17.51 365.23q-.16.002-.685.948-.177.32-.207.348-.029.028-.108.05-.078.023-.13.023-.115 0-.115-.45 0-.253.109-.916.045-.269.045-.384 0-.114.101-.114.191 0 .191.276 0 .129-.063.506-.074.43-.076.524.107-.104.313-.453.293-.48.431-.607.14-.129.288-.129.112 0 .177.15.067.15.081.715.004.141.026.21t.033.069q.08 0 .351-.551.145-.291.28-.443.139-.152.306-.152.14 0 .203.145.064.143.091.426.026.286.08.523.055.238.2.305.098.047.098.109 0 .06-.083.124-.083.063-.152.063-.137 0-.246-.168-.109-.17-.164-.73-.024-.226-.046-.321-.023-.095-.07-.095-.073 0-.173.138-.098.138-.319.56-.172.329-.262.439-.087.109-.17.109-.074 0-.133-.06-.058-.06-.074-.142-.015-.084-.033-.412-.025-.544-.094-.634z"/></g></g></svg>