<svg xmlns="http://www.w3.org/2000/svg" viewBox="0 0 70.9 5.4" height="20.409" width="267.969"><g transform="translate(0 -291.6)" font-weight="400" font-family="Segoe Print" letter-spacing="0" word-spacing="0"><flowRoot transform="matrix(.26458 0 0 .26458 0 226.6)" style="line-height:1.25;-inkscape-font-specification:'Segoe Print';font-variant-ligatures:normal;font-variant-caps:normal;font-variant-numeric:normal;font-feature-settings:normal;text-align:start" xml:space="preserve" font-style="normal" font-variant="normal" font-stretch="normal" font-size="13.333" writing-mode="lr-tb" text-anchor="start" fill="#000" fill-opacity="1" stroke="none"><flowRegion><path d="M7.239 212.992h60.325V251.6H7.239z"/></flowRegion><flowPara/></flowRoot><text y="254.382" x="114.134" style="line-height:2;-inkscape-font-specification:'Segoe Print';font-variant-ligatures:normal;font-variant-caps:normal;font-variant-numeric:normal;font-feature-settings:normal;text-align:start" font-size="3.528" fill="#917c6f" stroke-width=".265"><tspan y="254.382" x="114.134">адамдар</tspan><tspan y="261.532" x="114.134">бөлме ғимарат жобалар</tspan><tspan y="268.682" x="114.134">ғарыш тылсым әлем</tspan><tspan y="275.833" x="114.134">гүлдер</tspan><tspan y="282.983" x="114.134">өсімдіктер</tspan><tspan y="290.134" x="114.134">қалыпталған кескіндер</tspan><tspan y="297.284" x="114.134">қолданыс заттары</tspan><tspan y="304.34" x="114.134">жаныуарлар</tspan><tspan y="311.49" x="114.134">өнер білім спорт</tspan><tspan y="318.546" x="114.134">art education sports</tspan><tspan y="325.707" x="114.134">美術教育スポーツ</tspan><tspan y="332.857" x="114.134">الرياضة التربية الفنية</tspan><tspan y="340.008" x="114.134">сән үлгілері</tspan><tspan y="347.158" x="114.134">тәбіиғат</tspan><tspan y="354.214" x="114.134">елмекен</tspan></text><text y="254.36" x="162.734" style="line-height:2;-inkscape-font-specification:'Segoe Print';font-variant-ligatures:normal;font-variant-caps:normal;font-variant-numeric:normal;font-feature-settings:normal;text-align:start" font-size="3.528" fill="#917c6f" stroke-width=".265"><tspan y="254.36" x="162.734">үи</tspan><tspan y="261.51" x="162.734">пәтер</tspan><tspan y="268.661" x="162.734">бөлме алаң</tspan><tspan y="275.811" x="162.734">ғимарат</tspan><tspan y="282.867" x="162.734">жер телімі</tspan><tspan y="290.017" x="162.734">қызымет</tspan></text><text y="253.736" x="190.455" style="line-height:2;-inkscape-font-specification:'Segoe Print';font-variant-ligatures:normal;font-variant-caps:normal;font-variant-numeric:normal;font-feature-settings:normal;text-align:start" font-size="3.528" fill="#917c6f" stroke-width=".265"><tspan y="253.736" x="190.455">жеңіл</tspan><tspan y="260.792" x="190.455">жолаушылар</tspan><tspan y="267.942" x="190.455">жүк</tspan><tspan y="275.093" x="190.455">қызыметтік</tspan><tspan y="282.148" x="190.455">белсебет</tspan><tspan y="289.204" x="190.455">мотосекл</tspan><tspan y="296.354" x="190.455">сұу</tspan><tspan y="303.505" x="190.455">әуе</tspan><tspan y="310.655" x="190.455">қызымет</tspan></text><text y="253.832" x="223.203" style="line-height:2;-inkscape-font-specification:'Segoe Print';font-variant-ligatures:normal;font-variant-caps:normal;font-variant-numeric:normal;font-feature-settings:normal;text-align:start" font-size="3.528" fill="#917c6f" stroke-width=".265"><tspan y="253.832" x="223.203">нан өнімдері</tspan><tspan y="260.983" x="223.203">сұусын</tspan><tspan y="268.133" x="223.203">кәмпит</tspan><tspan y="275.189" x="223.203">торт</tspan><tspan y="282.339" x="223.203">жеміс жидек көкөніс</tspan><tspan y="289.49" x="223.203">қаинатпа</tspan><tspan y="296.64" x="223.203">тұздалған</tspan><tspan y="303.79" x="223.203">қызымет</tspan></text><text y="253.707" x="265.973" style="line-height:2;-inkscape-font-specification:'Segoe Print';font-variant-ligatures:normal;font-variant-caps:normal;font-variant-numeric:normal;font-feature-settings:normal;text-align:start" font-size="3.528" fill="#917c6f" stroke-width=".265"><tspan y="253.707" x="265.973">бас кіиім</tspan><tspan y="260.858" x="265.973">үстіңгі</tspan><tspan y="268.008" x="265.973">астыңғы</tspan><tspan y="275.158" x="265.973">аиақ</tspan><tspan y="282.214" x="265.973">спорт</tspan><tspan y="289.27" x="265.973">балалар</tspan><tspan y="296.325" x="265.973">арнаиы</tspan><tspan y="303.476" x="265.973">қызымет</tspan></text><text y="253.509" x="288.034" style="line-height:2;-inkscape-font-specification:'Segoe Print';font-variant-ligatures:normal;font-variant-caps:normal;font-variant-numeric:normal;font-feature-settings:normal;text-align:start" font-size="3.528" fill="#917c6f" stroke-width=".265"><tspan y="253.509" x="288.034">ас үи</tspan><tspan y="260.659" x="288.034">құрал</tspan><tspan y="267.81" x="288.034">құрылғы</tspan><tspan y="274.96" x="288.034">бақша</tspan><tspan y="282.016" x="288.034">оиын</tspan><tspan y="289.166" x="288.034">зат-қызымет</tspan></text><text y="253.434" x="319.277" style="line-height:2;-inkscape-font-specification:'Segoe Print';font-variant-ligatures:normal;font-variant-caps:normal;font-variant-numeric:normal;font-feature-settings:normal;text-align:start" font-size="3.528" fill="#917c6f" stroke-width=".265"><tspan y="253.434" x="319.277">әк үнтақ</tspan><tspan y="260.489" x="319.277">боиау</tspan><tspan y="267.64" x="319.277">түс қағаз</tspan><tspan y="274.79" x="319.277">кірпіш тұтас бетон</tspan><tspan y="281.941" x="319.277">ағаш пластік ұқсастар</tspan><tspan y="289.091" x="319.277">метал көмпөзіт ұқсастар</tspan><tspan y="296.147" x="319.277">есік терезе</tspan><tspan y="303.297" x="319.277">су кәріз жылытыу ауа тораптары</tspan><tspan y="310.448" x="319.277">електр басқа желілер</tspan><tspan y="317.598" x="319.277">сәулет сәндеу жобалау</tspan><tspan y="324.749" x="319.277">қызымет</tspan></text><text y="309.637" x="300.914" style="line-height:1.25;-inkscape-font-specification:'Segoe Print';font-variant-ligatures:normal;font-variant-caps:normal;font-variant-numeric:normal;font-feature-settings:normal;text-align:start" font-size="3.528" stroke-width=".265"/><text y="253.157" x="391.499" style="line-height:2;-inkscape-font-specification:'Segoe Print';font-variant-ligatures:normal;font-variant-caps:normal;font-variant-numeric:normal;font-feature-settings:normal;text-align:start" font-size="3.528" fill="#917c6f" stroke-width=".265"><tspan y="253.157" x="391.499">тазартыу</tspan><tspan y="260.307" x="391.499">әтір саулық</tspan><tspan y="267.457" x="391.499">қызымет</tspan></text><g style="line-height:2;-inkscape-font-specification:'Segoe Print';font-variant-ligatures:normal;font-variant-caps:normal;font-variant-numeric:normal;font-feature-settings:normal;text-align:start" aria-label="тазартыу әтір саулық қызымет" font-size="3.528" fill="#917c6f" stroke-width=".265"><path d="M3.68 286.915q-.16.003-.686.949-.177.319-.206.348-.03.028-.109.05-.077.022-.13.022-.114 0-.114-.45 0-.252.108-.916.045-.268.045-.384 0-.113.101-.113.192 0 .192.275 0 .13-.064.507-.074.43-.076.523.107-.103.314-.453.292-.479.43-.606.14-.13.288-.13.112 0 .177.15.068.15.081.715.004.142.026.21.023.07.033.07.08 0 .351-.552.145-.29.281-.442.138-.152.305-.152.14 0 .203.145.064.143.092.425.025.286.079.524.055.238.2.305.098.046.098.108 0 .06-.083.124t-.152.064q-.137 0-.246-.169-.108-.169-.163-.73-.025-.226-.047-.32-.022-.095-.07-.095-.073 0-.173.138-.098.137-.319.56-.172.328-.261.439-.088.108-.17.108-.075 0-.134-.059-.058-.06-.074-.142-.015-.085-.032-.412-.026-.544-.095-.634zM7.166 287.65q-.24.324-.477.486-.236.162-.432.162-.133 0-.23-.112-.096-.112-.096-.288 0-.453.405-.974.405-.524.805-.524.144 0 .215.165.022.055.07.055.138 0 .138.107 0 .054-.017.147-.093.508-.093.716 0 .417.158.5.076.041.076.101 0 .054-.074.107-.074.055-.143.055-.132 0-.219-.182-.086-.183-.086-.52zm-.105-.97q-.227 0-.529.428-.301.425-.301.706 0 .198.13.198.19 0 .526-.382.336-.383.336-.703 0-.246-.162-.246zM8.918 287.218q.222.036.346.164.124.127.124.312 0 .29-.246.485-.246.193-.648.193-.239 0-.413-.103-.172-.104-.172-.23 0-.103.119-.103.017 0 .053.03.19.163.45.163.229 0 .394-.12t.165-.314q0-.127-.094-.212-.093-.086-.217-.086-.095 0-.333.074-.046.016-.1.016-.103 0-.103-.14 0-.048.048-.077.05-.03.212-.067.491-.112.491-.398 0-.086-.062-.142-.06-.056-.157-.056-.179 0-.382.158-.12.093-.181.093-.105 0-.105-.098 0-.13.243-.264.244-.136.468-.136.224 0 .352.12.129.118.129.249 0 .312-.38.49zM10.934 287.65q-.242.324-.478.486-.236.162-.432.162-.133 0-.23-.112-.096-.112-.096-.288 0-.453.405-.974.405-.524.805-.524.144 0 .215.165.022.055.07.055.138 0 .138.107 0 .054-.017.147-.093.508-.093.716 0 .417.159.5.075.041.075.101 0 .054-.074.107-.074.055-.143.055-.132 0-.218-.182-.086-.183-.086-.52zm-.106-.97q-.227 0-.528.428-.302.425-.302.706 0 .198.131.198.19 0 .525-.382.336-.383.336-.703 0-.246-.162-.246zM12.176 288.078q-.085.31-.159.87l-.048.325q-.012.069-.064.136-.052.07-.095.07-.053 0-.122-.056-.067-.053-.067-.086 0-.095.043-.262.315-1.273.315-2.236l-.002-.145q-.003-.186.066-.27.069-.084.158-.084.042 0 .08.065.038.064.038.183 0 .167-.035.405-.045.3-.046.344.256-.448.544-.7.288-.25.534-.25.174 0 .293.13.12.13.12.322 0 .562-.43 1.02-.431.458-.84.458-.1 0-.161-.052-.059-.051-.122-.187zm1.07-1.387q-.244 0-.602.455-.358.454-.358.708 0 .062.07.12.071.059.18.059.246 0 .566-.364.32-.365.32-.716 0-.126-.051-.193-.05-.069-.126-.069zM15.424 286.915q-.16.003-.685.949-.178.319-.207.348-.03.028-.109.05-.077.022-.129.022-.115 0-.115-.45 0-.252.108-.916.045-.268.045-.384 0-.113.102-.113.191 0 .191.275 0 .13-.064.507-.074.43-.076.523.107-.103.314-.453.293-.479.43-.606.14-.13.288-.13.112 0 .178.15.067.15.08.715.004.142.026.21.023.07.033.07.081 0 .352-.552.144-.29.28-.442.138-.152.305-.152.14 0 .204.145.063.143.09.425.027.286.08.524.055.238.2.305.098.046.098.108 0 .06-.083.124-.082.064-.151.064-.138 0-.247-.169-.108-.169-.163-.73-.024-.226-.047-.32-.022-.095-.07-.095-.073 0-.173.138-.098.137-.318.56-.172.328-.262.439-.088.108-.17.108-.075 0-.133-.059-.059-.06-.074-.142-.016-.085-.033-.412-.026-.544-.095-.634zM18.15 286.326q.022-.016.05-.016.042 0 .072.116 0 .074-.04.187-.117.326-.117.455 0 .035.02.038.397-.38.734-.38.209 0 .35.158.141.157.141.288 0 .4-.408.768-.407.367-.82.367-.184 0-.288-.152-.101-.153-.101-.437 0-.309.077-.682.078-.374.124-.5.02-.053.035-.109.017-.068.17-.101zm-.082 1.08q-.034.191-.034.382 0 .26.205.26.23 0 .517-.275.286-.276.286-.536 0-.107-.057-.18-.057-.071-.157-.071-.136 0-.269.068-.13.068-.293.22-.062.058-.1.09-.036.032-.098.042zm1.735.396q0 .131.036.295.007.03.007.051 0 .031-.057.081-.057.048-.12.048-.167 0-.167-.306 0-.305.132-1.023.048-.262.048-.317 0-.109.04-.185.04-.077.112-.077.088 0 .138.043.051.041.051.093t-.024.143q-.134.49-.165.687-.031.197-.031.467zM21.64 287.67q-.26.246-.523.385-.262.14-.401.14-.16 0-.257-.136-.095-.138-.095-.338 0-.291.11-.687.113-.398.171-.452.059-.053.155-.053.052 0 .081.062.03.06.03.124 0 .043-.04.112-.226.391-.226.808 0 .096.036.17.037.073.11.073.095 0 .233-.057.14-.059.314-.19.174-.13.234-.211.06-.081.084-.185.026-.103.037-.448.01-.344.167-.344.093 0 .12.05.028.048.028.186 0 .103-.031.448-.007.077-.009.143-.05.92-.275 1.442-.226.522-.657.522-.337 0-.6-.178-.263-.176-.263-.298 0-.057.026-.112.028-.055.069-.055.02 0 .045.033.225.346.694.346.298 0 .446-.365.148-.364.188-.936zM2.345 294.546v-.155h1.457q-.02-.327-.198-.498-.176-.172-.49-.172-.183 0-.356.045-.17.044-.339.134v-.3q.17-.072.35-.11.179-.038.363-.038.462 0 .73.269.27.269.27.727 0 .474-.256.753-.255.277-.689.277-.389 0-.616-.25-.226-.251-.226-.682zm.317.093q.003.26.145.415.143.155.377.155.265 0 .424-.15.16-.15.184-.422zM5.85 294.065q-.16.003-.685.95-.178.318-.207.347-.03.028-.108.05-.078.023-.13.023-.115 0-.115-.45 0-.253.108-.916.045-.269.045-.384 0-.114.102-.114.191 0 .191.276 0 .129-.064.506-.074.43-.075.524.106-.104.313-.453.293-.48.43-.607.14-.129.288-.129.112 0 .178.15.067.15.08.715.004.141.027.21.022.069.032.069.081 0 .352-.551.144-.291.28-.443.138-.152.305-.152.14 0 .204.145.063.143.09.426.027.286.08.523.055.238.2.305.098.047.098.109 0 .06-.083.124-.082.063-.151.063-.138 0-.246-.168-.109-.17-.164-.73-.024-.226-.047-.321-.022-.095-.07-.095-.073 0-.172.138-.099.138-.32.56-.171.329-.26.44-.089.108-.171.108-.075 0-.133-.059-.059-.06-.074-.143-.016-.084-.033-.412-.026-.544-.095-.634zM8.73 293.121q-.036 0-.055-.077-.007-.024-.019-.053-.046-.112-.046-.195 0-.069.08-.14.083-.072.183-.072.05 0 .112.04.062.038.062.074 0 .057-.043.193-.041.136-.134.184-.091.047-.14.047zm-.225 1.925q0 .13.036.294.007.031.007.052 0 .03-.057.079-.057.05-.12.05-.168 0-.168-.307 0-.317.131-1.002.045-.24.045-.295 0-.108.04-.184.04-.078.112-.078.087 0 .137.044.052.04.052.093 0 .051-.024.136-.13.454-.16.65-.031.197-.031.468zM9.528 295.228q-.084.31-.159.87l-.048.326q-.012.068-.063.136-.052.069-.095.069-.054 0-.123-.056-.067-.053-.067-.086 0-.094.043-.261.316-1.273.316-2.236l-.002-.145q-.004-.186.065-.27.07-.085.159-.085.041 0 .08.066.037.063.037.182 0 .167-.034.405-.045.3-.047.345.257-.448.544-.7.288-.251.534-.251.174 0 .293.13.12.13.12.323 0 .561-.43 1.02-.43.458-.839.458-.101 0-.162-.052-.058-.052-.122-.188zm1.07-1.387q-.243 0-.602.455-.358.455-.358.708 0 .062.07.12.071.06.18.06.246 0 .567-.364.32-.365.32-.717 0-.125-.052-.193-.05-.069-.125-.069zM13.357 295.526q-.258 0-.398-.148-.138-.148-.138-.415 0-.45.357-.948.357-.5.663-.5.14 0 .24.152.101.15.101.32 0 .1-.045.175-.043.072-.087.072-.1 0-.142-.201-.046-.217-.134-.217-.18 0-.424.425-.244.426-.244.718 0 .293.332.293.253 0 .596-.238.12-.084.178-.084.058 0 .058.067 0 .131-.308.331-.309.198-.605.198zM15.836 294.8q-.241.325-.477.487-.236.162-.433.162-.132 0-.229-.112-.096-.112-.096-.288 0-.453.405-.975.404-.524.804-.524.145 0 .215.166.023.055.071.055.138 0 .138.107 0 .053-.017.146-.093.508-.093.717 0 .416.158.5.076.04.076.1 0 .054-.074.108-.074.055-.143.055-.133 0-.219-.183-.086-.182-.086-.52zm-.105-.969q-.228 0-.529.427-.301.426-.301.707 0 .198.13.198.19 0 .526-.383.336-.382.336-.703 0-.246-.162-.246zM18.018 294.82q-.261.246-.523.386t-.402.14q-.16 0-.256-.137-.095-.138-.095-.337 0-.292.11-.688.112-.398.17-.451.06-.053.156-.053.051 0 .08.062.03.06.03.124 0 .043-.04.112-.225.39-.225.807 0 .097.036.17.036.073.11.073.095 0 .233-.056.14-.06.313-.19.174-.13.234-.212.06-.08.085-.184.026-.103.036-.448.01-.344.167-.344.093 0 .12.05.028.048.028.186 0 .103-.03.447-.008.078-.01.143-.05.92-.275 1.442-.226.522-.656.522-.338 0-.601-.177-.262-.176-.262-.298 0-.057.026-.112.027-.055.069-.055.02 0 .044.032.226.347.694.347.298 0 .447-.366.148-.363.187-.935zM19.796 294.024q-.041-.002-.08.08-.357.712-.54.967-.016.023-.04.066-.215.384-.315.384-.134 0-.134-.13 0-.116.167-.318.162-.191.425-.648.264-.458.427-.821.031-.066.094-.066.025 0 .09.024.068.023.087.05.019.028.084.32.212 1.057.446 1.253.056.048.066.066.01.015.01.044 0 .054-.034.099-.035.043-.067.055-.033.012-.135.012-.036 0-.169-.178-.132-.179-.31-.973-.043-.214-.072-.286zM21.336 293.476q.022-.015.05-.015.043 0 .072.115 0 .074-.04.188-.116.326-.116.455 0 .034.02.038.396-.381.734-.381.208 0 .35.158.141.157.141.288 0 .4-.408.768-.407.367-.82.367-.185 0-.288-.151-.102-.154-.102-.438 0-.308.078-.682.078-.374.124-.5.019-.053.034-.108.018-.069.171-.102zm-.08 1.08q-.035.192-.035.383 0 .26.205.26.23 0 .516-.276.286-.275.286-.535 0-.107-.057-.18-.056-.072-.156-.072-.136 0-.269.069-.13.067-.293.219-.062.058-.1.09-.036.032-.098.042zm1.734.397q0 .13.036.294.007.031.007.052 0 .03-.057.08-.057.049-.12.049-.168 0-.168-.307 0-.305.133-1.023.048-.262.048-.317 0-.108.04-.184.04-.078.112-.078.088 0 .137.043.052.042.052.093 0 .052-.024.143-.134.491-.165.688-.031.196-.031.467zM23.646 293.499h.315v.906l.894-.906h.39l-.738.746.646.92h.245v.75h-.317v-.487h-.097l-.683-.973-.34.344v.629h-.315zM2.47 300.65h.316v.905l.894-.906h.39l-.738.746.646.92h.245v.75h-.317v-.487h-.097l-.684-.973-.34.345v.628h-.314zM4.91 300.627q.022-.016.05-.016.043 0 .072.116 0 .074-.04.187-.117.326-.117.455 0 .035.021.038.396-.38.734-.38.208 0 .35.158.14.157.14.288 0 .4-.407.768-.407.367-.82.367-.185 0-.288-.152-.102-.153-.102-.437 0-.309.078-.683.077-.373.124-.5.019-.052.034-.108.017-.068.17-.101zm-.081 1.08q-.035.191-.035.382 0 .26.205.26.231 0 .517-.275.286-.276.286-.536 0-.107-.057-.18-.057-.071-.157-.071-.136 0-.268.068-.131.068-.293.22-.062.058-.1.09-.036.032-.098.042zm1.734.396q0 .13.037.295.007.03.007.051 0 .031-.057.081-.057.048-.12.048-.168 0-.168-.306 0-.305.133-1.023.048-.262.048-.317 0-.109.04-.185.04-.077.111-.077.088 0 .138.043.052.041.052.093t-.024.143q-.135.49-.166.687-.03.197-.03.467zM7.97 301.519q.223.036.347.164.124.127.124.311 0 .292-.246.486-.247.193-.648.193-.24 0-.413-.103-.173-.104-.173-.23 0-.103.12-.103.016 0 .053.03.19.163.45.163.228 0 .394-.12.165-.12.165-.314 0-.127-.095-.212-.093-.086-.217-.086-.094 0-.332.074-.047.016-.1.016-.103 0-.103-.14 0-.048.048-.077.05-.03.212-.067.49-.112.49-.398 0-.086-.061-.142-.06-.056-.157-.056-.18 0-.383.158-.118.093-.18.093-.106 0-.106-.098 0-.13.243-.264.245-.136.469-.136.224 0 .351.12.13.118.13.249 0 .312-.381.49zM9.225 300.627q.022-.016.05-.016.043 0 .072.116 0 .074-.04.187-.117.326-.117.455 0 .035.021.038.396-.38.734-.38.208 0 .35.158.14.157.14.288 0 .4-.408.768-.406.367-.82.367-.184 0-.287-.152-.102-.153-.102-.437 0-.309.078-.683.077-.373.124-.5.019-.052.034-.108.017-.068.17-.101zm-.081 1.08q-.035.191-.035.382 0 .26.205.26.231 0 .517-.275.286-.276.286-.536 0-.107-.057-.18-.057-.071-.157-.071-.136 0-.268.068-.131.068-.293.22-.062.058-.1.09-.036.032-.098.042zm1.734.396q0 .13.037.295.007.03.007.051 0 .031-.057.081-.057.048-.12.048-.168 0-.168-.306 0-.305.133-1.023.048-.262.048-.317 0-.109.04-.185.04-.077.111-.077.088 0 .138.043.052.041.052.093t-.024.143q-.135.49-.166.687-.03.197-.03.467zM13.641 301.07q-.14.223-.392.757-.057.121-.116.233-.019.036-.072.16-.181.42-.315.42-.107 0-.157-.025-.048-.026-.093-.142-.045-.115-.133-.542-.101-.484-.138-.596-.117.263-.208.508-.138.36-.267.587-.13.226-.186.27-.057.047-.109.047-.053 0-.096-.041-.043-.041-.043-.081.01-.07.024-.088.15-.184.258-.393.109-.208.276-.625.169-.417.215-.684.023-.114.167-.114.085 0 .116.026.03.026.06.105.031.08.036.142.01.074.059.329.043.239.057.339.024.143.084.375.062.233.097.233.024 0 .069-.105l.144-.334q.04-.092.085-.18l.198-.404q.162-.334.248-.484.088-.152.117-.183.03-.03.069-.03.065 0 .146.035.081.035.085.078.003.043.015.36l.022.537q.01.257.031.438.021.179.073.29.08.175.08.271 0 .083-.068.114-.067.031-.126.031-.12 0-.186-.193-.064-.193-.093-1.106-.01-.274-.033-.336zM16.003 301.994q0 .176-.312.424-.31.248-.64.248-.278 0-.43-.163-.15-.164-.15-.457 0-.493.333-.937.333-.444.727-.444.13 0 .21.084.083.084.083.203 0 .266-.26.508-.26.243-.696.478-.09.046-.09.12 0 .143.083.23.083.085.245.085.37 0 .756-.41.057-.056.086-.056.055 0 .055.088zm-1.197-.268q.73-.434.73-.698 0-.103-.093-.103-.158 0-.358.232-.198.233-.28.569zM17.664 301.216q-.16.003-.686.949-.177.319-.207.348-.029.028-.108.05-.078.022-.13.022-.115 0-.115-.45 0-.252.109-.916.044-.268.044-.384 0-.113.102-.113.191 0 .191.275 0 .13-.063.507-.075.43-.076.523.107-.103.313-.453.293-.479.43-.606.14-.13.289-.13.112 0 .177.15.067.15.081.715.003.142.026.21.022.07.033.07.08 0 .35-.552.146-.29.282-.442.138-.152.305-.152.14 0 .203.145.064.143.091.425.026.286.08.524.055.238.2.305.097.046.097.108 0 .06-.082.124-.083.064-.152.064-.138 0-.246-.169-.109-.169-.164-.73-.024-.226-.046-.32-.023-.095-.071-.095-.072 0-.172.137-.098.138-.319.56-.172.33-.262.44-.088.108-.17.108-.074 0-.133-.059-.058-.06-.074-.143-.015-.084-.033-.411-.026-.545-.094-.634z"/></g></g></svg>