<svg xmlns="http://www.w3.org/2000/svg" viewBox="0 0 50.9 5.4" height="20.409" width="192.378"><g transform="translate(0 -291.6)" font-weight="400" font-family="Segoe Print" letter-spacing="0" word-spacing="0"><g style="line-height:2;-inkscape-font-specification:'Segoe Print';font-variant-ligatures:normal;font-variant-caps:normal;font-variant-numeric:normal;font-feature-settings:normal;text-align:start" aria-label="адамдар бөлме ғимарат жобалар ғарыш тылсым әлем гүлдер өсімдіктер қалыпталған кескіндер қолданыс заттары жаныуарлар өнер білім спорт art education sports 美術教育スポーツ الرياضة التربية الفنية сән үлгілері табиғат елмекен" font-size="3.528" fill="#917c6f" stroke-width=".265"><path d="M3.432 216.231q-.241.324-.477.486-.236.162-.432.162-.133 0-.23-.112-.096-.112-.096-.288 0-.453.405-.975.405-.523.804-.523.145 0 .216.165.022.055.07.055.138 0 .138.107 0 .053-.017.146-.093.508-.093.717 0 .417.158.5.076.04.076.1 0 .054-.074.108-.074.055-.143.055-.133 0-.219-.183-.086-.182-.086-.52zm-.105-.97q-.227 0-.529.427-.301.426-.301.707 0 .198.13.198.19 0 .526-.383.336-.382.336-.702 0-.247-.162-.247zM5.653 214.853q-.063-.269-.154-.375-.091-.107-.241-.166-.15-.058-.27-.058-.047 0-.138.036-.09.034-.138.063-.067.04-.124.04-.065 0-.065-.069 0-.074.111-.205.112-.13.395-.13h.074q.28 0 .496.147.215.147.305.42.091.275.091.736 0 .314-.198.76t-.505.675q-.304.23-.649.23-.124 0-.232-.144-.109-.143-.109-.355 0-.39.17-.689.173-.3.385-.485.213-.186.589-.3.124-.036.169-.057.044-.02.038-.074zm.046.351q-.398.081-.61.257-.479.448-.479 1.004 0 .074.026.14.026.064.059.064.127 0 .232-.045.105-.045.257-.186.152-.143.274-.353.124-.21.179-.405.057-.195.06-.298.004-.105.002-.178zM7.363 216.231q-.241.324-.477.486-.236.162-.433.162-.132 0-.229-.112-.096-.112-.096-.288 0-.453.405-.975.405-.523.804-.523.145 0 .215.165.023.055.071.055.138 0 .138.107 0 .053-.017.146-.093.508-.093.717 0 .417.158.5.076.04.076.1 0 .054-.074.108-.074.055-.143.055-.133 0-.219-.183-.086-.182-.086-.52zm-.105-.97q-.227 0-.529.427-.301.426-.301.707 0 .198.13.198.19 0 .526-.383.336-.382.336-.702 0-.247-.162-.247zM10.47 215.35q-.14.223-.392.757-.057.12-.116.233-.019.036-.072.16-.18.42-.315.42-.107 0-.157-.026-.048-.025-.093-.14-.045-.116-.133-.544-.101-.484-.137-.596-.118.264-.209.509-.138.36-.267.587-.13.226-.186.27-.057.047-.108.047-.054 0-.097-.041-.043-.042-.043-.081.01-.071.024-.088.15-.185.259-.393.108-.208.275-.625.169-.417.215-.684.023-.114.168-.114.084 0 .115.026t.06.105q.031.08.036.141.01.074.059.33.043.239.057.339.024.143.084.375.062.233.097.233.024 0 .069-.105l.144-.335q.04-.09.085-.179l.198-.404q.162-.335.248-.485.088-.151.117-.182.031-.031.069-.031.065 0 .146.036.081.035.085.078.003.043.015.36l.023.537q.01.257.03.438.021.179.073.289.08.176.08.272 0 .083-.068.114-.067.03-.126.03-.12 0-.186-.192-.064-.193-.093-1.106-.01-.274-.033-.336zM12.668 214.853q-.062-.269-.153-.375-.091-.107-.241-.166-.15-.058-.27-.058-.047 0-.138.036-.09.034-.138.063-.067.04-.124.04-.066 0-.066-.069 0-.074.112-.205.112-.13.395-.13h.074q.28 0 .496.147.215.147.305.42.091.275.091.736 0 .314-.198.76t-.505.675q-.304.23-.649.23-.124 0-.233-.144-.108-.143-.108-.355 0-.39.17-.689.173-.3.385-.485.213-.186.589-.3.124-.036.169-.057.044-.02.037-.074zm.047.351q-.398.081-.61.257-.479.448-.479 1.004 0 .074.026.14.026.064.059.064.127 0 .232-.045.105-.045.257-.186.152-.143.274-.353.124-.21.179-.405.057-.195.06-.298.004-.105.002-.178zM14.379 216.231q-.241.324-.477.486-.236.162-.433.162-.132 0-.229-.112-.096-.112-.096-.288 0-.453.405-.975.404-.523.804-.523.145 0 .215.165.023.055.071.055.138 0 .138.107 0 .053-.017.146-.093.508-.093.717 0 .417.158.5.076.04.076.1 0 .054-.074.108-.074.055-.143.055-.133 0-.219-.183-.086-.182-.086-.52zm-.105-.97q-.228 0-.529.427-.301.426-.301.707 0 .198.13.198.19 0 .526-.383.336-.382.336-.702 0-.247-.162-.247zM15.62 216.658q-.084.31-.158.87l-.048.326q-.012.069-.064.136-.051.069-.094.069-.054 0-.123-.055-.067-.054-.067-.086 0-.095.043-.262.316-1.273.316-2.236l-.002-.145q-.004-.186.065-.27.07-.085.159-.085.041 0 .079.066.038.063.038.182 0 .167-.035.405-.044.3-.046.345.257-.448.544-.7.288-.251.534-.251.174 0 .293.13.12.13.12.323 0 .561-.43 1.02-.43.458-.839.458-.101 0-.162-.052-.058-.052-.122-.188zm1.07-1.386q-.242 0-.6.454-.359.455-.359.708 0 .062.07.12.071.06.18.06.246 0 .567-.364.32-.365.32-.717 0-.125-.052-.192-.05-.07-.125-.07zM3.284 222.219q-.065-.178-.303-.384-.224-.193-.224-.331 0-.11.072-.177.073-.07.269-.124.245-.068.498-.152.253-.086.305-.11.032-.016.067-.016.057 0 .057.102 0 .057-.138.155t-.488.182q-.22.056-.27.083-.048.026-.048.054 0 .062.134.179.507.442.507 1.11 0 .288-.152.617-.152.328-.405.488-.251.16-.492.16-.218 0-.33-.212-.111-.212-.111-.467 0-.45.277-.85.279-.4.589-.4.041 0 .103.053.057.052.083.04zm-.751 1.164q0 .191.05.3.052.109.134.109.11 0 .298-.137.188-.136.302-.403.115-.267.115-.5 0-.192-.055-.311-.053-.12-.1-.12-.306 0-.525.373-.219.374-.219.69zM4.938 222.302q-.254 0-.383.167-.127.165-.158.384h1.082q-.031-.219-.16-.384-.128-.167-.381-.167zm.001 1.488q.257 0 .402-.2.144-.2.144-.455H4.393q0 .255.145.455t.401.2zm.002-1.757q.414 0 .65.269.235.268.235.744 0 .473-.236.744-.235.269-.649.269-.415 0-.651-.27-.234-.27-.234-.743 0-.476.234-.744.236-.27.651-.27zM7.215 222.605q-.041-.002-.081.079-.357.713-.54.968-.015.022-.039.065-.215.385-.315.385-.134 0-.134-.13 0-.117.167-.318.162-.191.425-.648.264-.458.427-.822.031-.065.093-.065.026 0 .092.024.067.022.086.05.019.028.084.32.212 1.056.446 1.253.055.048.066.065.01.016.01.045 0 .053-.034.098-.035.043-.068.055-.032.012-.134.012-.036 0-.169-.177-.132-.18-.31-.973-.043-.214-.072-.286zM10.553 222.5q-.14.224-.393.758-.056.12-.115.232-.019.036-.072.16-.181.42-.316.42-.106 0-.156-.025-.049-.026-.093-.141-.045-.116-.133-.543-.102-.484-.138-.596-.117.263-.208.508-.138.36-.267.587-.13.226-.186.27-.057.047-.109.047-.053 0-.096-.04-.043-.042-.043-.082.01-.07.024-.088.15-.184.258-.393.109-.208.276-.625.169-.417.215-.684.023-.113.167-.113.085 0 .116.025.03.026.06.106.03.079.036.14.01.075.059.33.043.24.057.34.024.142.084.375.062.232.096.232.024 0 .07-.105l.144-.334q.04-.091.084-.18l.198-.404q.162-.334.249-.484.087-.152.117-.183.03-.03.069-.03.065 0 .146.036.08.034.084.077.004.043.016.36l.022.537q.01.257.031.438.021.18.073.29.08.175.08.272 0 .082-.068.113-.067.031-.126.031-.12 0-.186-.193-.064-.193-.093-1.106-.01-.273-.033-.335zM12.915 223.425q0 .175-.312.423-.31.248-.64.248-.278 0-.43-.163-.15-.164-.15-.457 0-.492.333-.937.332-.444.727-.444.129 0 .21.084.083.085.083.203 0 .266-.26.509t-.696.477q-.09.046-.09.12 0 .143.083.23.082.086.244.086.37 0 .757-.41.056-.057.086-.057.055 0 .055.088zm-1.197-.27q.73-.433.73-.697 0-.103-.093-.103-.159 0-.358.232-.198.233-.28.569zM15.006 224.009v-.862h-.453v-.293h.453v-.775h1.36v.27h-1.043v.505h.716v.293h-.716v.862zM17.984 223.26q-.22.37-.451.573-.23.203-.429.203-.114 0-.233-.133-.117-.132-.117-.408 0-.225.109-.665.091-.367.091-.515.05-.103.157-.103.072 0 .115.052.043.05.043.105 0 .12-.084.343-.16.432-.16.742 0 .282.13.282.168 0 .426-.284.259-.284.443-.792.072-.203.117-.264.046-.062.124-.062.117 0 .117.155 0 .02-.033.126-.103.377-.103.713 0 .403.133.522.069.064.069.103 0 .049-.071.088-.069.04-.126.04-.12 0-.194-.18-.075-.178-.075-.528v-.057l.002-.057zM21.118 222.5q-.14.224-.393.758-.057.12-.116.232-.019.036-.072.16-.18.42-.315.42-.107 0-.157-.025-.048-.026-.093-.141-.045-.116-.133-.543-.101-.484-.137-.596-.118.263-.209.508-.138.36-.267.587-.129.226-.186.27-.057.047-.108.047-.054 0-.097-.04-.043-.042-.043-.082.01-.07.024-.088.15-.184.259-.393.108-.208.275-.625.169-.417.216-.684.022-.113.167-.113.084 0 .115.025.031.026.06.106.031.079.036.14.01.075.059.33.043.24.057.34.024.142.084.375.062.232.097.232.024 0 .069-.105l.144-.334q.04-.091.085-.18l.198-.404q.162-.334.248-.484.088-.152.117-.183.031-.03.069-.03.065 0 .146.036.081.034.085.077.003.043.015.36l.023.537q.01.257.03.438.021.18.073.29.081.175.081.272 0 .082-.069.113-.067.031-.126.031-.12 0-.186-.193-.063-.193-.093-1.106-.01-.273-.032-.335zM23.166 223.382q-.242.323-.477.485-.236.162-.433.162-.132 0-.229-.112-.096-.112-.096-.287 0-.453.404-.975.405-.524.805-.524.145 0 .215.165.023.055.07.055.139 0 .139.107 0 .054-.018.147-.093.508-.093.716 0 .417.159.5.076.041.076.101 0 .054-.074.107-.075.055-.143.055-.133 0-.22-.182-.085-.183-.085-.52zm-.105-.97q-.228 0-.53.427-.3.425-.3.706 0 .198.13.198.19 0 .526-.382.335-.383.335-.703 0-.246-.161-.246zM24.408 223.809q-.085.31-.159.87l-.048.325q-.012.07-.064.136-.052.07-.095.07-.053 0-.122-.056-.067-.053-.067-.086 0-.095.043-.262.315-1.273.315-2.236l-.001-.144q-.004-.186.065-.27.069-.085.158-.085.042 0 .08.065.038.064.038.183 0 .167-.035.405-.045.3-.046.344.256-.448.544-.7.288-.25.534-.25.174 0 .293.13.12.13.12.322 0 .562-.43 1.02-.43.458-.84.458-.1 0-.161-.051-.059-.052-.122-.188zm1.07-1.387q-.244 0-.602.455t-.358.708q0 .062.07.12.071.059.18.059.246 0 .566-.363.32-.366.32-.717 0-.126-.051-.193-.05-.069-.126-.069zM27.517 223.382q-.241.323-.477.485-.236.162-.433.162-.132 0-.229-.112-.096-.112-.096-.287 0-.453.405-.975.404-.524.804-.524.145 0 .215.165.023.055.07.055.139 0 .139.107 0 .054-.018.147-.093.508-.093.716 0 .417.159.5.076.041.076.101 0 .054-.074.107-.074.055-.143.055-.133 0-.22-.182-.085-.183-.085-.52zm-.105-.97q-.228 0-.53.427-.3.425-.3.706 0 .198.13.198.19 0 .526-.382.336-.383.336-.703 0-.246-.162-.246zM29.727 222.646q-.16.003-.686.95-.177.318-.206.347-.03.028-.109.05-.077.023-.13.023-.115 0-.115-.45 0-.253.109-.916.045-.27.045-.385 0-.113.101-.113.192 0 .192.275 0 .13-.064.507-.074.43-.076.523.107-.103.314-.453.292-.478.43-.606.14-.13.288-.13.112 0 .177.15.067.15.081.716.004.14.026.21.022.069.033.069.08 0 .351-.552.145-.29.281-.442.138-.152.305-.152.14 0 .203.145.064.143.091.425.026.286.08.524.055.238.2.305.098.046.098.108 0 .06-.083.124t-.152.064q-.137 0-.246-.169-.108-.169-.164-.73-.024-.226-.046-.32-.022-.095-.07-.095-.073 0-.173.138-.098.137-.319.56-.172.328-.261.439-.088.108-.171.108-.074 0-.133-.058-.058-.06-.074-.143-.015-.085-.032-.412-.026-.544-.095-.634zM34.913 223.225q-.022.387-.074.76-.025.07-.13.07-.152 0-.152-.155 0-.064.036-.238.026-.151.028-.205.001-.055.008-.119.007-.065-.002-.103-.087.012-.358.21-.27.198-.463.393v-.002q-.012.007-.076.13-.091.182-.201.182-.052 0-.116-.045-.062-.045-.062-.09 0-.106.2-.317.201-.211.444-.361.297-.183.409-.295-.05-.07-.195-.155-.147-.086-.272-.193-.017-.014-.042-.03-.222-.15-.296-.225-.072-.076-.072-.162 0-.056.043-.103.043-.048.084-.048.026 0 .093.027.067.028.097.059l.084.08q.446.437.706.556.014 0 .035-.033.017-.059.017-.188 0-.12-.026-.27-.014-.078-.014-.102 0-.081.062-.13.064-.05.138-.05.085 0 .116.034.03.034.03.117l-.022.548v.034q0 .024.002.04.06 0 .126-.047.065-.048.194-.19.567-.587.657-.587.05 0 .091.041.041.042.041.097 0 .028-.19.234-.187.205-.387.377-.256.22-.256.23 0 .012.213.179.231.18.319.256.012.01.034.023.255.156.319.234.064.078.064.13 0 .05-.043.104-.043.052-.085.052-.153 0-.711-.515-.248-.23-.3-.243-.022-.003-.034-.009-.018-.005-.062-.002-.045.002-.049.014zM37.027 224.095q-.236 0-.39-.18-.153-.179-.153-.442 0-.445.298-.875.3-.433.717-.433.276 0 .446.212.172.212.172.505 0 .448-.354.83-.354.383-.736.383zm-.24-.667q0 .174.073.284.074.11.195.11.256 0 .515-.28.258-.283.258-.627 0-.212-.1-.343-.098-.133-.265-.133-.278 0-.477.341-.198.34-.198.648zM39.532 222.219q-.066-.178-.304-.384-.224-.193-.224-.331 0-.11.073-.177.072-.07.269-.124.244-.068.497-.152.254-.086.305-.11.033-.016.067-.016.057 0 .057.102 0 .057-.138.155-.137.098-.487.182-.22.056-.27.083-.049.026-.049.054 0 .062.135.179.506.442.506 1.11 0 .288-.151.617-.152.328-.405.488-.252.16-.493.16-.217 0-.329-.212-.112-.212-.112-.467 0-.45.277-.85.28-.4.59-.4.04 0 .103.053.057.052.083.04zm-.751 1.164q0 .191.05.3.051.109.134.109.11 0 .298-.137.188-.136.301-.403.116-.267.116-.5 0-.192-.055-.311-.054-.12-.1-.12-.307 0-.526.373-.218.374-.218.69zM41.499 223.382q-.241.323-.477.485-.236.162-.433.162-.132 0-.229-.112-.096-.112-.096-.287 0-.453.404-.975.405-.524.805-.524.145 0 .215.165.023.055.07.055.139 0 .139.107 0 .054-.018.147-.093.508-.093.716 0 .417.159.5.076.041.076.101 0 .054-.074.107-.074.055-.143.055-.133 0-.22-.182-.085-.183-.085-.52zm-.105-.97q-.228 0-.53.427-.3.425-.3.706 0 .198.13.198.19 0 .526-.382.336-.383.336-.703 0-.246-.162-.246zM43.375 222.605q-.042-.002-.081.079-.357.713-.54.968-.015.022-.04.065-.214.385-.314.385-.135 0-.135-.13 0-.117.167-.318.162-.191.426-.648.263-.458.427-.822.031-.065.093-.065.026 0 .091.024.068.022.086.05.02.028.085.32.212 1.056.446 1.253.055.048.065.065.01.016.01.045 0 .053-.034.098-.034.043-.067.055-.033.012-.134.012-.036 0-.169-.177-.133-.18-.31-.973-.043-.214-.072-.286zM45.676 223.382q-.241.323-.477.485-.236.162-.433.162-.132 0-.229-.112-.096-.112-.096-.287 0-.453.405-.975.404-.524.804-.524.145 0 .215.165.023.055.071.055.138 0 .138.107 0 .054-.017.147-.093.508-.093.716 0 .417.158.5.076.041.076.101 0 .054-.074.107-.074.055-.143.055-.133 0-.219-.182-.086-.183-.086-.52zm-.105-.97q-.228 0-.529.427-.301.425-.301.706 0 .198.13.198.19 0 .526-.382.336-.383.336-.703 0-.246-.162-.246zM46.918 223.809q-.085.31-.159.87l-.048.325q-.012.07-.064.136-.051.07-.094.07-.054 0-.123-.056-.067-.053-.067-.086 0-.095.043-.262.315-1.273.315-2.236l-.001-.144q-.004-.186.065-.27.07-.085.159-.085.041 0 .079.065.038.064.038.183 0 .167-.035.405-.044.3-.046.344.257-.448.544-.7.288-.25.534-.25.174 0 .293.13.12.13.12.322 0 .562-.43 1.02-.43.458-.839.458-.102 0-.162-.051-.058-.052-.122-.188zm1.07-1.387q-.243 0-.602.455-.358.455-.358.708 0 .062.07.12.071.059.18.059.246 0 .567-.363.32-.366.32-.717 0-.126-.052-.193-.05-.069-.125-.069zM2.592 231.159v-.861h-.453v-.293h.453v-.775h1.36v.27H2.908v.505h.717v.293h-.717v.861zM5.515 230.532q-.241.324-.477.486-.236.162-.433.162-.132 0-.229-.112-.096-.112-.096-.288 0-.453.404-.975.405-.524.805-.524.145 0 .215.166.023.055.07.055.139 0 .139.107 0 .053-.018.146-.093.508-.093.717 0 .417.159.5.076.04.076.1 0 .054-.074.108-.075.055-.143.055-.133 0-.22-.183-.085-.182-.085-.52zm-.105-.97q-.228 0-.53.427-.3.426-.3.707 0 .198.13.198.19 0 .526-.383.336-.382.336-.702 0-.247-.162-.247zM6.757 230.96q-.085.31-.159.87l-.048.325q-.012.069-.064.136-.051.069-.095.069-.053 0-.122-.055-.067-.054-.067-.087 0-.094.043-.261.315-1.273.315-2.236l-.001-.145q-.004-.186.065-.27.069-.085.159-.085.04 0 .079.066.038.063.038.182 0 .167-.035.405-.045.3-.046.345.256-.448.544-.7.288-.251.534-.251.174 0 .293.13.12.13.12.323 0 .561-.43 1.02-.43.458-.84.458-.1 0-.161-.052-.059-.052-.122-.188zm1.07-1.387q-.244 0-.602.454-.358.455-.358.708 0 .062.07.12.071.06.18.06.246 0 .566-.364.32-.365.32-.717 0-.125-.05-.192-.05-.07-.127-.07zM9.104 229.207q.023-.015.05-.015.044 0 .073.115 0 .074-.04.188-.117.326-.117.455 0 .034.02.038.397-.381.735-.381.208 0 .35.159.14.156.14.287 0 .4-.408.768-.406.367-.82.367-.184 0-.287-.151-.102-.154-.102-.438 0-.308.077-.682.078-.374.125-.5.018-.053.034-.108.017-.069.17-.102zm-.08 1.08q-.035.192-.035.383 0 .26.205.26.23 0 .517-.276.286-.275.286-.535 0-.107-.057-.18-.057-.072-.157-.072-.136 0-.269.069-.13.067-.292.219-.062.058-.1.091-.036.031-.098.041zm1.734.397q0 .13.036.294.007.031.007.052 0 .03-.057.08-.056.05-.12.05-.167 0-.167-.308 0-.304.132-1.023.049-.262.049-.317 0-.108.04-.184.039-.077.111-.077.088 0 .138.043.052.04.052.093 0 .051-.024.143-.135.49-.166.687-.03.196-.03.467zM13.67 230.41q-.221.37-.452.573-.23.204-.429.204-.114 0-.233-.133-.117-.133-.117-.408 0-.142.03-.312-.164.324-.42.556-.257.233-.459.233-.096 0-.212-.114-.113-.114-.113-.306 0-.223.019-.335.015-.101.025-.21.01-.086.024-.162.068-.37.052-.477.036-.122.167-.122.052 0 .1.043.05.041.05.138 0 .158-.07.396-.095.319-.095.565 0 .134.019.208.02.074.09.074.227 0 .51-.403.287-.403.454-.84.074-.198.186-.198.072 0 .115.051.043.05.043.105 0 .121-.084.343-.16.426-.16.725 0 .283.13.283.06 0 .144-.041.086-.042.212-.167.125-.128.244-.312.12-.186.152-.269.03-.084.125-.394.06-.202.11-.273.052-.072.133-.072.117 0 .117.155 0 .02-.032.126-.048.165-.081.42-.033.253-.033.419 0 .403.133.522.069.063.069.103 0 .048-.071.088-.069.04-.126.04-.12 0-.194-.18-.074-.179-.074-.528v-.057l.001-.057zM17.252 229.797q-.16.003-.685.949-.178.318-.207.348-.03.027-.109.05-.077.022-.129.022-.115 0-.115-.45 0-.253.108-.916.045-.269.045-.384 0-.114.102-.114.19 0 .19.276 0 .129-.063.506-.074.43-.076.524.107-.104.314-.453.293-.48.43-.607.14-.129.288-.129.112 0 .178.15.067.15.08.715.004.141.026.21.023.069.033.069.081 0 .352-.551.144-.291.28-.443.138-.151.305-.151.14 0 .203.144.064.143.092.426.026.286.079.523.055.238.2.305.098.047.098.109 0 .06-.083.124-.082.063-.151.063-.138 0-.247-.168-.108-.17-.163-.73-.024-.226-.047-.321-.022-.095-.07-.095-.073 0-.173.138-.098.138-.318.56-.173.329-.262.44-.088.108-.17.108-.075 0-.133-.059-.059-.06-.074-.143-.016-.084-.033-.412-.026-.544-.095-.634zM19.977 229.207q.023-.015.05-.015.043 0 .073.115 0 .074-.04.188-.117.326-.117.455 0 .034.02.038.397-.381.734-.381.209 0 .35.159.141.156.141.287 0 .4-.408.768-.407.367-.82.367-.184 0-.288-.151-.101-.154-.101-.438 0-.308.077-.682.078-.374.124-.5.02-.053.035-.108.017-.069.17-.102zm-.08 1.08q-.035.192-.035.383 0 .26.205.26.23 0 .517-.276.285-.275.285-.535 0-.107-.056-.18-.057-.072-.157-.072-.136 0-.269.069-.13.067-.293.219-.062.058-.1.091-.036.031-.098.041zm1.734.397q0 .13.036.294.007.031.007.052 0 .03-.057.08t-.12.05q-.168 0-.168-.308 0-.304.133-1.023.048-.262.048-.317 0-.108.04-.184.04-.077.112-.077.088 0 .138.043.051.04.051.093 0 .051-.024.143-.134.49-.165.687-.031.196-.031.467zM23.162 229.755q-.041-.002-.08.08-.357.712-.54.967l-.04.066q-.215.384-.315.384-.134 0-.134-.13 0-.116.167-.318.162-.191.425-.648.264-.458.428-.821.03-.066.093-.066.025 0 .09.024.068.023.087.05.019.028.084.32.212 1.057.447 1.253.055.048.065.065.01.016.01.045 0 .054-.034.098-.034.044-.067.056-.033.012-.135.012-.036 0-.168-.178-.133-.179-.31-.973-.043-.214-.073-.286zM24.773 231.257q-.259 0-.398-.148-.138-.148-.138-.415 0-.45.357-.947.356-.5.663-.5.14 0 .24.152.1.15.1.318 0 .102-.044.176-.043.072-.088.072-.1 0-.141-.201-.047-.217-.134-.217-.18 0-.424.425-.245.426-.245.718 0 .293.333.293.253 0 .596-.237.12-.085.177-.085.059 0 .059.067 0 .131-.309.331-.308.198-.604.198zM26.49 229.207q.023-.015.05-.015.043 0 .072.115 0 .074-.04.188-.116.326-.116.455 0 .034.02.038.397-.381.734-.381.209 0 .35.159.141.156.141.287 0 .4-.408.768-.407.367-.82.367-.184 0-.288-.151-.101-.154-.101-.438 0-.308.077-.682.078-.374.124-.5.02-.053.035-.108.017-.069.17-.102zm-.08 1.08q-.035.192-.035.383 0 .26.205.26.23 0 .517-.276.285-.275.285-.535 0-.107-.056-.18-.057-.072-.157-.072-.136 0-.269.069-.13.067-.293.219-.062.058-.1.091-.036.031-.098.041zm1.734.397q0 .13.036.294.007.031.007.052 0 .03-.057.08t-.12.05q-.168 0-.168-.308 0-.304.133-1.023.048-.262.048-.317 0-.108.04-.184.04-.077.112-.077.088 0 .138.043.051.04.051.093 0 .051-.024.143-.134.49-.165.687-.031.196-.031.467zM30.907 229.65q-.14.224-.393.758-.057.12-.115.233-.02.036-.073.16-.18.42-.315.42-.107 0-.157-.026-.048-.026-.093-.141-.045-.115-.132-.543-.102-.484-.138-.596-.117.264-.209.509-.137.36-.267.587-.129.226-.186.27-.056.047-.108.047-.054 0-.097-.041-.043-.042-.043-.081.01-.071.024-.088.15-.185.259-.393.108-.208.275-.625.17-.417.216-.684.022-.114.167-.114.084 0 .115.026t.06.105q.032.08.037.141.01.074.058.33.043.239.057.339.024.143.085.375.062.233.096.233.024 0 .069-.105l.145-.335q.04-.09.084-.179l.198-.405q.162-.334.248-.484.088-.151.117-.182.031-.031.07-.031.065 0 .146.036.08.035.084.078.003.043.016.36l.022.537q.01.257.03.438.022.179.073.289.081.176.081.272 0 .083-.069.114-.067.03-.125.03-.121 0-.186-.192-.064-.193-.093-1.106-.01-.274-.033-.336zM33.17 230.277v-.155h1.457q-.02-.327-.198-.498-.175-.172-.49-.172-.183 0-.355.045-.17.045-.34.134v-.3q.17-.072.35-.11.18-.038.363-.038.462 0 .73.269.271.269.271.727 0 .474-.256.753-.255.277-.69.277-.389 0-.616-.25-.226-.251-.226-.682zm.317.093q.004.26.145.415.143.155.377.155.265 0 .424-.15.16-.15.184-.422zM36.341 229.755q-.04-.002-.08.08-.357.712-.54.967l-.04.066q-.215.384-.315.384-.134 0-.134-.13 0-.116.167-.318.162-.191.426-.648.263-.458.427-.821.03-.066.093-.066.026 0 .091.024.067.023.086.05.02.028.085.32.212 1.057.446 1.253.055.048.065.065.01.016.01.045 0 .054-.034.098-.034.044-.067.056-.033.012-.134.012-.037 0-.17-.178-.132-.179-.31-.973-.042-.214-.072-.286zM38.956 230.575q0 .176-.312.424-.31.248-.64.248-.278 0-.43-.164-.15-.163-.15-.456 0-.493.333-.937.333-.445.727-.445.13 0 .21.085.083.084.083.203 0 .265-.26.508t-.696.477q-.09.047-.09.12 0 .144.083.23.083.086.245.086.37 0 .756-.41.057-.057.086-.057.055 0 .055.088zm-1.197-.269q.73-.434.73-.697 0-.104-.093-.104-.158 0-.358.233-.198.232-.279.568zM41.514 229.65q-.14.224-.393.758-.056.12-.115.233-.019.036-.072.16-.181.42-.315.42-.107 0-.157-.026-.048-.026-.093-.141-.045-.115-.133-.543-.102-.484-.138-.596-.117.264-.208.509-.138.36-.267.587-.13.226-.186.27-.057.047-.109.047-.053 0-.096-.041-.043-.042-.043-.081.01-.071.024-.088.15-.185.258-.393.109-.208.276-.625.169-.417.215-.684.023-.114.167-.114.085 0 .116.026.03.026.06.105.031.08.036.141.01.074.059.33.043.239.057.339.024.143.084.375.062.233.096.233.025 0 .07-.105l.144-.335q.04-.09.084-.179l.199-.405q.161-.334.248-.484.087-.151.117-.182.03-.031.069-.031.065 0 .146.036.081.035.084.078.004.043.016.36l.022.537q.01.257.031.438.021.179.073.289.08.176.08.272 0 .083-.068.114-.067.03-.126.03-.12 0-.186-.192-.064-.193-.093-1.106-.01-.274-.033-.336zM2.232 238.012l-.004-.037q-.017-.174.107-.365.126-.191.629-.444.32-.162.32-.295 0-.07-.059-.108-.058-.038-.101-.038-.13 0-.496.182-.03.016-.035.016-.141 0-.141-.1 0-.162.28-.269.278-.108.485-.108.129 0 .27.103.142.102.142.274 0 .141-.092.272-.091.131-.456.333-.3.165-.407.272-.105.107-.105.24 0 .1.091.13.092.031.138.031.324 0 .579-.134.088-.045.13-.045.09 0 .09.1 0 .151-.244.253-.245.102-.62.102-.18 0-.333-.102-.153-.103-.168-.264zM4.976 238.279v.764H4.64v-.764l-.78-1.899h.335l.603 1.51.603-1.51h.336zM7.037 236.906q-.04-.002-.08.079-.357.713-.54.968-.015.022-.04.065-.215.385-.315.385-.134 0-.134-.13 0-.117.167-.318.162-.192.426-.648.263-.458.427-.822.03-.065.093-.065.026 0 .091.024.067.022.086.05.02.028.085.32.212 1.056.446 1.253.055.048.065.065.01.016.01.045 0 .053-.034.098-.034.043-.067.055-.033.012-.134.012-.037 0-.17-.177-.132-.18-.31-.973-.042-.214-.072-.286zM9.489 236.304q-.062-.268-.154-.375-.091-.107-.24-.165-.15-.059-.271-.059-.047 0-.138.036-.09.035-.138.064-.067.04-.124.04-.065 0-.065-.07 0-.074.112-.204.112-.131.394-.131h.074q.28 0 .496.148.216.146.305.42.091.274.091.736 0 .313-.198.76-.198.445-.504.675-.305.229-.65.229-.124 0-.232-.143-.109-.143-.109-.355 0-.391.17-.69.173-.299.385-.485.213-.186.589-.3.124-.036.169-.056.045-.021.038-.075zm.046.352q-.398.08-.61.257-.479.447-.479 1.004 0 .074.026.14.026.063.059.063.127 0 .232-.045.106-.045.257-.186.152-.143.274-.353.124-.21.18-.405.056-.194.06-.298.003-.105.001-.177zM11.616 237.726q0 .175-.312.423-.31.248-.64.248-.278 0-.43-.163-.15-.164-.15-.457 0-.492.333-.937.333-.444.727-.444.13 0 .21.084.083.085.083.203 0 .266-.26.509-.26.242-.696.477-.09.046-.09.12 0 .143.083.23.083.086.245.086.37 0 .756-.41.057-.057.086-.057.055 0 .055.088zm-1.197-.27q.73-.433.73-.697 0-.103-.093-.103-.158 0-.358.232-.198.233-.28.569zM12.308 238.11q-.084.31-.158.87l-.048.325q-.012.069-.064.136-.052.07-.095.07-.053 0-.122-.056-.067-.053-.067-.086 0-.095.043-.262.315-1.273.315-2.236l-.002-.144q-.003-.187.066-.27.069-.085.158-.085.042 0 .08.065.037.064.037.183 0 .167-.034.405-.045.3-.047.344.257-.448.545-.7.287-.25.534-.25.174 0 .293.13.12.13.12.322 0 .562-.43 1.02-.431.458-.84.458-.1 0-.161-.051-.059-.052-.123-.188zm1.07-1.387q-.243 0-.601.455t-.358.708q0 .062.07.12.07.059.18.059.246 0 .566-.364.32-.365.32-.716 0-.126-.051-.193-.05-.069-.126-.069zM3.119 243.753q-.254 0-.383.167-.127.165-.158.384H3.66q-.031-.219-.16-.384-.128-.167-.381-.167zm.001 1.488q.257 0 .402-.2.144-.2.144-.454H2.574q0 .255.145.454.145.2.401.2zm.002-1.757q.413 0 .65.269.235.269.235.744 0 .474-.236.744-.236.269-.649.269-.415 0-.651-.269-.234-.27-.234-.744 0-.475.234-.744.236-.269.651-.269zM4.9 245.558q-.259 0-.398-.148-.138-.148-.138-.415 0-.45.357-.948.356-.499.663-.499.14 0 .24.152.1.15.1.318 0 .102-.044.176-.043.072-.088.072-.1 0-.141-.201-.047-.217-.134-.217-.18 0-.424.425-.245.426-.245.718 0 .293.333.293.253 0 .596-.237.12-.085.177-.085.059 0 .059.067 0 .131-.309.331-.308.198-.604.198zM6.772 243.153q-.036 0-.055-.077-.007-.024-.019-.053-.046-.112-.046-.195 0-.069.08-.14.083-.072.183-.072.05 0 .112.04.062.038.062.074 0 .057-.043.193-.041.136-.134.184-.092.047-.14.047zm-.225 1.925q0 .13.036.294.007.031.007.052 0 .03-.057.079-.057.05-.12.05-.168 0-.168-.307 0-.317.131-1.002.045-.24.045-.295 0-.108.04-.184.039-.078.111-.078.088 0 .138.044.052.04.052.093 0 .051-.024.136-.13.454-.16.65-.031.197-.031.468zM9.435 243.951q-.14.224-.393.758-.056.12-.115.233-.019.036-.072.16-.181.42-.316.42-.106 0-.156-.026-.048-.026-.093-.141-.045-.115-.133-.543-.102-.484-.138-.596-.117.264-.208.508-.138.36-.267.588-.13.226-.186.27-.057.047-.109.047-.053 0-.096-.041-.043-.042-.043-.081.01-.071.024-.088.15-.185.258-.393.109-.209.276-.625.169-.417.215-.684.023-.114.167-.114.085 0 .116.026.03.026.06.105.031.08.036.141.01.074.059.33.043.239.057.339.024.143.084.375.062.233.096.233.025 0 .07-.105l.144-.335q.04-.091.084-.179l.199-.405q.161-.334.248-.484.087-.151.117-.182.03-.031.069-.031.065 0 .146.036.081.034.084.077.004.044.016.36l.022.538q.01.257.031.437.021.18.073.29.08.176.08.272 0 .083-.068.114-.067.03-.126.03-.12 0-.186-.192-.064-.193-.093-1.106-.01-.274-.033-.336zM11.633 243.455q-.062-.269-.153-.376-.091-.106-.241-.165-.15-.059-.27-.059-.047 0-.139.037-.09.034-.137.063-.067.04-.124.04-.066 0-.066-.069 0-.074.112-.205.112-.13.395-.13h.074q.28 0 .496.147.215.147.305.42.091.274.091.736 0 .314-.198.76t-.505.675q-.305.23-.65.23-.123 0-.232-.144-.108-.143-.108-.355 0-.39.17-.689.173-.3.384-.485.214-.187.59-.3.124-.036.168-.057.045-.02.038-.074zm.047.351q-.398.081-.61.257-.479.448-.479 1.004 0 .074.026.14.026.063.058.063.128 0 .233-.044.105-.045.257-.186.151-.143.274-.353.124-.21.179-.405.057-.195.06-.298.003-.105.002-.178zM12.737 243.153q-.036 0-.055-.077-.007-.024-.019-.053-.046-.112-.046-.195 0-.069.08-.14.083-.072.183-.072.05 0 .112.04.062.038.062.074 0 .057-.043.193-.041.136-.134.184-.091.047-.14.047zm-.225 1.925q0 .13.036.294.007.031.007.052 0 .03-.057.079-.057.05-.12.05-.168 0-.168-.307 0-.317.131-1.002.045-.24.045-.295 0-.108.04-.184.04-.078.112-.078.087 0 .137.044.052.04.052.093 0 .051-.024.136-.13.454-.16.65-.031.197-.031.468zM13.552 244.554q.408-.07.732-.527.152-.212.265-.3.116-.09.245-.09.052 0 .103.047.052.047.052.11 0 .085-.16.133-.084.026-.159.088-.074.062-.28.296-.162.183-.291.257-.013.007-.013.012 0 .007.016.014.126.067.265.26.204.28.305.354.102.073.233.073l.057-.002q.06-.003.06.053 0 .066-.074.136-.074.071-.245.071-.13 0-.255-.112-.122-.114-.28-.367-.092-.15-.171-.227-.08-.078-.176-.078-.02 0-.127.035-.107.034-.12.067-.013.03-.02.229-.005.196-.005.317 0 .064-.06.114t-.131.05q-.073 0-.114-.044-.041-.04-.041-.086 0-.062.046-.293.083-.42.166-1.386.007-.093.07-.167.064-.076.145-.076.045 0 .074.048.031.048.031.124 0 .06-.02.138-.099.356-.123.729zM16.527 244.097q-.16.003-.686.95-.177.318-.206.348-.03.027-.109.05-.077.022-.129.022-.115 0-.115-.45 0-.253.108-.916.045-.269.045-.384 0-.114.101-.114.192 0 .192.276 0 .129-.064.506-.074.43-.076.524.107-.104.314-.453.293-.48.43-.607.14-.129.288-.129.112 0 .177.15.068.15.081.715.004.141.026.21.023.069.033.069.08 0 .351-.551.145-.291.281-.443.138-.152.305-.152.14 0 .203.145.064.143.092.426.025.286.079.523.055.238.2.305.098.047.098.109 0 .06-.083.124-.083.063-.151.063-.138 0-.247-.168-.108-.17-.163-.73-.025-.226-.047-.321t-.07-.095q-.073 0-.173.138-.098.138-.319.56-.172.329-.261.439-.088.109-.17.109-.075 0-.133-.06-.06-.06-.075-.142-.015-.084-.032-.412-.026-.544-.095-.634zM20.327 244.876q0 .176-.312.424-.31.248-.64.248-.278 0-.43-.164-.15-.163-.15-.456 0-.493.333-.937.332-.445.727-.445.13 0 .21.085.083.084.083.203 0 .265-.26.508t-.696.477q-.09.047-.09.12 0 .144.083.23.083.086.244.086.37 0 .757-.41.056-.057.086-.057.055 0 .055.088zm-1.197-.269q.73-.434.73-.697 0-.104-.093-.104-.158 0-.358.233-.198.232-.28.568zM21.02 245.26q-.085.31-.16.87l-.047.326q-.012.069-.064.136-.052.069-.095.069-.053 0-.122-.055-.067-.054-.067-.087 0-.094.043-.261.315-1.273.315-2.236l-.002-.145q-.003-.186.066-.27.069-.085.158-.085.042 0 .08.066.037.063.037.182 0 .167-.034.405-.045.3-.047.344.257-.447.545-.699.287-.251.534-.251.174 0 .293.13.12.13.12.323 0 .561-.43 1.02-.431.458-.84.458-.101 0-.161-.052-.059-.052-.123-.188zm1.07-1.386q-.244 0-.602.454-.358.455-.358.708 0 .062.07.12.07.06.18.06.246 0 .566-.364.32-.365.32-.717 0-.125-.051-.193-.05-.068-.126-.068zM2.362 250.681h.316v.906l.894-.906h.389l-.737.746.646.92h.244v.75h-.317v-.487h-.096l-.684-.973-.34.345v.628h-.315zM5.563 251.983q-.241.324-.477.486-.236.162-.433.162-.132 0-.229-.112-.096-.112-.096-.287 0-.454.405-.975.404-.524.804-.524.145 0 .215.165.023.055.071.055.138 0 .138.107 0 .054-.017.147-.093.508-.093.716 0 .417.158.5.076.041.076.101 0 .054-.074.107-.074.055-.143.055-.133 0-.219-.182-.086-.183-.086-.52zm-.105-.97q-.228 0-.529.428-.301.425-.301.706 0 .198.13.198.19 0 .526-.382.336-.383.336-.703 0-.246-.162-.246zM7.439 251.207q-.042-.002-.081.079-.357.713-.54.968-.015.022-.039.065-.215.384-.315.384-.135 0-.135-.129 0-.117.168-.318.161-.192.425-.648.264-.458.427-.822.031-.065.093-.065.026 0 .092.024.067.022.086.05.019.027.084.32.212 1.056.446 1.253.055.048.066.065.01.015.01.045 0 .053-.034.098-.035.043-.068.055-.032.012-.134.012-.036 0-.169-.177-.132-.18-.31-.973-.043-.214-.072-.286zM8.979 250.659q.022-.016.05-.016.043 0 .072.116 0 .074-.04.187-.117.326-.117.455 0 .035.021.038.396-.38.734-.38.208 0 .35.158.14.157.14.288 0 .4-.408.768-.406.367-.82.367-.184 0-.287-.152-.102-.153-.102-.437 0-.309.078-.682.077-.374.124-.5.019-.053.034-.109.017-.068.17-.101zm-.081 1.08q-.035.191-.035.382 0 .26.205.26.231 0 .517-.275.286-.276.286-.536 0-.107-.057-.18-.057-.071-.157-.071-.136 0-.268.068-.131.068-.293.22-.062.058-.1.09-.036.032-.098.042zm1.734.396q0 .131.037.295.006.03.006.051 0 .031-.056.081-.057.048-.121.048-.167 0-.167-.306 0-.305.133-1.023.048-.262.048-.317 0-.109.04-.185.04-.077.111-.077.088 0 .138.043.052.041.052.093t-.024.143q-.135.49-.166.687-.03.197-.03.467zM12.37 251.286q-.09 0-.196.117-.105.117-.322.525-.286.548-.37.624-.083.076-.138.076-.203 0-.203-.197 0-.082.027-.234.095-.52.095-1.097 0-.066.055-.145.057-.08.107-.08.09 0 .127.054.038.055.038.222 0 .174-.103.717-.035.18-.035.227 0 .028.014.028.026 0 .24-.412.215-.418.377-.589.162-.17.356-.17.155 0 .252.14.098.142.143.516.048.425.086.53.04.104.124.104.053 0 .134-.038.014-.007.021-.007.074 0 .074.086 0 .076-.102.162-.101.084-.244.084-.147 0-.228-.115-.079-.117-.125-.622-.049-.506-.204-.506zM14.837 251.248q-.16.003-.685.95-.178.318-.207.347-.03.028-.109.05-.077.022-.129.022-.115 0-.115-.45 0-.252.108-.916.045-.268.045-.384 0-.113.102-.113.19 0 .19.275 0 .13-.063.507-.074.43-.076.523.107-.103.314-.453.293-.479.43-.606.14-.13.288-.13.112 0 .178.15.067.15.08.715.004.142.026.21.023.07.033.07.081 0 .352-.552.144-.29.28-.443.138-.151.305-.151.14 0 .203.145.064.143.092.425.026.286.079.524.055.237.2.305.098.046.098.108 0 .06-.083.124-.082.064-.151.064-.138 0-.247-.169-.108-.169-.163-.73-.024-.226-.047-.32-.022-.095-.07-.095-.073 0-.173.137-.098.138-.318.56-.173.33-.262.44-.088.108-.17.108-.075 0-.133-.059-.059-.06-.074-.143-.016-.084-.033-.411-.026-.545-.095-.634zM18.324 251.983q-.242.324-.478.486-.236.162-.432.162-.133 0-.229-.112t-.096-.287q0-.454.404-.975.405-.524.805-.524.144 0 .215.165.022.055.07.055.138 0 .138.107 0 .054-.017.147-.093.508-.093.716 0 .417.159.5.075.041.075.101 0 .054-.074.107-.074.055-.143.055-.132 0-.218-.182-.086-.183-.086-.52zm-.106-.97q-.227 0-.528.428-.302.425-.302.706 0 .198.131.198.19 0 .526-.382.335-.383.335-.703 0-.246-.162-.246zM20.2 251.207q-.042-.002-.082.079-.356.713-.539.968-.015.022-.04.065-.215.384-.315.384-.134 0-.134-.129 0-.117.167-.318.162-.192.426-.648.263-.458.427-.822.03-.065.093-.065.026 0 .091.024.067.022.086.05.02.027.085.32.212 1.056.446 1.253.055.048.065.065.01.015.01.045 0 .053-.034.098-.034.043-.067.055-.033.012-.134.012-.037 0-.17-.177-.132-.18-.31-.973-.042-.214-.072-.286zM21.66 252.61v-.86h-.453v-.294h.453v-.775h1.361v.27h-1.044v.505h.717v.293h-.717v.861zM24.583 251.983q-.24.324-.477.486-.236.162-.432.162-.133 0-.23-.112-.096-.112-.096-.287 0-.454.405-.975.405-.524.804-.524.145 0 .216.165.022.055.07.055.138 0 .138.107 0 .054-.017.147-.093.508-.093.716 0 .417.158.5.076.041.076.101 0 .054-.074.107-.074.055-.143.055-.132 0-.219-.182-.086-.183-.086-.52zm-.105-.97q-.227 0-.529.428-.301.425-.301.706 0 .198.13.198.19 0 .526-.382.336-.383.336-.703 0-.246-.162-.246zM26.76 251.486q.02-.037.06-.433.032-.317.202-.317.14 0 .14.14 0 .033-.024.132-.133.55-.133.922 0 .403.133.522.069.064.069.103 0 .049-.07.088-.07.04-.127.04-.268 0-.268-.83 0-.056-.042-.056-.162 0-.396.02-.234.018-.336.048-.1.029-.124.055-.022.024-.041.132-.017.107-.017.223v.211q0 .185-.17.185-.14 0-.14-.185 0-.12.03-.306.057-.341.114-1.175.007-.108.02-.138.011-.029.061-.063.052-.037.112-.037.124 0 .124.102 0 .016-.04.258-.04.243-.04.378 0 .094.065.094.13 0 .479-.043.348-.045.36-.07zM29.329 251.704q.408-.07.732-.527.152-.212.265-.3.116-.089.245-.089.052 0 .103.046.052.047.052.11 0 .085-.16.133-.085.026-.159.088t-.28.297q-.162.182-.292.256-.012.007-.012.012 0 .007.016.014.126.067.265.26.203.28.305.355.102.072.233.072l.056-.002q.06-.003.06.054 0 .065-.073.136-.075.07-.245.07-.131 0-.255-.112-.122-.113-.28-.367-.092-.15-.171-.227-.08-.077-.176-.077-.02 0-.127.034-.107.035-.121.067-.012.031-.019.23-.005.196-.005.316 0 .064-.06.114t-.131.05q-.073 0-.114-.043-.041-.041-.041-.086 0-.062.046-.293.083-.42.165-1.387.007-.093.071-.167.064-.076.145-.076.045 0 .074.049.03.048.03.124 0 .06-.02.137-.098.357-.122.73zM32.478 252.027q0 .175-.312.423-.31.248-.64.248-.278 0-.43-.163-.15-.164-.15-.457 0-.492.333-.937.332-.444.727-.444.129 0 .21.084.083.085.083.203 0 .266-.26.509-.26.242-.696.477-.09.046-.09.12 0 .143.083.23.082.085.244.085.37 0 .756-.41.057-.056.087-.056.055 0 .055.088zm-1.197-.27q.73-.433.73-.697 0-.103-.093-.103-.159 0-.358.232-.198.233-.28.569zM33.308 252.709q-.258 0-.398-.148-.138-.149-.138-.416 0-.45.357-.947.356-.5.663-.5.14 0 .24.152.101.15.101.319 0 .101-.045.175-.043.073-.088.073-.1 0-.14-.202-.047-.217-.135-.217-.18 0-.424.426-.244.425-.244.718t.332.293q.253 0 .596-.238.12-.084.177-.084.059 0 .059.067 0 .13-.308.33-.309.199-.605.199zM34.975 251.704q.409-.07.733-.527.151-.212.265-.3.115-.089.244-.089.052 0 .104.046.051.047.051.11 0 .085-.16.133-.084.026-.158.088t-.281.297q-.162.182-.291.256-.012.007-.012.012 0 .007.015.014.126.067.266.26.203.28.304.355.102.072.233.072l.057-.002q.06-.003.06.054 0 .065-.074.136-.074.07-.245.07-.13 0-.254-.112-.123-.113-.281-.367-.092-.15-.17-.227-.08-.077-.176-.077-.021 0-.128.034-.107.035-.12.067-.013.031-.02.23-.005.196-.005.316 0 .064-.06.114t-.13.05q-.073 0-.115-.043-.04-.041-.04-.086 0-.062.046-.293.082-.42.165-1.387.007-.093.07-.167.064-.076.145-.076.045 0 .074.049.031.048.031.124 0 .06-.02.137-.098.357-.123.73zM37.204 250.304q-.036 0-.055-.078-.007-.024-.019-.053-.046-.112-.046-.195 0-.068.08-.14.083-.071.183-.071.05 0 .112.04.062.037.062.073 0 .057-.043.193-.041.136-.134.184-.091.047-.14.047zm-.225 1.924q0 .131.036.295.007.03.007.051 0 .031-.057.08-.057.05-.12.05-.168 0-.168-.307 0-.317.131-1.003.045-.24.045-.294 0-.109.04-.185.04-.077.112-.077.087 0 .137.043.052.041.052.093t-.024.136q-.13.455-.16.651-.031.197-.031.467zM38.937 251.486q.02-.037.06-.433.032-.317.202-.317.14 0 .14.14 0 .033-.024.132-.133.55-.133.922 0 .403.133.522.068.064.068.103 0 .049-.07.088-.07.04-.126.04-.269 0-.269-.83 0-.056-.041-.056-.162 0-.396.02-.234.018-.336.048-.1.029-.124.055-.022.024-.041.132-.018.107-.018.223v.211q0 .185-.168.185-.142 0-.142-.185 0-.12.031-.306.057-.341.114-1.175.007-.108.019-.138.012-.029.062-.063.052-.037.112-.037.124 0 .124.102 0 .016-.04.258-.041.243-.041.378 0 .094.065.094.131 0 .48-.043.347-.045.36-.07zM41.056 250.605q-.062-.268-.153-.375-.092-.107-.241-.165-.15-.06-.27-.06-.047 0-.139.037-.09.035-.137.064-.068.04-.125.04-.065 0-.065-.07 0-.074.112-.204.112-.131.394-.131h.075q.28 0 .496.148.215.146.305.42t.09.736q0 .313-.197.76-.198.445-.505.674-.305.23-.65.23-.123 0-.232-.143-.108-.143-.108-.355 0-.391.17-.69.172-.299.384-.485.214-.186.59-.3.123-.036.168-.057.045-.02.038-.074zm.047.352q-.398.08-.61.256-.48.448-.48 1.005 0 .074.027.14.026.063.058.063.128 0 .233-.045.105-.045.257-.186.151-.143.273-.353.124-.21.18-.405.056-.194.06-.298.003-.105.002-.177zM43.183 252.027q0 .175-.311.423-.31.248-.641.248-.278 0-.43-.163-.149-.164-.149-.457 0-.492.332-.937.333-.444.727-.444.13 0 .21.084.083.085.083.203 0 .266-.26.509-.26.242-.696.477-.09.046-.09.12 0 .143.083.23.083.085.245.085.37 0 .756-.41.057-.056.086-.056.055 0 .055.088zm-1.197-.27q.73-.433.73-.697 0-.103-.092-.103-.159 0-.359.232-.198.233-.279.569zM43.876 252.41q-.085.31-.159.87l-.048.326q-.012.069-.064.136-.051.07-.094.07-.054 0-.123-.056-.067-.053-.067-.086 0-.095.043-.262.315-1.273.315-2.236l-.001-.145q-.004-.186.065-.27.07-.084.159-.084.041 0 .079.065.038.064.038.183 0 .167-.035.405-.044.3-.046.344.257-.448.544-.7.288-.25.534-.25.174 0 .293.13.12.13.12.322 0 .562-.43 1.02-.43.458-.839.458-.102 0-.162-.052-.058-.051-.122-.187zm1.07-1.386q-.243 0-.602.455-.358.455-.358.708 0 .062.07.12.071.059.18.059.246 0 .567-.364.32-.365.32-.716 0-.126-.052-.193-.05-.069-.125-.069zM2.362 257.832h.316v.906l.894-.906h.389l-.737.746.646.92h.244v.75h-.317v-.487h-.096l-.684-.973-.34.344v.629h-.315zM4.905 259.847q-.236 0-.39-.18-.153-.178-.153-.442 0-.444.298-.875.3-.432.717-.432.276 0 .446.212.172.212.172.504 0 .448-.355.83-.353.383-.735.383zm-.24-.667q0 .174.073.285.074.11.194.11.257 0 .516-.28.258-.283.258-.628 0-.212-.1-.343-.098-.132-.265-.132-.278 0-.477.34-.199.34-.199.648zM7.363 258.357q-.041-.002-.081.08-.357.712-.54.967-.015.023-.039.066-.215.384-.315.384-.134 0-.134-.13 0-.116.167-.318.162-.191.425-.648.264-.458.427-.821.031-.066.093-.066.026 0 .092.024.067.023.086.05.019.028.084.32.212 1.057.446 1.253.056.048.066.066.01.015.01.044 0 .054-.034.099-.035.043-.067.055-.033.012-.135.012-.036 0-.169-.178-.132-.179-.31-.973-.043-.213-.072-.286zM9.814 257.756q-.062-.269-.153-.376-.091-.106-.241-.165-.15-.059-.27-.059-.047 0-.139.037-.09.034-.137.063-.068.04-.124.04-.066 0-.066-.069 0-.074.112-.205.112-.13.395-.13h.074q.28 0 .496.147.215.147.305.42.091.274.091.736 0 .314-.198.76t-.505.675q-.305.23-.65.23-.123 0-.232-.144-.108-.143-.108-.355 0-.39.17-.689.172-.3.384-.486.214-.186.59-.3.124-.035.168-.056.045-.02.038-.074zm.047.351q-.398.081-.61.257-.479.448-.479 1.004 0 .074.026.14.026.063.058.063.128 0 .233-.044.105-.045.257-.186.151-.143.274-.354.124-.21.179-.404.057-.195.06-.298.003-.105.002-.178zM11.525 259.134q-.241.324-.477.486-.236.162-.433.162-.132 0-.229-.112-.096-.112-.096-.288 0-.453.404-.975.405-.524.805-.524.145 0 .215.166.023.055.07.055.139 0 .139.107 0 .053-.018.146-.093.508-.093.717 0 .416.159.5.076.04.076.1 0 .054-.074.108-.075.055-.143.055-.133 0-.22-.183-.085-.182-.085-.52zm-.105-.97q-.228 0-.53.427-.3.426-.3.707 0 .198.13.198.19 0 .526-.383.336-.382.336-.703 0-.246-.162-.246zM13.702 258.636q.019-.036.06-.432.031-.317.202-.317.14 0 .14.14 0 .032-.025.132-.132.55-.132.922 0 .403.132.521.07.064.07.104 0 .048-.072.088-.068.04-.125.04-.269 0-.269-.831 0-.055-.041-.055-.162 0-.397.019-.234.019-.335.048-.1.03-.124.055-.023.024-.042.133-.017.107-.017.222v.212q0 .184-.169.184-.141 0-.141-.184 0-.12.031-.307.057-.34.114-1.175.007-.108.019-.137.012-.03.062-.064.051-.036.112-.036.124 0 .124.101 0 .016-.04.259-.041.243-.041.377 0 .095.065.095.131 0 .479-.043.348-.045.36-.071zM14.91 257.81q.022-.016.05-.016.042 0 .072.115 0 .074-.04.188-.117.326-.117.455 0 .034.02.038.397-.381.735-.381.208 0 .35.158.14.157.14.288 0 .4-.408.768-.406.367-.82.367-.184 0-.287-.151-.102-.154-.102-.438 0-.308.077-.682.078-.374.124-.5.02-.053.035-.108.017-.069.17-.102zm-.081 1.08q-.035.19-.035.382 0 .26.205.26.23 0 .517-.276.286-.275.286-.535 0-.107-.057-.18-.057-.072-.157-.072-.136 0-.269.069-.13.067-.292.219-.062.058-.1.09-.036.032-.098.042zm1.734.396q0 .13.036.294.007.031.007.052 0 .03-.057.08-.056.049-.12.049-.167 0-.167-.307 0-.305.132-1.023.049-.262.049-.317 0-.108.04-.184.039-.078.111-.078.088 0 .138.043.052.042.052.093 0 .052-.024.143-.135.491-.166.688-.03.196-.03.467zM17.598 259.86q-.258 0-.398-.149-.137-.148-.137-.415 0-.45.356-.948.357-.5.663-.5.14 0 .24.152.101.15.101.32 0 .1-.044.175-.043.072-.088.072-.1 0-.141-.201-.047-.217-.135-.217-.179 0-.424.425-.244.426-.244.718 0 .293.332.293.254 0 .596-.238.12-.084.178-.084.058 0 .058.067 0 .131-.308.331-.308.198-.605.198zM21.17 258.702q.221.036.345.163.124.128.124.312 0 .291-.246.486-.246.193-.648.193-.239 0-.413-.104-.172-.103-.172-.229 0-.103.119-.103.017 0 .053.03.19.163.45.163.229 0 .394-.12.165-.121.165-.314 0-.128-.094-.212-.093-.086-.217-.086-.095 0-.333.074-.046.015-.1.015-.103 0-.103-.14 0-.047.048-.077.05-.029.212-.067.491-.112.491-.398 0-.086-.062-.141-.06-.057-.157-.057-.179 0-.382.159-.119.093-.181.093-.105 0-.105-.099 0-.129.243-.263.244-.136.468-.136.224 0 .352.119.129.119.129.25 0 .311-.38.489zM23.185 259.134q-.242.324-.478.486-.236.162-.432.162-.133 0-.229-.112t-.096-.288q0-.453.404-.975.405-.524.805-.524.144 0 .215.166.022.055.07.055.139 0 .139.107 0 .053-.018.146-.093.508-.093.717 0 .416.159.5.076.04.076.1 0 .054-.075.108-.074.055-.143.055-.132 0-.218-.183-.086-.182-.086-.52zm-.105-.97q-.228 0-.53.427-.3.426-.3.707 0 .198.13.198.19 0 .526-.383.335-.382.335-.703 0-.246-.161-.246zM25.395 258.398q-.16.003-.686.95-.177.318-.207.347-.029.028-.108.05-.078.023-.13.023-.115 0-.115-.45 0-.253.109-.916.045-.269.045-.384 0-.114.101-.114.191 0 .191.276 0 .129-.063.506-.074.43-.076.524.107-.104.313-.453.293-.48.431-.607.14-.129.288-.129.112 0 .177.15.067.15.081.715.003.141.026.21.022.069.033.069.08 0 .351-.551.145-.291.28-.443.139-.152.306-.152.14 0 .203.145.064.143.091.426.026.286.08.523.055.238.2.305.097.047.097.109 0 .06-.082.124-.083.063-.152.063-.138 0-.246-.168-.109-.17-.164-.73-.024-.226-.046-.321-.023-.095-.07-.095-.073 0-.173.138-.098.138-.319.56-.172.329-.262.44-.088.108-.17.108-.074 0-.133-.059-.058-.06-.074-.143-.015-.084-.033-.412-.025-.544-.094-.634zM29.02 258.398q-.16.003-.685.95-.177.318-.207.347-.029.028-.108.05-.078.023-.13.023-.115 0-.115-.45 0-.253.109-.916.044-.269.044-.384 0-.114.102-.114.191 0 .191.276 0 .129-.063.506-.074.43-.076.524.107-.104.313-.453.293-.48.43-.607.14-.129.289-.129.112 0 .177.15.067.15.081.715.003.141.026.21.022.069.033.069.08 0 .351-.551.145-.291.28-.443.139-.152.306-.152.14 0 .203.145.064.143.091.426.026.286.08.523.055.238.2.305.097.047.097.109 0 .06-.082.124-.083.063-.152.063-.138 0-.246-.168-.109-.17-.164-.73-.024-.226-.046-.321-.023-.095-.07-.095-.073 0-.173.138-.098.138-.319.56-.172.329-.262.44-.088.108-.17.108-.074 0-.133-.059-.058-.06-.074-.143-.015-.084-.033-.412-.025-.544-.094-.634zM32.507 259.134q-.241.324-.477.486-.236.162-.432.162-.133 0-.23-.112-.096-.112-.096-.288 0-.453.405-.975.405-.524.804-.524.145 0 .216.166.022.055.07.055.138 0 .138.107 0 .053-.017.146-.093.508-.093.717 0 .416.158.5.076.04.076.1 0 .054-.074.108-.074.055-.143.055-.133 0-.219-.183-.086-.182-.086-.52zm-.105-.97q-.227 0-.529.427-.301.426-.301.707 0 .198.13.198.19 0 .526-.383.336-.382.336-.703 0-.246-.162-.246zM33.749 259.561q-.084.31-.158.87l-.049.326q-.012.068-.063.136-.052.069-.095.069-.054 0-.122-.056-.068-.053-.068-.086 0-.094.043-.261.316-1.273.316-2.236l-.002-.145q-.003-.186.065-.27.07-.085.159-.085.041 0 .08.066.037.063.037.182 0 .167-.034.405-.045.3-.047.345.257-.448.544-.7.288-.251.534-.251.174 0 .293.13.12.13.12.323 0 .561-.43 1.02-.43.458-.839.458-.101 0-.162-.052-.058-.052-.122-.188zm1.07-1.387q-.243 0-.601.455-.359.455-.359.708 0 .062.07.12.071.06.18.06.246 0 .567-.364.32-.365.32-.717 0-.125-.052-.193-.05-.068-.125-.068zM36.097 257.81q.022-.016.05-.016.043 0 .072.115 0 .074-.04.188-.117.326-.117.455 0 .034.021.038.396-.381.734-.381.208 0 .35.158.14.157.14.288 0 .4-.407.768-.407.367-.82.367-.185 0-.288-.151-.102-.154-.102-.438 0-.308.078-.682.077-.374.124-.5.019-.053.034-.108.018-.069.17-.102zm-.081 1.08q-.035.19-.035.382 0 .26.205.26.231 0 .517-.276.286-.275.286-.535 0-.107-.057-.18-.057-.072-.156-.072-.137 0-.27.069-.13.067-.292.219-.062.058-.1.09-.036.032-.098.042zm1.734.396q0 .13.037.294.007.031.007.052 0 .03-.057.08-.057.049-.12.049-.168 0-.168-.307 0-.305.133-1.023.048-.262.048-.317 0-.108.04-.184.04-.078.111-.078.088 0 .138.043.052.042.052.093 0 .052-.024.143-.135.491-.166.688-.03.196-.03.467zM3.722 266.033q-.023.387-.075.76-.025.07-.13.07-.152 0-.152-.155 0-.064.036-.238.026-.151.028-.205.001-.055.008-.119.007-.065-.001-.103-.088.012-.359.21-.27.198-.463.393v-.002q-.012.007-.076.13-.091.182-.201.182-.052 0-.116-.045-.062-.045-.062-.09 0-.106.2-.317.202-.212.444-.361.297-.183.409-.295-.05-.07-.195-.155-.146-.086-.272-.193-.017-.014-.041-.03-.223-.15-.297-.225-.072-.076-.072-.162 0-.057.043-.103.043-.048.084-.048.026 0 .093.027.068.028.097.059l.084.08q.446.437.706.556.014 0 .035-.033.017-.059.017-.188 0-.12-.026-.27-.013-.078-.013-.102 0-.081.062-.13.063-.05.137-.05.085 0 .116.033.03.035.03.118l-.022.547v.035q0 .024.002.04.06 0 .126-.047.065-.048.194-.19.567-.587.657-.587.05 0 .091.041.041.042.041.097 0 .027-.19.234-.187.205-.387.377-.256.22-.256.23 0 .011.213.179.231.18.319.256.012.01.034.023.255.156.32.234.063.077.063.13 0 .05-.043.104-.043.052-.085.052-.153 0-.711-.515-.248-.231-.3-.243-.022-.003-.034-.01-.017-.004-.062-.001-.045.002-.048.014zM6.493 266.19q-.241.323-.477.485-.236.162-.432.162-.133 0-.23-.112-.096-.112-.096-.287 0-.453.405-.975.405-.524.804-.524.145 0 .216.165.022.055.07.055.138 0 .138.107 0 .054-.017.147-.093.508-.093.716 0 .417.158.5.076.041.076.101 0 .054-.074.107-.074.055-.143.055-.133 0-.219-.182-.086-.183-.086-.52zm-.105-.97q-.227 0-.529.427-.301.425-.301.706 0 .198.13.198.19 0 .526-.382.336-.383.336-.703 0-.246-.162-.246zM8.67 265.692q.02-.037.06-.433.032-.317.202-.317.14 0 .14.14 0 .033-.024.133-.133.549-.133.921 0 .403.133.522.069.064.069.103 0 .049-.071.088-.069.04-.126.04-.269 0-.269-.83 0-.056-.04-.056-.163 0-.397.02-.234.018-.336.048-.1.029-.124.055-.022.024-.041.132-.018.107-.018.223v.212q0 .184-.168.184-.142 0-.142-.184 0-.121.031-.307.057-.341.114-1.175.007-.108.019-.138.012-.029.062-.063.052-.037.112-.037.124 0 .124.102 0 .016-.04.258-.04.243-.04.378 0 .094.065.094.13 0 .478-.043.348-.045.36-.07zM9.878 264.865q.022-.016.05-.016.043 0 .072.116 0 .074-.04.188-.117.325-.117.454 0 .035.021.038.396-.38.734-.38.208 0 .35.158.14.157.14.288 0 .4-.407.768-.407.367-.82.367-.185 0-.288-.152-.102-.153-.102-.437 0-.309.078-.682.077-.374.124-.5.019-.053.034-.109.018-.068.17-.101zm-.081 1.08q-.034.191-.034.382 0 .26.204.26.231 0 .517-.275.286-.276.286-.536 0-.107-.057-.18-.056-.071-.156-.071-.136 0-.27.069-.13.067-.292.218-.062.059-.1.092-.036.03-.098.04zm1.735.396q0 .131.036.295.007.03.007.051 0 .031-.057.081-.057.049-.12.049-.168 0-.168-.307 0-.305.133-1.023.048-.262.048-.317 0-.109.04-.185.04-.077.112-.077.087 0 .137.043.052.041.052.093t-.024.143q-.134.491-.165.687-.031.197-.031.467zM13.37 266.208q-.262.247-.524.386-.262.14-.401.14-.16 0-.257-.136-.095-.138-.095-.338 0-.291.11-.687.112-.398.17-.451.06-.054.156-.054.052 0 .08.062.03.06.03.124 0 .043-.04.112-.225.391-.225.808 0 .096.036.17.036.073.11.073.095 0 .233-.057.14-.059.313-.19.174-.13.235-.211.06-.081.084-.185.026-.103.036-.448.01-.344.167-.344.093 0 .12.05.028.048.028.186 0 .103-.03.448-.007.077-.01.143-.05.92-.275 1.442-.225.522-.656.522-.338 0-.601-.178-.262-.176-.262-.298 0-.057.026-.112.027-.055.069-.055.02 0 .044.033.226.346.695.346.298 0 .446-.365.148-.364.188-.936zM15.342 266.19q-.241.323-.477.485-.236.162-.433.162-.132 0-.229-.112-.096-.112-.096-.287 0-.453.405-.975.404-.524.804-.524.145 0 .215.165.023.055.07.055.139 0 .139.107 0 .054-.017.147-.093.508-.093.716 0 .417.158.5.076.041.076.101 0 .054-.074.107-.074.055-.143.055-.133 0-.219-.182-.086-.183-.086-.52zm-.105-.97q-.228 0-.53.427-.3.425-.3.706 0 .198.13.198.19 0 .526-.382.336-.383.336-.703 0-.246-.162-.246zM16.584 266.617q-.085.31-.159.87l-.048.325q-.012.069-.064.136-.051.07-.094.07-.054 0-.123-.056-.067-.053-.067-.086 0-.095.043-.262.315-1.273.315-2.236l-.001-.144q-.004-.187.065-.27.07-.085.159-.085.041 0 .079.065.038.064.038.183 0 .167-.035.405-.044.3-.046.344.256-.448.544-.7.288-.25.534-.25.174 0 .293.13.12.13.12.322 0 .562-.43 1.02-.43.458-.839.458-.102 0-.162-.052-.058-.051-.122-.187zm1.07-1.387q-.243 0-.602.455-.358.455-.358.708 0 .062.07.12.071.059.18.059.246 0 .567-.364.32-.365.32-.716 0-.126-.052-.193-.05-.069-.126-.069zM19.498 265.413q-.041-.002-.08.079-.357.713-.54.968-.015.022-.04.065-.215.385-.315.385-.134 0-.134-.13 0-.117.167-.318.162-.192.426-.648.263-.458.427-.822.03-.065.093-.065.026 0 .091.024.067.022.086.05.02.028.085.32.212 1.056.446 1.253.055.048.065.065.01.016.01.045 0 .053-.034.098-.034.043-.067.055-.033.012-.134.012-.037 0-.17-.177-.132-.18-.31-.973-.042-.214-.072-.286zM21.8 266.19q-.241.323-.477.485-.236.162-.433.162-.132 0-.229-.112-.096-.112-.096-.287 0-.453.404-.975.405-.524.805-.524.145 0 .215.165.023.055.07.055.139 0 .139.107 0 .054-.018.147-.093.508-.093.716 0 .417.159.5.076.041.076.101 0 .054-.074.107-.075.055-.143.055-.133 0-.22-.182-.085-.183-.085-.52zm-.105-.97q-.228 0-.53.427-.3.425-.3.706 0 .198.13.198.19 0 .526-.382.336-.383.336-.703 0-.246-.162-.246zM23.042 266.617q-.085.31-.159.87l-.048.325q-.012.069-.064.136-.051.07-.095.07-.053 0-.122-.056-.067-.053-.067-.086 0-.095.043-.262.315-1.273.315-2.236l-.001-.144q-.004-.187.065-.27.069-.085.158-.085.042 0 .08.065.038.064.038.183 0 .167-.035.405-.045.3-.046.344.256-.448.544-.7.288-.25.534-.25.174 0 .293.13.12.13.12.322 0 .562-.43 1.02-.43.458-.84.458-.1 0-.161-.052-.059-.051-.122-.187zm1.07-1.387q-.244 0-.602.455t-.358.708q0 .062.07.12.071.059.18.059.246 0 .566-.364.32-.365.32-.716 0-.126-.05-.193-.05-.069-.127-.069zM3.119 272.26q-.254 0-.383.167-.127.165-.158.384H3.66q-.031-.219-.16-.384-.128-.167-.381-.167zm.001 1.488q.257 0 .402-.2.144-.2.144-.454H2.574q0 .255.145.454.145.2.401.2zm.002-1.757q.413 0 .65.269.235.269.235.744 0 .474-.236.744-.236.269-.649.269-.415 0-.651-.269-.234-.27-.234-.744 0-.475.234-.744.236-.269.651-.269zM5.697 272.842q.02-.036.06-.432.032-.317.202-.317.14 0 .14.14 0 .032-.024.132-.133.55-.133.922 0 .403.133.521.068.064.068.104 0 .048-.07.088-.07.04-.126.04-.269 0-.269-.83 0-.056-.041-.056-.162 0-.396.019t-.336.048q-.1.03-.124.055-.022.024-.041.133-.018.107-.018.222v.212q0 .184-.168.184-.142 0-.142-.184 0-.12.031-.307.057-.34.114-1.174.007-.109.019-.138.012-.03.062-.064.052-.036.112-.036.124 0 .124.101 0 .016-.04.259-.041.243-.041.377 0 .095.065.095.131 0 .48-.043.347-.045.36-.071zM7.98 273.383q0 .176-.312.424-.31.248-.64.248-.278 0-.43-.164-.15-.163-.15-.456 0-.493.333-.937.332-.445.727-.445.129 0 .21.085.083.084.083.203 0 .265-.26.508t-.696.477q-.09.047-.09.12 0 .144.083.23.082.086.244.086.37 0 .756-.41.057-.057.087-.057.055 0 .055.088zm-1.198-.269q.73-.434.73-.697 0-.104-.092-.104-.159 0-.358.233-.199.232-.28.568zM8.672 273.767q-.084.31-.158.87l-.049.326q-.012.068-.063.136-.052.069-.095.069-.053 0-.122-.056-.068-.053-.068-.086 0-.094.044-.261.315-1.273.315-2.236l-.002-.145q-.003-.186.066-.27.068-.085.158-.085.041 0 .08.066.037.063.037.182 0 .167-.034.405-.045.3-.047.345.257-.448.544-.7.288-.251.534-.251.174 0 .293.13.12.13.12.323 0 .561-.43 1.02-.43.458-.839.458-.101 0-.162-.052-.058-.052-.122-.188zm1.07-1.387q-.243 0-.601.455-.359.455-.359.708 0 .062.071.12.07.06.18.06.245 0 .566-.364.32-.365.32-.717 0-.125-.051-.193-.05-.068-.126-.068zM13.044 272.177q-.065-.177-.303-.384-.224-.193-.224-.33 0-.11.072-.178.073-.069.269-.124.245-.067.498-.152.253-.086.305-.11.032-.015.067-.015.057 0 .057.101 0 .057-.138.155t-.488.183q-.22.055-.27.083-.048.025-.048.053 0 .062.134.18.506.442.506 1.11 0 .288-.151.617-.152.327-.405.487-.251.16-.493.16-.217 0-.329-.211-.112-.212-.112-.467 0-.451.278-.851.279-.4.589-.4.041 0 .103.054.057.051.083.04zm-.751 1.165q0 .19.05.3.052.108.134.108.11 0 .298-.136t.302-.403q.115-.267.115-.5 0-.193-.055-.312-.053-.12-.1-.12-.307 0-.525.374-.22.373-.22.689zM14.405 271.66q-.036 0-.055-.077-.007-.024-.02-.053-.046-.112-.046-.195 0-.069.081-.14.083-.072.183-.072.05 0 .112.04.062.038.062.074 0 .057-.043.193-.042.136-.135.184-.091.047-.14.047zm-.226 1.925q0 .13.036.294.007.031.007.052 0 .03-.057.079-.057.05-.12.05-.167 0-.167-.307 0-.317.13-1.002.045-.24.045-.295 0-.108.04-.184.04-.077.112-.077.088 0 .138.043.051.04.051.093 0 .051-.024.136-.129.454-.16.65-.03.197-.03.468zM15.836 272.563q-.041-.002-.08.08-.357.712-.54.967l-.04.066q-.215.384-.315.384-.134 0-.134-.13 0-.116.167-.318.162-.191.425-.648.264-.458.428-.821.03-.066.093-.066.025 0 .09.024.068.023.087.05.019.028.084.32.212 1.057.447 1.253.055.048.065.066.01.015.01.044 0 .054-.034.099-.034.043-.067.055-.033.012-.135.012-.036 0-.168-.178-.133-.179-.31-.973-.043-.213-.073-.286zM17.531 271.66q-.036 0-.055-.077-.007-.024-.019-.053-.046-.112-.046-.195 0-.069.08-.14.083-.072.183-.072.05 0 .112.04.062.038.062.074 0 .057-.043.193-.041.136-.134.184-.092.047-.14.047zm-.225 1.925q0 .13.036.294.007.031.007.052 0 .03-.057.079-.057.05-.12.05-.168 0-.168-.307 0-.317.131-1.002.045-.24.045-.295 0-.108.04-.184.04-.077.111-.077.088 0 .138.043.052.04.052.093 0 .051-.024.136-.13.454-.16.65-.031.197-.031.468zM20.194 272.458q-.14.224-.392.758-.057.12-.116.232-.019.037-.072.16-.181.421-.315.421-.107 0-.157-.026-.048-.026-.093-.141-.045-.115-.133-.543-.102-.484-.138-.596-.117.264-.208.508-.138.36-.267.588-.13.226-.186.27-.057.047-.109.047-.053 0-.096-.041-.043-.042-.043-.081.01-.071.024-.088.15-.185.258-.393.109-.209.276-.625.169-.417.215-.684.023-.114.167-.114.085 0 .116.026.03.026.06.105.031.08.036.141.01.074.059.33.043.239.057.339.024.142.084.375.062.233.096.233.025 0 .07-.106l.144-.334q.04-.091.084-.179l.199-.405q.161-.334.248-.484.087-.151.117-.182.03-.031.069-.031.065 0 .146.036.081.034.084.077.004.044.016.36l.022.538q.01.257.031.437.021.18.073.29.08.176.08.272 0 .083-.068.114-.067.03-.126.03-.12 0-.186-.192-.064-.193-.093-1.106-.01-.274-.033-.336zM22.962 274.065q-.258 0-.398-.148-.137-.148-.137-.415 0-.45.356-.948.357-.5.663-.5.14 0 .24.153.101.15.101.318 0 .102-.044.176-.043.072-.088.072-.1 0-.141-.201-.047-.217-.135-.217-.179 0-.424.425-.244.426-.244.718 0 .293.332.293.254 0 .596-.237.12-.085.178-.085.058 0 .058.067 0 .131-.308.331-.308.198-.605.198zM25.453 272.642q-.09 0-.196.117-.105.118-.322.526-.286.548-.37.623-.083.076-.138.076-.204 0-.204-.196 0-.083.028-.234.095-.52.095-1.098 0-.065.055-.144.057-.081.107-.081.09 0 .127.055.038.055.038.222 0 .174-.103.716-.035.18-.035.228 0 .027.014.027.026 0 .24-.411.215-.419.377-.59.161-.17.356-.17.155 0 .252.141.098.142.143.515.048.426.086.531.04.103.124.103.053 0 .134-.038.014-.007.02-.007.075 0 .075.087 0 .075-.102.161-.101.085-.244.085-.147 0-.228-.116-.079-.117-.126-.621-.048-.507-.203-.507zM27.122 274.053q-.236 0-.389-.18-.153-.178-.153-.442 0-.444.298-.875.3-.432.716-.432.276 0 .446.212.173.212.173.504 0 .448-.355.83-.353.383-.736.383zm-.24-.667q0 .174.073.285.074.11.195.11.257 0 .515-.28.258-.283.258-.628 0-.212-.1-.343-.098-.132-.265-.132-.277 0-.477.34-.198.34-.198.648zM28.947 273.767q-.085.31-.159.87l-.048.326q-.012.068-.064.136-.052.069-.095.069-.053 0-.122-.056-.067-.053-.067-.086 0-.094.043-.261.315-1.273.315-2.236l-.002-.145q-.003-.186.066-.27.069-.085.158-.085.042 0 .08.066.038.063.038.182 0 .167-.035.405-.045.3-.046.345.256-.448.544-.7.288-.251.534-.251.174 0 .293.13.12.13.12.323 0 .561-.43 1.02-.431.458-.84.458-.1 0-.161-.052-.059-.052-.122-.188zm1.07-1.387q-.244 0-.602.455t-.358.708q0 .062.07.12.071.06.18.06.246 0 .566-.364.32-.365.32-.717 0-.125-.051-.193-.05-.068-.126-.068zM32.195 272.604q-.16.003-.685.95-.178.318-.207.348-.03.027-.109.05-.077.022-.129.022-.115 0-.115-.45 0-.253.108-.916.045-.269.045-.384 0-.114.102-.114.191 0 .191.276 0 .129-.064.506-.074.43-.076.524.107-.104.314-.453.293-.48.43-.607.14-.129.288-.129.112 0 .178.15.067.15.08.715.004.141.026.21.023.069.033.069.081 0 .352-.551.144-.291.28-.443.138-.151.305-.151.14 0 .204.144.063.143.09.426.027.286.08.523.055.238.2.305.098.047.098.109 0 .06-.083.124-.082.063-.151.063-.138 0-.246-.168-.109-.17-.164-.73-.024-.226-.047-.321-.022-.095-.07-.095-.073 0-.173.138-.098.138-.318.56-.172.329-.262.44-.088.108-.17.108-.075 0-.133-.059-.059-.06-.074-.143-.016-.084-.033-.412-.026-.544-.095-.634zM3.432 280.396q-.241.323-.477.485-.236.162-.432.162-.133 0-.23-.112-.096-.112-.096-.287 0-.453.405-.975.405-.524.804-.524.145 0 .216.165.022.055.07.055.138 0 .138.107 0 .054-.017.147-.093.508-.093.716 0 .417.158.5.076.041.076.101 0 .054-.074.107-.074.055-.143.055-.133 0-.219-.182-.086-.183-.086-.52zm-.105-.97q-.227 0-.529.427-.301.425-.301.706 0 .198.13.198.19 0 .526-.382.336-.383.336-.703 0-.246-.162-.246zM4.69 280.339q.017-.031.04-.086.118-.27.216-.42.098-.154.216-.294.118-.14.215-.211.098-.073.177-.1.08-.03.154-.03.15 0 .244.092.095.09.095.21 0 .053-.034.096-.033.043-.102.043-.072 0-.133-.063-.062-.064-.129-.064-.18 0-.496.434-.317.434-.386.956-.017.134-.065.178-.049.043-.136.043-.085 0-.123-.126-.038-.126-.038-.424 0-.08.009-.356.01-.326.041-.526.006-.033.018-.153.012-.133.029-.184.019-.052.074-.097.057-.045.122-.045.064 0 .095.042.033.04.033.086 0 .067-.035.19-.04.135-.046.187-.005.059-.02.122-.016.074-.034.39l-.001.063zM6.994 279.284q.178-.013.335-.032.155-.017.258-.017.13 0 .165.024t.035.084q0 .14-.195.152-.25.015-.46.043-.21.027-.227.046-.016.017-.104.41-.087.391-.087.508 0 .19.05.254.05.062.15.062.148 0 .411-.223.102-.09.157-.09.074 0 .074.078 0 .124-.24.322-.237.197-.487.197-.417 0-.417-.491 0-.178.086-.55.085-.37.085-.444 0-.026-.042-.026l-.179.016q-.22 0-.22-.176 0-.1.101-.1h.355q.036 0 .064-.033.027-.032.08-.218.054-.188.096-.37.041-.182.162-.182.074 0 .115.052.041.052.041.097 0 .024-.062.246zM10.832 280.439q0 .175-.312.423-.31.248-.64.248-.278 0-.43-.163-.15-.164-.15-.457 0-.492.333-.937.333-.444.727-.444.13 0 .21.084.083.085.083.203 0 .266-.26.509-.26.242-.696.477-.09.046-.09.12 0 .143.083.23.083.085.245.085.37 0 .756-.41.057-.056.086-.056.055 0 .055.088zm-1.197-.27q.73-.433.73-.697 0-.103-.093-.103-.158 0-.358.232-.198.233-.279.569zM12.427 280.31q-.23.37-.489.571-.258.2-.475.2-.167 0-.266-.127-.096-.13-.096-.343 0-.436.353-.894.355-.458.765-.458.179 0 .332.153l.241-1.127q.026-.115.095-.155.07-.04.11-.04.121 0 .121.214 0 .038-.08.283-.125.379-.239.932-.112.551-.112.885 0 .345.15.345.097 0 .2-.064.043-.031.081-.031.055 0 .055.072 0 .088-.155.204-.153.115-.315.115-.284 0-.284-.548 0-.093.008-.188zm-.225-.807q-.28 0-.553.38-.274.376-.274.697 0 .215.143.215.134 0 .325-.141.193-.141.397-.45.203-.31.203-.465 0-.076-.07-.155-.07-.08-.171-.08zM14.74 280.273q-.22.37-.45.574-.231.203-.43.203-.113 0-.232-.133-.117-.132-.117-.408 0-.225.108-.665.092-.367.092-.515.05-.103.156-.103.073 0 .116.052.043.05.043.105 0 .12-.085.342-.16.433-.16.743 0 .282.131.282.167 0 .426-.284.258-.284.442-.792.073-.203.117-.264.047-.062.124-.062.118 0 .118.155 0 .02-.033.126-.104.377-.104.713 0 .403.133.522.069.064.069.103 0 .049-.07.088-.07.04-.126.04-.12 0-.195-.18-.074-.178-.074-.528v-.057l.002-.057zM16.146 281.12q-.258 0-.398-.147-.137-.149-.137-.416 0-.45.356-.947.357-.5.663-.5.14 0 .24.152.101.15.101.319 0 .101-.044.175-.043.073-.088.073-.1 0-.142-.202-.046-.217-.134-.217-.179 0-.424.426-.244.425-.244.718t.332.293q.253 0 .596-.238.12-.084.178-.084.058 0 .058.067 0 .13-.308.33-.308.199-.605.199zM18.625 280.396q-.241.323-.477.485-.236.162-.432.162-.133 0-.23-.112-.096-.112-.096-.287 0-.453.405-.975.405-.524.804-.524.145 0 .215.165.023.055.071.055.138 0 .138.107 0 .054-.017.147-.093.508-.093.716 0 .417.158.5.076.041.076.101 0 .054-.074.107-.074.055-.143.055-.133 0-.219-.182-.086-.183-.086-.52zm-.105-.97q-.227 0-.529.427-.301.425-.301.706 0 .198.13.198.19 0 .526-.382.336-.383.336-.703 0-.246-.162-.246zM20.236 279.284q.177-.013.334-.032.155-.017.258-.017.131 0 .166.024.034.024.034.084 0 .14-.195.152-.25.015-.46.043-.21.027-.227.046-.015.017-.103.41-.088.391-.088.508 0 .19.05.254.05.062.15.062.148 0 .411-.223.102-.09.157-.09.074 0 .074.078 0 .124-.24.322-.237.197-.487.197-.417 0-.417-.491 0-.178.087-.55.084-.37.084-.444 0-.026-.041-.026l-.18.016q-.22 0-.22-.176 0-.1.102-.1h.354q.037 0 .064-.033.028-.032.081-.218.053-.188.095-.37.041-.182.162-.182.074 0 .115.052.042.052.042.097 0 .024-.063.246zM21.743 278.716q-.036 0-.055-.077-.007-.025-.02-.054-.046-.112-.046-.195 0-.068.081-.139.083-.072.183-.072.05 0 .112.04.062.037.062.073 0 .057-.043.193-.042.136-.135.184-.09.047-.14.047zm-.226 1.924q0 .131.036.295.007.03.007.051 0 .031-.057.08-.056.05-.12.05-.167 0-.167-.307 0-.317.13-1.003.045-.239.045-.294 0-.109.04-.184.04-.078.112-.078.088 0 .138.043.052.041.052.093t-.025.136q-.129.455-.16.651-.03.197-.03.467zM22.71 281.109q-.235 0-.388-.18-.154-.179-.154-.442 0-.445.298-.875.3-.433.717-.433.275 0 .446.212.172.212.172.505 0 .448-.355.83-.353.383-.735.383zm-.239-.667q0 .174.073.284.074.11.194.11.257 0 .516-.28.258-.283.258-.627 0-.212-.1-.343-.098-.133-.265-.133-.278 0-.477.341-.199.34-.199.648zM25.376 279.698q-.09 0-.197.117-.105.117-.322.525-.286.548-.37.624-.083.076-.138.076-.203 0-.203-.197 0-.082.027-.234.095-.52.095-1.097 0-.066.055-.145.057-.08.107-.08.09 0 .127.054.038.055.038.222 0 .174-.103.717-.034.18-.034.227 0 .028.013.028.026 0 .24-.412.215-.418.377-.589.162-.17.357-.17.155 0 .251.14.098.142.143.516.048.425.086.53.04.104.124.104.054 0 .135-.038.013-.007.02-.007.074 0 .074.086 0 .076-.101.162-.102.084-.245.084-.146 0-.227-.115-.08-.117-.126-.622-.048-.506-.203-.506zM28.82 280.628q0-.112-.277-.255-.35-.179-.473-.286-.123-.108-.123-.241 0-.343.343-.568.345-.226.562-.226.14 0 .201.048.064.048.064.167 0 .054-.046.092-.045.037-.071.037-.019 0-.074-.025-.055-.024-.073-.024-.086 0-.35.125-.263.126-.263.284 0 .097.093.176.093.078.334.191.195.093.31.2.118.105.118.248 0 .264-.364.414-.363.148-.694.148-.28 0-.28-.19 0-.065.063-.096.064-.031.127-.031.026 0 .099.017.07.017.093.017.19 0 .41-.063.218-.064.27-.159zM29.782 280.823q-.084.31-.159.87l-.048.325q-.012.07-.063.136-.052.07-.095.07-.054 0-.123-.056-.067-.053-.067-.086 0-.095.043-.262.316-1.273.316-2.236l-.002-.144q-.004-.186.065-.27.07-.085.159-.085.041 0 .08.065.037.064.037.183 0 .167-.034.405-.045.3-.047.344.257-.448.544-.7.288-.25.534-.25.174 0 .293.13.12.13.12.322 0 .562-.43 1.02-.43.458-.839.458-.101 0-.162-.051-.058-.052-.122-.188zm1.07-1.387q-.243 0-.602.455-.358.455-.358.708 0 .062.07.12.071.059.18.059.246 0 .567-.363.32-.366.32-.717 0-.126-.052-.193-.05-.069-.125-.069zM32.233 281.109q-.236 0-.39-.18-.152-.179-.152-.442 0-.445.298-.875.3-.433.716-.433.276 0 .446.212.173.212.173.505 0 .448-.355.83-.353.383-.736.383zm-.24-.667q0 .174.073.284.074.11.195.11.256 0 .515-.28.258-.283.258-.627 0-.212-.1-.343-.098-.133-.265-.133-.277 0-.477.341-.198.34-.198.648zM34.073 280.339q.017-.031.041-.086.117-.27.215-.42.099-.154.216-.294.119-.14.215-.211.098-.073.178-.1.079-.03.153-.03.15 0 .244.092.095.09.095.21 0 .053-.034.096-.033.043-.102.043-.072 0-.133-.063-.062-.064-.129-.064-.179 0-.496.434t-.386.956q-.017.134-.065.178-.048.043-.136.043-.085 0-.123-.126-.037-.126-.037-.424 0-.08.008-.356.01-.326.042-.526.005-.033.017-.153.012-.133.029-.184.019-.052.074-.097.057-.045.122-.045.064 0 .095.042.033.04.033.086 0 .067-.035.19-.04.135-.046.187-.005.059-.019.122-.017.074-.034.39l-.002.063zM36.378 279.284q.177-.013.334-.032.155-.017.258-.017.131 0 .166.024.034.024.034.084 0 .14-.195.152-.25.015-.46.043-.21.027-.227.046-.015.017-.103.41-.088.391-.088.508 0 .19.05.254.05.062.15.062.148 0 .411-.223.102-.09.157-.09.074 0 .074.078 0 .124-.24.322-.237.197-.487.197-.417 0-.417-.491 0-.178.086-.55.085-.37.085-.444 0-.026-.041-.026l-.18.016q-.22 0-.22-.176 0-.1.102-.1h.354q.037 0 .064-.033.028-.032.081-.218.054-.188.095-.37t.162-.182q.074 0 .115.052.042.052.042.097 0 .024-.062.246zM38.197 280.628q0-.112-.276-.255-.35-.179-.474-.286-.122-.108-.122-.241 0-.343.343-.568.344-.226.561-.226.14 0 .202.048.064.048.064.167 0 .054-.047.092-.045.037-.07.037-.02 0-.075-.025-.055-.024-.072-.024-.086 0-.35.125-.263.126-.263.284 0 .097.093.176.093.078.334.191.195.093.31.2.117.105.117.248 0 .264-.363.414-.364.148-.694.148-.28 0-.28-.19 0-.065.063-.096t.127-.031q.026 0 .098.017.07.017.093.017.191 0 .41-.063.219-.064.27-.159zM4.426 285.33l.303.083-.275.359h.73v.261h-1.24v.29h1.13v.262h-1.13v.289H5.28v.248H2.331v-.248h1.323v-.29h-1.13v-.261h1.13v-.29H2.4v-.261h.758l-.234-.304.234-.151.345.455h.634zm-2.191 2.109h1.392l.069-.262.275.041-.055.221h1.46v.248h-1.24q.345.386 1.24.537l-.137.276q-1.02-.234-1.42-.813-.302.606-1.474.786l-.124-.262q.965-.138 1.268-.524H2.235zM6.328 285.33l.234.125q-.248.55-.648.895l-.165-.22q.386-.358.579-.8zm.069.772l.234.124-.276.552v1.722h-.262v-1.35l-.22.248-.165-.235q.468-.496.689-1.06zm1.626-.578h.84v.261h-.84zm-.083.895h.992v.262h-.234v1.447q0 .22-.083.276-.082.069-.51.069l-.04-.262.26.014q.111 0 .111-.138v-1.406H7.94zm-1.268-.358h.469v-.717h.248v.717h.44v.248h-.44v.18l.565.757-.193.276-.372-.703v1.681H7.14v-1.598q-.207.675-.469 1.006l-.206-.193q.385-.496.565-1.406h-.359zm.992-.675l.18.413-.22.097-.166-.414zM9.676 286.681h.193l.303-.303h-.881v-.234h.62v-.304h-.483v-.234h.483v-.29h.261v.29h.414v.234h-.414v.304h.207l.455-.607.234.124-.358.483h.234v.234h-.427l-.262.303h.482v.248l-.427.414v.165l.607-.138.041.248-.648.152v.427q0 .276-.386.276l-.275-.042-.042-.262q.11.042.262.042.152 0 .152-.055v-.331l-.675.124-.055-.276.73-.11v-.358l.372-.303h-.386l-.62.496-.152-.22.441-.332zm1.778-.772h.923v.262h-.151q-.083.965-.386 1.46.248.332.634.607l-.207.262q-.317-.262-.592-.62-.276.372-.676.634l-.193-.248q.414-.248.69-.648l-.359-.744-.11.234-.22-.165q.344-.73.495-1.612l.276.082zm.496.262h-.565l-.096.317q.165.496.372.855.179-.386.262-.938v-.013zM15.52 286.736v1.447q0 .317-.414.317l-.427-.041-.07-.248.483.041q.18 0 .18-.124v-.193h-1.765v.565h-.275v-1.764zm-2.013.496h1.764v-.248h-1.764zm0 .469h1.764v-.234h-1.764zm.965-2.398l.152.303h1.24v.262h-1.737q-.234.317-.482.482l1.46-.151-.15-.124.234-.166.592.552-.22.179-.22-.235q-1.02.138-2.164.193l-.07-.22q.4-.18.703-.51h-.909v-.262h1.406l-.124-.22zM19.392 288.21l-.276.221q-.606-.73-1.047-1.102-.51.62-1.406 1.075l-.22-.276q1.502-.717 1.984-2.095l-.028-.013-1.033.027h-.538v-.33h1.71l.068-.056q.276.193.276.235 0 .041-.055.096-.042.041-.056.097l-.289.634-.22.358q.565.455 1.13 1.13zM22.272 285.606q0-.151.11-.262.11-.11.262-.11.151 0 .248.11.11.11.11.262 0 .152-.11.262-.097.097-.248.097-.152 0-.262-.097-.11-.11-.11-.262zm.206 0q0 .166.166.166.165 0 .165-.166 0-.165-.165-.165-.166 0-.166.165zm.4.717h-1.282v1.695q-.013.372-.427.372l-.33-.041-.042-.345.372.055q.11 0 .11-.138v-1.598h-1.267v-.33l1.254.013v-.551h.33v.55h1.282zm.096 1.612l-.275.193q-.496-.758-.758-1.543l.303-.11q.248.73.73 1.46zm-2.108-1.323q-.207.896-.661 1.53l-.29-.18q.414-.564.648-1.446zM26.24 287.108h-2.549v-.4h2.55zM28.748 286.598l-.289.166-.524-.979.276-.165zm1.172-.744q-.166 1.227-.579 1.75-.413.51-1.475.827l-.165-.317q.923-.234 1.31-.675.399-.441.578-1.64zm-2.026 1.034l-.29.179-.537-.978.276-.166zM31.446 292.653h.317v2.68h-.317zM30.781 294.695q0 .306-.15.48-.138.159-.403.159h-.224v-.317h.13q.17 0 .246-.076.084-.085.084-.267v-2.02h.317z"/><path d="M29.18 294.386h.318q.051.193.057.245.017.177.143.31.072.076.246.076h.13v.317h-.225q-.224 0-.31-.107-.117.479-.55.708-.489.26-1.043.26v-.317q.523 0 .873-.22.376-.238.436-.597.017-.1.017-.223 0-.218-.091-.452z"/><path d="M27.625 295.185q-.124.149-.394.149h-.155v-.317h.06q.17 0 .246-.076.085-.085.085-.267v-.374h.317v.374q0 .322-.159.511zm.086.407h.259v.258h-.259zm-.43 0h.258v.258h-.258z"/><path d="M26.368 294.695v-2.042h.317v2.02q0 .183.084.268.076.076.247.076h.129v.317h-.224q-.265 0-.403-.159-.15-.174-.15-.48zM24.721 294.496q-.29.187-.539.52h.322q.408 0 .63-.108.32-.157.32-.277 0-.233-.239-.265-.063-.01-.146-.01-.13 0-.348.14zm-.103.838h-.476q-.127 0-.261-.073-.112-.06-.18-.165-.175.238-.472.238h-.224v-.317h.13q.17 0 .246-.076.138-.138.138-.31v-.197h.317v.135q0 .041.015.11.016.069.093.155.174-.23.338-.375.263-.236.511-.345.13-.057.276-.057.198 0 .382.068.32.117.32.523 0 .291-.316.479-.348.207-.837.207zm-.76-1.637h.258v.259h-.258z"/><path d="M22.313 294.848q-.026-.072-.048-.157-.023-.086-.043-.26-.207.02-.348.136-.191.153-.188.26.002.07.157.114.155.043.47-.093zm-.115-.665q-.007-.067-.012-.141h.316q.002.29.064.589.036.174.133.31.053.076.246.076h.13v.317h-.225q-.155 0-.28-.088-.078-.054-.143-.155-.238.125-.507.125-.096 0-.196-.025-.326-.083-.326-.348 0-.298.352-.517.187-.117.448-.143zm-.016-.658h.258v.258h-.258zm-.43 0h.258v.258h-.259zM19.38 292.653h.316v2.68h-.317zM18.715 294.695q0 .306-.15.48-.138.159-.403.159h-.224v-.317h.129q.17 0 .246-.076.085-.085.085-.267v-2.02h.317z"/><path d="M17.423 295.185q-.133.149-.395.149h-.155v-.317h.06q.171 0 .247-.076.084-.085.084-.267v-.374h.317v.374q0 .182.085.267.075.076.246.076h.095v.317h-.19q-.258 0-.394-.149zm.086-1.574h.258v.258h-.258zm-.43 0h.258v.258h-.259z"/><path d="M16.05 294.386h.317q.051.193.057.245.017.177.143.31.072.076.246.076h.13v.317h-.225q-.224 0-.31-.107-.117.479-.55.708-.489.26-1.043.26v-.317q.523 0 .873-.22.376-.238.436-.597.017-.1.017-.223 0-.218-.091-.452zM14.494 295.185q-.124.149-.394.149h-.155v-.317h.06q.17 0 .246-.076.085-.085.085-.267v-.374h.317v.374q0 .322-.159.511zm-.129.407h.259v.258h-.259z"/><path d="M13.43 295.185q-.133.149-.395.149h-.155v-.317h.06q.171 0 .247-.076.084-.085.084-.267v-.374h.317v.374q0 .182.085.267.075.076.246.076h.095v.317h-.19q-.258 0-.394-.149zm.086.407h.258v.258h-.258zm-.43 0h.258v.258h-.259z"/><path d="M12.188 294.848q-.026-.072-.048-.157-.023-.086-.043-.26-.207.02-.348.136-.192.153-.188.26.002.07.157.114.155.043.47-.093zm-.116-.665l-.012-.141h.317q.002.29.064.589.036.174.133.31.053.076.246.076h.13v.317h-.225q-.155 0-.28-.088-.078-.054-.143-.155-.238.125-.507.125-.096 0-.196-.025-.326-.083-.326-.348 0-.298.352-.517.187-.117.447-.143zm-.015-.658h.258v.258h-.258zm-.43 0h.258v.258h-.259zM9.254 292.653h.317v2.68h-.317zM8.59 294.695q0 .306-.15.48-.138.159-.403.159h-.224v-.317h.129q.17 0 .246-.076.085-.085.085-.267v-2.02h.316z"/><path d="M7.12 294.021q.315.138.357.396.013.086.013.159 0 .125-.036.21-.05.115-.112.201.068.03.32.03h.22v.317h-.374q-.235 0-.553-.099-.319.099-.553.099h-.374v-.317h.219q.253 0 .32-.03-.05-.069-.112-.201-.036-.08-.036-.21 0-.076.014-.159.04-.246.358-.396.052-.024.164-.024.108 0 .165.024zm-.165.293q-.026 0-.057.017-.097.055-.138.147-.017.036-.017.086 0 .074.041.165.054.117.17.155.11-.036.171-.155.043-.086.043-.165 0-.042-.019-.086-.04-.09-.137-.147-.033-.017-.057-.017zm-.13-.961h.259v.258h-.258z"/><path d="M5.384 293.611h.258v.258h-.258zm.129 1.574q-.133.149-.394.149h-.156v-.317h.06q.171 0 .247-.076.085-.085.085-.267v-.374h.316v.374q0 .182.085.267.076.076.246.076h.095v.317h-.19q-.258 0-.394-.149z"/><path d="M4.448 295.185q-.132.149-.394.149h-.155v-.317h.06q.17 0 .247-.076.084-.085.084-.267v-.374h.317v.374q0 .182.084.267.076.076.247.076h.094v.317h-.19q-.257 0-.394-.149zm.087.407h.258v.258h-.258zm-.431 0h.258v.258h-.258z"/><path d="M3.206 294.848q-.025-.072-.048-.157-.022-.086-.043-.26-.207.02-.348.136-.191.153-.188.26.002.07.157.114.155.043.47-.093zm-.115-.665q-.007-.067-.012-.141h.317q.002.29.064.589.036.174.132.31.054.076.247.076h.129v.317h-.224q-.155 0-.28-.088-.078-.054-.144-.155-.238.125-.506.125-.097 0-.197-.025-.325-.083-.325-.348 0-.298.351-.517.188-.117.448-.143zm-.015-.658h.258v.258h-.258zm-.431 0h.258v.258h-.258zM2.741 302.582q-.258 0-.398-.148-.137-.148-.137-.415 0-.45.356-.947.357-.5.663-.5.14 0 .24.152.102.15.102.318 0 .102-.045.176-.043.072-.088.072-.1 0-.141-.201-.047-.217-.135-.217-.179 0-.423.425-.245.426-.245.719 0 .292.332.292.254 0 .596-.237.12-.085.178-.085.058 0 .058.067 0 .131-.308.331-.308.198-.605.198zM4.025 301.602v-.155h1.457q-.02-.327-.198-.498-.176-.172-.491-.172-.183 0-.355.045-.17.045-.34.134v-.3q.171-.072.35-.11.18-.038.364-.038.462 0 .73.27.27.268.27.726 0 .474-.256.753-.255.277-.689.277-.39 0-.617-.25-.225-.251-.225-.682zm.317.093q.003.26.144.415.143.155.378.155.265 0 .423-.15.16-.15.185-.422zM7.497 301.36q.02-.037.06-.433.032-.317.202-.317.14 0 .14.14 0 .032-.024.132-.133.55-.133.922 0 .403.133.522.068.063.068.103 0 .048-.07.088-.069.04-.126.04-.269 0-.269-.83 0-.056-.04-.056-.163 0-.397.019t-.336.048q-.1.03-.124.055-.022.024-.041.133-.018.107-.018.222v.212q0 .184-.168.184-.142 0-.142-.184 0-.12.031-.307.057-.34.114-1.174.007-.109.019-.138.012-.03.062-.064.052-.036.112-.036.124 0 .124.102 0 .015-.04.258-.041.243-.041.377 0 .095.065.095.131 0 .48-.043.347-.045.36-.07zM10.708 302.453v.765h-.336v-.765l-.78-1.898h.336l.603 1.509.603-1.51h.336zM12.77 301.08q-.041-.002-.08.08-.357.713-.54.967-.016.023-.04.066-.215.384-.315.384-.134 0-.134-.13 0-.116.167-.318.162-.19.425-.647.264-.459.428-.822.03-.066.093-.066.025 0 .09.025.068.022.087.05.019.027.084.32.212 1.056.446 1.252.056.048.066.066.01.015.01.045 0 .053-.034.098-.035.043-.067.055-.033.012-.135.012-.036 0-.169-.178-.132-.179-.31-.973-.043-.213-.072-.286zM13.87 302.186l-.003-.036q-.017-.174.107-.365.126-.191.629-.445.32-.162.32-.294 0-.07-.058-.109-.059-.038-.102-.038-.13 0-.496.183-.03.015-.034.015-.142 0-.142-.1 0-.161.28-.268.278-.109.485-.109.13 0 .27.104.142.101.142.274 0 .14-.091.272-.092.13-.457.332-.3.166-.406.272-.106.107-.106.241 0 .099.092.13.091.03.138.03.323 0 .578-.134.088-.045.131-.045.09 0 .09.1 0 .152-.245.254-.244.101-.62.101-.179 0-.332-.101-.154-.104-.17-.264zM16.177 300.178q-.036 0-.055-.078-.007-.024-.019-.053-.046-.112-.046-.195 0-.069.08-.14.083-.072.183-.072.05 0 .112.04.062.038.062.074 0 .057-.043.193-.041.136-.134.184-.091.047-.14.047zm-.225 1.924q0 .13.036.294.007.031.007.052 0 .031-.057.08-.057.05-.12.05-.168 0-.168-.307 0-.317.131-1.003.045-.24.045-.295 0-.108.04-.184.04-.077.111-.077.088 0 .138.043.052.041.052.093 0 .051-.024.136-.13.455-.16.65-.031.197-.031.468zM17.609 301.08q-.042-.002-.081.08-.357.713-.54.967-.015.023-.039.066-.215.384-.315.384-.135 0-.135-.13 0-.116.167-.318.162-.19.426-.647.263-.459.427-.822.031-.066.093-.066.026 0 .091.025.068.022.087.05.019.027.084.32.212 1.056.446 1.252.055.048.066.066.01.015.01.045 0 .053-.035.098-.034.043-.067.055-.032.012-.134.012-.036 0-.169-.178-.133-.179-.31-.973-.043-.213-.072-.286zM20.224 301.9q0 .176-.312.424-.31.248-.641.248-.277 0-.429-.164-.15-.163-.15-.456 0-.493.333-.937.332-.445.727-.445.129 0 .21.085.082.084.082.203 0 .265-.26.508t-.696.477q-.09.047-.09.12 0 .144.083.23.083.086.245.086.37 0 .756-.41.057-.057.086-.057.056 0 .056.088zm-1.198-.269q.73-.434.73-.697 0-.104-.092-.104-.159 0-.359.233-.198.233-.279.568zM20.916 302.284q-.084.31-.158.87l-.049.326q-.012.069-.063.136-.052.069-.095.069-.054 0-.122-.055-.068-.054-.068-.086 0-.095.043-.262.316-1.273.316-2.236l-.002-.145q-.003-.186.065-.27.07-.085.159-.085.041 0 .08.066.037.063.037.182 0 .167-.034.405-.045.3-.047.345.257-.448.544-.7.288-.251.534-.251.174 0 .293.13.12.13.12.323 0 .561-.43 1.02-.43.458-.839.458-.101 0-.162-.052-.058-.052-.122-.188zm1.07-1.386q-.243 0-.601.454-.359.455-.359.708 0 .062.07.12.071.06.18.06.246 0 .567-.364.32-.365.32-.717 0-.125-.052-.192-.05-.07-.125-.07zM23.419 300.178q-.036 0-.055-.078-.007-.024-.02-.053-.046-.112-.046-.195 0-.069.081-.14.083-.072.183-.072.05 0 .112.04.062.038.062.074 0 .057-.043.193-.042.136-.135.184-.09.047-.14.047zm-.226 1.924q0 .13.036.294.007.031.007.052 0 .031-.057.08-.056.05-.12.05-.167 0-.167-.307 0-.317.13-1.003.045-.24.045-.295 0-.108.04-.184.04-.077.112-.077.088 0 .138.043.052.041.052.093 0 .051-.025.136-.129.455-.16.65-.03.197-.03.468zM3.572 308.272q-.16.003-.686.95-.177.318-.207.347-.029.028-.108.05-.078.023-.13.023-.115 0-.115-.45 0-.253.109-.916.045-.27.045-.385 0-.113.101-.113.191 0 .191.275 0 .13-.063.507-.074.43-.076.523.107-.103.313-.453.293-.478.431-.606.14-.13.288-.13.112 0 .177.15.067.15.081.716.004.14.026.21.022.069.033.069.08 0 .351-.552.145-.29.28-.442.139-.152.306-.152.14 0 .203.145.064.143.091.425.026.286.08.524.055.238.2.305.097.046.097.108 0 .06-.082.124-.083.064-.152.064-.138 0-.246-.169-.109-.169-.164-.73-.024-.226-.046-.32-.023-.095-.07-.095-.073 0-.173.138-.098.137-.319.56-.172.328-.262.439-.087.108-.17.108-.074 0-.133-.058-.058-.06-.074-.143-.015-.085-.033-.412-.025-.544-.094-.634zM7.058 309.008q-.241.323-.477.485-.236.162-.432.162-.133 0-.23-.112-.096-.112-.096-.287 0-.453.405-.975.405-.524.804-.524.145 0 .216.165.022.055.07.055.138 0 .138.107 0 .054-.017.147-.093.508-.093.716 0 .417.158.5.076.041.076.101 0 .054-.074.107-.074.055-.143.055-.133 0-.219-.182-.086-.183-.086-.52zm-.105-.97q-.227 0-.529.427-.301.425-.301.706 0 .198.13.198.19 0 .526-.382.336-.383.336-.703 0-.246-.162-.246zM8.98 307.845q-.065-.178-.303-.384-.224-.193-.224-.331 0-.11.073-.177.072-.07.268-.124.245-.068.498-.152.253-.086.305-.11.033-.016.067-.016.057 0 .057.102 0 .057-.138.155-.137.098-.487.182-.22.056-.27.083-.049.026-.049.054 0 .062.135.179.506.442.506 1.11 0 .288-.152.617-.151.328-.404.488-.252.16-.493.16-.217 0-.329-.212-.112-.212-.112-.467 0-.45.277-.85.28-.4.59-.4.04 0 .103.053.057.052.082.04zm-.75 1.164q0 .191.05.3.051.109.134.109.11 0 .298-.137.188-.136.301-.403.116-.267.116-.5 0-.192-.056-.31-.053-.122-.1-.122-.306 0-.525.374-.219.374-.219.69zM11.003 308.885q-.22.37-.452.574-.23.203-.428.203-.114 0-.233-.132-.117-.133-.117-.409 0-.225.108-.665.092-.367.092-.515.05-.103.156-.103.073 0 .116.052.043.05.043.105 0 .12-.085.343-.16.432-.16.742 0 .282.131.282.167 0 .426-.284.258-.284.442-.792.073-.203.117-.264.047-.062.125-.062.117 0 .117.155 0 .02-.033.126-.103.377-.103.713 0 .403.132.522.07.064.07.103 0 .049-.072.088-.068.04-.125.04-.12 0-.195-.18-.074-.178-.074-.528v-.057l.002-.057zM12.258 309.635v-.862h-.453v-.293h.453v-.775h1.361v.27h-1.044v.505h.717v.293h-.717v.862zM15.182 309.008q-.242.323-.478.485-.235.162-.432.162-.132 0-.229-.112-.096-.112-.096-.287 0-.453.404-.975.405-.524.805-.524.145 0 .215.165.023.055.07.055.139 0 .139.107 0 .054-.018.147-.093.508-.093.716 0 .417.159.5.076.041.076.101 0 .054-.074.107-.075.055-.143.055-.133 0-.22-.182-.085-.183-.085-.52zm-.105-.97q-.228 0-.53.427-.3.425-.3.706 0 .198.13.198.19 0 .526-.382.335-.383.335-.703 0-.246-.161-.246zM17.392 308.272q-.16.003-.686.95-.177.318-.207.347-.029.028-.108.05-.078.023-.13.023-.115 0-.115-.45 0-.253.109-.916.045-.27.045-.385 0-.113.101-.113.191 0 .191.275 0 .13-.063.507-.074.43-.076.523.107-.103.313-.453.293-.478.431-.606.14-.13.288-.13.112 0 .177.15.067.15.081.716.003.14.026.21.022.069.033.069.08 0 .351-.552.145-.29.28-.442.139-.152.306-.152.14 0 .203.145.064.143.091.425.026.286.08.524.055.238.2.305.098.046.098.108 0 .06-.083.124t-.152.064q-.138 0-.246-.169-.109-.169-.164-.73-.024-.226-.046-.32-.023-.095-.07-.095-.073 0-.173.138-.098.137-.319.56-.172.328-.262.439-.087.108-.17.108-.074 0-.133-.058-.058-.06-.074-.143-.015-.085-.033-.412-.025-.544-.094-.634zM3.746 316.106q0 .176-.312.424-.31.248-.64.248-.278 0-.43-.164-.15-.163-.15-.456 0-.493.333-.937.332-.445.727-.445.129 0 .21.085.083.084.083.203 0 .265-.26.508t-.697.477q-.09.047-.09.12 0 .144.084.23.082.086.244.086.37 0 .756-.41.057-.057.087-.057.055 0 .055.088zm-1.198-.269q.73-.434.73-.697 0-.104-.092-.104-.159 0-.358.233-.199.233-.28.568zM5.072 315.286q-.041-.002-.081.08-.357.713-.54.968-.015.022-.039.065-.215.384-.315.384-.134 0-.134-.129 0-.117.167-.319.162-.19.425-.647.264-.459.427-.822.031-.066.093-.066.026 0 .092.025.067.022.086.05.019.027.084.32.212 1.056.446 1.252.056.048.066.066.01.015.01.045 0 .053-.034.098-.035.043-.067.055-.033.012-.135.012-.036 0-.169-.177-.132-.18-.31-.974-.043-.213-.072-.286zM8.41 315.181q-.14.224-.392.758-.057.12-.116.233-.019.036-.072.16-.181.42-.315.42-.107 0-.157-.026-.048-.025-.093-.14-.045-.116-.133-.544-.101-.484-.138-.596-.117.264-.208.509-.138.36-.267.587-.13.226-.186.27-.057.047-.109.047-.053 0-.096-.041-.043-.042-.043-.081.01-.07.024-.088.15-.185.258-.393.109-.208.276-.625.169-.417.215-.684.023-.114.167-.114.085 0 .116.026.03.026.06.105.031.08.036.141.01.074.059.33.043.239.057.339.024.143.084.375.062.233.097.233.024 0 .068-.105l.145-.335q.04-.09.085-.179l.198-.404q.162-.335.248-.484.088-.152.117-.183.03-.031.069-.031.065 0 .146.036.081.035.085.078.003.043.015.36l.022.537q.01.257.031.438.021.179.073.289.08.176.08.272 0 .083-.068.114-.067.03-.126.03-.12 0-.186-.192-.064-.193-.093-1.106-.01-.274-.033-.336zM10.772 316.106q0 .176-.312.424-.31.248-.64.248-.278 0-.43-.164-.15-.163-.15-.456 0-.493.333-.937.332-.445.727-.445.13 0 .21.085.083.084.083.203 0 .265-.26.508t-.696.477q-.09.047-.09.12 0 .144.083.23.083.086.244.086.37 0 .757-.41.057-.057.086-.057.055 0 .055.088zm-1.197-.269q.73-.434.73-.697 0-.104-.093-.104-.158 0-.358.233-.198.233-.28.568zM11.482 315.784q.408-.07.732-.527.151-.212.265-.3.115-.09.245-.09.051 0 .103.047t.052.11q0 .085-.16.133-.085.026-.16.088-.073.062-.28.296-.162.183-.291.257-.012.007-.012.012 0 .007.015.014.126.067.266.26.203.28.305.355.101.072.232.072l.057-.002q.06-.003.06.053 0 .066-.074.136-.074.071-.244.071-.131 0-.255-.112-.123-.114-.281-.367-.091-.15-.17-.227-.08-.078-.176-.078-.021 0-.128.035-.107.034-.12.067-.012.03-.02.229-.004.196-.004.317 0 .064-.06.114-.061.05-.132.05-.072 0-.113-.043-.042-.042-.042-.087 0-.062.047-.292.082-.42.165-1.387.007-.093.07-.167.064-.076.145-.076.045 0 .075.048.03.049.03.124 0 .06-.02.138-.098.357-.122.729zM14.63 316.106q0 .176-.311.424-.31.248-.641.248-.277 0-.43-.164-.149-.163-.149-.456 0-.493.333-.937.332-.445.726-.445.13 0 .21.085.083.084.083.203 0 .265-.26.508t-.696.477q-.09.047-.09.12 0 .144.083.23.083.086.245.086.37 0 .756-.41.057-.057.086-.057.055 0 .055.088zm-1.197-.269q.73-.434.73-.697 0-.104-.092-.104-.159 0-.359.233-.198.233-.279.568zM16.258 315.565q.02-.036.06-.432.032-.317.202-.317.14 0 .14.14 0 .032-.025.132-.132.55-.132.922 0 .403.132.522.07.063.07.103 0 .048-.071.088-.07.04-.126.04-.269 0-.269-.83 0-.056-.041-.056-.162 0-.396.02-.234.018-.336.047-.1.03-.124.055-.023.024-.041.133-.018.107-.018.222v.212q0 .184-.169.184-.14 0-.14-.184 0-.12.03-.307.057-.34.114-1.174.007-.109.019-.138.012-.03.062-.064.052-.036.112-.036.124 0 .124.102 0 .015-.04.258-.041.243-.041.377 0 .095.065.095.131 0 .48-.043.347-.045.36-.07z"/></g><flowRoot transform="matrix(.26458 0 0 .26458 0 226.6)" style="line-height:1.25;-inkscape-font-specification:'Segoe Print';font-variant-ligatures:normal;font-variant-caps:normal;font-variant-numeric:normal;font-feature-settings:normal;text-align:start" xml:space="preserve" font-style="normal" font-variant="normal" font-stretch="normal" font-size="13.333" writing-mode="lr-tb" text-anchor="start" fill="#000" fill-opacity="1" stroke="none"><flowRegion><path d="M7.239 212.992h60.325V251.6H7.239z"/></flowRegion><flowPara/></flowRoot><text y="254.382" x="54.898" style="line-height:2;-inkscape-font-specification:'Segoe Print';font-variant-ligatures:normal;font-variant-caps:normal;font-variant-numeric:normal;font-feature-settings:normal;text-align:start" font-size="3.528" fill="#917c6f" stroke-width=".265"><tspan y="254.382" x="54.898">адамдар</tspan><tspan y="261.532" x="54.898">бөлме ғимарат жобалар</tspan><tspan y="268.682" x="54.898">ғарыш тылсым әлем</tspan><tspan y="275.833" x="54.898">гүлдер</tspan><tspan y="282.983" x="54.898">өсімдіктер</tspan><tspan y="290.134" x="54.898">қалыпталған кескіндер</tspan><tspan y="297.284" x="54.898">қолданыс заттары</tspan><tspan y="304.34" x="54.898">жаныуарлар</tspan><tspan y="311.49" x="54.898">өнер білім спорт</tspan><tspan y="318.546" x="54.898">art education sports</tspan><tspan y="325.707" x="54.898">美術教育スポーツ</tspan><tspan y="332.857" x="54.898">الرياضة التربية الفنية</tspan><tspan y="340.008" x="54.898">сән үлгілері</tspan><tspan y="347.158" x="54.898">табиғат</tspan><tspan y="354.214" x="54.898">елмекен</tspan></text></g></svg>