<svg xmlns="http://www.w3.org/2000/svg" xmlns:xlink="http://www.w3.org/1999/xlink" width="131.906" height="20.409" viewBox="0 0 34.9 5.4" xmlns:v="https://vecta.io/nano"><style><![CDATA[.F{fill:#917c6f}.G{font-size:3.528px}.H{font-family:Segoe Print}.I{word-spacing:0px}.J{writing-mode:lr-tb}]]></style><text y="-37.218" x="114.134" xml:space="preserve" letter-spacing="0" class="F G H I J"><tspan y="-37.218" x="114.134">адамдар</tspan><tspan y="-30.068" x="114.134">бөлме ғимарат жобалар</tspan><tspan y="-22.918" x="114.134">ғарыш тылсым әлем</tspan><tspan y="-15.767" x="114.134">гүлдер</tspan><tspan y="-8.617" x="114.134">өсімдіктер</tspan><tspan y="-1.466" x="114.134">қалыпталған кескіндер</tspan><tspan y="5.684" x="114.134">қолданыс заттары</tspan><tspan y="12.74" x="114.134">жаныуарлар</tspan><tspan y="19.89" x="114.134">өнер білім спорт</tspan><tspan y="26.946" x="114.134">art education sports</tspan><tspan y="34.107" x="114.134">美術教育スポーツ</tspan><tspan y="41.257" x="114.134">الرياضة التربية الفنية</tspan><tspan y="48.408" x="114.134">сән үлгілері</tspan><tspan y="55.558" x="114.134">тәбіиғат</tspan><tspan y="62.614" x="114.134">елмекен</tspan></text><text y="-37.24" x="162.734" xml:space="preserve" letter-spacing="0" class="F G H I J"><tspan y="-37.24" x="162.734">үи</tspan><tspan y="-30.09" x="162.734">пәтер</tspan><tspan y="-22.939" x="162.734">бөлме алаң</tspan><tspan y="-15.789" x="162.734">ғимарат</tspan><tspan y="-8.733" x="162.734">жер телімі</tspan><tspan y="-1.583" x="162.734">қызымет</tspan></text><text y="-37.864" x="190.455" xml:space="preserve" letter-spacing="0" class="F G H I J"><tspan y="-37.864" x="190.455">жеңіл</tspan><tspan y="-30.808" x="190.455">жолаушылар</tspan><tspan y="-23.658" x="190.455">жүк</tspan><tspan y="-16.507" x="190.455">қызыметтік</tspan><tspan y="-9.452" x="190.455">белсебет</tspan><tspan y="-2.396" x="190.455">мотосекл</tspan><tspan y="4.754" x="190.455">сұу</tspan><tspan y="11.905" x="190.455">әуе</tspan><tspan y="19.055" x="190.455">қызымет</tspan></text><text y="-37.768" x="223.203" xml:space="preserve" letter-spacing="0" class="F G H I J"><tspan y="-37.768" x="223.203">нан өнімдері</tspan><tspan y="-30.617" x="223.203">сұусын</tspan><tspan y="-23.467" x="223.203">кәмпит</tspan><tspan y="-16.411" x="223.203">торт</tspan><tspan y="-9.261" x="223.203">жеміс жидек көкөніс</tspan><tspan y="-2.11" x="223.203">қаинатпа</tspan><tspan y="5.04" x="223.203">тұздалған</tspan><tspan y="12.19" x="223.203">қызымет</tspan></text><text y="-37.893" x="265.973" xml:space="preserve" letter-spacing="0" class="F G H I J"><tspan y="-37.893" x="265.973">бас кіиім</tspan><tspan y="-30.742" x="265.973">үстіңгі</tspan><tspan y="-23.592" x="265.973">астыңғы</tspan><tspan y="-16.442" x="265.973">аиақ</tspan><tspan y="-9.386" x="265.973">спорт</tspan><tspan y="-2.33" x="265.973">балалар</tspan><tspan y="4.725" x="265.973">арнаиы</tspan><tspan y="11.876" x="265.973">қызымет</tspan></text><text y="-38.091" x="288.034" xml:space="preserve" letter-spacing="0" class="F G H I J"><tspan y="-38.091" x="288.034">ас үи</tspan><tspan y="-30.941" x="288.034">құрал</tspan><tspan y="-23.79" x="288.034">құрылғы</tspan><tspan y="-16.64" x="288.034">бақша</tspan><tspan y="-9.584" x="288.034">оиын</tspan><tspan y="-2.434" x="288.034">зат-қызымет</tspan></text><text y="-38.166" x="319.277" xml:space="preserve" letter-spacing="0" class="F G H I J"><tspan y="-38.166" x="319.277">әк үнтақ</tspan><tspan y="-31.111" x="319.277">боиау</tspan><tspan y="-23.96" x="319.277">түс қағаз</tspan><tspan y="-16.81" x="319.277">кірпіш тұтас бетон</tspan><tspan y="-9.659" x="319.277">ағаш пластік ұқсастар</tspan><tspan y="-2.509" x="319.277">метал көмпөзіт ұқсастар</tspan><tspan y="4.547" x="319.277">есік терезе</tspan><tspan y="11.697" x="319.277">су кәріз жылытыу ауа тораптары</tspan><tspan y="18.848" x="319.277">електр басқа желілер</tspan><tspan y="25.998" x="319.277">сәулет сәндеу жобалау</tspan><tspan y="33.149" x="319.277">қызымет</tspan></text><text y="-38.443" x="391.499" xml:space="preserve" letter-spacing="0" class="F G H I J"><tspan y="-38.443" x="391.499">тазартыу</tspan><tspan y="-31.293" x="391.499">әтір саулық</tspan><tspan y="-24.143" x="391.499">қызымет</tspan></text><text y="-38.187" x="421.027" xml:space="preserve" letter-spacing="0" class="F G H I J"><tspan y="-38.187" x="421.027">ас үи</tspan><tspan y="-31.036" x="421.027">қонақ</tspan><tspan y="-23.981" x="421.027">жатын</tspan><tspan y="-16.83" x="421.027">кеңсе</tspan><tspan y="-9.68" x="421.027">көпшілік</tspan><tspan y="-2.624" x="421.027">арнаиы</tspan><tspan y="4.526" x="421.027">қызымет</tspan><tspan y="18.732" x="421.027">дәптер</tspan><tspan y="25.883" x="421.027">кітәп</tspan><tspan y="32.939" x="421.027">жазыу сызыу</tspan><tspan y="39.994" x="421.027">боиау</tspan><tspan y="47.145" x="421.027">қағаз</tspan><tspan y="54.295" x="421.027">құрал</tspan><tspan y="61.445" x="421.027">қызымет</tspan><tspan y="75.651" x="421.027">ағаш</tspan><tspan y="82.802" x="421.027">шөп</tspan><tspan y="89.952" x="421.027">гүл</tspan><tspan y="97.103" x="421.027">саңырауқұлақ</tspan><tspan y="104.253" x="421.027">дәнді-дақыл</tspan><tspan y="111.404" x="421.027">қызымет</tspan><tspan y="125.61" x="421.027">үи жаныуары</tspan><tspan y="132.76" x="421.027">тәбіиғат жаныуары</tspan><tspan y="139.911" x="421.027">қызымет</tspan><tspan y="154.117" x="421.027">көмекші</tspan><tspan y="161.172" x="421.027">емдеу</tspan><tspan y="168.323" x="421.027">сымбат саулық</tspan><tspan y="175.473" x="421.027">заңгерлік</tspan></text><g transform="translate(0 14.437)" class="F"><path d="M13.363-27.317h.317v2.68h-.317zm-2.627 2.442q-.074.102-.171.158-.131.079-.301.079h-.224v-.317h.129q.171 0 .246-.076.138-.138.138-.31v-.331h.317v.269q0 .11.076.283.074.171.253.171.188 0 .264-.21.064-.177.064-.512h.317q0 .353.033.439.11.293.3.291.245-.003.245-.482v-.506h.317v.589q0 .343-.158.537-.129.158-.305.2-.064.016-.124.016-.109 0-.203-.043-.236-.105-.267-.332-.083.269-.248.326-.117.041-.229.041-.169 0-.293-.084-.103-.069-.174-.195zm.674-1.829h.258v.258h-.258zm.215.431h.258v.258h-.258zm-.431 0h.258v.258h-.258z"/><path d="M8.896-25.98q.444.09.823.258v.265q-.112.034-.238.105.086.134.138.193.179.205.376.205h.114v.317h-.148q-.36 0-.577-.289-.069-.093-.171-.26-.119.079-.189.143-.25.222-.379.269-.381.138-.661.138h-.221v-.317h.172q.391 0 .613-.124.179-.1.379-.283.162-.148.336-.208-.143-.04-.32-.079-.146-.033-.456-.06-.141-.012-.419-.002v-.317q.124-.012.253-.014.279 0 .575.06zm-.195-.551h.258v.258h-.258z"/><use xlink:href="#A"/><path d="M4.469-24.22q-.152.267-.562.4-.138.045-.345.045-.22-.002-.408-.05-.474-.122-.474-.687 0-.424.181-.734h.317q-.186.355-.184.734.003.308.255.374.164.041.303.041.176 0 .332-.064.279-.117.353-.355.057-.186.057-.405 0-.253-.067-.491h.295q-.003.026.022.121.017.069.086.155.198-.251.41-.438.217-.189.439-.283.136-.059.276-.057.215.003.382.067.32.122.32.524 0 .291-.317.479-.348.207-.837.207h-.475q-.065 0-.155-.052-.078-.045-.078-.072 0 .32-.127.541zm1.287-1.394q-.131 0-.348.14-.289.186-.539.52h.322q.408 0 .63-.109.322-.157.32-.277-.003-.233-.239-.265-.064-.009-.146-.009z"/><use xlink:href="#B"/><path d="M26.599-17.452q-.064.016-.124.016-.109 0-.203-.043-.236-.105-.267-.332-.083.269-.248.326-.117.041-.229.041-.169 0-.293-.084-.103-.069-.174-.195-.074.102-.171.158-.131.079-.301.079h-.224v-.317h.129q.171 0 .246-.076.138-.138.138-.31v-.331h.317v.269q0 .11.076.283.074.171.253.171.188 0 .264-.21.064-.177.064-.512h.317q0 .353.033.439.11.293.3.291.245-.003.245-.482v-.506h.317v.589q0 .167.143.31.076.076.246.076h.129v.317h-.224q-.25 0-.453-.165-.117.155-.305.2zm-.865-2.102h.258v.258h-.258zm.215.431h.258v.258h-.258zm-.431 0h.258v.258h-.258z"/><use y="7.151" x="16.602" xlink:href="#A"/><use xlink:href="#C"/><use xlink:href="#D"/><path d="M20.832-16.795q-.262.171-.705.171-.725 0-.996-.324-.169-.21-.169-.556 0-.346.322-.587-.105-.086-.164-.186-.059-.1-.059-.172 0-.189.215-.3.167-.083.372-.083.205 0 .369.083.219.11.219.303 0 .157-.157.272-.098.074-.26.129.117.11.274.177.157.065.303.065h.276v.317h-.248q-.458 0-.885-.393-.265.222-.265.407 0 .186.071.291.184.272.789.272.332 0 .698-.203zm-1.239-1.457q.234-.096.234-.179 0-.083-.177-.083-.177 0-.177.088 0 .062.121.174z"/><use xlink:href="#E"/><use xlink:href="#F"/><use y="7.151" x="7.796" xlink:href="#A"/><use xlink:href="#G"/><path d="M11.091-20.167h.317v2.68h-.317z"/><use xlink:href="#H"/><use xlink:href="#I"/><use xlink:href="#J"/><use xlink:href="#K"/><use xlink:href="#L"/><use xlink:href="#M"/><use y="14.301" x="22.076" xlink:href="#A"/><use y="7.15" x="18.041" xlink:href="#H"/><path d="M26.427-10.625q.21.072.341.072.076 0 .112-.038.091-.098.091-.198 0-.041-.01-.076-.036-.152-.138-.181-.069-.021-.148-.021-.102 0-.148.047-.117.117-.117.234 0 .069.017.16zm.755.2q-.026.024-.048.038-.229.138-.358.138-.312 0-.555-.134-.086-.048-.215.086-.043.045-.043.181v.629h-.345v-.629q0-.298.207-.474.112-.095.267-.095-.003-.072-.003-.141 0-.255.279-.482.133-.109.291-.109.124 0 .269.062.293.122.362.431.026.115.095.191.065.076.246.076h.129v.317h-.224q-.301 0-.353-.084zm-3.575-2.591h.317v2.68h-.317z"/><use y="7.15" x="12.516" xlink:href="#H"/><path d="M21.473-11.648q.315.138.357.396.014.086.014.158 0 .126-.036.21-.05.115-.112.202.067.029.32.029h.219v.317h-.374q-.234 0-.553-.098-.319.098-.553.098h-.374v-.317h.219q.253 0 .32-.029-.05-.069-.112-.202-.036-.079-.036-.21 0-.076.014-.158.04-.246.358-.396.052-.024.164-.024.109 0 .165.024zm-.165.293q-.026 0-.057.017-.096.055-.138.146-.017.036-.017.086 0 .074.041.165.053.117.171.155.109-.036.171-.155.043-.086.043-.165 0-.041-.019-.086-.04-.09-.138-.146-.033-.017-.057-.017zm-.129-.961h.258v.258h-.258z"/><path d="M18.941-10.336h-.482q-.127 0-.262-.072-.112-.06-.179-.165-.176.238-.472.238h-.224v-.317h.129q.171 0 .246-.076.138-.138.138-.31v-.196h.317v.134q0 .041.016.11.016.069.093.155.174-.231.338-.376.264-.236.512-.345.129-.057.276-.057.195 0 .382.067.327.117.327.524 0 .129-.072.253.024.021.052.04.105.076.246.076h.129v.317h-.224q-.226 0-.403-.158l-.048-.045q-.351.203-.834.203zm.096-.837q-.289.186-.539.52h.322q.408 0 .63-.109.32-.157.32-.277 0-.233-.239-.265-.064-.009-.146-.009-.131 0-.348.14zm-.863-.799h.258v.258h-.258z"/><use y="14.301" x="9.558" xlink:href="#A"/><use y="7.151" x="1.762" xlink:href="#G"/><path d="M12.853-13.016h.317v2.68h-.317z"/><use y="7.15" x="1.762" xlink:href="#H"/><use y="7.151" x="1.762" xlink:href="#I"/><use y="14.301" x="1.946" xlink:href="#A"/><use y="7.151" x="-20.768" xlink:href="#B"/><path d="M5.305-10.336H4.83q-.065 0-.155-.052-.078-.045-.078-.072 0 .32-.127.541-.152.267-.562.4-.138.045-.345.045-.22-.002-.408-.05-.474-.122-.474-.687 0-.424.181-.734h.317q-.186.355-.184.734.003.308.255.374.164.041.303.041.176 0 .332-.064.279-.117.353-.355.057-.186.057-.405 0-.253-.067-.491h.295q-.003.026.022.121.017.069.086.155.198-.251.41-.438.186-.162.439-.283.124-.059.276-.057.215.003.382.067.32.122.32.524 0 .133-.072.253.024.021.052.04.105.076.246.076h.129v.317H6.59q-.226 0-.403-.158l-.048-.045q-.351.203-.834.203zm.451-.977q-.131 0-.348.14-.289.186-.539.52h.322q.408 0 .63-.109.322-.157.32-.277-.003-.233-.239-.265-.064-.009-.146-.009zm-1.102-.66h.258v.258h-.258zm4.353 8.516q.017-.1.017-.224 0-.217-.091-.451h.317q.086.203.086.431 0 .141-.014.248-.079.603-.581.87-.489.26-1.044.26v-.317q.524 0 .873-.22.376-.238.436-.596zM8.92-4.821h.258v.258H8.92zM6.679-3.648q.062-.047.121-.157.067-.124.067-.229 0-.079-.026-.143-.038-.09-.138-.09-.112 0-.152.078-.038.074-.038.134 0 .052.012.115.036.203.153.291zm-.546.146q.09 0 .224-.019-.077-.181-.103-.3-.031-.134-.031-.245 0-.145.078-.288.083-.155.215-.14-.076-.067-.215-.091v-.319q.384.117.756.425.441.36.551.742.024.09.024.188 0 .177-.069.283-.127.195-.429.195-.226 0-.491-.186-.207.071-.458.071h-.236v-.317zm.992-.558q.01.064.01.131 0 .253-.169.434-.021.024-.05.057.09.079.174.079.215 0 .245-.115.012-.052.012-.109 0-.103-.057-.238-.05-.119-.165-.239z"/><use xlink:href="#N"/><use y="14.301" x="-19.164" xlink:href="#C"/><path d="M12.447 1.285h.317v2.68h-.317zm-.665 2.042q0 .307-.15.481-.138.158-.403.158h-.224v-.317h.129q.171 0 .246-.076.084-.084.084-.267V1.285h.317z"/><path d="M10.36 2.243h.258v.258h-.258zm.129 1.574q-.133.148-.394.148H9.94v-.317H10q.171 0 .246-.076.084-.084.084-.267v-.374h.317v.374q0 .183.084.267.076.076.246.076h.095v.317h-.189q-.258 0-.394-.148z"/><path d="M9.425 3.818q-.133.148-.394.148h-.155v-.317h.06q.171 0 .246-.076.084-.084.084-.267v-.374h.317v.374q0 .183.084.267.076.076.246.076h.095v.317H9.82q-.258 0-.394-.148zm-.129.407h.258v.258h-.258z"/><use xlink:href="#O"/><path d="M7.368 3.818q-.124.148-.394.148h-.155v-.317h.06q.171 0 .246-.076.084-.084.084-.267v-.374h.317v.374q0 .322-.158.512zm.086-1.574h.258v.258h-.258zm-.431 0h.258v.258h-.258z"/><use x="-2.057" xlink:href="#O"/><use xlink:href="#P"/><path d="M18.314 10.279q-.289.186-.539.52h.322q.408 0 .63-.109.32-.157.32-.277 0-.233-.239-.265-.064-.009-.146-.009-.131 0-.348.14zm-.103.837h-.475q-.127 0-.262-.072-.112-.06-.179-.165-.176.238-.472.238h-.224V10.8h.129q.171 0 .246-.076.138-.138.138-.31v-.196h.317v.134q0 .041.016.11.016.069.093.155.174-.231.338-.376.264-.236.512-.345.129-.057.276-.057.198 0 .382.067.32.117.32.524 0 .291-.317.479-.348.207-.837.207z"/><use y="14.301" x="10.649" xlink:href="#N"/><use y="28.602" x="-8.515" xlink:href="#C"/><use y="28.603" x="-17.452" xlink:href="#B"/><path d="M9.368 9.804q.315.138.357.396.014.086.014.158 0 .126-.036.21-.05.115-.112.202.067.029.32.029h.219v.317h-.374q-.234 0-.553-.098-.319.098-.553.098h-.374v-.317h.219q.253 0 .32-.029-.05-.069-.112-.202-.036-.079-.036-.21 0-.076.014-.158.04-.246.358-.396.052-.024.164-.024.109 0 .165.024zm-.165.293q-.026 0-.057.017-.096.055-.138.146-.017.036-.017.086 0 .074.041.165.053.117.171.155.109-.036.171-.155.043-.086.043-.165 0-.041-.019-.086-.04-.09-.138-.146-.033-.017-.057-.017zm.076-.961h.258v.258h-.258zm-.431 0h.258v.258h-.258z"/><path d="M7.613 10.799q0-.131-.028-.229-.041-.138-.121-.189-.103-.071-.207-.026-.115.05-.138.146-.029.129.081.222.081.069.412.076zm.308 0h.424v.317h-.334l-.121-.002q-.043.269-.265.491-.143.143-.324.224-.331.148-.959.148v-.317q.622 0 .849-.131.289-.164.396-.419-.203-.005-.281-.017-.239-.041-.327-.115-.183-.153-.2-.386-.003-.053.014-.152.046-.267.35-.396.102-.043.214-.041.15.003.269.088.229.158.267.401.022.143.029.307zm-1.765-.322q0 .307-.15.481-.138.158-.403.158h-.224v-.317h.129q.171 0 .246-.076.084-.084.084-.267v-2.02h.317z"/><use xlink:href="#Q"/><use y="28.603" xlink:href="#L"/><use y="35.753" x="-11.74" xlink:href="#B"/><use xlink:href="#R"/><use xlink:href="#S"/><path d="M10.553 17.95h.033q.072 0 .238-.131.196-.155.196-.245 0-.193-.145-.193-.129 0-.257.243-.065.124-.065.326zm-.317 0q.016-.458.238-.675.186-.184.408-.184.238 0 .357.171.079.115.079.312 0 .191-.281.377h.593v.317h-.593q.281.186.281.377 0 .196-.079.312-.119.171-.357.171-.222 0-.408-.184-.222-.22-.238-.675h-.301v-.317zm.317.317q0 .202.065.326.127.243.257.243.145 0 .145-.193 0-.09-.196-.245-.165-.131-.238-.131z"/><path d="M9.385 18.119q-.133.148-.394.148h-.224v-.317h.129q.171 0 .246-.076.084-.084.084-.267v-2.021h.317v2.021q0 .183.084.267.076.076.246.076h.129v.317H9.78q-.258 0-.394-.148z"/><path d="M7.387 18.267h-.568v-.317h.534q.255 0 .332-.179.028-.062.028-.124 0-.119-.093-.233l-.534-.655Q7 16.655 7 16.515q0-.06.017-.117.053-.203.233-.277l1.283-.534v.32l-1.025.431q-.122.052-.158.121-.01.019-.01.062 0 .055.053.119l1.004 1.214q.038.045.103.069.074.028.184.028h.152v.317h-.227q-.112 0-.212-.041-.177-.074-.234-.145l-.167-.207q-.036.079-.065.126-.164.267-.543.267z"/><use y="42.904" x="-.944" xlink:href="#A"/><use y="14.301" xlink:href="#P"/><path d="M15.387 22.737h.317v2.68h-.317z"/><use y="42.903" x="4.296" xlink:href="#H"/><path d="M12.801 24.074q.444.09.823.258v.265q-.112.034-.238.105.086.134.138.193.179.205.376.205h.114v.317h-.148q-.36 0-.577-.289-.069-.093-.171-.26-.119.079-.189.143-.25.222-.379.269-.381.138-.661.138h-.221v-.317h.172q.391 0 .613-.124.179-.1.379-.283.162-.148.336-.208-.143-.04-.32-.079-.146-.033-.456-.06-.141-.012-.419-.002v-.317q.124-.012.253-.014.279 0 .575.06z"/><use xlink:href="#T"/><use y="28.603" x="4.654" xlink:href="#N"/><path d="M8.168 22.737h.317v2.68h-.317zm-.929.958h.258v.258h-.258zm.129 1.574q-.124.148-.394.148h-.155V25.1h.06q.171 0 .246-.076.084-.084.084-.267v-.374h.317v.374q0 .322-.158.512z"/><use y="50.054" x="-.944" xlink:href="#A"/><use y="21.452" xlink:href="#P"/><use y="50.054" x="24.051" xlink:href="#K"/><path d="M27.864 31.567q.076.167.122.332.038.138.124.241.091.11.195.11h.129v.317h-.224q-.122 0-.181-.083-.005.188-.158.441-.207.343-.618.456-.167.047-.326.047-.2 0-.394-.064-.565-.184-.565-.796 0-.301.081-.544h.317q-.084.236-.084.544 0 .407.346.498.155.041.286.041.152 0 .288-.034.334-.083.463-.474.057-.174.057-.367 0-.317-.174-.667zm-1.159-.205h.258v.258h-.258zm-2.76-1.474h.317v2.68h-.317z"/><use y="50.054" x="12.854" xlink:href="#H"/><use y="14.301" x="9.877" xlink:href="#S"/><use y="50.055" x="13.491" xlink:href="#J"/><use y="50.054" x="1.887" xlink:href="#E"/><use y="7.151" x="6.842" xlink:href="#T"/><path d="M16.753 32.082q-.026-.072-.048-.157-.022-.086-.043-.26-.207.021-.348.136-.191.153-.188.26.003.071.157.114.155.043.47-.093zm-.115-.665q-.007-.067-.012-.141h.317q.003.289.064.589.036.174.133.31.053.076.246.076h.129v.317h-.224q-.155 0-.281-.088-.077-.053-.143-.155-.238.126-.506.126-.096 0-.196-.026-.326-.083-.326-.348 0-.298.351-.517.188-.117.448-.143zm-.016-.658h.258v.258h-.258zm-.431 0h.258v.258h-.258zm-2.372-.871h.317v2.68h-.317z"/><use y="50.054" x="2.728" xlink:href="#H"/><use y="50.055" x="4.43" xlink:href="#J"/><use y="50.054" x="-11.155" xlink:href="#D"/><use y="57.205" x="1.686" xlink:href="#A"/><use xlink:href="#U"/><path d="M4.864 32.42q-.133.148-.394.148h-.155v-.317h.06q.171 0 .246-.076.084-.084.084-.267v-.374h.317v.374q0 .183.084.267.076.076.246.076h.095v.317h-.189q-.258 0-.394-.148zm.086.407h.258v.258H4.95zm-.431 0h.258v.258h-.258z"/><use y="50.054" xlink:href="#L"/><use y="50.055" x="-9.725" xlink:href="#M"/><use y="64.356" x="12.351" xlink:href="#A"/><use y="57.205" x="-4.252" xlink:href="#C"/><use y="7.151" x="8.961" xlink:href="#U"/><use y="64.356" x="6.577" xlink:href="#A"/><path d="M13.003 38.566q.026.155.026.276 0 .233-.131.407-.221.295-.767.405-.491.1-.81.1-.329 0-.551-.065-.568-.167-.568-.629 0-.238.109-.396h.317q-.112.162-.112.396 0 .215.35.331.179.059.439.059.319 0 .775-.098.439-.093.555-.288.095-.16.095-.289 0-.102-.043-.207zm-1.388-.226h.258v.258h-.258zm-.431 0h.258v.258h-.258zm-3.121-1.558l.134-.031q-.076-.034-.103-.096-.028-.064-.028-.141 0-.165.096-.239.1-.078.258-.078.107 0 .196.057v.172q-.086-.057-.196-.057-.114 0-.143.031-.05.055-.05.1 0 .133.162.179.057.017.264-.033v.176l-.591.133zm.146.257h.317v2.68h-.317zm-.873 2.408q.017-.1.017-.224 0-.217-.091-.451h.317q.086.203.086.431 0 .141-.014.248-.079.603-.581.87-.489.26-1.044.26v-.317q.524 0 .873-.22.376-.238.436-.596zm-.086-1.364h.258v.258H7.25z"/><use y="57.205" x="-15.448" xlink:href="#D"/><use y="64.356" x="-2.606" xlink:href="#A"/><use y="57.205" x="-10.403" xlink:href="#G"/><path d="M9.16 46.552h.322q.408 0 .63-.109.322-.16.32-.277-.003-.233-.239-.265-.064-.009-.146-.009-.138 0-.348.14-.305.207-.539.52zm.436.317h-1.45v-.317h.46v-2.363h.317v2.181q.374-.55.849-.72.158-.057.276-.057.202 0 .382.067.32.119.32.524 0 .291-.317.479-.348.207-.837.207z"/><use y="35.753" x="2.766" xlink:href="#Q"/><path d="M6.566 46.721q-.133.148-.394.148h-.155v-.317h.06q.171 0 .246-.076.084-.084.084-.267v-.374h.317v.374q0 .183.084.267.076.076.246.076h.095v.317H6.96q-.258 0-.394-.148zm.086.407h.258v.258h-.258zm-.431 0h.258v.258h-.258z"/><path d="M5.2 46.551q-.334.319-.682.319h-.203v-.317h.165q.184 0 .298-.069.102-.062.171-.129-.167-.146-.284-.301-.052-.067-.052-.145 0-.053.022-.124.028-.095.207-.184.153-.078.358-.078.205 0 .358.078.179.09.207.184.022.071.022.124 0 .078-.052.145-.133.169-.284.301.053.053.171.129.105.069.298.069h.165v.317h-.203q-.348 0-.682-.319zm.096-.698q-.052-.012-.096-.012-.045 0-.096.012-.081.021-.081.076 0 .05.177.214.177-.164.177-.214 0-.055-.081-.076z"/><use y="64.356" xlink:href="#L"/><use y="71.506" x="11.946" xlink:href="#K"/><path d="M15.75 53.93q-.167.176-.407.176-.369 0-.558-.169-.11.083-.289.083h-.276v-.317h.2q.09 0 .165-.062.074-.06.083-.145.034-.312.267-.45.162-.096.322-.096.124 0 .238.05.332.143.362.431.009.084.096.191.062.076.246.076h.129v.317h-.224q-.303 0-.355-.084zm-.796-.253q.107.119.381.119.081 0 .114-.031.09-.091.09-.21 0-.033-.009-.064-.038-.152-.138-.181-.067-.021-.134-.021-.091 0-.162.047-.086.057-.112.224-.012.064-.029.117z"/><use y="35.754" x="-1.552" xlink:href="#R"/><use y="35.753" x="-1.552" xlink:href="#S"/><use y="57.205" x="4.06" xlink:href="#N"/><path d="M6.393 53.703h.322q.408 0 .63-.109.322-.16.32-.277-.003-.233-.239-.265-.064-.009-.146-.009-.138 0-.348.14-.305.207-.539.52zm.436.317h-1.45v-.317h.46V51.34h.317v2.181q.374-.55.849-.72.158-.057.276-.057.202 0 .382.067.32.119.32.524 0 .291-.317.479-.348.207-.837.207z"/><use y="71.506" x="-11.245" xlink:href="#F"/><use y="71.506" xlink:href="#L"/></g><defs><path d="M7.055-25.276v-2.041h.317v2.021q0 .183.084.267.076.076.246.076h.129v.317h-.224q-.265 0-.403-.158-.15-.174-.15-.481z" id="A"/><path d="M29.042-17.576q-.167.176-.42.176-.355 0-.544-.169-.11.083-.289.083h-.276v-.317h.2q.09 0 .164-.06.076-.062.084-.146.034-.312.267-.45.162-.096.301-.096.303 0 .46.145.167.153.167.47 0 .246-.114.365zm-.796-.253q.107.119.381.119.081 0 .114-.031.09-.091.09-.21 0-.129-.069-.195-.072-.071-.224-.071-.079 0-.158.052-.078.052-.103.219-.012.064-.029.117z" id="B"/><path d="M22.784-17.758q.017-.1.017-.224 0-.217-.091-.451h.317q.086.203.086.431 0 .141-.014.248-.079.603-.581.87-.489.26-1.044.26v-.317q.524 0 .873-.22.376-.238.436-.596z" id="C"/><path d="M21.154-17.634q-.124.148-.394.148h-.155v-.317h.06q.171 0 .246-.076.084-.084.084-.267v-.374h.317v.374q0 .322-.158.512zm.086.407h.258v.258h-.258zm-.431 0h.258v.258h-.258z" id="D"/><path d="M17.173-17.634q-.124.148-.394.148h-.155v-.317h.06q.171 0 .246-.076.084-.084.084-.267v-.374h.317v.374q0 .322-.158.512zm-.129.407h.258v.258h-.258z" id="E"/><path d="M15.98-19.209h.258v.258h-.258zm.129 1.574q-.133.148-.394.148h-.155v-.317h.06q.171 0 .246-.076.084-.084.084-.267v-.374h.317v.374q0 .183.084.267.076.076.246.076h.095v.317h-.189q-.258 0-.394-.148z" id="F"/><path d="M13.141-17.633v-.303q.081-.01.224-.053.117-.034.207-.091-.245-.041-.332-.172-.091-.136-.091-.281 0-.112.036-.241.052-.203.229-.312.171-.105.339-.105.189 0 .345.038v.319q-.172-.053-.293-.05-.088.002-.172.047-.165.083-.164.276 0 .198.345.284.098.024.198-.002.124-.033.224-.093v.319q-.155.103-.508.241-.398.155-.586.181z" id="G"/><path d="M10.426-18.125q0 .307-.15.481-.138.158-.403.158h-.224v-.317h.129q.171 0 .246-.076.084-.084.084-.267v-2.021h.317z" id="H"/><path d="M8.833-17.805q-.334.319-.682.319h-.203v-.317h.165q.184 0 .298-.069.102-.062.171-.129-.167-.146-.284-.301-.052-.067-.052-.145 0-.053.022-.124.028-.095.207-.184.153-.078.358-.078.205 0 .358.078.179.09.207.184.022.071.022.124 0 .078-.052.145-.133.169-.284.301.053.053.171.129.105.069.298.069h.165v.317h-.203q-.348 0-.682-.319zm.096-.698q-.052-.012-.096-.012-.045 0-.096.012-.081.021-.081.076 0 .05.177.214.177-.164.177-.214 0-.055-.081-.076zm-.226-.879h.258v.258h-.258z" id="I"/><path d="M7.124-18.434h.317q.052.193.057.245.017.177.143.31.072.076.246.076h.129v.317h-.224q-.224 0-.31-.107-.117.479-.549.708-.489.26-1.044.26v-.317q.524 0 .873-.22.376-.238.436-.596.017-.1.017-.224 0-.217-.091-.451z" id="J"/><path d="M5.379-18.411q.071-.074.071-.207 0-.102-.114-.189-.053-.043-.129-.041-.09.002-.158.074-.069.071-.071.158 0 .138.095.203.069.043.141.043.124 0 .165-.041zm-1.065.608h.415q.145 0 .405-.04.136-.021.239-.181.053-.083.079-.169-.109.095-.276.098-.224.003-.358-.115-.169-.15-.169-.372 0-.09.014-.165.04-.255.298-.374.134-.062.265-.062.155 0 .269.086.165.124.245.3.04.088.04.329 0 .358-.134.605-.127.234-.341.31-.188.067-.438.067h-.553zm.767-1.922h.258v.258h-.258z" id="K"/><path d="M3.622-17.972q-.026-.072-.048-.157-.022-.086-.043-.26-.207.021-.348.136-.191.153-.188.26.003.071.157.114.155.043.47-.093zm-.115-.665q-.007-.067-.012-.141h.317q.003.289.064.589.036.174.133.31.053.076.246.076h.129v.317H4.16q-.155 0-.281-.088-.077-.053-.143-.155-.238.126-.506.126-.096 0-.196-.026-.326-.083-.326-.348 0-.298.351-.517.188-.117.448-.143zm-.016-.658h.258v.258h-.258zm-.431 0h.258v.258H3.06z" id="L"/><path d="M29.977-10.653q.277 0 .625-.16-.129-.041-.219-.143-.152-.172-.152-.413 0-.455.351-.67.215-.133.648-.133v.291q-.376 0-.536.119-.16.117-.16.338 0 .219.107.308.143.121.264.121.095 0 .222-.057l.496-.222v.317l-.723.339q-.603.283-.91.283h-.152v-.317z" id="M"/><path d="M5.286-3.502q0-.131-.028-.229-.041-.138-.121-.189-.103-.071-.207-.026-.115.05-.138.146-.029.129.081.222.081.069.412.076zm.308 0h.424v.317h-.334l-.121-.002q-.043.269-.265.491-.143.143-.324.224-.331.148-.959.148v-.317q.622 0 .849-.131.289-.164.396-.419-.203-.005-.281-.017-.239-.041-.327-.115-.183-.153-.2-.386-.003-.053.014-.152.047-.267.35-.396.102-.043.214-.041.15.003.269.088.229.158.267.401.022.143.029.307z" id="N"/><path d="M8.168 3.327V1.285h.317v2.021q0 .183.084.267.076.076.246.076h.129v.317H8.72q-.265 0-.403-.158-.15-.174-.15-.481z" id="O"/><path d="M5.482 2.813q.026.155.026.276 0 .233-.131.407-.22.295-.767.405-.491.1-.81.1-.329 0-.551-.065-.568-.167-.568-.629 0-.238.109-.396h.317q-.112.162-.112.396 0 .215.35.331.179.059.439.059.319 0 .775-.098.439-.093.555-.288.095-.16.095-.289 0-.102-.043-.207zm-1.388-.226h.258v.258h-.258zm-.431 0h.258v.258h-.258z" id="P"/><path d="M4.864 10.968q-.133.148-.394.148h-.155v-.317h.06q.171 0 .246-.076.084-.084.084-.267v-.374h.317v.374q0 .183.084.267.076.076.246.076h.095v.317h-.189q-.258 0-.394-.148zm-.129.407h.258v.258h-.258z" id="Q"/><path d="M14.86 18.301q-.064.016-.124.016-.109 0-.203-.043-.236-.105-.267-.332-.083.269-.248.326-.117.041-.229.041-.169 0-.293-.084-.103-.069-.174-.195-.074.102-.171.158-.131.079-.301.079h-.224v-.317h.129q.171 0 .246-.076.138-.138.138-.31v-.331h.317v.269q0 .11.076.283.074.171.253.171.188 0 .264-.21.064-.177.064-.512h.317q0 .353.033.439.11.293.3.291.245-.003.245-.482v-.506h.317v.589q0 .167.143.31.076.076.246.076h.129v.317h-.224q-.25 0-.453-.165-.117.155-.305.2z" id="R"/><path d="M12.111 18.119q-.133.148-.394.148h-.155v-.317h.06q.171 0 .246-.076.084-.084.084-.267v-.374h.317v.374q0 .183.084.267.076.076.246.076h.095v.317h-.189q-.258 0-.394-.148zm.086-1.574h.258v.258h-.258zm-.431 0h.258v.258h-.258z" id="S"/><path d="M11.153 25.269q-.133.148-.394.148h-.155V25.1h.06q.171 0 .246-.076.084-.084.084-.267v-.374h.317v.374q0 .183.084.267.076.076.246.076h.095v.317h-.189q-.258 0-.394-.148zm.086.407h.258v.258h-.258zm-.431 0h.258v.258h-.258z" id="T"/><path d="M7.094 31.731q-.289.186-.539.52h.322q.408 0 .63-.109.32-.157.32-.277 0-.233-.239-.265-.064-.009-.146-.009-.131 0-.348.14zm-.103.837h-.475q-.127 0-.262-.072-.112-.06-.179-.165-.176.238-.472.238h-.224v-.317h.129q.171 0 .246-.076.138-.138.138-.31v-.196h.317v.134q0 .041.016.11.016.069.093.155.174-.231.338-.376.264-.236.512-.345.129-.057.276-.057.198 0 .382.067.32.117.32.524 0 .291-.317.479-.348.207-.837.207zm-.76-1.636h.258v.258h-.258z" id="U"/></defs></svg>