<svg xmlns="http://www.w3.org/2000/svg" xmlns:xlink="http://www.w3.org/1999/xlink" viewBox="0 0 56.9 5.4" height="20.409" width="215.055" xmlns:v="https://vecta.io/nano"><style><![CDATA[.K{fill:#917c6f}.L{font-size:3.528px}.M{font-family:Segoe Print}.N{word-spacing:0px}.O{writing-mode:lr-tb}]]></style><text letter-spacing="0" xml:space="preserve" x="114.134" y="-37.218" class="K L M N O"><tspan x="114.134" y="-37.218">адамдар</tspan><tspan x="114.134" y="-30.068">бөлме ғимарат жобалар</tspan><tspan x="114.134" y="-22.918">ғарыш тылсым әлем</tspan><tspan x="114.134" y="-15.767">гүлдер</tspan><tspan x="114.134" y="-8.617">өсімдіктер</tspan><tspan x="114.134" y="-1.466">қалыпталған кескіндер</tspan><tspan x="114.134" y="5.684">қолданыс заттары</tspan><tspan x="114.134" y="12.74">жаныуарлар</tspan><tspan x="114.134" y="19.89">өнер білім спорт</tspan><tspan x="114.134" y="26.946">art education sports</tspan><tspan x="114.134" y="34.107">美術教育スポーツ</tspan><tspan x="114.134" y="41.257">الرياضة التربية الفنية</tspan><tspan x="114.134" y="48.408">сән үлгілері</tspan><tspan x="114.134" y="55.558">тәбіиғат</tspan><tspan x="114.134" y="62.614">елмекен</tspan></text><text letter-spacing="0" xml:space="preserve" x="162.734" y="-37.24" class="K L M N O"><tspan x="162.734" y="-37.24">үи</tspan><tspan x="162.734" y="-30.09">пәтер</tspan><tspan x="162.734" y="-22.939">бөлме алаң</tspan><tspan x="162.734" y="-15.789">ғимарат</tspan><tspan x="162.734" y="-8.733">жер телімі</tspan><tspan x="162.734" y="-1.583">қызымет</tspan></text><text letter-spacing="0" xml:space="preserve" x="190.455" y="-37.864" class="K L M N O"><tspan x="190.455" y="-37.864">жеңіл</tspan><tspan x="190.455" y="-30.808">жолаушылар</tspan><tspan x="190.455" y="-23.658">жүк</tspan><tspan x="190.455" y="-16.507">қызыметтік</tspan><tspan x="190.455" y="-9.452">белсебет</tspan><tspan x="190.455" y="-2.396">мотосекл</tspan><tspan x="190.455" y="4.754">сұу</tspan><tspan x="190.455" y="11.905">әуе</tspan><tspan x="190.455" y="19.055">қызымет</tspan></text><text letter-spacing="0" xml:space="preserve" x="223.203" y="-37.768" class="K L M N O"><tspan x="223.203" y="-37.768">нан өнімдері</tspan><tspan x="223.203" y="-30.617">сұусын</tspan><tspan x="223.203" y="-23.467">кәмпит</tspan><tspan x="223.203" y="-16.411">торт</tspan><tspan x="223.203" y="-9.261">жеміс жидек көкөніс</tspan><tspan x="223.203" y="-2.11">қаинатпа</tspan><tspan x="223.203" y="5.04">тұздалған</tspan><tspan x="223.203" y="12.19">қызымет</tspan></text><text letter-spacing="0" xml:space="preserve" x="265.973" y="-37.893" class="K L M N O"><tspan x="265.973" y="-37.893">бас кіиім</tspan><tspan x="265.973" y="-30.742">үстіңгі</tspan><tspan x="265.973" y="-23.592">астыңғы</tspan><tspan x="265.973" y="-16.442">аиақ</tspan><tspan x="265.973" y="-9.386">спорт</tspan><tspan x="265.973" y="-2.33">балалар</tspan><tspan x="265.973" y="4.725">арнаиы</tspan><tspan x="265.973" y="11.876">қызымет</tspan></text><text letter-spacing="0" xml:space="preserve" x="288.034" y="-38.091" class="K L M N O"><tspan x="288.034" y="-38.091">ас үи</tspan><tspan x="288.034" y="-30.941">құрал</tspan><tspan x="288.034" y="-23.79">құрылғы</tspan><tspan x="288.034" y="-16.64">бақша</tspan><tspan x="288.034" y="-9.584">оиын</tspan><tspan x="288.034" y="-2.434">зат-қызымет</tspan></text><text letter-spacing="0" xml:space="preserve" x="319.277" y="-38.166" class="K L M N O"><tspan x="319.277" y="-38.166">әк үнтақ</tspan><tspan x="319.277" y="-31.111">боиау</tspan><tspan x="319.277" y="-23.96">түс қағаз</tspan><tspan x="319.277" y="-16.81">кірпіш тұтас бетон</tspan><tspan x="319.277" y="-9.659">ағаш пластік ұқсастар</tspan><tspan x="319.277" y="-2.509">метал көмпөзіт ұқсастар</tspan><tspan x="319.277" y="4.547">есік терезе</tspan><tspan x="319.277" y="11.697">су кәріз жылытыу ауа тораптары</tspan><tspan x="319.277" y="18.848">електр басқа желілер</tspan><tspan x="319.277" y="25.998">сәулет сәндеу жобалау</tspan><tspan x="319.277" y="33.149">қызымет</tspan></text><text letter-spacing="0" xml:space="preserve" x="391.499" y="-38.443" class="K L M N O"><tspan x="391.499" y="-38.443">тазартыу</tspan><tspan x="391.499" y="-31.293">әтір саулық</tspan><tspan x="391.499" y="-24.143">қызымет</tspan></text><text letter-spacing="0" xml:space="preserve" x="421.027" y="-38.187" class="K L M N O"><tspan x="421.027" y="-38.187">ас үи</tspan><tspan x="421.027" y="-31.036">қонақ</tspan><tspan x="421.027" y="-23.981">жатын</tspan><tspan x="421.027" y="-16.83">кеңсе</tspan><tspan x="421.027" y="-9.68">көпшілік</tspan><tspan x="421.027" y="-2.624">арнаиы</tspan><tspan x="421.027" y="4.526">қызымет</tspan><tspan x="421.027" y="18.732">дәптер</tspan><tspan x="421.027" y="25.883">кітәп</tspan><tspan x="421.027" y="32.939">жазыу сызыу</tspan><tspan x="421.027" y="39.994">боиау</tspan><tspan x="421.027" y="47.145">қағаз</tspan><tspan x="421.027" y="54.295">құрал</tspan><tspan x="421.027" y="61.445">қызымет</tspan><tspan x="421.027" y="75.651">ағаш</tspan><tspan x="421.027" y="82.802">шөп</tspan><tspan x="421.027" y="89.952">гүл</tspan><tspan x="421.027" y="97.103">саңырауқұлақ</tspan><tspan x="421.027" y="104.253">дәнді-дақыл</tspan><tspan x="421.027" y="111.404">қызымет</tspan><tspan x="421.027" y="125.61">үи жаныуары</tspan><tspan x="421.027" y="132.76">тәбіиғат жаныуары</tspan><tspan x="421.027" y="139.911">қызымет</tspan><tspan x="421.027" y="154.117">көмекші</tspan><tspan x="421.027" y="161.172">емдеу</tspan><tspan x="421.027" y="168.323">сымбат саулық</tspan><tspan x="421.027" y="175.473">заңгерлік</tspan></text><g class="K"><path d="M3.838 1.329h.289v.758q0 .345.317.978.317.634 1.171 1.075l-.152.289q-1.061-.551-1.447-1.667Q3.7 3.782 2.542 4.43l-.152-.262q1.447-.854 1.447-2.081zm1.832 8.76q-.22.358-.606.758-.372.386-.648.551-.041.11-.096.11-.028 0-.289-.234l.041-.083V8.628h.345l-.014 2.356.014.014q.524-.4 1.02-1.158zM3.41 9.8q0 .661-.179 1.047-.165.372-.579.689l-.22-.276q.634-.469.634-1.323v-.813l-.014-.427h.358zm5.389.399h-2.55v-.4h2.549zm3.748 1.171l-.303.138-.165-.358-2.453.193-.055-.345.372-.014.841-2.425.345.124-.827 2.288 1.626-.138-.565-1.02.289-.179q.289.441.896 1.736zm3.762-2.632l-.179.152q-.165-.276-.441-.482l.165-.152q.317.234.455.482zm-.317.22l-.179.152q-.165-.289-.427-.496l.165-.152q.289.22.441.496zm-.055 2.026v.358l-1.282.055q-.744 0-.91-.138-.152-.138-.152-.565l.014-2.095h.317V9.66q1.089-.317 1.681-.689l.207.289q-.703.386-1.888.744v.675q0 .276.083.331.083.055.62.055zm3.845-.895q-.22.358-.606.758-.372.386-.648.551-.041.11-.096.11-.028 0-.289-.234l.041-.083V8.628h.344l-.014 2.356.014.014q.524-.4 1.02-1.158zm-2.26-.289q0 .661-.179 1.047-.165.372-.579.689l-.221-.276q.634-.469.634-1.323v-.813l-.014-.427h.358zm5.884-1.062l-.207.138q-.124-.262-.372-.482l.179-.152q.276.248.4.496zm-.276.207l-.193.138q-.124-.262-.386-.496l.179-.138q.276.248.4.496zm-.469.11h-2.15v-.317h2.15zm.4.841h-1.199q0 .703-.22 1.034-.207.317-.882.565l-.22-.289q.634-.207.799-.455.165-.248.165-.854h-1.282v-.331h2.839zm3.005-.593q-.289.317-.703.634v1.543h-.331v-1.309l-.882.51-.207-.248q1.171-.579 1.874-1.337z"/><use xlink:href="#B"/><path d="M33.962 8.766l-.165.152q-.193-.248-.469-.441l.152-.165q.289.193.482.455zm-.661.496q-.234.937-.634 1.433-.386.496-1.13.841l-.207-.289q.661-.289 1.047-.73.386-.441.606-1.213l-.028-.028-1.24.028q-.248.482-.675.923l-.248-.22q.579-.551.923-1.53l.317.11-.165.4 1.158-.014.083-.069q.248.22.248.262 0 .041-.055.096zm.358-.289l-.179.165q-.179-.262-.455-.455l.152-.165q.331.234.482.455zm3.335.013l.055.069q0 .069-.096.124-.165 1.034-.648 1.557-.469.524-1.461.772l-.165-.303q.951-.248 1.351-.675.413-.441.565-1.351l-2.067.028v-.345l2.122-.014.055-.041q-.041-.083-.041-.179 0-.152.096-.262.11-.11.262-.11.152 0 .262.11.11.11.11.262 0 .358-.4.358zm-.138-.358q0 .165.165.165.179 0 .179-.165 0-.165-.179-.165-.165 0-.165.165zm3.597 2.784h-.331v-.179h-1.681v.179h-.331V8.835h2.343zm-.331-.51v-1.75h-1.681v1.75zm4.313-2.067l-.179.152q-.152-.276-.427-.496l.165-.152q.289.22.441.496zm-.386.138l-.193.152q-.152-.262-.427-.482l.165-.165q.303.248.455.496zm-1.24.096l-.193.289q-.386-.234-.951-.441l.138-.303q.593.22 1.006.455zm1.392.413q-.427.827-.992 1.282-.565.455-1.502.73l-.152-.317q.91-.248 1.419-.661.524-.427.951-1.24zm-1.681.413l-.11.317q-.358-.179-.992-.372l.083-.303q.524.11 1.02.358zm4.975 1.42H45.18v-.317h.992V9.786h-.868v-.303h2.04v.303h-.854v1.213h1.006zm3.5-2.053q-.248.951-.634 1.447-.386.482-1.13.827l-.207-.289q.661-.289 1.047-.73.386-.455.606-1.213l-.028-.028-1.24.028q-.262.482-.689.923l-.234-.22q.579-.551.923-1.53l.317.11-.165.4 1.158-.014.083-.069q.248.22.248.262 0 .041-.055.096zm3.721.73l-.124.289q-.717-.262-1.447-.413v1.612h-.331V8.532h.331v1.006q.91.179 1.571.455zM5.491 16.188v1.847h-.276v-.234H4.76v.951h-.276v-.951h-.469v.234h-.276v-1.847h.744v-.606h.276v.606zm-1.475.675h.469v-.413h-.469zm.744-.413v.413h.455v-.413zm-.744 1.089h.469v-.413h-.469zm.744-.413v.413h.455v-.413zm-2.301-1.13h.455l-.179-.317.262-.124.207.441h.4v.262l-.358.703.4.317-.179.234-.276-.289v1.543h-.262v-1.364q-.207.248-.4.372l-.165-.248q.579-.4.965-1.268h-.868zm4.603-.386l.124.234-.441.096v.579h.51v.248h-.51v.096l.4.482-.179.248-.22-.372v1.53h-.248v-1.309q-.165.413-.372.675l-.207-.207q.413-.482.551-1.144h-.482v-.248h.51v-.524l-.413.069-.096-.262zm.854-.028l.455.62-.234.179q-.179-.331-.441-.648zm-.221.785h.276v1.158q.413-.744.634-1.805l.248.096q-.317 1.475-.882 2.205v.289q0 .055.028.083.028.014.165.014.248 0 .276-.069.041-.069.055-.469l.262.083q-.028.496-.11.606-.096.11-.482.11-.262 0-.372-.055-.096-.055-.096-.303-.234.248-.496.413l-.138-.276q.358-.22.634-.551zm-.317.317l.234.083q-.138.744-.317 1.254l-.248-.138q.207-.593.331-1.199zm1.475.165q.193.469.317 1.034l-.248.11q-.124-.579-.303-1.034zm2.523-1.253l.276.055-.179.51h1.075q0 1.543-.083 2.067-.083.524-.496.524l-.427-.055-.069-.289.496.055q.124 0 .179-.11.055-.11.083-.593.028-.482.028-1.337h-.923q-.165.289-.358.482l-.207-.193q.413-.455.606-1.116zm.11 1.364q.207.303.344.675l-.262.124q-.138-.386-.345-.689zm-.772-.923v2.494h-.248v-.11h-.634v.207h-.248v-2.591h.303l.096-.455.289.055-.124.4zm-.248 1.061v-.799h-.634v.799zm-.634.262v.799h.634v-.799zm4.947-.924l-.717.055q-.317 1.061-.661 1.695l-.276-.152q.303-.565.606-1.53l-.51.014v-.303l.606-.014.124-.537.317.069-.124.455.634-.041zm1.309.138l-.179.262q-.372-.317-.951-.593l.152-.262q.455.207.978.593zm.041 1.626l-.165.276-.593-.289q-.083.482-.73.482-.744 0-.744-.51 0-.482.606-.482.276 0 .579.069l-.055-.965.317-.014.041 1.075q.4.138.744.358zm-1.047-.124q-.317-.096-.579-.096-.303 0-.303.179 0 .193.441.193.413 0 .441-.276zm3.06-2.521l.152.331h1.323v.634h-.276v-.386h-2.453v.386h-.276v-.634h1.378l-.138-.248zm-1.102 1.061h2.136v.262h-.923v.496h1.364v.262h-1.364v.799q-.014.317-.358.317l-.372-.028-.055-.276.386.028q.124 0 .124-.138v-.703H16.6v-.262h1.378v-.496h-.937zm4.63-1.061l.152.331h1.323v.634h-.276v-.386h-2.453v.386h-.276v-.634h1.378l-.138-.248zm1.199 1.158v2.04h-.276v-.179h-1.902v.179h-.276v-2.04h1.075v-.441h.276v.441zm-2.177.785h.799v-.524h-.799zm1.075-.524v.524h.827v-.524zm-1.075 1.337h.799v-.551h-.799zm1.075 0h.827v-.551h-.827zm3.596.275l-.138-.317q1.102-.138 1.102-1.102 0-.386-.303-.661-.303-.276-.772-.276.041.055.041.138 0 .372-.221 1.226-.22.854-.606.854-.289 0-.537-.317-.248-.317-.248-.744 0-.593.441-1.02.441-.427 1.102-.427.62 0 1.02.358.413.358.413.868 0 1.158-1.295 1.419zm-1.364-1.199q0 .317.152.537.152.22.289.22.179 0 .386-.799.207-.799.207-1.006 0-.083-.055-.083l-.124.028Q24 16.56 24 17.386zm3.142-.964h.455v-.689h.262v.689h.537v-.854h.248v.854h.675v-.854h.262v.854h.675v.262h-.675v1.185h-1.185v-1.185h-.537v1.599h2.356v.262h-2.618v-1.86h-.455zm2.177 1.185v-.923h-.675v.923zm1.681-1.916h2.439v1.475h-.496q.4.262.868.441l-.165.276q-.551-.248-1.089-.717h-.689q-.386.455-1.034.73l-.207-.262q.496-.165.868-.469h-.496zm.276.606h.799v-.345h-.799zm1.089-.345v.345h.799v-.345zm-1.089.951h.799v-.345h-.799zm1.089-.345v.345h.799v-.345zm-.813.992h.276q0 .524-.165.785-.152.262-.537.413l-.193-.248q.372-.138.496-.331.124-.193.124-.62zm1.116 0h.276v1.171h-.276z"/><use xlink:href="#C"/><path d="M8.564 23.377l-2.15-.028v-.331l2.15.028zm.179.744q-.234.758-.675 1.13-.441.358-1.406.537l-.179-.317q.896-.124 1.309-.427.427-.317.593-.882l-.014-.028-2.15-.014v-.331l2.232.028.083-.069q.303.234.303.289 0 .055-.096.083zm3.556-1.075q0 1.392-.345 1.929-.345.537-1.419.827l-.179-.317q.951-.179 1.254-.606.317-.427.317-1.516h-1.778v1.034h-.345v-1.351zm3.555 1.475h-2.549v-.4h2.549zm4.01-1.447l-.193.152q-.165-.276-.427-.482l.165-.152q.289.234.455.482zm-.317.22l-.179.152q-.165-.276-.441-.496l.179-.152q.303.248.441.496zm.041 2.329l-.276.22q-.606-.73-1.047-1.102-.51.62-1.406 1.075l-.221-.276q1.502-.717 1.984-2.095l-.028-.014-1.034.028h-.537v-.331h1.709l.069-.055q.276.193.276.234 0 .041-.055.096-.041.041-.055.096l-.289.634-.221.358q.565.455 1.13 1.13zM2.487 30.538h.372v-.634h.262v.634h.358v.262h-.358v.179l.386.606-.179.262-.207-.469v1.695h-.262v-1.447q-.11.372-.289.703l-.193-.193q.345-.593.455-1.337h-.345zm.992-.303h.854v-.317h.276v.317h.868v.248h-.868v.317h.703v1.916h.262v.234H3.3v-.234h.386V30.8h.648v-.317H3.48zm.482 1.061h1.075v-.262H3.962zm0 .482h1.075v-.276H3.962zm0 .469h1.075v-.262H3.962zm0 .469h1.075v-.262H3.962zm3.666-2.812l.262.055-.138.413h1.323q-.028 1.998-.152 2.329-.124.331-.482.331l-.4-.028-.041-.262.427.028q.22 0 .289-.565.069-.579.083-1.599h-.179q-.124 1.502-1.185 2.274l-.165-.22q.965-.703 1.075-2.053h-.248Q8 31.696 7.173 32.261l-.152-.207q.73-.51.827-1.447h-.207q-.179.372-.427.62l-.193-.193q.413-.455.606-1.13zm-1.488.152l.248.083-.069.441h.179v-.675h.289v.675h.276v.262h-.276v.772l.276-.179.041.262-.317.22v1.158h-.289v-1.006l-.455.22-.11-.276.565-.248v-.923h-.22l-.165.606-.221-.179q.179-.551.248-1.213zm-1.227 7.008q.152.152.262.345l-.248.11-.248-.345zm.496.524v.248h-.937q.041.772.221 1.295.193-.4.331-.978l.276.11q-.165.73-.469 1.226.22.455.345.455.11 0 .165-.4l.248.11q-.124.579-.413.579-.262 0-.537-.496-.262.317-.579.496l-.138-.276q.331-.193.579-.51-.248-.634-.303-1.612h-1.24v.579h.937q-.014.978-.096 1.24-.083.248-.303.248l-.303-.028-.041-.276.317.028q.069 0 .083-.069.014-.083.055-.91h-.648q0 .923-.331 1.543l-.248-.152q.303-.62.317-1.199v-1.254h1.488l-.028-.524h.289l.014.524z"/><path d="M6.042 37.202H7.71v.262h-.331v1.047h.372v.262h-.372v1.461h-.276v-1.461h-.469q0 .91-.496 1.461l-.22-.193q.441-.482.441-1.268h-.413v-.262h.413v-1.047h-.317zm1.061 1.309v-1.047h-.469v1.047zm1.585-1.419l.248.138q-.358.579-1.02.965l-.179-.234q.661-.427.951-.868zm.055.923l.262.152q-.345.537-1.02.91l-.179-.234q.606-.358.937-.827zm.138.882l.262.152q-.455.689-1.323 1.171l-.179-.234q.841-.496 1.24-1.089zm.62-1.709h3.128v.262H9.501zm.689.565h1.709v1.709H10.19zm.262.73h.469v-.496h-.469zm.73-.496v.496h.455v-.496zm-.73 1.24h.469v-.51h-.469zm.73-.51v.51h.455v-.51zm.992-.813h.289v2.329h-.289v-.22h-2.26v.22h-.289V37.89h.289v1.86h2.26zm1.517-.84l.276.083-.248.634v2.453h-.276v-1.929l-.345.482-.138-.276q.51-.689.73-1.447zm.937-.014l.248.069-.124.165h.813v.207l-.193.234h.606v.799h-1.034l-.069.096q.207.165.317.372.372-.179.634-.427l.22.179-.331.234q.138.62.469.868l-.207.234q-.345-.276-.496-.965l-.207.096q.055.207.055.441 0 .579-.427.579l-.331-.028-.069-.276.4.041q.165 0 .165-.317l-.014-.165q-.469.372-1.116.565l-.11-.234q.717-.207 1.185-.579l-.069-.152q-.4.303-.937.496l-.138-.234q.524-.165.951-.441l-.138-.124q-.262.207-.675.345l-.165-.234q.455-.138.73-.372h-.537v-.634l-.083.055-.152-.234q.579-.317.827-.661zm-.331.675h.744l.22-.22h-.717zm0 .551h.482q.096-.152.124-.303h-.606zm.882-.303l-.096.303h.634v-.303zm-12.444 6.28q.303.165.551.4l-.179.234q-.276-.262-.565-.441zm-.138.854l.51.345-.193.234q-.234-.234-.51-.386zm.317.868l.234.165q-.165.648-.482 1.254l-.276-.193q.331-.579.524-1.226zm1.419-1.764h.262v.841h.827v2.012q0 .331-.372.331l-.413-.028-.055-.262.455.028q.138 0 .138-.138v-.413H3.81v.813h-.248v-2.343h.772zm-.524 1.475h1.364v-.4H3.81zm0 .648h1.364v-.4H3.81zM3.7 44.28l.372.469-.207.165-.386-.482zm1.461 0l.262.083q-.165.331-.372.565l-.234-.138q.234-.262.345-.51zm.868.841h.469v-.317h-.496v-.276h.496v-.303h.262v.303h.51v.276h-.51v.317h.496v.248H6.76v.303h.537v.262H6.76v.152l.62.455-.193.248-.427-.4v1.02h-.262v-1.02q-.234.441-.469.661l-.138-.276q.331-.289.579-.841h-.524v-.262h.551v-.303h-.469zm2.742-.868l.179.193-.703.234v.537l.675-.165.028.248-.703.165v.565l.744-.165.028.248-.772.165v.689q0 .124.234.124.248 0 .303-.055.055-.055.069-.358l.276.083q-.041.413-.138.51-.096.083-.51.083-.345 0-.427-.069-.083-.055-.083-.234v-.717l-.524.11-.041-.248.565-.11v-.551l-.469.11-.041-.248.51-.124v-.537l-.455.083-.11-.234q.827-.11 1.364-.331zm1.116.11h2.343v1.199H9.887zm.276.937h1.805v-.675h-1.805zm.744.537v1.557h-.262v-.207H9.86v.207h-.262v-1.557zM9.86 46.94h.786v-.854H9.86zm2.646-1.102v1.557h-.262v-.207h-.772v.207h-.262v-1.557zm-1.034 1.102h.772v-.854h-.772zm-7.221 5.052h.345v-.606h.276v.606h.661q0 1.406-.055 1.971-.055.551-.358.551l-.386-.055-.055-.262.4.055q.083 0 .124-.22.041-.234.055-1.778h-.386q-.014 1.654-.606 2.301l-.207-.207q.524-.593.537-2.095h-.345zM3.92 51.4l.138.234-.634.083v.193h.717v.248h-.717v.193h.606v1.185h-.606v.193h.62v.248h-.62v.22l.579-.055.028.248-1.585.152-.041-.248.758-.083v-.234h-.648v-.248h.648v-.193h-.62v-1.185h.62v-.193h-.73v-.248h.73v-.165l-.593.028-.083-.248q.717 0 1.433-.124zm-1.102 1.419h.345v-.22h-.345zm.606-.22v.22h.345v-.22zm-.606.689h.345v-.234h-.345zm.606-.234v.234h.345v-.234z"/><path d="M7.627 51.386l.262.055-.138.413h1.323q-.028 1.998-.152 2.329-.124.331-.482.331l-.4-.028-.041-.262.427.028q.22 0 .289-.565.069-.579.083-1.599h-.179q-.124 1.502-1.185 2.274l-.165-.22q.965-.703 1.075-2.053h-.248Q8 53.178 7.173 53.743l-.152-.207q.73-.51.827-1.447h-.207q-.179.372-.427.62l-.193-.193q.413-.455.606-1.13zm-1.488.152l.248.083-.069.441h.179v-.675h.289v.675h.276v.262h-.276v.772l.276-.179.041.262-.317.22v1.158h-.289V53.55l-.455.22-.11-.276.565-.248v-.923h-.22l-.165.606-.221-.179q.179-.551.248-1.213zm-1.516 7.009l.303.083-.276.358h.73v.262H4.14v.289h1.13v.262H4.14v.289h1.337v.248H2.528v-.248h1.323v-.289h-1.13v-.262h1.13v-.289H2.597v-.262h.758l-.234-.303.234-.152.345.455h.634zm-2.191 2.108h1.392l.069-.262.276.041-.055.22h1.461v.248h-1.24q.345.386 1.24.537l-.138.276q-1.02-.234-1.419-.813-.303.606-1.475.785l-.124-.262q.965-.138 1.268-.524H2.432z"/><path d="M6.525 58.547l.234.124q-.248.551-.648.896l-.165-.22q.386-.358.579-.799zm.069.772l.234.124-.276.551v1.723H6.29v-1.351l-.22.248-.165-.234q.469-.496.689-1.061zm1.626-.579h.841v.262H8.22zm-.083.896h.992v.262h-.234v1.447q0 .22-.083.276-.083.069-.51.069l-.041-.262.262.014q.11 0 .11-.138v-1.406h-.496zm-1.268-.358h.469v-.717h.248v.717h.441v.248h-.441v.179l.565.758-.193.276-.372-.703v1.681h-.248v-1.599q-.207.675-.469 1.006l-.207-.193q.386-.496.565-1.406h-.358zm.992-.675l.179.413-.22.096-.165-.413zm2.012 1.294h.193l.303-.303h-.882v-.234h.62v-.303h-.482v-.234h.482v-.289h.262v.289h.413v.234h-.413v.303h.207l.455-.606.234.124-.358.482h.234v.234h-.427l-.262.303h.482v.248l-.427.413v.165l.606-.138.041.248-.648.152v.427q0 .276-.386.276l-.276-.041-.041-.262q.11.041.262.041.152 0 .152-.055v-.331l-.675.124-.055-.276.73-.11v-.358l.372-.303h-.386l-.62.496-.152-.22.441-.331zm1.778-.772h.923v.262h-.152q-.083.965-.386 1.461.248.331.634.606l-.207.262q-.317-.262-.593-.62-.276.372-.675.634l-.193-.248q.413-.248.689-.648l-.358-.744-.11.234-.221-.165q.345-.73.496-1.612l.276.083zm.496.262h-.565l-.096.317q.165.496.372.854.179-.386.262-.937v-.014zm3.569.565v1.447q0 .317-.413.317l-.427-.041-.069-.248.482.041q.179 0 .179-.124v-.193h-1.764v.565h-.276v-1.764zm-2.012.496h1.764V60.2h-1.764zm0 .469h1.764v-.234h-1.764zm.965-2.398l.152.303h1.24v.262h-1.736q-.234.317-.482.482l1.461-.152-.152-.124.234-.165.593.551-.22.179-.22-.234q-1.02.138-2.164.193l-.069-.22q.4-.179.703-.51h-.91v-.262h1.406l-.124-.22zm4.92 2.908l-.276.22q-.606-.73-1.047-1.102-.51.62-1.406 1.075l-.221-.276q1.502-.717 1.984-2.095l-.028-.014-1.034.028h-.537v-.331h1.709l.069-.055q.276.193.276.234 0 .041-.055.096-.041.041-.055.096l-.289.634-.221.358q.565.455 1.13 1.13zm2.88-2.605q0-.152.11-.262.11-.11.262-.11.152 0 .248.11.11.11.11.262 0 .152-.11.262-.096.096-.248.096-.152 0-.262-.096-.11-.11-.11-.262zm.207 0q0 .165.165.165.165 0 .165-.165 0-.165-.165-.165-.165 0-.165.165zm.4.717h-1.282v1.695q-.014.372-.427.372l-.331-.041-.041-.345.372.055q.11 0 .11-.138v-1.599h-1.268v-.331l1.254.014v-.551h.331v.551h1.282zm.096 1.612l-.276.193q-.496-.758-.758-1.543l.303-.11q.248.73.73 1.461zm-2.108-1.323q-.207.896-.661 1.53l-.289-.179q.413-.565.648-1.447zm5.374.497h-2.549v-.4h2.549zm2.508-.51l-.289.165-.524-.978.276-.165zm1.171-.744q-.165 1.226-.579 1.75-.413.51-1.475.827l-.165-.317q.923-.234 1.309-.675.4-.441.579-1.64zm-2.026 1.034l-.289.179-.537-.978.276-.165z"/><use xlink:href="#C" y="42.965"/><path d="M8.647 66.879q-.289.482-.758.854l-.22-.234q.455-.386.634-.62l-.014-.014-1.86.041v-.303l2.026-.028.069-.041q.207.193.207.234 0 .069-.083.11zm-1.02.193v.551q-.014.482-.193.73-.179.248-.703.455l-.152-.289q.427-.138.579-.331.152-.207.152-.593v-.524zm3.652.262l-.289.152q-.165-.413-.413-.799l.276-.165q.303.482.427.813zm.937-.703q-.083.868-.234 1.199-.138.317-.455.551-.317.234-.978.413l-.152-.317q1.158-.234 1.35-1.034l.124-.868zm-1.599.937l-.303.152q-.165-.441-.413-.799l.276-.138q.221.276.441.785zm3.969-1.213l-.193.289q-.386-.234-.951-.441l.138-.303q.593.22 1.006.455zm1.392.413q-.427.827-.992 1.282-.565.455-1.502.73l-.152-.317q.91-.248 1.419-.661.524-.427.951-1.24zm-1.681.413l-.11.317q-.358-.179-.992-.372l.083-.303q.524.11 1.02.358zm4.754 1.572h-.303v-.124h-1.585v-.317h1.585v-.579h-1.461v-.317h1.461v-.482h-1.543v-.317h1.847z"/><use xlink:href="#B" x="-7.055" y="57.286"/><path d="M26.534 68.298l-.041.358-.841.028q-.62 0-.799-.124-.179-.11-.179-.4l.014-.827h-.882l.014-.317h.882l.014-.661h-.786v-.317h2.425v.317h-1.309l-.014.661h1.475v.317h-1.475l-.014.799q0 .152.055.193.069.028.51.028.648 0 .951-.055zm3.928-2.273l-.207.138q-.124-.262-.372-.482l.179-.152q.276.248.4.496zm-.276.207l-.193.138q-.124-.262-.386-.496l.179-.138q.276.248.4.496zm-.469.11h-2.15v-.317h2.15zm.4.841h-1.199q0 .703-.221 1.034-.207.317-.882.565l-.22-.289q.634-.207.799-.455.165-.248.165-.854h-1.282v-.331h2.839zm3.776.192q-.221.358-.606.758-.372.386-.648.551-.041.11-.096.11-.028 0-.289-.234l.041-.083v-2.563h.345l-.014 2.356.014.014q.524-.4 1.02-1.158zm-2.26-.289q0 .661-.179 1.047-.165.372-.579.689l-.22-.276q.634-.469.634-1.323v-.813l-.014-.427h.358zM3.727 72.855l.317.069-.152.345h1.364v2.77H4.98v-.276H3.011v.276h-.276v-2.77h.841q.11-.193.152-.413zm-.717 1.158h1.971v-.482h-1.97zm0 .744h1.971v-.482h-1.97zm0 .744h1.971v-.482h-1.97zm5.651-.276q.262.289.427.634l-.289.124q-.152-.345-.4-.634zm-2.246.069l.248.138q-.234.386-.469.606l-.234-.207q.276-.248.455-.537zm1.475 0q.179.262.303.565l-.276.124q-.11-.331-.276-.579zm-.648.055q.096.276.124.551l-.289.083-.11-.565zm-.606-2.481l.248.069-.096.262h.73q-.124 1.475-1.213 2.04l-.165-.248q.896-.413 1.075-1.543H6.69l-.069.11.4.289-.179.193-.345-.262-.096.152.4.372-.179.207q-.179-.22-.386-.372l-.11.124-.179-.193q.441-.482.689-1.199zm.896.703h.51l.014-.689h.262l-.014.689h.675v.248H8.4q.124.717.689 1.144l-.179.234q-.469-.386-.689-1.034-.179.675-.841 1.034l-.124-.22q.675-.386.758-1.158h-.482zm1.116-.661l.317.386-.22.165-.289-.413zm-5.913 7.147q.303.165.551.4l-.179.234q-.276-.262-.565-.441zm-.138.854l.51.345-.193.234q-.234-.234-.51-.386zm.317.868l.234.165q-.165.648-.482 1.254l-.276-.193q.331-.579.524-1.226zM3.3 81.6h.868l.014-.744h-.689v-.262h.689v-.565h.276v.565h.799V81.6h.317v.262h-.992q.317.689 1.047 1.075l-.207.262q-.717-.455-1.061-1.185-.234.717-.965 1.185l-.248-.193q.772-.496.965-1.144H3.3zm1.681 0v-.744h-.524l-.014.744zm2.343-1.033q.22.248.579.427.345-.193.482-.469H6.828v-.234h.951l-.096-.193.276-.083.124.276h1.006v.234h-.4q-.138.345-.496.565.303.11.896.138l-.083.276q-.675-.028-1.13-.22-.4.193-.937.276l-.138-.248q.469-.055.799-.179h-.014q-.289-.193-.482-.427zm-.152 1.006h.262v.193h1.061v-.193h.262v1.626h-.262v-.648h-1.13q-.11.413-.51.634l-.179-.234q.303-.152.413-.441.083-.193.083-.937zm.234.758h1.089V82H7.434l-.014.096zm-1.144-2.274q.262.138.482.331l-.193.22-.482-.358zm-.138.854l.51.345-.193.234q-.234-.234-.51-.386zm.482.841l.234.152q-.221.661-.62 1.282l-.262-.193q.4-.593.648-1.24z"/></g><defs ><path id="B" d="M28.532 9.345l-.207.289q-.469-.358-1.02-.675l.179-.276q.593.317 1.047.661zm1.557-.069q-.386 1.02-.951 1.488-.551.469-1.695.689l-.083-.345q1.034-.165 1.543-.579.524-.427.882-1.378z"/><path id="C" d="M5.202 23.501q-.179 1.034-.661 1.557-.469.524-1.447.772l-.179-.303q.965-.248 1.364-.675.4-.441.565-1.351l-2.067.028v-.345l2.108-.014.083-.055q.317.22.317.262 0 .069-.083.124z"/></defs></svg>