<?xml version="1.0" encoding="UTF-8"?>
<!DOCTYPE svg PUBLIC "-//W3C//DTD SVG 1.1//EN" "http://www.w3.org/Graphics/SVG/1.1/DTD/svg11.dtd">
<!-- Creator: CorelDRAW 2020 -->
<svg xmlns="http://www.w3.org/2000/svg" xml:space="preserve" width="338.267mm" height="198.612mm" version="1.1" style="shape-rendering:geometricPrecision; text-rendering:geometricPrecision; image-rendering:optimizeQuality; fill-rule:evenodd; clip-rule:evenodd"
viewBox="0 0 37555.22 22050.36"
 xmlns:xlink="http://www.w3.org/1999/xlink"
 xmlns:xodm="http://www.corel.com/coreldraw/odm/2003">
 <defs>
  <style type="text/css">
   <![CDATA[
    .str2 {stroke:#00A0E3;stroke-width:78.34;stroke-miterlimit:22.9256;stroke-opacity:0.501961}
    .str0 {stroke:#B2AD81;stroke-width:39.17;stroke-miterlimit:22.9256;stroke-opacity:0.501961}
    .str1 {stroke:#FFF383;stroke-width:391.66;stroke-miterlimit:22.9256;stroke-opacity:0.501961}
    .str4 {stroke:#B2AD81;stroke-width:22.2;stroke-miterlimit:22.9256;stroke-opacity:0.501961}
    .str3 {stroke:#E31E24;stroke-width:78.34;stroke-miterlimit:22.9256;stroke-dasharray:156.674610 78.337305;stroke-opacity:0.501961}
    .fil1 {fill:none}
    .fil2 {fill:#86755D;fill-rule:nonzero}
    .fil0 {fill:#DCCF73;fill-opacity:0.501961}
    .fil4 {fill:#E31E24;fill-opacity:0.501961}
    .fil3 {fill:#008DD2;fill-opacity:0.501961}
   ]]>
  </style>
   <clipPath id="id0">
    <rect x="3539.2" width="30079.62" height="19551.75"/>
   </clipPath>
 </defs>
 <g id="Layer_x0020_1">
  <metadata id="CorelCorpID_0Corel-Layer"/>
  <g style="clip-path:url(#id0)">
   <image id="Аннотация_x0020_2020-04-15_x0020_004434.jpg" x="3539.2" y="0" width="30079.62" height="19551.75" xlink:href="21_Images\21_ImgID1.png"/>
  </g>
  <polygon class="fil0 str0" points="15487.31,15478.21 14642.78,15727.9 14268.26,14619.01 16361.21,13965.42 17304.86,17031.4 16129.88,17427.96 "/>
  <line class="fil1 str1" x1="34276.13" y1="7256.95" x2="36846.42" y2= "15525.93" />
  <path class="fil2" d="M35630.31 10025.25l2.86 53.65c-43.99,2.28 -80.77,-6.81 -110.51,-27.13 -29.75,-20.34 -50.73,-50 -62.83,-89.02 -12.51,-40.33 -14.49,-75.69 -5.84,-106.13 8.56,-30.4 26.43,-57 53.5,-79.84 27.16,-22.88 58.53,-39.89 94.32,-50.99 39.01,-12.1 75.35,-15.23 109.06,-9.33 33.7,5.91 62.35,20.27 85.98,43.08 23.63,22.82 40.53,50.78 50.77,83.77 11.65,37.54 11.9,72 0.69,103.42 -11.17,31.51 -32.45,57.62 -63.89,78.38l-26.65 -45.14c24.56,-17.08 40.53,-35.9 47.81,-56.25 7.36,-20.37 7.13,-43.07 -0.64,-68.11 -8.9,-28.71 -23.28,-50.67 -43.05,-65.68 -19.77,-15.01 -42.59,-22.87 -68.22,-23.43 -25.73,-0.63 -50.96,2.9 -75.66,10.56 -31.85,9.88 -58.26,23.14 -79.14,39.76 -20.96,16.64 -34.21,36.54 -39.92,59.75 -5.73,23.2 -5.02,46.14 2.04,68.92 8.62,27.76 23.9,48.66 45.83,62.91 22.02,14.22 49.79,19.86 83.5,16.86zm-9.75 313.14c-19.87,-12.59 -35.21,-25.92 -46.13,-39.85 -10.92,-13.93 -19.14,-29.94 -24.77,-48.09 -9.27,-29.86 -9.15,-55.07 0.46,-75.64 9.5,-20.56 25.6,-34.35 48.21,-41.37 13.27,-4.12 26.36,-4.83 39.21,-2.21 12.9,2.69 24.09,7.93 33.76,15.64 9.68,7.8 18.16,17.24 25.38,28.49 5.17,8.35 11.69,21.35 19.62,38.89 15.91,35.83 29.77,61.67 41.31,77.32 6.34,-1.77 10.38,-2.93 12.05,-3.44 18.67,-5.8 30.5,-14.26 35.47,-25.37 6.73,-15 6.44,-34.14 -0.77,-57.35 -6.74,-21.74 -15.55,-36.62 -26.36,-44.55 -10.81,-8.03 -26.6,-11.46 -47.53,-10.42l-7.68 -46.98c20.56,-1.88 38.28,0 53.07,5.75 14.79,5.74 28.1,16.54 40.08,32.34 11.87,15.74 21.51,35.43 28.77,58.82 7.19,23.21 10.37,43 9.39,59.27 -1,16.2 -4.47,29.04 -10.66,38.42 -6.18,9.38 -15.17,17.43 -26.97,24.15 -7.38,3.92 -21.28,9.09 -41.62,15.4l-61.1 18.95c-42.69,13.24 -69.37,22.57 -80.2,28.03 -10.86,5.38 -20.57,12.61 -29.32,21.45l-14.94 -48.18c8.26,-7.63 18.69,-14.12 31.27,-19.46zm100.99 -35.34c-12,-14.65 -25.56,-38 -40.68,-70.06 -8.6,-18.2 -15.82,-30.69 -21.67,-37.48 -5.84,-6.81 -12.68,-11.29 -20.46,-13.56 -7.88,-2.25 -15.8,-2.18 -23.83,0.31 -12.13,3.76 -20.91,11.56 -26.13,23.41 -5.23,11.85 -5.1,26.73 0.46,44.63 5.5,17.72 14.23,32.33 26.3,43.81 11.97,11.39 25.69,18.33 41.04,20.65 11.95,1.75 27.97,-0.54 48.14,-6.79l16.83 -4.93zm172.06 75.33l14.3 46.09 -207.31 64.3 247.04 63.74 15.34 49.49 -271.8 84.31 -14.3 -46.09 205.99 -63.89 -245.66 -63.98 -15.4 -49.66 271.8 -84.31zm149.95 128.01l9.74 31.42c-22.35,4.16 -41.37,1.45 -56.94,-8.07 -15.68,-9.49 -26.82,-25.08 -33.56,-46.81 -6.77,-21.82 -6.43,-41.07 0.97,-57.61 7.49,-16.59 21.65,-29.59 42.6,-38.86l9.75 31.42c-11.07,6.01 -18.39,13.54 -21.95,22.4 -3.66,8.89 -3.55,19.37 0.16,31.34 4.31,13.88 10.34,23.48 18.21,28.79 7.78,5.34 18.16,7.38 31.04,5.97zm21.06 423.28l14.3 46.07 -271.8 84.32 -14.3 -46.09 271.8 -84.31zm-79.76 -257.15l14.29 46.09 -106.31 32.98 18.04 58.12c11.77,37.98 13.48,69.4 5.1,94.49 -8.39,25.09 -25.56,41.61 -51.48,49.65 -22.7,7.04 -44.73,4.5 -66.18,-7.61 -21.46,-12.09 -37.96,-36.93 -49.63,-74.55l-35.64 -114.85 271.82 -84.32zm-219.81 118.7l15 48.35c9.02,29.07 19.06,48.83 30.06,59 11.04,10.27 24.14,12.99 39.31,8.28 11.79,-3.66 20.83,-11.52 27.24,-23.56 6.28,-12.1 4.61,-33.87 -5.16,-65.38l-16.9 -54.47 -89.56 27.78zm336.1 256.18l14.3 46.09 -113.13 35.09 39.65 127.78 113.12 -35.08 14.29 46.09 -271.8 84.31 -14.29 -46.09 120.45 -37.36 -39.65 -127.79 -120.45 37.36 -14.29 -46.09 271.8 -84.31zm134.67 434.15l14.3 46.1 -117.31 36.38c4.54,14.65 10.52,24.1 18.04,28.27 7.41,4.12 26.4,7.7 57.12,10.79 24.29,2.43 40.71,5.37 49.25,8.85 8.57,3.56 15.2,8.58 19.82,15.18 4.67,6.69 9.55,18.1 14.56,34.25l2.88 9.25 -37.98 11.78 -3.71 -12.91c-3.76,-12.12 -8.02,-19.33 -12.65,-21.63 -4.86,-2.42 -17.74,-4.44 -38.6,-6.02 -19.98,-1.45 -34.26,-4.01 -42.89,-7.75 -8.59,-3.64 -17.59,-10.71 -27.01,-21.08 0.82,21.47 -11.54,46.73 -37.18,75.73l-68.55 76.66 -15.71 -50.62 68.51 -75.88c13.91,-15.32 22.37,-27.51 25.49,-36.6 3.08,-9.19 3.02,-18.94 -0.2,-29.32l-125.69 38.99 -14.3 -46.1 271.8 -84.31zm12.61 507.34c-63.28,19.63 -112.65,12.55 -147.94,-21.28 -17.26,-16.46 -29.55,-36.67 -36.91,-60.42 -12.78,-41.19 -9.16,-77.34 10.88,-108.34 18.73,-28.77 49.18,-49.69 91.33,-62.77 50.2,-15.58 91.7,-13.13 124.54,7.29 27.32,17.08 46.15,42.33 56.57,75.93 12.4,39.98 8.95,75.41 -10.33,106.45 -18.3,29.51 -47.65,50.58 -88.14,63.14zm7.13 -55.03c21.02,-9.68 36.07,-22.19 45.15,-37.36 12.46,-20.61 15.09,-42.38 7.96,-65.34 -7.19,-23.2 -21.72,-39.76 -43.62,-49.62 -16.09,-7.45 -35.59,-9.25 -58.39,-5.32l48.89 157.63zm-37.38 12.73l-49.55 -159.72c-25.75,9.51 -45,23.05 -57.62,40.65 -14.33,20.13 -17.52,42.83 -9.73,67.98 7.77,25.06 23.33,41.86 46.64,50.12 20.14,7.25 43.59,7.53 70.25,0.98zm179.72 57.47l14.29 46.09 -233.58 72.45 32.5 104.74 233.58 -72.45 14.29 46.09 -233.58 72.45 32.5 104.75 233.58 -72.45 14.29 46.07 -271.8 84.32 -107.87 -347.74 271.82 -84.31zm3.5 660.94l8.52 49.6c-29.99,1.17 -55.84,-6.03 -77.39,-21.53 -21.56,-15.52 -37.26,-38.98 -47.03,-70.48 -12.29,-39.63 -9.83,-74.85 7.42,-105.65 17.15,-30.78 47.85,-53.02 91.93,-66.69 45.56,-14.13 84.63,-13.43 117.05,2.25 32.52,15.65 54.53,42.22 66.15,79.66 11.24,36.23 8.12,69.63 -9.47,100.25 -17.6,30.62 -48.75,52.91 -93.53,66.8 -2.71,0.84 -6.83,2.03 -12.31,3.53l-62.78 -202.42c-29.22,10.98 -49.48,26.45 -60.57,46.54 -11.11,20.01 -13.18,41.41 -6.17,64.02 5.23,16.84 14.16,29.86 26.72,38.97 12.62,9.2 29.77,14.22 51.48,15.13zm27.07 -173.74l46.94 151.36c22.25,-9.1 37.55,-20.25 46.03,-33.32 13.2,-20.07 16.2,-41.86 8.97,-65.16 -6.55,-21.13 -19.13,-36.65 -37.73,-46.66 -18.59,-9.94 -39.99,-12 -64.22,-6.22zm72.38 453.59l7.68 46.98c-32.52,4.64 -60.6,-0.44 -84.45,-15.32 -23.85,-14.9 -40.35,-37.25 -49.53,-66.84 -11.5,-37.1 -8.64,-70.71 8.64,-100.76 17.26,-30.13 48.51,-52.16 93.72,-66.19 29.32,-9.09 56.41,-12.13 81.41,-9.28 24.91,2.9 45.99,12.53 63.07,29.05 17.15,16.39 29.33,36.26 36.58,59.65 9.13,29.41 9.2,55.89 0.08,79.19 -9.1,23.4 -26.58,42.02 -52.37,55.77l-20.61 -42.41c16.92,-9.94 28.29,-21.68 34.16,-35.47 5.81,-13.67 6.36,-28.2 1.6,-43.57 -7.21,-23.2 -21.34,-39.49 -42.44,-48.93 -21.16,-9.31 -49.59,-8.44 -85.56,2.72 -36.48,11.32 -60.76,26.5 -72.93,45.59 -12.13,19.16 -14.77,39.99 -7.8,62.42 5.63,18.15 15.81,31.54 30.63,40.16 14.77,8.73 34.16,11.12 58.12,7.24zm249.27 15.11l52.37 -16.24 14.3 46.09 -52.38 16.24 -14.29 -46.09zm-322.61 100.08l271.8 -84.31 14.29 46.09 -271.8 84.31 -14.29 -46.09z"/>
  <line class="fil1 str1" x1="187.01" y1="6361.98" x2="2757.29" y2= "14630.96" />
  <path class="fil2" d="M1702.17 8744l14.11 44.99 -296.64 93.09 359.22 106.33 15.41 49.08 -374.6 117.56 -14.11 -44.99 295.84 -92.85 -358.27 -106.06 -15.57 -49.6 374.6 -117.55zm148.58 158.53l9.86 31.39c-22.34,4.23 -41.37,1.58 -56.97,-7.88 -15.71,-9.44 -26.9,-24.99 -33.72,-46.71 -6.85,-21.79 -6.56,-41.03 0.78,-57.61 7.44,-16.61 21.54,-29.65 42.45,-38.99l9.85 31.39c-11.02,6.05 -18.33,13.61 -21.86,22.48 -3.63,8.88 -3.5,19.38 0.24,31.34 4.35,13.86 10.44,23.44 18.32,28.72 7.79,5.32 18.19,7.32 31.04,5.87zm-317.63 494.97c-19.92,-12.52 -35.29,-25.8 -46.26,-39.69 -10.97,-13.9 -19.24,-29.88 -24.94,-48.02 -9.36,-29.83 -9.31,-55.03 0.21,-75.64 9.44,-20.59 25.49,-34.44 48.07,-41.52 13.26,-4.16 26.33,-4.92 39.21,-2.34 12.9,2.65 24.1,7.85 33.81,15.53 9.7,7.77 18.22,17.19 25.48,28.4 5.2,8.33 11.76,21.32 19.74,38.82 16.03,35.78 29.96,61.58 41.57,77.18 6.34,-1.79 10.37,-2.96 12.03,-3.49 18.65,-5.85 30.44,-14.34 35.39,-25.48 6.67,-15.02 6.32,-34.16 -0.95,-57.35 -6.82,-21.72 -15.69,-36.56 -26.51,-44.46 -10.84,-7.98 -26.65,-11.37 -47.56,-10.26l-7.84 -46.96c20.55,-1.94 38.27,-0.13 53.08,5.56 14.81,5.7 28.16,16.45 40.19,32.22 11.92,15.7 21.63,35.35 28.97,58.72 7.27,23.19 10.51,42.97 9.58,59.24 -0.94,16.21 -4.37,29.07 -10.52,38.46 -6.15,9.4 -15.11,17.49 -26.89,24.25 -7.37,3.94 -21.25,9.16 -41.57,15.53l-61.04 19.15c-42.63,13.39 -69.28,22.8 -80.1,28.31 -10.84,5.41 -20.54,12.67 -29.25,21.54l-15.1 -48.14c8.23,-7.66 18.63,-14.18 31.21,-19.56zm100.87 -35.68c-12.06,-14.61 -25.69,-37.9 -40.91,-69.91 -8.67,-18.16 -15.93,-30.63 -21.79,-37.41 -5.86,-6.78 -12.72,-11.24 -20.52,-13.49 -7.88,-2.22 -15.8,-2.12 -23.81,0.4 -12.12,3.8 -20.87,11.62 -26.06,23.49 -5.2,11.87 -5.02,26.76 0.6,44.64 5.55,17.7 14.34,32.27 26.45,43.71 12,11.36 25.76,18.25 41.11,20.52 11.95,1.72 27.97,-0.63 48.12,-6.95l16.82 -5zm55.84 306.13l7.84 46.96c-32.52,4.75 -60.61,-0.23 -84.51,-15.04 -23.9,-14.82 -40.47,-37.11 -49.75,-66.67 -11.64,-37.06 -8.87,-70.69 8.3,-100.79 17.16,-30.2 48.34,-52.32 93.5,-66.5 29.29,-9.19 56.38,-12.32 81.39,-9.55 24.92,2.81 46.02,12.38 63.16,28.84 17.2,16.33 29.45,36.16 36.78,59.52 9.23,29.39 9.39,55.87 0.33,79.2 -9.03,23.43 -26.43,42.11 -52.18,55.93l-20.75 -42.33c16.89,-10 28.22,-21.78 34.05,-35.58 5.75,-13.69 6.27,-28.22 1.45,-43.58 -7.28,-23.18 -21.47,-39.42 -42.61,-48.78 -21.19,-9.25 -49.62,-8.27 -85.55,3 -36.45,11.45 -60.67,26.7 -72.79,45.83 -12.06,19.21 -14.62,40.03 -7.59,62.44 5.7,18.13 15.91,31.5 30.76,40.06 14.8,8.67 34.21,11.01 58.15,7.04zm16.69 282.12c-19.92,-12.52 -35.29,-25.81 -46.25,-39.69 -10.97,-13.9 -19.25,-29.89 -24.94,-48.02 -9.37,-29.83 -9.33,-55.03 0.2,-75.64 9.44,-20.59 25.49,-34.44 48.07,-41.53 13.26,-4.15 26.33,-4.91 39.21,-2.34 12.9,2.65 24.1,7.86 33.81,15.54 9.71,7.77 18.22,17.18 25.48,28.4 5.2,8.33 11.76,21.32 19.75,38.82 16.02,35.78 29.95,61.57 41.56,77.18 6.34,-1.79 10.37,-2.96 12.03,-3.49 18.65,-5.85 30.45,-14.36 35.39,-25.48 6.67,-15.02 6.32,-34.17 -0.95,-57.35 -6.82,-21.72 -15.69,-36.56 -26.51,-44.46 -10.84,-7.99 -26.63,-11.37 -47.56,-10.27l-7.84 -46.95c20.55,-1.95 38.28,-0.13 53.09,5.56 14.8,5.7 28.16,16.45 40.18,32.21 11.92,15.71 21.63,35.36 28.97,58.73 7.27,23.18 10.51,42.97 9.58,59.24 -0.94,16.21 -4.37,29.05 -10.52,38.46 -6.15,9.4 -15.11,17.49 -26.88,24.24 -7.38,3.94 -21.26,9.16 -41.58,15.54l-61.04 19.15c-42.63,13.38 -69.28,22.8 -80.1,28.3 -10.84,5.42 -20.54,12.68 -29.25,21.54l-15.1 -48.13c8.23,-7.66 18.63,-14.18 31.21,-19.56zm100.87 -35.68c-12.06,-14.61 -25.69,-37.91 -40.91,-69.91 -8.67,-18.17 -15.93,-30.63 -21.79,-37.41 -5.86,-6.78 -12.72,-11.25 -20.51,-13.49 -7.89,-2.22 -15.81,-2.12 -23.83,0.39 -12.12,3.81 -20.87,11.62 -26.06,23.5 -5.18,11.87 -5.01,26.76 0.6,44.63 5.55,17.71 14.34,32.29 26.45,43.72 12,11.36 25.76,18.25 41.12,20.52 11.93,1.72 27.96,-0.63 48.11,-6.96l16.82 -4.98zm-206.08 184.79l40.91 -18.59c0.47,10.96 1.81,20.12 4.16,27.61 3.22,10.29 7.55,17.94 12.86,22.97 5.35,5.13 11.72,8.68 19.06,10.69 5.53,1.43 18.42,2.55 38.76,3.26 2.81,0.07 6.96,0.21 12.55,0.57l240.04 -188.55 15.44 49.18 -138.99 105.87c-17.47,13.62 -36.35,26.72 -56.49,39.47 22.34,-1.17 44.71,-1.29 67.06,-0.26l176.53 8.2 14.41 45.95 -308.44 -15.94c-33.2,-1.74 -56.32,-3.97 -69.5,-6.63 -17.67,-3.46 -31.7,-9.41 -42.07,-17.74 -10.39,-8.43 -17.86,-19.97 -22.46,-34.63 -2.79,-8.89 -4.07,-19.41 -3.83,-31.45zm458.64 145.72l14.46 46.04 -207.09 64.99 247.22 62.93 15.52 49.44 -271.53 85.21 -14.44 -46.04 205.77 -64.57 -245.87 -63.17 -15.57 -49.62 271.53 -85.21zm150.37 127.52l9.85 31.39c-22.34,4.24 -41.37,1.59 -56.98,-7.88 -15.71,-9.44 -26.9,-24.99 -33.72,-46.7 -6.84,-21.79 -6.56,-41.04 0.78,-57.62 7.44,-16.61 21.55,-29.64 42.47,-38.99l9.85 31.39c-11.04,6.05 -18.33,13.61 -21.87,22.48 -3.63,8.89 -3.49,19.38 0.27,31.33 4.34,13.87 10.41,23.45 18.3,28.73 7.8,5.32 18.2,7.33 31.06,5.87zm-13.19 309.59l14.44 46.05 -117.18 36.77c4.6,14.64 10.61,24.06 18.14,28.21 7.42,4.09 26.42,7.61 57.15,10.6 24.29,2.34 40.72,5.23 49.27,8.68 8.58,3.53 15.23,8.53 19.87,15.11 4.7,6.67 9.6,18.06 14.67,34.19l2.9 9.25 -37.93 11.9 -3.76 -12.9c-3.8,-12.11 -8.07,-19.31 -12.7,-21.58 -4.87,-2.41 -17.76,-4.39 -38.64,-5.9 -19.98,-1.38 -34.27,-3.9 -42.9,-7.61 -8.62,-3.62 -17.63,-10.66 -27.1,-20.99 0.9,21.47 -11.37,46.77 -36.91,75.85l-68.3 76.89 -15.87 -50.57 68.26 -76.12c13.86,-15.37 22.27,-27.58 25.36,-36.68 3.05,-9.19 2.96,-18.94 -0.29,-29.31l-125.57 39.4 -14.44 -46.05 271.53 -85.21zm14.28 507.29c-63.22,19.84 -112.61,12.92 -147.99,-20.79 -17.32,-16.41 -29.68,-36.57 -37.11,-60.29 -12.92,-41.16 -9.41,-77.32 10.51,-108.38 18.64,-28.83 49.02,-49.86 91.13,-63.07 50.14,-15.74 91.66,-13.44 124.57,6.88 27.37,16.99 46.29,42.18 56.82,75.74 12.53,39.93 9.18,75.37 -9.98,106.48 -18.21,29.58 -47.48,50.74 -87.94,63.43zm6.95 -55.06c20.98,-9.75 36,-22.32 45.03,-37.5 12.39,-20.65 14.94,-42.43 7.75,-65.36 -7.27,-23.19 -21.85,-39.69 -43.79,-49.48 -16.11,-7.39 -35.63,-9.13 -58.41,-5.13l49.42 157.47zm-37.34 12.87l-50.07 -159.56c-25.72,9.6 -44.92,23.19 -57.5,40.83 -14.26,20.18 -17.37,42.9 -9.49,68.01 7.86,25.04 23.46,41.78 46.81,49.96 20.16,7.18 43.61,7.39 70.25,0.75zm179.91 56.85l14.44 46.04 -233.34 73.23 32.84 104.63 233.34 -73.22 14.44 46.03 -233.34 73.23 32.84 104.64 233.34 -73.23 14.44 46.04 -271.53 85.21 -109.01 -347.39 271.53 -85.21zm5.68 660.93l8.68 49.58c-29.98,1.27 -55.87,-5.84 -77.47,-21.28 -21.6,-15.44 -37.38,-38.85 -47.25,-70.32 -12.42,-39.58 -10.08,-74.81 7.06,-105.66 17.05,-30.83 47.68,-53.19 91.7,-67 45.52,-14.29 84.59,-13.71 117.06,1.88 32.56,15.54 54.67,42.03 66.4,79.44 11.36,36.18 8.35,69.61 -9.14,100.29 -17.49,30.66 -48.57,53.07 -93.3,67.1 -2.71,0.85 -6.83,2.05 -12.29,3.57l-63.46 -202.2c-29.19,11.08 -49.39,26.61 -60.42,46.74 -11.05,20.04 -13.05,41.44 -5.96,64.04 5.28,16.82 14.26,29.82 26.86,38.88 12.65,9.16 29.81,14.11 51.53,14.95zm26.49 -173.82l47.45 151.2c22.22,-9.18 37.47,-20.38 45.92,-33.47 13.13,-20.12 16.05,-41.91 8.75,-65.19 -6.63,-21.11 -19.24,-36.59 -37.88,-46.54 -18.62,-9.87 -40.02,-11.87 -64.24,-6zm73.89 453.34l7.84 46.96c-32.52,4.74 -60.61,-0.23 -84.51,-15.04 -23.9,-14.82 -40.47,-37.11 -49.75,-66.67 -11.62,-37.06 -8.87,-70.69 8.3,-100.79 17.16,-30.2 48.34,-52.32 93.5,-66.5 29.29,-9.19 56.38,-12.32 81.39,-9.55 24.92,2.81 46.02,12.38 63.16,28.83 17.2,16.34 29.45,36.17 36.78,59.53 9.23,29.39 9.39,55.87 0.33,79.2 -9.03,23.43 -26.43,42.11 -52.18,55.93l-20.75 -42.33c16.89,-10 28.22,-21.78 34.05,-35.59 5.76,-13.68 6.27,-28.21 1.45,-43.57 -7.28,-23.18 -21.47,-39.42 -42.61,-48.78 -21.19,-9.25 -49.62,-8.27 -85.55,3 -36.45,11.45 -60.67,26.7 -72.78,45.83 -12.07,19.21 -14.63,40.03 -7.61,62.44 5.7,18.13 15.91,31.5 30.76,40.05 14.8,8.68 34.21,11.02 58.15,7.05zm249.31 14.3l52.31 -16.42 14.44 46.03 -52.31 16.42 -14.44 -46.03zm-322.29 101.13l271.53 -85.21 14.46 46.04 -271.53 85.21 -14.46 -46.04z"/>
  <line class="fil1 str1" x1="29228.11" y1="21863.36" x2="37497.09" y2= "19293.07" />
  <path class="fil2" d="M31769.91 20687.02l-114.74 -375.47 74.46 -22.76 170.02 238.64c15.77,22.23 27.38,38.94 34.91,50.12 0.11,-14.93 0.7,-37.1 1.69,-66.36l10.58 -288.77 66.5 -20.33 114.74 375.47 -47.73 14.59 -95.99 -314.1 -13.6 347.6 -44.74 13.67 -206.12 -286.75 97.74 319.87 -47.72 14.59zm605.32 -222.24c-12.68,19.82 -26.08,35.09 -40.05,45.96 -13.98,10.86 -30.02,19.02 -48.21,24.57 -29.9,9.14 -55.1,8.92 -75.63,-0.78 -20.52,-9.59 -34.25,-25.75 -41.17,-48.38 -4.05,-13.28 -4.72,-26.37 -2.05,-39.22 2.75,-12.88 8.04,-24.05 15.8,-33.68 7.85,-9.66 17.32,-18.1 28.59,-25.27 8.37,-5.14 21.41,-11.6 38.97,-19.46 35.9,-15.74 61.81,-29.49 77.49,-40.98 -1.74,-6.35 -2.89,-10.38 -3.39,-12.06 -5.72,-18.7 -14.12,-30.55 -25.21,-35.58 -14.98,-6.78 -34.13,-6.58 -57.37,0.52 -21.77,6.65 -36.68,15.41 -44.66,26.18 -8.07,10.78 -11.57,26.56 -10.62,47.48l-47.01 7.48c-1.8,-20.57 0.16,-38.27 5.96,-53.04 5.81,-14.77 16.65,-28.03 32.51,-39.95 15.8,-11.8 35.53,-21.36 58.94,-28.52 23.25,-7.11 43.04,-10.19 59.32,-9.14 16.2,1.05 29.02,4.6 38.37,10.81 9.36,6.22 17.37,15.24 24.04,27.07 3.9,7.39 9,21.33 15.23,41.69l18.7 61.17c13.06,42.74 22.28,69.46 27.7,80.31 5.33,10.88 12.51,20.64 21.32,29.41l-48.25 14.74c-7.59,-8.28 -14.03,-18.74 -19.32,-31.35zm-34.93 -101.14c-14.7,11.95 -38.1,25.4 -70.22,40.39 -18.23,8.53 -30.75,15.7 -37.57,21.51 -6.83,5.82 -11.34,12.63 -13.64,20.42 -2.29,7.87 -2.24,15.79 0.21,23.83 3.72,12.15 11.47,20.95 23.3,26.22 11.83,5.28 26.72,5.22 44.64,-0.27 17.74,-5.42 32.39,-14.1 43.91,-26.11 11.45,-11.91 18.44,-25.61 20.83,-40.96 1.81,-11.93 -0.42,-27.97 -6.59,-48.16l-4.86 -16.86zm191.11 204.77l-115.06 -376.51 41.96 -12.82 10.92 35.75c5.65,-16.83 13.67,-30.64 24.05,-41.38 10.3,-10.69 24.36,-18.81 42.1,-24.23 23.24,-7.11 45.51,-7.41 66.9,-0.87 21.38,6.47 39.91,19.25 55.62,38.15 15.65,19.02 27.47,41.39 35.39,67.35 8.47,27.71 11.12,54.23 7.97,79.57 -3.18,25.24 -12.48,46.72 -27.9,64.42 -15.35,17.61 -33.55,29.65 -54.53,36.07 -15.39,4.7 -30.18,5.68 -44.3,2.93 -14.22,-2.73 -26.66,-7.82 -37.55,-15.28l40.57 132.75 -46.14 14.1zm-31.02 -251.59c10.66,34.87 25.62,58.5 44.79,70.89 19.25,12.36 38.96,15.51 59.05,9.37 20.45,-6.25 35.28,-20.24 44.51,-41.98 9.3,-21.76 8.39,-50.73 -2.69,-87 -10.58,-34.62 -25.57,-58.31 -45.08,-71.18 -19.52,-12.87 -39.08,-16.25 -58.83,-10.21 -19.58,5.98 -34.07,20.45 -43.53,43.3 -9.5,22.98 -8.9,51.85 1.78,86.81zm376.1 -223.68l-110.64 33.82 20.99 68.68 59.25 -18.11 10.26 33.56 -59.25 18.11 40.22 131.63 -46.15 14.1 -40.22 -131.63 -31.99 9.78 -10.26 -33.56 31.99 -9.78 -32.68 -106.97 156.79 -47.92 11.7 38.29zm245.6 -116.92l-19.61 303.57 82.33 -25.16 10.25 33.56 -82.32 25.16 21.63 70.79 -46.14 14.1 -21.63 -70.79 -82.87 25.32 -10.25 -33.56 82.86 -25.32 -186.48 -240.59 49.29 -15.07 105.32 140.12c14.6,19.32 27.67,38.27 39.21,57.01 -0.8,-20.13 -0.51,-43.23 0.63,-69.19l8.48 -174.89 49.29 -15.07zm61.88 -18.91l214.48 -65.55 83.09 271.89 -46.15 14.1 -71.39 -233.6 -122.18 37.34 41.37 135.37c9.65,31.55 14.95,52.68 16.04,63.43 0.97,10.69 -1.95,21.14 -8.84,31.46 -6.97,10.35 -19.11,18.16 -36.49,23.48 -10.75,3.29 -23.37,6.37 -37.76,9.34l-11.72 -38.37 20.18 -6.16c9.53,-2.92 16.05,-5.95 19.54,-9.23 3.52,-3.18 5.27,-7.15 5.36,-11.86 0.01,-4.7 -3.55,-18.8 -10.74,-42.31l-54.8 -179.33zm533.96 97.13c-12.68,19.83 -26.08,35.09 -40.05,45.96 -13.98,10.86 -30.02,19.02 -48.21,24.57 -29.9,9.14 -55.1,8.92 -75.64,-0.78 -20.52,-9.58 -34.24,-25.75 -41.16,-48.38 -4.06,-13.28 -4.72,-26.37 -2.05,-39.22 2.75,-12.88 8.04,-24.05 15.8,-33.68 7.84,-9.65 17.31,-18.1 28.59,-25.27 8.37,-5.13 21.41,-11.6 38.97,-19.45 35.9,-15.75 61.81,-29.5 77.49,-40.98 -1.74,-6.35 -2.89,-10.39 -3.4,-12.06 -5.71,-18.71 -14.12,-30.56 -25.21,-35.59 -14.97,-6.78 -34.12,-6.57 -57.35,0.52 -21.77,6.65 -36.68,15.41 -44.66,26.18 -8.07,10.78 -11.57,26.56 -10.62,47.48l-47.02 7.48c-1.79,-20.56 0.16,-38.27 5.97,-53.04 5.81,-14.77 16.65,-28.03 32.51,-39.95 15.79,-11.8 35.52,-21.36 58.94,-28.52 23.24,-7.11 43.04,-10.19 59.32,-9.14 16.19,1.07 29.02,4.6 38.37,10.81 9.36,6.22 17.37,15.24 24.04,27.07 3.89,7.41 9,21.33 15.23,41.69l18.7 61.17c13.06,42.74 22.27,69.46 27.7,80.31 5.33,10.88 12.51,20.64 21.32,29.42l-48.25 14.74c-7.59,-8.29 -14.04,-18.75 -19.32,-31.36zm-34.93 -101.13c-14.7,11.95 -38.1,25.39 -70.22,40.38 -18.23,8.53 -30.75,15.7 -37.58,21.52 -6.82,5.81 -11.34,12.63 -13.63,20.41 -2.29,7.87 -2.24,15.79 0.21,23.83 3.71,12.15 11.47,20.96 23.3,26.23 11.83,5.27 26.71,5.21 44.64,-0.27 17.74,-5.43 32.39,-14.1 43.91,-26.12 11.45,-11.91 18.44,-25.61 20.83,-40.96 1.81,-11.93 -0.42,-27.97 -6.59,-48.16l-4.86 -16.85zm76.05 -171.75l46.14 -14.1 34.62 113.26 127.95 -39.1 -34.62 -113.26 46.14 -14.1 83.18 272.16 -46.14 14.1 -36.86 -120.6 -127.95 39.1 36.86 120.6 -46.15 14.1 -83.17 -272.16zm434.72 -132.85l46.15 -14.1 35.89 117.46c14.68,-4.49 24.14,-10.42 28.34,-17.92 4.14,-7.39 7.8,-26.38 11.04,-57.08 2.52,-24.28 5.53,-40.69 9.05,-49.22 3.6,-8.55 8.65,-15.15 15.27,-19.76 6.71,-4.63 18.13,-9.46 34.29,-14.4l9.27 -2.83 11.62 38.01 -12.93 3.66c-12.15,3.71 -19.36,7.93 -21.68,12.55 -2.44,4.85 -4.52,17.73 -6.17,38.58 -1.54,19.97 -4.15,34.24 -7.94,42.85 -3.67,8.57 -10.78,17.54 -21.19,26.93 21.47,-0.73 46.68,11.72 75.57,37.49l76.37 68.87 -50.68 15.49 -75.6 -68.82c-15.27,-13.98 -27.42,-22.48 -36.5,-25.64 -9.17,-3.12 -18.92,-3.11 -29.31,0.07l38.46 125.85 -46.15 14.1 -83.17 -272.16zm507.38 -10.47c19.36,63.36 12.07,112.7 -21.9,147.84 -16.54,17.2 -36.79,29.4 -60.56,36.66 -41.26,12.61 -77.38,8.84 -108.3,-11.32 -28.69,-18.85 -49.48,-49.39 -62.38,-91.59 -15.37,-50.27 -12.76,-91.76 7.82,-124.52 17.2,-27.23 42.52,-45.96 76.17,-56.24 40.02,-12.23 75.44,-8.63 106.4,10.77 29.43,18.43 50.37,47.87 62.76,88.42zm-55 -7.36c-9.59,-21.06 -22.05,-36.17 -37.17,-45.31 -20.55,-12.55 -42.31,-15.27 -65.3,-8.24 -23.24,7.09 -39.85,21.54 -49.79,43.41 -7.52,16.05 -9.4,35.55 -5.57,58.36l157.84 -48.23zm12.58 37.44l-159.93 48.87c9.4,25.79 22.86,45.1 40.4,57.8 20.07,14.41 42.77,17.7 67.93,10 25.09,-7.67 41.96,-23.15 50.32,-46.43 7.34,-20.11 7.72,-43.55 1.28,-70.24zm58.21 -179.48l46.15 -14.1 71.47 233.88 104.88 -32.05 -71.48 -233.88 46.15 -14.1 71.47 233.88 104.88 -32.05 -71.48 -233.88 46.15 -14.1 83.17 272.16 -348.19 106.4 -83.18 -272.16zm660.95 -0.73l49.65 -8.29c1.03,29.98 -6.26,55.81 -21.86,77.29 -15.61,21.49 -39.14,37.09 -70.68,46.73 -39.68,12.12 -74.88,9.51 -105.6,-7.86 -30.71,-17.28 -52.82,-48.07 -66.31,-92.2 -13.94,-45.62 -13.08,-84.68 2.75,-117.04 15.79,-32.44 42.44,-54.35 79.94,-65.8 36.27,-11.09 69.67,-7.83 100.21,9.89 30.54,17.71 52.71,48.97 66.41,93.79 0.82,2.72 2,6.85 3.47,12.32l-202.68 61.94c10.86,29.27 26.25,49.59 46.3,60.77 19.95,11.19 41.34,13.36 63.98,6.44 16.86,-5.15 29.92,-14.02 39.08,-26.57 9.26,-12.58 14.34,-29.7 15.34,-51.41zm-173.62 -27.79l151.56 -46.31c-9.02,-22.29 -20.11,-37.63 -33.13,-46.17 -20.02,-13.28 -41.79,-16.36 -65.13,-9.24 -21.15,6.46 -36.73,18.97 -46.82,37.53 -10,18.55 -12.17,39.93 -6.48,64.19zm453.89 -70.48l47.02 -7.48c4.5,32.54 -0.7,60.61 -15.69,84.4 -14.99,23.78 -37.41,40.19 -67.04,49.24 -37.15,11.35 -70.75,8.34 -100.73,-9.06 -30.05,-17.39 -51.96,-48.73 -65.79,-94 -8.97,-29.35 -11.9,-56.47 -8.94,-81.46 3,-24.9 12.72,-45.92 29.31,-62.94 16.46,-17.09 36.38,-29.19 59.81,-36.34 29.45,-9 55.93,-8.97 79.19,0.26 23.36,9.2 41.91,26.76 55.54,52.6l-42.49 20.44c-9.87,-16.96 -21.57,-28.39 -35.33,-34.32 -13.64,-5.86 -28.18,-6.48 -43.55,-1.79 -23.25,7.11 -39.59,21.17 -49.11,42.24 -9.4,21.13 -8.65,49.55 2.35,85.56 11.17,36.54 26.25,60.88 45.27,73.13 19.12,12.21 39.92,14.93 62.38,8.07 18.17,-5.56 31.62,-15.68 40.28,-30.46 8.79,-14.73 11.28,-34.12 7.49,-58.1zm16.15 -249.19l-16.02 -52.45 46.14 -14.1 16.03 52.45 -46.15 14.1zm98.72 323.02l-83.17 -272.16 46.14 -14.1 83.17 272.16 -46.14 14.1z"/>
  <path class="fil1 str2" d="M8720.54 2648.7c516.51,231.31 937.54,444.29 1428.35,1288.81l1531.71 4706.28 1684.8 5115.88 1832.28 -649.9 204.7 577.39"/>
  <polygon class="fil3" points="15476.11,13887.36 15211.75,13553.23 15457.76,13465.1 "/>
  <polyline class="fil1 str3" points="26605.54,10806.68 25287.35,11225.27 24982.58,10299.97 22720.73,10993.95 22573.86,10582.71 16129.8,12804.16 15894.8,13494.47 "/>
  <polygon class="fil4" points="15823.24,13690.95 15828.01,13264.92 16074.67,13351.21 "/>
  <polygon class="fil0 str0" points="15487.31,14993.4 14642.78,15243.09 14268.26,14134.2 16361.21,13480.61 17304.86,16546.59 16129.88,16943.15 "/>
  <line class="fil1 str4" x1="14642.78" y1="15243.09" x2="14642.78" y2= "15727.9" />
  <line class="fil1 str4" x1="14268.26" y1="14134.2" x2="14268.26" y2= "14619.01" />
  <line class="fil1 str4" x1="15487.31" y1="14993.4" x2="15487.31" y2= "15478.21" />
  <line class="fil1 str4" x1="16129.88" y1="16943.15" x2="16129.88" y2= "17427.96" />
  <line class="fil1 str4" x1="17304.86" y1="16546.59" x2="17304.86" y2= "17031.4" />
 </g>
</svg>
